%TF.GenerationSoftware,KiCad,Pcbnew,10.0.1*%
%TF.CreationDate,2026-07-10T00:57:24+09:00*%
%TF.ProjectId,Mini_Oscilloscope,4d696e69-5f4f-4736-9369-6c6c6f73636f,rev?*%
%TF.SameCoordinates,Original*%
%TF.FileFunction,Legend,Top*%
%TF.FilePolarity,Positive*%
%FSLAX46Y46*%
G04 Gerber Fmt 4.6, Leading zero omitted, Abs format (unit mm)*
G04 Created by KiCad (PCBNEW 10.0.1) date 2026-07-10 00:57:24*
%MOMM*%
%LPD*%
G01*
G04 APERTURE LIST*
%ADD10C,0.100000*%
%ADD11C,0.300000*%
%ADD12C,0.150000*%
%ADD13C,0.200000*%
%ADD14C,0.120000*%
G04 APERTURE END LIST*
D10*
X114700000Y-55400000D02*
X127700000Y-55400000D01*
X127700000Y-105400000D01*
X114700000Y-105400000D01*
X114700000Y-55400000D01*
D11*
X132400000Y-51400000D02*
X132400000Y-77700000D01*
X132400000Y-51400000D02*
X157400000Y-51400000D01*
X132400000Y-77700000D02*
X157400000Y-77700000D01*
D10*
X132900000Y-58200000D02*
X156900000Y-58200000D01*
X156900000Y-70700000D01*
X132900000Y-70700000D01*
X132900000Y-58200000D01*
X134900000Y-80800000D02*
X154900000Y-80800000D01*
X154900000Y-105800000D01*
X134900000Y-105800000D01*
X134900000Y-80800000D01*
D11*
X157400000Y-51400000D02*
X157400000Y-77700000D01*
D12*
X140927255Y-62069819D02*
X141117731Y-62069819D01*
X141117731Y-62069819D02*
X141212969Y-62117438D01*
X141212969Y-62117438D02*
X141308207Y-62212676D01*
X141308207Y-62212676D02*
X141355826Y-62403152D01*
X141355826Y-62403152D02*
X141355826Y-62736485D01*
X141355826Y-62736485D02*
X141308207Y-62926961D01*
X141308207Y-62926961D02*
X141212969Y-63022200D01*
X141212969Y-63022200D02*
X141117731Y-63069819D01*
X141117731Y-63069819D02*
X140927255Y-63069819D01*
X140927255Y-63069819D02*
X140832017Y-63022200D01*
X140832017Y-63022200D02*
X140736779Y-62926961D01*
X140736779Y-62926961D02*
X140689160Y-62736485D01*
X140689160Y-62736485D02*
X140689160Y-62403152D01*
X140689160Y-62403152D02*
X140736779Y-62212676D01*
X140736779Y-62212676D02*
X140832017Y-62117438D01*
X140832017Y-62117438D02*
X140927255Y-62069819D01*
X142260588Y-63069819D02*
X141784398Y-63069819D01*
X141784398Y-63069819D02*
X141784398Y-62069819D01*
X142593922Y-62546009D02*
X142927255Y-62546009D01*
X143070112Y-63069819D02*
X142593922Y-63069819D01*
X142593922Y-63069819D02*
X142593922Y-62069819D01*
X142593922Y-62069819D02*
X143070112Y-62069819D01*
X143498684Y-63069819D02*
X143498684Y-62069819D01*
X143498684Y-62069819D02*
X143736779Y-62069819D01*
X143736779Y-62069819D02*
X143879636Y-62117438D01*
X143879636Y-62117438D02*
X143974874Y-62212676D01*
X143974874Y-62212676D02*
X144022493Y-62307914D01*
X144022493Y-62307914D02*
X144070112Y-62498390D01*
X144070112Y-62498390D02*
X144070112Y-62641247D01*
X144070112Y-62641247D02*
X144022493Y-62831723D01*
X144022493Y-62831723D02*
X143974874Y-62926961D01*
X143974874Y-62926961D02*
X143879636Y-63022200D01*
X143879636Y-63022200D02*
X143736779Y-63069819D01*
X143736779Y-63069819D02*
X143498684Y-63069819D01*
X145784398Y-63069819D02*
X145212970Y-63069819D01*
X145498684Y-63069819D02*
X145498684Y-62069819D01*
X145498684Y-62069819D02*
X145403446Y-62212676D01*
X145403446Y-62212676D02*
X145308208Y-62307914D01*
X145308208Y-62307914D02*
X145212970Y-62355533D01*
X146165351Y-62165057D02*
X146212970Y-62117438D01*
X146212970Y-62117438D02*
X146308208Y-62069819D01*
X146308208Y-62069819D02*
X146546303Y-62069819D01*
X146546303Y-62069819D02*
X146641541Y-62117438D01*
X146641541Y-62117438D02*
X146689160Y-62165057D01*
X146689160Y-62165057D02*
X146736779Y-62260295D01*
X146736779Y-62260295D02*
X146736779Y-62355533D01*
X146736779Y-62355533D02*
X146689160Y-62498390D01*
X146689160Y-62498390D02*
X146117732Y-63069819D01*
X146117732Y-63069819D02*
X146736779Y-63069819D01*
X147308208Y-62498390D02*
X147212970Y-62450771D01*
X147212970Y-62450771D02*
X147165351Y-62403152D01*
X147165351Y-62403152D02*
X147117732Y-62307914D01*
X147117732Y-62307914D02*
X147117732Y-62260295D01*
X147117732Y-62260295D02*
X147165351Y-62165057D01*
X147165351Y-62165057D02*
X147212970Y-62117438D01*
X147212970Y-62117438D02*
X147308208Y-62069819D01*
X147308208Y-62069819D02*
X147498684Y-62069819D01*
X147498684Y-62069819D02*
X147593922Y-62117438D01*
X147593922Y-62117438D02*
X147641541Y-62165057D01*
X147641541Y-62165057D02*
X147689160Y-62260295D01*
X147689160Y-62260295D02*
X147689160Y-62307914D01*
X147689160Y-62307914D02*
X147641541Y-62403152D01*
X147641541Y-62403152D02*
X147593922Y-62450771D01*
X147593922Y-62450771D02*
X147498684Y-62498390D01*
X147498684Y-62498390D02*
X147308208Y-62498390D01*
X147308208Y-62498390D02*
X147212970Y-62546009D01*
X147212970Y-62546009D02*
X147165351Y-62593628D01*
X147165351Y-62593628D02*
X147117732Y-62688866D01*
X147117732Y-62688866D02*
X147117732Y-62879342D01*
X147117732Y-62879342D02*
X147165351Y-62974580D01*
X147165351Y-62974580D02*
X147212970Y-63022200D01*
X147212970Y-63022200D02*
X147308208Y-63069819D01*
X147308208Y-63069819D02*
X147498684Y-63069819D01*
X147498684Y-63069819D02*
X147593922Y-63022200D01*
X147593922Y-63022200D02*
X147641541Y-62974580D01*
X147641541Y-62974580D02*
X147689160Y-62879342D01*
X147689160Y-62879342D02*
X147689160Y-62688866D01*
X147689160Y-62688866D02*
X147641541Y-62593628D01*
X147641541Y-62593628D02*
X147593922Y-62546009D01*
X147593922Y-62546009D02*
X147498684Y-62498390D01*
X148022494Y-63069819D02*
X148546303Y-62403152D01*
X148022494Y-62403152D02*
X148546303Y-63069819D01*
X149355827Y-62069819D02*
X149165351Y-62069819D01*
X149165351Y-62069819D02*
X149070113Y-62117438D01*
X149070113Y-62117438D02*
X149022494Y-62165057D01*
X149022494Y-62165057D02*
X148927256Y-62307914D01*
X148927256Y-62307914D02*
X148879637Y-62498390D01*
X148879637Y-62498390D02*
X148879637Y-62879342D01*
X148879637Y-62879342D02*
X148927256Y-62974580D01*
X148927256Y-62974580D02*
X148974875Y-63022200D01*
X148974875Y-63022200D02*
X149070113Y-63069819D01*
X149070113Y-63069819D02*
X149260589Y-63069819D01*
X149260589Y-63069819D02*
X149355827Y-63022200D01*
X149355827Y-63022200D02*
X149403446Y-62974580D01*
X149403446Y-62974580D02*
X149451065Y-62879342D01*
X149451065Y-62879342D02*
X149451065Y-62641247D01*
X149451065Y-62641247D02*
X149403446Y-62546009D01*
X149403446Y-62546009D02*
X149355827Y-62498390D01*
X149355827Y-62498390D02*
X149260589Y-62450771D01*
X149260589Y-62450771D02*
X149070113Y-62450771D01*
X149070113Y-62450771D02*
X148974875Y-62498390D01*
X148974875Y-62498390D02*
X148927256Y-62546009D01*
X148927256Y-62546009D02*
X148879637Y-62641247D01*
X150308208Y-62403152D02*
X150308208Y-63069819D01*
X150070113Y-62022200D02*
X149832018Y-62736485D01*
X149832018Y-62736485D02*
X150451065Y-62736485D01*
X141482561Y-55060588D02*
X141530180Y-54965350D01*
X141530180Y-54965350D02*
X141530180Y-54822493D01*
X141530180Y-54822493D02*
X141482561Y-54679636D01*
X141482561Y-54679636D02*
X141387323Y-54584398D01*
X141387323Y-54584398D02*
X141292085Y-54536779D01*
X141292085Y-54536779D02*
X141101609Y-54489160D01*
X141101609Y-54489160D02*
X140958752Y-54489160D01*
X140958752Y-54489160D02*
X140768276Y-54536779D01*
X140768276Y-54536779D02*
X140673038Y-54584398D01*
X140673038Y-54584398D02*
X140577800Y-54679636D01*
X140577800Y-54679636D02*
X140530180Y-54822493D01*
X140530180Y-54822493D02*
X140530180Y-54917731D01*
X140530180Y-54917731D02*
X140577800Y-55060588D01*
X140577800Y-55060588D02*
X140625419Y-55108207D01*
X140625419Y-55108207D02*
X140958752Y-55108207D01*
X140958752Y-55108207D02*
X140958752Y-54917731D01*
X140530180Y-55536779D02*
X141530180Y-55536779D01*
X141530180Y-55536779D02*
X140530180Y-56108207D01*
X140530180Y-56108207D02*
X141530180Y-56108207D01*
X140530180Y-56584398D02*
X141530180Y-56584398D01*
X141530180Y-56584398D02*
X141530180Y-56822493D01*
X141530180Y-56822493D02*
X141482561Y-56965350D01*
X141482561Y-56965350D02*
X141387323Y-57060588D01*
X141387323Y-57060588D02*
X141292085Y-57108207D01*
X141292085Y-57108207D02*
X141101609Y-57155826D01*
X141101609Y-57155826D02*
X140958752Y-57155826D01*
X140958752Y-57155826D02*
X140768276Y-57108207D01*
X140768276Y-57108207D02*
X140673038Y-57060588D01*
X140673038Y-57060588D02*
X140577800Y-56965350D01*
X140577800Y-56965350D02*
X140530180Y-56822493D01*
X140530180Y-56822493D02*
X140530180Y-56584398D01*
X144030180Y-54393922D02*
X143030180Y-54727255D01*
X143030180Y-54727255D02*
X144030180Y-55060588D01*
X143125419Y-55965350D02*
X143077800Y-55917731D01*
X143077800Y-55917731D02*
X143030180Y-55774874D01*
X143030180Y-55774874D02*
X143030180Y-55679636D01*
X143030180Y-55679636D02*
X143077800Y-55536779D01*
X143077800Y-55536779D02*
X143173038Y-55441541D01*
X143173038Y-55441541D02*
X143268276Y-55393922D01*
X143268276Y-55393922D02*
X143458752Y-55346303D01*
X143458752Y-55346303D02*
X143601609Y-55346303D01*
X143601609Y-55346303D02*
X143792085Y-55393922D01*
X143792085Y-55393922D02*
X143887323Y-55441541D01*
X143887323Y-55441541D02*
X143982561Y-55536779D01*
X143982561Y-55536779D02*
X144030180Y-55679636D01*
X144030180Y-55679636D02*
X144030180Y-55774874D01*
X144030180Y-55774874D02*
X143982561Y-55917731D01*
X143982561Y-55917731D02*
X143934942Y-55965350D01*
X143125419Y-56965350D02*
X143077800Y-56917731D01*
X143077800Y-56917731D02*
X143030180Y-56774874D01*
X143030180Y-56774874D02*
X143030180Y-56679636D01*
X143030180Y-56679636D02*
X143077800Y-56536779D01*
X143077800Y-56536779D02*
X143173038Y-56441541D01*
X143173038Y-56441541D02*
X143268276Y-56393922D01*
X143268276Y-56393922D02*
X143458752Y-56346303D01*
X143458752Y-56346303D02*
X143601609Y-56346303D01*
X143601609Y-56346303D02*
X143792085Y-56393922D01*
X143792085Y-56393922D02*
X143887323Y-56441541D01*
X143887323Y-56441541D02*
X143982561Y-56536779D01*
X143982561Y-56536779D02*
X144030180Y-56679636D01*
X144030180Y-56679636D02*
X144030180Y-56774874D01*
X144030180Y-56774874D02*
X143982561Y-56917731D01*
X143982561Y-56917731D02*
X143934942Y-56965350D01*
X145577800Y-54489160D02*
X145530180Y-54632017D01*
X145530180Y-54632017D02*
X145530180Y-54870112D01*
X145530180Y-54870112D02*
X145577800Y-54965350D01*
X145577800Y-54965350D02*
X145625419Y-55012969D01*
X145625419Y-55012969D02*
X145720657Y-55060588D01*
X145720657Y-55060588D02*
X145815895Y-55060588D01*
X145815895Y-55060588D02*
X145911133Y-55012969D01*
X145911133Y-55012969D02*
X145958752Y-54965350D01*
X145958752Y-54965350D02*
X146006371Y-54870112D01*
X146006371Y-54870112D02*
X146053990Y-54679636D01*
X146053990Y-54679636D02*
X146101609Y-54584398D01*
X146101609Y-54584398D02*
X146149228Y-54536779D01*
X146149228Y-54536779D02*
X146244466Y-54489160D01*
X146244466Y-54489160D02*
X146339704Y-54489160D01*
X146339704Y-54489160D02*
X146434942Y-54536779D01*
X146434942Y-54536779D02*
X146482561Y-54584398D01*
X146482561Y-54584398D02*
X146530180Y-54679636D01*
X146530180Y-54679636D02*
X146530180Y-54917731D01*
X146530180Y-54917731D02*
X146482561Y-55060588D01*
X145625419Y-56060588D02*
X145577800Y-56012969D01*
X145577800Y-56012969D02*
X145530180Y-55870112D01*
X145530180Y-55870112D02*
X145530180Y-55774874D01*
X145530180Y-55774874D02*
X145577800Y-55632017D01*
X145577800Y-55632017D02*
X145673038Y-55536779D01*
X145673038Y-55536779D02*
X145768276Y-55489160D01*
X145768276Y-55489160D02*
X145958752Y-55441541D01*
X145958752Y-55441541D02*
X146101609Y-55441541D01*
X146101609Y-55441541D02*
X146292085Y-55489160D01*
X146292085Y-55489160D02*
X146387323Y-55536779D01*
X146387323Y-55536779D02*
X146482561Y-55632017D01*
X146482561Y-55632017D02*
X146530180Y-55774874D01*
X146530180Y-55774874D02*
X146530180Y-55870112D01*
X146530180Y-55870112D02*
X146482561Y-56012969D01*
X146482561Y-56012969D02*
X146434942Y-56060588D01*
X145530180Y-56965350D02*
X145530180Y-56489160D01*
X145530180Y-56489160D02*
X146530180Y-56489160D01*
X148077800Y-54489160D02*
X148030180Y-54632017D01*
X148030180Y-54632017D02*
X148030180Y-54870112D01*
X148030180Y-54870112D02*
X148077800Y-54965350D01*
X148077800Y-54965350D02*
X148125419Y-55012969D01*
X148125419Y-55012969D02*
X148220657Y-55060588D01*
X148220657Y-55060588D02*
X148315895Y-55060588D01*
X148315895Y-55060588D02*
X148411133Y-55012969D01*
X148411133Y-55012969D02*
X148458752Y-54965350D01*
X148458752Y-54965350D02*
X148506371Y-54870112D01*
X148506371Y-54870112D02*
X148553990Y-54679636D01*
X148553990Y-54679636D02*
X148601609Y-54584398D01*
X148601609Y-54584398D02*
X148649228Y-54536779D01*
X148649228Y-54536779D02*
X148744466Y-54489160D01*
X148744466Y-54489160D02*
X148839704Y-54489160D01*
X148839704Y-54489160D02*
X148934942Y-54536779D01*
X148934942Y-54536779D02*
X148982561Y-54584398D01*
X148982561Y-54584398D02*
X149030180Y-54679636D01*
X149030180Y-54679636D02*
X149030180Y-54917731D01*
X149030180Y-54917731D02*
X148982561Y-55060588D01*
X148030180Y-55489160D02*
X149030180Y-55489160D01*
X149030180Y-55489160D02*
X149030180Y-55727255D01*
X149030180Y-55727255D02*
X148982561Y-55870112D01*
X148982561Y-55870112D02*
X148887323Y-55965350D01*
X148887323Y-55965350D02*
X148792085Y-56012969D01*
X148792085Y-56012969D02*
X148601609Y-56060588D01*
X148601609Y-56060588D02*
X148458752Y-56060588D01*
X148458752Y-56060588D02*
X148268276Y-56012969D01*
X148268276Y-56012969D02*
X148173038Y-55965350D01*
X148173038Y-55965350D02*
X148077800Y-55870112D01*
X148077800Y-55870112D02*
X148030180Y-55727255D01*
X148030180Y-55727255D02*
X148030180Y-55489160D01*
X148315895Y-56441541D02*
X148315895Y-56917731D01*
X148030180Y-56346303D02*
X149030180Y-56679636D01*
X149030180Y-56679636D02*
X148030180Y-57012969D01*
D11*
X162940225Y-98500828D02*
X163225939Y-98500828D01*
X163225939Y-98500828D02*
X163368796Y-98572257D01*
X163368796Y-98572257D02*
X163511653Y-98715114D01*
X163511653Y-98715114D02*
X163583082Y-99000828D01*
X163583082Y-99000828D02*
X163583082Y-99500828D01*
X163583082Y-99500828D02*
X163511653Y-99786542D01*
X163511653Y-99786542D02*
X163368796Y-99929400D01*
X163368796Y-99929400D02*
X163225939Y-100000828D01*
X163225939Y-100000828D02*
X162940225Y-100000828D01*
X162940225Y-100000828D02*
X162797368Y-99929400D01*
X162797368Y-99929400D02*
X162654510Y-99786542D01*
X162654510Y-99786542D02*
X162583082Y-99500828D01*
X162583082Y-99500828D02*
X162583082Y-99000828D01*
X162583082Y-99000828D02*
X162654510Y-98715114D01*
X162654510Y-98715114D02*
X162797368Y-98572257D01*
X162797368Y-98572257D02*
X162940225Y-98500828D01*
X164225939Y-100000828D02*
X164225939Y-98500828D01*
X164225939Y-98500828D02*
X165083082Y-100000828D01*
X165083082Y-100000828D02*
X165083082Y-98500828D01*
X120845828Y-96588346D02*
X120988685Y-96159774D01*
X120988685Y-96159774D02*
X121131542Y-96016917D01*
X121131542Y-96016917D02*
X121417257Y-95874060D01*
X121417257Y-95874060D02*
X121845828Y-95874060D01*
X121845828Y-95874060D02*
X122131542Y-96016917D01*
X122131542Y-96016917D02*
X122274400Y-96159774D01*
X122274400Y-96159774D02*
X122417257Y-96445489D01*
X122417257Y-96445489D02*
X122417257Y-97588346D01*
X122417257Y-97588346D02*
X119417257Y-97588346D01*
X119417257Y-97588346D02*
X119417257Y-96588346D01*
X119417257Y-96588346D02*
X119560114Y-96302632D01*
X119560114Y-96302632D02*
X119702971Y-96159774D01*
X119702971Y-96159774D02*
X119988685Y-96016917D01*
X119988685Y-96016917D02*
X120274400Y-96016917D01*
X120274400Y-96016917D02*
X120560114Y-96159774D01*
X120560114Y-96159774D02*
X120702971Y-96302632D01*
X120702971Y-96302632D02*
X120845828Y-96588346D01*
X120845828Y-96588346D02*
X120845828Y-97588346D01*
X122417257Y-93302632D02*
X120845828Y-93302632D01*
X120845828Y-93302632D02*
X120560114Y-93445489D01*
X120560114Y-93445489D02*
X120417257Y-93731203D01*
X120417257Y-93731203D02*
X120417257Y-94302632D01*
X120417257Y-94302632D02*
X120560114Y-94588346D01*
X122274400Y-93302632D02*
X122417257Y-93588346D01*
X122417257Y-93588346D02*
X122417257Y-94302632D01*
X122417257Y-94302632D02*
X122274400Y-94588346D01*
X122274400Y-94588346D02*
X121988685Y-94731203D01*
X121988685Y-94731203D02*
X121702971Y-94731203D01*
X121702971Y-94731203D02*
X121417257Y-94588346D01*
X121417257Y-94588346D02*
X121274400Y-94302632D01*
X121274400Y-94302632D02*
X121274400Y-93588346D01*
X121274400Y-93588346D02*
X121131542Y-93302632D01*
X120417257Y-92302631D02*
X120417257Y-91159774D01*
X119417257Y-91874060D02*
X121988685Y-91874060D01*
X121988685Y-91874060D02*
X122274400Y-91731203D01*
X122274400Y-91731203D02*
X122417257Y-91445488D01*
X122417257Y-91445488D02*
X122417257Y-91159774D01*
X120417257Y-90588345D02*
X120417257Y-89445488D01*
X119417257Y-90159774D02*
X121988685Y-90159774D01*
X121988685Y-90159774D02*
X122274400Y-90016917D01*
X122274400Y-90016917D02*
X122417257Y-89731202D01*
X122417257Y-89731202D02*
X122417257Y-89445488D01*
X122274400Y-87302631D02*
X122417257Y-87588345D01*
X122417257Y-87588345D02*
X122417257Y-88159774D01*
X122417257Y-88159774D02*
X122274400Y-88445488D01*
X122274400Y-88445488D02*
X121988685Y-88588345D01*
X121988685Y-88588345D02*
X120845828Y-88588345D01*
X120845828Y-88588345D02*
X120560114Y-88445488D01*
X120560114Y-88445488D02*
X120417257Y-88159774D01*
X120417257Y-88159774D02*
X120417257Y-87588345D01*
X120417257Y-87588345D02*
X120560114Y-87302631D01*
X120560114Y-87302631D02*
X120845828Y-87159774D01*
X120845828Y-87159774D02*
X121131542Y-87159774D01*
X121131542Y-87159774D02*
X121417257Y-88588345D01*
X122417257Y-85874059D02*
X120417257Y-85874059D01*
X120988685Y-85874059D02*
X120702971Y-85731202D01*
X120702971Y-85731202D02*
X120560114Y-85588345D01*
X120560114Y-85588345D02*
X120417257Y-85302630D01*
X120417257Y-85302630D02*
X120417257Y-85016916D01*
X120417257Y-84302630D02*
X122417257Y-83588344D01*
X120417257Y-82874059D02*
X122417257Y-83588344D01*
X122417257Y-83588344D02*
X123131542Y-83874059D01*
X123131542Y-83874059D02*
X123274400Y-84016916D01*
X123274400Y-84016916D02*
X123417257Y-84302630D01*
X123560114Y-78588345D02*
X123417257Y-78731202D01*
X123417257Y-78731202D02*
X122988685Y-79016916D01*
X122988685Y-79016916D02*
X122702971Y-79159774D01*
X122702971Y-79159774D02*
X122274400Y-79302631D01*
X122274400Y-79302631D02*
X121560114Y-79445488D01*
X121560114Y-79445488D02*
X120988685Y-79445488D01*
X120988685Y-79445488D02*
X120274400Y-79302631D01*
X120274400Y-79302631D02*
X119845828Y-79159774D01*
X119845828Y-79159774D02*
X119560114Y-79016916D01*
X119560114Y-79016916D02*
X119131542Y-78731202D01*
X119131542Y-78731202D02*
X118988685Y-78588345D01*
X121560114Y-77588345D02*
X121560114Y-76159774D01*
X122417257Y-77874059D02*
X119417257Y-76874059D01*
X119417257Y-76874059D02*
X122417257Y-75874059D01*
X121560114Y-75016916D02*
X121560114Y-73588345D01*
X122417257Y-75302630D02*
X119417257Y-74302630D01*
X119417257Y-74302630D02*
X122417257Y-73302630D01*
X121560114Y-72445487D02*
X121560114Y-71016916D01*
X122417257Y-72731201D02*
X119417257Y-71731201D01*
X119417257Y-71731201D02*
X122417257Y-70731201D01*
X123560114Y-70016915D02*
X123417257Y-69874058D01*
X123417257Y-69874058D02*
X122988685Y-69588344D01*
X122988685Y-69588344D02*
X122702971Y-69445487D01*
X122702971Y-69445487D02*
X122274400Y-69302629D01*
X122274400Y-69302629D02*
X121560114Y-69159772D01*
X121560114Y-69159772D02*
X120988685Y-69159772D01*
X120988685Y-69159772D02*
X120274400Y-69302629D01*
X120274400Y-69302629D02*
X119845828Y-69445487D01*
X119845828Y-69445487D02*
X119560114Y-69588344D01*
X119560114Y-69588344D02*
X119131542Y-69874058D01*
X119131542Y-69874058D02*
X118988685Y-70016915D01*
D12*
G36*
X138538721Y-108925673D02*
G01*
X138576334Y-108929153D01*
X138590828Y-108934595D01*
X138602651Y-108943808D01*
X138612194Y-108956647D01*
X138621275Y-108975926D01*
X138635746Y-109031674D01*
X138762386Y-109594105D01*
X139115744Y-109033079D01*
X139151648Y-108978674D01*
X139184499Y-108945884D01*
X139217960Y-108929886D01*
X139258504Y-108925673D01*
X139279082Y-108925673D01*
X139312108Y-108928735D01*
X139332764Y-108936391D01*
X139344966Y-108947349D01*
X139351610Y-108962757D01*
X139353677Y-108987244D01*
X139348752Y-109024958D01*
X139172165Y-109874068D01*
X139161816Y-109899859D01*
X139144138Y-109916749D01*
X139121240Y-109926674D01*
X139096205Y-109930000D01*
X139071959Y-109926533D01*
X139053096Y-109916749D01*
X139042065Y-109900454D01*
X139042105Y-109874190D01*
X139210877Y-109062449D01*
X139166425Y-109147812D01*
X139125270Y-109217787D01*
X138813250Y-109704624D01*
X138791548Y-109734474D01*
X138773682Y-109750115D01*
X138753292Y-109758843D01*
X138727459Y-109761960D01*
X138698643Y-109758414D01*
X138680809Y-109749382D01*
X138668720Y-109733057D01*
X138659255Y-109701816D01*
X138551788Y-109218032D01*
X138538110Y-109148789D01*
X138527974Y-109062754D01*
X138359263Y-109874068D01*
X138348782Y-109899798D01*
X138330565Y-109916749D01*
X138307140Y-109926689D01*
X138281960Y-109930000D01*
X138258890Y-109926578D01*
X138240256Y-109916749D01*
X138229225Y-109900396D01*
X138229265Y-109874068D01*
X138405853Y-109024958D01*
X138422166Y-108974806D01*
X138442489Y-108947349D01*
X138471863Y-108931717D01*
X138518204Y-108925673D01*
X138538721Y-108925673D01*
G37*
G36*
X140108164Y-109187501D02*
G01*
X140128763Y-109199397D01*
X140140954Y-109217543D01*
X140143311Y-109239667D01*
X140132711Y-109267185D01*
X139595193Y-110174181D01*
X139575777Y-110197288D01*
X139553855Y-110208436D01*
X139529624Y-110210370D01*
X139505617Y-110203551D01*
X139485927Y-110189648D01*
X139475881Y-110172044D01*
X139475168Y-110151594D01*
X139486017Y-110126554D01*
X139610642Y-109922184D01*
X139491146Y-109272315D01*
X139492107Y-109244757D01*
X139504457Y-109221390D01*
X139524756Y-109203048D01*
X139549031Y-109191409D01*
X139575514Y-109185405D01*
X139599834Y-109187196D01*
X139618499Y-109198711D01*
X139628349Y-109224870D01*
X139710232Y-109765502D01*
X139711575Y-109765502D01*
X140015840Y-109223771D01*
X140036193Y-109198552D01*
X140059743Y-109186769D01*
X140085746Y-109183817D01*
X140108164Y-109187501D01*
G37*
G36*
X140755835Y-108913949D02*
G01*
X140846316Y-108919566D01*
X140915081Y-108934588D01*
X140975719Y-108959200D01*
X141020961Y-108988199D01*
X141036278Y-109007228D01*
X141039645Y-109029598D01*
X141033239Y-109053247D01*
X141017358Y-109077958D01*
X140996478Y-109095800D01*
X140974555Y-109106046D01*
X140952151Y-109107442D01*
X140931140Y-109097620D01*
X140888809Y-109073647D01*
X140843824Y-109056587D01*
X140794222Y-109046687D01*
X140726282Y-109042909D01*
X140662033Y-109048671D01*
X140605528Y-109065288D01*
X140555283Y-109092440D01*
X140510249Y-109130715D01*
X140473927Y-109176160D01*
X140440820Y-109235403D01*
X140411416Y-109311198D01*
X140386601Y-109406770D01*
X140377503Y-109450307D01*
X140362425Y-109547866D01*
X140360562Y-109623170D01*
X140368787Y-109680687D01*
X140384891Y-109724286D01*
X140411969Y-109761460D01*
X140449516Y-109788631D01*
X140500061Y-109806244D01*
X140567646Y-109812763D01*
X140640768Y-109807781D01*
X140704361Y-109793590D01*
X140764120Y-109770094D01*
X140821414Y-109737475D01*
X140846690Y-109726652D01*
X140869652Y-109725629D01*
X140889701Y-109733968D01*
X140904396Y-109752862D01*
X140910883Y-109777292D01*
X140907449Y-109803970D01*
X140894184Y-109828600D01*
X140868981Y-109850804D01*
X140799137Y-109888931D01*
X140719565Y-109917971D01*
X140634243Y-109935586D01*
X140538093Y-109941723D01*
X140458994Y-109936145D01*
X140394457Y-109920678D01*
X140341866Y-109896647D01*
X140299146Y-109864533D01*
X140264907Y-109823937D01*
X140240926Y-109777880D01*
X140224705Y-109721165D01*
X140217328Y-109651371D01*
X140220636Y-109565638D01*
X140237124Y-109460748D01*
X140250802Y-109394863D01*
X140276560Y-109294553D01*
X140307991Y-109209968D01*
X140344417Y-109139089D01*
X140385434Y-109080162D01*
X140430931Y-109031735D01*
X140484590Y-108989785D01*
X140543118Y-108957181D01*
X140607201Y-108933560D01*
X140677745Y-108918985D01*
X140755835Y-108913949D01*
G37*
G36*
X141363450Y-108886594D02*
G01*
X141387682Y-108890077D01*
X141406498Y-108899905D01*
X141417528Y-108916208D01*
X141417489Y-108942526D01*
X141345987Y-109286542D01*
X141347269Y-109286542D01*
X141374703Y-109256593D01*
X141409448Y-109229313D01*
X141452599Y-109204720D01*
X141498697Y-109186527D01*
X141547070Y-109175575D01*
X141598290Y-109171870D01*
X141659717Y-109177017D01*
X141707976Y-109191131D01*
X141745809Y-109212995D01*
X141775183Y-109242517D01*
X141795775Y-109278621D01*
X141807859Y-109322782D01*
X141810493Y-109377212D01*
X141801622Y-109444628D01*
X141712595Y-109872663D01*
X141701972Y-109898453D01*
X141683042Y-109916017D01*
X141658858Y-109926544D01*
X141633644Y-109930000D01*
X141609323Y-109926374D01*
X141589986Y-109916017D01*
X141578565Y-109899012D01*
X141578506Y-109872602D01*
X141660877Y-109476379D01*
X141668817Y-109409107D01*
X141662933Y-109364063D01*
X141647322Y-109334352D01*
X141621391Y-109312484D01*
X141585072Y-109298310D01*
X141534787Y-109293014D01*
X141498256Y-109296303D01*
X141461575Y-109306325D01*
X141426738Y-109322272D01*
X141394958Y-109343450D01*
X141366941Y-109369630D01*
X141342568Y-109401519D01*
X141323838Y-109437712D01*
X141311366Y-109479188D01*
X141229544Y-109872602D01*
X141218923Y-109898404D01*
X141199991Y-109916017D01*
X141175625Y-109926500D01*
X141149249Y-109930000D01*
X141124876Y-109926372D01*
X141105530Y-109916017D01*
X141094111Y-109899063D01*
X141094050Y-109872663D01*
X141287430Y-108942526D01*
X141297914Y-108916808D01*
X141316128Y-108899905D01*
X141339470Y-108889870D01*
X141363450Y-108886594D01*
G37*
G36*
X142217262Y-108910041D02*
G01*
X142251777Y-108916715D01*
X142276247Y-108935687D01*
X142289764Y-108963424D01*
X142289436Y-108997297D01*
X142275888Y-109031502D01*
X142250296Y-109060312D01*
X142217033Y-109079584D01*
X142180687Y-109085896D01*
X142146208Y-109079241D01*
X142121702Y-109060312D01*
X142108260Y-109032348D01*
X142108818Y-108997297D01*
X142122004Y-108964252D01*
X142147592Y-108935687D01*
X142180954Y-108916361D01*
X142217262Y-108910041D01*
G37*
G36*
X142160354Y-109183593D02*
G01*
X142185777Y-109187292D01*
X142204684Y-109197576D01*
X142215655Y-109214413D01*
X142215614Y-109240807D01*
X142084211Y-109872786D01*
X142073723Y-109898582D01*
X142055329Y-109916078D01*
X142031528Y-109926494D01*
X142005198Y-109930000D01*
X141980926Y-109926391D01*
X141961601Y-109916078D01*
X141950180Y-109899132D01*
X141950122Y-109872786D01*
X142081524Y-109240807D01*
X142092088Y-109215078D01*
X142110956Y-109197576D01*
X142135183Y-109187045D01*
X142160354Y-109183593D01*
G37*
G36*
X142886120Y-109178493D02*
G01*
X142940857Y-109196480D01*
X142982313Y-109224258D01*
X143013066Y-109262056D01*
X143032720Y-109307071D01*
X143043514Y-109364209D01*
X143043635Y-109436716D01*
X143030225Y-109528403D01*
X143020333Y-109575969D01*
X142996039Y-109665039D01*
X142964665Y-109737917D01*
X142926957Y-109797065D01*
X142883129Y-109844453D01*
X142830553Y-109883805D01*
X142774389Y-109911488D01*
X142713789Y-109928203D01*
X142647618Y-109933907D01*
X142581428Y-109927021D01*
X142529832Y-109908018D01*
X142500325Y-109888221D01*
X142477660Y-109864781D01*
X142461017Y-109837370D01*
X142396903Y-110145788D01*
X142386219Y-110171798D01*
X142367288Y-110189446D01*
X142342915Y-110200024D01*
X142316547Y-110203551D01*
X142292173Y-110199924D01*
X142272827Y-110189569D01*
X142261408Y-110172615D01*
X142261348Y-110146215D01*
X142357599Y-109683262D01*
X142493981Y-109683262D01*
X142498447Y-109713112D01*
X142509878Y-109740824D01*
X142527878Y-109765563D01*
X142551565Y-109786097D01*
X142581795Y-109802688D01*
X142616286Y-109812990D01*
X142658304Y-109816671D01*
X142712400Y-109809970D01*
X142759977Y-109790356D01*
X142802712Y-109757198D01*
X142836458Y-109713974D01*
X142865299Y-109654040D01*
X142888197Y-109573039D01*
X142896074Y-109535242D01*
X142907352Y-109452284D01*
X142904255Y-109393535D01*
X142890945Y-109352548D01*
X142872795Y-109327658D01*
X142847293Y-109309370D01*
X142812604Y-109297446D01*
X142765832Y-109293014D01*
X142724204Y-109296554D01*
X142684865Y-109307058D01*
X142648091Y-109324036D01*
X142614951Y-109346931D01*
X142586071Y-109375283D01*
X142561645Y-109409213D01*
X142543025Y-109447344D01*
X142530443Y-109490423D01*
X142496920Y-109651441D01*
X142493981Y-109683262D01*
X142357599Y-109683262D01*
X142449842Y-109239586D01*
X142460330Y-109213816D01*
X142478541Y-109196905D01*
X142501831Y-109186871D01*
X142525802Y-109183593D01*
X142550062Y-109187016D01*
X142568911Y-109196660D01*
X142580056Y-109212705D01*
X142580085Y-109238487D01*
X142570132Y-109286542D01*
X142604391Y-109250444D01*
X142642183Y-109221727D01*
X142683888Y-109199836D01*
X142750339Y-109178675D01*
X142814192Y-109171870D01*
X142886120Y-109178493D01*
G37*
G36*
X143625933Y-109371172D02*
G01*
X143645897Y-109375635D01*
X143657318Y-109387964D01*
X143662075Y-109405919D01*
X143660249Y-109429790D01*
X143652667Y-109452085D01*
X143640038Y-109471006D01*
X143622836Y-109484050D01*
X143601570Y-109488408D01*
X143236182Y-109488408D01*
X143215139Y-109483745D01*
X143203515Y-109471006D01*
X143198756Y-109452582D01*
X143200401Y-109429790D01*
X143208288Y-109406453D01*
X143220795Y-109387964D01*
X143238085Y-109375463D01*
X143260546Y-109371172D01*
X143625933Y-109371172D01*
G37*
G36*
X144408404Y-108919544D02*
G01*
X144473925Y-108935048D01*
X144527285Y-108959113D01*
X144570594Y-108991223D01*
X144605286Y-109031735D01*
X144629758Y-109077874D01*
X144646358Y-109134627D01*
X144654023Y-109204409D01*
X144650917Y-109290080D01*
X144634534Y-109394863D01*
X144620856Y-109460809D01*
X144595073Y-109561115D01*
X144563618Y-109645700D01*
X144527168Y-109716579D01*
X144486127Y-109775507D01*
X144440605Y-109823937D01*
X144386997Y-109865833D01*
X144328385Y-109898429D01*
X144264065Y-109922070D01*
X144193112Y-109936673D01*
X144114419Y-109941723D01*
X144034058Y-109936129D01*
X143968511Y-109920625D01*
X143915127Y-109896559D01*
X143871794Y-109864449D01*
X143837081Y-109823937D01*
X143812633Y-109777803D01*
X143796056Y-109721049D01*
X143788412Y-109651258D01*
X143789175Y-109630376D01*
X143930846Y-109630376D01*
X143939811Y-109687312D01*
X143956760Y-109728804D01*
X143984865Y-109763936D01*
X144023111Y-109789786D01*
X144073974Y-109806568D01*
X144141224Y-109812763D01*
X144207876Y-109807137D01*
X144265624Y-109791045D01*
X144316081Y-109765036D01*
X144360432Y-109728804D01*
X144396083Y-109685221D01*
X144429103Y-109626576D01*
X144458962Y-109549550D01*
X144484691Y-109450245D01*
X144493728Y-109406831D01*
X144509640Y-109303904D01*
X144511289Y-109226606D01*
X144502362Y-109169412D01*
X144485423Y-109127601D01*
X144457351Y-109092116D01*
X144419156Y-109066049D01*
X144368383Y-109049146D01*
X144301264Y-109042909D01*
X144234593Y-109048575D01*
X144176789Y-109064792D01*
X144126235Y-109091022D01*
X144081751Y-109127601D01*
X144046042Y-109171498D01*
X144012985Y-109230390D01*
X143983107Y-109307554D01*
X143957370Y-109406831D01*
X143948333Y-109450245D01*
X143932447Y-109553219D01*
X143930846Y-109630376D01*
X143789175Y-109630376D01*
X143791543Y-109565565D01*
X143807955Y-109460748D01*
X143821632Y-109394863D01*
X143847390Y-109294553D01*
X143878821Y-109209968D01*
X143915248Y-109139089D01*
X143956264Y-109080162D01*
X144001762Y-109031735D01*
X144055392Y-108989840D01*
X144114029Y-108957244D01*
X144178373Y-108933603D01*
X144249351Y-108919000D01*
X144328070Y-108913949D01*
X144408404Y-108919544D01*
G37*
G36*
X145253140Y-109171870D02*
G01*
X145314567Y-109177017D01*
X145362826Y-109191131D01*
X145400659Y-109212995D01*
X145430033Y-109242517D01*
X145450624Y-109278621D01*
X145462709Y-109322782D01*
X145465343Y-109377212D01*
X145456472Y-109444628D01*
X145367445Y-109872663D01*
X145356822Y-109898453D01*
X145337892Y-109916017D01*
X145313708Y-109926544D01*
X145288494Y-109930000D01*
X145264173Y-109926374D01*
X145244836Y-109916017D01*
X145233415Y-109899012D01*
X145233356Y-109872602D01*
X145315727Y-109476379D01*
X145323667Y-109409107D01*
X145317783Y-109364063D01*
X145302172Y-109334352D01*
X145276241Y-109312484D01*
X145239922Y-109298310D01*
X145189637Y-109293014D01*
X145153106Y-109296303D01*
X145116425Y-109306325D01*
X145081588Y-109322272D01*
X145049808Y-109343450D01*
X145021791Y-109369630D01*
X144997418Y-109401519D01*
X144978688Y-109437712D01*
X144966215Y-109479188D01*
X144884394Y-109872602D01*
X144873773Y-109898404D01*
X144854841Y-109916017D01*
X144830475Y-109926500D01*
X144804099Y-109930000D01*
X144779721Y-109926386D01*
X144760380Y-109916078D01*
X144748959Y-109899132D01*
X144748900Y-109872786D01*
X144880547Y-109239403D01*
X144891027Y-109213737D01*
X144909246Y-109196844D01*
X144932532Y-109186857D01*
X144956507Y-109183593D01*
X144979600Y-109186970D01*
X144998272Y-109196660D01*
X145009371Y-109212699D01*
X145009385Y-109238487D01*
X144999433Y-109286542D01*
X145002119Y-109286542D01*
X145028785Y-109256697D01*
X145063251Y-109229414D01*
X145106777Y-109204720D01*
X145153308Y-109186509D01*
X145201911Y-109175566D01*
X145253140Y-109171870D01*
G37*
G36*
X146066407Y-109371172D02*
G01*
X146086371Y-109375635D01*
X146097793Y-109387964D01*
X146102550Y-109405919D01*
X146100724Y-109429790D01*
X146093142Y-109452085D01*
X146080512Y-109471006D01*
X146063310Y-109484050D01*
X146042044Y-109488408D01*
X145676657Y-109488408D01*
X145655614Y-109483745D01*
X145643989Y-109471006D01*
X145639230Y-109452582D01*
X145640875Y-109429790D01*
X145648762Y-109406453D01*
X145661270Y-109387964D01*
X145678559Y-109375463D01*
X145701020Y-109371172D01*
X146066407Y-109371172D01*
G37*
G36*
X146508853Y-108925673D02*
G01*
X146546467Y-108929153D01*
X146560960Y-108934595D01*
X146572784Y-108943808D01*
X146582327Y-108956647D01*
X146591407Y-108975926D01*
X146605879Y-109031674D01*
X146732519Y-109594105D01*
X147085877Y-109033079D01*
X147121781Y-108978674D01*
X147154631Y-108945884D01*
X147188093Y-108929886D01*
X147228637Y-108925673D01*
X147249214Y-108925673D01*
X147282241Y-108928735D01*
X147302897Y-108936391D01*
X147315099Y-108947349D01*
X147321743Y-108962757D01*
X147323809Y-108987244D01*
X147318885Y-109024958D01*
X147142297Y-109874068D01*
X147131949Y-109899859D01*
X147114270Y-109916749D01*
X147091372Y-109926674D01*
X147066338Y-109930000D01*
X147042092Y-109926533D01*
X147023229Y-109916749D01*
X147012197Y-109900454D01*
X147012238Y-109874190D01*
X147181010Y-109062449D01*
X147136557Y-109147812D01*
X147095403Y-109217787D01*
X146783382Y-109704624D01*
X146761681Y-109734474D01*
X146743815Y-109750115D01*
X146723425Y-109758843D01*
X146697592Y-109761960D01*
X146668776Y-109758414D01*
X146650942Y-109749382D01*
X146638853Y-109733057D01*
X146629387Y-109701816D01*
X146521920Y-109218032D01*
X146508243Y-109148789D01*
X146498107Y-109062754D01*
X146329396Y-109874068D01*
X146318914Y-109899798D01*
X146300697Y-109916749D01*
X146277273Y-109926689D01*
X146252093Y-109930000D01*
X146229023Y-109926578D01*
X146210389Y-109916749D01*
X146199357Y-109900396D01*
X146199398Y-109874068D01*
X146375985Y-109024958D01*
X146392298Y-108974806D01*
X146412622Y-108947349D01*
X146441995Y-108931717D01*
X146488337Y-108925673D01*
X146508853Y-108925673D01*
G37*
G36*
X148078297Y-109187501D02*
G01*
X148098896Y-109199397D01*
X148111086Y-109217543D01*
X148113444Y-109239667D01*
X148102843Y-109267185D01*
X147565326Y-110174181D01*
X147545910Y-110197288D01*
X147523988Y-110208436D01*
X147499756Y-110210370D01*
X147475750Y-110203551D01*
X147456060Y-110189648D01*
X147446013Y-110172044D01*
X147445300Y-110151594D01*
X147456149Y-110126554D01*
X147580774Y-109922184D01*
X147461278Y-109272315D01*
X147462239Y-109244757D01*
X147474590Y-109221390D01*
X147494889Y-109203048D01*
X147519164Y-109191409D01*
X147545647Y-109185405D01*
X147569966Y-109187196D01*
X147588631Y-109198711D01*
X147598482Y-109224870D01*
X147680364Y-109765502D01*
X147681707Y-109765502D01*
X147985973Y-109223771D01*
X148006325Y-109198552D01*
X148029876Y-109186769D01*
X148055878Y-109183817D01*
X148078297Y-109187501D01*
G37*
G36*
X148768937Y-108934998D02*
G01*
X148838346Y-108949912D01*
X148894180Y-108972818D01*
X148938834Y-109002949D01*
X148974057Y-109040345D01*
X148999557Y-109084036D01*
X149017066Y-109137997D01*
X149025625Y-109204631D01*
X149023417Y-109286836D01*
X149007885Y-109387903D01*
X148991277Y-109467770D01*
X148966141Y-109564199D01*
X148934945Y-109645310D01*
X148898365Y-109713119D01*
X148856765Y-109769349D01*
X148810170Y-109815389D01*
X148755988Y-109854416D01*
X148696310Y-109885033D01*
X148630389Y-109907393D01*
X148557276Y-109921275D01*
X148475863Y-109926092D01*
X148252808Y-109926092D01*
X148213059Y-109922837D01*
X148188665Y-109914821D01*
X148174651Y-109903682D01*
X148166794Y-109887530D01*
X148164060Y-109861900D01*
X148169033Y-109822349D01*
X148172650Y-109804947D01*
X148309534Y-109804947D01*
X148483251Y-109804947D01*
X148559617Y-109799274D01*
X148624416Y-109783251D01*
X148679618Y-109757815D01*
X148726762Y-109723126D01*
X148765567Y-109679994D01*
X148800244Y-109623332D01*
X148830382Y-109550413D01*
X148855050Y-109457939D01*
X148867018Y-109400542D01*
X148880929Y-109311034D01*
X148882894Y-109241784D01*
X148873236Y-109179294D01*
X148852913Y-109132608D01*
X148832547Y-109107107D01*
X148806180Y-109086409D01*
X148772801Y-109070326D01*
X148715829Y-109056064D01*
X148640055Y-109050725D01*
X148466338Y-109050725D01*
X148309534Y-109804947D01*
X148172650Y-109804947D01*
X148333042Y-109033323D01*
X148344011Y-108995075D01*
X148357352Y-108968994D01*
X148372487Y-108952051D01*
X148392073Y-108940487D01*
X148420278Y-108932599D01*
X148459987Y-108929581D01*
X148683042Y-108929581D01*
X148768937Y-108934998D01*
G37*
G36*
X149621728Y-109177751D02*
G01*
X149678026Y-109194218D01*
X149726762Y-109221883D01*
X149764427Y-109259125D01*
X149791166Y-109305463D01*
X149807109Y-109363112D01*
X149810518Y-109426434D01*
X149800697Y-109502636D01*
X149800148Y-109505444D01*
X149784104Y-109552872D01*
X149762718Y-109580122D01*
X149731938Y-109595672D01*
X149682972Y-109601737D01*
X149269713Y-109601737D01*
X149268553Y-109607294D01*
X149261495Y-109673728D01*
X149268990Y-109723918D01*
X149288337Y-109762266D01*
X149310623Y-109784813D01*
X149339990Y-109801659D01*
X149378171Y-109812636D01*
X149427555Y-109816671D01*
X149487339Y-109813919D01*
X149537098Y-109806290D01*
X149584765Y-109793075D01*
X149633513Y-109773684D01*
X149658367Y-109766771D01*
X149677660Y-109768799D01*
X149692738Y-109778896D01*
X149702267Y-109798414D01*
X149704368Y-109821308D01*
X149698482Y-109843049D01*
X149685515Y-109861574D01*
X149665753Y-109875289D01*
X149608711Y-109899838D01*
X149545219Y-109918581D01*
X149477565Y-109929873D01*
X149397697Y-109933907D01*
X149320595Y-109927469D01*
X149259645Y-109909769D01*
X149211526Y-109882285D01*
X149173848Y-109845125D01*
X149147800Y-109799811D01*
X149132484Y-109742517D01*
X149129492Y-109669786D01*
X149141974Y-109577374D01*
X149151866Y-109529808D01*
X149161202Y-109496224D01*
X149291634Y-109496224D01*
X149672042Y-109496224D01*
X149674607Y-109483768D01*
X149681022Y-109424455D01*
X149674659Y-109378198D01*
X149657632Y-109341618D01*
X149637782Y-109320005D01*
X149610658Y-109303765D01*
X149574361Y-109293076D01*
X149526229Y-109289106D01*
X149466202Y-109295373D01*
X149415751Y-109313219D01*
X149372845Y-109342290D01*
X149337960Y-109381044D01*
X149311416Y-109428975D01*
X149293344Y-109487920D01*
X149291634Y-109496224D01*
X149161202Y-109496224D01*
X149176257Y-109442065D01*
X149208712Y-109369637D01*
X149248573Y-109310226D01*
X149295786Y-109262056D01*
X149351661Y-109222808D01*
X149412507Y-109194834D01*
X149479308Y-109177750D01*
X149553340Y-109171870D01*
X149621728Y-109177751D01*
G37*
G36*
X150313974Y-109171870D02*
G01*
X150381348Y-109175575D01*
X150434996Y-109185669D01*
X150483177Y-109202454D01*
X150519626Y-109222672D01*
X150538494Y-109240216D01*
X150544844Y-109259492D01*
X150541915Y-109280696D01*
X150530006Y-109304555D01*
X150512967Y-109322266D01*
X150494103Y-109332398D01*
X150473673Y-109334849D01*
X150452581Y-109328185D01*
X150421662Y-109312296D01*
X150383949Y-109299609D01*
X150343660Y-109291776D01*
X150300540Y-109289106D01*
X150244110Y-109292588D01*
X150203412Y-109301690D01*
X150174755Y-109314874D01*
X150150149Y-109334251D01*
X150134528Y-109354782D01*
X150126273Y-109376912D01*
X150125724Y-109379659D01*
X150124380Y-109415929D01*
X150130250Y-109429874D01*
X150142821Y-109442430D01*
X150160330Y-109452531D01*
X150187700Y-109463312D01*
X150265797Y-109482791D01*
X150336976Y-109500105D01*
X150388529Y-109517718D01*
X150432437Y-109540055D01*
X150461741Y-109563818D01*
X150481890Y-109592775D01*
X150491782Y-109626650D01*
X150492863Y-109664547D01*
X150486104Y-109713234D01*
X150484394Y-109721599D01*
X150470514Y-109764641D01*
X150447086Y-109805436D01*
X150415687Y-109841611D01*
X150376195Y-109873152D01*
X150330694Y-109898271D01*
X150276605Y-109917848D01*
X150218335Y-109929761D01*
X150152834Y-109933907D01*
X150075649Y-109929037D01*
X150008914Y-109915223D01*
X149948140Y-109893078D01*
X149902547Y-109867473D01*
X149887320Y-109852235D01*
X149883190Y-109832058D01*
X149887913Y-109809805D01*
X149900104Y-109786934D01*
X149918235Y-109767060D01*
X149939488Y-109755671D01*
X149962199Y-109753368D01*
X149983269Y-109761960D01*
X150021896Y-109782851D01*
X150069609Y-109800978D01*
X150120982Y-109812661D01*
X150177198Y-109816671D01*
X150230688Y-109813066D01*
X150270316Y-109803508D01*
X150299197Y-109789377D01*
X150323710Y-109768893D01*
X150340013Y-109745978D01*
X150349206Y-109720073D01*
X150349755Y-109717325D01*
X150352442Y-109678124D01*
X150347215Y-109662732D01*
X150334612Y-109648754D01*
X150316157Y-109637494D01*
X150285336Y-109625612D01*
X150194050Y-109603935D01*
X150132576Y-109589096D01*
X150086339Y-109572489D01*
X150046478Y-109551064D01*
X150018318Y-109527732D01*
X149998220Y-109499443D01*
X149987299Y-109466182D01*
X149985023Y-109429138D01*
X149990901Y-109383018D01*
X149992367Y-109375996D01*
X150004751Y-109336685D01*
X150025645Y-109298449D01*
X150054046Y-109264061D01*
X150091163Y-109233419D01*
X150134567Y-109208701D01*
X150187334Y-109188661D01*
X150245091Y-109176290D01*
X150313974Y-109171870D01*
G37*
G36*
X150909255Y-108886594D02*
G01*
X150934732Y-108890268D01*
X150954195Y-108900577D01*
X150965614Y-108917531D01*
X150965675Y-108943930D01*
X150845629Y-109521564D01*
X151236418Y-109201728D01*
X151262487Y-109186095D01*
X151288381Y-109182128D01*
X151312478Y-109188261D01*
X151329169Y-109203133D01*
X151339155Y-109225141D01*
X151339427Y-109249234D01*
X151329770Y-109272130D01*
X151307554Y-109293869D01*
X151047923Y-109496346D01*
X151237883Y-109819846D01*
X151246056Y-109843962D01*
X151242096Y-109868633D01*
X151229029Y-109891540D01*
X151209551Y-109910460D01*
X151182716Y-109925236D01*
X151156978Y-109929389D01*
X151133933Y-109922933D01*
X151117594Y-109904904D01*
X150935755Y-109581709D01*
X150813328Y-109676842D01*
X150772601Y-109872663D01*
X150761977Y-109898453D01*
X150743047Y-109916017D01*
X150718681Y-109926500D01*
X150692306Y-109930000D01*
X150667932Y-109926372D01*
X150648586Y-109916017D01*
X150637167Y-109899063D01*
X150637107Y-109872663D01*
X150830181Y-108943930D01*
X150840805Y-108918141D01*
X150859734Y-108900577D01*
X150883979Y-108890050D01*
X150909255Y-108886594D01*
G37*
D13*
G36*
X137835022Y-107225673D02*
G01*
X137874223Y-107229153D01*
X137890110Y-107234548D01*
X137904265Y-107243808D01*
X137930155Y-107275926D01*
X137956777Y-107331674D01*
X138205783Y-107894105D01*
X138447827Y-107333079D01*
X138472984Y-107278674D01*
X138499546Y-107245884D01*
X138514382Y-107235899D01*
X138530321Y-107229886D01*
X138570926Y-107225673D01*
X138591931Y-107225673D01*
X138625808Y-107228623D01*
X138648797Y-107236228D01*
X138663921Y-107247349D01*
X138678264Y-107274333D01*
X138684255Y-107324958D01*
X138684255Y-108174068D01*
X138679065Y-108200042D01*
X138664654Y-108216749D01*
X138643648Y-108226590D01*
X138618492Y-108230000D01*
X138593224Y-108226612D01*
X138571598Y-108216749D01*
X138556660Y-108200035D01*
X138551325Y-108174190D01*
X138551325Y-107362449D01*
X138524031Y-107447812D01*
X138496798Y-107517787D01*
X138281315Y-108004624D01*
X138265456Y-108034486D01*
X138250540Y-108050115D01*
X138231844Y-108058758D01*
X138205783Y-108061960D01*
X138175872Y-108058500D01*
X138155408Y-108049382D01*
X138139412Y-108032861D01*
X138123229Y-108001816D01*
X137910554Y-107518032D01*
X137881856Y-107448789D01*
X137853218Y-107362754D01*
X137853218Y-108174068D01*
X137847883Y-108199977D01*
X137832946Y-108216749D01*
X137811363Y-108226608D01*
X137786051Y-108230000D01*
X137761999Y-108226657D01*
X137740561Y-108216749D01*
X137725625Y-108199977D01*
X137720289Y-108174068D01*
X137720289Y-107324958D01*
X137723200Y-107288061D01*
X137730632Y-107263330D01*
X137741294Y-107247349D01*
X137756857Y-107236199D01*
X137780156Y-107228605D01*
X137814078Y-107225673D01*
X137835022Y-107225673D01*
G37*
G36*
X138992611Y-107210041D02*
G01*
X139028905Y-107216552D01*
X139058374Y-107235687D01*
X139078335Y-107263975D01*
X139084935Y-107297297D01*
X139078274Y-107331785D01*
X139058374Y-107360312D01*
X139028910Y-107379399D01*
X138992611Y-107385896D01*
X138956354Y-107379404D01*
X138926849Y-107360312D01*
X138906948Y-107331785D01*
X138900287Y-107297297D01*
X138906888Y-107263975D01*
X138926849Y-107235687D01*
X138956359Y-107216547D01*
X138992611Y-107210041D01*
G37*
G36*
X138992611Y-107483593D02*
G01*
X139019091Y-107487204D01*
X139040910Y-107497576D01*
X139055871Y-107514834D01*
X139061182Y-107540807D01*
X139061182Y-108172786D01*
X139055873Y-108198771D01*
X139040910Y-108216078D01*
X139019096Y-108226404D01*
X138992611Y-108230000D01*
X138967283Y-108226473D01*
X138945045Y-108216078D01*
X138929555Y-108198707D01*
X138924101Y-108172786D01*
X138924101Y-107540807D01*
X138929557Y-107514898D01*
X138945045Y-107497576D01*
X138967287Y-107487134D01*
X138992611Y-107483593D01*
G37*
G36*
X139658661Y-107471870D02*
G01*
X139721246Y-107476795D01*
X139773588Y-107490642D01*
X139817535Y-107512570D01*
X139854483Y-107542517D01*
X139883914Y-107579728D01*
X139905658Y-107624683D01*
X139919503Y-107678965D01*
X139924459Y-107744628D01*
X139924459Y-108172663D01*
X139918989Y-108198632D01*
X139903454Y-108216017D01*
X139881255Y-108226455D01*
X139855887Y-108230000D01*
X139830563Y-108226459D01*
X139808321Y-108216017D01*
X139792832Y-108198588D01*
X139787377Y-108172602D01*
X139787377Y-107776379D01*
X139781466Y-107710571D01*
X139766077Y-107665053D01*
X139743292Y-107634352D01*
X139711527Y-107612181D01*
X139671077Y-107598113D01*
X139619460Y-107593014D01*
X139582471Y-107596362D01*
X139547409Y-107606325D01*
X139515086Y-107622361D01*
X139487264Y-107643450D01*
X139464171Y-107669603D01*
X139445987Y-107701519D01*
X139434583Y-107737410D01*
X139430600Y-107779188D01*
X139430600Y-108172602D01*
X139425132Y-108198582D01*
X139409595Y-108216017D01*
X139387216Y-108226411D01*
X139360685Y-108230000D01*
X139335304Y-108226471D01*
X139313058Y-108216078D01*
X139297568Y-108198707D01*
X139292114Y-108172786D01*
X139292114Y-107539403D01*
X139297449Y-107513558D01*
X139312386Y-107496844D01*
X139333780Y-107486939D01*
X139357876Y-107483593D01*
X139381931Y-107486894D01*
X139403306Y-107496660D01*
X139418306Y-107513116D01*
X139423639Y-107538487D01*
X139423639Y-107586542D01*
X139426386Y-107586542D01*
X139447200Y-107556789D01*
X139476529Y-107529550D01*
X139515963Y-107504720D01*
X139559021Y-107486719D01*
X139606314Y-107475677D01*
X139658661Y-107471870D01*
G37*
G36*
X140216756Y-107210041D02*
G01*
X140253051Y-107216552D01*
X140282519Y-107235687D01*
X140302480Y-107263975D01*
X140309080Y-107297297D01*
X140302419Y-107331785D01*
X140282519Y-107360312D01*
X140253055Y-107379399D01*
X140216756Y-107385896D01*
X140180499Y-107379404D01*
X140150994Y-107360312D01*
X140131094Y-107331785D01*
X140124433Y-107297297D01*
X140131033Y-107263975D01*
X140150994Y-107235687D01*
X140180504Y-107216547D01*
X140216756Y-107210041D01*
G37*
G36*
X140216756Y-107483593D02*
G01*
X140243237Y-107487204D01*
X140265055Y-107497576D01*
X140280016Y-107514834D01*
X140285327Y-107540807D01*
X140285327Y-108172786D01*
X140280018Y-108198771D01*
X140265055Y-108216078D01*
X140243241Y-108226404D01*
X140216756Y-108230000D01*
X140191428Y-108226473D01*
X140169190Y-108216078D01*
X140153700Y-108198707D01*
X140148246Y-108172786D01*
X140148246Y-107540807D01*
X140153702Y-107514898D01*
X140169190Y-107497576D01*
X140191432Y-107487134D01*
X140216756Y-107483593D01*
G37*
G36*
X141332176Y-107219277D02*
G01*
X141402128Y-107234366D01*
X141462384Y-107258277D01*
X141514397Y-107290653D01*
X141559237Y-107331735D01*
X141595015Y-107379418D01*
X141624270Y-107437533D01*
X141646599Y-107507926D01*
X141661069Y-107592844D01*
X141666277Y-107694863D01*
X141666277Y-107760809D01*
X141661069Y-107862829D01*
X141646599Y-107947746D01*
X141624270Y-108018139D01*
X141595015Y-108076254D01*
X141559237Y-108123937D01*
X141514397Y-108165020D01*
X141462384Y-108197396D01*
X141402128Y-108221307D01*
X141332176Y-108236395D01*
X141250758Y-108241723D01*
X141169313Y-108236394D01*
X141099342Y-108221305D01*
X141039076Y-108197393D01*
X140987057Y-108165017D01*
X140942219Y-108123937D01*
X140906465Y-108076259D01*
X140877227Y-108018142D01*
X140854910Y-107947739D01*
X140840445Y-107862800D01*
X140835240Y-107760748D01*
X140835240Y-107706831D01*
X140976535Y-107706831D01*
X140976535Y-107750245D01*
X140981907Y-107850983D01*
X140996281Y-107927992D01*
X141017546Y-107985949D01*
X141044373Y-108028804D01*
X141081149Y-108064374D01*
X141126467Y-108090350D01*
X141182148Y-108106840D01*
X141250758Y-108112763D01*
X141319335Y-108106841D01*
X141374997Y-108090353D01*
X141420306Y-108064377D01*
X141457083Y-108028804D01*
X141483910Y-107985949D01*
X141505174Y-107927992D01*
X141519549Y-107850983D01*
X141524921Y-107750245D01*
X141524921Y-107706831D01*
X141519559Y-107606131D01*
X141505199Y-107528983D01*
X141483935Y-107470773D01*
X141457083Y-107427601D01*
X141420258Y-107391681D01*
X141374926Y-107365485D01*
X141319281Y-107348873D01*
X141250758Y-107342909D01*
X141182202Y-107348874D01*
X141126537Y-107365488D01*
X141081198Y-107391684D01*
X141044373Y-107427601D01*
X141017521Y-107470773D01*
X140996256Y-107528983D01*
X140981896Y-107606131D01*
X140976535Y-107706831D01*
X140835240Y-107706831D01*
X140835240Y-107694863D01*
X140840445Y-107592840D01*
X140854908Y-107507920D01*
X140877225Y-107437528D01*
X140906463Y-107379415D01*
X140942219Y-107331735D01*
X140987057Y-107290655D01*
X141039076Y-107258280D01*
X141099342Y-107234368D01*
X141169313Y-107219278D01*
X141250758Y-107213949D01*
X141332176Y-107219277D01*
G37*
G36*
X142114340Y-107471870D02*
G01*
X142183552Y-107475526D01*
X142240980Y-107485669D01*
X142293575Y-107502358D01*
X142335380Y-107522672D01*
X142358546Y-107540391D01*
X142368963Y-107559492D01*
X142370424Y-107581039D01*
X142363346Y-107604555D01*
X142349808Y-107622188D01*
X142332571Y-107632398D01*
X142312635Y-107634887D01*
X142289218Y-107628185D01*
X142254034Y-107612227D01*
X142212953Y-107599609D01*
X142169892Y-107591745D01*
X142125514Y-107589106D01*
X142067676Y-107592713D01*
X142028268Y-107601912D01*
X142002416Y-107614874D01*
X141981465Y-107634116D01*
X141969842Y-107654516D01*
X141966024Y-107676912D01*
X141966024Y-107679659D01*
X141972313Y-107715929D01*
X141981220Y-107729791D01*
X141996798Y-107742430D01*
X142047173Y-107763312D01*
X142131132Y-107782791D01*
X142207326Y-107800039D01*
X142264000Y-107817718D01*
X142313512Y-107839981D01*
X142348630Y-107863818D01*
X142375591Y-107893043D01*
X142392716Y-107926650D01*
X142401973Y-107964964D01*
X142405355Y-108013234D01*
X142405355Y-108021599D01*
X142400256Y-108064975D01*
X142385022Y-108105436D01*
X142360633Y-108141596D01*
X142326953Y-108173152D01*
X142286068Y-108198127D01*
X142234630Y-108217848D01*
X142178061Y-108229698D01*
X142111531Y-108233907D01*
X142032111Y-108229104D01*
X141960406Y-108215223D01*
X141893878Y-108193196D01*
X141841521Y-108167473D01*
X141822554Y-108152010D01*
X141814227Y-108132058D01*
X141814376Y-108109530D01*
X141821920Y-108086934D01*
X141836151Y-108067133D01*
X141855504Y-108055671D01*
X141877787Y-108053305D01*
X141901666Y-108061960D01*
X141945771Y-108082928D01*
X141998203Y-108100978D01*
X142053600Y-108112716D01*
X142111531Y-108116671D01*
X142166321Y-108112930D01*
X142204536Y-108103267D01*
X142230416Y-108089377D01*
X142250993Y-108069066D01*
X142262813Y-108046298D01*
X142266809Y-108020073D01*
X142266809Y-108017325D01*
X142261191Y-107978124D01*
X142252694Y-107962857D01*
X142236767Y-107948754D01*
X142215365Y-107937433D01*
X142181507Y-107925612D01*
X142083565Y-107903935D01*
X142017781Y-107889166D01*
X141966695Y-107872489D01*
X141921534Y-107851131D01*
X141887683Y-107827732D01*
X141860972Y-107799215D01*
X141842925Y-107766182D01*
X141832632Y-107728697D01*
X141828942Y-107683018D01*
X141828942Y-107675996D01*
X141833298Y-107636380D01*
X141846406Y-107598449D01*
X141868136Y-107564061D01*
X141899590Y-107533419D01*
X141938462Y-107508838D01*
X141988433Y-107488661D01*
X142044330Y-107476363D01*
X142114340Y-107471870D01*
G37*
G36*
X142871432Y-107471870D02*
G01*
X142948037Y-107476662D01*
X143007841Y-107489638D01*
X143061717Y-107510279D01*
X143105111Y-107534396D01*
X143122963Y-107551885D01*
X143130940Y-107572864D01*
X143129846Y-107595477D01*
X143119094Y-107618171D01*
X143103283Y-107634347D01*
X143084778Y-107643695D01*
X143064598Y-107645022D01*
X143042158Y-107636001D01*
X143004528Y-107617689D01*
X142963756Y-107604127D01*
X142920567Y-107595898D01*
X142871432Y-107593014D01*
X142812441Y-107599904D01*
X142765589Y-107619201D01*
X142728061Y-107650472D01*
X142707430Y-107680157D01*
X142691482Y-107718869D01*
X142680912Y-107768786D01*
X142677015Y-107832555D01*
X142677015Y-107874626D01*
X142680929Y-107935848D01*
X142691645Y-107984696D01*
X142708014Y-108023447D01*
X142729466Y-108053961D01*
X142767948Y-108086079D01*
X142815316Y-108105773D01*
X142874241Y-108112763D01*
X142944742Y-108107181D01*
X143005261Y-108091306D01*
X143057545Y-108065868D01*
X143081483Y-108056691D01*
X143103646Y-108057503D01*
X143123069Y-108067144D01*
X143137290Y-108085591D01*
X143147141Y-108108703D01*
X143148464Y-108131997D01*
X143140702Y-108153388D01*
X143121903Y-108171381D01*
X143075290Y-108195471D01*
X143015535Y-108216261D01*
X142950201Y-108229268D01*
X142872836Y-108233907D01*
X142795053Y-108227756D01*
X142729583Y-108210411D01*
X142674224Y-108182858D01*
X142627311Y-108145125D01*
X142590508Y-108098415D01*
X142562863Y-108039855D01*
X142544964Y-107966821D01*
X142538468Y-107875969D01*
X142538468Y-107829808D01*
X142544919Y-107738901D01*
X142562687Y-107665850D01*
X142590109Y-107607312D01*
X142626578Y-107560652D01*
X142673170Y-107522942D01*
X142728293Y-107495390D01*
X142793634Y-107478031D01*
X142871432Y-107471870D01*
G37*
G36*
X143381167Y-107210041D02*
G01*
X143417461Y-107216552D01*
X143446929Y-107235687D01*
X143466890Y-107263975D01*
X143473490Y-107297297D01*
X143466829Y-107331785D01*
X143446929Y-107360312D01*
X143417466Y-107379399D01*
X143381167Y-107385896D01*
X143344910Y-107379404D01*
X143315404Y-107360312D01*
X143295504Y-107331785D01*
X143288843Y-107297297D01*
X143295443Y-107263975D01*
X143315404Y-107235687D01*
X143344915Y-107216547D01*
X143381167Y-107210041D01*
G37*
G36*
X143381167Y-107483593D02*
G01*
X143407647Y-107487204D01*
X143429466Y-107497576D01*
X143444426Y-107514834D01*
X143449738Y-107540807D01*
X143449738Y-108172786D01*
X143444428Y-108198771D01*
X143429466Y-108216078D01*
X143407651Y-108226404D01*
X143381167Y-108230000D01*
X143355839Y-108226473D01*
X143333600Y-108216078D01*
X143318110Y-108198707D01*
X143312657Y-108172786D01*
X143312657Y-107540807D01*
X143318112Y-107514898D01*
X143333600Y-107497576D01*
X143355843Y-107487134D01*
X143381167Y-107483593D01*
G37*
G36*
X143749241Y-107186594D02*
G01*
X143775771Y-107190182D01*
X143798150Y-107200577D01*
X143813617Y-107218157D01*
X143819155Y-107245334D01*
X143819155Y-108171259D01*
X143813617Y-108198437D01*
X143798150Y-108216017D01*
X143775771Y-108226411D01*
X143749241Y-108230000D01*
X143723864Y-108226457D01*
X143701613Y-108216017D01*
X143686195Y-108198443D01*
X143680669Y-108171259D01*
X143680669Y-107245334D01*
X143686195Y-107218151D01*
X143701613Y-107200577D01*
X143723864Y-107190137D01*
X143749241Y-107186594D01*
G37*
G36*
X144114628Y-107186594D02*
G01*
X144141159Y-107190182D01*
X144163538Y-107200577D01*
X144179004Y-107218157D01*
X144184542Y-107245334D01*
X144184542Y-108171259D01*
X144179004Y-108198437D01*
X144163538Y-108216017D01*
X144141159Y-108226411D01*
X144114628Y-108230000D01*
X144089251Y-108226457D01*
X144067001Y-108216017D01*
X144051582Y-108198443D01*
X144046057Y-108171259D01*
X144046057Y-107245334D01*
X144051582Y-107218151D01*
X144067001Y-107200577D01*
X144089251Y-107190137D01*
X144114628Y-107186594D01*
G37*
G36*
X144796374Y-107478124D02*
G01*
X144863695Y-107495757D01*
X144920645Y-107523755D01*
X144968928Y-107562056D01*
X145007179Y-107609642D01*
X145035670Y-107668413D01*
X145053975Y-107740770D01*
X145060580Y-107829808D01*
X145060580Y-107875969D01*
X145053975Y-107965007D01*
X145035670Y-108037364D01*
X145007179Y-108096136D01*
X144968928Y-108143721D01*
X144920645Y-108182023D01*
X144863695Y-108210020D01*
X144796374Y-108227654D01*
X144716442Y-108233907D01*
X144636512Y-108227654D01*
X144569179Y-108210022D01*
X144512207Y-108182025D01*
X144463895Y-108143721D01*
X144425645Y-108096136D01*
X144397154Y-108037364D01*
X144378848Y-107965007D01*
X144372243Y-107875969D01*
X144372243Y-107833960D01*
X144510790Y-107833960D01*
X144510790Y-107871817D01*
X144514824Y-107937091D01*
X144525723Y-107987725D01*
X144542105Y-108026590D01*
X144563241Y-108056038D01*
X144601752Y-108086531D01*
X144651659Y-108105773D01*
X144716442Y-108112763D01*
X144767343Y-108108724D01*
X144808841Y-108097492D01*
X144842720Y-108079892D01*
X144870315Y-108056038D01*
X144891154Y-108026639D01*
X144907331Y-107987796D01*
X144918105Y-107937147D01*
X144922095Y-107871817D01*
X144922095Y-107833960D01*
X144918132Y-107769456D01*
X144907400Y-107719111D01*
X144891225Y-107680198D01*
X144870315Y-107650472D01*
X144842671Y-107626276D01*
X144808771Y-107608455D01*
X144767289Y-107597096D01*
X144716442Y-107593014D01*
X144666349Y-107597064D01*
X144625164Y-107608377D01*
X144591210Y-107626195D01*
X144563241Y-107650472D01*
X144542033Y-107680246D01*
X144525653Y-107719181D01*
X144514796Y-107769510D01*
X144510790Y-107833960D01*
X144372243Y-107833960D01*
X144372243Y-107829808D01*
X144378848Y-107740770D01*
X144397154Y-107668413D01*
X144425645Y-107609642D01*
X144463895Y-107562056D01*
X144512207Y-107523753D01*
X144569179Y-107495755D01*
X144636512Y-107478123D01*
X144716442Y-107471870D01*
X144796374Y-107478124D01*
G37*
G36*
X145499546Y-107471870D02*
G01*
X145568757Y-107475526D01*
X145626186Y-107485669D01*
X145678781Y-107502358D01*
X145720586Y-107522672D01*
X145743752Y-107540391D01*
X145754169Y-107559492D01*
X145755630Y-107581039D01*
X145748551Y-107604555D01*
X145735014Y-107622188D01*
X145717777Y-107632398D01*
X145697841Y-107634887D01*
X145674424Y-107628185D01*
X145639240Y-107612227D01*
X145598159Y-107599609D01*
X145555098Y-107591745D01*
X145510720Y-107589106D01*
X145452881Y-107592713D01*
X145413474Y-107601912D01*
X145387622Y-107614874D01*
X145366671Y-107634116D01*
X145355048Y-107654516D01*
X145351229Y-107676912D01*
X145351229Y-107679659D01*
X145357519Y-107715929D01*
X145366425Y-107729791D01*
X145382004Y-107742430D01*
X145432379Y-107763312D01*
X145516338Y-107782791D01*
X145592532Y-107800039D01*
X145649206Y-107817718D01*
X145698718Y-107839981D01*
X145733836Y-107863818D01*
X145760797Y-107893043D01*
X145777922Y-107926650D01*
X145787178Y-107964964D01*
X145790561Y-108013234D01*
X145790561Y-108021599D01*
X145785461Y-108064975D01*
X145770228Y-108105436D01*
X145745839Y-108141596D01*
X145712159Y-108173152D01*
X145671274Y-108198127D01*
X145619836Y-108217848D01*
X145563267Y-108229698D01*
X145496737Y-108233907D01*
X145417317Y-108229104D01*
X145345612Y-108215223D01*
X145279084Y-108193196D01*
X145226727Y-108167473D01*
X145207759Y-108152010D01*
X145199433Y-108132058D01*
X145199582Y-108109530D01*
X145207126Y-108086934D01*
X145221357Y-108067133D01*
X145240710Y-108055671D01*
X145262993Y-108053305D01*
X145286871Y-108061960D01*
X145330977Y-108082928D01*
X145383408Y-108100978D01*
X145438806Y-108112716D01*
X145496737Y-108116671D01*
X145551527Y-108112930D01*
X145589742Y-108103267D01*
X145615622Y-108089377D01*
X145636199Y-108069066D01*
X145648018Y-108046298D01*
X145652015Y-108020073D01*
X145652015Y-108017325D01*
X145646397Y-107978124D01*
X145637900Y-107962857D01*
X145621973Y-107948754D01*
X145600571Y-107937433D01*
X145566713Y-107925612D01*
X145468771Y-107903935D01*
X145402987Y-107889166D01*
X145351901Y-107872489D01*
X145306740Y-107851131D01*
X145272889Y-107827732D01*
X145246178Y-107799215D01*
X145228131Y-107766182D01*
X145217838Y-107728697D01*
X145214148Y-107683018D01*
X145214148Y-107675996D01*
X145218504Y-107636380D01*
X145231612Y-107598449D01*
X145253342Y-107564061D01*
X145284795Y-107533419D01*
X145323668Y-107508838D01*
X145373639Y-107488661D01*
X145429536Y-107476363D01*
X145499546Y-107471870D01*
G37*
G36*
X146256638Y-107471870D02*
G01*
X146333242Y-107476662D01*
X146393047Y-107489638D01*
X146446923Y-107510279D01*
X146490317Y-107534396D01*
X146508169Y-107551885D01*
X146516146Y-107572864D01*
X146515052Y-107595477D01*
X146504300Y-107618171D01*
X146488489Y-107634347D01*
X146469984Y-107643695D01*
X146449804Y-107645022D01*
X146427363Y-107636001D01*
X146389734Y-107617689D01*
X146348961Y-107604127D01*
X146305773Y-107595898D01*
X146256638Y-107593014D01*
X146197647Y-107599904D01*
X146150795Y-107619201D01*
X146113267Y-107650472D01*
X146092636Y-107680157D01*
X146076688Y-107718869D01*
X146066118Y-107768786D01*
X146062220Y-107832555D01*
X146062220Y-107874626D01*
X146066134Y-107935848D01*
X146076851Y-107984696D01*
X146093220Y-108023447D01*
X146114672Y-108053961D01*
X146153154Y-108086079D01*
X146200522Y-108105773D01*
X146259446Y-108112763D01*
X146329948Y-108107181D01*
X146390467Y-108091306D01*
X146442751Y-108065868D01*
X146466688Y-108056691D01*
X146488852Y-108057503D01*
X146508275Y-108067144D01*
X146522496Y-108085591D01*
X146532347Y-108108703D01*
X146533670Y-108131997D01*
X146525908Y-108153388D01*
X146507109Y-108171381D01*
X146460495Y-108195471D01*
X146400741Y-108216261D01*
X146335406Y-108229268D01*
X146258042Y-108233907D01*
X146180259Y-108227756D01*
X146114789Y-108210411D01*
X146059430Y-108182858D01*
X146012517Y-108145125D01*
X145975714Y-108098415D01*
X145948069Y-108039855D01*
X145930170Y-107966821D01*
X145923674Y-107875969D01*
X145923674Y-107829808D01*
X145930125Y-107738901D01*
X145947893Y-107665850D01*
X145975315Y-107607312D01*
X146011784Y-107560652D01*
X146058376Y-107522942D01*
X146113498Y-107495390D01*
X146178840Y-107478031D01*
X146256638Y-107471870D01*
G37*
G36*
X147078579Y-107478124D02*
G01*
X147145900Y-107495757D01*
X147202851Y-107523755D01*
X147251133Y-107562056D01*
X147289384Y-107609642D01*
X147317875Y-107668413D01*
X147336181Y-107740770D01*
X147342786Y-107829808D01*
X147342786Y-107875969D01*
X147336181Y-107965007D01*
X147317875Y-108037364D01*
X147289384Y-108096136D01*
X147251133Y-108143721D01*
X147202851Y-108182023D01*
X147145900Y-108210020D01*
X147078579Y-108227654D01*
X146998647Y-108233907D01*
X146918717Y-108227654D01*
X146851385Y-108210022D01*
X146794412Y-108182025D01*
X146746100Y-108143721D01*
X146707850Y-108096136D01*
X146679359Y-108037364D01*
X146661053Y-107965007D01*
X146654448Y-107875969D01*
X146654448Y-107833960D01*
X146792995Y-107833960D01*
X146792995Y-107871817D01*
X146797029Y-107937091D01*
X146807928Y-107987725D01*
X146824310Y-108026590D01*
X146845446Y-108056038D01*
X146883958Y-108086531D01*
X146933865Y-108105773D01*
X146998647Y-108112763D01*
X147049548Y-108108724D01*
X147091046Y-108097492D01*
X147124925Y-108079892D01*
X147152520Y-108056038D01*
X147173359Y-108026639D01*
X147189536Y-107987796D01*
X147200310Y-107937147D01*
X147204300Y-107871817D01*
X147204300Y-107833960D01*
X147200338Y-107769456D01*
X147189605Y-107719111D01*
X147173430Y-107680198D01*
X147152520Y-107650472D01*
X147124876Y-107626276D01*
X147090976Y-107608455D01*
X147049494Y-107597096D01*
X146998647Y-107593014D01*
X146948554Y-107597064D01*
X146907369Y-107608377D01*
X146873415Y-107626195D01*
X146845446Y-107650472D01*
X146824238Y-107680246D01*
X146807859Y-107719181D01*
X146797001Y-107769510D01*
X146792995Y-107833960D01*
X146654448Y-107833960D01*
X146654448Y-107829808D01*
X146661053Y-107740770D01*
X146679359Y-107668413D01*
X146707850Y-107609642D01*
X146746100Y-107562056D01*
X146794412Y-107523753D01*
X146851385Y-107495755D01*
X146918717Y-107478123D01*
X146998647Y-107471870D01*
X147078579Y-107478124D01*
G37*
G36*
X147961457Y-107478203D02*
G01*
X148021356Y-107495878D01*
X148070409Y-107523784D01*
X148110502Y-107562056D01*
X148140900Y-107608467D01*
X148164073Y-107666564D01*
X148179193Y-107738864D01*
X148184691Y-107828403D01*
X148184691Y-107875969D01*
X148178570Y-107966432D01*
X148161715Y-108039289D01*
X148135761Y-108097767D01*
X148101404Y-108144453D01*
X148056998Y-108183131D01*
X148006171Y-108210807D01*
X147947661Y-108227918D01*
X147879692Y-108233907D01*
X147811200Y-108227162D01*
X147753724Y-108208018D01*
X147704578Y-108176948D01*
X147668422Y-108137370D01*
X147668422Y-108445788D01*
X147662943Y-108471978D01*
X147647418Y-108489446D01*
X147625030Y-108499935D01*
X147598508Y-108503551D01*
X147573131Y-108500009D01*
X147550881Y-108489569D01*
X147535393Y-108472189D01*
X147529937Y-108446215D01*
X147529937Y-107790423D01*
X147665614Y-107790423D01*
X147665614Y-107951441D01*
X147669260Y-107982905D01*
X147680268Y-108013112D01*
X147697773Y-108040690D01*
X147721545Y-108065563D01*
X147750218Y-108086153D01*
X147784560Y-108102688D01*
X147822350Y-108113054D01*
X147865710Y-108116671D01*
X147920683Y-108109669D01*
X147964803Y-108089858D01*
X148000654Y-108057198D01*
X148025702Y-108014640D01*
X148042568Y-107955055D01*
X148048953Y-107873039D01*
X148048953Y-107835242D01*
X148043086Y-107753825D01*
X148027633Y-107694692D01*
X148004867Y-107652548D01*
X147980680Y-107627377D01*
X147950213Y-107608982D01*
X147912087Y-107597253D01*
X147864305Y-107593014D01*
X147822176Y-107596617D01*
X147784560Y-107607058D01*
X147750424Y-107624136D01*
X147721545Y-107646931D01*
X147698088Y-107675231D01*
X147680268Y-107709213D01*
X147669399Y-107747043D01*
X147665614Y-107790423D01*
X147529937Y-107790423D01*
X147529937Y-107539586D01*
X147535277Y-107513636D01*
X147550209Y-107496905D01*
X147571607Y-107486954D01*
X147595699Y-107483593D01*
X147620970Y-107486939D01*
X147642533Y-107496660D01*
X147657534Y-107513116D01*
X147662866Y-107538487D01*
X147662866Y-107586542D01*
X147690089Y-107550584D01*
X147722529Y-107521889D01*
X147760746Y-107499836D01*
X147823563Y-107478814D01*
X147888058Y-107471870D01*
X147961457Y-107478203D01*
G37*
G36*
X148737815Y-107477648D02*
G01*
X148799450Y-107494218D01*
X148855046Y-107521793D01*
X148901605Y-107559125D01*
X148939043Y-107605861D01*
X148967367Y-107663112D01*
X148984420Y-107727138D01*
X148990448Y-107802636D01*
X148990448Y-107805444D01*
X148987426Y-107840145D01*
X148979583Y-107864066D01*
X148968039Y-107880122D01*
X148951623Y-107891195D01*
X148926993Y-107898795D01*
X148891102Y-107901737D01*
X148468623Y-107901737D01*
X148468623Y-107907294D01*
X148475184Y-107972248D01*
X148493255Y-108022822D01*
X148521746Y-108062266D01*
X148560515Y-108091439D01*
X148610688Y-108109939D01*
X148675680Y-108116671D01*
X148736572Y-108113886D01*
X148785467Y-108106290D01*
X148831614Y-108092994D01*
X148877119Y-108073684D01*
X148900659Y-108066811D01*
X148921205Y-108068799D01*
X148938787Y-108078930D01*
X148952651Y-108098414D01*
X148959729Y-108121695D01*
X148958269Y-108143049D01*
X148948946Y-108161579D01*
X148931707Y-108175289D01*
X148878921Y-108199716D01*
X148817646Y-108218581D01*
X148751349Y-108229821D01*
X148670062Y-108233907D01*
X148591528Y-108227746D01*
X148525466Y-108210383D01*
X148469652Y-108182823D01*
X148422400Y-108145125D01*
X148385235Y-108098359D01*
X148357391Y-108039965D01*
X148339403Y-107967392D01*
X148332885Y-107877374D01*
X148332885Y-107829808D01*
X148335949Y-107787920D01*
X148468623Y-107787920D01*
X148468623Y-107796224D01*
X148857519Y-107796224D01*
X148857519Y-107783768D01*
X148851736Y-107725747D01*
X148835617Y-107679188D01*
X148809952Y-107641618D01*
X148774797Y-107613638D01*
X148727581Y-107595712D01*
X148664445Y-107589106D01*
X148603224Y-107595647D01*
X148555785Y-107613685D01*
X148518937Y-107642290D01*
X148491777Y-107680535D01*
X148474740Y-107728196D01*
X148468623Y-107787920D01*
X148335949Y-107787920D01*
X148339405Y-107740666D01*
X148357462Y-107668279D01*
X148385528Y-107609547D01*
X148423133Y-107562056D01*
X148470829Y-107523500D01*
X148526320Y-107495529D01*
X148591119Y-107478039D01*
X148667254Y-107471870D01*
X148737815Y-107477648D01*
G37*
G36*
X149491329Y-107491409D02*
G01*
X149516730Y-107485435D01*
X149542376Y-107487196D01*
X149563954Y-107498779D01*
X149579439Y-107524809D01*
X149780940Y-108077531D01*
X149782344Y-108077531D01*
X149980975Y-107524809D01*
X149996333Y-107498709D01*
X150017306Y-107487196D01*
X150042378Y-107485428D01*
X150067742Y-107491409D01*
X150088919Y-107502946D01*
X150104806Y-107520718D01*
X150111933Y-107543088D01*
X150106882Y-107572254D01*
X149877477Y-108158925D01*
X149858475Y-108194386D01*
X149836200Y-108214673D01*
X149808979Y-108226104D01*
X149778131Y-108230000D01*
X149747339Y-108226261D01*
X149720734Y-108215406D01*
X149699084Y-108195729D01*
X149680190Y-108160329D01*
X149449380Y-107572254D01*
X149444506Y-107543136D01*
X149452128Y-107520718D01*
X149468827Y-107503012D01*
X149491329Y-107491409D01*
G37*
G36*
X150663328Y-107221765D02*
G01*
X150693429Y-107225505D01*
X150715779Y-107235748D01*
X150730656Y-107253453D01*
X150736113Y-107281910D01*
X150736113Y-108171259D01*
X150730574Y-108198437D01*
X150715108Y-108216017D01*
X150692677Y-108226413D01*
X150666137Y-108230000D01*
X150639597Y-108226413D01*
X150617166Y-108216017D01*
X150601746Y-108198393D01*
X150596222Y-108171198D01*
X150596222Y-107385896D01*
X150386357Y-107514612D01*
X150359838Y-107523773D01*
X150335921Y-107520230D01*
X150314776Y-107507066D01*
X150298185Y-107486646D01*
X150290669Y-107463682D01*
X150290491Y-107439752D01*
X150299149Y-107418282D01*
X150319190Y-107401284D01*
X150569600Y-107252356D01*
X150619975Y-107229459D01*
X150663328Y-107221765D01*
G37*
G36*
X151171659Y-108093224D02*
G01*
X151209215Y-108099949D01*
X151239497Y-108119663D01*
X151259861Y-108149263D01*
X151266791Y-108186341D01*
X151259884Y-108223535D01*
X151239497Y-108253691D01*
X151209162Y-108273927D01*
X151171659Y-108280802D01*
X151134313Y-108273910D01*
X151104492Y-108253691D01*
X151084676Y-108223594D01*
X151077930Y-108186341D01*
X151084698Y-108149204D01*
X151104492Y-108119663D01*
X151134259Y-108099966D01*
X151171659Y-108093224D01*
G37*
G36*
X151865003Y-107221765D02*
G01*
X151895103Y-107225505D01*
X151917454Y-107235748D01*
X151932330Y-107253453D01*
X151937787Y-107281910D01*
X151937787Y-108171259D01*
X151932249Y-108198437D01*
X151916782Y-108216017D01*
X151894352Y-108226413D01*
X151867812Y-108230000D01*
X151841272Y-108226413D01*
X151818841Y-108216017D01*
X151803420Y-108198393D01*
X151797897Y-108171198D01*
X151797897Y-107385896D01*
X151588032Y-107514612D01*
X151561513Y-107523773D01*
X151537595Y-107520230D01*
X151516451Y-107507066D01*
X151499860Y-107486646D01*
X151492344Y-107463682D01*
X151492166Y-107439752D01*
X151500824Y-107418282D01*
X151520865Y-107401284D01*
X151771275Y-107252356D01*
X151821650Y-107229459D01*
X151865003Y-107221765D01*
G37*
D12*
X146154819Y-69538094D02*
X145154819Y-69538094D01*
X145154819Y-69538094D02*
X145154819Y-69299999D01*
X145154819Y-69299999D02*
X145202438Y-69157142D01*
X145202438Y-69157142D02*
X145297676Y-69061904D01*
X145297676Y-69061904D02*
X145392914Y-69014285D01*
X145392914Y-69014285D02*
X145583390Y-68966666D01*
X145583390Y-68966666D02*
X145726247Y-68966666D01*
X145726247Y-68966666D02*
X145916723Y-69014285D01*
X145916723Y-69014285D02*
X146011961Y-69061904D01*
X146011961Y-69061904D02*
X146107200Y-69157142D01*
X146107200Y-69157142D02*
X146154819Y-69299999D01*
X146154819Y-69299999D02*
X146154819Y-69538094D01*
X145154819Y-68633332D02*
X145154819Y-68014285D01*
X145154819Y-68014285D02*
X145535771Y-68347618D01*
X145535771Y-68347618D02*
X145535771Y-68204761D01*
X145535771Y-68204761D02*
X145583390Y-68109523D01*
X145583390Y-68109523D02*
X145631009Y-68061904D01*
X145631009Y-68061904D02*
X145726247Y-68014285D01*
X145726247Y-68014285D02*
X145964342Y-68014285D01*
X145964342Y-68014285D02*
X146059580Y-68061904D01*
X146059580Y-68061904D02*
X146107200Y-68109523D01*
X146107200Y-68109523D02*
X146154819Y-68204761D01*
X146154819Y-68204761D02*
X146154819Y-68490475D01*
X146154819Y-68490475D02*
X146107200Y-68585713D01*
X146107200Y-68585713D02*
X146059580Y-68633332D01*
X144354819Y-72871904D02*
X143354819Y-72871904D01*
X144354819Y-72300476D02*
X143783390Y-72729047D01*
X143354819Y-72300476D02*
X143926247Y-72871904D01*
X162954819Y-87509523D02*
X163669104Y-87509523D01*
X163669104Y-87509523D02*
X163811961Y-87557142D01*
X163811961Y-87557142D02*
X163907200Y-87652380D01*
X163907200Y-87652380D02*
X163954819Y-87795237D01*
X163954819Y-87795237D02*
X163954819Y-87890475D01*
X163954819Y-86509523D02*
X163954819Y-87080951D01*
X163954819Y-86795237D02*
X162954819Y-86795237D01*
X162954819Y-86795237D02*
X163097676Y-86890475D01*
X163097676Y-86890475D02*
X163192914Y-86985713D01*
X163192914Y-86985713D02*
X163240533Y-87080951D01*
X163050057Y-86128570D02*
X163002438Y-86080951D01*
X163002438Y-86080951D02*
X162954819Y-85985713D01*
X162954819Y-85985713D02*
X162954819Y-85747618D01*
X162954819Y-85747618D02*
X163002438Y-85652380D01*
X163002438Y-85652380D02*
X163050057Y-85604761D01*
X163050057Y-85604761D02*
X163145295Y-85557142D01*
X163145295Y-85557142D02*
X163240533Y-85557142D01*
X163240533Y-85557142D02*
X163383390Y-85604761D01*
X163383390Y-85604761D02*
X163954819Y-86176189D01*
X163954819Y-86176189D02*
X163954819Y-85557142D01*
X163928571Y-84254819D02*
X163357143Y-84254819D01*
X163642857Y-84254819D02*
X163642857Y-83254819D01*
X163642857Y-83254819D02*
X163547619Y-83397676D01*
X163547619Y-83397676D02*
X163452381Y-83492914D01*
X163452381Y-83492914D02*
X163357143Y-83540533D01*
X164357143Y-84254819D02*
X164357143Y-83254819D01*
X164928571Y-84254819D02*
X164500000Y-83683390D01*
X164928571Y-83254819D02*
X164357143Y-83826247D01*
X165357143Y-84254819D02*
X165357143Y-83254819D01*
X165785714Y-84254819D02*
X165785714Y-83731009D01*
X165785714Y-83731009D02*
X165738095Y-83635771D01*
X165738095Y-83635771D02*
X165642857Y-83588152D01*
X165642857Y-83588152D02*
X165500000Y-83588152D01*
X165500000Y-83588152D02*
X165404762Y-83635771D01*
X165404762Y-83635771D02*
X165357143Y-83683390D01*
X166166667Y-83588152D02*
X166690476Y-83588152D01*
X166690476Y-83588152D02*
X166166667Y-84254819D01*
X166166667Y-84254819D02*
X166690476Y-84254819D01*
X162704761Y-61154819D02*
X162371428Y-60678628D01*
X162133333Y-61154819D02*
X162133333Y-60154819D01*
X162133333Y-60154819D02*
X162514285Y-60154819D01*
X162514285Y-60154819D02*
X162609523Y-60202438D01*
X162609523Y-60202438D02*
X162657142Y-60250057D01*
X162657142Y-60250057D02*
X162704761Y-60345295D01*
X162704761Y-60345295D02*
X162704761Y-60488152D01*
X162704761Y-60488152D02*
X162657142Y-60583390D01*
X162657142Y-60583390D02*
X162609523Y-60631009D01*
X162609523Y-60631009D02*
X162514285Y-60678628D01*
X162514285Y-60678628D02*
X162133333Y-60678628D01*
X162990476Y-60154819D02*
X163323809Y-61154819D01*
X163323809Y-61154819D02*
X163657142Y-60154819D01*
X164514285Y-61154819D02*
X163942857Y-61154819D01*
X164228571Y-61154819D02*
X164228571Y-60154819D01*
X164228571Y-60154819D02*
X164133333Y-60297676D01*
X164133333Y-60297676D02*
X164038095Y-60392914D01*
X164038095Y-60392914D02*
X163942857Y-60440533D01*
X143654819Y-69538094D02*
X142654819Y-69538094D01*
X142654819Y-69538094D02*
X142654819Y-69299999D01*
X142654819Y-69299999D02*
X142702438Y-69157142D01*
X142702438Y-69157142D02*
X142797676Y-69061904D01*
X142797676Y-69061904D02*
X142892914Y-69014285D01*
X142892914Y-69014285D02*
X143083390Y-68966666D01*
X143083390Y-68966666D02*
X143226247Y-68966666D01*
X143226247Y-68966666D02*
X143416723Y-69014285D01*
X143416723Y-69014285D02*
X143511961Y-69061904D01*
X143511961Y-69061904D02*
X143607200Y-69157142D01*
X143607200Y-69157142D02*
X143654819Y-69299999D01*
X143654819Y-69299999D02*
X143654819Y-69538094D01*
X143654819Y-68014285D02*
X143654819Y-68585713D01*
X143654819Y-68299999D02*
X142654819Y-68299999D01*
X142654819Y-68299999D02*
X142797676Y-68395237D01*
X142797676Y-68395237D02*
X142892914Y-68490475D01*
X142892914Y-68490475D02*
X142940533Y-68585713D01*
X141854819Y-72871904D02*
X140854819Y-72871904D01*
X141854819Y-72300476D02*
X141283390Y-72729047D01*
X140854819Y-72300476D02*
X141426247Y-72871904D01*
X138654819Y-69538094D02*
X137654819Y-69538094D01*
X137654819Y-69538094D02*
X137654819Y-69299999D01*
X137654819Y-69299999D02*
X137702438Y-69157142D01*
X137702438Y-69157142D02*
X137797676Y-69061904D01*
X137797676Y-69061904D02*
X137892914Y-69014285D01*
X137892914Y-69014285D02*
X138083390Y-68966666D01*
X138083390Y-68966666D02*
X138226247Y-68966666D01*
X138226247Y-68966666D02*
X138416723Y-69014285D01*
X138416723Y-69014285D02*
X138511961Y-69061904D01*
X138511961Y-69061904D02*
X138607200Y-69157142D01*
X138607200Y-69157142D02*
X138654819Y-69299999D01*
X138654819Y-69299999D02*
X138654819Y-69538094D01*
X137654819Y-68061904D02*
X137654819Y-68538094D01*
X137654819Y-68538094D02*
X138131009Y-68585713D01*
X138131009Y-68585713D02*
X138083390Y-68538094D01*
X138083390Y-68538094D02*
X138035771Y-68442856D01*
X138035771Y-68442856D02*
X138035771Y-68204761D01*
X138035771Y-68204761D02*
X138083390Y-68109523D01*
X138083390Y-68109523D02*
X138131009Y-68061904D01*
X138131009Y-68061904D02*
X138226247Y-68014285D01*
X138226247Y-68014285D02*
X138464342Y-68014285D01*
X138464342Y-68014285D02*
X138559580Y-68061904D01*
X138559580Y-68061904D02*
X138607200Y-68109523D01*
X138607200Y-68109523D02*
X138654819Y-68204761D01*
X138654819Y-68204761D02*
X138654819Y-68442856D01*
X138654819Y-68442856D02*
X138607200Y-68538094D01*
X138607200Y-68538094D02*
X138559580Y-68585713D01*
X136854819Y-72871904D02*
X135854819Y-72871904D01*
X136854819Y-72300476D02*
X136283390Y-72729047D01*
X135854819Y-72300476D02*
X136426247Y-72871904D01*
X135074819Y-83533333D02*
X135789104Y-83533333D01*
X135789104Y-83533333D02*
X135931961Y-83580952D01*
X135931961Y-83580952D02*
X136027200Y-83676190D01*
X136027200Y-83676190D02*
X136074819Y-83819047D01*
X136074819Y-83819047D02*
X136074819Y-83914285D01*
X135170057Y-83104761D02*
X135122438Y-83057142D01*
X135122438Y-83057142D02*
X135074819Y-82961904D01*
X135074819Y-82961904D02*
X135074819Y-82723809D01*
X135074819Y-82723809D02*
X135122438Y-82628571D01*
X135122438Y-82628571D02*
X135170057Y-82580952D01*
X135170057Y-82580952D02*
X135265295Y-82533333D01*
X135265295Y-82533333D02*
X135360533Y-82533333D01*
X135360533Y-82533333D02*
X135503390Y-82580952D01*
X135503390Y-82580952D02*
X136074819Y-83152380D01*
X136074819Y-83152380D02*
X136074819Y-82533333D01*
X140985714Y-92254819D02*
X140509524Y-92254819D01*
X140509524Y-92254819D02*
X140461905Y-92731009D01*
X140461905Y-92731009D02*
X140509524Y-92683390D01*
X140509524Y-92683390D02*
X140604762Y-92635771D01*
X140604762Y-92635771D02*
X140842857Y-92635771D01*
X140842857Y-92635771D02*
X140938095Y-92683390D01*
X140938095Y-92683390D02*
X140985714Y-92731009D01*
X140985714Y-92731009D02*
X141033333Y-92826247D01*
X141033333Y-92826247D02*
X141033333Y-93064342D01*
X141033333Y-93064342D02*
X140985714Y-93159580D01*
X140985714Y-93159580D02*
X140938095Y-93207200D01*
X140938095Y-93207200D02*
X140842857Y-93254819D01*
X140842857Y-93254819D02*
X140604762Y-93254819D01*
X140604762Y-93254819D02*
X140509524Y-93207200D01*
X140509524Y-93207200D02*
X140461905Y-93159580D01*
X141461905Y-92873866D02*
X142223810Y-92873866D01*
X142604762Y-92254819D02*
X142842857Y-93254819D01*
X142842857Y-93254819D02*
X143033333Y-92540533D01*
X143033333Y-92540533D02*
X143223809Y-93254819D01*
X143223809Y-93254819D02*
X143461905Y-92254819D01*
X144271428Y-93254819D02*
X144271428Y-92731009D01*
X144271428Y-92731009D02*
X144223809Y-92635771D01*
X144223809Y-92635771D02*
X144128571Y-92588152D01*
X144128571Y-92588152D02*
X143938095Y-92588152D01*
X143938095Y-92588152D02*
X143842857Y-92635771D01*
X144271428Y-93207200D02*
X144176190Y-93254819D01*
X144176190Y-93254819D02*
X143938095Y-93254819D01*
X143938095Y-93254819D02*
X143842857Y-93207200D01*
X143842857Y-93207200D02*
X143795238Y-93111961D01*
X143795238Y-93111961D02*
X143795238Y-93016723D01*
X143795238Y-93016723D02*
X143842857Y-92921485D01*
X143842857Y-92921485D02*
X143938095Y-92873866D01*
X143938095Y-92873866D02*
X144176190Y-92873866D01*
X144176190Y-92873866D02*
X144271428Y-92826247D01*
X144652381Y-92588152D02*
X144890476Y-93254819D01*
X145128571Y-92588152D02*
X144890476Y-93254819D01*
X144890476Y-93254819D02*
X144795238Y-93492914D01*
X144795238Y-93492914D02*
X144747619Y-93540533D01*
X144747619Y-93540533D02*
X144652381Y-93588152D01*
X146223810Y-93207200D02*
X146366667Y-93254819D01*
X146366667Y-93254819D02*
X146604762Y-93254819D01*
X146604762Y-93254819D02*
X146700000Y-93207200D01*
X146700000Y-93207200D02*
X146747619Y-93159580D01*
X146747619Y-93159580D02*
X146795238Y-93064342D01*
X146795238Y-93064342D02*
X146795238Y-92969104D01*
X146795238Y-92969104D02*
X146747619Y-92873866D01*
X146747619Y-92873866D02*
X146700000Y-92826247D01*
X146700000Y-92826247D02*
X146604762Y-92778628D01*
X146604762Y-92778628D02*
X146414286Y-92731009D01*
X146414286Y-92731009D02*
X146319048Y-92683390D01*
X146319048Y-92683390D02*
X146271429Y-92635771D01*
X146271429Y-92635771D02*
X146223810Y-92540533D01*
X146223810Y-92540533D02*
X146223810Y-92445295D01*
X146223810Y-92445295D02*
X146271429Y-92350057D01*
X146271429Y-92350057D02*
X146319048Y-92302438D01*
X146319048Y-92302438D02*
X146414286Y-92254819D01*
X146414286Y-92254819D02*
X146652381Y-92254819D01*
X146652381Y-92254819D02*
X146795238Y-92302438D01*
X147128572Y-92254819D02*
X147366667Y-93254819D01*
X147366667Y-93254819D02*
X147557143Y-92540533D01*
X147557143Y-92540533D02*
X147747619Y-93254819D01*
X147747619Y-93254819D02*
X147985715Y-92254819D01*
D11*
X121171428Y-107492614D02*
X121385714Y-107564042D01*
X121385714Y-107564042D02*
X121457143Y-107635471D01*
X121457143Y-107635471D02*
X121528571Y-107778328D01*
X121528571Y-107778328D02*
X121528571Y-107992614D01*
X121528571Y-107992614D02*
X121457143Y-108135471D01*
X121457143Y-108135471D02*
X121385714Y-108206900D01*
X121385714Y-108206900D02*
X121242857Y-108278328D01*
X121242857Y-108278328D02*
X120671428Y-108278328D01*
X120671428Y-108278328D02*
X120671428Y-106778328D01*
X120671428Y-106778328D02*
X121171428Y-106778328D01*
X121171428Y-106778328D02*
X121314286Y-106849757D01*
X121314286Y-106849757D02*
X121385714Y-106921185D01*
X121385714Y-106921185D02*
X121457143Y-107064042D01*
X121457143Y-107064042D02*
X121457143Y-107206900D01*
X121457143Y-107206900D02*
X121385714Y-107349757D01*
X121385714Y-107349757D02*
X121314286Y-107421185D01*
X121314286Y-107421185D02*
X121171428Y-107492614D01*
X121171428Y-107492614D02*
X120671428Y-107492614D01*
X122814286Y-108278328D02*
X122814286Y-107492614D01*
X122814286Y-107492614D02*
X122742857Y-107349757D01*
X122742857Y-107349757D02*
X122600000Y-107278328D01*
X122600000Y-107278328D02*
X122314286Y-107278328D01*
X122314286Y-107278328D02*
X122171428Y-107349757D01*
X122814286Y-108206900D02*
X122671428Y-108278328D01*
X122671428Y-108278328D02*
X122314286Y-108278328D01*
X122314286Y-108278328D02*
X122171428Y-108206900D01*
X122171428Y-108206900D02*
X122100000Y-108064042D01*
X122100000Y-108064042D02*
X122100000Y-107921185D01*
X122100000Y-107921185D02*
X122171428Y-107778328D01*
X122171428Y-107778328D02*
X122314286Y-107706900D01*
X122314286Y-107706900D02*
X122671428Y-107706900D01*
X122671428Y-107706900D02*
X122814286Y-107635471D01*
X123314286Y-107278328D02*
X123885714Y-107278328D01*
X123528571Y-106778328D02*
X123528571Y-108064042D01*
X123528571Y-108064042D02*
X123600000Y-108206900D01*
X123600000Y-108206900D02*
X123742857Y-108278328D01*
X123742857Y-108278328D02*
X123885714Y-108278328D01*
X124814286Y-108849757D02*
X124742857Y-108778328D01*
X124742857Y-108778328D02*
X124600000Y-108564042D01*
X124600000Y-108564042D02*
X124528572Y-108421185D01*
X124528572Y-108421185D02*
X124457143Y-108206900D01*
X124457143Y-108206900D02*
X124385714Y-107849757D01*
X124385714Y-107849757D02*
X124385714Y-107564042D01*
X124385714Y-107564042D02*
X124457143Y-107206900D01*
X124457143Y-107206900D02*
X124528572Y-106992614D01*
X124528572Y-106992614D02*
X124600000Y-106849757D01*
X124600000Y-106849757D02*
X124742857Y-106635471D01*
X124742857Y-106635471D02*
X124814286Y-106564042D01*
X125385714Y-107706900D02*
X126528572Y-107706900D01*
X125957143Y-108278328D02*
X125957143Y-107135471D01*
X127100000Y-108849757D02*
X127171429Y-108778328D01*
X127171429Y-108778328D02*
X127314286Y-108564042D01*
X127314286Y-108564042D02*
X127385715Y-108421185D01*
X127385715Y-108421185D02*
X127457143Y-108206900D01*
X127457143Y-108206900D02*
X127528572Y-107849757D01*
X127528572Y-107849757D02*
X127528572Y-107564042D01*
X127528572Y-107564042D02*
X127457143Y-107206900D01*
X127457143Y-107206900D02*
X127385715Y-106992614D01*
X127385715Y-106992614D02*
X127314286Y-106849757D01*
X127314286Y-106849757D02*
X127171429Y-106635471D01*
X127171429Y-106635471D02*
X127100000Y-106564042D01*
D12*
X119738095Y-56074819D02*
X120309523Y-56074819D01*
X120023809Y-57074819D02*
X120023809Y-56074819D01*
X120642857Y-57074819D02*
X120642857Y-56074819D01*
X120642857Y-56074819D02*
X121023809Y-56074819D01*
X121023809Y-56074819D02*
X121119047Y-56122438D01*
X121119047Y-56122438D02*
X121166666Y-56170057D01*
X121166666Y-56170057D02*
X121214285Y-56265295D01*
X121214285Y-56265295D02*
X121214285Y-56408152D01*
X121214285Y-56408152D02*
X121166666Y-56503390D01*
X121166666Y-56503390D02*
X121119047Y-56551009D01*
X121119047Y-56551009D02*
X121023809Y-56598628D01*
X121023809Y-56598628D02*
X120642857Y-56598628D01*
X121547619Y-56074819D02*
X122166666Y-56074819D01*
X122166666Y-56074819D02*
X121833333Y-56455771D01*
X121833333Y-56455771D02*
X121976190Y-56455771D01*
X121976190Y-56455771D02*
X122071428Y-56503390D01*
X122071428Y-56503390D02*
X122119047Y-56551009D01*
X122119047Y-56551009D02*
X122166666Y-56646247D01*
X122166666Y-56646247D02*
X122166666Y-56884342D01*
X122166666Y-56884342D02*
X122119047Y-56979580D01*
X122119047Y-56979580D02*
X122071428Y-57027200D01*
X122071428Y-57027200D02*
X121976190Y-57074819D01*
X121976190Y-57074819D02*
X121690476Y-57074819D01*
X121690476Y-57074819D02*
X121595238Y-57027200D01*
X121595238Y-57027200D02*
X121547619Y-56979580D01*
D11*
X120871428Y-53992614D02*
X121085714Y-54064042D01*
X121085714Y-54064042D02*
X121157143Y-54135471D01*
X121157143Y-54135471D02*
X121228571Y-54278328D01*
X121228571Y-54278328D02*
X121228571Y-54492614D01*
X121228571Y-54492614D02*
X121157143Y-54635471D01*
X121157143Y-54635471D02*
X121085714Y-54706900D01*
X121085714Y-54706900D02*
X120942857Y-54778328D01*
X120942857Y-54778328D02*
X120371428Y-54778328D01*
X120371428Y-54778328D02*
X120371428Y-53278328D01*
X120371428Y-53278328D02*
X120871428Y-53278328D01*
X120871428Y-53278328D02*
X121014286Y-53349757D01*
X121014286Y-53349757D02*
X121085714Y-53421185D01*
X121085714Y-53421185D02*
X121157143Y-53564042D01*
X121157143Y-53564042D02*
X121157143Y-53706900D01*
X121157143Y-53706900D02*
X121085714Y-53849757D01*
X121085714Y-53849757D02*
X121014286Y-53921185D01*
X121014286Y-53921185D02*
X120871428Y-53992614D01*
X120871428Y-53992614D02*
X120371428Y-53992614D01*
X122514286Y-54778328D02*
X122514286Y-53992614D01*
X122514286Y-53992614D02*
X122442857Y-53849757D01*
X122442857Y-53849757D02*
X122300000Y-53778328D01*
X122300000Y-53778328D02*
X122014286Y-53778328D01*
X122014286Y-53778328D02*
X121871428Y-53849757D01*
X122514286Y-54706900D02*
X122371428Y-54778328D01*
X122371428Y-54778328D02*
X122014286Y-54778328D01*
X122014286Y-54778328D02*
X121871428Y-54706900D01*
X121871428Y-54706900D02*
X121800000Y-54564042D01*
X121800000Y-54564042D02*
X121800000Y-54421185D01*
X121800000Y-54421185D02*
X121871428Y-54278328D01*
X121871428Y-54278328D02*
X122014286Y-54206900D01*
X122014286Y-54206900D02*
X122371428Y-54206900D01*
X122371428Y-54206900D02*
X122514286Y-54135471D01*
X123014286Y-53778328D02*
X123585714Y-53778328D01*
X123228571Y-53278328D02*
X123228571Y-54564042D01*
X123228571Y-54564042D02*
X123300000Y-54706900D01*
X123300000Y-54706900D02*
X123442857Y-54778328D01*
X123442857Y-54778328D02*
X123585714Y-54778328D01*
X124514286Y-55349757D02*
X124442857Y-55278328D01*
X124442857Y-55278328D02*
X124300000Y-55064042D01*
X124300000Y-55064042D02*
X124228572Y-54921185D01*
X124228572Y-54921185D02*
X124157143Y-54706900D01*
X124157143Y-54706900D02*
X124085714Y-54349757D01*
X124085714Y-54349757D02*
X124085714Y-54064042D01*
X124085714Y-54064042D02*
X124157143Y-53706900D01*
X124157143Y-53706900D02*
X124228572Y-53492614D01*
X124228572Y-53492614D02*
X124300000Y-53349757D01*
X124300000Y-53349757D02*
X124442857Y-53135471D01*
X124442857Y-53135471D02*
X124514286Y-53064042D01*
X125085714Y-54206900D02*
X126228572Y-54206900D01*
X126800000Y-55349757D02*
X126871429Y-55278328D01*
X126871429Y-55278328D02*
X127014286Y-55064042D01*
X127014286Y-55064042D02*
X127085715Y-54921185D01*
X127085715Y-54921185D02*
X127157143Y-54706900D01*
X127157143Y-54706900D02*
X127228572Y-54349757D01*
X127228572Y-54349757D02*
X127228572Y-54064042D01*
X127228572Y-54064042D02*
X127157143Y-53706900D01*
X127157143Y-53706900D02*
X127085715Y-53492614D01*
X127085715Y-53492614D02*
X127014286Y-53349757D01*
X127014286Y-53349757D02*
X126871429Y-53135471D01*
X126871429Y-53135471D02*
X126800000Y-53064042D01*
D12*
X157354819Y-68876666D02*
X156878628Y-69209999D01*
X157354819Y-69448094D02*
X156354819Y-69448094D01*
X156354819Y-69448094D02*
X156354819Y-69067142D01*
X156354819Y-69067142D02*
X156402438Y-68971904D01*
X156402438Y-68971904D02*
X156450057Y-68924285D01*
X156450057Y-68924285D02*
X156545295Y-68876666D01*
X156545295Y-68876666D02*
X156688152Y-68876666D01*
X156688152Y-68876666D02*
X156783390Y-68924285D01*
X156783390Y-68924285D02*
X156831009Y-68971904D01*
X156831009Y-68971904D02*
X156878628Y-69067142D01*
X156878628Y-69067142D02*
X156878628Y-69448094D01*
X156354819Y-68019523D02*
X156354819Y-68209999D01*
X156354819Y-68209999D02*
X156402438Y-68305237D01*
X156402438Y-68305237D02*
X156450057Y-68352856D01*
X156450057Y-68352856D02*
X156592914Y-68448094D01*
X156592914Y-68448094D02*
X156783390Y-68495713D01*
X156783390Y-68495713D02*
X157164342Y-68495713D01*
X157164342Y-68495713D02*
X157259580Y-68448094D01*
X157259580Y-68448094D02*
X157307200Y-68400475D01*
X157307200Y-68400475D02*
X157354819Y-68305237D01*
X157354819Y-68305237D02*
X157354819Y-68114761D01*
X157354819Y-68114761D02*
X157307200Y-68019523D01*
X157307200Y-68019523D02*
X157259580Y-67971904D01*
X157259580Y-67971904D02*
X157164342Y-67924285D01*
X157164342Y-67924285D02*
X156926247Y-67924285D01*
X156926247Y-67924285D02*
X156831009Y-67971904D01*
X156831009Y-67971904D02*
X156783390Y-68019523D01*
X156783390Y-68019523D02*
X156735771Y-68114761D01*
X156735771Y-68114761D02*
X156735771Y-68305237D01*
X156735771Y-68305237D02*
X156783390Y-68400475D01*
X156783390Y-68400475D02*
X156831009Y-68448094D01*
X156831009Y-68448094D02*
X156926247Y-68495713D01*
X150254819Y-68876666D02*
X149778628Y-69209999D01*
X150254819Y-69448094D02*
X149254819Y-69448094D01*
X149254819Y-69448094D02*
X149254819Y-69067142D01*
X149254819Y-69067142D02*
X149302438Y-68971904D01*
X149302438Y-68971904D02*
X149350057Y-68924285D01*
X149350057Y-68924285D02*
X149445295Y-68876666D01*
X149445295Y-68876666D02*
X149588152Y-68876666D01*
X149588152Y-68876666D02*
X149683390Y-68924285D01*
X149683390Y-68924285D02*
X149731009Y-68971904D01*
X149731009Y-68971904D02*
X149778628Y-69067142D01*
X149778628Y-69067142D02*
X149778628Y-69448094D01*
X149254819Y-68543332D02*
X149254819Y-67924285D01*
X149254819Y-67924285D02*
X149635771Y-68257618D01*
X149635771Y-68257618D02*
X149635771Y-68114761D01*
X149635771Y-68114761D02*
X149683390Y-68019523D01*
X149683390Y-68019523D02*
X149731009Y-67971904D01*
X149731009Y-67971904D02*
X149826247Y-67924285D01*
X149826247Y-67924285D02*
X150064342Y-67924285D01*
X150064342Y-67924285D02*
X150159580Y-67971904D01*
X150159580Y-67971904D02*
X150207200Y-68019523D01*
X150207200Y-68019523D02*
X150254819Y-68114761D01*
X150254819Y-68114761D02*
X150254819Y-68400475D01*
X150254819Y-68400475D02*
X150207200Y-68495713D01*
X150207200Y-68495713D02*
X150159580Y-68543332D01*
X154954819Y-68866666D02*
X154478628Y-69199999D01*
X154954819Y-69438094D02*
X153954819Y-69438094D01*
X153954819Y-69438094D02*
X153954819Y-69057142D01*
X153954819Y-69057142D02*
X154002438Y-68961904D01*
X154002438Y-68961904D02*
X154050057Y-68914285D01*
X154050057Y-68914285D02*
X154145295Y-68866666D01*
X154145295Y-68866666D02*
X154288152Y-68866666D01*
X154288152Y-68866666D02*
X154383390Y-68914285D01*
X154383390Y-68914285D02*
X154431009Y-68961904D01*
X154431009Y-68961904D02*
X154478628Y-69057142D01*
X154478628Y-69057142D02*
X154478628Y-69438094D01*
X154288152Y-68009523D02*
X154954819Y-68009523D01*
X153907200Y-68247618D02*
X154621485Y-68485713D01*
X154621485Y-68485713D02*
X154621485Y-67866666D01*
X162754819Y-78409523D02*
X163469104Y-78409523D01*
X163469104Y-78409523D02*
X163611961Y-78457142D01*
X163611961Y-78457142D02*
X163707200Y-78552380D01*
X163707200Y-78552380D02*
X163754819Y-78695237D01*
X163754819Y-78695237D02*
X163754819Y-78790475D01*
X163754819Y-77409523D02*
X163754819Y-77980951D01*
X163754819Y-77695237D02*
X162754819Y-77695237D01*
X162754819Y-77695237D02*
X162897676Y-77790475D01*
X162897676Y-77790475D02*
X162992914Y-77885713D01*
X162992914Y-77885713D02*
X163040533Y-77980951D01*
X163754819Y-76457142D02*
X163754819Y-77028570D01*
X163754819Y-76742856D02*
X162754819Y-76742856D01*
X162754819Y-76742856D02*
X162897676Y-76838094D01*
X162897676Y-76838094D02*
X162992914Y-76933332D01*
X162992914Y-76933332D02*
X163040533Y-77028570D01*
X165180952Y-75559580D02*
X165133333Y-75607200D01*
X165133333Y-75607200D02*
X164990476Y-75654819D01*
X164990476Y-75654819D02*
X164895238Y-75654819D01*
X164895238Y-75654819D02*
X164752381Y-75607200D01*
X164752381Y-75607200D02*
X164657143Y-75511961D01*
X164657143Y-75511961D02*
X164609524Y-75416723D01*
X164609524Y-75416723D02*
X164561905Y-75226247D01*
X164561905Y-75226247D02*
X164561905Y-75083390D01*
X164561905Y-75083390D02*
X164609524Y-74892914D01*
X164609524Y-74892914D02*
X164657143Y-74797676D01*
X164657143Y-74797676D02*
X164752381Y-74702438D01*
X164752381Y-74702438D02*
X164895238Y-74654819D01*
X164895238Y-74654819D02*
X164990476Y-74654819D01*
X164990476Y-74654819D02*
X165133333Y-74702438D01*
X165133333Y-74702438D02*
X165180952Y-74750057D01*
X165609524Y-75654819D02*
X165609524Y-74654819D01*
X166038095Y-75654819D02*
X166038095Y-75131009D01*
X166038095Y-75131009D02*
X165990476Y-75035771D01*
X165990476Y-75035771D02*
X165895238Y-74988152D01*
X165895238Y-74988152D02*
X165752381Y-74988152D01*
X165752381Y-74988152D02*
X165657143Y-75035771D01*
X165657143Y-75035771D02*
X165609524Y-75083390D01*
X167038095Y-75654819D02*
X166466667Y-75654819D01*
X166752381Y-75654819D02*
X166752381Y-74654819D01*
X166752381Y-74654819D02*
X166657143Y-74797676D01*
X166657143Y-74797676D02*
X166561905Y-74892914D01*
X166561905Y-74892914D02*
X166466667Y-74940533D01*
X162454819Y-69709523D02*
X163169104Y-69709523D01*
X163169104Y-69709523D02*
X163311961Y-69757142D01*
X163311961Y-69757142D02*
X163407200Y-69852380D01*
X163407200Y-69852380D02*
X163454819Y-69995237D01*
X163454819Y-69995237D02*
X163454819Y-70090475D01*
X163454819Y-68709523D02*
X163454819Y-69280951D01*
X163454819Y-68995237D02*
X162454819Y-68995237D01*
X162454819Y-68995237D02*
X162597676Y-69090475D01*
X162597676Y-69090475D02*
X162692914Y-69185713D01*
X162692914Y-69185713D02*
X162740533Y-69280951D01*
X162454819Y-68090475D02*
X162454819Y-67995237D01*
X162454819Y-67995237D02*
X162502438Y-67899999D01*
X162502438Y-67899999D02*
X162550057Y-67852380D01*
X162550057Y-67852380D02*
X162645295Y-67804761D01*
X162645295Y-67804761D02*
X162835771Y-67757142D01*
X162835771Y-67757142D02*
X163073866Y-67757142D01*
X163073866Y-67757142D02*
X163264342Y-67804761D01*
X163264342Y-67804761D02*
X163359580Y-67852380D01*
X163359580Y-67852380D02*
X163407200Y-67899999D01*
X163407200Y-67899999D02*
X163454819Y-67995237D01*
X163454819Y-67995237D02*
X163454819Y-68090475D01*
X163454819Y-68090475D02*
X163407200Y-68185713D01*
X163407200Y-68185713D02*
X163359580Y-68233332D01*
X163359580Y-68233332D02*
X163264342Y-68280951D01*
X163264342Y-68280951D02*
X163073866Y-68328570D01*
X163073866Y-68328570D02*
X162835771Y-68328570D01*
X162835771Y-68328570D02*
X162645295Y-68280951D01*
X162645295Y-68280951D02*
X162550057Y-68233332D01*
X162550057Y-68233332D02*
X162502438Y-68185713D01*
X162502438Y-68185713D02*
X162454819Y-68090475D01*
X164780952Y-66959580D02*
X164733333Y-67007200D01*
X164733333Y-67007200D02*
X164590476Y-67054819D01*
X164590476Y-67054819D02*
X164495238Y-67054819D01*
X164495238Y-67054819D02*
X164352381Y-67007200D01*
X164352381Y-67007200D02*
X164257143Y-66911961D01*
X164257143Y-66911961D02*
X164209524Y-66816723D01*
X164209524Y-66816723D02*
X164161905Y-66626247D01*
X164161905Y-66626247D02*
X164161905Y-66483390D01*
X164161905Y-66483390D02*
X164209524Y-66292914D01*
X164209524Y-66292914D02*
X164257143Y-66197676D01*
X164257143Y-66197676D02*
X164352381Y-66102438D01*
X164352381Y-66102438D02*
X164495238Y-66054819D01*
X164495238Y-66054819D02*
X164590476Y-66054819D01*
X164590476Y-66054819D02*
X164733333Y-66102438D01*
X164733333Y-66102438D02*
X164780952Y-66150057D01*
X165209524Y-67054819D02*
X165209524Y-66054819D01*
X165638095Y-67054819D02*
X165638095Y-66531009D01*
X165638095Y-66531009D02*
X165590476Y-66435771D01*
X165590476Y-66435771D02*
X165495238Y-66388152D01*
X165495238Y-66388152D02*
X165352381Y-66388152D01*
X165352381Y-66388152D02*
X165257143Y-66435771D01*
X165257143Y-66435771D02*
X165209524Y-66483390D01*
X166304762Y-66054819D02*
X166400000Y-66054819D01*
X166400000Y-66054819D02*
X166495238Y-66102438D01*
X166495238Y-66102438D02*
X166542857Y-66150057D01*
X166542857Y-66150057D02*
X166590476Y-66245295D01*
X166590476Y-66245295D02*
X166638095Y-66435771D01*
X166638095Y-66435771D02*
X166638095Y-66673866D01*
X166638095Y-66673866D02*
X166590476Y-66864342D01*
X166590476Y-66864342D02*
X166542857Y-66959580D01*
X166542857Y-66959580D02*
X166495238Y-67007200D01*
X166495238Y-67007200D02*
X166400000Y-67054819D01*
X166400000Y-67054819D02*
X166304762Y-67054819D01*
X166304762Y-67054819D02*
X166209524Y-67007200D01*
X166209524Y-67007200D02*
X166161905Y-66959580D01*
X166161905Y-66959580D02*
X166114286Y-66864342D01*
X166114286Y-66864342D02*
X166066667Y-66673866D01*
X166066667Y-66673866D02*
X166066667Y-66435771D01*
X166066667Y-66435771D02*
X166114286Y-66245295D01*
X166114286Y-66245295D02*
X166161905Y-66150057D01*
X166161905Y-66150057D02*
X166209524Y-66102438D01*
X166209524Y-66102438D02*
X166304762Y-66054819D01*
X141154819Y-69538094D02*
X140154819Y-69538094D01*
X140154819Y-69538094D02*
X140154819Y-69299999D01*
X140154819Y-69299999D02*
X140202438Y-69157142D01*
X140202438Y-69157142D02*
X140297676Y-69061904D01*
X140297676Y-69061904D02*
X140392914Y-69014285D01*
X140392914Y-69014285D02*
X140583390Y-68966666D01*
X140583390Y-68966666D02*
X140726247Y-68966666D01*
X140726247Y-68966666D02*
X140916723Y-69014285D01*
X140916723Y-69014285D02*
X141011961Y-69061904D01*
X141011961Y-69061904D02*
X141107200Y-69157142D01*
X141107200Y-69157142D02*
X141154819Y-69299999D01*
X141154819Y-69299999D02*
X141154819Y-69538094D01*
X140250057Y-68585713D02*
X140202438Y-68538094D01*
X140202438Y-68538094D02*
X140154819Y-68442856D01*
X140154819Y-68442856D02*
X140154819Y-68204761D01*
X140154819Y-68204761D02*
X140202438Y-68109523D01*
X140202438Y-68109523D02*
X140250057Y-68061904D01*
X140250057Y-68061904D02*
X140345295Y-68014285D01*
X140345295Y-68014285D02*
X140440533Y-68014285D01*
X140440533Y-68014285D02*
X140583390Y-68061904D01*
X140583390Y-68061904D02*
X141154819Y-68633332D01*
X141154819Y-68633332D02*
X141154819Y-68014285D01*
X139354819Y-72871904D02*
X138354819Y-72871904D01*
X139354819Y-72300476D02*
X138783390Y-72729047D01*
X138354819Y-72300476D02*
X138926247Y-72871904D01*
X138066666Y-51654819D02*
X138066666Y-52369104D01*
X138066666Y-52369104D02*
X138019047Y-52511961D01*
X138019047Y-52511961D02*
X137923809Y-52607200D01*
X137923809Y-52607200D02*
X137780952Y-52654819D01*
X137780952Y-52654819D02*
X137685714Y-52654819D01*
X139066666Y-52654819D02*
X138495238Y-52654819D01*
X138780952Y-52654819D02*
X138780952Y-51654819D01*
X138780952Y-51654819D02*
X138685714Y-51797676D01*
X138685714Y-51797676D02*
X138590476Y-51892914D01*
X138590476Y-51892914D02*
X138495238Y-51940533D01*
X136154819Y-69538094D02*
X135154819Y-69538094D01*
X135154819Y-69538094D02*
X135154819Y-69299999D01*
X135154819Y-69299999D02*
X135202438Y-69157142D01*
X135202438Y-69157142D02*
X135297676Y-69061904D01*
X135297676Y-69061904D02*
X135392914Y-69014285D01*
X135392914Y-69014285D02*
X135583390Y-68966666D01*
X135583390Y-68966666D02*
X135726247Y-68966666D01*
X135726247Y-68966666D02*
X135916723Y-69014285D01*
X135916723Y-69014285D02*
X136011961Y-69061904D01*
X136011961Y-69061904D02*
X136107200Y-69157142D01*
X136107200Y-69157142D02*
X136154819Y-69299999D01*
X136154819Y-69299999D02*
X136154819Y-69538094D01*
X135488152Y-68109523D02*
X136154819Y-68109523D01*
X135107200Y-68347618D02*
X135821485Y-68585713D01*
X135821485Y-68585713D02*
X135821485Y-67966666D01*
X134354819Y-72871904D02*
X133354819Y-72871904D01*
X134354819Y-72300476D02*
X133783390Y-72729047D01*
X133354819Y-72300476D02*
X133926247Y-72871904D01*
X152654819Y-68776666D02*
X152178628Y-69109999D01*
X152654819Y-69348094D02*
X151654819Y-69348094D01*
X151654819Y-69348094D02*
X151654819Y-68967142D01*
X151654819Y-68967142D02*
X151702438Y-68871904D01*
X151702438Y-68871904D02*
X151750057Y-68824285D01*
X151750057Y-68824285D02*
X151845295Y-68776666D01*
X151845295Y-68776666D02*
X151988152Y-68776666D01*
X151988152Y-68776666D02*
X152083390Y-68824285D01*
X152083390Y-68824285D02*
X152131009Y-68871904D01*
X152131009Y-68871904D02*
X152178628Y-68967142D01*
X152178628Y-68967142D02*
X152178628Y-69348094D01*
X151654819Y-67871904D02*
X151654819Y-68348094D01*
X151654819Y-68348094D02*
X152131009Y-68395713D01*
X152131009Y-68395713D02*
X152083390Y-68348094D01*
X152083390Y-68348094D02*
X152035771Y-68252856D01*
X152035771Y-68252856D02*
X152035771Y-68014761D01*
X152035771Y-68014761D02*
X152083390Y-67919523D01*
X152083390Y-67919523D02*
X152131009Y-67871904D01*
X152131009Y-67871904D02*
X152226247Y-67824285D01*
X152226247Y-67824285D02*
X152464342Y-67824285D01*
X152464342Y-67824285D02*
X152559580Y-67871904D01*
X152559580Y-67871904D02*
X152607200Y-67919523D01*
X152607200Y-67919523D02*
X152654819Y-68014761D01*
X152654819Y-68014761D02*
X152654819Y-68252856D01*
X152654819Y-68252856D02*
X152607200Y-68348094D01*
X152607200Y-68348094D02*
X152559580Y-68395713D01*
%TO.C,D3*%
D14*
X144580000Y-70080000D02*
X146820000Y-70080000D01*
X144580000Y-70200000D02*
X146820000Y-70200000D01*
X144580000Y-70320000D02*
X146820000Y-70320000D01*
X145700000Y-66030000D02*
X145700000Y-66680000D01*
X145700000Y-71570000D02*
X145700000Y-70920000D01*
X144580000Y-66680000D02*
X146820000Y-66680000D01*
X146820000Y-70920000D01*
X144580000Y-70920000D01*
X144580000Y-66680000D01*
%TO.C,J12*%
X159445000Y-85555000D02*
X160715000Y-85555000D01*
X159445000Y-86825000D02*
X159445000Y-85555000D01*
X161792358Y-88935000D02*
X162105000Y-88935000D01*
X161792358Y-89795000D02*
X162105000Y-89795000D01*
X161875000Y-86395000D02*
X162105000Y-86395000D01*
X161875000Y-87255000D02*
X162105000Y-87255000D01*
X162105000Y-88095000D02*
X164865000Y-88095000D01*
X164865000Y-88935000D02*
X170865000Y-88935000D01*
X170865000Y-88935000D02*
X170865000Y-89795000D01*
X170865000Y-89795000D02*
X164865000Y-89795000D01*
X162105000Y-85445000D02*
X164865000Y-85445000D01*
X164865000Y-90745000D01*
X162105000Y-90745000D01*
X162105000Y-85445000D01*
X164865000Y-86395000D02*
X170865000Y-86395000D01*
X170865000Y-87255000D01*
X164865000Y-87255000D01*
X164865000Y-86395000D01*
G36*
X164865000Y-86395000D02*
G01*
X170865000Y-86395000D01*
X170865000Y-87255000D01*
X164865000Y-87255000D01*
X164865000Y-86395000D01*
G37*
%TO.C,RV1*%
X159990000Y-57250000D02*
X159990000Y-57500000D01*
X159990000Y-62960000D02*
X159990000Y-59420000D01*
X160090000Y-57050000D02*
X160090000Y-57250000D01*
X160090000Y-57050000D02*
X161510000Y-57050000D01*
X160090000Y-57250000D02*
X159990000Y-57250000D01*
X161510000Y-57250000D02*
X161510000Y-57050000D01*
X161510000Y-57250000D02*
X165090000Y-57250000D01*
X162790000Y-64270000D02*
X161300000Y-64270000D01*
X165090000Y-57050000D02*
X166510000Y-57050000D01*
X165090000Y-57250000D02*
X165090000Y-57050000D01*
X165300000Y-64270000D02*
X163810000Y-64270000D01*
X166510000Y-57050000D02*
X166510000Y-57250000D01*
X166510000Y-57250000D02*
X166610000Y-57250000D01*
X166610000Y-57250000D02*
X166610000Y-57940000D01*
X166610000Y-58980000D02*
X166610000Y-62960000D01*
X161300000Y-64270000D02*
G75*
G02*
X159990000Y-62960000I0J1310000D01*
G01*
X166610000Y-62960000D02*
G75*
G02*
X165300000Y-64270000I-1310000J0D01*
G01*
%TO.C,D1*%
X142080000Y-70080000D02*
X144320000Y-70080000D01*
X142080000Y-70200000D02*
X144320000Y-70200000D01*
X142080000Y-70320000D02*
X144320000Y-70320000D01*
X143200000Y-66030000D02*
X143200000Y-66680000D01*
X143200000Y-71570000D02*
X143200000Y-70920000D01*
X142080000Y-66680000D02*
X144320000Y-66680000D01*
X144320000Y-70920000D01*
X142080000Y-70920000D01*
X142080000Y-66680000D01*
%TO.C,D5*%
X137080000Y-70080000D02*
X139320000Y-70080000D01*
X137080000Y-70200000D02*
X139320000Y-70200000D01*
X137080000Y-70320000D02*
X139320000Y-70320000D01*
X138200000Y-66030000D02*
X138200000Y-66680000D01*
X138200000Y-71570000D02*
X138200000Y-70920000D01*
X137080000Y-66680000D02*
X139320000Y-66680000D01*
X139320000Y-70920000D01*
X137080000Y-70920000D01*
X137080000Y-66680000D01*
%TO.C,SW1*%
X158520000Y-98380000D02*
X159900000Y-98380000D01*
X158520000Y-99760000D02*
X158520000Y-98380000D01*
X158520000Y-101030000D02*
X158520000Y-106220000D01*
X158520000Y-101030000D02*
X161280000Y-101030000D01*
X158520000Y-106220000D02*
X161280000Y-106220000D01*
X161280000Y-101030000D02*
X161280000Y-106220000D01*
%TO.C,J2*%
X136620000Y-84580000D02*
X136620000Y-83200000D01*
X138000000Y-84580000D02*
X136620000Y-84580000D01*
X139270000Y-81820000D02*
X152080000Y-81820000D01*
X139270000Y-84580000D02*
X139270000Y-81820000D01*
X139270000Y-84580000D02*
X152080000Y-84580000D01*
X152080000Y-84580000D02*
X152080000Y-81820000D01*
%TO.C,TP2*%
X119620000Y-101320000D02*
X121000000Y-101320000D01*
X119620000Y-102700000D02*
X119620000Y-101320000D01*
X119620000Y-103970000D02*
X119620000Y-104080000D01*
X119620000Y-103970000D02*
X122380000Y-103970000D01*
X119620000Y-104080000D02*
X122380000Y-104080000D01*
X122380000Y-103970000D02*
X122380000Y-104080000D01*
%TO.C,TP3*%
X119620000Y-57620000D02*
X121000000Y-57620000D01*
X119620000Y-59000000D02*
X119620000Y-57620000D01*
X119620000Y-60270000D02*
X119620000Y-60380000D01*
X119620000Y-60270000D02*
X122380000Y-60270000D01*
X119620000Y-60380000D02*
X122380000Y-60380000D01*
X122380000Y-60270000D02*
X122380000Y-60380000D01*
%TO.C,R6*%
X156900000Y-65840000D02*
X156900000Y-66790000D01*
X156900000Y-71580000D02*
X156900000Y-70630000D01*
X155980000Y-66790000D02*
X157820000Y-66790000D01*
X157820000Y-70630000D01*
X155980000Y-70630000D01*
X155980000Y-66790000D01*
%TO.C,R3*%
X149800000Y-65840000D02*
X149800000Y-66790000D01*
X149800000Y-71580000D02*
X149800000Y-70630000D01*
X148880000Y-66790000D02*
X150720000Y-66790000D01*
X150720000Y-70630000D01*
X148880000Y-70630000D01*
X148880000Y-66790000D01*
%TO.C,R4*%
X154500000Y-65830000D02*
X154500000Y-66780000D01*
X154500000Y-71570000D02*
X154500000Y-70620000D01*
X153580000Y-66780000D02*
X155420000Y-66780000D01*
X155420000Y-70620000D01*
X153580000Y-70620000D01*
X153580000Y-66780000D01*
%TO.C,J11*%
X159345000Y-76355000D02*
X160615000Y-76355000D01*
X159345000Y-77625000D02*
X159345000Y-76355000D01*
X161692358Y-79735000D02*
X162005000Y-79735000D01*
X161692358Y-80595000D02*
X162005000Y-80595000D01*
X161775000Y-77195000D02*
X162005000Y-77195000D01*
X161775000Y-78055000D02*
X162005000Y-78055000D01*
X162005000Y-78895000D02*
X164765000Y-78895000D01*
X164765000Y-79735000D02*
X170765000Y-79735000D01*
X170765000Y-79735000D02*
X170765000Y-80595000D01*
X170765000Y-80595000D02*
X164765000Y-80595000D01*
X162005000Y-76245000D02*
X164765000Y-76245000D01*
X164765000Y-81545000D01*
X162005000Y-81545000D01*
X162005000Y-76245000D01*
X164765000Y-77195000D02*
X170765000Y-77195000D01*
X170765000Y-78055000D01*
X164765000Y-78055000D01*
X164765000Y-77195000D01*
G36*
X164765000Y-77195000D02*
G01*
X170765000Y-77195000D01*
X170765000Y-78055000D01*
X164765000Y-78055000D01*
X164765000Y-77195000D01*
G37*
%TO.C,J10*%
X159345000Y-67655000D02*
X160615000Y-67655000D01*
X159345000Y-68925000D02*
X159345000Y-67655000D01*
X161692358Y-71035000D02*
X162005000Y-71035000D01*
X161692358Y-71895000D02*
X162005000Y-71895000D01*
X161775000Y-68495000D02*
X162005000Y-68495000D01*
X161775000Y-69355000D02*
X162005000Y-69355000D01*
X162005000Y-70195000D02*
X164765000Y-70195000D01*
X164765000Y-71035000D02*
X170765000Y-71035000D01*
X170765000Y-71035000D02*
X170765000Y-71895000D01*
X170765000Y-71895000D02*
X164765000Y-71895000D01*
X162005000Y-67545000D02*
X164765000Y-67545000D01*
X164765000Y-72845000D01*
X162005000Y-72845000D01*
X162005000Y-67545000D01*
X164765000Y-68495000D02*
X170765000Y-68495000D01*
X170765000Y-69355000D01*
X164765000Y-69355000D01*
X164765000Y-68495000D01*
G36*
X164765000Y-68495000D02*
G01*
X170765000Y-68495000D01*
X170765000Y-69355000D01*
X164765000Y-69355000D01*
X164765000Y-68495000D01*
G37*
%TO.C,D2*%
X139580000Y-70080000D02*
X141820000Y-70080000D01*
X139580000Y-70200000D02*
X141820000Y-70200000D01*
X139580000Y-70320000D02*
X141820000Y-70320000D01*
X140700000Y-66030000D02*
X140700000Y-66680000D01*
X140700000Y-71570000D02*
X140700000Y-70920000D01*
X139580000Y-66680000D02*
X141820000Y-66680000D01*
X141820000Y-70920000D01*
X139580000Y-70920000D01*
X139580000Y-66680000D01*
%TO.C,J1*%
X139520000Y-53580000D02*
X139520000Y-52200000D01*
X140900000Y-53580000D02*
X139520000Y-53580000D01*
X142170000Y-50820000D02*
X149900000Y-50820000D01*
X142170000Y-53580000D02*
X142170000Y-50820000D01*
X142170000Y-53580000D02*
X149900000Y-53580000D01*
X149900000Y-53580000D02*
X149900000Y-50820000D01*
%TO.C,D4*%
X134580000Y-70080000D02*
X136820000Y-70080000D01*
X134580000Y-70200000D02*
X136820000Y-70200000D01*
X134580000Y-70320000D02*
X136820000Y-70320000D01*
X135700000Y-66030000D02*
X135700000Y-66680000D01*
X135700000Y-71570000D02*
X135700000Y-70920000D01*
X134580000Y-66680000D02*
X136820000Y-66680000D01*
X136820000Y-70920000D01*
X134580000Y-70920000D01*
X134580000Y-66680000D01*
%TO.C,R5*%
X152200000Y-65740000D02*
X152200000Y-66690000D01*
X152200000Y-71480000D02*
X152200000Y-70530000D01*
X151280000Y-66690000D02*
X153120000Y-66690000D01*
X153120000Y-70530000D01*
X151280000Y-70530000D01*
X151280000Y-66690000D01*
%TD*%
M02*
