%TF.GenerationSoftware,KiCad,Pcbnew,10.0.1*%
%TF.CreationDate,2026-07-10T00:57:24+09:00*%
%TF.ProjectId,Mini_Oscilloscope,4d696e69-5f4f-4736-9369-6c6c6f73636f,rev?*%
%TF.SameCoordinates,Original*%
%TF.FileFunction,Legend,Bot*%
%TF.FilePolarity,Positive*%
%FSLAX46Y46*%
G04 Gerber Fmt 4.6, Leading zero omitted, Abs format (unit mm)*
G04 Created by KiCad (PCBNEW 10.0.1) date 2026-07-10 00:57:24*
%MOMM*%
%LPD*%
G01*
G04 APERTURE LIST*
%ADD10C,0.100000*%
%ADD11C,0.300000*%
%ADD12C,0.200000*%
%ADD13C,0.150000*%
%ADD14C,0.120000*%
G04 APERTURE END LIST*
D10*
X130800000Y-98800000D02*
X132000000Y-101300000D01*
X130800000Y-100600000D02*
X132000000Y-104000000D01*
X130900000Y-97300000D02*
X132020000Y-98800000D01*
D11*
X131300000Y-57200000D02*
X158300000Y-57200000D01*
X158300000Y-79200000D01*
X131300000Y-79200000D01*
X131300000Y-57200000D01*
D12*
X135000000Y-96800000D02*
X143400000Y-96800000D01*
X143400000Y-106800000D01*
X135000000Y-106800000D01*
X135000000Y-96800000D01*
D10*
X153300000Y-65200000D02*
X158800000Y-65200000D01*
X158800000Y-72200000D01*
X153300000Y-72200000D01*
X153300000Y-65200000D01*
D13*
X127558458Y-96649931D02*
X127891791Y-97649931D01*
X127891791Y-97649931D02*
X128225124Y-96649931D01*
X128701315Y-97649931D02*
X128606077Y-97602312D01*
X128606077Y-97602312D02*
X128558458Y-97554692D01*
X128558458Y-97554692D02*
X128510839Y-97459454D01*
X128510839Y-97459454D02*
X128510839Y-97173740D01*
X128510839Y-97173740D02*
X128558458Y-97078502D01*
X128558458Y-97078502D02*
X128606077Y-97030883D01*
X128606077Y-97030883D02*
X128701315Y-96983264D01*
X128701315Y-96983264D02*
X128844172Y-96983264D01*
X128844172Y-96983264D02*
X128939410Y-97030883D01*
X128939410Y-97030883D02*
X128987029Y-97078502D01*
X128987029Y-97078502D02*
X129034648Y-97173740D01*
X129034648Y-97173740D02*
X129034648Y-97459454D01*
X129034648Y-97459454D02*
X128987029Y-97554692D01*
X128987029Y-97554692D02*
X128939410Y-97602312D01*
X128939410Y-97602312D02*
X128844172Y-97649931D01*
X128844172Y-97649931D02*
X128701315Y-97649931D01*
X129891791Y-96983264D02*
X129891791Y-97649931D01*
X129463220Y-96983264D02*
X129463220Y-97507073D01*
X129463220Y-97507073D02*
X129510839Y-97602312D01*
X129510839Y-97602312D02*
X129606077Y-97649931D01*
X129606077Y-97649931D02*
X129748934Y-97649931D01*
X129748934Y-97649931D02*
X129844172Y-97602312D01*
X129844172Y-97602312D02*
X129891791Y-97554692D01*
X130225125Y-96983264D02*
X130606077Y-96983264D01*
X130367982Y-96649931D02*
X130367982Y-97507073D01*
X130367982Y-97507073D02*
X130415601Y-97602312D01*
X130415601Y-97602312D02*
X130510839Y-97649931D01*
X130510839Y-97649931D02*
X130606077Y-97649931D01*
X128415601Y-98307494D02*
X128320363Y-98259875D01*
X128320363Y-98259875D02*
X128177506Y-98259875D01*
X128177506Y-98259875D02*
X128034649Y-98307494D01*
X128034649Y-98307494D02*
X127939411Y-98402732D01*
X127939411Y-98402732D02*
X127891792Y-98497970D01*
X127891792Y-98497970D02*
X127844173Y-98688446D01*
X127844173Y-98688446D02*
X127844173Y-98831303D01*
X127844173Y-98831303D02*
X127891792Y-99021779D01*
X127891792Y-99021779D02*
X127939411Y-99117017D01*
X127939411Y-99117017D02*
X128034649Y-99212256D01*
X128034649Y-99212256D02*
X128177506Y-99259875D01*
X128177506Y-99259875D02*
X128272744Y-99259875D01*
X128272744Y-99259875D02*
X128415601Y-99212256D01*
X128415601Y-99212256D02*
X128463220Y-99164636D01*
X128463220Y-99164636D02*
X128463220Y-98831303D01*
X128463220Y-98831303D02*
X128272744Y-98831303D01*
X128891792Y-99259875D02*
X128891792Y-98259875D01*
X128891792Y-98259875D02*
X129463220Y-99259875D01*
X129463220Y-99259875D02*
X129463220Y-98259875D01*
X129939411Y-99259875D02*
X129939411Y-98259875D01*
X129939411Y-98259875D02*
X130177506Y-98259875D01*
X130177506Y-98259875D02*
X130320363Y-98307494D01*
X130320363Y-98307494D02*
X130415601Y-98402732D01*
X130415601Y-98402732D02*
X130463220Y-98497970D01*
X130463220Y-98497970D02*
X130510839Y-98688446D01*
X130510839Y-98688446D02*
X130510839Y-98831303D01*
X130510839Y-98831303D02*
X130463220Y-99021779D01*
X130463220Y-99021779D02*
X130415601Y-99117017D01*
X130415601Y-99117017D02*
X130320363Y-99212256D01*
X130320363Y-99212256D02*
X130177506Y-99259875D01*
X130177506Y-99259875D02*
X129939411Y-99259875D01*
X128558459Y-99869819D02*
X128891792Y-100869819D01*
X128891792Y-100869819D02*
X129225125Y-99869819D01*
X129558459Y-100869819D02*
X129558459Y-100203152D01*
X129558459Y-99869819D02*
X129510840Y-99917438D01*
X129510840Y-99917438D02*
X129558459Y-99965057D01*
X129558459Y-99965057D02*
X129606078Y-99917438D01*
X129606078Y-99917438D02*
X129558459Y-99869819D01*
X129558459Y-99869819D02*
X129558459Y-99965057D01*
X130034649Y-100203152D02*
X130034649Y-100869819D01*
X130034649Y-100298390D02*
X130082268Y-100250771D01*
X130082268Y-100250771D02*
X130177506Y-100203152D01*
X130177506Y-100203152D02*
X130320363Y-100203152D01*
X130320363Y-100203152D02*
X130415601Y-100250771D01*
X130415601Y-100250771D02*
X130463220Y-100346009D01*
X130463220Y-100346009D02*
X130463220Y-100869819D01*
X152460794Y-75363220D02*
X154010794Y-75363220D01*
X154010794Y-75363220D02*
X154010794Y-75125125D01*
X154010794Y-75125125D02*
X153936984Y-74982268D01*
X153936984Y-74982268D02*
X153789365Y-74887030D01*
X153789365Y-74887030D02*
X153641746Y-74839411D01*
X153641746Y-74839411D02*
X153346508Y-74791792D01*
X153346508Y-74791792D02*
X153125080Y-74791792D01*
X153125080Y-74791792D02*
X152829842Y-74839411D01*
X152829842Y-74839411D02*
X152682223Y-74887030D01*
X152682223Y-74887030D02*
X152534604Y-74982268D01*
X152534604Y-74982268D02*
X152460794Y-75125125D01*
X152460794Y-75125125D02*
X152460794Y-75363220D01*
X154010794Y-74458458D02*
X154010794Y-73839411D01*
X154010794Y-73839411D02*
X153420318Y-74172744D01*
X153420318Y-74172744D02*
X153420318Y-74029887D01*
X153420318Y-74029887D02*
X153346508Y-73934649D01*
X153346508Y-73934649D02*
X153272699Y-73887030D01*
X153272699Y-73887030D02*
X153125080Y-73839411D01*
X153125080Y-73839411D02*
X152756032Y-73839411D01*
X152756032Y-73839411D02*
X152608413Y-73887030D01*
X152608413Y-73887030D02*
X152534604Y-73934649D01*
X152534604Y-73934649D02*
X152460794Y-74029887D01*
X152460794Y-74029887D02*
X152460794Y-74315601D01*
X152460794Y-74315601D02*
X152534604Y-74410839D01*
X152534604Y-74410839D02*
X152608413Y-74458458D01*
X149965381Y-75363220D02*
X151515381Y-75363220D01*
X151515381Y-75363220D02*
X151515381Y-75125125D01*
X151515381Y-75125125D02*
X151441571Y-74982268D01*
X151441571Y-74982268D02*
X151293952Y-74887030D01*
X151293952Y-74887030D02*
X151146333Y-74839411D01*
X151146333Y-74839411D02*
X150851095Y-74791792D01*
X150851095Y-74791792D02*
X150629667Y-74791792D01*
X150629667Y-74791792D02*
X150334429Y-74839411D01*
X150334429Y-74839411D02*
X150186810Y-74887030D01*
X150186810Y-74887030D02*
X150039191Y-74982268D01*
X150039191Y-74982268D02*
X149965381Y-75125125D01*
X149965381Y-75125125D02*
X149965381Y-75363220D01*
X150998714Y-73934649D02*
X149965381Y-73934649D01*
X151589191Y-74172744D02*
X150482048Y-74410839D01*
X150482048Y-74410839D02*
X150482048Y-73791792D01*
X147469968Y-75363220D02*
X149019968Y-75363220D01*
X149019968Y-75363220D02*
X149019968Y-75125125D01*
X149019968Y-75125125D02*
X148946158Y-74982268D01*
X148946158Y-74982268D02*
X148798539Y-74887030D01*
X148798539Y-74887030D02*
X148650920Y-74839411D01*
X148650920Y-74839411D02*
X148355682Y-74791792D01*
X148355682Y-74791792D02*
X148134254Y-74791792D01*
X148134254Y-74791792D02*
X147839016Y-74839411D01*
X147839016Y-74839411D02*
X147691397Y-74887030D01*
X147691397Y-74887030D02*
X147543778Y-74982268D01*
X147543778Y-74982268D02*
X147469968Y-75125125D01*
X147469968Y-75125125D02*
X147469968Y-75363220D01*
X149019968Y-73887030D02*
X149019968Y-74363220D01*
X149019968Y-74363220D02*
X148281873Y-74410839D01*
X148281873Y-74410839D02*
X148355682Y-74363220D01*
X148355682Y-74363220D02*
X148429492Y-74267982D01*
X148429492Y-74267982D02*
X148429492Y-74029887D01*
X148429492Y-74029887D02*
X148355682Y-73934649D01*
X148355682Y-73934649D02*
X148281873Y-73887030D01*
X148281873Y-73887030D02*
X148134254Y-73839411D01*
X148134254Y-73839411D02*
X147765206Y-73839411D01*
X147765206Y-73839411D02*
X147617587Y-73887030D01*
X147617587Y-73887030D02*
X147543778Y-73934649D01*
X147543778Y-73934649D02*
X147469968Y-74029887D01*
X147469968Y-74029887D02*
X147469968Y-74267982D01*
X147469968Y-74267982D02*
X147543778Y-74363220D01*
X147543778Y-74363220D02*
X147617587Y-74410839D01*
X144974555Y-75363220D02*
X146524555Y-75363220D01*
X146524555Y-75363220D02*
X146524555Y-75125125D01*
X146524555Y-75125125D02*
X146450745Y-74982268D01*
X146450745Y-74982268D02*
X146303126Y-74887030D01*
X146303126Y-74887030D02*
X146155507Y-74839411D01*
X146155507Y-74839411D02*
X145860269Y-74791792D01*
X145860269Y-74791792D02*
X145638841Y-74791792D01*
X145638841Y-74791792D02*
X145343603Y-74839411D01*
X145343603Y-74839411D02*
X145195984Y-74887030D01*
X145195984Y-74887030D02*
X145048365Y-74982268D01*
X145048365Y-74982268D02*
X144974555Y-75125125D01*
X144974555Y-75125125D02*
X144974555Y-75363220D01*
X146524555Y-73934649D02*
X146524555Y-74125125D01*
X146524555Y-74125125D02*
X146450745Y-74220363D01*
X146450745Y-74220363D02*
X146376936Y-74267982D01*
X146376936Y-74267982D02*
X146155507Y-74363220D01*
X146155507Y-74363220D02*
X145860269Y-74410839D01*
X145860269Y-74410839D02*
X145269793Y-74410839D01*
X145269793Y-74410839D02*
X145122174Y-74363220D01*
X145122174Y-74363220D02*
X145048365Y-74315601D01*
X145048365Y-74315601D02*
X144974555Y-74220363D01*
X144974555Y-74220363D02*
X144974555Y-74029887D01*
X144974555Y-74029887D02*
X145048365Y-73934649D01*
X145048365Y-73934649D02*
X145122174Y-73887030D01*
X145122174Y-73887030D02*
X145269793Y-73839411D01*
X145269793Y-73839411D02*
X145638841Y-73839411D01*
X145638841Y-73839411D02*
X145786460Y-73887030D01*
X145786460Y-73887030D02*
X145860269Y-73934649D01*
X145860269Y-73934649D02*
X145934079Y-74029887D01*
X145934079Y-74029887D02*
X145934079Y-74220363D01*
X145934079Y-74220363D02*
X145860269Y-74315601D01*
X145860269Y-74315601D02*
X145786460Y-74363220D01*
X145786460Y-74363220D02*
X145638841Y-74410839D01*
X142479142Y-75363220D02*
X144029142Y-75363220D01*
X144029142Y-75363220D02*
X144029142Y-75125125D01*
X144029142Y-75125125D02*
X143955332Y-74982268D01*
X143955332Y-74982268D02*
X143807713Y-74887030D01*
X143807713Y-74887030D02*
X143660094Y-74839411D01*
X143660094Y-74839411D02*
X143364856Y-74791792D01*
X143364856Y-74791792D02*
X143143428Y-74791792D01*
X143143428Y-74791792D02*
X142848190Y-74839411D01*
X142848190Y-74839411D02*
X142700571Y-74887030D01*
X142700571Y-74887030D02*
X142552952Y-74982268D01*
X142552952Y-74982268D02*
X142479142Y-75125125D01*
X142479142Y-75125125D02*
X142479142Y-75363220D01*
X144029142Y-74458458D02*
X144029142Y-73791792D01*
X144029142Y-73791792D02*
X142479142Y-74220363D01*
X139983729Y-75363220D02*
X141533729Y-75363220D01*
X141533729Y-75363220D02*
X141533729Y-75125125D01*
X141533729Y-75125125D02*
X141459919Y-74982268D01*
X141459919Y-74982268D02*
X141312300Y-74887030D01*
X141312300Y-74887030D02*
X141164681Y-74839411D01*
X141164681Y-74839411D02*
X140869443Y-74791792D01*
X140869443Y-74791792D02*
X140648015Y-74791792D01*
X140648015Y-74791792D02*
X140352777Y-74839411D01*
X140352777Y-74839411D02*
X140205158Y-74887030D01*
X140205158Y-74887030D02*
X140057539Y-74982268D01*
X140057539Y-74982268D02*
X139983729Y-75125125D01*
X139983729Y-75125125D02*
X139983729Y-75363220D01*
X140869443Y-74220363D02*
X140943253Y-74315601D01*
X140943253Y-74315601D02*
X141017062Y-74363220D01*
X141017062Y-74363220D02*
X141164681Y-74410839D01*
X141164681Y-74410839D02*
X141238491Y-74410839D01*
X141238491Y-74410839D02*
X141386110Y-74363220D01*
X141386110Y-74363220D02*
X141459919Y-74315601D01*
X141459919Y-74315601D02*
X141533729Y-74220363D01*
X141533729Y-74220363D02*
X141533729Y-74029887D01*
X141533729Y-74029887D02*
X141459919Y-73934649D01*
X141459919Y-73934649D02*
X141386110Y-73887030D01*
X141386110Y-73887030D02*
X141238491Y-73839411D01*
X141238491Y-73839411D02*
X141164681Y-73839411D01*
X141164681Y-73839411D02*
X141017062Y-73887030D01*
X141017062Y-73887030D02*
X140943253Y-73934649D01*
X140943253Y-73934649D02*
X140869443Y-74029887D01*
X140869443Y-74029887D02*
X140869443Y-74220363D01*
X140869443Y-74220363D02*
X140795634Y-74315601D01*
X140795634Y-74315601D02*
X140721824Y-74363220D01*
X140721824Y-74363220D02*
X140574205Y-74410839D01*
X140574205Y-74410839D02*
X140278967Y-74410839D01*
X140278967Y-74410839D02*
X140131348Y-74363220D01*
X140131348Y-74363220D02*
X140057539Y-74315601D01*
X140057539Y-74315601D02*
X139983729Y-74220363D01*
X139983729Y-74220363D02*
X139983729Y-74029887D01*
X139983729Y-74029887D02*
X140057539Y-73934649D01*
X140057539Y-73934649D02*
X140131348Y-73887030D01*
X140131348Y-73887030D02*
X140278967Y-73839411D01*
X140278967Y-73839411D02*
X140574205Y-73839411D01*
X140574205Y-73839411D02*
X140721824Y-73887030D01*
X140721824Y-73887030D02*
X140795634Y-73934649D01*
X140795634Y-73934649D02*
X140869443Y-74029887D01*
X137488316Y-75363220D02*
X139038316Y-75363220D01*
X139038316Y-75363220D02*
X139038316Y-75125125D01*
X139038316Y-75125125D02*
X138964506Y-74982268D01*
X138964506Y-74982268D02*
X138816887Y-74887030D01*
X138816887Y-74887030D02*
X138669268Y-74839411D01*
X138669268Y-74839411D02*
X138374030Y-74791792D01*
X138374030Y-74791792D02*
X138152602Y-74791792D01*
X138152602Y-74791792D02*
X137857364Y-74839411D01*
X137857364Y-74839411D02*
X137709745Y-74887030D01*
X137709745Y-74887030D02*
X137562126Y-74982268D01*
X137562126Y-74982268D02*
X137488316Y-75125125D01*
X137488316Y-75125125D02*
X137488316Y-75363220D01*
X137488316Y-74315601D02*
X137488316Y-74125125D01*
X137488316Y-74125125D02*
X137562126Y-74029887D01*
X137562126Y-74029887D02*
X137635935Y-73982268D01*
X137635935Y-73982268D02*
X137857364Y-73887030D01*
X137857364Y-73887030D02*
X138152602Y-73839411D01*
X138152602Y-73839411D02*
X138743078Y-73839411D01*
X138743078Y-73839411D02*
X138890697Y-73887030D01*
X138890697Y-73887030D02*
X138964506Y-73934649D01*
X138964506Y-73934649D02*
X139038316Y-74029887D01*
X139038316Y-74029887D02*
X139038316Y-74220363D01*
X139038316Y-74220363D02*
X138964506Y-74315601D01*
X138964506Y-74315601D02*
X138890697Y-74363220D01*
X138890697Y-74363220D02*
X138743078Y-74410839D01*
X138743078Y-74410839D02*
X138374030Y-74410839D01*
X138374030Y-74410839D02*
X138226411Y-74363220D01*
X138226411Y-74363220D02*
X138152602Y-74315601D01*
X138152602Y-74315601D02*
X138078792Y-74220363D01*
X138078792Y-74220363D02*
X138078792Y-74029887D01*
X138078792Y-74029887D02*
X138152602Y-73934649D01*
X138152602Y-73934649D02*
X138226411Y-73887030D01*
X138226411Y-73887030D02*
X138374030Y-73839411D01*
X134992903Y-75363220D02*
X136542903Y-75363220D01*
X136542903Y-75363220D02*
X136542903Y-75125125D01*
X136542903Y-75125125D02*
X136469093Y-74982268D01*
X136469093Y-74982268D02*
X136321474Y-74887030D01*
X136321474Y-74887030D02*
X136173855Y-74839411D01*
X136173855Y-74839411D02*
X135878617Y-74791792D01*
X135878617Y-74791792D02*
X135657189Y-74791792D01*
X135657189Y-74791792D02*
X135361951Y-74839411D01*
X135361951Y-74839411D02*
X135214332Y-74887030D01*
X135214332Y-74887030D02*
X135066713Y-74982268D01*
X135066713Y-74982268D02*
X134992903Y-75125125D01*
X134992903Y-75125125D02*
X134992903Y-75363220D01*
X134992903Y-73839411D02*
X134992903Y-74410839D01*
X134992903Y-74125125D02*
X136542903Y-74125125D01*
X136542903Y-74125125D02*
X136321474Y-74220363D01*
X136321474Y-74220363D02*
X136173855Y-74315601D01*
X136173855Y-74315601D02*
X136100046Y-74410839D01*
X136542903Y-73220363D02*
X136542903Y-73125125D01*
X136542903Y-73125125D02*
X136469093Y-73029887D01*
X136469093Y-73029887D02*
X136395284Y-72982268D01*
X136395284Y-72982268D02*
X136247665Y-72934649D01*
X136247665Y-72934649D02*
X135952427Y-72887030D01*
X135952427Y-72887030D02*
X135583379Y-72887030D01*
X135583379Y-72887030D02*
X135288141Y-72934649D01*
X135288141Y-72934649D02*
X135140522Y-72982268D01*
X135140522Y-72982268D02*
X135066713Y-73029887D01*
X135066713Y-73029887D02*
X134992903Y-73125125D01*
X134992903Y-73125125D02*
X134992903Y-73220363D01*
X134992903Y-73220363D02*
X135066713Y-73315601D01*
X135066713Y-73315601D02*
X135140522Y-73363220D01*
X135140522Y-73363220D02*
X135288141Y-73410839D01*
X135288141Y-73410839D02*
X135583379Y-73458458D01*
X135583379Y-73458458D02*
X135952427Y-73458458D01*
X135952427Y-73458458D02*
X136247665Y-73410839D01*
X136247665Y-73410839D02*
X136395284Y-73363220D01*
X136395284Y-73363220D02*
X136469093Y-73315601D01*
X136469093Y-73315601D02*
X136542903Y-73220363D01*
X134047490Y-74887030D02*
X134047490Y-75363220D01*
X134047490Y-75363220D02*
X133309395Y-75410839D01*
X133309395Y-75410839D02*
X133383204Y-75363220D01*
X133383204Y-75363220D02*
X133457014Y-75267982D01*
X133457014Y-75267982D02*
X133457014Y-75029887D01*
X133457014Y-75029887D02*
X133383204Y-74934649D01*
X133383204Y-74934649D02*
X133309395Y-74887030D01*
X133309395Y-74887030D02*
X133161776Y-74839411D01*
X133161776Y-74839411D02*
X132792728Y-74839411D01*
X132792728Y-74839411D02*
X132645109Y-74887030D01*
X132645109Y-74887030D02*
X132571300Y-74934649D01*
X132571300Y-74934649D02*
X132497490Y-75029887D01*
X132497490Y-75029887D02*
X132497490Y-75267982D01*
X132497490Y-75267982D02*
X132571300Y-75363220D01*
X132571300Y-75363220D02*
X132645109Y-75410839D01*
X134047490Y-74553696D02*
X132497490Y-74220363D01*
X132497490Y-74220363D02*
X134047490Y-73887030D01*
X152460794Y-62703446D02*
X153198889Y-63036779D01*
X152460794Y-63274874D02*
X154010794Y-63274874D01*
X154010794Y-63274874D02*
X154010794Y-62893922D01*
X154010794Y-62893922D02*
X153936984Y-62798684D01*
X153936984Y-62798684D02*
X153863175Y-62751065D01*
X153863175Y-62751065D02*
X153715556Y-62703446D01*
X153715556Y-62703446D02*
X153494127Y-62703446D01*
X153494127Y-62703446D02*
X153346508Y-62751065D01*
X153346508Y-62751065D02*
X153272699Y-62798684D01*
X153272699Y-62798684D02*
X153198889Y-62893922D01*
X153198889Y-62893922D02*
X153198889Y-63274874D01*
X152534604Y-62322493D02*
X152460794Y-62179636D01*
X152460794Y-62179636D02*
X152460794Y-61941541D01*
X152460794Y-61941541D02*
X152534604Y-61846303D01*
X152534604Y-61846303D02*
X152608413Y-61798684D01*
X152608413Y-61798684D02*
X152756032Y-61751065D01*
X152756032Y-61751065D02*
X152903651Y-61751065D01*
X152903651Y-61751065D02*
X153051270Y-61798684D01*
X153051270Y-61798684D02*
X153125080Y-61846303D01*
X153125080Y-61846303D02*
X153198889Y-61941541D01*
X153198889Y-61941541D02*
X153272699Y-62132017D01*
X153272699Y-62132017D02*
X153346508Y-62227255D01*
X153346508Y-62227255D02*
X153420318Y-62274874D01*
X153420318Y-62274874D02*
X153567937Y-62322493D01*
X153567937Y-62322493D02*
X153715556Y-62322493D01*
X153715556Y-62322493D02*
X153863175Y-62274874D01*
X153863175Y-62274874D02*
X153936984Y-62227255D01*
X153936984Y-62227255D02*
X154010794Y-62132017D01*
X154010794Y-62132017D02*
X154010794Y-61893922D01*
X154010794Y-61893922D02*
X153936984Y-61751065D01*
X154010794Y-61465350D02*
X154010794Y-60893922D01*
X152460794Y-61179636D02*
X154010794Y-61179636D01*
X150408238Y-62417731D02*
X150408238Y-61941541D01*
X149965381Y-62512969D02*
X151515381Y-62179636D01*
X151515381Y-62179636D02*
X149965381Y-61846303D01*
X151515381Y-61036779D02*
X151515381Y-61512969D01*
X151515381Y-61512969D02*
X150777286Y-61560588D01*
X150777286Y-61560588D02*
X150851095Y-61512969D01*
X150851095Y-61512969D02*
X150924905Y-61417731D01*
X150924905Y-61417731D02*
X150924905Y-61179636D01*
X150924905Y-61179636D02*
X150851095Y-61084398D01*
X150851095Y-61084398D02*
X150777286Y-61036779D01*
X150777286Y-61036779D02*
X150629667Y-60989160D01*
X150629667Y-60989160D02*
X150260619Y-60989160D01*
X150260619Y-60989160D02*
X150113000Y-61036779D01*
X150113000Y-61036779D02*
X150039191Y-61084398D01*
X150039191Y-61084398D02*
X149965381Y-61179636D01*
X149965381Y-61179636D02*
X149965381Y-61417731D01*
X149965381Y-61417731D02*
X150039191Y-61512969D01*
X150039191Y-61512969D02*
X150113000Y-61560588D01*
X147912825Y-62417731D02*
X147912825Y-61941541D01*
X147469968Y-62512969D02*
X149019968Y-62179636D01*
X149019968Y-62179636D02*
X147469968Y-61846303D01*
X148503301Y-61084398D02*
X147469968Y-61084398D01*
X149093778Y-61322493D02*
X147986635Y-61560588D01*
X147986635Y-61560588D02*
X147986635Y-60941541D01*
X145417412Y-62417731D02*
X145417412Y-61941541D01*
X144974555Y-62512969D02*
X146524555Y-62179636D01*
X146524555Y-62179636D02*
X144974555Y-61846303D01*
X146524555Y-61608207D02*
X146524555Y-60989160D01*
X146524555Y-60989160D02*
X145934079Y-61322493D01*
X145934079Y-61322493D02*
X145934079Y-61179636D01*
X145934079Y-61179636D02*
X145860269Y-61084398D01*
X145860269Y-61084398D02*
X145786460Y-61036779D01*
X145786460Y-61036779D02*
X145638841Y-60989160D01*
X145638841Y-60989160D02*
X145269793Y-60989160D01*
X145269793Y-60989160D02*
X145122174Y-61036779D01*
X145122174Y-61036779D02*
X145048365Y-61084398D01*
X145048365Y-61084398D02*
X144974555Y-61179636D01*
X144974555Y-61179636D02*
X144974555Y-61465350D01*
X144974555Y-61465350D02*
X145048365Y-61560588D01*
X145048365Y-61560588D02*
X145122174Y-61608207D01*
X142921999Y-62417731D02*
X142921999Y-61941541D01*
X142479142Y-62512969D02*
X144029142Y-62179636D01*
X144029142Y-62179636D02*
X142479142Y-61846303D01*
X143881523Y-61560588D02*
X143955332Y-61512969D01*
X143955332Y-61512969D02*
X144029142Y-61417731D01*
X144029142Y-61417731D02*
X144029142Y-61179636D01*
X144029142Y-61179636D02*
X143955332Y-61084398D01*
X143955332Y-61084398D02*
X143881523Y-61036779D01*
X143881523Y-61036779D02*
X143733904Y-60989160D01*
X143733904Y-60989160D02*
X143586285Y-60989160D01*
X143586285Y-60989160D02*
X143364856Y-61036779D01*
X143364856Y-61036779D02*
X142479142Y-61608207D01*
X142479142Y-61608207D02*
X142479142Y-60989160D01*
X140426586Y-62417731D02*
X140426586Y-61941541D01*
X139983729Y-62512969D02*
X141533729Y-62179636D01*
X141533729Y-62179636D02*
X139983729Y-61846303D01*
X139983729Y-60989160D02*
X139983729Y-61560588D01*
X139983729Y-61274874D02*
X141533729Y-61274874D01*
X141533729Y-61274874D02*
X141312300Y-61370112D01*
X141312300Y-61370112D02*
X141164681Y-61465350D01*
X141164681Y-61465350D02*
X141090872Y-61560588D01*
X137931173Y-62417731D02*
X137931173Y-61941541D01*
X137488316Y-62512969D02*
X139038316Y-62179636D01*
X139038316Y-62179636D02*
X137488316Y-61846303D01*
X139038316Y-61322493D02*
X139038316Y-61227255D01*
X139038316Y-61227255D02*
X138964506Y-61132017D01*
X138964506Y-61132017D02*
X138890697Y-61084398D01*
X138890697Y-61084398D02*
X138743078Y-61036779D01*
X138743078Y-61036779D02*
X138447840Y-60989160D01*
X138447840Y-60989160D02*
X138078792Y-60989160D01*
X138078792Y-60989160D02*
X137783554Y-61036779D01*
X137783554Y-61036779D02*
X137635935Y-61084398D01*
X137635935Y-61084398D02*
X137562126Y-61132017D01*
X137562126Y-61132017D02*
X137488316Y-61227255D01*
X137488316Y-61227255D02*
X137488316Y-61322493D01*
X137488316Y-61322493D02*
X137562126Y-61417731D01*
X137562126Y-61417731D02*
X137635935Y-61465350D01*
X137635935Y-61465350D02*
X137783554Y-61512969D01*
X137783554Y-61512969D02*
X138078792Y-61560588D01*
X138078792Y-61560588D02*
X138447840Y-61560588D01*
X138447840Y-61560588D02*
X138743078Y-61512969D01*
X138743078Y-61512969D02*
X138890697Y-61465350D01*
X138890697Y-61465350D02*
X138964506Y-61417731D01*
X138964506Y-61417731D02*
X139038316Y-61322493D01*
X136542903Y-62941540D02*
X134992903Y-62608207D01*
X134992903Y-62608207D02*
X136542903Y-62274874D01*
X134992903Y-61941540D02*
X136026236Y-61941540D01*
X136542903Y-61941540D02*
X136469093Y-61989159D01*
X136469093Y-61989159D02*
X136395284Y-61941540D01*
X136395284Y-61941540D02*
X136469093Y-61893921D01*
X136469093Y-61893921D02*
X136542903Y-61941540D01*
X136542903Y-61941540D02*
X136395284Y-61941540D01*
X136026236Y-61465350D02*
X134992903Y-61465350D01*
X135878617Y-61465350D02*
X135952427Y-61417731D01*
X135952427Y-61417731D02*
X136026236Y-61322493D01*
X136026236Y-61322493D02*
X136026236Y-61179636D01*
X136026236Y-61179636D02*
X135952427Y-61084398D01*
X135952427Y-61084398D02*
X135804808Y-61036779D01*
X135804808Y-61036779D02*
X134992903Y-61036779D01*
X133973680Y-63084398D02*
X134047490Y-63179636D01*
X134047490Y-63179636D02*
X134047490Y-63322493D01*
X134047490Y-63322493D02*
X133973680Y-63465350D01*
X133973680Y-63465350D02*
X133826061Y-63560588D01*
X133826061Y-63560588D02*
X133678442Y-63608207D01*
X133678442Y-63608207D02*
X133383204Y-63655826D01*
X133383204Y-63655826D02*
X133161776Y-63655826D01*
X133161776Y-63655826D02*
X132866538Y-63608207D01*
X132866538Y-63608207D02*
X132718919Y-63560588D01*
X132718919Y-63560588D02*
X132571300Y-63465350D01*
X132571300Y-63465350D02*
X132497490Y-63322493D01*
X132497490Y-63322493D02*
X132497490Y-63227255D01*
X132497490Y-63227255D02*
X132571300Y-63084398D01*
X132571300Y-63084398D02*
X132645109Y-63036779D01*
X132645109Y-63036779D02*
X133161776Y-63036779D01*
X133161776Y-63036779D02*
X133161776Y-63227255D01*
X132497490Y-62608207D02*
X134047490Y-62608207D01*
X134047490Y-62608207D02*
X132497490Y-62036779D01*
X132497490Y-62036779D02*
X134047490Y-62036779D01*
X132497490Y-61560588D02*
X134047490Y-61560588D01*
X134047490Y-61560588D02*
X134047490Y-61322493D01*
X134047490Y-61322493D02*
X133973680Y-61179636D01*
X133973680Y-61179636D02*
X133826061Y-61084398D01*
X133826061Y-61084398D02*
X133678442Y-61036779D01*
X133678442Y-61036779D02*
X133383204Y-60989160D01*
X133383204Y-60989160D02*
X133161776Y-60989160D01*
X133161776Y-60989160D02*
X132866538Y-61036779D01*
X132866538Y-61036779D02*
X132718919Y-61084398D01*
X132718919Y-61084398D02*
X132571300Y-61179636D01*
X132571300Y-61179636D02*
X132497490Y-61322493D01*
X132497490Y-61322493D02*
X132497490Y-61560588D01*
X155134819Y-58266666D02*
X155849104Y-58266666D01*
X155849104Y-58266666D02*
X155991961Y-58219047D01*
X155991961Y-58219047D02*
X156087200Y-58123809D01*
X156087200Y-58123809D02*
X156134819Y-57980952D01*
X156134819Y-57980952D02*
X156134819Y-57885714D01*
X155134819Y-58647619D02*
X155134819Y-59314285D01*
X155134819Y-59314285D02*
X156134819Y-58885714D01*
X155134819Y-77366666D02*
X155849104Y-77366666D01*
X155849104Y-77366666D02*
X155991961Y-77319047D01*
X155991961Y-77319047D02*
X156087200Y-77223809D01*
X156087200Y-77223809D02*
X156134819Y-77080952D01*
X156134819Y-77080952D02*
X156134819Y-76985714D01*
X155134819Y-78271428D02*
X155134819Y-78080952D01*
X155134819Y-78080952D02*
X155182438Y-77985714D01*
X155182438Y-77985714D02*
X155230057Y-77938095D01*
X155230057Y-77938095D02*
X155372914Y-77842857D01*
X155372914Y-77842857D02*
X155563390Y-77795238D01*
X155563390Y-77795238D02*
X155944342Y-77795238D01*
X155944342Y-77795238D02*
X156039580Y-77842857D01*
X156039580Y-77842857D02*
X156087200Y-77890476D01*
X156087200Y-77890476D02*
X156134819Y-77985714D01*
X156134819Y-77985714D02*
X156134819Y-78176190D01*
X156134819Y-78176190D02*
X156087200Y-78271428D01*
X156087200Y-78271428D02*
X156039580Y-78319047D01*
X156039580Y-78319047D02*
X155944342Y-78366666D01*
X155944342Y-78366666D02*
X155706247Y-78366666D01*
X155706247Y-78366666D02*
X155611009Y-78319047D01*
X155611009Y-78319047D02*
X155563390Y-78271428D01*
X155563390Y-78271428D02*
X155515771Y-78176190D01*
X155515771Y-78176190D02*
X155515771Y-77985714D01*
X155515771Y-77985714D02*
X155563390Y-77890476D01*
X155563390Y-77890476D02*
X155611009Y-77842857D01*
X155611009Y-77842857D02*
X155706247Y-77795238D01*
X133733333Y-95974819D02*
X133733333Y-96689104D01*
X133733333Y-96689104D02*
X133780952Y-96831961D01*
X133780952Y-96831961D02*
X133876190Y-96927200D01*
X133876190Y-96927200D02*
X134019047Y-96974819D01*
X134019047Y-96974819D02*
X134114285Y-96974819D01*
X133352380Y-95974819D02*
X132733333Y-95974819D01*
X132733333Y-95974819D02*
X133066666Y-96355771D01*
X133066666Y-96355771D02*
X132923809Y-96355771D01*
X132923809Y-96355771D02*
X132828571Y-96403390D01*
X132828571Y-96403390D02*
X132780952Y-96451009D01*
X132780952Y-96451009D02*
X132733333Y-96546247D01*
X132733333Y-96546247D02*
X132733333Y-96784342D01*
X132733333Y-96784342D02*
X132780952Y-96879580D01*
X132780952Y-96879580D02*
X132828571Y-96927200D01*
X132828571Y-96927200D02*
X132923809Y-96974819D01*
X132923809Y-96974819D02*
X133209523Y-96974819D01*
X133209523Y-96974819D02*
X133304761Y-96927200D01*
X133304761Y-96927200D02*
X133352380Y-96879580D01*
X141080951Y-101954819D02*
X141080951Y-100954819D01*
X141080951Y-100954819D02*
X140842856Y-100954819D01*
X140842856Y-100954819D02*
X140699999Y-101002438D01*
X140699999Y-101002438D02*
X140604761Y-101097676D01*
X140604761Y-101097676D02*
X140557142Y-101192914D01*
X140557142Y-101192914D02*
X140509523Y-101383390D01*
X140509523Y-101383390D02*
X140509523Y-101526247D01*
X140509523Y-101526247D02*
X140557142Y-101716723D01*
X140557142Y-101716723D02*
X140604761Y-101811961D01*
X140604761Y-101811961D02*
X140699999Y-101907200D01*
X140699999Y-101907200D02*
X140842856Y-101954819D01*
X140842856Y-101954819D02*
X141080951Y-101954819D01*
X139509523Y-101859580D02*
X139557142Y-101907200D01*
X139557142Y-101907200D02*
X139699999Y-101954819D01*
X139699999Y-101954819D02*
X139795237Y-101954819D01*
X139795237Y-101954819D02*
X139938094Y-101907200D01*
X139938094Y-101907200D02*
X140033332Y-101811961D01*
X140033332Y-101811961D02*
X140080951Y-101716723D01*
X140080951Y-101716723D02*
X140128570Y-101526247D01*
X140128570Y-101526247D02*
X140128570Y-101383390D01*
X140128570Y-101383390D02*
X140080951Y-101192914D01*
X140080951Y-101192914D02*
X140033332Y-101097676D01*
X140033332Y-101097676D02*
X139938094Y-101002438D01*
X139938094Y-101002438D02*
X139795237Y-100954819D01*
X139795237Y-100954819D02*
X139699999Y-100954819D01*
X139699999Y-100954819D02*
X139557142Y-101002438D01*
X139557142Y-101002438D02*
X139509523Y-101050057D01*
X139080951Y-101573866D02*
X138319047Y-101573866D01*
X137842856Y-101954819D02*
X137842856Y-100954819D01*
X137842856Y-100954819D02*
X137604761Y-100954819D01*
X137604761Y-100954819D02*
X137461904Y-101002438D01*
X137461904Y-101002438D02*
X137366666Y-101097676D01*
X137366666Y-101097676D02*
X137319047Y-101192914D01*
X137319047Y-101192914D02*
X137271428Y-101383390D01*
X137271428Y-101383390D02*
X137271428Y-101526247D01*
X137271428Y-101526247D02*
X137319047Y-101716723D01*
X137319047Y-101716723D02*
X137366666Y-101811961D01*
X137366666Y-101811961D02*
X137461904Y-101907200D01*
X137461904Y-101907200D02*
X137604761Y-101954819D01*
X137604761Y-101954819D02*
X137842856Y-101954819D01*
X136271428Y-101859580D02*
X136319047Y-101907200D01*
X136319047Y-101907200D02*
X136461904Y-101954819D01*
X136461904Y-101954819D02*
X136557142Y-101954819D01*
X136557142Y-101954819D02*
X136699999Y-101907200D01*
X136699999Y-101907200D02*
X136795237Y-101811961D01*
X136795237Y-101811961D02*
X136842856Y-101716723D01*
X136842856Y-101716723D02*
X136890475Y-101526247D01*
X136890475Y-101526247D02*
X136890475Y-101383390D01*
X136890475Y-101383390D02*
X136842856Y-101192914D01*
X136842856Y-101192914D02*
X136795237Y-101097676D01*
X136795237Y-101097676D02*
X136699999Y-101002438D01*
X136699999Y-101002438D02*
X136557142Y-100954819D01*
X136557142Y-100954819D02*
X136461904Y-100954819D01*
X136461904Y-100954819D02*
X136319047Y-101002438D01*
X136319047Y-101002438D02*
X136271428Y-101050057D01*
%TO.C,J7*%
D14*
X131600000Y-59980000D02*
X131600000Y-57220000D01*
X152030000Y-57220000D02*
X131600000Y-57220000D01*
X152030000Y-59980000D02*
X131600000Y-59980000D01*
X152030000Y-59980000D02*
X152030000Y-57220000D01*
X153300000Y-59980000D02*
X154680000Y-59980000D01*
X154680000Y-59980000D02*
X154680000Y-58600000D01*
%TO.C,J6*%
X131600000Y-79080000D02*
X131600000Y-76320000D01*
X152030000Y-76320000D02*
X131600000Y-76320000D01*
X152030000Y-79080000D02*
X131600000Y-79080000D01*
X152030000Y-79080000D02*
X152030000Y-76320000D01*
X153300000Y-79080000D02*
X154680000Y-79080000D01*
X154680000Y-79080000D02*
X154680000Y-77700000D01*
%TO.C,J3*%
X132020000Y-100170000D02*
X132020000Y-105360000D01*
X134780000Y-97520000D02*
X133400000Y-97520000D01*
X134780000Y-98900000D02*
X134780000Y-97520000D01*
X134780000Y-100170000D02*
X132020000Y-100170000D01*
X134780000Y-100170000D02*
X134780000Y-105360000D01*
X134780000Y-105360000D02*
X132020000Y-105360000D01*
%TD*%
M02*
