%TF.GenerationSoftware,KiCad,Pcbnew,10.0.1*%
%TF.CreationDate,2026-07-10T00:57:23+09:00*%
%TF.ProjectId,Mini_Oscilloscope,4d696e69-5f4f-4736-9369-6c6c6f73636f,rev?*%
%TF.SameCoordinates,Original*%
%TF.FileFunction,Copper,L2,Bot*%
%TF.FilePolarity,Positive*%
%FSLAX46Y46*%
G04 Gerber Fmt 4.6, Leading zero omitted, Abs format (unit mm)*
G04 Created by KiCad (PCBNEW 10.0.1) date 2026-07-10 00:57:23*
%MOMM*%
%LPD*%
G01*
G04 APERTURE LIST*
G04 Aperture macros list*
%AMRoundRect*
0 Rectangle with rounded corners*
0 $1 Rounding radius*
0 $2 $3 $4 $5 $6 $7 $8 $9 X,Y pos of 4 corners*
0 Add a 4 corners polygon primitive as box body*
4,1,4,$2,$3,$4,$5,$6,$7,$8,$9,$2,$3,0*
0 Add four circle primitives for the rounded corners*
1,1,$1+$1,$2,$3*
1,1,$1+$1,$4,$5*
1,1,$1+$1,$6,$7*
1,1,$1+$1,$8,$9*
0 Add four rect primitives between the rounded corners*
20,1,$1+$1,$2,$3,$4,$5,0*
20,1,$1+$1,$4,$5,$6,$7,0*
20,1,$1+$1,$6,$7,$8,$9,0*
20,1,$1+$1,$8,$9,$2,$3,0*%
G04 Aperture macros list end*
%TA.AperFunction,ComponentPad*%
%ADD10RoundRect,0.250000X0.550000X-0.550000X0.550000X0.550000X-0.550000X0.550000X-0.550000X-0.550000X0*%
%TD*%
%TA.AperFunction,ComponentPad*%
%ADD11C,1.600000*%
%TD*%
%TA.AperFunction,ComponentPad*%
%ADD12R,1.700000X1.700000*%
%TD*%
%TA.AperFunction,ComponentPad*%
%ADD13C,1.700000*%
%TD*%
%TA.AperFunction,ComponentPad*%
%ADD14R,1.560000X1.560000*%
%TD*%
%TA.AperFunction,ComponentPad*%
%ADD15C,1.560000*%
%TD*%
%TA.AperFunction,ComponentPad*%
%ADD16C,1.400000*%
%TD*%
%TA.AperFunction,ViaPad*%
%ADD17C,0.600000*%
%TD*%
G04 APERTURE END LIST*
D10*
%TO.P,D3,1,K_1*%
%TO.N,/DN*%
X145700000Y-72610000D03*
D11*
%TO.P,D3,2,A_2*%
%TO.N,Net-(D1-A)*%
X145700000Y-64990000D03*
%TD*%
D12*
%TO.P,J12,1,Pin_1_1*%
%TO.N,Net-(J12-Pin_1)*%
X160715000Y-86825000D03*
D13*
%TO.P,J12,2,Pin_2_2*%
%TO.N,GND*%
X160715000Y-89365000D03*
%TD*%
D14*
%TO.P,RV1,1,1_1*%
%TO.N,Net-(J7-Pin_7)*%
X160800000Y-58460000D03*
D15*
%TO.P,RV1,2,2_2*%
X163300000Y-63460000D03*
%TO.P,RV1,3,3_3*%
%TO.N,Net-(J10-Pin_1)*%
X165800000Y-58460000D03*
%TD*%
D10*
%TO.P,D1,1,K_1*%
%TO.N,/SEL*%
X143200000Y-72610000D03*
D11*
%TO.P,D1,2,A_2*%
%TO.N,Net-(D1-A)*%
X143200000Y-64990000D03*
%TD*%
D10*
%TO.P,D5,1,K_1*%
%TO.N,/AUX*%
X138200000Y-72610000D03*
D11*
%TO.P,D5,2,A_2*%
%TO.N,Net-(D1-A)*%
X138200000Y-64990000D03*
%TD*%
D12*
%TO.P,SW1,1,A_1*%
%TO.N,Net-(J3-Pin_3)*%
X159900000Y-99760000D03*
D13*
%TO.P,SW1,2,B_2*%
%TO.N,Net-(SW1-B)*%
X159900000Y-102300000D03*
%TO.P,SW1,3,C_3*%
%TO.N,unconnected-(SW1-C-Pad3)*%
X159900000Y-104840000D03*
%TD*%
D12*
%TO.P,J2,1,Pin_1_1*%
%TO.N,/SEL*%
X138000000Y-83200000D03*
D13*
%TO.P,J2,2,Pin_2_2*%
%TO.N,/HOLD*%
X140540000Y-83200000D03*
%TO.P,J2,3,Pin_3_3*%
%TO.N,/DN*%
X143080000Y-83200000D03*
%TO.P,J2,4,Pin_4_4*%
%TO.N,/UP*%
X145620000Y-83200000D03*
%TO.P,J2,5,Pin_5_5*%
%TO.N,/AUX*%
X148160000Y-83200000D03*
%TO.P,J2,6,Pin_6_6*%
%TO.N,GND*%
X150700000Y-83200000D03*
%TD*%
D12*
%TO.P,TP2,1,1_1*%
%TO.N,Net-(SW1-B)*%
X121100000Y-102710400D03*
%TD*%
%TO.P,TP3,1,1_1*%
%TO.N,GND*%
X121000000Y-59000000D03*
%TD*%
D16*
%TO.P,R6,1*%
%TO.N,Net-(J7-Pin_6)*%
X156900000Y-64900000D03*
%TO.P,R6,2*%
%TO.N,Net-(J11-Pin_1)*%
X156900000Y-72520000D03*
%TD*%
%TO.P,R3,1*%
%TO.N,Net-(D1-A)*%
X149800000Y-64900000D03*
%TO.P,R3,2*%
%TO.N,/IRQ1*%
X149800000Y-72520000D03*
%TD*%
%TO.P,R4,1*%
%TO.N,GND*%
X154500000Y-72510000D03*
%TO.P,R4,2*%
%TO.N,Net-(J7-Pin_7)*%
X154500000Y-64890000D03*
%TD*%
D12*
%TO.P,J11,1,Pin_1_1*%
%TO.N,Net-(J11-Pin_1)*%
X160615000Y-77625000D03*
D13*
%TO.P,J11,2,Pin_2_2*%
%TO.N,GND*%
X160615000Y-80165000D03*
%TD*%
D12*
%TO.P,J10,1,Pin_1_1*%
%TO.N,Net-(J10-Pin_1)*%
X160615000Y-68925000D03*
D13*
%TO.P,J10,2,Pin_2_2*%
%TO.N,GND*%
X160615000Y-71465000D03*
%TD*%
D10*
%TO.P,D2,1,K_1*%
%TO.N,/HOLD*%
X140700000Y-72610000D03*
D11*
%TO.P,D2,2,A_2*%
%TO.N,Net-(D1-A)*%
X140700000Y-64990000D03*
%TD*%
D12*
%TO.P,J1,1,Pin_1_1*%
%TO.N,GND*%
X140900000Y-52200000D03*
D13*
%TO.P,J1,2,Pin_2_2*%
%TO.N,/VCC_5V*%
X143440000Y-52200000D03*
%TO.P,J1,3,Pin_3_3*%
%TO.N,/SCL*%
X145980000Y-52200000D03*
%TO.P,J1,4,Pin_4_4*%
%TO.N,/SDA*%
X148520000Y-52200000D03*
%TD*%
D10*
%TO.P,D4,1,K_1*%
%TO.N,/UP*%
X135700000Y-72610000D03*
D11*
%TO.P,D4,2,A_2*%
%TO.N,Net-(D1-A)*%
X135700000Y-64990000D03*
%TD*%
D16*
%TO.P,R5,1*%
%TO.N,Net-(J7-Pin_7)*%
X152200000Y-64800000D03*
%TO.P,R5,2*%
%TO.N,/ATT*%
X152200000Y-72420000D03*
%TD*%
D12*
%TO.P,J7,1,Pin_1_1*%
%TO.N,unconnected-(J7-Pin_1-Pad1)*%
X153300000Y-58600000D03*
D13*
%TO.P,J7,2,Pin_2_2*%
%TO.N,/SCL*%
X150760000Y-58600000D03*
%TO.P,J7,3,Pin_3_3*%
%TO.N,/SDA*%
X148220000Y-58600000D03*
%TO.P,J7,4,Pin_4_4*%
%TO.N,unconnected-(J7-Pin_4-Pad4)*%
X145680000Y-58600000D03*
%TO.P,J7,5,Pin_5_5*%
%TO.N,unconnected-(J7-Pin_5-Pad5)*%
X143140000Y-58600000D03*
%TO.P,J7,6,Pin_6_6*%
%TO.N,Net-(J7-Pin_6)*%
X140600000Y-58600000D03*
%TO.P,J7,7,Pin_7_7*%
%TO.N,Net-(J7-Pin_7)*%
X138060000Y-58600000D03*
%TO.P,J7,8,Pin_8_8*%
%TO.N,unconnected-(J7-Pin_8-Pad8)*%
X135520000Y-58600000D03*
%TO.P,J7,9,Pin_9_9*%
%TO.N,GND*%
X132980000Y-58600000D03*
%TD*%
D12*
%TO.P,J6,1,Pin_1_1*%
%TO.N,/IRQ1*%
X153300000Y-77700000D03*
D13*
%TO.P,J6,2,Pin_2_2*%
%TO.N,/ATT*%
X150760000Y-77700000D03*
%TO.P,J6,3,Pin_3_3*%
%TO.N,Net-(J12-Pin_1)*%
X148220000Y-77700000D03*
%TO.P,J6,4,Pin_4_4*%
%TO.N,/UP*%
X145680000Y-77700000D03*
%TO.P,J6,5,Pin_5_5*%
%TO.N,/DN*%
X143140000Y-77700000D03*
%TO.P,J6,6,Pin_6_6*%
%TO.N,/SEL*%
X140600000Y-77700000D03*
%TO.P,J6,7,Pin_7_7*%
%TO.N,/HOLD*%
X138060000Y-77700000D03*
%TO.P,J6,8,Pin_8_8*%
%TO.N,/AUX*%
X135520000Y-77700000D03*
%TO.P,J6,9,Pin_9_9*%
%TO.N,/VCC_5V*%
X132980000Y-77700000D03*
%TD*%
D12*
%TO.P,J3,1,Pin_1_1*%
%TO.N,/VCC_5V*%
X133400000Y-98900000D03*
D13*
%TO.P,J3,2,Pin_2_2*%
%TO.N,GND*%
X133400000Y-101440000D03*
%TO.P,J3,3,Pin_3_3*%
%TO.N,Net-(J3-Pin_3)*%
X133400000Y-103980000D03*
%TD*%
D17*
%TO.N,GND*%
X151700000Y-62900000D03*
X144500000Y-74800000D03*
X146900000Y-60400000D03*
X129700000Y-76700000D03*
X142100000Y-74800000D03*
X129800000Y-81200000D03*
X144800000Y-55100000D03*
X129600000Y-73000000D03*
X153000000Y-103100000D03*
X144400000Y-80100000D03*
X147400000Y-55100000D03*
X139500000Y-74800000D03*
X147800000Y-68100000D03*
X137800000Y-80200000D03*
X129600000Y-68900000D03*
X137000000Y-74800000D03*
X141200000Y-80100000D03*
%TD*%
%TA.AperFunction,Conductor*%
%TO.N,GND*%
G36*
X167242539Y-49420185D02*
G01*
X167288294Y-49472989D01*
X167299500Y-49524500D01*
X167299500Y-58166364D01*
X167279815Y-58233403D01*
X167227011Y-58279158D01*
X167157853Y-58289102D01*
X167094297Y-58260077D01*
X167056523Y-58201299D01*
X167053027Y-58185762D01*
X167048970Y-58160148D01*
X166986687Y-57968460D01*
X166982271Y-57959794D01*
X166895182Y-57788871D01*
X166776711Y-57625810D01*
X166634190Y-57483289D01*
X166471129Y-57364818D01*
X166387981Y-57322452D01*
X166291539Y-57273312D01*
X166099852Y-57211030D01*
X165900783Y-57179500D01*
X165900778Y-57179500D01*
X165699222Y-57179500D01*
X165699217Y-57179500D01*
X165500147Y-57211030D01*
X165308460Y-57273312D01*
X165128870Y-57364818D01*
X165035838Y-57432410D01*
X164965810Y-57483289D01*
X164965808Y-57483291D01*
X164965807Y-57483291D01*
X164823291Y-57625807D01*
X164823291Y-57625808D01*
X164823289Y-57625810D01*
X164801062Y-57656403D01*
X164704818Y-57788870D01*
X164613312Y-57968460D01*
X164551030Y-58160147D01*
X164519500Y-58359216D01*
X164519500Y-58560783D01*
X164551030Y-58759852D01*
X164613312Y-58951539D01*
X164671595Y-59065925D01*
X164704818Y-59131129D01*
X164823289Y-59294190D01*
X164965810Y-59436711D01*
X165128871Y-59555182D01*
X165275914Y-59630104D01*
X165308460Y-59646687D01*
X165404303Y-59677828D01*
X165500149Y-59708970D01*
X165592348Y-59723572D01*
X165699217Y-59740500D01*
X165699222Y-59740500D01*
X165900783Y-59740500D01*
X165997289Y-59725214D01*
X166099851Y-59708970D01*
X166291542Y-59646686D01*
X166471129Y-59555182D01*
X166634190Y-59436711D01*
X166776711Y-59294190D01*
X166895182Y-59131129D01*
X166986686Y-58951542D01*
X167048970Y-58759851D01*
X167053027Y-58734237D01*
X167082956Y-58671102D01*
X167142268Y-58634171D01*
X167212130Y-58635169D01*
X167270363Y-58673779D01*
X167298477Y-58737742D01*
X167299500Y-58753635D01*
X167299500Y-112175500D01*
X167279815Y-112242539D01*
X167227011Y-112288294D01*
X167175500Y-112299500D01*
X114724500Y-112299500D01*
X114657461Y-112279815D01*
X114611706Y-112227011D01*
X114600500Y-112175500D01*
X114600500Y-109878711D01*
X115149500Y-109878711D01*
X115149500Y-110121288D01*
X115181161Y-110361785D01*
X115243947Y-110596104D01*
X115336773Y-110820205D01*
X115336776Y-110820212D01*
X115458064Y-111030289D01*
X115458066Y-111030292D01*
X115458067Y-111030293D01*
X115605733Y-111222736D01*
X115605739Y-111222743D01*
X115777256Y-111394260D01*
X115777262Y-111394265D01*
X115969711Y-111541936D01*
X116179788Y-111663224D01*
X116403900Y-111756054D01*
X116638211Y-111818838D01*
X116818586Y-111842584D01*
X116878711Y-111850500D01*
X116878712Y-111850500D01*
X117121289Y-111850500D01*
X117169388Y-111844167D01*
X117361789Y-111818838D01*
X117596100Y-111756054D01*
X117820212Y-111663224D01*
X118030289Y-111541936D01*
X118222738Y-111394265D01*
X118394265Y-111222738D01*
X118541936Y-111030289D01*
X118663224Y-110820212D01*
X118756054Y-110596100D01*
X118818838Y-110361789D01*
X118850500Y-110121288D01*
X118850500Y-109878712D01*
X118850500Y-109878711D01*
X162149500Y-109878711D01*
X162149500Y-110121288D01*
X162181161Y-110361785D01*
X162243947Y-110596104D01*
X162336773Y-110820205D01*
X162336776Y-110820212D01*
X162458064Y-111030289D01*
X162458066Y-111030292D01*
X162458067Y-111030293D01*
X162605733Y-111222736D01*
X162605739Y-111222743D01*
X162777256Y-111394260D01*
X162777262Y-111394265D01*
X162969711Y-111541936D01*
X163179788Y-111663224D01*
X163403900Y-111756054D01*
X163638211Y-111818838D01*
X163818586Y-111842584D01*
X163878711Y-111850500D01*
X163878712Y-111850500D01*
X164121289Y-111850500D01*
X164169388Y-111844167D01*
X164361789Y-111818838D01*
X164596100Y-111756054D01*
X164820212Y-111663224D01*
X165030289Y-111541936D01*
X165222738Y-111394265D01*
X165394265Y-111222738D01*
X165541936Y-111030289D01*
X165663224Y-110820212D01*
X165756054Y-110596100D01*
X165818838Y-110361789D01*
X165850500Y-110121288D01*
X165850500Y-109878712D01*
X165818838Y-109638211D01*
X165756054Y-109403900D01*
X165663224Y-109179788D01*
X165541936Y-108969711D01*
X165394265Y-108777262D01*
X165394260Y-108777256D01*
X165222743Y-108605739D01*
X165222736Y-108605733D01*
X165030293Y-108458067D01*
X165030292Y-108458066D01*
X165030289Y-108458064D01*
X164820212Y-108336776D01*
X164820205Y-108336773D01*
X164596104Y-108243947D01*
X164361785Y-108181161D01*
X164121289Y-108149500D01*
X164121288Y-108149500D01*
X163878712Y-108149500D01*
X163878711Y-108149500D01*
X163638214Y-108181161D01*
X163403895Y-108243947D01*
X163179794Y-108336773D01*
X163179785Y-108336777D01*
X162969706Y-108458067D01*
X162777263Y-108605733D01*
X162777256Y-108605739D01*
X162605739Y-108777256D01*
X162605733Y-108777263D01*
X162458067Y-108969706D01*
X162336777Y-109179785D01*
X162336773Y-109179794D01*
X162243947Y-109403895D01*
X162181161Y-109638214D01*
X162149500Y-109878711D01*
X118850500Y-109878711D01*
X118818838Y-109638211D01*
X118756054Y-109403900D01*
X118663224Y-109179788D01*
X118541936Y-108969711D01*
X118394265Y-108777262D01*
X118394260Y-108777256D01*
X118222743Y-108605739D01*
X118222736Y-108605733D01*
X118030293Y-108458067D01*
X118030292Y-108458066D01*
X118030289Y-108458064D01*
X117820212Y-108336776D01*
X117820205Y-108336773D01*
X117596104Y-108243947D01*
X117361785Y-108181161D01*
X117121289Y-108149500D01*
X117121288Y-108149500D01*
X116878712Y-108149500D01*
X116878711Y-108149500D01*
X116638214Y-108181161D01*
X116403895Y-108243947D01*
X116179794Y-108336773D01*
X116179785Y-108336777D01*
X115969706Y-108458067D01*
X115777263Y-108605733D01*
X115777256Y-108605739D01*
X115605739Y-108777256D01*
X115605733Y-108777263D01*
X115458067Y-108969706D01*
X115336777Y-109179785D01*
X115336773Y-109179794D01*
X115243947Y-109403895D01*
X115181161Y-109638214D01*
X115149500Y-109878711D01*
X114600500Y-109878711D01*
X114600500Y-101812535D01*
X119749500Y-101812535D01*
X119749500Y-103608270D01*
X119749501Y-103608276D01*
X119755908Y-103667883D01*
X119806202Y-103802728D01*
X119806206Y-103802735D01*
X119892452Y-103917944D01*
X119892455Y-103917947D01*
X120007664Y-104004193D01*
X120007671Y-104004197D01*
X120142517Y-104054491D01*
X120142516Y-104054491D01*
X120149444Y-104055235D01*
X120202127Y-104060900D01*
X121997872Y-104060899D01*
X122057483Y-104054491D01*
X122192331Y-104004196D01*
X122307546Y-103917946D01*
X122393796Y-103802731D01*
X122444091Y-103667883D01*
X122450500Y-103608273D01*
X122450499Y-101812528D01*
X122444091Y-101752917D01*
X122399362Y-101632993D01*
X122393797Y-101618071D01*
X122393793Y-101618064D01*
X122307547Y-101502855D01*
X122207751Y-101428147D01*
X122207750Y-101428145D01*
X122192334Y-101416606D01*
X122192328Y-101416602D01*
X122057482Y-101366308D01*
X122057483Y-101366308D01*
X121997883Y-101359901D01*
X121997881Y-101359900D01*
X121997873Y-101359900D01*
X121997864Y-101359900D01*
X120202129Y-101359900D01*
X120202123Y-101359901D01*
X120142516Y-101366308D01*
X120007671Y-101416602D01*
X120007664Y-101416606D01*
X119892455Y-101502852D01*
X119892452Y-101502855D01*
X119806206Y-101618064D01*
X119806202Y-101618071D01*
X119755908Y-101752917D01*
X119749501Y-101812516D01*
X119749501Y-101812523D01*
X119749500Y-101812535D01*
X114600500Y-101812535D01*
X114600500Y-98002135D01*
X132049500Y-98002135D01*
X132049500Y-99797870D01*
X132049501Y-99797876D01*
X132055908Y-99857483D01*
X132106202Y-99992328D01*
X132106206Y-99992335D01*
X132192452Y-100107544D01*
X132192455Y-100107547D01*
X132307664Y-100193793D01*
X132307671Y-100193797D01*
X132352618Y-100210561D01*
X132442517Y-100244091D01*
X132502127Y-100250500D01*
X132512685Y-100250499D01*
X132579723Y-100270179D01*
X132600372Y-100286818D01*
X133270591Y-100957037D01*
X133207007Y-100974075D01*
X133092993Y-101039901D01*
X132999901Y-101132993D01*
X132934075Y-101247007D01*
X132917037Y-101310591D01*
X132284728Y-100678282D01*
X132284727Y-100678282D01*
X132245380Y-100732439D01*
X132148904Y-100921782D01*
X132083242Y-101123869D01*
X132083242Y-101123872D01*
X132050000Y-101333753D01*
X132050000Y-101546246D01*
X132083242Y-101756127D01*
X132083242Y-101756130D01*
X132148904Y-101958217D01*
X132245375Y-102147550D01*
X132284728Y-102201716D01*
X132917037Y-101569408D01*
X132934075Y-101632993D01*
X132999901Y-101747007D01*
X133092993Y-101840099D01*
X133207007Y-101905925D01*
X133270590Y-101922962D01*
X132638282Y-102555269D01*
X132638282Y-102555270D01*
X132692452Y-102594626D01*
X132692451Y-102594626D01*
X132701495Y-102599234D01*
X132752292Y-102647208D01*
X132769087Y-102715029D01*
X132746550Y-102781164D01*
X132701499Y-102820202D01*
X132692182Y-102824949D01*
X132520213Y-102949890D01*
X132369890Y-103100213D01*
X132244951Y-103272179D01*
X132148444Y-103461585D01*
X132082753Y-103663760D01*
X132049500Y-103873713D01*
X132049500Y-104086286D01*
X132082753Y-104296239D01*
X132148444Y-104498414D01*
X132244951Y-104687820D01*
X132369890Y-104859786D01*
X132520213Y-105010109D01*
X132692179Y-105135048D01*
X132692181Y-105135049D01*
X132692184Y-105135051D01*
X132881588Y-105231557D01*
X133083757Y-105297246D01*
X133293713Y-105330500D01*
X133293714Y-105330500D01*
X133506286Y-105330500D01*
X133506287Y-105330500D01*
X133716243Y-105297246D01*
X133918412Y-105231557D01*
X134107816Y-105135051D01*
X134129789Y-105119086D01*
X134279786Y-105010109D01*
X134279788Y-105010106D01*
X134279792Y-105010104D01*
X134430104Y-104859792D01*
X134430106Y-104859788D01*
X134430109Y-104859786D01*
X134555048Y-104687820D01*
X134555047Y-104687820D01*
X134555051Y-104687816D01*
X134651557Y-104498412D01*
X134717246Y-104296243D01*
X134750500Y-104086287D01*
X134750500Y-103873713D01*
X134717246Y-103663757D01*
X134651557Y-103461588D01*
X134555051Y-103272184D01*
X134555049Y-103272181D01*
X134555048Y-103272179D01*
X134430109Y-103100213D01*
X134279786Y-102949890D01*
X134107817Y-102824949D01*
X134098504Y-102820204D01*
X134047707Y-102772230D01*
X134030912Y-102704409D01*
X134053449Y-102638274D01*
X134098507Y-102599232D01*
X134107555Y-102594622D01*
X134161716Y-102555270D01*
X134161717Y-102555270D01*
X133529408Y-101922962D01*
X133592993Y-101905925D01*
X133707007Y-101840099D01*
X133800099Y-101747007D01*
X133865925Y-101632993D01*
X133882962Y-101569408D01*
X134515270Y-102201717D01*
X134515270Y-102201716D01*
X134554622Y-102147554D01*
X134651095Y-101958217D01*
X134716757Y-101756130D01*
X134716757Y-101756127D01*
X134750000Y-101546246D01*
X134750000Y-101333753D01*
X134716757Y-101123872D01*
X134716757Y-101123869D01*
X134651095Y-100921782D01*
X134554624Y-100732449D01*
X134515270Y-100678282D01*
X134515269Y-100678282D01*
X133882962Y-101310590D01*
X133865925Y-101247007D01*
X133800099Y-101132993D01*
X133707007Y-101039901D01*
X133592993Y-100974075D01*
X133529409Y-100957037D01*
X134199627Y-100286818D01*
X134260950Y-100253333D01*
X134287307Y-100250499D01*
X134297872Y-100250499D01*
X134357483Y-100244091D01*
X134492331Y-100193796D01*
X134607546Y-100107546D01*
X134693796Y-99992331D01*
X134744091Y-99857483D01*
X134750500Y-99797873D01*
X134750499Y-98862135D01*
X158549500Y-98862135D01*
X158549500Y-100657870D01*
X158549501Y-100657876D01*
X158555908Y-100717483D01*
X158606202Y-100852328D01*
X158606206Y-100852335D01*
X158692452Y-100967544D01*
X158692455Y-100967547D01*
X158807664Y-101053793D01*
X158807671Y-101053797D01*
X158939082Y-101102810D01*
X158995016Y-101144681D01*
X159019433Y-101210145D01*
X159004582Y-101278418D01*
X158983431Y-101306673D01*
X158869889Y-101420215D01*
X158744951Y-101592179D01*
X158648444Y-101781585D01*
X158582753Y-101983760D01*
X158549500Y-102193713D01*
X158549500Y-102406286D01*
X158580059Y-102599232D01*
X158582754Y-102616243D01*
X158636340Y-102781164D01*
X158648444Y-102818414D01*
X158744951Y-103007820D01*
X158869890Y-103179786D01*
X159020213Y-103330109D01*
X159192182Y-103455050D01*
X159200946Y-103459516D01*
X159251742Y-103507491D01*
X159268536Y-103575312D01*
X159245998Y-103641447D01*
X159200946Y-103680484D01*
X159192182Y-103684949D01*
X159020213Y-103809890D01*
X158869890Y-103960213D01*
X158744951Y-104132179D01*
X158648444Y-104321585D01*
X158582753Y-104523760D01*
X158556769Y-104687816D01*
X158549500Y-104733713D01*
X158549500Y-104946287D01*
X158582754Y-105156243D01*
X158607224Y-105231555D01*
X158648444Y-105358414D01*
X158744951Y-105547820D01*
X158869890Y-105719786D01*
X159020213Y-105870109D01*
X159192179Y-105995048D01*
X159192181Y-105995049D01*
X159192184Y-105995051D01*
X159381588Y-106091557D01*
X159583757Y-106157246D01*
X159793713Y-106190500D01*
X159793714Y-106190500D01*
X160006286Y-106190500D01*
X160006287Y-106190500D01*
X160216243Y-106157246D01*
X160418412Y-106091557D01*
X160607816Y-105995051D01*
X160629789Y-105979086D01*
X160779786Y-105870109D01*
X160779788Y-105870106D01*
X160779792Y-105870104D01*
X160930104Y-105719792D01*
X160930106Y-105719788D01*
X160930109Y-105719786D01*
X161055048Y-105547820D01*
X161055047Y-105547820D01*
X161055051Y-105547816D01*
X161151557Y-105358412D01*
X161217246Y-105156243D01*
X161250500Y-104946287D01*
X161250500Y-104733713D01*
X161217246Y-104523757D01*
X161151557Y-104321588D01*
X161055051Y-104132184D01*
X161055049Y-104132181D01*
X161055048Y-104132179D01*
X160930109Y-103960213D01*
X160779786Y-103809890D01*
X160607820Y-103684951D01*
X160607115Y-103684591D01*
X160599054Y-103680485D01*
X160548259Y-103632512D01*
X160531463Y-103564692D01*
X160553999Y-103498556D01*
X160599054Y-103459515D01*
X160607816Y-103455051D01*
X160629789Y-103439086D01*
X160779786Y-103330109D01*
X160779788Y-103330106D01*
X160779792Y-103330104D01*
X160930104Y-103179792D01*
X160930106Y-103179788D01*
X160930109Y-103179786D01*
X161055048Y-103007820D01*
X161055047Y-103007820D01*
X161055051Y-103007816D01*
X161151557Y-102818412D01*
X161217246Y-102616243D01*
X161250500Y-102406287D01*
X161250500Y-102193713D01*
X161217246Y-101983757D01*
X161151557Y-101781588D01*
X161055051Y-101592184D01*
X161055049Y-101592181D01*
X161055048Y-101592179D01*
X160930109Y-101420213D01*
X160816569Y-101306673D01*
X160783084Y-101245350D01*
X160788068Y-101175658D01*
X160829940Y-101119725D01*
X160860915Y-101102810D01*
X160992331Y-101053796D01*
X161107546Y-100967546D01*
X161193796Y-100852331D01*
X161244091Y-100717483D01*
X161250500Y-100657873D01*
X161250499Y-98862128D01*
X161244091Y-98802517D01*
X161193796Y-98667669D01*
X161193795Y-98667668D01*
X161193793Y-98667664D01*
X161107547Y-98552455D01*
X161107544Y-98552452D01*
X160992335Y-98466206D01*
X160992328Y-98466202D01*
X160857482Y-98415908D01*
X160857483Y-98415908D01*
X160797883Y-98409501D01*
X160797881Y-98409500D01*
X160797873Y-98409500D01*
X160797864Y-98409500D01*
X159002129Y-98409500D01*
X159002123Y-98409501D01*
X158942516Y-98415908D01*
X158807671Y-98466202D01*
X158807664Y-98466206D01*
X158692455Y-98552452D01*
X158692452Y-98552455D01*
X158606206Y-98667664D01*
X158606202Y-98667671D01*
X158555908Y-98802517D01*
X158549501Y-98862116D01*
X158549501Y-98862123D01*
X158549500Y-98862135D01*
X134750499Y-98862135D01*
X134750499Y-98002128D01*
X134744091Y-97942517D01*
X134693796Y-97807669D01*
X134693795Y-97807668D01*
X134693793Y-97807664D01*
X134607547Y-97692455D01*
X134607544Y-97692452D01*
X134492335Y-97606206D01*
X134492328Y-97606202D01*
X134357482Y-97555908D01*
X134357483Y-97555908D01*
X134297883Y-97549501D01*
X134297881Y-97549500D01*
X134297873Y-97549500D01*
X134297864Y-97549500D01*
X132502129Y-97549500D01*
X132502123Y-97549501D01*
X132442516Y-97555908D01*
X132307671Y-97606202D01*
X132307664Y-97606206D01*
X132192455Y-97692452D01*
X132192452Y-97692455D01*
X132106206Y-97807664D01*
X132106202Y-97807671D01*
X132055908Y-97942517D01*
X132049501Y-98002116D01*
X132049501Y-98002123D01*
X132049500Y-98002135D01*
X114600500Y-98002135D01*
X114600500Y-85927135D01*
X159364500Y-85927135D01*
X159364500Y-87722870D01*
X159364501Y-87722876D01*
X159370908Y-87782483D01*
X159421202Y-87917328D01*
X159421206Y-87917335D01*
X159507452Y-88032544D01*
X159507455Y-88032547D01*
X159622664Y-88118793D01*
X159622671Y-88118797D01*
X159667618Y-88135561D01*
X159757517Y-88169091D01*
X159817127Y-88175500D01*
X159827685Y-88175499D01*
X159894723Y-88195179D01*
X159915372Y-88211818D01*
X160585591Y-88882037D01*
X160522007Y-88899075D01*
X160407993Y-88964901D01*
X160314901Y-89057993D01*
X160249075Y-89172007D01*
X160232037Y-89235591D01*
X159599728Y-88603282D01*
X159599727Y-88603282D01*
X159560380Y-88657439D01*
X159463904Y-88846782D01*
X159398242Y-89048869D01*
X159398242Y-89048872D01*
X159365000Y-89258753D01*
X159365000Y-89471246D01*
X159398242Y-89681127D01*
X159398242Y-89681130D01*
X159463904Y-89883217D01*
X159560375Y-90072550D01*
X159599728Y-90126716D01*
X160232037Y-89494408D01*
X160249075Y-89557993D01*
X160314901Y-89672007D01*
X160407993Y-89765099D01*
X160522007Y-89830925D01*
X160585590Y-89847962D01*
X159953282Y-90480269D01*
X159953282Y-90480270D01*
X160007449Y-90519624D01*
X160196782Y-90616095D01*
X160398870Y-90681757D01*
X160608754Y-90715000D01*
X160821246Y-90715000D01*
X161031127Y-90681757D01*
X161031130Y-90681757D01*
X161233217Y-90616095D01*
X161422554Y-90519622D01*
X161476716Y-90480270D01*
X161476717Y-90480270D01*
X160844408Y-89847962D01*
X160907993Y-89830925D01*
X161022007Y-89765099D01*
X161115099Y-89672007D01*
X161180925Y-89557993D01*
X161197962Y-89494408D01*
X161830270Y-90126717D01*
X161830270Y-90126716D01*
X161869622Y-90072554D01*
X161966095Y-89883217D01*
X162031757Y-89681130D01*
X162031757Y-89681127D01*
X162065000Y-89471246D01*
X162065000Y-89258753D01*
X162031757Y-89048872D01*
X162031757Y-89048869D01*
X161966095Y-88846782D01*
X161869624Y-88657449D01*
X161830270Y-88603282D01*
X161830269Y-88603282D01*
X161197962Y-89235590D01*
X161180925Y-89172007D01*
X161115099Y-89057993D01*
X161022007Y-88964901D01*
X160907993Y-88899075D01*
X160844409Y-88882037D01*
X161514627Y-88211818D01*
X161575950Y-88178333D01*
X161602307Y-88175499D01*
X161612872Y-88175499D01*
X161672483Y-88169091D01*
X161807331Y-88118796D01*
X161922546Y-88032546D01*
X162008796Y-87917331D01*
X162059091Y-87782483D01*
X162065500Y-87722873D01*
X162065499Y-85927128D01*
X162059091Y-85867517D01*
X162008796Y-85732669D01*
X162008795Y-85732668D01*
X162008793Y-85732664D01*
X161922547Y-85617455D01*
X161922544Y-85617452D01*
X161807335Y-85531206D01*
X161807328Y-85531202D01*
X161672482Y-85480908D01*
X161672483Y-85480908D01*
X161612883Y-85474501D01*
X161612881Y-85474500D01*
X161612873Y-85474500D01*
X161612864Y-85474500D01*
X159817129Y-85474500D01*
X159817123Y-85474501D01*
X159757516Y-85480908D01*
X159622671Y-85531202D01*
X159622664Y-85531206D01*
X159507455Y-85617452D01*
X159507452Y-85617455D01*
X159421206Y-85732664D01*
X159421202Y-85732671D01*
X159370908Y-85867517D01*
X159364501Y-85927116D01*
X159364501Y-85927123D01*
X159364500Y-85927135D01*
X114600500Y-85927135D01*
X114600500Y-82302135D01*
X136649500Y-82302135D01*
X136649500Y-84097870D01*
X136649501Y-84097876D01*
X136655908Y-84157483D01*
X136706202Y-84292328D01*
X136706206Y-84292335D01*
X136792452Y-84407544D01*
X136792455Y-84407547D01*
X136907664Y-84493793D01*
X136907671Y-84493797D01*
X137042517Y-84544091D01*
X137042516Y-84544091D01*
X137049444Y-84544835D01*
X137102127Y-84550500D01*
X138897872Y-84550499D01*
X138957483Y-84544091D01*
X139092331Y-84493796D01*
X139207546Y-84407546D01*
X139293796Y-84292331D01*
X139342810Y-84160916D01*
X139384681Y-84104984D01*
X139450145Y-84080566D01*
X139518418Y-84095417D01*
X139546673Y-84116569D01*
X139660213Y-84230109D01*
X139832179Y-84355048D01*
X139832181Y-84355049D01*
X139832184Y-84355051D01*
X140021588Y-84451557D01*
X140223757Y-84517246D01*
X140433713Y-84550500D01*
X140433714Y-84550500D01*
X140646286Y-84550500D01*
X140646287Y-84550500D01*
X140856243Y-84517246D01*
X141058412Y-84451557D01*
X141247816Y-84355051D01*
X141334138Y-84292335D01*
X141419786Y-84230109D01*
X141419788Y-84230106D01*
X141419792Y-84230104D01*
X141570104Y-84079792D01*
X141570106Y-84079788D01*
X141570109Y-84079786D01*
X141695048Y-83907820D01*
X141695047Y-83907820D01*
X141695051Y-83907816D01*
X141699514Y-83899054D01*
X141747488Y-83848259D01*
X141815308Y-83831463D01*
X141881444Y-83853999D01*
X141920486Y-83899056D01*
X141924951Y-83907820D01*
X142049890Y-84079786D01*
X142200213Y-84230109D01*
X142372179Y-84355048D01*
X142372181Y-84355049D01*
X142372184Y-84355051D01*
X142561588Y-84451557D01*
X142763757Y-84517246D01*
X142973713Y-84550500D01*
X142973714Y-84550500D01*
X143186286Y-84550500D01*
X143186287Y-84550500D01*
X143396243Y-84517246D01*
X143598412Y-84451557D01*
X143787816Y-84355051D01*
X143874138Y-84292335D01*
X143959786Y-84230109D01*
X143959788Y-84230106D01*
X143959792Y-84230104D01*
X144110104Y-84079792D01*
X144110106Y-84079788D01*
X144110109Y-84079786D01*
X144235048Y-83907820D01*
X144235047Y-83907820D01*
X144235051Y-83907816D01*
X144239514Y-83899054D01*
X144287488Y-83848259D01*
X144355308Y-83831463D01*
X144421444Y-83853999D01*
X144460486Y-83899056D01*
X144464951Y-83907820D01*
X144589890Y-84079786D01*
X144740213Y-84230109D01*
X144912179Y-84355048D01*
X144912181Y-84355049D01*
X144912184Y-84355051D01*
X145101588Y-84451557D01*
X145303757Y-84517246D01*
X145513713Y-84550500D01*
X145513714Y-84550500D01*
X145726286Y-84550500D01*
X145726287Y-84550500D01*
X145936243Y-84517246D01*
X146138412Y-84451557D01*
X146327816Y-84355051D01*
X146414138Y-84292335D01*
X146499786Y-84230109D01*
X146499788Y-84230106D01*
X146499792Y-84230104D01*
X146650104Y-84079792D01*
X146650106Y-84079788D01*
X146650109Y-84079786D01*
X146775048Y-83907820D01*
X146775047Y-83907820D01*
X146775051Y-83907816D01*
X146779514Y-83899054D01*
X146827488Y-83848259D01*
X146895308Y-83831463D01*
X146961444Y-83853999D01*
X147000486Y-83899056D01*
X147004951Y-83907820D01*
X147129890Y-84079786D01*
X147280213Y-84230109D01*
X147452179Y-84355048D01*
X147452181Y-84355049D01*
X147452184Y-84355051D01*
X147641588Y-84451557D01*
X147843757Y-84517246D01*
X148053713Y-84550500D01*
X148053714Y-84550500D01*
X148266286Y-84550500D01*
X148266287Y-84550500D01*
X148476243Y-84517246D01*
X148678412Y-84451557D01*
X148867816Y-84355051D01*
X148954138Y-84292335D01*
X149039786Y-84230109D01*
X149039788Y-84230106D01*
X149039792Y-84230104D01*
X149190104Y-84079792D01*
X149190106Y-84079788D01*
X149190109Y-84079786D01*
X149275890Y-83961717D01*
X149315051Y-83907816D01*
X149319793Y-83898508D01*
X149367763Y-83847711D01*
X149435583Y-83830911D01*
X149501719Y-83853445D01*
X149540763Y-83898500D01*
X149545373Y-83907547D01*
X149584728Y-83961716D01*
X150217037Y-83329408D01*
X150234075Y-83392993D01*
X150299901Y-83507007D01*
X150392993Y-83600099D01*
X150507007Y-83665925D01*
X150570590Y-83682962D01*
X149938282Y-84315269D01*
X149938282Y-84315270D01*
X149992449Y-84354624D01*
X150181782Y-84451095D01*
X150383870Y-84516757D01*
X150593754Y-84550000D01*
X150806246Y-84550000D01*
X151016127Y-84516757D01*
X151016130Y-84516757D01*
X151218217Y-84451095D01*
X151407554Y-84354622D01*
X151461716Y-84315270D01*
X151461717Y-84315270D01*
X150829408Y-83682962D01*
X150892993Y-83665925D01*
X151007007Y-83600099D01*
X151100099Y-83507007D01*
X151165925Y-83392993D01*
X151182962Y-83329409D01*
X151815270Y-83961717D01*
X151815270Y-83961716D01*
X151854622Y-83907554D01*
X151951095Y-83718217D01*
X152016757Y-83516130D01*
X152016757Y-83516127D01*
X152050000Y-83306246D01*
X152050000Y-83093753D01*
X152016757Y-82883872D01*
X152016757Y-82883869D01*
X151951095Y-82681782D01*
X151854624Y-82492449D01*
X151815270Y-82438282D01*
X151815269Y-82438282D01*
X151182962Y-83070590D01*
X151165925Y-83007007D01*
X151100099Y-82892993D01*
X151007007Y-82799901D01*
X150892993Y-82734075D01*
X150829409Y-82717037D01*
X151461716Y-82084728D01*
X151407550Y-82045375D01*
X151218217Y-81948904D01*
X151016129Y-81883242D01*
X150806246Y-81850000D01*
X150593754Y-81850000D01*
X150383872Y-81883242D01*
X150383869Y-81883242D01*
X150181782Y-81948904D01*
X149992439Y-82045380D01*
X149938282Y-82084727D01*
X149938282Y-82084728D01*
X150570591Y-82717037D01*
X150507007Y-82734075D01*
X150392993Y-82799901D01*
X150299901Y-82892993D01*
X150234075Y-83007007D01*
X150217037Y-83070591D01*
X149584728Y-82438282D01*
X149584727Y-82438282D01*
X149545380Y-82492440D01*
X149545376Y-82492446D01*
X149540760Y-82501505D01*
X149492781Y-82552297D01*
X149424959Y-82569087D01*
X149358826Y-82546543D01*
X149319794Y-82501493D01*
X149315051Y-82492184D01*
X149315049Y-82492181D01*
X149315048Y-82492179D01*
X149190109Y-82320213D01*
X149039786Y-82169890D01*
X148867820Y-82044951D01*
X148678414Y-81948444D01*
X148678413Y-81948443D01*
X148678412Y-81948443D01*
X148476243Y-81882754D01*
X148476241Y-81882753D01*
X148476240Y-81882753D01*
X148314957Y-81857208D01*
X148266287Y-81849500D01*
X148053713Y-81849500D01*
X148005042Y-81857208D01*
X147843760Y-81882753D01*
X147641585Y-81948444D01*
X147452179Y-82044951D01*
X147280213Y-82169890D01*
X147129890Y-82320213D01*
X147004949Y-82492182D01*
X147000484Y-82500946D01*
X146952509Y-82551742D01*
X146884688Y-82568536D01*
X146818553Y-82545998D01*
X146779516Y-82500946D01*
X146775050Y-82492182D01*
X146650109Y-82320213D01*
X146499786Y-82169890D01*
X146327820Y-82044951D01*
X146138414Y-81948444D01*
X146138413Y-81948443D01*
X146138412Y-81948443D01*
X145936243Y-81882754D01*
X145936241Y-81882753D01*
X145936240Y-81882753D01*
X145774957Y-81857208D01*
X145726287Y-81849500D01*
X145513713Y-81849500D01*
X145465042Y-81857208D01*
X145303760Y-81882753D01*
X145101585Y-81948444D01*
X144912179Y-82044951D01*
X144740213Y-82169890D01*
X144589890Y-82320213D01*
X144464949Y-82492182D01*
X144460484Y-82500946D01*
X144412509Y-82551742D01*
X144344688Y-82568536D01*
X144278553Y-82545998D01*
X144239516Y-82500946D01*
X144235050Y-82492182D01*
X144110109Y-82320213D01*
X143959786Y-82169890D01*
X143787820Y-82044951D01*
X143598414Y-81948444D01*
X143598413Y-81948443D01*
X143598412Y-81948443D01*
X143396243Y-81882754D01*
X143396241Y-81882753D01*
X143396240Y-81882753D01*
X143234957Y-81857208D01*
X143186287Y-81849500D01*
X142973713Y-81849500D01*
X142925042Y-81857208D01*
X142763760Y-81882753D01*
X142561585Y-81948444D01*
X142372179Y-82044951D01*
X142200213Y-82169890D01*
X142049890Y-82320213D01*
X141924949Y-82492182D01*
X141920484Y-82500946D01*
X141872509Y-82551742D01*
X141804688Y-82568536D01*
X141738553Y-82545998D01*
X141699516Y-82500946D01*
X141695050Y-82492182D01*
X141570109Y-82320213D01*
X141419786Y-82169890D01*
X141247820Y-82044951D01*
X141058414Y-81948444D01*
X141058413Y-81948443D01*
X141058412Y-81948443D01*
X140856243Y-81882754D01*
X140856241Y-81882753D01*
X140856240Y-81882753D01*
X140694957Y-81857208D01*
X140646287Y-81849500D01*
X140433713Y-81849500D01*
X140385042Y-81857208D01*
X140223760Y-81882753D01*
X140021585Y-81948444D01*
X139832179Y-82044951D01*
X139660215Y-82169889D01*
X139546673Y-82283431D01*
X139485350Y-82316915D01*
X139415658Y-82311931D01*
X139359725Y-82270059D01*
X139342810Y-82239082D01*
X139293797Y-82107671D01*
X139293793Y-82107664D01*
X139207547Y-81992455D01*
X139207544Y-81992452D01*
X139092335Y-81906206D01*
X139092328Y-81906202D01*
X138957482Y-81855908D01*
X138957483Y-81855908D01*
X138897883Y-81849501D01*
X138897881Y-81849500D01*
X138897873Y-81849500D01*
X138897864Y-81849500D01*
X137102129Y-81849500D01*
X137102123Y-81849501D01*
X137042516Y-81855908D01*
X136907671Y-81906202D01*
X136907664Y-81906206D01*
X136792455Y-81992452D01*
X136792452Y-81992455D01*
X136706206Y-82107664D01*
X136706202Y-82107671D01*
X136655908Y-82242517D01*
X136649501Y-82302116D01*
X136649500Y-82302135D01*
X114600500Y-82302135D01*
X114600500Y-77593713D01*
X131629500Y-77593713D01*
X131629500Y-77806286D01*
X131662753Y-78016239D01*
X131728444Y-78218414D01*
X131824951Y-78407820D01*
X131949890Y-78579786D01*
X132100213Y-78730109D01*
X132272179Y-78855048D01*
X132272181Y-78855049D01*
X132272184Y-78855051D01*
X132461588Y-78951557D01*
X132663757Y-79017246D01*
X132873713Y-79050500D01*
X132873714Y-79050500D01*
X133086286Y-79050500D01*
X133086287Y-79050500D01*
X133296243Y-79017246D01*
X133498412Y-78951557D01*
X133687816Y-78855051D01*
X133774138Y-78792335D01*
X133859786Y-78730109D01*
X133859788Y-78730106D01*
X133859792Y-78730104D01*
X134010104Y-78579792D01*
X134010106Y-78579788D01*
X134010109Y-78579786D01*
X134135048Y-78407820D01*
X134135047Y-78407820D01*
X134135051Y-78407816D01*
X134139514Y-78399054D01*
X134187488Y-78348259D01*
X134255308Y-78331463D01*
X134321444Y-78353999D01*
X134360486Y-78399056D01*
X134364951Y-78407820D01*
X134489890Y-78579786D01*
X134640213Y-78730109D01*
X134812179Y-78855048D01*
X134812181Y-78855049D01*
X134812184Y-78855051D01*
X135001588Y-78951557D01*
X135203757Y-79017246D01*
X135413713Y-79050500D01*
X135413714Y-79050500D01*
X135626286Y-79050500D01*
X135626287Y-79050500D01*
X135836243Y-79017246D01*
X136038412Y-78951557D01*
X136227816Y-78855051D01*
X136314138Y-78792335D01*
X136399786Y-78730109D01*
X136399788Y-78730106D01*
X136399792Y-78730104D01*
X136550104Y-78579792D01*
X136550106Y-78579788D01*
X136550109Y-78579786D01*
X136675048Y-78407820D01*
X136675047Y-78407820D01*
X136675051Y-78407816D01*
X136679514Y-78399054D01*
X136727488Y-78348259D01*
X136795308Y-78331463D01*
X136861444Y-78353999D01*
X136900486Y-78399056D01*
X136904951Y-78407820D01*
X137029890Y-78579786D01*
X137180213Y-78730109D01*
X137352179Y-78855048D01*
X137352181Y-78855049D01*
X137352184Y-78855051D01*
X137541588Y-78951557D01*
X137743757Y-79017246D01*
X137953713Y-79050500D01*
X137953714Y-79050500D01*
X138166286Y-79050500D01*
X138166287Y-79050500D01*
X138376243Y-79017246D01*
X138578412Y-78951557D01*
X138767816Y-78855051D01*
X138854138Y-78792335D01*
X138939786Y-78730109D01*
X138939788Y-78730106D01*
X138939792Y-78730104D01*
X139090104Y-78579792D01*
X139090106Y-78579788D01*
X139090109Y-78579786D01*
X139215048Y-78407820D01*
X139215047Y-78407820D01*
X139215051Y-78407816D01*
X139219514Y-78399054D01*
X139267488Y-78348259D01*
X139335308Y-78331463D01*
X139401444Y-78353999D01*
X139440486Y-78399056D01*
X139444951Y-78407820D01*
X139569890Y-78579786D01*
X139720213Y-78730109D01*
X139892179Y-78855048D01*
X139892181Y-78855049D01*
X139892184Y-78855051D01*
X140081588Y-78951557D01*
X140283757Y-79017246D01*
X140493713Y-79050500D01*
X140493714Y-79050500D01*
X140706286Y-79050500D01*
X140706287Y-79050500D01*
X140916243Y-79017246D01*
X141118412Y-78951557D01*
X141307816Y-78855051D01*
X141394138Y-78792335D01*
X141479786Y-78730109D01*
X141479788Y-78730106D01*
X141479792Y-78730104D01*
X141630104Y-78579792D01*
X141630106Y-78579788D01*
X141630109Y-78579786D01*
X141755048Y-78407820D01*
X141755047Y-78407820D01*
X141755051Y-78407816D01*
X141759514Y-78399054D01*
X141807488Y-78348259D01*
X141875308Y-78331463D01*
X141941444Y-78353999D01*
X141980486Y-78399056D01*
X141984951Y-78407820D01*
X142109890Y-78579786D01*
X142260213Y-78730109D01*
X142432179Y-78855048D01*
X142432181Y-78855049D01*
X142432184Y-78855051D01*
X142621588Y-78951557D01*
X142823757Y-79017246D01*
X143033713Y-79050500D01*
X143033714Y-79050500D01*
X143246286Y-79050500D01*
X143246287Y-79050500D01*
X143456243Y-79017246D01*
X143658412Y-78951557D01*
X143847816Y-78855051D01*
X143934138Y-78792335D01*
X144019786Y-78730109D01*
X144019788Y-78730106D01*
X144019792Y-78730104D01*
X144170104Y-78579792D01*
X144170106Y-78579788D01*
X144170109Y-78579786D01*
X144295048Y-78407820D01*
X144295047Y-78407820D01*
X144295051Y-78407816D01*
X144299514Y-78399054D01*
X144347488Y-78348259D01*
X144415308Y-78331463D01*
X144481444Y-78353999D01*
X144520486Y-78399056D01*
X144524951Y-78407820D01*
X144649890Y-78579786D01*
X144800213Y-78730109D01*
X144972179Y-78855048D01*
X144972181Y-78855049D01*
X144972184Y-78855051D01*
X145161588Y-78951557D01*
X145363757Y-79017246D01*
X145573713Y-79050500D01*
X145573714Y-79050500D01*
X145786286Y-79050500D01*
X145786287Y-79050500D01*
X145996243Y-79017246D01*
X146198412Y-78951557D01*
X146387816Y-78855051D01*
X146474138Y-78792335D01*
X146559786Y-78730109D01*
X146559788Y-78730106D01*
X146559792Y-78730104D01*
X146710104Y-78579792D01*
X146710106Y-78579788D01*
X146710109Y-78579786D01*
X146835048Y-78407820D01*
X146835047Y-78407820D01*
X146835051Y-78407816D01*
X146839514Y-78399054D01*
X146887488Y-78348259D01*
X146955308Y-78331463D01*
X147021444Y-78353999D01*
X147060486Y-78399056D01*
X147064951Y-78407820D01*
X147189890Y-78579786D01*
X147340213Y-78730109D01*
X147512179Y-78855048D01*
X147512181Y-78855049D01*
X147512184Y-78855051D01*
X147701588Y-78951557D01*
X147903757Y-79017246D01*
X148113713Y-79050500D01*
X148113714Y-79050500D01*
X148326286Y-79050500D01*
X148326287Y-79050500D01*
X148536243Y-79017246D01*
X148738412Y-78951557D01*
X148927816Y-78855051D01*
X149014138Y-78792335D01*
X149099786Y-78730109D01*
X149099788Y-78730106D01*
X149099792Y-78730104D01*
X149250104Y-78579792D01*
X149250106Y-78579788D01*
X149250109Y-78579786D01*
X149375048Y-78407820D01*
X149375047Y-78407820D01*
X149375051Y-78407816D01*
X149379514Y-78399054D01*
X149427488Y-78348259D01*
X149495308Y-78331463D01*
X149561444Y-78353999D01*
X149600486Y-78399056D01*
X149604951Y-78407820D01*
X149729890Y-78579786D01*
X149880213Y-78730109D01*
X150052179Y-78855048D01*
X150052181Y-78855049D01*
X150052184Y-78855051D01*
X150241588Y-78951557D01*
X150443757Y-79017246D01*
X150653713Y-79050500D01*
X150653714Y-79050500D01*
X150866286Y-79050500D01*
X150866287Y-79050500D01*
X151076243Y-79017246D01*
X151278412Y-78951557D01*
X151467816Y-78855051D01*
X151639792Y-78730104D01*
X151753329Y-78616566D01*
X151814648Y-78583084D01*
X151884340Y-78588068D01*
X151940274Y-78629939D01*
X151957189Y-78660917D01*
X152006202Y-78792328D01*
X152006206Y-78792335D01*
X152092452Y-78907544D01*
X152092455Y-78907547D01*
X152207664Y-78993793D01*
X152207671Y-78993797D01*
X152342517Y-79044091D01*
X152342516Y-79044091D01*
X152349444Y-79044835D01*
X152402127Y-79050500D01*
X154197872Y-79050499D01*
X154257483Y-79044091D01*
X154392331Y-78993796D01*
X154507546Y-78907546D01*
X154593796Y-78792331D01*
X154644091Y-78657483D01*
X154650500Y-78597873D01*
X154650499Y-76802128D01*
X154644091Y-76742517D01*
X154638354Y-76727135D01*
X159264500Y-76727135D01*
X159264500Y-78522870D01*
X159264501Y-78522876D01*
X159270908Y-78582483D01*
X159321202Y-78717328D01*
X159321206Y-78717335D01*
X159407452Y-78832544D01*
X159407455Y-78832547D01*
X159522664Y-78918793D01*
X159522671Y-78918797D01*
X159567618Y-78935561D01*
X159657517Y-78969091D01*
X159717127Y-78975500D01*
X159727685Y-78975499D01*
X159794723Y-78995179D01*
X159815372Y-79011818D01*
X160485591Y-79682037D01*
X160422007Y-79699075D01*
X160307993Y-79764901D01*
X160214901Y-79857993D01*
X160149075Y-79972007D01*
X160132037Y-80035591D01*
X159499728Y-79403282D01*
X159499727Y-79403282D01*
X159460380Y-79457439D01*
X159363904Y-79646782D01*
X159298242Y-79848869D01*
X159298242Y-79848872D01*
X159265000Y-80058753D01*
X159265000Y-80271246D01*
X159298242Y-80481127D01*
X159298242Y-80481130D01*
X159363904Y-80683217D01*
X159460375Y-80872550D01*
X159499728Y-80926716D01*
X160132037Y-80294408D01*
X160149075Y-80357993D01*
X160214901Y-80472007D01*
X160307993Y-80565099D01*
X160422007Y-80630925D01*
X160485590Y-80647962D01*
X159853282Y-81280269D01*
X159853282Y-81280270D01*
X159907449Y-81319624D01*
X160096782Y-81416095D01*
X160298870Y-81481757D01*
X160508754Y-81515000D01*
X160721246Y-81515000D01*
X160931127Y-81481757D01*
X160931130Y-81481757D01*
X161133217Y-81416095D01*
X161322554Y-81319622D01*
X161376716Y-81280270D01*
X161376717Y-81280270D01*
X160744408Y-80647962D01*
X160807993Y-80630925D01*
X160922007Y-80565099D01*
X161015099Y-80472007D01*
X161080925Y-80357993D01*
X161097962Y-80294408D01*
X161730270Y-80926717D01*
X161730270Y-80926716D01*
X161769622Y-80872554D01*
X161866095Y-80683217D01*
X161931757Y-80481130D01*
X161931757Y-80481127D01*
X161965000Y-80271246D01*
X161965000Y-80058753D01*
X161931757Y-79848872D01*
X161931757Y-79848869D01*
X161866095Y-79646782D01*
X161769624Y-79457449D01*
X161730270Y-79403282D01*
X161730269Y-79403282D01*
X161097962Y-80035590D01*
X161080925Y-79972007D01*
X161015099Y-79857993D01*
X160922007Y-79764901D01*
X160807993Y-79699075D01*
X160744409Y-79682037D01*
X161414627Y-79011818D01*
X161475950Y-78978333D01*
X161502307Y-78975499D01*
X161512872Y-78975499D01*
X161572483Y-78969091D01*
X161707331Y-78918796D01*
X161822546Y-78832546D01*
X161908796Y-78717331D01*
X161959091Y-78582483D01*
X161965500Y-78522873D01*
X161965499Y-76727128D01*
X161959091Y-76667517D01*
X161936767Y-76607664D01*
X161908797Y-76532671D01*
X161908793Y-76532664D01*
X161822547Y-76417455D01*
X161822544Y-76417452D01*
X161707335Y-76331206D01*
X161707328Y-76331202D01*
X161572482Y-76280908D01*
X161572483Y-76280908D01*
X161512883Y-76274501D01*
X161512881Y-76274500D01*
X161512873Y-76274500D01*
X161512864Y-76274500D01*
X159717129Y-76274500D01*
X159717123Y-76274501D01*
X159657516Y-76280908D01*
X159522671Y-76331202D01*
X159522664Y-76331206D01*
X159407455Y-76417452D01*
X159407452Y-76417455D01*
X159321206Y-76532664D01*
X159321202Y-76532671D01*
X159270908Y-76667517D01*
X159264501Y-76727116D01*
X159264501Y-76727123D01*
X159264500Y-76727135D01*
X154638354Y-76727135D01*
X154638351Y-76727127D01*
X154593797Y-76607671D01*
X154593793Y-76607664D01*
X154507547Y-76492455D01*
X154507544Y-76492452D01*
X154392335Y-76406206D01*
X154392328Y-76406202D01*
X154257482Y-76355908D01*
X154257483Y-76355908D01*
X154197883Y-76349501D01*
X154197881Y-76349500D01*
X154197873Y-76349500D01*
X154197864Y-76349500D01*
X152402129Y-76349500D01*
X152402123Y-76349501D01*
X152342516Y-76355908D01*
X152207671Y-76406202D01*
X152207664Y-76406206D01*
X152092455Y-76492452D01*
X152092452Y-76492455D01*
X152006206Y-76607664D01*
X152006203Y-76607669D01*
X151957189Y-76739083D01*
X151915317Y-76795016D01*
X151849853Y-76819433D01*
X151781580Y-76804581D01*
X151753326Y-76783430D01*
X151639786Y-76669890D01*
X151467820Y-76544951D01*
X151278414Y-76448444D01*
X151278413Y-76448443D01*
X151278412Y-76448443D01*
X151076243Y-76382754D01*
X151076241Y-76382753D01*
X151076240Y-76382753D01*
X150914957Y-76357208D01*
X150866287Y-76349500D01*
X150653713Y-76349500D01*
X150605042Y-76357208D01*
X150443760Y-76382753D01*
X150241585Y-76448444D01*
X150052179Y-76544951D01*
X149880213Y-76669890D01*
X149729890Y-76820213D01*
X149604949Y-76992182D01*
X149600484Y-77000946D01*
X149552509Y-77051742D01*
X149484688Y-77068536D01*
X149418553Y-77045998D01*
X149379516Y-77000946D01*
X149375050Y-76992182D01*
X149250109Y-76820213D01*
X149099786Y-76669890D01*
X148927820Y-76544951D01*
X148738414Y-76448444D01*
X148738413Y-76448443D01*
X148738412Y-76448443D01*
X148536243Y-76382754D01*
X148536241Y-76382753D01*
X148536240Y-76382753D01*
X148374957Y-76357208D01*
X148326287Y-76349500D01*
X148113713Y-76349500D01*
X148065042Y-76357208D01*
X147903760Y-76382753D01*
X147701585Y-76448444D01*
X147512179Y-76544951D01*
X147340213Y-76669890D01*
X147189890Y-76820213D01*
X147064949Y-76992182D01*
X147060484Y-77000946D01*
X147012509Y-77051742D01*
X146944688Y-77068536D01*
X146878553Y-77045998D01*
X146839516Y-77000946D01*
X146835050Y-76992182D01*
X146710109Y-76820213D01*
X146559786Y-76669890D01*
X146387820Y-76544951D01*
X146198414Y-76448444D01*
X146198413Y-76448443D01*
X146198412Y-76448443D01*
X145996243Y-76382754D01*
X145996241Y-76382753D01*
X145996240Y-76382753D01*
X145834957Y-76357208D01*
X145786287Y-76349500D01*
X145573713Y-76349500D01*
X145525042Y-76357208D01*
X145363760Y-76382753D01*
X145161585Y-76448444D01*
X144972179Y-76544951D01*
X144800213Y-76669890D01*
X144649890Y-76820213D01*
X144524949Y-76992182D01*
X144520484Y-77000946D01*
X144472509Y-77051742D01*
X144404688Y-77068536D01*
X144338553Y-77045998D01*
X144299516Y-77000946D01*
X144295050Y-76992182D01*
X144170109Y-76820213D01*
X144019786Y-76669890D01*
X143847820Y-76544951D01*
X143658414Y-76448444D01*
X143658413Y-76448443D01*
X143658412Y-76448443D01*
X143456243Y-76382754D01*
X143456241Y-76382753D01*
X143456240Y-76382753D01*
X143294957Y-76357208D01*
X143246287Y-76349500D01*
X143033713Y-76349500D01*
X142985042Y-76357208D01*
X142823760Y-76382753D01*
X142621585Y-76448444D01*
X142432179Y-76544951D01*
X142260213Y-76669890D01*
X142109890Y-76820213D01*
X141984949Y-76992182D01*
X141980484Y-77000946D01*
X141932509Y-77051742D01*
X141864688Y-77068536D01*
X141798553Y-77045998D01*
X141759516Y-77000946D01*
X141755050Y-76992182D01*
X141630109Y-76820213D01*
X141479786Y-76669890D01*
X141307820Y-76544951D01*
X141118414Y-76448444D01*
X141118413Y-76448443D01*
X141118412Y-76448443D01*
X140916243Y-76382754D01*
X140916241Y-76382753D01*
X140916240Y-76382753D01*
X140754957Y-76357208D01*
X140706287Y-76349500D01*
X140493713Y-76349500D01*
X140445042Y-76357208D01*
X140283760Y-76382753D01*
X140081585Y-76448444D01*
X139892179Y-76544951D01*
X139720213Y-76669890D01*
X139569890Y-76820213D01*
X139444949Y-76992182D01*
X139440484Y-77000946D01*
X139392509Y-77051742D01*
X139324688Y-77068536D01*
X139258553Y-77045998D01*
X139219516Y-77000946D01*
X139215050Y-76992182D01*
X139090109Y-76820213D01*
X138939786Y-76669890D01*
X138767820Y-76544951D01*
X138578414Y-76448444D01*
X138578413Y-76448443D01*
X138578412Y-76448443D01*
X138376243Y-76382754D01*
X138376241Y-76382753D01*
X138376240Y-76382753D01*
X138214957Y-76357208D01*
X138166287Y-76349500D01*
X137953713Y-76349500D01*
X137905042Y-76357208D01*
X137743760Y-76382753D01*
X137541585Y-76448444D01*
X137352179Y-76544951D01*
X137180213Y-76669890D01*
X137029890Y-76820213D01*
X136904949Y-76992182D01*
X136900484Y-77000946D01*
X136852509Y-77051742D01*
X136784688Y-77068536D01*
X136718553Y-77045998D01*
X136679516Y-77000946D01*
X136675050Y-76992182D01*
X136550109Y-76820213D01*
X136399786Y-76669890D01*
X136227820Y-76544951D01*
X136038414Y-76448444D01*
X136038413Y-76448443D01*
X136038412Y-76448443D01*
X135836243Y-76382754D01*
X135836241Y-76382753D01*
X135836240Y-76382753D01*
X135674957Y-76357208D01*
X135626287Y-76349500D01*
X135413713Y-76349500D01*
X135365042Y-76357208D01*
X135203760Y-76382753D01*
X135001585Y-76448444D01*
X134812179Y-76544951D01*
X134640213Y-76669890D01*
X134489890Y-76820213D01*
X134364949Y-76992182D01*
X134360484Y-77000946D01*
X134312509Y-77051742D01*
X134244688Y-77068536D01*
X134178553Y-77045998D01*
X134139516Y-77000946D01*
X134135050Y-76992182D01*
X134010109Y-76820213D01*
X133859786Y-76669890D01*
X133687820Y-76544951D01*
X133498414Y-76448444D01*
X133498413Y-76448443D01*
X133498412Y-76448443D01*
X133296243Y-76382754D01*
X133296241Y-76382753D01*
X133296240Y-76382753D01*
X133134957Y-76357208D01*
X133086287Y-76349500D01*
X132873713Y-76349500D01*
X132825042Y-76357208D01*
X132663760Y-76382753D01*
X132461585Y-76448444D01*
X132272179Y-76544951D01*
X132100213Y-76669890D01*
X131949890Y-76820213D01*
X131824951Y-76992179D01*
X131728444Y-77181585D01*
X131662753Y-77383760D01*
X131629500Y-77593713D01*
X114600500Y-77593713D01*
X114600500Y-72009983D01*
X134399500Y-72009983D01*
X134399500Y-73210001D01*
X134399501Y-73210018D01*
X134410000Y-73312796D01*
X134410001Y-73312799D01*
X134429057Y-73370305D01*
X134465186Y-73479334D01*
X134557288Y-73628656D01*
X134681344Y-73752712D01*
X134830666Y-73844814D01*
X134997203Y-73899999D01*
X135099991Y-73910500D01*
X136300008Y-73910499D01*
X136402797Y-73899999D01*
X136569334Y-73844814D01*
X136718656Y-73752712D01*
X136842712Y-73628656D01*
X136844461Y-73625819D01*
X136846169Y-73624283D01*
X136847193Y-73622989D01*
X136847414Y-73623163D01*
X136896406Y-73579096D01*
X136965368Y-73567872D01*
X137029451Y-73595713D01*
X137055537Y-73625817D01*
X137057288Y-73628656D01*
X137181344Y-73752712D01*
X137330666Y-73844814D01*
X137497203Y-73899999D01*
X137599991Y-73910500D01*
X138800008Y-73910499D01*
X138902797Y-73899999D01*
X139069334Y-73844814D01*
X139218656Y-73752712D01*
X139342712Y-73628656D01*
X139344461Y-73625819D01*
X139346169Y-73624283D01*
X139347193Y-73622989D01*
X139347414Y-73623163D01*
X139396406Y-73579096D01*
X139465368Y-73567872D01*
X139529451Y-73595713D01*
X139555537Y-73625817D01*
X139557288Y-73628656D01*
X139681344Y-73752712D01*
X139830666Y-73844814D01*
X139997203Y-73899999D01*
X140099991Y-73910500D01*
X141300008Y-73910499D01*
X141402797Y-73899999D01*
X141569334Y-73844814D01*
X141718656Y-73752712D01*
X141842712Y-73628656D01*
X141844461Y-73625819D01*
X141846169Y-73624283D01*
X141847193Y-73622989D01*
X141847414Y-73623163D01*
X141896406Y-73579096D01*
X141965368Y-73567872D01*
X142029451Y-73595713D01*
X142055537Y-73625817D01*
X142057288Y-73628656D01*
X142181344Y-73752712D01*
X142330666Y-73844814D01*
X142497203Y-73899999D01*
X142599991Y-73910500D01*
X143800008Y-73910499D01*
X143902797Y-73899999D01*
X144069334Y-73844814D01*
X144218656Y-73752712D01*
X144342712Y-73628656D01*
X144344461Y-73625819D01*
X144346169Y-73624283D01*
X144347193Y-73622989D01*
X144347414Y-73623163D01*
X144396406Y-73579096D01*
X144465368Y-73567872D01*
X144529451Y-73595713D01*
X144555537Y-73625817D01*
X144557288Y-73628656D01*
X144681344Y-73752712D01*
X144830666Y-73844814D01*
X144997203Y-73899999D01*
X145099991Y-73910500D01*
X146300008Y-73910499D01*
X146402797Y-73899999D01*
X146569334Y-73844814D01*
X146718656Y-73752712D01*
X146842712Y-73628656D01*
X146934814Y-73479334D01*
X146989999Y-73312797D01*
X147000500Y-73210009D01*
X147000499Y-72425513D01*
X148599500Y-72425513D01*
X148599500Y-72614486D01*
X148629059Y-72801118D01*
X148687454Y-72980836D01*
X148768008Y-73138930D01*
X148773240Y-73149199D01*
X148884310Y-73302073D01*
X149017927Y-73435690D01*
X149170801Y-73546760D01*
X149212236Y-73567872D01*
X149339163Y-73632545D01*
X149339165Y-73632545D01*
X149339168Y-73632547D01*
X149435497Y-73663846D01*
X149518881Y-73690940D01*
X149705514Y-73720500D01*
X149705519Y-73720500D01*
X149894486Y-73720500D01*
X150081118Y-73690940D01*
X150260832Y-73632547D01*
X150429199Y-73546760D01*
X150582073Y-73435690D01*
X150715690Y-73302073D01*
X150826760Y-73149199D01*
X150912547Y-72980832D01*
X150912546Y-72980832D01*
X150914759Y-72976491D01*
X150916794Y-72977528D01*
X150954672Y-72930469D01*
X151020953Y-72908365D01*
X151088662Y-72925604D01*
X151135937Y-72975988D01*
X151165548Y-73034103D01*
X151173240Y-73049199D01*
X151284310Y-73202073D01*
X151417927Y-73335690D01*
X151570801Y-73446760D01*
X151634731Y-73479334D01*
X151739163Y-73532545D01*
X151739165Y-73532545D01*
X151739168Y-73532547D01*
X151782908Y-73546759D01*
X151918881Y-73590940D01*
X152105514Y-73620500D01*
X152105519Y-73620500D01*
X152294486Y-73620500D01*
X152481118Y-73590940D01*
X152660832Y-73532547D01*
X152689614Y-73517882D01*
X153845669Y-73517882D01*
X153845670Y-73517883D01*
X153871059Y-73536329D01*
X154039362Y-73622085D01*
X154218997Y-73680451D01*
X154405553Y-73710000D01*
X154594447Y-73710000D01*
X154781002Y-73680451D01*
X154960637Y-73622085D01*
X155128937Y-73536331D01*
X155154328Y-73517883D01*
X155154328Y-73517882D01*
X154500001Y-72863554D01*
X154500000Y-72863554D01*
X153845669Y-73517882D01*
X152689614Y-73517882D01*
X152829199Y-73446760D01*
X152982073Y-73335690D01*
X153115690Y-73202073D01*
X153226075Y-73050140D01*
X153281404Y-73007476D01*
X153351017Y-73001497D01*
X153412812Y-73034103D01*
X153436876Y-73066731D01*
X153473664Y-73138930D01*
X153492116Y-73164328D01*
X154146446Y-72510000D01*
X154146446Y-72509999D01*
X154100369Y-72463922D01*
X154150000Y-72463922D01*
X154150000Y-72556078D01*
X154173852Y-72645095D01*
X154219930Y-72724905D01*
X154285095Y-72790070D01*
X154364905Y-72836148D01*
X154453922Y-72860000D01*
X154546078Y-72860000D01*
X154635095Y-72836148D01*
X154714905Y-72790070D01*
X154780070Y-72724905D01*
X154826148Y-72645095D01*
X154850000Y-72556078D01*
X154850000Y-72509999D01*
X154853554Y-72509999D01*
X154853554Y-72510000D01*
X155507882Y-73164328D01*
X155507883Y-73164328D01*
X155526333Y-73138935D01*
X155526333Y-73138934D01*
X155586686Y-73020485D01*
X155634660Y-72969688D01*
X155702481Y-72952893D01*
X155768616Y-72975430D01*
X155807656Y-73020484D01*
X155868008Y-73138930D01*
X155873240Y-73149199D01*
X155984310Y-73302073D01*
X156117927Y-73435690D01*
X156270801Y-73546760D01*
X156312236Y-73567872D01*
X156439163Y-73632545D01*
X156439165Y-73632545D01*
X156439168Y-73632547D01*
X156535497Y-73663846D01*
X156618881Y-73690940D01*
X156805514Y-73720500D01*
X156805519Y-73720500D01*
X156994486Y-73720500D01*
X157181118Y-73690940D01*
X157360832Y-73632547D01*
X157529199Y-73546760D01*
X157682073Y-73435690D01*
X157815690Y-73302073D01*
X157926760Y-73149199D01*
X158012547Y-72980832D01*
X158070940Y-72801118D01*
X158072690Y-72790070D01*
X158100500Y-72614486D01*
X158100500Y-72425513D01*
X158070940Y-72238881D01*
X158012545Y-72059163D01*
X157947204Y-71930925D01*
X157926760Y-71890801D01*
X157815690Y-71737927D01*
X157682073Y-71604310D01*
X157529199Y-71493240D01*
X157454008Y-71454928D01*
X157360836Y-71407454D01*
X157181118Y-71349059D01*
X156994486Y-71319500D01*
X156994481Y-71319500D01*
X156805519Y-71319500D01*
X156805514Y-71319500D01*
X156618881Y-71349059D01*
X156439163Y-71407454D01*
X156270800Y-71493240D01*
X156183579Y-71556610D01*
X156117927Y-71604310D01*
X156117925Y-71604312D01*
X156117924Y-71604312D01*
X155984312Y-71737924D01*
X155984312Y-71737925D01*
X155984310Y-71737927D01*
X155952923Y-71781127D01*
X155873240Y-71890800D01*
X155812752Y-72009515D01*
X155764777Y-72060311D01*
X155696956Y-72077106D01*
X155630821Y-72054568D01*
X155591782Y-72009515D01*
X155526329Y-71881059D01*
X155507883Y-71855670D01*
X155507882Y-71855669D01*
X154853554Y-72509999D01*
X154850000Y-72509999D01*
X154850000Y-72463922D01*
X154826148Y-72374905D01*
X154780070Y-72295095D01*
X154714905Y-72229930D01*
X154635095Y-72183852D01*
X154546078Y-72160000D01*
X154453922Y-72160000D01*
X154364905Y-72183852D01*
X154285095Y-72229930D01*
X154219930Y-72295095D01*
X154173852Y-72374905D01*
X154150000Y-72463922D01*
X154100369Y-72463922D01*
X153492116Y-71855669D01*
X153492114Y-71855670D01*
X153474510Y-71879902D01*
X153419181Y-71922568D01*
X153349568Y-71928549D01*
X153287772Y-71895944D01*
X153263706Y-71863312D01*
X153226761Y-71790802D01*
X153190336Y-71740668D01*
X153115690Y-71637927D01*
X152982073Y-71504310D01*
X152979053Y-71502116D01*
X153845669Y-71502116D01*
X154500000Y-72156446D01*
X154500001Y-72156446D01*
X155154328Y-71502116D01*
X155128933Y-71483666D01*
X154960637Y-71397914D01*
X154781002Y-71339548D01*
X154594447Y-71310000D01*
X154405553Y-71310000D01*
X154218997Y-71339548D01*
X154039362Y-71397914D01*
X153871060Y-71483669D01*
X153845670Y-71502116D01*
X153845669Y-71502116D01*
X152979053Y-71502116D01*
X152829199Y-71393240D01*
X152793764Y-71375185D01*
X152660836Y-71307454D01*
X152481118Y-71249059D01*
X152294486Y-71219500D01*
X152294481Y-71219500D01*
X152105519Y-71219500D01*
X152105514Y-71219500D01*
X151918881Y-71249059D01*
X151739163Y-71307454D01*
X151570800Y-71393240D01*
X151483579Y-71456610D01*
X151417927Y-71504310D01*
X151417925Y-71504312D01*
X151417924Y-71504312D01*
X151284312Y-71637924D01*
X151284312Y-71637925D01*
X151284310Y-71637927D01*
X151236610Y-71703579D01*
X151173240Y-71790800D01*
X151085241Y-71963509D01*
X151083260Y-71962499D01*
X151045083Y-72009700D01*
X150978749Y-72031645D01*
X150911081Y-72014243D01*
X150864062Y-71964011D01*
X150863292Y-71962499D01*
X150826760Y-71890801D01*
X150715690Y-71737927D01*
X150582073Y-71604310D01*
X150429199Y-71493240D01*
X150410409Y-71483666D01*
X150260836Y-71407454D01*
X150081118Y-71349059D01*
X149894486Y-71319500D01*
X149894481Y-71319500D01*
X149705519Y-71319500D01*
X149705514Y-71319500D01*
X149518881Y-71349059D01*
X149339163Y-71407454D01*
X149170800Y-71493240D01*
X149083579Y-71556610D01*
X149017927Y-71604310D01*
X149017925Y-71604312D01*
X149017924Y-71604312D01*
X148884312Y-71737924D01*
X148884312Y-71737925D01*
X148884310Y-71737927D01*
X148852923Y-71781127D01*
X148773240Y-71890800D01*
X148687454Y-72059163D01*
X148629059Y-72238881D01*
X148599500Y-72425513D01*
X147000499Y-72425513D01*
X147000499Y-72009992D01*
X146989999Y-71907203D01*
X146934814Y-71740666D01*
X146842712Y-71591344D01*
X146718656Y-71467288D01*
X146606182Y-71397914D01*
X146569336Y-71375187D01*
X146569331Y-71375185D01*
X146567862Y-71374698D01*
X146402797Y-71320001D01*
X146402795Y-71320000D01*
X146300010Y-71309500D01*
X145099998Y-71309500D01*
X145099981Y-71309501D01*
X144997203Y-71320000D01*
X144997200Y-71320001D01*
X144830668Y-71375185D01*
X144830663Y-71375187D01*
X144681342Y-71467289D01*
X144557285Y-71591346D01*
X144555537Y-71594182D01*
X144553829Y-71595717D01*
X144552807Y-71597011D01*
X144552585Y-71596836D01*
X144503589Y-71640905D01*
X144434626Y-71652126D01*
X144370544Y-71624282D01*
X144344463Y-71594182D01*
X144342714Y-71591346D01*
X144218657Y-71467289D01*
X144218656Y-71467288D01*
X144106182Y-71397914D01*
X144069336Y-71375187D01*
X144069331Y-71375185D01*
X144067862Y-71374698D01*
X143902797Y-71320001D01*
X143902795Y-71320000D01*
X143800010Y-71309500D01*
X142599998Y-71309500D01*
X142599981Y-71309501D01*
X142497203Y-71320000D01*
X142497200Y-71320001D01*
X142330668Y-71375185D01*
X142330663Y-71375187D01*
X142181342Y-71467289D01*
X142057285Y-71591346D01*
X142055537Y-71594182D01*
X142053829Y-71595717D01*
X142052807Y-71597011D01*
X142052585Y-71596836D01*
X142003589Y-71640905D01*
X141934626Y-71652126D01*
X141870544Y-71624282D01*
X141844463Y-71594182D01*
X141842714Y-71591346D01*
X141718657Y-71467289D01*
X141718656Y-71467288D01*
X141606182Y-71397914D01*
X141569336Y-71375187D01*
X141569331Y-71375185D01*
X141567862Y-71374698D01*
X141402797Y-71320001D01*
X141402795Y-71320000D01*
X141300010Y-71309500D01*
X140099998Y-71309500D01*
X140099981Y-71309501D01*
X139997203Y-71320000D01*
X139997200Y-71320001D01*
X139830668Y-71375185D01*
X139830663Y-71375187D01*
X139681342Y-71467289D01*
X139557285Y-71591346D01*
X139555537Y-71594182D01*
X139553829Y-71595717D01*
X139552807Y-71597011D01*
X139552585Y-71596836D01*
X139503589Y-71640905D01*
X139434626Y-71652126D01*
X139370544Y-71624282D01*
X139344463Y-71594182D01*
X139342714Y-71591346D01*
X139218657Y-71467289D01*
X139218656Y-71467288D01*
X139106182Y-71397914D01*
X139069336Y-71375187D01*
X139069331Y-71375185D01*
X139067862Y-71374698D01*
X138902797Y-71320001D01*
X138902795Y-71320000D01*
X138800010Y-71309500D01*
X137599998Y-71309500D01*
X137599981Y-71309501D01*
X137497203Y-71320000D01*
X137497200Y-71320001D01*
X137330668Y-71375185D01*
X137330663Y-71375187D01*
X137181342Y-71467289D01*
X137057285Y-71591346D01*
X137055537Y-71594182D01*
X137053829Y-71595717D01*
X137052807Y-71597011D01*
X137052585Y-71596836D01*
X137003589Y-71640905D01*
X136934626Y-71652126D01*
X136870544Y-71624282D01*
X136844463Y-71594182D01*
X136842714Y-71591346D01*
X136718657Y-71467289D01*
X136718656Y-71467288D01*
X136606182Y-71397914D01*
X136569336Y-71375187D01*
X136569331Y-71375185D01*
X136567862Y-71374698D01*
X136402797Y-71320001D01*
X136402795Y-71320000D01*
X136300010Y-71309500D01*
X135099998Y-71309500D01*
X135099981Y-71309501D01*
X134997203Y-71320000D01*
X134997200Y-71320001D01*
X134830668Y-71375185D01*
X134830663Y-71375187D01*
X134681342Y-71467289D01*
X134557289Y-71591342D01*
X134465187Y-71740663D01*
X134465185Y-71740668D01*
X134439376Y-71818554D01*
X134410001Y-71907203D01*
X134410001Y-71907204D01*
X134410000Y-71907204D01*
X134399500Y-72009983D01*
X114600500Y-72009983D01*
X114600500Y-68027135D01*
X159264500Y-68027135D01*
X159264500Y-69822870D01*
X159264501Y-69822876D01*
X159270908Y-69882483D01*
X159321202Y-70017328D01*
X159321206Y-70017335D01*
X159407452Y-70132544D01*
X159407455Y-70132547D01*
X159522664Y-70218793D01*
X159522671Y-70218797D01*
X159567618Y-70235561D01*
X159657517Y-70269091D01*
X159717127Y-70275500D01*
X159727685Y-70275499D01*
X159794723Y-70295179D01*
X159815372Y-70311818D01*
X160485591Y-70982037D01*
X160422007Y-70999075D01*
X160307993Y-71064901D01*
X160214901Y-71157993D01*
X160149075Y-71272007D01*
X160132037Y-71335591D01*
X159499728Y-70703282D01*
X159499727Y-70703282D01*
X159460380Y-70757439D01*
X159363904Y-70946782D01*
X159298242Y-71148869D01*
X159298242Y-71148872D01*
X159265000Y-71358753D01*
X159265000Y-71571246D01*
X159298242Y-71781127D01*
X159298242Y-71781130D01*
X159363904Y-71983217D01*
X159460375Y-72172550D01*
X159499728Y-72226716D01*
X160132037Y-71594408D01*
X160149075Y-71657993D01*
X160214901Y-71772007D01*
X160307993Y-71865099D01*
X160422007Y-71930925D01*
X160485590Y-71947962D01*
X159853282Y-72580269D01*
X159853282Y-72580270D01*
X159907449Y-72619624D01*
X160096782Y-72716095D01*
X160298870Y-72781757D01*
X160508754Y-72815000D01*
X160721246Y-72815000D01*
X160931127Y-72781757D01*
X160931130Y-72781757D01*
X161133217Y-72716095D01*
X161322554Y-72619622D01*
X161376716Y-72580270D01*
X161376717Y-72580270D01*
X160744408Y-71947962D01*
X160807993Y-71930925D01*
X160922007Y-71865099D01*
X161015099Y-71772007D01*
X161080925Y-71657993D01*
X161097962Y-71594408D01*
X161730270Y-72226717D01*
X161730270Y-72226716D01*
X161769622Y-72172554D01*
X161866095Y-71983217D01*
X161931757Y-71781130D01*
X161931757Y-71781127D01*
X161965000Y-71571246D01*
X161965000Y-71358753D01*
X161931757Y-71148872D01*
X161931757Y-71148869D01*
X161866095Y-70946782D01*
X161769624Y-70757449D01*
X161730270Y-70703282D01*
X161730269Y-70703282D01*
X161097962Y-71335590D01*
X161080925Y-71272007D01*
X161015099Y-71157993D01*
X160922007Y-71064901D01*
X160807993Y-70999075D01*
X160744409Y-70982037D01*
X161414627Y-70311818D01*
X161475950Y-70278333D01*
X161502307Y-70275499D01*
X161512872Y-70275499D01*
X161572483Y-70269091D01*
X161707331Y-70218796D01*
X161822546Y-70132546D01*
X161908796Y-70017331D01*
X161959091Y-69882483D01*
X161965500Y-69822873D01*
X161965499Y-68027128D01*
X161959091Y-67967517D01*
X161908796Y-67832669D01*
X161908795Y-67832668D01*
X161908793Y-67832664D01*
X161822547Y-67717455D01*
X161822544Y-67717452D01*
X161707335Y-67631206D01*
X161707328Y-67631202D01*
X161572482Y-67580908D01*
X161572483Y-67580908D01*
X161512883Y-67574501D01*
X161512881Y-67574500D01*
X161512873Y-67574500D01*
X161512864Y-67574500D01*
X159717129Y-67574500D01*
X159717123Y-67574501D01*
X159657516Y-67580908D01*
X159522671Y-67631202D01*
X159522664Y-67631206D01*
X159407455Y-67717452D01*
X159407452Y-67717455D01*
X159321206Y-67832664D01*
X159321202Y-67832671D01*
X159270908Y-67967517D01*
X159264501Y-68027116D01*
X159264501Y-68027123D01*
X159264500Y-68027135D01*
X114600500Y-68027135D01*
X114600500Y-64887648D01*
X134399500Y-64887648D01*
X134399500Y-65092351D01*
X134431522Y-65294534D01*
X134494781Y-65489223D01*
X134587715Y-65671613D01*
X134708028Y-65837213D01*
X134852786Y-65981971D01*
X134961480Y-66060940D01*
X135018390Y-66102287D01*
X135134607Y-66161503D01*
X135200776Y-66195218D01*
X135200778Y-66195218D01*
X135200781Y-66195220D01*
X135305137Y-66229127D01*
X135395465Y-66258477D01*
X135496557Y-66274488D01*
X135597648Y-66290500D01*
X135597649Y-66290500D01*
X135802351Y-66290500D01*
X135802352Y-66290500D01*
X136004534Y-66258477D01*
X136199219Y-66195220D01*
X136381610Y-66102287D01*
X136505128Y-66012547D01*
X136547213Y-65981971D01*
X136547215Y-65981968D01*
X136547219Y-65981966D01*
X136691966Y-65837219D01*
X136691968Y-65837215D01*
X136691971Y-65837213D01*
X136780263Y-65715687D01*
X136812287Y-65671610D01*
X136839515Y-65618171D01*
X136887490Y-65567376D01*
X136955311Y-65550581D01*
X137021446Y-65573118D01*
X137060485Y-65618172D01*
X137087715Y-65671613D01*
X137208028Y-65837213D01*
X137352786Y-65981971D01*
X137461480Y-66060940D01*
X137518390Y-66102287D01*
X137634607Y-66161503D01*
X137700776Y-66195218D01*
X137700778Y-66195218D01*
X137700781Y-66195220D01*
X137805137Y-66229127D01*
X137895465Y-66258477D01*
X137996557Y-66274488D01*
X138097648Y-66290500D01*
X138097649Y-66290500D01*
X138302351Y-66290500D01*
X138302352Y-66290500D01*
X138504534Y-66258477D01*
X138699219Y-66195220D01*
X138881610Y-66102287D01*
X139005128Y-66012547D01*
X139047213Y-65981971D01*
X139047215Y-65981968D01*
X139047219Y-65981966D01*
X139191966Y-65837219D01*
X139191968Y-65837215D01*
X139191971Y-65837213D01*
X139280263Y-65715687D01*
X139312287Y-65671610D01*
X139339515Y-65618171D01*
X139387490Y-65567376D01*
X139455311Y-65550581D01*
X139521446Y-65573118D01*
X139560485Y-65618172D01*
X139587715Y-65671613D01*
X139708028Y-65837213D01*
X139852786Y-65981971D01*
X139961480Y-66060940D01*
X140018390Y-66102287D01*
X140134607Y-66161503D01*
X140200776Y-66195218D01*
X140200778Y-66195218D01*
X140200781Y-66195220D01*
X140305137Y-66229127D01*
X140395465Y-66258477D01*
X140496557Y-66274488D01*
X140597648Y-66290500D01*
X140597649Y-66290500D01*
X140802351Y-66290500D01*
X140802352Y-66290500D01*
X141004534Y-66258477D01*
X141199219Y-66195220D01*
X141381610Y-66102287D01*
X141505128Y-66012547D01*
X141547213Y-65981971D01*
X141547215Y-65981968D01*
X141547219Y-65981966D01*
X141691966Y-65837219D01*
X141691968Y-65837215D01*
X141691971Y-65837213D01*
X141780263Y-65715687D01*
X141812287Y-65671610D01*
X141839515Y-65618171D01*
X141887490Y-65567376D01*
X141955311Y-65550581D01*
X142021446Y-65573118D01*
X142060485Y-65618172D01*
X142087715Y-65671613D01*
X142208028Y-65837213D01*
X142352786Y-65981971D01*
X142461480Y-66060940D01*
X142518390Y-66102287D01*
X142634607Y-66161503D01*
X142700776Y-66195218D01*
X142700778Y-66195218D01*
X142700781Y-66195220D01*
X142805137Y-66229127D01*
X142895465Y-66258477D01*
X142996557Y-66274488D01*
X143097648Y-66290500D01*
X143097649Y-66290500D01*
X143302351Y-66290500D01*
X143302352Y-66290500D01*
X143504534Y-66258477D01*
X143699219Y-66195220D01*
X143881610Y-66102287D01*
X144005128Y-66012547D01*
X144047213Y-65981971D01*
X144047215Y-65981968D01*
X144047219Y-65981966D01*
X144191966Y-65837219D01*
X144191968Y-65837215D01*
X144191971Y-65837213D01*
X144280263Y-65715687D01*
X144312287Y-65671610D01*
X144339515Y-65618171D01*
X144387490Y-65567376D01*
X144455311Y-65550581D01*
X144521446Y-65573118D01*
X144560485Y-65618172D01*
X144587715Y-65671613D01*
X144708028Y-65837213D01*
X144852786Y-65981971D01*
X144961480Y-66060940D01*
X145018390Y-66102287D01*
X145134607Y-66161503D01*
X145200776Y-66195218D01*
X145200778Y-66195218D01*
X145200781Y-66195220D01*
X145305137Y-66229127D01*
X145395465Y-66258477D01*
X145496557Y-66274488D01*
X145597648Y-66290500D01*
X145597649Y-66290500D01*
X145802351Y-66290500D01*
X145802352Y-66290500D01*
X146004534Y-66258477D01*
X146199219Y-66195220D01*
X146381610Y-66102287D01*
X146505128Y-66012547D01*
X146547213Y-65981971D01*
X146547215Y-65981968D01*
X146547219Y-65981966D01*
X146691966Y-65837219D01*
X146691968Y-65837215D01*
X146691971Y-65837213D01*
X146780263Y-65715687D01*
X146812287Y-65671610D01*
X146905220Y-65489219D01*
X146968477Y-65294534D01*
X147000500Y-65092352D01*
X147000500Y-64887648D01*
X147000500Y-64887647D01*
X146989793Y-64820044D01*
X146987491Y-64805513D01*
X148599500Y-64805513D01*
X148599500Y-64994486D01*
X148629059Y-65181118D01*
X148687454Y-65360836D01*
X148752869Y-65489219D01*
X148773240Y-65529199D01*
X148884310Y-65682073D01*
X149017927Y-65815690D01*
X149170801Y-65926760D01*
X149250347Y-65967290D01*
X149339163Y-66012545D01*
X149339165Y-66012545D01*
X149339168Y-66012547D01*
X149435497Y-66043846D01*
X149518881Y-66070940D01*
X149705514Y-66100500D01*
X149705519Y-66100500D01*
X149894486Y-66100500D01*
X150081118Y-66070940D01*
X150260832Y-66012547D01*
X150429199Y-65926760D01*
X150582073Y-65815690D01*
X150715690Y-65682073D01*
X150826760Y-65529199D01*
X150912547Y-65360832D01*
X150912546Y-65360832D01*
X150914759Y-65356491D01*
X150916794Y-65357528D01*
X150954672Y-65310469D01*
X151020953Y-65288365D01*
X151088662Y-65305604D01*
X151135937Y-65355988D01*
X151136722Y-65357528D01*
X151173240Y-65429199D01*
X151284310Y-65582073D01*
X151417927Y-65715690D01*
X151570801Y-65826760D01*
X151650347Y-65867290D01*
X151739163Y-65912545D01*
X151739165Y-65912545D01*
X151739168Y-65912547D01*
X151782908Y-65926759D01*
X151918881Y-65970940D01*
X152105514Y-66000500D01*
X152105519Y-66000500D01*
X152294486Y-66000500D01*
X152481118Y-65970940D01*
X152660832Y-65912547D01*
X152829199Y-65826760D01*
X152982073Y-65715690D01*
X153115690Y-65582073D01*
X153225746Y-65430593D01*
X153281075Y-65387930D01*
X153350688Y-65381951D01*
X153412483Y-65414557D01*
X153436548Y-65447187D01*
X153473238Y-65519197D01*
X153480505Y-65529199D01*
X153584310Y-65672073D01*
X153717927Y-65805690D01*
X153870801Y-65916760D01*
X153950347Y-65957290D01*
X154039163Y-66002545D01*
X154039165Y-66002545D01*
X154039168Y-66002547D01*
X154069945Y-66012547D01*
X154218881Y-66060940D01*
X154405514Y-66090500D01*
X154405519Y-66090500D01*
X154594486Y-66090500D01*
X154781118Y-66060940D01*
X154960832Y-66002547D01*
X154964850Y-66000500D01*
X154967014Y-65999396D01*
X155129199Y-65916760D01*
X155282073Y-65805690D01*
X155415690Y-65672073D01*
X155526760Y-65519199D01*
X155586967Y-65401034D01*
X155634941Y-65350239D01*
X155702762Y-65333444D01*
X155768897Y-65355981D01*
X155807937Y-65401035D01*
X155822999Y-65430595D01*
X155873240Y-65529199D01*
X155984310Y-65682073D01*
X156117927Y-65815690D01*
X156270801Y-65926760D01*
X156350347Y-65967290D01*
X156439163Y-66012545D01*
X156439165Y-66012545D01*
X156439168Y-66012547D01*
X156535497Y-66043846D01*
X156618881Y-66070940D01*
X156805514Y-66100500D01*
X156805519Y-66100500D01*
X156994486Y-66100500D01*
X157181118Y-66070940D01*
X157360832Y-66012547D01*
X157529199Y-65926760D01*
X157682073Y-65815690D01*
X157815690Y-65682073D01*
X157926760Y-65529199D01*
X158012547Y-65360832D01*
X158070940Y-65181118D01*
X158084999Y-65092351D01*
X158100500Y-64994486D01*
X158100500Y-64805513D01*
X158070940Y-64618881D01*
X158029317Y-64490781D01*
X158012547Y-64439168D01*
X158012545Y-64439165D01*
X158012545Y-64439163D01*
X157938678Y-64294192D01*
X157926760Y-64270801D01*
X157815690Y-64117927D01*
X157682073Y-63984310D01*
X157529199Y-63873240D01*
X157509573Y-63863240D01*
X157360836Y-63787454D01*
X157181118Y-63729059D01*
X156994486Y-63699500D01*
X156994481Y-63699500D01*
X156805519Y-63699500D01*
X156805514Y-63699500D01*
X156618881Y-63729059D01*
X156439163Y-63787454D01*
X156270800Y-63873240D01*
X156183579Y-63936610D01*
X156117927Y-63984310D01*
X156117925Y-63984312D01*
X156117924Y-63984312D01*
X155984312Y-64117924D01*
X155984312Y-64117925D01*
X155984310Y-64117927D01*
X155966249Y-64142786D01*
X155873238Y-64270803D01*
X155813031Y-64388965D01*
X155765057Y-64439760D01*
X155697236Y-64456555D01*
X155631101Y-64434017D01*
X155592062Y-64388964D01*
X155526760Y-64260801D01*
X155415690Y-64107927D01*
X155282073Y-63974310D01*
X155129199Y-63863240D01*
X154960836Y-63777454D01*
X154781118Y-63719059D01*
X154594486Y-63689500D01*
X154594481Y-63689500D01*
X154405519Y-63689500D01*
X154405514Y-63689500D01*
X154218881Y-63719059D01*
X154039163Y-63777454D01*
X153870800Y-63863240D01*
X153783579Y-63926610D01*
X153717927Y-63974310D01*
X153717925Y-63974312D01*
X153717924Y-63974312D01*
X153584312Y-64107924D01*
X153584305Y-64107933D01*
X153474253Y-64259404D01*
X153418923Y-64302070D01*
X153349310Y-64308048D01*
X153287515Y-64275442D01*
X153263451Y-64242812D01*
X153226761Y-64170802D01*
X153197936Y-64131129D01*
X153115690Y-64017927D01*
X152982073Y-63884310D01*
X152829199Y-63773240D01*
X152660836Y-63687454D01*
X152481118Y-63629059D01*
X152294486Y-63599500D01*
X152294481Y-63599500D01*
X152105519Y-63599500D01*
X152105514Y-63599500D01*
X151918881Y-63629059D01*
X151739163Y-63687454D01*
X151570800Y-63773240D01*
X151483579Y-63836610D01*
X151417927Y-63884310D01*
X151417925Y-63884312D01*
X151417924Y-63884312D01*
X151284312Y-64017924D01*
X151284312Y-64017925D01*
X151284310Y-64017927D01*
X151236610Y-64083579D01*
X151173240Y-64170800D01*
X151085241Y-64343509D01*
X151083260Y-64342499D01*
X151045083Y-64389700D01*
X150978749Y-64411645D01*
X150911081Y-64394243D01*
X150864062Y-64344011D01*
X150863292Y-64342499D01*
X150826760Y-64270801D01*
X150715690Y-64117927D01*
X150582073Y-63984310D01*
X150429199Y-63873240D01*
X150409573Y-63863240D01*
X150260836Y-63787454D01*
X150081118Y-63729059D01*
X149894486Y-63699500D01*
X149894481Y-63699500D01*
X149705519Y-63699500D01*
X149705514Y-63699500D01*
X149518881Y-63729059D01*
X149339163Y-63787454D01*
X149170800Y-63873240D01*
X149083579Y-63936610D01*
X149017927Y-63984310D01*
X149017925Y-63984312D01*
X149017924Y-63984312D01*
X148884312Y-64117924D01*
X148884312Y-64117925D01*
X148884310Y-64117927D01*
X148866249Y-64142786D01*
X148773240Y-64270800D01*
X148687454Y-64439163D01*
X148629059Y-64618881D01*
X148599500Y-64805513D01*
X146987491Y-64805513D01*
X146968477Y-64685465D01*
X146926145Y-64555181D01*
X146905220Y-64490781D01*
X146905218Y-64490778D01*
X146905218Y-64490776D01*
X146856031Y-64394243D01*
X146812287Y-64308390D01*
X146784977Y-64270801D01*
X146691971Y-64142786D01*
X146547213Y-63998028D01*
X146381613Y-63877715D01*
X146381612Y-63877714D01*
X146381610Y-63877713D01*
X146324653Y-63848691D01*
X146199223Y-63784781D01*
X146004534Y-63721522D01*
X145829995Y-63693878D01*
X145802352Y-63689500D01*
X145597648Y-63689500D01*
X145573329Y-63693351D01*
X145395465Y-63721522D01*
X145200776Y-63784781D01*
X145018386Y-63877715D01*
X144852786Y-63998028D01*
X144708028Y-64142786D01*
X144587713Y-64308388D01*
X144560484Y-64361828D01*
X144512510Y-64412623D01*
X144444688Y-64429418D01*
X144378554Y-64406880D01*
X144339516Y-64361828D01*
X144312286Y-64308388D01*
X144191971Y-64142786D01*
X144047213Y-63998028D01*
X143881613Y-63877715D01*
X143881612Y-63877714D01*
X143881610Y-63877713D01*
X143824653Y-63848691D01*
X143699223Y-63784781D01*
X143504534Y-63721522D01*
X143329995Y-63693878D01*
X143302352Y-63689500D01*
X143097648Y-63689500D01*
X143073329Y-63693351D01*
X142895465Y-63721522D01*
X142700776Y-63784781D01*
X142518386Y-63877715D01*
X142352786Y-63998028D01*
X142208028Y-64142786D01*
X142087713Y-64308388D01*
X142060484Y-64361828D01*
X142012510Y-64412623D01*
X141944688Y-64429418D01*
X141878554Y-64406880D01*
X141839516Y-64361828D01*
X141812286Y-64308388D01*
X141691971Y-64142786D01*
X141547213Y-63998028D01*
X141381613Y-63877715D01*
X141381612Y-63877714D01*
X141381610Y-63877713D01*
X141324653Y-63848691D01*
X141199223Y-63784781D01*
X141004534Y-63721522D01*
X140829995Y-63693878D01*
X140802352Y-63689500D01*
X140597648Y-63689500D01*
X140573329Y-63693351D01*
X140395465Y-63721522D01*
X140200776Y-63784781D01*
X140018386Y-63877715D01*
X139852786Y-63998028D01*
X139708028Y-64142786D01*
X139587713Y-64308388D01*
X139560484Y-64361828D01*
X139512510Y-64412623D01*
X139444688Y-64429418D01*
X139378554Y-64406880D01*
X139339516Y-64361828D01*
X139312286Y-64308388D01*
X139191971Y-64142786D01*
X139047213Y-63998028D01*
X138881613Y-63877715D01*
X138881612Y-63877714D01*
X138881610Y-63877713D01*
X138824653Y-63848691D01*
X138699223Y-63784781D01*
X138504534Y-63721522D01*
X138329995Y-63693878D01*
X138302352Y-63689500D01*
X138097648Y-63689500D01*
X138073329Y-63693351D01*
X137895465Y-63721522D01*
X137700776Y-63784781D01*
X137518386Y-63877715D01*
X137352786Y-63998028D01*
X137208028Y-64142786D01*
X137087713Y-64308388D01*
X137060484Y-64361828D01*
X137012510Y-64412623D01*
X136944688Y-64429418D01*
X136878554Y-64406880D01*
X136839516Y-64361828D01*
X136812286Y-64308388D01*
X136691971Y-64142786D01*
X136547213Y-63998028D01*
X136381613Y-63877715D01*
X136381612Y-63877714D01*
X136381610Y-63877713D01*
X136324653Y-63848691D01*
X136199223Y-63784781D01*
X136004534Y-63721522D01*
X135829995Y-63693878D01*
X135802352Y-63689500D01*
X135597648Y-63689500D01*
X135573329Y-63693351D01*
X135395465Y-63721522D01*
X135200776Y-63784781D01*
X135018386Y-63877715D01*
X134852786Y-63998028D01*
X134708028Y-64142786D01*
X134587715Y-64308386D01*
X134494781Y-64490776D01*
X134431522Y-64685465D01*
X134399500Y-64887648D01*
X114600500Y-64887648D01*
X114600500Y-63359216D01*
X162019500Y-63359216D01*
X162019500Y-63560783D01*
X162051030Y-63759852D01*
X162113312Y-63951539D01*
X162192994Y-64107924D01*
X162204818Y-64131129D01*
X162323289Y-64294190D01*
X162465810Y-64436711D01*
X162628871Y-64555182D01*
X162772960Y-64628599D01*
X162808460Y-64646687D01*
X162904303Y-64677828D01*
X163000149Y-64708970D01*
X163092348Y-64723572D01*
X163199217Y-64740500D01*
X163199222Y-64740500D01*
X163400783Y-64740500D01*
X163497289Y-64725214D01*
X163599851Y-64708970D01*
X163791542Y-64646686D01*
X163971129Y-64555182D01*
X164134190Y-64436711D01*
X164276711Y-64294190D01*
X164395182Y-64131129D01*
X164486686Y-63951542D01*
X164548970Y-63759851D01*
X164569685Y-63629060D01*
X164580500Y-63560783D01*
X164580500Y-63359216D01*
X164562156Y-63243408D01*
X164548970Y-63160149D01*
X164486686Y-62968458D01*
X164395182Y-62788871D01*
X164276711Y-62625810D01*
X164134190Y-62483289D01*
X163971129Y-62364818D01*
X163791539Y-62273312D01*
X163599852Y-62211030D01*
X163400783Y-62179500D01*
X163400778Y-62179500D01*
X163199222Y-62179500D01*
X163199217Y-62179500D01*
X163000147Y-62211030D01*
X162808460Y-62273312D01*
X162628870Y-62364818D01*
X162535838Y-62432410D01*
X162465810Y-62483289D01*
X162465808Y-62483291D01*
X162465807Y-62483291D01*
X162323291Y-62625807D01*
X162323291Y-62625808D01*
X162323289Y-62625810D01*
X162272410Y-62695838D01*
X162204818Y-62788870D01*
X162113312Y-62968460D01*
X162051030Y-63160147D01*
X162019500Y-63359216D01*
X114600500Y-63359216D01*
X114600500Y-58102155D01*
X119650000Y-58102155D01*
X119650000Y-58750000D01*
X120566988Y-58750000D01*
X120534075Y-58807007D01*
X120500000Y-58934174D01*
X120500000Y-59065826D01*
X120534075Y-59192993D01*
X120566988Y-59250000D01*
X119650000Y-59250000D01*
X119650000Y-59897844D01*
X119656401Y-59957372D01*
X119656403Y-59957379D01*
X119706645Y-60092086D01*
X119706649Y-60092093D01*
X119792809Y-60207187D01*
X119792812Y-60207190D01*
X119907906Y-60293350D01*
X119907913Y-60293354D01*
X120042620Y-60343596D01*
X120042627Y-60343598D01*
X120102155Y-60349999D01*
X120102172Y-60350000D01*
X120750000Y-60350000D01*
X120750000Y-59433012D01*
X120807007Y-59465925D01*
X120934174Y-59500000D01*
X121065826Y-59500000D01*
X121192993Y-59465925D01*
X121250000Y-59433012D01*
X121250000Y-60350000D01*
X121897828Y-60350000D01*
X121897844Y-60349999D01*
X121957372Y-60343598D01*
X121957379Y-60343596D01*
X122092086Y-60293354D01*
X122092093Y-60293350D01*
X122207187Y-60207190D01*
X122207190Y-60207187D01*
X122293350Y-60092093D01*
X122293354Y-60092086D01*
X122343596Y-59957379D01*
X122343598Y-59957372D01*
X122349999Y-59897844D01*
X122350000Y-59897827D01*
X122350000Y-59250000D01*
X121433012Y-59250000D01*
X121465925Y-59192993D01*
X121500000Y-59065826D01*
X121500000Y-58934174D01*
X121465925Y-58807007D01*
X121433012Y-58750000D01*
X122350000Y-58750000D01*
X122350000Y-58493753D01*
X131630000Y-58493753D01*
X131630000Y-58706246D01*
X131663242Y-58916127D01*
X131663242Y-58916130D01*
X131728904Y-59118217D01*
X131825375Y-59307550D01*
X131864728Y-59361716D01*
X132497037Y-58729408D01*
X132514075Y-58792993D01*
X132579901Y-58907007D01*
X132672993Y-59000099D01*
X132787007Y-59065925D01*
X132850590Y-59082962D01*
X132218282Y-59715269D01*
X132218282Y-59715270D01*
X132272449Y-59754624D01*
X132461782Y-59851095D01*
X132663870Y-59916757D01*
X132873754Y-59950000D01*
X133086246Y-59950000D01*
X133296127Y-59916757D01*
X133296130Y-59916757D01*
X133498217Y-59851095D01*
X133687554Y-59754622D01*
X133741716Y-59715270D01*
X133741717Y-59715270D01*
X133109408Y-59082962D01*
X133172993Y-59065925D01*
X133287007Y-59000099D01*
X133380099Y-58907007D01*
X133445925Y-58792993D01*
X133462962Y-58729408D01*
X134095270Y-59361717D01*
X134095270Y-59361716D01*
X134134622Y-59307555D01*
X134139232Y-59298507D01*
X134187205Y-59247709D01*
X134255025Y-59230912D01*
X134321161Y-59253447D01*
X134360204Y-59298504D01*
X134364949Y-59307817D01*
X134489890Y-59479786D01*
X134640213Y-59630109D01*
X134812179Y-59755048D01*
X134812181Y-59755049D01*
X134812184Y-59755051D01*
X135001588Y-59851557D01*
X135203757Y-59917246D01*
X135413713Y-59950500D01*
X135413714Y-59950500D01*
X135626286Y-59950500D01*
X135626287Y-59950500D01*
X135836243Y-59917246D01*
X136038412Y-59851557D01*
X136227816Y-59755051D01*
X136314138Y-59692335D01*
X136399786Y-59630109D01*
X136399788Y-59630106D01*
X136399792Y-59630104D01*
X136550104Y-59479792D01*
X136550106Y-59479788D01*
X136550109Y-59479786D01*
X136675048Y-59307820D01*
X136675050Y-59307817D01*
X136675051Y-59307816D01*
X136679514Y-59299054D01*
X136727488Y-59248259D01*
X136795308Y-59231463D01*
X136861444Y-59253999D01*
X136900486Y-59299056D01*
X136904951Y-59307820D01*
X137029890Y-59479786D01*
X137180213Y-59630109D01*
X137352179Y-59755048D01*
X137352181Y-59755049D01*
X137352184Y-59755051D01*
X137541588Y-59851557D01*
X137743757Y-59917246D01*
X137953713Y-59950500D01*
X137953714Y-59950500D01*
X138166286Y-59950500D01*
X138166287Y-59950500D01*
X138376243Y-59917246D01*
X138578412Y-59851557D01*
X138767816Y-59755051D01*
X138854138Y-59692335D01*
X138939786Y-59630109D01*
X138939788Y-59630106D01*
X138939792Y-59630104D01*
X139090104Y-59479792D01*
X139090106Y-59479788D01*
X139090109Y-59479786D01*
X139215048Y-59307820D01*
X139215050Y-59307817D01*
X139215051Y-59307816D01*
X139219514Y-59299054D01*
X139267488Y-59248259D01*
X139335308Y-59231463D01*
X139401444Y-59253999D01*
X139440486Y-59299056D01*
X139444951Y-59307820D01*
X139569890Y-59479786D01*
X139720213Y-59630109D01*
X139892179Y-59755048D01*
X139892181Y-59755049D01*
X139892184Y-59755051D01*
X140081588Y-59851557D01*
X140283757Y-59917246D01*
X140493713Y-59950500D01*
X140493714Y-59950500D01*
X140706286Y-59950500D01*
X140706287Y-59950500D01*
X140916243Y-59917246D01*
X141118412Y-59851557D01*
X141307816Y-59755051D01*
X141394138Y-59692335D01*
X141479786Y-59630109D01*
X141479788Y-59630106D01*
X141479792Y-59630104D01*
X141630104Y-59479792D01*
X141630106Y-59479788D01*
X141630109Y-59479786D01*
X141755048Y-59307820D01*
X141755050Y-59307817D01*
X141755051Y-59307816D01*
X141759514Y-59299054D01*
X141807488Y-59248259D01*
X141875308Y-59231463D01*
X141941444Y-59253999D01*
X141980486Y-59299056D01*
X141984951Y-59307820D01*
X142109890Y-59479786D01*
X142260213Y-59630109D01*
X142432179Y-59755048D01*
X142432181Y-59755049D01*
X142432184Y-59755051D01*
X142621588Y-59851557D01*
X142823757Y-59917246D01*
X143033713Y-59950500D01*
X143033714Y-59950500D01*
X143246286Y-59950500D01*
X143246287Y-59950500D01*
X143456243Y-59917246D01*
X143658412Y-59851557D01*
X143847816Y-59755051D01*
X143934138Y-59692335D01*
X144019786Y-59630109D01*
X144019788Y-59630106D01*
X144019792Y-59630104D01*
X144170104Y-59479792D01*
X144170106Y-59479788D01*
X144170109Y-59479786D01*
X144295048Y-59307820D01*
X144295050Y-59307817D01*
X144295051Y-59307816D01*
X144299514Y-59299054D01*
X144347488Y-59248259D01*
X144415308Y-59231463D01*
X144481444Y-59253999D01*
X144520486Y-59299056D01*
X144524951Y-59307820D01*
X144649890Y-59479786D01*
X144800213Y-59630109D01*
X144972179Y-59755048D01*
X144972181Y-59755049D01*
X144972184Y-59755051D01*
X145161588Y-59851557D01*
X145363757Y-59917246D01*
X145573713Y-59950500D01*
X145573714Y-59950500D01*
X145786286Y-59950500D01*
X145786287Y-59950500D01*
X145996243Y-59917246D01*
X146198412Y-59851557D01*
X146387816Y-59755051D01*
X146474138Y-59692335D01*
X146559786Y-59630109D01*
X146559788Y-59630106D01*
X146559792Y-59630104D01*
X146710104Y-59479792D01*
X146710106Y-59479788D01*
X146710109Y-59479786D01*
X146835048Y-59307820D01*
X146835050Y-59307817D01*
X146835051Y-59307816D01*
X146839514Y-59299054D01*
X146887488Y-59248259D01*
X146955308Y-59231463D01*
X147021444Y-59253999D01*
X147060486Y-59299056D01*
X147064951Y-59307820D01*
X147189890Y-59479786D01*
X147340213Y-59630109D01*
X147512179Y-59755048D01*
X147512181Y-59755049D01*
X147512184Y-59755051D01*
X147701588Y-59851557D01*
X147903757Y-59917246D01*
X148113713Y-59950500D01*
X148113714Y-59950500D01*
X148326286Y-59950500D01*
X148326287Y-59950500D01*
X148536243Y-59917246D01*
X148738412Y-59851557D01*
X148927816Y-59755051D01*
X149014138Y-59692335D01*
X149099786Y-59630109D01*
X149099788Y-59630106D01*
X149099792Y-59630104D01*
X149250104Y-59479792D01*
X149250106Y-59479788D01*
X149250109Y-59479786D01*
X149375048Y-59307820D01*
X149375050Y-59307817D01*
X149375051Y-59307816D01*
X149379514Y-59299054D01*
X149427488Y-59248259D01*
X149495308Y-59231463D01*
X149561444Y-59253999D01*
X149600486Y-59299056D01*
X149604951Y-59307820D01*
X149729890Y-59479786D01*
X149880213Y-59630109D01*
X150052179Y-59755048D01*
X150052181Y-59755049D01*
X150052184Y-59755051D01*
X150241588Y-59851557D01*
X150443757Y-59917246D01*
X150653713Y-59950500D01*
X150653714Y-59950500D01*
X150866286Y-59950500D01*
X150866287Y-59950500D01*
X151076243Y-59917246D01*
X151278412Y-59851557D01*
X151467816Y-59755051D01*
X151565895Y-59683793D01*
X151639784Y-59630110D01*
X151639784Y-59630109D01*
X151639792Y-59630104D01*
X151753329Y-59516566D01*
X151814648Y-59483084D01*
X151884340Y-59488068D01*
X151940274Y-59529939D01*
X151957189Y-59560917D01*
X152006202Y-59692328D01*
X152006206Y-59692335D01*
X152092452Y-59807544D01*
X152092455Y-59807547D01*
X152207664Y-59893793D01*
X152207671Y-59893797D01*
X152342517Y-59944091D01*
X152342516Y-59944091D01*
X152349444Y-59944835D01*
X152402127Y-59950500D01*
X154197872Y-59950499D01*
X154257483Y-59944091D01*
X154392331Y-59893796D01*
X154507546Y-59807546D01*
X154593796Y-59692331D01*
X154644091Y-59557483D01*
X154650500Y-59497873D01*
X154650499Y-57702128D01*
X154644091Y-57642517D01*
X154640219Y-57632135D01*
X159519500Y-57632135D01*
X159519500Y-59287870D01*
X159519501Y-59287876D01*
X159525908Y-59347483D01*
X159576202Y-59482328D01*
X159576206Y-59482335D01*
X159662452Y-59597544D01*
X159662455Y-59597547D01*
X159777664Y-59683793D01*
X159777671Y-59683797D01*
X159912517Y-59734091D01*
X159912516Y-59734091D01*
X159919444Y-59734835D01*
X159972127Y-59740500D01*
X161627872Y-59740499D01*
X161687483Y-59734091D01*
X161822331Y-59683796D01*
X161937546Y-59597546D01*
X162023796Y-59482331D01*
X162074091Y-59347483D01*
X162080500Y-59287873D01*
X162080499Y-57632128D01*
X162074091Y-57572517D01*
X162073113Y-57569896D01*
X162023797Y-57437671D01*
X162023793Y-57437664D01*
X161937547Y-57322455D01*
X161937544Y-57322452D01*
X161822335Y-57236206D01*
X161822328Y-57236202D01*
X161687482Y-57185908D01*
X161687483Y-57185908D01*
X161627883Y-57179501D01*
X161627881Y-57179500D01*
X161627873Y-57179500D01*
X161627864Y-57179500D01*
X159972129Y-57179500D01*
X159972123Y-57179501D01*
X159912516Y-57185908D01*
X159777671Y-57236202D01*
X159777664Y-57236206D01*
X159662455Y-57322452D01*
X159662452Y-57322455D01*
X159576206Y-57437664D01*
X159576202Y-57437671D01*
X159525908Y-57572517D01*
X159520179Y-57625807D01*
X159519501Y-57632123D01*
X159519500Y-57632135D01*
X154640219Y-57632135D01*
X154593796Y-57507669D01*
X154593795Y-57507668D01*
X154593793Y-57507664D01*
X154507547Y-57392455D01*
X154507544Y-57392452D01*
X154392335Y-57306206D01*
X154392328Y-57306202D01*
X154257482Y-57255908D01*
X154257483Y-57255908D01*
X154197883Y-57249501D01*
X154197881Y-57249500D01*
X154197873Y-57249500D01*
X154197864Y-57249500D01*
X152402129Y-57249500D01*
X152402123Y-57249501D01*
X152342516Y-57255908D01*
X152207671Y-57306202D01*
X152207664Y-57306206D01*
X152092455Y-57392452D01*
X152092452Y-57392455D01*
X152006206Y-57507664D01*
X152006203Y-57507669D01*
X151957189Y-57639083D01*
X151915317Y-57695016D01*
X151849853Y-57719433D01*
X151781580Y-57704581D01*
X151753326Y-57683430D01*
X151639786Y-57569890D01*
X151467820Y-57444951D01*
X151278414Y-57348444D01*
X151278413Y-57348443D01*
X151278412Y-57348443D01*
X151076243Y-57282754D01*
X151076241Y-57282753D01*
X151076240Y-57282753D01*
X150914957Y-57257208D01*
X150866287Y-57249500D01*
X150653713Y-57249500D01*
X150605042Y-57257208D01*
X150443760Y-57282753D01*
X150241585Y-57348444D01*
X150052179Y-57444951D01*
X149880213Y-57569890D01*
X149729890Y-57720213D01*
X149604949Y-57892182D01*
X149600484Y-57900946D01*
X149552509Y-57951742D01*
X149484688Y-57968536D01*
X149418553Y-57945998D01*
X149379516Y-57900946D01*
X149375050Y-57892182D01*
X149250109Y-57720213D01*
X149099786Y-57569890D01*
X148927820Y-57444951D01*
X148738414Y-57348444D01*
X148738413Y-57348443D01*
X148738412Y-57348443D01*
X148536243Y-57282754D01*
X148536241Y-57282753D01*
X148536240Y-57282753D01*
X148374957Y-57257208D01*
X148326287Y-57249500D01*
X148113713Y-57249500D01*
X148065042Y-57257208D01*
X147903760Y-57282753D01*
X147701585Y-57348444D01*
X147512179Y-57444951D01*
X147340213Y-57569890D01*
X147189890Y-57720213D01*
X147064949Y-57892182D01*
X147060484Y-57900946D01*
X147012509Y-57951742D01*
X146944688Y-57968536D01*
X146878553Y-57945998D01*
X146839516Y-57900946D01*
X146835050Y-57892182D01*
X146710109Y-57720213D01*
X146559786Y-57569890D01*
X146387820Y-57444951D01*
X146198414Y-57348444D01*
X146198413Y-57348443D01*
X146198412Y-57348443D01*
X145996243Y-57282754D01*
X145996241Y-57282753D01*
X145996240Y-57282753D01*
X145834957Y-57257208D01*
X145786287Y-57249500D01*
X145573713Y-57249500D01*
X145525042Y-57257208D01*
X145363760Y-57282753D01*
X145161585Y-57348444D01*
X144972179Y-57444951D01*
X144800213Y-57569890D01*
X144649890Y-57720213D01*
X144524949Y-57892182D01*
X144520484Y-57900946D01*
X144472509Y-57951742D01*
X144404688Y-57968536D01*
X144338553Y-57945998D01*
X144299516Y-57900946D01*
X144295050Y-57892182D01*
X144170109Y-57720213D01*
X144019786Y-57569890D01*
X143847820Y-57444951D01*
X143658414Y-57348444D01*
X143658413Y-57348443D01*
X143658412Y-57348443D01*
X143456243Y-57282754D01*
X143456241Y-57282753D01*
X143456240Y-57282753D01*
X143294957Y-57257208D01*
X143246287Y-57249500D01*
X143033713Y-57249500D01*
X142985042Y-57257208D01*
X142823760Y-57282753D01*
X142621585Y-57348444D01*
X142432179Y-57444951D01*
X142260213Y-57569890D01*
X142109890Y-57720213D01*
X141984949Y-57892182D01*
X141980484Y-57900946D01*
X141932509Y-57951742D01*
X141864688Y-57968536D01*
X141798553Y-57945998D01*
X141759516Y-57900946D01*
X141755050Y-57892182D01*
X141630109Y-57720213D01*
X141479786Y-57569890D01*
X141307820Y-57444951D01*
X141118414Y-57348444D01*
X141118413Y-57348443D01*
X141118412Y-57348443D01*
X140916243Y-57282754D01*
X140916241Y-57282753D01*
X140916240Y-57282753D01*
X140754957Y-57257208D01*
X140706287Y-57249500D01*
X140493713Y-57249500D01*
X140445042Y-57257208D01*
X140283760Y-57282753D01*
X140081585Y-57348444D01*
X139892179Y-57444951D01*
X139720213Y-57569890D01*
X139569890Y-57720213D01*
X139444949Y-57892182D01*
X139440484Y-57900946D01*
X139392509Y-57951742D01*
X139324688Y-57968536D01*
X139258553Y-57945998D01*
X139219516Y-57900946D01*
X139215050Y-57892182D01*
X139090109Y-57720213D01*
X138939786Y-57569890D01*
X138767820Y-57444951D01*
X138578414Y-57348444D01*
X138578413Y-57348443D01*
X138578412Y-57348443D01*
X138376243Y-57282754D01*
X138376241Y-57282753D01*
X138376240Y-57282753D01*
X138214957Y-57257208D01*
X138166287Y-57249500D01*
X137953713Y-57249500D01*
X137905042Y-57257208D01*
X137743760Y-57282753D01*
X137541585Y-57348444D01*
X137352179Y-57444951D01*
X137180213Y-57569890D01*
X137029890Y-57720213D01*
X136904949Y-57892182D01*
X136900484Y-57900946D01*
X136852509Y-57951742D01*
X136784688Y-57968536D01*
X136718553Y-57945998D01*
X136679516Y-57900946D01*
X136675050Y-57892182D01*
X136550109Y-57720213D01*
X136399786Y-57569890D01*
X136227820Y-57444951D01*
X136038414Y-57348444D01*
X136038413Y-57348443D01*
X136038412Y-57348443D01*
X135836243Y-57282754D01*
X135836241Y-57282753D01*
X135836240Y-57282753D01*
X135674957Y-57257208D01*
X135626287Y-57249500D01*
X135413713Y-57249500D01*
X135365042Y-57257208D01*
X135203760Y-57282753D01*
X135001585Y-57348444D01*
X134812179Y-57444951D01*
X134640213Y-57569890D01*
X134489890Y-57720213D01*
X134364949Y-57892182D01*
X134360202Y-57901499D01*
X134312227Y-57952293D01*
X134244405Y-57969087D01*
X134178271Y-57946548D01*
X134139234Y-57901495D01*
X134134626Y-57892452D01*
X134095270Y-57838282D01*
X134095269Y-57838282D01*
X133462962Y-58470590D01*
X133445925Y-58407007D01*
X133380099Y-58292993D01*
X133287007Y-58199901D01*
X133172993Y-58134075D01*
X133109409Y-58117037D01*
X133741716Y-57484728D01*
X133687550Y-57445375D01*
X133498217Y-57348904D01*
X133296129Y-57283242D01*
X133086246Y-57250000D01*
X132873754Y-57250000D01*
X132663872Y-57283242D01*
X132663869Y-57283242D01*
X132461782Y-57348904D01*
X132272439Y-57445380D01*
X132218282Y-57484727D01*
X132218282Y-57484728D01*
X132850591Y-58117037D01*
X132787007Y-58134075D01*
X132672993Y-58199901D01*
X132579901Y-58292993D01*
X132514075Y-58407007D01*
X132497037Y-58470591D01*
X131864728Y-57838282D01*
X131864727Y-57838282D01*
X131825380Y-57892439D01*
X131728904Y-58081782D01*
X131663242Y-58283869D01*
X131663242Y-58283872D01*
X131630000Y-58493753D01*
X122350000Y-58493753D01*
X122350000Y-58102172D01*
X122349999Y-58102155D01*
X122343598Y-58042627D01*
X122343596Y-58042620D01*
X122293354Y-57907913D01*
X122293350Y-57907906D01*
X122207190Y-57792812D01*
X122207187Y-57792809D01*
X122092093Y-57706649D01*
X122092086Y-57706645D01*
X121957379Y-57656403D01*
X121957373Y-57656401D01*
X121946904Y-57655276D01*
X121946903Y-57655275D01*
X121897844Y-57650000D01*
X121250000Y-57650000D01*
X121250000Y-58566988D01*
X121192993Y-58534075D01*
X121065826Y-58500000D01*
X120934174Y-58500000D01*
X120807007Y-58534075D01*
X120750000Y-58566988D01*
X120750000Y-57650000D01*
X120102155Y-57650000D01*
X120042627Y-57656401D01*
X120042620Y-57656403D01*
X119907913Y-57706645D01*
X119907906Y-57706649D01*
X119792812Y-57792809D01*
X119792809Y-57792812D01*
X119706649Y-57907906D01*
X119706645Y-57907913D01*
X119656403Y-58042620D01*
X119656401Y-58042627D01*
X119650000Y-58102155D01*
X114600500Y-58102155D01*
X114600500Y-51878711D01*
X115149500Y-51878711D01*
X115149500Y-52121288D01*
X115181161Y-52361785D01*
X115243947Y-52596104D01*
X115294609Y-52718412D01*
X115336776Y-52820212D01*
X115458064Y-53030289D01*
X115458066Y-53030292D01*
X115458067Y-53030293D01*
X115605733Y-53222736D01*
X115605739Y-53222743D01*
X115777256Y-53394260D01*
X115777263Y-53394266D01*
X115890321Y-53481018D01*
X115969711Y-53541936D01*
X116179788Y-53663224D01*
X116403900Y-53756054D01*
X116638211Y-53818838D01*
X116818586Y-53842584D01*
X116878711Y-53850500D01*
X116878712Y-53850500D01*
X117121289Y-53850500D01*
X117169388Y-53844167D01*
X117361789Y-53818838D01*
X117596100Y-53756054D01*
X117820212Y-53663224D01*
X118030289Y-53541936D01*
X118222738Y-53394265D01*
X118394265Y-53222738D01*
X118541936Y-53030289D01*
X118663224Y-52820212D01*
X118756054Y-52596100D01*
X118818838Y-52361789D01*
X118850500Y-52121288D01*
X118850500Y-51878712D01*
X118818838Y-51638211D01*
X118756054Y-51403900D01*
X118713910Y-51302155D01*
X139550000Y-51302155D01*
X139550000Y-51950000D01*
X140466988Y-51950000D01*
X140434075Y-52007007D01*
X140400000Y-52134174D01*
X140400000Y-52265826D01*
X140434075Y-52392993D01*
X140466988Y-52450000D01*
X139550000Y-52450000D01*
X139550000Y-53097844D01*
X139556401Y-53157372D01*
X139556403Y-53157379D01*
X139606645Y-53292086D01*
X139606649Y-53292093D01*
X139692809Y-53407187D01*
X139692812Y-53407190D01*
X139807906Y-53493350D01*
X139807913Y-53493354D01*
X139942620Y-53543596D01*
X139942627Y-53543598D01*
X140002155Y-53549999D01*
X140002172Y-53550000D01*
X140650000Y-53550000D01*
X140650000Y-52633012D01*
X140707007Y-52665925D01*
X140834174Y-52700000D01*
X140965826Y-52700000D01*
X141092993Y-52665925D01*
X141150000Y-52633012D01*
X141150000Y-53550000D01*
X141797828Y-53550000D01*
X141797844Y-53549999D01*
X141857372Y-53543598D01*
X141857379Y-53543596D01*
X141992086Y-53493354D01*
X141992093Y-53493350D01*
X142107187Y-53407190D01*
X142107190Y-53407187D01*
X142193350Y-53292093D01*
X142193354Y-53292086D01*
X142242422Y-53160529D01*
X142284293Y-53104595D01*
X142349757Y-53080178D01*
X142418030Y-53095030D01*
X142446285Y-53116181D01*
X142560213Y-53230109D01*
X142732179Y-53355048D01*
X142732181Y-53355049D01*
X142732184Y-53355051D01*
X142921588Y-53451557D01*
X143123757Y-53517246D01*
X143333713Y-53550500D01*
X143333714Y-53550500D01*
X143546286Y-53550500D01*
X143546287Y-53550500D01*
X143756243Y-53517246D01*
X143958412Y-53451557D01*
X144147816Y-53355051D01*
X144234471Y-53292093D01*
X144319786Y-53230109D01*
X144319788Y-53230106D01*
X144319792Y-53230104D01*
X144470104Y-53079792D01*
X144470106Y-53079788D01*
X144470109Y-53079786D01*
X144595048Y-52907820D01*
X144595047Y-52907820D01*
X144595051Y-52907816D01*
X144599514Y-52899054D01*
X144647488Y-52848259D01*
X144715308Y-52831463D01*
X144781444Y-52853999D01*
X144820486Y-52899056D01*
X144824951Y-52907820D01*
X144949890Y-53079786D01*
X145100213Y-53230109D01*
X145272179Y-53355048D01*
X145272181Y-53355049D01*
X145272184Y-53355051D01*
X145461588Y-53451557D01*
X145663757Y-53517246D01*
X145873713Y-53550500D01*
X145873714Y-53550500D01*
X146086286Y-53550500D01*
X146086287Y-53550500D01*
X146296243Y-53517246D01*
X146498412Y-53451557D01*
X146687816Y-53355051D01*
X146774471Y-53292093D01*
X146859786Y-53230109D01*
X146859788Y-53230106D01*
X146859792Y-53230104D01*
X147010104Y-53079792D01*
X147010106Y-53079788D01*
X147010109Y-53079786D01*
X147135048Y-52907820D01*
X147135047Y-52907820D01*
X147135051Y-52907816D01*
X147139514Y-52899054D01*
X147187488Y-52848259D01*
X147255308Y-52831463D01*
X147321444Y-52853999D01*
X147360486Y-52899056D01*
X147364951Y-52907820D01*
X147489890Y-53079786D01*
X147640213Y-53230109D01*
X147812179Y-53355048D01*
X147812181Y-53355049D01*
X147812184Y-53355051D01*
X148001588Y-53451557D01*
X148203757Y-53517246D01*
X148413713Y-53550500D01*
X148413714Y-53550500D01*
X148626286Y-53550500D01*
X148626287Y-53550500D01*
X148836243Y-53517246D01*
X149038412Y-53451557D01*
X149227816Y-53355051D01*
X149314471Y-53292093D01*
X149399786Y-53230109D01*
X149399788Y-53230106D01*
X149399792Y-53230104D01*
X149550104Y-53079792D01*
X149550106Y-53079788D01*
X149550109Y-53079786D01*
X149675048Y-52907820D01*
X149675047Y-52907820D01*
X149675051Y-52907816D01*
X149771557Y-52718412D01*
X149837246Y-52516243D01*
X149870500Y-52306287D01*
X149870500Y-52093713D01*
X149847738Y-51950000D01*
X149838877Y-51894051D01*
X149838333Y-51890620D01*
X149837246Y-51883757D01*
X149835606Y-51878711D01*
X162149500Y-51878711D01*
X162149500Y-52121288D01*
X162181161Y-52361785D01*
X162243947Y-52596104D01*
X162294609Y-52718412D01*
X162336776Y-52820212D01*
X162458064Y-53030289D01*
X162458066Y-53030292D01*
X162458067Y-53030293D01*
X162605733Y-53222736D01*
X162605739Y-53222743D01*
X162777256Y-53394260D01*
X162777263Y-53394266D01*
X162890321Y-53481018D01*
X162969711Y-53541936D01*
X163179788Y-53663224D01*
X163403900Y-53756054D01*
X163638211Y-53818838D01*
X163818586Y-53842584D01*
X163878711Y-53850500D01*
X163878712Y-53850500D01*
X164121289Y-53850500D01*
X164169388Y-53844167D01*
X164361789Y-53818838D01*
X164596100Y-53756054D01*
X164820212Y-53663224D01*
X165030289Y-53541936D01*
X165222738Y-53394265D01*
X165394265Y-53222738D01*
X165541936Y-53030289D01*
X165663224Y-52820212D01*
X165756054Y-52596100D01*
X165818838Y-52361789D01*
X165850500Y-52121288D01*
X165850500Y-51878712D01*
X165818838Y-51638211D01*
X165756054Y-51403900D01*
X165663224Y-51179788D01*
X165541936Y-50969711D01*
X165394265Y-50777262D01*
X165394260Y-50777256D01*
X165222743Y-50605739D01*
X165222736Y-50605733D01*
X165030293Y-50458067D01*
X165030292Y-50458066D01*
X165030289Y-50458064D01*
X164820212Y-50336776D01*
X164820205Y-50336773D01*
X164596104Y-50243947D01*
X164361785Y-50181161D01*
X164121289Y-50149500D01*
X164121288Y-50149500D01*
X163878712Y-50149500D01*
X163878711Y-50149500D01*
X163638214Y-50181161D01*
X163403895Y-50243947D01*
X163179794Y-50336773D01*
X163179785Y-50336777D01*
X162969706Y-50458067D01*
X162777263Y-50605733D01*
X162777256Y-50605739D01*
X162605739Y-50777256D01*
X162605733Y-50777263D01*
X162458067Y-50969706D01*
X162336777Y-51179785D01*
X162336773Y-51179794D01*
X162243947Y-51403895D01*
X162181161Y-51638214D01*
X162149500Y-51878711D01*
X149835606Y-51878711D01*
X149771557Y-51681588D01*
X149675051Y-51492184D01*
X149675049Y-51492181D01*
X149675048Y-51492179D01*
X149550109Y-51320213D01*
X149399786Y-51169890D01*
X149227820Y-51044951D01*
X149038414Y-50948444D01*
X149038413Y-50948443D01*
X149038412Y-50948443D01*
X148836243Y-50882754D01*
X148836241Y-50882753D01*
X148836240Y-50882753D01*
X148674957Y-50857208D01*
X148626287Y-50849500D01*
X148413713Y-50849500D01*
X148365042Y-50857208D01*
X148203760Y-50882753D01*
X148001585Y-50948444D01*
X147812179Y-51044951D01*
X147640213Y-51169890D01*
X147489890Y-51320213D01*
X147364949Y-51492182D01*
X147360484Y-51500946D01*
X147312509Y-51551742D01*
X147244688Y-51568536D01*
X147178553Y-51545998D01*
X147139516Y-51500946D01*
X147135050Y-51492182D01*
X147010109Y-51320213D01*
X146859786Y-51169890D01*
X146687820Y-51044951D01*
X146498414Y-50948444D01*
X146498413Y-50948443D01*
X146498412Y-50948443D01*
X146296243Y-50882754D01*
X146296241Y-50882753D01*
X146296240Y-50882753D01*
X146134957Y-50857208D01*
X146086287Y-50849500D01*
X145873713Y-50849500D01*
X145825042Y-50857208D01*
X145663760Y-50882753D01*
X145461585Y-50948444D01*
X145272179Y-51044951D01*
X145100213Y-51169890D01*
X144949890Y-51320213D01*
X144824949Y-51492182D01*
X144820484Y-51500946D01*
X144772509Y-51551742D01*
X144704688Y-51568536D01*
X144638553Y-51545998D01*
X144599516Y-51500946D01*
X144595050Y-51492182D01*
X144470109Y-51320213D01*
X144319786Y-51169890D01*
X144147820Y-51044951D01*
X143958414Y-50948444D01*
X143958413Y-50948443D01*
X143958412Y-50948443D01*
X143756243Y-50882754D01*
X143756241Y-50882753D01*
X143756240Y-50882753D01*
X143594957Y-50857208D01*
X143546287Y-50849500D01*
X143333713Y-50849500D01*
X143285042Y-50857208D01*
X143123760Y-50882753D01*
X142921585Y-50948444D01*
X142732179Y-51044951D01*
X142560215Y-51169889D01*
X142446285Y-51283819D01*
X142384962Y-51317303D01*
X142315270Y-51312319D01*
X142259337Y-51270447D01*
X142242422Y-51239470D01*
X142193354Y-51107913D01*
X142193350Y-51107906D01*
X142107190Y-50992812D01*
X142107187Y-50992809D01*
X141992093Y-50906649D01*
X141992086Y-50906645D01*
X141857379Y-50856403D01*
X141857372Y-50856401D01*
X141797844Y-50850000D01*
X141150000Y-50850000D01*
X141150000Y-51766988D01*
X141092993Y-51734075D01*
X140965826Y-51700000D01*
X140834174Y-51700000D01*
X140707007Y-51734075D01*
X140650000Y-51766988D01*
X140650000Y-50850000D01*
X140002155Y-50850000D01*
X139942627Y-50856401D01*
X139942620Y-50856403D01*
X139807913Y-50906645D01*
X139807906Y-50906649D01*
X139692812Y-50992809D01*
X139692809Y-50992812D01*
X139606649Y-51107906D01*
X139606645Y-51107913D01*
X139556403Y-51242620D01*
X139556401Y-51242627D01*
X139550000Y-51302155D01*
X118713910Y-51302155D01*
X118663226Y-51179794D01*
X118663226Y-51179793D01*
X118663224Y-51179788D01*
X118541936Y-50969711D01*
X118394265Y-50777262D01*
X118394260Y-50777256D01*
X118222743Y-50605739D01*
X118222736Y-50605733D01*
X118030293Y-50458067D01*
X118030292Y-50458066D01*
X118030289Y-50458064D01*
X117820212Y-50336776D01*
X117820205Y-50336773D01*
X117596104Y-50243947D01*
X117361785Y-50181161D01*
X117121289Y-50149500D01*
X117121288Y-50149500D01*
X116878712Y-50149500D01*
X116878711Y-50149500D01*
X116638214Y-50181161D01*
X116403895Y-50243947D01*
X116179794Y-50336773D01*
X116179785Y-50336777D01*
X115969706Y-50458067D01*
X115777263Y-50605733D01*
X115777256Y-50605739D01*
X115605739Y-50777256D01*
X115605733Y-50777263D01*
X115458067Y-50969706D01*
X115336777Y-51179785D01*
X115336773Y-51179794D01*
X115243947Y-51403895D01*
X115181161Y-51638214D01*
X115149500Y-51878711D01*
X114600500Y-51878711D01*
X114600500Y-49524500D01*
X114620185Y-49457461D01*
X114672989Y-49411706D01*
X114724500Y-49400500D01*
X167175500Y-49400500D01*
X167242539Y-49420185D01*
G37*
%TD.AperFunction*%
%TD*%
M02*
