%TF.GenerationSoftware,KiCad,Pcbnew,10.0.1*%
%TF.CreationDate,2026-07-10T00:57:23+09:00*%
%TF.ProjectId,Mini_Oscilloscope,4d696e69-5f4f-4736-9369-6c6c6f73636f,rev?*%
%TF.SameCoordinates,Original*%
%TF.FileFunction,Copper,L1,Top*%
%TF.FilePolarity,Positive*%
%FSLAX46Y46*%
G04 Gerber Fmt 4.6, Leading zero omitted, Abs format (unit mm)*
G04 Created by KiCad (PCBNEW 10.0.1) date 2026-07-10 00:57:23*
%MOMM*%
%LPD*%
G01*
G04 APERTURE LIST*
G04 Aperture macros list*
%AMRoundRect*
0 Rectangle with rounded corners*
0 $1 Rounding radius*
0 $2 $3 $4 $5 $6 $7 $8 $9 X,Y pos of 4 corners*
0 Add a 4 corners polygon primitive as box body*
4,1,4,$2,$3,$4,$5,$6,$7,$8,$9,$2,$3,0*
0 Add four circle primitives for the rounded corners*
1,1,$1+$1,$2,$3*
1,1,$1+$1,$4,$5*
1,1,$1+$1,$6,$7*
1,1,$1+$1,$8,$9*
0 Add four rect primitives between the rounded corners*
20,1,$1+$1,$2,$3,$4,$5,0*
20,1,$1+$1,$4,$5,$6,$7,0*
20,1,$1+$1,$6,$7,$8,$9,0*
20,1,$1+$1,$8,$9,$2,$3,0*%
G04 Aperture macros list end*
%TA.AperFunction,ComponentPad*%
%ADD10RoundRect,0.250000X0.550000X-0.550000X0.550000X0.550000X-0.550000X0.550000X-0.550000X-0.550000X0*%
%TD*%
%TA.AperFunction,ComponentPad*%
%ADD11C,1.600000*%
%TD*%
%TA.AperFunction,ComponentPad*%
%ADD12R,1.700000X1.700000*%
%TD*%
%TA.AperFunction,ComponentPad*%
%ADD13C,1.700000*%
%TD*%
%TA.AperFunction,ComponentPad*%
%ADD14R,1.560000X1.560000*%
%TD*%
%TA.AperFunction,ComponentPad*%
%ADD15C,1.560000*%
%TD*%
%TA.AperFunction,ComponentPad*%
%ADD16C,1.400000*%
%TD*%
%TA.AperFunction,ViaPad*%
%ADD17C,0.600000*%
%TD*%
%TA.AperFunction,Conductor*%
%ADD18C,0.300000*%
%TD*%
G04 APERTURE END LIST*
D10*
%TO.P,D3,1,K_1*%
%TO.N,/DN*%
X145700000Y-72610000D03*
D11*
%TO.P,D3,2,A_2*%
%TO.N,Net-(D1-A)*%
X145700000Y-64990000D03*
%TD*%
D12*
%TO.P,J12,1,Pin_1_1*%
%TO.N,Net-(J12-Pin_1)*%
X160715000Y-86825000D03*
D13*
%TO.P,J12,2,Pin_2_2*%
%TO.N,GND*%
X160715000Y-89365000D03*
%TD*%
D14*
%TO.P,RV1,1,1_1*%
%TO.N,Net-(J7-Pin_7)*%
X160800000Y-58460000D03*
D15*
%TO.P,RV1,2,2_2*%
X163300000Y-63460000D03*
%TO.P,RV1,3,3_3*%
%TO.N,Net-(J10-Pin_1)*%
X165800000Y-58460000D03*
%TD*%
D10*
%TO.P,D1,1,K_1*%
%TO.N,/SEL*%
X143200000Y-72610000D03*
D11*
%TO.P,D1,2,A_2*%
%TO.N,Net-(D1-A)*%
X143200000Y-64990000D03*
%TD*%
D10*
%TO.P,D5,1,K_1*%
%TO.N,/AUX*%
X138200000Y-72610000D03*
D11*
%TO.P,D5,2,A_2*%
%TO.N,Net-(D1-A)*%
X138200000Y-64990000D03*
%TD*%
D12*
%TO.P,SW1,1,A_1*%
%TO.N,Net-(J3-Pin_3)*%
X159900000Y-99760000D03*
D13*
%TO.P,SW1,2,B_2*%
%TO.N,Net-(SW1-B)*%
X159900000Y-102300000D03*
%TO.P,SW1,3,C_3*%
%TO.N,unconnected-(SW1-C-Pad3)*%
X159900000Y-104840000D03*
%TD*%
D12*
%TO.P,J2,1,Pin_1_1*%
%TO.N,/SEL*%
X138000000Y-83200000D03*
D13*
%TO.P,J2,2,Pin_2_2*%
%TO.N,/HOLD*%
X140540000Y-83200000D03*
%TO.P,J2,3,Pin_3_3*%
%TO.N,/DN*%
X143080000Y-83200000D03*
%TO.P,J2,4,Pin_4_4*%
%TO.N,/UP*%
X145620000Y-83200000D03*
%TO.P,J2,5,Pin_5_5*%
%TO.N,/AUX*%
X148160000Y-83200000D03*
%TO.P,J2,6,Pin_6_6*%
%TO.N,GND*%
X150700000Y-83200000D03*
%TD*%
D12*
%TO.P,TP2,1,1_1*%
%TO.N,Net-(SW1-B)*%
X121100000Y-102710400D03*
%TD*%
%TO.P,TP3,1,1_1*%
%TO.N,GND*%
X121000000Y-59000000D03*
%TD*%
D16*
%TO.P,R6,1*%
%TO.N,Net-(J7-Pin_6)*%
X156900000Y-64900000D03*
%TO.P,R6,2*%
%TO.N,Net-(J11-Pin_1)*%
X156900000Y-72520000D03*
%TD*%
%TO.P,R3,1*%
%TO.N,Net-(D1-A)*%
X149800000Y-64900000D03*
%TO.P,R3,2*%
%TO.N,/IRQ1*%
X149800000Y-72520000D03*
%TD*%
%TO.P,R4,1*%
%TO.N,GND*%
X154500000Y-72510000D03*
%TO.P,R4,2*%
%TO.N,Net-(J7-Pin_7)*%
X154500000Y-64890000D03*
%TD*%
D12*
%TO.P,J11,1,Pin_1_1*%
%TO.N,Net-(J11-Pin_1)*%
X160615000Y-77625000D03*
D13*
%TO.P,J11,2,Pin_2_2*%
%TO.N,GND*%
X160615000Y-80165000D03*
%TD*%
D12*
%TO.P,J10,1,Pin_1_1*%
%TO.N,Net-(J10-Pin_1)*%
X160615000Y-68925000D03*
D13*
%TO.P,J10,2,Pin_2_2*%
%TO.N,GND*%
X160615000Y-71465000D03*
%TD*%
D10*
%TO.P,D2,1,K_1*%
%TO.N,/HOLD*%
X140700000Y-72610000D03*
D11*
%TO.P,D2,2,A_2*%
%TO.N,Net-(D1-A)*%
X140700000Y-64990000D03*
%TD*%
D12*
%TO.P,J1,1,Pin_1_1*%
%TO.N,GND*%
X140900000Y-52200000D03*
D13*
%TO.P,J1,2,Pin_2_2*%
%TO.N,/VCC_5V*%
X143440000Y-52200000D03*
%TO.P,J1,3,Pin_3_3*%
%TO.N,/SCL*%
X145980000Y-52200000D03*
%TO.P,J1,4,Pin_4_4*%
%TO.N,/SDA*%
X148520000Y-52200000D03*
%TD*%
D10*
%TO.P,D4,1,K_1*%
%TO.N,/UP*%
X135700000Y-72610000D03*
D11*
%TO.P,D4,2,A_2*%
%TO.N,Net-(D1-A)*%
X135700000Y-64990000D03*
%TD*%
D16*
%TO.P,R5,1*%
%TO.N,Net-(J7-Pin_7)*%
X152200000Y-64800000D03*
%TO.P,R5,2*%
%TO.N,/ATT*%
X152200000Y-72420000D03*
%TD*%
D12*
%TO.P,J7,1,Pin_1_1*%
%TO.N,unconnected-(J7-Pin_1-Pad1)*%
X153300000Y-58600000D03*
D13*
%TO.P,J7,2,Pin_2_2*%
%TO.N,/SCL*%
X150760000Y-58600000D03*
%TO.P,J7,3,Pin_3_3*%
%TO.N,/SDA*%
X148220000Y-58600000D03*
%TO.P,J7,4,Pin_4_4*%
%TO.N,unconnected-(J7-Pin_4-Pad4)*%
X145680000Y-58600000D03*
%TO.P,J7,5,Pin_5_5*%
%TO.N,unconnected-(J7-Pin_5-Pad5)*%
X143140000Y-58600000D03*
%TO.P,J7,6,Pin_6_6*%
%TO.N,Net-(J7-Pin_6)*%
X140600000Y-58600000D03*
%TO.P,J7,7,Pin_7_7*%
%TO.N,Net-(J7-Pin_7)*%
X138060000Y-58600000D03*
%TO.P,J7,8,Pin_8_8*%
%TO.N,unconnected-(J7-Pin_8-Pad8)*%
X135520000Y-58600000D03*
%TO.P,J7,9,Pin_9_9*%
%TO.N,GND*%
X132980000Y-58600000D03*
%TD*%
D12*
%TO.P,J6,1,Pin_1_1*%
%TO.N,/IRQ1*%
X153300000Y-77700000D03*
D13*
%TO.P,J6,2,Pin_2_2*%
%TO.N,/ATT*%
X150760000Y-77700000D03*
%TO.P,J6,3,Pin_3_3*%
%TO.N,Net-(J12-Pin_1)*%
X148220000Y-77700000D03*
%TO.P,J6,4,Pin_4_4*%
%TO.N,/UP*%
X145680000Y-77700000D03*
%TO.P,J6,5,Pin_5_5*%
%TO.N,/DN*%
X143140000Y-77700000D03*
%TO.P,J6,6,Pin_6_6*%
%TO.N,/SEL*%
X140600000Y-77700000D03*
%TO.P,J6,7,Pin_7_7*%
%TO.N,/HOLD*%
X138060000Y-77700000D03*
%TO.P,J6,8,Pin_8_8*%
%TO.N,/AUX*%
X135520000Y-77700000D03*
%TO.P,J6,9,Pin_9_9*%
%TO.N,/VCC_5V*%
X132980000Y-77700000D03*
%TD*%
D12*
%TO.P,J3,1,Pin_1_1*%
%TO.N,/VCC_5V*%
X133400000Y-98900000D03*
D13*
%TO.P,J3,2,Pin_2_2*%
%TO.N,GND*%
X133400000Y-101440000D03*
%TO.P,J3,3,Pin_3_3*%
%TO.N,Net-(J3-Pin_3)*%
X133400000Y-103980000D03*
%TD*%
D17*
%TO.N,GND*%
X151700000Y-62900000D03*
X144500000Y-74800000D03*
X146900000Y-60400000D03*
X129700000Y-76700000D03*
X142100000Y-74800000D03*
X129800000Y-81200000D03*
X144800000Y-55100000D03*
X129600000Y-73000000D03*
X153000000Y-103100000D03*
X144400000Y-80100000D03*
X147400000Y-55100000D03*
X139500000Y-74800000D03*
X147800000Y-68100000D03*
X137800000Y-80200000D03*
X129600000Y-68900000D03*
X137000000Y-74800000D03*
X141200000Y-80100000D03*
%TD*%
%TO.N,/DN*%
D18*
X145700000Y-75140000D02*
X145700000Y-72610000D01*
X143140000Y-77700000D02*
X145700000Y-75140000D01*
X143140000Y-83140000D02*
X143080000Y-83200000D01*
X143140000Y-77700000D02*
X143140000Y-83140000D01*
%TO.N,Net-(D1-A)*%
X135700000Y-64990000D02*
X145700000Y-64990000D01*
X149710000Y-64990000D02*
X149800000Y-64900000D01*
X145700000Y-64990000D02*
X149710000Y-64990000D01*
%TO.N,Net-(J12-Pin_1)*%
X159025000Y-86825000D02*
X160715000Y-86825000D01*
X148220000Y-77700000D02*
X151820000Y-81300000D01*
X153500000Y-81300000D02*
X159025000Y-86825000D01*
X151820000Y-81300000D02*
X153500000Y-81300000D01*
%TO.N,Net-(J7-Pin_7)*%
X160800000Y-58460000D02*
X160800000Y-60960000D01*
X152200000Y-64800000D02*
X149900000Y-62500000D01*
X163300000Y-63460000D02*
X160810000Y-65950000D01*
X160810000Y-65950000D02*
X155560000Y-65950000D01*
X138060000Y-58600000D02*
X141960000Y-62500000D01*
X149900000Y-62500000D02*
X141960000Y-62500000D01*
X160800000Y-60960000D02*
X163300000Y-63460000D01*
X152290000Y-64890000D02*
X152200000Y-64800000D01*
X155560000Y-65950000D02*
X154500000Y-64890000D01*
X154500000Y-64890000D02*
X152290000Y-64890000D01*
%TO.N,Net-(J10-Pin_1)*%
X165800000Y-58460000D02*
X165800000Y-64500000D01*
X161900000Y-66400000D02*
X160615000Y-67685000D01*
X165800000Y-64500000D02*
X163900000Y-66400000D01*
X163900000Y-66400000D02*
X161900000Y-66400000D01*
X160615000Y-67685000D02*
X160615000Y-68925000D01*
%TO.N,/SEL*%
X140600000Y-79000000D02*
X138000000Y-81600000D01*
X140600000Y-77700000D02*
X143200000Y-75100000D01*
X140600000Y-77700000D02*
X140600000Y-79000000D01*
X143200000Y-75100000D02*
X143200000Y-72610000D01*
X138000000Y-81600000D02*
X138000000Y-83200000D01*
%TO.N,/AUX*%
X135520000Y-77700000D02*
X135520000Y-84227106D01*
X135520000Y-77700000D02*
X138200000Y-75020000D01*
X138200000Y-75020000D02*
X138200000Y-72610000D01*
X136892893Y-85600000D02*
X145760000Y-85600000D01*
X145760000Y-85600000D02*
X148160000Y-83200000D01*
X135520000Y-84227106D02*
X136892893Y-85600000D01*
%TO.N,Net-(J3-Pin_3)*%
X151820000Y-99760000D02*
X147600000Y-103980000D01*
X133400000Y-103980000D02*
X147600000Y-103980000D01*
X159900000Y-99760000D02*
X151820000Y-99760000D01*
%TO.N,Net-(SW1-B)*%
X156000000Y-106200000D02*
X130000000Y-106200000D01*
X159900000Y-102300000D02*
X156000000Y-106200000D01*
X130000000Y-106200000D02*
X126510400Y-102710400D01*
X126510400Y-102710400D02*
X121000000Y-102710400D01*
%TO.N,/HOLD*%
X140700000Y-75060000D02*
X140700000Y-72610000D01*
X138060000Y-77700000D02*
X136200000Y-79560000D01*
X138060000Y-77700000D02*
X140700000Y-75060000D01*
X138640000Y-85100000D02*
X140540000Y-83200000D01*
X136200000Y-79560000D02*
X136200000Y-84200000D01*
X137100000Y-85100000D02*
X138640000Y-85100000D01*
X136200000Y-84200000D02*
X137100000Y-85100000D01*
%TO.N,/UP*%
X145680000Y-83140000D02*
X145620000Y-83200000D01*
X145680000Y-77700000D02*
X147400000Y-75980000D01*
X145680000Y-77700000D02*
X145680000Y-83140000D01*
X135700000Y-72610000D02*
X137910000Y-70400000D01*
X147400000Y-71000000D02*
X146800000Y-70400000D01*
X137910000Y-70400000D02*
X146800000Y-70400000D01*
X147400000Y-75980000D02*
X147400000Y-71000000D01*
%TO.N,Net-(J7-Pin_6)*%
X153500000Y-61500000D02*
X143500000Y-61500000D01*
X156900000Y-64900000D02*
X153500000Y-61500000D01*
X143500000Y-61500000D02*
X140600000Y-58600000D01*
%TO.N,Net-(J11-Pin_1)*%
X160615000Y-77625000D02*
X160615000Y-76235000D01*
X160615000Y-76235000D02*
X156900000Y-72520000D01*
%TO.N,/IRQ1*%
X149800000Y-72520000D02*
X149800000Y-74200000D01*
X149800000Y-74200000D02*
X153300000Y-77700000D01*
%TO.N,/VCC_5V*%
X143440000Y-53960000D02*
X141700000Y-55700000D01*
X138800000Y-55700000D02*
X136720000Y-57780000D01*
X141700000Y-55700000D02*
X138800000Y-55700000D01*
X143440000Y-52200000D02*
X143440000Y-53960000D01*
X132980000Y-77700000D02*
X132980000Y-89900000D01*
X133400000Y-98900000D02*
X133400000Y-90320000D01*
X136720000Y-60580000D02*
X132980000Y-64320000D01*
X136720000Y-57780000D02*
X136720000Y-60580000D01*
X133400000Y-90320000D02*
X132980000Y-89900000D01*
X132980000Y-64320000D02*
X132980000Y-77700000D01*
%TO.N,/SCL*%
X149060000Y-56900000D02*
X150760000Y-58600000D01*
X146900000Y-56900000D02*
X149060000Y-56900000D01*
X145980000Y-55980000D02*
X146900000Y-56900000D01*
X145980000Y-52200000D02*
X145980000Y-55980000D01*
%TO.N,/SDA*%
X152000000Y-59200000D02*
X151100000Y-60100000D01*
X149720000Y-60100000D02*
X151100000Y-60100000D01*
X148520000Y-52200000D02*
X148520000Y-55020000D01*
X150400000Y-55400000D02*
X152000000Y-57000000D01*
X148220000Y-58600000D02*
X149720000Y-60100000D01*
X152000000Y-57000000D02*
X152000000Y-59200000D01*
X148520000Y-55020000D02*
X148900000Y-55400000D01*
X148900000Y-55400000D02*
X150400000Y-55400000D01*
%TO.N,/ATT*%
X148100000Y-75040000D02*
X150760000Y-77700000D01*
X150680000Y-70900000D02*
X149300000Y-70900000D01*
X149300000Y-70900000D02*
X148100000Y-72100000D01*
X148100000Y-72100000D02*
X148100000Y-75040000D01*
X152200000Y-72420000D02*
X150680000Y-70900000D01*
%TD*%
%TA.AperFunction,Conductor*%
%TO.N,GND*%
G36*
X167242539Y-49420185D02*
G01*
X167288294Y-49472989D01*
X167299500Y-49524500D01*
X167299500Y-58166364D01*
X167279815Y-58233403D01*
X167227011Y-58279158D01*
X167157853Y-58289102D01*
X167094297Y-58260077D01*
X167056523Y-58201299D01*
X167053027Y-58185762D01*
X167048970Y-58160148D01*
X166986687Y-57968460D01*
X166986686Y-57968458D01*
X166895182Y-57788871D01*
X166776711Y-57625810D01*
X166634190Y-57483289D01*
X166471129Y-57364818D01*
X166387981Y-57322452D01*
X166291539Y-57273312D01*
X166099852Y-57211030D01*
X165900783Y-57179500D01*
X165900778Y-57179500D01*
X165699222Y-57179500D01*
X165699217Y-57179500D01*
X165500147Y-57211030D01*
X165308460Y-57273312D01*
X165128870Y-57364818D01*
X165073185Y-57405276D01*
X164965810Y-57483289D01*
X164965808Y-57483291D01*
X164965807Y-57483291D01*
X164823291Y-57625807D01*
X164823291Y-57625808D01*
X164823289Y-57625810D01*
X164801062Y-57656403D01*
X164704818Y-57788870D01*
X164613312Y-57968460D01*
X164551030Y-58160147D01*
X164519500Y-58359216D01*
X164519500Y-58560783D01*
X164551030Y-58759852D01*
X164613312Y-58951539D01*
X164671595Y-59065925D01*
X164704818Y-59131129D01*
X164823289Y-59294190D01*
X164965810Y-59436711D01*
X165098386Y-59533033D01*
X165141051Y-59588362D01*
X165149500Y-59633350D01*
X165149500Y-64179192D01*
X165129815Y-64246231D01*
X165113181Y-64266873D01*
X163666873Y-65713181D01*
X163605550Y-65746666D01*
X163579192Y-65749500D01*
X162229808Y-65749500D01*
X162162769Y-65729815D01*
X162117014Y-65677011D01*
X162107070Y-65607853D01*
X162136095Y-65544297D01*
X162142127Y-65537819D01*
X162323958Y-65355988D01*
X162930289Y-64749655D01*
X162991610Y-64716172D01*
X163037366Y-64714865D01*
X163199217Y-64740500D01*
X163199222Y-64740500D01*
X163400783Y-64740500D01*
X163497289Y-64725214D01*
X163599851Y-64708970D01*
X163791542Y-64646686D01*
X163971129Y-64555182D01*
X164134190Y-64436711D01*
X164276711Y-64294190D01*
X164395182Y-64131129D01*
X164486686Y-63951542D01*
X164548970Y-63759851D01*
X164569685Y-63629060D01*
X164580500Y-63560783D01*
X164580500Y-63359216D01*
X164562156Y-63243408D01*
X164548970Y-63160149D01*
X164486686Y-62968458D01*
X164395182Y-62788871D01*
X164276711Y-62625810D01*
X164134190Y-62483289D01*
X163971129Y-62364818D01*
X163965954Y-62362181D01*
X163791539Y-62273312D01*
X163599852Y-62211030D01*
X163400783Y-62179500D01*
X163400778Y-62179500D01*
X163199222Y-62179500D01*
X163199217Y-62179500D01*
X163037367Y-62205134D01*
X162968073Y-62196179D01*
X162930288Y-62170342D01*
X161486819Y-60726873D01*
X161453334Y-60665550D01*
X161450500Y-60639192D01*
X161450500Y-59864499D01*
X161470185Y-59797460D01*
X161522989Y-59751705D01*
X161574500Y-59740499D01*
X161627871Y-59740499D01*
X161627872Y-59740499D01*
X161687483Y-59734091D01*
X161822331Y-59683796D01*
X161937546Y-59597546D01*
X162023796Y-59482331D01*
X162074091Y-59347483D01*
X162080500Y-59287873D01*
X162080499Y-57632128D01*
X162074091Y-57572517D01*
X162073113Y-57569896D01*
X162023797Y-57437671D01*
X162023793Y-57437664D01*
X161937547Y-57322455D01*
X161937544Y-57322452D01*
X161822335Y-57236206D01*
X161822328Y-57236202D01*
X161687482Y-57185908D01*
X161687483Y-57185908D01*
X161627883Y-57179501D01*
X161627881Y-57179500D01*
X161627873Y-57179500D01*
X161627864Y-57179500D01*
X159972129Y-57179500D01*
X159972123Y-57179501D01*
X159912516Y-57185908D01*
X159777671Y-57236202D01*
X159777664Y-57236206D01*
X159662455Y-57322452D01*
X159662452Y-57322455D01*
X159576206Y-57437664D01*
X159576202Y-57437671D01*
X159525908Y-57572517D01*
X159520179Y-57625807D01*
X159519501Y-57632123D01*
X159519500Y-57632135D01*
X159519500Y-59287870D01*
X159519501Y-59287876D01*
X159525908Y-59347483D01*
X159576202Y-59482328D01*
X159576206Y-59482335D01*
X159662452Y-59597544D01*
X159662455Y-59597547D01*
X159777664Y-59683793D01*
X159777671Y-59683797D01*
X159800563Y-59692335D01*
X159912517Y-59734091D01*
X159972127Y-59740500D01*
X160025500Y-59740499D01*
X160092538Y-59760182D01*
X160138293Y-59812986D01*
X160149500Y-59864499D01*
X160149500Y-61024069D01*
X160149500Y-61024071D01*
X160149499Y-61024071D01*
X160174497Y-61149738D01*
X160174499Y-61149744D01*
X160223534Y-61268125D01*
X160294726Y-61374673D01*
X160294727Y-61374674D01*
X162010342Y-63090288D01*
X162043827Y-63151611D01*
X162045134Y-63197367D01*
X162019500Y-63359216D01*
X162019500Y-63560783D01*
X162045134Y-63722631D01*
X162036179Y-63791925D01*
X162010342Y-63829710D01*
X160576873Y-65263181D01*
X160515550Y-65296666D01*
X160489192Y-65299500D01*
X158197375Y-65299500D01*
X158130336Y-65279815D01*
X158084581Y-65227011D01*
X158074637Y-65157853D01*
X158074902Y-65156102D01*
X158100500Y-64994486D01*
X158100500Y-64805513D01*
X158070940Y-64618881D01*
X158029317Y-64490781D01*
X158012547Y-64439168D01*
X158012545Y-64439165D01*
X158012545Y-64439163D01*
X157945910Y-64308386D01*
X157926760Y-64270801D01*
X157815690Y-64117927D01*
X157682073Y-63984310D01*
X157529199Y-63873240D01*
X157509573Y-63863240D01*
X157360836Y-63787454D01*
X157181118Y-63729059D01*
X156994486Y-63699500D01*
X156994481Y-63699500D01*
X156805519Y-63699500D01*
X156805514Y-63699500D01*
X156707290Y-63715057D01*
X156637996Y-63706102D01*
X156600211Y-63680265D01*
X153914674Y-60994727D01*
X153914673Y-60994726D01*
X153914588Y-60994669D01*
X153808127Y-60923535D01*
X153689744Y-60874499D01*
X153689738Y-60874497D01*
X153564071Y-60849500D01*
X153564069Y-60849500D01*
X151557936Y-60849500D01*
X151490897Y-60829815D01*
X151445142Y-60777011D01*
X151435198Y-60707853D01*
X151464223Y-60644297D01*
X151489045Y-60622398D01*
X151514669Y-60605277D01*
X152164781Y-59955163D01*
X152226102Y-59921680D01*
X152295793Y-59926664D01*
X152295794Y-59926665D01*
X152342508Y-59944088D01*
X152342511Y-59944088D01*
X152342517Y-59944091D01*
X152402127Y-59950500D01*
X154197872Y-59950499D01*
X154257483Y-59944091D01*
X154392331Y-59893796D01*
X154507546Y-59807546D01*
X154593796Y-59692331D01*
X154644091Y-59557483D01*
X154650500Y-59497873D01*
X154650499Y-57702128D01*
X154644091Y-57642517D01*
X154640216Y-57632128D01*
X154593797Y-57507671D01*
X154593793Y-57507664D01*
X154507547Y-57392455D01*
X154507544Y-57392452D01*
X154392335Y-57306206D01*
X154392328Y-57306202D01*
X154257482Y-57255908D01*
X154257483Y-57255908D01*
X154197883Y-57249501D01*
X154197881Y-57249500D01*
X154197873Y-57249500D01*
X154197865Y-57249500D01*
X152774500Y-57249500D01*
X152707461Y-57229815D01*
X152661706Y-57177011D01*
X152650500Y-57125500D01*
X152650500Y-56935928D01*
X152625502Y-56810261D01*
X152625501Y-56810260D01*
X152625501Y-56810256D01*
X152576465Y-56691873D01*
X152535457Y-56630500D01*
X152535455Y-56630497D01*
X152505279Y-56585333D01*
X152505277Y-56585331D01*
X150814674Y-54894727D01*
X150814673Y-54894726D01*
X150814669Y-54894723D01*
X150708127Y-54823535D01*
X150589744Y-54774499D01*
X150589738Y-54774497D01*
X150464071Y-54749500D01*
X150464069Y-54749500D01*
X149294500Y-54749500D01*
X149227461Y-54729815D01*
X149181706Y-54677011D01*
X149170500Y-54625500D01*
X149170500Y-53459617D01*
X149190185Y-53392578D01*
X149224592Y-53358902D01*
X149223874Y-53357914D01*
X149227811Y-53355053D01*
X149227816Y-53355051D01*
X149399792Y-53230104D01*
X149550104Y-53079792D01*
X149550106Y-53079788D01*
X149550109Y-53079786D01*
X149675048Y-52907820D01*
X149675047Y-52907820D01*
X149675051Y-52907816D01*
X149771557Y-52718412D01*
X149837246Y-52516243D01*
X149870500Y-52306287D01*
X149870500Y-52093713D01*
X149847738Y-51950000D01*
X149838877Y-51894051D01*
X149838333Y-51890620D01*
X149837246Y-51883757D01*
X149835606Y-51878711D01*
X162149500Y-51878711D01*
X162149500Y-52121288D01*
X162181161Y-52361785D01*
X162243947Y-52596104D01*
X162294609Y-52718412D01*
X162336776Y-52820212D01*
X162458064Y-53030289D01*
X162458066Y-53030292D01*
X162458067Y-53030293D01*
X162605733Y-53222736D01*
X162605739Y-53222743D01*
X162777256Y-53394260D01*
X162777263Y-53394266D01*
X162890321Y-53481018D01*
X162969711Y-53541936D01*
X163179788Y-53663224D01*
X163403900Y-53756054D01*
X163638211Y-53818838D01*
X163818586Y-53842584D01*
X163878711Y-53850500D01*
X163878712Y-53850500D01*
X164121289Y-53850500D01*
X164169388Y-53844167D01*
X164361789Y-53818838D01*
X164596100Y-53756054D01*
X164820212Y-53663224D01*
X165030289Y-53541936D01*
X165222738Y-53394265D01*
X165394265Y-53222738D01*
X165541936Y-53030289D01*
X165663224Y-52820212D01*
X165756054Y-52596100D01*
X165818838Y-52361789D01*
X165850500Y-52121288D01*
X165850500Y-51878712D01*
X165818838Y-51638211D01*
X165756054Y-51403900D01*
X165663224Y-51179788D01*
X165541936Y-50969711D01*
X165394265Y-50777262D01*
X165394260Y-50777256D01*
X165222743Y-50605739D01*
X165222736Y-50605733D01*
X165030293Y-50458067D01*
X165030292Y-50458066D01*
X165030289Y-50458064D01*
X164820212Y-50336776D01*
X164820205Y-50336773D01*
X164596104Y-50243947D01*
X164361785Y-50181161D01*
X164121289Y-50149500D01*
X164121288Y-50149500D01*
X163878712Y-50149500D01*
X163878711Y-50149500D01*
X163638214Y-50181161D01*
X163403895Y-50243947D01*
X163179794Y-50336773D01*
X163179785Y-50336777D01*
X162969706Y-50458067D01*
X162777263Y-50605733D01*
X162777256Y-50605739D01*
X162605739Y-50777256D01*
X162605733Y-50777263D01*
X162458067Y-50969706D01*
X162336777Y-51179785D01*
X162336773Y-51179794D01*
X162243947Y-51403895D01*
X162181161Y-51638214D01*
X162149500Y-51878711D01*
X149835606Y-51878711D01*
X149771557Y-51681588D01*
X149675051Y-51492184D01*
X149675049Y-51492181D01*
X149675048Y-51492179D01*
X149550109Y-51320213D01*
X149399786Y-51169890D01*
X149227820Y-51044951D01*
X149038414Y-50948444D01*
X149038413Y-50948443D01*
X149038412Y-50948443D01*
X148836243Y-50882754D01*
X148836241Y-50882753D01*
X148836240Y-50882753D01*
X148674957Y-50857208D01*
X148626287Y-50849500D01*
X148413713Y-50849500D01*
X148365042Y-50857208D01*
X148203760Y-50882753D01*
X148001585Y-50948444D01*
X147812179Y-51044951D01*
X147640213Y-51169890D01*
X147489890Y-51320213D01*
X147364949Y-51492182D01*
X147360484Y-51500946D01*
X147312509Y-51551742D01*
X147244688Y-51568536D01*
X147178553Y-51545998D01*
X147139516Y-51500946D01*
X147135050Y-51492182D01*
X147010109Y-51320213D01*
X146859786Y-51169890D01*
X146687820Y-51044951D01*
X146498414Y-50948444D01*
X146498413Y-50948443D01*
X146498412Y-50948443D01*
X146296243Y-50882754D01*
X146296241Y-50882753D01*
X146296240Y-50882753D01*
X146134957Y-50857208D01*
X146086287Y-50849500D01*
X145873713Y-50849500D01*
X145825042Y-50857208D01*
X145663760Y-50882753D01*
X145461585Y-50948444D01*
X145272179Y-51044951D01*
X145100213Y-51169890D01*
X144949890Y-51320213D01*
X144824949Y-51492182D01*
X144820484Y-51500946D01*
X144772509Y-51551742D01*
X144704688Y-51568536D01*
X144638553Y-51545998D01*
X144599516Y-51500946D01*
X144595050Y-51492182D01*
X144470109Y-51320213D01*
X144319786Y-51169890D01*
X144147820Y-51044951D01*
X143958414Y-50948444D01*
X143958413Y-50948443D01*
X143958412Y-50948443D01*
X143756243Y-50882754D01*
X143756241Y-50882753D01*
X143756240Y-50882753D01*
X143594957Y-50857208D01*
X143546287Y-50849500D01*
X143333713Y-50849500D01*
X143285042Y-50857208D01*
X143123760Y-50882753D01*
X142921585Y-50948444D01*
X142732179Y-51044951D01*
X142560215Y-51169889D01*
X142446285Y-51283819D01*
X142384962Y-51317303D01*
X142315270Y-51312319D01*
X142259337Y-51270447D01*
X142242422Y-51239470D01*
X142193354Y-51107913D01*
X142193350Y-51107906D01*
X142107190Y-50992812D01*
X142107187Y-50992809D01*
X141992093Y-50906649D01*
X141992086Y-50906645D01*
X141857379Y-50856403D01*
X141857372Y-50856401D01*
X141797844Y-50850000D01*
X141150000Y-50850000D01*
X141150000Y-51766988D01*
X141092993Y-51734075D01*
X140965826Y-51700000D01*
X140834174Y-51700000D01*
X140707007Y-51734075D01*
X140650000Y-51766988D01*
X140650000Y-50850000D01*
X140002155Y-50850000D01*
X139942627Y-50856401D01*
X139942620Y-50856403D01*
X139807913Y-50906645D01*
X139807906Y-50906649D01*
X139692812Y-50992809D01*
X139692809Y-50992812D01*
X139606649Y-51107906D01*
X139606645Y-51107913D01*
X139556403Y-51242620D01*
X139556401Y-51242627D01*
X139550000Y-51302155D01*
X139550000Y-51950000D01*
X140466988Y-51950000D01*
X140434075Y-52007007D01*
X140400000Y-52134174D01*
X140400000Y-52265826D01*
X140434075Y-52392993D01*
X140466988Y-52450000D01*
X139550000Y-52450000D01*
X139550000Y-53097844D01*
X139556401Y-53157372D01*
X139556403Y-53157379D01*
X139606645Y-53292086D01*
X139606649Y-53292093D01*
X139692809Y-53407187D01*
X139692812Y-53407190D01*
X139807906Y-53493350D01*
X139807913Y-53493354D01*
X139942620Y-53543596D01*
X139942627Y-53543598D01*
X140002155Y-53549999D01*
X140002172Y-53550000D01*
X140650000Y-53550000D01*
X140650000Y-52633012D01*
X140707007Y-52665925D01*
X140834174Y-52700000D01*
X140965826Y-52700000D01*
X141092993Y-52665925D01*
X141150000Y-52633012D01*
X141150000Y-53550000D01*
X141797828Y-53550000D01*
X141797844Y-53549999D01*
X141857372Y-53543598D01*
X141857379Y-53543596D01*
X141992086Y-53493354D01*
X141992093Y-53493350D01*
X142107187Y-53407190D01*
X142107190Y-53407187D01*
X142193350Y-53292093D01*
X142193354Y-53292086D01*
X142242422Y-53160529D01*
X142284293Y-53104595D01*
X142349757Y-53080178D01*
X142418030Y-53095030D01*
X142446285Y-53116181D01*
X142560208Y-53230104D01*
X142732184Y-53355051D01*
X142732188Y-53355053D01*
X142736126Y-53357914D01*
X142735146Y-53359262D01*
X142737250Y-53361587D01*
X142746703Y-53365904D01*
X142760293Y-53387050D01*
X142777160Y-53405690D01*
X142779863Y-53417502D01*
X142784477Y-53424682D01*
X142789500Y-53459617D01*
X142789500Y-53639192D01*
X142769815Y-53706231D01*
X142753181Y-53726873D01*
X141466873Y-55013181D01*
X141405550Y-55046666D01*
X141379192Y-55049500D01*
X138735929Y-55049500D01*
X138610261Y-55074497D01*
X138610255Y-55074499D01*
X138491875Y-55123533D01*
X138491866Y-55123538D01*
X138385331Y-55194723D01*
X138385329Y-55194725D01*
X136230102Y-57349950D01*
X136168779Y-57383435D01*
X136099087Y-57378451D01*
X136086127Y-57372754D01*
X136038417Y-57348445D01*
X136038414Y-57348444D01*
X136038412Y-57348443D01*
X135836243Y-57282754D01*
X135836241Y-57282753D01*
X135836240Y-57282753D01*
X135674957Y-57257208D01*
X135626287Y-57249500D01*
X135413713Y-57249500D01*
X135365042Y-57257208D01*
X135203760Y-57282753D01*
X135001585Y-57348444D01*
X134812179Y-57444951D01*
X134640213Y-57569890D01*
X134489890Y-57720213D01*
X134364949Y-57892182D01*
X134360202Y-57901499D01*
X134312227Y-57952293D01*
X134244405Y-57969087D01*
X134178271Y-57946548D01*
X134139234Y-57901495D01*
X134134626Y-57892452D01*
X134095270Y-57838282D01*
X134095269Y-57838282D01*
X133462962Y-58470590D01*
X133445925Y-58407007D01*
X133380099Y-58292993D01*
X133287007Y-58199901D01*
X133172993Y-58134075D01*
X133109409Y-58117037D01*
X133741716Y-57484728D01*
X133687550Y-57445375D01*
X133498217Y-57348904D01*
X133296129Y-57283242D01*
X133086246Y-57250000D01*
X132873754Y-57250000D01*
X132663872Y-57283242D01*
X132663869Y-57283242D01*
X132461782Y-57348904D01*
X132272439Y-57445380D01*
X132218282Y-57484727D01*
X132218282Y-57484728D01*
X132850591Y-58117037D01*
X132787007Y-58134075D01*
X132672993Y-58199901D01*
X132579901Y-58292993D01*
X132514075Y-58407007D01*
X132497037Y-58470591D01*
X131864728Y-57838282D01*
X131864727Y-57838282D01*
X131825380Y-57892439D01*
X131728904Y-58081782D01*
X131663242Y-58283869D01*
X131663242Y-58283872D01*
X131630000Y-58493753D01*
X131630000Y-58706246D01*
X131663242Y-58916127D01*
X131663242Y-58916130D01*
X131728904Y-59118217D01*
X131825375Y-59307550D01*
X131864728Y-59361716D01*
X132497037Y-58729408D01*
X132514075Y-58792993D01*
X132579901Y-58907007D01*
X132672993Y-59000099D01*
X132787007Y-59065925D01*
X132850590Y-59082962D01*
X132218282Y-59715269D01*
X132218282Y-59715270D01*
X132272449Y-59754624D01*
X132461782Y-59851095D01*
X132663870Y-59916757D01*
X132873754Y-59950000D01*
X133086246Y-59950000D01*
X133296127Y-59916757D01*
X133296130Y-59916757D01*
X133498217Y-59851095D01*
X133687554Y-59754622D01*
X133741716Y-59715270D01*
X133741717Y-59715270D01*
X133109408Y-59082962D01*
X133172993Y-59065925D01*
X133287007Y-59000099D01*
X133380099Y-58907007D01*
X133445925Y-58792993D01*
X133462962Y-58729408D01*
X134095270Y-59361717D01*
X134095270Y-59361716D01*
X134134622Y-59307555D01*
X134139232Y-59298507D01*
X134187205Y-59247709D01*
X134255025Y-59230912D01*
X134321161Y-59253447D01*
X134360204Y-59298504D01*
X134364949Y-59307817D01*
X134489890Y-59479786D01*
X134640213Y-59630109D01*
X134812179Y-59755048D01*
X134812181Y-59755049D01*
X134812184Y-59755051D01*
X135001588Y-59851557D01*
X135203757Y-59917246D01*
X135413713Y-59950500D01*
X135413714Y-59950500D01*
X135626286Y-59950500D01*
X135626287Y-59950500D01*
X135836243Y-59917246D01*
X135907183Y-59894195D01*
X135935301Y-59893392D01*
X135963147Y-59889389D01*
X135969758Y-59892408D01*
X135977023Y-59892201D01*
X136001112Y-59906727D01*
X136026703Y-59918414D01*
X136030632Y-59924527D01*
X136036856Y-59928281D01*
X136049268Y-59953527D01*
X136064477Y-59977192D01*
X136065953Y-59987462D01*
X136067684Y-59990982D01*
X136069500Y-60012127D01*
X136069500Y-60259191D01*
X136049815Y-60326230D01*
X136033181Y-60346872D01*
X132474727Y-63905325D01*
X132474726Y-63905326D01*
X132474723Y-63905331D01*
X132428633Y-63974312D01*
X132421953Y-63984309D01*
X132421951Y-63984311D01*
X132403539Y-64011865D01*
X132403533Y-64011875D01*
X132354499Y-64130255D01*
X132354497Y-64130261D01*
X132329500Y-64255928D01*
X132329500Y-76440382D01*
X132309815Y-76507421D01*
X132275408Y-76541099D01*
X132276125Y-76542085D01*
X132100213Y-76669890D01*
X131949890Y-76820213D01*
X131824951Y-76992179D01*
X131728444Y-77181585D01*
X131662753Y-77383760D01*
X131629500Y-77593713D01*
X131629500Y-77806286D01*
X131662753Y-78016239D01*
X131728444Y-78218414D01*
X131824951Y-78407820D01*
X131949890Y-78579786D01*
X131949896Y-78579792D01*
X132100208Y-78730104D01*
X132272184Y-78855051D01*
X132272188Y-78855053D01*
X132276126Y-78857914D01*
X132275146Y-78859262D01*
X132317160Y-78905690D01*
X132329500Y-78959617D01*
X132329500Y-89964069D01*
X132329500Y-89964071D01*
X132329499Y-89964071D01*
X132354497Y-90089738D01*
X132354499Y-90089744D01*
X132403534Y-90208125D01*
X132474726Y-90314673D01*
X132474727Y-90314674D01*
X132713181Y-90553127D01*
X132746666Y-90614450D01*
X132749500Y-90640808D01*
X132749500Y-97425500D01*
X132729815Y-97492539D01*
X132677011Y-97538294D01*
X132625501Y-97549500D01*
X132502130Y-97549500D01*
X132502123Y-97549501D01*
X132442516Y-97555908D01*
X132307671Y-97606202D01*
X132307664Y-97606206D01*
X132192455Y-97692452D01*
X132192452Y-97692455D01*
X132106206Y-97807664D01*
X132106202Y-97807671D01*
X132055908Y-97942517D01*
X132049501Y-98002116D01*
X132049501Y-98002123D01*
X132049500Y-98002135D01*
X132049500Y-99797870D01*
X132049501Y-99797876D01*
X132055908Y-99857483D01*
X132106202Y-99992328D01*
X132106206Y-99992335D01*
X132192452Y-100107544D01*
X132192455Y-100107547D01*
X132307664Y-100193793D01*
X132307671Y-100193797D01*
X132352618Y-100210561D01*
X132442517Y-100244091D01*
X132502127Y-100250500D01*
X132512685Y-100250499D01*
X132579723Y-100270179D01*
X132600372Y-100286818D01*
X133270591Y-100957037D01*
X133207007Y-100974075D01*
X133092993Y-101039901D01*
X132999901Y-101132993D01*
X132934075Y-101247007D01*
X132917037Y-101310591D01*
X132284728Y-100678282D01*
X132284727Y-100678282D01*
X132245380Y-100732439D01*
X132148904Y-100921782D01*
X132083242Y-101123869D01*
X132083242Y-101123872D01*
X132050000Y-101333753D01*
X132050000Y-101546246D01*
X132083242Y-101756127D01*
X132083242Y-101756130D01*
X132148904Y-101958217D01*
X132245375Y-102147550D01*
X132284728Y-102201716D01*
X132917037Y-101569408D01*
X132934075Y-101632993D01*
X132999901Y-101747007D01*
X133092993Y-101840099D01*
X133207007Y-101905925D01*
X133270590Y-101922962D01*
X132638282Y-102555269D01*
X132638282Y-102555270D01*
X132692452Y-102594626D01*
X132692451Y-102594626D01*
X132701495Y-102599234D01*
X132752292Y-102647208D01*
X132769087Y-102715029D01*
X132746550Y-102781164D01*
X132701499Y-102820202D01*
X132692182Y-102824949D01*
X132520213Y-102949890D01*
X132369890Y-103100213D01*
X132244951Y-103272179D01*
X132148444Y-103461585D01*
X132082753Y-103663760D01*
X132059608Y-103809896D01*
X132049500Y-103873713D01*
X132049500Y-104086287D01*
X132082754Y-104296243D01*
X132144175Y-104485278D01*
X132148444Y-104498414D01*
X132244951Y-104687820D01*
X132369890Y-104859786D01*
X132520213Y-105010109D01*
X132692179Y-105135048D01*
X132692181Y-105135049D01*
X132692184Y-105135051D01*
X132881588Y-105231557D01*
X133083757Y-105297246D01*
X133112519Y-105301801D01*
X133120256Y-105303027D01*
X133183391Y-105332956D01*
X133220322Y-105392268D01*
X133219324Y-105462130D01*
X133180714Y-105520363D01*
X133116751Y-105548477D01*
X133100858Y-105549500D01*
X130320808Y-105549500D01*
X130253769Y-105529815D01*
X130233127Y-105513181D01*
X126925074Y-102205127D01*
X126925073Y-102205126D01*
X126919971Y-102201717D01*
X126818527Y-102133935D01*
X126700144Y-102084899D01*
X126700138Y-102084897D01*
X126574471Y-102059900D01*
X126574469Y-102059900D01*
X122574499Y-102059900D01*
X122507460Y-102040215D01*
X122461705Y-101987411D01*
X122450499Y-101935900D01*
X122450499Y-101812529D01*
X122450498Y-101812523D01*
X122450497Y-101812516D01*
X122444091Y-101752917D01*
X122399362Y-101632993D01*
X122393797Y-101618071D01*
X122393793Y-101618064D01*
X122307547Y-101502855D01*
X122207751Y-101428147D01*
X122207750Y-101428145D01*
X122192334Y-101416606D01*
X122192328Y-101416602D01*
X122057482Y-101366308D01*
X122057483Y-101366308D01*
X121997883Y-101359901D01*
X121997881Y-101359900D01*
X121997873Y-101359900D01*
X121997864Y-101359900D01*
X120202129Y-101359900D01*
X120202123Y-101359901D01*
X120142516Y-101366308D01*
X120007671Y-101416602D01*
X120007664Y-101416606D01*
X119892455Y-101502852D01*
X119892452Y-101502855D01*
X119806206Y-101618064D01*
X119806202Y-101618071D01*
X119755908Y-101752917D01*
X119749501Y-101812516D01*
X119749501Y-101812523D01*
X119749500Y-101812535D01*
X119749500Y-103608270D01*
X119749501Y-103608276D01*
X119755908Y-103667883D01*
X119806202Y-103802728D01*
X119806206Y-103802735D01*
X119892452Y-103917944D01*
X119892455Y-103917947D01*
X120007664Y-104004193D01*
X120007671Y-104004197D01*
X120142517Y-104054491D01*
X120142516Y-104054491D01*
X120149444Y-104055235D01*
X120202127Y-104060900D01*
X121997872Y-104060899D01*
X122057483Y-104054491D01*
X122192331Y-104004196D01*
X122307546Y-103917946D01*
X122393796Y-103802731D01*
X122444091Y-103667883D01*
X122450500Y-103608273D01*
X122450500Y-103484900D01*
X122470185Y-103417861D01*
X122522989Y-103372106D01*
X122574500Y-103360900D01*
X126189592Y-103360900D01*
X126256631Y-103380585D01*
X126277273Y-103397219D01*
X129585325Y-106705272D01*
X129585331Y-106705277D01*
X129691874Y-106776466D01*
X129761221Y-106805189D01*
X129810256Y-106825501D01*
X129810259Y-106825501D01*
X129810260Y-106825502D01*
X129935928Y-106850500D01*
X129935931Y-106850500D01*
X156064071Y-106850500D01*
X156148615Y-106833682D01*
X156189744Y-106825501D01*
X156308127Y-106776465D01*
X156414669Y-106705277D01*
X158337819Y-104782125D01*
X158399142Y-104748641D01*
X158468833Y-104753625D01*
X158524767Y-104795497D01*
X158549184Y-104860961D01*
X158549500Y-104869807D01*
X158549500Y-104946287D01*
X158582754Y-105156243D01*
X158630447Y-105303027D01*
X158648444Y-105358414D01*
X158744951Y-105547820D01*
X158869890Y-105719786D01*
X159020213Y-105870109D01*
X159192179Y-105995048D01*
X159192181Y-105995049D01*
X159192184Y-105995051D01*
X159381588Y-106091557D01*
X159583757Y-106157246D01*
X159793713Y-106190500D01*
X159793714Y-106190500D01*
X160006286Y-106190500D01*
X160006287Y-106190500D01*
X160216243Y-106157246D01*
X160418412Y-106091557D01*
X160607816Y-105995051D01*
X160629789Y-105979086D01*
X160779786Y-105870109D01*
X160779788Y-105870106D01*
X160779792Y-105870104D01*
X160930104Y-105719792D01*
X160930106Y-105719788D01*
X160930109Y-105719786D01*
X161039086Y-105569789D01*
X161055051Y-105547816D01*
X161151557Y-105358412D01*
X161217246Y-105156243D01*
X161250500Y-104946287D01*
X161250500Y-104733713D01*
X161217246Y-104523757D01*
X161151557Y-104321588D01*
X161055051Y-104132184D01*
X161055049Y-104132181D01*
X161055048Y-104132179D01*
X160930109Y-103960213D01*
X160779786Y-103809890D01*
X160607820Y-103684951D01*
X160607115Y-103684591D01*
X160599054Y-103680485D01*
X160548259Y-103632512D01*
X160531463Y-103564692D01*
X160553999Y-103498556D01*
X160599054Y-103459515D01*
X160607816Y-103455051D01*
X160659004Y-103417861D01*
X160779786Y-103330109D01*
X160779788Y-103330106D01*
X160779792Y-103330104D01*
X160930104Y-103179792D01*
X160930106Y-103179788D01*
X160930109Y-103179786D01*
X161055048Y-103007820D01*
X161055047Y-103007820D01*
X161055051Y-103007816D01*
X161151557Y-102818412D01*
X161217246Y-102616243D01*
X161250500Y-102406287D01*
X161250500Y-102193713D01*
X161217246Y-101983757D01*
X161151557Y-101781588D01*
X161055051Y-101592184D01*
X161055049Y-101592181D01*
X161055048Y-101592179D01*
X160930109Y-101420213D01*
X160816569Y-101306673D01*
X160783084Y-101245350D01*
X160788068Y-101175658D01*
X160829940Y-101119725D01*
X160860915Y-101102810D01*
X160992331Y-101053796D01*
X161107546Y-100967546D01*
X161193796Y-100852331D01*
X161244091Y-100717483D01*
X161250500Y-100657873D01*
X161250499Y-98862128D01*
X161244091Y-98802517D01*
X161193796Y-98667669D01*
X161193795Y-98667668D01*
X161193793Y-98667664D01*
X161107547Y-98552455D01*
X161107544Y-98552452D01*
X160992335Y-98466206D01*
X160992328Y-98466202D01*
X160857482Y-98415908D01*
X160857483Y-98415908D01*
X160797883Y-98409501D01*
X160797881Y-98409500D01*
X160797873Y-98409500D01*
X160797864Y-98409500D01*
X159002129Y-98409500D01*
X159002123Y-98409501D01*
X158942516Y-98415908D01*
X158807671Y-98466202D01*
X158807664Y-98466206D01*
X158692455Y-98552452D01*
X158692452Y-98552455D01*
X158606206Y-98667664D01*
X158606202Y-98667671D01*
X158555908Y-98802517D01*
X158549501Y-98862116D01*
X158549501Y-98862123D01*
X158549500Y-98862135D01*
X158549500Y-98985500D01*
X158529815Y-99052539D01*
X158477011Y-99098294D01*
X158425500Y-99109500D01*
X151755929Y-99109500D01*
X151630261Y-99134497D01*
X151630255Y-99134499D01*
X151511870Y-99183535D01*
X151405331Y-99254722D01*
X151405324Y-99254728D01*
X147366873Y-103293181D01*
X147305550Y-103326666D01*
X147279192Y-103329500D01*
X134659618Y-103329500D01*
X134592579Y-103309815D01*
X134558900Y-103275408D01*
X134557915Y-103276125D01*
X134430109Y-103100213D01*
X134279786Y-102949890D01*
X134107817Y-102824949D01*
X134098504Y-102820204D01*
X134047707Y-102772230D01*
X134030912Y-102704409D01*
X134053449Y-102638274D01*
X134098507Y-102599232D01*
X134107555Y-102594622D01*
X134161716Y-102555270D01*
X134161717Y-102555270D01*
X133529408Y-101922962D01*
X133592993Y-101905925D01*
X133707007Y-101840099D01*
X133800099Y-101747007D01*
X133865925Y-101632993D01*
X133882962Y-101569408D01*
X134515270Y-102201717D01*
X134515270Y-102201716D01*
X134554622Y-102147554D01*
X134651095Y-101958217D01*
X134716757Y-101756130D01*
X134716757Y-101756127D01*
X134750000Y-101546246D01*
X134750000Y-101333753D01*
X134716757Y-101123872D01*
X134716757Y-101123869D01*
X134651095Y-100921782D01*
X134554624Y-100732449D01*
X134515270Y-100678282D01*
X134515269Y-100678282D01*
X133882962Y-101310590D01*
X133865925Y-101247007D01*
X133800099Y-101132993D01*
X133707007Y-101039901D01*
X133592993Y-100974075D01*
X133529409Y-100957037D01*
X134199627Y-100286818D01*
X134260950Y-100253333D01*
X134287307Y-100250499D01*
X134297872Y-100250499D01*
X134357483Y-100244091D01*
X134492331Y-100193796D01*
X134607546Y-100107546D01*
X134693796Y-99992331D01*
X134744091Y-99857483D01*
X134750500Y-99797873D01*
X134750499Y-98002128D01*
X134744091Y-97942517D01*
X134693796Y-97807669D01*
X134693795Y-97807668D01*
X134693793Y-97807664D01*
X134607547Y-97692455D01*
X134607544Y-97692452D01*
X134492335Y-97606206D01*
X134492328Y-97606202D01*
X134357482Y-97555908D01*
X134357483Y-97555908D01*
X134297883Y-97549501D01*
X134297881Y-97549500D01*
X134297873Y-97549500D01*
X134297865Y-97549500D01*
X134174500Y-97549500D01*
X134107461Y-97529815D01*
X134061706Y-97477011D01*
X134050500Y-97425500D01*
X134050500Y-90255928D01*
X134025502Y-90130261D01*
X134025501Y-90130260D01*
X134025501Y-90130256D01*
X133976465Y-90011873D01*
X133905277Y-89905331D01*
X133905275Y-89905329D01*
X133905273Y-89905326D01*
X133666819Y-89666872D01*
X133633334Y-89605549D01*
X133630500Y-89579191D01*
X133630500Y-78959617D01*
X133650185Y-78892578D01*
X133684592Y-78858902D01*
X133683874Y-78857914D01*
X133687811Y-78855053D01*
X133687816Y-78855051D01*
X133859792Y-78730104D01*
X134010104Y-78579792D01*
X134010106Y-78579788D01*
X134010109Y-78579786D01*
X134135048Y-78407820D01*
X134135047Y-78407820D01*
X134135051Y-78407816D01*
X134139514Y-78399054D01*
X134187488Y-78348259D01*
X134255308Y-78331463D01*
X134321444Y-78353999D01*
X134360486Y-78399056D01*
X134364951Y-78407820D01*
X134489890Y-78579786D01*
X134489896Y-78579792D01*
X134640208Y-78730104D01*
X134812184Y-78855051D01*
X134812188Y-78855053D01*
X134816126Y-78857914D01*
X134815146Y-78859262D01*
X134857160Y-78905690D01*
X134869500Y-78959617D01*
X134869500Y-84291175D01*
X134869500Y-84291177D01*
X134869499Y-84291177D01*
X134894497Y-84416843D01*
X134894499Y-84416849D01*
X134943533Y-84535229D01*
X134943537Y-84535236D01*
X135014726Y-84641779D01*
X135014727Y-84641780D01*
X136478218Y-86105272D01*
X136478219Y-86105273D01*
X136478222Y-86105275D01*
X136478224Y-86105277D01*
X136584766Y-86176465D01*
X136703149Y-86225501D01*
X136703153Y-86225501D01*
X136703154Y-86225502D01*
X136828821Y-86250500D01*
X136828824Y-86250500D01*
X145824071Y-86250500D01*
X145908615Y-86233682D01*
X145949744Y-86225501D01*
X146068127Y-86176465D01*
X146071068Y-86174500D01*
X146174669Y-86105277D01*
X147729289Y-84550655D01*
X147790610Y-84517172D01*
X147838754Y-84517685D01*
X147838945Y-84516484D01*
X147943888Y-84533105D01*
X148053713Y-84550500D01*
X148053714Y-84550500D01*
X148266286Y-84550500D01*
X148266287Y-84550500D01*
X148476243Y-84517246D01*
X148678412Y-84451557D01*
X148867816Y-84355051D01*
X148955732Y-84291177D01*
X149039786Y-84230109D01*
X149039788Y-84230106D01*
X149039792Y-84230104D01*
X149190104Y-84079792D01*
X149190106Y-84079788D01*
X149190109Y-84079786D01*
X149275890Y-83961717D01*
X149315051Y-83907816D01*
X149319793Y-83898508D01*
X149367763Y-83847711D01*
X149435583Y-83830911D01*
X149501719Y-83853445D01*
X149540763Y-83898500D01*
X149545373Y-83907547D01*
X149584728Y-83961716D01*
X150217037Y-83329408D01*
X150234075Y-83392993D01*
X150299901Y-83507007D01*
X150392993Y-83600099D01*
X150507007Y-83665925D01*
X150570590Y-83682962D01*
X149938282Y-84315269D01*
X149938282Y-84315270D01*
X149992449Y-84354624D01*
X150181782Y-84451095D01*
X150383870Y-84516757D01*
X150593754Y-84550000D01*
X150806246Y-84550000D01*
X151016127Y-84516757D01*
X151016130Y-84516757D01*
X151218217Y-84451095D01*
X151407554Y-84354622D01*
X151461716Y-84315270D01*
X151461717Y-84315270D01*
X150829408Y-83682962D01*
X150892993Y-83665925D01*
X151007007Y-83600099D01*
X151100099Y-83507007D01*
X151165925Y-83392993D01*
X151182962Y-83329409D01*
X151815270Y-83961717D01*
X151815270Y-83961716D01*
X151854622Y-83907554D01*
X151951095Y-83718217D01*
X152016757Y-83516130D01*
X152016757Y-83516127D01*
X152050000Y-83306246D01*
X152050000Y-83093753D01*
X152016757Y-82883872D01*
X152016757Y-82883869D01*
X151951095Y-82681782D01*
X151854624Y-82492449D01*
X151815270Y-82438282D01*
X151815269Y-82438282D01*
X151182962Y-83070590D01*
X151165925Y-83007007D01*
X151100099Y-82892993D01*
X151007007Y-82799901D01*
X150892993Y-82734075D01*
X150829409Y-82717037D01*
X151461716Y-82084728D01*
X151458959Y-82049698D01*
X151473323Y-81981321D01*
X151522373Y-81931563D01*
X151590538Y-81916224D01*
X151624323Y-81924080D01*
X151624429Y-81923733D01*
X151629678Y-81925325D01*
X151630029Y-81925407D01*
X151630256Y-81925501D01*
X151630260Y-81925501D01*
X151630261Y-81925502D01*
X151755928Y-81950500D01*
X151755931Y-81950500D01*
X153179192Y-81950500D01*
X153246231Y-81970185D01*
X153266873Y-81986819D01*
X158610325Y-87330272D01*
X158610326Y-87330273D01*
X158610329Y-87330275D01*
X158610331Y-87330277D01*
X158716873Y-87401465D01*
X158835256Y-87450501D01*
X158835260Y-87450501D01*
X158835261Y-87450502D01*
X158960928Y-87475500D01*
X158960931Y-87475500D01*
X159240501Y-87475500D01*
X159307540Y-87495185D01*
X159353295Y-87547989D01*
X159364501Y-87599500D01*
X159364501Y-87722876D01*
X159370908Y-87782483D01*
X159421202Y-87917328D01*
X159421206Y-87917335D01*
X159507452Y-88032544D01*
X159507455Y-88032547D01*
X159622664Y-88118793D01*
X159622671Y-88118797D01*
X159667618Y-88135561D01*
X159757517Y-88169091D01*
X159817127Y-88175500D01*
X159827685Y-88175499D01*
X159894723Y-88195179D01*
X159915372Y-88211818D01*
X160585591Y-88882037D01*
X160522007Y-88899075D01*
X160407993Y-88964901D01*
X160314901Y-89057993D01*
X160249075Y-89172007D01*
X160232037Y-89235591D01*
X159599728Y-88603282D01*
X159599727Y-88603282D01*
X159560380Y-88657439D01*
X159463904Y-88846782D01*
X159398242Y-89048869D01*
X159398242Y-89048872D01*
X159365000Y-89258753D01*
X159365000Y-89471246D01*
X159398242Y-89681127D01*
X159398242Y-89681130D01*
X159463904Y-89883217D01*
X159560375Y-90072550D01*
X159599728Y-90126716D01*
X160232037Y-89494408D01*
X160249075Y-89557993D01*
X160314901Y-89672007D01*
X160407993Y-89765099D01*
X160522007Y-89830925D01*
X160585590Y-89847962D01*
X159953282Y-90480269D01*
X159953282Y-90480270D01*
X160007449Y-90519624D01*
X160196782Y-90616095D01*
X160398870Y-90681757D01*
X160608754Y-90715000D01*
X160821246Y-90715000D01*
X161031127Y-90681757D01*
X161031130Y-90681757D01*
X161233217Y-90616095D01*
X161422554Y-90519622D01*
X161476716Y-90480270D01*
X161476717Y-90480270D01*
X160844408Y-89847962D01*
X160907993Y-89830925D01*
X161022007Y-89765099D01*
X161115099Y-89672007D01*
X161180925Y-89557993D01*
X161197962Y-89494408D01*
X161830270Y-90126717D01*
X161830270Y-90126716D01*
X161869622Y-90072554D01*
X161966095Y-89883217D01*
X162031757Y-89681130D01*
X162031757Y-89681127D01*
X162065000Y-89471246D01*
X162065000Y-89258753D01*
X162031757Y-89048872D01*
X162031757Y-89048869D01*
X161966095Y-88846782D01*
X161869624Y-88657449D01*
X161830270Y-88603282D01*
X161830269Y-88603282D01*
X161197962Y-89235590D01*
X161180925Y-89172007D01*
X161115099Y-89057993D01*
X161022007Y-88964901D01*
X160907993Y-88899075D01*
X160844409Y-88882037D01*
X161514627Y-88211818D01*
X161575950Y-88178333D01*
X161602307Y-88175499D01*
X161612872Y-88175499D01*
X161672483Y-88169091D01*
X161807331Y-88118796D01*
X161922546Y-88032546D01*
X162008796Y-87917331D01*
X162059091Y-87782483D01*
X162065500Y-87722873D01*
X162065499Y-85927128D01*
X162059091Y-85867517D01*
X162008796Y-85732669D01*
X162008795Y-85732668D01*
X162008793Y-85732664D01*
X161922547Y-85617455D01*
X161922544Y-85617452D01*
X161807335Y-85531206D01*
X161807328Y-85531202D01*
X161672482Y-85480908D01*
X161672483Y-85480908D01*
X161612883Y-85474501D01*
X161612881Y-85474500D01*
X161612873Y-85474500D01*
X161612864Y-85474500D01*
X159817129Y-85474500D01*
X159817123Y-85474501D01*
X159757516Y-85480908D01*
X159622671Y-85531202D01*
X159622664Y-85531206D01*
X159507455Y-85617452D01*
X159507452Y-85617455D01*
X159421206Y-85732664D01*
X159421202Y-85732671D01*
X159370908Y-85867517D01*
X159364501Y-85927116D01*
X159364501Y-85927123D01*
X159364500Y-85927135D01*
X159364500Y-85945191D01*
X159344815Y-86012230D01*
X159292011Y-86057985D01*
X159222853Y-86067929D01*
X159159297Y-86038904D01*
X159152819Y-86032872D01*
X153914673Y-80794726D01*
X153914669Y-80794723D01*
X153808127Y-80723535D01*
X153689744Y-80674499D01*
X153689738Y-80674497D01*
X153564071Y-80649500D01*
X153564069Y-80649500D01*
X152140808Y-80649500D01*
X152073769Y-80629815D01*
X152053127Y-80613181D01*
X150702127Y-79262181D01*
X150668642Y-79200858D01*
X150673626Y-79131166D01*
X150715498Y-79075233D01*
X150780962Y-79050816D01*
X150789808Y-79050500D01*
X150866286Y-79050500D01*
X150866287Y-79050500D01*
X151076243Y-79017246D01*
X151278412Y-78951557D01*
X151467816Y-78855051D01*
X151639792Y-78730104D01*
X151753329Y-78616566D01*
X151814648Y-78583084D01*
X151884340Y-78588068D01*
X151940274Y-78629939D01*
X151957189Y-78660917D01*
X152006202Y-78792328D01*
X152006206Y-78792335D01*
X152092452Y-78907544D01*
X152092455Y-78907547D01*
X152207664Y-78993793D01*
X152207671Y-78993797D01*
X152342517Y-79044091D01*
X152342516Y-79044091D01*
X152349444Y-79044835D01*
X152402127Y-79050500D01*
X154197872Y-79050499D01*
X154257483Y-79044091D01*
X154392331Y-78993796D01*
X154507546Y-78907546D01*
X154593796Y-78792331D01*
X154644091Y-78657483D01*
X154650500Y-78597873D01*
X154650499Y-76802128D01*
X154644091Y-76742517D01*
X154638351Y-76727128D01*
X154593797Y-76607671D01*
X154593793Y-76607664D01*
X154507547Y-76492455D01*
X154507544Y-76492452D01*
X154392335Y-76406206D01*
X154392328Y-76406202D01*
X154257482Y-76355908D01*
X154257483Y-76355908D01*
X154197883Y-76349501D01*
X154197881Y-76349500D01*
X154197873Y-76349500D01*
X154197865Y-76349500D01*
X152920808Y-76349500D01*
X152853769Y-76329815D01*
X152833127Y-76313181D01*
X150486819Y-73966873D01*
X150453334Y-73905550D01*
X150450500Y-73879192D01*
X150450500Y-73594464D01*
X150470185Y-73527425D01*
X150501616Y-73494145D01*
X150582069Y-73435693D01*
X150582069Y-73435692D01*
X150582073Y-73435690D01*
X150715690Y-73302073D01*
X150826760Y-73149199D01*
X150912547Y-72980832D01*
X150912546Y-72980832D01*
X150914759Y-72976491D01*
X150916794Y-72977528D01*
X150954672Y-72930469D01*
X151020953Y-72908365D01*
X151088662Y-72925604D01*
X151135937Y-72975988D01*
X151165548Y-73034103D01*
X151173240Y-73049199D01*
X151284310Y-73202073D01*
X151417927Y-73335690D01*
X151570801Y-73446760D01*
X151634731Y-73479334D01*
X151739163Y-73532545D01*
X151739165Y-73532545D01*
X151739168Y-73532547D01*
X151782908Y-73546759D01*
X151918881Y-73590940D01*
X152105514Y-73620500D01*
X152105519Y-73620500D01*
X152294486Y-73620500D01*
X152481118Y-73590940D01*
X152506561Y-73582673D01*
X152660832Y-73532547D01*
X152689614Y-73517882D01*
X153845669Y-73517882D01*
X153845670Y-73517883D01*
X153871059Y-73536329D01*
X154039362Y-73622085D01*
X154218997Y-73680451D01*
X154405553Y-73710000D01*
X154594447Y-73710000D01*
X154781002Y-73680451D01*
X154960637Y-73622085D01*
X155128937Y-73536331D01*
X155154328Y-73517883D01*
X155154328Y-73517882D01*
X154500001Y-72863554D01*
X154500000Y-72863554D01*
X153845669Y-73517882D01*
X152689614Y-73517882D01*
X152829199Y-73446760D01*
X152982073Y-73335690D01*
X153115690Y-73202073D01*
X153226075Y-73050140D01*
X153281404Y-73007476D01*
X153351017Y-73001497D01*
X153412812Y-73034103D01*
X153436876Y-73066731D01*
X153473664Y-73138930D01*
X153492116Y-73164328D01*
X154146446Y-72510000D01*
X154146446Y-72509999D01*
X154100369Y-72463922D01*
X154150000Y-72463922D01*
X154150000Y-72556078D01*
X154173852Y-72645095D01*
X154219930Y-72724905D01*
X154285095Y-72790070D01*
X154364905Y-72836148D01*
X154453922Y-72860000D01*
X154546078Y-72860000D01*
X154635095Y-72836148D01*
X154714905Y-72790070D01*
X154780070Y-72724905D01*
X154826148Y-72645095D01*
X154850000Y-72556078D01*
X154850000Y-72509999D01*
X154853554Y-72509999D01*
X154853554Y-72510000D01*
X155507882Y-73164328D01*
X155507883Y-73164328D01*
X155526333Y-73138935D01*
X155526333Y-73138934D01*
X155586686Y-73020485D01*
X155634660Y-72969688D01*
X155702481Y-72952893D01*
X155768616Y-72975430D01*
X155807656Y-73020484D01*
X155850500Y-73104569D01*
X155873240Y-73149199D01*
X155984310Y-73302073D01*
X156117927Y-73435690D01*
X156270801Y-73546760D01*
X156350347Y-73587290D01*
X156439163Y-73632545D01*
X156439165Y-73632545D01*
X156439168Y-73632547D01*
X156535497Y-73663846D01*
X156618881Y-73690940D01*
X156805514Y-73720500D01*
X156805519Y-73720500D01*
X156994479Y-73720500D01*
X156994481Y-73720500D01*
X157092711Y-73704941D01*
X157162000Y-73713895D01*
X157199787Y-73739733D01*
X159581858Y-76121804D01*
X159615343Y-76183127D01*
X159610359Y-76252819D01*
X159568487Y-76308752D01*
X159537516Y-76325665D01*
X159522672Y-76331201D01*
X159522664Y-76331206D01*
X159407455Y-76417452D01*
X159407452Y-76417455D01*
X159321206Y-76532664D01*
X159321202Y-76532671D01*
X159270908Y-76667517D01*
X159264501Y-76727116D01*
X159264501Y-76727123D01*
X159264500Y-76727135D01*
X159264500Y-78522870D01*
X159264501Y-78522876D01*
X159270908Y-78582483D01*
X159321202Y-78717328D01*
X159321206Y-78717335D01*
X159407452Y-78832544D01*
X159407455Y-78832547D01*
X159522664Y-78918793D01*
X159522671Y-78918797D01*
X159547834Y-78928182D01*
X159657517Y-78969091D01*
X159717127Y-78975500D01*
X159727685Y-78975499D01*
X159794723Y-78995179D01*
X159815372Y-79011818D01*
X160485591Y-79682037D01*
X160422007Y-79699075D01*
X160307993Y-79764901D01*
X160214901Y-79857993D01*
X160149075Y-79972007D01*
X160132037Y-80035591D01*
X159499728Y-79403282D01*
X159499727Y-79403282D01*
X159460380Y-79457439D01*
X159363904Y-79646782D01*
X159298242Y-79848869D01*
X159298242Y-79848872D01*
X159265000Y-80058753D01*
X159265000Y-80271246D01*
X159298242Y-80481127D01*
X159298242Y-80481130D01*
X159363904Y-80683217D01*
X159460375Y-80872550D01*
X159499728Y-80926716D01*
X160132037Y-80294408D01*
X160149075Y-80357993D01*
X160214901Y-80472007D01*
X160307993Y-80565099D01*
X160422007Y-80630925D01*
X160485590Y-80647962D01*
X159853282Y-81280269D01*
X159853282Y-81280270D01*
X159907449Y-81319624D01*
X160096782Y-81416095D01*
X160298870Y-81481757D01*
X160508754Y-81515000D01*
X160721246Y-81515000D01*
X160931127Y-81481757D01*
X160931130Y-81481757D01*
X161133217Y-81416095D01*
X161322554Y-81319622D01*
X161376716Y-81280270D01*
X161376717Y-81280270D01*
X160744408Y-80647962D01*
X160807993Y-80630925D01*
X160922007Y-80565099D01*
X161015099Y-80472007D01*
X161080925Y-80357993D01*
X161097962Y-80294408D01*
X161730270Y-80926717D01*
X161730270Y-80926716D01*
X161769622Y-80872554D01*
X161866095Y-80683217D01*
X161931757Y-80481130D01*
X161931757Y-80481127D01*
X161965000Y-80271246D01*
X161965000Y-80058753D01*
X161931757Y-79848872D01*
X161931757Y-79848869D01*
X161866095Y-79646782D01*
X161769624Y-79457449D01*
X161730270Y-79403282D01*
X161730269Y-79403282D01*
X161097962Y-80035590D01*
X161080925Y-79972007D01*
X161015099Y-79857993D01*
X160922007Y-79764901D01*
X160807993Y-79699075D01*
X160744409Y-79682037D01*
X161414627Y-79011818D01*
X161475950Y-78978333D01*
X161502307Y-78975499D01*
X161512872Y-78975499D01*
X161572483Y-78969091D01*
X161707331Y-78918796D01*
X161822546Y-78832546D01*
X161908796Y-78717331D01*
X161959091Y-78582483D01*
X161965500Y-78522873D01*
X161965499Y-76727128D01*
X161959091Y-76667517D01*
X161936767Y-76607664D01*
X161908797Y-76532671D01*
X161908793Y-76532664D01*
X161822547Y-76417455D01*
X161822544Y-76417452D01*
X161707335Y-76331206D01*
X161707328Y-76331202D01*
X161572482Y-76280908D01*
X161572483Y-76280908D01*
X161512883Y-76274501D01*
X161512881Y-76274500D01*
X161512873Y-76274500D01*
X161512865Y-76274500D01*
X161387866Y-76274500D01*
X161320827Y-76254815D01*
X161275072Y-76202011D01*
X161266249Y-76174692D01*
X161240502Y-76045261D01*
X161240501Y-76045260D01*
X161240501Y-76045256D01*
X161191465Y-75926873D01*
X161184154Y-75915931D01*
X161184153Y-75915929D01*
X161184153Y-75915928D01*
X161120279Y-75820334D01*
X161120273Y-75820326D01*
X158119733Y-72819787D01*
X158119294Y-72818983D01*
X158118496Y-72818533D01*
X158102581Y-72788376D01*
X158086248Y-72758464D01*
X158086171Y-72757281D01*
X158085886Y-72756740D01*
X158085760Y-72750893D01*
X158083868Y-72721503D01*
X158084245Y-72717107D01*
X158100500Y-72614481D01*
X158100500Y-72425519D01*
X158100500Y-72425513D01*
X158070940Y-72238881D01*
X158012545Y-72059163D01*
X157947204Y-71930925D01*
X157926760Y-71890801D01*
X157815690Y-71737927D01*
X157682073Y-71604310D01*
X157529199Y-71493240D01*
X157454008Y-71454928D01*
X157360836Y-71407454D01*
X157181118Y-71349059D01*
X156994486Y-71319500D01*
X156994481Y-71319500D01*
X156805519Y-71319500D01*
X156805514Y-71319500D01*
X156618881Y-71349059D01*
X156439163Y-71407454D01*
X156270800Y-71493240D01*
X156183579Y-71556610D01*
X156117927Y-71604310D01*
X156117925Y-71604312D01*
X156117924Y-71604312D01*
X155984312Y-71737924D01*
X155984312Y-71737925D01*
X155984310Y-71737927D01*
X155952923Y-71781127D01*
X155873240Y-71890800D01*
X155812752Y-72009515D01*
X155764777Y-72060311D01*
X155696956Y-72077106D01*
X155630821Y-72054568D01*
X155591782Y-72009515D01*
X155526329Y-71881059D01*
X155507883Y-71855670D01*
X155507882Y-71855669D01*
X154853554Y-72509999D01*
X154850000Y-72509999D01*
X154850000Y-72463922D01*
X154826148Y-72374905D01*
X154780070Y-72295095D01*
X154714905Y-72229930D01*
X154635095Y-72183852D01*
X154546078Y-72160000D01*
X154453922Y-72160000D01*
X154364905Y-72183852D01*
X154285095Y-72229930D01*
X154219930Y-72295095D01*
X154173852Y-72374905D01*
X154150000Y-72463922D01*
X154100369Y-72463922D01*
X153492116Y-71855669D01*
X153492114Y-71855670D01*
X153474510Y-71879902D01*
X153419181Y-71922568D01*
X153349568Y-71928549D01*
X153287772Y-71895944D01*
X153263706Y-71863312D01*
X153226761Y-71790802D01*
X153190336Y-71740668D01*
X153115690Y-71637927D01*
X152982073Y-71504310D01*
X152979053Y-71502116D01*
X153845669Y-71502116D01*
X154500000Y-72156446D01*
X154500001Y-72156446D01*
X155154328Y-71502116D01*
X155128933Y-71483666D01*
X154960637Y-71397914D01*
X154781002Y-71339548D01*
X154594447Y-71310000D01*
X154405553Y-71310000D01*
X154218997Y-71339548D01*
X154039362Y-71397914D01*
X153871060Y-71483669D01*
X153845670Y-71502116D01*
X153845669Y-71502116D01*
X152979053Y-71502116D01*
X152829199Y-71393240D01*
X152793764Y-71375185D01*
X152660836Y-71307454D01*
X152481118Y-71249059D01*
X152294486Y-71219500D01*
X152294481Y-71219500D01*
X152105519Y-71219500D01*
X152105514Y-71219500D01*
X152007290Y-71235057D01*
X151937996Y-71226102D01*
X151900211Y-71200265D01*
X151094674Y-70394727D01*
X151094673Y-70394726D01*
X151094669Y-70394723D01*
X150988127Y-70323535D01*
X150869744Y-70274499D01*
X150869738Y-70274497D01*
X150744071Y-70249500D01*
X150744069Y-70249500D01*
X149235931Y-70249500D01*
X149235929Y-70249500D01*
X149110261Y-70274497D01*
X149110255Y-70274499D01*
X148991870Y-70323535D01*
X148885331Y-70394722D01*
X148885324Y-70394728D01*
X148262181Y-71017872D01*
X148200858Y-71051357D01*
X148131166Y-71046373D01*
X148075233Y-71004501D01*
X148051888Y-70941913D01*
X148051097Y-70941991D01*
X148050500Y-70935928D01*
X148025502Y-70810261D01*
X148025501Y-70810260D01*
X148025501Y-70810256D01*
X147976465Y-70691873D01*
X147976464Y-70691872D01*
X147976461Y-70691866D01*
X147905277Y-70585332D01*
X147905276Y-70585331D01*
X147814669Y-70494724D01*
X147714667Y-70394722D01*
X147214674Y-69894727D01*
X147214673Y-69894726D01*
X147196350Y-69882483D01*
X147108127Y-69823535D01*
X147106526Y-69822872D01*
X146989744Y-69774499D01*
X146989738Y-69774497D01*
X146864071Y-69749500D01*
X146864069Y-69749500D01*
X137845931Y-69749500D01*
X137845929Y-69749500D01*
X137720261Y-69774497D01*
X137720255Y-69774499D01*
X137601874Y-69823534D01*
X137495326Y-69894726D01*
X136116871Y-71273181D01*
X136055548Y-71306666D01*
X136029190Y-71309500D01*
X135099998Y-71309500D01*
X135099980Y-71309501D01*
X134997203Y-71320000D01*
X134997200Y-71320001D01*
X134830668Y-71375185D01*
X134830663Y-71375187D01*
X134681342Y-71467289D01*
X134557289Y-71591342D01*
X134465187Y-71740663D01*
X134465185Y-71740668D01*
X134439376Y-71818554D01*
X134410001Y-71907203D01*
X134410001Y-71907204D01*
X134410000Y-71907204D01*
X134399500Y-72009983D01*
X134399500Y-73210001D01*
X134399501Y-73210018D01*
X134410000Y-73312796D01*
X134410001Y-73312799D01*
X134429057Y-73370305D01*
X134465186Y-73479334D01*
X134557288Y-73628656D01*
X134681344Y-73752712D01*
X134830666Y-73844814D01*
X134997203Y-73899999D01*
X135099991Y-73910500D01*
X136300008Y-73910499D01*
X136402797Y-73899999D01*
X136569334Y-73844814D01*
X136718656Y-73752712D01*
X136842712Y-73628656D01*
X136844461Y-73625819D01*
X136846169Y-73624283D01*
X136847193Y-73622989D01*
X136847414Y-73623163D01*
X136896406Y-73579096D01*
X136965368Y-73567872D01*
X137029451Y-73595713D01*
X137055537Y-73625817D01*
X137057288Y-73628656D01*
X137181344Y-73752712D01*
X137330666Y-73844814D01*
X137464505Y-73889164D01*
X137521949Y-73928936D01*
X137548772Y-73993451D01*
X137549500Y-74006869D01*
X137549500Y-74699191D01*
X137529815Y-74766230D01*
X137513181Y-74786872D01*
X135950710Y-76349342D01*
X135889387Y-76382827D01*
X135841245Y-76382315D01*
X135841055Y-76383516D01*
X135736111Y-76366894D01*
X135626287Y-76349500D01*
X135413713Y-76349500D01*
X135365042Y-76357208D01*
X135203760Y-76382753D01*
X135001585Y-76448444D01*
X134812179Y-76544951D01*
X134640213Y-76669890D01*
X134489890Y-76820213D01*
X134364949Y-76992182D01*
X134360484Y-77000946D01*
X134312509Y-77051742D01*
X134244688Y-77068536D01*
X134178553Y-77045998D01*
X134139516Y-77000946D01*
X134135050Y-76992182D01*
X134010109Y-76820213D01*
X133859786Y-76669890D01*
X133683875Y-76542085D01*
X133684851Y-76540740D01*
X133642834Y-76494295D01*
X133630500Y-76440382D01*
X133630500Y-64640808D01*
X133650185Y-64573769D01*
X133666819Y-64553127D01*
X137225273Y-60994673D01*
X137225277Y-60994669D01*
X137296465Y-60888127D01*
X137345501Y-60769743D01*
X137370500Y-60644069D01*
X137370500Y-60515931D01*
X137370500Y-59966269D01*
X137390185Y-59899230D01*
X137442989Y-59853475D01*
X137512147Y-59843531D01*
X137536868Y-59850312D01*
X137536954Y-59850051D01*
X137541586Y-59851556D01*
X137541588Y-59851557D01*
X137743757Y-59917246D01*
X137953713Y-59950500D01*
X137953714Y-59950500D01*
X138166286Y-59950500D01*
X138166287Y-59950500D01*
X138276111Y-59933105D01*
X138381055Y-59916484D01*
X138381315Y-59918128D01*
X138443852Y-59921250D01*
X138490711Y-59950657D01*
X141545325Y-63005272D01*
X141545326Y-63005273D01*
X141545329Y-63005275D01*
X141545331Y-63005277D01*
X141651873Y-63076465D01*
X141770256Y-63125501D01*
X141770260Y-63125501D01*
X141770261Y-63125502D01*
X141895928Y-63150500D01*
X141895931Y-63150500D01*
X149579192Y-63150500D01*
X149646231Y-63170185D01*
X149666873Y-63186819D01*
X149967873Y-63487819D01*
X150001358Y-63549142D01*
X149996374Y-63618834D01*
X149954502Y-63674767D01*
X149889038Y-63699184D01*
X149880192Y-63699500D01*
X149705514Y-63699500D01*
X149518881Y-63729059D01*
X149339163Y-63787454D01*
X149170800Y-63873240D01*
X149017924Y-63984312D01*
X148884312Y-64117924D01*
X148884312Y-64117925D01*
X148884310Y-64117927D01*
X148866249Y-64142786D01*
X148773239Y-64270801D01*
X148772736Y-64271790D01*
X148772443Y-64272099D01*
X148770695Y-64274953D01*
X148770095Y-64274585D01*
X148724765Y-64322588D01*
X148662249Y-64339500D01*
X146898071Y-64339500D01*
X146831032Y-64319815D01*
X146797754Y-64288386D01*
X146691966Y-64142781D01*
X146547219Y-63998034D01*
X146547213Y-63998028D01*
X146381613Y-63877715D01*
X146381612Y-63877714D01*
X146381610Y-63877713D01*
X146324653Y-63848691D01*
X146199223Y-63784781D01*
X146004534Y-63721522D01*
X145829995Y-63693878D01*
X145802352Y-63689500D01*
X145597648Y-63689500D01*
X145573329Y-63693351D01*
X145395465Y-63721522D01*
X145200776Y-63784781D01*
X145018386Y-63877715D01*
X144852786Y-63998028D01*
X144708034Y-64142780D01*
X144657137Y-64212835D01*
X144602246Y-64288386D01*
X144597914Y-64291726D01*
X144595642Y-64296703D01*
X144570545Y-64312831D01*
X144546918Y-64331051D01*
X144540244Y-64332304D01*
X144536864Y-64334477D01*
X144501929Y-64339500D01*
X144398071Y-64339500D01*
X144331032Y-64319815D01*
X144297754Y-64288386D01*
X144191966Y-64142781D01*
X144047219Y-63998034D01*
X144047213Y-63998028D01*
X143881613Y-63877715D01*
X143881612Y-63877714D01*
X143881610Y-63877713D01*
X143824653Y-63848691D01*
X143699223Y-63784781D01*
X143504534Y-63721522D01*
X143329995Y-63693878D01*
X143302352Y-63689500D01*
X143097648Y-63689500D01*
X143073329Y-63693351D01*
X142895465Y-63721522D01*
X142700776Y-63784781D01*
X142518386Y-63877715D01*
X142352786Y-63998028D01*
X142208034Y-64142780D01*
X142157137Y-64212835D01*
X142102246Y-64288386D01*
X142097914Y-64291726D01*
X142095642Y-64296703D01*
X142070545Y-64312831D01*
X142046918Y-64331051D01*
X142040244Y-64332304D01*
X142036864Y-64334477D01*
X142001929Y-64339500D01*
X141898071Y-64339500D01*
X141831032Y-64319815D01*
X141797754Y-64288386D01*
X141691966Y-64142781D01*
X141547219Y-63998034D01*
X141547213Y-63998028D01*
X141381613Y-63877715D01*
X141381612Y-63877714D01*
X141381610Y-63877713D01*
X141324653Y-63848691D01*
X141199223Y-63784781D01*
X141004534Y-63721522D01*
X140829995Y-63693878D01*
X140802352Y-63689500D01*
X140597648Y-63689500D01*
X140573329Y-63693351D01*
X140395465Y-63721522D01*
X140200776Y-63784781D01*
X140018386Y-63877715D01*
X139852786Y-63998028D01*
X139708034Y-64142780D01*
X139657137Y-64212835D01*
X139602246Y-64288386D01*
X139597914Y-64291726D01*
X139595642Y-64296703D01*
X139570545Y-64312831D01*
X139546918Y-64331051D01*
X139540244Y-64332304D01*
X139536864Y-64334477D01*
X139501929Y-64339500D01*
X139398071Y-64339500D01*
X139331032Y-64319815D01*
X139297754Y-64288386D01*
X139191966Y-64142781D01*
X139047219Y-63998034D01*
X139047213Y-63998028D01*
X138881613Y-63877715D01*
X138881612Y-63877714D01*
X138881610Y-63877713D01*
X138824653Y-63848691D01*
X138699223Y-63784781D01*
X138504534Y-63721522D01*
X138329995Y-63693878D01*
X138302352Y-63689500D01*
X138097648Y-63689500D01*
X138073329Y-63693351D01*
X137895465Y-63721522D01*
X137700776Y-63784781D01*
X137518386Y-63877715D01*
X137352786Y-63998028D01*
X137208034Y-64142780D01*
X137157137Y-64212835D01*
X137102246Y-64288386D01*
X137097914Y-64291726D01*
X137095642Y-64296703D01*
X137070545Y-64312831D01*
X137046918Y-64331051D01*
X137040244Y-64332304D01*
X137036864Y-64334477D01*
X137001929Y-64339500D01*
X136898071Y-64339500D01*
X136831032Y-64319815D01*
X136797754Y-64288386D01*
X136691966Y-64142781D01*
X136547219Y-63998034D01*
X136547213Y-63998028D01*
X136381613Y-63877715D01*
X136381612Y-63877714D01*
X136381610Y-63877713D01*
X136324653Y-63848691D01*
X136199223Y-63784781D01*
X136004534Y-63721522D01*
X135829995Y-63693878D01*
X135802352Y-63689500D01*
X135597648Y-63689500D01*
X135573329Y-63693351D01*
X135395465Y-63721522D01*
X135200776Y-63784781D01*
X135018386Y-63877715D01*
X134852786Y-63998028D01*
X134708028Y-64142786D01*
X134587715Y-64308386D01*
X134494781Y-64490776D01*
X134431522Y-64685465D01*
X134399500Y-64887648D01*
X134399500Y-65092351D01*
X134431522Y-65294534D01*
X134494781Y-65489223D01*
X134587715Y-65671613D01*
X134708028Y-65837213D01*
X134852786Y-65981971D01*
X134961480Y-66060940D01*
X135018390Y-66102287D01*
X135134607Y-66161503D01*
X135200776Y-66195218D01*
X135200778Y-66195218D01*
X135200781Y-66195220D01*
X135305137Y-66229127D01*
X135395465Y-66258477D01*
X135496557Y-66274488D01*
X135597648Y-66290500D01*
X135597649Y-66290500D01*
X135802351Y-66290500D01*
X135802352Y-66290500D01*
X136004534Y-66258477D01*
X136199219Y-66195220D01*
X136381610Y-66102287D01*
X136505128Y-66012547D01*
X136547213Y-65981971D01*
X136547215Y-65981968D01*
X136547219Y-65981966D01*
X136691966Y-65837219D01*
X136797753Y-65691613D01*
X136802085Y-65688273D01*
X136804358Y-65683297D01*
X136829454Y-65667168D01*
X136853082Y-65648949D01*
X136859755Y-65647695D01*
X136863136Y-65645523D01*
X136898071Y-65640500D01*
X137001929Y-65640500D01*
X137068968Y-65660185D01*
X137102245Y-65691613D01*
X137142244Y-65746666D01*
X137208034Y-65837219D01*
X137352786Y-65981971D01*
X137461480Y-66060940D01*
X137518390Y-66102287D01*
X137634607Y-66161503D01*
X137700776Y-66195218D01*
X137700778Y-66195218D01*
X137700781Y-66195220D01*
X137805137Y-66229127D01*
X137895465Y-66258477D01*
X137996557Y-66274488D01*
X138097648Y-66290500D01*
X138097649Y-66290500D01*
X138302351Y-66290500D01*
X138302352Y-66290500D01*
X138504534Y-66258477D01*
X138699219Y-66195220D01*
X138881610Y-66102287D01*
X139005128Y-66012547D01*
X139047213Y-65981971D01*
X139047215Y-65981968D01*
X139047219Y-65981966D01*
X139191966Y-65837219D01*
X139297753Y-65691613D01*
X139302085Y-65688273D01*
X139304358Y-65683297D01*
X139329454Y-65667168D01*
X139353082Y-65648949D01*
X139359755Y-65647695D01*
X139363136Y-65645523D01*
X139398071Y-65640500D01*
X139501929Y-65640500D01*
X139568968Y-65660185D01*
X139602245Y-65691613D01*
X139642244Y-65746666D01*
X139708034Y-65837219D01*
X139852786Y-65981971D01*
X139961480Y-66060940D01*
X140018390Y-66102287D01*
X140134607Y-66161503D01*
X140200776Y-66195218D01*
X140200778Y-66195218D01*
X140200781Y-66195220D01*
X140305137Y-66229127D01*
X140395465Y-66258477D01*
X140496557Y-66274488D01*
X140597648Y-66290500D01*
X140597649Y-66290500D01*
X140802351Y-66290500D01*
X140802352Y-66290500D01*
X141004534Y-66258477D01*
X141199219Y-66195220D01*
X141381610Y-66102287D01*
X141505128Y-66012547D01*
X141547213Y-65981971D01*
X141547215Y-65981968D01*
X141547219Y-65981966D01*
X141691966Y-65837219D01*
X141797753Y-65691613D01*
X141802085Y-65688273D01*
X141804358Y-65683297D01*
X141829454Y-65667168D01*
X141853082Y-65648949D01*
X141859755Y-65647695D01*
X141863136Y-65645523D01*
X141898071Y-65640500D01*
X142001929Y-65640500D01*
X142068968Y-65660185D01*
X142102245Y-65691613D01*
X142142244Y-65746666D01*
X142208034Y-65837219D01*
X142352786Y-65981971D01*
X142461480Y-66060940D01*
X142518390Y-66102287D01*
X142634607Y-66161503D01*
X142700776Y-66195218D01*
X142700778Y-66195218D01*
X142700781Y-66195220D01*
X142805137Y-66229127D01*
X142895465Y-66258477D01*
X142996557Y-66274488D01*
X143097648Y-66290500D01*
X143097649Y-66290500D01*
X143302351Y-66290500D01*
X143302352Y-66290500D01*
X143504534Y-66258477D01*
X143699219Y-66195220D01*
X143881610Y-66102287D01*
X144005128Y-66012547D01*
X144047213Y-65981971D01*
X144047215Y-65981968D01*
X144047219Y-65981966D01*
X144191966Y-65837219D01*
X144297753Y-65691613D01*
X144302085Y-65688273D01*
X144304358Y-65683297D01*
X144329454Y-65667168D01*
X144353082Y-65648949D01*
X144359755Y-65647695D01*
X144363136Y-65645523D01*
X144398071Y-65640500D01*
X144501929Y-65640500D01*
X144568968Y-65660185D01*
X144602245Y-65691613D01*
X144642244Y-65746666D01*
X144708034Y-65837219D01*
X144852786Y-65981971D01*
X144961480Y-66060940D01*
X145018390Y-66102287D01*
X145134607Y-66161503D01*
X145200776Y-66195218D01*
X145200778Y-66195218D01*
X145200781Y-66195220D01*
X145305137Y-66229127D01*
X145395465Y-66258477D01*
X145496557Y-66274488D01*
X145597648Y-66290500D01*
X145597649Y-66290500D01*
X145802351Y-66290500D01*
X145802352Y-66290500D01*
X146004534Y-66258477D01*
X146199219Y-66195220D01*
X146381610Y-66102287D01*
X146505128Y-66012547D01*
X146547213Y-65981971D01*
X146547215Y-65981968D01*
X146547219Y-65981966D01*
X146691966Y-65837219D01*
X146797753Y-65691613D01*
X146853082Y-65648949D01*
X146898071Y-65640500D01*
X148791639Y-65640500D01*
X148858678Y-65660185D01*
X148880373Y-65679119D01*
X148880865Y-65678628D01*
X148884310Y-65682073D01*
X149017927Y-65815690D01*
X149170801Y-65926760D01*
X149250347Y-65967290D01*
X149339163Y-66012545D01*
X149339165Y-66012545D01*
X149339168Y-66012547D01*
X149435497Y-66043846D01*
X149518881Y-66070940D01*
X149705514Y-66100500D01*
X149705519Y-66100500D01*
X149894486Y-66100500D01*
X150081118Y-66070940D01*
X150099221Y-66065058D01*
X150260832Y-66012547D01*
X150429199Y-65926760D01*
X150582073Y-65815690D01*
X150715690Y-65682073D01*
X150826760Y-65529199D01*
X150912547Y-65360832D01*
X150912546Y-65360832D01*
X150914759Y-65356491D01*
X150916794Y-65357528D01*
X150954672Y-65310469D01*
X151020953Y-65288365D01*
X151088662Y-65305604D01*
X151135937Y-65355988D01*
X151136722Y-65357528D01*
X151173240Y-65429199D01*
X151284310Y-65582073D01*
X151417927Y-65715690D01*
X151570801Y-65826760D01*
X151650347Y-65867290D01*
X151739163Y-65912545D01*
X151739165Y-65912545D01*
X151739168Y-65912547D01*
X151782908Y-65926759D01*
X151918881Y-65970940D01*
X152105514Y-66000500D01*
X152105519Y-66000500D01*
X152294486Y-66000500D01*
X152481118Y-65970940D01*
X152660832Y-65912547D01*
X152829199Y-65826760D01*
X152982073Y-65715690D01*
X153115690Y-65582073D01*
X153115690Y-65582072D01*
X153119135Y-65578628D01*
X153120221Y-65579714D01*
X153143682Y-65564638D01*
X153172576Y-65545776D01*
X153173168Y-65545688D01*
X153173426Y-65545523D01*
X153208361Y-65540500D01*
X153425535Y-65540500D01*
X153492574Y-65560185D01*
X153525852Y-65591613D01*
X153584310Y-65672073D01*
X153717927Y-65805690D01*
X153870801Y-65916760D01*
X153950347Y-65957290D01*
X154039163Y-66002545D01*
X154039165Y-66002545D01*
X154039168Y-66002547D01*
X154069945Y-66012547D01*
X154218881Y-66060940D01*
X154405514Y-66090500D01*
X154405519Y-66090500D01*
X154594479Y-66090500D01*
X154594481Y-66090500D01*
X154692711Y-66074941D01*
X154762000Y-66083895D01*
X154799787Y-66109733D01*
X155145324Y-66455271D01*
X155145331Y-66455277D01*
X155251871Y-66526464D01*
X155251870Y-66526464D01*
X155286544Y-66540826D01*
X155370256Y-66575501D01*
X155370260Y-66575501D01*
X155370261Y-66575502D01*
X155495928Y-66600500D01*
X155495931Y-66600500D01*
X160480192Y-66600500D01*
X160547231Y-66620185D01*
X160592986Y-66672989D01*
X160602930Y-66742147D01*
X160573905Y-66805703D01*
X160567873Y-66812181D01*
X160109727Y-67270325D01*
X160109726Y-67270326D01*
X160038533Y-67376875D01*
X159988381Y-67497953D01*
X159944539Y-67552357D01*
X159878245Y-67574421D01*
X159873821Y-67574500D01*
X159717130Y-67574500D01*
X159717123Y-67574501D01*
X159657516Y-67580908D01*
X159522671Y-67631202D01*
X159522664Y-67631206D01*
X159407455Y-67717452D01*
X159407452Y-67717455D01*
X159321206Y-67832664D01*
X159321202Y-67832671D01*
X159270908Y-67967517D01*
X159264501Y-68027116D01*
X159264501Y-68027123D01*
X159264500Y-68027135D01*
X159264500Y-69822870D01*
X159264501Y-69822876D01*
X159270908Y-69882483D01*
X159321202Y-70017328D01*
X159321206Y-70017335D01*
X159407452Y-70132544D01*
X159407455Y-70132547D01*
X159522664Y-70218793D01*
X159522671Y-70218797D01*
X159567618Y-70235561D01*
X159657517Y-70269091D01*
X159717127Y-70275500D01*
X159727685Y-70275499D01*
X159794723Y-70295179D01*
X159815372Y-70311818D01*
X160485591Y-70982037D01*
X160422007Y-70999075D01*
X160307993Y-71064901D01*
X160214901Y-71157993D01*
X160149075Y-71272007D01*
X160132037Y-71335591D01*
X159499728Y-70703282D01*
X159499727Y-70703282D01*
X159460380Y-70757439D01*
X159363904Y-70946782D01*
X159298242Y-71148869D01*
X159298242Y-71148872D01*
X159265000Y-71358753D01*
X159265000Y-71571246D01*
X159298242Y-71781127D01*
X159298242Y-71781130D01*
X159363904Y-71983217D01*
X159460375Y-72172550D01*
X159499728Y-72226716D01*
X160132037Y-71594408D01*
X160149075Y-71657993D01*
X160214901Y-71772007D01*
X160307993Y-71865099D01*
X160422007Y-71930925D01*
X160485590Y-71947962D01*
X159853282Y-72580269D01*
X159853282Y-72580270D01*
X159907449Y-72619624D01*
X160096782Y-72716095D01*
X160298870Y-72781757D01*
X160508754Y-72815000D01*
X160721246Y-72815000D01*
X160931127Y-72781757D01*
X160931130Y-72781757D01*
X161133217Y-72716095D01*
X161322554Y-72619622D01*
X161376716Y-72580270D01*
X161376717Y-72580270D01*
X160744408Y-71947962D01*
X160807993Y-71930925D01*
X160922007Y-71865099D01*
X161015099Y-71772007D01*
X161080925Y-71657993D01*
X161097962Y-71594408D01*
X161730270Y-72226717D01*
X161730270Y-72226716D01*
X161769622Y-72172554D01*
X161866095Y-71983217D01*
X161931757Y-71781130D01*
X161931757Y-71781127D01*
X161965000Y-71571246D01*
X161965000Y-71358753D01*
X161931757Y-71148872D01*
X161931757Y-71148869D01*
X161866095Y-70946782D01*
X161769624Y-70757449D01*
X161730270Y-70703282D01*
X161730269Y-70703282D01*
X161097962Y-71335590D01*
X161080925Y-71272007D01*
X161015099Y-71157993D01*
X160922007Y-71064901D01*
X160807993Y-70999075D01*
X160744409Y-70982037D01*
X161414627Y-70311818D01*
X161475950Y-70278333D01*
X161502307Y-70275499D01*
X161512872Y-70275499D01*
X161572483Y-70269091D01*
X161707331Y-70218796D01*
X161822546Y-70132546D01*
X161908796Y-70017331D01*
X161959091Y-69882483D01*
X161965500Y-69822873D01*
X161965499Y-68027128D01*
X161959091Y-67967517D01*
X161908796Y-67832669D01*
X161908795Y-67832668D01*
X161908793Y-67832664D01*
X161822547Y-67717455D01*
X161822544Y-67717452D01*
X161754070Y-67666192D01*
X161712199Y-67610258D01*
X161707215Y-67540567D01*
X161740700Y-67479245D01*
X162133127Y-67086819D01*
X162194450Y-67053334D01*
X162220808Y-67050500D01*
X163964071Y-67050500D01*
X164048615Y-67033682D01*
X164089744Y-67025501D01*
X164208127Y-66976465D01*
X164314669Y-66905277D01*
X166305277Y-64914669D01*
X166376465Y-64808127D01*
X166376467Y-64808123D01*
X166404477Y-64740501D01*
X166404477Y-64740500D01*
X166417537Y-64708970D01*
X166425501Y-64689744D01*
X166446889Y-64582224D01*
X166450500Y-64564071D01*
X166450500Y-59633350D01*
X166470185Y-59566311D01*
X166501613Y-59533033D01*
X166634190Y-59436711D01*
X166776711Y-59294190D01*
X166895182Y-59131129D01*
X166986686Y-58951542D01*
X167048970Y-58759851D01*
X167053027Y-58734237D01*
X167082956Y-58671102D01*
X167142268Y-58634171D01*
X167212130Y-58635169D01*
X167270363Y-58673779D01*
X167298477Y-58737742D01*
X167299500Y-58753635D01*
X167299500Y-112175500D01*
X167279815Y-112242539D01*
X167227011Y-112288294D01*
X167175500Y-112299500D01*
X114724500Y-112299500D01*
X114657461Y-112279815D01*
X114611706Y-112227011D01*
X114600500Y-112175500D01*
X114600500Y-109878711D01*
X115149500Y-109878711D01*
X115149500Y-110121288D01*
X115181161Y-110361785D01*
X115243947Y-110596104D01*
X115336773Y-110820205D01*
X115336776Y-110820212D01*
X115458064Y-111030289D01*
X115458066Y-111030292D01*
X115458067Y-111030293D01*
X115605733Y-111222736D01*
X115605739Y-111222743D01*
X115777256Y-111394260D01*
X115777262Y-111394265D01*
X115969711Y-111541936D01*
X116179788Y-111663224D01*
X116403900Y-111756054D01*
X116638211Y-111818838D01*
X116818586Y-111842584D01*
X116878711Y-111850500D01*
X116878712Y-111850500D01*
X117121289Y-111850500D01*
X117169388Y-111844167D01*
X117361789Y-111818838D01*
X117596100Y-111756054D01*
X117820212Y-111663224D01*
X118030289Y-111541936D01*
X118222738Y-111394265D01*
X118394265Y-111222738D01*
X118541936Y-111030289D01*
X118663224Y-110820212D01*
X118756054Y-110596100D01*
X118818838Y-110361789D01*
X118850500Y-110121288D01*
X118850500Y-109878712D01*
X118850500Y-109878711D01*
X162149500Y-109878711D01*
X162149500Y-110121288D01*
X162181161Y-110361785D01*
X162243947Y-110596104D01*
X162336773Y-110820205D01*
X162336776Y-110820212D01*
X162458064Y-111030289D01*
X162458066Y-111030292D01*
X162458067Y-111030293D01*
X162605733Y-111222736D01*
X162605739Y-111222743D01*
X162777256Y-111394260D01*
X162777262Y-111394265D01*
X162969711Y-111541936D01*
X163179788Y-111663224D01*
X163403900Y-111756054D01*
X163638211Y-111818838D01*
X163818586Y-111842584D01*
X163878711Y-111850500D01*
X163878712Y-111850500D01*
X164121289Y-111850500D01*
X164169388Y-111844167D01*
X164361789Y-111818838D01*
X164596100Y-111756054D01*
X164820212Y-111663224D01*
X165030289Y-111541936D01*
X165222738Y-111394265D01*
X165394265Y-111222738D01*
X165541936Y-111030289D01*
X165663224Y-110820212D01*
X165756054Y-110596100D01*
X165818838Y-110361789D01*
X165850500Y-110121288D01*
X165850500Y-109878712D01*
X165818838Y-109638211D01*
X165756054Y-109403900D01*
X165663224Y-109179788D01*
X165541936Y-108969711D01*
X165394265Y-108777262D01*
X165394260Y-108777256D01*
X165222743Y-108605739D01*
X165222736Y-108605733D01*
X165030293Y-108458067D01*
X165030292Y-108458066D01*
X165030289Y-108458064D01*
X164820212Y-108336776D01*
X164820205Y-108336773D01*
X164596104Y-108243947D01*
X164361785Y-108181161D01*
X164121289Y-108149500D01*
X164121288Y-108149500D01*
X163878712Y-108149500D01*
X163878711Y-108149500D01*
X163638214Y-108181161D01*
X163403895Y-108243947D01*
X163179794Y-108336773D01*
X163179785Y-108336777D01*
X162969706Y-108458067D01*
X162777263Y-108605733D01*
X162777256Y-108605739D01*
X162605739Y-108777256D01*
X162605733Y-108777263D01*
X162458067Y-108969706D01*
X162336777Y-109179785D01*
X162336773Y-109179794D01*
X162243947Y-109403895D01*
X162181161Y-109638214D01*
X162149500Y-109878711D01*
X118850500Y-109878711D01*
X118818838Y-109638211D01*
X118756054Y-109403900D01*
X118663224Y-109179788D01*
X118541936Y-108969711D01*
X118394265Y-108777262D01*
X118394260Y-108777256D01*
X118222743Y-108605739D01*
X118222736Y-108605733D01*
X118030293Y-108458067D01*
X118030292Y-108458066D01*
X118030289Y-108458064D01*
X117820212Y-108336776D01*
X117820205Y-108336773D01*
X117596104Y-108243947D01*
X117361785Y-108181161D01*
X117121289Y-108149500D01*
X117121288Y-108149500D01*
X116878712Y-108149500D01*
X116878711Y-108149500D01*
X116638214Y-108181161D01*
X116403895Y-108243947D01*
X116179794Y-108336773D01*
X116179785Y-108336777D01*
X115969706Y-108458067D01*
X115777263Y-108605733D01*
X115777256Y-108605739D01*
X115605739Y-108777256D01*
X115605733Y-108777263D01*
X115458067Y-108969706D01*
X115336777Y-109179785D01*
X115336773Y-109179794D01*
X115243947Y-109403895D01*
X115181161Y-109638214D01*
X115149500Y-109878711D01*
X114600500Y-109878711D01*
X114600500Y-58102155D01*
X119650000Y-58102155D01*
X119650000Y-58750000D01*
X120566988Y-58750000D01*
X120534075Y-58807007D01*
X120500000Y-58934174D01*
X120500000Y-59065826D01*
X120534075Y-59192993D01*
X120566988Y-59250000D01*
X119650000Y-59250000D01*
X119650000Y-59897844D01*
X119656401Y-59957372D01*
X119656403Y-59957379D01*
X119706645Y-60092086D01*
X119706649Y-60092093D01*
X119792809Y-60207187D01*
X119792812Y-60207190D01*
X119907906Y-60293350D01*
X119907913Y-60293354D01*
X120042620Y-60343596D01*
X120042627Y-60343598D01*
X120102155Y-60349999D01*
X120102172Y-60350000D01*
X120750000Y-60350000D01*
X120750000Y-59433012D01*
X120807007Y-59465925D01*
X120934174Y-59500000D01*
X121065826Y-59500000D01*
X121192993Y-59465925D01*
X121250000Y-59433012D01*
X121250000Y-60350000D01*
X121897828Y-60350000D01*
X121897844Y-60349999D01*
X121957372Y-60343598D01*
X121957379Y-60343596D01*
X122092086Y-60293354D01*
X122092093Y-60293350D01*
X122207187Y-60207190D01*
X122207190Y-60207187D01*
X122293350Y-60092093D01*
X122293354Y-60092086D01*
X122343596Y-59957379D01*
X122343598Y-59957372D01*
X122349999Y-59897844D01*
X122350000Y-59897827D01*
X122350000Y-59250000D01*
X121433012Y-59250000D01*
X121465925Y-59192993D01*
X121500000Y-59065826D01*
X121500000Y-58934174D01*
X121465925Y-58807007D01*
X121433012Y-58750000D01*
X122350000Y-58750000D01*
X122350000Y-58102172D01*
X122349999Y-58102155D01*
X122343598Y-58042627D01*
X122343596Y-58042620D01*
X122293354Y-57907913D01*
X122293350Y-57907906D01*
X122207190Y-57792812D01*
X122207187Y-57792809D01*
X122092093Y-57706649D01*
X122092086Y-57706645D01*
X121957379Y-57656403D01*
X121957373Y-57656401D01*
X121946904Y-57655276D01*
X121946903Y-57655275D01*
X121897844Y-57650000D01*
X121250000Y-57650000D01*
X121250000Y-58566988D01*
X121192993Y-58534075D01*
X121065826Y-58500000D01*
X120934174Y-58500000D01*
X120807007Y-58534075D01*
X120750000Y-58566988D01*
X120750000Y-57650000D01*
X120102155Y-57650000D01*
X120042627Y-57656401D01*
X120042620Y-57656403D01*
X119907913Y-57706645D01*
X119907906Y-57706649D01*
X119792812Y-57792809D01*
X119792809Y-57792812D01*
X119706649Y-57907906D01*
X119706645Y-57907913D01*
X119656403Y-58042620D01*
X119656401Y-58042627D01*
X119650000Y-58102155D01*
X114600500Y-58102155D01*
X114600500Y-51878711D01*
X115149500Y-51878711D01*
X115149500Y-52121288D01*
X115181161Y-52361785D01*
X115243947Y-52596104D01*
X115294609Y-52718412D01*
X115336776Y-52820212D01*
X115458064Y-53030289D01*
X115458066Y-53030292D01*
X115458067Y-53030293D01*
X115605733Y-53222736D01*
X115605739Y-53222743D01*
X115777256Y-53394260D01*
X115777263Y-53394266D01*
X115890321Y-53481018D01*
X115969711Y-53541936D01*
X116179788Y-53663224D01*
X116403900Y-53756054D01*
X116638211Y-53818838D01*
X116818586Y-53842584D01*
X116878711Y-53850500D01*
X116878712Y-53850500D01*
X117121289Y-53850500D01*
X117169388Y-53844167D01*
X117361789Y-53818838D01*
X117596100Y-53756054D01*
X117820212Y-53663224D01*
X118030289Y-53541936D01*
X118222738Y-53394265D01*
X118394265Y-53222738D01*
X118541936Y-53030289D01*
X118663224Y-52820212D01*
X118756054Y-52596100D01*
X118818838Y-52361789D01*
X118850500Y-52121288D01*
X118850500Y-51878712D01*
X118818838Y-51638211D01*
X118756054Y-51403900D01*
X118663226Y-51179794D01*
X118663226Y-51179793D01*
X118663224Y-51179788D01*
X118541936Y-50969711D01*
X118394265Y-50777262D01*
X118394260Y-50777256D01*
X118222743Y-50605739D01*
X118222736Y-50605733D01*
X118030293Y-50458067D01*
X118030292Y-50458066D01*
X118030289Y-50458064D01*
X117820212Y-50336776D01*
X117820205Y-50336773D01*
X117596104Y-50243947D01*
X117361785Y-50181161D01*
X117121289Y-50149500D01*
X117121288Y-50149500D01*
X116878712Y-50149500D01*
X116878711Y-50149500D01*
X116638214Y-50181161D01*
X116403895Y-50243947D01*
X116179794Y-50336773D01*
X116179785Y-50336777D01*
X115969706Y-50458067D01*
X115777263Y-50605733D01*
X115777256Y-50605739D01*
X115605739Y-50777256D01*
X115605733Y-50777263D01*
X115458067Y-50969706D01*
X115336777Y-51179785D01*
X115336773Y-51179794D01*
X115243947Y-51403895D01*
X115181161Y-51638214D01*
X115149500Y-51878711D01*
X114600500Y-51878711D01*
X114600500Y-49524500D01*
X114620185Y-49457461D01*
X114672989Y-49411706D01*
X114724500Y-49400500D01*
X167175500Y-49400500D01*
X167242539Y-49420185D01*
G37*
%TD.AperFunction*%
%TA.AperFunction,Conductor*%
G36*
X158492540Y-100430185D02*
G01*
X158538295Y-100482989D01*
X158549501Y-100534500D01*
X158549501Y-100657876D01*
X158555908Y-100717483D01*
X158606202Y-100852328D01*
X158606206Y-100852335D01*
X158692452Y-100967544D01*
X158692455Y-100967547D01*
X158807664Y-101053793D01*
X158807671Y-101053797D01*
X158939082Y-101102810D01*
X158995016Y-101144681D01*
X159019433Y-101210145D01*
X159004582Y-101278418D01*
X158983431Y-101306673D01*
X158869889Y-101420215D01*
X158744951Y-101592179D01*
X158648444Y-101781585D01*
X158582753Y-101983760D01*
X158549500Y-102193713D01*
X158549500Y-102406286D01*
X158583516Y-102621055D01*
X158581877Y-102621314D01*
X158578738Y-102683883D01*
X158549342Y-102730710D01*
X155766873Y-105513181D01*
X155705550Y-105546666D01*
X155679192Y-105549500D01*
X133699142Y-105549500D01*
X133632103Y-105529815D01*
X133586348Y-105477011D01*
X133576404Y-105407853D01*
X133605429Y-105344297D01*
X133664207Y-105306523D01*
X133679744Y-105303027D01*
X133684070Y-105302341D01*
X133716243Y-105297246D01*
X133918412Y-105231557D01*
X134107816Y-105135051D01*
X134129789Y-105119086D01*
X134279786Y-105010109D01*
X134279788Y-105010106D01*
X134279792Y-105010104D01*
X134430104Y-104859792D01*
X134430106Y-104859788D01*
X134430109Y-104859786D01*
X134557915Y-104683875D01*
X134559259Y-104684851D01*
X134605705Y-104642834D01*
X134659618Y-104630500D01*
X147664071Y-104630500D01*
X147748615Y-104613682D01*
X147789744Y-104605501D01*
X147908127Y-104556465D01*
X147912250Y-104553710D01*
X147920550Y-104548165D01*
X147995011Y-104498412D01*
X148014669Y-104485277D01*
X152053127Y-100446819D01*
X152114450Y-100413334D01*
X152140808Y-100410500D01*
X158425501Y-100410500D01*
X158492540Y-100430185D01*
G37*
%TD.AperFunction*%
%TA.AperFunction,Conductor*%
G36*
X147021444Y-78353999D02*
G01*
X147060486Y-78399056D01*
X147064951Y-78407820D01*
X147189890Y-78579786D01*
X147340213Y-78730109D01*
X147512179Y-78855048D01*
X147512181Y-78855049D01*
X147512184Y-78855051D01*
X147701588Y-78951557D01*
X147903757Y-79017246D01*
X148113713Y-79050500D01*
X148113714Y-79050500D01*
X148326286Y-79050500D01*
X148326287Y-79050500D01*
X148436111Y-79033105D01*
X148541055Y-79016484D01*
X148541315Y-79018128D01*
X148603852Y-79021250D01*
X148650711Y-79050657D01*
X151342926Y-81742873D01*
X151376411Y-81804196D01*
X151371427Y-81873888D01*
X151329555Y-81929821D01*
X151264091Y-81954238D01*
X151216927Y-81948485D01*
X151016129Y-81883242D01*
X150806246Y-81850000D01*
X150593754Y-81850000D01*
X150383872Y-81883242D01*
X150383869Y-81883242D01*
X150181782Y-81948904D01*
X149992439Y-82045380D01*
X149938282Y-82084727D01*
X149938282Y-82084728D01*
X150570591Y-82717037D01*
X150507007Y-82734075D01*
X150392993Y-82799901D01*
X150299901Y-82892993D01*
X150234075Y-83007007D01*
X150217037Y-83070591D01*
X149584728Y-82438282D01*
X149584727Y-82438282D01*
X149545380Y-82492440D01*
X149545376Y-82492446D01*
X149540760Y-82501505D01*
X149492781Y-82552297D01*
X149424959Y-82569087D01*
X149358826Y-82546543D01*
X149319794Y-82501493D01*
X149315051Y-82492184D01*
X149315049Y-82492181D01*
X149315048Y-82492179D01*
X149190109Y-82320213D01*
X149039786Y-82169890D01*
X148867820Y-82044951D01*
X148678414Y-81948444D01*
X148678413Y-81948443D01*
X148678412Y-81948443D01*
X148476243Y-81882754D01*
X148476241Y-81882753D01*
X148476240Y-81882753D01*
X148314957Y-81857208D01*
X148266287Y-81849500D01*
X148053713Y-81849500D01*
X148005042Y-81857208D01*
X147843760Y-81882753D01*
X147641585Y-81948444D01*
X147452179Y-82044951D01*
X147280213Y-82169890D01*
X147129890Y-82320213D01*
X147004949Y-82492182D01*
X147000484Y-82500946D01*
X146952509Y-82551742D01*
X146884688Y-82568536D01*
X146818553Y-82545998D01*
X146779516Y-82500946D01*
X146775050Y-82492182D01*
X146650109Y-82320213D01*
X146499790Y-82169894D01*
X146499785Y-82169890D01*
X146381615Y-82084035D01*
X146338949Y-82028706D01*
X146330500Y-81983717D01*
X146330500Y-78959617D01*
X146350185Y-78892578D01*
X146384592Y-78858902D01*
X146383874Y-78857914D01*
X146387811Y-78855053D01*
X146387816Y-78855051D01*
X146559792Y-78730104D01*
X146710104Y-78579792D01*
X146710106Y-78579788D01*
X146710109Y-78579786D01*
X146835048Y-78407820D01*
X146835047Y-78407820D01*
X146835051Y-78407816D01*
X146839514Y-78399054D01*
X146887488Y-78348259D01*
X146955308Y-78331463D01*
X147021444Y-78353999D01*
G37*
%TD.AperFunction*%
%TA.AperFunction,Conductor*%
G36*
X141887226Y-78335524D02*
G01*
X141899810Y-78334985D01*
X141919674Y-78346581D01*
X141941444Y-78353999D01*
X141950719Y-78364703D01*
X141960151Y-78370209D01*
X141980486Y-78399056D01*
X141984951Y-78407820D01*
X142109890Y-78579786D01*
X142109896Y-78579792D01*
X142260208Y-78730104D01*
X142432184Y-78855051D01*
X142432188Y-78855053D01*
X142436126Y-78857914D01*
X142435146Y-78859262D01*
X142477160Y-78905690D01*
X142489500Y-78959617D01*
X142489500Y-81909185D01*
X142469815Y-81976224D01*
X142421797Y-82019669D01*
X142372180Y-82044950D01*
X142200213Y-82169890D01*
X142049890Y-82320213D01*
X141924949Y-82492182D01*
X141920484Y-82500946D01*
X141872509Y-82551742D01*
X141804688Y-82568536D01*
X141738553Y-82545998D01*
X141699516Y-82500946D01*
X141695050Y-82492182D01*
X141570109Y-82320213D01*
X141419786Y-82169890D01*
X141247820Y-82044951D01*
X141058414Y-81948444D01*
X141058413Y-81948443D01*
X141058412Y-81948443D01*
X140856243Y-81882754D01*
X140856241Y-81882753D01*
X140856240Y-81882753D01*
X140694957Y-81857208D01*
X140646287Y-81849500D01*
X140433713Y-81849500D01*
X140385042Y-81857208D01*
X140223760Y-81882753D01*
X140021585Y-81948444D01*
X139832179Y-82044951D01*
X139660215Y-82169889D01*
X139546673Y-82283431D01*
X139485350Y-82316915D01*
X139415658Y-82311931D01*
X139359725Y-82270059D01*
X139342810Y-82239082D01*
X139293797Y-82107671D01*
X139293793Y-82107664D01*
X139207547Y-81992455D01*
X139207544Y-81992452D01*
X139092335Y-81906206D01*
X139092328Y-81906202D01*
X138957482Y-81855908D01*
X138957483Y-81855908D01*
X138950212Y-81855127D01*
X138885661Y-81828389D01*
X138845813Y-81770996D01*
X138843320Y-81701171D01*
X138875785Y-81644159D01*
X141105276Y-79414670D01*
X141176465Y-79308127D01*
X141225501Y-79189744D01*
X141237153Y-79131166D01*
X141250500Y-79064071D01*
X141250500Y-78959617D01*
X141270185Y-78892578D01*
X141304592Y-78858902D01*
X141303874Y-78857914D01*
X141307811Y-78855053D01*
X141307816Y-78855051D01*
X141479792Y-78730104D01*
X141630104Y-78579792D01*
X141630106Y-78579788D01*
X141630109Y-78579786D01*
X141755048Y-78407820D01*
X141755047Y-78407820D01*
X141755051Y-78407816D01*
X141759514Y-78399054D01*
X141768160Y-78389900D01*
X141772897Y-78378232D01*
X141791696Y-78364979D01*
X141807488Y-78348259D01*
X141819710Y-78345231D01*
X141830004Y-78337976D01*
X141852985Y-78336991D01*
X141875308Y-78331463D01*
X141887226Y-78335524D01*
G37*
%TD.AperFunction*%
%TA.AperFunction,Conductor*%
G36*
X144481444Y-78353999D02*
G01*
X144520486Y-78399056D01*
X144524951Y-78407820D01*
X144649890Y-78579786D01*
X144649896Y-78579792D01*
X144800208Y-78730104D01*
X144972184Y-78855051D01*
X144972188Y-78855053D01*
X144976126Y-78857914D01*
X144975146Y-78859262D01*
X145017160Y-78905690D01*
X145029500Y-78959617D01*
X145029500Y-81909185D01*
X145009815Y-81976224D01*
X144961797Y-82019669D01*
X144912180Y-82044950D01*
X144740213Y-82169890D01*
X144589890Y-82320213D01*
X144464949Y-82492182D01*
X144460484Y-82500946D01*
X144412509Y-82551742D01*
X144344688Y-82568536D01*
X144278553Y-82545998D01*
X144239516Y-82500946D01*
X144235050Y-82492182D01*
X144110109Y-82320213D01*
X143959790Y-82169894D01*
X143959785Y-82169890D01*
X143841615Y-82084035D01*
X143798949Y-82028706D01*
X143790500Y-81983717D01*
X143790500Y-78959617D01*
X143810185Y-78892578D01*
X143844592Y-78858902D01*
X143843874Y-78857914D01*
X143847811Y-78855053D01*
X143847816Y-78855051D01*
X144019792Y-78730104D01*
X144170104Y-78579792D01*
X144170106Y-78579788D01*
X144170109Y-78579786D01*
X144295048Y-78407820D01*
X144295047Y-78407820D01*
X144295051Y-78407816D01*
X144299514Y-78399054D01*
X144347488Y-78348259D01*
X144415308Y-78331463D01*
X144481444Y-78353999D01*
G37*
%TD.AperFunction*%
%TA.AperFunction,Conductor*%
G36*
X139401444Y-78353999D02*
G01*
X139440486Y-78399056D01*
X139444951Y-78407820D01*
X139569890Y-78579786D01*
X139720206Y-78730102D01*
X139720214Y-78730109D01*
X139735815Y-78741444D01*
X139778481Y-78796774D01*
X139784459Y-78866387D01*
X139751853Y-78928182D01*
X139750610Y-78929442D01*
X137494722Y-81185331D01*
X137494718Y-81185336D01*
X137460914Y-81235930D01*
X137460914Y-81235931D01*
X137423534Y-81291874D01*
X137374499Y-81410255D01*
X137374497Y-81410261D01*
X137349500Y-81535928D01*
X137349500Y-81725500D01*
X137329815Y-81792539D01*
X137277011Y-81838294D01*
X137225501Y-81849500D01*
X137102130Y-81849500D01*
X137102123Y-81849501D01*
X137042514Y-81855909D01*
X137017832Y-81865115D01*
X136948140Y-81870099D01*
X136886818Y-81836613D01*
X136853333Y-81775289D01*
X136850500Y-81748933D01*
X136850500Y-79880806D01*
X136870185Y-79813767D01*
X136886815Y-79793129D01*
X137629289Y-79050654D01*
X137690610Y-79017171D01*
X137738753Y-79017693D01*
X137738945Y-79016484D01*
X137843888Y-79033105D01*
X137953713Y-79050500D01*
X137953714Y-79050500D01*
X138166286Y-79050500D01*
X138166287Y-79050500D01*
X138376243Y-79017246D01*
X138578412Y-78951557D01*
X138767816Y-78855051D01*
X138854138Y-78792335D01*
X138939786Y-78730109D01*
X138939788Y-78730106D01*
X138939792Y-78730104D01*
X139090104Y-78579792D01*
X139090106Y-78579788D01*
X139090109Y-78579786D01*
X139215048Y-78407820D01*
X139215047Y-78407820D01*
X139215051Y-78407816D01*
X139219514Y-78399054D01*
X139267488Y-78348259D01*
X139335308Y-78331463D01*
X139401444Y-78353999D01*
G37*
%TD.AperFunction*%
%TA.AperFunction,Conductor*%
G36*
X139467553Y-73568821D02*
G01*
X139469920Y-73568526D01*
X139499436Y-73582673D01*
X139529451Y-73595713D01*
X139531445Y-73598015D01*
X139532927Y-73598725D01*
X139555537Y-73625817D01*
X139557288Y-73628656D01*
X139681344Y-73752712D01*
X139830666Y-73844814D01*
X139964505Y-73889164D01*
X140021949Y-73928936D01*
X140048772Y-73993451D01*
X140049500Y-74006869D01*
X140049500Y-74739191D01*
X140029815Y-74806230D01*
X140013181Y-74826872D01*
X138490710Y-76349342D01*
X138429387Y-76382827D01*
X138381245Y-76382315D01*
X138381055Y-76383516D01*
X138276111Y-76366894D01*
X138166287Y-76349500D01*
X138089808Y-76349500D01*
X138022769Y-76329815D01*
X137977014Y-76277011D01*
X137967070Y-76207853D01*
X137996095Y-76144297D01*
X138002127Y-76137819D01*
X138705271Y-75434675D01*
X138705271Y-75434674D01*
X138705276Y-75434670D01*
X138776465Y-75328127D01*
X138825501Y-75209744D01*
X138826630Y-75204069D01*
X138834587Y-75164071D01*
X138850500Y-75084071D01*
X138850500Y-74006869D01*
X138870185Y-73939830D01*
X138922989Y-73894075D01*
X138935486Y-73889166D01*
X139069334Y-73844814D01*
X139218656Y-73752712D01*
X139342712Y-73628656D01*
X139344461Y-73625819D01*
X139346169Y-73624283D01*
X139346244Y-73624188D01*
X139346946Y-73621954D01*
X139372061Y-73600994D01*
X139396406Y-73579096D01*
X139398759Y-73578712D01*
X139400589Y-73577186D01*
X139433065Y-73573129D01*
X139465368Y-73567872D01*
X139467553Y-73568821D01*
G37*
%TD.AperFunction*%
%TA.AperFunction,Conductor*%
G36*
X142029451Y-73595713D02*
G01*
X142055537Y-73625817D01*
X142057288Y-73628656D01*
X142181344Y-73752712D01*
X142330666Y-73844814D01*
X142464505Y-73889164D01*
X142521949Y-73928936D01*
X142548772Y-73993451D01*
X142549500Y-74006869D01*
X142549500Y-74779191D01*
X142529815Y-74846230D01*
X142513181Y-74866872D01*
X141030710Y-76349342D01*
X140969387Y-76382827D01*
X140921245Y-76382315D01*
X140921055Y-76383516D01*
X140816111Y-76366894D01*
X140706287Y-76349500D01*
X140629808Y-76349500D01*
X140562769Y-76329815D01*
X140517014Y-76277011D01*
X140507070Y-76207853D01*
X140536095Y-76144297D01*
X140542127Y-76137819D01*
X141205273Y-75474673D01*
X141205273Y-75474672D01*
X141205277Y-75474669D01*
X141276465Y-75368127D01*
X141283360Y-75351478D01*
X141292464Y-75329502D01*
X141292464Y-75329501D01*
X141308932Y-75289744D01*
X141325501Y-75249744D01*
X141350500Y-75124069D01*
X141350500Y-74006869D01*
X141370185Y-73939830D01*
X141422989Y-73894075D01*
X141435486Y-73889166D01*
X141569334Y-73844814D01*
X141718656Y-73752712D01*
X141842712Y-73628656D01*
X141844461Y-73625819D01*
X141846169Y-73624283D01*
X141847193Y-73622989D01*
X141847414Y-73623163D01*
X141896406Y-73579096D01*
X141965368Y-73567872D01*
X142029451Y-73595713D01*
G37*
%TD.AperFunction*%
%TA.AperFunction,Conductor*%
G36*
X144529451Y-73595713D02*
G01*
X144555537Y-73625817D01*
X144557288Y-73628656D01*
X144681344Y-73752712D01*
X144830666Y-73844814D01*
X144964505Y-73889164D01*
X145021949Y-73928936D01*
X145048772Y-73993451D01*
X145049500Y-74006869D01*
X145049500Y-74819191D01*
X145029815Y-74886230D01*
X145013181Y-74906872D01*
X143570710Y-76349342D01*
X143509387Y-76382827D01*
X143461245Y-76382315D01*
X143461055Y-76383516D01*
X143356111Y-76366894D01*
X143246287Y-76349500D01*
X143169808Y-76349500D01*
X143102769Y-76329815D01*
X143057014Y-76277011D01*
X143047070Y-76207853D01*
X143076095Y-76144297D01*
X143082127Y-76137819D01*
X143705271Y-75514675D01*
X143705271Y-75514674D01*
X143705276Y-75514670D01*
X143749739Y-75448126D01*
X143776464Y-75408129D01*
X143793032Y-75368130D01*
X143825501Y-75289744D01*
X143841414Y-75209745D01*
X143850500Y-75164071D01*
X143850500Y-74006869D01*
X143870185Y-73939830D01*
X143922989Y-73894075D01*
X143935486Y-73889166D01*
X144069334Y-73844814D01*
X144218656Y-73752712D01*
X144342712Y-73628656D01*
X144344461Y-73625819D01*
X144346169Y-73624283D01*
X144347193Y-73622989D01*
X144347414Y-73623163D01*
X144396406Y-73579096D01*
X144465368Y-73567872D01*
X144529451Y-73595713D01*
G37*
%TD.AperFunction*%
%TA.AperFunction,Conductor*%
G36*
X153246231Y-62170185D02*
G01*
X153266873Y-62186819D01*
X154557873Y-63477819D01*
X154591358Y-63539142D01*
X154586374Y-63608834D01*
X154544502Y-63664767D01*
X154479038Y-63689184D01*
X154470192Y-63689500D01*
X154405514Y-63689500D01*
X154218881Y-63719059D01*
X154039163Y-63777454D01*
X153870800Y-63863240D01*
X153812876Y-63905325D01*
X153717927Y-63974310D01*
X153717925Y-63974312D01*
X153717924Y-63974312D01*
X153584311Y-64107925D01*
X153558988Y-64142780D01*
X153535613Y-64174953D01*
X153525853Y-64188386D01*
X153521520Y-64191726D01*
X153519248Y-64196703D01*
X153494145Y-64212835D01*
X153470522Y-64231051D01*
X153463851Y-64232303D01*
X153460470Y-64234477D01*
X153425535Y-64239500D01*
X153337751Y-64239500D01*
X153270712Y-64219815D01*
X153229832Y-64174629D01*
X153229305Y-64174953D01*
X153227582Y-64172142D01*
X153227264Y-64171790D01*
X153226760Y-64170801D01*
X153197936Y-64131129D01*
X153115690Y-64017927D01*
X152982073Y-63884310D01*
X152829199Y-63773240D01*
X152660836Y-63687454D01*
X152481118Y-63629059D01*
X152294486Y-63599500D01*
X152294481Y-63599500D01*
X152105519Y-63599500D01*
X152105513Y-63599500D01*
X152007288Y-63615057D01*
X151937995Y-63606102D01*
X151900210Y-63580265D01*
X150682127Y-62362181D01*
X150648642Y-62300858D01*
X150653626Y-62231166D01*
X150695498Y-62175233D01*
X150760962Y-62150816D01*
X150769808Y-62150500D01*
X153179192Y-62150500D01*
X153246231Y-62170185D01*
G37*
%TD.AperFunction*%
%TA.AperFunction,Conductor*%
G36*
X147021444Y-59253999D02*
G01*
X147060486Y-59299056D01*
X147064951Y-59307820D01*
X147189890Y-59479786D01*
X147340213Y-59630109D01*
X147512179Y-59755048D01*
X147512181Y-59755049D01*
X147512184Y-59755051D01*
X147701588Y-59851557D01*
X147903757Y-59917246D01*
X148113713Y-59950500D01*
X148113714Y-59950500D01*
X148326286Y-59950500D01*
X148326287Y-59950500D01*
X148436111Y-59933105D01*
X148541055Y-59916484D01*
X148541315Y-59918128D01*
X148603852Y-59921250D01*
X148650711Y-59950657D01*
X149305324Y-60605271D01*
X149305327Y-60605274D01*
X149330955Y-60622398D01*
X149375760Y-60676011D01*
X149384467Y-60745336D01*
X149354312Y-60808363D01*
X149294869Y-60845082D01*
X149262064Y-60849500D01*
X143820808Y-60849500D01*
X143753769Y-60829815D01*
X143733127Y-60813181D01*
X143082127Y-60162181D01*
X143048642Y-60100858D01*
X143053626Y-60031166D01*
X143095498Y-59975233D01*
X143160962Y-59950816D01*
X143169808Y-59950500D01*
X143246286Y-59950500D01*
X143246287Y-59950500D01*
X143456243Y-59917246D01*
X143658412Y-59851557D01*
X143847816Y-59755051D01*
X143934138Y-59692335D01*
X144019786Y-59630109D01*
X144019788Y-59630106D01*
X144019792Y-59630104D01*
X144170104Y-59479792D01*
X144170106Y-59479788D01*
X144170109Y-59479786D01*
X144295048Y-59307820D01*
X144295050Y-59307817D01*
X144295051Y-59307816D01*
X144299514Y-59299054D01*
X144347488Y-59248259D01*
X144415308Y-59231463D01*
X144481444Y-59253999D01*
X144520486Y-59299056D01*
X144524951Y-59307820D01*
X144649890Y-59479786D01*
X144800213Y-59630109D01*
X144972179Y-59755048D01*
X144972181Y-59755049D01*
X144972184Y-59755051D01*
X145161588Y-59851557D01*
X145363757Y-59917246D01*
X145573713Y-59950500D01*
X145573714Y-59950500D01*
X145786286Y-59950500D01*
X145786287Y-59950500D01*
X145996243Y-59917246D01*
X146198412Y-59851557D01*
X146387816Y-59755051D01*
X146474138Y-59692335D01*
X146559786Y-59630109D01*
X146559788Y-59630106D01*
X146559792Y-59630104D01*
X146710104Y-59479792D01*
X146710106Y-59479788D01*
X146710109Y-59479786D01*
X146835048Y-59307820D01*
X146835050Y-59307817D01*
X146835051Y-59307816D01*
X146839514Y-59299054D01*
X146887488Y-59248259D01*
X146955308Y-59231463D01*
X147021444Y-59253999D01*
G37*
%TD.AperFunction*%
%TA.AperFunction,Conductor*%
G36*
X144727226Y-52835524D02*
G01*
X144739810Y-52834985D01*
X144759674Y-52846581D01*
X144781444Y-52853999D01*
X144790719Y-52864703D01*
X144800151Y-52870209D01*
X144820486Y-52899056D01*
X144824951Y-52907820D01*
X144949890Y-53079786D01*
X144949896Y-53079792D01*
X145100208Y-53230104D01*
X145272184Y-53355051D01*
X145272188Y-53355053D01*
X145276126Y-53357914D01*
X145275146Y-53359262D01*
X145317160Y-53405690D01*
X145329500Y-53459617D01*
X145329500Y-56044071D01*
X145343544Y-56114669D01*
X145343544Y-56114671D01*
X145354497Y-56169736D01*
X145354499Y-56169744D01*
X145387535Y-56249501D01*
X145403535Y-56288127D01*
X145469478Y-56386819D01*
X145474726Y-56394673D01*
X146174018Y-57093965D01*
X146207503Y-57155288D01*
X146202519Y-57224980D01*
X146160647Y-57280913D01*
X146095183Y-57305330D01*
X146048020Y-57299577D01*
X145996244Y-57282754D01*
X145996240Y-57282753D01*
X145834957Y-57257208D01*
X145786287Y-57249500D01*
X145573713Y-57249500D01*
X145525042Y-57257208D01*
X145363760Y-57282753D01*
X145161585Y-57348444D01*
X144972179Y-57444951D01*
X144800213Y-57569890D01*
X144649890Y-57720213D01*
X144524949Y-57892182D01*
X144520484Y-57900946D01*
X144472509Y-57951742D01*
X144404688Y-57968536D01*
X144338553Y-57945998D01*
X144299516Y-57900946D01*
X144295050Y-57892182D01*
X144170109Y-57720213D01*
X144019786Y-57569890D01*
X143847820Y-57444951D01*
X143658414Y-57348444D01*
X143658413Y-57348443D01*
X143658412Y-57348443D01*
X143456243Y-57282754D01*
X143456241Y-57282753D01*
X143456240Y-57282753D01*
X143294957Y-57257208D01*
X143246287Y-57249500D01*
X143033713Y-57249500D01*
X142985042Y-57257208D01*
X142823760Y-57282753D01*
X142621585Y-57348444D01*
X142432179Y-57444951D01*
X142260213Y-57569890D01*
X142109890Y-57720213D01*
X141984949Y-57892182D01*
X141980484Y-57900946D01*
X141932509Y-57951742D01*
X141864688Y-57968536D01*
X141798553Y-57945998D01*
X141759516Y-57900946D01*
X141755050Y-57892182D01*
X141630109Y-57720213D01*
X141479786Y-57569890D01*
X141307820Y-57444951D01*
X141118414Y-57348444D01*
X141118413Y-57348443D01*
X141118412Y-57348443D01*
X140916243Y-57282754D01*
X140916241Y-57282753D01*
X140916240Y-57282753D01*
X140754957Y-57257208D01*
X140706287Y-57249500D01*
X140493713Y-57249500D01*
X140445042Y-57257208D01*
X140283760Y-57282753D01*
X140081585Y-57348444D01*
X139892179Y-57444951D01*
X139720213Y-57569890D01*
X139569890Y-57720213D01*
X139444949Y-57892182D01*
X139440484Y-57900946D01*
X139392509Y-57951742D01*
X139324688Y-57968536D01*
X139258553Y-57945998D01*
X139219516Y-57900946D01*
X139215050Y-57892182D01*
X139090109Y-57720213D01*
X138939786Y-57569890D01*
X138767820Y-57444951D01*
X138578416Y-57348444D01*
X138388259Y-57286658D01*
X138330584Y-57247220D01*
X138303386Y-57182861D01*
X138315301Y-57114015D01*
X138338894Y-57081050D01*
X139033126Y-56386819D01*
X139094449Y-56353334D01*
X139120807Y-56350500D01*
X141764071Y-56350500D01*
X141848615Y-56333682D01*
X141889744Y-56325501D01*
X142008127Y-56276465D01*
X142048482Y-56249501D01*
X142114669Y-56205277D01*
X143945277Y-54374669D01*
X144016466Y-54268126D01*
X144065501Y-54149743D01*
X144090500Y-54024069D01*
X144090500Y-53895931D01*
X144090500Y-53459617D01*
X144110185Y-53392578D01*
X144144592Y-53358902D01*
X144143874Y-53357914D01*
X144147811Y-53355053D01*
X144147816Y-53355051D01*
X144319792Y-53230104D01*
X144470104Y-53079792D01*
X144470106Y-53079788D01*
X144470109Y-53079786D01*
X144595048Y-52907820D01*
X144595047Y-52907820D01*
X144595051Y-52907816D01*
X144599514Y-52899054D01*
X144608160Y-52889900D01*
X144612897Y-52878232D01*
X144631696Y-52864979D01*
X144647488Y-52848259D01*
X144659710Y-52845231D01*
X144670004Y-52837976D01*
X144692985Y-52836991D01*
X144715308Y-52831463D01*
X144727226Y-52835524D01*
G37*
%TD.AperFunction*%
%TA.AperFunction,Conductor*%
G36*
X147321444Y-52853999D02*
G01*
X147360486Y-52899056D01*
X147364951Y-52907820D01*
X147489890Y-53079786D01*
X147489896Y-53079792D01*
X147640208Y-53230104D01*
X147812184Y-53355051D01*
X147812188Y-53355053D01*
X147816126Y-53357914D01*
X147815146Y-53359262D01*
X147857160Y-53405690D01*
X147869500Y-53459617D01*
X147869500Y-55084069D01*
X147869500Y-55084071D01*
X147869499Y-55084071D01*
X147891510Y-55194721D01*
X147894498Y-55209740D01*
X147894499Y-55209744D01*
X147943534Y-55328125D01*
X148014726Y-55434673D01*
X148014727Y-55434674D01*
X148394724Y-55814669D01*
X148485331Y-55905276D01*
X148485332Y-55905277D01*
X148591866Y-55976461D01*
X148591879Y-55976468D01*
X148675100Y-56010939D01*
X148729504Y-56054780D01*
X148751569Y-56121074D01*
X148734290Y-56188773D01*
X148683153Y-56236384D01*
X148627648Y-56249500D01*
X147220808Y-56249500D01*
X147153769Y-56229815D01*
X147133127Y-56213181D01*
X146666819Y-55746873D01*
X146633334Y-55685550D01*
X146630500Y-55659192D01*
X146630500Y-53459617D01*
X146650185Y-53392578D01*
X146684592Y-53358902D01*
X146683874Y-53357914D01*
X146687811Y-53355053D01*
X146687816Y-53355051D01*
X146859792Y-53230104D01*
X147010104Y-53079792D01*
X147010106Y-53079788D01*
X147010109Y-53079786D01*
X147135048Y-52907820D01*
X147135047Y-52907820D01*
X147135051Y-52907816D01*
X147139514Y-52899054D01*
X147187488Y-52848259D01*
X147255308Y-52831463D01*
X147321444Y-52853999D01*
G37*
%TD.AperFunction*%
%TD*%
M02*
