M48
; DRILL file KiCad 10.0.1 date 2026-07-10T00:57:18
; FORMAT={-:-/ absolute / metric / decimal}
; #@! TF.CreationDate,2026-07-10T00:57:18+09:00
; #@! TF.GenerationSoftware,Kicad,Pcbnew,10.0.1
; #@! TF.FileFunction,Plated,1,2,PTH
FMAT,2
METRIC
; #@! TA.AperFunction,Plated,PTH,ViaDrill
T1C0.300
; #@! TA.AperFunction,Plated,PTH,ComponentDrill
T2C0.700
; #@! TA.AperFunction,Plated,PTH,ComponentDrill
T3C0.800
; #@! TA.AperFunction,Plated,PTH,ComponentDrill
T4C1.000
%
G90
G05
T1
X129.6Y-68.9
X129.6Y-73.0
X129.7Y-76.7
X129.8Y-81.2
X137.0Y-74.8
X137.8Y-80.2
X139.5Y-74.8
X141.2Y-80.1
X142.1Y-74.8
X144.4Y-80.1
X144.5Y-74.8
X144.8Y-55.1
X146.9Y-60.4
X147.4Y-55.1
X147.8Y-68.1
X151.7Y-62.9
X153.0Y-103.1
T2
X149.8Y-64.9
X149.8Y-72.52
X152.2Y-64.8
X152.2Y-72.42
X154.5Y-64.89
X154.5Y-72.51
X156.9Y-64.9
X156.9Y-72.52
T3
X135.7Y-64.99
X135.7Y-72.61
X138.2Y-64.99
X138.2Y-72.61
X140.7Y-64.99
X140.7Y-72.61
X143.2Y-64.99
X143.2Y-72.61
X145.7Y-64.99
X145.7Y-72.61
T4
X121.0Y-59.0
X121.1Y-102.71
X132.98Y-58.6
X132.98Y-77.7
X133.4Y-98.9
X133.4Y-101.44
X133.4Y-103.98
X135.52Y-58.6
X135.52Y-77.7
X138.0Y-83.2
X138.06Y-58.6
X138.06Y-77.7
X140.54Y-83.2
X140.6Y-58.6
X140.6Y-77.7
X140.9Y-52.2
X143.08Y-83.2
X143.14Y-58.6
X143.14Y-77.7
X143.44Y-52.2
X145.62Y-83.2
X145.68Y-58.6
X145.68Y-77.7
X145.98Y-52.2
X148.16Y-83.2
X148.22Y-58.6
X148.22Y-77.7
X148.52Y-52.2
X150.7Y-83.2
X150.76Y-58.6
X150.76Y-77.7
X153.3Y-58.6
X153.3Y-77.7
X159.9Y-99.76
X159.9Y-102.3
X159.9Y-104.84
X160.615Y-68.925
X160.615Y-71.465
X160.615Y-77.625
X160.615Y-80.165
X160.715Y-86.825
X160.715Y-89.365
X160.8Y-58.46
X163.3Y-63.46
X165.8Y-58.46
M30
