%TF.GenerationSoftware,KiCad,Pcbnew,8.0.3-8.0.3-0~ubuntu20.04.1*%
%TF.CreationDate,2024-07-14T21:33:53+09:00*%
%TF.ProjectId,Gender_A7-100_ArduinoDUE,47656e64-6572-45f4-9137-2d3130305f41,rev?*%
%TF.SameCoordinates,Original*%
%TF.FileFunction,Soldermask,Bot*%
%TF.FilePolarity,Negative*%
%FSLAX46Y46*%
G04 Gerber Fmt 4.6, Leading zero omitted, Abs format (unit mm)*
G04 Created by KiCad (PCBNEW 8.0.3-8.0.3-0~ubuntu20.04.1) date 2024-07-14 21:33:53*
%MOMM*%
%LPD*%
G01*
G04 APERTURE LIST*
%ADD10C,2.600000*%
%ADD11C,5.000000*%
%ADD12R,1.700000X1.700000*%
%ADD13O,1.700000X1.700000*%
G04 APERTURE END LIST*
D10*
%TO.C,TP3*%
X107190000Y-152500000D03*
X114810000Y-152500000D03*
%TD*%
D11*
%TO.C,TP4*%
X172000000Y-151500000D03*
%TD*%
%TO.C,TP2*%
X115000000Y-52500000D03*
%TD*%
D12*
%TO.C,JA1*%
X101600000Y-50800000D03*
D13*
X104140000Y-50800000D03*
X101600000Y-53340000D03*
X104140000Y-53340000D03*
X101600000Y-55880000D03*
X104140000Y-55880000D03*
X101600000Y-58420000D03*
X104140000Y-58420000D03*
X101600000Y-60960000D03*
X104140000Y-60960000D03*
X101600000Y-63500000D03*
X104140000Y-63500000D03*
%TD*%
D12*
%TO.C,JC1*%
X101600000Y-96520000D03*
D13*
X104140000Y-96520000D03*
X101600000Y-99060000D03*
X104140000Y-99060000D03*
X101600000Y-101600000D03*
X104140000Y-101600000D03*
X101600000Y-104140000D03*
X104140000Y-104140000D03*
X101600000Y-106680000D03*
X104140000Y-106680000D03*
X101600000Y-109220000D03*
X104140000Y-109220000D03*
%TD*%
D12*
%TO.C,JB1*%
X101600000Y-73660000D03*
D13*
X104140000Y-73660000D03*
X101600000Y-76200000D03*
X104140000Y-76200000D03*
X101600000Y-78740000D03*
X104140000Y-78740000D03*
X101600000Y-81280000D03*
X104140000Y-81280000D03*
X101600000Y-83820000D03*
X104140000Y-83820000D03*
X101600000Y-86360000D03*
X104140000Y-86360000D03*
%TD*%
D11*
%TO.C,TP1*%
X100000000Y-151000000D03*
%TD*%
D12*
%TO.C,JD1*%
X101600000Y-119380000D03*
D13*
X104140000Y-119380000D03*
X101600000Y-121920000D03*
X104140000Y-121920000D03*
X101600000Y-124460000D03*
X104140000Y-124460000D03*
X101600000Y-127000000D03*
X104140000Y-127000000D03*
X101600000Y-129540000D03*
X104140000Y-129540000D03*
X101600000Y-132080000D03*
X104140000Y-132080000D03*
%TD*%
D12*
%TO.C,J1*%
X173355000Y-137160000D03*
D13*
X173355000Y-139700000D03*
X170815000Y-137160000D03*
X170815000Y-139700000D03*
X168275000Y-137160000D03*
X168275000Y-139700000D03*
X165735000Y-137160000D03*
X165735000Y-139700000D03*
X163195000Y-137160000D03*
X163195000Y-139700000D03*
X160655000Y-137160000D03*
X160655000Y-139700000D03*
X158115000Y-137160000D03*
X158115000Y-139700000D03*
X155575000Y-137160000D03*
X155575000Y-139700000D03*
X153035000Y-137160000D03*
X153035000Y-139700000D03*
X150495000Y-137160000D03*
X150495000Y-139700000D03*
X147955000Y-137160000D03*
X147955000Y-139700000D03*
X145415000Y-137160000D03*
X145415000Y-139700000D03*
X142875000Y-137160000D03*
X142875000Y-139700000D03*
X140335000Y-137160000D03*
X140335000Y-139700000D03*
X137795000Y-137160000D03*
X137795000Y-139700000D03*
X135255000Y-137160000D03*
X135255000Y-139700000D03*
X132715000Y-137160000D03*
X132715000Y-139700000D03*
X130175000Y-137160000D03*
X130175000Y-139700000D03*
%TD*%
M02*
