%TF.GenerationSoftware,KiCad,Pcbnew,8.0.3-8.0.3-0~ubuntu20.04.1*%
%TF.CreationDate,2024-07-14T21:33:53+09:00*%
%TF.ProjectId,Gender_A7-100_ArduinoDUE,47656e64-6572-45f4-9137-2d3130305f41,rev?*%
%TF.SameCoordinates,Original*%
%TF.FileFunction,Legend,Top*%
%TF.FilePolarity,Positive*%
%FSLAX46Y46*%
G04 Gerber Fmt 4.6, Leading zero omitted, Abs format (unit mm)*
G04 Created by KiCad (PCBNEW 8.0.3-8.0.3-0~ubuntu20.04.1) date 2024-07-14 21:33:53*
%MOMM*%
%LPD*%
G01*
G04 APERTURE LIST*
%ADD10C,0.150000*%
%ADD11C,0.200000*%
%ADD12C,0.120000*%
G04 APERTURE END LIST*
D10*
X126622493Y-150250771D02*
X126574874Y-150203152D01*
X126574874Y-150203152D02*
X126479636Y-150060295D01*
X126479636Y-150060295D02*
X126432017Y-149965057D01*
X126432017Y-149965057D02*
X126384398Y-149822200D01*
X126384398Y-149822200D02*
X126336779Y-149584104D01*
X126336779Y-149584104D02*
X126336779Y-149393628D01*
X126336779Y-149393628D02*
X126384398Y-149155533D01*
X126384398Y-149155533D02*
X126432017Y-149012676D01*
X126432017Y-149012676D02*
X126479636Y-148917438D01*
X126479636Y-148917438D02*
X126574874Y-148774580D01*
X126574874Y-148774580D02*
X126622493Y-148726961D01*
X127432017Y-149822200D02*
X127336779Y-149869819D01*
X127336779Y-149869819D02*
X127146303Y-149869819D01*
X127146303Y-149869819D02*
X127051065Y-149822200D01*
X127051065Y-149822200D02*
X127003446Y-149774580D01*
X127003446Y-149774580D02*
X126955827Y-149679342D01*
X126955827Y-149679342D02*
X126955827Y-149393628D01*
X126955827Y-149393628D02*
X127003446Y-149298390D01*
X127003446Y-149298390D02*
X127051065Y-149250771D01*
X127051065Y-149250771D02*
X127146303Y-149203152D01*
X127146303Y-149203152D02*
X127336779Y-149203152D01*
X127336779Y-149203152D02*
X127432017Y-149250771D01*
X127765351Y-150250771D02*
X127812970Y-150203152D01*
X127812970Y-150203152D02*
X127908208Y-150060295D01*
X127908208Y-150060295D02*
X127955827Y-149965057D01*
X127955827Y-149965057D02*
X128003446Y-149822200D01*
X128003446Y-149822200D02*
X128051065Y-149584104D01*
X128051065Y-149584104D02*
X128051065Y-149393628D01*
X128051065Y-149393628D02*
X128003446Y-149155533D01*
X128003446Y-149155533D02*
X127955827Y-149012676D01*
X127955827Y-149012676D02*
X127908208Y-148917438D01*
X127908208Y-148917438D02*
X127812970Y-148774580D01*
X127812970Y-148774580D02*
X127765351Y-148726961D01*
X128479637Y-148965057D02*
X128527256Y-148917438D01*
X128527256Y-148917438D02*
X128622494Y-148869819D01*
X128622494Y-148869819D02*
X128860589Y-148869819D01*
X128860589Y-148869819D02*
X128955827Y-148917438D01*
X128955827Y-148917438D02*
X129003446Y-148965057D01*
X129003446Y-148965057D02*
X129051065Y-149060295D01*
X129051065Y-149060295D02*
X129051065Y-149155533D01*
X129051065Y-149155533D02*
X129003446Y-149298390D01*
X129003446Y-149298390D02*
X128432018Y-149869819D01*
X128432018Y-149869819D02*
X129051065Y-149869819D01*
X129670113Y-148869819D02*
X129765351Y-148869819D01*
X129765351Y-148869819D02*
X129860589Y-148917438D01*
X129860589Y-148917438D02*
X129908208Y-148965057D01*
X129908208Y-148965057D02*
X129955827Y-149060295D01*
X129955827Y-149060295D02*
X130003446Y-149250771D01*
X130003446Y-149250771D02*
X130003446Y-149488866D01*
X130003446Y-149488866D02*
X129955827Y-149679342D01*
X129955827Y-149679342D02*
X129908208Y-149774580D01*
X129908208Y-149774580D02*
X129860589Y-149822200D01*
X129860589Y-149822200D02*
X129765351Y-149869819D01*
X129765351Y-149869819D02*
X129670113Y-149869819D01*
X129670113Y-149869819D02*
X129574875Y-149822200D01*
X129574875Y-149822200D02*
X129527256Y-149774580D01*
X129527256Y-149774580D02*
X129479637Y-149679342D01*
X129479637Y-149679342D02*
X129432018Y-149488866D01*
X129432018Y-149488866D02*
X129432018Y-149250771D01*
X129432018Y-149250771D02*
X129479637Y-149060295D01*
X129479637Y-149060295D02*
X129527256Y-148965057D01*
X129527256Y-148965057D02*
X129574875Y-148917438D01*
X129574875Y-148917438D02*
X129670113Y-148869819D01*
X130384399Y-148965057D02*
X130432018Y-148917438D01*
X130432018Y-148917438D02*
X130527256Y-148869819D01*
X130527256Y-148869819D02*
X130765351Y-148869819D01*
X130765351Y-148869819D02*
X130860589Y-148917438D01*
X130860589Y-148917438D02*
X130908208Y-148965057D01*
X130908208Y-148965057D02*
X130955827Y-149060295D01*
X130955827Y-149060295D02*
X130955827Y-149155533D01*
X130955827Y-149155533D02*
X130908208Y-149298390D01*
X130908208Y-149298390D02*
X130336780Y-149869819D01*
X130336780Y-149869819D02*
X130955827Y-149869819D01*
X131812970Y-149203152D02*
X131812970Y-149869819D01*
X131574875Y-148822200D02*
X131336780Y-149536485D01*
X131336780Y-149536485D02*
X131955827Y-149536485D01*
X132384399Y-149822200D02*
X132384399Y-149869819D01*
X132384399Y-149869819D02*
X132336780Y-149965057D01*
X132336780Y-149965057D02*
X132289161Y-150012676D01*
X134098684Y-148917438D02*
X134003446Y-148869819D01*
X134003446Y-148869819D02*
X133860589Y-148869819D01*
X133860589Y-148869819D02*
X133717732Y-148917438D01*
X133717732Y-148917438D02*
X133622494Y-149012676D01*
X133622494Y-149012676D02*
X133574875Y-149107914D01*
X133574875Y-149107914D02*
X133527256Y-149298390D01*
X133527256Y-149298390D02*
X133527256Y-149441247D01*
X133527256Y-149441247D02*
X133574875Y-149631723D01*
X133574875Y-149631723D02*
X133622494Y-149726961D01*
X133622494Y-149726961D02*
X133717732Y-149822200D01*
X133717732Y-149822200D02*
X133860589Y-149869819D01*
X133860589Y-149869819D02*
X133955827Y-149869819D01*
X133955827Y-149869819D02*
X134098684Y-149822200D01*
X134098684Y-149822200D02*
X134146303Y-149774580D01*
X134146303Y-149774580D02*
X134146303Y-149441247D01*
X134146303Y-149441247D02*
X133955827Y-149441247D01*
X134717732Y-149869819D02*
X134622494Y-149822200D01*
X134622494Y-149822200D02*
X134574875Y-149774580D01*
X134574875Y-149774580D02*
X134527256Y-149679342D01*
X134527256Y-149679342D02*
X134527256Y-149393628D01*
X134527256Y-149393628D02*
X134574875Y-149298390D01*
X134574875Y-149298390D02*
X134622494Y-149250771D01*
X134622494Y-149250771D02*
X134717732Y-149203152D01*
X134717732Y-149203152D02*
X134860589Y-149203152D01*
X134860589Y-149203152D02*
X134955827Y-149250771D01*
X134955827Y-149250771D02*
X135003446Y-149298390D01*
X135003446Y-149298390D02*
X135051065Y-149393628D01*
X135051065Y-149393628D02*
X135051065Y-149679342D01*
X135051065Y-149679342D02*
X135003446Y-149774580D01*
X135003446Y-149774580D02*
X134955827Y-149822200D01*
X134955827Y-149822200D02*
X134860589Y-149869819D01*
X134860589Y-149869819D02*
X134717732Y-149869819D01*
X135622494Y-149869819D02*
X135527256Y-149822200D01*
X135527256Y-149822200D02*
X135479637Y-149774580D01*
X135479637Y-149774580D02*
X135432018Y-149679342D01*
X135432018Y-149679342D02*
X135432018Y-149393628D01*
X135432018Y-149393628D02*
X135479637Y-149298390D01*
X135479637Y-149298390D02*
X135527256Y-149250771D01*
X135527256Y-149250771D02*
X135622494Y-149203152D01*
X135622494Y-149203152D02*
X135765351Y-149203152D01*
X135765351Y-149203152D02*
X135860589Y-149250771D01*
X135860589Y-149250771D02*
X135908208Y-149298390D01*
X135908208Y-149298390D02*
X135955827Y-149393628D01*
X135955827Y-149393628D02*
X135955827Y-149679342D01*
X135955827Y-149679342D02*
X135908208Y-149774580D01*
X135908208Y-149774580D02*
X135860589Y-149822200D01*
X135860589Y-149822200D02*
X135765351Y-149869819D01*
X135765351Y-149869819D02*
X135622494Y-149869819D01*
X136812970Y-149869819D02*
X136812970Y-148869819D01*
X136812970Y-149822200D02*
X136717732Y-149869819D01*
X136717732Y-149869819D02*
X136527256Y-149869819D01*
X136527256Y-149869819D02*
X136432018Y-149822200D01*
X136432018Y-149822200D02*
X136384399Y-149774580D01*
X136384399Y-149774580D02*
X136336780Y-149679342D01*
X136336780Y-149679342D02*
X136336780Y-149393628D01*
X136336780Y-149393628D02*
X136384399Y-149298390D01*
X136384399Y-149298390D02*
X136432018Y-149250771D01*
X136432018Y-149250771D02*
X136527256Y-149203152D01*
X136527256Y-149203152D02*
X136717732Y-149203152D01*
X136717732Y-149203152D02*
X136812970Y-149250771D01*
X137289161Y-149869819D02*
X137289161Y-148869819D01*
X137860589Y-149869819D02*
X137432018Y-149298390D01*
X137860589Y-148869819D02*
X137289161Y-149441247D01*
X138432018Y-149869819D02*
X138336780Y-149822200D01*
X138336780Y-149822200D02*
X138289161Y-149774580D01*
X138289161Y-149774580D02*
X138241542Y-149679342D01*
X138241542Y-149679342D02*
X138241542Y-149393628D01*
X138241542Y-149393628D02*
X138289161Y-149298390D01*
X138289161Y-149298390D02*
X138336780Y-149250771D01*
X138336780Y-149250771D02*
X138432018Y-149203152D01*
X138432018Y-149203152D02*
X138574875Y-149203152D01*
X138574875Y-149203152D02*
X138670113Y-149250771D01*
X138670113Y-149250771D02*
X138717732Y-149298390D01*
X138717732Y-149298390D02*
X138765351Y-149393628D01*
X138765351Y-149393628D02*
X138765351Y-149679342D01*
X138765351Y-149679342D02*
X138717732Y-149774580D01*
X138717732Y-149774580D02*
X138670113Y-149822200D01*
X138670113Y-149822200D02*
X138574875Y-149869819D01*
X138574875Y-149869819D02*
X138432018Y-149869819D01*
X139336780Y-149869819D02*
X139241542Y-149822200D01*
X139241542Y-149822200D02*
X139193923Y-149774580D01*
X139193923Y-149774580D02*
X139146304Y-149679342D01*
X139146304Y-149679342D02*
X139146304Y-149393628D01*
X139146304Y-149393628D02*
X139193923Y-149298390D01*
X139193923Y-149298390D02*
X139241542Y-149250771D01*
X139241542Y-149250771D02*
X139336780Y-149203152D01*
X139336780Y-149203152D02*
X139479637Y-149203152D01*
X139479637Y-149203152D02*
X139574875Y-149250771D01*
X139574875Y-149250771D02*
X139622494Y-149298390D01*
X139622494Y-149298390D02*
X139670113Y-149393628D01*
X139670113Y-149393628D02*
X139670113Y-149679342D01*
X139670113Y-149679342D02*
X139622494Y-149774580D01*
X139622494Y-149774580D02*
X139574875Y-149822200D01*
X139574875Y-149822200D02*
X139479637Y-149869819D01*
X139479637Y-149869819D02*
X139336780Y-149869819D01*
X140098685Y-149869819D02*
X140098685Y-148869819D01*
X140193923Y-149488866D02*
X140479637Y-149869819D01*
X140479637Y-149203152D02*
X140098685Y-149584104D01*
X140955828Y-148869819D02*
X140860590Y-149060295D01*
X141336780Y-149822200D02*
X141432018Y-149869819D01*
X141432018Y-149869819D02*
X141622494Y-149869819D01*
X141622494Y-149869819D02*
X141717732Y-149822200D01*
X141717732Y-149822200D02*
X141765351Y-149726961D01*
X141765351Y-149726961D02*
X141765351Y-149679342D01*
X141765351Y-149679342D02*
X141717732Y-149584104D01*
X141717732Y-149584104D02*
X141622494Y-149536485D01*
X141622494Y-149536485D02*
X141479637Y-149536485D01*
X141479637Y-149536485D02*
X141384399Y-149488866D01*
X141384399Y-149488866D02*
X141336780Y-149393628D01*
X141336780Y-149393628D02*
X141336780Y-149346009D01*
X141336780Y-149346009D02*
X141384399Y-149250771D01*
X141384399Y-149250771D02*
X141479637Y-149203152D01*
X141479637Y-149203152D02*
X141622494Y-149203152D01*
X141622494Y-149203152D02*
X141717732Y-149250771D01*
X142955828Y-149869819D02*
X142955828Y-148869819D01*
X142955828Y-148869819D02*
X143336780Y-148869819D01*
X143336780Y-148869819D02*
X143432018Y-148917438D01*
X143432018Y-148917438D02*
X143479637Y-148965057D01*
X143479637Y-148965057D02*
X143527256Y-149060295D01*
X143527256Y-149060295D02*
X143527256Y-149203152D01*
X143527256Y-149203152D02*
X143479637Y-149298390D01*
X143479637Y-149298390D02*
X143432018Y-149346009D01*
X143432018Y-149346009D02*
X143336780Y-149393628D01*
X143336780Y-149393628D02*
X142955828Y-149393628D01*
X143908209Y-149822200D02*
X144051066Y-149869819D01*
X144051066Y-149869819D02*
X144289161Y-149869819D01*
X144289161Y-149869819D02*
X144384399Y-149822200D01*
X144384399Y-149822200D02*
X144432018Y-149774580D01*
X144432018Y-149774580D02*
X144479637Y-149679342D01*
X144479637Y-149679342D02*
X144479637Y-149584104D01*
X144479637Y-149584104D02*
X144432018Y-149488866D01*
X144432018Y-149488866D02*
X144384399Y-149441247D01*
X144384399Y-149441247D02*
X144289161Y-149393628D01*
X144289161Y-149393628D02*
X144098685Y-149346009D01*
X144098685Y-149346009D02*
X144003447Y-149298390D01*
X144003447Y-149298390D02*
X143955828Y-149250771D01*
X143955828Y-149250771D02*
X143908209Y-149155533D01*
X143908209Y-149155533D02*
X143908209Y-149060295D01*
X143908209Y-149060295D02*
X143955828Y-148965057D01*
X143955828Y-148965057D02*
X144003447Y-148917438D01*
X144003447Y-148917438D02*
X144098685Y-148869819D01*
X144098685Y-148869819D02*
X144336780Y-148869819D01*
X144336780Y-148869819D02*
X144479637Y-148917438D01*
X145479637Y-149774580D02*
X145432018Y-149822200D01*
X145432018Y-149822200D02*
X145289161Y-149869819D01*
X145289161Y-149869819D02*
X145193923Y-149869819D01*
X145193923Y-149869819D02*
X145051066Y-149822200D01*
X145051066Y-149822200D02*
X144955828Y-149726961D01*
X144955828Y-149726961D02*
X144908209Y-149631723D01*
X144908209Y-149631723D02*
X144860590Y-149441247D01*
X144860590Y-149441247D02*
X144860590Y-149298390D01*
X144860590Y-149298390D02*
X144908209Y-149107914D01*
X144908209Y-149107914D02*
X144955828Y-149012676D01*
X144955828Y-149012676D02*
X145051066Y-148917438D01*
X145051066Y-148917438D02*
X145193923Y-148869819D01*
X145193923Y-148869819D02*
X145289161Y-148869819D01*
X145289161Y-148869819D02*
X145432018Y-148917438D01*
X145432018Y-148917438D02*
X145479637Y-148965057D01*
X145908209Y-149346009D02*
X146241542Y-149346009D01*
X146384399Y-149869819D02*
X145908209Y-149869819D01*
X145908209Y-149869819D02*
X145908209Y-148869819D01*
X145908209Y-148869819D02*
X146384399Y-148869819D01*
X147527257Y-149822200D02*
X147670114Y-149869819D01*
X147670114Y-149869819D02*
X147908209Y-149869819D01*
X147908209Y-149869819D02*
X148003447Y-149822200D01*
X148003447Y-149822200D02*
X148051066Y-149774580D01*
X148051066Y-149774580D02*
X148098685Y-149679342D01*
X148098685Y-149679342D02*
X148098685Y-149584104D01*
X148098685Y-149584104D02*
X148051066Y-149488866D01*
X148051066Y-149488866D02*
X148003447Y-149441247D01*
X148003447Y-149441247D02*
X147908209Y-149393628D01*
X147908209Y-149393628D02*
X147717733Y-149346009D01*
X147717733Y-149346009D02*
X147622495Y-149298390D01*
X147622495Y-149298390D02*
X147574876Y-149250771D01*
X147574876Y-149250771D02*
X147527257Y-149155533D01*
X147527257Y-149155533D02*
X147527257Y-149060295D01*
X147527257Y-149060295D02*
X147574876Y-148965057D01*
X147574876Y-148965057D02*
X147622495Y-148917438D01*
X147622495Y-148917438D02*
X147717733Y-148869819D01*
X147717733Y-148869819D02*
X147955828Y-148869819D01*
X147955828Y-148869819D02*
X148098685Y-148917438D01*
X148432019Y-149203152D02*
X148670114Y-149869819D01*
X148908209Y-149203152D02*
X148670114Y-149869819D01*
X148670114Y-149869819D02*
X148574876Y-150107914D01*
X148574876Y-150107914D02*
X148527257Y-150155533D01*
X148527257Y-150155533D02*
X148432019Y-150203152D01*
X149241543Y-149822200D02*
X149336781Y-149869819D01*
X149336781Y-149869819D02*
X149527257Y-149869819D01*
X149527257Y-149869819D02*
X149622495Y-149822200D01*
X149622495Y-149822200D02*
X149670114Y-149726961D01*
X149670114Y-149726961D02*
X149670114Y-149679342D01*
X149670114Y-149679342D02*
X149622495Y-149584104D01*
X149622495Y-149584104D02*
X149527257Y-149536485D01*
X149527257Y-149536485D02*
X149384400Y-149536485D01*
X149384400Y-149536485D02*
X149289162Y-149488866D01*
X149289162Y-149488866D02*
X149241543Y-149393628D01*
X149241543Y-149393628D02*
X149241543Y-149346009D01*
X149241543Y-149346009D02*
X149289162Y-149250771D01*
X149289162Y-149250771D02*
X149384400Y-149203152D01*
X149384400Y-149203152D02*
X149527257Y-149203152D01*
X149527257Y-149203152D02*
X149622495Y-149250771D01*
X149955829Y-149203152D02*
X150336781Y-149203152D01*
X150098686Y-148869819D02*
X150098686Y-149726961D01*
X150098686Y-149726961D02*
X150146305Y-149822200D01*
X150146305Y-149822200D02*
X150241543Y-149869819D01*
X150241543Y-149869819D02*
X150336781Y-149869819D01*
X151051067Y-149822200D02*
X150955829Y-149869819D01*
X150955829Y-149869819D02*
X150765353Y-149869819D01*
X150765353Y-149869819D02*
X150670115Y-149822200D01*
X150670115Y-149822200D02*
X150622496Y-149726961D01*
X150622496Y-149726961D02*
X150622496Y-149346009D01*
X150622496Y-149346009D02*
X150670115Y-149250771D01*
X150670115Y-149250771D02*
X150765353Y-149203152D01*
X150765353Y-149203152D02*
X150955829Y-149203152D01*
X150955829Y-149203152D02*
X151051067Y-149250771D01*
X151051067Y-149250771D02*
X151098686Y-149346009D01*
X151098686Y-149346009D02*
X151098686Y-149441247D01*
X151098686Y-149441247D02*
X150622496Y-149536485D01*
X151527258Y-149869819D02*
X151527258Y-149203152D01*
X151527258Y-149298390D02*
X151574877Y-149250771D01*
X151574877Y-149250771D02*
X151670115Y-149203152D01*
X151670115Y-149203152D02*
X151812972Y-149203152D01*
X151812972Y-149203152D02*
X151908210Y-149250771D01*
X151908210Y-149250771D02*
X151955829Y-149346009D01*
X151955829Y-149346009D02*
X151955829Y-149869819D01*
X151955829Y-149346009D02*
X152003448Y-149250771D01*
X152003448Y-149250771D02*
X152098686Y-149203152D01*
X152098686Y-149203152D02*
X152241543Y-149203152D01*
X152241543Y-149203152D02*
X152336782Y-149250771D01*
X152336782Y-149250771D02*
X152384401Y-149346009D01*
X152384401Y-149346009D02*
X152384401Y-149869819D01*
D11*
X121417292Y-147877457D02*
X122131578Y-147877457D01*
X121274435Y-148306028D02*
X121774435Y-146806028D01*
X121774435Y-146806028D02*
X122274435Y-148306028D01*
X122774434Y-148306028D02*
X122774434Y-147306028D01*
X122774434Y-147591742D02*
X122845863Y-147448885D01*
X122845863Y-147448885D02*
X122917292Y-147377457D01*
X122917292Y-147377457D02*
X123060149Y-147306028D01*
X123060149Y-147306028D02*
X123203006Y-147306028D01*
X124345863Y-148306028D02*
X124345863Y-146806028D01*
X124345863Y-148234600D02*
X124203005Y-148306028D01*
X124203005Y-148306028D02*
X123917291Y-148306028D01*
X123917291Y-148306028D02*
X123774434Y-148234600D01*
X123774434Y-148234600D02*
X123703005Y-148163171D01*
X123703005Y-148163171D02*
X123631577Y-148020314D01*
X123631577Y-148020314D02*
X123631577Y-147591742D01*
X123631577Y-147591742D02*
X123703005Y-147448885D01*
X123703005Y-147448885D02*
X123774434Y-147377457D01*
X123774434Y-147377457D02*
X123917291Y-147306028D01*
X123917291Y-147306028D02*
X124203005Y-147306028D01*
X124203005Y-147306028D02*
X124345863Y-147377457D01*
X125703006Y-147306028D02*
X125703006Y-148306028D01*
X125060148Y-147306028D02*
X125060148Y-148091742D01*
X125060148Y-148091742D02*
X125131577Y-148234600D01*
X125131577Y-148234600D02*
X125274434Y-148306028D01*
X125274434Y-148306028D02*
X125488720Y-148306028D01*
X125488720Y-148306028D02*
X125631577Y-148234600D01*
X125631577Y-148234600D02*
X125703006Y-148163171D01*
X126417291Y-148306028D02*
X126417291Y-147306028D01*
X126417291Y-146806028D02*
X126345863Y-146877457D01*
X126345863Y-146877457D02*
X126417291Y-146948885D01*
X126417291Y-146948885D02*
X126488720Y-146877457D01*
X126488720Y-146877457D02*
X126417291Y-146806028D01*
X126417291Y-146806028D02*
X126417291Y-146948885D01*
X127131577Y-147306028D02*
X127131577Y-148306028D01*
X127131577Y-147448885D02*
X127203006Y-147377457D01*
X127203006Y-147377457D02*
X127345863Y-147306028D01*
X127345863Y-147306028D02*
X127560149Y-147306028D01*
X127560149Y-147306028D02*
X127703006Y-147377457D01*
X127703006Y-147377457D02*
X127774435Y-147520314D01*
X127774435Y-147520314D02*
X127774435Y-148306028D01*
X128703006Y-148306028D02*
X128560149Y-148234600D01*
X128560149Y-148234600D02*
X128488720Y-148163171D01*
X128488720Y-148163171D02*
X128417292Y-148020314D01*
X128417292Y-148020314D02*
X128417292Y-147591742D01*
X128417292Y-147591742D02*
X128488720Y-147448885D01*
X128488720Y-147448885D02*
X128560149Y-147377457D01*
X128560149Y-147377457D02*
X128703006Y-147306028D01*
X128703006Y-147306028D02*
X128917292Y-147306028D01*
X128917292Y-147306028D02*
X129060149Y-147377457D01*
X129060149Y-147377457D02*
X129131578Y-147448885D01*
X129131578Y-147448885D02*
X129203006Y-147591742D01*
X129203006Y-147591742D02*
X129203006Y-148020314D01*
X129203006Y-148020314D02*
X129131578Y-148163171D01*
X129131578Y-148163171D02*
X129060149Y-148234600D01*
X129060149Y-148234600D02*
X128917292Y-148306028D01*
X128917292Y-148306028D02*
X128703006Y-148306028D01*
X130988720Y-148306028D02*
X130988720Y-146806028D01*
X130988720Y-146806028D02*
X131345863Y-146806028D01*
X131345863Y-146806028D02*
X131560149Y-146877457D01*
X131560149Y-146877457D02*
X131703006Y-147020314D01*
X131703006Y-147020314D02*
X131774435Y-147163171D01*
X131774435Y-147163171D02*
X131845863Y-147448885D01*
X131845863Y-147448885D02*
X131845863Y-147663171D01*
X131845863Y-147663171D02*
X131774435Y-147948885D01*
X131774435Y-147948885D02*
X131703006Y-148091742D01*
X131703006Y-148091742D02*
X131560149Y-148234600D01*
X131560149Y-148234600D02*
X131345863Y-148306028D01*
X131345863Y-148306028D02*
X130988720Y-148306028D01*
X132488720Y-146806028D02*
X132488720Y-148020314D01*
X132488720Y-148020314D02*
X132560149Y-148163171D01*
X132560149Y-148163171D02*
X132631578Y-148234600D01*
X132631578Y-148234600D02*
X132774435Y-148306028D01*
X132774435Y-148306028D02*
X133060149Y-148306028D01*
X133060149Y-148306028D02*
X133203006Y-148234600D01*
X133203006Y-148234600D02*
X133274435Y-148163171D01*
X133274435Y-148163171D02*
X133345863Y-148020314D01*
X133345863Y-148020314D02*
X133345863Y-146806028D01*
X134060149Y-147520314D02*
X134560149Y-147520314D01*
X134774435Y-148306028D02*
X134060149Y-148306028D01*
X134060149Y-148306028D02*
X134060149Y-146806028D01*
X134060149Y-146806028D02*
X134774435Y-146806028D01*
X135417292Y-147734600D02*
X136560150Y-147734600D01*
X137060150Y-147306028D02*
X137631578Y-147306028D01*
X137274435Y-146806028D02*
X137274435Y-148091742D01*
X137274435Y-148091742D02*
X137345864Y-148234600D01*
X137345864Y-148234600D02*
X137488721Y-148306028D01*
X137488721Y-148306028D02*
X137631578Y-148306028D01*
X138345864Y-148306028D02*
X138203007Y-148234600D01*
X138203007Y-148234600D02*
X138131578Y-148163171D01*
X138131578Y-148163171D02*
X138060150Y-148020314D01*
X138060150Y-148020314D02*
X138060150Y-147591742D01*
X138060150Y-147591742D02*
X138131578Y-147448885D01*
X138131578Y-147448885D02*
X138203007Y-147377457D01*
X138203007Y-147377457D02*
X138345864Y-147306028D01*
X138345864Y-147306028D02*
X138560150Y-147306028D01*
X138560150Y-147306028D02*
X138703007Y-147377457D01*
X138703007Y-147377457D02*
X138774436Y-147448885D01*
X138774436Y-147448885D02*
X138845864Y-147591742D01*
X138845864Y-147591742D02*
X138845864Y-148020314D01*
X138845864Y-148020314D02*
X138774436Y-148163171D01*
X138774436Y-148163171D02*
X138703007Y-148234600D01*
X138703007Y-148234600D02*
X138560150Y-148306028D01*
X138560150Y-148306028D02*
X138345864Y-148306028D01*
X139488721Y-147734600D02*
X140631579Y-147734600D01*
X141345864Y-148306028D02*
X141345864Y-146806028D01*
X141345864Y-146806028D02*
X141917293Y-146806028D01*
X141917293Y-146806028D02*
X142060150Y-146877457D01*
X142060150Y-146877457D02*
X142131579Y-146948885D01*
X142131579Y-146948885D02*
X142203007Y-147091742D01*
X142203007Y-147091742D02*
X142203007Y-147306028D01*
X142203007Y-147306028D02*
X142131579Y-147448885D01*
X142131579Y-147448885D02*
X142060150Y-147520314D01*
X142060150Y-147520314D02*
X141917293Y-147591742D01*
X141917293Y-147591742D02*
X141345864Y-147591742D01*
X142845864Y-148306028D02*
X142845864Y-146806028D01*
X142845864Y-146806028D02*
X143345864Y-147877457D01*
X143345864Y-147877457D02*
X143845864Y-146806028D01*
X143845864Y-146806028D02*
X143845864Y-148306028D01*
X144845865Y-146806028D02*
X145131579Y-146806028D01*
X145131579Y-146806028D02*
X145274436Y-146877457D01*
X145274436Y-146877457D02*
X145417293Y-147020314D01*
X145417293Y-147020314D02*
X145488722Y-147306028D01*
X145488722Y-147306028D02*
X145488722Y-147806028D01*
X145488722Y-147806028D02*
X145417293Y-148091742D01*
X145417293Y-148091742D02*
X145274436Y-148234600D01*
X145274436Y-148234600D02*
X145131579Y-148306028D01*
X145131579Y-148306028D02*
X144845865Y-148306028D01*
X144845865Y-148306028D02*
X144703008Y-148234600D01*
X144703008Y-148234600D02*
X144560150Y-148091742D01*
X144560150Y-148091742D02*
X144488722Y-147806028D01*
X144488722Y-147806028D02*
X144488722Y-147306028D01*
X144488722Y-147306028D02*
X144560150Y-147020314D01*
X144560150Y-147020314D02*
X144703008Y-146877457D01*
X144703008Y-146877457D02*
X144845865Y-146806028D01*
X146131579Y-148306028D02*
X146131579Y-146806028D01*
X146131579Y-146806028D02*
X146488722Y-146806028D01*
X146488722Y-146806028D02*
X146703008Y-146877457D01*
X146703008Y-146877457D02*
X146845865Y-147020314D01*
X146845865Y-147020314D02*
X146917294Y-147163171D01*
X146917294Y-147163171D02*
X146988722Y-147448885D01*
X146988722Y-147448885D02*
X146988722Y-147663171D01*
X146988722Y-147663171D02*
X146917294Y-147948885D01*
X146917294Y-147948885D02*
X146845865Y-148091742D01*
X146845865Y-148091742D02*
X146703008Y-148234600D01*
X146703008Y-148234600D02*
X146488722Y-148306028D01*
X146488722Y-148306028D02*
X146131579Y-148306028D01*
X148703008Y-147877457D02*
X149417294Y-147877457D01*
X148560151Y-148306028D02*
X149060151Y-146806028D01*
X149060151Y-146806028D02*
X149560151Y-148306028D01*
X150703008Y-148306028D02*
X150703008Y-146806028D01*
X150703008Y-148234600D02*
X150560150Y-148306028D01*
X150560150Y-148306028D02*
X150274436Y-148306028D01*
X150274436Y-148306028D02*
X150131579Y-148234600D01*
X150131579Y-148234600D02*
X150060150Y-148163171D01*
X150060150Y-148163171D02*
X149988722Y-148020314D01*
X149988722Y-148020314D02*
X149988722Y-147591742D01*
X149988722Y-147591742D02*
X150060150Y-147448885D01*
X150060150Y-147448885D02*
X150131579Y-147377457D01*
X150131579Y-147377457D02*
X150274436Y-147306028D01*
X150274436Y-147306028D02*
X150560150Y-147306028D01*
X150560150Y-147306028D02*
X150703008Y-147377457D01*
X152060151Y-148306028D02*
X152060151Y-147520314D01*
X152060151Y-147520314D02*
X151988722Y-147377457D01*
X151988722Y-147377457D02*
X151845865Y-147306028D01*
X151845865Y-147306028D02*
X151560151Y-147306028D01*
X151560151Y-147306028D02*
X151417293Y-147377457D01*
X152060151Y-148234600D02*
X151917293Y-148306028D01*
X151917293Y-148306028D02*
X151560151Y-148306028D01*
X151560151Y-148306028D02*
X151417293Y-148234600D01*
X151417293Y-148234600D02*
X151345865Y-148091742D01*
X151345865Y-148091742D02*
X151345865Y-147948885D01*
X151345865Y-147948885D02*
X151417293Y-147806028D01*
X151417293Y-147806028D02*
X151560151Y-147734600D01*
X151560151Y-147734600D02*
X151917293Y-147734600D01*
X151917293Y-147734600D02*
X152060151Y-147663171D01*
X152774436Y-147306028D02*
X152774436Y-148806028D01*
X152774436Y-147377457D02*
X152917294Y-147306028D01*
X152917294Y-147306028D02*
X153203008Y-147306028D01*
X153203008Y-147306028D02*
X153345865Y-147377457D01*
X153345865Y-147377457D02*
X153417294Y-147448885D01*
X153417294Y-147448885D02*
X153488722Y-147591742D01*
X153488722Y-147591742D02*
X153488722Y-148020314D01*
X153488722Y-148020314D02*
X153417294Y-148163171D01*
X153417294Y-148163171D02*
X153345865Y-148234600D01*
X153345865Y-148234600D02*
X153203008Y-148306028D01*
X153203008Y-148306028D02*
X152917294Y-148306028D01*
X152917294Y-148306028D02*
X152774436Y-148234600D01*
X153917294Y-147306028D02*
X154488722Y-147306028D01*
X154131579Y-146806028D02*
X154131579Y-148091742D01*
X154131579Y-148091742D02*
X154203008Y-148234600D01*
X154203008Y-148234600D02*
X154345865Y-148306028D01*
X154345865Y-148306028D02*
X154488722Y-148306028D01*
X155203008Y-148306028D02*
X155060151Y-148234600D01*
X155060151Y-148234600D02*
X154988722Y-148163171D01*
X154988722Y-148163171D02*
X154917294Y-148020314D01*
X154917294Y-148020314D02*
X154917294Y-147591742D01*
X154917294Y-147591742D02*
X154988722Y-147448885D01*
X154988722Y-147448885D02*
X155060151Y-147377457D01*
X155060151Y-147377457D02*
X155203008Y-147306028D01*
X155203008Y-147306028D02*
X155417294Y-147306028D01*
X155417294Y-147306028D02*
X155560151Y-147377457D01*
X155560151Y-147377457D02*
X155631580Y-147448885D01*
X155631580Y-147448885D02*
X155703008Y-147591742D01*
X155703008Y-147591742D02*
X155703008Y-148020314D01*
X155703008Y-148020314D02*
X155631580Y-148163171D01*
X155631580Y-148163171D02*
X155560151Y-148234600D01*
X155560151Y-148234600D02*
X155417294Y-148306028D01*
X155417294Y-148306028D02*
X155203008Y-148306028D01*
X156345865Y-148306028D02*
X156345865Y-147306028D01*
X156345865Y-147591742D02*
X156417294Y-147448885D01*
X156417294Y-147448885D02*
X156488723Y-147377457D01*
X156488723Y-147377457D02*
X156631580Y-147306028D01*
X156631580Y-147306028D02*
X156774437Y-147306028D01*
X158274436Y-147306028D02*
X158631579Y-148306028D01*
X158631579Y-148306028D02*
X158988722Y-147306028D01*
X159560150Y-148163171D02*
X159631579Y-148234600D01*
X159631579Y-148234600D02*
X159560150Y-148306028D01*
X159560150Y-148306028D02*
X159488722Y-148234600D01*
X159488722Y-148234600D02*
X159560150Y-148163171D01*
X159560150Y-148163171D02*
X159560150Y-148306028D01*
X160203008Y-146948885D02*
X160274436Y-146877457D01*
X160274436Y-146877457D02*
X160417294Y-146806028D01*
X160417294Y-146806028D02*
X160774436Y-146806028D01*
X160774436Y-146806028D02*
X160917294Y-146877457D01*
X160917294Y-146877457D02*
X160988722Y-146948885D01*
X160988722Y-146948885D02*
X161060151Y-147091742D01*
X161060151Y-147091742D02*
X161060151Y-147234600D01*
X161060151Y-147234600D02*
X160988722Y-147448885D01*
X160988722Y-147448885D02*
X160131579Y-148306028D01*
X160131579Y-148306028D02*
X161060151Y-148306028D01*
D10*
X109228095Y-154354819D02*
X109799523Y-154354819D01*
X109513809Y-155354819D02*
X109513809Y-154354819D01*
X110132857Y-155354819D02*
X110132857Y-154354819D01*
X110132857Y-154354819D02*
X110513809Y-154354819D01*
X110513809Y-154354819D02*
X110609047Y-154402438D01*
X110609047Y-154402438D02*
X110656666Y-154450057D01*
X110656666Y-154450057D02*
X110704285Y-154545295D01*
X110704285Y-154545295D02*
X110704285Y-154688152D01*
X110704285Y-154688152D02*
X110656666Y-154783390D01*
X110656666Y-154783390D02*
X110609047Y-154831009D01*
X110609047Y-154831009D02*
X110513809Y-154878628D01*
X110513809Y-154878628D02*
X110132857Y-154878628D01*
X111037619Y-154354819D02*
X111656666Y-154354819D01*
X111656666Y-154354819D02*
X111323333Y-154735771D01*
X111323333Y-154735771D02*
X111466190Y-154735771D01*
X111466190Y-154735771D02*
X111561428Y-154783390D01*
X111561428Y-154783390D02*
X111609047Y-154831009D01*
X111609047Y-154831009D02*
X111656666Y-154926247D01*
X111656666Y-154926247D02*
X111656666Y-155164342D01*
X111656666Y-155164342D02*
X111609047Y-155259580D01*
X111609047Y-155259580D02*
X111561428Y-155307200D01*
X111561428Y-155307200D02*
X111466190Y-155354819D01*
X111466190Y-155354819D02*
X111180476Y-155354819D01*
X111180476Y-155354819D02*
X111085238Y-155307200D01*
X111085238Y-155307200D02*
X111037619Y-155259580D01*
X170738095Y-147406819D02*
X171309523Y-147406819D01*
X171023809Y-148406819D02*
X171023809Y-147406819D01*
X171642857Y-148406819D02*
X171642857Y-147406819D01*
X171642857Y-147406819D02*
X172023809Y-147406819D01*
X172023809Y-147406819D02*
X172119047Y-147454438D01*
X172119047Y-147454438D02*
X172166666Y-147502057D01*
X172166666Y-147502057D02*
X172214285Y-147597295D01*
X172214285Y-147597295D02*
X172214285Y-147740152D01*
X172214285Y-147740152D02*
X172166666Y-147835390D01*
X172166666Y-147835390D02*
X172119047Y-147883009D01*
X172119047Y-147883009D02*
X172023809Y-147930628D01*
X172023809Y-147930628D02*
X171642857Y-147930628D01*
X173071428Y-147740152D02*
X173071428Y-148406819D01*
X172833333Y-147359200D02*
X172595238Y-148073485D01*
X172595238Y-148073485D02*
X173214285Y-148073485D01*
X113738095Y-48406819D02*
X114309523Y-48406819D01*
X114023809Y-49406819D02*
X114023809Y-48406819D01*
X114642857Y-49406819D02*
X114642857Y-48406819D01*
X114642857Y-48406819D02*
X115023809Y-48406819D01*
X115023809Y-48406819D02*
X115119047Y-48454438D01*
X115119047Y-48454438D02*
X115166666Y-48502057D01*
X115166666Y-48502057D02*
X115214285Y-48597295D01*
X115214285Y-48597295D02*
X115214285Y-48740152D01*
X115214285Y-48740152D02*
X115166666Y-48835390D01*
X115166666Y-48835390D02*
X115119047Y-48883009D01*
X115119047Y-48883009D02*
X115023809Y-48930628D01*
X115023809Y-48930628D02*
X114642857Y-48930628D01*
X115595238Y-48502057D02*
X115642857Y-48454438D01*
X115642857Y-48454438D02*
X115738095Y-48406819D01*
X115738095Y-48406819D02*
X115976190Y-48406819D01*
X115976190Y-48406819D02*
X116071428Y-48454438D01*
X116071428Y-48454438D02*
X116119047Y-48502057D01*
X116119047Y-48502057D02*
X116166666Y-48597295D01*
X116166666Y-48597295D02*
X116166666Y-48692533D01*
X116166666Y-48692533D02*
X116119047Y-48835390D01*
X116119047Y-48835390D02*
X115547619Y-49406819D01*
X115547619Y-49406819D02*
X116166666Y-49406819D01*
X97738095Y-49454819D02*
X97738095Y-50169104D01*
X97738095Y-50169104D02*
X97690476Y-50311961D01*
X97690476Y-50311961D02*
X97595238Y-50407200D01*
X97595238Y-50407200D02*
X97452381Y-50454819D01*
X97452381Y-50454819D02*
X97357143Y-50454819D01*
X98166667Y-50169104D02*
X98642857Y-50169104D01*
X98071429Y-50454819D02*
X98404762Y-49454819D01*
X98404762Y-49454819D02*
X98738095Y-50454819D01*
X99595238Y-50454819D02*
X99023810Y-50454819D01*
X99309524Y-50454819D02*
X99309524Y-49454819D01*
X99309524Y-49454819D02*
X99214286Y-49597676D01*
X99214286Y-49597676D02*
X99119048Y-49692914D01*
X99119048Y-49692914D02*
X99023810Y-49740533D01*
X97666666Y-94954819D02*
X97666666Y-95669104D01*
X97666666Y-95669104D02*
X97619047Y-95811961D01*
X97619047Y-95811961D02*
X97523809Y-95907200D01*
X97523809Y-95907200D02*
X97380952Y-95954819D01*
X97380952Y-95954819D02*
X97285714Y-95954819D01*
X98714285Y-95859580D02*
X98666666Y-95907200D01*
X98666666Y-95907200D02*
X98523809Y-95954819D01*
X98523809Y-95954819D02*
X98428571Y-95954819D01*
X98428571Y-95954819D02*
X98285714Y-95907200D01*
X98285714Y-95907200D02*
X98190476Y-95811961D01*
X98190476Y-95811961D02*
X98142857Y-95716723D01*
X98142857Y-95716723D02*
X98095238Y-95526247D01*
X98095238Y-95526247D02*
X98095238Y-95383390D01*
X98095238Y-95383390D02*
X98142857Y-95192914D01*
X98142857Y-95192914D02*
X98190476Y-95097676D01*
X98190476Y-95097676D02*
X98285714Y-95002438D01*
X98285714Y-95002438D02*
X98428571Y-94954819D01*
X98428571Y-94954819D02*
X98523809Y-94954819D01*
X98523809Y-94954819D02*
X98666666Y-95002438D01*
X98666666Y-95002438D02*
X98714285Y-95050057D01*
X99666666Y-95954819D02*
X99095238Y-95954819D01*
X99380952Y-95954819D02*
X99380952Y-94954819D01*
X99380952Y-94954819D02*
X99285714Y-95097676D01*
X99285714Y-95097676D02*
X99190476Y-95192914D01*
X99190476Y-95192914D02*
X99095238Y-95240533D01*
X97666666Y-72479819D02*
X97666666Y-73194104D01*
X97666666Y-73194104D02*
X97619047Y-73336961D01*
X97619047Y-73336961D02*
X97523809Y-73432200D01*
X97523809Y-73432200D02*
X97380952Y-73479819D01*
X97380952Y-73479819D02*
X97285714Y-73479819D01*
X98476190Y-72956009D02*
X98619047Y-73003628D01*
X98619047Y-73003628D02*
X98666666Y-73051247D01*
X98666666Y-73051247D02*
X98714285Y-73146485D01*
X98714285Y-73146485D02*
X98714285Y-73289342D01*
X98714285Y-73289342D02*
X98666666Y-73384580D01*
X98666666Y-73384580D02*
X98619047Y-73432200D01*
X98619047Y-73432200D02*
X98523809Y-73479819D01*
X98523809Y-73479819D02*
X98142857Y-73479819D01*
X98142857Y-73479819D02*
X98142857Y-72479819D01*
X98142857Y-72479819D02*
X98476190Y-72479819D01*
X98476190Y-72479819D02*
X98571428Y-72527438D01*
X98571428Y-72527438D02*
X98619047Y-72575057D01*
X98619047Y-72575057D02*
X98666666Y-72670295D01*
X98666666Y-72670295D02*
X98666666Y-72765533D01*
X98666666Y-72765533D02*
X98619047Y-72860771D01*
X98619047Y-72860771D02*
X98571428Y-72908390D01*
X98571428Y-72908390D02*
X98476190Y-72956009D01*
X98476190Y-72956009D02*
X98142857Y-72956009D01*
X99666666Y-73479819D02*
X99095238Y-73479819D01*
X99380952Y-73479819D02*
X99380952Y-72479819D01*
X99380952Y-72479819D02*
X99285714Y-72622676D01*
X99285714Y-72622676D02*
X99190476Y-72717914D01*
X99190476Y-72717914D02*
X99095238Y-72765533D01*
X98738095Y-146906819D02*
X99309523Y-146906819D01*
X99023809Y-147906819D02*
X99023809Y-146906819D01*
X99642857Y-147906819D02*
X99642857Y-146906819D01*
X99642857Y-146906819D02*
X100023809Y-146906819D01*
X100023809Y-146906819D02*
X100119047Y-146954438D01*
X100119047Y-146954438D02*
X100166666Y-147002057D01*
X100166666Y-147002057D02*
X100214285Y-147097295D01*
X100214285Y-147097295D02*
X100214285Y-147240152D01*
X100214285Y-147240152D02*
X100166666Y-147335390D01*
X100166666Y-147335390D02*
X100119047Y-147383009D01*
X100119047Y-147383009D02*
X100023809Y-147430628D01*
X100023809Y-147430628D02*
X99642857Y-147430628D01*
X101166666Y-147906819D02*
X100595238Y-147906819D01*
X100880952Y-147906819D02*
X100880952Y-146906819D01*
X100880952Y-146906819D02*
X100785714Y-147049676D01*
X100785714Y-147049676D02*
X100690476Y-147144914D01*
X100690476Y-147144914D02*
X100595238Y-147192533D01*
X97666666Y-117454819D02*
X97666666Y-118169104D01*
X97666666Y-118169104D02*
X97619047Y-118311961D01*
X97619047Y-118311961D02*
X97523809Y-118407200D01*
X97523809Y-118407200D02*
X97380952Y-118454819D01*
X97380952Y-118454819D02*
X97285714Y-118454819D01*
X98142857Y-118454819D02*
X98142857Y-117454819D01*
X98142857Y-117454819D02*
X98380952Y-117454819D01*
X98380952Y-117454819D02*
X98523809Y-117502438D01*
X98523809Y-117502438D02*
X98619047Y-117597676D01*
X98619047Y-117597676D02*
X98666666Y-117692914D01*
X98666666Y-117692914D02*
X98714285Y-117883390D01*
X98714285Y-117883390D02*
X98714285Y-118026247D01*
X98714285Y-118026247D02*
X98666666Y-118216723D01*
X98666666Y-118216723D02*
X98619047Y-118311961D01*
X98619047Y-118311961D02*
X98523809Y-118407200D01*
X98523809Y-118407200D02*
X98380952Y-118454819D01*
X98380952Y-118454819D02*
X98142857Y-118454819D01*
X99666666Y-118454819D02*
X99095238Y-118454819D01*
X99380952Y-118454819D02*
X99380952Y-117454819D01*
X99380952Y-117454819D02*
X99285714Y-117597676D01*
X99285714Y-117597676D02*
X99190476Y-117692914D01*
X99190476Y-117692914D02*
X99095238Y-117740533D01*
X175139819Y-138763333D02*
X175854104Y-138763333D01*
X175854104Y-138763333D02*
X175996961Y-138810952D01*
X175996961Y-138810952D02*
X176092200Y-138906190D01*
X176092200Y-138906190D02*
X176139819Y-139049047D01*
X176139819Y-139049047D02*
X176139819Y-139144285D01*
X176139819Y-137763333D02*
X176139819Y-138334761D01*
X176139819Y-138049047D02*
X175139819Y-138049047D01*
X175139819Y-138049047D02*
X175282676Y-138144285D01*
X175282676Y-138144285D02*
X175377914Y-138239523D01*
X175377914Y-138239523D02*
X175425533Y-138334761D01*
X138178571Y-142757557D02*
X138892857Y-142757557D01*
X138035714Y-143186128D02*
X138535714Y-141686128D01*
X138535714Y-141686128D02*
X139035714Y-143186128D01*
X139535713Y-143186128D02*
X139535713Y-142186128D01*
X139535713Y-142471842D02*
X139607142Y-142328985D01*
X139607142Y-142328985D02*
X139678571Y-142257557D01*
X139678571Y-142257557D02*
X139821428Y-142186128D01*
X139821428Y-142186128D02*
X139964285Y-142186128D01*
X141107142Y-143186128D02*
X141107142Y-141686128D01*
X141107142Y-143114700D02*
X140964284Y-143186128D01*
X140964284Y-143186128D02*
X140678570Y-143186128D01*
X140678570Y-143186128D02*
X140535713Y-143114700D01*
X140535713Y-143114700D02*
X140464284Y-143043271D01*
X140464284Y-143043271D02*
X140392856Y-142900414D01*
X140392856Y-142900414D02*
X140392856Y-142471842D01*
X140392856Y-142471842D02*
X140464284Y-142328985D01*
X140464284Y-142328985D02*
X140535713Y-142257557D01*
X140535713Y-142257557D02*
X140678570Y-142186128D01*
X140678570Y-142186128D02*
X140964284Y-142186128D01*
X140964284Y-142186128D02*
X141107142Y-142257557D01*
X142464285Y-142186128D02*
X142464285Y-143186128D01*
X141821427Y-142186128D02*
X141821427Y-142971842D01*
X141821427Y-142971842D02*
X141892856Y-143114700D01*
X141892856Y-143114700D02*
X142035713Y-143186128D01*
X142035713Y-143186128D02*
X142249999Y-143186128D01*
X142249999Y-143186128D02*
X142392856Y-143114700D01*
X142392856Y-143114700D02*
X142464285Y-143043271D01*
X143178570Y-143186128D02*
X143178570Y-142186128D01*
X143178570Y-141686128D02*
X143107142Y-141757557D01*
X143107142Y-141757557D02*
X143178570Y-141828985D01*
X143178570Y-141828985D02*
X143249999Y-141757557D01*
X143249999Y-141757557D02*
X143178570Y-141686128D01*
X143178570Y-141686128D02*
X143178570Y-141828985D01*
X143892856Y-142186128D02*
X143892856Y-143186128D01*
X143892856Y-142328985D02*
X143964285Y-142257557D01*
X143964285Y-142257557D02*
X144107142Y-142186128D01*
X144107142Y-142186128D02*
X144321428Y-142186128D01*
X144321428Y-142186128D02*
X144464285Y-142257557D01*
X144464285Y-142257557D02*
X144535714Y-142400414D01*
X144535714Y-142400414D02*
X144535714Y-143186128D01*
X145464285Y-143186128D02*
X145321428Y-143114700D01*
X145321428Y-143114700D02*
X145249999Y-143043271D01*
X145249999Y-143043271D02*
X145178571Y-142900414D01*
X145178571Y-142900414D02*
X145178571Y-142471842D01*
X145178571Y-142471842D02*
X145249999Y-142328985D01*
X145249999Y-142328985D02*
X145321428Y-142257557D01*
X145321428Y-142257557D02*
X145464285Y-142186128D01*
X145464285Y-142186128D02*
X145678571Y-142186128D01*
X145678571Y-142186128D02*
X145821428Y-142257557D01*
X145821428Y-142257557D02*
X145892857Y-142328985D01*
X145892857Y-142328985D02*
X145964285Y-142471842D01*
X145964285Y-142471842D02*
X145964285Y-142900414D01*
X145964285Y-142900414D02*
X145892857Y-143043271D01*
X145892857Y-143043271D02*
X145821428Y-143114700D01*
X145821428Y-143114700D02*
X145678571Y-143186128D01*
X145678571Y-143186128D02*
X145464285Y-143186128D01*
X146250000Y-143328985D02*
X147392857Y-143328985D01*
X147749999Y-143186128D02*
X147749999Y-141686128D01*
X147749999Y-141686128D02*
X148107142Y-141686128D01*
X148107142Y-141686128D02*
X148321428Y-141757557D01*
X148321428Y-141757557D02*
X148464285Y-141900414D01*
X148464285Y-141900414D02*
X148535714Y-142043271D01*
X148535714Y-142043271D02*
X148607142Y-142328985D01*
X148607142Y-142328985D02*
X148607142Y-142543271D01*
X148607142Y-142543271D02*
X148535714Y-142828985D01*
X148535714Y-142828985D02*
X148464285Y-142971842D01*
X148464285Y-142971842D02*
X148321428Y-143114700D01*
X148321428Y-143114700D02*
X148107142Y-143186128D01*
X148107142Y-143186128D02*
X147749999Y-143186128D01*
X149249999Y-143186128D02*
X149249999Y-142186128D01*
X149249999Y-141686128D02*
X149178571Y-141757557D01*
X149178571Y-141757557D02*
X149249999Y-141828985D01*
X149249999Y-141828985D02*
X149321428Y-141757557D01*
X149321428Y-141757557D02*
X149249999Y-141686128D01*
X149249999Y-141686128D02*
X149249999Y-141828985D01*
X150607143Y-142186128D02*
X150607143Y-143400414D01*
X150607143Y-143400414D02*
X150535714Y-143543271D01*
X150535714Y-143543271D02*
X150464285Y-143614700D01*
X150464285Y-143614700D02*
X150321428Y-143686128D01*
X150321428Y-143686128D02*
X150107143Y-143686128D01*
X150107143Y-143686128D02*
X149964285Y-143614700D01*
X150607143Y-143114700D02*
X150464285Y-143186128D01*
X150464285Y-143186128D02*
X150178571Y-143186128D01*
X150178571Y-143186128D02*
X150035714Y-143114700D01*
X150035714Y-143114700D02*
X149964285Y-143043271D01*
X149964285Y-143043271D02*
X149892857Y-142900414D01*
X149892857Y-142900414D02*
X149892857Y-142471842D01*
X149892857Y-142471842D02*
X149964285Y-142328985D01*
X149964285Y-142328985D02*
X150035714Y-142257557D01*
X150035714Y-142257557D02*
X150178571Y-142186128D01*
X150178571Y-142186128D02*
X150464285Y-142186128D01*
X150464285Y-142186128D02*
X150607143Y-142257557D01*
X151321428Y-143186128D02*
X151321428Y-142186128D01*
X151321428Y-141686128D02*
X151250000Y-141757557D01*
X151250000Y-141757557D02*
X151321428Y-141828985D01*
X151321428Y-141828985D02*
X151392857Y-141757557D01*
X151392857Y-141757557D02*
X151321428Y-141686128D01*
X151321428Y-141686128D02*
X151321428Y-141828985D01*
X151821429Y-142186128D02*
X152392857Y-142186128D01*
X152035714Y-141686128D02*
X152035714Y-142971842D01*
X152035714Y-142971842D02*
X152107143Y-143114700D01*
X152107143Y-143114700D02*
X152250000Y-143186128D01*
X152250000Y-143186128D02*
X152392857Y-143186128D01*
X153535715Y-143186128D02*
X153535715Y-142400414D01*
X153535715Y-142400414D02*
X153464286Y-142257557D01*
X153464286Y-142257557D02*
X153321429Y-142186128D01*
X153321429Y-142186128D02*
X153035715Y-142186128D01*
X153035715Y-142186128D02*
X152892857Y-142257557D01*
X153535715Y-143114700D02*
X153392857Y-143186128D01*
X153392857Y-143186128D02*
X153035715Y-143186128D01*
X153035715Y-143186128D02*
X152892857Y-143114700D01*
X152892857Y-143114700D02*
X152821429Y-142971842D01*
X152821429Y-142971842D02*
X152821429Y-142828985D01*
X152821429Y-142828985D02*
X152892857Y-142686128D01*
X152892857Y-142686128D02*
X153035715Y-142614700D01*
X153035715Y-142614700D02*
X153392857Y-142614700D01*
X153392857Y-142614700D02*
X153535715Y-142543271D01*
X154464286Y-143186128D02*
X154321429Y-143114700D01*
X154321429Y-143114700D02*
X154250000Y-142971842D01*
X154250000Y-142971842D02*
X154250000Y-141686128D01*
X156035714Y-142186128D02*
X156392857Y-143186128D01*
X156392857Y-143186128D02*
X156750000Y-142186128D01*
X157321428Y-143043271D02*
X157392857Y-143114700D01*
X157392857Y-143114700D02*
X157321428Y-143186128D01*
X157321428Y-143186128D02*
X157250000Y-143114700D01*
X157250000Y-143114700D02*
X157321428Y-143043271D01*
X157321428Y-143043271D02*
X157321428Y-143186128D01*
X157964286Y-141828985D02*
X158035714Y-141757557D01*
X158035714Y-141757557D02*
X158178572Y-141686128D01*
X158178572Y-141686128D02*
X158535714Y-141686128D01*
X158535714Y-141686128D02*
X158678572Y-141757557D01*
X158678572Y-141757557D02*
X158750000Y-141828985D01*
X158750000Y-141828985D02*
X158821429Y-141971842D01*
X158821429Y-141971842D02*
X158821429Y-142114700D01*
X158821429Y-142114700D02*
X158750000Y-142328985D01*
X158750000Y-142328985D02*
X157892857Y-143186128D01*
X157892857Y-143186128D02*
X158821429Y-143186128D01*
D12*
%TO.C,TP3*%
X105590000Y-150900000D02*
X116490000Y-150900000D01*
X105590000Y-154100000D02*
X105590000Y-150900000D01*
X116490000Y-150900000D02*
X116490000Y-154100000D01*
X116490000Y-154100000D02*
X105590000Y-154100000D01*
%TO.C,TP4*%
X174750000Y-151500000D02*
G75*
G02*
X169250000Y-151500000I-2750000J0D01*
G01*
X169250000Y-151500000D02*
G75*
G02*
X174750000Y-151500000I2750000J0D01*
G01*
%TO.C,TP2*%
X117750000Y-52500000D02*
G75*
G02*
X112250000Y-52500000I-2750000J0D01*
G01*
X112250000Y-52500000D02*
G75*
G02*
X117750000Y-52500000I2750000J0D01*
G01*
%TO.C,JA1*%
X100270000Y-49470000D02*
X101600000Y-49470000D01*
X100270000Y-50800000D02*
X100270000Y-49470000D01*
X100270000Y-52070000D02*
X100270000Y-64830000D01*
X100270000Y-52070000D02*
X102870000Y-52070000D01*
X100270000Y-64830000D02*
X105470000Y-64830000D01*
X102870000Y-49470000D02*
X105470000Y-49470000D01*
X102870000Y-52070000D02*
X102870000Y-49470000D01*
X105470000Y-49470000D02*
X105470000Y-64830000D01*
%TO.C,JC1*%
X100270000Y-95190000D02*
X101600000Y-95190000D01*
X100270000Y-96520000D02*
X100270000Y-95190000D01*
X100270000Y-97790000D02*
X100270000Y-110550000D01*
X100270000Y-97790000D02*
X102870000Y-97790000D01*
X100270000Y-110550000D02*
X105470000Y-110550000D01*
X102870000Y-95190000D02*
X105470000Y-95190000D01*
X102870000Y-97790000D02*
X102870000Y-95190000D01*
X105470000Y-95190000D02*
X105470000Y-110550000D01*
%TO.C,JB1*%
X100270000Y-72330000D02*
X101600000Y-72330000D01*
X100270000Y-73660000D02*
X100270000Y-72330000D01*
X100270000Y-74930000D02*
X100270000Y-87690000D01*
X100270000Y-74930000D02*
X102870000Y-74930000D01*
X100270000Y-87690000D02*
X105470000Y-87690000D01*
X102870000Y-72330000D02*
X105470000Y-72330000D01*
X102870000Y-74930000D02*
X102870000Y-72330000D01*
X105470000Y-72330000D02*
X105470000Y-87690000D01*
%TO.C,TP1*%
X102750000Y-151000000D02*
G75*
G02*
X97250000Y-151000000I-2750000J0D01*
G01*
X97250000Y-151000000D02*
G75*
G02*
X102750000Y-151000000I2750000J0D01*
G01*
%TO.C,JD1*%
X100270000Y-118050000D02*
X101600000Y-118050000D01*
X100270000Y-119380000D02*
X100270000Y-118050000D01*
X100270000Y-120650000D02*
X100270000Y-133410000D01*
X100270000Y-120650000D02*
X102870000Y-120650000D01*
X100270000Y-133410000D02*
X105470000Y-133410000D01*
X102870000Y-118050000D02*
X105470000Y-118050000D01*
X102870000Y-120650000D02*
X102870000Y-118050000D01*
X105470000Y-118050000D02*
X105470000Y-133410000D01*
%TO.C,J1*%
X128845000Y-135830000D02*
X128845000Y-141030000D01*
X172085000Y-135830000D02*
X128845000Y-135830000D01*
X172085000Y-135830000D02*
X172085000Y-138430000D01*
X172085000Y-138430000D02*
X174685000Y-138430000D01*
X173355000Y-135830000D02*
X174685000Y-135830000D01*
X174685000Y-135830000D02*
X174685000Y-137160000D01*
X174685000Y-138430000D02*
X174685000Y-141030000D01*
X174685000Y-141030000D02*
X128845000Y-141030000D01*
%TD*%
M02*
