%TF.GenerationSoftware,KiCad,Pcbnew,8.0.2*%
%TF.CreationDate,2024-05-14T21:46:34+09:00*%
%TF.ProjectId,Gender_A7-100_ArduinoDUE,47656e64-6572-45f4-9137-2d3130305f41,rev?*%
%TF.SameCoordinates,Original*%
%TF.FileFunction,Copper,L2,Bot*%
%TF.FilePolarity,Positive*%
%FSLAX46Y46*%
G04 Gerber Fmt 4.6, Leading zero omitted, Abs format (unit mm)*
G04 Created by KiCad (PCBNEW 8.0.2) date 2024-05-14 21:46:34*
%MOMM*%
%LPD*%
G01*
G04 APERTURE LIST*
%TA.AperFunction,ComponentPad*%
%ADD10C,5.000000*%
%TD*%
%TA.AperFunction,ComponentPad*%
%ADD11C,2.600000*%
%TD*%
%TA.AperFunction,ComponentPad*%
%ADD12R,1.700000X1.700000*%
%TD*%
%TA.AperFunction,ComponentPad*%
%ADD13O,1.700000X1.700000*%
%TD*%
%TA.AperFunction,Conductor*%
%ADD14C,0.300000*%
%TD*%
G04 APERTURE END LIST*
D10*
%TO.P,TP1,1,1*%
%TO.N,GND*%
X98425000Y-146050000D03*
%TD*%
D11*
%TO.P,TP3,1,1*%
%TO.N,GND*%
X122555000Y-138430000D03*
X114935000Y-138430000D03*
%TD*%
D10*
%TO.P,TP2,1,1*%
%TO.N,GND*%
X114300000Y-53340000D03*
%TD*%
D12*
%TO.P,JA1,1,Pin_1*%
%TO.N,Net-(J1-Pin_33)*%
X101600000Y-50800000D03*
D13*
%TO.P,JA1,2,Pin_2*%
%TO.N,Net-(J1-Pin_34)*%
X104140000Y-50800000D03*
%TO.P,JA1,3,Pin_3*%
%TO.N,Net-(J1-Pin_31)*%
X101600000Y-53340000D03*
%TO.P,JA1,4,Pin_4*%
%TO.N,Net-(J1-Pin_32)*%
X104140000Y-53340000D03*
%TO.P,JA1,5,Pin_5*%
%TO.N,Net-(J1-Pin_29)*%
X101600000Y-55880000D03*
%TO.P,JA1,6,Pin_6*%
%TO.N,Net-(J1-Pin_30)*%
X104140000Y-55880000D03*
%TO.P,JA1,7,Pin_7*%
%TO.N,Net-(J1-Pin_27)*%
X101600000Y-58420000D03*
%TO.P,JA1,8,Pin_8*%
%TO.N,Net-(J1-Pin_28)*%
X104140000Y-58420000D03*
%TO.P,JA1,9,Pin_9*%
%TO.N,GND*%
X101600000Y-60960000D03*
%TO.P,JA1,10,Pin_10*%
X104140000Y-60960000D03*
%TO.P,JA1,11,Pin_11*%
%TO.N,unconnected-(JA1-Pin_11-Pad11)*%
X101600000Y-63500000D03*
%TO.P,JA1,12,Pin_12*%
%TO.N,unconnected-(JA1-Pin_12-Pad12)*%
X104140000Y-63500000D03*
%TD*%
D12*
%TO.P,JC1,1,Pin_1*%
%TO.N,Net-(J1-Pin_17)*%
X101600000Y-96520000D03*
D13*
%TO.P,JC1,2,Pin_2*%
%TO.N,Net-(J1-Pin_18)*%
X104140000Y-96520000D03*
%TO.P,JC1,3,Pin_3*%
%TO.N,Net-(J1-Pin_15)*%
X101600000Y-99060000D03*
%TO.P,JC1,4,Pin_4*%
%TO.N,Net-(J1-Pin_16)*%
X104140000Y-99060000D03*
%TO.P,JC1,5,Pin_5*%
%TO.N,Net-(J1-Pin_13)*%
X101600000Y-101600000D03*
%TO.P,JC1,6,Pin_6*%
%TO.N,Net-(J1-Pin_14)*%
X104140000Y-101600000D03*
%TO.P,JC1,7,Pin_7*%
%TO.N,Net-(J1-Pin_11)*%
X101600000Y-104140000D03*
%TO.P,JC1,8,Pin_8*%
%TO.N,Net-(J1-Pin_12)*%
X104140000Y-104140000D03*
%TO.P,JC1,9,Pin_9*%
%TO.N,GND*%
X101600000Y-106680000D03*
%TO.P,JC1,10,Pin_10*%
X104140000Y-106680000D03*
%TO.P,JC1,11,Pin_11*%
%TO.N,unconnected-(JC1-Pin_11-Pad11)*%
X101600000Y-109220000D03*
%TO.P,JC1,12,Pin_12*%
%TO.N,unconnected-(JC1-Pin_12-Pad12)*%
X104140000Y-109220000D03*
%TD*%
D12*
%TO.P,JB1,1,Pin_1*%
%TO.N,Net-(J1-Pin_25)*%
X101600000Y-73660000D03*
D13*
%TO.P,JB1,2,Pin_2*%
%TO.N,Net-(J1-Pin_26)*%
X104140000Y-73660000D03*
%TO.P,JB1,3,Pin_3*%
%TO.N,Net-(J1-Pin_23)*%
X101600000Y-76200000D03*
%TO.P,JB1,4,Pin_4*%
%TO.N,Net-(J1-Pin_24)*%
X104140000Y-76200000D03*
%TO.P,JB1,5,Pin_5*%
%TO.N,Net-(J1-Pin_21)*%
X101600000Y-78740000D03*
%TO.P,JB1,6,Pin_6*%
%TO.N,Net-(J1-Pin_22)*%
X104140000Y-78740000D03*
%TO.P,JB1,7,Pin_7*%
%TO.N,Net-(J1-Pin_19)*%
X101600000Y-81280000D03*
%TO.P,JB1,8,Pin_8*%
%TO.N,Net-(J1-Pin_20)*%
X104140000Y-81280000D03*
%TO.P,JB1,9,Pin_9*%
%TO.N,GND*%
X101600000Y-83820000D03*
%TO.P,JB1,10,Pin_10*%
X104140000Y-83820000D03*
%TO.P,JB1,11,Pin_11*%
%TO.N,unconnected-(JB1-Pin_11-Pad11)*%
X101600000Y-86360000D03*
%TO.P,JB1,12,Pin_12*%
%TO.N,unconnected-(JB1-Pin_12-Pad12)*%
X104140000Y-86360000D03*
%TD*%
D12*
%TO.P,JD1,1,Pin_1*%
%TO.N,Net-(J1-Pin_9)*%
X101600000Y-119380000D03*
D13*
%TO.P,JD1,2,Pin_2*%
%TO.N,Net-(J1-Pin_10)*%
X104140000Y-119380000D03*
%TO.P,JD1,3,Pin_3*%
%TO.N,Net-(J1-Pin_7)*%
X101600000Y-121920000D03*
%TO.P,JD1,4,Pin_4*%
%TO.N,Net-(J1-Pin_8)*%
X104140000Y-121920000D03*
%TO.P,JD1,5,Pin_5*%
%TO.N,Net-(J1-Pin_5)*%
X101600000Y-124460000D03*
%TO.P,JD1,6,Pin_6*%
%TO.N,Net-(J1-Pin_6)*%
X104140000Y-124460000D03*
%TO.P,JD1,7,Pin_7*%
%TO.N,Net-(J1-Pin_3)*%
X101600000Y-127000000D03*
%TO.P,JD1,8,Pin_8*%
%TO.N,Net-(J1-Pin_4)*%
X104140000Y-127000000D03*
%TO.P,JD1,9,Pin_9*%
%TO.N,GND*%
X101600000Y-129540000D03*
%TO.P,JD1,10,Pin_10*%
X104140000Y-129540000D03*
%TO.P,JD1,11,Pin_11*%
%TO.N,unconnected-(JD1-Pin_11-Pad11)*%
X101600000Y-132080000D03*
%TO.P,JD1,12,Pin_12*%
%TO.N,unconnected-(JD1-Pin_12-Pad12)*%
X104140000Y-132080000D03*
%TD*%
D12*
%TO.P,J1,1,Pin_1*%
%TO.N,unconnected-(J1-Pin_1-Pad1)*%
X173355000Y-137160000D03*
D13*
%TO.P,J1,2,Pin_2*%
%TO.N,unconnected-(J1-Pin_2-Pad2)*%
X173355000Y-139700000D03*
%TO.P,J1,3,Pin_3*%
%TO.N,Net-(J1-Pin_3)*%
X170815000Y-137160000D03*
%TO.P,J1,4,Pin_4*%
%TO.N,Net-(J1-Pin_4)*%
X170815000Y-139700000D03*
%TO.P,J1,5,Pin_5*%
%TO.N,Net-(J1-Pin_5)*%
X168275000Y-137160000D03*
%TO.P,J1,6,Pin_6*%
%TO.N,Net-(J1-Pin_6)*%
X168275000Y-139700000D03*
%TO.P,J1,7,Pin_7*%
%TO.N,Net-(J1-Pin_7)*%
X165735000Y-137160000D03*
%TO.P,J1,8,Pin_8*%
%TO.N,Net-(J1-Pin_8)*%
X165735000Y-139700000D03*
%TO.P,J1,9,Pin_9*%
%TO.N,Net-(J1-Pin_9)*%
X163195000Y-137160000D03*
%TO.P,J1,10,Pin_10*%
%TO.N,Net-(J1-Pin_10)*%
X163195000Y-139700000D03*
%TO.P,J1,11,Pin_11*%
%TO.N,Net-(J1-Pin_11)*%
X160655000Y-137160000D03*
%TO.P,J1,12,Pin_12*%
%TO.N,Net-(J1-Pin_12)*%
X160655000Y-139700000D03*
%TO.P,J1,13,Pin_13*%
%TO.N,Net-(J1-Pin_13)*%
X158115000Y-137160000D03*
%TO.P,J1,14,Pin_14*%
%TO.N,Net-(J1-Pin_14)*%
X158115000Y-139700000D03*
%TO.P,J1,15,Pin_15*%
%TO.N,Net-(J1-Pin_15)*%
X155575000Y-137160000D03*
%TO.P,J1,16,Pin_16*%
%TO.N,Net-(J1-Pin_16)*%
X155575000Y-139700000D03*
%TO.P,J1,17,Pin_17*%
%TO.N,Net-(J1-Pin_17)*%
X153035000Y-137160000D03*
%TO.P,J1,18,Pin_18*%
%TO.N,Net-(J1-Pin_18)*%
X153035000Y-139700000D03*
%TO.P,J1,19,Pin_19*%
%TO.N,Net-(J1-Pin_19)*%
X150495000Y-137160000D03*
%TO.P,J1,20,Pin_20*%
%TO.N,Net-(J1-Pin_20)*%
X150495000Y-139700000D03*
%TO.P,J1,21,Pin_21*%
%TO.N,Net-(J1-Pin_21)*%
X147955000Y-137160000D03*
%TO.P,J1,22,Pin_22*%
%TO.N,Net-(J1-Pin_22)*%
X147955000Y-139700000D03*
%TO.P,J1,23,Pin_23*%
%TO.N,Net-(J1-Pin_23)*%
X145415000Y-137160000D03*
%TO.P,J1,24,Pin_24*%
%TO.N,Net-(J1-Pin_24)*%
X145415000Y-139700000D03*
%TO.P,J1,25,Pin_25*%
%TO.N,Net-(J1-Pin_25)*%
X142875000Y-137160000D03*
%TO.P,J1,26,Pin_26*%
%TO.N,Net-(J1-Pin_26)*%
X142875000Y-139700000D03*
%TO.P,J1,27,Pin_27*%
%TO.N,Net-(J1-Pin_27)*%
X140335000Y-137160000D03*
%TO.P,J1,28,Pin_28*%
%TO.N,Net-(J1-Pin_28)*%
X140335000Y-139700000D03*
%TO.P,J1,29,Pin_29*%
%TO.N,Net-(J1-Pin_29)*%
X137795000Y-137160000D03*
%TO.P,J1,30,Pin_30*%
%TO.N,Net-(J1-Pin_30)*%
X137795000Y-139700000D03*
%TO.P,J1,31,Pin_31*%
%TO.N,Net-(J1-Pin_31)*%
X135255000Y-137160000D03*
%TO.P,J1,32,Pin_32*%
%TO.N,Net-(J1-Pin_32)*%
X135255000Y-139700000D03*
%TO.P,J1,33,Pin_33*%
%TO.N,Net-(J1-Pin_33)*%
X132715000Y-137160000D03*
%TO.P,J1,34,Pin_34*%
%TO.N,Net-(J1-Pin_34)*%
X132715000Y-139700000D03*
%TO.P,J1,35,Pin_35*%
%TO.N,GND*%
X130175000Y-137160000D03*
%TO.P,J1,36,Pin_36*%
X130175000Y-139700000D03*
%TD*%
D14*
%TO.N,Net-(J1-Pin_29)*%
X137795000Y-134620000D02*
X137795000Y-137160000D01*
X116205000Y-126365000D02*
X120650000Y-130810000D01*
X120650000Y-130810000D02*
X133985000Y-130810000D01*
X116205000Y-74930000D02*
X116205000Y-126365000D01*
X109220000Y-67945000D02*
X116205000Y-74930000D01*
X97790000Y-66040000D02*
X99695000Y-67945000D01*
X99695000Y-67945000D02*
X109220000Y-67945000D01*
X97790000Y-57785000D02*
X97790000Y-66040000D01*
X101600000Y-55880000D02*
X99695000Y-55880000D01*
X133985000Y-130810000D02*
X137795000Y-134620000D01*
X99695000Y-55880000D02*
X97790000Y-57785000D01*
%TO.N,Net-(J1-Pin_30)*%
X136525000Y-138430000D02*
X137795000Y-139700000D01*
X136525000Y-134620000D02*
X136525000Y-138430000D01*
X133350000Y-131445000D02*
X136525000Y-134620000D01*
X120015000Y-131445000D02*
X133350000Y-131445000D01*
X115570000Y-127000000D02*
X120015000Y-131445000D01*
X115570000Y-75565000D02*
X115570000Y-127000000D01*
X108585000Y-68580000D02*
X115570000Y-75565000D01*
X99060000Y-68580000D02*
X108585000Y-68580000D01*
X97155000Y-57150000D02*
X97155000Y-66675000D01*
X99695000Y-54610000D02*
X97155000Y-57150000D01*
X97155000Y-66675000D02*
X99060000Y-68580000D01*
X102870000Y-54610000D02*
X99695000Y-54610000D01*
X104140000Y-55880000D02*
X102870000Y-54610000D01*
%TO.N,Net-(J1-Pin_31)*%
X135255000Y-134620000D02*
X135255000Y-137160000D01*
X132715000Y-132080000D02*
X135255000Y-134620000D01*
X114935000Y-127635000D02*
X119380000Y-132080000D01*
X119380000Y-132080000D02*
X132715000Y-132080000D01*
X107950000Y-69215000D02*
X114935000Y-76200000D01*
X114935000Y-76200000D02*
X114935000Y-127635000D01*
X98425000Y-69215000D02*
X107950000Y-69215000D01*
X96520000Y-67310000D02*
X98425000Y-69215000D01*
X96520000Y-56515000D02*
X96520000Y-67310000D01*
X101600000Y-53340000D02*
X99695000Y-53340000D01*
X99695000Y-53340000D02*
X96520000Y-56515000D01*
%TO.N,Net-(J1-Pin_32)*%
X133985000Y-138430000D02*
X135255000Y-139700000D01*
X133985000Y-134620000D02*
X133985000Y-138430000D01*
X132080000Y-132715000D02*
X133985000Y-134620000D01*
X118745000Y-132715000D02*
X132080000Y-132715000D01*
X114300000Y-128270000D02*
X118745000Y-132715000D01*
X97790000Y-69850000D02*
X107315000Y-69850000D01*
X95885000Y-67945000D02*
X97790000Y-69850000D01*
X107315000Y-69850000D02*
X114300000Y-76835000D01*
X95885000Y-55880000D02*
X95885000Y-67945000D01*
X114300000Y-76835000D02*
X114300000Y-128270000D01*
X99695000Y-52070000D02*
X95885000Y-55880000D01*
X102870000Y-52070000D02*
X99695000Y-52070000D01*
X104140000Y-53340000D02*
X102870000Y-52070000D01*
%TO.N,Net-(J1-Pin_33)*%
X118110000Y-133350000D02*
X131445000Y-133350000D01*
X113665000Y-128905000D02*
X118110000Y-133350000D01*
X97155000Y-70485000D02*
X106680000Y-70485000D01*
X95250000Y-68580000D02*
X97155000Y-70485000D01*
X131445000Y-133350000D02*
X132715000Y-134620000D01*
X95250000Y-55245000D02*
X95250000Y-68580000D01*
X106680000Y-70485000D02*
X113665000Y-77470000D01*
X99695000Y-50800000D02*
X95250000Y-55245000D01*
X101600000Y-50800000D02*
X99695000Y-50800000D01*
X132715000Y-134620000D02*
X132715000Y-137160000D01*
X113665000Y-77470000D02*
X113665000Y-128905000D01*
%TO.N,Net-(J1-Pin_34)*%
X131445000Y-134620000D02*
X131445000Y-138430000D01*
X130810000Y-133985000D02*
X131445000Y-134620000D01*
X117475000Y-133985000D02*
X130810000Y-133985000D01*
X113030000Y-129540000D02*
X117475000Y-133985000D01*
X106045000Y-71120000D02*
X113030000Y-78105000D01*
X96520000Y-71120000D02*
X106045000Y-71120000D01*
X94615000Y-69215000D02*
X96520000Y-71120000D01*
X94615000Y-54610000D02*
X94615000Y-69215000D01*
X131445000Y-138430000D02*
X132715000Y-139700000D01*
X99695000Y-49530000D02*
X94615000Y-54610000D01*
X102870000Y-49530000D02*
X99695000Y-49530000D01*
X113030000Y-78105000D02*
X113030000Y-129540000D01*
X104140000Y-50800000D02*
X102870000Y-49530000D01*
%TO.N,Net-(J1-Pin_27)*%
X140335000Y-134620000D02*
X140335000Y-137160000D01*
X135255000Y-129540000D02*
X140335000Y-134620000D01*
X121920000Y-129540000D02*
X135255000Y-129540000D01*
X117475000Y-73660000D02*
X117475000Y-125095000D01*
X99060000Y-64770000D02*
X100965000Y-66675000D01*
X117475000Y-125095000D02*
X121920000Y-129540000D01*
X99060000Y-59055000D02*
X99060000Y-64770000D01*
X100965000Y-66675000D02*
X110490000Y-66675000D01*
X110490000Y-66675000D02*
X117475000Y-73660000D01*
X99695000Y-58420000D02*
X99060000Y-59055000D01*
X101600000Y-58420000D02*
X99695000Y-58420000D01*
%TO.N,Net-(J1-Pin_18)*%
X106045000Y-96520000D02*
X104140000Y-96520000D01*
X114300000Y-143510000D02*
X110490000Y-139700000D01*
X110490000Y-139700000D02*
X110490000Y-100965000D01*
X151130000Y-143510000D02*
X114300000Y-143510000D01*
X153035000Y-141605000D02*
X151130000Y-143510000D01*
X110490000Y-100965000D02*
X106045000Y-96520000D01*
X153035000Y-139700000D02*
X153035000Y-141605000D01*
%TO.N,Net-(J1-Pin_17)*%
X102870000Y-97790000D02*
X101600000Y-96520000D01*
X106045000Y-97790000D02*
X102870000Y-97790000D01*
X109855000Y-101600000D02*
X106045000Y-97790000D01*
X109855000Y-140335000D02*
X109855000Y-101600000D01*
X154305000Y-141605000D02*
X151765000Y-144145000D01*
X151765000Y-144145000D02*
X113665000Y-144145000D01*
X113665000Y-144145000D02*
X109855000Y-140335000D01*
X154305000Y-138430000D02*
X154305000Y-141605000D01*
X153035000Y-137160000D02*
X154305000Y-138430000D01*
%TO.N,Net-(J1-Pin_15)*%
X102870000Y-100330000D02*
X101600000Y-99060000D01*
X106045000Y-100330000D02*
X102870000Y-100330000D01*
X108585000Y-102870000D02*
X106045000Y-100330000D01*
X112395000Y-145415000D02*
X108585000Y-141605000D01*
X108585000Y-141605000D02*
X108585000Y-102870000D01*
X153035000Y-145415000D02*
X112395000Y-145415000D01*
X156845000Y-138430000D02*
X156845000Y-141605000D01*
X156845000Y-141605000D02*
X153035000Y-145415000D01*
X155575000Y-137160000D02*
X156845000Y-138430000D01*
%TO.N,Net-(J1-Pin_16)*%
X106045000Y-99060000D02*
X104140000Y-99060000D01*
X109220000Y-102235000D02*
X106045000Y-99060000D01*
X152400000Y-144780000D02*
X113030000Y-144780000D01*
X113030000Y-144780000D02*
X109220000Y-140970000D01*
X109220000Y-140970000D02*
X109220000Y-102235000D01*
X155575000Y-139700000D02*
X155575000Y-141605000D01*
X155575000Y-141605000D02*
X152400000Y-144780000D01*
%TO.N,Net-(J1-Pin_14)*%
X107950000Y-103505000D02*
X106045000Y-101600000D01*
X107950000Y-142240000D02*
X107950000Y-103505000D01*
X153670000Y-146050000D02*
X111760000Y-146050000D01*
X111760000Y-146050000D02*
X107950000Y-142240000D01*
X158115000Y-141605000D02*
X153670000Y-146050000D01*
X158115000Y-139700000D02*
X158115000Y-141605000D01*
X106045000Y-101600000D02*
X104140000Y-101600000D01*
%TO.N,Net-(J1-Pin_13)*%
X102870000Y-102870000D02*
X101600000Y-101600000D01*
X107315000Y-104140000D02*
X106045000Y-102870000D01*
X159385000Y-141605000D02*
X154305000Y-146685000D01*
X154305000Y-146685000D02*
X111125000Y-146685000D01*
X111125000Y-146685000D02*
X107315000Y-142875000D01*
X159385000Y-138430000D02*
X159385000Y-141605000D01*
X158115000Y-137160000D02*
X159385000Y-138430000D01*
X107315000Y-142875000D02*
X107315000Y-104140000D01*
X106045000Y-102870000D02*
X102870000Y-102870000D01*
%TO.N,Net-(J1-Pin_12)*%
X160655000Y-141605000D02*
X160655000Y-139700000D01*
X98425000Y-137795000D02*
X107950000Y-147320000D01*
X98425000Y-106680000D02*
X98425000Y-137795000D01*
X102870000Y-105410000D02*
X99695000Y-105410000D01*
X99695000Y-105410000D02*
X98425000Y-106680000D01*
X107950000Y-147320000D02*
X154940000Y-147320000D01*
X104140000Y-104140000D02*
X102870000Y-105410000D01*
X154940000Y-147320000D02*
X160655000Y-141605000D01*
%TO.N,Net-(J1-Pin_11)*%
X161925000Y-141605000D02*
X161925000Y-138430000D01*
X107315000Y-147955000D02*
X155575000Y-147955000D01*
X97790000Y-106045000D02*
X97790000Y-138430000D01*
X99695000Y-104140000D02*
X97790000Y-106045000D01*
X97790000Y-138430000D02*
X107315000Y-147955000D01*
X155575000Y-147955000D02*
X161925000Y-141605000D01*
X161925000Y-138430000D02*
X160655000Y-137160000D01*
X101600000Y-104140000D02*
X99695000Y-104140000D01*
%TO.N,Net-(J1-Pin_28)*%
X139065000Y-138430000D02*
X140335000Y-139700000D01*
X139065000Y-134620000D02*
X139065000Y-138430000D01*
X134620000Y-130175000D02*
X139065000Y-134620000D01*
X121285000Y-130175000D02*
X134620000Y-130175000D01*
X116840000Y-125730000D02*
X121285000Y-130175000D01*
X109855000Y-67310000D02*
X116840000Y-74295000D01*
X98425000Y-58420000D02*
X98425000Y-65405000D01*
X99695000Y-57150000D02*
X98425000Y-58420000D01*
X102870000Y-57150000D02*
X99695000Y-57150000D01*
X98425000Y-65405000D02*
X100330000Y-67310000D01*
X116840000Y-74295000D02*
X116840000Y-125730000D01*
X104140000Y-58420000D02*
X102870000Y-57150000D01*
X100330000Y-67310000D02*
X109855000Y-67310000D01*
%TD*%
%TA.AperFunction,Conductor*%
%TO.N,GND*%
G36*
X103674075Y-129347007D02*
G01*
X103640000Y-129474174D01*
X103640000Y-129605826D01*
X103674075Y-129732993D01*
X103706988Y-129790000D01*
X102033012Y-129790000D01*
X102065925Y-129732993D01*
X102100000Y-129605826D01*
X102100000Y-129474174D01*
X102065925Y-129347007D01*
X102033012Y-129290000D01*
X103706988Y-129290000D01*
X103674075Y-129347007D01*
G37*
%TD.AperFunction*%
%TA.AperFunction,Conductor*%
G36*
X105791231Y-103540185D02*
G01*
X105811873Y-103556819D01*
X106628181Y-104373126D01*
X106661666Y-104434449D01*
X106664500Y-104460807D01*
X106664500Y-142939070D01*
X106677560Y-143004723D01*
X106677560Y-143004725D01*
X106689497Y-143064736D01*
X106689499Y-143064744D01*
X106738534Y-143183125D01*
X106809726Y-143289673D01*
X106809727Y-143289674D01*
X109977873Y-146457819D01*
X110011358Y-146519142D01*
X110006374Y-146588834D01*
X109964502Y-146644767D01*
X109899038Y-146669184D01*
X109890192Y-146669500D01*
X108270807Y-146669500D01*
X108203768Y-146649815D01*
X108183126Y-146633181D01*
X99111819Y-137561873D01*
X99078334Y-137500550D01*
X99075500Y-137474192D01*
X99075500Y-121919999D01*
X100244341Y-121919999D01*
X100244341Y-121920000D01*
X100264936Y-122155403D01*
X100264938Y-122155413D01*
X100326094Y-122383655D01*
X100326096Y-122383659D01*
X100326097Y-122383663D01*
X100330000Y-122392032D01*
X100425965Y-122597830D01*
X100425967Y-122597834D01*
X100534281Y-122752521D01*
X100561501Y-122791396D01*
X100561506Y-122791402D01*
X100728597Y-122958493D01*
X100728603Y-122958498D01*
X100914158Y-123088425D01*
X100957783Y-123143002D01*
X100964977Y-123212500D01*
X100933454Y-123274855D01*
X100914158Y-123291575D01*
X100728597Y-123421505D01*
X100561505Y-123588597D01*
X100425965Y-123782169D01*
X100425964Y-123782171D01*
X100326098Y-123996335D01*
X100326094Y-123996344D01*
X100264938Y-124224586D01*
X100264936Y-124224596D01*
X100244341Y-124459999D01*
X100244341Y-124460000D01*
X100264936Y-124695403D01*
X100264938Y-124695413D01*
X100326094Y-124923655D01*
X100326096Y-124923659D01*
X100326097Y-124923663D01*
X100330000Y-124932032D01*
X100425965Y-125137830D01*
X100425967Y-125137834D01*
X100534281Y-125292521D01*
X100561501Y-125331396D01*
X100561506Y-125331402D01*
X100728597Y-125498493D01*
X100728603Y-125498498D01*
X100914158Y-125628425D01*
X100957783Y-125683002D01*
X100964977Y-125752500D01*
X100933454Y-125814855D01*
X100914158Y-125831575D01*
X100728597Y-125961505D01*
X100561505Y-126128597D01*
X100425965Y-126322169D01*
X100425964Y-126322171D01*
X100326098Y-126536335D01*
X100326094Y-126536344D01*
X100264938Y-126764586D01*
X100264936Y-126764596D01*
X100244341Y-126999999D01*
X100244341Y-127000000D01*
X100264936Y-127235403D01*
X100264938Y-127235413D01*
X100326094Y-127463655D01*
X100326096Y-127463659D01*
X100326097Y-127463663D01*
X100405993Y-127635000D01*
X100425965Y-127677830D01*
X100425967Y-127677834D01*
X100446732Y-127707489D01*
X100561501Y-127871396D01*
X100561506Y-127871402D01*
X100728597Y-128038493D01*
X100728603Y-128038498D01*
X100914594Y-128168730D01*
X100958219Y-128223307D01*
X100965413Y-128292805D01*
X100933890Y-128355160D01*
X100914595Y-128371880D01*
X100728922Y-128501890D01*
X100728920Y-128501891D01*
X100561891Y-128668920D01*
X100561886Y-128668926D01*
X100426400Y-128862420D01*
X100426399Y-128862422D01*
X100326570Y-129076507D01*
X100326567Y-129076513D01*
X100269364Y-129289999D01*
X100269364Y-129290000D01*
X101166988Y-129290000D01*
X101134075Y-129347007D01*
X101100000Y-129474174D01*
X101100000Y-129605826D01*
X101134075Y-129732993D01*
X101166988Y-129790000D01*
X100269364Y-129790000D01*
X100326567Y-130003486D01*
X100326570Y-130003492D01*
X100426399Y-130217578D01*
X100561894Y-130411082D01*
X100728917Y-130578105D01*
X100914595Y-130708119D01*
X100958219Y-130762696D01*
X100965412Y-130832195D01*
X100933890Y-130894549D01*
X100914595Y-130911269D01*
X100728594Y-131041508D01*
X100561505Y-131208597D01*
X100425965Y-131402169D01*
X100425964Y-131402171D01*
X100326098Y-131616335D01*
X100326094Y-131616344D01*
X100264938Y-131844586D01*
X100264936Y-131844596D01*
X100244341Y-132079999D01*
X100244341Y-132080000D01*
X100264936Y-132315403D01*
X100264938Y-132315413D01*
X100326094Y-132543655D01*
X100326096Y-132543659D01*
X100326097Y-132543663D01*
X100330000Y-132552032D01*
X100425965Y-132757830D01*
X100425967Y-132757834D01*
X100534281Y-132912521D01*
X100561505Y-132951401D01*
X100728599Y-133118495D01*
X100825384Y-133186265D01*
X100922165Y-133254032D01*
X100922167Y-133254033D01*
X100922170Y-133254035D01*
X101136337Y-133353903D01*
X101364592Y-133415063D01*
X101552918Y-133431539D01*
X101599999Y-133435659D01*
X101600000Y-133435659D01*
X101600001Y-133435659D01*
X101639234Y-133432226D01*
X101835408Y-133415063D01*
X102063663Y-133353903D01*
X102277830Y-133254035D01*
X102471401Y-133118495D01*
X102638495Y-132951401D01*
X102768425Y-132765842D01*
X102823002Y-132722217D01*
X102892500Y-132715023D01*
X102954855Y-132746546D01*
X102971575Y-132765842D01*
X103101500Y-132951395D01*
X103101505Y-132951401D01*
X103268599Y-133118495D01*
X103365384Y-133186265D01*
X103462165Y-133254032D01*
X103462167Y-133254033D01*
X103462170Y-133254035D01*
X103676337Y-133353903D01*
X103904592Y-133415063D01*
X104092918Y-133431539D01*
X104139999Y-133435659D01*
X104140000Y-133435659D01*
X104140001Y-133435659D01*
X104179234Y-133432226D01*
X104375408Y-133415063D01*
X104603663Y-133353903D01*
X104817830Y-133254035D01*
X105011401Y-133118495D01*
X105178495Y-132951401D01*
X105314035Y-132757830D01*
X105413903Y-132543663D01*
X105475063Y-132315408D01*
X105495659Y-132080000D01*
X105475063Y-131844592D01*
X105413903Y-131616337D01*
X105314035Y-131402171D01*
X105308425Y-131394158D01*
X105178494Y-131208597D01*
X105011402Y-131041506D01*
X105011401Y-131041505D01*
X104825405Y-130911269D01*
X104781781Y-130856692D01*
X104774588Y-130787193D01*
X104806110Y-130724839D01*
X104825405Y-130708119D01*
X105011082Y-130578105D01*
X105178105Y-130411082D01*
X105313600Y-130217578D01*
X105413429Y-130003492D01*
X105413432Y-130003486D01*
X105470636Y-129790000D01*
X104573012Y-129790000D01*
X104605925Y-129732993D01*
X104640000Y-129605826D01*
X104640000Y-129474174D01*
X104605925Y-129347007D01*
X104573012Y-129290000D01*
X105470636Y-129290000D01*
X105470635Y-129289999D01*
X105413432Y-129076513D01*
X105413429Y-129076507D01*
X105313600Y-128862422D01*
X105313599Y-128862420D01*
X105178113Y-128668926D01*
X105178108Y-128668920D01*
X105011078Y-128501890D01*
X104825405Y-128371879D01*
X104781780Y-128317302D01*
X104774588Y-128247804D01*
X104806110Y-128185449D01*
X104825406Y-128168730D01*
X105011401Y-128038495D01*
X105178495Y-127871401D01*
X105314035Y-127677830D01*
X105413903Y-127463663D01*
X105475063Y-127235408D01*
X105495659Y-127000000D01*
X105475063Y-126764592D01*
X105413903Y-126536337D01*
X105314035Y-126322171D01*
X105308425Y-126314158D01*
X105178494Y-126128597D01*
X105011402Y-125961506D01*
X105011396Y-125961501D01*
X104825842Y-125831575D01*
X104782217Y-125776998D01*
X104775023Y-125707500D01*
X104806546Y-125645145D01*
X104825842Y-125628425D01*
X104848026Y-125612891D01*
X105011401Y-125498495D01*
X105178495Y-125331401D01*
X105314035Y-125137830D01*
X105413903Y-124923663D01*
X105475063Y-124695408D01*
X105495659Y-124460000D01*
X105475063Y-124224592D01*
X105413903Y-123996337D01*
X105314035Y-123782171D01*
X105308425Y-123774158D01*
X105178494Y-123588597D01*
X105011402Y-123421506D01*
X105011396Y-123421501D01*
X104825842Y-123291575D01*
X104782217Y-123236998D01*
X104775023Y-123167500D01*
X104806546Y-123105145D01*
X104825842Y-123088425D01*
X104848026Y-123072891D01*
X105011401Y-122958495D01*
X105178495Y-122791401D01*
X105314035Y-122597830D01*
X105413903Y-122383663D01*
X105475063Y-122155408D01*
X105495659Y-121920000D01*
X105475063Y-121684592D01*
X105413903Y-121456337D01*
X105314035Y-121242171D01*
X105308425Y-121234158D01*
X105178494Y-121048597D01*
X105011402Y-120881506D01*
X105011396Y-120881501D01*
X104825842Y-120751575D01*
X104782217Y-120696998D01*
X104775023Y-120627500D01*
X104806546Y-120565145D01*
X104825842Y-120548425D01*
X104848026Y-120532891D01*
X105011401Y-120418495D01*
X105178495Y-120251401D01*
X105314035Y-120057830D01*
X105413903Y-119843663D01*
X105475063Y-119615408D01*
X105495659Y-119380000D01*
X105475063Y-119144592D01*
X105413903Y-118916337D01*
X105314035Y-118702171D01*
X105178495Y-118508599D01*
X105178494Y-118508597D01*
X105011402Y-118341506D01*
X105011395Y-118341501D01*
X104817834Y-118205967D01*
X104817830Y-118205965D01*
X104817828Y-118205964D01*
X104603663Y-118106097D01*
X104603659Y-118106096D01*
X104603655Y-118106094D01*
X104375413Y-118044938D01*
X104375403Y-118044936D01*
X104140001Y-118024341D01*
X104139999Y-118024341D01*
X103904596Y-118044936D01*
X103904586Y-118044938D01*
X103676344Y-118106094D01*
X103676335Y-118106098D01*
X103462171Y-118205964D01*
X103462169Y-118205965D01*
X103268600Y-118341503D01*
X103146673Y-118463430D01*
X103085350Y-118496914D01*
X103015658Y-118491930D01*
X102959725Y-118450058D01*
X102942810Y-118419081D01*
X102893797Y-118287671D01*
X102893793Y-118287664D01*
X102807547Y-118172455D01*
X102807544Y-118172452D01*
X102692335Y-118086206D01*
X102692328Y-118086202D01*
X102557482Y-118035908D01*
X102557483Y-118035908D01*
X102497883Y-118029501D01*
X102497881Y-118029500D01*
X102497873Y-118029500D01*
X102497864Y-118029500D01*
X100702129Y-118029500D01*
X100702123Y-118029501D01*
X100642516Y-118035908D01*
X100507671Y-118086202D01*
X100507664Y-118086206D01*
X100392455Y-118172452D01*
X100392452Y-118172455D01*
X100306206Y-118287664D01*
X100306202Y-118287671D01*
X100255908Y-118422517D01*
X100249501Y-118482116D01*
X100249500Y-118482135D01*
X100249500Y-120277870D01*
X100249501Y-120277876D01*
X100255908Y-120337483D01*
X100306202Y-120472328D01*
X100306206Y-120472335D01*
X100392452Y-120587544D01*
X100392455Y-120587547D01*
X100507664Y-120673793D01*
X100507671Y-120673797D01*
X100639081Y-120722810D01*
X100695015Y-120764681D01*
X100719432Y-120830145D01*
X100704580Y-120898418D01*
X100683430Y-120926673D01*
X100561503Y-121048600D01*
X100425965Y-121242169D01*
X100425964Y-121242171D01*
X100326098Y-121456335D01*
X100326094Y-121456344D01*
X100264938Y-121684586D01*
X100264936Y-121684596D01*
X100244341Y-121919999D01*
X99075500Y-121919999D01*
X99075500Y-107000807D01*
X99095185Y-106933768D01*
X99111819Y-106913126D01*
X99928126Y-106096819D01*
X99989449Y-106063334D01*
X100015807Y-106060500D01*
X100206772Y-106060500D01*
X100273811Y-106080185D01*
X100319566Y-106132989D01*
X100329510Y-106202147D01*
X100326547Y-106216594D01*
X100269364Y-106429999D01*
X100269364Y-106430000D01*
X101166988Y-106430000D01*
X101134075Y-106487007D01*
X101100000Y-106614174D01*
X101100000Y-106745826D01*
X101134075Y-106872993D01*
X101166988Y-106930000D01*
X100269364Y-106930000D01*
X100326567Y-107143486D01*
X100326570Y-107143492D01*
X100426399Y-107357578D01*
X100561894Y-107551082D01*
X100728917Y-107718105D01*
X100914595Y-107848119D01*
X100958219Y-107902696D01*
X100965412Y-107972195D01*
X100933890Y-108034549D01*
X100914595Y-108051269D01*
X100728594Y-108181508D01*
X100561505Y-108348597D01*
X100425965Y-108542169D01*
X100425964Y-108542171D01*
X100326098Y-108756335D01*
X100326094Y-108756344D01*
X100264938Y-108984586D01*
X100264936Y-108984596D01*
X100244341Y-109219999D01*
X100244341Y-109220000D01*
X100264936Y-109455403D01*
X100264938Y-109455413D01*
X100326094Y-109683655D01*
X100326096Y-109683659D01*
X100326097Y-109683663D01*
X100330000Y-109692032D01*
X100425965Y-109897830D01*
X100425967Y-109897834D01*
X100534281Y-110052521D01*
X100561505Y-110091401D01*
X100728599Y-110258495D01*
X100825384Y-110326265D01*
X100922165Y-110394032D01*
X100922167Y-110394033D01*
X100922170Y-110394035D01*
X101136337Y-110493903D01*
X101364592Y-110555063D01*
X101552918Y-110571539D01*
X101599999Y-110575659D01*
X101600000Y-110575659D01*
X101600001Y-110575659D01*
X101639234Y-110572226D01*
X101835408Y-110555063D01*
X102063663Y-110493903D01*
X102277830Y-110394035D01*
X102471401Y-110258495D01*
X102638495Y-110091401D01*
X102768425Y-109905842D01*
X102823002Y-109862217D01*
X102892500Y-109855023D01*
X102954855Y-109886546D01*
X102971575Y-109905842D01*
X103101500Y-110091395D01*
X103101505Y-110091401D01*
X103268599Y-110258495D01*
X103365384Y-110326265D01*
X103462165Y-110394032D01*
X103462167Y-110394033D01*
X103462170Y-110394035D01*
X103676337Y-110493903D01*
X103904592Y-110555063D01*
X104092918Y-110571539D01*
X104139999Y-110575659D01*
X104140000Y-110575659D01*
X104140001Y-110575659D01*
X104179234Y-110572226D01*
X104375408Y-110555063D01*
X104603663Y-110493903D01*
X104817830Y-110394035D01*
X105011401Y-110258495D01*
X105178495Y-110091401D01*
X105314035Y-109897830D01*
X105413903Y-109683663D01*
X105475063Y-109455408D01*
X105495659Y-109220000D01*
X105475063Y-108984592D01*
X105413903Y-108756337D01*
X105314035Y-108542171D01*
X105308425Y-108534158D01*
X105178494Y-108348597D01*
X105011402Y-108181506D01*
X105011401Y-108181505D01*
X104825405Y-108051269D01*
X104781781Y-107996692D01*
X104774588Y-107927193D01*
X104806110Y-107864839D01*
X104825405Y-107848119D01*
X105011082Y-107718105D01*
X105178105Y-107551082D01*
X105313600Y-107357578D01*
X105413429Y-107143492D01*
X105413432Y-107143486D01*
X105470636Y-106930000D01*
X104573012Y-106930000D01*
X104605925Y-106872993D01*
X104640000Y-106745826D01*
X104640000Y-106614174D01*
X104605925Y-106487007D01*
X104573012Y-106430000D01*
X105470636Y-106430000D01*
X105470635Y-106429999D01*
X105413432Y-106216513D01*
X105413429Y-106216507D01*
X105313600Y-106002422D01*
X105313599Y-106002420D01*
X105178113Y-105808926D01*
X105178108Y-105808920D01*
X105011078Y-105641890D01*
X104825405Y-105511879D01*
X104781780Y-105457302D01*
X104774588Y-105387804D01*
X104806110Y-105325449D01*
X104825406Y-105308730D01*
X105011401Y-105178495D01*
X105178495Y-105011401D01*
X105314035Y-104817830D01*
X105413903Y-104603663D01*
X105475063Y-104375408D01*
X105495659Y-104140000D01*
X105475063Y-103904592D01*
X105413972Y-103676593D01*
X105415635Y-103606743D01*
X105454798Y-103548881D01*
X105519026Y-103521377D01*
X105533747Y-103520500D01*
X105724192Y-103520500D01*
X105791231Y-103540185D01*
G37*
%TD.AperFunction*%
%TA.AperFunction,Conductor*%
G36*
X130425000Y-139266988D02*
G01*
X130367993Y-139234075D01*
X130240826Y-139200000D01*
X130109174Y-139200000D01*
X129982007Y-139234075D01*
X129925000Y-139266988D01*
X129925000Y-137593012D01*
X129982007Y-137625925D01*
X130109174Y-137660000D01*
X130240826Y-137660000D01*
X130367993Y-137625925D01*
X130425000Y-137593012D01*
X130425000Y-139266988D01*
G37*
%TD.AperFunction*%
%TA.AperFunction,Conductor*%
G36*
X103674075Y-106487007D02*
G01*
X103640000Y-106614174D01*
X103640000Y-106745826D01*
X103674075Y-106872993D01*
X103706988Y-106930000D01*
X102033012Y-106930000D01*
X102065925Y-106872993D01*
X102100000Y-106745826D01*
X102100000Y-106614174D01*
X102065925Y-106487007D01*
X102033012Y-106430000D01*
X103706988Y-106430000D01*
X103674075Y-106487007D01*
G37*
%TD.AperFunction*%
%TA.AperFunction,Conductor*%
G36*
X103674075Y-60767007D02*
G01*
X103640000Y-60894174D01*
X103640000Y-61025826D01*
X103674075Y-61152993D01*
X103706988Y-61210000D01*
X102033012Y-61210000D01*
X102065925Y-61152993D01*
X102100000Y-61025826D01*
X102100000Y-60894174D01*
X102065925Y-60767007D01*
X102033012Y-60710000D01*
X103706988Y-60710000D01*
X103674075Y-60767007D01*
G37*
%TD.AperFunction*%
%TA.AperFunction,Conductor*%
G36*
X103674075Y-83627007D02*
G01*
X103640000Y-83754174D01*
X103640000Y-83885826D01*
X103674075Y-84012993D01*
X103706988Y-84070000D01*
X102033012Y-84070000D01*
X102065925Y-84012993D01*
X102100000Y-83885826D01*
X102100000Y-83754174D01*
X102065925Y-83627007D01*
X102033012Y-83570000D01*
X103706988Y-83570000D01*
X103674075Y-83627007D01*
G37*
%TD.AperFunction*%
%TA.AperFunction,Conductor*%
G36*
X119323039Y-48279685D02*
G01*
X119368794Y-48332489D01*
X119380000Y-48384000D01*
X119380000Y-123825000D01*
X119516116Y-123961116D01*
X119544881Y-124010933D01*
X119545498Y-124010678D01*
X119547438Y-124015361D01*
X119548208Y-124016695D01*
X119548606Y-124018183D01*
X119548607Y-124018185D01*
X119548608Y-124018186D01*
X119614500Y-124132314D01*
X122789500Y-127307314D01*
X122882686Y-127400500D01*
X122962905Y-127446815D01*
X122996810Y-127466390D01*
X122996814Y-127466392D01*
X122998295Y-127466788D01*
X122999620Y-127467554D01*
X123004321Y-127469501D01*
X123004064Y-127470119D01*
X123053882Y-127498882D01*
X123190000Y-127635000D01*
X177676000Y-127635000D01*
X177743039Y-127654685D01*
X177788794Y-127707489D01*
X177800000Y-127759000D01*
X177800000Y-151641000D01*
X177780315Y-151708039D01*
X177727511Y-151753794D01*
X177676000Y-151765000D01*
X92834000Y-151765000D01*
X92766961Y-151745315D01*
X92721206Y-151692511D01*
X92710000Y-151641000D01*
X92710000Y-146049996D01*
X95419916Y-146049996D01*
X95419916Y-146050003D01*
X95440235Y-146398869D01*
X95440236Y-146398880D01*
X95500914Y-146743002D01*
X95500916Y-146743011D01*
X95601145Y-147077800D01*
X95739555Y-147398670D01*
X95739561Y-147398683D01*
X95914289Y-147701322D01*
X96122967Y-147981625D01*
X96131148Y-147990296D01*
X96845079Y-147276365D01*
X96918094Y-147371521D01*
X97103479Y-147556906D01*
X97198632Y-147629919D01*
X96487818Y-148340733D01*
X96487819Y-148340734D01*
X96630484Y-148460445D01*
X96922461Y-148652480D01*
X97234739Y-148809314D01*
X97234745Y-148809316D01*
X97563130Y-148928838D01*
X97563133Y-148928839D01*
X97903171Y-149009429D01*
X98250276Y-149049999D01*
X98250277Y-149050000D01*
X98599723Y-149050000D01*
X98599723Y-149049999D01*
X98946827Y-149009429D01*
X98946829Y-149009429D01*
X99286866Y-148928839D01*
X99286869Y-148928838D01*
X99615254Y-148809316D01*
X99615260Y-148809314D01*
X99927538Y-148652480D01*
X100219509Y-148460449D01*
X100219510Y-148460448D01*
X100362179Y-148340734D01*
X100362180Y-148340733D01*
X99651367Y-147629919D01*
X99746521Y-147556906D01*
X99931906Y-147371521D01*
X100004919Y-147276367D01*
X100718849Y-147990297D01*
X100718851Y-147990296D01*
X100727022Y-147981636D01*
X100727033Y-147981623D01*
X100935710Y-147701322D01*
X101110438Y-147398683D01*
X101110444Y-147398670D01*
X101248854Y-147077800D01*
X101349083Y-146743011D01*
X101349085Y-146743002D01*
X101409763Y-146398880D01*
X101409764Y-146398869D01*
X101430084Y-146050003D01*
X101430084Y-146049996D01*
X101409764Y-145701130D01*
X101409763Y-145701119D01*
X101349085Y-145356997D01*
X101349083Y-145356988D01*
X101248854Y-145022199D01*
X101110444Y-144701329D01*
X101110438Y-144701316D01*
X100935710Y-144398677D01*
X100727032Y-144118374D01*
X100718850Y-144109702D01*
X100004919Y-144823632D01*
X99931906Y-144728479D01*
X99746521Y-144543094D01*
X99651366Y-144470079D01*
X100362180Y-143759265D01*
X100362179Y-143759264D01*
X100219519Y-143639557D01*
X99927538Y-143447519D01*
X99615260Y-143290685D01*
X99615254Y-143290683D01*
X99286869Y-143171161D01*
X99286866Y-143171160D01*
X98946828Y-143090570D01*
X98599723Y-143050000D01*
X98250277Y-143050000D01*
X97903172Y-143090570D01*
X97903170Y-143090570D01*
X97563133Y-143171160D01*
X97563130Y-143171161D01*
X97234745Y-143290683D01*
X97234739Y-143290685D01*
X96922461Y-143447519D01*
X96630480Y-143639557D01*
X96487819Y-143759264D01*
X96487818Y-143759265D01*
X97198633Y-144470079D01*
X97103479Y-144543094D01*
X96918094Y-144728479D01*
X96845080Y-144823633D01*
X96131148Y-144109701D01*
X96131147Y-144109702D01*
X96122976Y-144118363D01*
X96122972Y-144118368D01*
X95914289Y-144398677D01*
X95739561Y-144701316D01*
X95739555Y-144701329D01*
X95601145Y-145022199D01*
X95500916Y-145356988D01*
X95500914Y-145356997D01*
X95440236Y-145701119D01*
X95440235Y-145701130D01*
X95419916Y-146049996D01*
X92710000Y-146049996D01*
X92710000Y-76199999D01*
X100244341Y-76199999D01*
X100244341Y-76200000D01*
X100264936Y-76435403D01*
X100264938Y-76435413D01*
X100326094Y-76663655D01*
X100326096Y-76663659D01*
X100326097Y-76663663D01*
X100330000Y-76672032D01*
X100425965Y-76877830D01*
X100425967Y-76877834D01*
X100534281Y-77032521D01*
X100561501Y-77071396D01*
X100561506Y-77071402D01*
X100728597Y-77238493D01*
X100728603Y-77238498D01*
X100914158Y-77368425D01*
X100957783Y-77423002D01*
X100964977Y-77492500D01*
X100933454Y-77554855D01*
X100914158Y-77571575D01*
X100728597Y-77701505D01*
X100561505Y-77868597D01*
X100425965Y-78062169D01*
X100425964Y-78062171D01*
X100326098Y-78276335D01*
X100326094Y-78276344D01*
X100264938Y-78504586D01*
X100264936Y-78504596D01*
X100244341Y-78739999D01*
X100244341Y-78740000D01*
X100264936Y-78975403D01*
X100264938Y-78975413D01*
X100326094Y-79203655D01*
X100326096Y-79203659D01*
X100326097Y-79203663D01*
X100330000Y-79212032D01*
X100425965Y-79417830D01*
X100425967Y-79417834D01*
X100534281Y-79572521D01*
X100561501Y-79611396D01*
X100561506Y-79611402D01*
X100728597Y-79778493D01*
X100728603Y-79778498D01*
X100914158Y-79908425D01*
X100957783Y-79963002D01*
X100964977Y-80032500D01*
X100933454Y-80094855D01*
X100914158Y-80111575D01*
X100728597Y-80241505D01*
X100561505Y-80408597D01*
X100425965Y-80602169D01*
X100425964Y-80602171D01*
X100326098Y-80816335D01*
X100326094Y-80816344D01*
X100264938Y-81044586D01*
X100264936Y-81044596D01*
X100244341Y-81279999D01*
X100244341Y-81280000D01*
X100264936Y-81515403D01*
X100264938Y-81515413D01*
X100326094Y-81743655D01*
X100326096Y-81743659D01*
X100326097Y-81743663D01*
X100330000Y-81752032D01*
X100425965Y-81957830D01*
X100425967Y-81957834D01*
X100534281Y-82112521D01*
X100561501Y-82151396D01*
X100561506Y-82151402D01*
X100728597Y-82318493D01*
X100728603Y-82318498D01*
X100914594Y-82448730D01*
X100958219Y-82503307D01*
X100965413Y-82572805D01*
X100933890Y-82635160D01*
X100914595Y-82651880D01*
X100728922Y-82781890D01*
X100728920Y-82781891D01*
X100561891Y-82948920D01*
X100561886Y-82948926D01*
X100426400Y-83142420D01*
X100426399Y-83142422D01*
X100326570Y-83356507D01*
X100326567Y-83356513D01*
X100269364Y-83569999D01*
X100269364Y-83570000D01*
X101166988Y-83570000D01*
X101134075Y-83627007D01*
X101100000Y-83754174D01*
X101100000Y-83885826D01*
X101134075Y-84012993D01*
X101166988Y-84070000D01*
X100269364Y-84070000D01*
X100326567Y-84283486D01*
X100326570Y-84283492D01*
X100426399Y-84497578D01*
X100561894Y-84691082D01*
X100728917Y-84858105D01*
X100914595Y-84988119D01*
X100958219Y-85042696D01*
X100965412Y-85112195D01*
X100933890Y-85174549D01*
X100914595Y-85191269D01*
X100728594Y-85321508D01*
X100561505Y-85488597D01*
X100425965Y-85682169D01*
X100425964Y-85682171D01*
X100326098Y-85896335D01*
X100326094Y-85896344D01*
X100264938Y-86124586D01*
X100264936Y-86124596D01*
X100244341Y-86359999D01*
X100244341Y-86360000D01*
X100264936Y-86595403D01*
X100264938Y-86595413D01*
X100326094Y-86823655D01*
X100326096Y-86823659D01*
X100326097Y-86823663D01*
X100330000Y-86832032D01*
X100425965Y-87037830D01*
X100425967Y-87037834D01*
X100534281Y-87192521D01*
X100561505Y-87231401D01*
X100728599Y-87398495D01*
X100825384Y-87466265D01*
X100922165Y-87534032D01*
X100922167Y-87534033D01*
X100922170Y-87534035D01*
X101136337Y-87633903D01*
X101364592Y-87695063D01*
X101552918Y-87711539D01*
X101599999Y-87715659D01*
X101600000Y-87715659D01*
X101600001Y-87715659D01*
X101639234Y-87712226D01*
X101835408Y-87695063D01*
X102063663Y-87633903D01*
X102277830Y-87534035D01*
X102471401Y-87398495D01*
X102638495Y-87231401D01*
X102768425Y-87045842D01*
X102823002Y-87002217D01*
X102892500Y-86995023D01*
X102954855Y-87026546D01*
X102971575Y-87045842D01*
X103101500Y-87231395D01*
X103101505Y-87231401D01*
X103268599Y-87398495D01*
X103365384Y-87466265D01*
X103462165Y-87534032D01*
X103462167Y-87534033D01*
X103462170Y-87534035D01*
X103676337Y-87633903D01*
X103904592Y-87695063D01*
X104092918Y-87711539D01*
X104139999Y-87715659D01*
X104140000Y-87715659D01*
X104140001Y-87715659D01*
X104179234Y-87712226D01*
X104375408Y-87695063D01*
X104603663Y-87633903D01*
X104817830Y-87534035D01*
X105011401Y-87398495D01*
X105178495Y-87231401D01*
X105314035Y-87037830D01*
X105413903Y-86823663D01*
X105475063Y-86595408D01*
X105495659Y-86360000D01*
X105475063Y-86124592D01*
X105413903Y-85896337D01*
X105314035Y-85682171D01*
X105308425Y-85674158D01*
X105178494Y-85488597D01*
X105011402Y-85321506D01*
X105011401Y-85321505D01*
X104825405Y-85191269D01*
X104781781Y-85136692D01*
X104774588Y-85067193D01*
X104806110Y-85004839D01*
X104825405Y-84988119D01*
X105011082Y-84858105D01*
X105178105Y-84691082D01*
X105313600Y-84497578D01*
X105413429Y-84283492D01*
X105413432Y-84283486D01*
X105470636Y-84070000D01*
X104573012Y-84070000D01*
X104605925Y-84012993D01*
X104640000Y-83885826D01*
X104640000Y-83754174D01*
X104605925Y-83627007D01*
X104573012Y-83570000D01*
X105470636Y-83570000D01*
X105470635Y-83569999D01*
X105413432Y-83356513D01*
X105413429Y-83356507D01*
X105313600Y-83142422D01*
X105313599Y-83142420D01*
X105178113Y-82948926D01*
X105178108Y-82948920D01*
X105011078Y-82781890D01*
X104825405Y-82651879D01*
X104781780Y-82597302D01*
X104774588Y-82527804D01*
X104806110Y-82465449D01*
X104825406Y-82448730D01*
X105011401Y-82318495D01*
X105178495Y-82151401D01*
X105314035Y-81957830D01*
X105413903Y-81743663D01*
X105475063Y-81515408D01*
X105495659Y-81280000D01*
X105475063Y-81044592D01*
X105413903Y-80816337D01*
X105314035Y-80602171D01*
X105308425Y-80594158D01*
X105178494Y-80408597D01*
X105011402Y-80241506D01*
X105011396Y-80241501D01*
X104825842Y-80111575D01*
X104782217Y-80056998D01*
X104775023Y-79987500D01*
X104806546Y-79925145D01*
X104825842Y-79908425D01*
X104848026Y-79892891D01*
X105011401Y-79778495D01*
X105178495Y-79611401D01*
X105314035Y-79417830D01*
X105413903Y-79203663D01*
X105475063Y-78975408D01*
X105495659Y-78740000D01*
X105475063Y-78504592D01*
X105413903Y-78276337D01*
X105314035Y-78062171D01*
X105308425Y-78054158D01*
X105178494Y-77868597D01*
X105011402Y-77701506D01*
X105011396Y-77701501D01*
X104825842Y-77571575D01*
X104782217Y-77516998D01*
X104775023Y-77447500D01*
X104806546Y-77385145D01*
X104825842Y-77368425D01*
X104848026Y-77352891D01*
X105011401Y-77238495D01*
X105178495Y-77071401D01*
X105314035Y-76877830D01*
X105413903Y-76663663D01*
X105475063Y-76435408D01*
X105495659Y-76200000D01*
X105475063Y-75964592D01*
X105413903Y-75736337D01*
X105314035Y-75522171D01*
X105308425Y-75514158D01*
X105178494Y-75328597D01*
X105011402Y-75161506D01*
X105011396Y-75161501D01*
X104825842Y-75031575D01*
X104782217Y-74976998D01*
X104775023Y-74907500D01*
X104806546Y-74845145D01*
X104825842Y-74828425D01*
X104848026Y-74812891D01*
X105011401Y-74698495D01*
X105178495Y-74531401D01*
X105314035Y-74337830D01*
X105413903Y-74123663D01*
X105475063Y-73895408D01*
X105495659Y-73660000D01*
X105475063Y-73424592D01*
X105413903Y-73196337D01*
X105314035Y-72982171D01*
X105178495Y-72788599D01*
X105178494Y-72788597D01*
X105011402Y-72621506D01*
X105011395Y-72621501D01*
X104817834Y-72485967D01*
X104817830Y-72485965D01*
X104817828Y-72485964D01*
X104603663Y-72386097D01*
X104603659Y-72386096D01*
X104603655Y-72386094D01*
X104375413Y-72324938D01*
X104375403Y-72324936D01*
X104140001Y-72304341D01*
X104139999Y-72304341D01*
X103904596Y-72324936D01*
X103904586Y-72324938D01*
X103676344Y-72386094D01*
X103676335Y-72386098D01*
X103462171Y-72485964D01*
X103462169Y-72485965D01*
X103268600Y-72621503D01*
X103146673Y-72743430D01*
X103085350Y-72776914D01*
X103015658Y-72771930D01*
X102959725Y-72730058D01*
X102942810Y-72699081D01*
X102893797Y-72567671D01*
X102893793Y-72567664D01*
X102807547Y-72452455D01*
X102807544Y-72452452D01*
X102692335Y-72366206D01*
X102692328Y-72366202D01*
X102557482Y-72315908D01*
X102557483Y-72315908D01*
X102497883Y-72309501D01*
X102497881Y-72309500D01*
X102497873Y-72309500D01*
X102497864Y-72309500D01*
X100702129Y-72309500D01*
X100702123Y-72309501D01*
X100642516Y-72315908D01*
X100507671Y-72366202D01*
X100507664Y-72366206D01*
X100392455Y-72452452D01*
X100392452Y-72452455D01*
X100306206Y-72567664D01*
X100306202Y-72567671D01*
X100255908Y-72702517D01*
X100249501Y-72762116D01*
X100249500Y-72762135D01*
X100249500Y-74557870D01*
X100249501Y-74557876D01*
X100255908Y-74617483D01*
X100306202Y-74752328D01*
X100306206Y-74752335D01*
X100392452Y-74867544D01*
X100392455Y-74867547D01*
X100507664Y-74953793D01*
X100507671Y-74953797D01*
X100639081Y-75002810D01*
X100695015Y-75044681D01*
X100719432Y-75110145D01*
X100704580Y-75178418D01*
X100683430Y-75206673D01*
X100561503Y-75328600D01*
X100425965Y-75522169D01*
X100425964Y-75522171D01*
X100326098Y-75736335D01*
X100326094Y-75736344D01*
X100264938Y-75964586D01*
X100264936Y-75964596D01*
X100244341Y-76199999D01*
X92710000Y-76199999D01*
X92710000Y-54545928D01*
X93964500Y-54545928D01*
X93964500Y-69279070D01*
X93977560Y-69344722D01*
X93977560Y-69344724D01*
X93989497Y-69404736D01*
X93989499Y-69404744D01*
X94038534Y-69523125D01*
X94109726Y-69629673D01*
X96105326Y-71625273D01*
X96105329Y-71625275D01*
X96105331Y-71625277D01*
X96211873Y-71696465D01*
X96330256Y-71745501D01*
X96330260Y-71745501D01*
X96330261Y-71745502D01*
X96455928Y-71770500D01*
X96455931Y-71770500D01*
X105724192Y-71770500D01*
X105791231Y-71790185D01*
X105811873Y-71806819D01*
X112343181Y-78338127D01*
X112376666Y-78399450D01*
X112379500Y-78425808D01*
X112379500Y-129604070D01*
X112392560Y-129669722D01*
X112392560Y-129669724D01*
X112404497Y-129729736D01*
X112404499Y-129729744D01*
X112453534Y-129848125D01*
X112524726Y-129954673D01*
X117060327Y-134490274D01*
X117158592Y-134555932D01*
X117158591Y-134555932D01*
X117158595Y-134555933D01*
X117166873Y-134561465D01*
X117285256Y-134610501D01*
X117285260Y-134610501D01*
X117285261Y-134610502D01*
X117410928Y-134635500D01*
X117410931Y-134635500D01*
X130489192Y-134635500D01*
X130556231Y-134655185D01*
X130576873Y-134671819D01*
X130758181Y-134853127D01*
X130791666Y-134914450D01*
X130794500Y-134940808D01*
X130794500Y-135766771D01*
X130774815Y-135833810D01*
X130722011Y-135879565D01*
X130652853Y-135889509D01*
X130638406Y-135886546D01*
X130425000Y-135829364D01*
X130425000Y-136726988D01*
X130367993Y-136694075D01*
X130240826Y-136660000D01*
X130109174Y-136660000D01*
X129982007Y-136694075D01*
X129925000Y-136726988D01*
X129925000Y-135829364D01*
X129924999Y-135829364D01*
X129711513Y-135886567D01*
X129711507Y-135886570D01*
X129497422Y-135986399D01*
X129497420Y-135986400D01*
X129303926Y-136121886D01*
X129303920Y-136121891D01*
X129136891Y-136288920D01*
X129136886Y-136288926D01*
X129001400Y-136482420D01*
X129001399Y-136482422D01*
X128901570Y-136696507D01*
X128901567Y-136696513D01*
X128844364Y-136909999D01*
X128844364Y-136910000D01*
X129741988Y-136910000D01*
X129709075Y-136967007D01*
X129675000Y-137094174D01*
X129675000Y-137225826D01*
X129709075Y-137352993D01*
X129741988Y-137410000D01*
X128844364Y-137410000D01*
X128901567Y-137623486D01*
X128901570Y-137623492D01*
X129001399Y-137837578D01*
X129136894Y-138031082D01*
X129303917Y-138198105D01*
X129490031Y-138328425D01*
X129533656Y-138383003D01*
X129540848Y-138452501D01*
X129509326Y-138514856D01*
X129490031Y-138531575D01*
X129303922Y-138661890D01*
X129303920Y-138661891D01*
X129136891Y-138828920D01*
X129136886Y-138828926D01*
X129001400Y-139022420D01*
X129001399Y-139022422D01*
X128901570Y-139236507D01*
X128901567Y-139236513D01*
X128844364Y-139449999D01*
X128844364Y-139450000D01*
X129741988Y-139450000D01*
X129709075Y-139507007D01*
X129675000Y-139634174D01*
X129675000Y-139765826D01*
X129709075Y-139892993D01*
X129741988Y-139950000D01*
X128844364Y-139950000D01*
X128901567Y-140163486D01*
X128901570Y-140163492D01*
X129001399Y-140377578D01*
X129136894Y-140571082D01*
X129303917Y-140738105D01*
X129497421Y-140873600D01*
X129711507Y-140973429D01*
X129711516Y-140973433D01*
X129925000Y-141030634D01*
X129925000Y-140133012D01*
X129982007Y-140165925D01*
X130109174Y-140200000D01*
X130240826Y-140200000D01*
X130367993Y-140165925D01*
X130425000Y-140133012D01*
X130425000Y-141030633D01*
X130638483Y-140973433D01*
X130638492Y-140973429D01*
X130852578Y-140873600D01*
X131046082Y-140738105D01*
X131213105Y-140571082D01*
X131343119Y-140385405D01*
X131397696Y-140341781D01*
X131467195Y-140334588D01*
X131529549Y-140366110D01*
X131546269Y-140385405D01*
X131676505Y-140571401D01*
X131843599Y-140738495D01*
X131940384Y-140806265D01*
X132037165Y-140874032D01*
X132037167Y-140874033D01*
X132037170Y-140874035D01*
X132251337Y-140973903D01*
X132251343Y-140973904D01*
X132251344Y-140973905D01*
X132306285Y-140988626D01*
X132479592Y-141035063D01*
X132667918Y-141051539D01*
X132714999Y-141055659D01*
X132715000Y-141055659D01*
X132715001Y-141055659D01*
X132754234Y-141052226D01*
X132950408Y-141035063D01*
X133178663Y-140973903D01*
X133392830Y-140874035D01*
X133586401Y-140738495D01*
X133753495Y-140571401D01*
X133883425Y-140385842D01*
X133938002Y-140342217D01*
X134007500Y-140335023D01*
X134069855Y-140366546D01*
X134086575Y-140385842D01*
X134216500Y-140571395D01*
X134216505Y-140571401D01*
X134383599Y-140738495D01*
X134480384Y-140806265D01*
X134577165Y-140874032D01*
X134577167Y-140874033D01*
X134577170Y-140874035D01*
X134791337Y-140973903D01*
X134791343Y-140973904D01*
X134791344Y-140973905D01*
X134846285Y-140988626D01*
X135019592Y-141035063D01*
X135207918Y-141051539D01*
X135254999Y-141055659D01*
X135255000Y-141055659D01*
X135255001Y-141055659D01*
X135294234Y-141052226D01*
X135490408Y-141035063D01*
X135718663Y-140973903D01*
X135932830Y-140874035D01*
X136126401Y-140738495D01*
X136293495Y-140571401D01*
X136423425Y-140385842D01*
X136478002Y-140342217D01*
X136547500Y-140335023D01*
X136609855Y-140366546D01*
X136626575Y-140385842D01*
X136756500Y-140571395D01*
X136756505Y-140571401D01*
X136923599Y-140738495D01*
X137020384Y-140806265D01*
X137117165Y-140874032D01*
X137117167Y-140874033D01*
X137117170Y-140874035D01*
X137331337Y-140973903D01*
X137331343Y-140973904D01*
X137331344Y-140973905D01*
X137386285Y-140988626D01*
X137559592Y-141035063D01*
X137747918Y-141051539D01*
X137794999Y-141055659D01*
X137795000Y-141055659D01*
X137795001Y-141055659D01*
X137834234Y-141052226D01*
X138030408Y-141035063D01*
X138258663Y-140973903D01*
X138472830Y-140874035D01*
X138666401Y-140738495D01*
X138833495Y-140571401D01*
X138963425Y-140385842D01*
X139018002Y-140342217D01*
X139087500Y-140335023D01*
X139149855Y-140366546D01*
X139166575Y-140385842D01*
X139296500Y-140571395D01*
X139296505Y-140571401D01*
X139463599Y-140738495D01*
X139560384Y-140806265D01*
X139657165Y-140874032D01*
X139657167Y-140874033D01*
X139657170Y-140874035D01*
X139871337Y-140973903D01*
X139871343Y-140973904D01*
X139871344Y-140973905D01*
X139926285Y-140988626D01*
X140099592Y-141035063D01*
X140287918Y-141051539D01*
X140334999Y-141055659D01*
X140335000Y-141055659D01*
X140335001Y-141055659D01*
X140374234Y-141052226D01*
X140570408Y-141035063D01*
X140798663Y-140973903D01*
X141012830Y-140874035D01*
X141206401Y-140738495D01*
X141373495Y-140571401D01*
X141503425Y-140385842D01*
X141558002Y-140342217D01*
X141627500Y-140335023D01*
X141689855Y-140366546D01*
X141706575Y-140385842D01*
X141836500Y-140571395D01*
X141836505Y-140571401D01*
X142003599Y-140738495D01*
X142100384Y-140806265D01*
X142197165Y-140874032D01*
X142197167Y-140874033D01*
X142197170Y-140874035D01*
X142411337Y-140973903D01*
X142411343Y-140973904D01*
X142411344Y-140973905D01*
X142466285Y-140988626D01*
X142639592Y-141035063D01*
X142827918Y-141051539D01*
X142874999Y-141055659D01*
X142875000Y-141055659D01*
X142875001Y-141055659D01*
X142914234Y-141052226D01*
X143110408Y-141035063D01*
X143338663Y-140973903D01*
X143552830Y-140874035D01*
X143746401Y-140738495D01*
X143913495Y-140571401D01*
X144043425Y-140385842D01*
X144098002Y-140342217D01*
X144167500Y-140335023D01*
X144229855Y-140366546D01*
X144246575Y-140385842D01*
X144376500Y-140571395D01*
X144376505Y-140571401D01*
X144543599Y-140738495D01*
X144640384Y-140806265D01*
X144737165Y-140874032D01*
X144737167Y-140874033D01*
X144737170Y-140874035D01*
X144951337Y-140973903D01*
X144951343Y-140973904D01*
X144951344Y-140973905D01*
X145006285Y-140988626D01*
X145179592Y-141035063D01*
X145367918Y-141051539D01*
X145414999Y-141055659D01*
X145415000Y-141055659D01*
X145415001Y-141055659D01*
X145454234Y-141052226D01*
X145650408Y-141035063D01*
X145878663Y-140973903D01*
X146092830Y-140874035D01*
X146286401Y-140738495D01*
X146453495Y-140571401D01*
X146583425Y-140385842D01*
X146638002Y-140342217D01*
X146707500Y-140335023D01*
X146769855Y-140366546D01*
X146786575Y-140385842D01*
X146916500Y-140571395D01*
X146916505Y-140571401D01*
X147083599Y-140738495D01*
X147180384Y-140806265D01*
X147277165Y-140874032D01*
X147277167Y-140874033D01*
X147277170Y-140874035D01*
X147491337Y-140973903D01*
X147491343Y-140973904D01*
X147491344Y-140973905D01*
X147546285Y-140988626D01*
X147719592Y-141035063D01*
X147907918Y-141051539D01*
X147954999Y-141055659D01*
X147955000Y-141055659D01*
X147955001Y-141055659D01*
X147994234Y-141052226D01*
X148190408Y-141035063D01*
X148418663Y-140973903D01*
X148632830Y-140874035D01*
X148826401Y-140738495D01*
X148993495Y-140571401D01*
X149123425Y-140385842D01*
X149178002Y-140342217D01*
X149247500Y-140335023D01*
X149309855Y-140366546D01*
X149326575Y-140385842D01*
X149456500Y-140571395D01*
X149456505Y-140571401D01*
X149623599Y-140738495D01*
X149720384Y-140806265D01*
X149817165Y-140874032D01*
X149817167Y-140874033D01*
X149817170Y-140874035D01*
X150031337Y-140973903D01*
X150031343Y-140973904D01*
X150031344Y-140973905D01*
X150086285Y-140988626D01*
X150259592Y-141035063D01*
X150447918Y-141051539D01*
X150494999Y-141055659D01*
X150495000Y-141055659D01*
X150495001Y-141055659D01*
X150534234Y-141052226D01*
X150730408Y-141035063D01*
X150958663Y-140973903D01*
X151172830Y-140874035D01*
X151366401Y-140738495D01*
X151533495Y-140571401D01*
X151663425Y-140385842D01*
X151718002Y-140342217D01*
X151787500Y-140335023D01*
X151849855Y-140366546D01*
X151866575Y-140385842D01*
X151996501Y-140571396D01*
X151996506Y-140571402D01*
X152163597Y-140738493D01*
X152163603Y-140738498D01*
X152331623Y-140856147D01*
X152375248Y-140910724D01*
X152384500Y-140957722D01*
X152384500Y-141284192D01*
X152364815Y-141351231D01*
X152348181Y-141371873D01*
X150896873Y-142823181D01*
X150835550Y-142856666D01*
X150809192Y-142859500D01*
X114620808Y-142859500D01*
X114553769Y-142839815D01*
X114533127Y-142823181D01*
X111176819Y-139466873D01*
X111143334Y-139405550D01*
X111140500Y-139379192D01*
X111140500Y-138429995D01*
X113129953Y-138429995D01*
X113129953Y-138430004D01*
X113150113Y-138699026D01*
X113150113Y-138699028D01*
X113210142Y-138962033D01*
X113210148Y-138962052D01*
X113308709Y-139213181D01*
X113308708Y-139213181D01*
X113443602Y-139446822D01*
X113497294Y-139514151D01*
X114333957Y-138677487D01*
X114358978Y-138737890D01*
X114430112Y-138844351D01*
X114520649Y-138934888D01*
X114627110Y-139006022D01*
X114687510Y-139031041D01*
X113849848Y-139868702D01*
X114032483Y-139993220D01*
X114032485Y-139993221D01*
X114275539Y-140110269D01*
X114275537Y-140110269D01*
X114533337Y-140189790D01*
X114533343Y-140189792D01*
X114800101Y-140229999D01*
X114800110Y-140230000D01*
X115069890Y-140230000D01*
X115069898Y-140229999D01*
X115336656Y-140189792D01*
X115336662Y-140189790D01*
X115594461Y-140110269D01*
X115837521Y-139993218D01*
X116020150Y-139868702D01*
X115182488Y-139031041D01*
X115242890Y-139006022D01*
X115349351Y-138934888D01*
X115439888Y-138844351D01*
X115511022Y-138737890D01*
X115536041Y-138677488D01*
X116372703Y-139514151D01*
X116372704Y-139514150D01*
X116426393Y-139446828D01*
X116426400Y-139446817D01*
X116561290Y-139213181D01*
X116659851Y-138962052D01*
X116659857Y-138962033D01*
X116719886Y-138699028D01*
X116719886Y-138699026D01*
X116740047Y-138430004D01*
X116740047Y-138429995D01*
X120749953Y-138429995D01*
X120749953Y-138430004D01*
X120770113Y-138699026D01*
X120770113Y-138699028D01*
X120830142Y-138962033D01*
X120830148Y-138962052D01*
X120928709Y-139213181D01*
X120928708Y-139213181D01*
X121063602Y-139446822D01*
X121117294Y-139514151D01*
X121953957Y-138677487D01*
X121978978Y-138737890D01*
X122050112Y-138844351D01*
X122140649Y-138934888D01*
X122247110Y-139006022D01*
X122307510Y-139031041D01*
X121469848Y-139868702D01*
X121652483Y-139993220D01*
X121652485Y-139993221D01*
X121895539Y-140110269D01*
X121895537Y-140110269D01*
X122153337Y-140189790D01*
X122153343Y-140189792D01*
X122420101Y-140229999D01*
X122420110Y-140230000D01*
X122689890Y-140230000D01*
X122689898Y-140229999D01*
X122956656Y-140189792D01*
X122956662Y-140189790D01*
X123214461Y-140110269D01*
X123457521Y-139993218D01*
X123640150Y-139868702D01*
X122802488Y-139031041D01*
X122862890Y-139006022D01*
X122969351Y-138934888D01*
X123059888Y-138844351D01*
X123131022Y-138737890D01*
X123156041Y-138677488D01*
X123992703Y-139514151D01*
X123992704Y-139514150D01*
X124046393Y-139446828D01*
X124046400Y-139446817D01*
X124181290Y-139213181D01*
X124279851Y-138962052D01*
X124279857Y-138962033D01*
X124339886Y-138699028D01*
X124339886Y-138699026D01*
X124360047Y-138430004D01*
X124360047Y-138429995D01*
X124339886Y-138160973D01*
X124339886Y-138160971D01*
X124279857Y-137897966D01*
X124279851Y-137897947D01*
X124181290Y-137646818D01*
X124181291Y-137646818D01*
X124046397Y-137413177D01*
X123992704Y-137345847D01*
X123156041Y-138182510D01*
X123131022Y-138122110D01*
X123059888Y-138015649D01*
X122969351Y-137925112D01*
X122862890Y-137853978D01*
X122802488Y-137828958D01*
X123640150Y-136991296D01*
X123457517Y-136866779D01*
X123457516Y-136866778D01*
X123214460Y-136749730D01*
X123214462Y-136749730D01*
X122956662Y-136670209D01*
X122956656Y-136670207D01*
X122689898Y-136630000D01*
X122420101Y-136630000D01*
X122153343Y-136670207D01*
X122153337Y-136670209D01*
X121895538Y-136749730D01*
X121652485Y-136866778D01*
X121652476Y-136866783D01*
X121469848Y-136991296D01*
X122307511Y-137828958D01*
X122247110Y-137853978D01*
X122140649Y-137925112D01*
X122050112Y-138015649D01*
X121978978Y-138122110D01*
X121953958Y-138182511D01*
X121117295Y-137345848D01*
X121063600Y-137413180D01*
X120928709Y-137646818D01*
X120830148Y-137897947D01*
X120830142Y-137897966D01*
X120770113Y-138160971D01*
X120770113Y-138160973D01*
X120749953Y-138429995D01*
X116740047Y-138429995D01*
X116719886Y-138160973D01*
X116719886Y-138160971D01*
X116659857Y-137897966D01*
X116659851Y-137897947D01*
X116561290Y-137646818D01*
X116561291Y-137646818D01*
X116426397Y-137413177D01*
X116372704Y-137345847D01*
X115536041Y-138182510D01*
X115511022Y-138122110D01*
X115439888Y-138015649D01*
X115349351Y-137925112D01*
X115242890Y-137853978D01*
X115182488Y-137828958D01*
X116020150Y-136991296D01*
X115837517Y-136866779D01*
X115837516Y-136866778D01*
X115594460Y-136749730D01*
X115594462Y-136749730D01*
X115336662Y-136670209D01*
X115336656Y-136670207D01*
X115069898Y-136630000D01*
X114800101Y-136630000D01*
X114533343Y-136670207D01*
X114533337Y-136670209D01*
X114275538Y-136749730D01*
X114032485Y-136866778D01*
X114032476Y-136866783D01*
X113849848Y-136991296D01*
X114687511Y-137828958D01*
X114627110Y-137853978D01*
X114520649Y-137925112D01*
X114430112Y-138015649D01*
X114358978Y-138122110D01*
X114333958Y-138182511D01*
X113497295Y-137345848D01*
X113443600Y-137413180D01*
X113308709Y-137646818D01*
X113210148Y-137897947D01*
X113210142Y-137897966D01*
X113150113Y-138160971D01*
X113150113Y-138160973D01*
X113129953Y-138429995D01*
X111140500Y-138429995D01*
X111140500Y-100900928D01*
X111115502Y-100775261D01*
X111115501Y-100775260D01*
X111115501Y-100775256D01*
X111066465Y-100656873D01*
X111053939Y-100638127D01*
X110995276Y-100550330D01*
X110995271Y-100550324D01*
X106459673Y-96014726D01*
X106459669Y-96014723D01*
X106353127Y-95943535D01*
X106234744Y-95894499D01*
X106234738Y-95894497D01*
X106109071Y-95869500D01*
X106109069Y-95869500D01*
X105397721Y-95869500D01*
X105330682Y-95849815D01*
X105296146Y-95816623D01*
X105178494Y-95648597D01*
X105011402Y-95481506D01*
X105011395Y-95481501D01*
X104817834Y-95345967D01*
X104817830Y-95345965D01*
X104817828Y-95345964D01*
X104603663Y-95246097D01*
X104603659Y-95246096D01*
X104603655Y-95246094D01*
X104375413Y-95184938D01*
X104375403Y-95184936D01*
X104140001Y-95164341D01*
X104139999Y-95164341D01*
X103904596Y-95184936D01*
X103904586Y-95184938D01*
X103676344Y-95246094D01*
X103676335Y-95246098D01*
X103462171Y-95345964D01*
X103462169Y-95345965D01*
X103268600Y-95481503D01*
X103146673Y-95603430D01*
X103085350Y-95636914D01*
X103015658Y-95631930D01*
X102959725Y-95590058D01*
X102942810Y-95559081D01*
X102893797Y-95427671D01*
X102893793Y-95427664D01*
X102807547Y-95312455D01*
X102807544Y-95312452D01*
X102692335Y-95226206D01*
X102692328Y-95226202D01*
X102557482Y-95175908D01*
X102557483Y-95175908D01*
X102497883Y-95169501D01*
X102497881Y-95169500D01*
X102497873Y-95169500D01*
X102497864Y-95169500D01*
X100702129Y-95169500D01*
X100702123Y-95169501D01*
X100642516Y-95175908D01*
X100507671Y-95226202D01*
X100507664Y-95226206D01*
X100392455Y-95312452D01*
X100392452Y-95312455D01*
X100306206Y-95427664D01*
X100306202Y-95427671D01*
X100255908Y-95562517D01*
X100249501Y-95622116D01*
X100249500Y-95622135D01*
X100249500Y-97417870D01*
X100249501Y-97417876D01*
X100255908Y-97477483D01*
X100306202Y-97612328D01*
X100306206Y-97612335D01*
X100392452Y-97727544D01*
X100392455Y-97727547D01*
X100507664Y-97813793D01*
X100507671Y-97813797D01*
X100639081Y-97862810D01*
X100695015Y-97904681D01*
X100719432Y-97970145D01*
X100704580Y-98038418D01*
X100683430Y-98066673D01*
X100561503Y-98188600D01*
X100425965Y-98382169D01*
X100425964Y-98382171D01*
X100326098Y-98596335D01*
X100326094Y-98596344D01*
X100264938Y-98824586D01*
X100264936Y-98824596D01*
X100244341Y-99059999D01*
X100244341Y-99060000D01*
X100264936Y-99295403D01*
X100264938Y-99295413D01*
X100326094Y-99523655D01*
X100326096Y-99523659D01*
X100326097Y-99523663D01*
X100425965Y-99737830D01*
X100425967Y-99737834D01*
X100561501Y-99931395D01*
X100561506Y-99931402D01*
X100728597Y-100098493D01*
X100728603Y-100098498D01*
X100914158Y-100228425D01*
X100957783Y-100283002D01*
X100964977Y-100352500D01*
X100933454Y-100414855D01*
X100914158Y-100431575D01*
X100728597Y-100561505D01*
X100561505Y-100728597D01*
X100425965Y-100922169D01*
X100425964Y-100922171D01*
X100326098Y-101136335D01*
X100326094Y-101136344D01*
X100264938Y-101364586D01*
X100264936Y-101364596D01*
X100244341Y-101599999D01*
X100244341Y-101600000D01*
X100264936Y-101835403D01*
X100264938Y-101835413D01*
X100326094Y-102063655D01*
X100326096Y-102063659D01*
X100326097Y-102063663D01*
X100425965Y-102277830D01*
X100425967Y-102277834D01*
X100561501Y-102471395D01*
X100561506Y-102471402D01*
X100728597Y-102638493D01*
X100728603Y-102638498D01*
X100914158Y-102768425D01*
X100957783Y-102823002D01*
X100964977Y-102892500D01*
X100933454Y-102954855D01*
X100914158Y-102971575D01*
X100728597Y-103101505D01*
X100561506Y-103268596D01*
X100443854Y-103436623D01*
X100389277Y-103480248D01*
X100342279Y-103489500D01*
X99630929Y-103489500D01*
X99505261Y-103514497D01*
X99505255Y-103514499D01*
X99386874Y-103563534D01*
X99280326Y-103634726D01*
X97284726Y-105630326D01*
X97213534Y-105736874D01*
X97164499Y-105855255D01*
X97164497Y-105855261D01*
X97139500Y-105980928D01*
X97139500Y-105980931D01*
X97139500Y-138494069D01*
X97142768Y-138510499D01*
X97143795Y-138515658D01*
X97143794Y-138515658D01*
X97143795Y-138515661D01*
X97164497Y-138619736D01*
X97164499Y-138619744D01*
X97197339Y-138699028D01*
X97213535Y-138738127D01*
X97274200Y-138828920D01*
X97284726Y-138844673D01*
X97284727Y-138844674D01*
X106809724Y-148369669D01*
X106900327Y-148460272D01*
X106900332Y-148460277D01*
X107006866Y-148531461D01*
X107006872Y-148531464D01*
X107006873Y-148531465D01*
X107125256Y-148580501D01*
X107125260Y-148580501D01*
X107125261Y-148580502D01*
X107250928Y-148605500D01*
X107250931Y-148605500D01*
X155639071Y-148605500D01*
X155723615Y-148588682D01*
X155764744Y-148580501D01*
X155883127Y-148531465D01*
X155989669Y-148460277D01*
X162430276Y-142019669D01*
X162501465Y-141913127D01*
X162550501Y-141794744D01*
X162562440Y-141734723D01*
X162575500Y-141669069D01*
X162575500Y-141093746D01*
X162595185Y-141026707D01*
X162647989Y-140980952D01*
X162717147Y-140971008D01*
X162731583Y-140973969D01*
X162959592Y-141035063D01*
X163147918Y-141051539D01*
X163194999Y-141055659D01*
X163195000Y-141055659D01*
X163195001Y-141055659D01*
X163234234Y-141052226D01*
X163430408Y-141035063D01*
X163658663Y-140973903D01*
X163872830Y-140874035D01*
X164066401Y-140738495D01*
X164233495Y-140571401D01*
X164363425Y-140385842D01*
X164418002Y-140342217D01*
X164487500Y-140335023D01*
X164549855Y-140366546D01*
X164566575Y-140385842D01*
X164696500Y-140571395D01*
X164696505Y-140571401D01*
X164863599Y-140738495D01*
X164960384Y-140806265D01*
X165057165Y-140874032D01*
X165057167Y-140874033D01*
X165057170Y-140874035D01*
X165271337Y-140973903D01*
X165271343Y-140973904D01*
X165271344Y-140973905D01*
X165326285Y-140988626D01*
X165499592Y-141035063D01*
X165687918Y-141051539D01*
X165734999Y-141055659D01*
X165735000Y-141055659D01*
X165735001Y-141055659D01*
X165774234Y-141052226D01*
X165970408Y-141035063D01*
X166198663Y-140973903D01*
X166412830Y-140874035D01*
X166606401Y-140738495D01*
X166773495Y-140571401D01*
X166903425Y-140385842D01*
X166958002Y-140342217D01*
X167027500Y-140335023D01*
X167089855Y-140366546D01*
X167106575Y-140385842D01*
X167236500Y-140571395D01*
X167236505Y-140571401D01*
X167403599Y-140738495D01*
X167500384Y-140806265D01*
X167597165Y-140874032D01*
X167597167Y-140874033D01*
X167597170Y-140874035D01*
X167811337Y-140973903D01*
X167811343Y-140973904D01*
X167811344Y-140973905D01*
X167866285Y-140988626D01*
X168039592Y-141035063D01*
X168227918Y-141051539D01*
X168274999Y-141055659D01*
X168275000Y-141055659D01*
X168275001Y-141055659D01*
X168314234Y-141052226D01*
X168510408Y-141035063D01*
X168738663Y-140973903D01*
X168952830Y-140874035D01*
X169146401Y-140738495D01*
X169313495Y-140571401D01*
X169443425Y-140385842D01*
X169498002Y-140342217D01*
X169567500Y-140335023D01*
X169629855Y-140366546D01*
X169646575Y-140385842D01*
X169776500Y-140571395D01*
X169776505Y-140571401D01*
X169943599Y-140738495D01*
X170040384Y-140806265D01*
X170137165Y-140874032D01*
X170137167Y-140874033D01*
X170137170Y-140874035D01*
X170351337Y-140973903D01*
X170351343Y-140973904D01*
X170351344Y-140973905D01*
X170406285Y-140988626D01*
X170579592Y-141035063D01*
X170767918Y-141051539D01*
X170814999Y-141055659D01*
X170815000Y-141055659D01*
X170815001Y-141055659D01*
X170854234Y-141052226D01*
X171050408Y-141035063D01*
X171278663Y-140973903D01*
X171492830Y-140874035D01*
X171686401Y-140738495D01*
X171853495Y-140571401D01*
X171983425Y-140385842D01*
X172038002Y-140342217D01*
X172107500Y-140335023D01*
X172169855Y-140366546D01*
X172186575Y-140385842D01*
X172316500Y-140571395D01*
X172316505Y-140571401D01*
X172483599Y-140738495D01*
X172580384Y-140806265D01*
X172677165Y-140874032D01*
X172677167Y-140874033D01*
X172677170Y-140874035D01*
X172891337Y-140973903D01*
X172891343Y-140973904D01*
X172891344Y-140973905D01*
X172946285Y-140988626D01*
X173119592Y-141035063D01*
X173307918Y-141051539D01*
X173354999Y-141055659D01*
X173355000Y-141055659D01*
X173355001Y-141055659D01*
X173394234Y-141052226D01*
X173590408Y-141035063D01*
X173818663Y-140973903D01*
X174032830Y-140874035D01*
X174226401Y-140738495D01*
X174393495Y-140571401D01*
X174529035Y-140377830D01*
X174628903Y-140163663D01*
X174690063Y-139935408D01*
X174710659Y-139700000D01*
X174690063Y-139464592D01*
X174628903Y-139236337D01*
X174529035Y-139022171D01*
X174523424Y-139014158D01*
X174393496Y-138828600D01*
X174348449Y-138783553D01*
X174271567Y-138706671D01*
X174238084Y-138645351D01*
X174243068Y-138575659D01*
X174284939Y-138519725D01*
X174315915Y-138502810D01*
X174447331Y-138453796D01*
X174562546Y-138367546D01*
X174648796Y-138252331D01*
X174699091Y-138117483D01*
X174705500Y-138057873D01*
X174705499Y-136262128D01*
X174699091Y-136202517D01*
X174697810Y-136199083D01*
X174648797Y-136067671D01*
X174648793Y-136067664D01*
X174562547Y-135952455D01*
X174562544Y-135952452D01*
X174447335Y-135866206D01*
X174447328Y-135866202D01*
X174312482Y-135815908D01*
X174312483Y-135815908D01*
X174252883Y-135809501D01*
X174252881Y-135809500D01*
X174252873Y-135809500D01*
X174252864Y-135809500D01*
X172457129Y-135809500D01*
X172457123Y-135809501D01*
X172397516Y-135815908D01*
X172262671Y-135866202D01*
X172262664Y-135866206D01*
X172147455Y-135952452D01*
X172147452Y-135952455D01*
X172061206Y-136067664D01*
X172061203Y-136067669D01*
X172012189Y-136199083D01*
X171970317Y-136255016D01*
X171904853Y-136279433D01*
X171836580Y-136264581D01*
X171808326Y-136243430D01*
X171686402Y-136121506D01*
X171686395Y-136121501D01*
X171492834Y-135985967D01*
X171492830Y-135985965D01*
X171465498Y-135973220D01*
X171278663Y-135886097D01*
X171278659Y-135886096D01*
X171278655Y-135886094D01*
X171050413Y-135824938D01*
X171050403Y-135824936D01*
X170815001Y-135804341D01*
X170814999Y-135804341D01*
X170579596Y-135824936D01*
X170579586Y-135824938D01*
X170351344Y-135886094D01*
X170351335Y-135886098D01*
X170137171Y-135985964D01*
X170137169Y-135985965D01*
X169943597Y-136121505D01*
X169776505Y-136288597D01*
X169646575Y-136474158D01*
X169591998Y-136517783D01*
X169522500Y-136524977D01*
X169460145Y-136493454D01*
X169443425Y-136474158D01*
X169313494Y-136288597D01*
X169146402Y-136121506D01*
X169146395Y-136121501D01*
X168952834Y-135985967D01*
X168952830Y-135985965D01*
X168925498Y-135973220D01*
X168738663Y-135886097D01*
X168738659Y-135886096D01*
X168738655Y-135886094D01*
X168510413Y-135824938D01*
X168510403Y-135824936D01*
X168275001Y-135804341D01*
X168274999Y-135804341D01*
X168039596Y-135824936D01*
X168039586Y-135824938D01*
X167811344Y-135886094D01*
X167811335Y-135886098D01*
X167597171Y-135985964D01*
X167597169Y-135985965D01*
X167403597Y-136121505D01*
X167236505Y-136288597D01*
X167106575Y-136474158D01*
X167051998Y-136517783D01*
X166982500Y-136524977D01*
X166920145Y-136493454D01*
X166903425Y-136474158D01*
X166773494Y-136288597D01*
X166606402Y-136121506D01*
X166606395Y-136121501D01*
X166412834Y-135985967D01*
X166412830Y-135985965D01*
X166385498Y-135973220D01*
X166198663Y-135886097D01*
X166198659Y-135886096D01*
X166198655Y-135886094D01*
X165970413Y-135824938D01*
X165970403Y-135824936D01*
X165735001Y-135804341D01*
X165734999Y-135804341D01*
X165499596Y-135824936D01*
X165499586Y-135824938D01*
X165271344Y-135886094D01*
X165271335Y-135886098D01*
X165057171Y-135985964D01*
X165057169Y-135985965D01*
X164863597Y-136121505D01*
X164696505Y-136288597D01*
X164566575Y-136474158D01*
X164511998Y-136517783D01*
X164442500Y-136524977D01*
X164380145Y-136493454D01*
X164363425Y-136474158D01*
X164233494Y-136288597D01*
X164066402Y-136121506D01*
X164066395Y-136121501D01*
X163872834Y-135985967D01*
X163872830Y-135985965D01*
X163845498Y-135973220D01*
X163658663Y-135886097D01*
X163658659Y-135886096D01*
X163658655Y-135886094D01*
X163430413Y-135824938D01*
X163430403Y-135824936D01*
X163195001Y-135804341D01*
X163194999Y-135804341D01*
X162959596Y-135824936D01*
X162959586Y-135824938D01*
X162731344Y-135886094D01*
X162731335Y-135886098D01*
X162517171Y-135985964D01*
X162517169Y-135985965D01*
X162323597Y-136121505D01*
X162156505Y-136288597D01*
X162026575Y-136474158D01*
X161971998Y-136517783D01*
X161902500Y-136524977D01*
X161840145Y-136493454D01*
X161823425Y-136474158D01*
X161693494Y-136288597D01*
X161526402Y-136121506D01*
X161526395Y-136121501D01*
X161332834Y-135985967D01*
X161332830Y-135985965D01*
X161305498Y-135973220D01*
X161118663Y-135886097D01*
X161118659Y-135886096D01*
X161118655Y-135886094D01*
X160890413Y-135824938D01*
X160890403Y-135824936D01*
X160655001Y-135804341D01*
X160654999Y-135804341D01*
X160419596Y-135824936D01*
X160419586Y-135824938D01*
X160191344Y-135886094D01*
X160191335Y-135886098D01*
X159977171Y-135985964D01*
X159977169Y-135985965D01*
X159783597Y-136121505D01*
X159616505Y-136288597D01*
X159486575Y-136474158D01*
X159431998Y-136517783D01*
X159362500Y-136524977D01*
X159300145Y-136493454D01*
X159283425Y-136474158D01*
X159153494Y-136288597D01*
X158986402Y-136121506D01*
X158986395Y-136121501D01*
X158792834Y-135985967D01*
X158792830Y-135985965D01*
X158765498Y-135973220D01*
X158578663Y-135886097D01*
X158578659Y-135886096D01*
X158578655Y-135886094D01*
X158350413Y-135824938D01*
X158350403Y-135824936D01*
X158115001Y-135804341D01*
X158114999Y-135804341D01*
X157879596Y-135824936D01*
X157879586Y-135824938D01*
X157651344Y-135886094D01*
X157651335Y-135886098D01*
X157437171Y-135985964D01*
X157437169Y-135985965D01*
X157243597Y-136121505D01*
X157076505Y-136288597D01*
X156946575Y-136474158D01*
X156891998Y-136517783D01*
X156822500Y-136524977D01*
X156760145Y-136493454D01*
X156743425Y-136474158D01*
X156613494Y-136288597D01*
X156446402Y-136121506D01*
X156446395Y-136121501D01*
X156252834Y-135985967D01*
X156252830Y-135985965D01*
X156225498Y-135973220D01*
X156038663Y-135886097D01*
X156038659Y-135886096D01*
X156038655Y-135886094D01*
X155810413Y-135824938D01*
X155810403Y-135824936D01*
X155575001Y-135804341D01*
X155574999Y-135804341D01*
X155339596Y-135824936D01*
X155339586Y-135824938D01*
X155111344Y-135886094D01*
X155111335Y-135886098D01*
X154897171Y-135985964D01*
X154897169Y-135985965D01*
X154703597Y-136121505D01*
X154536505Y-136288597D01*
X154406575Y-136474158D01*
X154351998Y-136517783D01*
X154282500Y-136524977D01*
X154220145Y-136493454D01*
X154203425Y-136474158D01*
X154073494Y-136288597D01*
X153906402Y-136121506D01*
X153906395Y-136121501D01*
X153712834Y-135985967D01*
X153712830Y-135985965D01*
X153685498Y-135973220D01*
X153498663Y-135886097D01*
X153498659Y-135886096D01*
X153498655Y-135886094D01*
X153270413Y-135824938D01*
X153270403Y-135824936D01*
X153035001Y-135804341D01*
X153034999Y-135804341D01*
X152799596Y-135824936D01*
X152799586Y-135824938D01*
X152571344Y-135886094D01*
X152571335Y-135886098D01*
X152357171Y-135985964D01*
X152357169Y-135985965D01*
X152163597Y-136121505D01*
X151996505Y-136288597D01*
X151866575Y-136474158D01*
X151811998Y-136517783D01*
X151742500Y-136524977D01*
X151680145Y-136493454D01*
X151663425Y-136474158D01*
X151533494Y-136288597D01*
X151366402Y-136121506D01*
X151366395Y-136121501D01*
X151172834Y-135985967D01*
X151172830Y-135985965D01*
X151145498Y-135973220D01*
X150958663Y-135886097D01*
X150958659Y-135886096D01*
X150958655Y-135886094D01*
X150730413Y-135824938D01*
X150730403Y-135824936D01*
X150495001Y-135804341D01*
X150494999Y-135804341D01*
X150259596Y-135824936D01*
X150259586Y-135824938D01*
X150031344Y-135886094D01*
X150031335Y-135886098D01*
X149817171Y-135985964D01*
X149817169Y-135985965D01*
X149623597Y-136121505D01*
X149456505Y-136288597D01*
X149326575Y-136474158D01*
X149271998Y-136517783D01*
X149202500Y-136524977D01*
X149140145Y-136493454D01*
X149123425Y-136474158D01*
X148993494Y-136288597D01*
X148826402Y-136121506D01*
X148826395Y-136121501D01*
X148632834Y-135985967D01*
X148632830Y-135985965D01*
X148605498Y-135973220D01*
X148418663Y-135886097D01*
X148418659Y-135886096D01*
X148418655Y-135886094D01*
X148190413Y-135824938D01*
X148190403Y-135824936D01*
X147955001Y-135804341D01*
X147954999Y-135804341D01*
X147719596Y-135824936D01*
X147719586Y-135824938D01*
X147491344Y-135886094D01*
X147491335Y-135886098D01*
X147277171Y-135985964D01*
X147277169Y-135985965D01*
X147083597Y-136121505D01*
X146916505Y-136288597D01*
X146786575Y-136474158D01*
X146731998Y-136517783D01*
X146662500Y-136524977D01*
X146600145Y-136493454D01*
X146583425Y-136474158D01*
X146453494Y-136288597D01*
X146286402Y-136121506D01*
X146286395Y-136121501D01*
X146092834Y-135985967D01*
X146092830Y-135985965D01*
X146065498Y-135973220D01*
X145878663Y-135886097D01*
X145878659Y-135886096D01*
X145878655Y-135886094D01*
X145650413Y-135824938D01*
X145650403Y-135824936D01*
X145415001Y-135804341D01*
X145414999Y-135804341D01*
X145179596Y-135824936D01*
X145179586Y-135824938D01*
X144951344Y-135886094D01*
X144951335Y-135886098D01*
X144737171Y-135985964D01*
X144737169Y-135985965D01*
X144543597Y-136121505D01*
X144376505Y-136288597D01*
X144246575Y-136474158D01*
X144191998Y-136517783D01*
X144122500Y-136524977D01*
X144060145Y-136493454D01*
X144043425Y-136474158D01*
X143913494Y-136288597D01*
X143746402Y-136121506D01*
X143746395Y-136121501D01*
X143552834Y-135985967D01*
X143552830Y-135985965D01*
X143525498Y-135973220D01*
X143338663Y-135886097D01*
X143338659Y-135886096D01*
X143338655Y-135886094D01*
X143110413Y-135824938D01*
X143110403Y-135824936D01*
X142875001Y-135804341D01*
X142874999Y-135804341D01*
X142639596Y-135824936D01*
X142639586Y-135824938D01*
X142411344Y-135886094D01*
X142411335Y-135886098D01*
X142197171Y-135985964D01*
X142197169Y-135985965D01*
X142003597Y-136121505D01*
X141836505Y-136288597D01*
X141706575Y-136474158D01*
X141651998Y-136517783D01*
X141582500Y-136524977D01*
X141520145Y-136493454D01*
X141503425Y-136474158D01*
X141373494Y-136288597D01*
X141206402Y-136121506D01*
X141206401Y-136121505D01*
X141109860Y-136053906D01*
X141038376Y-136003852D01*
X140994751Y-135949275D01*
X140985500Y-135902277D01*
X140985500Y-134555928D01*
X140960502Y-134430261D01*
X140960501Y-134430260D01*
X140960501Y-134430256D01*
X140911465Y-134311873D01*
X140840277Y-134205331D01*
X140840275Y-134205329D01*
X140840273Y-134205326D01*
X135669673Y-129034726D01*
X135669669Y-129034723D01*
X135563127Y-128963535D01*
X135444744Y-128914499D01*
X135444738Y-128914497D01*
X135319071Y-128889500D01*
X135319069Y-128889500D01*
X122240808Y-128889500D01*
X122173769Y-128869815D01*
X122153127Y-128853181D01*
X118161819Y-124861873D01*
X118128334Y-124800550D01*
X118125500Y-124774192D01*
X118125500Y-73595928D01*
X118100502Y-73470261D01*
X118100501Y-73470260D01*
X118100501Y-73470256D01*
X118051465Y-73351873D01*
X117980277Y-73245331D01*
X117980275Y-73245329D01*
X117980273Y-73245326D01*
X110904673Y-66169726D01*
X110904669Y-66169723D01*
X110798127Y-66098535D01*
X110679744Y-66049499D01*
X110679738Y-66049497D01*
X110554071Y-66024500D01*
X110554069Y-66024500D01*
X101285808Y-66024500D01*
X101218769Y-66004815D01*
X101198127Y-65988181D01*
X99746819Y-64536873D01*
X99713334Y-64475550D01*
X99710500Y-64449192D01*
X99710500Y-59375808D01*
X99730185Y-59308769D01*
X99746819Y-59288127D01*
X99928127Y-59106819D01*
X99989450Y-59073334D01*
X100015808Y-59070500D01*
X100342278Y-59070500D01*
X100409317Y-59090185D01*
X100443853Y-59123377D01*
X100561501Y-59291396D01*
X100561506Y-59291402D01*
X100728597Y-59458493D01*
X100728603Y-59458498D01*
X100914594Y-59588730D01*
X100958219Y-59643307D01*
X100965413Y-59712805D01*
X100933890Y-59775160D01*
X100914595Y-59791880D01*
X100728922Y-59921890D01*
X100728920Y-59921891D01*
X100561891Y-60088920D01*
X100561886Y-60088926D01*
X100426400Y-60282420D01*
X100426399Y-60282422D01*
X100326570Y-60496507D01*
X100326567Y-60496513D01*
X100269364Y-60709999D01*
X100269364Y-60710000D01*
X101166988Y-60710000D01*
X101134075Y-60767007D01*
X101100000Y-60894174D01*
X101100000Y-61025826D01*
X101134075Y-61152993D01*
X101166988Y-61210000D01*
X100269364Y-61210000D01*
X100326567Y-61423486D01*
X100326570Y-61423492D01*
X100426399Y-61637578D01*
X100561894Y-61831082D01*
X100728917Y-61998105D01*
X100914595Y-62128119D01*
X100958219Y-62182696D01*
X100965412Y-62252195D01*
X100933890Y-62314549D01*
X100914595Y-62331269D01*
X100728594Y-62461508D01*
X100561505Y-62628597D01*
X100425965Y-62822169D01*
X100425964Y-62822171D01*
X100326098Y-63036335D01*
X100326094Y-63036344D01*
X100264938Y-63264586D01*
X100264936Y-63264596D01*
X100244341Y-63499999D01*
X100244341Y-63500000D01*
X100264936Y-63735403D01*
X100264938Y-63735413D01*
X100326094Y-63963655D01*
X100326096Y-63963659D01*
X100326097Y-63963663D01*
X100330000Y-63972032D01*
X100425965Y-64177830D01*
X100425967Y-64177834D01*
X100534281Y-64332521D01*
X100561505Y-64371401D01*
X100728599Y-64538495D01*
X100825384Y-64606265D01*
X100922165Y-64674032D01*
X100922167Y-64674033D01*
X100922170Y-64674035D01*
X101136337Y-64773903D01*
X101364592Y-64835063D01*
X101552918Y-64851539D01*
X101599999Y-64855659D01*
X101600000Y-64855659D01*
X101600001Y-64855659D01*
X101639234Y-64852226D01*
X101835408Y-64835063D01*
X102063663Y-64773903D01*
X102277830Y-64674035D01*
X102471401Y-64538495D01*
X102638495Y-64371401D01*
X102768425Y-64185842D01*
X102823002Y-64142217D01*
X102892500Y-64135023D01*
X102954855Y-64166546D01*
X102971575Y-64185842D01*
X103101500Y-64371395D01*
X103101505Y-64371401D01*
X103268599Y-64538495D01*
X103365384Y-64606265D01*
X103462165Y-64674032D01*
X103462167Y-64674033D01*
X103462170Y-64674035D01*
X103676337Y-64773903D01*
X103904592Y-64835063D01*
X104092918Y-64851539D01*
X104139999Y-64855659D01*
X104140000Y-64855659D01*
X104140001Y-64855659D01*
X104179234Y-64852226D01*
X104375408Y-64835063D01*
X104603663Y-64773903D01*
X104817830Y-64674035D01*
X105011401Y-64538495D01*
X105178495Y-64371401D01*
X105314035Y-64177830D01*
X105413903Y-63963663D01*
X105475063Y-63735408D01*
X105495659Y-63500000D01*
X105475063Y-63264592D01*
X105413903Y-63036337D01*
X105314035Y-62822171D01*
X105308425Y-62814158D01*
X105178494Y-62628597D01*
X105011402Y-62461506D01*
X105011401Y-62461505D01*
X104825405Y-62331269D01*
X104781781Y-62276692D01*
X104774588Y-62207193D01*
X104806110Y-62144839D01*
X104825405Y-62128119D01*
X105011082Y-61998105D01*
X105178105Y-61831082D01*
X105313600Y-61637578D01*
X105413429Y-61423492D01*
X105413432Y-61423486D01*
X105470636Y-61210000D01*
X104573012Y-61210000D01*
X104605925Y-61152993D01*
X104640000Y-61025826D01*
X104640000Y-60894174D01*
X104605925Y-60767007D01*
X104573012Y-60710000D01*
X105470636Y-60710000D01*
X105470635Y-60709999D01*
X105413432Y-60496513D01*
X105413429Y-60496507D01*
X105313600Y-60282422D01*
X105313599Y-60282420D01*
X105178113Y-60088926D01*
X105178108Y-60088920D01*
X105011078Y-59921890D01*
X104825405Y-59791879D01*
X104781780Y-59737302D01*
X104774588Y-59667804D01*
X104806110Y-59605449D01*
X104825406Y-59588730D01*
X105011401Y-59458495D01*
X105178495Y-59291401D01*
X105314035Y-59097830D01*
X105413903Y-58883663D01*
X105475063Y-58655408D01*
X105495659Y-58420000D01*
X105475063Y-58184592D01*
X105413903Y-57956337D01*
X105314035Y-57742171D01*
X105178495Y-57548599D01*
X105178494Y-57548597D01*
X105011402Y-57381506D01*
X105011396Y-57381501D01*
X104825842Y-57251575D01*
X104782217Y-57196998D01*
X104775023Y-57127500D01*
X104806546Y-57065145D01*
X104825842Y-57048425D01*
X104848026Y-57032891D01*
X105011401Y-56918495D01*
X105178495Y-56751401D01*
X105314035Y-56557830D01*
X105413903Y-56343663D01*
X105475063Y-56115408D01*
X105495659Y-55880000D01*
X105475063Y-55644592D01*
X105413903Y-55416337D01*
X105314035Y-55202171D01*
X105178495Y-55008599D01*
X105178494Y-55008597D01*
X105011402Y-54841506D01*
X105011396Y-54841501D01*
X104825842Y-54711575D01*
X104782217Y-54656998D01*
X104775023Y-54587500D01*
X104806546Y-54525145D01*
X104825842Y-54508425D01*
X104848026Y-54492891D01*
X105011401Y-54378495D01*
X105178495Y-54211401D01*
X105314035Y-54017830D01*
X105413903Y-53803663D01*
X105475063Y-53575408D01*
X105495659Y-53340000D01*
X105495659Y-53339996D01*
X111294916Y-53339996D01*
X111294916Y-53340003D01*
X111315235Y-53688869D01*
X111315236Y-53688880D01*
X111375914Y-54033002D01*
X111375916Y-54033011D01*
X111476145Y-54367800D01*
X111614555Y-54688670D01*
X111614561Y-54688683D01*
X111789289Y-54991322D01*
X111997967Y-55271625D01*
X112006148Y-55280296D01*
X112720079Y-54566365D01*
X112793094Y-54661521D01*
X112978479Y-54846906D01*
X113073632Y-54919919D01*
X112362818Y-55630733D01*
X112362819Y-55630734D01*
X112505484Y-55750445D01*
X112797461Y-55942480D01*
X113109739Y-56099314D01*
X113109745Y-56099316D01*
X113438130Y-56218838D01*
X113438133Y-56218839D01*
X113778171Y-56299429D01*
X114125276Y-56339999D01*
X114125277Y-56340000D01*
X114474723Y-56340000D01*
X114474723Y-56339999D01*
X114821827Y-56299429D01*
X114821829Y-56299429D01*
X115161866Y-56218839D01*
X115161869Y-56218838D01*
X115490254Y-56099316D01*
X115490260Y-56099314D01*
X115802538Y-55942480D01*
X116094509Y-55750449D01*
X116094510Y-55750448D01*
X116237179Y-55630734D01*
X116237180Y-55630733D01*
X115526367Y-54919919D01*
X115621521Y-54846906D01*
X115806906Y-54661521D01*
X115879919Y-54566367D01*
X116593849Y-55280297D01*
X116593851Y-55280296D01*
X116602022Y-55271636D01*
X116602033Y-55271623D01*
X116810710Y-54991322D01*
X116985438Y-54688683D01*
X116985444Y-54688670D01*
X117123854Y-54367800D01*
X117224083Y-54033011D01*
X117224085Y-54033002D01*
X117284763Y-53688880D01*
X117284764Y-53688869D01*
X117305084Y-53340003D01*
X117305084Y-53339996D01*
X117284764Y-52991130D01*
X117284763Y-52991119D01*
X117224085Y-52646997D01*
X117224083Y-52646988D01*
X117123854Y-52312199D01*
X116985444Y-51991329D01*
X116985438Y-51991316D01*
X116810710Y-51688677D01*
X116602032Y-51408374D01*
X116593850Y-51399702D01*
X115879919Y-52113632D01*
X115806906Y-52018479D01*
X115621521Y-51833094D01*
X115526366Y-51760079D01*
X116237180Y-51049265D01*
X116237179Y-51049264D01*
X116094519Y-50929557D01*
X115802538Y-50737519D01*
X115490260Y-50580685D01*
X115490254Y-50580683D01*
X115161869Y-50461161D01*
X115161866Y-50461160D01*
X114821828Y-50380570D01*
X114474723Y-50340000D01*
X114125277Y-50340000D01*
X113778172Y-50380570D01*
X113778170Y-50380570D01*
X113438133Y-50461160D01*
X113438130Y-50461161D01*
X113109745Y-50580683D01*
X113109739Y-50580685D01*
X112797461Y-50737519D01*
X112505480Y-50929557D01*
X112362819Y-51049264D01*
X112362818Y-51049265D01*
X113073633Y-51760079D01*
X112978479Y-51833094D01*
X112793094Y-52018479D01*
X112720080Y-52113633D01*
X112006148Y-51399701D01*
X112006147Y-51399702D01*
X111997976Y-51408363D01*
X111997972Y-51408368D01*
X111789289Y-51688677D01*
X111614561Y-51991316D01*
X111614555Y-51991329D01*
X111476145Y-52312199D01*
X111375916Y-52646988D01*
X111375914Y-52646997D01*
X111315236Y-52991119D01*
X111315235Y-52991130D01*
X111294916Y-53339996D01*
X105495659Y-53339996D01*
X105475063Y-53104592D01*
X105413903Y-52876337D01*
X105314035Y-52662171D01*
X105178495Y-52468599D01*
X105178494Y-52468597D01*
X105011402Y-52301506D01*
X105011396Y-52301501D01*
X104825842Y-52171575D01*
X104782217Y-52116998D01*
X104775023Y-52047500D01*
X104806546Y-51985145D01*
X104825842Y-51968425D01*
X104848026Y-51952891D01*
X105011401Y-51838495D01*
X105178495Y-51671401D01*
X105314035Y-51477830D01*
X105413903Y-51263663D01*
X105475063Y-51035408D01*
X105495659Y-50800000D01*
X105475063Y-50564592D01*
X105425755Y-50380570D01*
X105413905Y-50336344D01*
X105413904Y-50336343D01*
X105413903Y-50336337D01*
X105314035Y-50122171D01*
X105178495Y-49928599D01*
X105178494Y-49928597D01*
X105011402Y-49761506D01*
X105011395Y-49761501D01*
X104817834Y-49625967D01*
X104817830Y-49625965D01*
X104603663Y-49526097D01*
X104603659Y-49526096D01*
X104603655Y-49526094D01*
X104375413Y-49464938D01*
X104375403Y-49464936D01*
X104140001Y-49444341D01*
X104139999Y-49444341D01*
X103904590Y-49464937D01*
X103904589Y-49464937D01*
X103832008Y-49484384D01*
X103762158Y-49482720D01*
X103712236Y-49452290D01*
X103284674Y-49024727D01*
X103284673Y-49024726D01*
X103284669Y-49024723D01*
X103178127Y-48953535D01*
X103059744Y-48904499D01*
X103059738Y-48904497D01*
X102934071Y-48879500D01*
X102934069Y-48879500D01*
X99630931Y-48879500D01*
X99630929Y-48879500D01*
X99505261Y-48904497D01*
X99505255Y-48904499D01*
X99386874Y-48953534D01*
X99280326Y-49024726D01*
X99280325Y-49024727D01*
X94109725Y-54195328D01*
X94109723Y-54195331D01*
X94098986Y-54211401D01*
X94098984Y-54211402D01*
X94098984Y-54211403D01*
X94038535Y-54301870D01*
X93989499Y-54420255D01*
X93989497Y-54420261D01*
X93964500Y-54545928D01*
X92710000Y-54545928D01*
X92710000Y-48384000D01*
X92729685Y-48316961D01*
X92782489Y-48271206D01*
X92834000Y-48260000D01*
X119256000Y-48260000D01*
X119323039Y-48279685D01*
G37*
%TD.AperFunction*%
%TD*%
M02*
