M48
; DRILL file {KiCad 8.0.2} date 2024-05-14T21:46:49+0900
; FORMAT={-:-/ absolute / inch / decimal}
; #@! TF.CreationDate,2024-05-14T21:46:49+09:00
; #@! TF.GenerationSoftware,Kicad,Pcbnew,8.0.2
; #@! TF.FileFunction,Plated,1,2,PTH
FMAT,2
INCH
; #@! TA.AperFunction,Plated,PTH,ComponentDrill
T1C0.0394
; #@! TA.AperFunction,Plated,PTH,ComponentDrill
T2C0.0512
; #@! TA.AperFunction,Plated,PTH,ComponentDrill
T3C0.1575
%
G90
G05
T1
X4.0Y-2.0
X4.0Y-2.1
X4.0Y-2.2
X4.0Y-2.3
X4.0Y-2.4
X4.0Y-2.5
X4.0Y-2.9
X4.0Y-3.0
X4.0Y-3.1
X4.0Y-3.2
X4.0Y-3.3
X4.0Y-3.4
X4.0Y-3.8
X4.0Y-3.9
X4.0Y-4.0
X4.0Y-4.1
X4.0Y-4.2
X4.0Y-4.3
X4.0Y-4.7
X4.0Y-4.8
X4.0Y-4.9
X4.0Y-5.0
X4.0Y-5.1
X4.0Y-5.2
X4.1Y-2.0
X4.1Y-2.1
X4.1Y-2.2
X4.1Y-2.3
X4.1Y-2.4
X4.1Y-2.5
X4.1Y-2.9
X4.1Y-3.0
X4.1Y-3.1
X4.1Y-3.2
X4.1Y-3.3
X4.1Y-3.4
X4.1Y-3.8
X4.1Y-3.9
X4.1Y-4.0
X4.1Y-4.1
X4.1Y-4.2
X4.1Y-4.3
X4.1Y-4.7
X4.1Y-4.8
X4.1Y-4.9
X4.1Y-5.0
X4.1Y-5.1
X4.1Y-5.2
X5.125Y-5.4
X5.125Y-5.5
X5.225Y-5.4
X5.225Y-5.5
X5.325Y-5.4
X5.325Y-5.5
X5.425Y-5.4
X5.425Y-5.5
X5.525Y-5.4
X5.525Y-5.5
X5.625Y-5.4
X5.625Y-5.5
X5.725Y-5.4
X5.725Y-5.5
X5.825Y-5.4
X5.825Y-5.5
X5.925Y-5.4
X5.925Y-5.5
X6.025Y-5.4
X6.025Y-5.5
X6.125Y-5.4
X6.125Y-5.5
X6.225Y-5.4
X6.225Y-5.5
X6.325Y-5.4
X6.325Y-5.5
X6.425Y-5.4
X6.425Y-5.5
X6.525Y-5.4
X6.525Y-5.5
X6.625Y-5.4
X6.625Y-5.5
X6.725Y-5.4
X6.725Y-5.5
X6.825Y-5.4
X6.825Y-5.5
T2
X4.525Y-5.45
X4.825Y-5.45
T3
X3.875Y-5.75
X4.5Y-2.1
M30
