%TF.GenerationSoftware,KiCad,Pcbnew,8.0.2*%
%TF.CreationDate,2024-05-14T21:46:34+09:00*%
%TF.ProjectId,Gender_A7-100_ArduinoDUE,47656e64-6572-45f4-9137-2d3130305f41,rev?*%
%TF.SameCoordinates,Original*%
%TF.FileFunction,Legend,Top*%
%TF.FilePolarity,Positive*%
%FSLAX46Y46*%
G04 Gerber Fmt 4.6, Leading zero omitted, Abs format (unit mm)*
G04 Created by KiCad (PCBNEW 8.0.2) date 2024-05-14 21:46:34*
%MOMM*%
%LPD*%
G01*
G04 APERTURE LIST*
%ADD10C,0.150000*%
%ADD11C,0.120000*%
G04 APERTURE END LIST*
D10*
X97163095Y-141956819D02*
X97734523Y-141956819D01*
X97448809Y-142956819D02*
X97448809Y-141956819D01*
X98067857Y-142956819D02*
X98067857Y-141956819D01*
X98067857Y-141956819D02*
X98448809Y-141956819D01*
X98448809Y-141956819D02*
X98544047Y-142004438D01*
X98544047Y-142004438D02*
X98591666Y-142052057D01*
X98591666Y-142052057D02*
X98639285Y-142147295D01*
X98639285Y-142147295D02*
X98639285Y-142290152D01*
X98639285Y-142290152D02*
X98591666Y-142385390D01*
X98591666Y-142385390D02*
X98544047Y-142433009D01*
X98544047Y-142433009D02*
X98448809Y-142480628D01*
X98448809Y-142480628D02*
X98067857Y-142480628D01*
X99591666Y-142956819D02*
X99020238Y-142956819D01*
X99305952Y-142956819D02*
X99305952Y-141956819D01*
X99305952Y-141956819D02*
X99210714Y-142099676D01*
X99210714Y-142099676D02*
X99115476Y-142194914D01*
X99115476Y-142194914D02*
X99020238Y-142242533D01*
X101473095Y-149362438D02*
X101377857Y-149314819D01*
X101377857Y-149314819D02*
X101235000Y-149314819D01*
X101235000Y-149314819D02*
X101092143Y-149362438D01*
X101092143Y-149362438D02*
X100996905Y-149457676D01*
X100996905Y-149457676D02*
X100949286Y-149552914D01*
X100949286Y-149552914D02*
X100901667Y-149743390D01*
X100901667Y-149743390D02*
X100901667Y-149886247D01*
X100901667Y-149886247D02*
X100949286Y-150076723D01*
X100949286Y-150076723D02*
X100996905Y-150171961D01*
X100996905Y-150171961D02*
X101092143Y-150267200D01*
X101092143Y-150267200D02*
X101235000Y-150314819D01*
X101235000Y-150314819D02*
X101330238Y-150314819D01*
X101330238Y-150314819D02*
X101473095Y-150267200D01*
X101473095Y-150267200D02*
X101520714Y-150219580D01*
X101520714Y-150219580D02*
X101520714Y-149886247D01*
X101520714Y-149886247D02*
X101330238Y-149886247D01*
X101949286Y-150314819D02*
X101949286Y-149314819D01*
X101949286Y-149314819D02*
X102520714Y-150314819D01*
X102520714Y-150314819D02*
X102520714Y-149314819D01*
X102996905Y-150314819D02*
X102996905Y-149314819D01*
X102996905Y-149314819D02*
X103235000Y-149314819D01*
X103235000Y-149314819D02*
X103377857Y-149362438D01*
X103377857Y-149362438D02*
X103473095Y-149457676D01*
X103473095Y-149457676D02*
X103520714Y-149552914D01*
X103520714Y-149552914D02*
X103568333Y-149743390D01*
X103568333Y-149743390D02*
X103568333Y-149886247D01*
X103568333Y-149886247D02*
X103520714Y-150076723D01*
X103520714Y-150076723D02*
X103473095Y-150171961D01*
X103473095Y-150171961D02*
X103377857Y-150267200D01*
X103377857Y-150267200D02*
X103235000Y-150314819D01*
X103235000Y-150314819D02*
X102996905Y-150314819D01*
X117993095Y-135484819D02*
X118564523Y-135484819D01*
X118278809Y-136484819D02*
X118278809Y-135484819D01*
X118897857Y-136484819D02*
X118897857Y-135484819D01*
X118897857Y-135484819D02*
X119278809Y-135484819D01*
X119278809Y-135484819D02*
X119374047Y-135532438D01*
X119374047Y-135532438D02*
X119421666Y-135580057D01*
X119421666Y-135580057D02*
X119469285Y-135675295D01*
X119469285Y-135675295D02*
X119469285Y-135818152D01*
X119469285Y-135818152D02*
X119421666Y-135913390D01*
X119421666Y-135913390D02*
X119374047Y-135961009D01*
X119374047Y-135961009D02*
X119278809Y-136008628D01*
X119278809Y-136008628D02*
X118897857Y-136008628D01*
X119802619Y-135484819D02*
X120421666Y-135484819D01*
X120421666Y-135484819D02*
X120088333Y-135865771D01*
X120088333Y-135865771D02*
X120231190Y-135865771D01*
X120231190Y-135865771D02*
X120326428Y-135913390D01*
X120326428Y-135913390D02*
X120374047Y-135961009D01*
X120374047Y-135961009D02*
X120421666Y-136056247D01*
X120421666Y-136056247D02*
X120421666Y-136294342D01*
X120421666Y-136294342D02*
X120374047Y-136389580D01*
X120374047Y-136389580D02*
X120326428Y-136437200D01*
X120326428Y-136437200D02*
X120231190Y-136484819D01*
X120231190Y-136484819D02*
X119945476Y-136484819D01*
X119945476Y-136484819D02*
X119850238Y-136437200D01*
X119850238Y-136437200D02*
X119802619Y-136389580D01*
X117983095Y-141107438D02*
X117887857Y-141059819D01*
X117887857Y-141059819D02*
X117745000Y-141059819D01*
X117745000Y-141059819D02*
X117602143Y-141107438D01*
X117602143Y-141107438D02*
X117506905Y-141202676D01*
X117506905Y-141202676D02*
X117459286Y-141297914D01*
X117459286Y-141297914D02*
X117411667Y-141488390D01*
X117411667Y-141488390D02*
X117411667Y-141631247D01*
X117411667Y-141631247D02*
X117459286Y-141821723D01*
X117459286Y-141821723D02*
X117506905Y-141916961D01*
X117506905Y-141916961D02*
X117602143Y-142012200D01*
X117602143Y-142012200D02*
X117745000Y-142059819D01*
X117745000Y-142059819D02*
X117840238Y-142059819D01*
X117840238Y-142059819D02*
X117983095Y-142012200D01*
X117983095Y-142012200D02*
X118030714Y-141964580D01*
X118030714Y-141964580D02*
X118030714Y-141631247D01*
X118030714Y-141631247D02*
X117840238Y-141631247D01*
X118459286Y-142059819D02*
X118459286Y-141059819D01*
X118459286Y-141059819D02*
X119030714Y-142059819D01*
X119030714Y-142059819D02*
X119030714Y-141059819D01*
X119506905Y-142059819D02*
X119506905Y-141059819D01*
X119506905Y-141059819D02*
X119745000Y-141059819D01*
X119745000Y-141059819D02*
X119887857Y-141107438D01*
X119887857Y-141107438D02*
X119983095Y-141202676D01*
X119983095Y-141202676D02*
X120030714Y-141297914D01*
X120030714Y-141297914D02*
X120078333Y-141488390D01*
X120078333Y-141488390D02*
X120078333Y-141631247D01*
X120078333Y-141631247D02*
X120030714Y-141821723D01*
X120030714Y-141821723D02*
X119983095Y-141916961D01*
X119983095Y-141916961D02*
X119887857Y-142012200D01*
X119887857Y-142012200D02*
X119745000Y-142059819D01*
X119745000Y-142059819D02*
X119506905Y-142059819D01*
X113038095Y-49246819D02*
X113609523Y-49246819D01*
X113323809Y-50246819D02*
X113323809Y-49246819D01*
X113942857Y-50246819D02*
X113942857Y-49246819D01*
X113942857Y-49246819D02*
X114323809Y-49246819D01*
X114323809Y-49246819D02*
X114419047Y-49294438D01*
X114419047Y-49294438D02*
X114466666Y-49342057D01*
X114466666Y-49342057D02*
X114514285Y-49437295D01*
X114514285Y-49437295D02*
X114514285Y-49580152D01*
X114514285Y-49580152D02*
X114466666Y-49675390D01*
X114466666Y-49675390D02*
X114419047Y-49723009D01*
X114419047Y-49723009D02*
X114323809Y-49770628D01*
X114323809Y-49770628D02*
X113942857Y-49770628D01*
X114895238Y-49342057D02*
X114942857Y-49294438D01*
X114942857Y-49294438D02*
X115038095Y-49246819D01*
X115038095Y-49246819D02*
X115276190Y-49246819D01*
X115276190Y-49246819D02*
X115371428Y-49294438D01*
X115371428Y-49294438D02*
X115419047Y-49342057D01*
X115419047Y-49342057D02*
X115466666Y-49437295D01*
X115466666Y-49437295D02*
X115466666Y-49532533D01*
X115466666Y-49532533D02*
X115419047Y-49675390D01*
X115419047Y-49675390D02*
X114847619Y-50246819D01*
X114847619Y-50246819D02*
X115466666Y-50246819D01*
X113538095Y-56392438D02*
X113442857Y-56344819D01*
X113442857Y-56344819D02*
X113300000Y-56344819D01*
X113300000Y-56344819D02*
X113157143Y-56392438D01*
X113157143Y-56392438D02*
X113061905Y-56487676D01*
X113061905Y-56487676D02*
X113014286Y-56582914D01*
X113014286Y-56582914D02*
X112966667Y-56773390D01*
X112966667Y-56773390D02*
X112966667Y-56916247D01*
X112966667Y-56916247D02*
X113014286Y-57106723D01*
X113014286Y-57106723D02*
X113061905Y-57201961D01*
X113061905Y-57201961D02*
X113157143Y-57297200D01*
X113157143Y-57297200D02*
X113300000Y-57344819D01*
X113300000Y-57344819D02*
X113395238Y-57344819D01*
X113395238Y-57344819D02*
X113538095Y-57297200D01*
X113538095Y-57297200D02*
X113585714Y-57249580D01*
X113585714Y-57249580D02*
X113585714Y-56916247D01*
X113585714Y-56916247D02*
X113395238Y-56916247D01*
X114014286Y-57344819D02*
X114014286Y-56344819D01*
X114014286Y-56344819D02*
X114585714Y-57344819D01*
X114585714Y-57344819D02*
X114585714Y-56344819D01*
X115061905Y-57344819D02*
X115061905Y-56344819D01*
X115061905Y-56344819D02*
X115300000Y-56344819D01*
X115300000Y-56344819D02*
X115442857Y-56392438D01*
X115442857Y-56392438D02*
X115538095Y-56487676D01*
X115538095Y-56487676D02*
X115585714Y-56582914D01*
X115585714Y-56582914D02*
X115633333Y-56773390D01*
X115633333Y-56773390D02*
X115633333Y-56916247D01*
X115633333Y-56916247D02*
X115585714Y-57106723D01*
X115585714Y-57106723D02*
X115538095Y-57201961D01*
X115538095Y-57201961D02*
X115442857Y-57297200D01*
X115442857Y-57297200D02*
X115300000Y-57344819D01*
X115300000Y-57344819D02*
X115061905Y-57344819D01*
X97028095Y-49619819D02*
X97028095Y-50334104D01*
X97028095Y-50334104D02*
X96980476Y-50476961D01*
X96980476Y-50476961D02*
X96885238Y-50572200D01*
X96885238Y-50572200D02*
X96742381Y-50619819D01*
X96742381Y-50619819D02*
X96647143Y-50619819D01*
X97456667Y-50334104D02*
X97932857Y-50334104D01*
X97361429Y-50619819D02*
X97694762Y-49619819D01*
X97694762Y-49619819D02*
X98028095Y-50619819D01*
X98885238Y-50619819D02*
X98313810Y-50619819D01*
X98599524Y-50619819D02*
X98599524Y-49619819D01*
X98599524Y-49619819D02*
X98504286Y-49762676D01*
X98504286Y-49762676D02*
X98409048Y-49857914D01*
X98409048Y-49857914D02*
X98313810Y-49905533D01*
X96956666Y-95339819D02*
X96956666Y-96054104D01*
X96956666Y-96054104D02*
X96909047Y-96196961D01*
X96909047Y-96196961D02*
X96813809Y-96292200D01*
X96813809Y-96292200D02*
X96670952Y-96339819D01*
X96670952Y-96339819D02*
X96575714Y-96339819D01*
X98004285Y-96244580D02*
X97956666Y-96292200D01*
X97956666Y-96292200D02*
X97813809Y-96339819D01*
X97813809Y-96339819D02*
X97718571Y-96339819D01*
X97718571Y-96339819D02*
X97575714Y-96292200D01*
X97575714Y-96292200D02*
X97480476Y-96196961D01*
X97480476Y-96196961D02*
X97432857Y-96101723D01*
X97432857Y-96101723D02*
X97385238Y-95911247D01*
X97385238Y-95911247D02*
X97385238Y-95768390D01*
X97385238Y-95768390D02*
X97432857Y-95577914D01*
X97432857Y-95577914D02*
X97480476Y-95482676D01*
X97480476Y-95482676D02*
X97575714Y-95387438D01*
X97575714Y-95387438D02*
X97718571Y-95339819D01*
X97718571Y-95339819D02*
X97813809Y-95339819D01*
X97813809Y-95339819D02*
X97956666Y-95387438D01*
X97956666Y-95387438D02*
X98004285Y-95435057D01*
X98956666Y-96339819D02*
X98385238Y-96339819D01*
X98670952Y-96339819D02*
X98670952Y-95339819D01*
X98670952Y-95339819D02*
X98575714Y-95482676D01*
X98575714Y-95482676D02*
X98480476Y-95577914D01*
X98480476Y-95577914D02*
X98385238Y-95625533D01*
X96956666Y-72479819D02*
X96956666Y-73194104D01*
X96956666Y-73194104D02*
X96909047Y-73336961D01*
X96909047Y-73336961D02*
X96813809Y-73432200D01*
X96813809Y-73432200D02*
X96670952Y-73479819D01*
X96670952Y-73479819D02*
X96575714Y-73479819D01*
X97766190Y-72956009D02*
X97909047Y-73003628D01*
X97909047Y-73003628D02*
X97956666Y-73051247D01*
X97956666Y-73051247D02*
X98004285Y-73146485D01*
X98004285Y-73146485D02*
X98004285Y-73289342D01*
X98004285Y-73289342D02*
X97956666Y-73384580D01*
X97956666Y-73384580D02*
X97909047Y-73432200D01*
X97909047Y-73432200D02*
X97813809Y-73479819D01*
X97813809Y-73479819D02*
X97432857Y-73479819D01*
X97432857Y-73479819D02*
X97432857Y-72479819D01*
X97432857Y-72479819D02*
X97766190Y-72479819D01*
X97766190Y-72479819D02*
X97861428Y-72527438D01*
X97861428Y-72527438D02*
X97909047Y-72575057D01*
X97909047Y-72575057D02*
X97956666Y-72670295D01*
X97956666Y-72670295D02*
X97956666Y-72765533D01*
X97956666Y-72765533D02*
X97909047Y-72860771D01*
X97909047Y-72860771D02*
X97861428Y-72908390D01*
X97861428Y-72908390D02*
X97766190Y-72956009D01*
X97766190Y-72956009D02*
X97432857Y-72956009D01*
X98956666Y-73479819D02*
X98385238Y-73479819D01*
X98670952Y-73479819D02*
X98670952Y-72479819D01*
X98670952Y-72479819D02*
X98575714Y-72622676D01*
X98575714Y-72622676D02*
X98480476Y-72717914D01*
X98480476Y-72717914D02*
X98385238Y-72765533D01*
X96956666Y-118199819D02*
X96956666Y-118914104D01*
X96956666Y-118914104D02*
X96909047Y-119056961D01*
X96909047Y-119056961D02*
X96813809Y-119152200D01*
X96813809Y-119152200D02*
X96670952Y-119199819D01*
X96670952Y-119199819D02*
X96575714Y-119199819D01*
X97432857Y-119199819D02*
X97432857Y-118199819D01*
X97432857Y-118199819D02*
X97670952Y-118199819D01*
X97670952Y-118199819D02*
X97813809Y-118247438D01*
X97813809Y-118247438D02*
X97909047Y-118342676D01*
X97909047Y-118342676D02*
X97956666Y-118437914D01*
X97956666Y-118437914D02*
X98004285Y-118628390D01*
X98004285Y-118628390D02*
X98004285Y-118771247D01*
X98004285Y-118771247D02*
X97956666Y-118961723D01*
X97956666Y-118961723D02*
X97909047Y-119056961D01*
X97909047Y-119056961D02*
X97813809Y-119152200D01*
X97813809Y-119152200D02*
X97670952Y-119199819D01*
X97670952Y-119199819D02*
X97432857Y-119199819D01*
X98956666Y-119199819D02*
X98385238Y-119199819D01*
X98670952Y-119199819D02*
X98670952Y-118199819D01*
X98670952Y-118199819D02*
X98575714Y-118342676D01*
X98575714Y-118342676D02*
X98480476Y-118437914D01*
X98480476Y-118437914D02*
X98385238Y-118485533D01*
X175139819Y-138763333D02*
X175854104Y-138763333D01*
X175854104Y-138763333D02*
X175996961Y-138810952D01*
X175996961Y-138810952D02*
X176092200Y-138906190D01*
X176092200Y-138906190D02*
X176139819Y-139049047D01*
X176139819Y-139049047D02*
X176139819Y-139144285D01*
X176139819Y-137763333D02*
X176139819Y-138334761D01*
X176139819Y-138049047D02*
X175139819Y-138049047D01*
X175139819Y-138049047D02*
X175282676Y-138144285D01*
X175282676Y-138144285D02*
X175377914Y-138239523D01*
X175377914Y-138239523D02*
X175425533Y-138334761D01*
X148265238Y-132884104D02*
X148741428Y-132884104D01*
X148170000Y-133169819D02*
X148503333Y-132169819D01*
X148503333Y-132169819D02*
X148836666Y-133169819D01*
X149170000Y-133169819D02*
X149170000Y-132503152D01*
X149170000Y-132693628D02*
X149217619Y-132598390D01*
X149217619Y-132598390D02*
X149265238Y-132550771D01*
X149265238Y-132550771D02*
X149360476Y-132503152D01*
X149360476Y-132503152D02*
X149455714Y-132503152D01*
X150217619Y-133169819D02*
X150217619Y-132169819D01*
X150217619Y-133122200D02*
X150122381Y-133169819D01*
X150122381Y-133169819D02*
X149931905Y-133169819D01*
X149931905Y-133169819D02*
X149836667Y-133122200D01*
X149836667Y-133122200D02*
X149789048Y-133074580D01*
X149789048Y-133074580D02*
X149741429Y-132979342D01*
X149741429Y-132979342D02*
X149741429Y-132693628D01*
X149741429Y-132693628D02*
X149789048Y-132598390D01*
X149789048Y-132598390D02*
X149836667Y-132550771D01*
X149836667Y-132550771D02*
X149931905Y-132503152D01*
X149931905Y-132503152D02*
X150122381Y-132503152D01*
X150122381Y-132503152D02*
X150217619Y-132550771D01*
X151122381Y-132503152D02*
X151122381Y-133169819D01*
X150693810Y-132503152D02*
X150693810Y-133026961D01*
X150693810Y-133026961D02*
X150741429Y-133122200D01*
X150741429Y-133122200D02*
X150836667Y-133169819D01*
X150836667Y-133169819D02*
X150979524Y-133169819D01*
X150979524Y-133169819D02*
X151074762Y-133122200D01*
X151074762Y-133122200D02*
X151122381Y-133074580D01*
X151598572Y-133169819D02*
X151598572Y-132503152D01*
X151598572Y-132169819D02*
X151550953Y-132217438D01*
X151550953Y-132217438D02*
X151598572Y-132265057D01*
X151598572Y-132265057D02*
X151646191Y-132217438D01*
X151646191Y-132217438D02*
X151598572Y-132169819D01*
X151598572Y-132169819D02*
X151598572Y-132265057D01*
X152074762Y-132503152D02*
X152074762Y-133169819D01*
X152074762Y-132598390D02*
X152122381Y-132550771D01*
X152122381Y-132550771D02*
X152217619Y-132503152D01*
X152217619Y-132503152D02*
X152360476Y-132503152D01*
X152360476Y-132503152D02*
X152455714Y-132550771D01*
X152455714Y-132550771D02*
X152503333Y-132646009D01*
X152503333Y-132646009D02*
X152503333Y-133169819D01*
X153122381Y-133169819D02*
X153027143Y-133122200D01*
X153027143Y-133122200D02*
X152979524Y-133074580D01*
X152979524Y-133074580D02*
X152931905Y-132979342D01*
X152931905Y-132979342D02*
X152931905Y-132693628D01*
X152931905Y-132693628D02*
X152979524Y-132598390D01*
X152979524Y-132598390D02*
X153027143Y-132550771D01*
X153027143Y-132550771D02*
X153122381Y-132503152D01*
X153122381Y-132503152D02*
X153265238Y-132503152D01*
X153265238Y-132503152D02*
X153360476Y-132550771D01*
X153360476Y-132550771D02*
X153408095Y-132598390D01*
X153408095Y-132598390D02*
X153455714Y-132693628D01*
X153455714Y-132693628D02*
X153455714Y-132979342D01*
X153455714Y-132979342D02*
X153408095Y-133074580D01*
X153408095Y-133074580D02*
X153360476Y-133122200D01*
X153360476Y-133122200D02*
X153265238Y-133169819D01*
X153265238Y-133169819D02*
X153122381Y-133169819D01*
X153646191Y-133265057D02*
X154408095Y-133265057D01*
X154646191Y-133169819D02*
X154646191Y-132169819D01*
X154646191Y-132169819D02*
X154884286Y-132169819D01*
X154884286Y-132169819D02*
X155027143Y-132217438D01*
X155027143Y-132217438D02*
X155122381Y-132312676D01*
X155122381Y-132312676D02*
X155170000Y-132407914D01*
X155170000Y-132407914D02*
X155217619Y-132598390D01*
X155217619Y-132598390D02*
X155217619Y-132741247D01*
X155217619Y-132741247D02*
X155170000Y-132931723D01*
X155170000Y-132931723D02*
X155122381Y-133026961D01*
X155122381Y-133026961D02*
X155027143Y-133122200D01*
X155027143Y-133122200D02*
X154884286Y-133169819D01*
X154884286Y-133169819D02*
X154646191Y-133169819D01*
X155646191Y-133169819D02*
X155646191Y-132503152D01*
X155646191Y-132169819D02*
X155598572Y-132217438D01*
X155598572Y-132217438D02*
X155646191Y-132265057D01*
X155646191Y-132265057D02*
X155693810Y-132217438D01*
X155693810Y-132217438D02*
X155646191Y-132169819D01*
X155646191Y-132169819D02*
X155646191Y-132265057D01*
X156550952Y-132503152D02*
X156550952Y-133312676D01*
X156550952Y-133312676D02*
X156503333Y-133407914D01*
X156503333Y-133407914D02*
X156455714Y-133455533D01*
X156455714Y-133455533D02*
X156360476Y-133503152D01*
X156360476Y-133503152D02*
X156217619Y-133503152D01*
X156217619Y-133503152D02*
X156122381Y-133455533D01*
X156550952Y-133122200D02*
X156455714Y-133169819D01*
X156455714Y-133169819D02*
X156265238Y-133169819D01*
X156265238Y-133169819D02*
X156170000Y-133122200D01*
X156170000Y-133122200D02*
X156122381Y-133074580D01*
X156122381Y-133074580D02*
X156074762Y-132979342D01*
X156074762Y-132979342D02*
X156074762Y-132693628D01*
X156074762Y-132693628D02*
X156122381Y-132598390D01*
X156122381Y-132598390D02*
X156170000Y-132550771D01*
X156170000Y-132550771D02*
X156265238Y-132503152D01*
X156265238Y-132503152D02*
X156455714Y-132503152D01*
X156455714Y-132503152D02*
X156550952Y-132550771D01*
X157027143Y-133169819D02*
X157027143Y-132503152D01*
X157027143Y-132169819D02*
X156979524Y-132217438D01*
X156979524Y-132217438D02*
X157027143Y-132265057D01*
X157027143Y-132265057D02*
X157074762Y-132217438D01*
X157074762Y-132217438D02*
X157027143Y-132169819D01*
X157027143Y-132169819D02*
X157027143Y-132265057D01*
X157360476Y-132503152D02*
X157741428Y-132503152D01*
X157503333Y-132169819D02*
X157503333Y-133026961D01*
X157503333Y-133026961D02*
X157550952Y-133122200D01*
X157550952Y-133122200D02*
X157646190Y-133169819D01*
X157646190Y-133169819D02*
X157741428Y-133169819D01*
X158503333Y-133169819D02*
X158503333Y-132646009D01*
X158503333Y-132646009D02*
X158455714Y-132550771D01*
X158455714Y-132550771D02*
X158360476Y-132503152D01*
X158360476Y-132503152D02*
X158170000Y-132503152D01*
X158170000Y-132503152D02*
X158074762Y-132550771D01*
X158503333Y-133122200D02*
X158408095Y-133169819D01*
X158408095Y-133169819D02*
X158170000Y-133169819D01*
X158170000Y-133169819D02*
X158074762Y-133122200D01*
X158074762Y-133122200D02*
X158027143Y-133026961D01*
X158027143Y-133026961D02*
X158027143Y-132931723D01*
X158027143Y-132931723D02*
X158074762Y-132836485D01*
X158074762Y-132836485D02*
X158170000Y-132788866D01*
X158170000Y-132788866D02*
X158408095Y-132788866D01*
X158408095Y-132788866D02*
X158503333Y-132741247D01*
X159122381Y-133169819D02*
X159027143Y-133122200D01*
X159027143Y-133122200D02*
X158979524Y-133026961D01*
X158979524Y-133026961D02*
X158979524Y-132169819D01*
D11*
%TO.C,TP1*%
X101175000Y-146050000D02*
G75*
G02*
X95675000Y-146050000I-2750000J0D01*
G01*
X95675000Y-146050000D02*
G75*
G02*
X101175000Y-146050000I2750000J0D01*
G01*
%TO.C,TP3*%
X124155000Y-140030000D02*
X113255000Y-140030000D01*
X124155000Y-136830000D02*
X124155000Y-140030000D01*
X113255000Y-140030000D02*
X113255000Y-136830000D01*
X113255000Y-136830000D02*
X124155000Y-136830000D01*
%TO.C,TP2*%
X117050000Y-53340000D02*
G75*
G02*
X111550000Y-53340000I-2750000J0D01*
G01*
X111550000Y-53340000D02*
G75*
G02*
X117050000Y-53340000I2750000J0D01*
G01*
%TO.C,JA1*%
X100270000Y-49470000D02*
X101600000Y-49470000D01*
X100270000Y-50800000D02*
X100270000Y-49470000D01*
X100270000Y-52070000D02*
X100270000Y-64830000D01*
X100270000Y-52070000D02*
X102870000Y-52070000D01*
X100270000Y-64830000D02*
X105470000Y-64830000D01*
X102870000Y-49470000D02*
X105470000Y-49470000D01*
X102870000Y-52070000D02*
X102870000Y-49470000D01*
X105470000Y-49470000D02*
X105470000Y-64830000D01*
%TO.C,JC1*%
X100270000Y-95190000D02*
X101600000Y-95190000D01*
X100270000Y-96520000D02*
X100270000Y-95190000D01*
X100270000Y-97790000D02*
X100270000Y-110550000D01*
X100270000Y-97790000D02*
X102870000Y-97790000D01*
X100270000Y-110550000D02*
X105470000Y-110550000D01*
X102870000Y-95190000D02*
X105470000Y-95190000D01*
X102870000Y-97790000D02*
X102870000Y-95190000D01*
X105470000Y-95190000D02*
X105470000Y-110550000D01*
%TO.C,JB1*%
X100270000Y-72330000D02*
X101600000Y-72330000D01*
X100270000Y-73660000D02*
X100270000Y-72330000D01*
X100270000Y-74930000D02*
X100270000Y-87690000D01*
X100270000Y-74930000D02*
X102870000Y-74930000D01*
X100270000Y-87690000D02*
X105470000Y-87690000D01*
X102870000Y-72330000D02*
X105470000Y-72330000D01*
X102870000Y-74930000D02*
X102870000Y-72330000D01*
X105470000Y-72330000D02*
X105470000Y-87690000D01*
%TO.C,JD1*%
X100270000Y-118050000D02*
X101600000Y-118050000D01*
X100270000Y-119380000D02*
X100270000Y-118050000D01*
X100270000Y-120650000D02*
X100270000Y-133410000D01*
X100270000Y-120650000D02*
X102870000Y-120650000D01*
X100270000Y-133410000D02*
X105470000Y-133410000D01*
X102870000Y-118050000D02*
X105470000Y-118050000D01*
X102870000Y-120650000D02*
X102870000Y-118050000D01*
X105470000Y-118050000D02*
X105470000Y-133410000D01*
%TO.C,J1*%
X128845000Y-135830000D02*
X128845000Y-141030000D01*
X172085000Y-135830000D02*
X128845000Y-135830000D01*
X172085000Y-135830000D02*
X172085000Y-138430000D01*
X172085000Y-138430000D02*
X174685000Y-138430000D01*
X173355000Y-135830000D02*
X174685000Y-135830000D01*
X174685000Y-135830000D02*
X174685000Y-137160000D01*
X174685000Y-138430000D02*
X174685000Y-141030000D01*
X174685000Y-141030000D02*
X128845000Y-141030000D01*
%TD*%
M02*
