M48
; DRILL file {KiCad 8.0.3-8.0.3-0~ubuntu20.04.1} date 2024-07-01T18:25:35+0900
; FORMAT={-:-/ absolute / inch / decimal}
; #@! TF.CreationDate,2024-07-01T18:25:35+09:00
; #@! TF.GenerationSoftware,Kicad,Pcbnew,8.0.3-8.0.3-0~ubuntu20.04.1
; #@! TF.FileFunction,Plated,1,2,PTH
FMAT,2
INCH
; #@! TA.AperFunction,Plated,PTH,ViaDrill
T1C0.0118
; #@! TA.AperFunction,Plated,PTH,ComponentDrill
T2C0.0315
; #@! TA.AperFunction,Plated,PTH,ComponentDrill
T3C0.0394
; #@! TA.AperFunction,Plated,PTH,ComponentDrill
T4C0.1102
%
G90
G05
T1
X3.2606Y-7.126
X3.2803Y-5.2953
X3.3Y-5.7087
X3.3Y-6.5551
X3.3197Y-6.1614
X3.4449Y-4.626
X3.563Y-4.1142
X3.674Y-5.0
X3.674Y-5.4134
X3.674Y-5.8268
X3.674Y-6.2402
X3.674Y-6.6929
X3.674Y-7.126
X3.878Y-5.188
X3.9173Y-5.1624
X3.9567Y-5.1368
X3.989Y-5.3346
X3.9961Y-5.1112
X4.0087Y-5.7087
X4.0087Y-6.122
X4.0087Y-6.5551
X4.0354Y-5.0856
X4.048Y-7.126
X4.0748Y-5.0591
X4.1142Y-5.0335
X4.1535Y-4.9803
X4.1929Y-5.2756
X4.1929Y-6.8307
X4.2185Y-5.2362
X4.2185Y-6.7913
X4.2441Y-5.1969
X4.2461Y-6.752
X4.2717Y-5.1575
X4.2717Y-6.7126
X4.2972Y-5.1181
X4.2972Y-6.6732
X4.3228Y-5.0787
X4.3228Y-6.6339
X4.3504Y-5.0394
X4.3504Y-6.5945
X4.376Y-5.0
X4.376Y-6.561
X4.4291Y-5.0
X4.4291Y-6.4173
X4.4547Y-5.0394
X4.4547Y-6.378
X4.4882Y-5.0787
X4.4882Y-6.3386
X4.5138Y-5.1181
X4.5138Y-6.3051
X4.5472Y-5.1575
X4.5472Y-6.2795
X4.5728Y-5.1969
X4.5728Y-6.2402
X4.5984Y-5.2362
X4.5984Y-6.2008
X4.626Y-5.2756
X4.626Y-6.1614
X4.6831Y-5.81
X4.7087Y-5.8465
X4.7343Y-5.8868
X4.7598Y-5.9252
X4.7854Y-5.9646
X4.811Y-6.0039
X4.8366Y-6.0433
X4.8622Y-6.0827
T2
X3.0709Y-3.9173
X3.0709Y-4.0157
X3.9764Y-3.8976
X3.9764Y-3.9961
T3
X2.985Y-4.9606
X2.985Y-5.0606
X2.985Y-5.1606
X2.985Y-5.2606
X2.985Y-5.3606
X2.985Y-5.4606
X2.985Y-5.5606
X2.985Y-5.6606
X2.985Y-5.7606
X2.985Y-5.8606
X2.985Y-5.9606
X2.985Y-6.0606
X2.985Y-6.1606
X2.985Y-6.2606
X2.985Y-6.3606
X2.985Y-6.4606
X2.985Y-6.5606
X2.985Y-6.6606
X2.985Y-6.7606
X2.985Y-6.8606
X3.085Y-4.9606
X3.085Y-5.0606
X3.085Y-5.1606
X3.085Y-5.2606
X3.085Y-5.3606
X3.085Y-5.4606
X3.085Y-5.5606
X3.085Y-5.6606
X3.085Y-5.7606
X3.085Y-5.8606
X3.085Y-5.9606
X3.085Y-6.0606
X3.085Y-6.1606
X3.085Y-6.2606
X3.085Y-6.3606
X3.085Y-6.4606
X3.085Y-6.5606
X3.085Y-6.6606
X3.085Y-6.7606
X3.085Y-6.8606
X3.2858Y-6.9094
X3.3858Y-6.9094
X3.9262Y-3.5827
X4.0262Y-3.5827
X4.7425Y-3.5827
X4.8425Y-3.5827
X5.1969Y-3.563
X5.1969Y-3.663
X5.2969Y-3.563
X5.2969Y-3.663
X5.3969Y-3.563
X5.3969Y-3.663
X5.4969Y-3.563
X5.4969Y-3.663
X5.5969Y-3.563
X5.5969Y-3.663
X5.6969Y-3.563
X5.6969Y-3.663
X5.7969Y-3.563
X5.7969Y-3.663
X5.8969Y-3.563
X5.8969Y-3.663
X5.9969Y-3.563
X5.9969Y-3.663
X6.0969Y-3.563
X6.0969Y-3.663
X6.1969Y-3.563
X6.1969Y-3.663
X6.2969Y-3.563
X6.2969Y-3.663
X6.3969Y-3.563
X6.3969Y-3.663
X6.4969Y-3.563
X6.4969Y-3.663
X6.5969Y-3.563
X6.5969Y-3.663
X6.6969Y-3.563
X6.6969Y-3.663
X6.7969Y-3.563
X6.7969Y-3.663
X6.8969Y-3.563
X6.8969Y-3.663
X6.9969Y-3.563
X6.9969Y-3.663
X7.0969Y-3.563
X7.0969Y-3.663
X7.1969Y-3.563
X7.1969Y-3.663
X7.2969Y-3.563
X7.2969Y-3.663
T4
X3.0638Y-7.0866
X3.0906Y-3.2677
X4.7441Y-7.0866
X7.5Y-3.2874
T3
G00X3.3386Y-3.5236
M15
G01X3.3386Y-3.6024
M16
G05
G00X3.563Y-3.4449
M15
G01X3.4843Y-3.4449
M16
G05
G00X3.5728Y-3.689
M15
G01X3.4744Y-3.689
M16
G05
M30
