%TF.GenerationSoftware,KiCad,Pcbnew,8.0.3-8.0.3-0~ubuntu20.04.1*%
%TF.CreationDate,2024-07-01T18:26:47+09:00*%
%TF.ProjectId,Gender_TANG25K_IO_LevelShift,47656e64-6572-45f5-9441-4e4732354b5f,rev?*%
%TF.SameCoordinates,Original*%
%TF.FileFunction,Soldermask,Bot*%
%TF.FilePolarity,Negative*%
%FSLAX46Y46*%
G04 Gerber Fmt 4.6, Leading zero omitted, Abs format (unit mm)*
G04 Created by KiCad (PCBNEW 8.0.3-8.0.3-0~ubuntu20.04.1) date 2024-07-01 18:26:47*
%MOMM*%
%LPD*%
G01*
G04 APERTURE LIST*
%ADD10R,1.700000X1.700000*%
%ADD11O,1.700000X1.700000*%
%ADD12C,4.800000*%
%ADD13R,1.600000X1.600000*%
%ADD14C,1.600000*%
%ADD15R,4.500000X2.000000*%
%ADD16O,4.000000X2.000000*%
%ADD17O,2.000000X4.000000*%
G04 APERTURE END LIST*
D10*
%TO.C,J6*%
X83460000Y-175500000D03*
D11*
X86000000Y-175500000D03*
%TD*%
D12*
%TO.C,TP4*%
X190500000Y-83500000D03*
%TD*%
%TO.C,TP3*%
X78500000Y-83000000D03*
%TD*%
D11*
%TO.C,J2*%
X123000000Y-91000000D03*
D10*
X120460000Y-91000000D03*
%TD*%
%TO.C,J5*%
X99725000Y-91000000D03*
D11*
X102265000Y-91000000D03*
%TD*%
D12*
%TO.C,TP1*%
X77820000Y-180000000D03*
%TD*%
D13*
%TO.C,C12*%
X101000000Y-101500000D03*
D14*
X101000000Y-99000000D03*
%TD*%
D10*
%TO.C,J1*%
X75820000Y-126000000D03*
D11*
X78360000Y-126000000D03*
X75820000Y-128540000D03*
X78360000Y-128540000D03*
X75820000Y-131080000D03*
X78360000Y-131080000D03*
X75820000Y-133620000D03*
X78360000Y-133620000D03*
X75820000Y-136160000D03*
X78360000Y-136160000D03*
X75820000Y-138700000D03*
X78360000Y-138700000D03*
X75820000Y-141240000D03*
X78360000Y-141240000D03*
X75820000Y-143780000D03*
X78360000Y-143780000D03*
X75820000Y-146320000D03*
X78360000Y-146320000D03*
X75820000Y-148860000D03*
X78360000Y-148860000D03*
X75820000Y-151400000D03*
X78360000Y-151400000D03*
X75820000Y-153940000D03*
X78360000Y-153940000D03*
X75820000Y-156480000D03*
X78360000Y-156480000D03*
X75820000Y-159020000D03*
X78360000Y-159020000D03*
X75820000Y-161560000D03*
X78360000Y-161560000D03*
X75820000Y-164100000D03*
X78360000Y-164100000D03*
X75820000Y-166640000D03*
X78360000Y-166640000D03*
X75820000Y-169180000D03*
X78360000Y-169180000D03*
X75820000Y-171720000D03*
X78360000Y-171720000D03*
X75820000Y-174260000D03*
X78360000Y-174260000D03*
%TD*%
D12*
%TO.C,TP2*%
X120500000Y-180000000D03*
%TD*%
D13*
%TO.C,C15*%
X78000000Y-102000000D03*
D14*
X78000000Y-99500000D03*
%TD*%
D15*
%TO.C,J3*%
X89500000Y-93700000D03*
D16*
X89500000Y-87500000D03*
D17*
X84800000Y-90500000D03*
%TD*%
D10*
%TO.C,J4*%
X132000000Y-93040000D03*
D11*
X132000000Y-90500000D03*
X134540000Y-93040000D03*
X134540000Y-90500000D03*
X137080000Y-93040000D03*
X137080000Y-90500000D03*
X139620000Y-93040000D03*
X139620000Y-90500000D03*
X142160000Y-93040000D03*
X142160000Y-90500000D03*
X144700000Y-93040000D03*
X144700000Y-90500000D03*
X147240000Y-93040000D03*
X147240000Y-90500000D03*
X149780000Y-93040000D03*
X149780000Y-90500000D03*
X152320000Y-93040000D03*
X152320000Y-90500000D03*
X154860000Y-93040000D03*
X154860000Y-90500000D03*
X157400000Y-93040000D03*
X157400000Y-90500000D03*
X159940000Y-93040000D03*
X159940000Y-90500000D03*
X162480000Y-93040000D03*
X162480000Y-90500000D03*
X165020000Y-93040000D03*
X165020000Y-90500000D03*
X167560000Y-93040000D03*
X167560000Y-90500000D03*
X170100000Y-93040000D03*
X170100000Y-90500000D03*
X172640000Y-93040000D03*
X172640000Y-90500000D03*
X175180000Y-93040000D03*
X175180000Y-90500000D03*
X177720000Y-93040000D03*
X177720000Y-90500000D03*
X180260000Y-93040000D03*
X180260000Y-90500000D03*
X182800000Y-93040000D03*
X182800000Y-90500000D03*
X185340000Y-93040000D03*
X185340000Y-90500000D03*
%TD*%
M02*
