%TF.GenerationSoftware,KiCad,Pcbnew,8.0.3-8.0.3-0~ubuntu20.04.1*%
%TF.CreationDate,2024-07-01T18:26:47+09:00*%
%TF.ProjectId,Gender_TANG25K_IO_LevelShift,47656e64-6572-45f5-9441-4e4732354b5f,rev?*%
%TF.SameCoordinates,Original*%
%TF.FileFunction,Copper,L2,Bot*%
%TF.FilePolarity,Positive*%
%FSLAX46Y46*%
G04 Gerber Fmt 4.6, Leading zero omitted, Abs format (unit mm)*
G04 Created by KiCad (PCBNEW 8.0.3-8.0.3-0~ubuntu20.04.1) date 2024-07-01 18:26:47*
%MOMM*%
%LPD*%
G01*
G04 APERTURE LIST*
%TA.AperFunction,ComponentPad*%
%ADD10R,1.700000X1.700000*%
%TD*%
%TA.AperFunction,ComponentPad*%
%ADD11O,1.700000X1.700000*%
%TD*%
%TA.AperFunction,ComponentPad*%
%ADD12C,4.800000*%
%TD*%
%TA.AperFunction,ComponentPad*%
%ADD13R,1.600000X1.600000*%
%TD*%
%TA.AperFunction,ComponentPad*%
%ADD14C,1.600000*%
%TD*%
%TA.AperFunction,ComponentPad*%
%ADD15R,4.500000X2.000000*%
%TD*%
%TA.AperFunction,ComponentPad*%
%ADD16O,4.000000X2.000000*%
%TD*%
%TA.AperFunction,ComponentPad*%
%ADD17O,2.000000X4.000000*%
%TD*%
%TA.AperFunction,ViaPad*%
%ADD18C,0.600000*%
%TD*%
%TA.AperFunction,ViaPad*%
%ADD19C,0.500000*%
%TD*%
%TA.AperFunction,Conductor*%
%ADD20C,0.300000*%
%TD*%
%TA.AperFunction,Conductor*%
%ADD21C,0.200000*%
%TD*%
G04 APERTURE END LIST*
D10*
%TO.P,J6,1,Pin_1*%
%TO.N,Net-(J6-Pin_1)*%
X83460000Y-175500000D03*
D11*
%TO.P,J6,2,Pin_2*%
%TO.N,Net-(J6-Pin_2)*%
X86000000Y-175500000D03*
%TD*%
D12*
%TO.P,TP4,1,1*%
%TO.N,GND*%
X190500000Y-83500000D03*
%TD*%
%TO.P,TP3,1,1*%
%TO.N,GND*%
X78500000Y-83000000D03*
%TD*%
D11*
%TO.P,J2,2,Pin_2*%
%TO.N,GND*%
X123000000Y-91000000D03*
D10*
%TO.P,J2,1,Pin_1*%
%TO.N,Net-(J2-Pin_1)*%
X120460000Y-91000000D03*
%TD*%
%TO.P,J5,1,Pin_1*%
%TO.N,VCCB*%
X99725000Y-91000000D03*
D11*
%TO.P,J5,2,Pin_2*%
%TO.N,GND*%
X102265000Y-91000000D03*
%TD*%
D12*
%TO.P,TP1,1,1*%
%TO.N,GND*%
X77820000Y-180000000D03*
%TD*%
D13*
%TO.P,C12,1*%
%TO.N,VCCB*%
X101000000Y-101500000D03*
D14*
%TO.P,C12,2*%
%TO.N,GND*%
X101000000Y-99000000D03*
%TD*%
D10*
%TO.P,J1,1,Pin_1*%
%TO.N,/IO_1*%
X75820000Y-126000000D03*
D11*
%TO.P,J1,2,Pin_2*%
%TO.N,/IO_2*%
X78360000Y-126000000D03*
%TO.P,J1,3,Pin_3*%
%TO.N,/IO_3*%
X75820000Y-128540000D03*
%TO.P,J1,4,Pin_4*%
%TO.N,/IO_4*%
X78360000Y-128540000D03*
%TO.P,J1,5,Pin_5*%
%TO.N,/IO_5*%
X75820000Y-131080000D03*
%TO.P,J1,6,Pin_6*%
%TO.N,/IO_6*%
X78360000Y-131080000D03*
%TO.P,J1,7,Pin_7*%
%TO.N,/IO_7*%
X75820000Y-133620000D03*
%TO.P,J1,8,Pin_8*%
%TO.N,/IO_8*%
X78360000Y-133620000D03*
%TO.P,J1,9,Pin_9*%
%TO.N,/IO_9*%
X75820000Y-136160000D03*
%TO.P,J1,10,Pin_10*%
%TO.N,/IO_10*%
X78360000Y-136160000D03*
%TO.P,J1,11,Pin_11*%
%TO.N,unconnected-(J1-Pin_11-Pad11)*%
X75820000Y-138700000D03*
%TO.P,J1,12,Pin_12*%
%TO.N,GND*%
X78360000Y-138700000D03*
%TO.P,J1,13,Pin_13*%
%TO.N,/IO_11*%
X75820000Y-141240000D03*
%TO.P,J1,14,Pin_14*%
%TO.N,/IO_12*%
X78360000Y-141240000D03*
%TO.P,J1,15,Pin_15*%
%TO.N,/IO_13*%
X75820000Y-143780000D03*
%TO.P,J1,16,Pin_16*%
%TO.N,/IO_14*%
X78360000Y-143780000D03*
%TO.P,J1,17,Pin_17*%
%TO.N,/IO_15*%
X75820000Y-146320000D03*
%TO.P,J1,18,Pin_18*%
%TO.N,/IO_16*%
X78360000Y-146320000D03*
%TO.P,J1,19,Pin_19*%
%TO.N,/IO_17*%
X75820000Y-148860000D03*
%TO.P,J1,20,Pin_20*%
%TO.N,/IO_18*%
X78360000Y-148860000D03*
%TO.P,J1,21,Pin_21*%
%TO.N,/IO_19*%
X75820000Y-151400000D03*
%TO.P,J1,22,Pin_22*%
%TO.N,/IO_20*%
X78360000Y-151400000D03*
%TO.P,J1,23,Pin_23*%
%TO.N,/IO_21*%
X75820000Y-153940000D03*
%TO.P,J1,24,Pin_24*%
%TO.N,/IO_22*%
X78360000Y-153940000D03*
%TO.P,J1,25,Pin_25*%
%TO.N,/IO_23*%
X75820000Y-156480000D03*
%TO.P,J1,26,Pin_26*%
%TO.N,/IO_24*%
X78360000Y-156480000D03*
%TO.P,J1,27,Pin_27*%
%TO.N,/IO_25*%
X75820000Y-159020000D03*
%TO.P,J1,28,Pin_28*%
%TO.N,/IO_26*%
X78360000Y-159020000D03*
%TO.P,J1,29,Pin_29*%
%TO.N,/IO_27*%
X75820000Y-161560000D03*
%TO.P,J1,30,Pin_30*%
%TO.N,/IO_28*%
X78360000Y-161560000D03*
%TO.P,J1,31,Pin_31*%
%TO.N,/IO_29*%
X75820000Y-164100000D03*
%TO.P,J1,32,Pin_32*%
%TO.N,/IO_30*%
X78360000Y-164100000D03*
%TO.P,J1,33,Pin_33*%
%TO.N,/IO_31*%
X75820000Y-166640000D03*
%TO.P,J1,34,Pin_34*%
%TO.N,/IO_32*%
X78360000Y-166640000D03*
%TO.P,J1,35,Pin_35*%
%TO.N,/IO_33*%
X75820000Y-169180000D03*
%TO.P,J1,36,Pin_36*%
%TO.N,/IO_34*%
X78360000Y-169180000D03*
%TO.P,J1,37,Pin_37*%
%TO.N,/IO_35*%
X75820000Y-171720000D03*
%TO.P,J1,38,Pin_38*%
%TO.N,/IO_36*%
X78360000Y-171720000D03*
%TO.P,J1,39,Pin_39*%
%TO.N,/IO_37*%
X75820000Y-174260000D03*
%TO.P,J1,40,Pin_40*%
%TO.N,/IO_38*%
X78360000Y-174260000D03*
%TD*%
D12*
%TO.P,TP2,1,1*%
%TO.N,GND*%
X120500000Y-180000000D03*
%TD*%
D13*
%TO.P,C15,1*%
%TO.N,VCCA*%
X78000000Y-102000000D03*
D14*
%TO.P,C15,2*%
%TO.N,GND*%
X78000000Y-99500000D03*
%TD*%
D15*
%TO.P,J3,1*%
%TO.N,Net-(U7-VI)*%
X89500000Y-93700000D03*
D16*
%TO.P,J3,2*%
%TO.N,GND*%
X89500000Y-87500000D03*
D17*
%TO.P,J3,3*%
X84800000Y-90500000D03*
%TD*%
D10*
%TO.P,J4,1,Pin_1*%
%TO.N,Net-(J2-Pin_1)*%
X132000000Y-93040000D03*
D11*
%TO.P,J4,2,Pin_2*%
X132000000Y-90500000D03*
%TO.P,J4,3,Pin_3*%
%TO.N,/DUT_1*%
X134540000Y-93040000D03*
%TO.P,J4,4,Pin_4*%
%TO.N,/DUT_2*%
X134540000Y-90500000D03*
%TO.P,J4,5,Pin_5*%
%TO.N,/DUT_3*%
X137080000Y-93040000D03*
%TO.P,J4,6,Pin_6*%
%TO.N,/DUT_4*%
X137080000Y-90500000D03*
%TO.P,J4,7,Pin_7*%
%TO.N,/DUT_5*%
X139620000Y-93040000D03*
%TO.P,J4,8,Pin_8*%
%TO.N,/DUT_6*%
X139620000Y-90500000D03*
%TO.P,J4,9,Pin_9*%
%TO.N,/DUT_7*%
X142160000Y-93040000D03*
%TO.P,J4,10,Pin_10*%
%TO.N,/DUT_8*%
X142160000Y-90500000D03*
%TO.P,J4,11,Pin_11*%
%TO.N,/DUT_9*%
X144700000Y-93040000D03*
%TO.P,J4,12,Pin_12*%
%TO.N,/DUT_10*%
X144700000Y-90500000D03*
%TO.P,J4,13,Pin_13*%
%TO.N,/DUT_11*%
X147240000Y-93040000D03*
%TO.P,J4,14,Pin_14*%
%TO.N,/DUT_12*%
X147240000Y-90500000D03*
%TO.P,J4,15,Pin_15*%
%TO.N,/DUT_13*%
X149780000Y-93040000D03*
%TO.P,J4,16,Pin_16*%
%TO.N,/DUT_14*%
X149780000Y-90500000D03*
%TO.P,J4,17,Pin_17*%
%TO.N,/DUT_15*%
X152320000Y-93040000D03*
%TO.P,J4,18,Pin_18*%
%TO.N,/DUT_16*%
X152320000Y-90500000D03*
%TO.P,J4,19,Pin_19*%
%TO.N,/DUT_17*%
X154860000Y-93040000D03*
%TO.P,J4,20,Pin_20*%
%TO.N,/DUT_18*%
X154860000Y-90500000D03*
%TO.P,J4,21,Pin_21*%
%TO.N,/DUT_19*%
X157400000Y-93040000D03*
%TO.P,J4,22,Pin_22*%
%TO.N,/DUT_20*%
X157400000Y-90500000D03*
%TO.P,J4,23,Pin_23*%
%TO.N,/DUT_21*%
X159940000Y-93040000D03*
%TO.P,J4,24,Pin_24*%
%TO.N,/DUT_22*%
X159940000Y-90500000D03*
%TO.P,J4,25,Pin_25*%
%TO.N,/DUT_23*%
X162480000Y-93040000D03*
%TO.P,J4,26,Pin_26*%
%TO.N,/DUT_24*%
X162480000Y-90500000D03*
%TO.P,J4,27,Pin_27*%
%TO.N,/DUT_25*%
X165020000Y-93040000D03*
%TO.P,J4,28,Pin_28*%
%TO.N,/DUT_26*%
X165020000Y-90500000D03*
%TO.P,J4,29,Pin_29*%
%TO.N,/DUT_27*%
X167560000Y-93040000D03*
%TO.P,J4,30,Pin_30*%
%TO.N,/DUT_28*%
X167560000Y-90500000D03*
%TO.P,J4,31,Pin_31*%
%TO.N,/DUT_29*%
X170100000Y-93040000D03*
%TO.P,J4,32,Pin_32*%
%TO.N,/DUT_30*%
X170100000Y-90500000D03*
%TO.P,J4,33,Pin_33*%
%TO.N,/DUT_31*%
X172640000Y-93040000D03*
%TO.P,J4,34,Pin_34*%
%TO.N,/DUT_32*%
X172640000Y-90500000D03*
%TO.P,J4,35,Pin_35*%
%TO.N,GND*%
X175180000Y-93040000D03*
%TO.P,J4,36,Pin_36*%
X175180000Y-90500000D03*
%TO.P,J4,37,Pin_37*%
%TO.N,/DUT_33*%
X177720000Y-93040000D03*
%TO.P,J4,38,Pin_38*%
%TO.N,/DUT_34*%
X177720000Y-90500000D03*
%TO.P,J4,39,Pin_39*%
%TO.N,/DUT_35*%
X180260000Y-93040000D03*
%TO.P,J4,40,Pin_40*%
%TO.N,/DUT_36*%
X180260000Y-90500000D03*
%TO.P,J4,41,Pin_41*%
%TO.N,/DUT_37*%
X182800000Y-93040000D03*
%TO.P,J4,42,Pin_42*%
%TO.N,/DUT_38*%
X182800000Y-90500000D03*
%TO.P,J4,43,Pin_43*%
%TO.N,/DUT_39*%
X185340000Y-93040000D03*
%TO.P,J4,44,Pin_44*%
%TO.N,/DUT_40*%
X185340000Y-90500000D03*
%TD*%
D18*
%TO.N,/DUT_40*%
X106500000Y-173500000D03*
%TO.N,/DUT_39*%
X107150000Y-172500000D03*
%TO.N,/DUT_38*%
X107850000Y-171500000D03*
%TO.N,/DUT_37*%
X108500000Y-170500000D03*
%TO.N,/DUT_36*%
X109150000Y-169500000D03*
%TO.N,/DUT_35*%
X109800000Y-168500000D03*
%TO.N,/DUT_34*%
X110500000Y-167500000D03*
%TO.N,/DUT_33*%
X111150000Y-166650000D03*
%TO.N,/DUT_32*%
X112500000Y-163000000D03*
%TO.N,/DUT_31*%
X113150000Y-162000000D03*
%TO.N,/DUT_30*%
X114000000Y-161000000D03*
%TO.N,/DUT_29*%
X114650000Y-160150000D03*
%TO.N,/DUT_28*%
X115500000Y-159500000D03*
%TO.N,/DUT_27*%
X116150000Y-158500000D03*
%TO.N,/DUT_26*%
X116800000Y-157500000D03*
%TO.N,/DUT_25*%
X117500000Y-156500000D03*
%TO.N,/DUT_33*%
X111150000Y-127000000D03*
%TO.N,/DUT_38*%
X107800000Y-132000000D03*
%TO.N,/DUT_39*%
X107150000Y-133000000D03*
%TO.N,/DUT_40*%
X106500000Y-134000000D03*
%TO.N,/DUT_37*%
X108500000Y-131000000D03*
%TO.N,/DUT_36*%
X109150000Y-130000000D03*
%TO.N,/DUT_35*%
X109800000Y-129000000D03*
%TO.N,/DUT_34*%
X110500000Y-128000000D03*
%TO.N,/DUT_32*%
X112500000Y-127000000D03*
%TO.N,/DUT_31*%
X113150000Y-128000000D03*
%TO.N,/DUT_30*%
X114000000Y-129000000D03*
%TO.N,/DUT_29*%
X114650000Y-130000000D03*
%TO.N,/DUT_28*%
X115500000Y-131000000D03*
%TO.N,/DUT_27*%
X116150000Y-132000000D03*
%TO.N,/DUT_26*%
X116800000Y-133000000D03*
%TO.N,/DUT_25*%
X117500000Y-134000000D03*
%TO.N,/DUT_24*%
X123500000Y-154500000D03*
%TO.N,/DUT_23*%
X122850000Y-153500000D03*
%TO.N,/DUT_22*%
X122200000Y-152500000D03*
%TO.N,/DUT_21*%
X121550000Y-151500000D03*
%TO.N,/DUT_19*%
X120250000Y-149525000D03*
%TO.N,/DUT_18*%
X119600000Y-148500000D03*
%TO.N,/DUT_17*%
X118950000Y-147575000D03*
%TO.N,/DUT_8*%
X98500000Y-131775000D03*
%TO.N,/DUT_7*%
X99500000Y-131125000D03*
%TO.N,/DUT_6*%
X100500000Y-130475000D03*
%TO.N,/DUT_5*%
X101500000Y-129825000D03*
%TO.N,/DUT_4*%
X102500000Y-129175000D03*
%TO.N,/DUT_3*%
X103500000Y-128500000D03*
%TO.N,/DUT_2*%
X104500000Y-127850000D03*
%TO.N,/DUT_1*%
X105500000Y-126500000D03*
D19*
%TO.N,GND*%
X93320000Y-137500000D03*
X82820000Y-181000000D03*
X93320000Y-158500000D03*
X84320000Y-156500000D03*
X102820000Y-181000000D03*
X93320000Y-170000000D03*
X87500000Y-117500000D03*
X93320000Y-148000000D03*
X101820000Y-155500000D03*
X101320000Y-135500000D03*
X93320000Y-181000000D03*
X83820000Y-166500000D03*
X93320000Y-127000000D03*
X83820000Y-145000000D03*
X101820000Y-166500000D03*
X83320000Y-134500000D03*
X101820000Y-145000000D03*
X90500000Y-104500000D03*
D18*
%TO.N,/DUT_20*%
X120900000Y-150500000D03*
%TD*%
D20*
%TO.N,/DUT_24*%
X123500000Y-154500000D02*
X123500000Y-100500000D01*
X163680000Y-94320000D02*
X163680000Y-91700000D01*
X123500000Y-100500000D02*
X125500000Y-98500000D01*
X163680000Y-91700000D02*
X162480000Y-90500000D01*
X125500000Y-98500000D02*
X159500000Y-98500000D01*
X159500000Y-98500000D02*
X163680000Y-94320000D01*
%TO.N,/DUT_23*%
X122850000Y-153500000D02*
X123000000Y-153350000D01*
X123000000Y-100292894D02*
X125292894Y-98000000D01*
X123000000Y-153350000D02*
X123000000Y-100292894D01*
X125292894Y-98000000D02*
X158722081Y-98000000D01*
X158722081Y-98000000D02*
X162480000Y-94242081D01*
X162480000Y-94242081D02*
X162480000Y-93040000D01*
%TO.N,/DUT_22*%
X122200000Y-152500000D02*
X122200000Y-100385787D01*
X122200000Y-100385787D02*
X125085787Y-97500000D01*
X125085787Y-97500000D02*
X158000000Y-97500000D01*
X158000000Y-97500000D02*
X161280000Y-94220000D01*
X161280000Y-94220000D02*
X161280000Y-91840000D01*
X161280000Y-91840000D02*
X159940000Y-90500000D01*
%TO.N,/DUT_21*%
X121550000Y-151500000D02*
X121550000Y-100328680D01*
X121550000Y-100328680D02*
X124878680Y-97000000D01*
X124878680Y-97000000D02*
X157182081Y-97000000D01*
X157182081Y-97000000D02*
X159940000Y-94242081D01*
X159940000Y-94242081D02*
X159940000Y-93040000D01*
%TO.N,/DUT_20*%
X120900000Y-150500000D02*
X120900000Y-100271573D01*
X120900000Y-100271573D02*
X124671573Y-96500000D01*
X124671573Y-96500000D02*
X156500000Y-96500000D01*
X156500000Y-96500000D02*
X158740000Y-94260000D01*
X158740000Y-94260000D02*
X158740000Y-91840000D01*
X158740000Y-91840000D02*
X157400000Y-90500000D01*
%TO.N,/DUT_19*%
X120250000Y-149525000D02*
X120250000Y-100214466D01*
X120250000Y-100214466D02*
X124464466Y-96000000D01*
X124464466Y-96000000D02*
X155642081Y-96000000D01*
X157400000Y-94242081D02*
X157400000Y-93040000D01*
X155642081Y-96000000D02*
X157400000Y-94242081D01*
%TO.N,/DUT_18*%
X119600000Y-148500000D02*
X119600000Y-100157359D01*
X119600000Y-100157359D02*
X124257359Y-95500000D01*
X124257359Y-95500000D02*
X155000000Y-95500000D01*
X155000000Y-95500000D02*
X156060000Y-94440000D01*
X156060000Y-94440000D02*
X156060000Y-91700000D01*
X156060000Y-91700000D02*
X154860000Y-90500000D01*
%TO.N,/DUT_17*%
X118950000Y-147575000D02*
X118950000Y-100100252D01*
X152900000Y-95000000D02*
X154860000Y-93040000D01*
X118950000Y-100100252D02*
X124050252Y-95000000D01*
X124050252Y-95000000D02*
X152900000Y-95000000D01*
%TO.N,/DUT_1*%
X134540000Y-93040000D02*
X133340000Y-91840000D01*
X133340000Y-91840000D02*
X133340000Y-89840000D01*
X133340000Y-89840000D02*
X132000000Y-88500000D01*
X132000000Y-88500000D02*
X116949742Y-88500000D01*
X116949742Y-88500000D02*
X112000000Y-93449742D01*
X112000000Y-93449742D02*
X112000000Y-120000000D01*
X112000000Y-120000000D02*
X105500000Y-126500000D01*
%TO.N,/DUT_2*%
X134540000Y-90500000D02*
X134540000Y-89297919D01*
X134540000Y-89297919D02*
X133242081Y-88000000D01*
X133242081Y-88000000D02*
X116742636Y-88000000D01*
X116742636Y-88000000D02*
X111500000Y-93242636D01*
X111500000Y-93242636D02*
X111500000Y-119500000D01*
X111500000Y-119500000D02*
X104500000Y-126500000D01*
X104500000Y-126500000D02*
X104500000Y-127850000D01*
%TO.N,/DUT_3*%
X137080000Y-93040000D02*
X135880000Y-91840000D01*
X103500000Y-126292894D02*
X103500000Y-128500000D01*
X135880000Y-91840000D02*
X135880000Y-88880000D01*
X135880000Y-88880000D02*
X134500000Y-87500000D01*
X134500000Y-87500000D02*
X116535530Y-87500000D01*
X116535530Y-87500000D02*
X111000000Y-93035530D01*
X111000000Y-93035530D02*
X111000000Y-118792894D01*
X111000000Y-118792894D02*
X103500000Y-126292894D01*
%TO.N,/DUT_4*%
X137080000Y-90500000D02*
X137080000Y-88580000D01*
X137080000Y-88580000D02*
X135500000Y-87000000D01*
X116328424Y-87000000D02*
X110500000Y-92828424D01*
X135500000Y-87000000D02*
X116328424Y-87000000D01*
X110500000Y-92828424D02*
X110500000Y-118585788D01*
X102500000Y-126585788D02*
X102500000Y-129175000D01*
X110500000Y-118585788D02*
X102500000Y-126585788D01*
%TO.N,/DUT_5*%
X139620000Y-93040000D02*
X138420000Y-91840000D01*
X138420000Y-91840000D02*
X138420000Y-88420000D01*
X138420000Y-88420000D02*
X136500000Y-86500000D01*
X136500000Y-86500000D02*
X116121318Y-86500000D01*
X116121318Y-86500000D02*
X110000000Y-92621318D01*
X110000000Y-92621318D02*
X110000000Y-118378682D01*
X110000000Y-118378682D02*
X101500000Y-126878682D01*
X101500000Y-126878682D02*
X101500000Y-129825000D01*
%TO.N,/DUT_6*%
X139620000Y-90500000D02*
X139620000Y-88120000D01*
X139620000Y-88120000D02*
X137500000Y-86000000D01*
X137500000Y-86000000D02*
X115914212Y-86000000D01*
X115914212Y-86000000D02*
X109500000Y-92414212D01*
X109500000Y-92414212D02*
X109500000Y-118171576D01*
X109500000Y-118171576D02*
X100500000Y-127171576D01*
X100500000Y-127171576D02*
X100500000Y-130475000D01*
%TO.N,/DUT_7*%
X142160000Y-93040000D02*
X140960000Y-91840000D01*
X140960000Y-91840000D02*
X140960000Y-87960000D01*
X140960000Y-87960000D02*
X138500000Y-85500000D01*
X138500000Y-85500000D02*
X115707106Y-85500000D01*
X115707106Y-85500000D02*
X109000000Y-92207106D01*
X109000000Y-92207106D02*
X109000000Y-117964470D01*
X109000000Y-117964470D02*
X99500000Y-127464470D01*
X99500000Y-127464470D02*
X99500000Y-131125000D01*
%TO.N,/DUT_8*%
X142160000Y-90500000D02*
X142160000Y-87660000D01*
X142160000Y-87660000D02*
X139500000Y-85000000D01*
X139500000Y-85000000D02*
X115500000Y-85000000D01*
X115500000Y-85000000D02*
X108500000Y-92000000D01*
X108500000Y-117757364D02*
X98500000Y-127757364D01*
X108500000Y-92000000D02*
X108500000Y-117757364D01*
X98500000Y-127757364D02*
X98500000Y-131775000D01*
%TO.N,/DUT_40*%
X106500000Y-173500000D02*
X106500000Y-134000000D01*
%TO.N,/DUT_39*%
X107150000Y-172500000D02*
X107150000Y-133000000D01*
%TO.N,/DUT_38*%
X107850000Y-171500000D02*
X107850000Y-169250000D01*
X107850000Y-169250000D02*
X107800000Y-169200000D01*
X107800000Y-169200000D02*
X107800000Y-132000000D01*
%TO.N,/DUT_36*%
X109150000Y-169500000D02*
X109150000Y-130000000D01*
%TO.N,/DUT_37*%
X108500000Y-170500000D02*
X108500000Y-131000000D01*
%TO.N,/DUT_35*%
X109800000Y-168500000D02*
X109800000Y-129000000D01*
%TO.N,/DUT_34*%
X110500000Y-128000000D02*
X110500000Y-167500000D01*
%TO.N,/DUT_33*%
X111150000Y-166650000D02*
X111150000Y-127000000D01*
%TO.N,/DUT_32*%
X112500000Y-127000000D02*
X112500000Y-163000000D01*
%TO.N,/DUT_31*%
X113150000Y-162000000D02*
X113150000Y-128000000D01*
%TO.N,/DUT_30*%
X114000000Y-161000000D02*
X114000000Y-129000000D01*
%TO.N,/DUT_29*%
X114650000Y-160150000D02*
X114650000Y-130000000D01*
%TO.N,/DUT_25*%
X117500000Y-134000000D02*
X117500000Y-156500000D01*
%TO.N,/DUT_28*%
X115500000Y-131000000D02*
X115500000Y-159500000D01*
%TO.N,/DUT_27*%
X116150000Y-158500000D02*
X116150000Y-132000000D01*
%TO.N,/DUT_26*%
X116800000Y-157500000D02*
X116800000Y-133000000D01*
D21*
%TO.N,GND*%
X80060000Y-137000000D02*
X82320000Y-137000000D01*
X83320000Y-136000000D02*
X83320000Y-134500000D01*
X78360000Y-138700000D02*
X80060000Y-137000000D01*
X82320000Y-137000000D02*
X83320000Y-136000000D01*
X80160000Y-140500000D02*
X82820000Y-140500000D01*
X78360000Y-138700000D02*
X80160000Y-140500000D01*
%TD*%
%TA.AperFunction,Conductor*%
%TO.N,GND*%
G36*
X194442539Y-79520185D02*
G01*
X194488294Y-79572989D01*
X194499500Y-79624500D01*
X194499500Y-98875500D01*
X194479815Y-98942539D01*
X194427011Y-98988294D01*
X194375500Y-98999500D01*
X160219808Y-98999500D01*
X160152769Y-98979815D01*
X160107014Y-98927011D01*
X160097070Y-98857853D01*
X160126095Y-98794297D01*
X160132127Y-98787819D01*
X164185273Y-94734673D01*
X164185277Y-94734669D01*
X164256465Y-94628127D01*
X164305501Y-94509743D01*
X164322650Y-94423535D01*
X164330500Y-94384069D01*
X164330500Y-94384064D01*
X164331616Y-94378454D01*
X164364001Y-94316543D01*
X164424716Y-94281968D01*
X164494486Y-94285707D01*
X164505637Y-94290261D01*
X164556337Y-94313903D01*
X164556343Y-94313904D01*
X164556344Y-94313905D01*
X164611285Y-94328626D01*
X164784592Y-94375063D01*
X164972918Y-94391539D01*
X165019999Y-94395659D01*
X165020000Y-94395659D01*
X165020001Y-94395659D01*
X165059234Y-94392226D01*
X165255408Y-94375063D01*
X165483663Y-94313903D01*
X165697830Y-94214035D01*
X165891401Y-94078495D01*
X166058495Y-93911401D01*
X166188425Y-93725842D01*
X166243002Y-93682217D01*
X166312500Y-93675023D01*
X166374855Y-93706546D01*
X166391575Y-93725842D01*
X166521500Y-93911395D01*
X166521505Y-93911401D01*
X166688599Y-94078495D01*
X166765485Y-94132331D01*
X166882165Y-94214032D01*
X166882167Y-94214033D01*
X166882170Y-94214035D01*
X167096337Y-94313903D01*
X167096343Y-94313904D01*
X167096344Y-94313905D01*
X167151285Y-94328626D01*
X167324592Y-94375063D01*
X167512918Y-94391539D01*
X167559999Y-94395659D01*
X167560000Y-94395659D01*
X167560001Y-94395659D01*
X167599234Y-94392226D01*
X167795408Y-94375063D01*
X168023663Y-94313903D01*
X168237830Y-94214035D01*
X168431401Y-94078495D01*
X168598495Y-93911401D01*
X168728425Y-93725842D01*
X168783002Y-93682217D01*
X168852500Y-93675023D01*
X168914855Y-93706546D01*
X168931575Y-93725842D01*
X169061500Y-93911395D01*
X169061505Y-93911401D01*
X169228599Y-94078495D01*
X169305485Y-94132331D01*
X169422165Y-94214032D01*
X169422167Y-94214033D01*
X169422170Y-94214035D01*
X169636337Y-94313903D01*
X169636343Y-94313904D01*
X169636344Y-94313905D01*
X169691285Y-94328626D01*
X169864592Y-94375063D01*
X170052918Y-94391539D01*
X170099999Y-94395659D01*
X170100000Y-94395659D01*
X170100001Y-94395659D01*
X170139234Y-94392226D01*
X170335408Y-94375063D01*
X170563663Y-94313903D01*
X170777830Y-94214035D01*
X170971401Y-94078495D01*
X171138495Y-93911401D01*
X171268425Y-93725842D01*
X171323002Y-93682217D01*
X171392500Y-93675023D01*
X171454855Y-93706546D01*
X171471575Y-93725842D01*
X171601500Y-93911395D01*
X171601505Y-93911401D01*
X171768599Y-94078495D01*
X171845485Y-94132331D01*
X171962165Y-94214032D01*
X171962167Y-94214033D01*
X171962170Y-94214035D01*
X172176337Y-94313903D01*
X172176343Y-94313904D01*
X172176344Y-94313905D01*
X172231285Y-94328626D01*
X172404592Y-94375063D01*
X172592918Y-94391539D01*
X172639999Y-94395659D01*
X172640000Y-94395659D01*
X172640001Y-94395659D01*
X172679234Y-94392226D01*
X172875408Y-94375063D01*
X173103663Y-94313903D01*
X173317830Y-94214035D01*
X173511401Y-94078495D01*
X173678495Y-93911401D01*
X173808730Y-93725405D01*
X173863307Y-93681781D01*
X173932805Y-93674587D01*
X173995160Y-93706110D01*
X174011879Y-93725405D01*
X174141890Y-93911078D01*
X174308917Y-94078105D01*
X174502421Y-94213600D01*
X174716507Y-94313429D01*
X174716516Y-94313433D01*
X174930000Y-94370634D01*
X174930000Y-93473012D01*
X174987007Y-93505925D01*
X175114174Y-93540000D01*
X175245826Y-93540000D01*
X175372993Y-93505925D01*
X175430000Y-93473012D01*
X175430000Y-94370633D01*
X175643483Y-94313433D01*
X175643492Y-94313429D01*
X175857578Y-94213600D01*
X176051082Y-94078105D01*
X176218105Y-93911082D01*
X176348119Y-93725405D01*
X176402696Y-93681781D01*
X176472195Y-93674588D01*
X176534549Y-93706110D01*
X176551269Y-93725405D01*
X176681505Y-93911401D01*
X176848599Y-94078495D01*
X176925485Y-94132331D01*
X177042165Y-94214032D01*
X177042167Y-94214033D01*
X177042170Y-94214035D01*
X177256337Y-94313903D01*
X177256343Y-94313904D01*
X177256344Y-94313905D01*
X177311285Y-94328626D01*
X177484592Y-94375063D01*
X177672918Y-94391539D01*
X177719999Y-94395659D01*
X177720000Y-94395659D01*
X177720001Y-94395659D01*
X177759234Y-94392226D01*
X177955408Y-94375063D01*
X178183663Y-94313903D01*
X178397830Y-94214035D01*
X178591401Y-94078495D01*
X178758495Y-93911401D01*
X178888425Y-93725842D01*
X178943002Y-93682217D01*
X179012500Y-93675023D01*
X179074855Y-93706546D01*
X179091575Y-93725842D01*
X179221500Y-93911395D01*
X179221505Y-93911401D01*
X179388599Y-94078495D01*
X179465485Y-94132331D01*
X179582165Y-94214032D01*
X179582167Y-94214033D01*
X179582170Y-94214035D01*
X179796337Y-94313903D01*
X179796343Y-94313904D01*
X179796344Y-94313905D01*
X179851285Y-94328626D01*
X180024592Y-94375063D01*
X180212918Y-94391539D01*
X180259999Y-94395659D01*
X180260000Y-94395659D01*
X180260001Y-94395659D01*
X180299234Y-94392226D01*
X180495408Y-94375063D01*
X180723663Y-94313903D01*
X180937830Y-94214035D01*
X181131401Y-94078495D01*
X181298495Y-93911401D01*
X181428425Y-93725842D01*
X181483002Y-93682217D01*
X181552500Y-93675023D01*
X181614855Y-93706546D01*
X181631575Y-93725842D01*
X181761500Y-93911395D01*
X181761505Y-93911401D01*
X181928599Y-94078495D01*
X182005485Y-94132331D01*
X182122165Y-94214032D01*
X182122167Y-94214033D01*
X182122170Y-94214035D01*
X182336337Y-94313903D01*
X182336343Y-94313904D01*
X182336344Y-94313905D01*
X182391285Y-94328626D01*
X182564592Y-94375063D01*
X182752918Y-94391539D01*
X182799999Y-94395659D01*
X182800000Y-94395659D01*
X182800001Y-94395659D01*
X182839234Y-94392226D01*
X183035408Y-94375063D01*
X183263663Y-94313903D01*
X183477830Y-94214035D01*
X183671401Y-94078495D01*
X183838495Y-93911401D01*
X183968425Y-93725842D01*
X184023002Y-93682217D01*
X184092500Y-93675023D01*
X184154855Y-93706546D01*
X184171575Y-93725842D01*
X184301500Y-93911395D01*
X184301505Y-93911401D01*
X184468599Y-94078495D01*
X184545485Y-94132331D01*
X184662165Y-94214032D01*
X184662167Y-94214033D01*
X184662170Y-94214035D01*
X184876337Y-94313903D01*
X184876343Y-94313904D01*
X184876344Y-94313905D01*
X184931285Y-94328626D01*
X185104592Y-94375063D01*
X185292918Y-94391539D01*
X185339999Y-94395659D01*
X185340000Y-94395659D01*
X185340001Y-94395659D01*
X185379234Y-94392226D01*
X185575408Y-94375063D01*
X185803663Y-94313903D01*
X186017830Y-94214035D01*
X186211401Y-94078495D01*
X186378495Y-93911401D01*
X186514035Y-93717830D01*
X186613903Y-93503663D01*
X186675063Y-93275408D01*
X186695659Y-93040000D01*
X186675063Y-92804592D01*
X186613903Y-92576337D01*
X186514035Y-92362171D01*
X186508731Y-92354595D01*
X186378494Y-92168597D01*
X186211402Y-92001506D01*
X186211396Y-92001501D01*
X186025842Y-91871575D01*
X185982217Y-91816998D01*
X185975023Y-91747500D01*
X186006546Y-91685145D01*
X186025842Y-91668425D01*
X186172368Y-91565826D01*
X186211401Y-91538495D01*
X186378495Y-91371401D01*
X186514035Y-91177830D01*
X186613903Y-90963663D01*
X186675063Y-90735408D01*
X186695659Y-90500000D01*
X186675063Y-90264592D01*
X186613903Y-90036337D01*
X186514035Y-89822171D01*
X186508731Y-89814595D01*
X186378494Y-89628597D01*
X186211402Y-89461506D01*
X186211395Y-89461501D01*
X186017834Y-89325967D01*
X186017830Y-89325965D01*
X185990498Y-89313220D01*
X185803663Y-89226097D01*
X185803659Y-89226096D01*
X185803655Y-89226094D01*
X185575413Y-89164938D01*
X185575403Y-89164936D01*
X185340001Y-89144341D01*
X185339999Y-89144341D01*
X185104596Y-89164936D01*
X185104586Y-89164938D01*
X184876344Y-89226094D01*
X184876335Y-89226098D01*
X184662171Y-89325964D01*
X184662169Y-89325965D01*
X184468597Y-89461505D01*
X184301505Y-89628597D01*
X184171575Y-89814158D01*
X184116998Y-89857783D01*
X184047500Y-89864977D01*
X183985145Y-89833454D01*
X183968425Y-89814158D01*
X183838494Y-89628597D01*
X183671402Y-89461506D01*
X183671395Y-89461501D01*
X183477834Y-89325967D01*
X183477830Y-89325965D01*
X183450498Y-89313220D01*
X183263663Y-89226097D01*
X183263659Y-89226096D01*
X183263655Y-89226094D01*
X183035413Y-89164938D01*
X183035403Y-89164936D01*
X182800001Y-89144341D01*
X182799999Y-89144341D01*
X182564596Y-89164936D01*
X182564586Y-89164938D01*
X182336344Y-89226094D01*
X182336335Y-89226098D01*
X182122171Y-89325964D01*
X182122169Y-89325965D01*
X181928597Y-89461505D01*
X181761505Y-89628597D01*
X181631575Y-89814158D01*
X181576998Y-89857783D01*
X181507500Y-89864977D01*
X181445145Y-89833454D01*
X181428425Y-89814158D01*
X181298494Y-89628597D01*
X181131402Y-89461506D01*
X181131395Y-89461501D01*
X180937834Y-89325967D01*
X180937830Y-89325965D01*
X180910498Y-89313220D01*
X180723663Y-89226097D01*
X180723659Y-89226096D01*
X180723655Y-89226094D01*
X180495413Y-89164938D01*
X180495403Y-89164936D01*
X180260001Y-89144341D01*
X180259999Y-89144341D01*
X180024596Y-89164936D01*
X180024586Y-89164938D01*
X179796344Y-89226094D01*
X179796335Y-89226098D01*
X179582171Y-89325964D01*
X179582169Y-89325965D01*
X179388597Y-89461505D01*
X179221505Y-89628597D01*
X179091575Y-89814158D01*
X179036998Y-89857783D01*
X178967500Y-89864977D01*
X178905145Y-89833454D01*
X178888425Y-89814158D01*
X178758494Y-89628597D01*
X178591402Y-89461506D01*
X178591395Y-89461501D01*
X178397834Y-89325967D01*
X178397830Y-89325965D01*
X178370498Y-89313220D01*
X178183663Y-89226097D01*
X178183659Y-89226096D01*
X178183655Y-89226094D01*
X177955413Y-89164938D01*
X177955403Y-89164936D01*
X177720001Y-89144341D01*
X177719999Y-89144341D01*
X177484596Y-89164936D01*
X177484586Y-89164938D01*
X177256344Y-89226094D01*
X177256335Y-89226098D01*
X177042171Y-89325964D01*
X177042169Y-89325965D01*
X176848597Y-89461505D01*
X176681508Y-89628594D01*
X176551269Y-89814595D01*
X176496692Y-89858219D01*
X176427193Y-89865412D01*
X176364839Y-89833890D01*
X176348119Y-89814594D01*
X176218113Y-89628926D01*
X176218108Y-89628920D01*
X176051082Y-89461894D01*
X175857578Y-89326399D01*
X175643492Y-89226570D01*
X175643486Y-89226567D01*
X175430000Y-89169364D01*
X175430000Y-90066988D01*
X175372993Y-90034075D01*
X175245826Y-90000000D01*
X175114174Y-90000000D01*
X174987007Y-90034075D01*
X174930000Y-90066988D01*
X174930000Y-89169364D01*
X174929999Y-89169364D01*
X174716513Y-89226567D01*
X174716507Y-89226570D01*
X174502422Y-89326399D01*
X174502420Y-89326400D01*
X174308926Y-89461886D01*
X174308920Y-89461891D01*
X174141891Y-89628920D01*
X174141890Y-89628922D01*
X174011880Y-89814595D01*
X173957303Y-89858219D01*
X173887804Y-89865412D01*
X173825450Y-89833890D01*
X173808730Y-89814594D01*
X173678494Y-89628597D01*
X173511402Y-89461506D01*
X173511395Y-89461501D01*
X173317834Y-89325967D01*
X173317830Y-89325965D01*
X173290498Y-89313220D01*
X173103663Y-89226097D01*
X173103659Y-89226096D01*
X173103655Y-89226094D01*
X172875413Y-89164938D01*
X172875403Y-89164936D01*
X172640001Y-89144341D01*
X172639999Y-89144341D01*
X172404596Y-89164936D01*
X172404586Y-89164938D01*
X172176344Y-89226094D01*
X172176335Y-89226098D01*
X171962171Y-89325964D01*
X171962169Y-89325965D01*
X171768597Y-89461505D01*
X171601505Y-89628597D01*
X171471575Y-89814158D01*
X171416998Y-89857783D01*
X171347500Y-89864977D01*
X171285145Y-89833454D01*
X171268425Y-89814158D01*
X171138494Y-89628597D01*
X170971402Y-89461506D01*
X170971395Y-89461501D01*
X170777834Y-89325967D01*
X170777830Y-89325965D01*
X170750498Y-89313220D01*
X170563663Y-89226097D01*
X170563659Y-89226096D01*
X170563655Y-89226094D01*
X170335413Y-89164938D01*
X170335403Y-89164936D01*
X170100001Y-89144341D01*
X170099999Y-89144341D01*
X169864596Y-89164936D01*
X169864586Y-89164938D01*
X169636344Y-89226094D01*
X169636335Y-89226098D01*
X169422171Y-89325964D01*
X169422169Y-89325965D01*
X169228597Y-89461505D01*
X169061505Y-89628597D01*
X168931575Y-89814158D01*
X168876998Y-89857783D01*
X168807500Y-89864977D01*
X168745145Y-89833454D01*
X168728425Y-89814158D01*
X168598494Y-89628597D01*
X168431402Y-89461506D01*
X168431395Y-89461501D01*
X168237834Y-89325967D01*
X168237830Y-89325965D01*
X168210498Y-89313220D01*
X168023663Y-89226097D01*
X168023659Y-89226096D01*
X168023655Y-89226094D01*
X167795413Y-89164938D01*
X167795403Y-89164936D01*
X167560001Y-89144341D01*
X167559999Y-89144341D01*
X167324596Y-89164936D01*
X167324586Y-89164938D01*
X167096344Y-89226094D01*
X167096335Y-89226098D01*
X166882171Y-89325964D01*
X166882169Y-89325965D01*
X166688597Y-89461505D01*
X166521505Y-89628597D01*
X166391575Y-89814158D01*
X166336998Y-89857783D01*
X166267500Y-89864977D01*
X166205145Y-89833454D01*
X166188425Y-89814158D01*
X166058494Y-89628597D01*
X165891402Y-89461506D01*
X165891395Y-89461501D01*
X165697834Y-89325967D01*
X165697830Y-89325965D01*
X165670498Y-89313220D01*
X165483663Y-89226097D01*
X165483659Y-89226096D01*
X165483655Y-89226094D01*
X165255413Y-89164938D01*
X165255403Y-89164936D01*
X165020001Y-89144341D01*
X165019999Y-89144341D01*
X164784596Y-89164936D01*
X164784586Y-89164938D01*
X164556344Y-89226094D01*
X164556335Y-89226098D01*
X164342171Y-89325964D01*
X164342169Y-89325965D01*
X164148597Y-89461505D01*
X163981505Y-89628597D01*
X163851575Y-89814158D01*
X163796998Y-89857783D01*
X163727500Y-89864977D01*
X163665145Y-89833454D01*
X163648425Y-89814158D01*
X163518494Y-89628597D01*
X163351402Y-89461506D01*
X163351395Y-89461501D01*
X163157834Y-89325967D01*
X163157830Y-89325965D01*
X163130498Y-89313220D01*
X162943663Y-89226097D01*
X162943659Y-89226096D01*
X162943655Y-89226094D01*
X162715413Y-89164938D01*
X162715403Y-89164936D01*
X162480001Y-89144341D01*
X162479999Y-89144341D01*
X162244596Y-89164936D01*
X162244586Y-89164938D01*
X162016344Y-89226094D01*
X162016335Y-89226098D01*
X161802171Y-89325964D01*
X161802169Y-89325965D01*
X161608597Y-89461505D01*
X161441505Y-89628597D01*
X161311575Y-89814158D01*
X161256998Y-89857783D01*
X161187500Y-89864977D01*
X161125145Y-89833454D01*
X161108425Y-89814158D01*
X160978494Y-89628597D01*
X160811402Y-89461506D01*
X160811395Y-89461501D01*
X160617834Y-89325967D01*
X160617830Y-89325965D01*
X160590498Y-89313220D01*
X160403663Y-89226097D01*
X160403659Y-89226096D01*
X160403655Y-89226094D01*
X160175413Y-89164938D01*
X160175403Y-89164936D01*
X159940001Y-89144341D01*
X159939999Y-89144341D01*
X159704596Y-89164936D01*
X159704586Y-89164938D01*
X159476344Y-89226094D01*
X159476335Y-89226098D01*
X159262171Y-89325964D01*
X159262169Y-89325965D01*
X159068597Y-89461505D01*
X158901505Y-89628597D01*
X158771575Y-89814158D01*
X158716998Y-89857783D01*
X158647500Y-89864977D01*
X158585145Y-89833454D01*
X158568425Y-89814158D01*
X158438494Y-89628597D01*
X158271402Y-89461506D01*
X158271395Y-89461501D01*
X158077834Y-89325967D01*
X158077830Y-89325965D01*
X158050498Y-89313220D01*
X157863663Y-89226097D01*
X157863659Y-89226096D01*
X157863655Y-89226094D01*
X157635413Y-89164938D01*
X157635403Y-89164936D01*
X157400001Y-89144341D01*
X157399999Y-89144341D01*
X157164596Y-89164936D01*
X157164586Y-89164938D01*
X156936344Y-89226094D01*
X156936335Y-89226098D01*
X156722171Y-89325964D01*
X156722169Y-89325965D01*
X156528597Y-89461505D01*
X156361505Y-89628597D01*
X156231575Y-89814158D01*
X156176998Y-89857783D01*
X156107500Y-89864977D01*
X156045145Y-89833454D01*
X156028425Y-89814158D01*
X155898494Y-89628597D01*
X155731402Y-89461506D01*
X155731395Y-89461501D01*
X155537834Y-89325967D01*
X155537830Y-89325965D01*
X155510498Y-89313220D01*
X155323663Y-89226097D01*
X155323659Y-89226096D01*
X155323655Y-89226094D01*
X155095413Y-89164938D01*
X155095403Y-89164936D01*
X154860001Y-89144341D01*
X154859999Y-89144341D01*
X154624596Y-89164936D01*
X154624586Y-89164938D01*
X154396344Y-89226094D01*
X154396335Y-89226098D01*
X154182171Y-89325964D01*
X154182169Y-89325965D01*
X153988597Y-89461505D01*
X153821505Y-89628597D01*
X153691575Y-89814158D01*
X153636998Y-89857783D01*
X153567500Y-89864977D01*
X153505145Y-89833454D01*
X153488425Y-89814158D01*
X153358494Y-89628597D01*
X153191402Y-89461506D01*
X153191395Y-89461501D01*
X152997834Y-89325967D01*
X152997830Y-89325965D01*
X152970498Y-89313220D01*
X152783663Y-89226097D01*
X152783659Y-89226096D01*
X152783655Y-89226094D01*
X152555413Y-89164938D01*
X152555403Y-89164936D01*
X152320001Y-89144341D01*
X152319999Y-89144341D01*
X152084596Y-89164936D01*
X152084586Y-89164938D01*
X151856344Y-89226094D01*
X151856335Y-89226098D01*
X151642171Y-89325964D01*
X151642169Y-89325965D01*
X151448597Y-89461505D01*
X151281505Y-89628597D01*
X151151575Y-89814158D01*
X151096998Y-89857783D01*
X151027500Y-89864977D01*
X150965145Y-89833454D01*
X150948425Y-89814158D01*
X150818494Y-89628597D01*
X150651402Y-89461506D01*
X150651395Y-89461501D01*
X150457834Y-89325967D01*
X150457830Y-89325965D01*
X150430498Y-89313220D01*
X150243663Y-89226097D01*
X150243659Y-89226096D01*
X150243655Y-89226094D01*
X150015413Y-89164938D01*
X150015403Y-89164936D01*
X149780001Y-89144341D01*
X149779999Y-89144341D01*
X149544596Y-89164936D01*
X149544586Y-89164938D01*
X149316344Y-89226094D01*
X149316335Y-89226098D01*
X149102171Y-89325964D01*
X149102169Y-89325965D01*
X148908597Y-89461505D01*
X148741505Y-89628597D01*
X148611575Y-89814158D01*
X148556998Y-89857783D01*
X148487500Y-89864977D01*
X148425145Y-89833454D01*
X148408425Y-89814158D01*
X148278494Y-89628597D01*
X148111402Y-89461506D01*
X148111395Y-89461501D01*
X147917834Y-89325967D01*
X147917830Y-89325965D01*
X147890498Y-89313220D01*
X147703663Y-89226097D01*
X147703659Y-89226096D01*
X147703655Y-89226094D01*
X147475413Y-89164938D01*
X147475403Y-89164936D01*
X147240001Y-89144341D01*
X147239999Y-89144341D01*
X147004596Y-89164936D01*
X147004586Y-89164938D01*
X146776344Y-89226094D01*
X146776335Y-89226098D01*
X146562171Y-89325964D01*
X146562169Y-89325965D01*
X146368597Y-89461505D01*
X146201505Y-89628597D01*
X146071575Y-89814158D01*
X146016998Y-89857783D01*
X145947500Y-89864977D01*
X145885145Y-89833454D01*
X145868425Y-89814158D01*
X145738494Y-89628597D01*
X145571402Y-89461506D01*
X145571395Y-89461501D01*
X145377834Y-89325967D01*
X145377830Y-89325965D01*
X145350498Y-89313220D01*
X145163663Y-89226097D01*
X145163659Y-89226096D01*
X145163655Y-89226094D01*
X144935413Y-89164938D01*
X144935403Y-89164936D01*
X144700001Y-89144341D01*
X144699999Y-89144341D01*
X144464596Y-89164936D01*
X144464586Y-89164938D01*
X144236344Y-89226094D01*
X144236335Y-89226098D01*
X144022171Y-89325964D01*
X144022169Y-89325965D01*
X143828597Y-89461505D01*
X143661505Y-89628597D01*
X143531575Y-89814158D01*
X143476998Y-89857783D01*
X143407500Y-89864977D01*
X143345145Y-89833454D01*
X143328425Y-89814158D01*
X143198494Y-89628597D01*
X143031402Y-89461506D01*
X143031401Y-89461505D01*
X142917781Y-89381947D01*
X142863376Y-89343852D01*
X142819751Y-89289275D01*
X142810500Y-89242277D01*
X142810500Y-87595928D01*
X142785502Y-87470261D01*
X142785501Y-87470260D01*
X142785501Y-87470256D01*
X142736465Y-87351873D01*
X142724856Y-87334499D01*
X142665277Y-87245331D01*
X142665275Y-87245329D01*
X142665273Y-87245326D01*
X139914673Y-84494726D01*
X139912898Y-84493540D01*
X139808127Y-84423535D01*
X139780373Y-84412039D01*
X139689744Y-84374499D01*
X139689738Y-84374497D01*
X139564071Y-84349500D01*
X139564069Y-84349500D01*
X115435931Y-84349500D01*
X115435929Y-84349500D01*
X115310261Y-84374497D01*
X115310255Y-84374499D01*
X115191874Y-84423534D01*
X115085326Y-84494726D01*
X107994726Y-91585326D01*
X107994723Y-91585331D01*
X107939203Y-91668425D01*
X107935455Y-91674034D01*
X107935453Y-91674037D01*
X107923536Y-91691870D01*
X107923533Y-91691875D01*
X107874499Y-91810255D01*
X107874497Y-91810261D01*
X107849500Y-91935928D01*
X107849500Y-117436555D01*
X107829815Y-117503594D01*
X107813181Y-117524236D01*
X97994727Y-127342689D01*
X97994726Y-127342690D01*
X97933363Y-127434529D01*
X97923533Y-127449240D01*
X97874499Y-127567619D01*
X97874497Y-127567625D01*
X97849500Y-127693292D01*
X97849500Y-131269931D01*
X97830494Y-131335903D01*
X97774211Y-131425477D01*
X97774209Y-131425481D01*
X97714633Y-131595737D01*
X97714630Y-131595750D01*
X97694435Y-131774996D01*
X97694435Y-131775003D01*
X97714630Y-131954249D01*
X97714631Y-131954254D01*
X97774211Y-132124523D01*
X97841226Y-132231176D01*
X97870184Y-132277262D01*
X97997738Y-132404816D01*
X98088080Y-132461582D01*
X98145620Y-132497737D01*
X98150478Y-132500789D01*
X98320745Y-132560368D01*
X98320750Y-132560369D01*
X98499996Y-132580565D01*
X98500000Y-132580565D01*
X98500004Y-132580565D01*
X98679249Y-132560369D01*
X98679252Y-132560368D01*
X98679255Y-132560368D01*
X98849522Y-132500789D01*
X99002262Y-132404816D01*
X99129816Y-132277262D01*
X99225789Y-132124522D01*
X99268824Y-132001534D01*
X99309544Y-131944760D01*
X99374497Y-131919012D01*
X99399748Y-131919270D01*
X99499996Y-131930565D01*
X99500000Y-131930565D01*
X99500004Y-131930565D01*
X99679249Y-131910369D01*
X99679252Y-131910368D01*
X99679255Y-131910368D01*
X99849522Y-131850789D01*
X100002262Y-131754816D01*
X100129816Y-131627262D01*
X100225789Y-131474522D01*
X100268824Y-131351534D01*
X100309544Y-131294760D01*
X100374497Y-131269012D01*
X100399748Y-131269270D01*
X100499996Y-131280565D01*
X100500000Y-131280565D01*
X100500004Y-131280565D01*
X100679249Y-131260369D01*
X100679252Y-131260368D01*
X100679255Y-131260368D01*
X100849522Y-131200789D01*
X101002262Y-131104816D01*
X101129816Y-130977262D01*
X101225789Y-130824522D01*
X101268824Y-130701534D01*
X101309544Y-130644760D01*
X101374497Y-130619012D01*
X101399748Y-130619270D01*
X101499996Y-130630565D01*
X101500000Y-130630565D01*
X101500004Y-130630565D01*
X101679249Y-130610369D01*
X101679252Y-130610368D01*
X101679255Y-130610368D01*
X101849522Y-130550789D01*
X102002262Y-130454816D01*
X102129816Y-130327262D01*
X102225789Y-130174522D01*
X102268824Y-130051534D01*
X102309544Y-129994760D01*
X102374497Y-129969012D01*
X102399748Y-129969270D01*
X102499996Y-129980565D01*
X102500000Y-129980565D01*
X102500004Y-129980565D01*
X102679249Y-129960369D01*
X102679252Y-129960368D01*
X102679255Y-129960368D01*
X102849522Y-129900789D01*
X103002262Y-129804816D01*
X103129816Y-129677262D01*
X103225789Y-129524522D01*
X103265372Y-129411401D01*
X103277240Y-129377484D01*
X103317962Y-129320707D01*
X103382915Y-129294960D01*
X103408166Y-129295218D01*
X103499997Y-129305565D01*
X103500000Y-129305565D01*
X103500004Y-129305565D01*
X103679249Y-129285369D01*
X103679252Y-129285368D01*
X103679255Y-129285368D01*
X103849522Y-129225789D01*
X104002262Y-129129816D01*
X104129816Y-129002262D01*
X104225789Y-128849522D01*
X104268824Y-128726534D01*
X104309544Y-128669760D01*
X104374497Y-128644012D01*
X104399748Y-128644270D01*
X104499996Y-128655565D01*
X104500000Y-128655565D01*
X104500004Y-128655565D01*
X104679249Y-128635369D01*
X104679252Y-128635368D01*
X104679255Y-128635368D01*
X104849522Y-128575789D01*
X105002262Y-128479816D01*
X105129816Y-128352262D01*
X105225789Y-128199522D01*
X105285368Y-128029255D01*
X105288664Y-128000002D01*
X105305565Y-127850003D01*
X105305565Y-127849996D01*
X105285369Y-127670750D01*
X105285366Y-127670737D01*
X105225790Y-127500481D01*
X105225786Y-127500472D01*
X105210086Y-127475485D01*
X105191086Y-127408249D01*
X105211454Y-127341414D01*
X105264722Y-127296200D01*
X105328964Y-127286294D01*
X105499997Y-127305565D01*
X105500000Y-127305565D01*
X105500004Y-127305565D01*
X105679249Y-127285369D01*
X105679252Y-127285368D01*
X105679255Y-127285368D01*
X105849522Y-127225789D01*
X106002262Y-127129816D01*
X106129816Y-127002262D01*
X106225789Y-126849522D01*
X106285368Y-126679255D01*
X106286182Y-126672025D01*
X106313245Y-126607611D01*
X106321712Y-126598232D01*
X112505276Y-120414669D01*
X112576465Y-120308127D01*
X112625501Y-120189744D01*
X112638280Y-120125501D01*
X112650500Y-120064069D01*
X112650500Y-93770550D01*
X112670185Y-93703511D01*
X112686819Y-93682869D01*
X116267553Y-90102135D01*
X119109500Y-90102135D01*
X119109500Y-91897870D01*
X119109501Y-91897876D01*
X119115908Y-91957483D01*
X119166202Y-92092328D01*
X119166206Y-92092335D01*
X119252452Y-92207544D01*
X119252455Y-92207547D01*
X119367664Y-92293793D01*
X119367671Y-92293797D01*
X119502517Y-92344091D01*
X119502516Y-92344091D01*
X119509444Y-92344835D01*
X119562127Y-92350500D01*
X121357872Y-92350499D01*
X121417483Y-92344091D01*
X121552331Y-92293796D01*
X121667546Y-92207546D01*
X121753796Y-92092331D01*
X121803002Y-91960401D01*
X121844872Y-91904468D01*
X121910337Y-91880050D01*
X121978610Y-91894901D01*
X122006865Y-91916053D01*
X122128917Y-92038105D01*
X122322421Y-92173600D01*
X122536507Y-92273429D01*
X122536516Y-92273433D01*
X122750000Y-92330634D01*
X122750000Y-91433012D01*
X122807007Y-91465925D01*
X122934174Y-91500000D01*
X123065826Y-91500000D01*
X123192993Y-91465925D01*
X123250000Y-91433012D01*
X123250000Y-92330634D01*
X123463483Y-92273433D01*
X123463492Y-92273429D01*
X123677578Y-92173600D01*
X123871082Y-92038105D01*
X124038105Y-91871082D01*
X124173600Y-91677578D01*
X124273429Y-91463492D01*
X124273432Y-91463486D01*
X124330636Y-91250000D01*
X123433012Y-91250000D01*
X123465925Y-91192993D01*
X123500000Y-91065826D01*
X123500000Y-90934174D01*
X123465925Y-90807007D01*
X123433012Y-90750000D01*
X124330636Y-90750000D01*
X124330635Y-90749999D01*
X124273432Y-90536513D01*
X124273429Y-90536507D01*
X124173600Y-90322422D01*
X124173599Y-90322420D01*
X124038113Y-90128926D01*
X124038108Y-90128920D01*
X123871082Y-89961894D01*
X123677578Y-89826399D01*
X123463492Y-89726570D01*
X123463486Y-89726567D01*
X123250000Y-89669364D01*
X123250000Y-90566988D01*
X123192993Y-90534075D01*
X123065826Y-90500000D01*
X122934174Y-90500000D01*
X122807007Y-90534075D01*
X122750000Y-90566988D01*
X122750000Y-89669364D01*
X122749999Y-89669364D01*
X122536513Y-89726567D01*
X122536507Y-89726570D01*
X122322422Y-89826399D01*
X122322420Y-89826400D01*
X122128926Y-89961886D01*
X122006865Y-90083947D01*
X121945542Y-90117431D01*
X121875850Y-90112447D01*
X121819917Y-90070575D01*
X121803002Y-90039598D01*
X121801788Y-90036344D01*
X121753796Y-89907669D01*
X121753795Y-89907668D01*
X121753793Y-89907664D01*
X121667547Y-89792455D01*
X121667544Y-89792452D01*
X121552335Y-89706206D01*
X121552328Y-89706202D01*
X121417482Y-89655908D01*
X121417483Y-89655908D01*
X121357883Y-89649501D01*
X121357881Y-89649500D01*
X121357873Y-89649500D01*
X121357864Y-89649500D01*
X119562129Y-89649500D01*
X119562123Y-89649501D01*
X119502516Y-89655908D01*
X119367671Y-89706202D01*
X119367664Y-89706206D01*
X119252455Y-89792452D01*
X119252452Y-89792455D01*
X119166206Y-89907664D01*
X119166202Y-89907671D01*
X119115908Y-90042517D01*
X119109501Y-90102116D01*
X119109500Y-90102135D01*
X116267553Y-90102135D01*
X117182869Y-89186819D01*
X117244192Y-89153334D01*
X117270550Y-89150500D01*
X131179483Y-89150500D01*
X131246522Y-89170185D01*
X131292277Y-89222989D01*
X131302221Y-89292147D01*
X131273196Y-89355703D01*
X131250606Y-89376075D01*
X131128596Y-89461506D01*
X130961505Y-89628597D01*
X130825965Y-89822169D01*
X130825964Y-89822171D01*
X130726098Y-90036335D01*
X130726094Y-90036344D01*
X130664938Y-90264586D01*
X130664936Y-90264596D01*
X130644341Y-90499999D01*
X130644341Y-90500000D01*
X130664936Y-90735403D01*
X130664938Y-90735413D01*
X130726094Y-90963655D01*
X130726096Y-90963659D01*
X130726097Y-90963663D01*
X130805801Y-91134588D01*
X130825965Y-91177830D01*
X130825967Y-91177834D01*
X130836582Y-91192993D01*
X130961504Y-91371400D01*
X130961506Y-91371402D01*
X131083430Y-91493326D01*
X131116915Y-91554649D01*
X131111931Y-91624341D01*
X131070059Y-91680274D01*
X131039083Y-91697189D01*
X130907669Y-91746203D01*
X130907664Y-91746206D01*
X130792455Y-91832452D01*
X130792452Y-91832455D01*
X130706206Y-91947664D01*
X130706202Y-91947671D01*
X130655908Y-92082517D01*
X130649501Y-92142116D01*
X130649500Y-92142135D01*
X130649500Y-93937870D01*
X130649501Y-93937876D01*
X130655908Y-93997483D01*
X130706202Y-94132328D01*
X130706204Y-94132331D01*
X130720321Y-94151189D01*
X130744738Y-94216654D01*
X130729886Y-94284927D01*
X130680481Y-94334332D01*
X130621054Y-94349500D01*
X123986181Y-94349500D01*
X123860513Y-94374497D01*
X123860503Y-94374500D01*
X123811472Y-94394810D01*
X123742133Y-94423530D01*
X123742115Y-94423540D01*
X123635584Y-94494721D01*
X123635577Y-94494727D01*
X118444724Y-99685580D01*
X118376543Y-99787622D01*
X118373535Y-99792124D01*
X118373532Y-99792129D01*
X118324500Y-99910503D01*
X118324497Y-99910513D01*
X118299500Y-100036180D01*
X118299500Y-133368060D01*
X118279815Y-133435099D01*
X118227011Y-133480854D01*
X118157853Y-133490798D01*
X118094297Y-133461773D01*
X118087819Y-133455741D01*
X118002262Y-133370184D01*
X117849521Y-133274210D01*
X117678432Y-133214344D01*
X117621655Y-133173622D01*
X117595908Y-133108669D01*
X117596166Y-133083418D01*
X117605565Y-133000002D01*
X117605565Y-132999996D01*
X117585369Y-132820750D01*
X117585368Y-132820745D01*
X117525788Y-132650476D01*
X117429815Y-132497737D01*
X117302262Y-132370184D01*
X117149523Y-132274211D01*
X117026535Y-132231176D01*
X116969759Y-132190454D01*
X116944012Y-132125501D01*
X116944270Y-132100251D01*
X116955565Y-132000003D01*
X116955565Y-131999996D01*
X116935369Y-131820750D01*
X116935368Y-131820745D01*
X116909405Y-131746546D01*
X116875789Y-131650478D01*
X116861201Y-131627262D01*
X116808673Y-131543664D01*
X116779816Y-131497738D01*
X116652262Y-131370184D01*
X116622584Y-131351536D01*
X116499523Y-131274211D01*
X116376535Y-131231176D01*
X116319759Y-131190454D01*
X116294012Y-131125501D01*
X116294270Y-131100251D01*
X116305565Y-131000003D01*
X116305565Y-130999996D01*
X116285369Y-130820750D01*
X116285368Y-130820745D01*
X116243655Y-130701536D01*
X116225789Y-130650478D01*
X116129816Y-130497738D01*
X116002262Y-130370184D01*
X115951965Y-130338580D01*
X115849523Y-130274211D01*
X115679254Y-130214631D01*
X115679250Y-130214630D01*
X115557709Y-130200936D01*
X115493295Y-130173869D01*
X115453740Y-130116274D01*
X115448373Y-130063832D01*
X115455565Y-130000002D01*
X115455565Y-129999996D01*
X115435369Y-129820750D01*
X115435368Y-129820745D01*
X115401916Y-129725145D01*
X115375789Y-129650478D01*
X115279816Y-129497738D01*
X115152262Y-129370184D01*
X115073520Y-129320707D01*
X114999523Y-129274211D01*
X114876535Y-129231176D01*
X114819759Y-129190454D01*
X114794012Y-129125501D01*
X114794270Y-129100251D01*
X114805565Y-129000003D01*
X114805565Y-128999996D01*
X114785369Y-128820750D01*
X114785368Y-128820745D01*
X114752403Y-128726536D01*
X114725789Y-128650478D01*
X114716295Y-128635369D01*
X114629815Y-128497737D01*
X114502262Y-128370184D01*
X114349523Y-128274211D01*
X114179254Y-128214631D01*
X114179250Y-128214630D01*
X114057709Y-128200936D01*
X113993295Y-128173869D01*
X113953740Y-128116274D01*
X113948373Y-128063832D01*
X113955565Y-128000002D01*
X113955565Y-127999996D01*
X113935369Y-127820750D01*
X113935368Y-127820745D01*
X113882882Y-127670750D01*
X113875789Y-127650478D01*
X113779816Y-127497738D01*
X113652262Y-127370184D01*
X113620934Y-127350499D01*
X113499523Y-127274211D01*
X113376535Y-127231176D01*
X113319759Y-127190454D01*
X113294012Y-127125501D01*
X113294270Y-127100251D01*
X113305565Y-127000003D01*
X113305565Y-126999996D01*
X113285369Y-126820750D01*
X113285368Y-126820745D01*
X113225789Y-126650478D01*
X113129816Y-126497738D01*
X113002262Y-126370184D01*
X112849523Y-126274211D01*
X112679254Y-126214631D01*
X112679249Y-126214630D01*
X112500004Y-126194435D01*
X112499996Y-126194435D01*
X112320750Y-126214630D01*
X112320745Y-126214631D01*
X112150476Y-126274211D01*
X111997737Y-126370184D01*
X111912681Y-126455241D01*
X111851358Y-126488726D01*
X111781666Y-126483742D01*
X111737319Y-126455241D01*
X111652262Y-126370184D01*
X111499523Y-126274211D01*
X111329254Y-126214631D01*
X111329249Y-126214630D01*
X111150004Y-126194435D01*
X111149996Y-126194435D01*
X110970750Y-126214630D01*
X110970745Y-126214631D01*
X110800476Y-126274211D01*
X110647737Y-126370184D01*
X110520184Y-126497737D01*
X110424211Y-126650476D01*
X110364631Y-126820745D01*
X110364630Y-126820750D01*
X110344435Y-126999996D01*
X110344435Y-127000005D01*
X110355729Y-127100252D01*
X110343674Y-127169073D01*
X110296324Y-127220452D01*
X110273464Y-127231175D01*
X110150480Y-127274209D01*
X109997737Y-127370184D01*
X109870184Y-127497737D01*
X109774211Y-127650476D01*
X109714631Y-127820745D01*
X109714630Y-127820750D01*
X109694435Y-127999996D01*
X109694435Y-128000004D01*
X109703833Y-128083419D01*
X109691778Y-128152241D01*
X109644429Y-128203620D01*
X109621568Y-128214344D01*
X109450476Y-128274211D01*
X109297737Y-128370184D01*
X109170184Y-128497737D01*
X109074211Y-128650476D01*
X109014631Y-128820745D01*
X109014630Y-128820750D01*
X108994435Y-128999996D01*
X108994435Y-129000005D01*
X109005729Y-129100252D01*
X108993674Y-129169073D01*
X108946324Y-129220452D01*
X108923464Y-129231175D01*
X108800480Y-129274209D01*
X108647737Y-129370184D01*
X108520184Y-129497737D01*
X108424211Y-129650476D01*
X108364631Y-129820745D01*
X108364630Y-129820750D01*
X108344435Y-129999996D01*
X108344435Y-130000005D01*
X108355729Y-130100252D01*
X108343674Y-130169073D01*
X108296324Y-130220452D01*
X108273464Y-130231175D01*
X108150480Y-130274209D01*
X107997737Y-130370184D01*
X107870184Y-130497737D01*
X107774211Y-130650476D01*
X107714631Y-130820745D01*
X107714630Y-130820750D01*
X107694435Y-130999996D01*
X107694435Y-131000004D01*
X107703833Y-131083419D01*
X107691778Y-131152241D01*
X107644429Y-131203620D01*
X107621568Y-131214344D01*
X107450476Y-131274211D01*
X107297737Y-131370184D01*
X107170184Y-131497737D01*
X107074211Y-131650476D01*
X107014631Y-131820745D01*
X107014630Y-131820750D01*
X106994435Y-131999996D01*
X106994435Y-132000005D01*
X107005729Y-132100252D01*
X106993674Y-132169073D01*
X106946324Y-132220452D01*
X106923464Y-132231175D01*
X106800480Y-132274209D01*
X106647737Y-132370184D01*
X106520184Y-132497737D01*
X106424211Y-132650476D01*
X106364631Y-132820745D01*
X106364630Y-132820750D01*
X106344435Y-132999996D01*
X106344435Y-133000005D01*
X106355729Y-133100252D01*
X106343674Y-133169073D01*
X106296324Y-133220452D01*
X106273464Y-133231175D01*
X106150480Y-133274209D01*
X105997737Y-133370184D01*
X105870184Y-133497737D01*
X105774211Y-133650476D01*
X105714631Y-133820745D01*
X105714630Y-133820750D01*
X105694435Y-133999996D01*
X105694435Y-134000003D01*
X105714630Y-134179249D01*
X105714631Y-134179254D01*
X105774211Y-134349524D01*
X105830493Y-134439094D01*
X105849500Y-134505067D01*
X105849500Y-172994931D01*
X105830494Y-173060903D01*
X105774211Y-173150477D01*
X105774209Y-173150481D01*
X105714633Y-173320737D01*
X105714630Y-173320750D01*
X105694435Y-173499996D01*
X105694435Y-173500003D01*
X105714630Y-173679249D01*
X105714631Y-173679254D01*
X105774211Y-173849523D01*
X105847719Y-173966509D01*
X105870184Y-174002262D01*
X105997738Y-174129816D01*
X106088080Y-174186582D01*
X106119308Y-174206204D01*
X106150478Y-174225789D01*
X106320745Y-174285368D01*
X106320750Y-174285369D01*
X106499996Y-174305565D01*
X106500000Y-174305565D01*
X106500004Y-174305565D01*
X106679249Y-174285369D01*
X106679252Y-174285368D01*
X106679255Y-174285368D01*
X106849522Y-174225789D01*
X107002262Y-174129816D01*
X107129816Y-174002262D01*
X107225789Y-173849522D01*
X107285368Y-173679255D01*
X107292294Y-173617783D01*
X107305565Y-173500003D01*
X107305565Y-173499996D01*
X107294270Y-173399748D01*
X107306325Y-173330926D01*
X107353674Y-173279547D01*
X107376530Y-173268825D01*
X107499522Y-173225789D01*
X107652262Y-173129816D01*
X107779816Y-173002262D01*
X107875789Y-172849522D01*
X107935368Y-172679255D01*
X107945267Y-172591401D01*
X107955565Y-172500003D01*
X107955565Y-172499997D01*
X107946166Y-172416582D01*
X107958220Y-172347760D01*
X108005569Y-172296381D01*
X108028432Y-172285656D01*
X108037614Y-172282442D01*
X108199522Y-172225789D01*
X108352262Y-172129816D01*
X108479816Y-172002262D01*
X108575789Y-171849522D01*
X108635368Y-171679255D01*
X108655565Y-171500000D01*
X108655565Y-171499996D01*
X108644270Y-171399748D01*
X108656325Y-171330926D01*
X108703674Y-171279547D01*
X108726530Y-171268825D01*
X108849522Y-171225789D01*
X109002262Y-171129816D01*
X109129816Y-171002262D01*
X109225789Y-170849522D01*
X109285368Y-170679255D01*
X109305565Y-170500000D01*
X109302467Y-170472500D01*
X109294270Y-170399748D01*
X109306325Y-170330926D01*
X109353674Y-170279547D01*
X109376530Y-170268825D01*
X109499522Y-170225789D01*
X109652262Y-170129816D01*
X109779816Y-170002262D01*
X109875789Y-169849522D01*
X109935368Y-169679255D01*
X109935369Y-169679249D01*
X109955565Y-169500003D01*
X109955565Y-169499996D01*
X109944270Y-169399748D01*
X109956325Y-169330926D01*
X110003674Y-169279547D01*
X110026530Y-169268825D01*
X110149522Y-169225789D01*
X110302262Y-169129816D01*
X110429816Y-169002262D01*
X110525789Y-168849522D01*
X110585368Y-168679255D01*
X110585369Y-168679249D01*
X110605565Y-168500003D01*
X110605565Y-168499997D01*
X110596166Y-168416582D01*
X110608220Y-168347760D01*
X110655569Y-168296381D01*
X110678432Y-168285656D01*
X110687614Y-168282442D01*
X110849522Y-168225789D01*
X111002262Y-168129816D01*
X111129816Y-168002262D01*
X111225789Y-167849522D01*
X111285368Y-167679255D01*
X111285454Y-167678498D01*
X111303450Y-167518770D01*
X111330516Y-167454356D01*
X111385714Y-167415611D01*
X111499522Y-167375789D01*
X111652262Y-167279816D01*
X111779816Y-167152262D01*
X111875789Y-166999522D01*
X111935368Y-166829255D01*
X111955565Y-166650000D01*
X111954438Y-166640000D01*
X111935369Y-166470750D01*
X111935366Y-166470737D01*
X111875790Y-166300481D01*
X111875789Y-166300478D01*
X111854008Y-166265814D01*
X111819506Y-166210903D01*
X111800500Y-166144931D01*
X111800500Y-163730012D01*
X111820185Y-163662973D01*
X111872989Y-163617218D01*
X111942147Y-163607274D01*
X111990532Y-163628194D01*
X111991842Y-163626111D01*
X111997737Y-163629815D01*
X111997738Y-163629816D01*
X112150478Y-163725789D01*
X112162547Y-163730012D01*
X112320745Y-163785368D01*
X112320750Y-163785369D01*
X112499996Y-163805565D01*
X112500000Y-163805565D01*
X112500004Y-163805565D01*
X112679249Y-163785369D01*
X112679252Y-163785368D01*
X112679255Y-163785368D01*
X112849522Y-163725789D01*
X113002262Y-163629816D01*
X113129816Y-163502262D01*
X113225789Y-163349522D01*
X113285368Y-163179255D01*
X113305565Y-163000000D01*
X113305565Y-162999996D01*
X113294270Y-162899748D01*
X113306325Y-162830926D01*
X113353674Y-162779547D01*
X113376530Y-162768825D01*
X113499522Y-162725789D01*
X113652262Y-162629816D01*
X113779816Y-162502262D01*
X113875789Y-162349522D01*
X113935368Y-162179255D01*
X113955565Y-162000000D01*
X113948373Y-161936167D01*
X113960427Y-161867345D01*
X114007776Y-161815965D01*
X114057710Y-161799063D01*
X114179249Y-161785369D01*
X114179252Y-161785368D01*
X114179255Y-161785368D01*
X114349522Y-161725789D01*
X114502262Y-161629816D01*
X114629816Y-161502262D01*
X114725789Y-161349522D01*
X114785368Y-161179255D01*
X114803450Y-161018769D01*
X114830516Y-160954356D01*
X114885714Y-160915611D01*
X114999522Y-160875789D01*
X115152262Y-160779816D01*
X115279816Y-160652262D01*
X115375789Y-160499522D01*
X115415611Y-160385714D01*
X115456333Y-160328940D01*
X115518769Y-160303450D01*
X115569229Y-160297764D01*
X115679249Y-160285369D01*
X115679252Y-160285368D01*
X115679255Y-160285368D01*
X115849522Y-160225789D01*
X116002262Y-160129816D01*
X116129816Y-160002262D01*
X116225789Y-159849522D01*
X116285368Y-159679255D01*
X116287288Y-159662217D01*
X116305565Y-159500003D01*
X116305565Y-159499996D01*
X116294270Y-159399748D01*
X116306325Y-159330926D01*
X116353674Y-159279547D01*
X116376530Y-159268825D01*
X116499522Y-159225789D01*
X116652262Y-159129816D01*
X116779816Y-159002262D01*
X116875789Y-158849522D01*
X116935368Y-158679255D01*
X116949217Y-158556344D01*
X116955565Y-158500003D01*
X116955565Y-158499996D01*
X116944270Y-158399748D01*
X116956325Y-158330926D01*
X117003674Y-158279547D01*
X117026530Y-158268825D01*
X117149522Y-158225789D01*
X117302262Y-158129816D01*
X117429816Y-158002262D01*
X117525789Y-157849522D01*
X117585368Y-157679255D01*
X117603481Y-157518495D01*
X117605565Y-157500003D01*
X117605565Y-157499997D01*
X117596166Y-157416582D01*
X117608220Y-157347760D01*
X117655569Y-157296381D01*
X117678432Y-157285656D01*
X117705104Y-157276323D01*
X117849522Y-157225789D01*
X118002262Y-157129816D01*
X118129816Y-157002262D01*
X118225789Y-156849522D01*
X118285368Y-156679255D01*
X118305565Y-156500000D01*
X118303311Y-156479999D01*
X118285369Y-156320750D01*
X118285366Y-156320737D01*
X118225790Y-156150481D01*
X118225789Y-156150478D01*
X118204008Y-156115814D01*
X118169506Y-156060903D01*
X118150500Y-155994931D01*
X118150500Y-148206940D01*
X118170185Y-148139901D01*
X118222989Y-148094146D01*
X118292147Y-148084202D01*
X118355703Y-148113227D01*
X118362181Y-148119259D01*
X118447738Y-148204816D01*
X118468375Y-148217783D01*
X118600478Y-148300789D01*
X118715334Y-148340979D01*
X118772111Y-148381701D01*
X118797858Y-148446654D01*
X118797600Y-148471903D01*
X118794435Y-148499995D01*
X118794435Y-148500003D01*
X118814630Y-148679249D01*
X118814631Y-148679254D01*
X118874211Y-148849523D01*
X118970184Y-149002262D01*
X119097738Y-149129816D01*
X119250478Y-149225789D01*
X119364365Y-149265639D01*
X119376174Y-149269772D01*
X119432950Y-149310494D01*
X119458697Y-149375447D01*
X119458439Y-149400697D01*
X119444435Y-149524995D01*
X119444435Y-149525003D01*
X119464630Y-149704249D01*
X119464631Y-149704254D01*
X119524211Y-149874523D01*
X119539274Y-149898495D01*
X119620184Y-150027262D01*
X119747738Y-150154816D01*
X119900478Y-150250789D01*
X120020755Y-150292875D01*
X120077530Y-150333597D01*
X120103278Y-150398549D01*
X120103020Y-150423800D01*
X120094435Y-150499996D01*
X120094435Y-150500003D01*
X120114630Y-150679249D01*
X120114631Y-150679254D01*
X120174211Y-150849523D01*
X120228765Y-150936344D01*
X120270184Y-151002262D01*
X120397738Y-151129816D01*
X120550478Y-151225789D01*
X120673463Y-151268823D01*
X120730239Y-151309545D01*
X120755987Y-151374497D01*
X120755729Y-151399747D01*
X120744435Y-151499994D01*
X120744435Y-151500003D01*
X120764630Y-151679249D01*
X120764631Y-151679254D01*
X120824211Y-151849523D01*
X120920184Y-152002262D01*
X121047738Y-152129816D01*
X121200478Y-152225789D01*
X121323463Y-152268823D01*
X121380239Y-152309545D01*
X121405987Y-152374497D01*
X121405729Y-152399747D01*
X121394435Y-152499994D01*
X121394435Y-152500003D01*
X121414630Y-152679249D01*
X121414631Y-152679254D01*
X121474211Y-152849523D01*
X121570184Y-153002262D01*
X121697738Y-153129816D01*
X121850478Y-153225789D01*
X121973463Y-153268823D01*
X122030239Y-153309545D01*
X122055987Y-153374497D01*
X122055729Y-153399747D01*
X122044435Y-153499994D01*
X122044435Y-153500003D01*
X122064630Y-153679249D01*
X122064631Y-153679254D01*
X122124211Y-153849523D01*
X122181062Y-153940000D01*
X122220184Y-154002262D01*
X122347738Y-154129816D01*
X122500478Y-154225789D01*
X122623463Y-154268823D01*
X122680239Y-154309545D01*
X122705987Y-154374497D01*
X122705729Y-154399747D01*
X122694435Y-154499994D01*
X122694435Y-154500003D01*
X122714630Y-154679249D01*
X122714631Y-154679254D01*
X122774211Y-154849523D01*
X122855249Y-154978493D01*
X122870184Y-155002262D01*
X122997738Y-155129816D01*
X123150478Y-155225789D01*
X123320739Y-155285366D01*
X123320745Y-155285368D01*
X123320750Y-155285369D01*
X123499996Y-155305565D01*
X123500000Y-155305565D01*
X123500004Y-155305565D01*
X123679249Y-155285369D01*
X123679251Y-155285368D01*
X123679255Y-155285368D01*
X123679258Y-155285366D01*
X123679262Y-155285366D01*
X123834545Y-155231030D01*
X123904324Y-155227468D01*
X123964951Y-155262196D01*
X123997179Y-155324190D01*
X123999500Y-155348071D01*
X123999500Y-182875500D01*
X123979815Y-182942539D01*
X123927011Y-182988294D01*
X123875500Y-182999500D01*
X121441214Y-182999500D01*
X121374175Y-182979815D01*
X121328420Y-182927011D01*
X121318476Y-182857853D01*
X121347501Y-182794297D01*
X121398804Y-182758978D01*
X121650579Y-182667339D01*
X121650585Y-182667336D01*
X121952454Y-182515731D01*
X122234692Y-182330101D01*
X122234693Y-182330100D01*
X122366199Y-182219753D01*
X122366200Y-182219752D01*
X121297514Y-181151066D01*
X121412039Y-181067860D01*
X121567860Y-180912039D01*
X121651067Y-180797514D01*
X122723109Y-181869556D01*
X122725299Y-181867235D01*
X122927020Y-181596278D01*
X123095924Y-181303727D01*
X123095930Y-181303714D01*
X123229726Y-180993540D01*
X123326614Y-180669911D01*
X123326616Y-180669902D01*
X123385271Y-180337251D01*
X123385272Y-180337240D01*
X123404915Y-180000003D01*
X123404915Y-179999996D01*
X123385272Y-179662759D01*
X123385271Y-179662748D01*
X123326616Y-179330097D01*
X123326614Y-179330088D01*
X123229726Y-179006459D01*
X123095930Y-178696285D01*
X123095924Y-178696272D01*
X122927020Y-178403721D01*
X122725291Y-178132753D01*
X122723110Y-178130442D01*
X122723109Y-178130441D01*
X121651066Y-179202484D01*
X121567860Y-179087961D01*
X121412039Y-178932140D01*
X121297514Y-178848932D01*
X122366200Y-177780246D01*
X122366199Y-177780245D01*
X122234698Y-177669902D01*
X121952454Y-177484268D01*
X121650585Y-177332663D01*
X121650579Y-177332660D01*
X121333151Y-177217126D01*
X121333130Y-177217119D01*
X121004448Y-177139219D01*
X121004433Y-177139217D01*
X120668899Y-177100000D01*
X120331101Y-177100000D01*
X119995566Y-177139217D01*
X119995551Y-177139219D01*
X119666869Y-177217119D01*
X119666848Y-177217126D01*
X119349420Y-177332660D01*
X119349414Y-177332663D01*
X119047538Y-177484271D01*
X118765302Y-177669901D01*
X118633799Y-177780245D01*
X118633799Y-177780246D01*
X119702485Y-178848932D01*
X119587961Y-178932140D01*
X119432140Y-179087961D01*
X119348933Y-179202485D01*
X118276889Y-178130441D01*
X118276888Y-178130442D01*
X118274708Y-178132753D01*
X118274705Y-178132757D01*
X118072979Y-178403721D01*
X117904075Y-178696272D01*
X117904069Y-178696285D01*
X117770273Y-179006459D01*
X117673385Y-179330088D01*
X117673383Y-179330097D01*
X117614728Y-179662748D01*
X117614727Y-179662759D01*
X117595085Y-179999996D01*
X117595085Y-180000003D01*
X117614727Y-180337240D01*
X117614728Y-180337251D01*
X117673383Y-180669902D01*
X117673385Y-180669911D01*
X117770273Y-180993540D01*
X117904069Y-181303714D01*
X117904075Y-181303727D01*
X118072979Y-181596278D01*
X118274705Y-181867241D01*
X118276889Y-181869556D01*
X119348932Y-180797513D01*
X119432140Y-180912039D01*
X119587961Y-181067860D01*
X119702485Y-181151066D01*
X118633798Y-182219752D01*
X118633799Y-182219753D01*
X118765301Y-182330097D01*
X119047545Y-182515731D01*
X119349414Y-182667336D01*
X119349420Y-182667339D01*
X119601196Y-182758978D01*
X119657460Y-182800404D01*
X119682396Y-182865673D01*
X119668086Y-182934061D01*
X119619075Y-182983857D01*
X119558786Y-182999500D01*
X78761214Y-182999500D01*
X78694175Y-182979815D01*
X78648420Y-182927011D01*
X78638476Y-182857853D01*
X78667501Y-182794297D01*
X78718804Y-182758978D01*
X78970579Y-182667339D01*
X78970585Y-182667336D01*
X79272454Y-182515731D01*
X79554692Y-182330101D01*
X79554693Y-182330100D01*
X79686199Y-182219753D01*
X79686200Y-182219752D01*
X78617514Y-181151066D01*
X78732039Y-181067860D01*
X78887860Y-180912039D01*
X78971067Y-180797514D01*
X80043109Y-181869556D01*
X80045299Y-181867235D01*
X80247020Y-181596278D01*
X80415924Y-181303727D01*
X80415930Y-181303714D01*
X80549726Y-180993540D01*
X80646614Y-180669911D01*
X80646616Y-180669902D01*
X80705271Y-180337251D01*
X80705272Y-180337240D01*
X80724915Y-180000003D01*
X80724915Y-179999996D01*
X80705272Y-179662759D01*
X80705271Y-179662748D01*
X80646616Y-179330097D01*
X80646614Y-179330088D01*
X80549726Y-179006459D01*
X80415930Y-178696285D01*
X80415924Y-178696272D01*
X80247020Y-178403721D01*
X80045291Y-178132753D01*
X80043110Y-178130442D01*
X80043109Y-178130441D01*
X78971066Y-179202484D01*
X78887860Y-179087961D01*
X78732039Y-178932140D01*
X78617514Y-178848932D01*
X79686200Y-177780246D01*
X79686199Y-177780245D01*
X79554698Y-177669902D01*
X79272454Y-177484268D01*
X78970585Y-177332663D01*
X78970579Y-177332660D01*
X78653151Y-177217126D01*
X78653130Y-177217119D01*
X78324448Y-177139219D01*
X78324433Y-177139217D01*
X77988899Y-177100000D01*
X77651101Y-177100000D01*
X77315566Y-177139217D01*
X77315551Y-177139219D01*
X76986869Y-177217119D01*
X76986848Y-177217126D01*
X76669420Y-177332660D01*
X76669414Y-177332663D01*
X76367538Y-177484271D01*
X76085302Y-177669901D01*
X75953799Y-177780245D01*
X75953799Y-177780246D01*
X77022485Y-178848932D01*
X76907961Y-178932140D01*
X76752140Y-179087961D01*
X76668933Y-179202485D01*
X75596889Y-178130441D01*
X75596888Y-178130442D01*
X75594708Y-178132753D01*
X75594705Y-178132757D01*
X75392979Y-178403721D01*
X75224075Y-178696272D01*
X75224069Y-178696285D01*
X75090273Y-179006459D01*
X74993385Y-179330088D01*
X74993383Y-179330097D01*
X74934728Y-179662748D01*
X74934727Y-179662759D01*
X74915085Y-179999996D01*
X74915085Y-180000003D01*
X74934727Y-180337240D01*
X74934728Y-180337251D01*
X74993383Y-180669902D01*
X74993385Y-180669911D01*
X75090273Y-180993540D01*
X75224069Y-181303714D01*
X75224075Y-181303727D01*
X75392979Y-181596278D01*
X75594705Y-181867241D01*
X75596889Y-181869556D01*
X76668932Y-180797513D01*
X76752140Y-180912039D01*
X76907961Y-181067860D01*
X77022485Y-181151066D01*
X75953798Y-182219752D01*
X75953799Y-182219753D01*
X76085301Y-182330097D01*
X76367545Y-182515731D01*
X76669414Y-182667336D01*
X76669420Y-182667339D01*
X76921196Y-182758978D01*
X76977460Y-182800404D01*
X77002396Y-182865673D01*
X76988086Y-182934061D01*
X76939075Y-182983857D01*
X76878786Y-182999500D01*
X74624500Y-182999500D01*
X74557461Y-182979815D01*
X74511706Y-182927011D01*
X74500500Y-182875500D01*
X74500500Y-175123362D01*
X74520185Y-175056323D01*
X74572989Y-175010568D01*
X74642147Y-175000624D01*
X74705703Y-175029649D01*
X74726075Y-175052239D01*
X74781500Y-175131395D01*
X74781505Y-175131401D01*
X74948599Y-175298495D01*
X75045384Y-175366265D01*
X75142165Y-175434032D01*
X75142167Y-175434033D01*
X75142170Y-175434035D01*
X75356337Y-175533903D01*
X75584592Y-175595063D01*
X75772918Y-175611539D01*
X75819999Y-175615659D01*
X75820000Y-175615659D01*
X75820001Y-175615659D01*
X75859234Y-175612226D01*
X76055408Y-175595063D01*
X76283663Y-175533903D01*
X76497830Y-175434035D01*
X76691401Y-175298495D01*
X76858495Y-175131401D01*
X76988425Y-174945842D01*
X77043002Y-174902217D01*
X77112500Y-174895023D01*
X77174855Y-174926546D01*
X77191575Y-174945842D01*
X77321500Y-175131395D01*
X77321505Y-175131401D01*
X77488599Y-175298495D01*
X77585384Y-175366265D01*
X77682165Y-175434032D01*
X77682167Y-175434033D01*
X77682170Y-175434035D01*
X77896337Y-175533903D01*
X78124592Y-175595063D01*
X78312918Y-175611539D01*
X78359999Y-175615659D01*
X78360000Y-175615659D01*
X78360001Y-175615659D01*
X78399234Y-175612226D01*
X78595408Y-175595063D01*
X78823663Y-175533903D01*
X79037830Y-175434035D01*
X79231401Y-175298495D01*
X79398495Y-175131401D01*
X79534035Y-174937830D01*
X79633903Y-174723663D01*
X79666466Y-174602135D01*
X82109500Y-174602135D01*
X82109500Y-176397870D01*
X82109501Y-176397876D01*
X82115908Y-176457483D01*
X82166202Y-176592328D01*
X82166206Y-176592335D01*
X82252452Y-176707544D01*
X82252455Y-176707547D01*
X82367664Y-176793793D01*
X82367671Y-176793797D01*
X82502517Y-176844091D01*
X82502516Y-176844091D01*
X82509444Y-176844835D01*
X82562127Y-176850500D01*
X84357872Y-176850499D01*
X84417483Y-176844091D01*
X84552331Y-176793796D01*
X84667546Y-176707546D01*
X84753796Y-176592331D01*
X84802810Y-176460916D01*
X84844681Y-176404984D01*
X84910145Y-176380566D01*
X84978418Y-176395417D01*
X85006673Y-176416569D01*
X85128599Y-176538495D01*
X85225384Y-176606265D01*
X85322165Y-176674032D01*
X85322167Y-176674033D01*
X85322170Y-176674035D01*
X85536337Y-176773903D01*
X85764592Y-176835063D01*
X85941034Y-176850500D01*
X85999999Y-176855659D01*
X86000000Y-176855659D01*
X86000001Y-176855659D01*
X86058966Y-176850500D01*
X86235408Y-176835063D01*
X86463663Y-176773903D01*
X86677830Y-176674035D01*
X86871401Y-176538495D01*
X87038495Y-176371401D01*
X87174035Y-176177830D01*
X87273903Y-175963663D01*
X87335063Y-175735408D01*
X87355659Y-175500000D01*
X87335063Y-175264592D01*
X87273903Y-175036337D01*
X87174035Y-174822171D01*
X87110920Y-174732032D01*
X87038494Y-174628597D01*
X86871402Y-174461506D01*
X86871395Y-174461501D01*
X86677834Y-174325967D01*
X86677830Y-174325965D01*
X86634082Y-174305565D01*
X86463663Y-174226097D01*
X86463659Y-174226096D01*
X86463655Y-174226094D01*
X86235413Y-174164938D01*
X86235403Y-174164936D01*
X86000001Y-174144341D01*
X85999999Y-174144341D01*
X85764596Y-174164936D01*
X85764586Y-174164938D01*
X85536344Y-174226094D01*
X85536335Y-174226098D01*
X85322171Y-174325964D01*
X85322169Y-174325965D01*
X85128600Y-174461503D01*
X85006673Y-174583430D01*
X84945350Y-174616914D01*
X84875658Y-174611930D01*
X84819725Y-174570058D01*
X84802810Y-174539081D01*
X84753797Y-174407671D01*
X84753793Y-174407664D01*
X84667547Y-174292455D01*
X84667544Y-174292452D01*
X84552335Y-174206206D01*
X84552328Y-174206202D01*
X84417482Y-174155908D01*
X84417483Y-174155908D01*
X84357883Y-174149501D01*
X84357881Y-174149500D01*
X84357873Y-174149500D01*
X84357864Y-174149500D01*
X82562129Y-174149500D01*
X82562123Y-174149501D01*
X82502516Y-174155908D01*
X82367671Y-174206202D01*
X82367664Y-174206206D01*
X82252455Y-174292452D01*
X82252452Y-174292455D01*
X82166206Y-174407664D01*
X82166202Y-174407671D01*
X82115908Y-174542517D01*
X82109501Y-174602116D01*
X82109500Y-174602135D01*
X79666466Y-174602135D01*
X79695063Y-174495408D01*
X79715659Y-174260000D01*
X79695063Y-174024592D01*
X79633903Y-173796337D01*
X79534035Y-173582171D01*
X79528425Y-173574158D01*
X79398494Y-173388597D01*
X79231402Y-173221506D01*
X79231396Y-173221501D01*
X79045842Y-173091575D01*
X79002217Y-173036998D01*
X78995023Y-172967500D01*
X79026546Y-172905145D01*
X79045842Y-172888425D01*
X79101401Y-172849522D01*
X79231401Y-172758495D01*
X79398495Y-172591401D01*
X79534035Y-172397830D01*
X79633903Y-172183663D01*
X79695063Y-171955408D01*
X79715659Y-171720000D01*
X79695063Y-171484592D01*
X79633903Y-171256337D01*
X79534035Y-171042171D01*
X79528425Y-171034158D01*
X79398494Y-170848597D01*
X79231402Y-170681506D01*
X79231396Y-170681501D01*
X79045842Y-170551575D01*
X79002217Y-170496998D01*
X78995023Y-170427500D01*
X79026546Y-170365145D01*
X79045842Y-170348425D01*
X79127186Y-170291467D01*
X79231401Y-170218495D01*
X79398495Y-170051401D01*
X79534035Y-169857830D01*
X79633903Y-169643663D01*
X79695063Y-169415408D01*
X79715659Y-169180000D01*
X79695063Y-168944592D01*
X79633903Y-168716337D01*
X79534035Y-168502171D01*
X79528425Y-168494158D01*
X79398494Y-168308597D01*
X79231402Y-168141506D01*
X79231396Y-168141501D01*
X79045842Y-168011575D01*
X79002217Y-167956998D01*
X78995023Y-167887500D01*
X79026546Y-167825145D01*
X79045842Y-167808425D01*
X79068026Y-167792891D01*
X79231401Y-167678495D01*
X79398495Y-167511401D01*
X79534035Y-167317830D01*
X79633903Y-167103663D01*
X79695063Y-166875408D01*
X79715659Y-166640000D01*
X79695063Y-166404592D01*
X79633903Y-166176337D01*
X79534035Y-165962171D01*
X79528425Y-165954158D01*
X79398494Y-165768597D01*
X79231402Y-165601506D01*
X79231396Y-165601501D01*
X79045842Y-165471575D01*
X79002217Y-165416998D01*
X78995023Y-165347500D01*
X79026546Y-165285145D01*
X79045842Y-165268425D01*
X79068026Y-165252891D01*
X79231401Y-165138495D01*
X79398495Y-164971401D01*
X79534035Y-164777830D01*
X79633903Y-164563663D01*
X79695063Y-164335408D01*
X79715659Y-164100000D01*
X79695063Y-163864592D01*
X79633903Y-163636337D01*
X79534035Y-163422171D01*
X79528425Y-163414158D01*
X79398494Y-163228597D01*
X79231402Y-163061506D01*
X79231396Y-163061501D01*
X79045842Y-162931575D01*
X79002217Y-162876998D01*
X78995023Y-162807500D01*
X79026546Y-162745145D01*
X79045842Y-162728425D01*
X79068026Y-162712891D01*
X79231401Y-162598495D01*
X79398495Y-162431401D01*
X79534035Y-162237830D01*
X79633903Y-162023663D01*
X79695063Y-161795408D01*
X79715659Y-161560000D01*
X79695063Y-161324592D01*
X79633903Y-161096337D01*
X79534035Y-160882171D01*
X79529567Y-160875789D01*
X79398494Y-160688597D01*
X79231402Y-160521506D01*
X79231396Y-160521501D01*
X79045842Y-160391575D01*
X79002217Y-160336998D01*
X78995023Y-160267500D01*
X79026546Y-160205145D01*
X79045842Y-160188425D01*
X79129544Y-160129816D01*
X79231401Y-160058495D01*
X79398495Y-159891401D01*
X79534035Y-159697830D01*
X79633903Y-159483663D01*
X79695063Y-159255408D01*
X79715659Y-159020000D01*
X79695063Y-158784592D01*
X79633903Y-158556337D01*
X79534035Y-158342171D01*
X79528425Y-158334158D01*
X79398494Y-158148597D01*
X79231402Y-157981506D01*
X79231396Y-157981501D01*
X79045842Y-157851575D01*
X79002217Y-157796998D01*
X78995023Y-157727500D01*
X79026546Y-157665145D01*
X79045842Y-157648425D01*
X79068026Y-157632891D01*
X79231401Y-157518495D01*
X79398495Y-157351401D01*
X79534035Y-157157830D01*
X79633903Y-156943663D01*
X79695063Y-156715408D01*
X79715659Y-156480000D01*
X79695063Y-156244592D01*
X79633903Y-156016337D01*
X79534035Y-155802171D01*
X79528425Y-155794158D01*
X79398494Y-155608597D01*
X79231402Y-155441506D01*
X79231396Y-155441501D01*
X79045842Y-155311575D01*
X79002217Y-155256998D01*
X78995023Y-155187500D01*
X79026546Y-155125145D01*
X79045842Y-155108425D01*
X79197458Y-155002262D01*
X79231401Y-154978495D01*
X79398495Y-154811401D01*
X79534035Y-154617830D01*
X79633903Y-154403663D01*
X79695063Y-154175408D01*
X79715659Y-153940000D01*
X79695063Y-153704592D01*
X79633903Y-153476337D01*
X79534035Y-153262171D01*
X79528425Y-153254158D01*
X79398494Y-153068597D01*
X79231402Y-152901506D01*
X79231396Y-152901501D01*
X79045842Y-152771575D01*
X79002217Y-152716998D01*
X78995023Y-152647500D01*
X79026546Y-152585145D01*
X79045842Y-152568425D01*
X79068026Y-152552891D01*
X79231401Y-152438495D01*
X79398495Y-152271401D01*
X79534035Y-152077830D01*
X79633903Y-151863663D01*
X79695063Y-151635408D01*
X79715659Y-151400000D01*
X79695063Y-151164592D01*
X79633903Y-150936337D01*
X79534035Y-150722171D01*
X79528425Y-150714158D01*
X79398494Y-150528597D01*
X79231402Y-150361506D01*
X79231396Y-150361501D01*
X79045842Y-150231575D01*
X79002217Y-150176998D01*
X78995023Y-150107500D01*
X79026546Y-150045145D01*
X79045842Y-150028425D01*
X79068026Y-150012891D01*
X79231401Y-149898495D01*
X79398495Y-149731401D01*
X79534035Y-149537830D01*
X79633903Y-149323663D01*
X79695063Y-149095408D01*
X79715659Y-148860000D01*
X79695063Y-148624592D01*
X79633903Y-148396337D01*
X79534035Y-148182171D01*
X79528425Y-148174158D01*
X79398494Y-147988597D01*
X79231402Y-147821506D01*
X79231396Y-147821501D01*
X79045842Y-147691575D01*
X79002217Y-147636998D01*
X78995023Y-147567500D01*
X79026546Y-147505145D01*
X79045842Y-147488425D01*
X79068026Y-147472891D01*
X79231401Y-147358495D01*
X79398495Y-147191401D01*
X79534035Y-146997830D01*
X79633903Y-146783663D01*
X79695063Y-146555408D01*
X79715659Y-146320000D01*
X79695063Y-146084592D01*
X79633903Y-145856337D01*
X79534035Y-145642171D01*
X79528425Y-145634158D01*
X79398494Y-145448597D01*
X79231402Y-145281506D01*
X79231396Y-145281501D01*
X79045842Y-145151575D01*
X79002217Y-145096998D01*
X78995023Y-145027500D01*
X79026546Y-144965145D01*
X79045842Y-144948425D01*
X79068026Y-144932891D01*
X79231401Y-144818495D01*
X79398495Y-144651401D01*
X79534035Y-144457830D01*
X79633903Y-144243663D01*
X79695063Y-144015408D01*
X79715659Y-143780000D01*
X79695063Y-143544592D01*
X79633903Y-143316337D01*
X79534035Y-143102171D01*
X79528425Y-143094158D01*
X79398494Y-142908597D01*
X79231402Y-142741506D01*
X79231396Y-142741501D01*
X79045842Y-142611575D01*
X79002217Y-142556998D01*
X78995023Y-142487500D01*
X79026546Y-142425145D01*
X79045842Y-142408425D01*
X79068026Y-142392891D01*
X79231401Y-142278495D01*
X79398495Y-142111401D01*
X79534035Y-141917830D01*
X79633903Y-141703663D01*
X79695063Y-141475408D01*
X79715659Y-141240000D01*
X79695063Y-141004592D01*
X79633903Y-140776337D01*
X79534035Y-140562171D01*
X79528425Y-140554158D01*
X79398494Y-140368597D01*
X79231402Y-140201506D01*
X79231401Y-140201505D01*
X79045405Y-140071269D01*
X79001781Y-140016692D01*
X78994588Y-139947193D01*
X79026110Y-139884839D01*
X79045405Y-139868119D01*
X79231082Y-139738105D01*
X79398105Y-139571082D01*
X79533600Y-139377578D01*
X79633429Y-139163492D01*
X79633432Y-139163486D01*
X79690636Y-138950000D01*
X78793012Y-138950000D01*
X78825925Y-138892993D01*
X78860000Y-138765826D01*
X78860000Y-138634174D01*
X78825925Y-138507007D01*
X78793012Y-138450000D01*
X79690636Y-138450000D01*
X79690635Y-138449999D01*
X79633432Y-138236513D01*
X79633429Y-138236507D01*
X79533600Y-138022422D01*
X79533599Y-138022420D01*
X79398113Y-137828926D01*
X79398108Y-137828920D01*
X79231078Y-137661890D01*
X79045405Y-137531879D01*
X79001780Y-137477302D01*
X78994588Y-137407804D01*
X79026110Y-137345449D01*
X79045406Y-137328730D01*
X79045842Y-137328425D01*
X79231401Y-137198495D01*
X79398495Y-137031401D01*
X79534035Y-136837830D01*
X79633903Y-136623663D01*
X79695063Y-136395408D01*
X79715659Y-136160000D01*
X79695063Y-135924592D01*
X79633903Y-135696337D01*
X79534035Y-135482171D01*
X79528425Y-135474158D01*
X79398494Y-135288597D01*
X79231402Y-135121506D01*
X79231396Y-135121501D01*
X79045842Y-134991575D01*
X79002217Y-134936998D01*
X78995023Y-134867500D01*
X79026546Y-134805145D01*
X79045842Y-134788425D01*
X79068026Y-134772891D01*
X79231401Y-134658495D01*
X79398495Y-134491401D01*
X79534035Y-134297830D01*
X79633903Y-134083663D01*
X79695063Y-133855408D01*
X79715659Y-133620000D01*
X79695063Y-133384592D01*
X79640044Y-133179255D01*
X79633905Y-133156344D01*
X79633904Y-133156343D01*
X79633903Y-133156337D01*
X79534035Y-132942171D01*
X79528425Y-132934158D01*
X79398494Y-132748597D01*
X79231402Y-132581506D01*
X79231396Y-132581501D01*
X79045842Y-132451575D01*
X79002217Y-132396998D01*
X78995023Y-132327500D01*
X79026546Y-132265145D01*
X79045842Y-132248425D01*
X79128633Y-132190454D01*
X79231401Y-132118495D01*
X79398495Y-131951401D01*
X79534035Y-131757830D01*
X79633903Y-131543663D01*
X79695063Y-131315408D01*
X79715659Y-131080000D01*
X79695063Y-130844592D01*
X79633903Y-130616337D01*
X79534035Y-130402171D01*
X79528425Y-130394158D01*
X79398494Y-130208597D01*
X79231402Y-130041506D01*
X79231396Y-130041501D01*
X79045842Y-129911575D01*
X79002217Y-129856998D01*
X78995023Y-129787500D01*
X79026546Y-129725145D01*
X79045842Y-129708425D01*
X79090347Y-129677262D01*
X79231401Y-129578495D01*
X79398495Y-129411401D01*
X79534035Y-129217830D01*
X79633903Y-129003663D01*
X79695063Y-128775408D01*
X79715659Y-128540000D01*
X79695063Y-128304592D01*
X79633903Y-128076337D01*
X79534035Y-127862171D01*
X79528425Y-127854158D01*
X79398494Y-127668597D01*
X79231402Y-127501506D01*
X79231396Y-127501501D01*
X79045842Y-127371575D01*
X79002217Y-127316998D01*
X78995023Y-127247500D01*
X79026546Y-127185145D01*
X79045842Y-127168425D01*
X79100983Y-127129815D01*
X79231401Y-127038495D01*
X79398495Y-126871401D01*
X79534035Y-126677830D01*
X79633903Y-126463663D01*
X79695063Y-126235408D01*
X79715659Y-126000000D01*
X79695063Y-125764592D01*
X79633903Y-125536337D01*
X79534035Y-125322171D01*
X79398495Y-125128599D01*
X79398494Y-125128597D01*
X79231402Y-124961506D01*
X79231395Y-124961501D01*
X79037834Y-124825967D01*
X79037830Y-124825965D01*
X79037828Y-124825964D01*
X78823663Y-124726097D01*
X78823659Y-124726096D01*
X78823655Y-124726094D01*
X78595413Y-124664938D01*
X78595403Y-124664936D01*
X78360001Y-124644341D01*
X78359999Y-124644341D01*
X78124596Y-124664936D01*
X78124586Y-124664938D01*
X77896344Y-124726094D01*
X77896335Y-124726098D01*
X77682171Y-124825964D01*
X77682169Y-124825965D01*
X77488600Y-124961503D01*
X77366673Y-125083430D01*
X77305350Y-125116914D01*
X77235658Y-125111930D01*
X77179725Y-125070058D01*
X77162810Y-125039081D01*
X77113797Y-124907671D01*
X77113793Y-124907664D01*
X77027547Y-124792455D01*
X77027544Y-124792452D01*
X76912335Y-124706206D01*
X76912328Y-124706202D01*
X76777482Y-124655908D01*
X76777483Y-124655908D01*
X76717883Y-124649501D01*
X76717881Y-124649500D01*
X76717873Y-124649500D01*
X76717864Y-124649500D01*
X74922129Y-124649500D01*
X74922123Y-124649501D01*
X74862516Y-124655908D01*
X74727671Y-124706202D01*
X74727668Y-124706204D01*
X74698811Y-124727807D01*
X74633346Y-124752224D01*
X74565073Y-124737372D01*
X74515668Y-124687967D01*
X74500500Y-124628540D01*
X74500500Y-99499997D01*
X76695034Y-99499997D01*
X76695034Y-99500002D01*
X76714858Y-99726599D01*
X76714860Y-99726610D01*
X76773730Y-99946317D01*
X76773735Y-99946331D01*
X76869863Y-100152478D01*
X76920974Y-100225472D01*
X77600000Y-99546446D01*
X77600000Y-99552661D01*
X77627259Y-99654394D01*
X77679920Y-99745606D01*
X77754394Y-99820080D01*
X77845606Y-99872741D01*
X77947339Y-99900000D01*
X77953553Y-99900000D01*
X77269352Y-100584199D01*
X77259506Y-100633194D01*
X77210890Y-100683377D01*
X77155367Y-100698049D01*
X77155423Y-100699099D01*
X77155429Y-100699146D01*
X77155426Y-100699146D01*
X77155436Y-100699324D01*
X77152123Y-100699501D01*
X77092516Y-100705908D01*
X76957671Y-100756202D01*
X76957664Y-100756206D01*
X76842455Y-100842452D01*
X76842452Y-100842455D01*
X76756206Y-100957664D01*
X76756202Y-100957671D01*
X76705908Y-101092517D01*
X76699501Y-101152116D01*
X76699501Y-101152123D01*
X76699500Y-101152135D01*
X76699500Y-102847870D01*
X76699501Y-102847876D01*
X76705908Y-102907483D01*
X76756202Y-103042328D01*
X76756206Y-103042335D01*
X76842452Y-103157544D01*
X76842455Y-103157547D01*
X76957664Y-103243793D01*
X76957671Y-103243797D01*
X77092517Y-103294091D01*
X77092516Y-103294091D01*
X77099444Y-103294835D01*
X77152127Y-103300500D01*
X78847872Y-103300499D01*
X78907483Y-103294091D01*
X79042331Y-103243796D01*
X79157546Y-103157546D01*
X79243796Y-103042331D01*
X79294091Y-102907483D01*
X79300500Y-102847873D01*
X79300499Y-101152128D01*
X79294091Y-101092517D01*
X79243796Y-100957669D01*
X79243795Y-100957668D01*
X79243793Y-100957664D01*
X79157547Y-100842455D01*
X79157544Y-100842452D01*
X79042335Y-100756206D01*
X79042328Y-100756202D01*
X78907482Y-100705908D01*
X78907483Y-100705908D01*
X78847883Y-100699501D01*
X78847881Y-100699500D01*
X78847873Y-100699500D01*
X78847864Y-100699500D01*
X78844548Y-100699322D01*
X78844627Y-100697847D01*
X78783215Y-100679815D01*
X78737460Y-100627011D01*
X78729969Y-100583522D01*
X78046447Y-99900000D01*
X78052661Y-99900000D01*
X78154394Y-99872741D01*
X78245606Y-99820080D01*
X78320080Y-99745606D01*
X78372741Y-99654394D01*
X78400000Y-99552661D01*
X78400000Y-99546447D01*
X79079024Y-100225471D01*
X79130136Y-100152478D01*
X79226264Y-99946331D01*
X79226269Y-99946317D01*
X79285139Y-99726610D01*
X79285141Y-99726599D01*
X79304966Y-99500002D01*
X79304966Y-99499997D01*
X79285141Y-99273400D01*
X79285139Y-99273389D01*
X79226269Y-99053682D01*
X79226264Y-99053668D01*
X79201237Y-98999997D01*
X99695034Y-98999997D01*
X99695034Y-99000002D01*
X99714858Y-99226599D01*
X99714860Y-99226610D01*
X99773730Y-99446317D01*
X99773735Y-99446331D01*
X99869863Y-99652478D01*
X99920974Y-99725472D01*
X100600000Y-99046446D01*
X100600000Y-99052661D01*
X100627259Y-99154394D01*
X100679920Y-99245606D01*
X100754394Y-99320080D01*
X100845606Y-99372741D01*
X100947339Y-99400000D01*
X100953553Y-99400000D01*
X100269352Y-100084199D01*
X100259506Y-100133194D01*
X100210890Y-100183377D01*
X100155367Y-100198049D01*
X100155423Y-100199099D01*
X100155429Y-100199146D01*
X100155426Y-100199146D01*
X100155436Y-100199324D01*
X100152123Y-100199501D01*
X100092516Y-100205908D01*
X99957671Y-100256202D01*
X99957664Y-100256206D01*
X99842455Y-100342452D01*
X99842452Y-100342455D01*
X99756206Y-100457664D01*
X99756202Y-100457671D01*
X99705908Y-100592517D01*
X99699501Y-100652116D01*
X99699501Y-100652123D01*
X99699500Y-100652135D01*
X99699500Y-102347870D01*
X99699501Y-102347876D01*
X99705908Y-102407483D01*
X99756202Y-102542328D01*
X99756206Y-102542335D01*
X99842452Y-102657544D01*
X99842455Y-102657547D01*
X99957664Y-102743793D01*
X99957671Y-102743797D01*
X100092517Y-102794091D01*
X100092516Y-102794091D01*
X100099444Y-102794835D01*
X100152127Y-102800500D01*
X101847872Y-102800499D01*
X101907483Y-102794091D01*
X102042331Y-102743796D01*
X102157546Y-102657546D01*
X102243796Y-102542331D01*
X102294091Y-102407483D01*
X102300500Y-102347873D01*
X102300499Y-100652128D01*
X102294091Y-100592517D01*
X102243796Y-100457669D01*
X102243795Y-100457668D01*
X102243793Y-100457664D01*
X102157547Y-100342455D01*
X102157544Y-100342452D01*
X102042335Y-100256206D01*
X102042328Y-100256202D01*
X101907482Y-100205908D01*
X101907483Y-100205908D01*
X101847883Y-100199501D01*
X101847881Y-100199500D01*
X101847873Y-100199500D01*
X101847864Y-100199500D01*
X101844548Y-100199322D01*
X101844627Y-100197847D01*
X101783215Y-100179815D01*
X101737460Y-100127011D01*
X101729969Y-100083522D01*
X101046447Y-99400000D01*
X101052661Y-99400000D01*
X101154394Y-99372741D01*
X101245606Y-99320080D01*
X101320080Y-99245606D01*
X101372741Y-99154394D01*
X101400000Y-99052661D01*
X101400000Y-99046447D01*
X102079024Y-99725471D01*
X102130136Y-99652478D01*
X102226264Y-99446331D01*
X102226269Y-99446317D01*
X102285139Y-99226610D01*
X102285141Y-99226599D01*
X102304966Y-99000002D01*
X102304966Y-98999997D01*
X102285141Y-98773400D01*
X102285139Y-98773389D01*
X102226269Y-98553682D01*
X102226264Y-98553668D01*
X102130136Y-98347521D01*
X102130132Y-98347513D01*
X102079025Y-98274526D01*
X101400000Y-98953551D01*
X101400000Y-98947339D01*
X101372741Y-98845606D01*
X101320080Y-98754394D01*
X101245606Y-98679920D01*
X101154394Y-98627259D01*
X101052661Y-98600000D01*
X101046448Y-98600000D01*
X101725472Y-97920974D01*
X101652478Y-97869863D01*
X101446331Y-97773735D01*
X101446317Y-97773730D01*
X101226610Y-97714860D01*
X101226599Y-97714858D01*
X101000002Y-97695034D01*
X100999998Y-97695034D01*
X100773400Y-97714858D01*
X100773389Y-97714860D01*
X100553682Y-97773730D01*
X100553673Y-97773734D01*
X100347516Y-97869866D01*
X100347512Y-97869868D01*
X100274526Y-97920973D01*
X100274526Y-97920974D01*
X100953553Y-98600000D01*
X100947339Y-98600000D01*
X100845606Y-98627259D01*
X100754394Y-98679920D01*
X100679920Y-98754394D01*
X100627259Y-98845606D01*
X100600000Y-98947339D01*
X100600000Y-98953552D01*
X99920974Y-98274526D01*
X99920973Y-98274526D01*
X99869868Y-98347512D01*
X99869866Y-98347516D01*
X99773734Y-98553673D01*
X99773730Y-98553682D01*
X99714860Y-98773389D01*
X99714858Y-98773400D01*
X99695034Y-98999997D01*
X79201237Y-98999997D01*
X79130136Y-98847521D01*
X79130132Y-98847513D01*
X79079025Y-98774526D01*
X78400000Y-99453551D01*
X78400000Y-99447339D01*
X78372741Y-99345606D01*
X78320080Y-99254394D01*
X78245606Y-99179920D01*
X78154394Y-99127259D01*
X78052661Y-99100000D01*
X78046448Y-99100000D01*
X78725472Y-98420974D01*
X78652478Y-98369863D01*
X78446331Y-98273735D01*
X78446317Y-98273730D01*
X78226610Y-98214860D01*
X78226599Y-98214858D01*
X78000002Y-98195034D01*
X77999998Y-98195034D01*
X77773400Y-98214858D01*
X77773389Y-98214860D01*
X77553682Y-98273730D01*
X77553673Y-98273734D01*
X77347516Y-98369866D01*
X77347512Y-98369868D01*
X77274526Y-98420973D01*
X77274526Y-98420974D01*
X77953553Y-99100000D01*
X77947339Y-99100000D01*
X77845606Y-99127259D01*
X77754394Y-99179920D01*
X77679920Y-99254394D01*
X77627259Y-99345606D01*
X77600000Y-99447339D01*
X77600000Y-99453552D01*
X76920974Y-98774526D01*
X76920973Y-98774526D01*
X76869868Y-98847512D01*
X76869866Y-98847516D01*
X76773734Y-99053673D01*
X76773730Y-99053682D01*
X76714860Y-99273389D01*
X76714858Y-99273400D01*
X76695034Y-99499997D01*
X74500500Y-99499997D01*
X74500500Y-89381947D01*
X83300000Y-89381947D01*
X83300000Y-90250000D01*
X84300000Y-90250000D01*
X84300000Y-90750000D01*
X83300000Y-90750000D01*
X83300000Y-91618052D01*
X83336934Y-91851247D01*
X83409897Y-92075802D01*
X83517085Y-92286171D01*
X83655866Y-92477186D01*
X83822813Y-92644133D01*
X84013828Y-92782914D01*
X84224195Y-92890102D01*
X84448744Y-92963063D01*
X84448750Y-92963065D01*
X84550000Y-92979101D01*
X84550000Y-91933012D01*
X84607007Y-91965925D01*
X84734174Y-92000000D01*
X84865826Y-92000000D01*
X84992993Y-91965925D01*
X85050000Y-91933012D01*
X85050000Y-92979100D01*
X85151249Y-92963065D01*
X85151255Y-92963063D01*
X85375804Y-92890102D01*
X85586171Y-92782914D01*
X85766172Y-92652135D01*
X86749500Y-92652135D01*
X86749500Y-94747870D01*
X86749501Y-94747876D01*
X86755908Y-94807483D01*
X86806202Y-94942328D01*
X86806206Y-94942335D01*
X86892452Y-95057544D01*
X86892455Y-95057547D01*
X87007664Y-95143793D01*
X87007671Y-95143797D01*
X87142517Y-95194091D01*
X87142516Y-95194091D01*
X87149444Y-95194835D01*
X87202127Y-95200500D01*
X91797872Y-95200499D01*
X91857483Y-95194091D01*
X91992331Y-95143796D01*
X92107546Y-95057546D01*
X92193796Y-94942331D01*
X92244091Y-94807483D01*
X92250500Y-94747873D01*
X92250499Y-92652128D01*
X92244091Y-92592517D01*
X92238056Y-92576337D01*
X92193797Y-92457671D01*
X92193793Y-92457664D01*
X92107547Y-92342455D01*
X92107544Y-92342452D01*
X91992335Y-92256206D01*
X91992328Y-92256202D01*
X91857482Y-92205908D01*
X91857483Y-92205908D01*
X91797883Y-92199501D01*
X91797881Y-92199500D01*
X91797873Y-92199500D01*
X91797864Y-92199500D01*
X87202129Y-92199500D01*
X87202123Y-92199501D01*
X87142516Y-92205908D01*
X87007671Y-92256202D01*
X87007664Y-92256206D01*
X86892455Y-92342452D01*
X86892452Y-92342455D01*
X86806206Y-92457664D01*
X86806202Y-92457671D01*
X86755908Y-92592517D01*
X86750814Y-92639901D01*
X86749501Y-92652123D01*
X86749500Y-92652135D01*
X85766172Y-92652135D01*
X85777186Y-92644133D01*
X85944133Y-92477186D01*
X86082914Y-92286171D01*
X86190102Y-92075802D01*
X86263065Y-91851247D01*
X86300000Y-91618052D01*
X86300000Y-90750000D01*
X85300000Y-90750000D01*
X85300000Y-90250000D01*
X86300000Y-90250000D01*
X86300000Y-90102135D01*
X98374500Y-90102135D01*
X98374500Y-91897870D01*
X98374501Y-91897876D01*
X98380908Y-91957483D01*
X98431202Y-92092328D01*
X98431206Y-92092335D01*
X98517452Y-92207544D01*
X98517455Y-92207547D01*
X98632664Y-92293793D01*
X98632671Y-92293797D01*
X98767517Y-92344091D01*
X98767516Y-92344091D01*
X98774444Y-92344835D01*
X98827127Y-92350500D01*
X100622872Y-92350499D01*
X100682483Y-92344091D01*
X100817331Y-92293796D01*
X100932546Y-92207546D01*
X101018796Y-92092331D01*
X101068002Y-91960401D01*
X101109872Y-91904468D01*
X101175337Y-91880050D01*
X101243610Y-91894901D01*
X101271865Y-91916053D01*
X101393917Y-92038105D01*
X101587421Y-92173600D01*
X101801507Y-92273429D01*
X101801516Y-92273433D01*
X102015000Y-92330634D01*
X102015000Y-91433012D01*
X102072007Y-91465925D01*
X102199174Y-91500000D01*
X102330826Y-91500000D01*
X102457993Y-91465925D01*
X102515000Y-91433012D01*
X102515000Y-92330633D01*
X102728483Y-92273433D01*
X102728492Y-92273429D01*
X102942578Y-92173600D01*
X103136082Y-92038105D01*
X103303105Y-91871082D01*
X103438600Y-91677578D01*
X103538429Y-91463492D01*
X103538432Y-91463486D01*
X103595636Y-91250000D01*
X102698012Y-91250000D01*
X102730925Y-91192993D01*
X102765000Y-91065826D01*
X102765000Y-90934174D01*
X102730925Y-90807007D01*
X102698012Y-90750000D01*
X103595636Y-90750000D01*
X103595635Y-90749999D01*
X103538432Y-90536513D01*
X103538429Y-90536507D01*
X103438600Y-90322422D01*
X103438599Y-90322420D01*
X103303113Y-90128926D01*
X103303108Y-90128920D01*
X103136082Y-89961894D01*
X102942578Y-89826399D01*
X102728492Y-89726570D01*
X102728486Y-89726567D01*
X102515000Y-89669364D01*
X102515000Y-90566988D01*
X102457993Y-90534075D01*
X102330826Y-90500000D01*
X102199174Y-90500000D01*
X102072007Y-90534075D01*
X102015000Y-90566988D01*
X102015000Y-89669364D01*
X102014999Y-89669364D01*
X101801513Y-89726567D01*
X101801507Y-89726570D01*
X101587422Y-89826399D01*
X101587420Y-89826400D01*
X101393926Y-89961886D01*
X101271865Y-90083947D01*
X101210542Y-90117431D01*
X101140850Y-90112447D01*
X101084917Y-90070575D01*
X101068002Y-90039598D01*
X101066788Y-90036344D01*
X101018796Y-89907669D01*
X101018795Y-89907668D01*
X101018793Y-89907664D01*
X100932547Y-89792455D01*
X100932544Y-89792452D01*
X100817335Y-89706206D01*
X100817328Y-89706202D01*
X100682482Y-89655908D01*
X100682483Y-89655908D01*
X100622883Y-89649501D01*
X100622881Y-89649500D01*
X100622873Y-89649500D01*
X100622864Y-89649500D01*
X98827129Y-89649500D01*
X98827123Y-89649501D01*
X98767516Y-89655908D01*
X98632671Y-89706202D01*
X98632664Y-89706206D01*
X98517455Y-89792452D01*
X98517452Y-89792455D01*
X98431206Y-89907664D01*
X98431202Y-89907671D01*
X98380908Y-90042517D01*
X98374501Y-90102116D01*
X98374500Y-90102135D01*
X86300000Y-90102135D01*
X86300000Y-89381947D01*
X86263065Y-89148752D01*
X86190102Y-88924197D01*
X86082914Y-88713828D01*
X85944133Y-88522813D01*
X85777186Y-88355866D01*
X85586171Y-88217085D01*
X85375802Y-88109897D01*
X85151247Y-88036934D01*
X85050000Y-88020897D01*
X85050000Y-89066988D01*
X84992993Y-89034075D01*
X84865826Y-89000000D01*
X84734174Y-89000000D01*
X84607007Y-89034075D01*
X84550000Y-89066988D01*
X84550000Y-88020897D01*
X84448752Y-88036934D01*
X84224197Y-88109897D01*
X84013828Y-88217085D01*
X83822813Y-88355866D01*
X83655866Y-88522813D01*
X83517085Y-88713828D01*
X83409897Y-88924197D01*
X83336934Y-89148752D01*
X83300000Y-89381947D01*
X74500500Y-89381947D01*
X74500500Y-87250000D01*
X87020898Y-87250000D01*
X88066988Y-87250000D01*
X88034075Y-87307007D01*
X88000000Y-87434174D01*
X88000000Y-87565826D01*
X88034075Y-87692993D01*
X88066988Y-87750000D01*
X87020898Y-87750000D01*
X87036934Y-87851247D01*
X87109897Y-88075802D01*
X87217085Y-88286171D01*
X87355866Y-88477186D01*
X87522813Y-88644133D01*
X87713828Y-88782914D01*
X87924197Y-88890102D01*
X88148752Y-88963065D01*
X88148751Y-88963065D01*
X88381948Y-89000000D01*
X89250000Y-89000000D01*
X89250000Y-88000000D01*
X89750000Y-88000000D01*
X89750000Y-89000000D01*
X90618052Y-89000000D01*
X90851247Y-88963065D01*
X91075802Y-88890102D01*
X91286171Y-88782914D01*
X91477186Y-88644133D01*
X91644133Y-88477186D01*
X91782914Y-88286171D01*
X91890102Y-88075802D01*
X91963065Y-87851247D01*
X91979102Y-87750000D01*
X90933012Y-87750000D01*
X90965925Y-87692993D01*
X91000000Y-87565826D01*
X91000000Y-87434174D01*
X90965925Y-87307007D01*
X90933012Y-87250000D01*
X91979102Y-87250000D01*
X91963065Y-87148752D01*
X91890102Y-86924197D01*
X91782914Y-86713828D01*
X91644133Y-86522813D01*
X91477186Y-86355866D01*
X91286171Y-86217085D01*
X91075802Y-86109897D01*
X90851247Y-86036934D01*
X90851248Y-86036934D01*
X90618052Y-86000000D01*
X89750000Y-86000000D01*
X89750000Y-87000000D01*
X89250000Y-87000000D01*
X89250000Y-86000000D01*
X88381948Y-86000000D01*
X88148752Y-86036934D01*
X87924197Y-86109897D01*
X87713828Y-86217085D01*
X87522813Y-86355866D01*
X87355866Y-86522813D01*
X87217085Y-86713828D01*
X87109897Y-86924197D01*
X87036934Y-87148752D01*
X87020898Y-87250000D01*
X74500500Y-87250000D01*
X74500500Y-82999996D01*
X75595085Y-82999996D01*
X75595085Y-83000003D01*
X75614727Y-83337240D01*
X75614728Y-83337251D01*
X75673383Y-83669902D01*
X75673385Y-83669911D01*
X75770273Y-83993540D01*
X75904069Y-84303714D01*
X75904075Y-84303727D01*
X76072979Y-84596278D01*
X76274705Y-84867241D01*
X76276889Y-84869556D01*
X77348932Y-83797513D01*
X77432140Y-83912039D01*
X77587961Y-84067860D01*
X77702485Y-84151066D01*
X76633798Y-85219752D01*
X76633799Y-85219753D01*
X76765301Y-85330097D01*
X77047545Y-85515731D01*
X77349414Y-85667336D01*
X77349420Y-85667339D01*
X77666848Y-85782873D01*
X77666869Y-85782880D01*
X77995551Y-85860780D01*
X77995566Y-85860782D01*
X78331100Y-85899999D01*
X78331101Y-85900000D01*
X78668899Y-85900000D01*
X78668899Y-85899999D01*
X79004433Y-85860782D01*
X79004448Y-85860780D01*
X79333130Y-85782880D01*
X79333151Y-85782873D01*
X79650579Y-85667339D01*
X79650585Y-85667336D01*
X79952454Y-85515731D01*
X80234692Y-85330101D01*
X80234693Y-85330100D01*
X80366199Y-85219753D01*
X80366200Y-85219752D01*
X79297514Y-84151066D01*
X79412039Y-84067860D01*
X79567860Y-83912039D01*
X79651067Y-83797514D01*
X80723109Y-84869556D01*
X80725299Y-84867235D01*
X80927020Y-84596278D01*
X81095924Y-84303727D01*
X81095930Y-84303714D01*
X81229726Y-83993540D01*
X81326614Y-83669911D01*
X81326616Y-83669902D01*
X81356575Y-83499996D01*
X187595085Y-83499996D01*
X187595085Y-83500003D01*
X187614727Y-83837240D01*
X187614728Y-83837251D01*
X187673383Y-84169902D01*
X187673385Y-84169911D01*
X187770273Y-84493540D01*
X187904069Y-84803714D01*
X187904075Y-84803727D01*
X188072979Y-85096278D01*
X188274705Y-85367241D01*
X188276889Y-85369556D01*
X189348932Y-84297513D01*
X189432140Y-84412039D01*
X189587961Y-84567860D01*
X189702485Y-84651066D01*
X188633798Y-85719752D01*
X188633799Y-85719753D01*
X188765301Y-85830097D01*
X189047545Y-86015731D01*
X189349414Y-86167336D01*
X189349420Y-86167339D01*
X189666848Y-86282873D01*
X189666869Y-86282880D01*
X189995551Y-86360780D01*
X189995566Y-86360782D01*
X190331100Y-86399999D01*
X190331101Y-86400000D01*
X190668899Y-86400000D01*
X190668899Y-86399999D01*
X191004433Y-86360782D01*
X191004448Y-86360780D01*
X191333130Y-86282880D01*
X191333151Y-86282873D01*
X191650579Y-86167339D01*
X191650585Y-86167336D01*
X191952454Y-86015731D01*
X192234692Y-85830101D01*
X192234693Y-85830100D01*
X192366199Y-85719753D01*
X192366200Y-85719752D01*
X191297514Y-84651066D01*
X191412039Y-84567860D01*
X191567860Y-84412039D01*
X191651067Y-84297514D01*
X192723109Y-85369556D01*
X192725299Y-85367235D01*
X192927020Y-85096278D01*
X193095924Y-84803727D01*
X193095930Y-84803714D01*
X193229726Y-84493540D01*
X193326614Y-84169911D01*
X193326616Y-84169902D01*
X193385271Y-83837251D01*
X193385272Y-83837240D01*
X193404915Y-83500003D01*
X193404915Y-83499996D01*
X193385272Y-83162759D01*
X193385271Y-83162748D01*
X193326616Y-82830097D01*
X193326614Y-82830088D01*
X193229726Y-82506459D01*
X193095930Y-82196285D01*
X193095924Y-82196272D01*
X192927020Y-81903721D01*
X192725291Y-81632753D01*
X192723110Y-81630442D01*
X192723109Y-81630441D01*
X191651066Y-82702484D01*
X191567860Y-82587961D01*
X191412039Y-82432140D01*
X191297514Y-82348932D01*
X192366200Y-81280246D01*
X192366199Y-81280245D01*
X192234698Y-81169902D01*
X191952454Y-80984268D01*
X191650585Y-80832663D01*
X191650579Y-80832660D01*
X191333151Y-80717126D01*
X191333130Y-80717119D01*
X191004448Y-80639219D01*
X191004433Y-80639217D01*
X190668899Y-80600000D01*
X190331101Y-80600000D01*
X189995566Y-80639217D01*
X189995551Y-80639219D01*
X189666869Y-80717119D01*
X189666848Y-80717126D01*
X189349420Y-80832660D01*
X189349414Y-80832663D01*
X189047538Y-80984271D01*
X188765302Y-81169901D01*
X188633799Y-81280245D01*
X188633799Y-81280246D01*
X189702485Y-82348932D01*
X189587961Y-82432140D01*
X189432140Y-82587961D01*
X189348933Y-82702485D01*
X188276889Y-81630441D01*
X188276888Y-81630442D01*
X188274708Y-81632753D01*
X188274705Y-81632757D01*
X188072979Y-81903721D01*
X187904075Y-82196272D01*
X187904069Y-82196285D01*
X187770273Y-82506459D01*
X187673385Y-82830088D01*
X187673383Y-82830097D01*
X187614728Y-83162748D01*
X187614727Y-83162759D01*
X187595085Y-83499996D01*
X81356575Y-83499996D01*
X81385271Y-83337251D01*
X81385272Y-83337240D01*
X81404915Y-83000003D01*
X81404915Y-82999996D01*
X81385272Y-82662759D01*
X81385271Y-82662748D01*
X81326616Y-82330097D01*
X81326614Y-82330088D01*
X81229726Y-82006459D01*
X81095930Y-81696285D01*
X81095924Y-81696272D01*
X80927020Y-81403721D01*
X80725291Y-81132753D01*
X80723110Y-81130442D01*
X80723109Y-81130441D01*
X79651066Y-82202484D01*
X79567860Y-82087961D01*
X79412039Y-81932140D01*
X79297514Y-81848932D01*
X80366200Y-80780246D01*
X80366199Y-80780245D01*
X80234698Y-80669902D01*
X79952454Y-80484268D01*
X79650585Y-80332663D01*
X79650579Y-80332660D01*
X79333151Y-80217126D01*
X79333130Y-80217119D01*
X79004448Y-80139219D01*
X79004433Y-80139217D01*
X78668899Y-80100000D01*
X78331101Y-80100000D01*
X77995566Y-80139217D01*
X77995551Y-80139219D01*
X77666869Y-80217119D01*
X77666848Y-80217126D01*
X77349420Y-80332660D01*
X77349414Y-80332663D01*
X77047538Y-80484271D01*
X76765302Y-80669901D01*
X76633799Y-80780245D01*
X76633799Y-80780246D01*
X77702485Y-81848932D01*
X77587961Y-81932140D01*
X77432140Y-82087961D01*
X77348933Y-82202485D01*
X76276889Y-81130441D01*
X76276888Y-81130442D01*
X76274708Y-81132753D01*
X76274705Y-81132757D01*
X76072979Y-81403721D01*
X75904075Y-81696272D01*
X75904069Y-81696285D01*
X75770273Y-82006459D01*
X75673385Y-82330088D01*
X75673383Y-82330097D01*
X75614728Y-82662748D01*
X75614727Y-82662759D01*
X75595085Y-82999996D01*
X74500500Y-82999996D01*
X74500500Y-79624500D01*
X74520185Y-79557461D01*
X74572989Y-79511706D01*
X74624500Y-79500500D01*
X194375500Y-79500500D01*
X194442539Y-79520185D01*
G37*
%TD.AperFunction*%
%TA.AperFunction,Conductor*%
G36*
X175430000Y-92606988D02*
G01*
X175372993Y-92574075D01*
X175245826Y-92540000D01*
X175114174Y-92540000D01*
X174987007Y-92574075D01*
X174930000Y-92606988D01*
X174930000Y-90933012D01*
X174987007Y-90965925D01*
X175114174Y-91000000D01*
X175245826Y-91000000D01*
X175372993Y-90965925D01*
X175430000Y-90933012D01*
X175430000Y-92606988D01*
G37*
%TD.AperFunction*%
%TD*%
M02*
