%TF.GenerationSoftware,KiCad,Pcbnew,8.0.3-8.0.3-0~ubuntu20.04.1*%
%TF.CreationDate,2024-07-01T18:26:47+09:00*%
%TF.ProjectId,Gender_TANG25K_IO_LevelShift,47656e64-6572-45f5-9441-4e4732354b5f,rev?*%
%TF.SameCoordinates,Original*%
%TF.FileFunction,Legend,Top*%
%TF.FilePolarity,Positive*%
%FSLAX46Y46*%
G04 Gerber Fmt 4.6, Leading zero omitted, Abs format (unit mm)*
G04 Created by KiCad (PCBNEW 8.0.3-8.0.3-0~ubuntu20.04.1) date 2024-07-01 18:26:47*
%MOMM*%
%LPD*%
G01*
G04 APERTURE LIST*
%ADD10C,0.150000*%
%ADD11C,0.200000*%
%ADD12C,0.300000*%
%ADD13C,0.120000*%
G04 APERTURE END LIST*
D10*
X82666666Y-172454819D02*
X82666666Y-173169104D01*
X82666666Y-173169104D02*
X82619047Y-173311961D01*
X82619047Y-173311961D02*
X82523809Y-173407200D01*
X82523809Y-173407200D02*
X82380952Y-173454819D01*
X82380952Y-173454819D02*
X82285714Y-173454819D01*
X83571428Y-172454819D02*
X83380952Y-172454819D01*
X83380952Y-172454819D02*
X83285714Y-172502438D01*
X83285714Y-172502438D02*
X83238095Y-172550057D01*
X83238095Y-172550057D02*
X83142857Y-172692914D01*
X83142857Y-172692914D02*
X83095238Y-172883390D01*
X83095238Y-172883390D02*
X83095238Y-173264342D01*
X83095238Y-173264342D02*
X83142857Y-173359580D01*
X83142857Y-173359580D02*
X83190476Y-173407200D01*
X83190476Y-173407200D02*
X83285714Y-173454819D01*
X83285714Y-173454819D02*
X83476190Y-173454819D01*
X83476190Y-173454819D02*
X83571428Y-173407200D01*
X83571428Y-173407200D02*
X83619047Y-173359580D01*
X83619047Y-173359580D02*
X83666666Y-173264342D01*
X83666666Y-173264342D02*
X83666666Y-173026247D01*
X83666666Y-173026247D02*
X83619047Y-172931009D01*
X83619047Y-172931009D02*
X83571428Y-172883390D01*
X83571428Y-172883390D02*
X83476190Y-172835771D01*
X83476190Y-172835771D02*
X83285714Y-172835771D01*
X83285714Y-172835771D02*
X83190476Y-172883390D01*
X83190476Y-172883390D02*
X83142857Y-172931009D01*
X83142857Y-172931009D02*
X83095238Y-173026247D01*
X81166667Y-178454819D02*
X81166667Y-177454819D01*
X81833333Y-177454819D02*
X82023809Y-177454819D01*
X82023809Y-177454819D02*
X82119047Y-177502438D01*
X82119047Y-177502438D02*
X82214285Y-177597676D01*
X82214285Y-177597676D02*
X82261904Y-177788152D01*
X82261904Y-177788152D02*
X82261904Y-178121485D01*
X82261904Y-178121485D02*
X82214285Y-178311961D01*
X82214285Y-178311961D02*
X82119047Y-178407200D01*
X82119047Y-178407200D02*
X82023809Y-178454819D01*
X82023809Y-178454819D02*
X81833333Y-178454819D01*
X81833333Y-178454819D02*
X81738095Y-178407200D01*
X81738095Y-178407200D02*
X81642857Y-178311961D01*
X81642857Y-178311961D02*
X81595238Y-178121485D01*
X81595238Y-178121485D02*
X81595238Y-177788152D01*
X81595238Y-177788152D02*
X81642857Y-177597676D01*
X81642857Y-177597676D02*
X81738095Y-177502438D01*
X81738095Y-177502438D02*
X81833333Y-177454819D01*
X82452381Y-178550057D02*
X83214285Y-178550057D01*
X83357143Y-177454819D02*
X83976190Y-177454819D01*
X83976190Y-177454819D02*
X83642857Y-177835771D01*
X83642857Y-177835771D02*
X83785714Y-177835771D01*
X83785714Y-177835771D02*
X83880952Y-177883390D01*
X83880952Y-177883390D02*
X83928571Y-177931009D01*
X83928571Y-177931009D02*
X83976190Y-178026247D01*
X83976190Y-178026247D02*
X83976190Y-178264342D01*
X83976190Y-178264342D02*
X83928571Y-178359580D01*
X83928571Y-178359580D02*
X83880952Y-178407200D01*
X83880952Y-178407200D02*
X83785714Y-178454819D01*
X83785714Y-178454819D02*
X83500000Y-178454819D01*
X83500000Y-178454819D02*
X83404762Y-178407200D01*
X83404762Y-178407200D02*
X83357143Y-178359580D01*
X84452381Y-178454819D02*
X84642857Y-178454819D01*
X84642857Y-178454819D02*
X84738095Y-178407200D01*
X84738095Y-178407200D02*
X84785714Y-178359580D01*
X84785714Y-178359580D02*
X84880952Y-178216723D01*
X84880952Y-178216723D02*
X84928571Y-178026247D01*
X84928571Y-178026247D02*
X84928571Y-177645295D01*
X84928571Y-177645295D02*
X84880952Y-177550057D01*
X84880952Y-177550057D02*
X84833333Y-177502438D01*
X84833333Y-177502438D02*
X84738095Y-177454819D01*
X84738095Y-177454819D02*
X84547619Y-177454819D01*
X84547619Y-177454819D02*
X84452381Y-177502438D01*
X84452381Y-177502438D02*
X84404762Y-177550057D01*
X84404762Y-177550057D02*
X84357143Y-177645295D01*
X84357143Y-177645295D02*
X84357143Y-177883390D01*
X84357143Y-177883390D02*
X84404762Y-177978628D01*
X84404762Y-177978628D02*
X84452381Y-178026247D01*
X84452381Y-178026247D02*
X84547619Y-178073866D01*
X84547619Y-178073866D02*
X84738095Y-178073866D01*
X84738095Y-178073866D02*
X84833333Y-178026247D01*
X84833333Y-178026247D02*
X84880952Y-177978628D01*
X84880952Y-177978628D02*
X84928571Y-177883390D01*
X86071428Y-177407200D02*
X85214286Y-178692914D01*
X86833333Y-177788152D02*
X86833333Y-178454819D01*
X86595238Y-177407200D02*
X86357143Y-178121485D01*
X86357143Y-178121485D02*
X86976190Y-178121485D01*
X87547619Y-177454819D02*
X87642857Y-177454819D01*
X87642857Y-177454819D02*
X87738095Y-177502438D01*
X87738095Y-177502438D02*
X87785714Y-177550057D01*
X87785714Y-177550057D02*
X87833333Y-177645295D01*
X87833333Y-177645295D02*
X87880952Y-177835771D01*
X87880952Y-177835771D02*
X87880952Y-178073866D01*
X87880952Y-178073866D02*
X87833333Y-178264342D01*
X87833333Y-178264342D02*
X87785714Y-178359580D01*
X87785714Y-178359580D02*
X87738095Y-178407200D01*
X87738095Y-178407200D02*
X87642857Y-178454819D01*
X87642857Y-178454819D02*
X87547619Y-178454819D01*
X87547619Y-178454819D02*
X87452381Y-178407200D01*
X87452381Y-178407200D02*
X87404762Y-178359580D01*
X87404762Y-178359580D02*
X87357143Y-178264342D01*
X87357143Y-178264342D02*
X87309524Y-178073866D01*
X87309524Y-178073866D02*
X87309524Y-177835771D01*
X87309524Y-177835771D02*
X87357143Y-177645295D01*
X87357143Y-177645295D02*
X87404762Y-177550057D01*
X87404762Y-177550057D02*
X87452381Y-177502438D01*
X87452381Y-177502438D02*
X87547619Y-177454819D01*
X189738095Y-86954819D02*
X190309523Y-86954819D01*
X190023809Y-87954819D02*
X190023809Y-86954819D01*
X190642857Y-87954819D02*
X190642857Y-86954819D01*
X190642857Y-86954819D02*
X191023809Y-86954819D01*
X191023809Y-86954819D02*
X191119047Y-87002438D01*
X191119047Y-87002438D02*
X191166666Y-87050057D01*
X191166666Y-87050057D02*
X191214285Y-87145295D01*
X191214285Y-87145295D02*
X191214285Y-87288152D01*
X191214285Y-87288152D02*
X191166666Y-87383390D01*
X191166666Y-87383390D02*
X191119047Y-87431009D01*
X191119047Y-87431009D02*
X191023809Y-87478628D01*
X191023809Y-87478628D02*
X190642857Y-87478628D01*
X192071428Y-87288152D02*
X192071428Y-87954819D01*
X191833333Y-86907200D02*
X191595238Y-87621485D01*
X191595238Y-87621485D02*
X192214285Y-87621485D01*
X77738095Y-85954819D02*
X78309523Y-85954819D01*
X78023809Y-86954819D02*
X78023809Y-85954819D01*
X78642857Y-86954819D02*
X78642857Y-85954819D01*
X78642857Y-85954819D02*
X79023809Y-85954819D01*
X79023809Y-85954819D02*
X79119047Y-86002438D01*
X79119047Y-86002438D02*
X79166666Y-86050057D01*
X79166666Y-86050057D02*
X79214285Y-86145295D01*
X79214285Y-86145295D02*
X79214285Y-86288152D01*
X79214285Y-86288152D02*
X79166666Y-86383390D01*
X79166666Y-86383390D02*
X79119047Y-86431009D01*
X79119047Y-86431009D02*
X79023809Y-86478628D01*
X79023809Y-86478628D02*
X78642857Y-86478628D01*
X79547619Y-85954819D02*
X80166666Y-85954819D01*
X80166666Y-85954819D02*
X79833333Y-86335771D01*
X79833333Y-86335771D02*
X79976190Y-86335771D01*
X79976190Y-86335771D02*
X80071428Y-86383390D01*
X80071428Y-86383390D02*
X80119047Y-86431009D01*
X80119047Y-86431009D02*
X80166666Y-86526247D01*
X80166666Y-86526247D02*
X80166666Y-86764342D01*
X80166666Y-86764342D02*
X80119047Y-86859580D01*
X80119047Y-86859580D02*
X80071428Y-86907200D01*
X80071428Y-86907200D02*
X79976190Y-86954819D01*
X79976190Y-86954819D02*
X79690476Y-86954819D01*
X79690476Y-86954819D02*
X79595238Y-86907200D01*
X79595238Y-86907200D02*
X79547619Y-86859580D01*
X119666666Y-87954819D02*
X119666666Y-88669104D01*
X119666666Y-88669104D02*
X119619047Y-88811961D01*
X119619047Y-88811961D02*
X119523809Y-88907200D01*
X119523809Y-88907200D02*
X119380952Y-88954819D01*
X119380952Y-88954819D02*
X119285714Y-88954819D01*
X120095238Y-88050057D02*
X120142857Y-88002438D01*
X120142857Y-88002438D02*
X120238095Y-87954819D01*
X120238095Y-87954819D02*
X120476190Y-87954819D01*
X120476190Y-87954819D02*
X120571428Y-88002438D01*
X120571428Y-88002438D02*
X120619047Y-88050057D01*
X120619047Y-88050057D02*
X120666666Y-88145295D01*
X120666666Y-88145295D02*
X120666666Y-88240533D01*
X120666666Y-88240533D02*
X120619047Y-88383390D01*
X120619047Y-88383390D02*
X120047619Y-88954819D01*
X120047619Y-88954819D02*
X120666666Y-88954819D01*
D11*
X118892142Y-93344742D02*
X119292142Y-94544742D01*
X119292142Y-94544742D02*
X119692142Y-93344742D01*
X120777856Y-94430457D02*
X120720713Y-94487600D01*
X120720713Y-94487600D02*
X120549285Y-94544742D01*
X120549285Y-94544742D02*
X120434999Y-94544742D01*
X120434999Y-94544742D02*
X120263570Y-94487600D01*
X120263570Y-94487600D02*
X120149285Y-94373314D01*
X120149285Y-94373314D02*
X120092142Y-94259028D01*
X120092142Y-94259028D02*
X120034999Y-94030457D01*
X120034999Y-94030457D02*
X120034999Y-93859028D01*
X120034999Y-93859028D02*
X120092142Y-93630457D01*
X120092142Y-93630457D02*
X120149285Y-93516171D01*
X120149285Y-93516171D02*
X120263570Y-93401885D01*
X120263570Y-93401885D02*
X120434999Y-93344742D01*
X120434999Y-93344742D02*
X120549285Y-93344742D01*
X120549285Y-93344742D02*
X120720713Y-93401885D01*
X120720713Y-93401885D02*
X120777856Y-93459028D01*
X121977856Y-94430457D02*
X121920713Y-94487600D01*
X121920713Y-94487600D02*
X121749285Y-94544742D01*
X121749285Y-94544742D02*
X121634999Y-94544742D01*
X121634999Y-94544742D02*
X121463570Y-94487600D01*
X121463570Y-94487600D02*
X121349285Y-94373314D01*
X121349285Y-94373314D02*
X121292142Y-94259028D01*
X121292142Y-94259028D02*
X121234999Y-94030457D01*
X121234999Y-94030457D02*
X121234999Y-93859028D01*
X121234999Y-93859028D02*
X121292142Y-93630457D01*
X121292142Y-93630457D02*
X121349285Y-93516171D01*
X121349285Y-93516171D02*
X121463570Y-93401885D01*
X121463570Y-93401885D02*
X121634999Y-93344742D01*
X121634999Y-93344742D02*
X121749285Y-93344742D01*
X121749285Y-93344742D02*
X121920713Y-93401885D01*
X121920713Y-93401885D02*
X121977856Y-93459028D01*
X122892142Y-93916171D02*
X123063570Y-93973314D01*
X123063570Y-93973314D02*
X123120713Y-94030457D01*
X123120713Y-94030457D02*
X123177856Y-94144742D01*
X123177856Y-94144742D02*
X123177856Y-94316171D01*
X123177856Y-94316171D02*
X123120713Y-94430457D01*
X123120713Y-94430457D02*
X123063570Y-94487600D01*
X123063570Y-94487600D02*
X122949285Y-94544742D01*
X122949285Y-94544742D02*
X122492142Y-94544742D01*
X122492142Y-94544742D02*
X122492142Y-93344742D01*
X122492142Y-93344742D02*
X122892142Y-93344742D01*
X122892142Y-93344742D02*
X123006428Y-93401885D01*
X123006428Y-93401885D02*
X123063570Y-93459028D01*
X123063570Y-93459028D02*
X123120713Y-93573314D01*
X123120713Y-93573314D02*
X123120713Y-93687600D01*
X123120713Y-93687600D02*
X123063570Y-93801885D01*
X123063570Y-93801885D02*
X123006428Y-93859028D01*
X123006428Y-93859028D02*
X122892142Y-93916171D01*
X122892142Y-93916171D02*
X122492142Y-93916171D01*
X123406428Y-94659028D02*
X124320713Y-94659028D01*
X124606428Y-94544742D02*
X124606428Y-93344742D01*
X124606428Y-93344742D02*
X124892142Y-93344742D01*
X124892142Y-93344742D02*
X125063571Y-93401885D01*
X125063571Y-93401885D02*
X125177856Y-93516171D01*
X125177856Y-93516171D02*
X125234999Y-93630457D01*
X125234999Y-93630457D02*
X125292142Y-93859028D01*
X125292142Y-93859028D02*
X125292142Y-94030457D01*
X125292142Y-94030457D02*
X125234999Y-94259028D01*
X125234999Y-94259028D02*
X125177856Y-94373314D01*
X125177856Y-94373314D02*
X125063571Y-94487600D01*
X125063571Y-94487600D02*
X124892142Y-94544742D01*
X124892142Y-94544742D02*
X124606428Y-94544742D01*
X125806428Y-93344742D02*
X125806428Y-94316171D01*
X125806428Y-94316171D02*
X125863571Y-94430457D01*
X125863571Y-94430457D02*
X125920714Y-94487600D01*
X125920714Y-94487600D02*
X126034999Y-94544742D01*
X126034999Y-94544742D02*
X126263571Y-94544742D01*
X126263571Y-94544742D02*
X126377856Y-94487600D01*
X126377856Y-94487600D02*
X126434999Y-94430457D01*
X126434999Y-94430457D02*
X126492142Y-94316171D01*
X126492142Y-94316171D02*
X126492142Y-93344742D01*
X126892142Y-93344742D02*
X127577857Y-93344742D01*
X127234999Y-94544742D02*
X127234999Y-93344742D01*
D10*
X98391666Y-87454819D02*
X98391666Y-88169104D01*
X98391666Y-88169104D02*
X98344047Y-88311961D01*
X98344047Y-88311961D02*
X98248809Y-88407200D01*
X98248809Y-88407200D02*
X98105952Y-88454819D01*
X98105952Y-88454819D02*
X98010714Y-88454819D01*
X99344047Y-87454819D02*
X98867857Y-87454819D01*
X98867857Y-87454819D02*
X98820238Y-87931009D01*
X98820238Y-87931009D02*
X98867857Y-87883390D01*
X98867857Y-87883390D02*
X98963095Y-87835771D01*
X98963095Y-87835771D02*
X99201190Y-87835771D01*
X99201190Y-87835771D02*
X99296428Y-87883390D01*
X99296428Y-87883390D02*
X99344047Y-87931009D01*
X99344047Y-87931009D02*
X99391666Y-88026247D01*
X99391666Y-88026247D02*
X99391666Y-88264342D01*
X99391666Y-88264342D02*
X99344047Y-88359580D01*
X99344047Y-88359580D02*
X99296428Y-88407200D01*
X99296428Y-88407200D02*
X99201190Y-88454819D01*
X99201190Y-88454819D02*
X98963095Y-88454819D01*
X98963095Y-88454819D02*
X98867857Y-88407200D01*
X98867857Y-88407200D02*
X98820238Y-88359580D01*
D11*
X97689286Y-93683528D02*
X98189286Y-95183528D01*
X98189286Y-95183528D02*
X98689286Y-93683528D01*
X100046428Y-95040671D02*
X99975000Y-95112100D01*
X99975000Y-95112100D02*
X99760714Y-95183528D01*
X99760714Y-95183528D02*
X99617857Y-95183528D01*
X99617857Y-95183528D02*
X99403571Y-95112100D01*
X99403571Y-95112100D02*
X99260714Y-94969242D01*
X99260714Y-94969242D02*
X99189285Y-94826385D01*
X99189285Y-94826385D02*
X99117857Y-94540671D01*
X99117857Y-94540671D02*
X99117857Y-94326385D01*
X99117857Y-94326385D02*
X99189285Y-94040671D01*
X99189285Y-94040671D02*
X99260714Y-93897814D01*
X99260714Y-93897814D02*
X99403571Y-93754957D01*
X99403571Y-93754957D02*
X99617857Y-93683528D01*
X99617857Y-93683528D02*
X99760714Y-93683528D01*
X99760714Y-93683528D02*
X99975000Y-93754957D01*
X99975000Y-93754957D02*
X100046428Y-93826385D01*
X101546428Y-95040671D02*
X101475000Y-95112100D01*
X101475000Y-95112100D02*
X101260714Y-95183528D01*
X101260714Y-95183528D02*
X101117857Y-95183528D01*
X101117857Y-95183528D02*
X100903571Y-95112100D01*
X100903571Y-95112100D02*
X100760714Y-94969242D01*
X100760714Y-94969242D02*
X100689285Y-94826385D01*
X100689285Y-94826385D02*
X100617857Y-94540671D01*
X100617857Y-94540671D02*
X100617857Y-94326385D01*
X100617857Y-94326385D02*
X100689285Y-94040671D01*
X100689285Y-94040671D02*
X100760714Y-93897814D01*
X100760714Y-93897814D02*
X100903571Y-93754957D01*
X100903571Y-93754957D02*
X101117857Y-93683528D01*
X101117857Y-93683528D02*
X101260714Y-93683528D01*
X101260714Y-93683528D02*
X101475000Y-93754957D01*
X101475000Y-93754957D02*
X101546428Y-93826385D01*
X102689285Y-94397814D02*
X102903571Y-94469242D01*
X102903571Y-94469242D02*
X102975000Y-94540671D01*
X102975000Y-94540671D02*
X103046428Y-94683528D01*
X103046428Y-94683528D02*
X103046428Y-94897814D01*
X103046428Y-94897814D02*
X102975000Y-95040671D01*
X102975000Y-95040671D02*
X102903571Y-95112100D01*
X102903571Y-95112100D02*
X102760714Y-95183528D01*
X102760714Y-95183528D02*
X102189285Y-95183528D01*
X102189285Y-95183528D02*
X102189285Y-93683528D01*
X102189285Y-93683528D02*
X102689285Y-93683528D01*
X102689285Y-93683528D02*
X102832143Y-93754957D01*
X102832143Y-93754957D02*
X102903571Y-93826385D01*
X102903571Y-93826385D02*
X102975000Y-93969242D01*
X102975000Y-93969242D02*
X102975000Y-94112100D01*
X102975000Y-94112100D02*
X102903571Y-94254957D01*
X102903571Y-94254957D02*
X102832143Y-94326385D01*
X102832143Y-94326385D02*
X102689285Y-94397814D01*
X102689285Y-94397814D02*
X102189285Y-94397814D01*
X103332143Y-95326385D02*
X104475000Y-95326385D01*
X104760714Y-95112100D02*
X104975000Y-95183528D01*
X104975000Y-95183528D02*
X105332142Y-95183528D01*
X105332142Y-95183528D02*
X105475000Y-95112100D01*
X105475000Y-95112100D02*
X105546428Y-95040671D01*
X105546428Y-95040671D02*
X105617857Y-94897814D01*
X105617857Y-94897814D02*
X105617857Y-94754957D01*
X105617857Y-94754957D02*
X105546428Y-94612100D01*
X105546428Y-94612100D02*
X105475000Y-94540671D01*
X105475000Y-94540671D02*
X105332142Y-94469242D01*
X105332142Y-94469242D02*
X105046428Y-94397814D01*
X105046428Y-94397814D02*
X104903571Y-94326385D01*
X104903571Y-94326385D02*
X104832142Y-94254957D01*
X104832142Y-94254957D02*
X104760714Y-94112100D01*
X104760714Y-94112100D02*
X104760714Y-93969242D01*
X104760714Y-93969242D02*
X104832142Y-93826385D01*
X104832142Y-93826385D02*
X104903571Y-93754957D01*
X104903571Y-93754957D02*
X105046428Y-93683528D01*
X105046428Y-93683528D02*
X105403571Y-93683528D01*
X105403571Y-93683528D02*
X105617857Y-93754957D01*
X107117856Y-95183528D02*
X106617856Y-94469242D01*
X106260713Y-95183528D02*
X106260713Y-93683528D01*
X106260713Y-93683528D02*
X106832142Y-93683528D01*
X106832142Y-93683528D02*
X106974999Y-93754957D01*
X106974999Y-93754957D02*
X107046428Y-93826385D01*
X107046428Y-93826385D02*
X107117856Y-93969242D01*
X107117856Y-93969242D02*
X107117856Y-94183528D01*
X107117856Y-94183528D02*
X107046428Y-94326385D01*
X107046428Y-94326385D02*
X106974999Y-94397814D01*
X106974999Y-94397814D02*
X106832142Y-94469242D01*
X106832142Y-94469242D02*
X106260713Y-94469242D01*
X108617856Y-95040671D02*
X108546428Y-95112100D01*
X108546428Y-95112100D02*
X108332142Y-95183528D01*
X108332142Y-95183528D02*
X108189285Y-95183528D01*
X108189285Y-95183528D02*
X107974999Y-95112100D01*
X107974999Y-95112100D02*
X107832142Y-94969242D01*
X107832142Y-94969242D02*
X107760713Y-94826385D01*
X107760713Y-94826385D02*
X107689285Y-94540671D01*
X107689285Y-94540671D02*
X107689285Y-94326385D01*
X107689285Y-94326385D02*
X107760713Y-94040671D01*
X107760713Y-94040671D02*
X107832142Y-93897814D01*
X107832142Y-93897814D02*
X107974999Y-93754957D01*
X107974999Y-93754957D02*
X108189285Y-93683528D01*
X108189285Y-93683528D02*
X108332142Y-93683528D01*
X108332142Y-93683528D02*
X108546428Y-93754957D01*
X108546428Y-93754957D02*
X108617856Y-93826385D01*
D10*
X99738095Y-104954819D02*
X99738095Y-105764342D01*
X99738095Y-105764342D02*
X99785714Y-105859580D01*
X99785714Y-105859580D02*
X99833333Y-105907200D01*
X99833333Y-105907200D02*
X99928571Y-105954819D01*
X99928571Y-105954819D02*
X100119047Y-105954819D01*
X100119047Y-105954819D02*
X100214285Y-105907200D01*
X100214285Y-105907200D02*
X100261904Y-105859580D01*
X100261904Y-105859580D02*
X100309523Y-105764342D01*
X100309523Y-105764342D02*
X100309523Y-104954819D01*
X100690476Y-104954819D02*
X101357142Y-104954819D01*
X101357142Y-104954819D02*
X100928571Y-105954819D01*
X92095238Y-115954819D02*
X91619048Y-115954819D01*
X91619048Y-115954819D02*
X91619048Y-114954819D01*
X92428572Y-115954819D02*
X92428572Y-114954819D01*
X92428572Y-114954819D02*
X92666667Y-114954819D01*
X92666667Y-114954819D02*
X92809524Y-115002438D01*
X92809524Y-115002438D02*
X92904762Y-115097676D01*
X92904762Y-115097676D02*
X92952381Y-115192914D01*
X92952381Y-115192914D02*
X93000000Y-115383390D01*
X93000000Y-115383390D02*
X93000000Y-115526247D01*
X93000000Y-115526247D02*
X92952381Y-115716723D01*
X92952381Y-115716723D02*
X92904762Y-115811961D01*
X92904762Y-115811961D02*
X92809524Y-115907200D01*
X92809524Y-115907200D02*
X92666667Y-115954819D01*
X92666667Y-115954819D02*
X92428572Y-115954819D01*
X93952381Y-115954819D02*
X93380953Y-115954819D01*
X93666667Y-115954819D02*
X93666667Y-114954819D01*
X93666667Y-114954819D02*
X93571429Y-115097676D01*
X93571429Y-115097676D02*
X93476191Y-115192914D01*
X93476191Y-115192914D02*
X93380953Y-115240533D01*
X94904762Y-115954819D02*
X94333334Y-115954819D01*
X94619048Y-115954819D02*
X94619048Y-114954819D01*
X94619048Y-114954819D02*
X94523810Y-115097676D01*
X94523810Y-115097676D02*
X94428572Y-115192914D01*
X94428572Y-115192914D02*
X94333334Y-115240533D01*
X95857143Y-115954819D02*
X95285715Y-115954819D01*
X95571429Y-115954819D02*
X95571429Y-114954819D01*
X95571429Y-114954819D02*
X95476191Y-115097676D01*
X95476191Y-115097676D02*
X95380953Y-115192914D01*
X95380953Y-115192914D02*
X95285715Y-115240533D01*
X96190477Y-114954819D02*
X96857143Y-114954819D01*
X96857143Y-114954819D02*
X96428572Y-115954819D01*
X97238096Y-115573866D02*
X98000001Y-115573866D01*
X98952381Y-114954819D02*
X98476191Y-114954819D01*
X98476191Y-114954819D02*
X98428572Y-115431009D01*
X98428572Y-115431009D02*
X98476191Y-115383390D01*
X98476191Y-115383390D02*
X98571429Y-115335771D01*
X98571429Y-115335771D02*
X98809524Y-115335771D01*
X98809524Y-115335771D02*
X98904762Y-115383390D01*
X98904762Y-115383390D02*
X98952381Y-115431009D01*
X98952381Y-115431009D02*
X99000000Y-115526247D01*
X99000000Y-115526247D02*
X99000000Y-115764342D01*
X99000000Y-115764342D02*
X98952381Y-115859580D01*
X98952381Y-115859580D02*
X98904762Y-115907200D01*
X98904762Y-115907200D02*
X98809524Y-115954819D01*
X98809524Y-115954819D02*
X98571429Y-115954819D01*
X98571429Y-115954819D02*
X98476191Y-115907200D01*
X98476191Y-115907200D02*
X98428572Y-115859580D01*
X99428572Y-115859580D02*
X99476191Y-115907200D01*
X99476191Y-115907200D02*
X99428572Y-115954819D01*
X99428572Y-115954819D02*
X99380953Y-115907200D01*
X99380953Y-115907200D02*
X99428572Y-115859580D01*
X99428572Y-115859580D02*
X99428572Y-115954819D01*
X100095238Y-114954819D02*
X100190476Y-114954819D01*
X100190476Y-114954819D02*
X100285714Y-115002438D01*
X100285714Y-115002438D02*
X100333333Y-115050057D01*
X100333333Y-115050057D02*
X100380952Y-115145295D01*
X100380952Y-115145295D02*
X100428571Y-115335771D01*
X100428571Y-115335771D02*
X100428571Y-115573866D01*
X100428571Y-115573866D02*
X100380952Y-115764342D01*
X100380952Y-115764342D02*
X100333333Y-115859580D01*
X100333333Y-115859580D02*
X100285714Y-115907200D01*
X100285714Y-115907200D02*
X100190476Y-115954819D01*
X100190476Y-115954819D02*
X100095238Y-115954819D01*
X100095238Y-115954819D02*
X100000000Y-115907200D01*
X100000000Y-115907200D02*
X99952381Y-115859580D01*
X99952381Y-115859580D02*
X99904762Y-115764342D01*
X99904762Y-115764342D02*
X99857143Y-115573866D01*
X99857143Y-115573866D02*
X99857143Y-115335771D01*
X99857143Y-115335771D02*
X99904762Y-115145295D01*
X99904762Y-115145295D02*
X99952381Y-115050057D01*
X99952381Y-115050057D02*
X100000000Y-115002438D01*
X100000000Y-115002438D02*
X100095238Y-114954819D01*
X84857142Y-97359580D02*
X84809523Y-97407200D01*
X84809523Y-97407200D02*
X84666666Y-97454819D01*
X84666666Y-97454819D02*
X84571428Y-97454819D01*
X84571428Y-97454819D02*
X84428571Y-97407200D01*
X84428571Y-97407200D02*
X84333333Y-97311961D01*
X84333333Y-97311961D02*
X84285714Y-97216723D01*
X84285714Y-97216723D02*
X84238095Y-97026247D01*
X84238095Y-97026247D02*
X84238095Y-96883390D01*
X84238095Y-96883390D02*
X84285714Y-96692914D01*
X84285714Y-96692914D02*
X84333333Y-96597676D01*
X84333333Y-96597676D02*
X84428571Y-96502438D01*
X84428571Y-96502438D02*
X84571428Y-96454819D01*
X84571428Y-96454819D02*
X84666666Y-96454819D01*
X84666666Y-96454819D02*
X84809523Y-96502438D01*
X84809523Y-96502438D02*
X84857142Y-96550057D01*
X85809523Y-97454819D02*
X85238095Y-97454819D01*
X85523809Y-97454819D02*
X85523809Y-96454819D01*
X85523809Y-96454819D02*
X85428571Y-96597676D01*
X85428571Y-96597676D02*
X85333333Y-96692914D01*
X85333333Y-96692914D02*
X85238095Y-96740533D01*
X86761904Y-97454819D02*
X86190476Y-97454819D01*
X86476190Y-97454819D02*
X86476190Y-96454819D01*
X86476190Y-96454819D02*
X86380952Y-96597676D01*
X86380952Y-96597676D02*
X86285714Y-96692914D01*
X86285714Y-96692914D02*
X86190476Y-96740533D01*
X92558095Y-124754819D02*
X92558095Y-125564342D01*
X92558095Y-125564342D02*
X92605714Y-125659580D01*
X92605714Y-125659580D02*
X92653333Y-125707200D01*
X92653333Y-125707200D02*
X92748571Y-125754819D01*
X92748571Y-125754819D02*
X92939047Y-125754819D01*
X92939047Y-125754819D02*
X93034285Y-125707200D01*
X93034285Y-125707200D02*
X93081904Y-125659580D01*
X93081904Y-125659580D02*
X93129523Y-125564342D01*
X93129523Y-125564342D02*
X93129523Y-124754819D01*
X94129523Y-125754819D02*
X93558095Y-125754819D01*
X93843809Y-125754819D02*
X93843809Y-124754819D01*
X93843809Y-124754819D02*
X93748571Y-124897676D01*
X93748571Y-124897676D02*
X93653333Y-124992914D01*
X93653333Y-124992914D02*
X93558095Y-125040533D01*
X77238095Y-105954819D02*
X77238095Y-106764342D01*
X77238095Y-106764342D02*
X77285714Y-106859580D01*
X77285714Y-106859580D02*
X77333333Y-106907200D01*
X77333333Y-106907200D02*
X77428571Y-106954819D01*
X77428571Y-106954819D02*
X77619047Y-106954819D01*
X77619047Y-106954819D02*
X77714285Y-106907200D01*
X77714285Y-106907200D02*
X77761904Y-106859580D01*
X77761904Y-106859580D02*
X77809523Y-106764342D01*
X77809523Y-106764342D02*
X77809523Y-105954819D01*
X78714285Y-105954819D02*
X78523809Y-105954819D01*
X78523809Y-105954819D02*
X78428571Y-106002438D01*
X78428571Y-106002438D02*
X78380952Y-106050057D01*
X78380952Y-106050057D02*
X78285714Y-106192914D01*
X78285714Y-106192914D02*
X78238095Y-106383390D01*
X78238095Y-106383390D02*
X78238095Y-106764342D01*
X78238095Y-106764342D02*
X78285714Y-106859580D01*
X78285714Y-106859580D02*
X78333333Y-106907200D01*
X78333333Y-106907200D02*
X78428571Y-106954819D01*
X78428571Y-106954819D02*
X78619047Y-106954819D01*
X78619047Y-106954819D02*
X78714285Y-106907200D01*
X78714285Y-106907200D02*
X78761904Y-106859580D01*
X78761904Y-106859580D02*
X78809523Y-106764342D01*
X78809523Y-106764342D02*
X78809523Y-106526247D01*
X78809523Y-106526247D02*
X78761904Y-106431009D01*
X78761904Y-106431009D02*
X78714285Y-106383390D01*
X78714285Y-106383390D02*
X78619047Y-106335771D01*
X78619047Y-106335771D02*
X78428571Y-106335771D01*
X78428571Y-106335771D02*
X78333333Y-106383390D01*
X78333333Y-106383390D02*
X78285714Y-106431009D01*
X78285714Y-106431009D02*
X78238095Y-106526247D01*
X79595238Y-116454819D02*
X79119048Y-116454819D01*
X79119048Y-116454819D02*
X79119048Y-115454819D01*
X79928572Y-116454819D02*
X79928572Y-115454819D01*
X79928572Y-115454819D02*
X80166667Y-115454819D01*
X80166667Y-115454819D02*
X80309524Y-115502438D01*
X80309524Y-115502438D02*
X80404762Y-115597676D01*
X80404762Y-115597676D02*
X80452381Y-115692914D01*
X80452381Y-115692914D02*
X80500000Y-115883390D01*
X80500000Y-115883390D02*
X80500000Y-116026247D01*
X80500000Y-116026247D02*
X80452381Y-116216723D01*
X80452381Y-116216723D02*
X80404762Y-116311961D01*
X80404762Y-116311961D02*
X80309524Y-116407200D01*
X80309524Y-116407200D02*
X80166667Y-116454819D01*
X80166667Y-116454819D02*
X79928572Y-116454819D01*
X81452381Y-116454819D02*
X80880953Y-116454819D01*
X81166667Y-116454819D02*
X81166667Y-115454819D01*
X81166667Y-115454819D02*
X81071429Y-115597676D01*
X81071429Y-115597676D02*
X80976191Y-115692914D01*
X80976191Y-115692914D02*
X80880953Y-115740533D01*
X82404762Y-116454819D02*
X81833334Y-116454819D01*
X82119048Y-116454819D02*
X82119048Y-115454819D01*
X82119048Y-115454819D02*
X82023810Y-115597676D01*
X82023810Y-115597676D02*
X81928572Y-115692914D01*
X81928572Y-115692914D02*
X81833334Y-115740533D01*
X83357143Y-116454819D02*
X82785715Y-116454819D01*
X83071429Y-116454819D02*
X83071429Y-115454819D01*
X83071429Y-115454819D02*
X82976191Y-115597676D01*
X82976191Y-115597676D02*
X82880953Y-115692914D01*
X82880953Y-115692914D02*
X82785715Y-115740533D01*
X83690477Y-115454819D02*
X84357143Y-115454819D01*
X84357143Y-115454819D02*
X83928572Y-116454819D01*
X84738096Y-116073866D02*
X85500001Y-116073866D01*
X85880953Y-115454819D02*
X86500000Y-115454819D01*
X86500000Y-115454819D02*
X86166667Y-115835771D01*
X86166667Y-115835771D02*
X86309524Y-115835771D01*
X86309524Y-115835771D02*
X86404762Y-115883390D01*
X86404762Y-115883390D02*
X86452381Y-115931009D01*
X86452381Y-115931009D02*
X86500000Y-116026247D01*
X86500000Y-116026247D02*
X86500000Y-116264342D01*
X86500000Y-116264342D02*
X86452381Y-116359580D01*
X86452381Y-116359580D02*
X86404762Y-116407200D01*
X86404762Y-116407200D02*
X86309524Y-116454819D01*
X86309524Y-116454819D02*
X86023810Y-116454819D01*
X86023810Y-116454819D02*
X85928572Y-116407200D01*
X85928572Y-116407200D02*
X85880953Y-116359580D01*
X86928572Y-116359580D02*
X86976191Y-116407200D01*
X86976191Y-116407200D02*
X86928572Y-116454819D01*
X86928572Y-116454819D02*
X86880953Y-116407200D01*
X86880953Y-116407200D02*
X86928572Y-116359580D01*
X86928572Y-116359580D02*
X86928572Y-116454819D01*
X87309524Y-115454819D02*
X87928571Y-115454819D01*
X87928571Y-115454819D02*
X87595238Y-115835771D01*
X87595238Y-115835771D02*
X87738095Y-115835771D01*
X87738095Y-115835771D02*
X87833333Y-115883390D01*
X87833333Y-115883390D02*
X87880952Y-115931009D01*
X87880952Y-115931009D02*
X87928571Y-116026247D01*
X87928571Y-116026247D02*
X87928571Y-116264342D01*
X87928571Y-116264342D02*
X87880952Y-116359580D01*
X87880952Y-116359580D02*
X87833333Y-116407200D01*
X87833333Y-116407200D02*
X87738095Y-116454819D01*
X87738095Y-116454819D02*
X87452381Y-116454819D01*
X87452381Y-116454819D02*
X87357143Y-116407200D01*
X87357143Y-116407200D02*
X87309524Y-116359580D01*
X92558095Y-167254819D02*
X92558095Y-168064342D01*
X92558095Y-168064342D02*
X92605714Y-168159580D01*
X92605714Y-168159580D02*
X92653333Y-168207200D01*
X92653333Y-168207200D02*
X92748571Y-168254819D01*
X92748571Y-168254819D02*
X92939047Y-168254819D01*
X92939047Y-168254819D02*
X93034285Y-168207200D01*
X93034285Y-168207200D02*
X93081904Y-168159580D01*
X93081904Y-168159580D02*
X93129523Y-168064342D01*
X93129523Y-168064342D02*
X93129523Y-167254819D01*
X94081904Y-167254819D02*
X93605714Y-167254819D01*
X93605714Y-167254819D02*
X93558095Y-167731009D01*
X93558095Y-167731009D02*
X93605714Y-167683390D01*
X93605714Y-167683390D02*
X93700952Y-167635771D01*
X93700952Y-167635771D02*
X93939047Y-167635771D01*
X93939047Y-167635771D02*
X94034285Y-167683390D01*
X94034285Y-167683390D02*
X94081904Y-167731009D01*
X94081904Y-167731009D02*
X94129523Y-167826247D01*
X94129523Y-167826247D02*
X94129523Y-168064342D01*
X94129523Y-168064342D02*
X94081904Y-168159580D01*
X94081904Y-168159580D02*
X94034285Y-168207200D01*
X94034285Y-168207200D02*
X93939047Y-168254819D01*
X93939047Y-168254819D02*
X93700952Y-168254819D01*
X93700952Y-168254819D02*
X93605714Y-168207200D01*
X93605714Y-168207200D02*
X93558095Y-168159580D01*
X88653333Y-176454819D02*
X89224761Y-176454819D01*
X88939047Y-177454819D02*
X88939047Y-176454819D01*
X89462857Y-176454819D02*
X90129523Y-177454819D01*
X90129523Y-176454819D02*
X89462857Y-177454819D01*
X90462857Y-177407200D02*
X90605714Y-177454819D01*
X90605714Y-177454819D02*
X90843809Y-177454819D01*
X90843809Y-177454819D02*
X90939047Y-177407200D01*
X90939047Y-177407200D02*
X90986666Y-177359580D01*
X90986666Y-177359580D02*
X91034285Y-177264342D01*
X91034285Y-177264342D02*
X91034285Y-177169104D01*
X91034285Y-177169104D02*
X90986666Y-177073866D01*
X90986666Y-177073866D02*
X90939047Y-177026247D01*
X90939047Y-177026247D02*
X90843809Y-176978628D01*
X90843809Y-176978628D02*
X90653333Y-176931009D01*
X90653333Y-176931009D02*
X90558095Y-176883390D01*
X90558095Y-176883390D02*
X90510476Y-176835771D01*
X90510476Y-176835771D02*
X90462857Y-176740533D01*
X90462857Y-176740533D02*
X90462857Y-176645295D01*
X90462857Y-176645295D02*
X90510476Y-176550057D01*
X90510476Y-176550057D02*
X90558095Y-176502438D01*
X90558095Y-176502438D02*
X90653333Y-176454819D01*
X90653333Y-176454819D02*
X90891428Y-176454819D01*
X90891428Y-176454819D02*
X91034285Y-176502438D01*
X91653333Y-176454819D02*
X91748571Y-176454819D01*
X91748571Y-176454819D02*
X91843809Y-176502438D01*
X91843809Y-176502438D02*
X91891428Y-176550057D01*
X91891428Y-176550057D02*
X91939047Y-176645295D01*
X91939047Y-176645295D02*
X91986666Y-176835771D01*
X91986666Y-176835771D02*
X91986666Y-177073866D01*
X91986666Y-177073866D02*
X91939047Y-177264342D01*
X91939047Y-177264342D02*
X91891428Y-177359580D01*
X91891428Y-177359580D02*
X91843809Y-177407200D01*
X91843809Y-177407200D02*
X91748571Y-177454819D01*
X91748571Y-177454819D02*
X91653333Y-177454819D01*
X91653333Y-177454819D02*
X91558095Y-177407200D01*
X91558095Y-177407200D02*
X91510476Y-177359580D01*
X91510476Y-177359580D02*
X91462857Y-177264342D01*
X91462857Y-177264342D02*
X91415238Y-177073866D01*
X91415238Y-177073866D02*
X91415238Y-176835771D01*
X91415238Y-176835771D02*
X91462857Y-176645295D01*
X91462857Y-176645295D02*
X91510476Y-176550057D01*
X91510476Y-176550057D02*
X91558095Y-176502438D01*
X91558095Y-176502438D02*
X91653333Y-176454819D01*
X92939047Y-177454819D02*
X92367619Y-177454819D01*
X92653333Y-177454819D02*
X92653333Y-176454819D01*
X92653333Y-176454819D02*
X92558095Y-176597676D01*
X92558095Y-176597676D02*
X92462857Y-176692914D01*
X92462857Y-176692914D02*
X92367619Y-176740533D01*
X93558095Y-176454819D02*
X93653333Y-176454819D01*
X93653333Y-176454819D02*
X93748571Y-176502438D01*
X93748571Y-176502438D02*
X93796190Y-176550057D01*
X93796190Y-176550057D02*
X93843809Y-176645295D01*
X93843809Y-176645295D02*
X93891428Y-176835771D01*
X93891428Y-176835771D02*
X93891428Y-177073866D01*
X93891428Y-177073866D02*
X93843809Y-177264342D01*
X93843809Y-177264342D02*
X93796190Y-177359580D01*
X93796190Y-177359580D02*
X93748571Y-177407200D01*
X93748571Y-177407200D02*
X93653333Y-177454819D01*
X93653333Y-177454819D02*
X93558095Y-177454819D01*
X93558095Y-177454819D02*
X93462857Y-177407200D01*
X93462857Y-177407200D02*
X93415238Y-177359580D01*
X93415238Y-177359580D02*
X93367619Y-177264342D01*
X93367619Y-177264342D02*
X93320000Y-177073866D01*
X93320000Y-177073866D02*
X93320000Y-176835771D01*
X93320000Y-176835771D02*
X93367619Y-176645295D01*
X93367619Y-176645295D02*
X93415238Y-176550057D01*
X93415238Y-176550057D02*
X93462857Y-176502438D01*
X93462857Y-176502438D02*
X93558095Y-176454819D01*
X94462857Y-176883390D02*
X94367619Y-176835771D01*
X94367619Y-176835771D02*
X94320000Y-176788152D01*
X94320000Y-176788152D02*
X94272381Y-176692914D01*
X94272381Y-176692914D02*
X94272381Y-176645295D01*
X94272381Y-176645295D02*
X94320000Y-176550057D01*
X94320000Y-176550057D02*
X94367619Y-176502438D01*
X94367619Y-176502438D02*
X94462857Y-176454819D01*
X94462857Y-176454819D02*
X94653333Y-176454819D01*
X94653333Y-176454819D02*
X94748571Y-176502438D01*
X94748571Y-176502438D02*
X94796190Y-176550057D01*
X94796190Y-176550057D02*
X94843809Y-176645295D01*
X94843809Y-176645295D02*
X94843809Y-176692914D01*
X94843809Y-176692914D02*
X94796190Y-176788152D01*
X94796190Y-176788152D02*
X94748571Y-176835771D01*
X94748571Y-176835771D02*
X94653333Y-176883390D01*
X94653333Y-176883390D02*
X94462857Y-176883390D01*
X94462857Y-176883390D02*
X94367619Y-176931009D01*
X94367619Y-176931009D02*
X94320000Y-176978628D01*
X94320000Y-176978628D02*
X94272381Y-177073866D01*
X94272381Y-177073866D02*
X94272381Y-177264342D01*
X94272381Y-177264342D02*
X94320000Y-177359580D01*
X94320000Y-177359580D02*
X94367619Y-177407200D01*
X94367619Y-177407200D02*
X94462857Y-177454819D01*
X94462857Y-177454819D02*
X94653333Y-177454819D01*
X94653333Y-177454819D02*
X94748571Y-177407200D01*
X94748571Y-177407200D02*
X94796190Y-177359580D01*
X94796190Y-177359580D02*
X94843809Y-177264342D01*
X94843809Y-177264342D02*
X94843809Y-177073866D01*
X94843809Y-177073866D02*
X94796190Y-176978628D01*
X94796190Y-176978628D02*
X94748571Y-176931009D01*
X94748571Y-176931009D02*
X94653333Y-176883390D01*
X95272381Y-176931009D02*
X95605714Y-176931009D01*
X95748571Y-177454819D02*
X95272381Y-177454819D01*
X95272381Y-177454819D02*
X95272381Y-176454819D01*
X95272381Y-176454819D02*
X95748571Y-176454819D01*
X96177143Y-177454819D02*
X96177143Y-176454819D01*
X96177143Y-176454819D02*
X96558095Y-176454819D01*
X96558095Y-176454819D02*
X96653333Y-176502438D01*
X96653333Y-176502438D02*
X96700952Y-176550057D01*
X96700952Y-176550057D02*
X96748571Y-176645295D01*
X96748571Y-176645295D02*
X96748571Y-176788152D01*
X96748571Y-176788152D02*
X96700952Y-176883390D01*
X96700952Y-176883390D02*
X96653333Y-176931009D01*
X96653333Y-176931009D02*
X96558095Y-176978628D01*
X96558095Y-176978628D02*
X96177143Y-176978628D01*
X97081905Y-176454819D02*
X97320000Y-177454819D01*
X97320000Y-177454819D02*
X97510476Y-176740533D01*
X97510476Y-176740533D02*
X97700952Y-177454819D01*
X97700952Y-177454819D02*
X97939048Y-176454819D01*
X96357142Y-97359580D02*
X96309523Y-97407200D01*
X96309523Y-97407200D02*
X96166666Y-97454819D01*
X96166666Y-97454819D02*
X96071428Y-97454819D01*
X96071428Y-97454819D02*
X95928571Y-97407200D01*
X95928571Y-97407200D02*
X95833333Y-97311961D01*
X95833333Y-97311961D02*
X95785714Y-97216723D01*
X95785714Y-97216723D02*
X95738095Y-97026247D01*
X95738095Y-97026247D02*
X95738095Y-96883390D01*
X95738095Y-96883390D02*
X95785714Y-96692914D01*
X95785714Y-96692914D02*
X95833333Y-96597676D01*
X95833333Y-96597676D02*
X95928571Y-96502438D01*
X95928571Y-96502438D02*
X96071428Y-96454819D01*
X96071428Y-96454819D02*
X96166666Y-96454819D01*
X96166666Y-96454819D02*
X96309523Y-96502438D01*
X96309523Y-96502438D02*
X96357142Y-96550057D01*
X97309523Y-97454819D02*
X96738095Y-97454819D01*
X97023809Y-97454819D02*
X97023809Y-96454819D01*
X97023809Y-96454819D02*
X96928571Y-96597676D01*
X96928571Y-96597676D02*
X96833333Y-96692914D01*
X96833333Y-96692914D02*
X96738095Y-96740533D01*
X97690476Y-96550057D02*
X97738095Y-96502438D01*
X97738095Y-96502438D02*
X97833333Y-96454819D01*
X97833333Y-96454819D02*
X98071428Y-96454819D01*
X98071428Y-96454819D02*
X98166666Y-96502438D01*
X98166666Y-96502438D02*
X98214285Y-96550057D01*
X98214285Y-96550057D02*
X98261904Y-96645295D01*
X98261904Y-96645295D02*
X98261904Y-96740533D01*
X98261904Y-96740533D02*
X98214285Y-96883390D01*
X98214285Y-96883390D02*
X97642857Y-97454819D01*
X97642857Y-97454819D02*
X98261904Y-97454819D01*
X74986666Y-122454819D02*
X74986666Y-123169104D01*
X74986666Y-123169104D02*
X74939047Y-123311961D01*
X74939047Y-123311961D02*
X74843809Y-123407200D01*
X74843809Y-123407200D02*
X74700952Y-123454819D01*
X74700952Y-123454819D02*
X74605714Y-123454819D01*
X75986666Y-123454819D02*
X75415238Y-123454819D01*
X75700952Y-123454819D02*
X75700952Y-122454819D01*
X75700952Y-122454819D02*
X75605714Y-122597676D01*
X75605714Y-122597676D02*
X75510476Y-122692914D01*
X75510476Y-122692914D02*
X75415238Y-122740533D01*
D12*
X80729638Y-165000000D02*
X80729638Y-163857143D01*
X82729638Y-164428572D02*
X80729638Y-164428572D01*
X82158209Y-163285714D02*
X82158209Y-162333333D01*
X82729638Y-163476190D02*
X80729638Y-162809524D01*
X80729638Y-162809524D02*
X82729638Y-162142857D01*
X82729638Y-161476190D02*
X80729638Y-161476190D01*
X80729638Y-161476190D02*
X82729638Y-160333333D01*
X82729638Y-160333333D02*
X80729638Y-160333333D01*
X80824876Y-158333333D02*
X80729638Y-158523809D01*
X80729638Y-158523809D02*
X80729638Y-158809523D01*
X80729638Y-158809523D02*
X80824876Y-159095238D01*
X80824876Y-159095238D02*
X81015352Y-159285714D01*
X81015352Y-159285714D02*
X81205828Y-159380952D01*
X81205828Y-159380952D02*
X81586780Y-159476190D01*
X81586780Y-159476190D02*
X81872495Y-159476190D01*
X81872495Y-159476190D02*
X82253447Y-159380952D01*
X82253447Y-159380952D02*
X82443923Y-159285714D01*
X82443923Y-159285714D02*
X82634400Y-159095238D01*
X82634400Y-159095238D02*
X82729638Y-158809523D01*
X82729638Y-158809523D02*
X82729638Y-158619047D01*
X82729638Y-158619047D02*
X82634400Y-158333333D01*
X82634400Y-158333333D02*
X82539161Y-158238095D01*
X82539161Y-158238095D02*
X81872495Y-158238095D01*
X81872495Y-158238095D02*
X81872495Y-158619047D01*
X82920114Y-157857143D02*
X82920114Y-156333333D01*
X80920114Y-155952380D02*
X80824876Y-155857142D01*
X80824876Y-155857142D02*
X80729638Y-155666666D01*
X80729638Y-155666666D02*
X80729638Y-155190475D01*
X80729638Y-155190475D02*
X80824876Y-154999999D01*
X80824876Y-154999999D02*
X80920114Y-154904761D01*
X80920114Y-154904761D02*
X81110590Y-154809523D01*
X81110590Y-154809523D02*
X81301066Y-154809523D01*
X81301066Y-154809523D02*
X81586780Y-154904761D01*
X81586780Y-154904761D02*
X82729638Y-156047618D01*
X82729638Y-156047618D02*
X82729638Y-154809523D01*
X80729638Y-152999999D02*
X80729638Y-153952380D01*
X80729638Y-153952380D02*
X81682019Y-154047618D01*
X81682019Y-154047618D02*
X81586780Y-153952380D01*
X81586780Y-153952380D02*
X81491542Y-153761904D01*
X81491542Y-153761904D02*
X81491542Y-153285713D01*
X81491542Y-153285713D02*
X81586780Y-153095237D01*
X81586780Y-153095237D02*
X81682019Y-152999999D01*
X81682019Y-152999999D02*
X81872495Y-152904761D01*
X81872495Y-152904761D02*
X82348685Y-152904761D01*
X82348685Y-152904761D02*
X82539161Y-152999999D01*
X82539161Y-152999999D02*
X82634400Y-153095237D01*
X82634400Y-153095237D02*
X82729638Y-153285713D01*
X82729638Y-153285713D02*
X82729638Y-153761904D01*
X82729638Y-153761904D02*
X82634400Y-153952380D01*
X82634400Y-153952380D02*
X82539161Y-154047618D01*
X82729638Y-152047618D02*
X80729638Y-152047618D01*
X82729638Y-150904761D02*
X81586780Y-151761904D01*
X80729638Y-150904761D02*
X81872495Y-152047618D01*
X82920114Y-150523809D02*
X82920114Y-148999999D01*
X80824876Y-147476189D02*
X80729638Y-147666665D01*
X80729638Y-147666665D02*
X80729638Y-147952379D01*
X80729638Y-147952379D02*
X80824876Y-148238094D01*
X80824876Y-148238094D02*
X81015352Y-148428570D01*
X81015352Y-148428570D02*
X81205828Y-148523808D01*
X81205828Y-148523808D02*
X81586780Y-148619046D01*
X81586780Y-148619046D02*
X81872495Y-148619046D01*
X81872495Y-148619046D02*
X82253447Y-148523808D01*
X82253447Y-148523808D02*
X82443923Y-148428570D01*
X82443923Y-148428570D02*
X82634400Y-148238094D01*
X82634400Y-148238094D02*
X82729638Y-147952379D01*
X82729638Y-147952379D02*
X82729638Y-147761903D01*
X82729638Y-147761903D02*
X82634400Y-147476189D01*
X82634400Y-147476189D02*
X82539161Y-147380951D01*
X82539161Y-147380951D02*
X81872495Y-147380951D01*
X81872495Y-147380951D02*
X81872495Y-147761903D01*
X82729638Y-146523808D02*
X80729638Y-146523808D01*
X80729638Y-146523808D02*
X80729638Y-145761903D01*
X80729638Y-145761903D02*
X80824876Y-145571427D01*
X80824876Y-145571427D02*
X80920114Y-145476189D01*
X80920114Y-145476189D02*
X81110590Y-145380951D01*
X81110590Y-145380951D02*
X81396304Y-145380951D01*
X81396304Y-145380951D02*
X81586780Y-145476189D01*
X81586780Y-145476189D02*
X81682019Y-145571427D01*
X81682019Y-145571427D02*
X81777257Y-145761903D01*
X81777257Y-145761903D02*
X81777257Y-146523808D01*
X82729638Y-144523808D02*
X80729638Y-144523808D01*
X80729638Y-143190475D02*
X80729638Y-142809522D01*
X80729638Y-142809522D02*
X80824876Y-142619046D01*
X80824876Y-142619046D02*
X81015352Y-142428570D01*
X81015352Y-142428570D02*
X81396304Y-142333332D01*
X81396304Y-142333332D02*
X82062971Y-142333332D01*
X82062971Y-142333332D02*
X82443923Y-142428570D01*
X82443923Y-142428570D02*
X82634400Y-142619046D01*
X82634400Y-142619046D02*
X82729638Y-142809522D01*
X82729638Y-142809522D02*
X82729638Y-143190475D01*
X82729638Y-143190475D02*
X82634400Y-143380951D01*
X82634400Y-143380951D02*
X82443923Y-143571427D01*
X82443923Y-143571427D02*
X82062971Y-143666665D01*
X82062971Y-143666665D02*
X81396304Y-143666665D01*
X81396304Y-143666665D02*
X81015352Y-143571427D01*
X81015352Y-143571427D02*
X80824876Y-143380951D01*
X80824876Y-143380951D02*
X80729638Y-143190475D01*
X83491542Y-140904760D02*
X83396304Y-140999999D01*
X83396304Y-140999999D02*
X83110590Y-141190475D01*
X83110590Y-141190475D02*
X82920114Y-141285713D01*
X82920114Y-141285713D02*
X82634400Y-141380951D01*
X82634400Y-141380951D02*
X82158209Y-141476189D01*
X82158209Y-141476189D02*
X81777257Y-141476189D01*
X81777257Y-141476189D02*
X81301066Y-141380951D01*
X81301066Y-141380951D02*
X81015352Y-141285713D01*
X81015352Y-141285713D02*
X80824876Y-141190475D01*
X80824876Y-141190475D02*
X80539161Y-140999999D01*
X80539161Y-140999999D02*
X80443923Y-140904760D01*
X80729638Y-140333332D02*
X80729638Y-139095237D01*
X80729638Y-139095237D02*
X81491542Y-139761904D01*
X81491542Y-139761904D02*
X81491542Y-139476189D01*
X81491542Y-139476189D02*
X81586780Y-139285713D01*
X81586780Y-139285713D02*
X81682019Y-139190475D01*
X81682019Y-139190475D02*
X81872495Y-139095237D01*
X81872495Y-139095237D02*
X82348685Y-139095237D01*
X82348685Y-139095237D02*
X82539161Y-139190475D01*
X82539161Y-139190475D02*
X82634400Y-139285713D01*
X82634400Y-139285713D02*
X82729638Y-139476189D01*
X82729638Y-139476189D02*
X82729638Y-140047618D01*
X82729638Y-140047618D02*
X82634400Y-140238094D01*
X82634400Y-140238094D02*
X82539161Y-140333332D01*
X82539161Y-138238094D02*
X82634400Y-138142856D01*
X82634400Y-138142856D02*
X82729638Y-138238094D01*
X82729638Y-138238094D02*
X82634400Y-138333332D01*
X82634400Y-138333332D02*
X82539161Y-138238094D01*
X82539161Y-138238094D02*
X82729638Y-138238094D01*
X80729638Y-137476189D02*
X80729638Y-136238094D01*
X80729638Y-136238094D02*
X81491542Y-136904761D01*
X81491542Y-136904761D02*
X81491542Y-136619046D01*
X81491542Y-136619046D02*
X81586780Y-136428570D01*
X81586780Y-136428570D02*
X81682019Y-136333332D01*
X81682019Y-136333332D02*
X81872495Y-136238094D01*
X81872495Y-136238094D02*
X82348685Y-136238094D01*
X82348685Y-136238094D02*
X82539161Y-136333332D01*
X82539161Y-136333332D02*
X82634400Y-136428570D01*
X82634400Y-136428570D02*
X82729638Y-136619046D01*
X82729638Y-136619046D02*
X82729638Y-137190475D01*
X82729638Y-137190475D02*
X82634400Y-137380951D01*
X82634400Y-137380951D02*
X82539161Y-137476189D01*
X80729638Y-135666665D02*
X82729638Y-134999999D01*
X82729638Y-134999999D02*
X80729638Y-134333332D01*
X83491542Y-133857141D02*
X83396304Y-133761903D01*
X83396304Y-133761903D02*
X83110590Y-133571427D01*
X83110590Y-133571427D02*
X82920114Y-133476189D01*
X82920114Y-133476189D02*
X82634400Y-133380951D01*
X82634400Y-133380951D02*
X82158209Y-133285713D01*
X82158209Y-133285713D02*
X81777257Y-133285713D01*
X81777257Y-133285713D02*
X81301066Y-133380951D01*
X81301066Y-133380951D02*
X81015352Y-133476189D01*
X81015352Y-133476189D02*
X80824876Y-133571427D01*
X80824876Y-133571427D02*
X80539161Y-133761903D01*
X80539161Y-133761903D02*
X80443923Y-133857141D01*
D10*
X92357142Y-97459580D02*
X92309523Y-97507200D01*
X92309523Y-97507200D02*
X92166666Y-97554819D01*
X92166666Y-97554819D02*
X92071428Y-97554819D01*
X92071428Y-97554819D02*
X91928571Y-97507200D01*
X91928571Y-97507200D02*
X91833333Y-97411961D01*
X91833333Y-97411961D02*
X91785714Y-97316723D01*
X91785714Y-97316723D02*
X91738095Y-97126247D01*
X91738095Y-97126247D02*
X91738095Y-96983390D01*
X91738095Y-96983390D02*
X91785714Y-96792914D01*
X91785714Y-96792914D02*
X91833333Y-96697676D01*
X91833333Y-96697676D02*
X91928571Y-96602438D01*
X91928571Y-96602438D02*
X92071428Y-96554819D01*
X92071428Y-96554819D02*
X92166666Y-96554819D01*
X92166666Y-96554819D02*
X92309523Y-96602438D01*
X92309523Y-96602438D02*
X92357142Y-96650057D01*
X93309523Y-97554819D02*
X92738095Y-97554819D01*
X93023809Y-97554819D02*
X93023809Y-96554819D01*
X93023809Y-96554819D02*
X92928571Y-96697676D01*
X92928571Y-96697676D02*
X92833333Y-96792914D01*
X92833333Y-96792914D02*
X92738095Y-96840533D01*
X93642857Y-96554819D02*
X94261904Y-96554819D01*
X94261904Y-96554819D02*
X93928571Y-96935771D01*
X93928571Y-96935771D02*
X94071428Y-96935771D01*
X94071428Y-96935771D02*
X94166666Y-96983390D01*
X94166666Y-96983390D02*
X94214285Y-97031009D01*
X94214285Y-97031009D02*
X94261904Y-97126247D01*
X94261904Y-97126247D02*
X94261904Y-97364342D01*
X94261904Y-97364342D02*
X94214285Y-97459580D01*
X94214285Y-97459580D02*
X94166666Y-97507200D01*
X94166666Y-97507200D02*
X94071428Y-97554819D01*
X94071428Y-97554819D02*
X93785714Y-97554819D01*
X93785714Y-97554819D02*
X93690476Y-97507200D01*
X93690476Y-97507200D02*
X93642857Y-97459580D01*
X80857142Y-97859580D02*
X80809523Y-97907200D01*
X80809523Y-97907200D02*
X80666666Y-97954819D01*
X80666666Y-97954819D02*
X80571428Y-97954819D01*
X80571428Y-97954819D02*
X80428571Y-97907200D01*
X80428571Y-97907200D02*
X80333333Y-97811961D01*
X80333333Y-97811961D02*
X80285714Y-97716723D01*
X80285714Y-97716723D02*
X80238095Y-97526247D01*
X80238095Y-97526247D02*
X80238095Y-97383390D01*
X80238095Y-97383390D02*
X80285714Y-97192914D01*
X80285714Y-97192914D02*
X80333333Y-97097676D01*
X80333333Y-97097676D02*
X80428571Y-97002438D01*
X80428571Y-97002438D02*
X80571428Y-96954819D01*
X80571428Y-96954819D02*
X80666666Y-96954819D01*
X80666666Y-96954819D02*
X80809523Y-97002438D01*
X80809523Y-97002438D02*
X80857142Y-97050057D01*
X81809523Y-97954819D02*
X81238095Y-97954819D01*
X81523809Y-97954819D02*
X81523809Y-96954819D01*
X81523809Y-96954819D02*
X81428571Y-97097676D01*
X81428571Y-97097676D02*
X81333333Y-97192914D01*
X81333333Y-97192914D02*
X81238095Y-97240533D01*
X82714285Y-96954819D02*
X82238095Y-96954819D01*
X82238095Y-96954819D02*
X82190476Y-97431009D01*
X82190476Y-97431009D02*
X82238095Y-97383390D01*
X82238095Y-97383390D02*
X82333333Y-97335771D01*
X82333333Y-97335771D02*
X82571428Y-97335771D01*
X82571428Y-97335771D02*
X82666666Y-97383390D01*
X82666666Y-97383390D02*
X82714285Y-97431009D01*
X82714285Y-97431009D02*
X82761904Y-97526247D01*
X82761904Y-97526247D02*
X82761904Y-97764342D01*
X82761904Y-97764342D02*
X82714285Y-97859580D01*
X82714285Y-97859580D02*
X82666666Y-97907200D01*
X82666666Y-97907200D02*
X82571428Y-97954819D01*
X82571428Y-97954819D02*
X82333333Y-97954819D01*
X82333333Y-97954819D02*
X82238095Y-97907200D01*
X82238095Y-97907200D02*
X82190476Y-97859580D01*
X92558095Y-135254819D02*
X92558095Y-136064342D01*
X92558095Y-136064342D02*
X92605714Y-136159580D01*
X92605714Y-136159580D02*
X92653333Y-136207200D01*
X92653333Y-136207200D02*
X92748571Y-136254819D01*
X92748571Y-136254819D02*
X92939047Y-136254819D01*
X92939047Y-136254819D02*
X93034285Y-136207200D01*
X93034285Y-136207200D02*
X93081904Y-136159580D01*
X93081904Y-136159580D02*
X93129523Y-136064342D01*
X93129523Y-136064342D02*
X93129523Y-135254819D01*
X93558095Y-135350057D02*
X93605714Y-135302438D01*
X93605714Y-135302438D02*
X93700952Y-135254819D01*
X93700952Y-135254819D02*
X93939047Y-135254819D01*
X93939047Y-135254819D02*
X94034285Y-135302438D01*
X94034285Y-135302438D02*
X94081904Y-135350057D01*
X94081904Y-135350057D02*
X94129523Y-135445295D01*
X94129523Y-135445295D02*
X94129523Y-135540533D01*
X94129523Y-135540533D02*
X94081904Y-135683390D01*
X94081904Y-135683390D02*
X93510476Y-136254819D01*
X93510476Y-136254819D02*
X94129523Y-136254819D01*
X82666666Y-85454819D02*
X82666666Y-86169104D01*
X82666666Y-86169104D02*
X82619047Y-86311961D01*
X82619047Y-86311961D02*
X82523809Y-86407200D01*
X82523809Y-86407200D02*
X82380952Y-86454819D01*
X82380952Y-86454819D02*
X82285714Y-86454819D01*
X83047619Y-85454819D02*
X83666666Y-85454819D01*
X83666666Y-85454819D02*
X83333333Y-85835771D01*
X83333333Y-85835771D02*
X83476190Y-85835771D01*
X83476190Y-85835771D02*
X83571428Y-85883390D01*
X83571428Y-85883390D02*
X83619047Y-85931009D01*
X83619047Y-85931009D02*
X83666666Y-86026247D01*
X83666666Y-86026247D02*
X83666666Y-86264342D01*
X83666666Y-86264342D02*
X83619047Y-86359580D01*
X83619047Y-86359580D02*
X83571428Y-86407200D01*
X83571428Y-86407200D02*
X83476190Y-86454819D01*
X83476190Y-86454819D02*
X83190476Y-86454819D01*
X83190476Y-86454819D02*
X83095238Y-86407200D01*
X83095238Y-86407200D02*
X83047619Y-86359580D01*
X92558095Y-145754819D02*
X92558095Y-146564342D01*
X92558095Y-146564342D02*
X92605714Y-146659580D01*
X92605714Y-146659580D02*
X92653333Y-146707200D01*
X92653333Y-146707200D02*
X92748571Y-146754819D01*
X92748571Y-146754819D02*
X92939047Y-146754819D01*
X92939047Y-146754819D02*
X93034285Y-146707200D01*
X93034285Y-146707200D02*
X93081904Y-146659580D01*
X93081904Y-146659580D02*
X93129523Y-146564342D01*
X93129523Y-146564342D02*
X93129523Y-145754819D01*
X93510476Y-145754819D02*
X94129523Y-145754819D01*
X94129523Y-145754819D02*
X93796190Y-146135771D01*
X93796190Y-146135771D02*
X93939047Y-146135771D01*
X93939047Y-146135771D02*
X94034285Y-146183390D01*
X94034285Y-146183390D02*
X94081904Y-146231009D01*
X94081904Y-146231009D02*
X94129523Y-146326247D01*
X94129523Y-146326247D02*
X94129523Y-146564342D01*
X94129523Y-146564342D02*
X94081904Y-146659580D01*
X94081904Y-146659580D02*
X94034285Y-146707200D01*
X94034285Y-146707200D02*
X93939047Y-146754819D01*
X93939047Y-146754819D02*
X93653333Y-146754819D01*
X93653333Y-146754819D02*
X93558095Y-146707200D01*
X93558095Y-146707200D02*
X93510476Y-146659580D01*
X92558095Y-156254819D02*
X92558095Y-157064342D01*
X92558095Y-157064342D02*
X92605714Y-157159580D01*
X92605714Y-157159580D02*
X92653333Y-157207200D01*
X92653333Y-157207200D02*
X92748571Y-157254819D01*
X92748571Y-157254819D02*
X92939047Y-157254819D01*
X92939047Y-157254819D02*
X93034285Y-157207200D01*
X93034285Y-157207200D02*
X93081904Y-157159580D01*
X93081904Y-157159580D02*
X93129523Y-157064342D01*
X93129523Y-157064342D02*
X93129523Y-156254819D01*
X94034285Y-156588152D02*
X94034285Y-157254819D01*
X93796190Y-156207200D02*
X93558095Y-156921485D01*
X93558095Y-156921485D02*
X94177142Y-156921485D01*
X129124819Y-92103333D02*
X129839104Y-92103333D01*
X129839104Y-92103333D02*
X129981961Y-92150952D01*
X129981961Y-92150952D02*
X130077200Y-92246190D01*
X130077200Y-92246190D02*
X130124819Y-92389047D01*
X130124819Y-92389047D02*
X130124819Y-92484285D01*
X129458152Y-91198571D02*
X130124819Y-91198571D01*
X129077200Y-91436666D02*
X129791485Y-91674761D01*
X129791485Y-91674761D02*
X129791485Y-91055714D01*
D12*
X147809523Y-97909638D02*
X147809523Y-95909638D01*
X147809523Y-95909638D02*
X148285713Y-95909638D01*
X148285713Y-95909638D02*
X148571428Y-96004876D01*
X148571428Y-96004876D02*
X148761904Y-96195352D01*
X148761904Y-96195352D02*
X148857142Y-96385828D01*
X148857142Y-96385828D02*
X148952380Y-96766780D01*
X148952380Y-96766780D02*
X148952380Y-97052495D01*
X148952380Y-97052495D02*
X148857142Y-97433447D01*
X148857142Y-97433447D02*
X148761904Y-97623923D01*
X148761904Y-97623923D02*
X148571428Y-97814400D01*
X148571428Y-97814400D02*
X148285713Y-97909638D01*
X148285713Y-97909638D02*
X147809523Y-97909638D01*
X149809523Y-95909638D02*
X149809523Y-97528685D01*
X149809523Y-97528685D02*
X149904761Y-97719161D01*
X149904761Y-97719161D02*
X149999999Y-97814400D01*
X149999999Y-97814400D02*
X150190475Y-97909638D01*
X150190475Y-97909638D02*
X150571428Y-97909638D01*
X150571428Y-97909638D02*
X150761904Y-97814400D01*
X150761904Y-97814400D02*
X150857142Y-97719161D01*
X150857142Y-97719161D02*
X150952380Y-97528685D01*
X150952380Y-97528685D02*
X150952380Y-95909638D01*
X151619047Y-95909638D02*
X152761904Y-95909638D01*
X152190475Y-97909638D02*
X152190475Y-95909638D01*
X152952381Y-98100114D02*
X154476190Y-98100114D01*
X154952381Y-97909638D02*
X154952381Y-95909638D01*
X156285714Y-95909638D02*
X156666667Y-95909638D01*
X156666667Y-95909638D02*
X156857143Y-96004876D01*
X156857143Y-96004876D02*
X157047619Y-96195352D01*
X157047619Y-96195352D02*
X157142857Y-96576304D01*
X157142857Y-96576304D02*
X157142857Y-97242971D01*
X157142857Y-97242971D02*
X157047619Y-97623923D01*
X157047619Y-97623923D02*
X156857143Y-97814400D01*
X156857143Y-97814400D02*
X156666667Y-97909638D01*
X156666667Y-97909638D02*
X156285714Y-97909638D01*
X156285714Y-97909638D02*
X156095238Y-97814400D01*
X156095238Y-97814400D02*
X155904762Y-97623923D01*
X155904762Y-97623923D02*
X155809524Y-97242971D01*
X155809524Y-97242971D02*
X155809524Y-96576304D01*
X155809524Y-96576304D02*
X155904762Y-96195352D01*
X155904762Y-96195352D02*
X156095238Y-96004876D01*
X156095238Y-96004876D02*
X156285714Y-95909638D01*
X158571429Y-98671542D02*
X158476190Y-98576304D01*
X158476190Y-98576304D02*
X158285714Y-98290590D01*
X158285714Y-98290590D02*
X158190476Y-98100114D01*
X158190476Y-98100114D02*
X158095238Y-97814400D01*
X158095238Y-97814400D02*
X158000000Y-97338209D01*
X158000000Y-97338209D02*
X158000000Y-96957257D01*
X158000000Y-96957257D02*
X158095238Y-96481066D01*
X158095238Y-96481066D02*
X158190476Y-96195352D01*
X158190476Y-96195352D02*
X158285714Y-96004876D01*
X158285714Y-96004876D02*
X158476190Y-95719161D01*
X158476190Y-95719161D02*
X158571429Y-95623923D01*
X160285714Y-95909638D02*
X159333333Y-95909638D01*
X159333333Y-95909638D02*
X159238095Y-96862019D01*
X159238095Y-96862019D02*
X159333333Y-96766780D01*
X159333333Y-96766780D02*
X159523809Y-96671542D01*
X159523809Y-96671542D02*
X160000000Y-96671542D01*
X160000000Y-96671542D02*
X160190476Y-96766780D01*
X160190476Y-96766780D02*
X160285714Y-96862019D01*
X160285714Y-96862019D02*
X160380952Y-97052495D01*
X160380952Y-97052495D02*
X160380952Y-97528685D01*
X160380952Y-97528685D02*
X160285714Y-97719161D01*
X160285714Y-97719161D02*
X160190476Y-97814400D01*
X160190476Y-97814400D02*
X160000000Y-97909638D01*
X160000000Y-97909638D02*
X159523809Y-97909638D01*
X159523809Y-97909638D02*
X159333333Y-97814400D01*
X159333333Y-97814400D02*
X159238095Y-97719161D01*
X161238095Y-97719161D02*
X161333333Y-97814400D01*
X161333333Y-97814400D02*
X161238095Y-97909638D01*
X161238095Y-97909638D02*
X161142857Y-97814400D01*
X161142857Y-97814400D02*
X161238095Y-97719161D01*
X161238095Y-97719161D02*
X161238095Y-97909638D01*
X162571428Y-95909638D02*
X162761905Y-95909638D01*
X162761905Y-95909638D02*
X162952381Y-96004876D01*
X162952381Y-96004876D02*
X163047619Y-96100114D01*
X163047619Y-96100114D02*
X163142857Y-96290590D01*
X163142857Y-96290590D02*
X163238095Y-96671542D01*
X163238095Y-96671542D02*
X163238095Y-97147733D01*
X163238095Y-97147733D02*
X163142857Y-97528685D01*
X163142857Y-97528685D02*
X163047619Y-97719161D01*
X163047619Y-97719161D02*
X162952381Y-97814400D01*
X162952381Y-97814400D02*
X162761905Y-97909638D01*
X162761905Y-97909638D02*
X162571428Y-97909638D01*
X162571428Y-97909638D02*
X162380952Y-97814400D01*
X162380952Y-97814400D02*
X162285714Y-97719161D01*
X162285714Y-97719161D02*
X162190476Y-97528685D01*
X162190476Y-97528685D02*
X162095238Y-97147733D01*
X162095238Y-97147733D02*
X162095238Y-96671542D01*
X162095238Y-96671542D02*
X162190476Y-96290590D01*
X162190476Y-96290590D02*
X162285714Y-96100114D01*
X162285714Y-96100114D02*
X162380952Y-96004876D01*
X162380952Y-96004876D02*
X162571428Y-95909638D01*
X163809524Y-95909638D02*
X164476190Y-97909638D01*
X164476190Y-97909638D02*
X165142857Y-95909638D01*
X165619048Y-98671542D02*
X165714286Y-98576304D01*
X165714286Y-98576304D02*
X165904762Y-98290590D01*
X165904762Y-98290590D02*
X166000000Y-98100114D01*
X166000000Y-98100114D02*
X166095238Y-97814400D01*
X166095238Y-97814400D02*
X166190476Y-97338209D01*
X166190476Y-97338209D02*
X166190476Y-96957257D01*
X166190476Y-96957257D02*
X166095238Y-96481066D01*
X166095238Y-96481066D02*
X166000000Y-96195352D01*
X166000000Y-96195352D02*
X165904762Y-96004876D01*
X165904762Y-96004876D02*
X165714286Y-95719161D01*
X165714286Y-95719161D02*
X165619048Y-95623923D01*
D13*
%TO.C,J6*%
X82130000Y-176830000D02*
X82130000Y-175500000D01*
X83460000Y-176830000D02*
X82130000Y-176830000D01*
X84730000Y-176830000D02*
X87330000Y-176830000D01*
X84730000Y-176830000D02*
X84730000Y-174170000D01*
X87330000Y-176830000D02*
X87330000Y-174170000D01*
X84730000Y-174170000D02*
X87330000Y-174170000D01*
%TO.C,TP4*%
X193200000Y-83500000D02*
G75*
G02*
X187800000Y-83500000I-2700000J0D01*
G01*
X187800000Y-83500000D02*
G75*
G02*
X193200000Y-83500000I2700000J0D01*
G01*
%TO.C,TP3*%
X81200000Y-83000000D02*
G75*
G02*
X75800000Y-83000000I-2700000J0D01*
G01*
X75800000Y-83000000D02*
G75*
G02*
X81200000Y-83000000I2700000J0D01*
G01*
%TO.C,J2*%
X121730000Y-89670000D02*
X124330000Y-89670000D01*
X124330000Y-92330000D02*
X124330000Y-89670000D01*
X121730000Y-92330000D02*
X121730000Y-89670000D01*
X121730000Y-92330000D02*
X124330000Y-92330000D01*
X120460000Y-92330000D02*
X119130000Y-92330000D01*
X119130000Y-92330000D02*
X119130000Y-91000000D01*
%TO.C,J5*%
X98395000Y-92330000D02*
X98395000Y-91000000D01*
X99725000Y-92330000D02*
X98395000Y-92330000D01*
X100995000Y-92330000D02*
X103595000Y-92330000D01*
X100995000Y-92330000D02*
X100995000Y-89670000D01*
X103595000Y-92330000D02*
X103595000Y-89670000D01*
X100995000Y-89670000D02*
X103595000Y-89670000D01*
%TO.C,U7*%
X92090000Y-108150000D02*
X92090000Y-111910000D01*
X92090000Y-111910000D02*
X93350000Y-111910000D01*
X98910000Y-108150000D02*
X98910000Y-111910000D01*
X98910000Y-111910000D02*
X97650000Y-111910000D01*
X99140000Y-107110000D02*
X98810000Y-106870000D01*
X99140000Y-106630000D01*
X99140000Y-107110000D01*
G36*
X99140000Y-107110000D02*
G01*
X98810000Y-106870000D01*
X99140000Y-106630000D01*
X99140000Y-107110000D01*
G37*
%TO.C,TP1*%
X80520000Y-180000000D02*
G75*
G02*
X75120000Y-180000000I-2700000J0D01*
G01*
X75120000Y-180000000D02*
G75*
G02*
X80520000Y-180000000I2700000J0D01*
G01*
%TO.C,C11*%
X84265000Y-100311252D02*
X84265000Y-99788748D01*
X85735000Y-100311252D02*
X85735000Y-99788748D01*
%TO.C,U1*%
X93320000Y-126115000D02*
X91120000Y-126115000D01*
X93320000Y-126115000D02*
X95520000Y-126115000D01*
X93320000Y-132885000D02*
X91120000Y-132885000D01*
X93320000Y-132885000D02*
X95520000Y-132885000D01*
X89460000Y-126575000D02*
X89130000Y-126815000D01*
X89130000Y-126335000D01*
X89460000Y-126575000D01*
G36*
X89460000Y-126575000D02*
G01*
X89130000Y-126815000D01*
X89130000Y-126335000D01*
X89460000Y-126575000D01*
G37*
%TO.C,C5*%
X87081252Y-154765000D02*
X86558748Y-154765000D01*
X87081252Y-156235000D02*
X86558748Y-156235000D01*
%TO.C,C9*%
X88031252Y-180265000D02*
X87508748Y-180265000D01*
X88031252Y-181735000D02*
X87508748Y-181735000D01*
%TO.C,U6*%
X79590000Y-108590000D02*
X80850000Y-108590000D01*
X79590000Y-112350000D02*
X79590000Y-108590000D01*
X86410000Y-108590000D02*
X85150000Y-108590000D01*
X86410000Y-112350000D02*
X86410000Y-108590000D01*
X79690000Y-113630000D02*
X79360000Y-113870000D01*
X79360000Y-113390000D01*
X79690000Y-113630000D01*
G36*
X79690000Y-113630000D02*
G01*
X79360000Y-113870000D01*
X79360000Y-113390000D01*
X79690000Y-113630000D01*
G37*
%TO.C,U5*%
X93320000Y-168615000D02*
X91120000Y-168615000D01*
X93320000Y-168615000D02*
X95520000Y-168615000D01*
X93320000Y-175385000D02*
X91120000Y-175385000D01*
X93320000Y-175385000D02*
X95520000Y-175385000D01*
X89460000Y-169075000D02*
X89130000Y-169315000D01*
X89130000Y-168835000D01*
X89460000Y-169075000D01*
G36*
X89460000Y-169075000D02*
G01*
X89130000Y-169315000D01*
X89130000Y-168835000D01*
X89460000Y-169075000D01*
G37*
%TO.C,C12*%
X97770000Y-100170000D02*
X104230000Y-100170000D01*
X97770000Y-100210000D02*
X104230000Y-100210000D01*
X97770000Y-100250000D02*
X104230000Y-100250000D01*
X97772000Y-100130000D02*
X104228000Y-100130000D01*
X97773000Y-100090000D02*
X104227000Y-100090000D01*
X97776000Y-100050000D02*
X104224000Y-100050000D01*
X97778000Y-100010000D02*
X99960000Y-100010000D01*
X97782000Y-99970000D02*
X99960000Y-99970000D01*
X97785000Y-99930000D02*
X99960000Y-99930000D01*
X97789000Y-99890000D02*
X99960000Y-99890000D01*
X97794000Y-99850000D02*
X99960000Y-99850000D01*
X97799000Y-99810000D02*
X99960000Y-99810000D01*
X97805000Y-99770000D02*
X99960000Y-99770000D01*
X97811000Y-99730000D02*
X99960000Y-99730000D01*
X97818000Y-99690000D02*
X99960000Y-99690000D01*
X97825000Y-99650000D02*
X99960000Y-99650000D01*
X97833000Y-99610000D02*
X99960000Y-99610000D01*
X97841000Y-99570000D02*
X99960000Y-99570000D01*
X97850000Y-99529000D02*
X99960000Y-99529000D01*
X97859000Y-99489000D02*
X99960000Y-99489000D01*
X97869000Y-99449000D02*
X99960000Y-99449000D01*
X97879000Y-99409000D02*
X99960000Y-99409000D01*
X97890000Y-99369000D02*
X99960000Y-99369000D01*
X97902000Y-99329000D02*
X99960000Y-99329000D01*
X97914000Y-99289000D02*
X99960000Y-99289000D01*
X97926000Y-99249000D02*
X99960000Y-99249000D01*
X97939000Y-99209000D02*
X99960000Y-99209000D01*
X97953000Y-99169000D02*
X99960000Y-99169000D01*
X97967000Y-99129000D02*
X99960000Y-99129000D01*
X97982000Y-99089000D02*
X99960000Y-99089000D01*
X97998000Y-99049000D02*
X99960000Y-99049000D01*
X98014000Y-99009000D02*
X99960000Y-99009000D01*
X98030000Y-98969000D02*
X99960000Y-98969000D01*
X98048000Y-98929000D02*
X99960000Y-98929000D01*
X98066000Y-98889000D02*
X99960000Y-98889000D01*
X98084000Y-98849000D02*
X99960000Y-98849000D01*
X98104000Y-98809000D02*
X99960000Y-98809000D01*
X98124000Y-98769000D02*
X99960000Y-98769000D01*
X98144000Y-98729000D02*
X99960000Y-98729000D01*
X98166000Y-98689000D02*
X99960000Y-98689000D01*
X98188000Y-98649000D02*
X99960000Y-98649000D01*
X98210000Y-98609000D02*
X99960000Y-98609000D01*
X98234000Y-98569000D02*
X99960000Y-98569000D01*
X98258000Y-98529000D02*
X99960000Y-98529000D01*
X98284000Y-98489000D02*
X99960000Y-98489000D01*
X98310000Y-98449000D02*
X99960000Y-98449000D01*
X98336000Y-98409000D02*
X99960000Y-98409000D01*
X98364000Y-98369000D02*
X99960000Y-98369000D01*
X98393000Y-98329000D02*
X99960000Y-98329000D01*
X98422000Y-98289000D02*
X99960000Y-98289000D01*
X98452000Y-98249000D02*
X99960000Y-98249000D01*
X98484000Y-98209000D02*
X99960000Y-98209000D01*
X98516000Y-98169000D02*
X99960000Y-98169000D01*
X98550000Y-98129000D02*
X99960000Y-98129000D01*
X98584000Y-98089000D02*
X99960000Y-98089000D01*
X98620000Y-98049000D02*
X99960000Y-98049000D01*
X98657000Y-98009000D02*
X99960000Y-98009000D01*
X98695000Y-97969000D02*
X99960000Y-97969000D01*
X98735000Y-97929000D02*
X103265000Y-97929000D01*
X98776000Y-97889000D02*
X103224000Y-97889000D01*
X98818000Y-97849000D02*
X103182000Y-97849000D01*
X98846000Y-103435241D02*
X99476000Y-103435241D01*
X98863000Y-97809000D02*
X103137000Y-97809000D01*
X98908000Y-97769000D02*
X103092000Y-97769000D01*
X98956000Y-97729000D02*
X103044000Y-97729000D01*
X99005000Y-97689000D02*
X102995000Y-97689000D01*
X99056000Y-97649000D02*
X102944000Y-97649000D01*
X99110000Y-97609000D02*
X102890000Y-97609000D01*
X99161000Y-103750241D02*
X99161000Y-103120241D01*
X99166000Y-97569000D02*
X102834000Y-97569000D01*
X99224000Y-97529000D02*
X102776000Y-97529000D01*
X99286000Y-97489000D02*
X102714000Y-97489000D01*
X99350000Y-97449000D02*
X102650000Y-97449000D01*
X99419000Y-97409000D02*
X102581000Y-97409000D01*
X99491000Y-97369000D02*
X102509000Y-97369000D01*
X99568000Y-97329000D02*
X102432000Y-97329000D01*
X99650000Y-97289000D02*
X102350000Y-97289000D01*
X99738000Y-97249000D02*
X102262000Y-97249000D01*
X99835000Y-97209000D02*
X102165000Y-97209000D01*
X99941000Y-97169000D02*
X102059000Y-97169000D01*
X100060000Y-97129000D02*
X101940000Y-97129000D01*
X100198000Y-97089000D02*
X101802000Y-97089000D01*
X100367000Y-97049000D02*
X101633000Y-97049000D01*
X100598000Y-97009000D02*
X101402000Y-97009000D01*
X102040000Y-97969000D02*
X103305000Y-97969000D01*
X102040000Y-98009000D02*
X103343000Y-98009000D01*
X102040000Y-98049000D02*
X103380000Y-98049000D01*
X102040000Y-98089000D02*
X103416000Y-98089000D01*
X102040000Y-98129000D02*
X103450000Y-98129000D01*
X102040000Y-98169000D02*
X103484000Y-98169000D01*
X102040000Y-98209000D02*
X103516000Y-98209000D01*
X102040000Y-98249000D02*
X103548000Y-98249000D01*
X102040000Y-98289000D02*
X103578000Y-98289000D01*
X102040000Y-98329000D02*
X103607000Y-98329000D01*
X102040000Y-98369000D02*
X103636000Y-98369000D01*
X102040000Y-98409000D02*
X103664000Y-98409000D01*
X102040000Y-98449000D02*
X103690000Y-98449000D01*
X102040000Y-98489000D02*
X103716000Y-98489000D01*
X102040000Y-98529000D02*
X103742000Y-98529000D01*
X102040000Y-98569000D02*
X103766000Y-98569000D01*
X102040000Y-98609000D02*
X103790000Y-98609000D01*
X102040000Y-98649000D02*
X103812000Y-98649000D01*
X102040000Y-98689000D02*
X103834000Y-98689000D01*
X102040000Y-98729000D02*
X103856000Y-98729000D01*
X102040000Y-98769000D02*
X103876000Y-98769000D01*
X102040000Y-98809000D02*
X103896000Y-98809000D01*
X102040000Y-98849000D02*
X103916000Y-98849000D01*
X102040000Y-98889000D02*
X103934000Y-98889000D01*
X102040000Y-98929000D02*
X103952000Y-98929000D01*
X102040000Y-98969000D02*
X103970000Y-98969000D01*
X102040000Y-99009000D02*
X103986000Y-99009000D01*
X102040000Y-99049000D02*
X104002000Y-99049000D01*
X102040000Y-99089000D02*
X104018000Y-99089000D01*
X102040000Y-99129000D02*
X104033000Y-99129000D01*
X102040000Y-99169000D02*
X104047000Y-99169000D01*
X102040000Y-99209000D02*
X104061000Y-99209000D01*
X102040000Y-99249000D02*
X104074000Y-99249000D01*
X102040000Y-99289000D02*
X104086000Y-99289000D01*
X102040000Y-99329000D02*
X104098000Y-99329000D01*
X102040000Y-99369000D02*
X104110000Y-99369000D01*
X102040000Y-99409000D02*
X104121000Y-99409000D01*
X102040000Y-99449000D02*
X104131000Y-99449000D01*
X102040000Y-99489000D02*
X104141000Y-99489000D01*
X102040000Y-99529000D02*
X104150000Y-99529000D01*
X102040000Y-99570000D02*
X104159000Y-99570000D01*
X102040000Y-99610000D02*
X104167000Y-99610000D01*
X102040000Y-99650000D02*
X104175000Y-99650000D01*
X102040000Y-99690000D02*
X104182000Y-99690000D01*
X102040000Y-99730000D02*
X104189000Y-99730000D01*
X102040000Y-99770000D02*
X104195000Y-99770000D01*
X102040000Y-99810000D02*
X104201000Y-99810000D01*
X102040000Y-99850000D02*
X104206000Y-99850000D01*
X102040000Y-99890000D02*
X104211000Y-99890000D01*
X102040000Y-99930000D02*
X104215000Y-99930000D01*
X102040000Y-99970000D02*
X104218000Y-99970000D01*
X102040000Y-100010000D02*
X104222000Y-100010000D01*
X104270000Y-100250000D02*
G75*
G02*
X97730000Y-100250000I-3270000J0D01*
G01*
X97730000Y-100250000D02*
G75*
G02*
X104270000Y-100250000I3270000J0D01*
G01*
%TO.C,J1*%
X74490000Y-124670000D02*
X75820000Y-124670000D01*
X74490000Y-126000000D02*
X74490000Y-124670000D01*
X74490000Y-127270000D02*
X74490000Y-175590000D01*
X74490000Y-127270000D02*
X77090000Y-127270000D01*
X74490000Y-175590000D02*
X79690000Y-175590000D01*
X77090000Y-124670000D02*
X79690000Y-124670000D01*
X77090000Y-127270000D02*
X77090000Y-124670000D01*
X79690000Y-124670000D02*
X79690000Y-175590000D01*
%TO.C,C8*%
X98558748Y-165765000D02*
X99081252Y-165765000D01*
X98558748Y-167235000D02*
X99081252Y-167235000D01*
%TO.C,TP2*%
X123200000Y-180000000D02*
G75*
G02*
X117800000Y-180000000I-2700000J0D01*
G01*
X117800000Y-180000000D02*
G75*
G02*
X123200000Y-180000000I2700000J0D01*
G01*
%TO.C,C3*%
X87031252Y-144265000D02*
X86508748Y-144265000D01*
X87031252Y-145735000D02*
X86508748Y-145735000D01*
%TO.C,C13*%
X92765000Y-100311252D02*
X92765000Y-99788748D01*
X94235000Y-100311252D02*
X94235000Y-99788748D01*
%TO.C,C6*%
X98558748Y-154765000D02*
X99081252Y-154765000D01*
X98558748Y-156235000D02*
X99081252Y-156235000D01*
%TO.C,C15*%
X74770000Y-100670000D02*
X81230000Y-100670000D01*
X74770000Y-100710000D02*
X81230000Y-100710000D01*
X74770000Y-100750000D02*
X81230000Y-100750000D01*
X74772000Y-100630000D02*
X81228000Y-100630000D01*
X74773000Y-100590000D02*
X81227000Y-100590000D01*
X74776000Y-100550000D02*
X81224000Y-100550000D01*
X74778000Y-100510000D02*
X76960000Y-100510000D01*
X74782000Y-100470000D02*
X76960000Y-100470000D01*
X74785000Y-100430000D02*
X76960000Y-100430000D01*
X74789000Y-100390000D02*
X76960000Y-100390000D01*
X74794000Y-100350000D02*
X76960000Y-100350000D01*
X74799000Y-100310000D02*
X76960000Y-100310000D01*
X74805000Y-100270000D02*
X76960000Y-100270000D01*
X74811000Y-100230000D02*
X76960000Y-100230000D01*
X74818000Y-100190000D02*
X76960000Y-100190000D01*
X74825000Y-100150000D02*
X76960000Y-100150000D01*
X74833000Y-100110000D02*
X76960000Y-100110000D01*
X74841000Y-100070000D02*
X76960000Y-100070000D01*
X74850000Y-100029000D02*
X76960000Y-100029000D01*
X74859000Y-99989000D02*
X76960000Y-99989000D01*
X74869000Y-99949000D02*
X76960000Y-99949000D01*
X74879000Y-99909000D02*
X76960000Y-99909000D01*
X74890000Y-99869000D02*
X76960000Y-99869000D01*
X74902000Y-99829000D02*
X76960000Y-99829000D01*
X74914000Y-99789000D02*
X76960000Y-99789000D01*
X74926000Y-99749000D02*
X76960000Y-99749000D01*
X74939000Y-99709000D02*
X76960000Y-99709000D01*
X74953000Y-99669000D02*
X76960000Y-99669000D01*
X74967000Y-99629000D02*
X76960000Y-99629000D01*
X74982000Y-99589000D02*
X76960000Y-99589000D01*
X74998000Y-99549000D02*
X76960000Y-99549000D01*
X75014000Y-99509000D02*
X76960000Y-99509000D01*
X75030000Y-99469000D02*
X76960000Y-99469000D01*
X75048000Y-99429000D02*
X76960000Y-99429000D01*
X75066000Y-99389000D02*
X76960000Y-99389000D01*
X75084000Y-99349000D02*
X76960000Y-99349000D01*
X75104000Y-99309000D02*
X76960000Y-99309000D01*
X75124000Y-99269000D02*
X76960000Y-99269000D01*
X75144000Y-99229000D02*
X76960000Y-99229000D01*
X75166000Y-99189000D02*
X76960000Y-99189000D01*
X75188000Y-99149000D02*
X76960000Y-99149000D01*
X75210000Y-99109000D02*
X76960000Y-99109000D01*
X75234000Y-99069000D02*
X76960000Y-99069000D01*
X75258000Y-99029000D02*
X76960000Y-99029000D01*
X75284000Y-98989000D02*
X76960000Y-98989000D01*
X75310000Y-98949000D02*
X76960000Y-98949000D01*
X75336000Y-98909000D02*
X76960000Y-98909000D01*
X75364000Y-98869000D02*
X76960000Y-98869000D01*
X75393000Y-98829000D02*
X76960000Y-98829000D01*
X75422000Y-98789000D02*
X76960000Y-98789000D01*
X75452000Y-98749000D02*
X76960000Y-98749000D01*
X75484000Y-98709000D02*
X76960000Y-98709000D01*
X75516000Y-98669000D02*
X76960000Y-98669000D01*
X75550000Y-98629000D02*
X76960000Y-98629000D01*
X75584000Y-98589000D02*
X76960000Y-98589000D01*
X75620000Y-98549000D02*
X76960000Y-98549000D01*
X75657000Y-98509000D02*
X76960000Y-98509000D01*
X75695000Y-98469000D02*
X76960000Y-98469000D01*
X75735000Y-98429000D02*
X80265000Y-98429000D01*
X75776000Y-98389000D02*
X80224000Y-98389000D01*
X75818000Y-98349000D02*
X80182000Y-98349000D01*
X75846000Y-103935241D02*
X76476000Y-103935241D01*
X75863000Y-98309000D02*
X80137000Y-98309000D01*
X75908000Y-98269000D02*
X80092000Y-98269000D01*
X75956000Y-98229000D02*
X80044000Y-98229000D01*
X76005000Y-98189000D02*
X79995000Y-98189000D01*
X76056000Y-98149000D02*
X79944000Y-98149000D01*
X76110000Y-98109000D02*
X79890000Y-98109000D01*
X76161000Y-104250241D02*
X76161000Y-103620241D01*
X76166000Y-98069000D02*
X79834000Y-98069000D01*
X76224000Y-98029000D02*
X79776000Y-98029000D01*
X76286000Y-97989000D02*
X79714000Y-97989000D01*
X76350000Y-97949000D02*
X79650000Y-97949000D01*
X76419000Y-97909000D02*
X79581000Y-97909000D01*
X76491000Y-97869000D02*
X79509000Y-97869000D01*
X76568000Y-97829000D02*
X79432000Y-97829000D01*
X76650000Y-97789000D02*
X79350000Y-97789000D01*
X76738000Y-97749000D02*
X79262000Y-97749000D01*
X76835000Y-97709000D02*
X79165000Y-97709000D01*
X76941000Y-97669000D02*
X79059000Y-97669000D01*
X77060000Y-97629000D02*
X78940000Y-97629000D01*
X77198000Y-97589000D02*
X78802000Y-97589000D01*
X77367000Y-97549000D02*
X78633000Y-97549000D01*
X77598000Y-97509000D02*
X78402000Y-97509000D01*
X79040000Y-98469000D02*
X80305000Y-98469000D01*
X79040000Y-98509000D02*
X80343000Y-98509000D01*
X79040000Y-98549000D02*
X80380000Y-98549000D01*
X79040000Y-98589000D02*
X80416000Y-98589000D01*
X79040000Y-98629000D02*
X80450000Y-98629000D01*
X79040000Y-98669000D02*
X80484000Y-98669000D01*
X79040000Y-98709000D02*
X80516000Y-98709000D01*
X79040000Y-98749000D02*
X80548000Y-98749000D01*
X79040000Y-98789000D02*
X80578000Y-98789000D01*
X79040000Y-98829000D02*
X80607000Y-98829000D01*
X79040000Y-98869000D02*
X80636000Y-98869000D01*
X79040000Y-98909000D02*
X80664000Y-98909000D01*
X79040000Y-98949000D02*
X80690000Y-98949000D01*
X79040000Y-98989000D02*
X80716000Y-98989000D01*
X79040000Y-99029000D02*
X80742000Y-99029000D01*
X79040000Y-99069000D02*
X80766000Y-99069000D01*
X79040000Y-99109000D02*
X80790000Y-99109000D01*
X79040000Y-99149000D02*
X80812000Y-99149000D01*
X79040000Y-99189000D02*
X80834000Y-99189000D01*
X79040000Y-99229000D02*
X80856000Y-99229000D01*
X79040000Y-99269000D02*
X80876000Y-99269000D01*
X79040000Y-99309000D02*
X80896000Y-99309000D01*
X79040000Y-99349000D02*
X80916000Y-99349000D01*
X79040000Y-99389000D02*
X80934000Y-99389000D01*
X79040000Y-99429000D02*
X80952000Y-99429000D01*
X79040000Y-99469000D02*
X80970000Y-99469000D01*
X79040000Y-99509000D02*
X80986000Y-99509000D01*
X79040000Y-99549000D02*
X81002000Y-99549000D01*
X79040000Y-99589000D02*
X81018000Y-99589000D01*
X79040000Y-99629000D02*
X81033000Y-99629000D01*
X79040000Y-99669000D02*
X81047000Y-99669000D01*
X79040000Y-99709000D02*
X81061000Y-99709000D01*
X79040000Y-99749000D02*
X81074000Y-99749000D01*
X79040000Y-99789000D02*
X81086000Y-99789000D01*
X79040000Y-99829000D02*
X81098000Y-99829000D01*
X79040000Y-99869000D02*
X81110000Y-99869000D01*
X79040000Y-99909000D02*
X81121000Y-99909000D01*
X79040000Y-99949000D02*
X81131000Y-99949000D01*
X79040000Y-99989000D02*
X81141000Y-99989000D01*
X79040000Y-100029000D02*
X81150000Y-100029000D01*
X79040000Y-100070000D02*
X81159000Y-100070000D01*
X79040000Y-100110000D02*
X81167000Y-100110000D01*
X79040000Y-100150000D02*
X81175000Y-100150000D01*
X79040000Y-100190000D02*
X81182000Y-100190000D01*
X79040000Y-100230000D02*
X81189000Y-100230000D01*
X79040000Y-100270000D02*
X81195000Y-100270000D01*
X79040000Y-100310000D02*
X81201000Y-100310000D01*
X79040000Y-100350000D02*
X81206000Y-100350000D01*
X79040000Y-100390000D02*
X81211000Y-100390000D01*
X79040000Y-100430000D02*
X81215000Y-100430000D01*
X79040000Y-100470000D02*
X81218000Y-100470000D01*
X79040000Y-100510000D02*
X81222000Y-100510000D01*
X81270000Y-100750000D02*
G75*
G02*
X74730000Y-100750000I-3270000J0D01*
G01*
X74730000Y-100750000D02*
G75*
G02*
X81270000Y-100750000I3270000J0D01*
G01*
%TO.C,C4*%
X98558748Y-144265000D02*
X99081252Y-144265000D01*
X98558748Y-145735000D02*
X99081252Y-145735000D01*
%TO.C,C7*%
X87081252Y-165765000D02*
X86558748Y-165765000D01*
X87081252Y-167235000D02*
X86558748Y-167235000D01*
%TO.C,U2*%
X93320000Y-136615000D02*
X91120000Y-136615000D01*
X93320000Y-136615000D02*
X95520000Y-136615000D01*
X93320000Y-143385000D02*
X91120000Y-143385000D01*
X93320000Y-143385000D02*
X95520000Y-143385000D01*
X89460000Y-137075000D02*
X89130000Y-137315000D01*
X89130000Y-136835000D01*
X89460000Y-137075000D01*
G36*
X89460000Y-137075000D02*
G01*
X89130000Y-137315000D01*
X89130000Y-136835000D01*
X89460000Y-137075000D01*
G37*
%TO.C,J3*%
X84880000Y-79680000D02*
X84880000Y-87800000D01*
X84880000Y-93200000D02*
X84880000Y-94420000D01*
X84880000Y-94420000D02*
X86550000Y-94420000D01*
X92450000Y-94420000D02*
X94120000Y-94420000D01*
X94120000Y-79680000D02*
X84880000Y-79680000D01*
X94120000Y-94420000D02*
X94120000Y-79680000D01*
%TO.C,U3*%
X93320000Y-147115000D02*
X91120000Y-147115000D01*
X93320000Y-147115000D02*
X95520000Y-147115000D01*
X93320000Y-153885000D02*
X91120000Y-153885000D01*
X93320000Y-153885000D02*
X95520000Y-153885000D01*
X89460000Y-147575000D02*
X89130000Y-147815000D01*
X89130000Y-147335000D01*
X89460000Y-147575000D01*
G36*
X89460000Y-147575000D02*
G01*
X89130000Y-147815000D01*
X89130000Y-147335000D01*
X89460000Y-147575000D01*
G37*
%TO.C,C10*%
X98558748Y-180265000D02*
X99081252Y-180265000D01*
X98558748Y-181735000D02*
X99081252Y-181735000D01*
%TO.C,C2*%
X98508748Y-133765000D02*
X99031252Y-133765000D01*
X98508748Y-135235000D02*
X99031252Y-135235000D01*
%TO.C,U4*%
X93320000Y-157615000D02*
X91120000Y-157615000D01*
X93320000Y-157615000D02*
X95520000Y-157615000D01*
X93320000Y-164385000D02*
X91120000Y-164385000D01*
X93320000Y-164385000D02*
X95520000Y-164385000D01*
X89460000Y-158075000D02*
X89130000Y-158315000D01*
X89130000Y-157835000D01*
X89460000Y-158075000D01*
G36*
X89460000Y-158075000D02*
G01*
X89130000Y-158315000D01*
X89130000Y-157835000D01*
X89460000Y-158075000D01*
G37*
%TO.C,C1*%
X86531252Y-133765000D02*
X86008748Y-133765000D01*
X86531252Y-135235000D02*
X86008748Y-135235000D01*
%TO.C,J4*%
X130670000Y-94370000D02*
X130670000Y-93040000D01*
X132000000Y-94370000D02*
X130670000Y-94370000D01*
X133270000Y-94370000D02*
X186670000Y-94370000D01*
X133270000Y-94370000D02*
X133270000Y-91770000D01*
X186670000Y-94370000D02*
X186670000Y-89170000D01*
X130670000Y-91770000D02*
X130670000Y-89170000D01*
X133270000Y-91770000D02*
X130670000Y-91770000D01*
X130670000Y-89170000D02*
X186670000Y-89170000D01*
%TD*%
M02*
