%TF.GenerationSoftware,KiCad,Pcbnew,10.0.1*%
%TF.CreationDate,2026-07-09T23:28:59+09:00*%
%TF.ProjectId,PSCE-TEST_Cyclone4_6k,50534345-2d54-4455-9354-5f4379636c6f,rev?*%
%TF.SameCoordinates,Original*%
%TF.FileFunction,Copper,L2,Bot*%
%TF.FilePolarity,Positive*%
%FSLAX46Y46*%
G04 Gerber Fmt 4.6, Leading zero omitted, Abs format (unit mm)*
G04 Created by KiCad (PCBNEW 10.0.1) date 2026-07-09 23:28:59*
%MOMM*%
%LPD*%
G01*
G04 APERTURE LIST*
%TA.AperFunction,ComponentPad*%
%ADD10R,1.700000X1.700000*%
%TD*%
%TA.AperFunction,ComponentPad*%
%ADD11O,1.700000X1.700000*%
%TD*%
%TA.AperFunction,ComponentPad*%
%ADD12C,1.700000*%
%TD*%
%TA.AperFunction,ViaPad*%
%ADD13C,0.600000*%
%TD*%
%TA.AperFunction,Conductor*%
%ADD14C,0.300000*%
%TD*%
%TA.AperFunction,Conductor*%
%ADD15C,0.200000*%
%TD*%
G04 APERTURE END LIST*
D10*
%TO.P,JA1,1,Pin_1_1*%
%TO.N,/IO11*%
X198120000Y-50800000D03*
D11*
%TO.P,JA1,2,Pin_2_2*%
%TO.N,/IO10*%
X200660000Y-50800000D03*
%TO.P,JA1,3,Pin_3_3*%
%TO.N,/IO7*%
X198120000Y-53340000D03*
%TO.P,JA1,4,Pin_4_4*%
%TO.N,/IO3*%
X200660000Y-53340000D03*
%TO.P,JA1,5,Pin_5_5*%
%TO.N,/IO2*%
X198120000Y-55880000D03*
%TO.P,JA1,6,Pin_6_6*%
%TO.N,/IO1*%
X200660000Y-55880000D03*
%TO.P,JA1,7,Pin_7_7*%
%TO.N,/IO144*%
X198120000Y-58420000D03*
%TO.P,JA1,8,Pin_8_8*%
%TO.N,/IO143*%
X200660000Y-58420000D03*
%TO.P,JA1,9,Pin_9_9*%
%TO.N,GND*%
X198120000Y-60960000D03*
%TO.P,JA1,10,Pin_10_10*%
X200660000Y-60960000D03*
%TO.P,JA1,11,Pin_11_11*%
%TO.N,unconnected-(JA1-Pin_11-Pad11)*%
X198120000Y-63500000D03*
%TO.P,JA1,12,Pin_12_12*%
%TO.N,unconnected-(JA1-Pin_12-Pad12)*%
X200660000Y-63500000D03*
%TD*%
D10*
%TO.P,J8,1,Pin_1_1*%
%TO.N,3V3*%
X185420000Y-63500000D03*
D11*
%TO.P,J8,2,Pin_2_2*%
X187960000Y-63500000D03*
%TO.P,J8,3,Pin_3_3*%
%TO.N,GND*%
X185420000Y-66040000D03*
%TO.P,J8,4,Pin_4_4*%
X187960000Y-66040000D03*
%TO.P,J8,5,Pin_5_5*%
%TO.N,/IO11*%
X185420000Y-68580000D03*
%TO.P,J8,6,Pin_6_6*%
%TO.N,/IO10*%
X187960000Y-68580000D03*
%TO.P,J8,7,Pin_7_7*%
%TO.N,/IO7*%
X185420000Y-71120000D03*
%TO.P,J8,8,Pin_8_8*%
%TO.N,/IO3*%
X187960000Y-71120000D03*
%TO.P,J8,9,Pin_9_9*%
%TO.N,/IO2*%
X185420000Y-73660000D03*
%TO.P,J8,10,Pin_10_10*%
%TO.N,/IO1*%
X187960000Y-73660000D03*
%TO.P,J8,11,Pin_11_11*%
%TO.N,/IO144*%
X185420000Y-76200000D03*
%TO.P,J8,12,Pin_12_12*%
%TO.N,/IO143*%
X187960000Y-76200000D03*
%TO.P,J8,13,Pin_13_13*%
%TO.N,/DOUT_EMU0_142*%
X185420000Y-78740000D03*
%TO.P,J8,14,Pin_14_14*%
%TO.N,/DOUT_EMU4_141*%
X187960000Y-78740000D03*
%TO.P,J8,15,Pin_15_15*%
%TO.N,/DOUT_EMU1_138*%
X185420000Y-81280000D03*
%TO.P,J8,16,Pin_16_16*%
%TO.N,/DOUT_EMU5_137*%
X187960000Y-81280000D03*
%TO.P,J8,17,Pin_17_17*%
%TO.N,/DOUT_EMU2_136*%
X185420000Y-83820000D03*
%TO.P,J8,18,Pin_18_18*%
%TO.N,/DOUT_EMU6_135*%
X187960000Y-83820000D03*
%TO.P,J8,19,Pin_19_19*%
%TO.N,/DOUT_EMU3_133*%
X185420000Y-86360000D03*
%TO.P,J8,20,Pin_20_20*%
%TO.N,/DOUT_EMU7_132*%
X187960000Y-86360000D03*
%TO.P,J8,21,Pin_21_21*%
%TO.N,/DIN_EMU0_129*%
X185420000Y-88900000D03*
%TO.P,J8,22,Pin_22_22*%
%TO.N,/DIN_EMU4_128*%
X187960000Y-88900000D03*
%TO.P,J8,23,Pin_23_23*%
%TO.N,/DIN_EMU1_127*%
X185420000Y-91440000D03*
%TO.P,J8,24,Pin_24_24*%
%TO.N,/DIN_EMU5_126*%
X187960000Y-91440000D03*
%TO.P,J8,25,Pin_25_25*%
%TO.N,/DIN_EMU2_125*%
X185420000Y-93980000D03*
%TO.P,J8,26,Pin_26_26*%
%TO.N,/DIN_EMU6_124*%
X187960000Y-93980000D03*
%TO.P,J8,27,Pin_27_27*%
%TO.N,/DIN_EMU3_121*%
X185420000Y-96520000D03*
%TO.P,J8,28,Pin_28_28*%
%TO.N,/DIN_EMU7_120*%
X187960000Y-96520000D03*
%TO.P,J8,29,Pin_29_29*%
%TO.N,/GET_EMU_119*%
X185420000Y-99060000D03*
%TO.P,J8,30,Pin_30_30*%
%TO.N,/ADDR_EMU0_115*%
X187960000Y-99060000D03*
%TO.P,J8,31,Pin_31_31*%
%TO.N,/ADDR_EMU1_114*%
X185420000Y-101600000D03*
%TO.P,J8,32,Pin_32_32*%
%TO.N,/LOAD_EMU_113*%
X187960000Y-101600000D03*
%TO.P,J8,33,Pin_33_33*%
%TO.N,/IO_REQ_112*%
X185420000Y-104140000D03*
%TO.P,J8,34,Pin_34_34*%
%TO.N,/ADDR_EMU2_111*%
X187960000Y-104140000D03*
%TO.P,J8,35,Pin_35_35*%
%TO.N,/IO110*%
X185420000Y-106680000D03*
%TO.P,J8,36,Pin_36_36*%
%TO.N,/IO106*%
X187960000Y-106680000D03*
%TO.P,J8,37,Pin_37_37*%
%TO.N,/IO105*%
X185420000Y-109220000D03*
%TO.P,J8,38,Pin_38_38*%
%TO.N,/IO104*%
X187960000Y-109220000D03*
%TO.P,J8,39,Pin_39_39*%
%TO.N,/IO103*%
X185420000Y-111760000D03*
%TO.P,J8,40,Pin_40_40*%
%TO.N,/IO101_nCE0*%
X187960000Y-111760000D03*
%TO.P,J8,41,Pin_41_41*%
%TO.N,/IO100*%
X185420000Y-114300000D03*
%TO.P,J8,42,Pin_42_42*%
%TO.N,/IO99*%
X187960000Y-114300000D03*
%TO.P,J8,43,Pin_43_43*%
%TO.N,/IO98*%
X185420000Y-116840000D03*
%TO.P,J8,44,Pin_44_44*%
%TO.N,/CLK_EMU_23*%
X187960000Y-116840000D03*
%TO.P,J8,45,Pin_45_45*%
%TO.N,/CLK_DUT_24*%
X185420000Y-119380000D03*
%TO.P,J8,46,Pin_46_46*%
%TO.N,/I25_CLK*%
X187960000Y-119380000D03*
%TO.P,J8,47,Pin_47_47*%
%TO.N,GND*%
X185420000Y-121920000D03*
%TO.P,J8,48,Pin_48_48*%
X187960000Y-121920000D03*
%TD*%
D10*
%TO.P,J1,1,Pin_1_1*%
%TO.N,+5V*%
X195625000Y-91400000D03*
D12*
%TO.P,J1,2,Pin_2_2*%
%TO.N,Net-(J1-Pin_2)*%
X198165000Y-91400000D03*
%TD*%
D10*
%TO.P,JC1,1,Pin_1_1*%
%TO.N,/DIN_EMU0_129*%
X198120000Y-96520000D03*
D11*
%TO.P,JC1,2,Pin_2_2*%
%TO.N,/DIN_EMU4_128*%
X200660000Y-96520000D03*
%TO.P,JC1,3,Pin_3_3*%
%TO.N,/DIN_EMU1_127*%
X198120000Y-99060000D03*
%TO.P,JC1,4,Pin_4_4*%
%TO.N,/DIN_EMU5_126*%
X200660000Y-99060000D03*
%TO.P,JC1,5,Pin_5_5*%
%TO.N,/DIN_EMU2_125*%
X198120000Y-101600000D03*
%TO.P,JC1,6,Pin_6_6*%
%TO.N,/DIN_EMU6_124*%
X200660000Y-101600000D03*
%TO.P,JC1,7,Pin_7_7*%
%TO.N,/DIN_EMU3_121*%
X198120000Y-104140000D03*
%TO.P,JC1,8,Pin_8_8*%
%TO.N,/DIN_EMU7_120*%
X200660000Y-104140000D03*
%TO.P,JC1,9,Pin_9_9*%
%TO.N,GND*%
X198120000Y-106680000D03*
%TO.P,JC1,10,Pin_10_10*%
X200660000Y-106680000D03*
%TO.P,JC1,11,Pin_11_11*%
%TO.N,unconnected-(JC1-Pin_11-Pad11)*%
X198120000Y-109220000D03*
%TO.P,JC1,12,Pin_12_12*%
%TO.N,unconnected-(JC1-Pin_12-Pad12)*%
X200660000Y-109220000D03*
%TD*%
D10*
%TO.P,JD1,1,Pin_1_1*%
%TO.N,/GET_EMU_119*%
X198120000Y-119380000D03*
D11*
%TO.P,JD1,2,Pin_2_2*%
%TO.N,/CLK_EMU_23*%
X200660000Y-119380000D03*
%TO.P,JD1,3,Pin_3_3*%
%TO.N,/LOAD_EMU_113*%
X198120000Y-121920000D03*
%TO.P,JD1,4,Pin_4_4*%
%TO.N,/ADDR_EMU0_115*%
X200660000Y-121920000D03*
%TO.P,JD1,5,Pin_5_5*%
%TO.N,/CLK_DUT_24*%
X198120000Y-124460000D03*
%TO.P,JD1,6,Pin_6_6*%
%TO.N,/ADDR_EMU1_114*%
X200660000Y-124460000D03*
%TO.P,JD1,7,Pin_7_7*%
%TO.N,/IO_REQ_112*%
X198120000Y-127000000D03*
%TO.P,JD1,8,Pin_8_8*%
%TO.N,/ADDR_EMU2_111*%
X200660000Y-127000000D03*
%TO.P,JD1,9,Pin_9_9*%
%TO.N,GND*%
X198120000Y-129540000D03*
%TO.P,JD1,10,Pin_10_10*%
X200660000Y-129540000D03*
%TO.P,JD1,11,Pin_11_11*%
%TO.N,unconnected-(JD1-Pin_11-Pad11)*%
X198120000Y-132080000D03*
%TO.P,JD1,12,Pin_12_12*%
%TO.N,unconnected-(JD1-Pin_12-Pad12)*%
X200660000Y-132080000D03*
%TD*%
D10*
%TO.P,JB1,1,Pin_1_1*%
%TO.N,/DOUT_EMU0_142*%
X198120000Y-73660000D03*
D11*
%TO.P,JB1,2,Pin_2_2*%
%TO.N,/DOUT_EMU4_141*%
X200660000Y-73660000D03*
%TO.P,JB1,3,Pin_3_3*%
%TO.N,/DOUT_EMU1_138*%
X198120000Y-76200000D03*
%TO.P,JB1,4,Pin_4_4*%
%TO.N,/DOUT_EMU5_137*%
X200660000Y-76200000D03*
%TO.P,JB1,5,Pin_5_5*%
%TO.N,/DOUT_EMU2_136*%
X198120000Y-78740000D03*
%TO.P,JB1,6,Pin_6_6*%
%TO.N,/DOUT_EMU6_135*%
X200660000Y-78740000D03*
%TO.P,JB1,7,Pin_7_7*%
%TO.N,/DOUT_EMU3_133*%
X198120000Y-81280000D03*
%TO.P,JB1,8,Pin_8_8*%
%TO.N,/DOUT_EMU7_132*%
X200660000Y-81280000D03*
%TO.P,JB1,9,Pin_9_9*%
%TO.N,GND*%
X198120000Y-83820000D03*
%TO.P,JB1,10,Pin_10_10*%
X200660000Y-83820000D03*
%TO.P,JB1,11,Pin_11_11*%
%TO.N,Net-(J1-Pin_2)*%
X198120000Y-86360000D03*
%TO.P,JB1,12,Pin_12_12*%
X200660000Y-86360000D03*
%TD*%
D10*
%TO.P,J9,1,Pin_1_1*%
%TO.N,+5V*%
X137160000Y-63500000D03*
D11*
%TO.P,J9,2,Pin_2_2*%
X139700000Y-63500000D03*
%TO.P,J9,3,Pin_3_3*%
%TO.N,GND*%
X137160000Y-66040000D03*
%TO.P,J9,4,Pin_4_4*%
X139700000Y-66040000D03*
%TO.P,J9,5,Pin_5_5*%
%TO.N,/IO30*%
X137160000Y-68580000D03*
%TO.P,J9,6,Pin_6_6*%
%TO.N,/IO28*%
X139700000Y-68580000D03*
%TO.P,J9,7,Pin_7_7*%
%TO.N,/IO32*%
X137160000Y-71120000D03*
%TO.P,J9,8,Pin_8_8*%
%TO.N,/IO31*%
X139700000Y-71120000D03*
%TO.P,J9,9,Pin_9_9*%
%TO.N,/IO34*%
X137160000Y-73660000D03*
%TO.P,J9,10,Pin_10_10*%
%TO.N,/IO33*%
X139700000Y-73660000D03*
%TO.P,J9,11,Pin_11_11*%
%TO.N,/IO39*%
X137160000Y-76200000D03*
%TO.P,J9,12,Pin_12_12*%
%TO.N,/IO38*%
X139700000Y-76200000D03*
%TO.P,J9,13,Pin_13_13*%
%TO.N,/IO43*%
X137160000Y-78740000D03*
%TO.P,J9,14,Pin_14_14*%
%TO.N,/IO42*%
X139700000Y-78740000D03*
%TO.P,J9,15,Pin_15_15*%
%TO.N,/IO46*%
X137160000Y-81280000D03*
%TO.P,J9,16,Pin_16_16*%
%TO.N,/IO44*%
X139700000Y-81280000D03*
%TO.P,J9,17,Pin_17_17*%
%TO.N,/IO50*%
X137160000Y-83820000D03*
%TO.P,J9,18,Pin_18_18*%
%TO.N,/IO49*%
X139700000Y-83820000D03*
%TO.P,J9,19,Pin_19_19*%
%TO.N,/IO52*%
X137160000Y-86360000D03*
%TO.P,J9,20,Pin_20_20*%
%TO.N,/IO51*%
X139700000Y-86360000D03*
%TO.P,J9,21,Pin_21_21*%
%TO.N,/IO54*%
X137160000Y-88900000D03*
%TO.P,J9,22,Pin_22_22*%
%TO.N,/IO53*%
X139700000Y-88900000D03*
%TO.P,J9,23,Pin_23_23*%
%TO.N,/IO58*%
X137160000Y-91440000D03*
%TO.P,J9,24,Pin_24_24*%
%TO.N,/IO55*%
X139700000Y-91440000D03*
%TO.P,J9,25,Pin_25_25*%
%TO.N,/IO60*%
X137160000Y-93980000D03*
%TO.P,J9,26,Pin_26_26*%
%TO.N,/IO59*%
X139700000Y-93980000D03*
%TO.P,J9,27,Pin_27_27*%
%TO.N,/IO65*%
X137160000Y-96520000D03*
%TO.P,J9,28,Pin_28_28*%
%TO.N,/IO64*%
X139700000Y-96520000D03*
%TO.P,J9,29,Pin_29_29*%
%TO.N,/IO67*%
X137160000Y-99060000D03*
%TO.P,J9,30,Pin_30_30*%
%TO.N,/IO66*%
X139700000Y-99060000D03*
%TO.P,J9,31,Pin_31_31*%
%TO.N,/IO69*%
X137160000Y-101600000D03*
%TO.P,J9,32,Pin_32_32*%
%TO.N,/IO68*%
X139700000Y-101600000D03*
%TO.P,J9,33,Pin_33_33*%
%TO.N,/IO71*%
X137160000Y-104140000D03*
%TO.P,J9,34,Pin_34_34*%
%TO.N,/IO70*%
X139700000Y-104140000D03*
%TO.P,J9,35,Pin_35_35*%
%TO.N,/IO73*%
X137160000Y-106680000D03*
%TO.P,J9,36,Pin_36_36*%
%TO.N,/IO72*%
X139700000Y-106680000D03*
%TO.P,J9,37,Pin_37_37*%
%TO.N,/IO75*%
X137160000Y-109220000D03*
%TO.P,J9,38,Pin_38_38*%
%TO.N,/IO74*%
X139700000Y-109220000D03*
%TO.P,J9,39,Pin_39_39*%
%TO.N,/IO77*%
X137160000Y-111760000D03*
%TO.P,J9,40,Pin_40_40*%
%TO.N,/IO76*%
X139700000Y-111760000D03*
%TO.P,J9,41,Pin_41_41*%
%TO.N,/IO83*%
X137160000Y-114300000D03*
%TO.P,J9,42,Pin_42_42*%
%TO.N,/IO80*%
X139700000Y-114300000D03*
%TO.P,J9,43,Pin_43_43*%
%TO.N,/IO85*%
X137160000Y-116840000D03*
%TO.P,J9,44,Pin_44_44*%
%TO.N,/IO84*%
X139700000Y-116840000D03*
%TO.P,J9,45,Pin_45_45*%
%TO.N,/IO87*%
X137160000Y-119380000D03*
%TO.P,J9,46,Pin_46_46*%
%TO.N,/IO86*%
X139700000Y-119380000D03*
%TO.P,J9,47,Pin_47_47*%
%TO.N,GND*%
X137160000Y-121920000D03*
%TO.P,J9,48,Pin_48_48*%
X139700000Y-121920000D03*
%TD*%
D10*
%TO.P,J6,1,Pin_1_1*%
%TO.N,/IO30*%
X114046000Y-45720000D03*
D11*
%TO.P,J6,2,Pin_2_2*%
X116586000Y-45720000D03*
%TO.P,J6,3,Pin_3_3*%
%TO.N,/IO28*%
X114046000Y-48260000D03*
%TO.P,J6,4,Pin_4_4*%
X116586000Y-48260000D03*
%TO.P,J6,5,Pin_5_5*%
%TO.N,/IO32*%
X114046000Y-50800000D03*
%TO.P,J6,6,Pin_6_6*%
X116586000Y-50800000D03*
%TO.P,J6,7,Pin_7_7*%
%TO.N,/IO31*%
X114046000Y-53340000D03*
%TO.P,J6,8,Pin_8_8*%
X116586000Y-53340000D03*
%TO.P,J6,9,Pin_9_9*%
%TO.N,/IO34*%
X114046000Y-55880000D03*
%TO.P,J6,10,Pin_10_10*%
X116586000Y-55880000D03*
%TO.P,J6,11,Pin_11_11*%
%TO.N,/IO33*%
X114046000Y-58420000D03*
%TO.P,J6,12,Pin_12_12*%
X116586000Y-58420000D03*
%TO.P,J6,13,Pin_13_13*%
%TO.N,/IO39*%
X114046000Y-60960000D03*
%TO.P,J6,14,Pin_14_14*%
X116586000Y-60960000D03*
%TO.P,J6,15,Pin_15_15*%
%TO.N,/IO38*%
X114046000Y-63500000D03*
%TO.P,J6,16,Pin_16_16*%
X116586000Y-63500000D03*
%TO.P,J6,17,Pin_17_17*%
%TO.N,/IO43*%
X114046000Y-66040000D03*
%TO.P,J6,18,Pin_18_18*%
X116586000Y-66040000D03*
%TO.P,J6,19,Pin_19_19*%
%TO.N,/IO42*%
X114046000Y-68580000D03*
%TO.P,J6,20,Pin_20_20*%
X116586000Y-68580000D03*
%TO.P,J6,21,Pin_21_21*%
%TO.N,/IO46*%
X114046000Y-71120000D03*
%TO.P,J6,22,Pin_22_22*%
X116586000Y-71120000D03*
%TO.P,J6,23,Pin_23_23*%
%TO.N,/IO44*%
X114046000Y-73660000D03*
%TO.P,J6,24,Pin_24_24*%
X116586000Y-73660000D03*
%TO.P,J6,25,Pin_25_25*%
%TO.N,/IO50*%
X114046000Y-76200000D03*
%TO.P,J6,26,Pin_26_26*%
X116586000Y-76200000D03*
%TO.P,J6,27,Pin_27_27*%
%TO.N,/IO49*%
X114046000Y-78740000D03*
%TO.P,J6,28,Pin_28_28*%
X116586000Y-78740000D03*
%TO.P,J6,29,Pin_29_29*%
%TO.N,/IO52*%
X114046000Y-81280000D03*
%TO.P,J6,30,Pin_30_30*%
X116586000Y-81280000D03*
%TO.P,J6,31,Pin_31_31*%
%TO.N,/IO51*%
X114046000Y-83820000D03*
%TO.P,J6,32,Pin_32_32*%
X116586000Y-83820000D03*
%TO.P,J6,33,Pin_33_33*%
%TO.N,/IO54*%
X114046000Y-86360000D03*
%TO.P,J6,34,Pin_34_34*%
X116586000Y-86360000D03*
%TO.P,J6,35,Pin_35_35*%
%TO.N,/IO53*%
X114046000Y-88900000D03*
%TO.P,J6,36,Pin_36_36*%
X116586000Y-88900000D03*
%TO.P,J6,37,Pin_37_37*%
%TO.N,/IO58*%
X114046000Y-91440000D03*
%TO.P,J6,38,Pin_38_38*%
X116586000Y-91440000D03*
%TO.P,J6,39,Pin_39_39*%
%TO.N,/IO55*%
X114046000Y-93980000D03*
%TO.P,J6,40,Pin_40_40*%
X116586000Y-93980000D03*
%TO.P,J6,41,Pin_41_41*%
%TO.N,/IO60*%
X114046000Y-96520000D03*
%TO.P,J6,42,Pin_42_42*%
X116586000Y-96520000D03*
%TO.P,J6,43,Pin_43_43*%
%TO.N,/IO59*%
X114046000Y-99060000D03*
%TO.P,J6,44,Pin_44_44*%
X116586000Y-99060000D03*
%TO.P,J6,45,Pin_45_45*%
%TO.N,/IO65*%
X114046000Y-101600000D03*
%TO.P,J6,46,Pin_46_46*%
X116586000Y-101600000D03*
%TO.P,J6,47,Pin_47_47*%
%TO.N,/IO64*%
X114046000Y-104140000D03*
%TO.P,J6,48,Pin_48_48*%
X116586000Y-104140000D03*
%TO.P,J6,49,Pin_49_49*%
%TO.N,/IO67*%
X114046000Y-106680000D03*
%TO.P,J6,50,Pin_50_50*%
X116586000Y-106680000D03*
%TO.P,J6,51,Pin_51_51*%
%TO.N,/IO66*%
X114046000Y-109220000D03*
%TO.P,J6,52,Pin_52_52*%
X116586000Y-109220000D03*
%TO.P,J6,53,Pin_53_53*%
%TO.N,/IO69*%
X114046000Y-111760000D03*
%TO.P,J6,54,Pin_54_54*%
X116586000Y-111760000D03*
%TO.P,J6,55,Pin_55_55*%
%TO.N,/IO68*%
X114046000Y-114300000D03*
%TO.P,J6,56,Pin_56_56*%
X116586000Y-114300000D03*
%TO.P,J6,57,Pin_57_57*%
%TO.N,/IO71*%
X114046000Y-116840000D03*
%TO.P,J6,58,Pin_58_58*%
X116586000Y-116840000D03*
%TO.P,J6,59,Pin_59_59*%
%TO.N,/IO70*%
X114046000Y-119380000D03*
%TO.P,J6,60,Pin_60_60*%
X116586000Y-119380000D03*
%TO.P,J6,61,Pin_61_61*%
%TO.N,/IO73*%
X114046000Y-121920000D03*
%TO.P,J6,62,Pin_62_62*%
X116586000Y-121920000D03*
%TO.P,J6,63,Pin_63_63*%
%TO.N,/IO72*%
X114046000Y-124460000D03*
%TO.P,J6,64,Pin_64_64*%
X116586000Y-124460000D03*
%TO.P,J6,65,Pin_65_65*%
%TO.N,/IO76*%
X114046000Y-127000000D03*
%TO.P,J6,66,Pin_66_66*%
X116586000Y-127000000D03*
%TO.P,J6,67,Pin_67_67*%
%TO.N,/IO77*%
X114046000Y-129540000D03*
%TO.P,J6,68,Pin_68_68*%
X116586000Y-129540000D03*
%TO.P,J6,69,Pin_69_69*%
%TO.N,/IO85*%
X114046000Y-132080000D03*
%TO.P,J6,70,Pin_70_70*%
X116586000Y-132080000D03*
%TO.P,J6,71,Pin_71_71*%
%TO.N,/IO86*%
X114046000Y-134620000D03*
%TO.P,J6,72,Pin_72_72*%
X116586000Y-134620000D03*
%TO.P,J6,73,Pin_73_73*%
%TO.N,/IO98*%
X114046000Y-137160000D03*
%TO.P,J6,74,Pin_74_74*%
X116586000Y-137160000D03*
%TO.P,J6,75,Pin_75_75*%
%TO.N,/IO99*%
X114046000Y-139700000D03*
%TO.P,J6,76,Pin_76_76*%
X116586000Y-139700000D03*
%TO.P,J6,77,Pin_77_77*%
%TO.N,GND*%
X114046000Y-142240000D03*
%TO.P,J6,78,Pin_78_78*%
X116586000Y-142240000D03*
%TO.P,J6,79,Pin_79_79*%
%TO.N,unconnected-(J6-Pin_79-Pad79)*%
X114046000Y-144780000D03*
%TO.P,J6,80,Pin_80_80*%
%TO.N,unconnected-(J6-Pin_80-Pad80)*%
X116586000Y-144780000D03*
%TD*%
D13*
%TO.N,GND*%
X194310000Y-116078000D03*
X199390000Y-135890000D03*
X195834000Y-119634000D03*
X199390000Y-68580000D03*
X199390000Y-113030000D03*
X204300000Y-90900000D03*
%TD*%
%TO.N,+5V*%
D14*
X144400000Y-58800000D02*
X139700000Y-63500000D01*
X192600000Y-88375000D02*
X192600000Y-60800000D01*
X195625000Y-91400000D02*
X192600000Y-88375000D01*
X192600000Y-60800000D02*
X190600000Y-58800000D01*
X190600000Y-58800000D02*
X144400000Y-58800000D01*
%TO.N,3V3*%
X187960000Y-63500000D02*
X185420000Y-63500000D01*
%TO.N,Net-(J1-Pin_2)*%
X198120000Y-86360000D02*
X200660000Y-86360000D01*
D15*
X198120000Y-91355000D02*
X198165000Y-91400000D01*
D14*
X198120000Y-86360000D02*
X198120000Y-91355000D01*
%TO.N,/CLK_DUT_24*%
X194379000Y-120719000D02*
X186759000Y-120719000D01*
X186759000Y-120719000D02*
X185420000Y-119380000D01*
X198120000Y-124460000D02*
X194379000Y-120719000D01*
%TO.N,/CLK_EMU_23*%
X189299000Y-118179000D02*
X187960000Y-116840000D01*
X199459000Y-118179000D02*
X189299000Y-118179000D01*
X200660000Y-119380000D02*
X199459000Y-118179000D01*
%TD*%
%TA.AperFunction,Conductor*%
%TO.N,GND*%
G36*
X116120075Y-142047007D02*
G01*
X116086000Y-142174174D01*
X116086000Y-142305826D01*
X116120075Y-142432993D01*
X116152988Y-142490000D01*
X114479012Y-142490000D01*
X114511925Y-142432993D01*
X114546000Y-142305826D01*
X114546000Y-142174174D01*
X114511925Y-142047007D01*
X114479012Y-141990000D01*
X116152988Y-141990000D01*
X116120075Y-142047007D01*
G37*
%TD.AperFunction*%
%TA.AperFunction,Conductor*%
G36*
X200194075Y-129347007D02*
G01*
X200160000Y-129474174D01*
X200160000Y-129605826D01*
X200194075Y-129732993D01*
X200226988Y-129790000D01*
X198553012Y-129790000D01*
X198585925Y-129732993D01*
X198620000Y-129605826D01*
X198620000Y-129474174D01*
X198585925Y-129347007D01*
X198553012Y-129290000D01*
X200226988Y-129290000D01*
X200194075Y-129347007D01*
G37*
%TD.AperFunction*%
%TA.AperFunction,Conductor*%
G36*
X187494075Y-121727007D02*
G01*
X187460000Y-121854174D01*
X187460000Y-121985826D01*
X187494075Y-122112993D01*
X187526988Y-122170000D01*
X185853012Y-122170000D01*
X185885925Y-122112993D01*
X185920000Y-121985826D01*
X185920000Y-121854174D01*
X185885925Y-121727007D01*
X185853012Y-121670000D01*
X187526988Y-121670000D01*
X187494075Y-121727007D01*
G37*
%TD.AperFunction*%
%TA.AperFunction,Conductor*%
G36*
X196712539Y-118849185D02*
G01*
X196758294Y-118901989D01*
X196769500Y-118953500D01*
X196769500Y-120277870D01*
X196769501Y-120277876D01*
X196775908Y-120337483D01*
X196826202Y-120472328D01*
X196826206Y-120472335D01*
X196912452Y-120587544D01*
X196912455Y-120587547D01*
X197027664Y-120673793D01*
X197027671Y-120673797D01*
X197159082Y-120722810D01*
X197215016Y-120764681D01*
X197239433Y-120830145D01*
X197224582Y-120898418D01*
X197203431Y-120926673D01*
X197089889Y-121040215D01*
X196964951Y-121212179D01*
X196868444Y-121401585D01*
X196802753Y-121603760D01*
X196769500Y-121813713D01*
X196769500Y-121890191D01*
X196749815Y-121957230D01*
X196697011Y-122002985D01*
X196627853Y-122012929D01*
X196564297Y-121983904D01*
X196557819Y-121977872D01*
X194793673Y-120213726D01*
X194793669Y-120213723D01*
X194687127Y-120142535D01*
X194568744Y-120093499D01*
X194568738Y-120093497D01*
X194443071Y-120068500D01*
X194443069Y-120068500D01*
X189326683Y-120068500D01*
X189259644Y-120048815D01*
X189213889Y-119996011D01*
X189203945Y-119926853D01*
X189210441Y-119903172D01*
X189210051Y-119903046D01*
X189230000Y-119841650D01*
X189277246Y-119696243D01*
X189310500Y-119486287D01*
X189310500Y-119273713D01*
X189277246Y-119063757D01*
X189253870Y-118991816D01*
X189251876Y-118921977D01*
X189287956Y-118862144D01*
X189350657Y-118831316D01*
X189371802Y-118829500D01*
X196645500Y-118829500D01*
X196712539Y-118849185D01*
G37*
%TD.AperFunction*%
%TA.AperFunction,Conductor*%
G36*
X187494075Y-65847007D02*
G01*
X187460000Y-65974174D01*
X187460000Y-66105826D01*
X187494075Y-66232993D01*
X187526988Y-66290000D01*
X185853012Y-66290000D01*
X185885925Y-66232993D01*
X185920000Y-66105826D01*
X185920000Y-65974174D01*
X185885925Y-65847007D01*
X185853012Y-65790000D01*
X187526988Y-65790000D01*
X187494075Y-65847007D01*
G37*
%TD.AperFunction*%
%TA.AperFunction,Conductor*%
G36*
X139234075Y-121727007D02*
G01*
X139200000Y-121854174D01*
X139200000Y-121985826D01*
X139234075Y-122112993D01*
X139266988Y-122170000D01*
X137593012Y-122170000D01*
X137625925Y-122112993D01*
X137660000Y-121985826D01*
X137660000Y-121854174D01*
X137625925Y-121727007D01*
X137593012Y-121670000D01*
X139266988Y-121670000D01*
X139234075Y-121727007D01*
G37*
%TD.AperFunction*%
%TA.AperFunction,Conductor*%
G36*
X200194075Y-83627007D02*
G01*
X200160000Y-83754174D01*
X200160000Y-83885826D01*
X200194075Y-84012993D01*
X200226988Y-84070000D01*
X198553012Y-84070000D01*
X198585925Y-84012993D01*
X198620000Y-83885826D01*
X198620000Y-83754174D01*
X198585925Y-83627007D01*
X198553012Y-83570000D01*
X200226988Y-83570000D01*
X200194075Y-83627007D01*
G37*
%TD.AperFunction*%
%TA.AperFunction,Conductor*%
G36*
X139234075Y-65847007D02*
G01*
X139200000Y-65974174D01*
X139200000Y-66105826D01*
X139234075Y-66232993D01*
X139266988Y-66290000D01*
X137593012Y-66290000D01*
X137625925Y-66232993D01*
X137660000Y-66105826D01*
X137660000Y-65974174D01*
X137625925Y-65847007D01*
X137593012Y-65790000D01*
X139266988Y-65790000D01*
X139234075Y-65847007D01*
G37*
%TD.AperFunction*%
%TA.AperFunction,Conductor*%
G36*
X200194075Y-106487007D02*
G01*
X200160000Y-106614174D01*
X200160000Y-106745826D01*
X200194075Y-106872993D01*
X200226988Y-106930000D01*
X198553012Y-106930000D01*
X198585925Y-106872993D01*
X198620000Y-106745826D01*
X198620000Y-106614174D01*
X198585925Y-106487007D01*
X198553012Y-106430000D01*
X200226988Y-106430000D01*
X200194075Y-106487007D01*
G37*
%TD.AperFunction*%
%TA.AperFunction,Conductor*%
G36*
X200194075Y-60767007D02*
G01*
X200160000Y-60894174D01*
X200160000Y-61025826D01*
X200194075Y-61152993D01*
X200226988Y-61210000D01*
X198553012Y-61210000D01*
X198585925Y-61152993D01*
X198620000Y-61025826D01*
X198620000Y-60894174D01*
X198585925Y-60767007D01*
X198553012Y-60710000D01*
X200226988Y-60710000D01*
X200194075Y-60767007D01*
G37*
%TD.AperFunction*%
%TA.AperFunction,Conductor*%
G36*
X205182539Y-41160185D02*
G01*
X205228294Y-41212989D01*
X205239500Y-41264500D01*
X205239500Y-149235500D01*
X205219815Y-149302539D01*
X205167011Y-149348294D01*
X205115500Y-149359500D01*
X112384500Y-149359500D01*
X112317461Y-149339815D01*
X112271706Y-149287011D01*
X112260500Y-149235500D01*
X112260500Y-44822135D01*
X112695500Y-44822135D01*
X112695500Y-46617870D01*
X112695501Y-46617876D01*
X112701908Y-46677483D01*
X112752202Y-46812328D01*
X112752206Y-46812335D01*
X112838452Y-46927544D01*
X112838455Y-46927547D01*
X112953664Y-47013793D01*
X112953671Y-47013797D01*
X113085082Y-47062810D01*
X113141016Y-47104681D01*
X113165433Y-47170145D01*
X113150582Y-47238418D01*
X113129431Y-47266673D01*
X113015889Y-47380215D01*
X112890951Y-47552179D01*
X112794444Y-47741585D01*
X112728753Y-47943760D01*
X112695500Y-48153713D01*
X112695500Y-48366286D01*
X112728753Y-48576239D01*
X112794444Y-48778414D01*
X112890951Y-48967820D01*
X113015890Y-49139786D01*
X113166213Y-49290109D01*
X113338182Y-49415050D01*
X113346946Y-49419516D01*
X113397742Y-49467491D01*
X113414536Y-49535312D01*
X113391998Y-49601447D01*
X113346946Y-49640484D01*
X113338182Y-49644949D01*
X113166213Y-49769890D01*
X113015890Y-49920213D01*
X112890951Y-50092179D01*
X112794444Y-50281585D01*
X112728753Y-50483760D01*
X112695500Y-50693713D01*
X112695500Y-50906286D01*
X112728753Y-51116239D01*
X112794444Y-51318414D01*
X112890951Y-51507820D01*
X113015890Y-51679786D01*
X113166213Y-51830109D01*
X113338182Y-51955050D01*
X113346946Y-51959516D01*
X113397742Y-52007491D01*
X113414536Y-52075312D01*
X113391998Y-52141447D01*
X113346946Y-52180484D01*
X113338182Y-52184949D01*
X113166213Y-52309890D01*
X113015890Y-52460213D01*
X112890951Y-52632179D01*
X112794444Y-52821585D01*
X112728753Y-53023760D01*
X112695500Y-53233713D01*
X112695500Y-53446286D01*
X112728753Y-53656239D01*
X112794444Y-53858414D01*
X112890951Y-54047820D01*
X113015890Y-54219786D01*
X113166213Y-54370109D01*
X113338182Y-54495050D01*
X113346946Y-54499516D01*
X113397742Y-54547491D01*
X113414536Y-54615312D01*
X113391998Y-54681447D01*
X113346946Y-54720484D01*
X113338182Y-54724949D01*
X113166213Y-54849890D01*
X113015890Y-55000213D01*
X112890951Y-55172179D01*
X112794444Y-55361585D01*
X112728753Y-55563760D01*
X112695500Y-55773713D01*
X112695500Y-55986286D01*
X112728753Y-56196239D01*
X112794444Y-56398414D01*
X112890951Y-56587820D01*
X113015890Y-56759786D01*
X113166213Y-56910109D01*
X113338182Y-57035050D01*
X113346946Y-57039516D01*
X113397742Y-57087491D01*
X113414536Y-57155312D01*
X113391998Y-57221447D01*
X113346946Y-57260484D01*
X113338182Y-57264949D01*
X113166213Y-57389890D01*
X113015890Y-57540213D01*
X112890951Y-57712179D01*
X112794444Y-57901585D01*
X112728753Y-58103760D01*
X112695500Y-58313713D01*
X112695500Y-58526286D01*
X112728753Y-58736239D01*
X112794444Y-58938414D01*
X112890951Y-59127820D01*
X113015890Y-59299786D01*
X113166213Y-59450109D01*
X113338182Y-59575050D01*
X113346946Y-59579516D01*
X113397742Y-59627491D01*
X113414536Y-59695312D01*
X113391998Y-59761447D01*
X113346946Y-59800484D01*
X113338182Y-59804949D01*
X113166213Y-59929890D01*
X113015890Y-60080213D01*
X112890951Y-60252179D01*
X112794444Y-60441585D01*
X112728753Y-60643760D01*
X112727291Y-60652993D01*
X112695500Y-60853713D01*
X112695500Y-61066287D01*
X112704135Y-61120807D01*
X112728753Y-61276239D01*
X112794444Y-61478414D01*
X112890951Y-61667820D01*
X113015890Y-61839786D01*
X113166213Y-61990109D01*
X113338182Y-62115050D01*
X113346946Y-62119516D01*
X113397742Y-62167491D01*
X113414536Y-62235312D01*
X113391998Y-62301447D01*
X113346946Y-62340484D01*
X113338182Y-62344949D01*
X113166213Y-62469890D01*
X113015890Y-62620213D01*
X112890951Y-62792179D01*
X112794444Y-62981585D01*
X112728753Y-63183760D01*
X112695500Y-63393713D01*
X112695500Y-63606286D01*
X112728753Y-63816239D01*
X112794444Y-64018414D01*
X112890951Y-64207820D01*
X113015890Y-64379786D01*
X113166213Y-64530109D01*
X113338182Y-64655050D01*
X113346946Y-64659516D01*
X113397742Y-64707491D01*
X113414536Y-64775312D01*
X113391998Y-64841447D01*
X113346946Y-64880484D01*
X113338182Y-64884949D01*
X113166213Y-65009890D01*
X113015890Y-65160213D01*
X112890951Y-65332179D01*
X112794444Y-65521585D01*
X112728753Y-65723760D01*
X112695500Y-65933713D01*
X112695500Y-66146286D01*
X112728753Y-66356239D01*
X112794444Y-66558414D01*
X112890951Y-66747820D01*
X113015890Y-66919786D01*
X113166213Y-67070109D01*
X113338182Y-67195050D01*
X113346946Y-67199516D01*
X113397742Y-67247491D01*
X113414536Y-67315312D01*
X113391998Y-67381447D01*
X113346946Y-67420484D01*
X113338182Y-67424949D01*
X113166213Y-67549890D01*
X113015890Y-67700213D01*
X112890951Y-67872179D01*
X112794444Y-68061585D01*
X112728753Y-68263760D01*
X112695500Y-68473713D01*
X112695500Y-68686286D01*
X112728753Y-68896239D01*
X112794444Y-69098414D01*
X112890951Y-69287820D01*
X113015890Y-69459786D01*
X113166213Y-69610109D01*
X113338182Y-69735050D01*
X113346946Y-69739516D01*
X113397742Y-69787491D01*
X113414536Y-69855312D01*
X113391998Y-69921447D01*
X113346946Y-69960484D01*
X113338182Y-69964949D01*
X113166213Y-70089890D01*
X113015890Y-70240213D01*
X112890951Y-70412179D01*
X112794444Y-70601585D01*
X112728753Y-70803760D01*
X112695500Y-71013713D01*
X112695500Y-71226286D01*
X112728753Y-71436239D01*
X112794444Y-71638414D01*
X112890951Y-71827820D01*
X113015890Y-71999786D01*
X113166213Y-72150109D01*
X113338182Y-72275050D01*
X113346946Y-72279516D01*
X113397742Y-72327491D01*
X113414536Y-72395312D01*
X113391998Y-72461447D01*
X113346946Y-72500484D01*
X113338182Y-72504949D01*
X113166213Y-72629890D01*
X113015890Y-72780213D01*
X112890951Y-72952179D01*
X112794444Y-73141585D01*
X112728753Y-73343760D01*
X112695500Y-73553713D01*
X112695500Y-73766286D01*
X112728753Y-73976239D01*
X112794444Y-74178414D01*
X112890951Y-74367820D01*
X113015890Y-74539786D01*
X113166213Y-74690109D01*
X113338182Y-74815050D01*
X113346946Y-74819516D01*
X113397742Y-74867491D01*
X113414536Y-74935312D01*
X113391998Y-75001447D01*
X113346946Y-75040484D01*
X113338182Y-75044949D01*
X113166213Y-75169890D01*
X113015890Y-75320213D01*
X112890951Y-75492179D01*
X112794444Y-75681585D01*
X112728753Y-75883760D01*
X112695500Y-76093713D01*
X112695500Y-76306286D01*
X112728753Y-76516239D01*
X112794444Y-76718414D01*
X112890951Y-76907820D01*
X113015890Y-77079786D01*
X113166213Y-77230109D01*
X113338182Y-77355050D01*
X113346946Y-77359516D01*
X113397742Y-77407491D01*
X113414536Y-77475312D01*
X113391998Y-77541447D01*
X113346946Y-77580484D01*
X113338182Y-77584949D01*
X113166213Y-77709890D01*
X113015890Y-77860213D01*
X112890951Y-78032179D01*
X112794444Y-78221585D01*
X112728753Y-78423760D01*
X112695500Y-78633713D01*
X112695500Y-78846286D01*
X112728753Y-79056239D01*
X112794444Y-79258414D01*
X112890951Y-79447820D01*
X113015890Y-79619786D01*
X113166213Y-79770109D01*
X113338182Y-79895050D01*
X113346946Y-79899516D01*
X113397742Y-79947491D01*
X113414536Y-80015312D01*
X113391998Y-80081447D01*
X113346946Y-80120484D01*
X113338182Y-80124949D01*
X113166213Y-80249890D01*
X113015890Y-80400213D01*
X112890951Y-80572179D01*
X112794444Y-80761585D01*
X112728753Y-80963760D01*
X112695500Y-81173713D01*
X112695500Y-81386286D01*
X112728753Y-81596239D01*
X112794444Y-81798414D01*
X112890951Y-81987820D01*
X113015890Y-82159786D01*
X113166213Y-82310109D01*
X113338182Y-82435050D01*
X113346946Y-82439516D01*
X113397742Y-82487491D01*
X113414536Y-82555312D01*
X113391998Y-82621447D01*
X113346946Y-82660484D01*
X113338182Y-82664949D01*
X113166213Y-82789890D01*
X113015890Y-82940213D01*
X112890951Y-83112179D01*
X112794444Y-83301585D01*
X112728753Y-83503760D01*
X112695500Y-83713713D01*
X112695500Y-83926286D01*
X112728753Y-84136239D01*
X112794444Y-84338414D01*
X112890951Y-84527820D01*
X113015890Y-84699786D01*
X113166213Y-84850109D01*
X113338182Y-84975050D01*
X113346946Y-84979516D01*
X113397742Y-85027491D01*
X113414536Y-85095312D01*
X113391998Y-85161447D01*
X113346946Y-85200484D01*
X113338182Y-85204949D01*
X113166213Y-85329890D01*
X113015890Y-85480213D01*
X112890951Y-85652179D01*
X112794444Y-85841585D01*
X112728753Y-86043760D01*
X112695500Y-86253713D01*
X112695500Y-86466286D01*
X112728753Y-86676239D01*
X112794444Y-86878414D01*
X112890951Y-87067820D01*
X113015890Y-87239786D01*
X113166213Y-87390109D01*
X113338182Y-87515050D01*
X113346946Y-87519516D01*
X113397742Y-87567491D01*
X113414536Y-87635312D01*
X113391998Y-87701447D01*
X113346946Y-87740484D01*
X113338182Y-87744949D01*
X113166213Y-87869890D01*
X113015890Y-88020213D01*
X112890951Y-88192179D01*
X112794444Y-88381585D01*
X112728753Y-88583760D01*
X112695500Y-88793713D01*
X112695500Y-89006286D01*
X112728753Y-89216239D01*
X112794444Y-89418414D01*
X112890951Y-89607820D01*
X113015890Y-89779786D01*
X113166213Y-89930109D01*
X113338182Y-90055050D01*
X113346946Y-90059516D01*
X113397742Y-90107491D01*
X113414536Y-90175312D01*
X113391998Y-90241447D01*
X113346946Y-90280484D01*
X113338182Y-90284949D01*
X113166213Y-90409890D01*
X113015890Y-90560213D01*
X112890951Y-90732179D01*
X112794444Y-90921585D01*
X112728753Y-91123760D01*
X112695500Y-91333713D01*
X112695500Y-91546286D01*
X112728753Y-91756239D01*
X112794444Y-91958414D01*
X112890951Y-92147820D01*
X113015890Y-92319786D01*
X113166213Y-92470109D01*
X113338182Y-92595050D01*
X113346946Y-92599516D01*
X113397742Y-92647491D01*
X113414536Y-92715312D01*
X113391998Y-92781447D01*
X113346946Y-92820484D01*
X113338182Y-92824949D01*
X113166213Y-92949890D01*
X113015890Y-93100213D01*
X112890951Y-93272179D01*
X112794444Y-93461585D01*
X112728753Y-93663760D01*
X112695500Y-93873713D01*
X112695500Y-94086286D01*
X112728753Y-94296239D01*
X112794444Y-94498414D01*
X112890951Y-94687820D01*
X113015890Y-94859786D01*
X113166213Y-95010109D01*
X113338182Y-95135050D01*
X113346946Y-95139516D01*
X113397742Y-95187491D01*
X113414536Y-95255312D01*
X113391998Y-95321447D01*
X113346946Y-95360484D01*
X113338182Y-95364949D01*
X113166213Y-95489890D01*
X113015890Y-95640213D01*
X112890951Y-95812179D01*
X112794444Y-96001585D01*
X112728753Y-96203760D01*
X112695500Y-96413713D01*
X112695500Y-96626286D01*
X112728753Y-96836239D01*
X112794444Y-97038414D01*
X112890951Y-97227820D01*
X113015890Y-97399786D01*
X113166213Y-97550109D01*
X113338182Y-97675050D01*
X113346946Y-97679516D01*
X113397742Y-97727491D01*
X113414536Y-97795312D01*
X113391998Y-97861447D01*
X113346946Y-97900484D01*
X113338182Y-97904949D01*
X113166213Y-98029890D01*
X113015890Y-98180213D01*
X112890951Y-98352179D01*
X112794444Y-98541585D01*
X112728753Y-98743760D01*
X112695500Y-98953713D01*
X112695500Y-99166286D01*
X112728753Y-99376239D01*
X112794444Y-99578414D01*
X112890951Y-99767820D01*
X113015890Y-99939786D01*
X113166213Y-100090109D01*
X113338182Y-100215050D01*
X113346946Y-100219516D01*
X113397742Y-100267491D01*
X113414536Y-100335312D01*
X113391998Y-100401447D01*
X113346946Y-100440484D01*
X113338182Y-100444949D01*
X113166213Y-100569890D01*
X113015890Y-100720213D01*
X112890951Y-100892179D01*
X112794444Y-101081585D01*
X112728753Y-101283760D01*
X112695500Y-101493713D01*
X112695500Y-101706286D01*
X112728753Y-101916239D01*
X112794444Y-102118414D01*
X112890951Y-102307820D01*
X113015890Y-102479786D01*
X113166213Y-102630109D01*
X113338182Y-102755050D01*
X113346946Y-102759516D01*
X113397742Y-102807491D01*
X113414536Y-102875312D01*
X113391998Y-102941447D01*
X113346946Y-102980484D01*
X113338182Y-102984949D01*
X113166213Y-103109890D01*
X113015890Y-103260213D01*
X112890951Y-103432179D01*
X112794444Y-103621585D01*
X112728753Y-103823760D01*
X112695500Y-104033713D01*
X112695500Y-104246286D01*
X112728753Y-104456239D01*
X112794444Y-104658414D01*
X112890951Y-104847820D01*
X113015890Y-105019786D01*
X113166213Y-105170109D01*
X113338182Y-105295050D01*
X113346946Y-105299516D01*
X113397742Y-105347491D01*
X113414536Y-105415312D01*
X113391998Y-105481447D01*
X113346946Y-105520484D01*
X113338182Y-105524949D01*
X113166213Y-105649890D01*
X113015890Y-105800213D01*
X112890951Y-105972179D01*
X112794444Y-106161585D01*
X112728753Y-106363760D01*
X112695500Y-106573713D01*
X112695500Y-106786286D01*
X112728753Y-106996239D01*
X112794444Y-107198414D01*
X112890951Y-107387820D01*
X113015890Y-107559786D01*
X113166213Y-107710109D01*
X113338182Y-107835050D01*
X113346946Y-107839516D01*
X113397742Y-107887491D01*
X113414536Y-107955312D01*
X113391998Y-108021447D01*
X113346946Y-108060484D01*
X113338182Y-108064949D01*
X113166213Y-108189890D01*
X113015890Y-108340213D01*
X112890951Y-108512179D01*
X112794444Y-108701585D01*
X112728753Y-108903760D01*
X112695500Y-109113713D01*
X112695500Y-109326286D01*
X112728753Y-109536239D01*
X112794444Y-109738414D01*
X112890951Y-109927820D01*
X113015890Y-110099786D01*
X113166213Y-110250109D01*
X113338182Y-110375050D01*
X113346946Y-110379516D01*
X113397742Y-110427491D01*
X113414536Y-110495312D01*
X113391998Y-110561447D01*
X113346946Y-110600484D01*
X113338182Y-110604949D01*
X113166213Y-110729890D01*
X113015890Y-110880213D01*
X112890951Y-111052179D01*
X112794444Y-111241585D01*
X112728753Y-111443760D01*
X112695500Y-111653713D01*
X112695500Y-111866286D01*
X112728753Y-112076239D01*
X112794444Y-112278414D01*
X112890951Y-112467820D01*
X113015890Y-112639786D01*
X113166213Y-112790109D01*
X113338182Y-112915050D01*
X113346946Y-112919516D01*
X113397742Y-112967491D01*
X113414536Y-113035312D01*
X113391998Y-113101447D01*
X113346946Y-113140484D01*
X113338182Y-113144949D01*
X113166213Y-113269890D01*
X113015890Y-113420213D01*
X112890951Y-113592179D01*
X112794444Y-113781585D01*
X112728753Y-113983760D01*
X112695500Y-114193713D01*
X112695500Y-114406286D01*
X112728753Y-114616239D01*
X112794444Y-114818414D01*
X112890951Y-115007820D01*
X113015890Y-115179786D01*
X113166213Y-115330109D01*
X113338182Y-115455050D01*
X113346946Y-115459516D01*
X113397742Y-115507491D01*
X113414536Y-115575312D01*
X113391998Y-115641447D01*
X113346946Y-115680484D01*
X113338182Y-115684949D01*
X113166213Y-115809890D01*
X113015890Y-115960213D01*
X112890951Y-116132179D01*
X112794444Y-116321585D01*
X112728753Y-116523760D01*
X112695500Y-116733713D01*
X112695500Y-116946287D01*
X112728754Y-117156243D01*
X112730379Y-117161245D01*
X112794444Y-117358414D01*
X112890951Y-117547820D01*
X113015890Y-117719786D01*
X113166213Y-117870109D01*
X113338182Y-117995050D01*
X113346946Y-117999516D01*
X113397742Y-118047491D01*
X113414536Y-118115312D01*
X113391998Y-118181447D01*
X113346946Y-118220484D01*
X113338182Y-118224949D01*
X113166213Y-118349890D01*
X113015890Y-118500213D01*
X112890951Y-118672179D01*
X112794444Y-118861585D01*
X112728753Y-119063760D01*
X112695500Y-119273713D01*
X112695500Y-119486286D01*
X112728753Y-119696239D01*
X112794444Y-119898414D01*
X112890951Y-120087820D01*
X113015890Y-120259786D01*
X113166213Y-120410109D01*
X113338182Y-120535050D01*
X113346946Y-120539516D01*
X113397742Y-120587491D01*
X113414536Y-120655312D01*
X113391998Y-120721447D01*
X113346946Y-120760484D01*
X113338182Y-120764949D01*
X113166213Y-120889890D01*
X113015890Y-121040213D01*
X112890951Y-121212179D01*
X112794444Y-121401585D01*
X112728753Y-121603760D01*
X112695500Y-121813713D01*
X112695500Y-122026286D01*
X112728753Y-122236239D01*
X112794444Y-122438414D01*
X112890951Y-122627820D01*
X113015890Y-122799786D01*
X113166213Y-122950109D01*
X113338182Y-123075050D01*
X113346946Y-123079516D01*
X113397742Y-123127491D01*
X113414536Y-123195312D01*
X113391998Y-123261447D01*
X113346946Y-123300484D01*
X113338182Y-123304949D01*
X113166213Y-123429890D01*
X113015890Y-123580213D01*
X112890951Y-123752179D01*
X112794444Y-123941585D01*
X112728753Y-124143760D01*
X112695500Y-124353713D01*
X112695500Y-124566286D01*
X112728753Y-124776239D01*
X112794444Y-124978414D01*
X112890951Y-125167820D01*
X113015890Y-125339786D01*
X113166213Y-125490109D01*
X113338182Y-125615050D01*
X113346946Y-125619516D01*
X113397742Y-125667491D01*
X113414536Y-125735312D01*
X113391998Y-125801447D01*
X113346946Y-125840484D01*
X113338182Y-125844949D01*
X113166213Y-125969890D01*
X113015890Y-126120213D01*
X112890951Y-126292179D01*
X112794444Y-126481585D01*
X112728753Y-126683760D01*
X112695500Y-126893713D01*
X112695500Y-127106286D01*
X112728753Y-127316239D01*
X112794444Y-127518414D01*
X112890951Y-127707820D01*
X113015890Y-127879786D01*
X113166213Y-128030109D01*
X113338182Y-128155050D01*
X113346946Y-128159516D01*
X113397742Y-128207491D01*
X113414536Y-128275312D01*
X113391998Y-128341447D01*
X113346946Y-128380484D01*
X113338182Y-128384949D01*
X113166213Y-128509890D01*
X113015890Y-128660213D01*
X112890951Y-128832179D01*
X112794444Y-129021585D01*
X112728753Y-129223760D01*
X112695500Y-129433713D01*
X112695500Y-129646286D01*
X112728753Y-129856239D01*
X112794444Y-130058414D01*
X112890951Y-130247820D01*
X113015890Y-130419786D01*
X113166213Y-130570109D01*
X113338182Y-130695050D01*
X113346946Y-130699516D01*
X113397742Y-130747491D01*
X113414536Y-130815312D01*
X113391998Y-130881447D01*
X113346946Y-130920484D01*
X113338182Y-130924949D01*
X113166213Y-131049890D01*
X113015890Y-131200213D01*
X112890951Y-131372179D01*
X112794444Y-131561585D01*
X112728753Y-131763760D01*
X112695500Y-131973713D01*
X112695500Y-132186286D01*
X112728753Y-132396239D01*
X112794444Y-132598414D01*
X112890951Y-132787820D01*
X113015890Y-132959786D01*
X113166213Y-133110109D01*
X113338182Y-133235050D01*
X113346946Y-133239516D01*
X113397742Y-133287491D01*
X113414536Y-133355312D01*
X113391998Y-133421447D01*
X113346946Y-133460484D01*
X113338182Y-133464949D01*
X113166213Y-133589890D01*
X113015890Y-133740213D01*
X112890951Y-133912179D01*
X112794444Y-134101585D01*
X112728753Y-134303760D01*
X112695500Y-134513713D01*
X112695500Y-134726286D01*
X112728753Y-134936239D01*
X112794444Y-135138414D01*
X112890951Y-135327820D01*
X113015890Y-135499786D01*
X113166213Y-135650109D01*
X113338182Y-135775050D01*
X113346946Y-135779516D01*
X113397742Y-135827491D01*
X113414536Y-135895312D01*
X113391998Y-135961447D01*
X113346946Y-136000484D01*
X113338182Y-136004949D01*
X113166213Y-136129890D01*
X113015890Y-136280213D01*
X112890951Y-136452179D01*
X112794444Y-136641585D01*
X112728753Y-136843760D01*
X112695500Y-137053713D01*
X112695500Y-137266286D01*
X112728753Y-137476239D01*
X112794444Y-137678414D01*
X112890951Y-137867820D01*
X113015890Y-138039786D01*
X113166213Y-138190109D01*
X113338182Y-138315050D01*
X113346946Y-138319516D01*
X113397742Y-138367491D01*
X113414536Y-138435312D01*
X113391998Y-138501447D01*
X113346946Y-138540484D01*
X113338182Y-138544949D01*
X113166213Y-138669890D01*
X113015890Y-138820213D01*
X112890951Y-138992179D01*
X112794444Y-139181585D01*
X112728753Y-139383760D01*
X112695500Y-139593713D01*
X112695500Y-139806286D01*
X112728753Y-140016239D01*
X112794444Y-140218414D01*
X112890951Y-140407820D01*
X113015890Y-140579786D01*
X113166213Y-140730109D01*
X113338179Y-140855048D01*
X113338181Y-140855049D01*
X113338184Y-140855051D01*
X113347493Y-140859794D01*
X113398290Y-140907766D01*
X113415087Y-140975587D01*
X113392552Y-141041722D01*
X113347502Y-141080762D01*
X113338443Y-141085378D01*
X113166540Y-141210272D01*
X113166535Y-141210276D01*
X113016276Y-141360535D01*
X113016272Y-141360540D01*
X112891379Y-141532442D01*
X112794904Y-141721782D01*
X112729242Y-141923870D01*
X112729242Y-141923873D01*
X112718769Y-141990000D01*
X113612988Y-141990000D01*
X113580075Y-142047007D01*
X113546000Y-142174174D01*
X113546000Y-142305826D01*
X113580075Y-142432993D01*
X113612988Y-142490000D01*
X112718769Y-142490000D01*
X112729242Y-142556126D01*
X112729242Y-142556129D01*
X112794904Y-142758217D01*
X112891379Y-142947557D01*
X113016272Y-143119459D01*
X113016276Y-143119464D01*
X113166535Y-143269723D01*
X113166540Y-143269727D01*
X113338444Y-143394622D01*
X113347495Y-143399234D01*
X113398292Y-143447208D01*
X113415087Y-143515029D01*
X113392550Y-143581164D01*
X113347499Y-143620202D01*
X113338182Y-143624949D01*
X113166213Y-143749890D01*
X113015890Y-143900213D01*
X112890951Y-144072179D01*
X112794444Y-144261585D01*
X112728753Y-144463760D01*
X112702247Y-144631113D01*
X112695500Y-144673713D01*
X112695500Y-144886287D01*
X112728754Y-145096243D01*
X112744410Y-145144428D01*
X112794444Y-145298414D01*
X112890951Y-145487820D01*
X113015890Y-145659786D01*
X113166213Y-145810109D01*
X113338179Y-145935048D01*
X113338181Y-145935049D01*
X113338184Y-145935051D01*
X113527588Y-146031557D01*
X113729757Y-146097246D01*
X113939713Y-146130500D01*
X113939714Y-146130500D01*
X114152286Y-146130500D01*
X114152287Y-146130500D01*
X114362243Y-146097246D01*
X114564412Y-146031557D01*
X114753816Y-145935051D01*
X114775789Y-145919086D01*
X114925786Y-145810109D01*
X114925788Y-145810106D01*
X114925792Y-145810104D01*
X115076104Y-145659792D01*
X115076106Y-145659788D01*
X115076109Y-145659786D01*
X115201048Y-145487820D01*
X115201047Y-145487820D01*
X115201051Y-145487816D01*
X115205514Y-145479054D01*
X115253488Y-145428259D01*
X115321308Y-145411463D01*
X115387444Y-145433999D01*
X115426486Y-145479056D01*
X115430951Y-145487820D01*
X115555890Y-145659786D01*
X115706213Y-145810109D01*
X115878179Y-145935048D01*
X115878181Y-145935049D01*
X115878184Y-145935051D01*
X116067588Y-146031557D01*
X116269757Y-146097246D01*
X116479713Y-146130500D01*
X116479714Y-146130500D01*
X116692286Y-146130500D01*
X116692287Y-146130500D01*
X116902243Y-146097246D01*
X117104412Y-146031557D01*
X117293816Y-145935051D01*
X117315789Y-145919086D01*
X117465786Y-145810109D01*
X117465788Y-145810106D01*
X117465792Y-145810104D01*
X117616104Y-145659792D01*
X117616106Y-145659788D01*
X117616109Y-145659786D01*
X117741048Y-145487820D01*
X117741047Y-145487820D01*
X117741051Y-145487816D01*
X117837557Y-145298412D01*
X117903246Y-145096243D01*
X117936500Y-144886287D01*
X117936500Y-144673713D01*
X117903246Y-144463757D01*
X117872416Y-144368872D01*
X128999500Y-144368872D01*
X128999500Y-144631127D01*
X129026123Y-144833339D01*
X129033730Y-144891116D01*
X129101602Y-145144418D01*
X129101605Y-145144428D01*
X129201953Y-145386690D01*
X129201958Y-145386700D01*
X129333075Y-145613803D01*
X129492718Y-145821851D01*
X129492726Y-145821860D01*
X129678140Y-146007274D01*
X129678148Y-146007281D01*
X129886196Y-146166924D01*
X130113299Y-146298041D01*
X130113309Y-146298046D01*
X130355571Y-146398394D01*
X130355581Y-146398398D01*
X130608884Y-146466270D01*
X130868880Y-146500500D01*
X130868887Y-146500500D01*
X131131113Y-146500500D01*
X131131120Y-146500500D01*
X131391116Y-146466270D01*
X131644419Y-146398398D01*
X131886697Y-146298043D01*
X132113803Y-146166924D01*
X132321851Y-146007282D01*
X132321855Y-146007277D01*
X132321860Y-146007274D01*
X132507274Y-145821860D01*
X132507277Y-145821855D01*
X132507282Y-145821851D01*
X132666924Y-145613803D01*
X132798043Y-145386697D01*
X132898398Y-145144419D01*
X132966270Y-144891116D01*
X133000500Y-144631120D01*
X133000500Y-144368880D01*
X133000499Y-144368872D01*
X188499500Y-144368872D01*
X188499500Y-144631127D01*
X188526123Y-144833339D01*
X188533730Y-144891116D01*
X188601602Y-145144418D01*
X188601605Y-145144428D01*
X188701953Y-145386690D01*
X188701958Y-145386700D01*
X188833075Y-145613803D01*
X188992718Y-145821851D01*
X188992726Y-145821860D01*
X189178140Y-146007274D01*
X189178148Y-146007281D01*
X189386196Y-146166924D01*
X189613299Y-146298041D01*
X189613309Y-146298046D01*
X189855571Y-146398394D01*
X189855581Y-146398398D01*
X190108884Y-146466270D01*
X190368880Y-146500500D01*
X190368887Y-146500500D01*
X190631113Y-146500500D01*
X190631120Y-146500500D01*
X190891116Y-146466270D01*
X191144419Y-146398398D01*
X191386697Y-146298043D01*
X191613803Y-146166924D01*
X191821851Y-146007282D01*
X191821855Y-146007277D01*
X191821860Y-146007274D01*
X192007274Y-145821860D01*
X192007277Y-145821855D01*
X192007282Y-145821851D01*
X192166924Y-145613803D01*
X192298043Y-145386697D01*
X192398398Y-145144419D01*
X192466270Y-144891116D01*
X192500500Y-144631120D01*
X192500500Y-144368880D01*
X192466270Y-144108884D01*
X192398398Y-143855581D01*
X192354622Y-143749896D01*
X192298046Y-143613309D01*
X192298041Y-143613299D01*
X192166924Y-143386196D01*
X192007281Y-143178148D01*
X192007274Y-143178140D01*
X191821860Y-142992726D01*
X191821851Y-142992718D01*
X191613803Y-142833075D01*
X191386700Y-142701958D01*
X191386690Y-142701953D01*
X191144428Y-142601605D01*
X191144421Y-142601603D01*
X191144419Y-142601602D01*
X190891116Y-142533730D01*
X190833339Y-142526123D01*
X190631127Y-142499500D01*
X190631120Y-142499500D01*
X190368880Y-142499500D01*
X190368872Y-142499500D01*
X190137772Y-142529926D01*
X190108884Y-142533730D01*
X189855581Y-142601602D01*
X189855571Y-142601605D01*
X189613309Y-142701953D01*
X189613299Y-142701958D01*
X189386196Y-142833075D01*
X189178148Y-142992718D01*
X188992718Y-143178148D01*
X188833075Y-143386196D01*
X188701958Y-143613299D01*
X188701953Y-143613309D01*
X188601605Y-143855571D01*
X188601602Y-143855581D01*
X188533730Y-144108885D01*
X188499500Y-144368872D01*
X133000499Y-144368872D01*
X132966270Y-144108884D01*
X132898398Y-143855581D01*
X132854622Y-143749896D01*
X132798046Y-143613309D01*
X132798041Y-143613299D01*
X132666924Y-143386196D01*
X132507281Y-143178148D01*
X132507274Y-143178140D01*
X132321860Y-142992726D01*
X132321851Y-142992718D01*
X132113803Y-142833075D01*
X131886700Y-142701958D01*
X131886690Y-142701953D01*
X131644428Y-142601605D01*
X131644421Y-142601603D01*
X131644419Y-142601602D01*
X131391116Y-142533730D01*
X131333339Y-142526123D01*
X131131127Y-142499500D01*
X131131120Y-142499500D01*
X130868880Y-142499500D01*
X130868872Y-142499500D01*
X130637772Y-142529926D01*
X130608884Y-142533730D01*
X130355581Y-142601602D01*
X130355571Y-142601605D01*
X130113309Y-142701953D01*
X130113299Y-142701958D01*
X129886196Y-142833075D01*
X129678148Y-142992718D01*
X129492718Y-143178148D01*
X129333075Y-143386196D01*
X129201958Y-143613299D01*
X129201953Y-143613309D01*
X129101605Y-143855571D01*
X129101602Y-143855581D01*
X129033730Y-144108885D01*
X128999500Y-144368872D01*
X117872416Y-144368872D01*
X117837557Y-144261588D01*
X117837555Y-144261585D01*
X117837555Y-144261583D01*
X117771397Y-144131742D01*
X117741051Y-144072184D01*
X117741049Y-144072181D01*
X117741048Y-144072179D01*
X117616109Y-143900213D01*
X117465786Y-143749890D01*
X117293817Y-143624949D01*
X117284504Y-143620204D01*
X117233707Y-143572230D01*
X117216912Y-143504409D01*
X117239449Y-143438274D01*
X117284507Y-143399232D01*
X117293558Y-143394620D01*
X117465459Y-143269727D01*
X117465464Y-143269723D01*
X117615723Y-143119464D01*
X117615727Y-143119459D01*
X117740620Y-142947557D01*
X117837095Y-142758217D01*
X117902757Y-142556129D01*
X117902757Y-142556126D01*
X117913231Y-142490000D01*
X117019012Y-142490000D01*
X117051925Y-142432993D01*
X117086000Y-142305826D01*
X117086000Y-142174174D01*
X117051925Y-142047007D01*
X117019012Y-141990000D01*
X117913231Y-141990000D01*
X117902757Y-141923873D01*
X117902757Y-141923870D01*
X117837095Y-141721782D01*
X117740620Y-141532442D01*
X117615727Y-141360540D01*
X117615723Y-141360535D01*
X117465464Y-141210276D01*
X117465459Y-141210272D01*
X117293555Y-141085377D01*
X117284500Y-141080763D01*
X117233706Y-141032788D01*
X117216912Y-140964966D01*
X117239451Y-140898832D01*
X117284508Y-140859793D01*
X117293816Y-140855051D01*
X117373007Y-140797515D01*
X117465786Y-140730109D01*
X117465788Y-140730106D01*
X117465792Y-140730104D01*
X117616104Y-140579792D01*
X117616106Y-140579788D01*
X117616109Y-140579786D01*
X117741048Y-140407820D01*
X117741047Y-140407820D01*
X117741051Y-140407816D01*
X117837557Y-140218412D01*
X117903246Y-140016243D01*
X117936500Y-139806287D01*
X117936500Y-139593713D01*
X117903246Y-139383757D01*
X117837557Y-139181588D01*
X117741051Y-138992184D01*
X117741049Y-138992181D01*
X117741048Y-138992179D01*
X117616109Y-138820213D01*
X117465786Y-138669890D01*
X117293820Y-138544951D01*
X117293115Y-138544591D01*
X117285054Y-138540485D01*
X117234259Y-138492512D01*
X117217463Y-138424692D01*
X117239999Y-138358556D01*
X117285054Y-138319515D01*
X117293816Y-138315051D01*
X117315789Y-138299086D01*
X117465786Y-138190109D01*
X117465788Y-138190106D01*
X117465792Y-138190104D01*
X117616104Y-138039792D01*
X117616106Y-138039788D01*
X117616109Y-138039786D01*
X117741048Y-137867820D01*
X117741047Y-137867820D01*
X117741051Y-137867816D01*
X117837557Y-137678412D01*
X117903246Y-137476243D01*
X117936500Y-137266287D01*
X117936500Y-137053713D01*
X117903246Y-136843757D01*
X117837557Y-136641588D01*
X117741051Y-136452184D01*
X117741049Y-136452181D01*
X117741048Y-136452179D01*
X117616109Y-136280213D01*
X117465786Y-136129890D01*
X117293820Y-136004951D01*
X117293115Y-136004591D01*
X117285054Y-136000485D01*
X117234259Y-135952512D01*
X117217463Y-135884692D01*
X117239999Y-135818556D01*
X117285054Y-135779515D01*
X117293816Y-135775051D01*
X117315789Y-135759086D01*
X117465786Y-135650109D01*
X117465788Y-135650106D01*
X117465792Y-135650104D01*
X117616104Y-135499792D01*
X117616106Y-135499788D01*
X117616109Y-135499786D01*
X117741048Y-135327820D01*
X117741047Y-135327820D01*
X117741051Y-135327816D01*
X117837557Y-135138412D01*
X117903246Y-134936243D01*
X117936500Y-134726287D01*
X117936500Y-134513713D01*
X117903246Y-134303757D01*
X117837557Y-134101588D01*
X117741051Y-133912184D01*
X117741049Y-133912181D01*
X117741048Y-133912179D01*
X117616109Y-133740213D01*
X117465786Y-133589890D01*
X117293820Y-133464951D01*
X117293115Y-133464591D01*
X117285054Y-133460485D01*
X117234259Y-133412512D01*
X117217463Y-133344692D01*
X117239999Y-133278556D01*
X117285054Y-133239515D01*
X117293816Y-133235051D01*
X117315789Y-133219086D01*
X117465786Y-133110109D01*
X117465788Y-133110106D01*
X117465792Y-133110104D01*
X117616104Y-132959792D01*
X117616106Y-132959788D01*
X117616109Y-132959786D01*
X117741048Y-132787820D01*
X117741047Y-132787820D01*
X117741051Y-132787816D01*
X117837557Y-132598412D01*
X117903246Y-132396243D01*
X117936500Y-132186287D01*
X117936500Y-131973713D01*
X117903246Y-131763757D01*
X117837557Y-131561588D01*
X117741051Y-131372184D01*
X117741049Y-131372181D01*
X117741048Y-131372179D01*
X117616109Y-131200213D01*
X117465786Y-131049890D01*
X117293820Y-130924951D01*
X117293115Y-130924591D01*
X117285054Y-130920485D01*
X117234259Y-130872512D01*
X117217463Y-130804692D01*
X117239999Y-130738556D01*
X117285054Y-130699515D01*
X117293816Y-130695051D01*
X117315789Y-130679086D01*
X117465786Y-130570109D01*
X117465788Y-130570106D01*
X117465792Y-130570104D01*
X117616104Y-130419792D01*
X117616106Y-130419788D01*
X117616109Y-130419786D01*
X117741048Y-130247820D01*
X117741047Y-130247820D01*
X117741051Y-130247816D01*
X117837557Y-130058412D01*
X117903246Y-129856243D01*
X117936500Y-129646287D01*
X117936500Y-129433713D01*
X117903246Y-129223757D01*
X117837557Y-129021588D01*
X117741051Y-128832184D01*
X117741049Y-128832181D01*
X117741048Y-128832179D01*
X117616109Y-128660213D01*
X117465786Y-128509890D01*
X117293820Y-128384951D01*
X117285600Y-128380763D01*
X117285054Y-128380485D01*
X117234259Y-128332512D01*
X117217463Y-128264692D01*
X117239999Y-128198556D01*
X117285054Y-128159515D01*
X117293816Y-128155051D01*
X117315789Y-128139086D01*
X117465786Y-128030109D01*
X117465788Y-128030106D01*
X117465792Y-128030104D01*
X117616104Y-127879792D01*
X117616106Y-127879788D01*
X117616109Y-127879786D01*
X117741048Y-127707820D01*
X117741047Y-127707820D01*
X117741051Y-127707816D01*
X117837557Y-127518412D01*
X117903246Y-127316243D01*
X117936500Y-127106287D01*
X117936500Y-126893713D01*
X117903246Y-126683757D01*
X117837557Y-126481588D01*
X117741051Y-126292184D01*
X117741049Y-126292181D01*
X117741048Y-126292179D01*
X117616109Y-126120213D01*
X117465786Y-125969890D01*
X117293820Y-125844951D01*
X117293115Y-125844591D01*
X117285054Y-125840485D01*
X117234259Y-125792512D01*
X117217463Y-125724692D01*
X117239999Y-125658556D01*
X117285054Y-125619515D01*
X117293816Y-125615051D01*
X117315789Y-125599086D01*
X117465786Y-125490109D01*
X117465788Y-125490106D01*
X117465792Y-125490104D01*
X117616104Y-125339792D01*
X117616106Y-125339788D01*
X117616109Y-125339786D01*
X117741048Y-125167820D01*
X117741047Y-125167820D01*
X117741051Y-125167816D01*
X117837557Y-124978412D01*
X117903246Y-124776243D01*
X117936500Y-124566287D01*
X117936500Y-124353713D01*
X117903246Y-124143757D01*
X117837557Y-123941588D01*
X117741051Y-123752184D01*
X117741049Y-123752181D01*
X117741048Y-123752179D01*
X117616109Y-123580213D01*
X117465786Y-123429890D01*
X117293820Y-123304951D01*
X117293115Y-123304591D01*
X117285054Y-123300485D01*
X117234259Y-123252512D01*
X117217463Y-123184692D01*
X117239999Y-123118556D01*
X117285054Y-123079515D01*
X117293816Y-123075051D01*
X117315789Y-123059086D01*
X117465786Y-122950109D01*
X117465788Y-122950106D01*
X117465792Y-122950104D01*
X117616104Y-122799792D01*
X117616106Y-122799788D01*
X117616109Y-122799786D01*
X117741048Y-122627820D01*
X117741047Y-122627820D01*
X117741051Y-122627816D01*
X117837557Y-122438412D01*
X117903246Y-122236243D01*
X117936500Y-122026287D01*
X117936500Y-121813713D01*
X117903246Y-121603757D01*
X117837557Y-121401588D01*
X117741051Y-121212184D01*
X117741049Y-121212181D01*
X117741048Y-121212179D01*
X117616109Y-121040213D01*
X117465786Y-120889890D01*
X117293820Y-120764951D01*
X117285600Y-120760763D01*
X117285054Y-120760485D01*
X117234259Y-120712512D01*
X117217463Y-120644692D01*
X117239999Y-120578556D01*
X117285054Y-120539515D01*
X117293816Y-120535051D01*
X117380138Y-120472335D01*
X117465786Y-120410109D01*
X117465788Y-120410106D01*
X117465792Y-120410104D01*
X117616104Y-120259792D01*
X117616106Y-120259788D01*
X117616109Y-120259786D01*
X117736922Y-120093499D01*
X117741051Y-120087816D01*
X117837557Y-119898412D01*
X117903246Y-119696243D01*
X117936500Y-119486287D01*
X117936500Y-119273713D01*
X117903246Y-119063757D01*
X117837557Y-118861588D01*
X117741051Y-118672184D01*
X117741049Y-118672181D01*
X117741048Y-118672179D01*
X117616109Y-118500213D01*
X117465786Y-118349890D01*
X117293820Y-118224951D01*
X117293115Y-118224591D01*
X117285054Y-118220485D01*
X117234259Y-118172512D01*
X117217463Y-118104692D01*
X117239999Y-118038556D01*
X117285054Y-117999515D01*
X117293816Y-117995051D01*
X117315789Y-117979086D01*
X117465786Y-117870109D01*
X117465788Y-117870106D01*
X117465792Y-117870104D01*
X117616104Y-117719792D01*
X117616106Y-117719788D01*
X117616109Y-117719786D01*
X117736922Y-117553499D01*
X117741051Y-117547816D01*
X117837557Y-117358412D01*
X117903246Y-117156243D01*
X117936500Y-116946287D01*
X117936500Y-116733713D01*
X117903246Y-116523757D01*
X117837557Y-116321588D01*
X117741051Y-116132184D01*
X117741049Y-116132181D01*
X117741048Y-116132179D01*
X117616109Y-115960213D01*
X117465786Y-115809890D01*
X117293820Y-115684951D01*
X117293115Y-115684591D01*
X117285054Y-115680485D01*
X117234259Y-115632512D01*
X117217463Y-115564692D01*
X117239999Y-115498556D01*
X117285054Y-115459515D01*
X117293816Y-115455051D01*
X117315789Y-115439086D01*
X117465786Y-115330109D01*
X117465788Y-115330106D01*
X117465792Y-115330104D01*
X117616104Y-115179792D01*
X117616106Y-115179788D01*
X117616109Y-115179786D01*
X117741048Y-115007820D01*
X117741047Y-115007820D01*
X117741051Y-115007816D01*
X117837557Y-114818412D01*
X117903246Y-114616243D01*
X117936500Y-114406287D01*
X117936500Y-114193713D01*
X117903246Y-113983757D01*
X117837557Y-113781588D01*
X117741051Y-113592184D01*
X117741049Y-113592181D01*
X117741048Y-113592179D01*
X117616109Y-113420213D01*
X117465786Y-113269890D01*
X117293820Y-113144951D01*
X117293115Y-113144591D01*
X117285054Y-113140485D01*
X117234259Y-113092512D01*
X117217463Y-113024692D01*
X117239999Y-112958556D01*
X117285054Y-112919515D01*
X117293816Y-112915051D01*
X117315789Y-112899086D01*
X117465786Y-112790109D01*
X117465788Y-112790106D01*
X117465792Y-112790104D01*
X117616104Y-112639792D01*
X117616106Y-112639788D01*
X117616109Y-112639786D01*
X117741048Y-112467820D01*
X117741047Y-112467820D01*
X117741051Y-112467816D01*
X117837557Y-112278412D01*
X117903246Y-112076243D01*
X117936500Y-111866287D01*
X117936500Y-111653713D01*
X117903246Y-111443757D01*
X117837557Y-111241588D01*
X117741051Y-111052184D01*
X117741049Y-111052181D01*
X117741048Y-111052179D01*
X117616109Y-110880213D01*
X117465786Y-110729890D01*
X117293820Y-110604951D01*
X117293115Y-110604591D01*
X117285054Y-110600485D01*
X117234259Y-110552512D01*
X117217463Y-110484692D01*
X117239999Y-110418556D01*
X117285054Y-110379515D01*
X117293816Y-110375051D01*
X117315789Y-110359086D01*
X117465786Y-110250109D01*
X117465788Y-110250106D01*
X117465792Y-110250104D01*
X117616104Y-110099792D01*
X117616106Y-110099788D01*
X117616109Y-110099786D01*
X117741048Y-109927820D01*
X117741047Y-109927820D01*
X117741051Y-109927816D01*
X117837557Y-109738412D01*
X117903246Y-109536243D01*
X117936500Y-109326287D01*
X117936500Y-109113713D01*
X117903246Y-108903757D01*
X117837557Y-108701588D01*
X117741051Y-108512184D01*
X117741049Y-108512181D01*
X117741048Y-108512179D01*
X117616109Y-108340213D01*
X117465786Y-108189890D01*
X117293820Y-108064951D01*
X117293115Y-108064591D01*
X117285054Y-108060485D01*
X117234259Y-108012512D01*
X117217463Y-107944692D01*
X117239999Y-107878556D01*
X117285054Y-107839515D01*
X117293816Y-107835051D01*
X117315789Y-107819086D01*
X117465786Y-107710109D01*
X117465788Y-107710106D01*
X117465792Y-107710104D01*
X117616104Y-107559792D01*
X117616106Y-107559788D01*
X117616109Y-107559786D01*
X117741048Y-107387820D01*
X117741047Y-107387820D01*
X117741051Y-107387816D01*
X117837557Y-107198412D01*
X117903246Y-106996243D01*
X117936500Y-106786287D01*
X117936500Y-106573713D01*
X117903246Y-106363757D01*
X117837557Y-106161588D01*
X117741051Y-105972184D01*
X117741049Y-105972181D01*
X117741048Y-105972179D01*
X117616109Y-105800213D01*
X117465786Y-105649890D01*
X117293820Y-105524951D01*
X117285600Y-105520763D01*
X117285054Y-105520485D01*
X117234259Y-105472512D01*
X117217463Y-105404692D01*
X117239999Y-105338556D01*
X117285054Y-105299515D01*
X117293816Y-105295051D01*
X117315789Y-105279086D01*
X117465786Y-105170109D01*
X117465788Y-105170106D01*
X117465792Y-105170104D01*
X117616104Y-105019792D01*
X117616106Y-105019788D01*
X117616109Y-105019786D01*
X117741048Y-104847820D01*
X117741047Y-104847820D01*
X117741051Y-104847816D01*
X117837557Y-104658412D01*
X117903246Y-104456243D01*
X117936500Y-104246287D01*
X117936500Y-104033713D01*
X117903246Y-103823757D01*
X117837557Y-103621588D01*
X117741051Y-103432184D01*
X117741049Y-103432181D01*
X117741048Y-103432179D01*
X117616109Y-103260213D01*
X117465786Y-103109890D01*
X117293820Y-102984951D01*
X117293115Y-102984591D01*
X117285054Y-102980485D01*
X117234259Y-102932512D01*
X117217463Y-102864692D01*
X117239999Y-102798556D01*
X117285054Y-102759515D01*
X117293816Y-102755051D01*
X117315789Y-102739086D01*
X117465786Y-102630109D01*
X117465788Y-102630106D01*
X117465792Y-102630104D01*
X117616104Y-102479792D01*
X117616106Y-102479788D01*
X117616109Y-102479786D01*
X117741048Y-102307820D01*
X117741047Y-102307820D01*
X117741051Y-102307816D01*
X117837557Y-102118412D01*
X117903246Y-101916243D01*
X117936500Y-101706287D01*
X117936500Y-101493713D01*
X117903246Y-101283757D01*
X117837557Y-101081588D01*
X117741051Y-100892184D01*
X117741049Y-100892181D01*
X117741048Y-100892179D01*
X117616109Y-100720213D01*
X117465786Y-100569890D01*
X117293820Y-100444951D01*
X117293115Y-100444591D01*
X117285054Y-100440485D01*
X117234259Y-100392512D01*
X117217463Y-100324692D01*
X117239999Y-100258556D01*
X117285054Y-100219515D01*
X117293816Y-100215051D01*
X117315789Y-100199086D01*
X117465786Y-100090109D01*
X117465788Y-100090106D01*
X117465792Y-100090104D01*
X117616104Y-99939792D01*
X117616106Y-99939788D01*
X117616109Y-99939786D01*
X117741048Y-99767820D01*
X117741047Y-99767820D01*
X117741051Y-99767816D01*
X117837557Y-99578412D01*
X117903246Y-99376243D01*
X117936500Y-99166287D01*
X117936500Y-98953713D01*
X117903246Y-98743757D01*
X117837557Y-98541588D01*
X117741051Y-98352184D01*
X117741049Y-98352181D01*
X117741048Y-98352179D01*
X117616109Y-98180213D01*
X117465786Y-98029890D01*
X117293820Y-97904951D01*
X117293115Y-97904591D01*
X117285054Y-97900485D01*
X117234259Y-97852512D01*
X117217463Y-97784692D01*
X117239999Y-97718556D01*
X117285054Y-97679515D01*
X117293816Y-97675051D01*
X117380138Y-97612335D01*
X117465786Y-97550109D01*
X117465788Y-97550106D01*
X117465792Y-97550104D01*
X117616104Y-97399792D01*
X117616106Y-97399788D01*
X117616109Y-97399786D01*
X117741048Y-97227820D01*
X117741047Y-97227820D01*
X117741051Y-97227816D01*
X117837557Y-97038412D01*
X117903246Y-96836243D01*
X117936500Y-96626287D01*
X117936500Y-96413713D01*
X117903246Y-96203757D01*
X117837557Y-96001588D01*
X117741051Y-95812184D01*
X117741049Y-95812181D01*
X117741048Y-95812179D01*
X117616109Y-95640213D01*
X117465786Y-95489890D01*
X117293820Y-95364951D01*
X117293115Y-95364591D01*
X117285054Y-95360485D01*
X117234259Y-95312512D01*
X117217463Y-95244692D01*
X117239999Y-95178556D01*
X117285054Y-95139515D01*
X117293816Y-95135051D01*
X117315789Y-95119086D01*
X117465786Y-95010109D01*
X117465788Y-95010106D01*
X117465792Y-95010104D01*
X117616104Y-94859792D01*
X117616106Y-94859788D01*
X117616109Y-94859786D01*
X117741048Y-94687820D01*
X117741047Y-94687820D01*
X117741051Y-94687816D01*
X117837557Y-94498412D01*
X117903246Y-94296243D01*
X117936500Y-94086287D01*
X117936500Y-93873713D01*
X117903246Y-93663757D01*
X117837557Y-93461588D01*
X117741051Y-93272184D01*
X117741049Y-93272181D01*
X117741048Y-93272179D01*
X117616109Y-93100213D01*
X117465786Y-92949890D01*
X117293820Y-92824951D01*
X117293115Y-92824591D01*
X117285054Y-92820485D01*
X117234259Y-92772512D01*
X117217463Y-92704692D01*
X117239999Y-92638556D01*
X117285054Y-92599515D01*
X117293816Y-92595051D01*
X117348876Y-92555048D01*
X117465786Y-92470109D01*
X117465788Y-92470106D01*
X117465792Y-92470104D01*
X117616104Y-92319792D01*
X117616106Y-92319788D01*
X117616109Y-92319786D01*
X117741048Y-92147820D01*
X117741047Y-92147820D01*
X117741051Y-92147816D01*
X117837557Y-91958412D01*
X117903246Y-91756243D01*
X117936500Y-91546287D01*
X117936500Y-91333713D01*
X117903246Y-91123757D01*
X117837557Y-90921588D01*
X117741051Y-90732184D01*
X117741049Y-90732181D01*
X117741048Y-90732179D01*
X117616109Y-90560213D01*
X117465786Y-90409890D01*
X117293820Y-90284951D01*
X117293115Y-90284591D01*
X117285054Y-90280485D01*
X117234259Y-90232512D01*
X117217463Y-90164692D01*
X117239999Y-90098556D01*
X117285054Y-90059515D01*
X117293816Y-90055051D01*
X117351446Y-90013181D01*
X117465786Y-89930109D01*
X117465788Y-89930106D01*
X117465792Y-89930104D01*
X117616104Y-89779792D01*
X117616106Y-89779788D01*
X117616109Y-89779786D01*
X117741048Y-89607820D01*
X117741047Y-89607820D01*
X117741051Y-89607816D01*
X117837557Y-89418412D01*
X117903246Y-89216243D01*
X117936500Y-89006287D01*
X117936500Y-88793713D01*
X117903246Y-88583757D01*
X117837557Y-88381588D01*
X117741051Y-88192184D01*
X117741049Y-88192181D01*
X117741048Y-88192179D01*
X117616109Y-88020213D01*
X117465786Y-87869890D01*
X117293820Y-87744951D01*
X117293115Y-87744591D01*
X117285054Y-87740485D01*
X117234259Y-87692512D01*
X117217463Y-87624692D01*
X117239999Y-87558556D01*
X117285054Y-87519515D01*
X117293816Y-87515051D01*
X117315789Y-87499086D01*
X117465786Y-87390109D01*
X117465788Y-87390106D01*
X117465792Y-87390104D01*
X117616104Y-87239792D01*
X117616106Y-87239788D01*
X117616109Y-87239786D01*
X117741048Y-87067820D01*
X117741047Y-87067820D01*
X117741051Y-87067816D01*
X117837557Y-86878412D01*
X117903246Y-86676243D01*
X117936500Y-86466287D01*
X117936500Y-86253713D01*
X117903246Y-86043757D01*
X117837557Y-85841588D01*
X117741051Y-85652184D01*
X117741049Y-85652181D01*
X117741048Y-85652179D01*
X117616109Y-85480213D01*
X117465786Y-85329890D01*
X117293820Y-85204951D01*
X117293115Y-85204591D01*
X117285054Y-85200485D01*
X117234259Y-85152512D01*
X117217463Y-85084692D01*
X117239999Y-85018556D01*
X117285054Y-84979515D01*
X117293816Y-84975051D01*
X117315789Y-84959086D01*
X117465786Y-84850109D01*
X117465788Y-84850106D01*
X117465792Y-84850104D01*
X117616104Y-84699792D01*
X117616106Y-84699788D01*
X117616109Y-84699786D01*
X117741048Y-84527820D01*
X117741047Y-84527820D01*
X117741051Y-84527816D01*
X117837557Y-84338412D01*
X117903246Y-84136243D01*
X117936500Y-83926287D01*
X117936500Y-83713713D01*
X117903246Y-83503757D01*
X117837557Y-83301588D01*
X117741051Y-83112184D01*
X117741049Y-83112181D01*
X117741048Y-83112179D01*
X117616109Y-82940213D01*
X117465786Y-82789890D01*
X117293820Y-82664951D01*
X117285600Y-82660763D01*
X117285054Y-82660485D01*
X117234259Y-82612512D01*
X117217463Y-82544692D01*
X117239999Y-82478556D01*
X117285054Y-82439515D01*
X117293816Y-82435051D01*
X117315789Y-82419086D01*
X117465786Y-82310109D01*
X117465788Y-82310106D01*
X117465792Y-82310104D01*
X117616104Y-82159792D01*
X117616106Y-82159788D01*
X117616109Y-82159786D01*
X117741048Y-81987820D01*
X117741047Y-81987820D01*
X117741051Y-81987816D01*
X117837557Y-81798412D01*
X117903246Y-81596243D01*
X117936500Y-81386287D01*
X117936500Y-81173713D01*
X117903246Y-80963757D01*
X117837557Y-80761588D01*
X117741051Y-80572184D01*
X117741049Y-80572181D01*
X117741048Y-80572179D01*
X117616109Y-80400213D01*
X117465786Y-80249890D01*
X117293820Y-80124951D01*
X117293115Y-80124591D01*
X117285054Y-80120485D01*
X117234259Y-80072512D01*
X117217463Y-80004692D01*
X117239999Y-79938556D01*
X117285054Y-79899515D01*
X117293816Y-79895051D01*
X117315789Y-79879086D01*
X117465786Y-79770109D01*
X117465788Y-79770106D01*
X117465792Y-79770104D01*
X117616104Y-79619792D01*
X117616106Y-79619788D01*
X117616109Y-79619786D01*
X117741048Y-79447820D01*
X117741047Y-79447820D01*
X117741051Y-79447816D01*
X117837557Y-79258412D01*
X117903246Y-79056243D01*
X117936500Y-78846287D01*
X117936500Y-78633713D01*
X117903246Y-78423757D01*
X117837557Y-78221588D01*
X117741051Y-78032184D01*
X117741049Y-78032181D01*
X117741048Y-78032179D01*
X117616109Y-77860213D01*
X117465786Y-77709890D01*
X117293820Y-77584951D01*
X117293115Y-77584591D01*
X117285054Y-77580485D01*
X117234259Y-77532512D01*
X117217463Y-77464692D01*
X117239999Y-77398556D01*
X117285054Y-77359515D01*
X117293816Y-77355051D01*
X117315789Y-77339086D01*
X117465786Y-77230109D01*
X117465788Y-77230106D01*
X117465792Y-77230104D01*
X117616104Y-77079792D01*
X117616106Y-77079788D01*
X117616109Y-77079786D01*
X117741048Y-76907820D01*
X117741047Y-76907820D01*
X117741051Y-76907816D01*
X117837557Y-76718412D01*
X117903246Y-76516243D01*
X117936500Y-76306287D01*
X117936500Y-76093713D01*
X117903246Y-75883757D01*
X117837557Y-75681588D01*
X117741051Y-75492184D01*
X117741049Y-75492181D01*
X117741048Y-75492179D01*
X117616109Y-75320213D01*
X117465786Y-75169890D01*
X117293820Y-75044951D01*
X117293115Y-75044591D01*
X117285054Y-75040485D01*
X117234259Y-74992512D01*
X117217463Y-74924692D01*
X117239999Y-74858556D01*
X117285054Y-74819515D01*
X117293816Y-74815051D01*
X117380138Y-74752335D01*
X117465786Y-74690109D01*
X117465788Y-74690106D01*
X117465792Y-74690104D01*
X117616104Y-74539792D01*
X117616106Y-74539788D01*
X117616109Y-74539786D01*
X117741048Y-74367820D01*
X117741047Y-74367820D01*
X117741051Y-74367816D01*
X117837557Y-74178412D01*
X117903246Y-73976243D01*
X117936500Y-73766287D01*
X117936500Y-73553713D01*
X117903246Y-73343757D01*
X117837557Y-73141588D01*
X117741051Y-72952184D01*
X117741049Y-72952181D01*
X117741048Y-72952179D01*
X117616109Y-72780213D01*
X117465786Y-72629890D01*
X117293820Y-72504951D01*
X117293115Y-72504591D01*
X117285054Y-72500485D01*
X117234259Y-72452512D01*
X117217463Y-72384692D01*
X117239999Y-72318556D01*
X117285054Y-72279515D01*
X117293816Y-72275051D01*
X117315789Y-72259086D01*
X117465786Y-72150109D01*
X117465788Y-72150106D01*
X117465792Y-72150104D01*
X117616104Y-71999792D01*
X117616106Y-71999788D01*
X117616109Y-71999786D01*
X117741048Y-71827820D01*
X117741047Y-71827820D01*
X117741051Y-71827816D01*
X117837557Y-71638412D01*
X117903246Y-71436243D01*
X117936500Y-71226287D01*
X117936500Y-71013713D01*
X117903246Y-70803757D01*
X117837557Y-70601588D01*
X117741051Y-70412184D01*
X117741049Y-70412181D01*
X117741048Y-70412179D01*
X117616109Y-70240213D01*
X117465786Y-70089890D01*
X117293820Y-69964951D01*
X117293115Y-69964591D01*
X117285054Y-69960485D01*
X117234259Y-69912512D01*
X117217463Y-69844692D01*
X117239999Y-69778556D01*
X117285054Y-69739515D01*
X117293816Y-69735051D01*
X117315789Y-69719086D01*
X117465786Y-69610109D01*
X117465788Y-69610106D01*
X117465792Y-69610104D01*
X117616104Y-69459792D01*
X117616106Y-69459788D01*
X117616109Y-69459786D01*
X117741048Y-69287820D01*
X117741047Y-69287820D01*
X117741051Y-69287816D01*
X117837557Y-69098412D01*
X117903246Y-68896243D01*
X117936500Y-68686287D01*
X117936500Y-68473713D01*
X117903246Y-68263757D01*
X117837557Y-68061588D01*
X117741051Y-67872184D01*
X117741049Y-67872181D01*
X117741048Y-67872179D01*
X117616109Y-67700213D01*
X117465786Y-67549890D01*
X117293820Y-67424951D01*
X117293115Y-67424591D01*
X117285054Y-67420485D01*
X117234259Y-67372512D01*
X117217463Y-67304692D01*
X117239999Y-67238556D01*
X117285054Y-67199515D01*
X117293816Y-67195051D01*
X117315789Y-67179086D01*
X117465786Y-67070109D01*
X117465788Y-67070106D01*
X117465792Y-67070104D01*
X117616104Y-66919792D01*
X117616106Y-66919788D01*
X117616109Y-66919786D01*
X117741048Y-66747820D01*
X117741047Y-66747820D01*
X117741051Y-66747816D01*
X117837557Y-66558412D01*
X117903246Y-66356243D01*
X117936500Y-66146287D01*
X117936500Y-65933713D01*
X117903246Y-65723757D01*
X117837557Y-65521588D01*
X117741051Y-65332184D01*
X117741049Y-65332181D01*
X117741048Y-65332179D01*
X117616109Y-65160213D01*
X117465786Y-65009890D01*
X117293820Y-64884951D01*
X117285600Y-64880763D01*
X117285054Y-64880485D01*
X117234259Y-64832512D01*
X117217463Y-64764692D01*
X117239999Y-64698556D01*
X117285054Y-64659515D01*
X117293816Y-64655051D01*
X117380138Y-64592335D01*
X117465786Y-64530109D01*
X117465788Y-64530106D01*
X117465792Y-64530104D01*
X117616104Y-64379792D01*
X117616106Y-64379788D01*
X117616109Y-64379786D01*
X117741048Y-64207820D01*
X117741047Y-64207820D01*
X117741051Y-64207816D01*
X117837557Y-64018412D01*
X117903246Y-63816243D01*
X117936500Y-63606287D01*
X117936500Y-63393713D01*
X117903246Y-63183757D01*
X117837557Y-62981588D01*
X117741051Y-62792184D01*
X117616104Y-62620208D01*
X117598031Y-62602135D01*
X135809500Y-62602135D01*
X135809500Y-64397870D01*
X135809501Y-64397876D01*
X135815908Y-64457483D01*
X135866202Y-64592328D01*
X135866206Y-64592335D01*
X135952452Y-64707544D01*
X135952455Y-64707547D01*
X136067664Y-64793793D01*
X136067671Y-64793797D01*
X136067674Y-64793798D01*
X136199598Y-64843002D01*
X136255531Y-64884873D01*
X136279949Y-64950337D01*
X136265098Y-65018610D01*
X136243947Y-65046865D01*
X136130271Y-65160541D01*
X136005379Y-65332442D01*
X135908904Y-65521782D01*
X135843242Y-65723870D01*
X135843242Y-65723873D01*
X135832769Y-65790000D01*
X136726988Y-65790000D01*
X136694075Y-65847007D01*
X136660000Y-65974174D01*
X136660000Y-66105826D01*
X136694075Y-66232993D01*
X136726988Y-66290000D01*
X135832769Y-66290000D01*
X135843242Y-66356126D01*
X135843242Y-66356129D01*
X135908904Y-66558217D01*
X136005379Y-66747557D01*
X136130272Y-66919459D01*
X136130276Y-66919464D01*
X136280535Y-67069723D01*
X136280540Y-67069727D01*
X136452444Y-67194622D01*
X136461495Y-67199234D01*
X136512292Y-67247208D01*
X136529087Y-67315029D01*
X136506550Y-67381164D01*
X136461499Y-67420202D01*
X136452182Y-67424949D01*
X136280213Y-67549890D01*
X136129890Y-67700213D01*
X136004951Y-67872179D01*
X135908444Y-68061585D01*
X135842753Y-68263760D01*
X135809500Y-68473713D01*
X135809500Y-68686286D01*
X135842753Y-68896239D01*
X135908444Y-69098414D01*
X136004951Y-69287820D01*
X136129890Y-69459786D01*
X136280213Y-69610109D01*
X136452182Y-69735050D01*
X136460946Y-69739516D01*
X136511742Y-69787491D01*
X136528536Y-69855312D01*
X136505998Y-69921447D01*
X136460946Y-69960484D01*
X136452182Y-69964949D01*
X136280213Y-70089890D01*
X136129890Y-70240213D01*
X136004951Y-70412179D01*
X135908444Y-70601585D01*
X135842753Y-70803760D01*
X135809500Y-71013713D01*
X135809500Y-71226286D01*
X135842753Y-71436239D01*
X135908444Y-71638414D01*
X136004951Y-71827820D01*
X136129890Y-71999786D01*
X136280213Y-72150109D01*
X136452182Y-72275050D01*
X136460946Y-72279516D01*
X136511742Y-72327491D01*
X136528536Y-72395312D01*
X136505998Y-72461447D01*
X136460946Y-72500484D01*
X136452182Y-72504949D01*
X136280213Y-72629890D01*
X136129890Y-72780213D01*
X136004951Y-72952179D01*
X135908444Y-73141585D01*
X135842753Y-73343760D01*
X135809500Y-73553713D01*
X135809500Y-73766286D01*
X135842753Y-73976239D01*
X135908444Y-74178414D01*
X136004951Y-74367820D01*
X136129890Y-74539786D01*
X136280213Y-74690109D01*
X136452182Y-74815050D01*
X136460946Y-74819516D01*
X136511742Y-74867491D01*
X136528536Y-74935312D01*
X136505998Y-75001447D01*
X136460946Y-75040484D01*
X136452182Y-75044949D01*
X136280213Y-75169890D01*
X136129890Y-75320213D01*
X136004951Y-75492179D01*
X135908444Y-75681585D01*
X135842753Y-75883760D01*
X135809500Y-76093713D01*
X135809500Y-76306286D01*
X135842753Y-76516239D01*
X135908444Y-76718414D01*
X136004951Y-76907820D01*
X136129890Y-77079786D01*
X136280213Y-77230109D01*
X136452182Y-77355050D01*
X136460946Y-77359516D01*
X136511742Y-77407491D01*
X136528536Y-77475312D01*
X136505998Y-77541447D01*
X136460946Y-77580484D01*
X136452182Y-77584949D01*
X136280213Y-77709890D01*
X136129890Y-77860213D01*
X136004951Y-78032179D01*
X135908444Y-78221585D01*
X135842753Y-78423760D01*
X135809500Y-78633713D01*
X135809500Y-78846286D01*
X135842753Y-79056239D01*
X135908444Y-79258414D01*
X136004951Y-79447820D01*
X136129890Y-79619786D01*
X136280213Y-79770109D01*
X136452182Y-79895050D01*
X136460946Y-79899516D01*
X136511742Y-79947491D01*
X136528536Y-80015312D01*
X136505998Y-80081447D01*
X136460946Y-80120484D01*
X136452182Y-80124949D01*
X136280213Y-80249890D01*
X136129890Y-80400213D01*
X136004951Y-80572179D01*
X135908444Y-80761585D01*
X135842753Y-80963760D01*
X135809500Y-81173713D01*
X135809500Y-81386286D01*
X135842753Y-81596239D01*
X135908444Y-81798414D01*
X136004951Y-81987820D01*
X136129890Y-82159786D01*
X136280213Y-82310109D01*
X136452182Y-82435050D01*
X136460946Y-82439516D01*
X136511742Y-82487491D01*
X136528536Y-82555312D01*
X136505998Y-82621447D01*
X136460946Y-82660484D01*
X136452182Y-82664949D01*
X136280213Y-82789890D01*
X136129890Y-82940213D01*
X136004951Y-83112179D01*
X135908444Y-83301585D01*
X135842753Y-83503760D01*
X135809500Y-83713713D01*
X135809500Y-83926286D01*
X135842753Y-84136239D01*
X135908444Y-84338414D01*
X136004951Y-84527820D01*
X136129890Y-84699786D01*
X136280213Y-84850109D01*
X136452182Y-84975050D01*
X136460946Y-84979516D01*
X136511742Y-85027491D01*
X136528536Y-85095312D01*
X136505998Y-85161447D01*
X136460946Y-85200484D01*
X136452182Y-85204949D01*
X136280213Y-85329890D01*
X136129890Y-85480213D01*
X136004951Y-85652179D01*
X135908444Y-85841585D01*
X135842753Y-86043760D01*
X135809500Y-86253713D01*
X135809500Y-86466286D01*
X135842753Y-86676239D01*
X135908444Y-86878414D01*
X136004951Y-87067820D01*
X136129890Y-87239786D01*
X136280213Y-87390109D01*
X136452182Y-87515050D01*
X136460946Y-87519516D01*
X136511742Y-87567491D01*
X136528536Y-87635312D01*
X136505998Y-87701447D01*
X136460946Y-87740484D01*
X136452182Y-87744949D01*
X136280213Y-87869890D01*
X136129890Y-88020213D01*
X136004951Y-88192179D01*
X135908444Y-88381585D01*
X135842753Y-88583760D01*
X135809500Y-88793713D01*
X135809500Y-89006286D01*
X135842753Y-89216239D01*
X135908444Y-89418414D01*
X136004951Y-89607820D01*
X136129890Y-89779786D01*
X136280213Y-89930109D01*
X136452182Y-90055050D01*
X136460946Y-90059516D01*
X136511742Y-90107491D01*
X136528536Y-90175312D01*
X136505998Y-90241447D01*
X136460946Y-90280484D01*
X136452182Y-90284949D01*
X136280213Y-90409890D01*
X136129890Y-90560213D01*
X136004951Y-90732179D01*
X135908444Y-90921585D01*
X135842753Y-91123760D01*
X135809500Y-91333713D01*
X135809500Y-91546286D01*
X135842753Y-91756239D01*
X135908444Y-91958414D01*
X136004951Y-92147820D01*
X136129890Y-92319786D01*
X136280213Y-92470109D01*
X136452182Y-92595050D01*
X136460946Y-92599516D01*
X136511742Y-92647491D01*
X136528536Y-92715312D01*
X136505998Y-92781447D01*
X136460946Y-92820484D01*
X136452182Y-92824949D01*
X136280213Y-92949890D01*
X136129890Y-93100213D01*
X136004951Y-93272179D01*
X135908444Y-93461585D01*
X135842753Y-93663760D01*
X135809500Y-93873713D01*
X135809500Y-94086286D01*
X135842753Y-94296239D01*
X135908444Y-94498414D01*
X136004951Y-94687820D01*
X136129890Y-94859786D01*
X136280213Y-95010109D01*
X136452182Y-95135050D01*
X136460946Y-95139516D01*
X136511742Y-95187491D01*
X136528536Y-95255312D01*
X136505998Y-95321447D01*
X136460946Y-95360484D01*
X136452182Y-95364949D01*
X136280213Y-95489890D01*
X136129890Y-95640213D01*
X136004951Y-95812179D01*
X135908444Y-96001585D01*
X135842753Y-96203760D01*
X135809500Y-96413713D01*
X135809500Y-96626286D01*
X135842753Y-96836239D01*
X135908444Y-97038414D01*
X136004951Y-97227820D01*
X136129890Y-97399786D01*
X136280213Y-97550109D01*
X136452182Y-97675050D01*
X136460946Y-97679516D01*
X136511742Y-97727491D01*
X136528536Y-97795312D01*
X136505998Y-97861447D01*
X136460946Y-97900484D01*
X136452182Y-97904949D01*
X136280213Y-98029890D01*
X136129890Y-98180213D01*
X136004951Y-98352179D01*
X135908444Y-98541585D01*
X135842753Y-98743760D01*
X135809500Y-98953713D01*
X135809500Y-99166286D01*
X135842753Y-99376239D01*
X135908444Y-99578414D01*
X136004951Y-99767820D01*
X136129890Y-99939786D01*
X136280213Y-100090109D01*
X136452182Y-100215050D01*
X136460946Y-100219516D01*
X136511742Y-100267491D01*
X136528536Y-100335312D01*
X136505998Y-100401447D01*
X136460946Y-100440484D01*
X136452182Y-100444949D01*
X136280213Y-100569890D01*
X136129890Y-100720213D01*
X136004951Y-100892179D01*
X135908444Y-101081585D01*
X135842753Y-101283760D01*
X135809500Y-101493713D01*
X135809500Y-101706286D01*
X135842753Y-101916239D01*
X135908444Y-102118414D01*
X136004951Y-102307820D01*
X136129890Y-102479786D01*
X136280213Y-102630109D01*
X136452182Y-102755050D01*
X136460946Y-102759516D01*
X136511742Y-102807491D01*
X136528536Y-102875312D01*
X136505998Y-102941447D01*
X136460946Y-102980484D01*
X136452182Y-102984949D01*
X136280213Y-103109890D01*
X136129890Y-103260213D01*
X136004951Y-103432179D01*
X135908444Y-103621585D01*
X135842753Y-103823760D01*
X135809500Y-104033713D01*
X135809500Y-104246286D01*
X135842753Y-104456239D01*
X135908444Y-104658414D01*
X136004951Y-104847820D01*
X136129890Y-105019786D01*
X136280213Y-105170109D01*
X136452182Y-105295050D01*
X136460946Y-105299516D01*
X136511742Y-105347491D01*
X136528536Y-105415312D01*
X136505998Y-105481447D01*
X136460946Y-105520484D01*
X136452182Y-105524949D01*
X136280213Y-105649890D01*
X136129890Y-105800213D01*
X136004951Y-105972179D01*
X135908444Y-106161585D01*
X135842753Y-106363760D01*
X135809500Y-106573713D01*
X135809500Y-106786286D01*
X135842753Y-106996239D01*
X135908444Y-107198414D01*
X136004951Y-107387820D01*
X136129890Y-107559786D01*
X136280213Y-107710109D01*
X136452182Y-107835050D01*
X136460946Y-107839516D01*
X136511742Y-107887491D01*
X136528536Y-107955312D01*
X136505998Y-108021447D01*
X136460946Y-108060484D01*
X136452182Y-108064949D01*
X136280213Y-108189890D01*
X136129890Y-108340213D01*
X136004951Y-108512179D01*
X135908444Y-108701585D01*
X135842753Y-108903760D01*
X135809500Y-109113713D01*
X135809500Y-109326286D01*
X135842753Y-109536239D01*
X135908444Y-109738414D01*
X136004951Y-109927820D01*
X136129890Y-110099786D01*
X136280213Y-110250109D01*
X136452182Y-110375050D01*
X136460946Y-110379516D01*
X136511742Y-110427491D01*
X136528536Y-110495312D01*
X136505998Y-110561447D01*
X136460946Y-110600484D01*
X136452182Y-110604949D01*
X136280213Y-110729890D01*
X136129890Y-110880213D01*
X136004951Y-111052179D01*
X135908444Y-111241585D01*
X135842753Y-111443760D01*
X135809500Y-111653713D01*
X135809500Y-111866286D01*
X135842753Y-112076239D01*
X135908444Y-112278414D01*
X136004951Y-112467820D01*
X136129890Y-112639786D01*
X136280213Y-112790109D01*
X136452182Y-112915050D01*
X136460946Y-112919516D01*
X136511742Y-112967491D01*
X136528536Y-113035312D01*
X136505998Y-113101447D01*
X136460946Y-113140484D01*
X136452182Y-113144949D01*
X136280213Y-113269890D01*
X136129890Y-113420213D01*
X136004951Y-113592179D01*
X135908444Y-113781585D01*
X135842753Y-113983760D01*
X135809500Y-114193713D01*
X135809500Y-114406286D01*
X135842753Y-114616239D01*
X135908444Y-114818414D01*
X136004951Y-115007820D01*
X136129890Y-115179786D01*
X136280213Y-115330109D01*
X136452182Y-115455050D01*
X136460946Y-115459516D01*
X136511742Y-115507491D01*
X136528536Y-115575312D01*
X136505998Y-115641447D01*
X136460946Y-115680484D01*
X136452182Y-115684949D01*
X136280213Y-115809890D01*
X136129890Y-115960213D01*
X136004951Y-116132179D01*
X135908444Y-116321585D01*
X135842753Y-116523760D01*
X135809500Y-116733713D01*
X135809500Y-116946287D01*
X135842754Y-117156243D01*
X135844379Y-117161245D01*
X135908444Y-117358414D01*
X136004951Y-117547820D01*
X136129890Y-117719786D01*
X136280213Y-117870109D01*
X136452182Y-117995050D01*
X136460946Y-117999516D01*
X136511742Y-118047491D01*
X136528536Y-118115312D01*
X136505998Y-118181447D01*
X136460946Y-118220484D01*
X136452182Y-118224949D01*
X136280213Y-118349890D01*
X136129890Y-118500213D01*
X136004951Y-118672179D01*
X135908444Y-118861585D01*
X135842753Y-119063760D01*
X135809500Y-119273713D01*
X135809500Y-119486286D01*
X135842753Y-119696239D01*
X135908444Y-119898414D01*
X136004951Y-120087820D01*
X136129890Y-120259786D01*
X136280213Y-120410109D01*
X136452179Y-120535048D01*
X136452181Y-120535049D01*
X136452184Y-120535051D01*
X136461493Y-120539794D01*
X136512290Y-120587766D01*
X136529087Y-120655587D01*
X136506552Y-120721722D01*
X136461502Y-120760762D01*
X136452443Y-120765378D01*
X136280540Y-120890272D01*
X136280535Y-120890276D01*
X136130276Y-121040535D01*
X136130272Y-121040540D01*
X136005379Y-121212442D01*
X135908904Y-121401782D01*
X135843242Y-121603870D01*
X135843242Y-121603873D01*
X135832769Y-121670000D01*
X136726988Y-121670000D01*
X136694075Y-121727007D01*
X136660000Y-121854174D01*
X136660000Y-121985826D01*
X136694075Y-122112993D01*
X136726988Y-122170000D01*
X135832769Y-122170000D01*
X135843242Y-122236126D01*
X135843242Y-122236129D01*
X135908904Y-122438217D01*
X136005379Y-122627557D01*
X136130272Y-122799459D01*
X136130276Y-122799464D01*
X136280535Y-122949723D01*
X136280540Y-122949727D01*
X136452442Y-123074620D01*
X136641782Y-123171095D01*
X136843871Y-123236757D01*
X136910000Y-123247231D01*
X136910000Y-122353012D01*
X136967007Y-122385925D01*
X137094174Y-122420000D01*
X137225826Y-122420000D01*
X137352993Y-122385925D01*
X137410000Y-122353012D01*
X137410000Y-123247231D01*
X137476126Y-123236757D01*
X137476129Y-123236757D01*
X137678217Y-123171095D01*
X137867557Y-123074620D01*
X138039459Y-122949727D01*
X138039464Y-122949723D01*
X138189723Y-122799464D01*
X138189727Y-122799459D01*
X138314620Y-122627558D01*
X138319514Y-122617954D01*
X138367488Y-122567157D01*
X138435308Y-122550361D01*
X138501444Y-122572897D01*
X138540486Y-122617954D01*
X138545379Y-122627558D01*
X138670272Y-122799459D01*
X138670276Y-122799464D01*
X138820535Y-122949723D01*
X138820540Y-122949727D01*
X138992442Y-123074620D01*
X139181782Y-123171095D01*
X139383871Y-123236757D01*
X139450000Y-123247231D01*
X139450000Y-122353012D01*
X139507007Y-122385925D01*
X139634174Y-122420000D01*
X139765826Y-122420000D01*
X139892993Y-122385925D01*
X139950000Y-122353012D01*
X139950000Y-123247230D01*
X140016126Y-123236757D01*
X140016129Y-123236757D01*
X140218217Y-123171095D01*
X140407557Y-123074620D01*
X140579459Y-122949727D01*
X140579464Y-122949723D01*
X140729723Y-122799464D01*
X140729727Y-122799459D01*
X140854620Y-122627557D01*
X140951095Y-122438217D01*
X141016757Y-122236129D01*
X141016757Y-122236126D01*
X141027231Y-122170000D01*
X140133012Y-122170000D01*
X140165925Y-122112993D01*
X140200000Y-121985826D01*
X140200000Y-121854174D01*
X140165925Y-121727007D01*
X140133012Y-121670000D01*
X141027231Y-121670000D01*
X141016757Y-121603873D01*
X141016757Y-121603870D01*
X140951095Y-121401782D01*
X140854620Y-121212442D01*
X140729727Y-121040540D01*
X140729723Y-121040535D01*
X140579464Y-120890276D01*
X140579459Y-120890272D01*
X140407555Y-120765377D01*
X140398500Y-120760763D01*
X140347706Y-120712788D01*
X140330912Y-120644966D01*
X140353451Y-120578832D01*
X140398508Y-120539793D01*
X140407816Y-120535051D01*
X140494147Y-120472328D01*
X140579786Y-120410109D01*
X140579788Y-120410106D01*
X140579792Y-120410104D01*
X140730104Y-120259792D01*
X140730106Y-120259788D01*
X140730109Y-120259786D01*
X140850922Y-120093499D01*
X140855051Y-120087816D01*
X140951557Y-119898412D01*
X141017246Y-119696243D01*
X141050500Y-119486287D01*
X141050500Y-119273713D01*
X141017246Y-119063757D01*
X140951557Y-118861588D01*
X140855051Y-118672184D01*
X140855049Y-118672181D01*
X140855048Y-118672179D01*
X140730109Y-118500213D01*
X140579786Y-118349890D01*
X140407820Y-118224951D01*
X140407115Y-118224591D01*
X140399054Y-118220485D01*
X140348259Y-118172512D01*
X140331463Y-118104692D01*
X140353999Y-118038556D01*
X140399054Y-117999515D01*
X140407816Y-117995051D01*
X140429789Y-117979086D01*
X140579786Y-117870109D01*
X140579788Y-117870106D01*
X140579792Y-117870104D01*
X140730104Y-117719792D01*
X140730106Y-117719788D01*
X140730109Y-117719786D01*
X140850922Y-117553499D01*
X140855051Y-117547816D01*
X140951557Y-117358412D01*
X141017246Y-117156243D01*
X141050500Y-116946287D01*
X141050500Y-116733713D01*
X141017246Y-116523757D01*
X140951557Y-116321588D01*
X140855051Y-116132184D01*
X140855049Y-116132181D01*
X140855048Y-116132179D01*
X140730109Y-115960213D01*
X140579786Y-115809890D01*
X140407820Y-115684951D01*
X140407115Y-115684591D01*
X140399054Y-115680485D01*
X140348259Y-115632512D01*
X140331463Y-115564692D01*
X140353999Y-115498556D01*
X140399054Y-115459515D01*
X140407816Y-115455051D01*
X140429789Y-115439086D01*
X140579786Y-115330109D01*
X140579788Y-115330106D01*
X140579792Y-115330104D01*
X140730104Y-115179792D01*
X140730106Y-115179788D01*
X140730109Y-115179786D01*
X140855048Y-115007820D01*
X140855047Y-115007820D01*
X140855051Y-115007816D01*
X140951557Y-114818412D01*
X141017246Y-114616243D01*
X141050500Y-114406287D01*
X141050500Y-114193713D01*
X141017246Y-113983757D01*
X140951557Y-113781588D01*
X140855051Y-113592184D01*
X140855049Y-113592181D01*
X140855048Y-113592179D01*
X140730109Y-113420213D01*
X140579786Y-113269890D01*
X140407820Y-113144951D01*
X140407115Y-113144591D01*
X140399054Y-113140485D01*
X140348259Y-113092512D01*
X140331463Y-113024692D01*
X140353999Y-112958556D01*
X140399054Y-112919515D01*
X140407816Y-112915051D01*
X140429789Y-112899086D01*
X140579786Y-112790109D01*
X140579788Y-112790106D01*
X140579792Y-112790104D01*
X140730104Y-112639792D01*
X140730106Y-112639788D01*
X140730109Y-112639786D01*
X140855048Y-112467820D01*
X140855047Y-112467820D01*
X140855051Y-112467816D01*
X140951557Y-112278412D01*
X141017246Y-112076243D01*
X141050500Y-111866287D01*
X141050500Y-111653713D01*
X141017246Y-111443757D01*
X140951557Y-111241588D01*
X140855051Y-111052184D01*
X140855049Y-111052181D01*
X140855048Y-111052179D01*
X140730109Y-110880213D01*
X140579786Y-110729890D01*
X140407820Y-110604951D01*
X140407115Y-110604591D01*
X140399054Y-110600485D01*
X140348259Y-110552512D01*
X140331463Y-110484692D01*
X140353999Y-110418556D01*
X140399054Y-110379515D01*
X140407816Y-110375051D01*
X140429789Y-110359086D01*
X140579786Y-110250109D01*
X140579788Y-110250106D01*
X140579792Y-110250104D01*
X140730104Y-110099792D01*
X140730106Y-110099788D01*
X140730109Y-110099786D01*
X140855048Y-109927820D01*
X140855047Y-109927820D01*
X140855051Y-109927816D01*
X140951557Y-109738412D01*
X141017246Y-109536243D01*
X141050500Y-109326287D01*
X141050500Y-109113713D01*
X141017246Y-108903757D01*
X140951557Y-108701588D01*
X140855051Y-108512184D01*
X140855049Y-108512181D01*
X140855048Y-108512179D01*
X140730109Y-108340213D01*
X140579786Y-108189890D01*
X140407820Y-108064951D01*
X140407115Y-108064591D01*
X140399054Y-108060485D01*
X140348259Y-108012512D01*
X140331463Y-107944692D01*
X140353999Y-107878556D01*
X140399054Y-107839515D01*
X140407816Y-107835051D01*
X140429789Y-107819086D01*
X140579786Y-107710109D01*
X140579788Y-107710106D01*
X140579792Y-107710104D01*
X140730104Y-107559792D01*
X140730106Y-107559788D01*
X140730109Y-107559786D01*
X140855048Y-107387820D01*
X140855047Y-107387820D01*
X140855051Y-107387816D01*
X140951557Y-107198412D01*
X141017246Y-106996243D01*
X141050500Y-106786287D01*
X141050500Y-106573713D01*
X141017246Y-106363757D01*
X140951557Y-106161588D01*
X140855051Y-105972184D01*
X140855049Y-105972181D01*
X140855048Y-105972179D01*
X140730109Y-105800213D01*
X140579786Y-105649890D01*
X140407820Y-105524951D01*
X140399600Y-105520763D01*
X140399054Y-105520485D01*
X140348259Y-105472512D01*
X140331463Y-105404692D01*
X140353999Y-105338556D01*
X140399054Y-105299515D01*
X140407816Y-105295051D01*
X140429789Y-105279086D01*
X140579786Y-105170109D01*
X140579788Y-105170106D01*
X140579792Y-105170104D01*
X140730104Y-105019792D01*
X140730106Y-105019788D01*
X140730109Y-105019786D01*
X140855048Y-104847820D01*
X140855047Y-104847820D01*
X140855051Y-104847816D01*
X140951557Y-104658412D01*
X141017246Y-104456243D01*
X141050500Y-104246287D01*
X141050500Y-104033713D01*
X141017246Y-103823757D01*
X140951557Y-103621588D01*
X140855051Y-103432184D01*
X140855049Y-103432181D01*
X140855048Y-103432179D01*
X140730109Y-103260213D01*
X140579786Y-103109890D01*
X140407820Y-102984951D01*
X140407115Y-102984591D01*
X140399054Y-102980485D01*
X140348259Y-102932512D01*
X140331463Y-102864692D01*
X140353999Y-102798556D01*
X140399054Y-102759515D01*
X140407816Y-102755051D01*
X140429789Y-102739086D01*
X140579786Y-102630109D01*
X140579788Y-102630106D01*
X140579792Y-102630104D01*
X140730104Y-102479792D01*
X140730106Y-102479788D01*
X140730109Y-102479786D01*
X140855048Y-102307820D01*
X140855047Y-102307820D01*
X140855051Y-102307816D01*
X140951557Y-102118412D01*
X141017246Y-101916243D01*
X141050500Y-101706287D01*
X141050500Y-101493713D01*
X141017246Y-101283757D01*
X140951557Y-101081588D01*
X140855051Y-100892184D01*
X140855049Y-100892181D01*
X140855048Y-100892179D01*
X140730109Y-100720213D01*
X140579786Y-100569890D01*
X140407820Y-100444951D01*
X140407115Y-100444591D01*
X140399054Y-100440485D01*
X140348259Y-100392512D01*
X140331463Y-100324692D01*
X140353999Y-100258556D01*
X140399054Y-100219515D01*
X140407816Y-100215051D01*
X140429789Y-100199086D01*
X140579786Y-100090109D01*
X140579788Y-100090106D01*
X140579792Y-100090104D01*
X140730104Y-99939792D01*
X140730106Y-99939788D01*
X140730109Y-99939786D01*
X140855048Y-99767820D01*
X140855047Y-99767820D01*
X140855051Y-99767816D01*
X140951557Y-99578412D01*
X141017246Y-99376243D01*
X141050500Y-99166287D01*
X141050500Y-98953713D01*
X141017246Y-98743757D01*
X140951557Y-98541588D01*
X140855051Y-98352184D01*
X140855049Y-98352181D01*
X140855048Y-98352179D01*
X140730109Y-98180213D01*
X140579786Y-98029890D01*
X140407820Y-97904951D01*
X140407115Y-97904591D01*
X140399054Y-97900485D01*
X140348259Y-97852512D01*
X140331463Y-97784692D01*
X140353999Y-97718556D01*
X140399054Y-97679515D01*
X140407816Y-97675051D01*
X140494138Y-97612335D01*
X140579786Y-97550109D01*
X140579788Y-97550106D01*
X140579792Y-97550104D01*
X140730104Y-97399792D01*
X140730106Y-97399788D01*
X140730109Y-97399786D01*
X140855048Y-97227820D01*
X140855047Y-97227820D01*
X140855051Y-97227816D01*
X140951557Y-97038412D01*
X141017246Y-96836243D01*
X141050500Y-96626287D01*
X141050500Y-96413713D01*
X141017246Y-96203757D01*
X140951557Y-96001588D01*
X140855051Y-95812184D01*
X140855049Y-95812181D01*
X140855048Y-95812179D01*
X140730109Y-95640213D01*
X140579786Y-95489890D01*
X140407820Y-95364951D01*
X140407115Y-95364591D01*
X140399054Y-95360485D01*
X140348259Y-95312512D01*
X140331463Y-95244692D01*
X140353999Y-95178556D01*
X140399054Y-95139515D01*
X140407816Y-95135051D01*
X140429789Y-95119086D01*
X140579786Y-95010109D01*
X140579788Y-95010106D01*
X140579792Y-95010104D01*
X140730104Y-94859792D01*
X140730106Y-94859788D01*
X140730109Y-94859786D01*
X140855048Y-94687820D01*
X140855047Y-94687820D01*
X140855051Y-94687816D01*
X140951557Y-94498412D01*
X141017246Y-94296243D01*
X141050500Y-94086287D01*
X141050500Y-93873713D01*
X141017246Y-93663757D01*
X140951557Y-93461588D01*
X140855051Y-93272184D01*
X140855049Y-93272181D01*
X140855048Y-93272179D01*
X140730109Y-93100213D01*
X140579786Y-92949890D01*
X140407820Y-92824951D01*
X140407115Y-92824591D01*
X140399054Y-92820485D01*
X140348259Y-92772512D01*
X140331463Y-92704692D01*
X140353999Y-92638556D01*
X140399054Y-92599515D01*
X140407816Y-92595051D01*
X140462876Y-92555048D01*
X140579786Y-92470109D01*
X140579788Y-92470106D01*
X140579792Y-92470104D01*
X140730104Y-92319792D01*
X140730106Y-92319788D01*
X140730109Y-92319786D01*
X140855048Y-92147820D01*
X140855047Y-92147820D01*
X140855051Y-92147816D01*
X140951557Y-91958412D01*
X141017246Y-91756243D01*
X141050500Y-91546287D01*
X141050500Y-91333713D01*
X141017246Y-91123757D01*
X140951557Y-90921588D01*
X140855051Y-90732184D01*
X140855049Y-90732181D01*
X140855048Y-90732179D01*
X140730109Y-90560213D01*
X140579786Y-90409890D01*
X140407820Y-90284951D01*
X140407115Y-90284591D01*
X140399054Y-90280485D01*
X140348259Y-90232512D01*
X140331463Y-90164692D01*
X140353999Y-90098556D01*
X140399054Y-90059515D01*
X140407816Y-90055051D01*
X140465446Y-90013181D01*
X140579786Y-89930109D01*
X140579788Y-89930106D01*
X140579792Y-89930104D01*
X140730104Y-89779792D01*
X140730106Y-89779788D01*
X140730109Y-89779786D01*
X140855048Y-89607820D01*
X140855047Y-89607820D01*
X140855051Y-89607816D01*
X140951557Y-89418412D01*
X141017246Y-89216243D01*
X141050500Y-89006287D01*
X141050500Y-88793713D01*
X141017246Y-88583757D01*
X140951557Y-88381588D01*
X140855051Y-88192184D01*
X140855049Y-88192181D01*
X140855048Y-88192179D01*
X140730109Y-88020213D01*
X140579786Y-87869890D01*
X140407820Y-87744951D01*
X140407115Y-87744591D01*
X140399054Y-87740485D01*
X140348259Y-87692512D01*
X140331463Y-87624692D01*
X140353999Y-87558556D01*
X140399054Y-87519515D01*
X140407816Y-87515051D01*
X140429789Y-87499086D01*
X140579786Y-87390109D01*
X140579788Y-87390106D01*
X140579792Y-87390104D01*
X140730104Y-87239792D01*
X140730106Y-87239788D01*
X140730109Y-87239786D01*
X140855048Y-87067820D01*
X140855047Y-87067820D01*
X140855051Y-87067816D01*
X140951557Y-86878412D01*
X141017246Y-86676243D01*
X141050500Y-86466287D01*
X141050500Y-86253713D01*
X141017246Y-86043757D01*
X140951557Y-85841588D01*
X140855051Y-85652184D01*
X140855049Y-85652181D01*
X140855048Y-85652179D01*
X140730109Y-85480213D01*
X140579786Y-85329890D01*
X140407820Y-85204951D01*
X140407115Y-85204591D01*
X140399054Y-85200485D01*
X140348259Y-85152512D01*
X140331463Y-85084692D01*
X140353999Y-85018556D01*
X140399054Y-84979515D01*
X140407816Y-84975051D01*
X140429789Y-84959086D01*
X140579786Y-84850109D01*
X140579788Y-84850106D01*
X140579792Y-84850104D01*
X140730104Y-84699792D01*
X140730106Y-84699788D01*
X140730109Y-84699786D01*
X140855048Y-84527820D01*
X140855047Y-84527820D01*
X140855051Y-84527816D01*
X140951557Y-84338412D01*
X141017246Y-84136243D01*
X141050500Y-83926287D01*
X141050500Y-83713713D01*
X141017246Y-83503757D01*
X140951557Y-83301588D01*
X140855051Y-83112184D01*
X140855049Y-83112181D01*
X140855048Y-83112179D01*
X140730109Y-82940213D01*
X140579786Y-82789890D01*
X140407820Y-82664951D01*
X140399600Y-82660763D01*
X140399054Y-82660485D01*
X140348259Y-82612512D01*
X140331463Y-82544692D01*
X140353999Y-82478556D01*
X140399054Y-82439515D01*
X140407816Y-82435051D01*
X140429789Y-82419086D01*
X140579786Y-82310109D01*
X140579788Y-82310106D01*
X140579792Y-82310104D01*
X140730104Y-82159792D01*
X140730106Y-82159788D01*
X140730109Y-82159786D01*
X140855048Y-81987820D01*
X140855047Y-81987820D01*
X140855051Y-81987816D01*
X140951557Y-81798412D01*
X141017246Y-81596243D01*
X141050500Y-81386287D01*
X141050500Y-81173713D01*
X141017246Y-80963757D01*
X140951557Y-80761588D01*
X140855051Y-80572184D01*
X140855049Y-80572181D01*
X140855048Y-80572179D01*
X140730109Y-80400213D01*
X140579786Y-80249890D01*
X140407820Y-80124951D01*
X140407115Y-80124591D01*
X140399054Y-80120485D01*
X140348259Y-80072512D01*
X140331463Y-80004692D01*
X140353999Y-79938556D01*
X140399054Y-79899515D01*
X140407816Y-79895051D01*
X140429789Y-79879086D01*
X140579786Y-79770109D01*
X140579788Y-79770106D01*
X140579792Y-79770104D01*
X140730104Y-79619792D01*
X140730106Y-79619788D01*
X140730109Y-79619786D01*
X140855048Y-79447820D01*
X140855047Y-79447820D01*
X140855051Y-79447816D01*
X140951557Y-79258412D01*
X141017246Y-79056243D01*
X141050500Y-78846287D01*
X141050500Y-78633713D01*
X141017246Y-78423757D01*
X140951557Y-78221588D01*
X140855051Y-78032184D01*
X140855049Y-78032181D01*
X140855048Y-78032179D01*
X140730109Y-77860213D01*
X140579786Y-77709890D01*
X140407820Y-77584951D01*
X140407115Y-77584591D01*
X140399054Y-77580485D01*
X140348259Y-77532512D01*
X140331463Y-77464692D01*
X140353999Y-77398556D01*
X140399054Y-77359515D01*
X140407816Y-77355051D01*
X140429789Y-77339086D01*
X140579786Y-77230109D01*
X140579788Y-77230106D01*
X140579792Y-77230104D01*
X140730104Y-77079792D01*
X140730106Y-77079788D01*
X140730109Y-77079786D01*
X140855048Y-76907820D01*
X140855047Y-76907820D01*
X140855051Y-76907816D01*
X140951557Y-76718412D01*
X141017246Y-76516243D01*
X141050500Y-76306287D01*
X141050500Y-76093713D01*
X141017246Y-75883757D01*
X140951557Y-75681588D01*
X140855051Y-75492184D01*
X140855049Y-75492181D01*
X140855048Y-75492179D01*
X140730109Y-75320213D01*
X140579786Y-75169890D01*
X140407820Y-75044951D01*
X140407115Y-75044591D01*
X140399054Y-75040485D01*
X140348259Y-74992512D01*
X140331463Y-74924692D01*
X140353999Y-74858556D01*
X140399054Y-74819515D01*
X140407816Y-74815051D01*
X140494138Y-74752335D01*
X140579786Y-74690109D01*
X140579788Y-74690106D01*
X140579792Y-74690104D01*
X140730104Y-74539792D01*
X140730106Y-74539788D01*
X140730109Y-74539786D01*
X140855048Y-74367820D01*
X140855047Y-74367820D01*
X140855051Y-74367816D01*
X140951557Y-74178412D01*
X141017246Y-73976243D01*
X141050500Y-73766287D01*
X141050500Y-73553713D01*
X141017246Y-73343757D01*
X140951557Y-73141588D01*
X140855051Y-72952184D01*
X140855049Y-72952181D01*
X140855048Y-72952179D01*
X140730109Y-72780213D01*
X140579786Y-72629890D01*
X140407820Y-72504951D01*
X140407115Y-72504591D01*
X140399054Y-72500485D01*
X140348259Y-72452512D01*
X140331463Y-72384692D01*
X140353999Y-72318556D01*
X140399054Y-72279515D01*
X140407816Y-72275051D01*
X140429789Y-72259086D01*
X140579786Y-72150109D01*
X140579788Y-72150106D01*
X140579792Y-72150104D01*
X140730104Y-71999792D01*
X140730106Y-71999788D01*
X140730109Y-71999786D01*
X140855048Y-71827820D01*
X140855047Y-71827820D01*
X140855051Y-71827816D01*
X140951557Y-71638412D01*
X141017246Y-71436243D01*
X141050500Y-71226287D01*
X141050500Y-71013713D01*
X141017246Y-70803757D01*
X140951557Y-70601588D01*
X140855051Y-70412184D01*
X140855049Y-70412181D01*
X140855048Y-70412179D01*
X140730109Y-70240213D01*
X140579786Y-70089890D01*
X140407820Y-69964951D01*
X140407115Y-69964591D01*
X140399054Y-69960485D01*
X140348259Y-69912512D01*
X140331463Y-69844692D01*
X140353999Y-69778556D01*
X140399054Y-69739515D01*
X140407816Y-69735051D01*
X140429789Y-69719086D01*
X140579786Y-69610109D01*
X140579788Y-69610106D01*
X140579792Y-69610104D01*
X140730104Y-69459792D01*
X140730106Y-69459788D01*
X140730109Y-69459786D01*
X140855048Y-69287820D01*
X140855047Y-69287820D01*
X140855051Y-69287816D01*
X140951557Y-69098412D01*
X141017246Y-68896243D01*
X141050500Y-68686287D01*
X141050500Y-68473713D01*
X141017246Y-68263757D01*
X140951557Y-68061588D01*
X140855051Y-67872184D01*
X140855049Y-67872181D01*
X140855048Y-67872179D01*
X140730109Y-67700213D01*
X140579786Y-67549890D01*
X140407817Y-67424949D01*
X140398504Y-67420204D01*
X140347707Y-67372230D01*
X140330912Y-67304409D01*
X140353449Y-67238274D01*
X140398507Y-67199232D01*
X140407558Y-67194620D01*
X140579459Y-67069727D01*
X140579464Y-67069723D01*
X140729723Y-66919464D01*
X140729727Y-66919459D01*
X140854620Y-66747557D01*
X140951095Y-66558217D01*
X141016757Y-66356129D01*
X141016757Y-66356126D01*
X141027231Y-66290000D01*
X140133012Y-66290000D01*
X140165925Y-66232993D01*
X140200000Y-66105826D01*
X140200000Y-65974174D01*
X140165925Y-65847007D01*
X140133012Y-65790000D01*
X141027231Y-65790000D01*
X141016757Y-65723873D01*
X141016757Y-65723870D01*
X140951095Y-65521782D01*
X140854620Y-65332442D01*
X140729727Y-65160540D01*
X140729723Y-65160535D01*
X140579464Y-65010276D01*
X140579459Y-65010272D01*
X140407555Y-64885377D01*
X140398500Y-64880763D01*
X140347706Y-64832788D01*
X140330912Y-64764966D01*
X140353451Y-64698832D01*
X140398508Y-64659793D01*
X140407816Y-64655051D01*
X140494147Y-64592328D01*
X140579786Y-64530109D01*
X140579788Y-64530106D01*
X140579792Y-64530104D01*
X140730104Y-64379792D01*
X140730106Y-64379788D01*
X140730109Y-64379786D01*
X140855048Y-64207820D01*
X140855047Y-64207820D01*
X140855051Y-64207816D01*
X140951557Y-64018412D01*
X141017246Y-63816243D01*
X141050500Y-63606287D01*
X141050500Y-63393713D01*
X141016484Y-63178945D01*
X141018123Y-63178685D01*
X141021257Y-63116126D01*
X141050655Y-63069289D01*
X141517809Y-62602135D01*
X184069500Y-62602135D01*
X184069500Y-64397870D01*
X184069501Y-64397876D01*
X184075908Y-64457483D01*
X184126202Y-64592328D01*
X184126206Y-64592335D01*
X184212452Y-64707544D01*
X184212455Y-64707547D01*
X184327664Y-64793793D01*
X184327671Y-64793797D01*
X184327674Y-64793798D01*
X184459598Y-64843002D01*
X184515531Y-64884873D01*
X184539949Y-64950337D01*
X184525098Y-65018610D01*
X184503947Y-65046865D01*
X184390271Y-65160541D01*
X184265379Y-65332442D01*
X184168904Y-65521782D01*
X184103242Y-65723870D01*
X184103242Y-65723873D01*
X184092769Y-65790000D01*
X184986988Y-65790000D01*
X184954075Y-65847007D01*
X184920000Y-65974174D01*
X184920000Y-66105826D01*
X184954075Y-66232993D01*
X184986988Y-66290000D01*
X184092769Y-66290000D01*
X184103242Y-66356126D01*
X184103242Y-66356129D01*
X184168904Y-66558217D01*
X184265379Y-66747557D01*
X184390272Y-66919459D01*
X184390276Y-66919464D01*
X184540535Y-67069723D01*
X184540540Y-67069727D01*
X184712444Y-67194622D01*
X184721495Y-67199234D01*
X184772292Y-67247208D01*
X184789087Y-67315029D01*
X184766550Y-67381164D01*
X184721499Y-67420202D01*
X184712182Y-67424949D01*
X184540213Y-67549890D01*
X184389890Y-67700213D01*
X184264951Y-67872179D01*
X184168444Y-68061585D01*
X184102753Y-68263760D01*
X184069500Y-68473713D01*
X184069500Y-68686286D01*
X184102753Y-68896239D01*
X184168444Y-69098414D01*
X184264951Y-69287820D01*
X184389890Y-69459786D01*
X184540213Y-69610109D01*
X184712182Y-69735050D01*
X184720946Y-69739516D01*
X184771742Y-69787491D01*
X184788536Y-69855312D01*
X184765998Y-69921447D01*
X184720946Y-69960484D01*
X184712182Y-69964949D01*
X184540213Y-70089890D01*
X184389890Y-70240213D01*
X184264951Y-70412179D01*
X184168444Y-70601585D01*
X184102753Y-70803760D01*
X184069500Y-71013713D01*
X184069500Y-71226286D01*
X184102753Y-71436239D01*
X184168444Y-71638414D01*
X184264951Y-71827820D01*
X184389890Y-71999786D01*
X184540213Y-72150109D01*
X184712182Y-72275050D01*
X184720946Y-72279516D01*
X184771742Y-72327491D01*
X184788536Y-72395312D01*
X184765998Y-72461447D01*
X184720946Y-72500484D01*
X184712182Y-72504949D01*
X184540213Y-72629890D01*
X184389890Y-72780213D01*
X184264951Y-72952179D01*
X184168444Y-73141585D01*
X184102753Y-73343760D01*
X184069500Y-73553713D01*
X184069500Y-73766286D01*
X184102753Y-73976239D01*
X184168444Y-74178414D01*
X184264951Y-74367820D01*
X184389890Y-74539786D01*
X184540213Y-74690109D01*
X184712182Y-74815050D01*
X184720946Y-74819516D01*
X184771742Y-74867491D01*
X184788536Y-74935312D01*
X184765998Y-75001447D01*
X184720946Y-75040484D01*
X184712182Y-75044949D01*
X184540213Y-75169890D01*
X184389890Y-75320213D01*
X184264951Y-75492179D01*
X184168444Y-75681585D01*
X184102753Y-75883760D01*
X184069500Y-76093713D01*
X184069500Y-76306286D01*
X184102753Y-76516239D01*
X184168444Y-76718414D01*
X184264951Y-76907820D01*
X184389890Y-77079786D01*
X184540213Y-77230109D01*
X184712182Y-77355050D01*
X184720946Y-77359516D01*
X184771742Y-77407491D01*
X184788536Y-77475312D01*
X184765998Y-77541447D01*
X184720946Y-77580484D01*
X184712182Y-77584949D01*
X184540213Y-77709890D01*
X184389890Y-77860213D01*
X184264951Y-78032179D01*
X184168444Y-78221585D01*
X184102753Y-78423760D01*
X184069500Y-78633713D01*
X184069500Y-78846286D01*
X184102753Y-79056239D01*
X184168444Y-79258414D01*
X184264951Y-79447820D01*
X184389890Y-79619786D01*
X184540213Y-79770109D01*
X184712182Y-79895050D01*
X184720946Y-79899516D01*
X184771742Y-79947491D01*
X184788536Y-80015312D01*
X184765998Y-80081447D01*
X184720946Y-80120484D01*
X184712182Y-80124949D01*
X184540213Y-80249890D01*
X184389890Y-80400213D01*
X184264951Y-80572179D01*
X184168444Y-80761585D01*
X184102753Y-80963760D01*
X184069500Y-81173713D01*
X184069500Y-81386286D01*
X184102753Y-81596239D01*
X184168444Y-81798414D01*
X184264951Y-81987820D01*
X184389890Y-82159786D01*
X184540213Y-82310109D01*
X184712182Y-82435050D01*
X184720946Y-82439516D01*
X184771742Y-82487491D01*
X184788536Y-82555312D01*
X184765998Y-82621447D01*
X184720946Y-82660484D01*
X184712182Y-82664949D01*
X184540213Y-82789890D01*
X184389890Y-82940213D01*
X184264951Y-83112179D01*
X184168444Y-83301585D01*
X184102753Y-83503760D01*
X184069500Y-83713713D01*
X184069500Y-83926286D01*
X184102753Y-84136239D01*
X184168444Y-84338414D01*
X184264951Y-84527820D01*
X184389890Y-84699786D01*
X184540213Y-84850109D01*
X184712182Y-84975050D01*
X184720946Y-84979516D01*
X184771742Y-85027491D01*
X184788536Y-85095312D01*
X184765998Y-85161447D01*
X184720946Y-85200484D01*
X184712182Y-85204949D01*
X184540213Y-85329890D01*
X184389890Y-85480213D01*
X184264951Y-85652179D01*
X184168444Y-85841585D01*
X184102753Y-86043760D01*
X184069500Y-86253713D01*
X184069500Y-86466286D01*
X184102753Y-86676239D01*
X184168444Y-86878414D01*
X184264951Y-87067820D01*
X184389890Y-87239786D01*
X184540213Y-87390109D01*
X184712182Y-87515050D01*
X184720946Y-87519516D01*
X184771742Y-87567491D01*
X184788536Y-87635312D01*
X184765998Y-87701447D01*
X184720946Y-87740484D01*
X184712182Y-87744949D01*
X184540213Y-87869890D01*
X184389890Y-88020213D01*
X184264951Y-88192179D01*
X184168444Y-88381585D01*
X184102753Y-88583760D01*
X184069500Y-88793713D01*
X184069500Y-89006286D01*
X184102753Y-89216239D01*
X184168444Y-89418414D01*
X184264951Y-89607820D01*
X184389890Y-89779786D01*
X184540213Y-89930109D01*
X184712182Y-90055050D01*
X184720946Y-90059516D01*
X184771742Y-90107491D01*
X184788536Y-90175312D01*
X184765998Y-90241447D01*
X184720946Y-90280484D01*
X184712182Y-90284949D01*
X184540213Y-90409890D01*
X184389890Y-90560213D01*
X184264951Y-90732179D01*
X184168444Y-90921585D01*
X184102753Y-91123760D01*
X184069500Y-91333713D01*
X184069500Y-91546286D01*
X184102753Y-91756239D01*
X184168444Y-91958414D01*
X184264951Y-92147820D01*
X184389890Y-92319786D01*
X184540213Y-92470109D01*
X184712182Y-92595050D01*
X184720946Y-92599516D01*
X184771742Y-92647491D01*
X184788536Y-92715312D01*
X184765998Y-92781447D01*
X184720946Y-92820484D01*
X184712182Y-92824949D01*
X184540213Y-92949890D01*
X184389890Y-93100213D01*
X184264951Y-93272179D01*
X184168444Y-93461585D01*
X184102753Y-93663760D01*
X184069500Y-93873713D01*
X184069500Y-94086286D01*
X184102753Y-94296239D01*
X184168444Y-94498414D01*
X184264951Y-94687820D01*
X184389890Y-94859786D01*
X184540213Y-95010109D01*
X184712182Y-95135050D01*
X184720946Y-95139516D01*
X184771742Y-95187491D01*
X184788536Y-95255312D01*
X184765998Y-95321447D01*
X184720946Y-95360484D01*
X184712182Y-95364949D01*
X184540213Y-95489890D01*
X184389890Y-95640213D01*
X184264951Y-95812179D01*
X184168444Y-96001585D01*
X184102753Y-96203760D01*
X184069500Y-96413713D01*
X184069500Y-96626286D01*
X184102753Y-96836239D01*
X184168444Y-97038414D01*
X184264951Y-97227820D01*
X184389890Y-97399786D01*
X184540213Y-97550109D01*
X184712182Y-97675050D01*
X184720946Y-97679516D01*
X184771742Y-97727491D01*
X184788536Y-97795312D01*
X184765998Y-97861447D01*
X184720946Y-97900484D01*
X184712182Y-97904949D01*
X184540213Y-98029890D01*
X184389890Y-98180213D01*
X184264951Y-98352179D01*
X184168444Y-98541585D01*
X184102753Y-98743760D01*
X184069500Y-98953713D01*
X184069500Y-99166286D01*
X184102753Y-99376239D01*
X184168444Y-99578414D01*
X184264951Y-99767820D01*
X184389890Y-99939786D01*
X184540213Y-100090109D01*
X184712182Y-100215050D01*
X184720946Y-100219516D01*
X184771742Y-100267491D01*
X184788536Y-100335312D01*
X184765998Y-100401447D01*
X184720946Y-100440484D01*
X184712182Y-100444949D01*
X184540213Y-100569890D01*
X184389890Y-100720213D01*
X184264951Y-100892179D01*
X184168444Y-101081585D01*
X184102753Y-101283760D01*
X184069500Y-101493713D01*
X184069500Y-101706286D01*
X184102753Y-101916239D01*
X184168444Y-102118414D01*
X184264951Y-102307820D01*
X184389890Y-102479786D01*
X184540213Y-102630109D01*
X184712182Y-102755050D01*
X184720946Y-102759516D01*
X184771742Y-102807491D01*
X184788536Y-102875312D01*
X184765998Y-102941447D01*
X184720946Y-102980484D01*
X184712182Y-102984949D01*
X184540213Y-103109890D01*
X184389890Y-103260213D01*
X184264951Y-103432179D01*
X184168444Y-103621585D01*
X184102753Y-103823760D01*
X184069500Y-104033713D01*
X184069500Y-104246286D01*
X184102753Y-104456239D01*
X184168444Y-104658414D01*
X184264951Y-104847820D01*
X184389890Y-105019786D01*
X184540213Y-105170109D01*
X184712182Y-105295050D01*
X184720946Y-105299516D01*
X184771742Y-105347491D01*
X184788536Y-105415312D01*
X184765998Y-105481447D01*
X184720946Y-105520484D01*
X184712182Y-105524949D01*
X184540213Y-105649890D01*
X184389890Y-105800213D01*
X184264951Y-105972179D01*
X184168444Y-106161585D01*
X184102753Y-106363760D01*
X184069500Y-106573713D01*
X184069500Y-106786286D01*
X184102753Y-106996239D01*
X184168444Y-107198414D01*
X184264951Y-107387820D01*
X184389890Y-107559786D01*
X184540213Y-107710109D01*
X184712182Y-107835050D01*
X184720946Y-107839516D01*
X184771742Y-107887491D01*
X184788536Y-107955312D01*
X184765998Y-108021447D01*
X184720946Y-108060484D01*
X184712182Y-108064949D01*
X184540213Y-108189890D01*
X184389890Y-108340213D01*
X184264951Y-108512179D01*
X184168444Y-108701585D01*
X184102753Y-108903760D01*
X184069500Y-109113713D01*
X184069500Y-109326286D01*
X184102753Y-109536239D01*
X184168444Y-109738414D01*
X184264951Y-109927820D01*
X184389890Y-110099786D01*
X184540213Y-110250109D01*
X184712182Y-110375050D01*
X184720946Y-110379516D01*
X184771742Y-110427491D01*
X184788536Y-110495312D01*
X184765998Y-110561447D01*
X184720946Y-110600484D01*
X184712182Y-110604949D01*
X184540213Y-110729890D01*
X184389890Y-110880213D01*
X184264951Y-111052179D01*
X184168444Y-111241585D01*
X184102753Y-111443760D01*
X184069500Y-111653713D01*
X184069500Y-111866286D01*
X184102753Y-112076239D01*
X184168444Y-112278414D01*
X184264951Y-112467820D01*
X184389890Y-112639786D01*
X184540213Y-112790109D01*
X184712182Y-112915050D01*
X184720946Y-112919516D01*
X184771742Y-112967491D01*
X184788536Y-113035312D01*
X184765998Y-113101447D01*
X184720946Y-113140484D01*
X184712182Y-113144949D01*
X184540213Y-113269890D01*
X184389890Y-113420213D01*
X184264951Y-113592179D01*
X184168444Y-113781585D01*
X184102753Y-113983760D01*
X184069500Y-114193713D01*
X184069500Y-114406286D01*
X184102753Y-114616239D01*
X184168444Y-114818414D01*
X184264951Y-115007820D01*
X184389890Y-115179786D01*
X184540213Y-115330109D01*
X184712182Y-115455050D01*
X184720946Y-115459516D01*
X184771742Y-115507491D01*
X184788536Y-115575312D01*
X184765998Y-115641447D01*
X184720946Y-115680484D01*
X184712182Y-115684949D01*
X184540213Y-115809890D01*
X184389890Y-115960213D01*
X184264951Y-116132179D01*
X184168444Y-116321585D01*
X184102753Y-116523760D01*
X184069500Y-116733713D01*
X184069500Y-116946287D01*
X184102754Y-117156243D01*
X184104379Y-117161245D01*
X184168444Y-117358414D01*
X184264951Y-117547820D01*
X184389890Y-117719786D01*
X184540213Y-117870109D01*
X184712182Y-117995050D01*
X184720946Y-117999516D01*
X184771742Y-118047491D01*
X184788536Y-118115312D01*
X184765998Y-118181447D01*
X184720946Y-118220484D01*
X184712182Y-118224949D01*
X184540213Y-118349890D01*
X184389890Y-118500213D01*
X184264951Y-118672179D01*
X184168444Y-118861585D01*
X184102753Y-119063760D01*
X184069500Y-119273713D01*
X184069500Y-119486286D01*
X184102753Y-119696239D01*
X184168444Y-119898414D01*
X184264951Y-120087820D01*
X184389890Y-120259786D01*
X184540213Y-120410109D01*
X184712179Y-120535048D01*
X184712181Y-120535049D01*
X184712184Y-120535051D01*
X184721493Y-120539794D01*
X184772290Y-120587766D01*
X184789087Y-120655587D01*
X184766552Y-120721722D01*
X184721502Y-120760762D01*
X184712443Y-120765378D01*
X184540540Y-120890272D01*
X184540535Y-120890276D01*
X184390276Y-121040535D01*
X184390272Y-121040540D01*
X184265379Y-121212442D01*
X184168904Y-121401782D01*
X184103242Y-121603870D01*
X184103242Y-121603873D01*
X184092769Y-121670000D01*
X184986988Y-121670000D01*
X184954075Y-121727007D01*
X184920000Y-121854174D01*
X184920000Y-121985826D01*
X184954075Y-122112993D01*
X184986988Y-122170000D01*
X184092769Y-122170000D01*
X184103242Y-122236126D01*
X184103242Y-122236129D01*
X184168904Y-122438217D01*
X184265379Y-122627557D01*
X184390272Y-122799459D01*
X184390276Y-122799464D01*
X184540535Y-122949723D01*
X184540540Y-122949727D01*
X184712442Y-123074620D01*
X184901782Y-123171095D01*
X185103871Y-123236757D01*
X185170000Y-123247231D01*
X185170000Y-122353012D01*
X185227007Y-122385925D01*
X185354174Y-122420000D01*
X185485826Y-122420000D01*
X185612993Y-122385925D01*
X185670000Y-122353012D01*
X185670000Y-123247231D01*
X185736126Y-123236757D01*
X185736129Y-123236757D01*
X185938217Y-123171095D01*
X186127557Y-123074620D01*
X186299459Y-122949727D01*
X186299464Y-122949723D01*
X186449723Y-122799464D01*
X186449727Y-122799459D01*
X186574620Y-122627558D01*
X186579514Y-122617954D01*
X186627488Y-122567157D01*
X186695308Y-122550361D01*
X186761444Y-122572897D01*
X186800486Y-122617954D01*
X186805379Y-122627558D01*
X186930272Y-122799459D01*
X186930276Y-122799464D01*
X187080535Y-122949723D01*
X187080540Y-122949727D01*
X187252442Y-123074620D01*
X187441782Y-123171095D01*
X187643871Y-123236757D01*
X187710000Y-123247231D01*
X187710000Y-122353012D01*
X187767007Y-122385925D01*
X187894174Y-122420000D01*
X188025826Y-122420000D01*
X188152993Y-122385925D01*
X188210000Y-122353012D01*
X188210000Y-123247230D01*
X188276126Y-123236757D01*
X188276129Y-123236757D01*
X188478217Y-123171095D01*
X188667557Y-123074620D01*
X188839459Y-122949727D01*
X188839464Y-122949723D01*
X188989723Y-122799464D01*
X188989727Y-122799459D01*
X189114620Y-122627557D01*
X189211095Y-122438217D01*
X189276757Y-122236129D01*
X189276757Y-122236126D01*
X189287231Y-122170000D01*
X188393012Y-122170000D01*
X188425925Y-122112993D01*
X188460000Y-121985826D01*
X188460000Y-121854174D01*
X188425925Y-121727007D01*
X188393012Y-121670000D01*
X189287231Y-121670000D01*
X189276757Y-121603873D01*
X189276757Y-121603870D01*
X189253346Y-121531818D01*
X189251351Y-121461977D01*
X189287431Y-121402144D01*
X189350132Y-121371316D01*
X189371277Y-121369500D01*
X194058192Y-121369500D01*
X194125231Y-121389185D01*
X194145873Y-121405819D01*
X196769342Y-124029288D01*
X196802827Y-124090611D01*
X196802319Y-124138755D01*
X196803516Y-124138945D01*
X196769500Y-124353713D01*
X196769500Y-124566286D01*
X196802753Y-124776239D01*
X196868444Y-124978414D01*
X196964951Y-125167820D01*
X197089890Y-125339786D01*
X197240213Y-125490109D01*
X197412182Y-125615050D01*
X197420946Y-125619516D01*
X197471742Y-125667491D01*
X197488536Y-125735312D01*
X197465998Y-125801447D01*
X197420946Y-125840484D01*
X197412182Y-125844949D01*
X197240213Y-125969890D01*
X197089890Y-126120213D01*
X196964951Y-126292179D01*
X196868444Y-126481585D01*
X196802753Y-126683760D01*
X196769500Y-126893713D01*
X196769500Y-127106286D01*
X196802753Y-127316239D01*
X196868444Y-127518414D01*
X196964951Y-127707820D01*
X197089890Y-127879786D01*
X197240213Y-128030109D01*
X197412179Y-128155048D01*
X197412181Y-128155049D01*
X197412184Y-128155051D01*
X197421493Y-128159794D01*
X197472290Y-128207766D01*
X197489087Y-128275587D01*
X197466552Y-128341722D01*
X197421502Y-128380762D01*
X197412443Y-128385378D01*
X197240540Y-128510272D01*
X197240535Y-128510276D01*
X197090276Y-128660535D01*
X197090272Y-128660540D01*
X196965379Y-128832442D01*
X196868904Y-129021782D01*
X196803242Y-129223870D01*
X196803242Y-129223873D01*
X196792769Y-129290000D01*
X197686988Y-129290000D01*
X197654075Y-129347007D01*
X197620000Y-129474174D01*
X197620000Y-129605826D01*
X197654075Y-129732993D01*
X197686988Y-129790000D01*
X196792769Y-129790000D01*
X196803242Y-129856126D01*
X196803242Y-129856129D01*
X196868904Y-130058217D01*
X196965379Y-130247557D01*
X197090272Y-130419459D01*
X197090276Y-130419464D01*
X197240535Y-130569723D01*
X197240540Y-130569727D01*
X197412444Y-130694622D01*
X197421495Y-130699234D01*
X197472292Y-130747208D01*
X197489087Y-130815029D01*
X197466550Y-130881164D01*
X197421499Y-130920202D01*
X197412182Y-130924949D01*
X197240213Y-131049890D01*
X197089890Y-131200213D01*
X196964951Y-131372179D01*
X196868444Y-131561585D01*
X196802753Y-131763760D01*
X196769500Y-131973713D01*
X196769500Y-132186286D01*
X196802753Y-132396239D01*
X196868444Y-132598414D01*
X196964951Y-132787820D01*
X197089890Y-132959786D01*
X197240213Y-133110109D01*
X197412179Y-133235048D01*
X197412181Y-133235049D01*
X197412184Y-133235051D01*
X197601588Y-133331557D01*
X197803757Y-133397246D01*
X198013713Y-133430500D01*
X198013714Y-133430500D01*
X198226286Y-133430500D01*
X198226287Y-133430500D01*
X198436243Y-133397246D01*
X198638412Y-133331557D01*
X198827816Y-133235051D01*
X198849789Y-133219086D01*
X198999786Y-133110109D01*
X198999788Y-133110106D01*
X198999792Y-133110104D01*
X199150104Y-132959792D01*
X199150106Y-132959788D01*
X199150109Y-132959786D01*
X199275048Y-132787820D01*
X199275047Y-132787820D01*
X199275051Y-132787816D01*
X199279514Y-132779054D01*
X199327488Y-132728259D01*
X199395308Y-132711463D01*
X199461444Y-132733999D01*
X199500486Y-132779056D01*
X199504951Y-132787820D01*
X199629890Y-132959786D01*
X199780213Y-133110109D01*
X199952179Y-133235048D01*
X199952181Y-133235049D01*
X199952184Y-133235051D01*
X200141588Y-133331557D01*
X200343757Y-133397246D01*
X200553713Y-133430500D01*
X200553714Y-133430500D01*
X200766286Y-133430500D01*
X200766287Y-133430500D01*
X200976243Y-133397246D01*
X201178412Y-133331557D01*
X201367816Y-133235051D01*
X201389789Y-133219086D01*
X201539786Y-133110109D01*
X201539788Y-133110106D01*
X201539792Y-133110104D01*
X201690104Y-132959792D01*
X201690106Y-132959788D01*
X201690109Y-132959786D01*
X201815048Y-132787820D01*
X201815047Y-132787820D01*
X201815051Y-132787816D01*
X201911557Y-132598412D01*
X201977246Y-132396243D01*
X202010500Y-132186287D01*
X202010500Y-131973713D01*
X201977246Y-131763757D01*
X201911557Y-131561588D01*
X201815051Y-131372184D01*
X201815049Y-131372181D01*
X201815048Y-131372179D01*
X201690109Y-131200213D01*
X201539786Y-131049890D01*
X201367817Y-130924949D01*
X201358504Y-130920204D01*
X201307707Y-130872230D01*
X201290912Y-130804409D01*
X201313449Y-130738274D01*
X201358507Y-130699232D01*
X201367558Y-130694620D01*
X201539459Y-130569727D01*
X201539464Y-130569723D01*
X201689723Y-130419464D01*
X201689727Y-130419459D01*
X201814620Y-130247557D01*
X201911095Y-130058217D01*
X201976757Y-129856129D01*
X201976757Y-129856126D01*
X201987231Y-129790000D01*
X201093012Y-129790000D01*
X201125925Y-129732993D01*
X201160000Y-129605826D01*
X201160000Y-129474174D01*
X201125925Y-129347007D01*
X201093012Y-129290000D01*
X201987231Y-129290000D01*
X201976757Y-129223873D01*
X201976757Y-129223870D01*
X201911095Y-129021782D01*
X201814620Y-128832442D01*
X201689727Y-128660540D01*
X201689723Y-128660535D01*
X201539464Y-128510276D01*
X201539459Y-128510272D01*
X201367555Y-128385377D01*
X201358500Y-128380763D01*
X201307706Y-128332788D01*
X201290912Y-128264966D01*
X201313451Y-128198832D01*
X201358508Y-128159793D01*
X201367816Y-128155051D01*
X201447007Y-128097515D01*
X201539786Y-128030109D01*
X201539788Y-128030106D01*
X201539792Y-128030104D01*
X201690104Y-127879792D01*
X201690106Y-127879788D01*
X201690109Y-127879786D01*
X201815048Y-127707820D01*
X201815047Y-127707820D01*
X201815051Y-127707816D01*
X201911557Y-127518412D01*
X201977246Y-127316243D01*
X202010500Y-127106287D01*
X202010500Y-126893713D01*
X201977246Y-126683757D01*
X201911557Y-126481588D01*
X201815051Y-126292184D01*
X201815049Y-126292181D01*
X201815048Y-126292179D01*
X201690109Y-126120213D01*
X201539786Y-125969890D01*
X201367820Y-125844951D01*
X201367115Y-125844591D01*
X201359054Y-125840485D01*
X201308259Y-125792512D01*
X201291463Y-125724692D01*
X201313999Y-125658556D01*
X201359054Y-125619515D01*
X201367816Y-125615051D01*
X201389789Y-125599086D01*
X201539786Y-125490109D01*
X201539788Y-125490106D01*
X201539792Y-125490104D01*
X201690104Y-125339792D01*
X201690106Y-125339788D01*
X201690109Y-125339786D01*
X201815048Y-125167820D01*
X201815047Y-125167820D01*
X201815051Y-125167816D01*
X201911557Y-124978412D01*
X201977246Y-124776243D01*
X202010500Y-124566287D01*
X202010500Y-124353713D01*
X201977246Y-124143757D01*
X201911557Y-123941588D01*
X201815051Y-123752184D01*
X201815049Y-123752181D01*
X201815048Y-123752179D01*
X201690109Y-123580213D01*
X201539786Y-123429890D01*
X201367820Y-123304951D01*
X201367115Y-123304591D01*
X201359054Y-123300485D01*
X201308259Y-123252512D01*
X201291463Y-123184692D01*
X201313999Y-123118556D01*
X201359054Y-123079515D01*
X201367816Y-123075051D01*
X201389789Y-123059086D01*
X201539786Y-122950109D01*
X201539788Y-122950106D01*
X201539792Y-122950104D01*
X201690104Y-122799792D01*
X201690106Y-122799788D01*
X201690109Y-122799786D01*
X201815048Y-122627820D01*
X201815047Y-122627820D01*
X201815051Y-122627816D01*
X201911557Y-122438412D01*
X201977246Y-122236243D01*
X202010500Y-122026287D01*
X202010500Y-121813713D01*
X201977246Y-121603757D01*
X201911557Y-121401588D01*
X201815051Y-121212184D01*
X201815049Y-121212181D01*
X201815048Y-121212179D01*
X201690109Y-121040213D01*
X201539786Y-120889890D01*
X201367820Y-120764951D01*
X201359600Y-120760763D01*
X201359054Y-120760485D01*
X201308259Y-120712512D01*
X201291463Y-120644692D01*
X201313999Y-120578556D01*
X201359054Y-120539515D01*
X201367816Y-120535051D01*
X201454138Y-120472335D01*
X201539786Y-120410109D01*
X201539788Y-120410106D01*
X201539792Y-120410104D01*
X201690104Y-120259792D01*
X201690106Y-120259788D01*
X201690109Y-120259786D01*
X201810922Y-120093499D01*
X201815051Y-120087816D01*
X201911557Y-119898412D01*
X201977246Y-119696243D01*
X202010500Y-119486287D01*
X202010500Y-119273713D01*
X201977246Y-119063757D01*
X201911557Y-118861588D01*
X201815051Y-118672184D01*
X201815049Y-118672181D01*
X201815048Y-118672179D01*
X201690109Y-118500213D01*
X201539786Y-118349890D01*
X201367820Y-118224951D01*
X201178414Y-118128444D01*
X201178413Y-118128443D01*
X201178412Y-118128443D01*
X200976243Y-118062754D01*
X200976241Y-118062753D01*
X200976240Y-118062753D01*
X200814957Y-118037208D01*
X200766287Y-118029500D01*
X200553713Y-118029500D01*
X200443888Y-118046894D01*
X200338945Y-118063516D01*
X200338686Y-118061882D01*
X200276094Y-118058730D01*
X200229288Y-118029342D01*
X199873674Y-117673727D01*
X199873673Y-117673726D01*
X199873669Y-117673723D01*
X199767127Y-117602535D01*
X199648744Y-117553499D01*
X199648738Y-117553497D01*
X199523071Y-117528500D01*
X199523069Y-117528500D01*
X189619808Y-117528500D01*
X189552769Y-117508815D01*
X189532127Y-117492181D01*
X189310657Y-117270711D01*
X189277172Y-117209388D01*
X189277689Y-117161245D01*
X189276484Y-117161055D01*
X189310500Y-116946286D01*
X189310500Y-116733713D01*
X189277246Y-116523760D01*
X189277246Y-116523757D01*
X189211557Y-116321588D01*
X189115051Y-116132184D01*
X189115049Y-116132181D01*
X189115048Y-116132179D01*
X188990109Y-115960213D01*
X188839786Y-115809890D01*
X188667820Y-115684951D01*
X188667115Y-115684591D01*
X188659054Y-115680485D01*
X188608259Y-115632512D01*
X188591463Y-115564692D01*
X188613999Y-115498556D01*
X188659054Y-115459515D01*
X188667816Y-115455051D01*
X188689789Y-115439086D01*
X188839786Y-115330109D01*
X188839788Y-115330106D01*
X188839792Y-115330104D01*
X188990104Y-115179792D01*
X188990106Y-115179788D01*
X188990109Y-115179786D01*
X189115048Y-115007820D01*
X189115047Y-115007820D01*
X189115051Y-115007816D01*
X189211557Y-114818412D01*
X189277246Y-114616243D01*
X189310500Y-114406287D01*
X189310500Y-114193713D01*
X189277246Y-113983757D01*
X189211557Y-113781588D01*
X189115051Y-113592184D01*
X189115049Y-113592181D01*
X189115048Y-113592179D01*
X188990109Y-113420213D01*
X188839786Y-113269890D01*
X188667820Y-113144951D01*
X188667115Y-113144591D01*
X188659054Y-113140485D01*
X188608259Y-113092512D01*
X188591463Y-113024692D01*
X188613999Y-112958556D01*
X188659054Y-112919515D01*
X188667816Y-112915051D01*
X188689789Y-112899086D01*
X188839786Y-112790109D01*
X188839788Y-112790106D01*
X188839792Y-112790104D01*
X188990104Y-112639792D01*
X188990106Y-112639788D01*
X188990109Y-112639786D01*
X189115048Y-112467820D01*
X189115047Y-112467820D01*
X189115051Y-112467816D01*
X189211557Y-112278412D01*
X189277246Y-112076243D01*
X189310500Y-111866287D01*
X189310500Y-111653713D01*
X189277246Y-111443757D01*
X189211557Y-111241588D01*
X189115051Y-111052184D01*
X189115049Y-111052181D01*
X189115048Y-111052179D01*
X188990109Y-110880213D01*
X188839786Y-110729890D01*
X188667820Y-110604951D01*
X188667115Y-110604591D01*
X188659054Y-110600485D01*
X188608259Y-110552512D01*
X188591463Y-110484692D01*
X188613999Y-110418556D01*
X188659054Y-110379515D01*
X188667816Y-110375051D01*
X188689789Y-110359086D01*
X188839786Y-110250109D01*
X188839788Y-110250106D01*
X188839792Y-110250104D01*
X188990104Y-110099792D01*
X188990106Y-110099788D01*
X188990109Y-110099786D01*
X189115048Y-109927820D01*
X189115047Y-109927820D01*
X189115051Y-109927816D01*
X189211557Y-109738412D01*
X189277246Y-109536243D01*
X189310500Y-109326287D01*
X189310500Y-109113713D01*
X189277246Y-108903757D01*
X189211557Y-108701588D01*
X189115051Y-108512184D01*
X189115049Y-108512181D01*
X189115048Y-108512179D01*
X188990109Y-108340213D01*
X188839786Y-108189890D01*
X188667820Y-108064951D01*
X188667115Y-108064591D01*
X188659054Y-108060485D01*
X188608259Y-108012512D01*
X188591463Y-107944692D01*
X188613999Y-107878556D01*
X188659054Y-107839515D01*
X188667816Y-107835051D01*
X188689789Y-107819086D01*
X188839786Y-107710109D01*
X188839788Y-107710106D01*
X188839792Y-107710104D01*
X188990104Y-107559792D01*
X188990106Y-107559788D01*
X188990109Y-107559786D01*
X189115048Y-107387820D01*
X189115047Y-107387820D01*
X189115051Y-107387816D01*
X189211557Y-107198412D01*
X189277246Y-106996243D01*
X189310500Y-106786287D01*
X189310500Y-106573713D01*
X189277246Y-106363757D01*
X189211557Y-106161588D01*
X189115051Y-105972184D01*
X189115049Y-105972181D01*
X189115048Y-105972179D01*
X188990109Y-105800213D01*
X188839786Y-105649890D01*
X188667820Y-105524951D01*
X188659600Y-105520763D01*
X188659054Y-105520485D01*
X188608259Y-105472512D01*
X188591463Y-105404692D01*
X188613999Y-105338556D01*
X188659054Y-105299515D01*
X188667816Y-105295051D01*
X188689789Y-105279086D01*
X188839786Y-105170109D01*
X188839788Y-105170106D01*
X188839792Y-105170104D01*
X188990104Y-105019792D01*
X188990106Y-105019788D01*
X188990109Y-105019786D01*
X189115048Y-104847820D01*
X189115047Y-104847820D01*
X189115051Y-104847816D01*
X189211557Y-104658412D01*
X189277246Y-104456243D01*
X189310500Y-104246287D01*
X189310500Y-104033713D01*
X189277246Y-103823757D01*
X189211557Y-103621588D01*
X189115051Y-103432184D01*
X189115049Y-103432181D01*
X189115048Y-103432179D01*
X188990109Y-103260213D01*
X188839786Y-103109890D01*
X188667820Y-102984951D01*
X188667115Y-102984591D01*
X188659054Y-102980485D01*
X188608259Y-102932512D01*
X188591463Y-102864692D01*
X188613999Y-102798556D01*
X188659054Y-102759515D01*
X188667816Y-102755051D01*
X188689789Y-102739086D01*
X188839786Y-102630109D01*
X188839788Y-102630106D01*
X188839792Y-102630104D01*
X188990104Y-102479792D01*
X188990106Y-102479788D01*
X188990109Y-102479786D01*
X189115048Y-102307820D01*
X189115047Y-102307820D01*
X189115051Y-102307816D01*
X189211557Y-102118412D01*
X189277246Y-101916243D01*
X189310500Y-101706287D01*
X189310500Y-101493713D01*
X189277246Y-101283757D01*
X189211557Y-101081588D01*
X189115051Y-100892184D01*
X189115049Y-100892181D01*
X189115048Y-100892179D01*
X188990109Y-100720213D01*
X188839786Y-100569890D01*
X188667820Y-100444951D01*
X188667115Y-100444591D01*
X188659054Y-100440485D01*
X188608259Y-100392512D01*
X188591463Y-100324692D01*
X188613999Y-100258556D01*
X188659054Y-100219515D01*
X188667816Y-100215051D01*
X188689789Y-100199086D01*
X188839786Y-100090109D01*
X188839788Y-100090106D01*
X188839792Y-100090104D01*
X188990104Y-99939792D01*
X188990106Y-99939788D01*
X188990109Y-99939786D01*
X189115048Y-99767820D01*
X189115047Y-99767820D01*
X189115051Y-99767816D01*
X189211557Y-99578412D01*
X189277246Y-99376243D01*
X189310500Y-99166287D01*
X189310500Y-98953713D01*
X189277246Y-98743757D01*
X189211557Y-98541588D01*
X189115051Y-98352184D01*
X189115049Y-98352181D01*
X189115048Y-98352179D01*
X188990109Y-98180213D01*
X188839786Y-98029890D01*
X188667820Y-97904951D01*
X188667115Y-97904591D01*
X188659054Y-97900485D01*
X188608259Y-97852512D01*
X188591463Y-97784692D01*
X188613999Y-97718556D01*
X188659054Y-97679515D01*
X188667816Y-97675051D01*
X188754138Y-97612335D01*
X188839786Y-97550109D01*
X188839788Y-97550106D01*
X188839792Y-97550104D01*
X188990104Y-97399792D01*
X188990106Y-97399788D01*
X188990109Y-97399786D01*
X189115048Y-97227820D01*
X189115047Y-97227820D01*
X189115051Y-97227816D01*
X189211557Y-97038412D01*
X189277246Y-96836243D01*
X189310500Y-96626287D01*
X189310500Y-96413713D01*
X189277246Y-96203757D01*
X189211557Y-96001588D01*
X189115051Y-95812184D01*
X188990104Y-95640208D01*
X188972031Y-95622135D01*
X196769500Y-95622135D01*
X196769500Y-97417870D01*
X196769501Y-97417876D01*
X196775908Y-97477483D01*
X196826202Y-97612328D01*
X196826206Y-97612335D01*
X196912452Y-97727544D01*
X196912455Y-97727547D01*
X197027664Y-97813793D01*
X197027671Y-97813797D01*
X197159082Y-97862810D01*
X197215016Y-97904681D01*
X197239433Y-97970145D01*
X197224582Y-98038418D01*
X197203431Y-98066673D01*
X197089889Y-98180215D01*
X196964951Y-98352179D01*
X196868444Y-98541585D01*
X196802753Y-98743760D01*
X196769500Y-98953713D01*
X196769500Y-99166286D01*
X196802753Y-99376239D01*
X196868444Y-99578414D01*
X196964951Y-99767820D01*
X197089890Y-99939786D01*
X197240213Y-100090109D01*
X197412182Y-100215050D01*
X197420946Y-100219516D01*
X197471742Y-100267491D01*
X197488536Y-100335312D01*
X197465998Y-100401447D01*
X197420946Y-100440484D01*
X197412182Y-100444949D01*
X197240213Y-100569890D01*
X197089890Y-100720213D01*
X196964951Y-100892179D01*
X196868444Y-101081585D01*
X196802753Y-101283760D01*
X196769500Y-101493713D01*
X196769500Y-101706286D01*
X196802753Y-101916239D01*
X196868444Y-102118414D01*
X196964951Y-102307820D01*
X197089890Y-102479786D01*
X197240213Y-102630109D01*
X197412182Y-102755050D01*
X197420946Y-102759516D01*
X197471742Y-102807491D01*
X197488536Y-102875312D01*
X197465998Y-102941447D01*
X197420946Y-102980484D01*
X197412182Y-102984949D01*
X197240213Y-103109890D01*
X197089890Y-103260213D01*
X196964951Y-103432179D01*
X196868444Y-103621585D01*
X196802753Y-103823760D01*
X196769500Y-104033713D01*
X196769500Y-104246286D01*
X196802753Y-104456239D01*
X196868444Y-104658414D01*
X196964951Y-104847820D01*
X197089890Y-105019786D01*
X197240213Y-105170109D01*
X197412179Y-105295048D01*
X197412181Y-105295049D01*
X197412184Y-105295051D01*
X197421493Y-105299794D01*
X197472290Y-105347766D01*
X197489087Y-105415587D01*
X197466552Y-105481722D01*
X197421502Y-105520762D01*
X197412443Y-105525378D01*
X197240540Y-105650272D01*
X197240535Y-105650276D01*
X197090276Y-105800535D01*
X197090272Y-105800540D01*
X196965379Y-105972442D01*
X196868904Y-106161782D01*
X196803242Y-106363870D01*
X196803242Y-106363873D01*
X196792769Y-106430000D01*
X197686988Y-106430000D01*
X197654075Y-106487007D01*
X197620000Y-106614174D01*
X197620000Y-106745826D01*
X197654075Y-106872993D01*
X197686988Y-106930000D01*
X196792769Y-106930000D01*
X196803242Y-106996126D01*
X196803242Y-106996129D01*
X196868904Y-107198217D01*
X196965379Y-107387557D01*
X197090272Y-107559459D01*
X197090276Y-107559464D01*
X197240535Y-107709723D01*
X197240540Y-107709727D01*
X197412444Y-107834622D01*
X197421495Y-107839234D01*
X197472292Y-107887208D01*
X197489087Y-107955029D01*
X197466550Y-108021164D01*
X197421499Y-108060202D01*
X197412182Y-108064949D01*
X197240213Y-108189890D01*
X197089890Y-108340213D01*
X196964951Y-108512179D01*
X196868444Y-108701585D01*
X196802753Y-108903760D01*
X196769500Y-109113713D01*
X196769500Y-109326286D01*
X196802753Y-109536239D01*
X196868444Y-109738414D01*
X196964951Y-109927820D01*
X197089890Y-110099786D01*
X197240213Y-110250109D01*
X197412179Y-110375048D01*
X197412181Y-110375049D01*
X197412184Y-110375051D01*
X197601588Y-110471557D01*
X197803757Y-110537246D01*
X198013713Y-110570500D01*
X198013714Y-110570500D01*
X198226286Y-110570500D01*
X198226287Y-110570500D01*
X198436243Y-110537246D01*
X198638412Y-110471557D01*
X198827816Y-110375051D01*
X198849789Y-110359086D01*
X198999786Y-110250109D01*
X198999788Y-110250106D01*
X198999792Y-110250104D01*
X199150104Y-110099792D01*
X199150106Y-110099788D01*
X199150109Y-110099786D01*
X199275048Y-109927820D01*
X199275047Y-109927820D01*
X199275051Y-109927816D01*
X199279514Y-109919054D01*
X199327488Y-109868259D01*
X199395308Y-109851463D01*
X199461444Y-109873999D01*
X199500486Y-109919056D01*
X199504951Y-109927820D01*
X199629890Y-110099786D01*
X199780213Y-110250109D01*
X199952179Y-110375048D01*
X199952181Y-110375049D01*
X199952184Y-110375051D01*
X200141588Y-110471557D01*
X200343757Y-110537246D01*
X200553713Y-110570500D01*
X200553714Y-110570500D01*
X200766286Y-110570500D01*
X200766287Y-110570500D01*
X200976243Y-110537246D01*
X201178412Y-110471557D01*
X201367816Y-110375051D01*
X201389789Y-110359086D01*
X201539786Y-110250109D01*
X201539788Y-110250106D01*
X201539792Y-110250104D01*
X201690104Y-110099792D01*
X201690106Y-110099788D01*
X201690109Y-110099786D01*
X201815048Y-109927820D01*
X201815047Y-109927820D01*
X201815051Y-109927816D01*
X201911557Y-109738412D01*
X201977246Y-109536243D01*
X202010500Y-109326287D01*
X202010500Y-109113713D01*
X201977246Y-108903757D01*
X201911557Y-108701588D01*
X201815051Y-108512184D01*
X201815049Y-108512181D01*
X201815048Y-108512179D01*
X201690109Y-108340213D01*
X201539786Y-108189890D01*
X201367817Y-108064949D01*
X201358504Y-108060204D01*
X201307707Y-108012230D01*
X201290912Y-107944409D01*
X201313449Y-107878274D01*
X201358507Y-107839232D01*
X201367558Y-107834620D01*
X201539459Y-107709727D01*
X201539464Y-107709723D01*
X201689723Y-107559464D01*
X201689727Y-107559459D01*
X201814620Y-107387557D01*
X201911095Y-107198217D01*
X201976757Y-106996129D01*
X201976757Y-106996126D01*
X201987231Y-106930000D01*
X201093012Y-106930000D01*
X201125925Y-106872993D01*
X201160000Y-106745826D01*
X201160000Y-106614174D01*
X201125925Y-106487007D01*
X201093012Y-106430000D01*
X201987231Y-106430000D01*
X201976757Y-106363873D01*
X201976757Y-106363870D01*
X201911095Y-106161782D01*
X201814620Y-105972442D01*
X201689727Y-105800540D01*
X201689723Y-105800535D01*
X201539464Y-105650276D01*
X201539459Y-105650272D01*
X201367555Y-105525377D01*
X201358500Y-105520763D01*
X201307706Y-105472788D01*
X201290912Y-105404966D01*
X201313451Y-105338832D01*
X201358508Y-105299793D01*
X201367816Y-105295051D01*
X201447007Y-105237515D01*
X201539786Y-105170109D01*
X201539788Y-105170106D01*
X201539792Y-105170104D01*
X201690104Y-105019792D01*
X201690106Y-105019788D01*
X201690109Y-105019786D01*
X201815048Y-104847820D01*
X201815047Y-104847820D01*
X201815051Y-104847816D01*
X201911557Y-104658412D01*
X201977246Y-104456243D01*
X202010500Y-104246287D01*
X202010500Y-104033713D01*
X201977246Y-103823757D01*
X201911557Y-103621588D01*
X201815051Y-103432184D01*
X201815049Y-103432181D01*
X201815048Y-103432179D01*
X201690109Y-103260213D01*
X201539786Y-103109890D01*
X201367820Y-102984951D01*
X201367115Y-102984591D01*
X201359054Y-102980485D01*
X201308259Y-102932512D01*
X201291463Y-102864692D01*
X201313999Y-102798556D01*
X201359054Y-102759515D01*
X201367816Y-102755051D01*
X201389789Y-102739086D01*
X201539786Y-102630109D01*
X201539788Y-102630106D01*
X201539792Y-102630104D01*
X201690104Y-102479792D01*
X201690106Y-102479788D01*
X201690109Y-102479786D01*
X201815048Y-102307820D01*
X201815047Y-102307820D01*
X201815051Y-102307816D01*
X201911557Y-102118412D01*
X201977246Y-101916243D01*
X202010500Y-101706287D01*
X202010500Y-101493713D01*
X201977246Y-101283757D01*
X201911557Y-101081588D01*
X201815051Y-100892184D01*
X201815049Y-100892181D01*
X201815048Y-100892179D01*
X201690109Y-100720213D01*
X201539786Y-100569890D01*
X201367820Y-100444951D01*
X201367115Y-100444591D01*
X201359054Y-100440485D01*
X201308259Y-100392512D01*
X201291463Y-100324692D01*
X201313999Y-100258556D01*
X201359054Y-100219515D01*
X201367816Y-100215051D01*
X201389789Y-100199086D01*
X201539786Y-100090109D01*
X201539788Y-100090106D01*
X201539792Y-100090104D01*
X201690104Y-99939792D01*
X201690106Y-99939788D01*
X201690109Y-99939786D01*
X201815048Y-99767820D01*
X201815047Y-99767820D01*
X201815051Y-99767816D01*
X201911557Y-99578412D01*
X201977246Y-99376243D01*
X202010500Y-99166287D01*
X202010500Y-98953713D01*
X201977246Y-98743757D01*
X201911557Y-98541588D01*
X201815051Y-98352184D01*
X201815049Y-98352181D01*
X201815048Y-98352179D01*
X201690109Y-98180213D01*
X201539786Y-98029890D01*
X201367820Y-97904951D01*
X201367115Y-97904591D01*
X201359054Y-97900485D01*
X201308259Y-97852512D01*
X201291463Y-97784692D01*
X201313999Y-97718556D01*
X201359054Y-97679515D01*
X201367816Y-97675051D01*
X201454138Y-97612335D01*
X201539786Y-97550109D01*
X201539788Y-97550106D01*
X201539792Y-97550104D01*
X201690104Y-97399792D01*
X201690106Y-97399788D01*
X201690109Y-97399786D01*
X201815048Y-97227820D01*
X201815047Y-97227820D01*
X201815051Y-97227816D01*
X201911557Y-97038412D01*
X201977246Y-96836243D01*
X202010500Y-96626287D01*
X202010500Y-96413713D01*
X201977246Y-96203757D01*
X201911557Y-96001588D01*
X201815051Y-95812184D01*
X201815049Y-95812181D01*
X201815048Y-95812179D01*
X201690109Y-95640213D01*
X201539786Y-95489890D01*
X201367820Y-95364951D01*
X201178414Y-95268444D01*
X201178413Y-95268443D01*
X201178412Y-95268443D01*
X200976243Y-95202754D01*
X200976241Y-95202753D01*
X200976240Y-95202753D01*
X200814957Y-95177208D01*
X200766287Y-95169500D01*
X200553713Y-95169500D01*
X200505042Y-95177208D01*
X200343760Y-95202753D01*
X200141585Y-95268444D01*
X199952179Y-95364951D01*
X199780215Y-95489889D01*
X199666673Y-95603431D01*
X199605350Y-95636915D01*
X199535658Y-95631931D01*
X199479725Y-95590059D01*
X199462810Y-95559082D01*
X199413797Y-95427671D01*
X199413793Y-95427664D01*
X199327547Y-95312455D01*
X199327544Y-95312452D01*
X199212335Y-95226206D01*
X199212328Y-95226202D01*
X199077482Y-95175908D01*
X199077483Y-95175908D01*
X199017883Y-95169501D01*
X199017881Y-95169500D01*
X199017873Y-95169500D01*
X199017864Y-95169500D01*
X197222129Y-95169500D01*
X197222123Y-95169501D01*
X197162516Y-95175908D01*
X197027671Y-95226202D01*
X197027664Y-95226206D01*
X196912455Y-95312452D01*
X196912452Y-95312455D01*
X196826206Y-95427664D01*
X196826202Y-95427671D01*
X196775908Y-95562517D01*
X196769501Y-95622116D01*
X196769500Y-95622135D01*
X188972031Y-95622135D01*
X188839792Y-95489896D01*
X188839786Y-95489890D01*
X188667820Y-95364951D01*
X188667115Y-95364591D01*
X188659054Y-95360485D01*
X188608259Y-95312512D01*
X188591463Y-95244692D01*
X188613999Y-95178556D01*
X188659054Y-95139515D01*
X188667816Y-95135051D01*
X188689789Y-95119086D01*
X188839786Y-95010109D01*
X188839788Y-95010106D01*
X188839792Y-95010104D01*
X188990104Y-94859792D01*
X188990106Y-94859788D01*
X188990109Y-94859786D01*
X189115048Y-94687820D01*
X189115047Y-94687820D01*
X189115051Y-94687816D01*
X189211557Y-94498412D01*
X189277246Y-94296243D01*
X189310500Y-94086287D01*
X189310500Y-93873713D01*
X189277246Y-93663757D01*
X189211557Y-93461588D01*
X189115051Y-93272184D01*
X189115049Y-93272181D01*
X189115048Y-93272179D01*
X188990109Y-93100213D01*
X188839786Y-92949890D01*
X188667820Y-92824951D01*
X188667115Y-92824591D01*
X188659054Y-92820485D01*
X188608259Y-92772512D01*
X188591463Y-92704692D01*
X188613999Y-92638556D01*
X188659054Y-92599515D01*
X188667816Y-92595051D01*
X188722876Y-92555048D01*
X188839786Y-92470109D01*
X188839788Y-92470106D01*
X188839792Y-92470104D01*
X188990104Y-92319792D01*
X188990106Y-92319788D01*
X188990109Y-92319786D01*
X189115048Y-92147820D01*
X189115047Y-92147820D01*
X189115051Y-92147816D01*
X189211557Y-91958412D01*
X189277246Y-91756243D01*
X189310500Y-91546287D01*
X189310500Y-91333713D01*
X189277246Y-91123757D01*
X189211557Y-90921588D01*
X189115051Y-90732184D01*
X189115049Y-90732181D01*
X189115048Y-90732179D01*
X188990109Y-90560213D01*
X188839786Y-90409890D01*
X188667820Y-90284951D01*
X188667115Y-90284591D01*
X188659054Y-90280485D01*
X188608259Y-90232512D01*
X188591463Y-90164692D01*
X188613999Y-90098556D01*
X188659054Y-90059515D01*
X188667816Y-90055051D01*
X188725446Y-90013181D01*
X188839786Y-89930109D01*
X188839788Y-89930106D01*
X188839792Y-89930104D01*
X188990104Y-89779792D01*
X188990106Y-89779788D01*
X188990109Y-89779786D01*
X189115048Y-89607820D01*
X189115047Y-89607820D01*
X189115051Y-89607816D01*
X189211557Y-89418412D01*
X189277246Y-89216243D01*
X189310500Y-89006287D01*
X189310500Y-88793713D01*
X189277246Y-88583757D01*
X189211557Y-88381588D01*
X189115051Y-88192184D01*
X189115049Y-88192181D01*
X189115048Y-88192179D01*
X188990109Y-88020213D01*
X188839786Y-87869890D01*
X188667820Y-87744951D01*
X188667115Y-87744591D01*
X188659054Y-87740485D01*
X188608259Y-87692512D01*
X188591463Y-87624692D01*
X188613999Y-87558556D01*
X188659054Y-87519515D01*
X188667816Y-87515051D01*
X188689789Y-87499086D01*
X188839786Y-87390109D01*
X188839788Y-87390106D01*
X188839792Y-87390104D01*
X188990104Y-87239792D01*
X188990106Y-87239788D01*
X188990109Y-87239786D01*
X189115048Y-87067820D01*
X189115047Y-87067820D01*
X189115051Y-87067816D01*
X189211557Y-86878412D01*
X189277246Y-86676243D01*
X189310500Y-86466287D01*
X189310500Y-86253713D01*
X189277246Y-86043757D01*
X189211557Y-85841588D01*
X189115051Y-85652184D01*
X189115049Y-85652181D01*
X189115048Y-85652179D01*
X188990109Y-85480213D01*
X188839786Y-85329890D01*
X188667820Y-85204951D01*
X188667115Y-85204591D01*
X188659054Y-85200485D01*
X188608259Y-85152512D01*
X188591463Y-85084692D01*
X188613999Y-85018556D01*
X188659054Y-84979515D01*
X188667816Y-84975051D01*
X188689789Y-84959086D01*
X188839786Y-84850109D01*
X188839788Y-84850106D01*
X188839792Y-84850104D01*
X188990104Y-84699792D01*
X188990106Y-84699788D01*
X188990109Y-84699786D01*
X189115048Y-84527820D01*
X189115047Y-84527820D01*
X189115051Y-84527816D01*
X189211557Y-84338412D01*
X189277246Y-84136243D01*
X189310500Y-83926287D01*
X189310500Y-83713713D01*
X189277246Y-83503757D01*
X189211557Y-83301588D01*
X189115051Y-83112184D01*
X189115049Y-83112181D01*
X189115048Y-83112179D01*
X188990109Y-82940213D01*
X188839786Y-82789890D01*
X188667820Y-82664951D01*
X188659600Y-82660763D01*
X188659054Y-82660485D01*
X188608259Y-82612512D01*
X188591463Y-82544692D01*
X188613999Y-82478556D01*
X188659054Y-82439515D01*
X188667816Y-82435051D01*
X188689789Y-82419086D01*
X188839786Y-82310109D01*
X188839788Y-82310106D01*
X188839792Y-82310104D01*
X188990104Y-82159792D01*
X188990106Y-82159788D01*
X188990109Y-82159786D01*
X189115048Y-81987820D01*
X189115047Y-81987820D01*
X189115051Y-81987816D01*
X189211557Y-81798412D01*
X189277246Y-81596243D01*
X189310500Y-81386287D01*
X189310500Y-81173713D01*
X189277246Y-80963757D01*
X189211557Y-80761588D01*
X189115051Y-80572184D01*
X189115049Y-80572181D01*
X189115048Y-80572179D01*
X188990109Y-80400213D01*
X188839786Y-80249890D01*
X188667820Y-80124951D01*
X188667115Y-80124591D01*
X188659054Y-80120485D01*
X188608259Y-80072512D01*
X188591463Y-80004692D01*
X188613999Y-79938556D01*
X188659054Y-79899515D01*
X188667816Y-79895051D01*
X188689789Y-79879086D01*
X188839786Y-79770109D01*
X188839788Y-79770106D01*
X188839792Y-79770104D01*
X188990104Y-79619792D01*
X188990106Y-79619788D01*
X188990109Y-79619786D01*
X189115048Y-79447820D01*
X189115047Y-79447820D01*
X189115051Y-79447816D01*
X189211557Y-79258412D01*
X189277246Y-79056243D01*
X189310500Y-78846287D01*
X189310500Y-78633713D01*
X189277246Y-78423757D01*
X189211557Y-78221588D01*
X189115051Y-78032184D01*
X189115049Y-78032181D01*
X189115048Y-78032179D01*
X188990109Y-77860213D01*
X188839786Y-77709890D01*
X188667820Y-77584951D01*
X188667115Y-77584591D01*
X188659054Y-77580485D01*
X188608259Y-77532512D01*
X188591463Y-77464692D01*
X188613999Y-77398556D01*
X188659054Y-77359515D01*
X188667816Y-77355051D01*
X188689789Y-77339086D01*
X188839786Y-77230109D01*
X188839788Y-77230106D01*
X188839792Y-77230104D01*
X188990104Y-77079792D01*
X188990106Y-77079788D01*
X188990109Y-77079786D01*
X189115048Y-76907820D01*
X189115047Y-76907820D01*
X189115051Y-76907816D01*
X189211557Y-76718412D01*
X189277246Y-76516243D01*
X189310500Y-76306287D01*
X189310500Y-76093713D01*
X189277246Y-75883757D01*
X189211557Y-75681588D01*
X189115051Y-75492184D01*
X189115049Y-75492181D01*
X189115048Y-75492179D01*
X188990109Y-75320213D01*
X188839786Y-75169890D01*
X188667820Y-75044951D01*
X188667115Y-75044591D01*
X188659054Y-75040485D01*
X188608259Y-74992512D01*
X188591463Y-74924692D01*
X188613999Y-74858556D01*
X188659054Y-74819515D01*
X188667816Y-74815051D01*
X188754138Y-74752335D01*
X188839786Y-74690109D01*
X188839788Y-74690106D01*
X188839792Y-74690104D01*
X188990104Y-74539792D01*
X188990106Y-74539788D01*
X188990109Y-74539786D01*
X189115048Y-74367820D01*
X189115047Y-74367820D01*
X189115051Y-74367816D01*
X189211557Y-74178412D01*
X189277246Y-73976243D01*
X189310500Y-73766287D01*
X189310500Y-73553713D01*
X189277246Y-73343757D01*
X189211557Y-73141588D01*
X189115051Y-72952184D01*
X189115049Y-72952181D01*
X189115048Y-72952179D01*
X188990109Y-72780213D01*
X188839786Y-72629890D01*
X188667820Y-72504951D01*
X188667115Y-72504591D01*
X188659054Y-72500485D01*
X188608259Y-72452512D01*
X188591463Y-72384692D01*
X188613999Y-72318556D01*
X188659054Y-72279515D01*
X188667816Y-72275051D01*
X188689789Y-72259086D01*
X188839786Y-72150109D01*
X188839788Y-72150106D01*
X188839792Y-72150104D01*
X188990104Y-71999792D01*
X188990106Y-71999788D01*
X188990109Y-71999786D01*
X189115048Y-71827820D01*
X189115047Y-71827820D01*
X189115051Y-71827816D01*
X189211557Y-71638412D01*
X189277246Y-71436243D01*
X189310500Y-71226287D01*
X189310500Y-71013713D01*
X189277246Y-70803757D01*
X189211557Y-70601588D01*
X189115051Y-70412184D01*
X189115049Y-70412181D01*
X189115048Y-70412179D01*
X188990109Y-70240213D01*
X188839786Y-70089890D01*
X188667820Y-69964951D01*
X188667115Y-69964591D01*
X188659054Y-69960485D01*
X188608259Y-69912512D01*
X188591463Y-69844692D01*
X188613999Y-69778556D01*
X188659054Y-69739515D01*
X188667816Y-69735051D01*
X188689789Y-69719086D01*
X188839786Y-69610109D01*
X188839788Y-69610106D01*
X188839792Y-69610104D01*
X188990104Y-69459792D01*
X188990106Y-69459788D01*
X188990109Y-69459786D01*
X189115048Y-69287820D01*
X189115047Y-69287820D01*
X189115051Y-69287816D01*
X189211557Y-69098412D01*
X189277246Y-68896243D01*
X189310500Y-68686287D01*
X189310500Y-68473713D01*
X189277246Y-68263757D01*
X189211557Y-68061588D01*
X189115051Y-67872184D01*
X189115049Y-67872181D01*
X189115048Y-67872179D01*
X188990109Y-67700213D01*
X188839786Y-67549890D01*
X188667817Y-67424949D01*
X188658504Y-67420204D01*
X188607707Y-67372230D01*
X188590912Y-67304409D01*
X188613449Y-67238274D01*
X188658507Y-67199232D01*
X188667558Y-67194620D01*
X188839459Y-67069727D01*
X188839464Y-67069723D01*
X188989723Y-66919464D01*
X188989727Y-66919459D01*
X189114620Y-66747557D01*
X189211095Y-66558217D01*
X189276757Y-66356129D01*
X189276757Y-66356126D01*
X189287231Y-66290000D01*
X188393012Y-66290000D01*
X188425925Y-66232993D01*
X188460000Y-66105826D01*
X188460000Y-65974174D01*
X188425925Y-65847007D01*
X188393012Y-65790000D01*
X189287231Y-65790000D01*
X189276757Y-65723873D01*
X189276757Y-65723870D01*
X189211095Y-65521782D01*
X189114620Y-65332442D01*
X188989727Y-65160540D01*
X188989723Y-65160535D01*
X188839464Y-65010276D01*
X188839459Y-65010272D01*
X188667555Y-64885377D01*
X188658500Y-64880763D01*
X188607706Y-64832788D01*
X188590912Y-64764966D01*
X188613451Y-64698832D01*
X188658508Y-64659793D01*
X188667816Y-64655051D01*
X188754147Y-64592328D01*
X188839786Y-64530109D01*
X188839788Y-64530106D01*
X188839792Y-64530104D01*
X188990104Y-64379792D01*
X188990106Y-64379788D01*
X188990109Y-64379786D01*
X189115048Y-64207820D01*
X189115047Y-64207820D01*
X189115051Y-64207816D01*
X189211557Y-64018412D01*
X189277246Y-63816243D01*
X189310500Y-63606287D01*
X189310500Y-63393713D01*
X189277246Y-63183757D01*
X189211557Y-62981588D01*
X189115051Y-62792184D01*
X189115049Y-62792181D01*
X189115048Y-62792179D01*
X188990109Y-62620213D01*
X188839786Y-62469890D01*
X188667820Y-62344951D01*
X188478414Y-62248444D01*
X188478413Y-62248443D01*
X188478412Y-62248443D01*
X188276243Y-62182754D01*
X188276241Y-62182753D01*
X188276240Y-62182753D01*
X188114957Y-62157208D01*
X188066287Y-62149500D01*
X187853713Y-62149500D01*
X187805042Y-62157208D01*
X187643760Y-62182753D01*
X187441585Y-62248444D01*
X187252179Y-62344951D01*
X187080215Y-62469889D01*
X186966673Y-62583431D01*
X186905350Y-62616915D01*
X186835658Y-62611931D01*
X186779725Y-62570059D01*
X186762810Y-62539082D01*
X186713797Y-62407671D01*
X186713793Y-62407664D01*
X186627547Y-62292455D01*
X186627544Y-62292452D01*
X186512335Y-62206206D01*
X186512328Y-62206202D01*
X186377482Y-62155908D01*
X186377483Y-62155908D01*
X186317883Y-62149501D01*
X186317881Y-62149500D01*
X186317873Y-62149500D01*
X186317864Y-62149500D01*
X184522129Y-62149500D01*
X184522123Y-62149501D01*
X184462516Y-62155908D01*
X184327671Y-62206202D01*
X184327664Y-62206206D01*
X184212455Y-62292452D01*
X184212452Y-62292455D01*
X184126206Y-62407664D01*
X184126202Y-62407671D01*
X184075908Y-62542517D01*
X184069501Y-62602116D01*
X184069500Y-62602135D01*
X141517809Y-62602135D01*
X144633127Y-59486819D01*
X144694450Y-59453334D01*
X144720808Y-59450500D01*
X190279192Y-59450500D01*
X190346231Y-59470185D01*
X190366873Y-59486819D01*
X191913181Y-61033126D01*
X191946666Y-61094449D01*
X191949500Y-61120807D01*
X191949500Y-88439069D01*
X191949500Y-88439071D01*
X191949499Y-88439071D01*
X191974497Y-88564738D01*
X191974499Y-88564744D01*
X192023534Y-88683125D01*
X192094726Y-88789673D01*
X192094727Y-88789674D01*
X194238181Y-90933127D01*
X194271666Y-90994450D01*
X194274500Y-91020808D01*
X194274500Y-92297870D01*
X194274501Y-92297876D01*
X194280908Y-92357483D01*
X194331202Y-92492328D01*
X194331206Y-92492335D01*
X194417452Y-92607544D01*
X194417455Y-92607547D01*
X194532664Y-92693793D01*
X194532671Y-92693797D01*
X194667517Y-92744091D01*
X194667516Y-92744091D01*
X194674444Y-92744835D01*
X194727127Y-92750500D01*
X196522872Y-92750499D01*
X196582483Y-92744091D01*
X196717331Y-92693796D01*
X196832546Y-92607546D01*
X196918796Y-92492331D01*
X196967810Y-92360916D01*
X197009681Y-92304984D01*
X197075145Y-92280566D01*
X197143418Y-92295417D01*
X197171673Y-92316569D01*
X197285213Y-92430109D01*
X197457179Y-92555048D01*
X197457181Y-92555049D01*
X197457184Y-92555051D01*
X197646588Y-92651557D01*
X197848757Y-92717246D01*
X198058713Y-92750500D01*
X198058714Y-92750500D01*
X198271286Y-92750500D01*
X198271287Y-92750500D01*
X198481243Y-92717246D01*
X198683412Y-92651557D01*
X198872816Y-92555051D01*
X198959138Y-92492335D01*
X199044786Y-92430109D01*
X199044788Y-92430106D01*
X199044792Y-92430104D01*
X199195104Y-92279792D01*
X199195106Y-92279788D01*
X199195109Y-92279786D01*
X199320048Y-92107820D01*
X199320047Y-92107820D01*
X199320051Y-92107816D01*
X199416557Y-91918412D01*
X199482246Y-91716243D01*
X199515500Y-91506287D01*
X199515500Y-91293713D01*
X199482246Y-91083757D01*
X199416557Y-90881588D01*
X199320051Y-90692184D01*
X199320049Y-90692181D01*
X199320048Y-90692179D01*
X199195109Y-90520213D01*
X199044786Y-90369890D01*
X198872819Y-90244950D01*
X198838203Y-90227312D01*
X198787408Y-90179336D01*
X198770500Y-90116828D01*
X198770500Y-87619617D01*
X198790185Y-87552578D01*
X198824592Y-87518902D01*
X198823874Y-87517914D01*
X198827811Y-87515053D01*
X198827816Y-87515051D01*
X198999792Y-87390104D01*
X199150104Y-87239792D01*
X199150106Y-87239788D01*
X199150109Y-87239786D01*
X199277915Y-87063875D01*
X199279259Y-87064851D01*
X199281591Y-87062742D01*
X199285905Y-87053297D01*
X199307060Y-87039701D01*
X199325705Y-87022834D01*
X199337508Y-87020133D01*
X199344683Y-87015523D01*
X199379618Y-87010500D01*
X199400382Y-87010500D01*
X199467421Y-87030185D01*
X199501099Y-87064591D01*
X199502085Y-87063875D01*
X199629890Y-87239786D01*
X199780213Y-87390109D01*
X199952179Y-87515048D01*
X199952181Y-87515049D01*
X199952184Y-87515051D01*
X200141588Y-87611557D01*
X200343757Y-87677246D01*
X200553713Y-87710500D01*
X200553714Y-87710500D01*
X200766286Y-87710500D01*
X200766287Y-87710500D01*
X200976243Y-87677246D01*
X201178412Y-87611557D01*
X201367816Y-87515051D01*
X201389789Y-87499086D01*
X201539786Y-87390109D01*
X201539788Y-87390106D01*
X201539792Y-87390104D01*
X201690104Y-87239792D01*
X201690106Y-87239788D01*
X201690109Y-87239786D01*
X201815048Y-87067820D01*
X201815047Y-87067820D01*
X201815051Y-87067816D01*
X201911557Y-86878412D01*
X201977246Y-86676243D01*
X202010500Y-86466287D01*
X202010500Y-86253713D01*
X201977246Y-86043757D01*
X201911557Y-85841588D01*
X201815051Y-85652184D01*
X201815049Y-85652181D01*
X201815048Y-85652179D01*
X201690109Y-85480213D01*
X201539786Y-85329890D01*
X201367817Y-85204949D01*
X201358504Y-85200204D01*
X201307707Y-85152230D01*
X201290912Y-85084409D01*
X201313449Y-85018274D01*
X201358507Y-84979232D01*
X201367558Y-84974620D01*
X201539459Y-84849727D01*
X201539464Y-84849723D01*
X201689723Y-84699464D01*
X201689727Y-84699459D01*
X201814620Y-84527557D01*
X201911095Y-84338217D01*
X201976757Y-84136129D01*
X201976757Y-84136126D01*
X201987231Y-84070000D01*
X201093012Y-84070000D01*
X201125925Y-84012993D01*
X201160000Y-83885826D01*
X201160000Y-83754174D01*
X201125925Y-83627007D01*
X201093012Y-83570000D01*
X201987231Y-83570000D01*
X201976757Y-83503873D01*
X201976757Y-83503870D01*
X201911095Y-83301782D01*
X201814620Y-83112442D01*
X201689727Y-82940540D01*
X201689723Y-82940535D01*
X201539464Y-82790276D01*
X201539459Y-82790272D01*
X201367555Y-82665377D01*
X201358500Y-82660763D01*
X201307706Y-82612788D01*
X201290912Y-82544966D01*
X201313451Y-82478832D01*
X201358508Y-82439793D01*
X201367816Y-82435051D01*
X201447007Y-82377515D01*
X201539786Y-82310109D01*
X201539788Y-82310106D01*
X201539792Y-82310104D01*
X201690104Y-82159792D01*
X201690106Y-82159788D01*
X201690109Y-82159786D01*
X201815048Y-81987820D01*
X201815047Y-81987820D01*
X201815051Y-81987816D01*
X201911557Y-81798412D01*
X201977246Y-81596243D01*
X202010500Y-81386287D01*
X202010500Y-81173713D01*
X201977246Y-80963757D01*
X201911557Y-80761588D01*
X201815051Y-80572184D01*
X201815049Y-80572181D01*
X201815048Y-80572179D01*
X201690109Y-80400213D01*
X201539786Y-80249890D01*
X201367820Y-80124951D01*
X201367115Y-80124591D01*
X201359054Y-80120485D01*
X201308259Y-80072512D01*
X201291463Y-80004692D01*
X201313999Y-79938556D01*
X201359054Y-79899515D01*
X201367816Y-79895051D01*
X201389789Y-79879086D01*
X201539786Y-79770109D01*
X201539788Y-79770106D01*
X201539792Y-79770104D01*
X201690104Y-79619792D01*
X201690106Y-79619788D01*
X201690109Y-79619786D01*
X201815048Y-79447820D01*
X201815047Y-79447820D01*
X201815051Y-79447816D01*
X201911557Y-79258412D01*
X201977246Y-79056243D01*
X202010500Y-78846287D01*
X202010500Y-78633713D01*
X201977246Y-78423757D01*
X201911557Y-78221588D01*
X201815051Y-78032184D01*
X201815049Y-78032181D01*
X201815048Y-78032179D01*
X201690109Y-77860213D01*
X201539786Y-77709890D01*
X201367820Y-77584951D01*
X201367115Y-77584591D01*
X201359054Y-77580485D01*
X201308259Y-77532512D01*
X201291463Y-77464692D01*
X201313999Y-77398556D01*
X201359054Y-77359515D01*
X201367816Y-77355051D01*
X201389789Y-77339086D01*
X201539786Y-77230109D01*
X201539788Y-77230106D01*
X201539792Y-77230104D01*
X201690104Y-77079792D01*
X201690106Y-77079788D01*
X201690109Y-77079786D01*
X201815048Y-76907820D01*
X201815047Y-76907820D01*
X201815051Y-76907816D01*
X201911557Y-76718412D01*
X201977246Y-76516243D01*
X202010500Y-76306287D01*
X202010500Y-76093713D01*
X201977246Y-75883757D01*
X201911557Y-75681588D01*
X201815051Y-75492184D01*
X201815049Y-75492181D01*
X201815048Y-75492179D01*
X201690109Y-75320213D01*
X201539786Y-75169890D01*
X201367820Y-75044951D01*
X201367115Y-75044591D01*
X201359054Y-75040485D01*
X201308259Y-74992512D01*
X201291463Y-74924692D01*
X201313999Y-74858556D01*
X201359054Y-74819515D01*
X201367816Y-74815051D01*
X201454138Y-74752335D01*
X201539786Y-74690109D01*
X201539788Y-74690106D01*
X201539792Y-74690104D01*
X201690104Y-74539792D01*
X201690106Y-74539788D01*
X201690109Y-74539786D01*
X201815048Y-74367820D01*
X201815047Y-74367820D01*
X201815051Y-74367816D01*
X201911557Y-74178412D01*
X201977246Y-73976243D01*
X202010500Y-73766287D01*
X202010500Y-73553713D01*
X201977246Y-73343757D01*
X201911557Y-73141588D01*
X201815051Y-72952184D01*
X201815049Y-72952181D01*
X201815048Y-72952179D01*
X201690109Y-72780213D01*
X201539786Y-72629890D01*
X201367820Y-72504951D01*
X201178414Y-72408444D01*
X201178413Y-72408443D01*
X201178412Y-72408443D01*
X200976243Y-72342754D01*
X200976241Y-72342753D01*
X200976240Y-72342753D01*
X200814957Y-72317208D01*
X200766287Y-72309500D01*
X200553713Y-72309500D01*
X200505042Y-72317208D01*
X200343760Y-72342753D01*
X200141585Y-72408444D01*
X199952179Y-72504951D01*
X199780215Y-72629889D01*
X199666673Y-72743431D01*
X199605350Y-72776915D01*
X199535658Y-72771931D01*
X199479725Y-72730059D01*
X199462810Y-72699082D01*
X199413797Y-72567671D01*
X199413793Y-72567664D01*
X199327547Y-72452455D01*
X199327544Y-72452452D01*
X199212335Y-72366206D01*
X199212328Y-72366202D01*
X199077482Y-72315908D01*
X199077483Y-72315908D01*
X199017883Y-72309501D01*
X199017881Y-72309500D01*
X199017873Y-72309500D01*
X199017864Y-72309500D01*
X197222129Y-72309500D01*
X197222123Y-72309501D01*
X197162516Y-72315908D01*
X197027671Y-72366202D01*
X197027664Y-72366206D01*
X196912455Y-72452452D01*
X196912452Y-72452455D01*
X196826206Y-72567664D01*
X196826202Y-72567671D01*
X196775908Y-72702517D01*
X196769501Y-72762116D01*
X196769500Y-72762135D01*
X196769500Y-74557870D01*
X196769501Y-74557876D01*
X196775908Y-74617483D01*
X196826202Y-74752328D01*
X196826206Y-74752335D01*
X196912452Y-74867544D01*
X196912455Y-74867547D01*
X197027664Y-74953793D01*
X197027671Y-74953797D01*
X197159082Y-75002810D01*
X197215016Y-75044681D01*
X197239433Y-75110145D01*
X197224582Y-75178418D01*
X197203431Y-75206673D01*
X197089889Y-75320215D01*
X196964951Y-75492179D01*
X196868444Y-75681585D01*
X196802753Y-75883760D01*
X196769500Y-76093713D01*
X196769500Y-76306286D01*
X196802753Y-76516239D01*
X196868444Y-76718414D01*
X196964951Y-76907820D01*
X197089890Y-77079786D01*
X197240213Y-77230109D01*
X197412182Y-77355050D01*
X197420946Y-77359516D01*
X197471742Y-77407491D01*
X197488536Y-77475312D01*
X197465998Y-77541447D01*
X197420946Y-77580484D01*
X197412182Y-77584949D01*
X197240213Y-77709890D01*
X197089890Y-77860213D01*
X196964951Y-78032179D01*
X196868444Y-78221585D01*
X196802753Y-78423760D01*
X196769500Y-78633713D01*
X196769500Y-78846286D01*
X196802753Y-79056239D01*
X196868444Y-79258414D01*
X196964951Y-79447820D01*
X197089890Y-79619786D01*
X197240213Y-79770109D01*
X197412182Y-79895050D01*
X197420946Y-79899516D01*
X197471742Y-79947491D01*
X197488536Y-80015312D01*
X197465998Y-80081447D01*
X197420946Y-80120484D01*
X197412182Y-80124949D01*
X197240213Y-80249890D01*
X197089890Y-80400213D01*
X196964951Y-80572179D01*
X196868444Y-80761585D01*
X196802753Y-80963760D01*
X196769500Y-81173713D01*
X196769500Y-81386286D01*
X196802753Y-81596239D01*
X196868444Y-81798414D01*
X196964951Y-81987820D01*
X197089890Y-82159786D01*
X197240213Y-82310109D01*
X197412179Y-82435048D01*
X197412181Y-82435049D01*
X197412184Y-82435051D01*
X197421493Y-82439794D01*
X197472290Y-82487766D01*
X197489087Y-82555587D01*
X197466552Y-82621722D01*
X197421502Y-82660762D01*
X197412443Y-82665378D01*
X197240540Y-82790272D01*
X197240535Y-82790276D01*
X197090276Y-82940535D01*
X197090272Y-82940540D01*
X196965379Y-83112442D01*
X196868904Y-83301782D01*
X196803242Y-83503870D01*
X196803242Y-83503873D01*
X196792769Y-83570000D01*
X197686988Y-83570000D01*
X197654075Y-83627007D01*
X197620000Y-83754174D01*
X197620000Y-83885826D01*
X197654075Y-84012993D01*
X197686988Y-84070000D01*
X196792769Y-84070000D01*
X196803242Y-84136126D01*
X196803242Y-84136129D01*
X196868904Y-84338217D01*
X196965379Y-84527557D01*
X197090272Y-84699459D01*
X197090276Y-84699464D01*
X197240535Y-84849723D01*
X197240540Y-84849727D01*
X197412444Y-84974622D01*
X197421495Y-84979234D01*
X197472292Y-85027208D01*
X197489087Y-85095029D01*
X197466550Y-85161164D01*
X197421499Y-85200202D01*
X197412182Y-85204949D01*
X197240213Y-85329890D01*
X197089890Y-85480213D01*
X196964951Y-85652179D01*
X196868444Y-85841585D01*
X196802753Y-86043760D01*
X196769500Y-86253713D01*
X196769500Y-86466286D01*
X196802753Y-86676239D01*
X196868444Y-86878414D01*
X196964951Y-87067820D01*
X197089890Y-87239786D01*
X197089896Y-87239792D01*
X197240208Y-87390104D01*
X197412184Y-87515051D01*
X197412188Y-87515053D01*
X197416126Y-87517914D01*
X197415146Y-87519262D01*
X197457160Y-87565690D01*
X197469500Y-87619617D01*
X197469500Y-90172819D01*
X197449815Y-90239858D01*
X197418385Y-90273137D01*
X197285215Y-90369889D01*
X197171673Y-90483431D01*
X197110350Y-90516915D01*
X197040658Y-90511931D01*
X196984725Y-90470059D01*
X196967810Y-90439082D01*
X196918797Y-90307671D01*
X196918793Y-90307664D01*
X196832547Y-90192455D01*
X196832544Y-90192452D01*
X196717335Y-90106206D01*
X196717328Y-90106202D01*
X196582482Y-90055908D01*
X196582483Y-90055908D01*
X196522883Y-90049501D01*
X196522881Y-90049500D01*
X196522873Y-90049500D01*
X196522865Y-90049500D01*
X195245808Y-90049500D01*
X195178769Y-90029815D01*
X195158127Y-90013181D01*
X193286819Y-88141873D01*
X193253334Y-88080550D01*
X193250500Y-88054192D01*
X193250500Y-60735928D01*
X193225502Y-60610261D01*
X193225501Y-60610260D01*
X193225501Y-60610256D01*
X193187574Y-60518692D01*
X193176466Y-60491875D01*
X193176461Y-60491866D01*
X193105277Y-60385332D01*
X193105276Y-60385331D01*
X193014669Y-60294724D01*
X192520429Y-59800484D01*
X191014674Y-58294727D01*
X191014673Y-58294726D01*
X191014669Y-58294723D01*
X190908127Y-58223535D01*
X190789744Y-58174499D01*
X190789738Y-58174497D01*
X190664071Y-58149500D01*
X190664069Y-58149500D01*
X144335931Y-58149500D01*
X144335929Y-58149500D01*
X144210261Y-58174497D01*
X144210255Y-58174499D01*
X144091874Y-58223534D01*
X143985326Y-58294726D01*
X140130710Y-62149342D01*
X140069387Y-62182827D01*
X140021245Y-62182315D01*
X140021055Y-62183516D01*
X139916111Y-62166894D01*
X139806287Y-62149500D01*
X139593713Y-62149500D01*
X139545042Y-62157208D01*
X139383760Y-62182753D01*
X139181585Y-62248444D01*
X138992179Y-62344951D01*
X138820215Y-62469889D01*
X138706673Y-62583431D01*
X138645350Y-62616915D01*
X138575658Y-62611931D01*
X138519725Y-62570059D01*
X138502810Y-62539082D01*
X138453797Y-62407671D01*
X138453793Y-62407664D01*
X138367547Y-62292455D01*
X138367544Y-62292452D01*
X138252335Y-62206206D01*
X138252328Y-62206202D01*
X138117482Y-62155908D01*
X138117483Y-62155908D01*
X138057883Y-62149501D01*
X138057881Y-62149500D01*
X138057873Y-62149500D01*
X138057864Y-62149500D01*
X136262129Y-62149500D01*
X136262123Y-62149501D01*
X136202516Y-62155908D01*
X136067671Y-62206202D01*
X136067664Y-62206206D01*
X135952455Y-62292452D01*
X135952452Y-62292455D01*
X135866206Y-62407664D01*
X135866202Y-62407671D01*
X135815908Y-62542517D01*
X135809501Y-62602116D01*
X135809500Y-62602135D01*
X117598031Y-62602135D01*
X117465792Y-62469896D01*
X117465786Y-62469890D01*
X117293820Y-62344951D01*
X117293115Y-62344591D01*
X117285054Y-62340485D01*
X117234259Y-62292512D01*
X117217463Y-62224692D01*
X117239999Y-62158556D01*
X117285054Y-62119515D01*
X117293816Y-62115051D01*
X117315789Y-62099086D01*
X117465786Y-61990109D01*
X117465788Y-61990106D01*
X117465792Y-61990104D01*
X117616104Y-61839792D01*
X117616106Y-61839788D01*
X117616109Y-61839786D01*
X117741048Y-61667820D01*
X117741047Y-61667820D01*
X117741051Y-61667816D01*
X117837557Y-61478412D01*
X117903246Y-61276243D01*
X117936500Y-61066287D01*
X117936500Y-60853713D01*
X117903246Y-60643757D01*
X117837557Y-60441588D01*
X117741051Y-60252184D01*
X117741049Y-60252181D01*
X117741048Y-60252179D01*
X117616109Y-60080213D01*
X117465786Y-59929890D01*
X117293820Y-59804951D01*
X117285600Y-59800763D01*
X117285054Y-59800485D01*
X117234259Y-59752512D01*
X117217463Y-59684692D01*
X117239999Y-59618556D01*
X117285054Y-59579515D01*
X117293816Y-59575051D01*
X117438153Y-59470185D01*
X117465786Y-59450109D01*
X117465788Y-59450106D01*
X117465792Y-59450104D01*
X117616104Y-59299792D01*
X117616106Y-59299788D01*
X117616109Y-59299786D01*
X117741048Y-59127820D01*
X117741047Y-59127820D01*
X117741051Y-59127816D01*
X117837557Y-58938412D01*
X117903246Y-58736243D01*
X117936500Y-58526287D01*
X117936500Y-58313713D01*
X117903246Y-58103757D01*
X117837557Y-57901588D01*
X117741051Y-57712184D01*
X117741049Y-57712181D01*
X117741048Y-57712179D01*
X117616109Y-57540213D01*
X117465786Y-57389890D01*
X117293820Y-57264951D01*
X117293115Y-57264591D01*
X117285054Y-57260485D01*
X117234259Y-57212512D01*
X117217463Y-57144692D01*
X117239999Y-57078556D01*
X117285054Y-57039515D01*
X117293816Y-57035051D01*
X117315789Y-57019086D01*
X117465786Y-56910109D01*
X117465788Y-56910106D01*
X117465792Y-56910104D01*
X117616104Y-56759792D01*
X117616106Y-56759788D01*
X117616109Y-56759786D01*
X117741048Y-56587820D01*
X117741047Y-56587820D01*
X117741051Y-56587816D01*
X117837557Y-56398412D01*
X117903246Y-56196243D01*
X117936500Y-55986287D01*
X117936500Y-55773713D01*
X117903246Y-55563757D01*
X117837557Y-55361588D01*
X117741051Y-55172184D01*
X117741049Y-55172181D01*
X117741048Y-55172179D01*
X117616109Y-55000213D01*
X117465786Y-54849890D01*
X117293820Y-54724951D01*
X117293115Y-54724591D01*
X117285054Y-54720485D01*
X117234259Y-54672512D01*
X117217463Y-54604692D01*
X117239999Y-54538556D01*
X117285054Y-54499515D01*
X117293816Y-54495051D01*
X117315789Y-54479086D01*
X117465786Y-54370109D01*
X117465788Y-54370106D01*
X117465792Y-54370104D01*
X117616104Y-54219792D01*
X117616106Y-54219788D01*
X117616109Y-54219786D01*
X117741048Y-54047820D01*
X117741047Y-54047820D01*
X117741051Y-54047816D01*
X117837557Y-53858412D01*
X117903246Y-53656243D01*
X117936500Y-53446287D01*
X117936500Y-53233713D01*
X117903246Y-53023757D01*
X117837557Y-52821588D01*
X117741051Y-52632184D01*
X117741049Y-52632181D01*
X117741048Y-52632179D01*
X117616109Y-52460213D01*
X117465786Y-52309890D01*
X117293820Y-52184951D01*
X117293115Y-52184591D01*
X117285054Y-52180485D01*
X117234259Y-52132512D01*
X117217463Y-52064692D01*
X117239999Y-51998556D01*
X117285054Y-51959515D01*
X117293816Y-51955051D01*
X117380138Y-51892335D01*
X117465786Y-51830109D01*
X117465788Y-51830106D01*
X117465792Y-51830104D01*
X117616104Y-51679792D01*
X117616106Y-51679788D01*
X117616109Y-51679786D01*
X117741048Y-51507820D01*
X117741047Y-51507820D01*
X117741051Y-51507816D01*
X117837557Y-51318412D01*
X117903246Y-51116243D01*
X117936500Y-50906287D01*
X117936500Y-50693713D01*
X117903246Y-50483757D01*
X117837557Y-50281588D01*
X117741051Y-50092184D01*
X117616104Y-49920208D01*
X117598031Y-49902135D01*
X196769500Y-49902135D01*
X196769500Y-51697870D01*
X196769501Y-51697876D01*
X196775908Y-51757483D01*
X196826202Y-51892328D01*
X196826206Y-51892335D01*
X196912452Y-52007544D01*
X196912455Y-52007547D01*
X197027664Y-52093793D01*
X197027671Y-52093797D01*
X197159082Y-52142810D01*
X197215016Y-52184681D01*
X197239433Y-52250145D01*
X197224582Y-52318418D01*
X197203431Y-52346673D01*
X197089889Y-52460215D01*
X196964951Y-52632179D01*
X196868444Y-52821585D01*
X196802753Y-53023760D01*
X196769500Y-53233713D01*
X196769500Y-53446286D01*
X196802753Y-53656239D01*
X196868444Y-53858414D01*
X196964951Y-54047820D01*
X197089890Y-54219786D01*
X197240213Y-54370109D01*
X197412182Y-54495050D01*
X197420946Y-54499516D01*
X197471742Y-54547491D01*
X197488536Y-54615312D01*
X197465998Y-54681447D01*
X197420946Y-54720484D01*
X197412182Y-54724949D01*
X197240213Y-54849890D01*
X197089890Y-55000213D01*
X196964951Y-55172179D01*
X196868444Y-55361585D01*
X196802753Y-55563760D01*
X196769500Y-55773713D01*
X196769500Y-55986286D01*
X196802753Y-56196239D01*
X196868444Y-56398414D01*
X196964951Y-56587820D01*
X197089890Y-56759786D01*
X197240213Y-56910109D01*
X197412182Y-57035050D01*
X197420946Y-57039516D01*
X197471742Y-57087491D01*
X197488536Y-57155312D01*
X197465998Y-57221447D01*
X197420946Y-57260484D01*
X197412182Y-57264949D01*
X197240213Y-57389890D01*
X197089890Y-57540213D01*
X196964951Y-57712179D01*
X196868444Y-57901585D01*
X196802753Y-58103760D01*
X196769500Y-58313713D01*
X196769500Y-58526286D01*
X196802753Y-58736239D01*
X196868444Y-58938414D01*
X196964951Y-59127820D01*
X197089890Y-59299786D01*
X197240213Y-59450109D01*
X197412179Y-59575048D01*
X197412181Y-59575049D01*
X197412184Y-59575051D01*
X197421493Y-59579794D01*
X197472290Y-59627766D01*
X197489087Y-59695587D01*
X197466552Y-59761722D01*
X197421502Y-59800762D01*
X197412443Y-59805378D01*
X197240540Y-59930272D01*
X197240535Y-59930276D01*
X197090276Y-60080535D01*
X197090272Y-60080540D01*
X196965379Y-60252442D01*
X196868904Y-60441782D01*
X196803242Y-60643870D01*
X196803242Y-60643873D01*
X196792769Y-60710000D01*
X197686988Y-60710000D01*
X197654075Y-60767007D01*
X197620000Y-60894174D01*
X197620000Y-61025826D01*
X197654075Y-61152993D01*
X197686988Y-61210000D01*
X196792769Y-61210000D01*
X196803242Y-61276126D01*
X196803242Y-61276129D01*
X196868904Y-61478217D01*
X196965379Y-61667557D01*
X197090272Y-61839459D01*
X197090276Y-61839464D01*
X197240535Y-61989723D01*
X197240540Y-61989727D01*
X197412444Y-62114622D01*
X197421495Y-62119234D01*
X197472292Y-62167208D01*
X197489087Y-62235029D01*
X197466550Y-62301164D01*
X197421499Y-62340202D01*
X197412182Y-62344949D01*
X197240213Y-62469890D01*
X197089890Y-62620213D01*
X196964951Y-62792179D01*
X196868444Y-62981585D01*
X196802753Y-63183760D01*
X196769500Y-63393713D01*
X196769500Y-63606286D01*
X196802753Y-63816239D01*
X196868444Y-64018414D01*
X196964951Y-64207820D01*
X197089890Y-64379786D01*
X197240213Y-64530109D01*
X197412179Y-64655048D01*
X197412181Y-64655049D01*
X197412184Y-64655051D01*
X197601588Y-64751557D01*
X197803757Y-64817246D01*
X198013713Y-64850500D01*
X198013714Y-64850500D01*
X198226286Y-64850500D01*
X198226287Y-64850500D01*
X198436243Y-64817246D01*
X198638412Y-64751557D01*
X198827816Y-64655051D01*
X198914138Y-64592335D01*
X198999786Y-64530109D01*
X198999788Y-64530106D01*
X198999792Y-64530104D01*
X199150104Y-64379792D01*
X199150106Y-64379788D01*
X199150109Y-64379786D01*
X199275048Y-64207820D01*
X199275047Y-64207820D01*
X199275051Y-64207816D01*
X199279514Y-64199054D01*
X199327488Y-64148259D01*
X199395308Y-64131463D01*
X199461444Y-64153999D01*
X199500486Y-64199056D01*
X199504951Y-64207820D01*
X199629890Y-64379786D01*
X199780213Y-64530109D01*
X199952179Y-64655048D01*
X199952181Y-64655049D01*
X199952184Y-64655051D01*
X200141588Y-64751557D01*
X200343757Y-64817246D01*
X200553713Y-64850500D01*
X200553714Y-64850500D01*
X200766286Y-64850500D01*
X200766287Y-64850500D01*
X200976243Y-64817246D01*
X201178412Y-64751557D01*
X201367816Y-64655051D01*
X201454138Y-64592335D01*
X201539786Y-64530109D01*
X201539788Y-64530106D01*
X201539792Y-64530104D01*
X201690104Y-64379792D01*
X201690106Y-64379788D01*
X201690109Y-64379786D01*
X201815048Y-64207820D01*
X201815047Y-64207820D01*
X201815051Y-64207816D01*
X201911557Y-64018412D01*
X201977246Y-63816243D01*
X202010500Y-63606287D01*
X202010500Y-63393713D01*
X201977246Y-63183757D01*
X201911557Y-62981588D01*
X201815051Y-62792184D01*
X201815049Y-62792181D01*
X201815048Y-62792179D01*
X201690109Y-62620213D01*
X201539786Y-62469890D01*
X201367817Y-62344949D01*
X201358504Y-62340204D01*
X201307707Y-62292230D01*
X201290912Y-62224409D01*
X201313449Y-62158274D01*
X201358507Y-62119232D01*
X201367558Y-62114620D01*
X201539459Y-61989727D01*
X201539464Y-61989723D01*
X201689723Y-61839464D01*
X201689727Y-61839459D01*
X201814620Y-61667557D01*
X201911095Y-61478217D01*
X201976757Y-61276129D01*
X201976757Y-61276126D01*
X201987231Y-61210000D01*
X201093012Y-61210000D01*
X201125925Y-61152993D01*
X201160000Y-61025826D01*
X201160000Y-60894174D01*
X201125925Y-60767007D01*
X201093012Y-60710000D01*
X201987231Y-60710000D01*
X201976757Y-60643873D01*
X201976757Y-60643870D01*
X201911095Y-60441782D01*
X201814620Y-60252442D01*
X201689727Y-60080540D01*
X201689723Y-60080535D01*
X201539464Y-59930276D01*
X201539459Y-59930272D01*
X201367555Y-59805377D01*
X201358500Y-59800763D01*
X201307706Y-59752788D01*
X201290912Y-59684966D01*
X201313451Y-59618832D01*
X201358508Y-59579793D01*
X201367816Y-59575051D01*
X201512153Y-59470185D01*
X201539786Y-59450109D01*
X201539788Y-59450106D01*
X201539792Y-59450104D01*
X201690104Y-59299792D01*
X201690106Y-59299788D01*
X201690109Y-59299786D01*
X201815048Y-59127820D01*
X201815047Y-59127820D01*
X201815051Y-59127816D01*
X201911557Y-58938412D01*
X201977246Y-58736243D01*
X202010500Y-58526287D01*
X202010500Y-58313713D01*
X201977246Y-58103757D01*
X201911557Y-57901588D01*
X201815051Y-57712184D01*
X201815049Y-57712181D01*
X201815048Y-57712179D01*
X201690109Y-57540213D01*
X201539786Y-57389890D01*
X201367820Y-57264951D01*
X201367115Y-57264591D01*
X201359054Y-57260485D01*
X201308259Y-57212512D01*
X201291463Y-57144692D01*
X201313999Y-57078556D01*
X201359054Y-57039515D01*
X201367816Y-57035051D01*
X201389789Y-57019086D01*
X201539786Y-56910109D01*
X201539788Y-56910106D01*
X201539792Y-56910104D01*
X201690104Y-56759792D01*
X201690106Y-56759788D01*
X201690109Y-56759786D01*
X201815048Y-56587820D01*
X201815047Y-56587820D01*
X201815051Y-56587816D01*
X201911557Y-56398412D01*
X201977246Y-56196243D01*
X202010500Y-55986287D01*
X202010500Y-55773713D01*
X201977246Y-55563757D01*
X201911557Y-55361588D01*
X201815051Y-55172184D01*
X201815049Y-55172181D01*
X201815048Y-55172179D01*
X201690109Y-55000213D01*
X201539786Y-54849890D01*
X201367820Y-54724951D01*
X201367115Y-54724591D01*
X201359054Y-54720485D01*
X201308259Y-54672512D01*
X201291463Y-54604692D01*
X201313999Y-54538556D01*
X201359054Y-54499515D01*
X201367816Y-54495051D01*
X201389789Y-54479086D01*
X201539786Y-54370109D01*
X201539788Y-54370106D01*
X201539792Y-54370104D01*
X201690104Y-54219792D01*
X201690106Y-54219788D01*
X201690109Y-54219786D01*
X201815048Y-54047820D01*
X201815047Y-54047820D01*
X201815051Y-54047816D01*
X201911557Y-53858412D01*
X201977246Y-53656243D01*
X202010500Y-53446287D01*
X202010500Y-53233713D01*
X201977246Y-53023757D01*
X201911557Y-52821588D01*
X201815051Y-52632184D01*
X201815049Y-52632181D01*
X201815048Y-52632179D01*
X201690109Y-52460213D01*
X201539786Y-52309890D01*
X201367820Y-52184951D01*
X201367115Y-52184591D01*
X201359054Y-52180485D01*
X201308259Y-52132512D01*
X201291463Y-52064692D01*
X201313999Y-51998556D01*
X201359054Y-51959515D01*
X201367816Y-51955051D01*
X201454138Y-51892335D01*
X201539786Y-51830109D01*
X201539788Y-51830106D01*
X201539792Y-51830104D01*
X201690104Y-51679792D01*
X201690106Y-51679788D01*
X201690109Y-51679786D01*
X201815048Y-51507820D01*
X201815047Y-51507820D01*
X201815051Y-51507816D01*
X201911557Y-51318412D01*
X201977246Y-51116243D01*
X202010500Y-50906287D01*
X202010500Y-50693713D01*
X201977246Y-50483757D01*
X201911557Y-50281588D01*
X201815051Y-50092184D01*
X201815049Y-50092181D01*
X201815048Y-50092179D01*
X201690109Y-49920213D01*
X201539786Y-49769890D01*
X201367820Y-49644951D01*
X201178414Y-49548444D01*
X201178413Y-49548443D01*
X201178412Y-49548443D01*
X200976243Y-49482754D01*
X200976241Y-49482753D01*
X200976240Y-49482753D01*
X200814957Y-49457208D01*
X200766287Y-49449500D01*
X200553713Y-49449500D01*
X200505042Y-49457208D01*
X200343760Y-49482753D01*
X200141585Y-49548444D01*
X199952179Y-49644951D01*
X199780215Y-49769889D01*
X199666673Y-49883431D01*
X199605350Y-49916915D01*
X199535658Y-49911931D01*
X199479725Y-49870059D01*
X199462810Y-49839082D01*
X199413797Y-49707671D01*
X199413793Y-49707664D01*
X199327547Y-49592455D01*
X199327544Y-49592452D01*
X199212335Y-49506206D01*
X199212328Y-49506202D01*
X199077482Y-49455908D01*
X199077483Y-49455908D01*
X199017883Y-49449501D01*
X199017881Y-49449500D01*
X199017873Y-49449500D01*
X199017864Y-49449500D01*
X197222129Y-49449500D01*
X197222123Y-49449501D01*
X197162516Y-49455908D01*
X197027671Y-49506202D01*
X197027664Y-49506206D01*
X196912455Y-49592452D01*
X196912452Y-49592455D01*
X196826206Y-49707664D01*
X196826202Y-49707671D01*
X196775908Y-49842517D01*
X196769501Y-49902116D01*
X196769500Y-49902135D01*
X117598031Y-49902135D01*
X117465792Y-49769896D01*
X117465786Y-49769890D01*
X117293820Y-49644951D01*
X117293115Y-49644591D01*
X117285054Y-49640485D01*
X117234259Y-49592512D01*
X117217463Y-49524692D01*
X117239999Y-49458556D01*
X117285054Y-49419515D01*
X117293816Y-49415051D01*
X117315789Y-49399086D01*
X117465786Y-49290109D01*
X117465788Y-49290106D01*
X117465792Y-49290104D01*
X117616104Y-49139792D01*
X117616106Y-49139788D01*
X117616109Y-49139786D01*
X117741048Y-48967820D01*
X117741047Y-48967820D01*
X117741051Y-48967816D01*
X117837557Y-48778412D01*
X117903246Y-48576243D01*
X117936500Y-48366287D01*
X117936500Y-48153713D01*
X117903246Y-47943757D01*
X117837557Y-47741588D01*
X117741051Y-47552184D01*
X117741049Y-47552181D01*
X117741048Y-47552179D01*
X117616109Y-47380213D01*
X117465786Y-47229890D01*
X117293820Y-47104951D01*
X117293115Y-47104591D01*
X117285054Y-47100485D01*
X117234259Y-47052512D01*
X117217463Y-46984692D01*
X117239999Y-46918556D01*
X117285054Y-46879515D01*
X117293816Y-46875051D01*
X117380138Y-46812335D01*
X117465786Y-46750109D01*
X117465788Y-46750106D01*
X117465792Y-46750104D01*
X117616104Y-46599792D01*
X117616106Y-46599788D01*
X117616109Y-46599786D01*
X117741048Y-46427820D01*
X117741047Y-46427820D01*
X117741051Y-46427816D01*
X117837557Y-46238412D01*
X117903246Y-46036243D01*
X117936500Y-45826287D01*
X117936500Y-45613713D01*
X117903246Y-45403757D01*
X117891911Y-45368872D01*
X128999500Y-45368872D01*
X128999500Y-45631127D01*
X129025195Y-45826286D01*
X129033730Y-45891116D01*
X129101602Y-46144418D01*
X129101605Y-46144428D01*
X129201953Y-46386690D01*
X129201958Y-46386700D01*
X129333075Y-46613803D01*
X129492718Y-46821851D01*
X129492726Y-46821860D01*
X129678140Y-47007274D01*
X129678148Y-47007281D01*
X129678149Y-47007282D01*
X129726554Y-47044424D01*
X129886196Y-47166924D01*
X130113299Y-47298041D01*
X130113309Y-47298046D01*
X130311683Y-47380215D01*
X130355581Y-47398398D01*
X130608884Y-47466270D01*
X130868880Y-47500500D01*
X130868887Y-47500500D01*
X131131113Y-47500500D01*
X131131120Y-47500500D01*
X131391116Y-47466270D01*
X131644419Y-47398398D01*
X131886697Y-47298043D01*
X132113803Y-47166924D01*
X132321851Y-47007282D01*
X132321855Y-47007277D01*
X132321860Y-47007274D01*
X132507274Y-46821860D01*
X132507277Y-46821855D01*
X132507282Y-46821851D01*
X132666924Y-46613803D01*
X132798043Y-46386697D01*
X132898398Y-46144419D01*
X132966270Y-45891116D01*
X133000500Y-45631120D01*
X133000500Y-45368880D01*
X133000499Y-45368872D01*
X188499500Y-45368872D01*
X188499500Y-45631127D01*
X188525195Y-45826286D01*
X188533730Y-45891116D01*
X188601602Y-46144418D01*
X188601605Y-46144428D01*
X188701953Y-46386690D01*
X188701958Y-46386700D01*
X188833075Y-46613803D01*
X188992718Y-46821851D01*
X188992726Y-46821860D01*
X189178140Y-47007274D01*
X189178148Y-47007281D01*
X189178149Y-47007282D01*
X189226554Y-47044424D01*
X189386196Y-47166924D01*
X189613299Y-47298041D01*
X189613309Y-47298046D01*
X189811683Y-47380215D01*
X189855581Y-47398398D01*
X190108884Y-47466270D01*
X190368880Y-47500500D01*
X190368887Y-47500500D01*
X190631113Y-47500500D01*
X190631120Y-47500500D01*
X190891116Y-47466270D01*
X191144419Y-47398398D01*
X191386697Y-47298043D01*
X191613803Y-47166924D01*
X191821851Y-47007282D01*
X191821855Y-47007277D01*
X191821860Y-47007274D01*
X192007274Y-46821860D01*
X192007277Y-46821855D01*
X192007282Y-46821851D01*
X192166924Y-46613803D01*
X192298043Y-46386697D01*
X192398398Y-46144419D01*
X192466270Y-45891116D01*
X192500500Y-45631120D01*
X192500500Y-45368880D01*
X192466270Y-45108884D01*
X192398398Y-44855581D01*
X192398394Y-44855571D01*
X192298046Y-44613309D01*
X192298041Y-44613299D01*
X192166924Y-44386196D01*
X192007281Y-44178148D01*
X192007274Y-44178140D01*
X191821860Y-43992726D01*
X191821851Y-43992718D01*
X191613803Y-43833075D01*
X191386700Y-43701958D01*
X191386690Y-43701953D01*
X191144428Y-43601605D01*
X191144421Y-43601603D01*
X191144419Y-43601602D01*
X190891116Y-43533730D01*
X190833339Y-43526123D01*
X190631127Y-43499500D01*
X190631120Y-43499500D01*
X190368880Y-43499500D01*
X190368872Y-43499500D01*
X190137772Y-43529926D01*
X190108884Y-43533730D01*
X189855581Y-43601602D01*
X189855571Y-43601605D01*
X189613309Y-43701953D01*
X189613299Y-43701958D01*
X189386196Y-43833075D01*
X189178148Y-43992718D01*
X188992718Y-44178148D01*
X188833075Y-44386196D01*
X188701958Y-44613299D01*
X188701953Y-44613309D01*
X188601605Y-44855571D01*
X188601602Y-44855581D01*
X188541525Y-45079795D01*
X188533730Y-45108885D01*
X188499500Y-45368872D01*
X133000499Y-45368872D01*
X132966270Y-45108884D01*
X132898398Y-44855581D01*
X132898394Y-44855571D01*
X132798046Y-44613309D01*
X132798041Y-44613299D01*
X132666924Y-44386196D01*
X132507281Y-44178148D01*
X132507274Y-44178140D01*
X132321860Y-43992726D01*
X132321851Y-43992718D01*
X132113803Y-43833075D01*
X131886700Y-43701958D01*
X131886690Y-43701953D01*
X131644428Y-43601605D01*
X131644421Y-43601603D01*
X131644419Y-43601602D01*
X131391116Y-43533730D01*
X131333339Y-43526123D01*
X131131127Y-43499500D01*
X131131120Y-43499500D01*
X130868880Y-43499500D01*
X130868872Y-43499500D01*
X130637772Y-43529926D01*
X130608884Y-43533730D01*
X130355581Y-43601602D01*
X130355571Y-43601605D01*
X130113309Y-43701953D01*
X130113299Y-43701958D01*
X129886196Y-43833075D01*
X129678148Y-43992718D01*
X129492718Y-44178148D01*
X129333075Y-44386196D01*
X129201958Y-44613299D01*
X129201953Y-44613309D01*
X129101605Y-44855571D01*
X129101602Y-44855581D01*
X129041525Y-45079795D01*
X129033730Y-45108885D01*
X128999500Y-45368872D01*
X117891911Y-45368872D01*
X117837557Y-45201588D01*
X117741051Y-45012184D01*
X117741049Y-45012181D01*
X117741048Y-45012179D01*
X117616109Y-44840213D01*
X117465786Y-44689890D01*
X117293820Y-44564951D01*
X117104414Y-44468444D01*
X117104413Y-44468443D01*
X117104412Y-44468443D01*
X116902243Y-44402754D01*
X116902241Y-44402753D01*
X116902240Y-44402753D01*
X116740957Y-44377208D01*
X116692287Y-44369500D01*
X116479713Y-44369500D01*
X116431042Y-44377208D01*
X116269760Y-44402753D01*
X116067585Y-44468444D01*
X115878179Y-44564951D01*
X115706215Y-44689889D01*
X115592673Y-44803431D01*
X115531350Y-44836915D01*
X115461658Y-44831931D01*
X115405725Y-44790059D01*
X115388810Y-44759082D01*
X115339797Y-44627671D01*
X115339793Y-44627664D01*
X115253547Y-44512455D01*
X115253544Y-44512452D01*
X115138335Y-44426206D01*
X115138328Y-44426202D01*
X115003482Y-44375908D01*
X115003483Y-44375908D01*
X114943883Y-44369501D01*
X114943881Y-44369500D01*
X114943873Y-44369500D01*
X114943864Y-44369500D01*
X113148129Y-44369500D01*
X113148123Y-44369501D01*
X113088516Y-44375908D01*
X112953671Y-44426202D01*
X112953664Y-44426206D01*
X112838455Y-44512452D01*
X112838452Y-44512455D01*
X112752206Y-44627664D01*
X112752202Y-44627671D01*
X112701908Y-44762517D01*
X112695501Y-44822116D01*
X112695500Y-44822135D01*
X112260500Y-44822135D01*
X112260500Y-41264500D01*
X112280185Y-41197461D01*
X112332989Y-41151706D01*
X112384500Y-41140500D01*
X205115500Y-41140500D01*
X205182539Y-41160185D01*
G37*
%TD.AperFunction*%
%TD*%
M02*
