M48
; DRILL file KiCad 10.0.1 date 2026-07-09T23:28:56
; FORMAT={-:-/ absolute / metric / decimal}
; #@! TF.CreationDate,2026-07-09T23:28:56+09:00
; #@! TF.GenerationSoftware,Kicad,Pcbnew,10.0.1
; #@! TF.FileFunction,Plated,1,2,PTH
FMAT,2
METRIC
; #@! TA.AperFunction,Plated,PTH,ViaDrill
T1C0.300
; #@! TA.AperFunction,Plated,PTH,ComponentDrill
T2C1.000
%
G90
G05
T1
X194.31Y-116.078
X195.834Y-119.634
X199.39Y-68.58
X199.39Y-113.03
X199.39Y-135.89
X204.3Y-90.9
T2
X114.046Y-45.72
X114.046Y-48.26
X114.046Y-50.8
X114.046Y-53.34
X114.046Y-55.88
X114.046Y-58.42
X114.046Y-60.96
X114.046Y-63.5
X114.046Y-66.04
X114.046Y-68.58
X114.046Y-71.12
X114.046Y-73.66
X114.046Y-76.2
X114.046Y-78.74
X114.046Y-81.28
X114.046Y-83.82
X114.046Y-86.36
X114.046Y-88.9
X114.046Y-91.44
X114.046Y-93.98
X114.046Y-96.52
X114.046Y-99.06
X114.046Y-101.6
X114.046Y-104.14
X114.046Y-106.68
X114.046Y-109.22
X114.046Y-111.76
X114.046Y-114.3
X114.046Y-116.84
X114.046Y-119.38
X114.046Y-121.92
X114.046Y-124.46
X114.046Y-127.0
X114.046Y-129.54
X114.046Y-132.08
X114.046Y-134.62
X114.046Y-137.16
X114.046Y-139.7
X114.046Y-142.24
X114.046Y-144.78
X116.586Y-45.72
X116.586Y-48.26
X116.586Y-50.8
X116.586Y-53.34
X116.586Y-55.88
X116.586Y-58.42
X116.586Y-60.96
X116.586Y-63.5
X116.586Y-66.04
X116.586Y-68.58
X116.586Y-71.12
X116.586Y-73.66
X116.586Y-76.2
X116.586Y-78.74
X116.586Y-81.28
X116.586Y-83.82
X116.586Y-86.36
X116.586Y-88.9
X116.586Y-91.44
X116.586Y-93.98
X116.586Y-96.52
X116.586Y-99.06
X116.586Y-101.6
X116.586Y-104.14
X116.586Y-106.68
X116.586Y-109.22
X116.586Y-111.76
X116.586Y-114.3
X116.586Y-116.84
X116.586Y-119.38
X116.586Y-121.92
X116.586Y-124.46
X116.586Y-127.0
X116.586Y-129.54
X116.586Y-132.08
X116.586Y-134.62
X116.586Y-137.16
X116.586Y-139.7
X116.586Y-142.24
X116.586Y-144.78
X137.16Y-63.5
X137.16Y-66.04
X137.16Y-68.58
X137.16Y-71.12
X137.16Y-73.66
X137.16Y-76.2
X137.16Y-78.74
X137.16Y-81.28
X137.16Y-83.82
X137.16Y-86.36
X137.16Y-88.9
X137.16Y-91.44
X137.16Y-93.98
X137.16Y-96.52
X137.16Y-99.06
X137.16Y-101.6
X137.16Y-104.14
X137.16Y-106.68
X137.16Y-109.22
X137.16Y-111.76
X137.16Y-114.3
X137.16Y-116.84
X137.16Y-119.38
X137.16Y-121.92
X139.7Y-63.5
X139.7Y-66.04
X139.7Y-68.58
X139.7Y-71.12
X139.7Y-73.66
X139.7Y-76.2
X139.7Y-78.74
X139.7Y-81.28
X139.7Y-83.82
X139.7Y-86.36
X139.7Y-88.9
X139.7Y-91.44
X139.7Y-93.98
X139.7Y-96.52
X139.7Y-99.06
X139.7Y-101.6
X139.7Y-104.14
X139.7Y-106.68
X139.7Y-109.22
X139.7Y-111.76
X139.7Y-114.3
X139.7Y-116.84
X139.7Y-119.38
X139.7Y-121.92
X185.42Y-63.5
X185.42Y-66.04
X185.42Y-68.58
X185.42Y-71.12
X185.42Y-73.66
X185.42Y-76.2
X185.42Y-78.74
X185.42Y-81.28
X185.42Y-83.82
X185.42Y-86.36
X185.42Y-88.9
X185.42Y-91.44
X185.42Y-93.98
X185.42Y-96.52
X185.42Y-99.06
X185.42Y-101.6
X185.42Y-104.14
X185.42Y-106.68
X185.42Y-109.22
X185.42Y-111.76
X185.42Y-114.3
X185.42Y-116.84
X185.42Y-119.38
X185.42Y-121.92
X187.96Y-63.5
X187.96Y-66.04
X187.96Y-68.58
X187.96Y-71.12
X187.96Y-73.66
X187.96Y-76.2
X187.96Y-78.74
X187.96Y-81.28
X187.96Y-83.82
X187.96Y-86.36
X187.96Y-88.9
X187.96Y-91.44
X187.96Y-93.98
X187.96Y-96.52
X187.96Y-99.06
X187.96Y-101.6
X187.96Y-104.14
X187.96Y-106.68
X187.96Y-109.22
X187.96Y-111.76
X187.96Y-114.3
X187.96Y-116.84
X187.96Y-119.38
X187.96Y-121.92
X195.625Y-91.4
X198.12Y-50.8
X198.12Y-53.34
X198.12Y-55.88
X198.12Y-58.42
X198.12Y-60.96
X198.12Y-63.5
X198.12Y-73.66
X198.12Y-76.2
X198.12Y-78.74
X198.12Y-81.28
X198.12Y-83.82
X198.12Y-86.36
X198.12Y-96.52
X198.12Y-99.06
X198.12Y-101.6
X198.12Y-104.14
X198.12Y-106.68
X198.12Y-109.22
X198.12Y-119.38
X198.12Y-121.92
X198.12Y-124.46
X198.12Y-127.0
X198.12Y-129.54
X198.12Y-132.08
X198.165Y-91.4
X200.66Y-50.8
X200.66Y-53.34
X200.66Y-55.88
X200.66Y-58.42
X200.66Y-60.96
X200.66Y-63.5
X200.66Y-73.66
X200.66Y-76.2
X200.66Y-78.74
X200.66Y-81.28
X200.66Y-83.82
X200.66Y-86.36
X200.66Y-96.52
X200.66Y-99.06
X200.66Y-101.6
X200.66Y-104.14
X200.66Y-106.68
X200.66Y-109.22
X200.66Y-119.38
X200.66Y-121.92
X200.66Y-124.46
X200.66Y-127.0
X200.66Y-129.54
X200.66Y-132.08
M30
