%TF.GenerationSoftware,KiCad,Pcbnew,10.0.1*%
%TF.CreationDate,2026-07-09T23:29:00+09:00*%
%TF.ProjectId,PSCE-TEST_Cyclone4_6k,50534345-2d54-4455-9354-5f4379636c6f,rev?*%
%TF.SameCoordinates,Original*%
%TF.FileFunction,Legend,Top*%
%TF.FilePolarity,Positive*%
%FSLAX46Y46*%
G04 Gerber Fmt 4.6, Leading zero omitted, Abs format (unit mm)*
G04 Created by KiCad (PCBNEW 10.0.1) date 2026-07-09 23:29:00*
%MOMM*%
%LPD*%
G01*
G04 APERTURE LIST*
%ADD10C,0.100000*%
%ADD11C,0.150000*%
%ADD12C,0.120000*%
%ADD13C,0.200000*%
%ADD14C,0.300000*%
G04 APERTURE END LIST*
D10*
X111252000Y-141478000D02*
X118618000Y-141478000D01*
X118618000Y-143510000D01*
X111252000Y-143510000D01*
X111252000Y-141478000D01*
G36*
X111252000Y-141478000D02*
G01*
X118618000Y-141478000D01*
X118618000Y-143510000D01*
X111252000Y-143510000D01*
X111252000Y-141478000D01*
G37*
X112141000Y-58420000D02*
X118618000Y-58420000D01*
X112141000Y-84074000D02*
X118618000Y-84074000D01*
X112331500Y-71120000D02*
X118808500Y-71120000D01*
X112395000Y-96520000D02*
X118745000Y-96520000D01*
X112395000Y-109220000D02*
X118745000Y-109220000D01*
X112395000Y-121920000D02*
X118745000Y-121920000D01*
X112395000Y-134620000D02*
X118745000Y-134620000D01*
X117916000Y-44390000D02*
X121920000Y-44390000D01*
X121920000Y-64770000D01*
X117916000Y-64770000D01*
X117916000Y-44390000D01*
X117916000Y-64964000D02*
X121920000Y-64964000D01*
X121920000Y-85090000D01*
X117916000Y-85090000D01*
X117916000Y-64964000D01*
X117916000Y-85284000D02*
X121920000Y-85284000D01*
X121920000Y-105410000D01*
X117916000Y-105410000D01*
X117916000Y-85284000D01*
X117916000Y-105604000D02*
X121920000Y-105604000D01*
X121920000Y-125984000D01*
X117916000Y-125984000D01*
X117916000Y-105604000D01*
X117916000Y-126178000D02*
X121920000Y-126178000D01*
X121920000Y-141224000D01*
X117916000Y-141224000D01*
X117916000Y-126178000D01*
D11*
X194564000Y-71628000D02*
X194564000Y-134366000D01*
X194564000Y-71628000D02*
X196596000Y-71628000D01*
X194564000Y-134366000D02*
X196596000Y-134366000D01*
D10*
X136193884Y-47452531D02*
X136193884Y-46452531D01*
X136193884Y-46452531D02*
X136574836Y-46452531D01*
X136574836Y-46452531D02*
X136670074Y-46500150D01*
X136670074Y-46500150D02*
X136717693Y-46547769D01*
X136717693Y-46547769D02*
X136765312Y-46643007D01*
X136765312Y-46643007D02*
X136765312Y-46785864D01*
X136765312Y-46785864D02*
X136717693Y-46881102D01*
X136717693Y-46881102D02*
X136670074Y-46928721D01*
X136670074Y-46928721D02*
X136574836Y-46976340D01*
X136574836Y-46976340D02*
X136193884Y-46976340D01*
X137336741Y-47452531D02*
X137241503Y-47404912D01*
X137241503Y-47404912D02*
X137193884Y-47357292D01*
X137193884Y-47357292D02*
X137146265Y-47262054D01*
X137146265Y-47262054D02*
X137146265Y-46976340D01*
X137146265Y-46976340D02*
X137193884Y-46881102D01*
X137193884Y-46881102D02*
X137241503Y-46833483D01*
X137241503Y-46833483D02*
X137336741Y-46785864D01*
X137336741Y-46785864D02*
X137479598Y-46785864D01*
X137479598Y-46785864D02*
X137574836Y-46833483D01*
X137574836Y-46833483D02*
X137622455Y-46881102D01*
X137622455Y-46881102D02*
X137670074Y-46976340D01*
X137670074Y-46976340D02*
X137670074Y-47262054D01*
X137670074Y-47262054D02*
X137622455Y-47357292D01*
X137622455Y-47357292D02*
X137574836Y-47404912D01*
X137574836Y-47404912D02*
X137479598Y-47452531D01*
X137479598Y-47452531D02*
X137336741Y-47452531D01*
X138241503Y-47452531D02*
X138146265Y-47404912D01*
X138146265Y-47404912D02*
X138098646Y-47357292D01*
X138098646Y-47357292D02*
X138051027Y-47262054D01*
X138051027Y-47262054D02*
X138051027Y-46976340D01*
X138051027Y-46976340D02*
X138098646Y-46881102D01*
X138098646Y-46881102D02*
X138146265Y-46833483D01*
X138146265Y-46833483D02*
X138241503Y-46785864D01*
X138241503Y-46785864D02*
X138384360Y-46785864D01*
X138384360Y-46785864D02*
X138479598Y-46833483D01*
X138479598Y-46833483D02*
X138527217Y-46881102D01*
X138527217Y-46881102D02*
X138574836Y-46976340D01*
X138574836Y-46976340D02*
X138574836Y-47262054D01*
X138574836Y-47262054D02*
X138527217Y-47357292D01*
X138527217Y-47357292D02*
X138479598Y-47404912D01*
X138479598Y-47404912D02*
X138384360Y-47452531D01*
X138384360Y-47452531D02*
X138241503Y-47452531D01*
X139003408Y-47452531D02*
X139003408Y-46785864D01*
X139003408Y-46976340D02*
X139051027Y-46881102D01*
X139051027Y-46881102D02*
X139098646Y-46833483D01*
X139098646Y-46833483D02*
X139193884Y-46785864D01*
X139193884Y-46785864D02*
X139289122Y-46785864D01*
X139622456Y-47452531D02*
X139622456Y-46785864D01*
X139622456Y-46881102D02*
X139670075Y-46833483D01*
X139670075Y-46833483D02*
X139765313Y-46785864D01*
X139765313Y-46785864D02*
X139908170Y-46785864D01*
X139908170Y-46785864D02*
X140003408Y-46833483D01*
X140003408Y-46833483D02*
X140051027Y-46928721D01*
X140051027Y-46928721D02*
X140051027Y-47452531D01*
X140051027Y-46928721D02*
X140098646Y-46833483D01*
X140098646Y-46833483D02*
X140193884Y-46785864D01*
X140193884Y-46785864D02*
X140336741Y-46785864D01*
X140336741Y-46785864D02*
X140431980Y-46833483D01*
X140431980Y-46833483D02*
X140479599Y-46928721D01*
X140479599Y-46928721D02*
X140479599Y-47452531D01*
X141384360Y-47452531D02*
X141384360Y-46928721D01*
X141384360Y-46928721D02*
X141336741Y-46833483D01*
X141336741Y-46833483D02*
X141241503Y-46785864D01*
X141241503Y-46785864D02*
X141051027Y-46785864D01*
X141051027Y-46785864D02*
X140955789Y-46833483D01*
X141384360Y-47404912D02*
X141289122Y-47452531D01*
X141289122Y-47452531D02*
X141051027Y-47452531D01*
X141051027Y-47452531D02*
X140955789Y-47404912D01*
X140955789Y-47404912D02*
X140908170Y-47309673D01*
X140908170Y-47309673D02*
X140908170Y-47214435D01*
X140908170Y-47214435D02*
X140955789Y-47119197D01*
X140955789Y-47119197D02*
X141051027Y-47071578D01*
X141051027Y-47071578D02*
X141289122Y-47071578D01*
X141289122Y-47071578D02*
X141384360Y-47023959D01*
X141860551Y-46785864D02*
X141860551Y-47452531D01*
X141860551Y-46881102D02*
X141908170Y-46833483D01*
X141908170Y-46833483D02*
X142003408Y-46785864D01*
X142003408Y-46785864D02*
X142146265Y-46785864D01*
X142146265Y-46785864D02*
X142241503Y-46833483D01*
X142241503Y-46833483D02*
X142289122Y-46928721D01*
X142289122Y-46928721D02*
X142289122Y-47452531D01*
X142812932Y-46452531D02*
X142717694Y-46643007D01*
X143193884Y-47404912D02*
X143289122Y-47452531D01*
X143289122Y-47452531D02*
X143479598Y-47452531D01*
X143479598Y-47452531D02*
X143574836Y-47404912D01*
X143574836Y-47404912D02*
X143622455Y-47309673D01*
X143622455Y-47309673D02*
X143622455Y-47262054D01*
X143622455Y-47262054D02*
X143574836Y-47166816D01*
X143574836Y-47166816D02*
X143479598Y-47119197D01*
X143479598Y-47119197D02*
X143336741Y-47119197D01*
X143336741Y-47119197D02*
X143241503Y-47071578D01*
X143241503Y-47071578D02*
X143193884Y-46976340D01*
X143193884Y-46976340D02*
X143193884Y-46928721D01*
X143193884Y-46928721D02*
X143241503Y-46833483D01*
X143241503Y-46833483D02*
X143336741Y-46785864D01*
X143336741Y-46785864D02*
X143479598Y-46785864D01*
X143479598Y-46785864D02*
X143574836Y-46833483D01*
X144765313Y-47404912D02*
X144908170Y-47452531D01*
X144908170Y-47452531D02*
X145146265Y-47452531D01*
X145146265Y-47452531D02*
X145241503Y-47404912D01*
X145241503Y-47404912D02*
X145289122Y-47357292D01*
X145289122Y-47357292D02*
X145336741Y-47262054D01*
X145336741Y-47262054D02*
X145336741Y-47166816D01*
X145336741Y-47166816D02*
X145289122Y-47071578D01*
X145289122Y-47071578D02*
X145241503Y-47023959D01*
X145241503Y-47023959D02*
X145146265Y-46976340D01*
X145146265Y-46976340D02*
X144955789Y-46928721D01*
X144955789Y-46928721D02*
X144860551Y-46881102D01*
X144860551Y-46881102D02*
X144812932Y-46833483D01*
X144812932Y-46833483D02*
X144765313Y-46738245D01*
X144765313Y-46738245D02*
X144765313Y-46643007D01*
X144765313Y-46643007D02*
X144812932Y-46547769D01*
X144812932Y-46547769D02*
X144860551Y-46500150D01*
X144860551Y-46500150D02*
X144955789Y-46452531D01*
X144955789Y-46452531D02*
X145193884Y-46452531D01*
X145193884Y-46452531D02*
X145336741Y-46500150D01*
X145622456Y-46785864D02*
X146003408Y-46785864D01*
X145765313Y-46452531D02*
X145765313Y-47309673D01*
X145765313Y-47309673D02*
X145812932Y-47404912D01*
X145812932Y-47404912D02*
X145908170Y-47452531D01*
X145908170Y-47452531D02*
X146003408Y-47452531D01*
X146765313Y-47452531D02*
X146765313Y-46928721D01*
X146765313Y-46928721D02*
X146717694Y-46833483D01*
X146717694Y-46833483D02*
X146622456Y-46785864D01*
X146622456Y-46785864D02*
X146431980Y-46785864D01*
X146431980Y-46785864D02*
X146336742Y-46833483D01*
X146765313Y-47404912D02*
X146670075Y-47452531D01*
X146670075Y-47452531D02*
X146431980Y-47452531D01*
X146431980Y-47452531D02*
X146336742Y-47404912D01*
X146336742Y-47404912D02*
X146289123Y-47309673D01*
X146289123Y-47309673D02*
X146289123Y-47214435D01*
X146289123Y-47214435D02*
X146336742Y-47119197D01*
X146336742Y-47119197D02*
X146431980Y-47071578D01*
X146431980Y-47071578D02*
X146670075Y-47071578D01*
X146670075Y-47071578D02*
X146765313Y-47023959D01*
X147241504Y-46785864D02*
X147241504Y-47452531D01*
X147241504Y-46881102D02*
X147289123Y-46833483D01*
X147289123Y-46833483D02*
X147384361Y-46785864D01*
X147384361Y-46785864D02*
X147527218Y-46785864D01*
X147527218Y-46785864D02*
X147622456Y-46833483D01*
X147622456Y-46833483D02*
X147670075Y-46928721D01*
X147670075Y-46928721D02*
X147670075Y-47452531D01*
X148574837Y-47452531D02*
X148574837Y-46452531D01*
X148574837Y-47404912D02*
X148479599Y-47452531D01*
X148479599Y-47452531D02*
X148289123Y-47452531D01*
X148289123Y-47452531D02*
X148193885Y-47404912D01*
X148193885Y-47404912D02*
X148146266Y-47357292D01*
X148146266Y-47357292D02*
X148098647Y-47262054D01*
X148098647Y-47262054D02*
X148098647Y-46976340D01*
X148098647Y-46976340D02*
X148146266Y-46881102D01*
X148146266Y-46881102D02*
X148193885Y-46833483D01*
X148193885Y-46833483D02*
X148289123Y-46785864D01*
X148289123Y-46785864D02*
X148479599Y-46785864D01*
X148479599Y-46785864D02*
X148574837Y-46833483D01*
X149479599Y-47452531D02*
X149479599Y-46928721D01*
X149479599Y-46928721D02*
X149431980Y-46833483D01*
X149431980Y-46833483D02*
X149336742Y-46785864D01*
X149336742Y-46785864D02*
X149146266Y-46785864D01*
X149146266Y-46785864D02*
X149051028Y-46833483D01*
X149479599Y-47404912D02*
X149384361Y-47452531D01*
X149384361Y-47452531D02*
X149146266Y-47452531D01*
X149146266Y-47452531D02*
X149051028Y-47404912D01*
X149051028Y-47404912D02*
X149003409Y-47309673D01*
X149003409Y-47309673D02*
X149003409Y-47214435D01*
X149003409Y-47214435D02*
X149051028Y-47119197D01*
X149051028Y-47119197D02*
X149146266Y-47071578D01*
X149146266Y-47071578D02*
X149384361Y-47071578D01*
X149384361Y-47071578D02*
X149479599Y-47023959D01*
X149955790Y-47452531D02*
X149955790Y-46785864D01*
X149955790Y-46976340D02*
X150003409Y-46881102D01*
X150003409Y-46881102D02*
X150051028Y-46833483D01*
X150051028Y-46833483D02*
X150146266Y-46785864D01*
X150146266Y-46785864D02*
X150241504Y-46785864D01*
X151003409Y-47452531D02*
X151003409Y-46452531D01*
X151003409Y-47404912D02*
X150908171Y-47452531D01*
X150908171Y-47452531D02*
X150717695Y-47452531D01*
X150717695Y-47452531D02*
X150622457Y-47404912D01*
X150622457Y-47404912D02*
X150574838Y-47357292D01*
X150574838Y-47357292D02*
X150527219Y-47262054D01*
X150527219Y-47262054D02*
X150527219Y-46976340D01*
X150527219Y-46976340D02*
X150574838Y-46881102D01*
X150574838Y-46881102D02*
X150622457Y-46833483D01*
X150622457Y-46833483D02*
X150717695Y-46785864D01*
X150717695Y-46785864D02*
X150908171Y-46785864D01*
X150908171Y-46785864D02*
X151003409Y-46833483D01*
X152812933Y-47357292D02*
X152765314Y-47404912D01*
X152765314Y-47404912D02*
X152622457Y-47452531D01*
X152622457Y-47452531D02*
X152527219Y-47452531D01*
X152527219Y-47452531D02*
X152384362Y-47404912D01*
X152384362Y-47404912D02*
X152289124Y-47309673D01*
X152289124Y-47309673D02*
X152241505Y-47214435D01*
X152241505Y-47214435D02*
X152193886Y-47023959D01*
X152193886Y-47023959D02*
X152193886Y-46881102D01*
X152193886Y-46881102D02*
X152241505Y-46690626D01*
X152241505Y-46690626D02*
X152289124Y-46595388D01*
X152289124Y-46595388D02*
X152384362Y-46500150D01*
X152384362Y-46500150D02*
X152527219Y-46452531D01*
X152527219Y-46452531D02*
X152622457Y-46452531D01*
X152622457Y-46452531D02*
X152765314Y-46500150D01*
X152765314Y-46500150D02*
X152812933Y-46547769D01*
X153384362Y-47452531D02*
X153289124Y-47404912D01*
X153289124Y-47404912D02*
X153241505Y-47357292D01*
X153241505Y-47357292D02*
X153193886Y-47262054D01*
X153193886Y-47262054D02*
X153193886Y-46976340D01*
X153193886Y-46976340D02*
X153241505Y-46881102D01*
X153241505Y-46881102D02*
X153289124Y-46833483D01*
X153289124Y-46833483D02*
X153384362Y-46785864D01*
X153384362Y-46785864D02*
X153527219Y-46785864D01*
X153527219Y-46785864D02*
X153622457Y-46833483D01*
X153622457Y-46833483D02*
X153670076Y-46881102D01*
X153670076Y-46881102D02*
X153717695Y-46976340D01*
X153717695Y-46976340D02*
X153717695Y-47262054D01*
X153717695Y-47262054D02*
X153670076Y-47357292D01*
X153670076Y-47357292D02*
X153622457Y-47404912D01*
X153622457Y-47404912D02*
X153527219Y-47452531D01*
X153527219Y-47452531D02*
X153384362Y-47452531D01*
X154146267Y-47071578D02*
X154908172Y-47071578D01*
X155384362Y-46928721D02*
X155717695Y-46928721D01*
X155860552Y-47452531D02*
X155384362Y-47452531D01*
X155384362Y-47452531D02*
X155384362Y-46452531D01*
X155384362Y-46452531D02*
X155860552Y-46452531D01*
X156289124Y-47452531D02*
X156289124Y-46785864D01*
X156289124Y-46881102D02*
X156336743Y-46833483D01*
X156336743Y-46833483D02*
X156431981Y-46785864D01*
X156431981Y-46785864D02*
X156574838Y-46785864D01*
X156574838Y-46785864D02*
X156670076Y-46833483D01*
X156670076Y-46833483D02*
X156717695Y-46928721D01*
X156717695Y-46928721D02*
X156717695Y-47452531D01*
X156717695Y-46928721D02*
X156765314Y-46833483D01*
X156765314Y-46833483D02*
X156860552Y-46785864D01*
X156860552Y-46785864D02*
X157003409Y-46785864D01*
X157003409Y-46785864D02*
X157098648Y-46833483D01*
X157098648Y-46833483D02*
X157146267Y-46928721D01*
X157146267Y-46928721D02*
X157146267Y-47452531D01*
X158051028Y-46785864D02*
X158051028Y-47452531D01*
X157622457Y-46785864D02*
X157622457Y-47309673D01*
X157622457Y-47309673D02*
X157670076Y-47404912D01*
X157670076Y-47404912D02*
X157765314Y-47452531D01*
X157765314Y-47452531D02*
X157908171Y-47452531D01*
X157908171Y-47452531D02*
X158003409Y-47404912D01*
X158003409Y-47404912D02*
X158051028Y-47357292D01*
X158670076Y-47452531D02*
X158574838Y-47404912D01*
X158574838Y-47404912D02*
X158527219Y-47309673D01*
X158527219Y-47309673D02*
X158527219Y-46452531D01*
X159479600Y-47452531D02*
X159479600Y-46928721D01*
X159479600Y-46928721D02*
X159431981Y-46833483D01*
X159431981Y-46833483D02*
X159336743Y-46785864D01*
X159336743Y-46785864D02*
X159146267Y-46785864D01*
X159146267Y-46785864D02*
X159051029Y-46833483D01*
X159479600Y-47404912D02*
X159384362Y-47452531D01*
X159384362Y-47452531D02*
X159146267Y-47452531D01*
X159146267Y-47452531D02*
X159051029Y-47404912D01*
X159051029Y-47404912D02*
X159003410Y-47309673D01*
X159003410Y-47309673D02*
X159003410Y-47214435D01*
X159003410Y-47214435D02*
X159051029Y-47119197D01*
X159051029Y-47119197D02*
X159146267Y-47071578D01*
X159146267Y-47071578D02*
X159384362Y-47071578D01*
X159384362Y-47071578D02*
X159479600Y-47023959D01*
X159812934Y-46785864D02*
X160193886Y-46785864D01*
X159955791Y-46452531D02*
X159955791Y-47309673D01*
X159955791Y-47309673D02*
X160003410Y-47404912D01*
X160003410Y-47404912D02*
X160098648Y-47452531D01*
X160098648Y-47452531D02*
X160193886Y-47452531D01*
X160670077Y-47452531D02*
X160574839Y-47404912D01*
X160574839Y-47404912D02*
X160527220Y-47357292D01*
X160527220Y-47357292D02*
X160479601Y-47262054D01*
X160479601Y-47262054D02*
X160479601Y-46976340D01*
X160479601Y-46976340D02*
X160527220Y-46881102D01*
X160527220Y-46881102D02*
X160574839Y-46833483D01*
X160574839Y-46833483D02*
X160670077Y-46785864D01*
X160670077Y-46785864D02*
X160812934Y-46785864D01*
X160812934Y-46785864D02*
X160908172Y-46833483D01*
X160908172Y-46833483D02*
X160955791Y-46881102D01*
X160955791Y-46881102D02*
X161003410Y-46976340D01*
X161003410Y-46976340D02*
X161003410Y-47262054D01*
X161003410Y-47262054D02*
X160955791Y-47357292D01*
X160955791Y-47357292D02*
X160908172Y-47404912D01*
X160908172Y-47404912D02*
X160812934Y-47452531D01*
X160812934Y-47452531D02*
X160670077Y-47452531D01*
X161431982Y-47452531D02*
X161431982Y-46785864D01*
X161431982Y-46976340D02*
X161479601Y-46881102D01*
X161479601Y-46881102D02*
X161527220Y-46833483D01*
X161527220Y-46833483D02*
X161622458Y-46785864D01*
X161622458Y-46785864D02*
X161717696Y-46785864D01*
X136527217Y-48538665D02*
X136193884Y-48538665D01*
X136193884Y-49062475D02*
X136193884Y-48062475D01*
X136193884Y-48062475D02*
X136670074Y-48062475D01*
X137051027Y-49062475D02*
X137051027Y-48062475D01*
X137051027Y-48062475D02*
X137431979Y-48062475D01*
X137431979Y-48062475D02*
X137527217Y-48110094D01*
X137527217Y-48110094D02*
X137574836Y-48157713D01*
X137574836Y-48157713D02*
X137622455Y-48252951D01*
X137622455Y-48252951D02*
X137622455Y-48395808D01*
X137622455Y-48395808D02*
X137574836Y-48491046D01*
X137574836Y-48491046D02*
X137527217Y-48538665D01*
X137527217Y-48538665D02*
X137431979Y-48586284D01*
X137431979Y-48586284D02*
X137051027Y-48586284D01*
X138574836Y-48110094D02*
X138479598Y-48062475D01*
X138479598Y-48062475D02*
X138336741Y-48062475D01*
X138336741Y-48062475D02*
X138193884Y-48110094D01*
X138193884Y-48110094D02*
X138098646Y-48205332D01*
X138098646Y-48205332D02*
X138051027Y-48300570D01*
X138051027Y-48300570D02*
X138003408Y-48491046D01*
X138003408Y-48491046D02*
X138003408Y-48633903D01*
X138003408Y-48633903D02*
X138051027Y-48824379D01*
X138051027Y-48824379D02*
X138098646Y-48919617D01*
X138098646Y-48919617D02*
X138193884Y-49014856D01*
X138193884Y-49014856D02*
X138336741Y-49062475D01*
X138336741Y-49062475D02*
X138431979Y-49062475D01*
X138431979Y-49062475D02*
X138574836Y-49014856D01*
X138574836Y-49014856D02*
X138622455Y-48967236D01*
X138622455Y-48967236D02*
X138622455Y-48633903D01*
X138622455Y-48633903D02*
X138431979Y-48633903D01*
X139003408Y-48776760D02*
X139479598Y-48776760D01*
X138908170Y-49062475D02*
X139241503Y-48062475D01*
X139241503Y-48062475D02*
X139574836Y-49062475D01*
X139908170Y-48967236D02*
X139955789Y-49014856D01*
X139955789Y-49014856D02*
X139908170Y-49062475D01*
X139908170Y-49062475D02*
X139860551Y-49014856D01*
X139860551Y-49014856D02*
X139908170Y-48967236D01*
X139908170Y-48967236D02*
X139908170Y-49062475D01*
X139908170Y-48443427D02*
X139955789Y-48491046D01*
X139955789Y-48491046D02*
X139908170Y-48538665D01*
X139908170Y-48538665D02*
X139860551Y-48491046D01*
X139860551Y-48491046D02*
X139908170Y-48443427D01*
X139908170Y-48443427D02*
X139908170Y-48538665D01*
X141717693Y-48967236D02*
X141670074Y-49014856D01*
X141670074Y-49014856D02*
X141527217Y-49062475D01*
X141527217Y-49062475D02*
X141431979Y-49062475D01*
X141431979Y-49062475D02*
X141289122Y-49014856D01*
X141289122Y-49014856D02*
X141193884Y-48919617D01*
X141193884Y-48919617D02*
X141146265Y-48824379D01*
X141146265Y-48824379D02*
X141098646Y-48633903D01*
X141098646Y-48633903D02*
X141098646Y-48491046D01*
X141098646Y-48491046D02*
X141146265Y-48300570D01*
X141146265Y-48300570D02*
X141193884Y-48205332D01*
X141193884Y-48205332D02*
X141289122Y-48110094D01*
X141289122Y-48110094D02*
X141431979Y-48062475D01*
X141431979Y-48062475D02*
X141527217Y-48062475D01*
X141527217Y-48062475D02*
X141670074Y-48110094D01*
X141670074Y-48110094D02*
X141717693Y-48157713D01*
X142051027Y-48395808D02*
X142289122Y-49062475D01*
X142527217Y-48395808D02*
X142289122Y-49062475D01*
X142289122Y-49062475D02*
X142193884Y-49300570D01*
X142193884Y-49300570D02*
X142146265Y-49348189D01*
X142146265Y-49348189D02*
X142051027Y-49395808D01*
X143336741Y-49014856D02*
X143241503Y-49062475D01*
X143241503Y-49062475D02*
X143051027Y-49062475D01*
X143051027Y-49062475D02*
X142955789Y-49014856D01*
X142955789Y-49014856D02*
X142908170Y-48967236D01*
X142908170Y-48967236D02*
X142860551Y-48871998D01*
X142860551Y-48871998D02*
X142860551Y-48586284D01*
X142860551Y-48586284D02*
X142908170Y-48491046D01*
X142908170Y-48491046D02*
X142955789Y-48443427D01*
X142955789Y-48443427D02*
X143051027Y-48395808D01*
X143051027Y-48395808D02*
X143241503Y-48395808D01*
X143241503Y-48395808D02*
X143336741Y-48443427D01*
X143908170Y-49062475D02*
X143812932Y-49014856D01*
X143812932Y-49014856D02*
X143765313Y-48919617D01*
X143765313Y-48919617D02*
X143765313Y-48062475D01*
X144431980Y-49062475D02*
X144336742Y-49014856D01*
X144336742Y-49014856D02*
X144289123Y-48967236D01*
X144289123Y-48967236D02*
X144241504Y-48871998D01*
X144241504Y-48871998D02*
X144241504Y-48586284D01*
X144241504Y-48586284D02*
X144289123Y-48491046D01*
X144289123Y-48491046D02*
X144336742Y-48443427D01*
X144336742Y-48443427D02*
X144431980Y-48395808D01*
X144431980Y-48395808D02*
X144574837Y-48395808D01*
X144574837Y-48395808D02*
X144670075Y-48443427D01*
X144670075Y-48443427D02*
X144717694Y-48491046D01*
X144717694Y-48491046D02*
X144765313Y-48586284D01*
X144765313Y-48586284D02*
X144765313Y-48871998D01*
X144765313Y-48871998D02*
X144717694Y-48967236D01*
X144717694Y-48967236D02*
X144670075Y-49014856D01*
X144670075Y-49014856D02*
X144574837Y-49062475D01*
X144574837Y-49062475D02*
X144431980Y-49062475D01*
X145193885Y-48395808D02*
X145193885Y-49062475D01*
X145193885Y-48491046D02*
X145241504Y-48443427D01*
X145241504Y-48443427D02*
X145336742Y-48395808D01*
X145336742Y-48395808D02*
X145479599Y-48395808D01*
X145479599Y-48395808D02*
X145574837Y-48443427D01*
X145574837Y-48443427D02*
X145622456Y-48538665D01*
X145622456Y-48538665D02*
X145622456Y-49062475D01*
X146479599Y-49014856D02*
X146384361Y-49062475D01*
X146384361Y-49062475D02*
X146193885Y-49062475D01*
X146193885Y-49062475D02*
X146098647Y-49014856D01*
X146098647Y-49014856D02*
X146051028Y-48919617D01*
X146051028Y-48919617D02*
X146051028Y-48538665D01*
X146051028Y-48538665D02*
X146098647Y-48443427D01*
X146098647Y-48443427D02*
X146193885Y-48395808D01*
X146193885Y-48395808D02*
X146384361Y-48395808D01*
X146384361Y-48395808D02*
X146479599Y-48443427D01*
X146479599Y-48443427D02*
X146527218Y-48538665D01*
X146527218Y-48538665D02*
X146527218Y-48633903D01*
X146527218Y-48633903D02*
X146051028Y-48729141D01*
X146955790Y-49062475D02*
X146955790Y-48062475D01*
X147289123Y-48062475D02*
X147622456Y-49062475D01*
X147622456Y-49062475D02*
X147955789Y-48062475D01*
X149051028Y-48538665D02*
X149384361Y-48538665D01*
X149527218Y-49062475D02*
X149051028Y-49062475D01*
X149051028Y-49062475D02*
X149051028Y-48062475D01*
X149051028Y-48062475D02*
X149527218Y-48062475D01*
X149955790Y-49062475D02*
X149955790Y-48062475D01*
X149955790Y-48062475D02*
X150336742Y-48062475D01*
X150336742Y-48062475D02*
X150431980Y-48110094D01*
X150431980Y-48110094D02*
X150479599Y-48157713D01*
X150479599Y-48157713D02*
X150527218Y-48252951D01*
X150527218Y-48252951D02*
X150527218Y-48395808D01*
X150527218Y-48395808D02*
X150479599Y-48491046D01*
X150479599Y-48491046D02*
X150431980Y-48538665D01*
X150431980Y-48538665D02*
X150336742Y-48586284D01*
X150336742Y-48586284D02*
X149955790Y-48586284D01*
X151384361Y-48395808D02*
X151384361Y-49062475D01*
X151146266Y-48014856D02*
X150908171Y-48729141D01*
X150908171Y-48729141D02*
X151527218Y-48729141D01*
X152479599Y-48967236D02*
X152431980Y-49014856D01*
X152431980Y-49014856D02*
X152289123Y-49062475D01*
X152289123Y-49062475D02*
X152193885Y-49062475D01*
X152193885Y-49062475D02*
X152051028Y-49014856D01*
X152051028Y-49014856D02*
X151955790Y-48919617D01*
X151955790Y-48919617D02*
X151908171Y-48824379D01*
X151908171Y-48824379D02*
X151860552Y-48633903D01*
X151860552Y-48633903D02*
X151860552Y-48491046D01*
X151860552Y-48491046D02*
X151908171Y-48300570D01*
X151908171Y-48300570D02*
X151955790Y-48205332D01*
X151955790Y-48205332D02*
X152051028Y-48110094D01*
X152051028Y-48110094D02*
X152193885Y-48062475D01*
X152193885Y-48062475D02*
X152289123Y-48062475D01*
X152289123Y-48062475D02*
X152431980Y-48110094D01*
X152431980Y-48110094D02*
X152479599Y-48157713D01*
X152908171Y-48538665D02*
X153241504Y-48538665D01*
X153384361Y-49062475D02*
X152908171Y-49062475D01*
X152908171Y-49062475D02*
X152908171Y-48062475D01*
X152908171Y-48062475D02*
X153384361Y-48062475D01*
X154241504Y-48062475D02*
X154051028Y-48062475D01*
X154051028Y-48062475D02*
X153955790Y-48110094D01*
X153955790Y-48110094D02*
X153908171Y-48157713D01*
X153908171Y-48157713D02*
X153812933Y-48300570D01*
X153812933Y-48300570D02*
X153765314Y-48491046D01*
X153765314Y-48491046D02*
X153765314Y-48871998D01*
X153765314Y-48871998D02*
X153812933Y-48967236D01*
X153812933Y-48967236D02*
X153860552Y-49014856D01*
X153860552Y-49014856D02*
X153955790Y-49062475D01*
X153955790Y-49062475D02*
X154146266Y-49062475D01*
X154146266Y-49062475D02*
X154241504Y-49014856D01*
X154241504Y-49014856D02*
X154289123Y-48967236D01*
X154289123Y-48967236D02*
X154336742Y-48871998D01*
X154336742Y-48871998D02*
X154336742Y-48633903D01*
X154336742Y-48633903D02*
X154289123Y-48538665D01*
X154289123Y-48538665D02*
X154241504Y-48491046D01*
X154241504Y-48491046D02*
X154146266Y-48443427D01*
X154146266Y-48443427D02*
X153955790Y-48443427D01*
X153955790Y-48443427D02*
X153860552Y-48491046D01*
X153860552Y-48491046D02*
X153812933Y-48538665D01*
X153812933Y-48538665D02*
X153765314Y-48633903D01*
X154765314Y-48681522D02*
X155527219Y-48681522D01*
X156003409Y-48538665D02*
X156336742Y-48538665D01*
X156479599Y-49062475D02*
X156003409Y-49062475D01*
X156003409Y-49062475D02*
X156003409Y-48062475D01*
X156003409Y-48062475D02*
X156479599Y-48062475D01*
X157431980Y-49062475D02*
X156860552Y-49062475D01*
X157146266Y-49062475D02*
X157146266Y-48062475D01*
X157146266Y-48062475D02*
X157051028Y-48205332D01*
X157051028Y-48205332D02*
X156955790Y-48300570D01*
X156955790Y-48300570D02*
X156860552Y-48348189D01*
X158289123Y-48395808D02*
X158289123Y-49062475D01*
X158051028Y-48014856D02*
X157812933Y-48729141D01*
X157812933Y-48729141D02*
X158431980Y-48729141D01*
X159241504Y-48395808D02*
X159241504Y-49062475D01*
X159003409Y-48014856D02*
X158765314Y-48729141D01*
X158765314Y-48729141D02*
X159384361Y-48729141D01*
X136479598Y-51053371D02*
X136431979Y-51005752D01*
X136431979Y-51005752D02*
X136336741Y-50862895D01*
X136336741Y-50862895D02*
X136289122Y-50767657D01*
X136289122Y-50767657D02*
X136241503Y-50624800D01*
X136241503Y-50624800D02*
X136193884Y-50386704D01*
X136193884Y-50386704D02*
X136193884Y-50196228D01*
X136193884Y-50196228D02*
X136241503Y-49958133D01*
X136241503Y-49958133D02*
X136289122Y-49815276D01*
X136289122Y-49815276D02*
X136336741Y-49720038D01*
X136336741Y-49720038D02*
X136431979Y-49577180D01*
X136431979Y-49577180D02*
X136479598Y-49529561D01*
X137289122Y-50624800D02*
X137193884Y-50672419D01*
X137193884Y-50672419D02*
X137003408Y-50672419D01*
X137003408Y-50672419D02*
X136908170Y-50624800D01*
X136908170Y-50624800D02*
X136860551Y-50577180D01*
X136860551Y-50577180D02*
X136812932Y-50481942D01*
X136812932Y-50481942D02*
X136812932Y-50196228D01*
X136812932Y-50196228D02*
X136860551Y-50100990D01*
X136860551Y-50100990D02*
X136908170Y-50053371D01*
X136908170Y-50053371D02*
X137003408Y-50005752D01*
X137003408Y-50005752D02*
X137193884Y-50005752D01*
X137193884Y-50005752D02*
X137289122Y-50053371D01*
X137622456Y-51053371D02*
X137670075Y-51005752D01*
X137670075Y-51005752D02*
X137765313Y-50862895D01*
X137765313Y-50862895D02*
X137812932Y-50767657D01*
X137812932Y-50767657D02*
X137860551Y-50624800D01*
X137860551Y-50624800D02*
X137908170Y-50386704D01*
X137908170Y-50386704D02*
X137908170Y-50196228D01*
X137908170Y-50196228D02*
X137860551Y-49958133D01*
X137860551Y-49958133D02*
X137812932Y-49815276D01*
X137812932Y-49815276D02*
X137765313Y-49720038D01*
X137765313Y-49720038D02*
X137670075Y-49577180D01*
X137670075Y-49577180D02*
X137622456Y-49529561D01*
X138336742Y-49767657D02*
X138384361Y-49720038D01*
X138384361Y-49720038D02*
X138479599Y-49672419D01*
X138479599Y-49672419D02*
X138717694Y-49672419D01*
X138717694Y-49672419D02*
X138812932Y-49720038D01*
X138812932Y-49720038D02*
X138860551Y-49767657D01*
X138860551Y-49767657D02*
X138908170Y-49862895D01*
X138908170Y-49862895D02*
X138908170Y-49958133D01*
X138908170Y-49958133D02*
X138860551Y-50100990D01*
X138860551Y-50100990D02*
X138289123Y-50672419D01*
X138289123Y-50672419D02*
X138908170Y-50672419D01*
X139527218Y-49672419D02*
X139622456Y-49672419D01*
X139622456Y-49672419D02*
X139717694Y-49720038D01*
X139717694Y-49720038D02*
X139765313Y-49767657D01*
X139765313Y-49767657D02*
X139812932Y-49862895D01*
X139812932Y-49862895D02*
X139860551Y-50053371D01*
X139860551Y-50053371D02*
X139860551Y-50291466D01*
X139860551Y-50291466D02*
X139812932Y-50481942D01*
X139812932Y-50481942D02*
X139765313Y-50577180D01*
X139765313Y-50577180D02*
X139717694Y-50624800D01*
X139717694Y-50624800D02*
X139622456Y-50672419D01*
X139622456Y-50672419D02*
X139527218Y-50672419D01*
X139527218Y-50672419D02*
X139431980Y-50624800D01*
X139431980Y-50624800D02*
X139384361Y-50577180D01*
X139384361Y-50577180D02*
X139336742Y-50481942D01*
X139336742Y-50481942D02*
X139289123Y-50291466D01*
X139289123Y-50291466D02*
X139289123Y-50053371D01*
X139289123Y-50053371D02*
X139336742Y-49862895D01*
X139336742Y-49862895D02*
X139384361Y-49767657D01*
X139384361Y-49767657D02*
X139431980Y-49720038D01*
X139431980Y-49720038D02*
X139527218Y-49672419D01*
X140241504Y-49767657D02*
X140289123Y-49720038D01*
X140289123Y-49720038D02*
X140384361Y-49672419D01*
X140384361Y-49672419D02*
X140622456Y-49672419D01*
X140622456Y-49672419D02*
X140717694Y-49720038D01*
X140717694Y-49720038D02*
X140765313Y-49767657D01*
X140765313Y-49767657D02*
X140812932Y-49862895D01*
X140812932Y-49862895D02*
X140812932Y-49958133D01*
X140812932Y-49958133D02*
X140765313Y-50100990D01*
X140765313Y-50100990D02*
X140193885Y-50672419D01*
X140193885Y-50672419D02*
X140812932Y-50672419D01*
X141717694Y-49672419D02*
X141241504Y-49672419D01*
X141241504Y-49672419D02*
X141193885Y-50148609D01*
X141193885Y-50148609D02*
X141241504Y-50100990D01*
X141241504Y-50100990D02*
X141336742Y-50053371D01*
X141336742Y-50053371D02*
X141574837Y-50053371D01*
X141574837Y-50053371D02*
X141670075Y-50100990D01*
X141670075Y-50100990D02*
X141717694Y-50148609D01*
X141717694Y-50148609D02*
X141765313Y-50243847D01*
X141765313Y-50243847D02*
X141765313Y-50481942D01*
X141765313Y-50481942D02*
X141717694Y-50577180D01*
X141717694Y-50577180D02*
X141670075Y-50624800D01*
X141670075Y-50624800D02*
X141574837Y-50672419D01*
X141574837Y-50672419D02*
X141336742Y-50672419D01*
X141336742Y-50672419D02*
X141241504Y-50624800D01*
X141241504Y-50624800D02*
X141193885Y-50577180D01*
X143479599Y-49720038D02*
X143384361Y-49672419D01*
X143384361Y-49672419D02*
X143241504Y-49672419D01*
X143241504Y-49672419D02*
X143098647Y-49720038D01*
X143098647Y-49720038D02*
X143003409Y-49815276D01*
X143003409Y-49815276D02*
X142955790Y-49910514D01*
X142955790Y-49910514D02*
X142908171Y-50100990D01*
X142908171Y-50100990D02*
X142908171Y-50243847D01*
X142908171Y-50243847D02*
X142955790Y-50434323D01*
X142955790Y-50434323D02*
X143003409Y-50529561D01*
X143003409Y-50529561D02*
X143098647Y-50624800D01*
X143098647Y-50624800D02*
X143241504Y-50672419D01*
X143241504Y-50672419D02*
X143336742Y-50672419D01*
X143336742Y-50672419D02*
X143479599Y-50624800D01*
X143479599Y-50624800D02*
X143527218Y-50577180D01*
X143527218Y-50577180D02*
X143527218Y-50243847D01*
X143527218Y-50243847D02*
X143336742Y-50243847D01*
X144098647Y-50672419D02*
X144003409Y-50624800D01*
X144003409Y-50624800D02*
X143955790Y-50577180D01*
X143955790Y-50577180D02*
X143908171Y-50481942D01*
X143908171Y-50481942D02*
X143908171Y-50196228D01*
X143908171Y-50196228D02*
X143955790Y-50100990D01*
X143955790Y-50100990D02*
X144003409Y-50053371D01*
X144003409Y-50053371D02*
X144098647Y-50005752D01*
X144098647Y-50005752D02*
X144241504Y-50005752D01*
X144241504Y-50005752D02*
X144336742Y-50053371D01*
X144336742Y-50053371D02*
X144384361Y-50100990D01*
X144384361Y-50100990D02*
X144431980Y-50196228D01*
X144431980Y-50196228D02*
X144431980Y-50481942D01*
X144431980Y-50481942D02*
X144384361Y-50577180D01*
X144384361Y-50577180D02*
X144336742Y-50624800D01*
X144336742Y-50624800D02*
X144241504Y-50672419D01*
X144241504Y-50672419D02*
X144098647Y-50672419D01*
X145003409Y-50672419D02*
X144908171Y-50624800D01*
X144908171Y-50624800D02*
X144860552Y-50577180D01*
X144860552Y-50577180D02*
X144812933Y-50481942D01*
X144812933Y-50481942D02*
X144812933Y-50196228D01*
X144812933Y-50196228D02*
X144860552Y-50100990D01*
X144860552Y-50100990D02*
X144908171Y-50053371D01*
X144908171Y-50053371D02*
X145003409Y-50005752D01*
X145003409Y-50005752D02*
X145146266Y-50005752D01*
X145146266Y-50005752D02*
X145241504Y-50053371D01*
X145241504Y-50053371D02*
X145289123Y-50100990D01*
X145289123Y-50100990D02*
X145336742Y-50196228D01*
X145336742Y-50196228D02*
X145336742Y-50481942D01*
X145336742Y-50481942D02*
X145289123Y-50577180D01*
X145289123Y-50577180D02*
X145241504Y-50624800D01*
X145241504Y-50624800D02*
X145146266Y-50672419D01*
X145146266Y-50672419D02*
X145003409Y-50672419D01*
X146193885Y-50672419D02*
X146193885Y-49672419D01*
X146193885Y-50624800D02*
X146098647Y-50672419D01*
X146098647Y-50672419D02*
X145908171Y-50672419D01*
X145908171Y-50672419D02*
X145812933Y-50624800D01*
X145812933Y-50624800D02*
X145765314Y-50577180D01*
X145765314Y-50577180D02*
X145717695Y-50481942D01*
X145717695Y-50481942D02*
X145717695Y-50196228D01*
X145717695Y-50196228D02*
X145765314Y-50100990D01*
X145765314Y-50100990D02*
X145812933Y-50053371D01*
X145812933Y-50053371D02*
X145908171Y-50005752D01*
X145908171Y-50005752D02*
X146098647Y-50005752D01*
X146098647Y-50005752D02*
X146193885Y-50053371D01*
X146670076Y-50672419D02*
X146670076Y-49672419D01*
X147241504Y-50672419D02*
X146812933Y-50100990D01*
X147241504Y-49672419D02*
X146670076Y-50243847D01*
X147812933Y-50672419D02*
X147717695Y-50624800D01*
X147717695Y-50624800D02*
X147670076Y-50577180D01*
X147670076Y-50577180D02*
X147622457Y-50481942D01*
X147622457Y-50481942D02*
X147622457Y-50196228D01*
X147622457Y-50196228D02*
X147670076Y-50100990D01*
X147670076Y-50100990D02*
X147717695Y-50053371D01*
X147717695Y-50053371D02*
X147812933Y-50005752D01*
X147812933Y-50005752D02*
X147955790Y-50005752D01*
X147955790Y-50005752D02*
X148051028Y-50053371D01*
X148051028Y-50053371D02*
X148098647Y-50100990D01*
X148098647Y-50100990D02*
X148146266Y-50196228D01*
X148146266Y-50196228D02*
X148146266Y-50481942D01*
X148146266Y-50481942D02*
X148098647Y-50577180D01*
X148098647Y-50577180D02*
X148051028Y-50624800D01*
X148051028Y-50624800D02*
X147955790Y-50672419D01*
X147955790Y-50672419D02*
X147812933Y-50672419D01*
X148717695Y-50672419D02*
X148622457Y-50624800D01*
X148622457Y-50624800D02*
X148574838Y-50577180D01*
X148574838Y-50577180D02*
X148527219Y-50481942D01*
X148527219Y-50481942D02*
X148527219Y-50196228D01*
X148527219Y-50196228D02*
X148574838Y-50100990D01*
X148574838Y-50100990D02*
X148622457Y-50053371D01*
X148622457Y-50053371D02*
X148717695Y-50005752D01*
X148717695Y-50005752D02*
X148860552Y-50005752D01*
X148860552Y-50005752D02*
X148955790Y-50053371D01*
X148955790Y-50053371D02*
X149003409Y-50100990D01*
X149003409Y-50100990D02*
X149051028Y-50196228D01*
X149051028Y-50196228D02*
X149051028Y-50481942D01*
X149051028Y-50481942D02*
X149003409Y-50577180D01*
X149003409Y-50577180D02*
X148955790Y-50624800D01*
X148955790Y-50624800D02*
X148860552Y-50672419D01*
X148860552Y-50672419D02*
X148717695Y-50672419D01*
X149479600Y-50672419D02*
X149479600Y-49672419D01*
X149574838Y-50291466D02*
X149860552Y-50672419D01*
X149860552Y-50005752D02*
X149479600Y-50386704D01*
X150336743Y-49672419D02*
X150241505Y-49862895D01*
X150717695Y-50624800D02*
X150812933Y-50672419D01*
X150812933Y-50672419D02*
X151003409Y-50672419D01*
X151003409Y-50672419D02*
X151098647Y-50624800D01*
X151098647Y-50624800D02*
X151146266Y-50529561D01*
X151146266Y-50529561D02*
X151146266Y-50481942D01*
X151146266Y-50481942D02*
X151098647Y-50386704D01*
X151098647Y-50386704D02*
X151003409Y-50339085D01*
X151003409Y-50339085D02*
X150860552Y-50339085D01*
X150860552Y-50339085D02*
X150765314Y-50291466D01*
X150765314Y-50291466D02*
X150717695Y-50196228D01*
X150717695Y-50196228D02*
X150717695Y-50148609D01*
X150717695Y-50148609D02*
X150765314Y-50053371D01*
X150765314Y-50053371D02*
X150860552Y-50005752D01*
X150860552Y-50005752D02*
X151003409Y-50005752D01*
X151003409Y-50005752D02*
X151098647Y-50053371D01*
X152812933Y-50672419D02*
X152336743Y-50672419D01*
X152336743Y-50672419D02*
X152336743Y-49672419D01*
X153574838Y-50672419D02*
X153574838Y-50148609D01*
X153574838Y-50148609D02*
X153527219Y-50053371D01*
X153527219Y-50053371D02*
X153431981Y-50005752D01*
X153431981Y-50005752D02*
X153241505Y-50005752D01*
X153241505Y-50005752D02*
X153146267Y-50053371D01*
X153574838Y-50624800D02*
X153479600Y-50672419D01*
X153479600Y-50672419D02*
X153241505Y-50672419D01*
X153241505Y-50672419D02*
X153146267Y-50624800D01*
X153146267Y-50624800D02*
X153098648Y-50529561D01*
X153098648Y-50529561D02*
X153098648Y-50434323D01*
X153098648Y-50434323D02*
X153146267Y-50339085D01*
X153146267Y-50339085D02*
X153241505Y-50291466D01*
X153241505Y-50291466D02*
X153479600Y-50291466D01*
X153479600Y-50291466D02*
X153574838Y-50243847D01*
X154051029Y-50672419D02*
X154051029Y-49672419D01*
X154051029Y-50053371D02*
X154146267Y-50005752D01*
X154146267Y-50005752D02*
X154336743Y-50005752D01*
X154336743Y-50005752D02*
X154431981Y-50053371D01*
X154431981Y-50053371D02*
X154479600Y-50100990D01*
X154479600Y-50100990D02*
X154527219Y-50196228D01*
X154527219Y-50196228D02*
X154527219Y-50481942D01*
X154527219Y-50481942D02*
X154479600Y-50577180D01*
X154479600Y-50577180D02*
X154431981Y-50624800D01*
X154431981Y-50624800D02*
X154336743Y-50672419D01*
X154336743Y-50672419D02*
X154146267Y-50672419D01*
X154146267Y-50672419D02*
X154051029Y-50624800D01*
D12*
X158854708Y-136650426D02*
X159616613Y-136650426D01*
X160045184Y-137031379D02*
X160170184Y-136031379D01*
X160170184Y-136031379D02*
X160414232Y-136745664D01*
X160414232Y-136745664D02*
X160836851Y-136031379D01*
X160836851Y-136031379D02*
X160711851Y-137031379D01*
X161176137Y-136364712D02*
X161330899Y-137031379D01*
X161652327Y-136364712D02*
X161330899Y-137031379D01*
X161330899Y-137031379D02*
X161205899Y-137269474D01*
X161205899Y-137269474D02*
X161152327Y-137317093D01*
X161152327Y-137317093D02*
X161051137Y-137364712D01*
X162384470Y-136983760D02*
X162283280Y-137031379D01*
X162283280Y-137031379D02*
X162092804Y-137031379D01*
X162092804Y-137031379D02*
X162003518Y-136983760D01*
X162003518Y-136983760D02*
X161961851Y-136936140D01*
X161961851Y-136936140D02*
X161926137Y-136840902D01*
X161926137Y-136840902D02*
X161961851Y-136555188D01*
X161961851Y-136555188D02*
X162021375Y-136459950D01*
X162021375Y-136459950D02*
X162074946Y-136412331D01*
X162074946Y-136412331D02*
X162176137Y-136364712D01*
X162176137Y-136364712D02*
X162366613Y-136364712D01*
X162366613Y-136364712D02*
X162455899Y-136412331D01*
X162807089Y-137031379D02*
X162932089Y-136031379D01*
X163235661Y-137031379D02*
X163301137Y-136507569D01*
X163301137Y-136507569D02*
X163265423Y-136412331D01*
X163265423Y-136412331D02*
X163176137Y-136364712D01*
X163176137Y-136364712D02*
X163033280Y-136364712D01*
X163033280Y-136364712D02*
X162932089Y-136412331D01*
X162932089Y-136412331D02*
X162878518Y-136459950D01*
X163711851Y-137031379D02*
X163795185Y-136364712D01*
X163836851Y-136031379D02*
X163783280Y-136078998D01*
X163783280Y-136078998D02*
X163824947Y-136126617D01*
X163824947Y-136126617D02*
X163878518Y-136078998D01*
X163878518Y-136078998D02*
X163836851Y-136031379D01*
X163836851Y-136031379D02*
X163824947Y-136126617D01*
X164271375Y-136364712D02*
X164146375Y-137364712D01*
X164265422Y-136412331D02*
X164366613Y-136364712D01*
X164366613Y-136364712D02*
X164557089Y-136364712D01*
X164557089Y-136364712D02*
X164646375Y-136412331D01*
X164646375Y-136412331D02*
X164688041Y-136459950D01*
X164688041Y-136459950D02*
X164723756Y-136555188D01*
X164723756Y-136555188D02*
X164688041Y-136840902D01*
X164688041Y-136840902D02*
X164628518Y-136936140D01*
X164628518Y-136936140D02*
X164574946Y-136983760D01*
X164574946Y-136983760D02*
X164473756Y-137031379D01*
X164473756Y-137031379D02*
X164283279Y-137031379D01*
X164283279Y-137031379D02*
X164193994Y-136983760D01*
X165854708Y-137031379D02*
X165979708Y-136031379D01*
X165979708Y-136031379D02*
X166223756Y-136745664D01*
X166223756Y-136745664D02*
X166646375Y-136031379D01*
X166646375Y-136031379D02*
X166521375Y-137031379D01*
X166997565Y-137031379D02*
X167122565Y-136031379D01*
X167122565Y-136031379D02*
X167503518Y-136031379D01*
X167503518Y-136031379D02*
X167592803Y-136078998D01*
X167592803Y-136078998D02*
X167634470Y-136126617D01*
X167634470Y-136126617D02*
X167670184Y-136221855D01*
X167670184Y-136221855D02*
X167652327Y-136364712D01*
X167652327Y-136364712D02*
X167592803Y-136459950D01*
X167592803Y-136459950D02*
X167539232Y-136507569D01*
X167539232Y-136507569D02*
X167438042Y-136555188D01*
X167438042Y-136555188D02*
X167057089Y-136555188D01*
X168027327Y-136031379D02*
X168140423Y-137031379D01*
X168140423Y-137031379D02*
X168420184Y-136317093D01*
X168420184Y-136317093D02*
X168521375Y-137031379D01*
X168521375Y-137031379D02*
X168884470Y-136031379D01*
X169860661Y-136983760D02*
X169997565Y-137031379D01*
X169997565Y-137031379D02*
X170235661Y-137031379D01*
X170235661Y-137031379D02*
X170336851Y-136983760D01*
X170336851Y-136983760D02*
X170390423Y-136936140D01*
X170390423Y-136936140D02*
X170449946Y-136840902D01*
X170449946Y-136840902D02*
X170461851Y-136745664D01*
X170461851Y-136745664D02*
X170426137Y-136650426D01*
X170426137Y-136650426D02*
X170384470Y-136602807D01*
X170384470Y-136602807D02*
X170295185Y-136555188D01*
X170295185Y-136555188D02*
X170110661Y-136507569D01*
X170110661Y-136507569D02*
X170021375Y-136459950D01*
X170021375Y-136459950D02*
X169979708Y-136412331D01*
X169979708Y-136412331D02*
X169943994Y-136317093D01*
X169943994Y-136317093D02*
X169955899Y-136221855D01*
X169955899Y-136221855D02*
X170015423Y-136126617D01*
X170015423Y-136126617D02*
X170068994Y-136078998D01*
X170068994Y-136078998D02*
X170170185Y-136031379D01*
X170170185Y-136031379D02*
X170408280Y-136031379D01*
X170408280Y-136031379D02*
X170545185Y-136078998D01*
X171241613Y-136983760D02*
X171140423Y-137031379D01*
X171140423Y-137031379D02*
X170949946Y-137031379D01*
X170949946Y-137031379D02*
X170860661Y-136983760D01*
X170860661Y-136983760D02*
X170824946Y-136888521D01*
X170824946Y-136888521D02*
X170872566Y-136507569D01*
X170872566Y-136507569D02*
X170932089Y-136412331D01*
X170932089Y-136412331D02*
X171033280Y-136364712D01*
X171033280Y-136364712D02*
X171223756Y-136364712D01*
X171223756Y-136364712D02*
X171313042Y-136412331D01*
X171313042Y-136412331D02*
X171348756Y-136507569D01*
X171348756Y-136507569D02*
X171336851Y-136602807D01*
X171336851Y-136602807D02*
X170848756Y-136698045D01*
X171711851Y-137031379D02*
X171795185Y-136364712D01*
X171771375Y-136555188D02*
X171830899Y-136459950D01*
X171830899Y-136459950D02*
X171884470Y-136412331D01*
X171884470Y-136412331D02*
X171985661Y-136364712D01*
X171985661Y-136364712D02*
X172080899Y-136364712D01*
X172318995Y-136364712D02*
X172473757Y-137031379D01*
X172473757Y-137031379D02*
X172795185Y-136364712D01*
X173092804Y-137031379D02*
X173176138Y-136364712D01*
X173217804Y-136031379D02*
X173164233Y-136078998D01*
X173164233Y-136078998D02*
X173205900Y-136126617D01*
X173205900Y-136126617D02*
X173259471Y-136078998D01*
X173259471Y-136078998D02*
X173217804Y-136031379D01*
X173217804Y-136031379D02*
X173205900Y-136126617D01*
X174003518Y-136983760D02*
X173902328Y-137031379D01*
X173902328Y-137031379D02*
X173711852Y-137031379D01*
X173711852Y-137031379D02*
X173622566Y-136983760D01*
X173622566Y-136983760D02*
X173580899Y-136936140D01*
X173580899Y-136936140D02*
X173545185Y-136840902D01*
X173545185Y-136840902D02*
X173580899Y-136555188D01*
X173580899Y-136555188D02*
X173640423Y-136459950D01*
X173640423Y-136459950D02*
X173693994Y-136412331D01*
X173693994Y-136412331D02*
X173795185Y-136364712D01*
X173795185Y-136364712D02*
X173985661Y-136364712D01*
X173985661Y-136364712D02*
X174074947Y-136412331D01*
X174813042Y-136983760D02*
X174711852Y-137031379D01*
X174711852Y-137031379D02*
X174521375Y-137031379D01*
X174521375Y-137031379D02*
X174432090Y-136983760D01*
X174432090Y-136983760D02*
X174396375Y-136888521D01*
X174396375Y-136888521D02*
X174443995Y-136507569D01*
X174443995Y-136507569D02*
X174503518Y-136412331D01*
X174503518Y-136412331D02*
X174604709Y-136364712D01*
X174604709Y-136364712D02*
X174795185Y-136364712D01*
X174795185Y-136364712D02*
X174884471Y-136412331D01*
X174884471Y-136412331D02*
X174920185Y-136507569D01*
X174920185Y-136507569D02*
X174908280Y-136602807D01*
X174908280Y-136602807D02*
X174420185Y-136698045D01*
D13*
X194116028Y-109493279D02*
X192616028Y-109493279D01*
X192616028Y-109493279D02*
X192616028Y-108921850D01*
X192616028Y-108921850D02*
X192687457Y-108778993D01*
X192687457Y-108778993D02*
X192758885Y-108707564D01*
X192758885Y-108707564D02*
X192901742Y-108636136D01*
X192901742Y-108636136D02*
X193116028Y-108636136D01*
X193116028Y-108636136D02*
X193258885Y-108707564D01*
X193258885Y-108707564D02*
X193330314Y-108778993D01*
X193330314Y-108778993D02*
X193401742Y-108921850D01*
X193401742Y-108921850D02*
X193401742Y-109493279D01*
X194044600Y-108064707D02*
X194116028Y-107850422D01*
X194116028Y-107850422D02*
X194116028Y-107493279D01*
X194116028Y-107493279D02*
X194044600Y-107350422D01*
X194044600Y-107350422D02*
X193973171Y-107278993D01*
X193973171Y-107278993D02*
X193830314Y-107207564D01*
X193830314Y-107207564D02*
X193687457Y-107207564D01*
X193687457Y-107207564D02*
X193544600Y-107278993D01*
X193544600Y-107278993D02*
X193473171Y-107350422D01*
X193473171Y-107350422D02*
X193401742Y-107493279D01*
X193401742Y-107493279D02*
X193330314Y-107778993D01*
X193330314Y-107778993D02*
X193258885Y-107921850D01*
X193258885Y-107921850D02*
X193187457Y-107993279D01*
X193187457Y-107993279D02*
X193044600Y-108064707D01*
X193044600Y-108064707D02*
X192901742Y-108064707D01*
X192901742Y-108064707D02*
X192758885Y-107993279D01*
X192758885Y-107993279D02*
X192687457Y-107921850D01*
X192687457Y-107921850D02*
X192616028Y-107778993D01*
X192616028Y-107778993D02*
X192616028Y-107421850D01*
X192616028Y-107421850D02*
X192687457Y-107207564D01*
X193973171Y-105707565D02*
X194044600Y-105778993D01*
X194044600Y-105778993D02*
X194116028Y-105993279D01*
X194116028Y-105993279D02*
X194116028Y-106136136D01*
X194116028Y-106136136D02*
X194044600Y-106350422D01*
X194044600Y-106350422D02*
X193901742Y-106493279D01*
X193901742Y-106493279D02*
X193758885Y-106564708D01*
X193758885Y-106564708D02*
X193473171Y-106636136D01*
X193473171Y-106636136D02*
X193258885Y-106636136D01*
X193258885Y-106636136D02*
X192973171Y-106564708D01*
X192973171Y-106564708D02*
X192830314Y-106493279D01*
X192830314Y-106493279D02*
X192687457Y-106350422D01*
X192687457Y-106350422D02*
X192616028Y-106136136D01*
X192616028Y-106136136D02*
X192616028Y-105993279D01*
X192616028Y-105993279D02*
X192687457Y-105778993D01*
X192687457Y-105778993D02*
X192758885Y-105707565D01*
X193330314Y-105064708D02*
X193330314Y-104564708D01*
X194116028Y-104350422D02*
X194116028Y-105064708D01*
X194116028Y-105064708D02*
X192616028Y-105064708D01*
X192616028Y-105064708D02*
X192616028Y-104350422D01*
X193544600Y-103707565D02*
X193544600Y-102564708D01*
X194116028Y-101850422D02*
X192616028Y-101850422D01*
X192616028Y-101850422D02*
X193687457Y-101350422D01*
X193687457Y-101350422D02*
X192616028Y-100850422D01*
X192616028Y-100850422D02*
X194116028Y-100850422D01*
X194116028Y-100136136D02*
X192616028Y-100136136D01*
X194116028Y-98278993D02*
X192616028Y-98278993D01*
X192616028Y-98278993D02*
X192616028Y-97707564D01*
X192616028Y-97707564D02*
X192687457Y-97564707D01*
X192687457Y-97564707D02*
X192758885Y-97493278D01*
X192758885Y-97493278D02*
X192901742Y-97421850D01*
X192901742Y-97421850D02*
X193116028Y-97421850D01*
X193116028Y-97421850D02*
X193258885Y-97493278D01*
X193258885Y-97493278D02*
X193330314Y-97564707D01*
X193330314Y-97564707D02*
X193401742Y-97707564D01*
X193401742Y-97707564D02*
X193401742Y-98278993D01*
X194116028Y-96564707D02*
X194044600Y-96707564D01*
X194044600Y-96707564D02*
X193973171Y-96778993D01*
X193973171Y-96778993D02*
X193830314Y-96850421D01*
X193830314Y-96850421D02*
X193401742Y-96850421D01*
X193401742Y-96850421D02*
X193258885Y-96778993D01*
X193258885Y-96778993D02*
X193187457Y-96707564D01*
X193187457Y-96707564D02*
X193116028Y-96564707D01*
X193116028Y-96564707D02*
X193116028Y-96350421D01*
X193116028Y-96350421D02*
X193187457Y-96207564D01*
X193187457Y-96207564D02*
X193258885Y-96136136D01*
X193258885Y-96136136D02*
X193401742Y-96064707D01*
X193401742Y-96064707D02*
X193830314Y-96064707D01*
X193830314Y-96064707D02*
X193973171Y-96136136D01*
X193973171Y-96136136D02*
X194044600Y-96207564D01*
X194044600Y-96207564D02*
X194116028Y-96350421D01*
X194116028Y-96350421D02*
X194116028Y-96564707D01*
X194116028Y-95421850D02*
X193116028Y-95421850D01*
X193401742Y-95421850D02*
X193258885Y-95350421D01*
X193258885Y-95350421D02*
X193187457Y-95278993D01*
X193187457Y-95278993D02*
X193116028Y-95136135D01*
X193116028Y-95136135D02*
X193116028Y-94993278D01*
X193116028Y-94707564D02*
X193116028Y-94136136D01*
X192616028Y-94493279D02*
X193901742Y-94493279D01*
X193901742Y-94493279D02*
X194044600Y-94421850D01*
X194044600Y-94421850D02*
X194116028Y-94278993D01*
X194116028Y-94278993D02*
X194116028Y-94136136D01*
X119217863Y-45065182D02*
X120146435Y-45065182D01*
X120146435Y-45065182D02*
X119646435Y-45667086D01*
X119646435Y-45667086D02*
X119860720Y-45667086D01*
X119860720Y-45667086D02*
X120003578Y-45742324D01*
X120003578Y-45742324D02*
X120075006Y-45817563D01*
X120075006Y-45817563D02*
X120146435Y-45968039D01*
X120146435Y-45968039D02*
X120146435Y-46344229D01*
X120146435Y-46344229D02*
X120075006Y-46494705D01*
X120075006Y-46494705D02*
X120003578Y-46569944D01*
X120003578Y-46569944D02*
X119860720Y-46645182D01*
X119860720Y-46645182D02*
X119432149Y-46645182D01*
X119432149Y-46645182D02*
X119289292Y-46569944D01*
X119289292Y-46569944D02*
X119217863Y-46494705D01*
X121075006Y-45065182D02*
X121217863Y-45065182D01*
X121217863Y-45065182D02*
X121360720Y-45140420D01*
X121360720Y-45140420D02*
X121432149Y-45215658D01*
X121432149Y-45215658D02*
X121503577Y-45366134D01*
X121503577Y-45366134D02*
X121575006Y-45667086D01*
X121575006Y-45667086D02*
X121575006Y-46043277D01*
X121575006Y-46043277D02*
X121503577Y-46344229D01*
X121503577Y-46344229D02*
X121432149Y-46494705D01*
X121432149Y-46494705D02*
X121360720Y-46569944D01*
X121360720Y-46569944D02*
X121217863Y-46645182D01*
X121217863Y-46645182D02*
X121075006Y-46645182D01*
X121075006Y-46645182D02*
X120932149Y-46569944D01*
X120932149Y-46569944D02*
X120860720Y-46494705D01*
X120860720Y-46494705D02*
X120789291Y-46344229D01*
X120789291Y-46344229D02*
X120717863Y-46043277D01*
X120717863Y-46043277D02*
X120717863Y-45667086D01*
X120717863Y-45667086D02*
X120789291Y-45366134D01*
X120789291Y-45366134D02*
X120860720Y-45215658D01*
X120860720Y-45215658D02*
X120932149Y-45140420D01*
X120932149Y-45140420D02*
X121075006Y-45065182D01*
X119289292Y-47759370D02*
X119360720Y-47684132D01*
X119360720Y-47684132D02*
X119503578Y-47608894D01*
X119503578Y-47608894D02*
X119860720Y-47608894D01*
X119860720Y-47608894D02*
X120003578Y-47684132D01*
X120003578Y-47684132D02*
X120075006Y-47759370D01*
X120075006Y-47759370D02*
X120146435Y-47909846D01*
X120146435Y-47909846D02*
X120146435Y-48060322D01*
X120146435Y-48060322D02*
X120075006Y-48286036D01*
X120075006Y-48286036D02*
X119217863Y-49188894D01*
X119217863Y-49188894D02*
X120146435Y-49188894D01*
X121003577Y-48286036D02*
X120860720Y-48210798D01*
X120860720Y-48210798D02*
X120789291Y-48135560D01*
X120789291Y-48135560D02*
X120717863Y-47985084D01*
X120717863Y-47985084D02*
X120717863Y-47909846D01*
X120717863Y-47909846D02*
X120789291Y-47759370D01*
X120789291Y-47759370D02*
X120860720Y-47684132D01*
X120860720Y-47684132D02*
X121003577Y-47608894D01*
X121003577Y-47608894D02*
X121289291Y-47608894D01*
X121289291Y-47608894D02*
X121432149Y-47684132D01*
X121432149Y-47684132D02*
X121503577Y-47759370D01*
X121503577Y-47759370D02*
X121575006Y-47909846D01*
X121575006Y-47909846D02*
X121575006Y-47985084D01*
X121575006Y-47985084D02*
X121503577Y-48135560D01*
X121503577Y-48135560D02*
X121432149Y-48210798D01*
X121432149Y-48210798D02*
X121289291Y-48286036D01*
X121289291Y-48286036D02*
X121003577Y-48286036D01*
X121003577Y-48286036D02*
X120860720Y-48361275D01*
X120860720Y-48361275D02*
X120789291Y-48436513D01*
X120789291Y-48436513D02*
X120717863Y-48586989D01*
X120717863Y-48586989D02*
X120717863Y-48887941D01*
X120717863Y-48887941D02*
X120789291Y-49038417D01*
X120789291Y-49038417D02*
X120860720Y-49113656D01*
X120860720Y-49113656D02*
X121003577Y-49188894D01*
X121003577Y-49188894D02*
X121289291Y-49188894D01*
X121289291Y-49188894D02*
X121432149Y-49113656D01*
X121432149Y-49113656D02*
X121503577Y-49038417D01*
X121503577Y-49038417D02*
X121575006Y-48887941D01*
X121575006Y-48887941D02*
X121575006Y-48586989D01*
X121575006Y-48586989D02*
X121503577Y-48436513D01*
X121503577Y-48436513D02*
X121432149Y-48361275D01*
X121432149Y-48361275D02*
X121289291Y-48286036D01*
X119217863Y-50152606D02*
X120146435Y-50152606D01*
X120146435Y-50152606D02*
X119646435Y-50754510D01*
X119646435Y-50754510D02*
X119860720Y-50754510D01*
X119860720Y-50754510D02*
X120003578Y-50829748D01*
X120003578Y-50829748D02*
X120075006Y-50904987D01*
X120075006Y-50904987D02*
X120146435Y-51055463D01*
X120146435Y-51055463D02*
X120146435Y-51431653D01*
X120146435Y-51431653D02*
X120075006Y-51582129D01*
X120075006Y-51582129D02*
X120003578Y-51657368D01*
X120003578Y-51657368D02*
X119860720Y-51732606D01*
X119860720Y-51732606D02*
X119432149Y-51732606D01*
X119432149Y-51732606D02*
X119289292Y-51657368D01*
X119289292Y-51657368D02*
X119217863Y-51582129D01*
X120717863Y-50303082D02*
X120789291Y-50227844D01*
X120789291Y-50227844D02*
X120932149Y-50152606D01*
X120932149Y-50152606D02*
X121289291Y-50152606D01*
X121289291Y-50152606D02*
X121432149Y-50227844D01*
X121432149Y-50227844D02*
X121503577Y-50303082D01*
X121503577Y-50303082D02*
X121575006Y-50453558D01*
X121575006Y-50453558D02*
X121575006Y-50604034D01*
X121575006Y-50604034D02*
X121503577Y-50829748D01*
X121503577Y-50829748D02*
X120646434Y-51732606D01*
X120646434Y-51732606D02*
X121575006Y-51732606D01*
X119217863Y-52696318D02*
X120146435Y-52696318D01*
X120146435Y-52696318D02*
X119646435Y-53298222D01*
X119646435Y-53298222D02*
X119860720Y-53298222D01*
X119860720Y-53298222D02*
X120003578Y-53373460D01*
X120003578Y-53373460D02*
X120075006Y-53448699D01*
X120075006Y-53448699D02*
X120146435Y-53599175D01*
X120146435Y-53599175D02*
X120146435Y-53975365D01*
X120146435Y-53975365D02*
X120075006Y-54125841D01*
X120075006Y-54125841D02*
X120003578Y-54201080D01*
X120003578Y-54201080D02*
X119860720Y-54276318D01*
X119860720Y-54276318D02*
X119432149Y-54276318D01*
X119432149Y-54276318D02*
X119289292Y-54201080D01*
X119289292Y-54201080D02*
X119217863Y-54125841D01*
X121575006Y-54276318D02*
X120717863Y-54276318D01*
X121146434Y-54276318D02*
X121146434Y-52696318D01*
X121146434Y-52696318D02*
X121003577Y-52922032D01*
X121003577Y-52922032D02*
X120860720Y-53072508D01*
X120860720Y-53072508D02*
X120717863Y-53147746D01*
X119217863Y-55240030D02*
X120146435Y-55240030D01*
X120146435Y-55240030D02*
X119646435Y-55841934D01*
X119646435Y-55841934D02*
X119860720Y-55841934D01*
X119860720Y-55841934D02*
X120003578Y-55917172D01*
X120003578Y-55917172D02*
X120075006Y-55992411D01*
X120075006Y-55992411D02*
X120146435Y-56142887D01*
X120146435Y-56142887D02*
X120146435Y-56519077D01*
X120146435Y-56519077D02*
X120075006Y-56669553D01*
X120075006Y-56669553D02*
X120003578Y-56744792D01*
X120003578Y-56744792D02*
X119860720Y-56820030D01*
X119860720Y-56820030D02*
X119432149Y-56820030D01*
X119432149Y-56820030D02*
X119289292Y-56744792D01*
X119289292Y-56744792D02*
X119217863Y-56669553D01*
X121432149Y-55766696D02*
X121432149Y-56820030D01*
X121075006Y-55164792D02*
X120717863Y-56293363D01*
X120717863Y-56293363D02*
X121646434Y-56293363D01*
X119217863Y-57783742D02*
X120146435Y-57783742D01*
X120146435Y-57783742D02*
X119646435Y-58385646D01*
X119646435Y-58385646D02*
X119860720Y-58385646D01*
X119860720Y-58385646D02*
X120003578Y-58460884D01*
X120003578Y-58460884D02*
X120075006Y-58536123D01*
X120075006Y-58536123D02*
X120146435Y-58686599D01*
X120146435Y-58686599D02*
X120146435Y-59062789D01*
X120146435Y-59062789D02*
X120075006Y-59213265D01*
X120075006Y-59213265D02*
X120003578Y-59288504D01*
X120003578Y-59288504D02*
X119860720Y-59363742D01*
X119860720Y-59363742D02*
X119432149Y-59363742D01*
X119432149Y-59363742D02*
X119289292Y-59288504D01*
X119289292Y-59288504D02*
X119217863Y-59213265D01*
X120646434Y-57783742D02*
X121575006Y-57783742D01*
X121575006Y-57783742D02*
X121075006Y-58385646D01*
X121075006Y-58385646D02*
X121289291Y-58385646D01*
X121289291Y-58385646D02*
X121432149Y-58460884D01*
X121432149Y-58460884D02*
X121503577Y-58536123D01*
X121503577Y-58536123D02*
X121575006Y-58686599D01*
X121575006Y-58686599D02*
X121575006Y-59062789D01*
X121575006Y-59062789D02*
X121503577Y-59213265D01*
X121503577Y-59213265D02*
X121432149Y-59288504D01*
X121432149Y-59288504D02*
X121289291Y-59363742D01*
X121289291Y-59363742D02*
X120860720Y-59363742D01*
X120860720Y-59363742D02*
X120717863Y-59288504D01*
X120717863Y-59288504D02*
X120646434Y-59213265D01*
X119217863Y-60327454D02*
X120146435Y-60327454D01*
X120146435Y-60327454D02*
X119646435Y-60929358D01*
X119646435Y-60929358D02*
X119860720Y-60929358D01*
X119860720Y-60929358D02*
X120003578Y-61004596D01*
X120003578Y-61004596D02*
X120075006Y-61079835D01*
X120075006Y-61079835D02*
X120146435Y-61230311D01*
X120146435Y-61230311D02*
X120146435Y-61606501D01*
X120146435Y-61606501D02*
X120075006Y-61756977D01*
X120075006Y-61756977D02*
X120003578Y-61832216D01*
X120003578Y-61832216D02*
X119860720Y-61907454D01*
X119860720Y-61907454D02*
X119432149Y-61907454D01*
X119432149Y-61907454D02*
X119289292Y-61832216D01*
X119289292Y-61832216D02*
X119217863Y-61756977D01*
X120860720Y-61907454D02*
X121146434Y-61907454D01*
X121146434Y-61907454D02*
X121289291Y-61832216D01*
X121289291Y-61832216D02*
X121360720Y-61756977D01*
X121360720Y-61756977D02*
X121503577Y-61531263D01*
X121503577Y-61531263D02*
X121575006Y-61230311D01*
X121575006Y-61230311D02*
X121575006Y-60628406D01*
X121575006Y-60628406D02*
X121503577Y-60477930D01*
X121503577Y-60477930D02*
X121432149Y-60402692D01*
X121432149Y-60402692D02*
X121289291Y-60327454D01*
X121289291Y-60327454D02*
X121003577Y-60327454D01*
X121003577Y-60327454D02*
X120860720Y-60402692D01*
X120860720Y-60402692D02*
X120789291Y-60477930D01*
X120789291Y-60477930D02*
X120717863Y-60628406D01*
X120717863Y-60628406D02*
X120717863Y-61004596D01*
X120717863Y-61004596D02*
X120789291Y-61155073D01*
X120789291Y-61155073D02*
X120860720Y-61230311D01*
X120860720Y-61230311D02*
X121003577Y-61305549D01*
X121003577Y-61305549D02*
X121289291Y-61305549D01*
X121289291Y-61305549D02*
X121432149Y-61230311D01*
X121432149Y-61230311D02*
X121503577Y-61155073D01*
X121503577Y-61155073D02*
X121575006Y-61004596D01*
X119217863Y-62871166D02*
X120146435Y-62871166D01*
X120146435Y-62871166D02*
X119646435Y-63473070D01*
X119646435Y-63473070D02*
X119860720Y-63473070D01*
X119860720Y-63473070D02*
X120003578Y-63548308D01*
X120003578Y-63548308D02*
X120075006Y-63623547D01*
X120075006Y-63623547D02*
X120146435Y-63774023D01*
X120146435Y-63774023D02*
X120146435Y-64150213D01*
X120146435Y-64150213D02*
X120075006Y-64300689D01*
X120075006Y-64300689D02*
X120003578Y-64375928D01*
X120003578Y-64375928D02*
X119860720Y-64451166D01*
X119860720Y-64451166D02*
X119432149Y-64451166D01*
X119432149Y-64451166D02*
X119289292Y-64375928D01*
X119289292Y-64375928D02*
X119217863Y-64300689D01*
X121003577Y-63548308D02*
X120860720Y-63473070D01*
X120860720Y-63473070D02*
X120789291Y-63397832D01*
X120789291Y-63397832D02*
X120717863Y-63247356D01*
X120717863Y-63247356D02*
X120717863Y-63172118D01*
X120717863Y-63172118D02*
X120789291Y-63021642D01*
X120789291Y-63021642D02*
X120860720Y-62946404D01*
X120860720Y-62946404D02*
X121003577Y-62871166D01*
X121003577Y-62871166D02*
X121289291Y-62871166D01*
X121289291Y-62871166D02*
X121432149Y-62946404D01*
X121432149Y-62946404D02*
X121503577Y-63021642D01*
X121503577Y-63021642D02*
X121575006Y-63172118D01*
X121575006Y-63172118D02*
X121575006Y-63247356D01*
X121575006Y-63247356D02*
X121503577Y-63397832D01*
X121503577Y-63397832D02*
X121432149Y-63473070D01*
X121432149Y-63473070D02*
X121289291Y-63548308D01*
X121289291Y-63548308D02*
X121003577Y-63548308D01*
X121003577Y-63548308D02*
X120860720Y-63623547D01*
X120860720Y-63623547D02*
X120789291Y-63698785D01*
X120789291Y-63698785D02*
X120717863Y-63849261D01*
X120717863Y-63849261D02*
X120717863Y-64150213D01*
X120717863Y-64150213D02*
X120789291Y-64300689D01*
X120789291Y-64300689D02*
X120860720Y-64375928D01*
X120860720Y-64375928D02*
X121003577Y-64451166D01*
X121003577Y-64451166D02*
X121289291Y-64451166D01*
X121289291Y-64451166D02*
X121432149Y-64375928D01*
X121432149Y-64375928D02*
X121503577Y-64300689D01*
X121503577Y-64300689D02*
X121575006Y-64150213D01*
X121575006Y-64150213D02*
X121575006Y-63849261D01*
X121575006Y-63849261D02*
X121503577Y-63698785D01*
X121503577Y-63698785D02*
X121432149Y-63623547D01*
X121432149Y-63623547D02*
X121289291Y-63548308D01*
X120003578Y-65941544D02*
X120003578Y-66994878D01*
X119646435Y-65339640D02*
X119289292Y-66468211D01*
X119289292Y-66468211D02*
X120217863Y-66468211D01*
X120646434Y-65414878D02*
X121575006Y-65414878D01*
X121575006Y-65414878D02*
X121075006Y-66016782D01*
X121075006Y-66016782D02*
X121289291Y-66016782D01*
X121289291Y-66016782D02*
X121432149Y-66092020D01*
X121432149Y-66092020D02*
X121503577Y-66167259D01*
X121503577Y-66167259D02*
X121575006Y-66317735D01*
X121575006Y-66317735D02*
X121575006Y-66693925D01*
X121575006Y-66693925D02*
X121503577Y-66844401D01*
X121503577Y-66844401D02*
X121432149Y-66919640D01*
X121432149Y-66919640D02*
X121289291Y-66994878D01*
X121289291Y-66994878D02*
X120860720Y-66994878D01*
X120860720Y-66994878D02*
X120717863Y-66919640D01*
X120717863Y-66919640D02*
X120646434Y-66844401D01*
X120003578Y-68485256D02*
X120003578Y-69538590D01*
X119646435Y-67883352D02*
X119289292Y-69011923D01*
X119289292Y-69011923D02*
X120217863Y-69011923D01*
X120717863Y-68109066D02*
X120789291Y-68033828D01*
X120789291Y-68033828D02*
X120932149Y-67958590D01*
X120932149Y-67958590D02*
X121289291Y-67958590D01*
X121289291Y-67958590D02*
X121432149Y-68033828D01*
X121432149Y-68033828D02*
X121503577Y-68109066D01*
X121503577Y-68109066D02*
X121575006Y-68259542D01*
X121575006Y-68259542D02*
X121575006Y-68410018D01*
X121575006Y-68410018D02*
X121503577Y-68635732D01*
X121503577Y-68635732D02*
X120646434Y-69538590D01*
X120646434Y-69538590D02*
X121575006Y-69538590D01*
X120003578Y-71028968D02*
X120003578Y-72082302D01*
X119646435Y-70427064D02*
X119289292Y-71555635D01*
X119289292Y-71555635D02*
X120217863Y-71555635D01*
X121432149Y-70502302D02*
X121146434Y-70502302D01*
X121146434Y-70502302D02*
X121003577Y-70577540D01*
X121003577Y-70577540D02*
X120932149Y-70652778D01*
X120932149Y-70652778D02*
X120789291Y-70878492D01*
X120789291Y-70878492D02*
X120717863Y-71179444D01*
X120717863Y-71179444D02*
X120717863Y-71781349D01*
X120717863Y-71781349D02*
X120789291Y-71931825D01*
X120789291Y-71931825D02*
X120860720Y-72007064D01*
X120860720Y-72007064D02*
X121003577Y-72082302D01*
X121003577Y-72082302D02*
X121289291Y-72082302D01*
X121289291Y-72082302D02*
X121432149Y-72007064D01*
X121432149Y-72007064D02*
X121503577Y-71931825D01*
X121503577Y-71931825D02*
X121575006Y-71781349D01*
X121575006Y-71781349D02*
X121575006Y-71405159D01*
X121575006Y-71405159D02*
X121503577Y-71254683D01*
X121503577Y-71254683D02*
X121432149Y-71179444D01*
X121432149Y-71179444D02*
X121289291Y-71104206D01*
X121289291Y-71104206D02*
X121003577Y-71104206D01*
X121003577Y-71104206D02*
X120860720Y-71179444D01*
X120860720Y-71179444D02*
X120789291Y-71254683D01*
X120789291Y-71254683D02*
X120717863Y-71405159D01*
X120003578Y-73572680D02*
X120003578Y-74626014D01*
X119646435Y-72970776D02*
X119289292Y-74099347D01*
X119289292Y-74099347D02*
X120217863Y-74099347D01*
X121432149Y-73572680D02*
X121432149Y-74626014D01*
X121075006Y-72970776D02*
X120717863Y-74099347D01*
X120717863Y-74099347D02*
X121646434Y-74099347D01*
X120075006Y-75589726D02*
X119360720Y-75589726D01*
X119360720Y-75589726D02*
X119289292Y-76342107D01*
X119289292Y-76342107D02*
X119360720Y-76266868D01*
X119360720Y-76266868D02*
X119503578Y-76191630D01*
X119503578Y-76191630D02*
X119860720Y-76191630D01*
X119860720Y-76191630D02*
X120003578Y-76266868D01*
X120003578Y-76266868D02*
X120075006Y-76342107D01*
X120075006Y-76342107D02*
X120146435Y-76492583D01*
X120146435Y-76492583D02*
X120146435Y-76868773D01*
X120146435Y-76868773D02*
X120075006Y-77019249D01*
X120075006Y-77019249D02*
X120003578Y-77094488D01*
X120003578Y-77094488D02*
X119860720Y-77169726D01*
X119860720Y-77169726D02*
X119503578Y-77169726D01*
X119503578Y-77169726D02*
X119360720Y-77094488D01*
X119360720Y-77094488D02*
X119289292Y-77019249D01*
X121075006Y-75589726D02*
X121217863Y-75589726D01*
X121217863Y-75589726D02*
X121360720Y-75664964D01*
X121360720Y-75664964D02*
X121432149Y-75740202D01*
X121432149Y-75740202D02*
X121503577Y-75890678D01*
X121503577Y-75890678D02*
X121575006Y-76191630D01*
X121575006Y-76191630D02*
X121575006Y-76567821D01*
X121575006Y-76567821D02*
X121503577Y-76868773D01*
X121503577Y-76868773D02*
X121432149Y-77019249D01*
X121432149Y-77019249D02*
X121360720Y-77094488D01*
X121360720Y-77094488D02*
X121217863Y-77169726D01*
X121217863Y-77169726D02*
X121075006Y-77169726D01*
X121075006Y-77169726D02*
X120932149Y-77094488D01*
X120932149Y-77094488D02*
X120860720Y-77019249D01*
X120860720Y-77019249D02*
X120789291Y-76868773D01*
X120789291Y-76868773D02*
X120717863Y-76567821D01*
X120717863Y-76567821D02*
X120717863Y-76191630D01*
X120717863Y-76191630D02*
X120789291Y-75890678D01*
X120789291Y-75890678D02*
X120860720Y-75740202D01*
X120860720Y-75740202D02*
X120932149Y-75664964D01*
X120932149Y-75664964D02*
X121075006Y-75589726D01*
X120003578Y-78660104D02*
X120003578Y-79713438D01*
X119646435Y-78058200D02*
X119289292Y-79186771D01*
X119289292Y-79186771D02*
X120217863Y-79186771D01*
X120860720Y-79713438D02*
X121146434Y-79713438D01*
X121146434Y-79713438D02*
X121289291Y-79638200D01*
X121289291Y-79638200D02*
X121360720Y-79562961D01*
X121360720Y-79562961D02*
X121503577Y-79337247D01*
X121503577Y-79337247D02*
X121575006Y-79036295D01*
X121575006Y-79036295D02*
X121575006Y-78434390D01*
X121575006Y-78434390D02*
X121503577Y-78283914D01*
X121503577Y-78283914D02*
X121432149Y-78208676D01*
X121432149Y-78208676D02*
X121289291Y-78133438D01*
X121289291Y-78133438D02*
X121003577Y-78133438D01*
X121003577Y-78133438D02*
X120860720Y-78208676D01*
X120860720Y-78208676D02*
X120789291Y-78283914D01*
X120789291Y-78283914D02*
X120717863Y-78434390D01*
X120717863Y-78434390D02*
X120717863Y-78810580D01*
X120717863Y-78810580D02*
X120789291Y-78961057D01*
X120789291Y-78961057D02*
X120860720Y-79036295D01*
X120860720Y-79036295D02*
X121003577Y-79111533D01*
X121003577Y-79111533D02*
X121289291Y-79111533D01*
X121289291Y-79111533D02*
X121432149Y-79036295D01*
X121432149Y-79036295D02*
X121503577Y-78961057D01*
X121503577Y-78961057D02*
X121575006Y-78810580D01*
X120075006Y-80677150D02*
X119360720Y-80677150D01*
X119360720Y-80677150D02*
X119289292Y-81429531D01*
X119289292Y-81429531D02*
X119360720Y-81354292D01*
X119360720Y-81354292D02*
X119503578Y-81279054D01*
X119503578Y-81279054D02*
X119860720Y-81279054D01*
X119860720Y-81279054D02*
X120003578Y-81354292D01*
X120003578Y-81354292D02*
X120075006Y-81429531D01*
X120075006Y-81429531D02*
X120146435Y-81580007D01*
X120146435Y-81580007D02*
X120146435Y-81956197D01*
X120146435Y-81956197D02*
X120075006Y-82106673D01*
X120075006Y-82106673D02*
X120003578Y-82181912D01*
X120003578Y-82181912D02*
X119860720Y-82257150D01*
X119860720Y-82257150D02*
X119503578Y-82257150D01*
X119503578Y-82257150D02*
X119360720Y-82181912D01*
X119360720Y-82181912D02*
X119289292Y-82106673D01*
X120717863Y-80827626D02*
X120789291Y-80752388D01*
X120789291Y-80752388D02*
X120932149Y-80677150D01*
X120932149Y-80677150D02*
X121289291Y-80677150D01*
X121289291Y-80677150D02*
X121432149Y-80752388D01*
X121432149Y-80752388D02*
X121503577Y-80827626D01*
X121503577Y-80827626D02*
X121575006Y-80978102D01*
X121575006Y-80978102D02*
X121575006Y-81128578D01*
X121575006Y-81128578D02*
X121503577Y-81354292D01*
X121503577Y-81354292D02*
X120646434Y-82257150D01*
X120646434Y-82257150D02*
X121575006Y-82257150D01*
X120075006Y-83220862D02*
X119360720Y-83220862D01*
X119360720Y-83220862D02*
X119289292Y-83973243D01*
X119289292Y-83973243D02*
X119360720Y-83898004D01*
X119360720Y-83898004D02*
X119503578Y-83822766D01*
X119503578Y-83822766D02*
X119860720Y-83822766D01*
X119860720Y-83822766D02*
X120003578Y-83898004D01*
X120003578Y-83898004D02*
X120075006Y-83973243D01*
X120075006Y-83973243D02*
X120146435Y-84123719D01*
X120146435Y-84123719D02*
X120146435Y-84499909D01*
X120146435Y-84499909D02*
X120075006Y-84650385D01*
X120075006Y-84650385D02*
X120003578Y-84725624D01*
X120003578Y-84725624D02*
X119860720Y-84800862D01*
X119860720Y-84800862D02*
X119503578Y-84800862D01*
X119503578Y-84800862D02*
X119360720Y-84725624D01*
X119360720Y-84725624D02*
X119289292Y-84650385D01*
X121575006Y-84800862D02*
X120717863Y-84800862D01*
X121146434Y-84800862D02*
X121146434Y-83220862D01*
X121146434Y-83220862D02*
X121003577Y-83446576D01*
X121003577Y-83446576D02*
X120860720Y-83597052D01*
X120860720Y-83597052D02*
X120717863Y-83672290D01*
X120075006Y-85764574D02*
X119360720Y-85764574D01*
X119360720Y-85764574D02*
X119289292Y-86516955D01*
X119289292Y-86516955D02*
X119360720Y-86441716D01*
X119360720Y-86441716D02*
X119503578Y-86366478D01*
X119503578Y-86366478D02*
X119860720Y-86366478D01*
X119860720Y-86366478D02*
X120003578Y-86441716D01*
X120003578Y-86441716D02*
X120075006Y-86516955D01*
X120075006Y-86516955D02*
X120146435Y-86667431D01*
X120146435Y-86667431D02*
X120146435Y-87043621D01*
X120146435Y-87043621D02*
X120075006Y-87194097D01*
X120075006Y-87194097D02*
X120003578Y-87269336D01*
X120003578Y-87269336D02*
X119860720Y-87344574D01*
X119860720Y-87344574D02*
X119503578Y-87344574D01*
X119503578Y-87344574D02*
X119360720Y-87269336D01*
X119360720Y-87269336D02*
X119289292Y-87194097D01*
X121432149Y-86291240D02*
X121432149Y-87344574D01*
X121075006Y-85689336D02*
X120717863Y-86817907D01*
X120717863Y-86817907D02*
X121646434Y-86817907D01*
X120075006Y-88308286D02*
X119360720Y-88308286D01*
X119360720Y-88308286D02*
X119289292Y-89060667D01*
X119289292Y-89060667D02*
X119360720Y-88985428D01*
X119360720Y-88985428D02*
X119503578Y-88910190D01*
X119503578Y-88910190D02*
X119860720Y-88910190D01*
X119860720Y-88910190D02*
X120003578Y-88985428D01*
X120003578Y-88985428D02*
X120075006Y-89060667D01*
X120075006Y-89060667D02*
X120146435Y-89211143D01*
X120146435Y-89211143D02*
X120146435Y-89587333D01*
X120146435Y-89587333D02*
X120075006Y-89737809D01*
X120075006Y-89737809D02*
X120003578Y-89813048D01*
X120003578Y-89813048D02*
X119860720Y-89888286D01*
X119860720Y-89888286D02*
X119503578Y-89888286D01*
X119503578Y-89888286D02*
X119360720Y-89813048D01*
X119360720Y-89813048D02*
X119289292Y-89737809D01*
X120646434Y-88308286D02*
X121575006Y-88308286D01*
X121575006Y-88308286D02*
X121075006Y-88910190D01*
X121075006Y-88910190D02*
X121289291Y-88910190D01*
X121289291Y-88910190D02*
X121432149Y-88985428D01*
X121432149Y-88985428D02*
X121503577Y-89060667D01*
X121503577Y-89060667D02*
X121575006Y-89211143D01*
X121575006Y-89211143D02*
X121575006Y-89587333D01*
X121575006Y-89587333D02*
X121503577Y-89737809D01*
X121503577Y-89737809D02*
X121432149Y-89813048D01*
X121432149Y-89813048D02*
X121289291Y-89888286D01*
X121289291Y-89888286D02*
X120860720Y-89888286D01*
X120860720Y-89888286D02*
X120717863Y-89813048D01*
X120717863Y-89813048D02*
X120646434Y-89737809D01*
X120075006Y-90851998D02*
X119360720Y-90851998D01*
X119360720Y-90851998D02*
X119289292Y-91604379D01*
X119289292Y-91604379D02*
X119360720Y-91529140D01*
X119360720Y-91529140D02*
X119503578Y-91453902D01*
X119503578Y-91453902D02*
X119860720Y-91453902D01*
X119860720Y-91453902D02*
X120003578Y-91529140D01*
X120003578Y-91529140D02*
X120075006Y-91604379D01*
X120075006Y-91604379D02*
X120146435Y-91754855D01*
X120146435Y-91754855D02*
X120146435Y-92131045D01*
X120146435Y-92131045D02*
X120075006Y-92281521D01*
X120075006Y-92281521D02*
X120003578Y-92356760D01*
X120003578Y-92356760D02*
X119860720Y-92431998D01*
X119860720Y-92431998D02*
X119503578Y-92431998D01*
X119503578Y-92431998D02*
X119360720Y-92356760D01*
X119360720Y-92356760D02*
X119289292Y-92281521D01*
X121003577Y-91529140D02*
X120860720Y-91453902D01*
X120860720Y-91453902D02*
X120789291Y-91378664D01*
X120789291Y-91378664D02*
X120717863Y-91228188D01*
X120717863Y-91228188D02*
X120717863Y-91152950D01*
X120717863Y-91152950D02*
X120789291Y-91002474D01*
X120789291Y-91002474D02*
X120860720Y-90927236D01*
X120860720Y-90927236D02*
X121003577Y-90851998D01*
X121003577Y-90851998D02*
X121289291Y-90851998D01*
X121289291Y-90851998D02*
X121432149Y-90927236D01*
X121432149Y-90927236D02*
X121503577Y-91002474D01*
X121503577Y-91002474D02*
X121575006Y-91152950D01*
X121575006Y-91152950D02*
X121575006Y-91228188D01*
X121575006Y-91228188D02*
X121503577Y-91378664D01*
X121503577Y-91378664D02*
X121432149Y-91453902D01*
X121432149Y-91453902D02*
X121289291Y-91529140D01*
X121289291Y-91529140D02*
X121003577Y-91529140D01*
X121003577Y-91529140D02*
X120860720Y-91604379D01*
X120860720Y-91604379D02*
X120789291Y-91679617D01*
X120789291Y-91679617D02*
X120717863Y-91830093D01*
X120717863Y-91830093D02*
X120717863Y-92131045D01*
X120717863Y-92131045D02*
X120789291Y-92281521D01*
X120789291Y-92281521D02*
X120860720Y-92356760D01*
X120860720Y-92356760D02*
X121003577Y-92431998D01*
X121003577Y-92431998D02*
X121289291Y-92431998D01*
X121289291Y-92431998D02*
X121432149Y-92356760D01*
X121432149Y-92356760D02*
X121503577Y-92281521D01*
X121503577Y-92281521D02*
X121575006Y-92131045D01*
X121575006Y-92131045D02*
X121575006Y-91830093D01*
X121575006Y-91830093D02*
X121503577Y-91679617D01*
X121503577Y-91679617D02*
X121432149Y-91604379D01*
X121432149Y-91604379D02*
X121289291Y-91529140D01*
X120075006Y-93395710D02*
X119360720Y-93395710D01*
X119360720Y-93395710D02*
X119289292Y-94148091D01*
X119289292Y-94148091D02*
X119360720Y-94072852D01*
X119360720Y-94072852D02*
X119503578Y-93997614D01*
X119503578Y-93997614D02*
X119860720Y-93997614D01*
X119860720Y-93997614D02*
X120003578Y-94072852D01*
X120003578Y-94072852D02*
X120075006Y-94148091D01*
X120075006Y-94148091D02*
X120146435Y-94298567D01*
X120146435Y-94298567D02*
X120146435Y-94674757D01*
X120146435Y-94674757D02*
X120075006Y-94825233D01*
X120075006Y-94825233D02*
X120003578Y-94900472D01*
X120003578Y-94900472D02*
X119860720Y-94975710D01*
X119860720Y-94975710D02*
X119503578Y-94975710D01*
X119503578Y-94975710D02*
X119360720Y-94900472D01*
X119360720Y-94900472D02*
X119289292Y-94825233D01*
X121503577Y-93395710D02*
X120789291Y-93395710D01*
X120789291Y-93395710D02*
X120717863Y-94148091D01*
X120717863Y-94148091D02*
X120789291Y-94072852D01*
X120789291Y-94072852D02*
X120932149Y-93997614D01*
X120932149Y-93997614D02*
X121289291Y-93997614D01*
X121289291Y-93997614D02*
X121432149Y-94072852D01*
X121432149Y-94072852D02*
X121503577Y-94148091D01*
X121503577Y-94148091D02*
X121575006Y-94298567D01*
X121575006Y-94298567D02*
X121575006Y-94674757D01*
X121575006Y-94674757D02*
X121503577Y-94825233D01*
X121503577Y-94825233D02*
X121432149Y-94900472D01*
X121432149Y-94900472D02*
X121289291Y-94975710D01*
X121289291Y-94975710D02*
X120932149Y-94975710D01*
X120932149Y-94975710D02*
X120789291Y-94900472D01*
X120789291Y-94900472D02*
X120717863Y-94825233D01*
X120003578Y-95939422D02*
X119717863Y-95939422D01*
X119717863Y-95939422D02*
X119575006Y-96014660D01*
X119575006Y-96014660D02*
X119503578Y-96089898D01*
X119503578Y-96089898D02*
X119360720Y-96315612D01*
X119360720Y-96315612D02*
X119289292Y-96616564D01*
X119289292Y-96616564D02*
X119289292Y-97218469D01*
X119289292Y-97218469D02*
X119360720Y-97368945D01*
X119360720Y-97368945D02*
X119432149Y-97444184D01*
X119432149Y-97444184D02*
X119575006Y-97519422D01*
X119575006Y-97519422D02*
X119860720Y-97519422D01*
X119860720Y-97519422D02*
X120003578Y-97444184D01*
X120003578Y-97444184D02*
X120075006Y-97368945D01*
X120075006Y-97368945D02*
X120146435Y-97218469D01*
X120146435Y-97218469D02*
X120146435Y-96842279D01*
X120146435Y-96842279D02*
X120075006Y-96691803D01*
X120075006Y-96691803D02*
X120003578Y-96616564D01*
X120003578Y-96616564D02*
X119860720Y-96541326D01*
X119860720Y-96541326D02*
X119575006Y-96541326D01*
X119575006Y-96541326D02*
X119432149Y-96616564D01*
X119432149Y-96616564D02*
X119360720Y-96691803D01*
X119360720Y-96691803D02*
X119289292Y-96842279D01*
X121075006Y-95939422D02*
X121217863Y-95939422D01*
X121217863Y-95939422D02*
X121360720Y-96014660D01*
X121360720Y-96014660D02*
X121432149Y-96089898D01*
X121432149Y-96089898D02*
X121503577Y-96240374D01*
X121503577Y-96240374D02*
X121575006Y-96541326D01*
X121575006Y-96541326D02*
X121575006Y-96917517D01*
X121575006Y-96917517D02*
X121503577Y-97218469D01*
X121503577Y-97218469D02*
X121432149Y-97368945D01*
X121432149Y-97368945D02*
X121360720Y-97444184D01*
X121360720Y-97444184D02*
X121217863Y-97519422D01*
X121217863Y-97519422D02*
X121075006Y-97519422D01*
X121075006Y-97519422D02*
X120932149Y-97444184D01*
X120932149Y-97444184D02*
X120860720Y-97368945D01*
X120860720Y-97368945D02*
X120789291Y-97218469D01*
X120789291Y-97218469D02*
X120717863Y-96917517D01*
X120717863Y-96917517D02*
X120717863Y-96541326D01*
X120717863Y-96541326D02*
X120789291Y-96240374D01*
X120789291Y-96240374D02*
X120860720Y-96089898D01*
X120860720Y-96089898D02*
X120932149Y-96014660D01*
X120932149Y-96014660D02*
X121075006Y-95939422D01*
X120075006Y-98483134D02*
X119360720Y-98483134D01*
X119360720Y-98483134D02*
X119289292Y-99235515D01*
X119289292Y-99235515D02*
X119360720Y-99160276D01*
X119360720Y-99160276D02*
X119503578Y-99085038D01*
X119503578Y-99085038D02*
X119860720Y-99085038D01*
X119860720Y-99085038D02*
X120003578Y-99160276D01*
X120003578Y-99160276D02*
X120075006Y-99235515D01*
X120075006Y-99235515D02*
X120146435Y-99385991D01*
X120146435Y-99385991D02*
X120146435Y-99762181D01*
X120146435Y-99762181D02*
X120075006Y-99912657D01*
X120075006Y-99912657D02*
X120003578Y-99987896D01*
X120003578Y-99987896D02*
X119860720Y-100063134D01*
X119860720Y-100063134D02*
X119503578Y-100063134D01*
X119503578Y-100063134D02*
X119360720Y-99987896D01*
X119360720Y-99987896D02*
X119289292Y-99912657D01*
X120860720Y-100063134D02*
X121146434Y-100063134D01*
X121146434Y-100063134D02*
X121289291Y-99987896D01*
X121289291Y-99987896D02*
X121360720Y-99912657D01*
X121360720Y-99912657D02*
X121503577Y-99686943D01*
X121503577Y-99686943D02*
X121575006Y-99385991D01*
X121575006Y-99385991D02*
X121575006Y-98784086D01*
X121575006Y-98784086D02*
X121503577Y-98633610D01*
X121503577Y-98633610D02*
X121432149Y-98558372D01*
X121432149Y-98558372D02*
X121289291Y-98483134D01*
X121289291Y-98483134D02*
X121003577Y-98483134D01*
X121003577Y-98483134D02*
X120860720Y-98558372D01*
X120860720Y-98558372D02*
X120789291Y-98633610D01*
X120789291Y-98633610D02*
X120717863Y-98784086D01*
X120717863Y-98784086D02*
X120717863Y-99160276D01*
X120717863Y-99160276D02*
X120789291Y-99310753D01*
X120789291Y-99310753D02*
X120860720Y-99385991D01*
X120860720Y-99385991D02*
X121003577Y-99461229D01*
X121003577Y-99461229D02*
X121289291Y-99461229D01*
X121289291Y-99461229D02*
X121432149Y-99385991D01*
X121432149Y-99385991D02*
X121503577Y-99310753D01*
X121503577Y-99310753D02*
X121575006Y-99160276D01*
X120003578Y-101026846D02*
X119717863Y-101026846D01*
X119717863Y-101026846D02*
X119575006Y-101102084D01*
X119575006Y-101102084D02*
X119503578Y-101177322D01*
X119503578Y-101177322D02*
X119360720Y-101403036D01*
X119360720Y-101403036D02*
X119289292Y-101703988D01*
X119289292Y-101703988D02*
X119289292Y-102305893D01*
X119289292Y-102305893D02*
X119360720Y-102456369D01*
X119360720Y-102456369D02*
X119432149Y-102531608D01*
X119432149Y-102531608D02*
X119575006Y-102606846D01*
X119575006Y-102606846D02*
X119860720Y-102606846D01*
X119860720Y-102606846D02*
X120003578Y-102531608D01*
X120003578Y-102531608D02*
X120075006Y-102456369D01*
X120075006Y-102456369D02*
X120146435Y-102305893D01*
X120146435Y-102305893D02*
X120146435Y-101929703D01*
X120146435Y-101929703D02*
X120075006Y-101779227D01*
X120075006Y-101779227D02*
X120003578Y-101703988D01*
X120003578Y-101703988D02*
X119860720Y-101628750D01*
X119860720Y-101628750D02*
X119575006Y-101628750D01*
X119575006Y-101628750D02*
X119432149Y-101703988D01*
X119432149Y-101703988D02*
X119360720Y-101779227D01*
X119360720Y-101779227D02*
X119289292Y-101929703D01*
X121503577Y-101026846D02*
X120789291Y-101026846D01*
X120789291Y-101026846D02*
X120717863Y-101779227D01*
X120717863Y-101779227D02*
X120789291Y-101703988D01*
X120789291Y-101703988D02*
X120932149Y-101628750D01*
X120932149Y-101628750D02*
X121289291Y-101628750D01*
X121289291Y-101628750D02*
X121432149Y-101703988D01*
X121432149Y-101703988D02*
X121503577Y-101779227D01*
X121503577Y-101779227D02*
X121575006Y-101929703D01*
X121575006Y-101929703D02*
X121575006Y-102305893D01*
X121575006Y-102305893D02*
X121503577Y-102456369D01*
X121503577Y-102456369D02*
X121432149Y-102531608D01*
X121432149Y-102531608D02*
X121289291Y-102606846D01*
X121289291Y-102606846D02*
X120932149Y-102606846D01*
X120932149Y-102606846D02*
X120789291Y-102531608D01*
X120789291Y-102531608D02*
X120717863Y-102456369D01*
X120003578Y-103570558D02*
X119717863Y-103570558D01*
X119717863Y-103570558D02*
X119575006Y-103645796D01*
X119575006Y-103645796D02*
X119503578Y-103721034D01*
X119503578Y-103721034D02*
X119360720Y-103946748D01*
X119360720Y-103946748D02*
X119289292Y-104247700D01*
X119289292Y-104247700D02*
X119289292Y-104849605D01*
X119289292Y-104849605D02*
X119360720Y-105000081D01*
X119360720Y-105000081D02*
X119432149Y-105075320D01*
X119432149Y-105075320D02*
X119575006Y-105150558D01*
X119575006Y-105150558D02*
X119860720Y-105150558D01*
X119860720Y-105150558D02*
X120003578Y-105075320D01*
X120003578Y-105075320D02*
X120075006Y-105000081D01*
X120075006Y-105000081D02*
X120146435Y-104849605D01*
X120146435Y-104849605D02*
X120146435Y-104473415D01*
X120146435Y-104473415D02*
X120075006Y-104322939D01*
X120075006Y-104322939D02*
X120003578Y-104247700D01*
X120003578Y-104247700D02*
X119860720Y-104172462D01*
X119860720Y-104172462D02*
X119575006Y-104172462D01*
X119575006Y-104172462D02*
X119432149Y-104247700D01*
X119432149Y-104247700D02*
X119360720Y-104322939D01*
X119360720Y-104322939D02*
X119289292Y-104473415D01*
X121432149Y-104097224D02*
X121432149Y-105150558D01*
X121075006Y-103495320D02*
X120717863Y-104623891D01*
X120717863Y-104623891D02*
X121646434Y-104623891D01*
X120003578Y-106114270D02*
X119717863Y-106114270D01*
X119717863Y-106114270D02*
X119575006Y-106189508D01*
X119575006Y-106189508D02*
X119503578Y-106264746D01*
X119503578Y-106264746D02*
X119360720Y-106490460D01*
X119360720Y-106490460D02*
X119289292Y-106791412D01*
X119289292Y-106791412D02*
X119289292Y-107393317D01*
X119289292Y-107393317D02*
X119360720Y-107543793D01*
X119360720Y-107543793D02*
X119432149Y-107619032D01*
X119432149Y-107619032D02*
X119575006Y-107694270D01*
X119575006Y-107694270D02*
X119860720Y-107694270D01*
X119860720Y-107694270D02*
X120003578Y-107619032D01*
X120003578Y-107619032D02*
X120075006Y-107543793D01*
X120075006Y-107543793D02*
X120146435Y-107393317D01*
X120146435Y-107393317D02*
X120146435Y-107017127D01*
X120146435Y-107017127D02*
X120075006Y-106866651D01*
X120075006Y-106866651D02*
X120003578Y-106791412D01*
X120003578Y-106791412D02*
X119860720Y-106716174D01*
X119860720Y-106716174D02*
X119575006Y-106716174D01*
X119575006Y-106716174D02*
X119432149Y-106791412D01*
X119432149Y-106791412D02*
X119360720Y-106866651D01*
X119360720Y-106866651D02*
X119289292Y-107017127D01*
X120646434Y-106114270D02*
X121646434Y-106114270D01*
X121646434Y-106114270D02*
X121003577Y-107694270D01*
X120003578Y-108657982D02*
X119717863Y-108657982D01*
X119717863Y-108657982D02*
X119575006Y-108733220D01*
X119575006Y-108733220D02*
X119503578Y-108808458D01*
X119503578Y-108808458D02*
X119360720Y-109034172D01*
X119360720Y-109034172D02*
X119289292Y-109335124D01*
X119289292Y-109335124D02*
X119289292Y-109937029D01*
X119289292Y-109937029D02*
X119360720Y-110087505D01*
X119360720Y-110087505D02*
X119432149Y-110162744D01*
X119432149Y-110162744D02*
X119575006Y-110237982D01*
X119575006Y-110237982D02*
X119860720Y-110237982D01*
X119860720Y-110237982D02*
X120003578Y-110162744D01*
X120003578Y-110162744D02*
X120075006Y-110087505D01*
X120075006Y-110087505D02*
X120146435Y-109937029D01*
X120146435Y-109937029D02*
X120146435Y-109560839D01*
X120146435Y-109560839D02*
X120075006Y-109410363D01*
X120075006Y-109410363D02*
X120003578Y-109335124D01*
X120003578Y-109335124D02*
X119860720Y-109259886D01*
X119860720Y-109259886D02*
X119575006Y-109259886D01*
X119575006Y-109259886D02*
X119432149Y-109335124D01*
X119432149Y-109335124D02*
X119360720Y-109410363D01*
X119360720Y-109410363D02*
X119289292Y-109560839D01*
X121432149Y-108657982D02*
X121146434Y-108657982D01*
X121146434Y-108657982D02*
X121003577Y-108733220D01*
X121003577Y-108733220D02*
X120932149Y-108808458D01*
X120932149Y-108808458D02*
X120789291Y-109034172D01*
X120789291Y-109034172D02*
X120717863Y-109335124D01*
X120717863Y-109335124D02*
X120717863Y-109937029D01*
X120717863Y-109937029D02*
X120789291Y-110087505D01*
X120789291Y-110087505D02*
X120860720Y-110162744D01*
X120860720Y-110162744D02*
X121003577Y-110237982D01*
X121003577Y-110237982D02*
X121289291Y-110237982D01*
X121289291Y-110237982D02*
X121432149Y-110162744D01*
X121432149Y-110162744D02*
X121503577Y-110087505D01*
X121503577Y-110087505D02*
X121575006Y-109937029D01*
X121575006Y-109937029D02*
X121575006Y-109560839D01*
X121575006Y-109560839D02*
X121503577Y-109410363D01*
X121503577Y-109410363D02*
X121432149Y-109335124D01*
X121432149Y-109335124D02*
X121289291Y-109259886D01*
X121289291Y-109259886D02*
X121003577Y-109259886D01*
X121003577Y-109259886D02*
X120860720Y-109335124D01*
X120860720Y-109335124D02*
X120789291Y-109410363D01*
X120789291Y-109410363D02*
X120717863Y-109560839D01*
X120003578Y-111201694D02*
X119717863Y-111201694D01*
X119717863Y-111201694D02*
X119575006Y-111276932D01*
X119575006Y-111276932D02*
X119503578Y-111352170D01*
X119503578Y-111352170D02*
X119360720Y-111577884D01*
X119360720Y-111577884D02*
X119289292Y-111878836D01*
X119289292Y-111878836D02*
X119289292Y-112480741D01*
X119289292Y-112480741D02*
X119360720Y-112631217D01*
X119360720Y-112631217D02*
X119432149Y-112706456D01*
X119432149Y-112706456D02*
X119575006Y-112781694D01*
X119575006Y-112781694D02*
X119860720Y-112781694D01*
X119860720Y-112781694D02*
X120003578Y-112706456D01*
X120003578Y-112706456D02*
X120075006Y-112631217D01*
X120075006Y-112631217D02*
X120146435Y-112480741D01*
X120146435Y-112480741D02*
X120146435Y-112104551D01*
X120146435Y-112104551D02*
X120075006Y-111954075D01*
X120075006Y-111954075D02*
X120003578Y-111878836D01*
X120003578Y-111878836D02*
X119860720Y-111803598D01*
X119860720Y-111803598D02*
X119575006Y-111803598D01*
X119575006Y-111803598D02*
X119432149Y-111878836D01*
X119432149Y-111878836D02*
X119360720Y-111954075D01*
X119360720Y-111954075D02*
X119289292Y-112104551D01*
X120860720Y-112781694D02*
X121146434Y-112781694D01*
X121146434Y-112781694D02*
X121289291Y-112706456D01*
X121289291Y-112706456D02*
X121360720Y-112631217D01*
X121360720Y-112631217D02*
X121503577Y-112405503D01*
X121503577Y-112405503D02*
X121575006Y-112104551D01*
X121575006Y-112104551D02*
X121575006Y-111502646D01*
X121575006Y-111502646D02*
X121503577Y-111352170D01*
X121503577Y-111352170D02*
X121432149Y-111276932D01*
X121432149Y-111276932D02*
X121289291Y-111201694D01*
X121289291Y-111201694D02*
X121003577Y-111201694D01*
X121003577Y-111201694D02*
X120860720Y-111276932D01*
X120860720Y-111276932D02*
X120789291Y-111352170D01*
X120789291Y-111352170D02*
X120717863Y-111502646D01*
X120717863Y-111502646D02*
X120717863Y-111878836D01*
X120717863Y-111878836D02*
X120789291Y-112029313D01*
X120789291Y-112029313D02*
X120860720Y-112104551D01*
X120860720Y-112104551D02*
X121003577Y-112179789D01*
X121003577Y-112179789D02*
X121289291Y-112179789D01*
X121289291Y-112179789D02*
X121432149Y-112104551D01*
X121432149Y-112104551D02*
X121503577Y-112029313D01*
X121503577Y-112029313D02*
X121575006Y-111878836D01*
X120003578Y-113745406D02*
X119717863Y-113745406D01*
X119717863Y-113745406D02*
X119575006Y-113820644D01*
X119575006Y-113820644D02*
X119503578Y-113895882D01*
X119503578Y-113895882D02*
X119360720Y-114121596D01*
X119360720Y-114121596D02*
X119289292Y-114422548D01*
X119289292Y-114422548D02*
X119289292Y-115024453D01*
X119289292Y-115024453D02*
X119360720Y-115174929D01*
X119360720Y-115174929D02*
X119432149Y-115250168D01*
X119432149Y-115250168D02*
X119575006Y-115325406D01*
X119575006Y-115325406D02*
X119860720Y-115325406D01*
X119860720Y-115325406D02*
X120003578Y-115250168D01*
X120003578Y-115250168D02*
X120075006Y-115174929D01*
X120075006Y-115174929D02*
X120146435Y-115024453D01*
X120146435Y-115024453D02*
X120146435Y-114648263D01*
X120146435Y-114648263D02*
X120075006Y-114497787D01*
X120075006Y-114497787D02*
X120003578Y-114422548D01*
X120003578Y-114422548D02*
X119860720Y-114347310D01*
X119860720Y-114347310D02*
X119575006Y-114347310D01*
X119575006Y-114347310D02*
X119432149Y-114422548D01*
X119432149Y-114422548D02*
X119360720Y-114497787D01*
X119360720Y-114497787D02*
X119289292Y-114648263D01*
X121003577Y-114422548D02*
X120860720Y-114347310D01*
X120860720Y-114347310D02*
X120789291Y-114272072D01*
X120789291Y-114272072D02*
X120717863Y-114121596D01*
X120717863Y-114121596D02*
X120717863Y-114046358D01*
X120717863Y-114046358D02*
X120789291Y-113895882D01*
X120789291Y-113895882D02*
X120860720Y-113820644D01*
X120860720Y-113820644D02*
X121003577Y-113745406D01*
X121003577Y-113745406D02*
X121289291Y-113745406D01*
X121289291Y-113745406D02*
X121432149Y-113820644D01*
X121432149Y-113820644D02*
X121503577Y-113895882D01*
X121503577Y-113895882D02*
X121575006Y-114046358D01*
X121575006Y-114046358D02*
X121575006Y-114121596D01*
X121575006Y-114121596D02*
X121503577Y-114272072D01*
X121503577Y-114272072D02*
X121432149Y-114347310D01*
X121432149Y-114347310D02*
X121289291Y-114422548D01*
X121289291Y-114422548D02*
X121003577Y-114422548D01*
X121003577Y-114422548D02*
X120860720Y-114497787D01*
X120860720Y-114497787D02*
X120789291Y-114573025D01*
X120789291Y-114573025D02*
X120717863Y-114723501D01*
X120717863Y-114723501D02*
X120717863Y-115024453D01*
X120717863Y-115024453D02*
X120789291Y-115174929D01*
X120789291Y-115174929D02*
X120860720Y-115250168D01*
X120860720Y-115250168D02*
X121003577Y-115325406D01*
X121003577Y-115325406D02*
X121289291Y-115325406D01*
X121289291Y-115325406D02*
X121432149Y-115250168D01*
X121432149Y-115250168D02*
X121503577Y-115174929D01*
X121503577Y-115174929D02*
X121575006Y-115024453D01*
X121575006Y-115024453D02*
X121575006Y-114723501D01*
X121575006Y-114723501D02*
X121503577Y-114573025D01*
X121503577Y-114573025D02*
X121432149Y-114497787D01*
X121432149Y-114497787D02*
X121289291Y-114422548D01*
X119217863Y-116289118D02*
X120217863Y-116289118D01*
X120217863Y-116289118D02*
X119575006Y-117869118D01*
X121575006Y-117869118D02*
X120717863Y-117869118D01*
X121146434Y-117869118D02*
X121146434Y-116289118D01*
X121146434Y-116289118D02*
X121003577Y-116514832D01*
X121003577Y-116514832D02*
X120860720Y-116665308D01*
X120860720Y-116665308D02*
X120717863Y-116740546D01*
X119217863Y-118832830D02*
X120217863Y-118832830D01*
X120217863Y-118832830D02*
X119575006Y-120412830D01*
X121075006Y-118832830D02*
X121217863Y-118832830D01*
X121217863Y-118832830D02*
X121360720Y-118908068D01*
X121360720Y-118908068D02*
X121432149Y-118983306D01*
X121432149Y-118983306D02*
X121503577Y-119133782D01*
X121503577Y-119133782D02*
X121575006Y-119434734D01*
X121575006Y-119434734D02*
X121575006Y-119810925D01*
X121575006Y-119810925D02*
X121503577Y-120111877D01*
X121503577Y-120111877D02*
X121432149Y-120262353D01*
X121432149Y-120262353D02*
X121360720Y-120337592D01*
X121360720Y-120337592D02*
X121217863Y-120412830D01*
X121217863Y-120412830D02*
X121075006Y-120412830D01*
X121075006Y-120412830D02*
X120932149Y-120337592D01*
X120932149Y-120337592D02*
X120860720Y-120262353D01*
X120860720Y-120262353D02*
X120789291Y-120111877D01*
X120789291Y-120111877D02*
X120717863Y-119810925D01*
X120717863Y-119810925D02*
X120717863Y-119434734D01*
X120717863Y-119434734D02*
X120789291Y-119133782D01*
X120789291Y-119133782D02*
X120860720Y-118983306D01*
X120860720Y-118983306D02*
X120932149Y-118908068D01*
X120932149Y-118908068D02*
X121075006Y-118832830D01*
X119217863Y-121376542D02*
X120217863Y-121376542D01*
X120217863Y-121376542D02*
X119575006Y-122956542D01*
X120646434Y-121376542D02*
X121575006Y-121376542D01*
X121575006Y-121376542D02*
X121075006Y-121978446D01*
X121075006Y-121978446D02*
X121289291Y-121978446D01*
X121289291Y-121978446D02*
X121432149Y-122053684D01*
X121432149Y-122053684D02*
X121503577Y-122128923D01*
X121503577Y-122128923D02*
X121575006Y-122279399D01*
X121575006Y-122279399D02*
X121575006Y-122655589D01*
X121575006Y-122655589D02*
X121503577Y-122806065D01*
X121503577Y-122806065D02*
X121432149Y-122881304D01*
X121432149Y-122881304D02*
X121289291Y-122956542D01*
X121289291Y-122956542D02*
X120860720Y-122956542D01*
X120860720Y-122956542D02*
X120717863Y-122881304D01*
X120717863Y-122881304D02*
X120646434Y-122806065D01*
X119217863Y-123920254D02*
X120217863Y-123920254D01*
X120217863Y-123920254D02*
X119575006Y-125500254D01*
X120717863Y-124070730D02*
X120789291Y-123995492D01*
X120789291Y-123995492D02*
X120932149Y-123920254D01*
X120932149Y-123920254D02*
X121289291Y-123920254D01*
X121289291Y-123920254D02*
X121432149Y-123995492D01*
X121432149Y-123995492D02*
X121503577Y-124070730D01*
X121503577Y-124070730D02*
X121575006Y-124221206D01*
X121575006Y-124221206D02*
X121575006Y-124371682D01*
X121575006Y-124371682D02*
X121503577Y-124597396D01*
X121503577Y-124597396D02*
X120646434Y-125500254D01*
X120646434Y-125500254D02*
X121575006Y-125500254D01*
X119217863Y-126463966D02*
X120217863Y-126463966D01*
X120217863Y-126463966D02*
X119575006Y-128043966D01*
X121432149Y-126463966D02*
X121146434Y-126463966D01*
X121146434Y-126463966D02*
X121003577Y-126539204D01*
X121003577Y-126539204D02*
X120932149Y-126614442D01*
X120932149Y-126614442D02*
X120789291Y-126840156D01*
X120789291Y-126840156D02*
X120717863Y-127141108D01*
X120717863Y-127141108D02*
X120717863Y-127743013D01*
X120717863Y-127743013D02*
X120789291Y-127893489D01*
X120789291Y-127893489D02*
X120860720Y-127968728D01*
X120860720Y-127968728D02*
X121003577Y-128043966D01*
X121003577Y-128043966D02*
X121289291Y-128043966D01*
X121289291Y-128043966D02*
X121432149Y-127968728D01*
X121432149Y-127968728D02*
X121503577Y-127893489D01*
X121503577Y-127893489D02*
X121575006Y-127743013D01*
X121575006Y-127743013D02*
X121575006Y-127366823D01*
X121575006Y-127366823D02*
X121503577Y-127216347D01*
X121503577Y-127216347D02*
X121432149Y-127141108D01*
X121432149Y-127141108D02*
X121289291Y-127065870D01*
X121289291Y-127065870D02*
X121003577Y-127065870D01*
X121003577Y-127065870D02*
X120860720Y-127141108D01*
X120860720Y-127141108D02*
X120789291Y-127216347D01*
X120789291Y-127216347D02*
X120717863Y-127366823D01*
X119217863Y-129007678D02*
X120217863Y-129007678D01*
X120217863Y-129007678D02*
X119575006Y-130587678D01*
X120646434Y-129007678D02*
X121646434Y-129007678D01*
X121646434Y-129007678D02*
X121003577Y-130587678D01*
X119575006Y-132228532D02*
X119432149Y-132153294D01*
X119432149Y-132153294D02*
X119360720Y-132078056D01*
X119360720Y-132078056D02*
X119289292Y-131927580D01*
X119289292Y-131927580D02*
X119289292Y-131852342D01*
X119289292Y-131852342D02*
X119360720Y-131701866D01*
X119360720Y-131701866D02*
X119432149Y-131626628D01*
X119432149Y-131626628D02*
X119575006Y-131551390D01*
X119575006Y-131551390D02*
X119860720Y-131551390D01*
X119860720Y-131551390D02*
X120003578Y-131626628D01*
X120003578Y-131626628D02*
X120075006Y-131701866D01*
X120075006Y-131701866D02*
X120146435Y-131852342D01*
X120146435Y-131852342D02*
X120146435Y-131927580D01*
X120146435Y-131927580D02*
X120075006Y-132078056D01*
X120075006Y-132078056D02*
X120003578Y-132153294D01*
X120003578Y-132153294D02*
X119860720Y-132228532D01*
X119860720Y-132228532D02*
X119575006Y-132228532D01*
X119575006Y-132228532D02*
X119432149Y-132303771D01*
X119432149Y-132303771D02*
X119360720Y-132379009D01*
X119360720Y-132379009D02*
X119289292Y-132529485D01*
X119289292Y-132529485D02*
X119289292Y-132830437D01*
X119289292Y-132830437D02*
X119360720Y-132980913D01*
X119360720Y-132980913D02*
X119432149Y-133056152D01*
X119432149Y-133056152D02*
X119575006Y-133131390D01*
X119575006Y-133131390D02*
X119860720Y-133131390D01*
X119860720Y-133131390D02*
X120003578Y-133056152D01*
X120003578Y-133056152D02*
X120075006Y-132980913D01*
X120075006Y-132980913D02*
X120146435Y-132830437D01*
X120146435Y-132830437D02*
X120146435Y-132529485D01*
X120146435Y-132529485D02*
X120075006Y-132379009D01*
X120075006Y-132379009D02*
X120003578Y-132303771D01*
X120003578Y-132303771D02*
X119860720Y-132228532D01*
X121503577Y-131551390D02*
X120789291Y-131551390D01*
X120789291Y-131551390D02*
X120717863Y-132303771D01*
X120717863Y-132303771D02*
X120789291Y-132228532D01*
X120789291Y-132228532D02*
X120932149Y-132153294D01*
X120932149Y-132153294D02*
X121289291Y-132153294D01*
X121289291Y-132153294D02*
X121432149Y-132228532D01*
X121432149Y-132228532D02*
X121503577Y-132303771D01*
X121503577Y-132303771D02*
X121575006Y-132454247D01*
X121575006Y-132454247D02*
X121575006Y-132830437D01*
X121575006Y-132830437D02*
X121503577Y-132980913D01*
X121503577Y-132980913D02*
X121432149Y-133056152D01*
X121432149Y-133056152D02*
X121289291Y-133131390D01*
X121289291Y-133131390D02*
X120932149Y-133131390D01*
X120932149Y-133131390D02*
X120789291Y-133056152D01*
X120789291Y-133056152D02*
X120717863Y-132980913D01*
X119575006Y-134772244D02*
X119432149Y-134697006D01*
X119432149Y-134697006D02*
X119360720Y-134621768D01*
X119360720Y-134621768D02*
X119289292Y-134471292D01*
X119289292Y-134471292D02*
X119289292Y-134396054D01*
X119289292Y-134396054D02*
X119360720Y-134245578D01*
X119360720Y-134245578D02*
X119432149Y-134170340D01*
X119432149Y-134170340D02*
X119575006Y-134095102D01*
X119575006Y-134095102D02*
X119860720Y-134095102D01*
X119860720Y-134095102D02*
X120003578Y-134170340D01*
X120003578Y-134170340D02*
X120075006Y-134245578D01*
X120075006Y-134245578D02*
X120146435Y-134396054D01*
X120146435Y-134396054D02*
X120146435Y-134471292D01*
X120146435Y-134471292D02*
X120075006Y-134621768D01*
X120075006Y-134621768D02*
X120003578Y-134697006D01*
X120003578Y-134697006D02*
X119860720Y-134772244D01*
X119860720Y-134772244D02*
X119575006Y-134772244D01*
X119575006Y-134772244D02*
X119432149Y-134847483D01*
X119432149Y-134847483D02*
X119360720Y-134922721D01*
X119360720Y-134922721D02*
X119289292Y-135073197D01*
X119289292Y-135073197D02*
X119289292Y-135374149D01*
X119289292Y-135374149D02*
X119360720Y-135524625D01*
X119360720Y-135524625D02*
X119432149Y-135599864D01*
X119432149Y-135599864D02*
X119575006Y-135675102D01*
X119575006Y-135675102D02*
X119860720Y-135675102D01*
X119860720Y-135675102D02*
X120003578Y-135599864D01*
X120003578Y-135599864D02*
X120075006Y-135524625D01*
X120075006Y-135524625D02*
X120146435Y-135374149D01*
X120146435Y-135374149D02*
X120146435Y-135073197D01*
X120146435Y-135073197D02*
X120075006Y-134922721D01*
X120075006Y-134922721D02*
X120003578Y-134847483D01*
X120003578Y-134847483D02*
X119860720Y-134772244D01*
X121432149Y-134095102D02*
X121146434Y-134095102D01*
X121146434Y-134095102D02*
X121003577Y-134170340D01*
X121003577Y-134170340D02*
X120932149Y-134245578D01*
X120932149Y-134245578D02*
X120789291Y-134471292D01*
X120789291Y-134471292D02*
X120717863Y-134772244D01*
X120717863Y-134772244D02*
X120717863Y-135374149D01*
X120717863Y-135374149D02*
X120789291Y-135524625D01*
X120789291Y-135524625D02*
X120860720Y-135599864D01*
X120860720Y-135599864D02*
X121003577Y-135675102D01*
X121003577Y-135675102D02*
X121289291Y-135675102D01*
X121289291Y-135675102D02*
X121432149Y-135599864D01*
X121432149Y-135599864D02*
X121503577Y-135524625D01*
X121503577Y-135524625D02*
X121575006Y-135374149D01*
X121575006Y-135374149D02*
X121575006Y-134997959D01*
X121575006Y-134997959D02*
X121503577Y-134847483D01*
X121503577Y-134847483D02*
X121432149Y-134772244D01*
X121432149Y-134772244D02*
X121289291Y-134697006D01*
X121289291Y-134697006D02*
X121003577Y-134697006D01*
X121003577Y-134697006D02*
X120860720Y-134772244D01*
X120860720Y-134772244D02*
X120789291Y-134847483D01*
X120789291Y-134847483D02*
X120717863Y-134997959D01*
X119432149Y-138218814D02*
X119717863Y-138218814D01*
X119717863Y-138218814D02*
X119860720Y-138143576D01*
X119860720Y-138143576D02*
X119932149Y-138068337D01*
X119932149Y-138068337D02*
X120075006Y-137842623D01*
X120075006Y-137842623D02*
X120146435Y-137541671D01*
X120146435Y-137541671D02*
X120146435Y-136939766D01*
X120146435Y-136939766D02*
X120075006Y-136789290D01*
X120075006Y-136789290D02*
X120003578Y-136714052D01*
X120003578Y-136714052D02*
X119860720Y-136638814D01*
X119860720Y-136638814D02*
X119575006Y-136638814D01*
X119575006Y-136638814D02*
X119432149Y-136714052D01*
X119432149Y-136714052D02*
X119360720Y-136789290D01*
X119360720Y-136789290D02*
X119289292Y-136939766D01*
X119289292Y-136939766D02*
X119289292Y-137315956D01*
X119289292Y-137315956D02*
X119360720Y-137466433D01*
X119360720Y-137466433D02*
X119432149Y-137541671D01*
X119432149Y-137541671D02*
X119575006Y-137616909D01*
X119575006Y-137616909D02*
X119860720Y-137616909D01*
X119860720Y-137616909D02*
X120003578Y-137541671D01*
X120003578Y-137541671D02*
X120075006Y-137466433D01*
X120075006Y-137466433D02*
X120146435Y-137315956D01*
X121003577Y-137315956D02*
X120860720Y-137240718D01*
X120860720Y-137240718D02*
X120789291Y-137165480D01*
X120789291Y-137165480D02*
X120717863Y-137015004D01*
X120717863Y-137015004D02*
X120717863Y-136939766D01*
X120717863Y-136939766D02*
X120789291Y-136789290D01*
X120789291Y-136789290D02*
X120860720Y-136714052D01*
X120860720Y-136714052D02*
X121003577Y-136638814D01*
X121003577Y-136638814D02*
X121289291Y-136638814D01*
X121289291Y-136638814D02*
X121432149Y-136714052D01*
X121432149Y-136714052D02*
X121503577Y-136789290D01*
X121503577Y-136789290D02*
X121575006Y-136939766D01*
X121575006Y-136939766D02*
X121575006Y-137015004D01*
X121575006Y-137015004D02*
X121503577Y-137165480D01*
X121503577Y-137165480D02*
X121432149Y-137240718D01*
X121432149Y-137240718D02*
X121289291Y-137315956D01*
X121289291Y-137315956D02*
X121003577Y-137315956D01*
X121003577Y-137315956D02*
X120860720Y-137391195D01*
X120860720Y-137391195D02*
X120789291Y-137466433D01*
X120789291Y-137466433D02*
X120717863Y-137616909D01*
X120717863Y-137616909D02*
X120717863Y-137917861D01*
X120717863Y-137917861D02*
X120789291Y-138068337D01*
X120789291Y-138068337D02*
X120860720Y-138143576D01*
X120860720Y-138143576D02*
X121003577Y-138218814D01*
X121003577Y-138218814D02*
X121289291Y-138218814D01*
X121289291Y-138218814D02*
X121432149Y-138143576D01*
X121432149Y-138143576D02*
X121503577Y-138068337D01*
X121503577Y-138068337D02*
X121575006Y-137917861D01*
X121575006Y-137917861D02*
X121575006Y-137616909D01*
X121575006Y-137616909D02*
X121503577Y-137466433D01*
X121503577Y-137466433D02*
X121432149Y-137391195D01*
X121432149Y-137391195D02*
X121289291Y-137315956D01*
X119432149Y-140762526D02*
X119717863Y-140762526D01*
X119717863Y-140762526D02*
X119860720Y-140687288D01*
X119860720Y-140687288D02*
X119932149Y-140612049D01*
X119932149Y-140612049D02*
X120075006Y-140386335D01*
X120075006Y-140386335D02*
X120146435Y-140085383D01*
X120146435Y-140085383D02*
X120146435Y-139483478D01*
X120146435Y-139483478D02*
X120075006Y-139333002D01*
X120075006Y-139333002D02*
X120003578Y-139257764D01*
X120003578Y-139257764D02*
X119860720Y-139182526D01*
X119860720Y-139182526D02*
X119575006Y-139182526D01*
X119575006Y-139182526D02*
X119432149Y-139257764D01*
X119432149Y-139257764D02*
X119360720Y-139333002D01*
X119360720Y-139333002D02*
X119289292Y-139483478D01*
X119289292Y-139483478D02*
X119289292Y-139859668D01*
X119289292Y-139859668D02*
X119360720Y-140010145D01*
X119360720Y-140010145D02*
X119432149Y-140085383D01*
X119432149Y-140085383D02*
X119575006Y-140160621D01*
X119575006Y-140160621D02*
X119860720Y-140160621D01*
X119860720Y-140160621D02*
X120003578Y-140085383D01*
X120003578Y-140085383D02*
X120075006Y-140010145D01*
X120075006Y-140010145D02*
X120146435Y-139859668D01*
X120860720Y-140762526D02*
X121146434Y-140762526D01*
X121146434Y-140762526D02*
X121289291Y-140687288D01*
X121289291Y-140687288D02*
X121360720Y-140612049D01*
X121360720Y-140612049D02*
X121503577Y-140386335D01*
X121503577Y-140386335D02*
X121575006Y-140085383D01*
X121575006Y-140085383D02*
X121575006Y-139483478D01*
X121575006Y-139483478D02*
X121503577Y-139333002D01*
X121503577Y-139333002D02*
X121432149Y-139257764D01*
X121432149Y-139257764D02*
X121289291Y-139182526D01*
X121289291Y-139182526D02*
X121003577Y-139182526D01*
X121003577Y-139182526D02*
X120860720Y-139257764D01*
X120860720Y-139257764D02*
X120789291Y-139333002D01*
X120789291Y-139333002D02*
X120717863Y-139483478D01*
X120717863Y-139483478D02*
X120717863Y-139859668D01*
X120717863Y-139859668D02*
X120789291Y-140010145D01*
X120789291Y-140010145D02*
X120860720Y-140085383D01*
X120860720Y-140085383D02*
X121003577Y-140160621D01*
X121003577Y-140160621D02*
X121289291Y-140160621D01*
X121289291Y-140160621D02*
X121432149Y-140085383D01*
X121432149Y-140085383D02*
X121503577Y-140010145D01*
X121503577Y-140010145D02*
X121575006Y-139859668D01*
X120146435Y-141801476D02*
X120003578Y-141726238D01*
X120003578Y-141726238D02*
X119789292Y-141726238D01*
X119789292Y-141726238D02*
X119575006Y-141801476D01*
X119575006Y-141801476D02*
X119432149Y-141951952D01*
X119432149Y-141951952D02*
X119360720Y-142102428D01*
X119360720Y-142102428D02*
X119289292Y-142403380D01*
X119289292Y-142403380D02*
X119289292Y-142629095D01*
X119289292Y-142629095D02*
X119360720Y-142930047D01*
X119360720Y-142930047D02*
X119432149Y-143080523D01*
X119432149Y-143080523D02*
X119575006Y-143231000D01*
X119575006Y-143231000D02*
X119789292Y-143306238D01*
X119789292Y-143306238D02*
X119932149Y-143306238D01*
X119932149Y-143306238D02*
X120146435Y-143231000D01*
X120146435Y-143231000D02*
X120217863Y-143155761D01*
X120217863Y-143155761D02*
X120217863Y-142629095D01*
X120217863Y-142629095D02*
X119932149Y-142629095D01*
X120860720Y-143306238D02*
X120860720Y-141726238D01*
X120860720Y-141726238D02*
X121717863Y-143306238D01*
X121717863Y-143306238D02*
X121717863Y-141726238D01*
X122432149Y-143306238D02*
X122432149Y-141726238D01*
X122432149Y-141726238D02*
X122789292Y-141726238D01*
X122789292Y-141726238D02*
X123003578Y-141801476D01*
X123003578Y-141801476D02*
X123146435Y-141951952D01*
X123146435Y-141951952D02*
X123217864Y-142102428D01*
X123217864Y-142102428D02*
X123289292Y-142403380D01*
X123289292Y-142403380D02*
X123289292Y-142629095D01*
X123289292Y-142629095D02*
X123217864Y-142930047D01*
X123217864Y-142930047D02*
X123146435Y-143080523D01*
X123146435Y-143080523D02*
X123003578Y-143231000D01*
X123003578Y-143231000D02*
X122789292Y-143306238D01*
X122789292Y-143306238D02*
X122432149Y-143306238D01*
D14*
X136444510Y-45459638D02*
X136444510Y-43459638D01*
X136444510Y-43459638D02*
X137015939Y-43459638D01*
X137015939Y-43459638D02*
X137158796Y-43554876D01*
X137158796Y-43554876D02*
X137230225Y-43650114D01*
X137230225Y-43650114D02*
X137301653Y-43840590D01*
X137301653Y-43840590D02*
X137301653Y-44126304D01*
X137301653Y-44126304D02*
X137230225Y-44316780D01*
X137230225Y-44316780D02*
X137158796Y-44412019D01*
X137158796Y-44412019D02*
X137015939Y-44507257D01*
X137015939Y-44507257D02*
X136444510Y-44507257D01*
X137873082Y-45364400D02*
X138087368Y-45459638D01*
X138087368Y-45459638D02*
X138444510Y-45459638D01*
X138444510Y-45459638D02*
X138587368Y-45364400D01*
X138587368Y-45364400D02*
X138658796Y-45269161D01*
X138658796Y-45269161D02*
X138730225Y-45078685D01*
X138730225Y-45078685D02*
X138730225Y-44888209D01*
X138730225Y-44888209D02*
X138658796Y-44697733D01*
X138658796Y-44697733D02*
X138587368Y-44602495D01*
X138587368Y-44602495D02*
X138444510Y-44507257D01*
X138444510Y-44507257D02*
X138158796Y-44412019D01*
X138158796Y-44412019D02*
X138015939Y-44316780D01*
X138015939Y-44316780D02*
X137944510Y-44221542D01*
X137944510Y-44221542D02*
X137873082Y-44031066D01*
X137873082Y-44031066D02*
X137873082Y-43840590D01*
X137873082Y-43840590D02*
X137944510Y-43650114D01*
X137944510Y-43650114D02*
X138015939Y-43554876D01*
X138015939Y-43554876D02*
X138158796Y-43459638D01*
X138158796Y-43459638D02*
X138515939Y-43459638D01*
X138515939Y-43459638D02*
X138730225Y-43554876D01*
X140230224Y-45269161D02*
X140158796Y-45364400D01*
X140158796Y-45364400D02*
X139944510Y-45459638D01*
X139944510Y-45459638D02*
X139801653Y-45459638D01*
X139801653Y-45459638D02*
X139587367Y-45364400D01*
X139587367Y-45364400D02*
X139444510Y-45173923D01*
X139444510Y-45173923D02*
X139373081Y-44983447D01*
X139373081Y-44983447D02*
X139301653Y-44602495D01*
X139301653Y-44602495D02*
X139301653Y-44316780D01*
X139301653Y-44316780D02*
X139373081Y-43935828D01*
X139373081Y-43935828D02*
X139444510Y-43745352D01*
X139444510Y-43745352D02*
X139587367Y-43554876D01*
X139587367Y-43554876D02*
X139801653Y-43459638D01*
X139801653Y-43459638D02*
X139944510Y-43459638D01*
X139944510Y-43459638D02*
X140158796Y-43554876D01*
X140158796Y-43554876D02*
X140230224Y-43650114D01*
X140873081Y-44412019D02*
X141373081Y-44412019D01*
X141587367Y-45459638D02*
X140873081Y-45459638D01*
X140873081Y-45459638D02*
X140873081Y-43459638D01*
X140873081Y-43459638D02*
X141587367Y-43459638D01*
X142230224Y-44697733D02*
X143373082Y-44697733D01*
X143873082Y-43459638D02*
X144730225Y-43459638D01*
X144301653Y-45459638D02*
X144301653Y-43459638D01*
X146087367Y-45459638D02*
X145587367Y-44507257D01*
X145230224Y-45459638D02*
X145230224Y-43459638D01*
X145230224Y-43459638D02*
X145801653Y-43459638D01*
X145801653Y-43459638D02*
X145944510Y-43554876D01*
X145944510Y-43554876D02*
X146015939Y-43650114D01*
X146015939Y-43650114D02*
X146087367Y-43840590D01*
X146087367Y-43840590D02*
X146087367Y-44126304D01*
X146087367Y-44126304D02*
X146015939Y-44316780D01*
X146015939Y-44316780D02*
X145944510Y-44412019D01*
X145944510Y-44412019D02*
X145801653Y-44507257D01*
X145801653Y-44507257D02*
X145230224Y-44507257D01*
X146658796Y-44888209D02*
X147373082Y-44888209D01*
X146515939Y-45459638D02*
X147015939Y-43459638D01*
X147015939Y-43459638D02*
X147515939Y-45459638D01*
X148015938Y-45459638D02*
X148015938Y-43459638D01*
X148015938Y-43459638D02*
X148873081Y-45459638D01*
X148873081Y-45459638D02*
X148873081Y-43459638D01*
X149515939Y-45364400D02*
X149730225Y-45459638D01*
X149730225Y-45459638D02*
X150087367Y-45459638D01*
X150087367Y-45459638D02*
X150230225Y-45364400D01*
X150230225Y-45364400D02*
X150301653Y-45269161D01*
X150301653Y-45269161D02*
X150373082Y-45078685D01*
X150373082Y-45078685D02*
X150373082Y-44888209D01*
X150373082Y-44888209D02*
X150301653Y-44697733D01*
X150301653Y-44697733D02*
X150230225Y-44602495D01*
X150230225Y-44602495D02*
X150087367Y-44507257D01*
X150087367Y-44507257D02*
X149801653Y-44412019D01*
X149801653Y-44412019D02*
X149658796Y-44316780D01*
X149658796Y-44316780D02*
X149587367Y-44221542D01*
X149587367Y-44221542D02*
X149515939Y-44031066D01*
X149515939Y-44031066D02*
X149515939Y-43840590D01*
X149515939Y-43840590D02*
X149587367Y-43650114D01*
X149587367Y-43650114D02*
X149658796Y-43554876D01*
X149658796Y-43554876D02*
X149801653Y-43459638D01*
X149801653Y-43459638D02*
X150158796Y-43459638D01*
X150158796Y-43459638D02*
X150373082Y-43554876D01*
X153373081Y-45459638D02*
X153301653Y-45459638D01*
X153301653Y-45459638D02*
X153158795Y-45364400D01*
X153158795Y-45364400D02*
X152944510Y-45078685D01*
X152944510Y-45078685D02*
X152587367Y-44507257D01*
X152587367Y-44507257D02*
X152444510Y-44221542D01*
X152444510Y-44221542D02*
X152373081Y-43935828D01*
X152373081Y-43935828D02*
X152373081Y-43745352D01*
X152373081Y-43745352D02*
X152444510Y-43554876D01*
X152444510Y-43554876D02*
X152587367Y-43459638D01*
X152587367Y-43459638D02*
X152658795Y-43459638D01*
X152658795Y-43459638D02*
X152801653Y-43554876D01*
X152801653Y-43554876D02*
X152873081Y-43745352D01*
X152873081Y-43745352D02*
X152873081Y-43840590D01*
X152873081Y-43840590D02*
X152801653Y-44031066D01*
X152801653Y-44031066D02*
X152730224Y-44126304D01*
X152730224Y-44126304D02*
X152301653Y-44507257D01*
X152301653Y-44507257D02*
X152230224Y-44602495D01*
X152230224Y-44602495D02*
X152158795Y-44792971D01*
X152158795Y-44792971D02*
X152158795Y-45078685D01*
X152158795Y-45078685D02*
X152230224Y-45269161D01*
X152230224Y-45269161D02*
X152301653Y-45364400D01*
X152301653Y-45364400D02*
X152444510Y-45459638D01*
X152444510Y-45459638D02*
X152658795Y-45459638D01*
X152658795Y-45459638D02*
X152801653Y-45364400D01*
X152801653Y-45364400D02*
X152873081Y-45269161D01*
X152873081Y-45269161D02*
X153087367Y-44888209D01*
X153087367Y-44888209D02*
X153158795Y-44602495D01*
X153158795Y-44602495D02*
X153158795Y-44412019D01*
X154944510Y-43459638D02*
X155801653Y-43459638D01*
X155373081Y-45459638D02*
X155373081Y-43459638D01*
X156301652Y-44412019D02*
X156801652Y-44412019D01*
X157015938Y-45459638D02*
X156301652Y-45459638D01*
X156301652Y-45459638D02*
X156301652Y-43459638D01*
X156301652Y-43459638D02*
X157015938Y-43459638D01*
X157587367Y-45364400D02*
X157801653Y-45459638D01*
X157801653Y-45459638D02*
X158158795Y-45459638D01*
X158158795Y-45459638D02*
X158301653Y-45364400D01*
X158301653Y-45364400D02*
X158373081Y-45269161D01*
X158373081Y-45269161D02*
X158444510Y-45078685D01*
X158444510Y-45078685D02*
X158444510Y-44888209D01*
X158444510Y-44888209D02*
X158373081Y-44697733D01*
X158373081Y-44697733D02*
X158301653Y-44602495D01*
X158301653Y-44602495D02*
X158158795Y-44507257D01*
X158158795Y-44507257D02*
X157873081Y-44412019D01*
X157873081Y-44412019D02*
X157730224Y-44316780D01*
X157730224Y-44316780D02*
X157658795Y-44221542D01*
X157658795Y-44221542D02*
X157587367Y-44031066D01*
X157587367Y-44031066D02*
X157587367Y-43840590D01*
X157587367Y-43840590D02*
X157658795Y-43650114D01*
X157658795Y-43650114D02*
X157730224Y-43554876D01*
X157730224Y-43554876D02*
X157873081Y-43459638D01*
X157873081Y-43459638D02*
X158230224Y-43459638D01*
X158230224Y-43459638D02*
X158444510Y-43554876D01*
X158873081Y-43459638D02*
X159730224Y-43459638D01*
X159301652Y-45459638D02*
X159301652Y-43459638D01*
X161801652Y-46221542D02*
X161730223Y-46126304D01*
X161730223Y-46126304D02*
X161587366Y-45840590D01*
X161587366Y-45840590D02*
X161515938Y-45650114D01*
X161515938Y-45650114D02*
X161444509Y-45364400D01*
X161444509Y-45364400D02*
X161373080Y-44888209D01*
X161373080Y-44888209D02*
X161373080Y-44507257D01*
X161373080Y-44507257D02*
X161444509Y-44031066D01*
X161444509Y-44031066D02*
X161515938Y-43745352D01*
X161515938Y-43745352D02*
X161587366Y-43554876D01*
X161587366Y-43554876D02*
X161730223Y-43269161D01*
X161730223Y-43269161D02*
X161801652Y-43173923D01*
X162158795Y-43459638D02*
X163015938Y-43459638D01*
X162587366Y-45459638D02*
X162587366Y-43459638D01*
X163373080Y-44126304D02*
X163730223Y-45459638D01*
X164087366Y-44126304D02*
X163730223Y-45459638D01*
X163730223Y-45459638D02*
X163587366Y-45935828D01*
X163587366Y-45935828D02*
X163515937Y-46031066D01*
X163515937Y-46031066D02*
X163373080Y-46126304D01*
X164658794Y-44126304D02*
X164658794Y-46126304D01*
X164658794Y-44221542D02*
X164801652Y-44126304D01*
X164801652Y-44126304D02*
X165087366Y-44126304D01*
X165087366Y-44126304D02*
X165230223Y-44221542D01*
X165230223Y-44221542D02*
X165301652Y-44316780D01*
X165301652Y-44316780D02*
X165373080Y-44507257D01*
X165373080Y-44507257D02*
X165373080Y-45078685D01*
X165373080Y-45078685D02*
X165301652Y-45269161D01*
X165301652Y-45269161D02*
X165230223Y-45364400D01*
X165230223Y-45364400D02*
X165087366Y-45459638D01*
X165087366Y-45459638D02*
X164801652Y-45459638D01*
X164801652Y-45459638D02*
X164658794Y-45364400D01*
X166587366Y-45364400D02*
X166444509Y-45459638D01*
X166444509Y-45459638D02*
X166158795Y-45459638D01*
X166158795Y-45459638D02*
X166015937Y-45364400D01*
X166015937Y-45364400D02*
X165944509Y-45173923D01*
X165944509Y-45173923D02*
X165944509Y-44412019D01*
X165944509Y-44412019D02*
X166015937Y-44221542D01*
X166015937Y-44221542D02*
X166158795Y-44126304D01*
X166158795Y-44126304D02*
X166444509Y-44126304D01*
X166444509Y-44126304D02*
X166587366Y-44221542D01*
X166587366Y-44221542D02*
X166658795Y-44412019D01*
X166658795Y-44412019D02*
X166658795Y-44602495D01*
X166658795Y-44602495D02*
X165944509Y-44792971D01*
X167301651Y-44697733D02*
X168444509Y-44697733D01*
X169158794Y-45459638D02*
X169158794Y-43459638D01*
X170873080Y-44126304D02*
X171230223Y-45459638D01*
X171230223Y-45459638D02*
X171587366Y-44126304D01*
X172087366Y-43650114D02*
X172158794Y-43554876D01*
X172158794Y-43554876D02*
X172301652Y-43459638D01*
X172301652Y-43459638D02*
X172658794Y-43459638D01*
X172658794Y-43459638D02*
X172801652Y-43554876D01*
X172801652Y-43554876D02*
X172873080Y-43650114D01*
X172873080Y-43650114D02*
X172944509Y-43840590D01*
X172944509Y-43840590D02*
X172944509Y-44031066D01*
X172944509Y-44031066D02*
X172873080Y-44316780D01*
X172873080Y-44316780D02*
X172015937Y-45459638D01*
X172015937Y-45459638D02*
X172944509Y-45459638D01*
X173587365Y-45269161D02*
X173658794Y-45364400D01*
X173658794Y-45364400D02*
X173587365Y-45459638D01*
X173587365Y-45459638D02*
X173515937Y-45364400D01*
X173515937Y-45364400D02*
X173587365Y-45269161D01*
X173587365Y-45269161D02*
X173587365Y-45459638D01*
X175087366Y-45459638D02*
X174230223Y-45459638D01*
X174658794Y-45459638D02*
X174658794Y-43459638D01*
X174658794Y-43459638D02*
X174515937Y-43745352D01*
X174515937Y-43745352D02*
X174373080Y-43935828D01*
X174373080Y-43935828D02*
X174230223Y-44031066D01*
X175587365Y-46221542D02*
X175658794Y-46126304D01*
X175658794Y-46126304D02*
X175801651Y-45840590D01*
X175801651Y-45840590D02*
X175873080Y-45650114D01*
X175873080Y-45650114D02*
X175944508Y-45364400D01*
X175944508Y-45364400D02*
X176015937Y-44888209D01*
X176015937Y-44888209D02*
X176015937Y-44507257D01*
X176015937Y-44507257D02*
X175944508Y-44031066D01*
X175944508Y-44031066D02*
X175873080Y-43745352D01*
X175873080Y-43745352D02*
X175801651Y-43554876D01*
X175801651Y-43554876D02*
X175658794Y-43269161D01*
X175658794Y-43269161D02*
X175587365Y-43173923D01*
X151597177Y-131343638D02*
X151549558Y-131724590D01*
X152168606Y-131343638D02*
X152120987Y-131724590D01*
X152561463Y-133343638D02*
X152811463Y-131343638D01*
X152811463Y-131343638D02*
X153132891Y-132772209D01*
X153132891Y-132772209D02*
X153811463Y-131343638D01*
X153811463Y-131343638D02*
X153561463Y-133343638D01*
X154299558Y-132010304D02*
X154490034Y-133343638D01*
X155013844Y-132010304D02*
X154490034Y-133343638D01*
X154490034Y-133343638D02*
X154287653Y-133819828D01*
X154287653Y-133819828D02*
X154204320Y-133915066D01*
X154204320Y-133915066D02*
X154049558Y-134010304D01*
X157442415Y-133153161D02*
X157359082Y-133248400D01*
X157359082Y-133248400D02*
X157132891Y-133343638D01*
X157132891Y-133343638D02*
X156990034Y-133343638D01*
X156990034Y-133343638D02*
X156787653Y-133248400D01*
X156787653Y-133248400D02*
X156668605Y-133057923D01*
X156668605Y-133057923D02*
X156620986Y-132867447D01*
X156620986Y-132867447D02*
X156597177Y-132486495D01*
X156597177Y-132486495D02*
X156632891Y-132200780D01*
X156632891Y-132200780D02*
X156751939Y-131819828D01*
X156751939Y-131819828D02*
X156847177Y-131629352D01*
X156847177Y-131629352D02*
X157013844Y-131438876D01*
X157013844Y-131438876D02*
X157240034Y-131343638D01*
X157240034Y-131343638D02*
X157382891Y-131343638D01*
X157382891Y-131343638D02*
X157585272Y-131438876D01*
X157585272Y-131438876D02*
X157644796Y-131534114D01*
X158061463Y-133343638D02*
X158311463Y-131343638D01*
X158704320Y-133343638D02*
X158835272Y-132296019D01*
X158835272Y-132296019D02*
X158787653Y-132105542D01*
X158787653Y-132105542D02*
X158656701Y-132010304D01*
X158656701Y-132010304D02*
X158442415Y-132010304D01*
X158442415Y-132010304D02*
X158287653Y-132105542D01*
X158287653Y-132105542D02*
X158204320Y-132200780D01*
X159418606Y-133343638D02*
X159585272Y-132010304D01*
X159668606Y-131343638D02*
X159585272Y-131438876D01*
X159585272Y-131438876D02*
X159644796Y-131534114D01*
X159644796Y-131534114D02*
X159728129Y-131438876D01*
X159728129Y-131438876D02*
X159668606Y-131343638D01*
X159668606Y-131343638D02*
X159644796Y-131534114D01*
X160299558Y-132010304D02*
X160049558Y-134010304D01*
X160287654Y-132105542D02*
X160442415Y-132010304D01*
X160442415Y-132010304D02*
X160728130Y-132010304D01*
X160728130Y-132010304D02*
X160859082Y-132105542D01*
X160859082Y-132105542D02*
X160918606Y-132200780D01*
X160918606Y-132200780D02*
X160966225Y-132391257D01*
X160966225Y-132391257D02*
X160894796Y-132962685D01*
X160894796Y-132962685D02*
X160799558Y-133153161D01*
X160799558Y-133153161D02*
X160716225Y-133248400D01*
X160716225Y-133248400D02*
X160561463Y-133343638D01*
X160561463Y-133343638D02*
X160275749Y-133343638D01*
X160275749Y-133343638D02*
X160144796Y-133248400D01*
X162847177Y-133343638D02*
X162716225Y-133248400D01*
X162716225Y-133248400D02*
X162656701Y-133153161D01*
X162656701Y-133153161D02*
X162609082Y-132962685D01*
X162609082Y-132962685D02*
X162680511Y-132391257D01*
X162680511Y-132391257D02*
X162775749Y-132200780D01*
X162775749Y-132200780D02*
X162859082Y-132105542D01*
X162859082Y-132105542D02*
X163013844Y-132010304D01*
X163013844Y-132010304D02*
X163228130Y-132010304D01*
X163228130Y-132010304D02*
X163359082Y-132105542D01*
X163359082Y-132105542D02*
X163418606Y-132200780D01*
X163418606Y-132200780D02*
X163466225Y-132391257D01*
X163466225Y-132391257D02*
X163394796Y-132962685D01*
X163394796Y-132962685D02*
X163299558Y-133153161D01*
X163299558Y-133153161D02*
X163216225Y-133248400D01*
X163216225Y-133248400D02*
X163061463Y-133343638D01*
X163061463Y-133343638D02*
X162847177Y-133343638D01*
X164156701Y-132010304D02*
X163990035Y-133343638D01*
X164132892Y-132200780D02*
X164216225Y-132105542D01*
X164216225Y-132105542D02*
X164370987Y-132010304D01*
X164370987Y-132010304D02*
X164585273Y-132010304D01*
X164585273Y-132010304D02*
X164716225Y-132105542D01*
X164716225Y-132105542D02*
X164763844Y-132296019D01*
X164763844Y-132296019D02*
X164632892Y-133343638D01*
X166490035Y-133343638D02*
X166740035Y-131343638D01*
X166740035Y-131343638D02*
X167061463Y-132772209D01*
X167061463Y-132772209D02*
X167740035Y-131343638D01*
X167740035Y-131343638D02*
X167490035Y-133343638D01*
X168228130Y-132010304D02*
X168418606Y-133343638D01*
X168942416Y-132010304D02*
X168418606Y-133343638D01*
X168418606Y-133343638D02*
X168216225Y-133819828D01*
X168216225Y-133819828D02*
X168132892Y-133915066D01*
X168132892Y-133915066D02*
X167978130Y-134010304D01*
X170490035Y-133343638D02*
X170740035Y-131343638D01*
X170740035Y-131343638D02*
X171097177Y-131343638D01*
X171097177Y-131343638D02*
X171299558Y-131438876D01*
X171299558Y-131438876D02*
X171418606Y-131629352D01*
X171418606Y-131629352D02*
X171466225Y-131819828D01*
X171466225Y-131819828D02*
X171490035Y-132200780D01*
X171490035Y-132200780D02*
X171454320Y-132486495D01*
X171454320Y-132486495D02*
X171335273Y-132867447D01*
X171335273Y-132867447D02*
X171240035Y-133057923D01*
X171240035Y-133057923D02*
X171073368Y-133248400D01*
X171073368Y-133248400D02*
X170847177Y-133343638D01*
X170847177Y-133343638D02*
X170490035Y-133343638D01*
X172573368Y-133248400D02*
X172418606Y-133343638D01*
X172418606Y-133343638D02*
X172132892Y-133343638D01*
X172132892Y-133343638D02*
X172001939Y-133248400D01*
X172001939Y-133248400D02*
X171954320Y-133057923D01*
X171954320Y-133057923D02*
X172049558Y-132296019D01*
X172049558Y-132296019D02*
X172144797Y-132105542D01*
X172144797Y-132105542D02*
X172299558Y-132010304D01*
X172299558Y-132010304D02*
X172585273Y-132010304D01*
X172585273Y-132010304D02*
X172716225Y-132105542D01*
X172716225Y-132105542D02*
X172763844Y-132296019D01*
X172763844Y-132296019D02*
X172740035Y-132486495D01*
X172740035Y-132486495D02*
X172001939Y-132676971D01*
X173216225Y-133248400D02*
X173347177Y-133343638D01*
X173347177Y-133343638D02*
X173632891Y-133343638D01*
X173632891Y-133343638D02*
X173787653Y-133248400D01*
X173787653Y-133248400D02*
X173882891Y-133057923D01*
X173882891Y-133057923D02*
X173894796Y-132962685D01*
X173894796Y-132962685D02*
X173847177Y-132772209D01*
X173847177Y-132772209D02*
X173716225Y-132676971D01*
X173716225Y-132676971D02*
X173501939Y-132676971D01*
X173501939Y-132676971D02*
X173370987Y-132581733D01*
X173370987Y-132581733D02*
X173323368Y-132391257D01*
X173323368Y-132391257D02*
X173335272Y-132296019D01*
X173335272Y-132296019D02*
X173430511Y-132105542D01*
X173430511Y-132105542D02*
X173585272Y-132010304D01*
X173585272Y-132010304D02*
X173799558Y-132010304D01*
X173799558Y-132010304D02*
X173930511Y-132105542D01*
X174490035Y-133343638D02*
X174740035Y-131343638D01*
X174728130Y-132581733D02*
X175061463Y-133343638D01*
X175228130Y-132010304D02*
X174561463Y-132772209D01*
X175882892Y-131343638D02*
X175835273Y-131724590D01*
X176454321Y-131343638D02*
X176406702Y-131724590D01*
D11*
X198628095Y-47924819D02*
X198628095Y-48639104D01*
X198628095Y-48639104D02*
X198580476Y-48781961D01*
X198580476Y-48781961D02*
X198485238Y-48877200D01*
X198485238Y-48877200D02*
X198342381Y-48924819D01*
X198342381Y-48924819D02*
X198247143Y-48924819D01*
X199056667Y-48639104D02*
X199532857Y-48639104D01*
X198961429Y-48924819D02*
X199294762Y-47924819D01*
X199294762Y-47924819D02*
X199628095Y-48924819D01*
X200485238Y-48924819D02*
X199913810Y-48924819D01*
X200199524Y-48924819D02*
X200199524Y-47924819D01*
X200199524Y-47924819D02*
X200104286Y-48067676D01*
X200104286Y-48067676D02*
X200009048Y-48162914D01*
X200009048Y-48162914D02*
X199913810Y-48210533D01*
X186356666Y-60624819D02*
X186356666Y-61339104D01*
X186356666Y-61339104D02*
X186309047Y-61481961D01*
X186309047Y-61481961D02*
X186213809Y-61577200D01*
X186213809Y-61577200D02*
X186070952Y-61624819D01*
X186070952Y-61624819D02*
X185975714Y-61624819D01*
X186975714Y-61053390D02*
X186880476Y-61005771D01*
X186880476Y-61005771D02*
X186832857Y-60958152D01*
X186832857Y-60958152D02*
X186785238Y-60862914D01*
X186785238Y-60862914D02*
X186785238Y-60815295D01*
X186785238Y-60815295D02*
X186832857Y-60720057D01*
X186832857Y-60720057D02*
X186880476Y-60672438D01*
X186880476Y-60672438D02*
X186975714Y-60624819D01*
X186975714Y-60624819D02*
X187166190Y-60624819D01*
X187166190Y-60624819D02*
X187261428Y-60672438D01*
X187261428Y-60672438D02*
X187309047Y-60720057D01*
X187309047Y-60720057D02*
X187356666Y-60815295D01*
X187356666Y-60815295D02*
X187356666Y-60862914D01*
X187356666Y-60862914D02*
X187309047Y-60958152D01*
X187309047Y-60958152D02*
X187261428Y-61005771D01*
X187261428Y-61005771D02*
X187166190Y-61053390D01*
X187166190Y-61053390D02*
X186975714Y-61053390D01*
X186975714Y-61053390D02*
X186880476Y-61101009D01*
X186880476Y-61101009D02*
X186832857Y-61148628D01*
X186832857Y-61148628D02*
X186785238Y-61243866D01*
X186785238Y-61243866D02*
X186785238Y-61434342D01*
X186785238Y-61434342D02*
X186832857Y-61529580D01*
X186832857Y-61529580D02*
X186880476Y-61577200D01*
X186880476Y-61577200D02*
X186975714Y-61624819D01*
X186975714Y-61624819D02*
X187166190Y-61624819D01*
X187166190Y-61624819D02*
X187261428Y-61577200D01*
X187261428Y-61577200D02*
X187309047Y-61529580D01*
X187309047Y-61529580D02*
X187356666Y-61434342D01*
X187356666Y-61434342D02*
X187356666Y-61243866D01*
X187356666Y-61243866D02*
X187309047Y-61148628D01*
X187309047Y-61148628D02*
X187261428Y-61101009D01*
X187261428Y-61101009D02*
X187166190Y-61053390D01*
X192699819Y-91733333D02*
X193414104Y-91733333D01*
X193414104Y-91733333D02*
X193556961Y-91780952D01*
X193556961Y-91780952D02*
X193652200Y-91876190D01*
X193652200Y-91876190D02*
X193699819Y-92019047D01*
X193699819Y-92019047D02*
X193699819Y-92114285D01*
X193699819Y-90733333D02*
X193699819Y-91304761D01*
X193699819Y-91019047D02*
X192699819Y-91019047D01*
X192699819Y-91019047D02*
X192842676Y-91114285D01*
X192842676Y-91114285D02*
X192937914Y-91209523D01*
X192937914Y-91209523D02*
X192985533Y-91304761D01*
X193950714Y-89362295D02*
X193950714Y-88562295D01*
X193950714Y-88562295D02*
X194255476Y-88562295D01*
X194255476Y-88562295D02*
X194331666Y-88600390D01*
X194331666Y-88600390D02*
X194369761Y-88638485D01*
X194369761Y-88638485D02*
X194407857Y-88714676D01*
X194407857Y-88714676D02*
X194407857Y-88828961D01*
X194407857Y-88828961D02*
X194369761Y-88905152D01*
X194369761Y-88905152D02*
X194331666Y-88943247D01*
X194331666Y-88943247D02*
X194255476Y-88981342D01*
X194255476Y-88981342D02*
X193950714Y-88981342D01*
X194750714Y-89362295D02*
X194750714Y-88562295D01*
X194750714Y-88562295D02*
X195017380Y-89133723D01*
X195017380Y-89133723D02*
X195284047Y-88562295D01*
X195284047Y-88562295D02*
X195284047Y-89362295D01*
X195817381Y-88562295D02*
X195969762Y-88562295D01*
X195969762Y-88562295D02*
X196045952Y-88600390D01*
X196045952Y-88600390D02*
X196122143Y-88676580D01*
X196122143Y-88676580D02*
X196160238Y-88828961D01*
X196160238Y-88828961D02*
X196160238Y-89095628D01*
X196160238Y-89095628D02*
X196122143Y-89248009D01*
X196122143Y-89248009D02*
X196045952Y-89324200D01*
X196045952Y-89324200D02*
X195969762Y-89362295D01*
X195969762Y-89362295D02*
X195817381Y-89362295D01*
X195817381Y-89362295D02*
X195741190Y-89324200D01*
X195741190Y-89324200D02*
X195665000Y-89248009D01*
X195665000Y-89248009D02*
X195626904Y-89095628D01*
X195626904Y-89095628D02*
X195626904Y-88828961D01*
X195626904Y-88828961D02*
X195665000Y-88676580D01*
X195665000Y-88676580D02*
X195741190Y-88600390D01*
X195741190Y-88600390D02*
X195817381Y-88562295D01*
X196503095Y-89362295D02*
X196503095Y-88562295D01*
X196503095Y-88562295D02*
X196693571Y-88562295D01*
X196693571Y-88562295D02*
X196807857Y-88600390D01*
X196807857Y-88600390D02*
X196884047Y-88676580D01*
X196884047Y-88676580D02*
X196922142Y-88752771D01*
X196922142Y-88752771D02*
X196960238Y-88905152D01*
X196960238Y-88905152D02*
X196960238Y-89019438D01*
X196960238Y-89019438D02*
X196922142Y-89171819D01*
X196922142Y-89171819D02*
X196884047Y-89248009D01*
X196884047Y-89248009D02*
X196807857Y-89324200D01*
X196807857Y-89324200D02*
X196693571Y-89362295D01*
X196693571Y-89362295D02*
X196503095Y-89362295D01*
X197112619Y-89438485D02*
X197722142Y-89438485D01*
X198293571Y-88562295D02*
X197912619Y-88562295D01*
X197912619Y-88562295D02*
X197874523Y-88943247D01*
X197874523Y-88943247D02*
X197912619Y-88905152D01*
X197912619Y-88905152D02*
X197988809Y-88867057D01*
X197988809Y-88867057D02*
X198179285Y-88867057D01*
X198179285Y-88867057D02*
X198255476Y-88905152D01*
X198255476Y-88905152D02*
X198293571Y-88943247D01*
X198293571Y-88943247D02*
X198331666Y-89019438D01*
X198331666Y-89019438D02*
X198331666Y-89209914D01*
X198331666Y-89209914D02*
X198293571Y-89286104D01*
X198293571Y-89286104D02*
X198255476Y-89324200D01*
X198255476Y-89324200D02*
X198179285Y-89362295D01*
X198179285Y-89362295D02*
X197988809Y-89362295D01*
X197988809Y-89362295D02*
X197912619Y-89324200D01*
X197912619Y-89324200D02*
X197874523Y-89286104D01*
X198560238Y-88562295D02*
X198826905Y-89362295D01*
X198826905Y-89362295D02*
X199093571Y-88562295D01*
X198556666Y-93644819D02*
X198556666Y-94359104D01*
X198556666Y-94359104D02*
X198509047Y-94501961D01*
X198509047Y-94501961D02*
X198413809Y-94597200D01*
X198413809Y-94597200D02*
X198270952Y-94644819D01*
X198270952Y-94644819D02*
X198175714Y-94644819D01*
X199604285Y-94549580D02*
X199556666Y-94597200D01*
X199556666Y-94597200D02*
X199413809Y-94644819D01*
X199413809Y-94644819D02*
X199318571Y-94644819D01*
X199318571Y-94644819D02*
X199175714Y-94597200D01*
X199175714Y-94597200D02*
X199080476Y-94501961D01*
X199080476Y-94501961D02*
X199032857Y-94406723D01*
X199032857Y-94406723D02*
X198985238Y-94216247D01*
X198985238Y-94216247D02*
X198985238Y-94073390D01*
X198985238Y-94073390D02*
X199032857Y-93882914D01*
X199032857Y-93882914D02*
X199080476Y-93787676D01*
X199080476Y-93787676D02*
X199175714Y-93692438D01*
X199175714Y-93692438D02*
X199318571Y-93644819D01*
X199318571Y-93644819D02*
X199413809Y-93644819D01*
X199413809Y-93644819D02*
X199556666Y-93692438D01*
X199556666Y-93692438D02*
X199604285Y-93740057D01*
X200556666Y-94644819D02*
X199985238Y-94644819D01*
X200270952Y-94644819D02*
X200270952Y-93644819D01*
X200270952Y-93644819D02*
X200175714Y-93787676D01*
X200175714Y-93787676D02*
X200080476Y-93882914D01*
X200080476Y-93882914D02*
X199985238Y-93930533D01*
X198556666Y-116504819D02*
X198556666Y-117219104D01*
X198556666Y-117219104D02*
X198509047Y-117361961D01*
X198509047Y-117361961D02*
X198413809Y-117457200D01*
X198413809Y-117457200D02*
X198270952Y-117504819D01*
X198270952Y-117504819D02*
X198175714Y-117504819D01*
X199032857Y-117504819D02*
X199032857Y-116504819D01*
X199032857Y-116504819D02*
X199270952Y-116504819D01*
X199270952Y-116504819D02*
X199413809Y-116552438D01*
X199413809Y-116552438D02*
X199509047Y-116647676D01*
X199509047Y-116647676D02*
X199556666Y-116742914D01*
X199556666Y-116742914D02*
X199604285Y-116933390D01*
X199604285Y-116933390D02*
X199604285Y-117076247D01*
X199604285Y-117076247D02*
X199556666Y-117266723D01*
X199556666Y-117266723D02*
X199509047Y-117361961D01*
X199509047Y-117361961D02*
X199413809Y-117457200D01*
X199413809Y-117457200D02*
X199270952Y-117504819D01*
X199270952Y-117504819D02*
X199032857Y-117504819D01*
X200556666Y-117504819D02*
X199985238Y-117504819D01*
X200270952Y-117504819D02*
X200270952Y-116504819D01*
X200270952Y-116504819D02*
X200175714Y-116647676D01*
X200175714Y-116647676D02*
X200080476Y-116742914D01*
X200080476Y-116742914D02*
X199985238Y-116790533D01*
X198556666Y-70784819D02*
X198556666Y-71499104D01*
X198556666Y-71499104D02*
X198509047Y-71641961D01*
X198509047Y-71641961D02*
X198413809Y-71737200D01*
X198413809Y-71737200D02*
X198270952Y-71784819D01*
X198270952Y-71784819D02*
X198175714Y-71784819D01*
X199366190Y-71261009D02*
X199509047Y-71308628D01*
X199509047Y-71308628D02*
X199556666Y-71356247D01*
X199556666Y-71356247D02*
X199604285Y-71451485D01*
X199604285Y-71451485D02*
X199604285Y-71594342D01*
X199604285Y-71594342D02*
X199556666Y-71689580D01*
X199556666Y-71689580D02*
X199509047Y-71737200D01*
X199509047Y-71737200D02*
X199413809Y-71784819D01*
X199413809Y-71784819D02*
X199032857Y-71784819D01*
X199032857Y-71784819D02*
X199032857Y-70784819D01*
X199032857Y-70784819D02*
X199366190Y-70784819D01*
X199366190Y-70784819D02*
X199461428Y-70832438D01*
X199461428Y-70832438D02*
X199509047Y-70880057D01*
X199509047Y-70880057D02*
X199556666Y-70975295D01*
X199556666Y-70975295D02*
X199556666Y-71070533D01*
X199556666Y-71070533D02*
X199509047Y-71165771D01*
X199509047Y-71165771D02*
X199461428Y-71213390D01*
X199461428Y-71213390D02*
X199366190Y-71261009D01*
X199366190Y-71261009D02*
X199032857Y-71261009D01*
X200556666Y-71784819D02*
X199985238Y-71784819D01*
X200270952Y-71784819D02*
X200270952Y-70784819D01*
X200270952Y-70784819D02*
X200175714Y-70927676D01*
X200175714Y-70927676D02*
X200080476Y-71022914D01*
X200080476Y-71022914D02*
X199985238Y-71070533D01*
X138096666Y-60624819D02*
X138096666Y-61339104D01*
X138096666Y-61339104D02*
X138049047Y-61481961D01*
X138049047Y-61481961D02*
X137953809Y-61577200D01*
X137953809Y-61577200D02*
X137810952Y-61624819D01*
X137810952Y-61624819D02*
X137715714Y-61624819D01*
X138620476Y-61624819D02*
X138810952Y-61624819D01*
X138810952Y-61624819D02*
X138906190Y-61577200D01*
X138906190Y-61577200D02*
X138953809Y-61529580D01*
X138953809Y-61529580D02*
X139049047Y-61386723D01*
X139049047Y-61386723D02*
X139096666Y-61196247D01*
X139096666Y-61196247D02*
X139096666Y-60815295D01*
X139096666Y-60815295D02*
X139049047Y-60720057D01*
X139049047Y-60720057D02*
X139001428Y-60672438D01*
X139001428Y-60672438D02*
X138906190Y-60624819D01*
X138906190Y-60624819D02*
X138715714Y-60624819D01*
X138715714Y-60624819D02*
X138620476Y-60672438D01*
X138620476Y-60672438D02*
X138572857Y-60720057D01*
X138572857Y-60720057D02*
X138525238Y-60815295D01*
X138525238Y-60815295D02*
X138525238Y-61053390D01*
X138525238Y-61053390D02*
X138572857Y-61148628D01*
X138572857Y-61148628D02*
X138620476Y-61196247D01*
X138620476Y-61196247D02*
X138715714Y-61243866D01*
X138715714Y-61243866D02*
X138906190Y-61243866D01*
X138906190Y-61243866D02*
X139001428Y-61196247D01*
X139001428Y-61196247D02*
X139049047Y-61148628D01*
X139049047Y-61148628D02*
X139096666Y-61053390D01*
X114982666Y-42844819D02*
X114982666Y-43559104D01*
X114982666Y-43559104D02*
X114935047Y-43701961D01*
X114935047Y-43701961D02*
X114839809Y-43797200D01*
X114839809Y-43797200D02*
X114696952Y-43844819D01*
X114696952Y-43844819D02*
X114601714Y-43844819D01*
X115887428Y-42844819D02*
X115696952Y-42844819D01*
X115696952Y-42844819D02*
X115601714Y-42892438D01*
X115601714Y-42892438D02*
X115554095Y-42940057D01*
X115554095Y-42940057D02*
X115458857Y-43082914D01*
X115458857Y-43082914D02*
X115411238Y-43273390D01*
X115411238Y-43273390D02*
X115411238Y-43654342D01*
X115411238Y-43654342D02*
X115458857Y-43749580D01*
X115458857Y-43749580D02*
X115506476Y-43797200D01*
X115506476Y-43797200D02*
X115601714Y-43844819D01*
X115601714Y-43844819D02*
X115792190Y-43844819D01*
X115792190Y-43844819D02*
X115887428Y-43797200D01*
X115887428Y-43797200D02*
X115935047Y-43749580D01*
X115935047Y-43749580D02*
X115982666Y-43654342D01*
X115982666Y-43654342D02*
X115982666Y-43416247D01*
X115982666Y-43416247D02*
X115935047Y-43321009D01*
X115935047Y-43321009D02*
X115887428Y-43273390D01*
X115887428Y-43273390D02*
X115792190Y-43225771D01*
X115792190Y-43225771D02*
X115601714Y-43225771D01*
X115601714Y-43225771D02*
X115506476Y-43273390D01*
X115506476Y-43273390D02*
X115458857Y-43321009D01*
X115458857Y-43321009D02*
X115411238Y-43416247D01*
%TO.C,JA1*%
D12*
X196790000Y-49470000D02*
X198120000Y-49470000D01*
X196790000Y-50800000D02*
X196790000Y-49470000D01*
X196790000Y-52070000D02*
X196790000Y-64830000D01*
X196790000Y-52070000D02*
X199390000Y-52070000D01*
X196790000Y-64830000D02*
X201990000Y-64830000D01*
X199390000Y-49470000D02*
X201990000Y-49470000D01*
X199390000Y-52070000D02*
X199390000Y-49470000D01*
X201990000Y-49470000D02*
X201990000Y-64830000D01*
%TO.C,J8*%
X184090000Y-62170000D02*
X185420000Y-62170000D01*
X184090000Y-63500000D02*
X184090000Y-62170000D01*
X184090000Y-64770000D02*
X184090000Y-123250000D01*
X184090000Y-64770000D02*
X186690000Y-64770000D01*
X184090000Y-123250000D02*
X189290000Y-123250000D01*
X186690000Y-62170000D02*
X189290000Y-62170000D01*
X186690000Y-64770000D02*
X186690000Y-62170000D01*
X189290000Y-62170000D02*
X189290000Y-123250000D01*
%TO.C,J1*%
X194245000Y-92780000D02*
X194245000Y-91400000D01*
X195625000Y-92780000D02*
X194245000Y-92780000D01*
X196895000Y-90020000D02*
X199545000Y-90020000D01*
X196895000Y-92780000D02*
X196895000Y-90020000D01*
X196895000Y-92780000D02*
X199545000Y-92780000D01*
X199545000Y-92780000D02*
X199545000Y-90020000D01*
%TO.C,JC1*%
X196790000Y-95190000D02*
X198120000Y-95190000D01*
X196790000Y-96520000D02*
X196790000Y-95190000D01*
X196790000Y-97790000D02*
X196790000Y-110550000D01*
X196790000Y-97790000D02*
X199390000Y-97790000D01*
X196790000Y-110550000D02*
X201990000Y-110550000D01*
X199390000Y-95190000D02*
X201990000Y-95190000D01*
X199390000Y-97790000D02*
X199390000Y-95190000D01*
X201990000Y-95190000D02*
X201990000Y-110550000D01*
%TO.C,JD1*%
X196790000Y-118050000D02*
X198120000Y-118050000D01*
X196790000Y-119380000D02*
X196790000Y-118050000D01*
X196790000Y-120650000D02*
X196790000Y-133410000D01*
X196790000Y-120650000D02*
X199390000Y-120650000D01*
X196790000Y-133410000D02*
X201990000Y-133410000D01*
X199390000Y-118050000D02*
X201990000Y-118050000D01*
X199390000Y-120650000D02*
X199390000Y-118050000D01*
X201990000Y-118050000D02*
X201990000Y-133410000D01*
%TO.C,JB1*%
X196790000Y-72330000D02*
X198120000Y-72330000D01*
X196790000Y-73660000D02*
X196790000Y-72330000D01*
X196790000Y-74930000D02*
X196790000Y-87690000D01*
X196790000Y-74930000D02*
X199390000Y-74930000D01*
X196790000Y-87690000D02*
X201990000Y-87690000D01*
X199390000Y-72330000D02*
X201990000Y-72330000D01*
X199390000Y-74930000D02*
X199390000Y-72330000D01*
X201990000Y-72330000D02*
X201990000Y-87690000D01*
%TO.C,J9*%
X135830000Y-62170000D02*
X137160000Y-62170000D01*
X135830000Y-63500000D02*
X135830000Y-62170000D01*
X135830000Y-64770000D02*
X135830000Y-123250000D01*
X135830000Y-64770000D02*
X138430000Y-64770000D01*
X135830000Y-123250000D02*
X141030000Y-123250000D01*
X138430000Y-62170000D02*
X141030000Y-62170000D01*
X138430000Y-64770000D02*
X138430000Y-62170000D01*
X141030000Y-62170000D02*
X141030000Y-123250000D01*
%TO.C,J6*%
X112716000Y-44390000D02*
X114046000Y-44390000D01*
X112716000Y-45720000D02*
X112716000Y-44390000D01*
X112716000Y-46990000D02*
X112716000Y-146110000D01*
X112716000Y-46990000D02*
X115316000Y-46990000D01*
X112716000Y-146110000D02*
X117916000Y-146110000D01*
X115316000Y-44390000D02*
X117916000Y-44390000D01*
X115316000Y-46990000D02*
X115316000Y-44390000D01*
X117916000Y-44390000D02*
X117916000Y-146110000D01*
%TD*%
M02*
