M48
; DRILL file {KiCad 9.0.1-9.0.1-0~ubuntu24.04.1} date 2025-04-22T11:37:26+0900
; FORMAT={-:-/ absolute / metric / decimal}
; #@! TF.CreationDate,2025-04-22T11:37:26+09:00
; #@! TF.GenerationSoftware,Kicad,Pcbnew,9.0.1-9.0.1-0~ubuntu24.04.1
; #@! TF.FileFunction,Plated,1,2,PTH
FMAT,2
METRIC
; #@! TA.AperFunction,Plated,PTH,ViaDrill
T1C0.300
; #@! TA.AperFunction,Plated,PTH,ComponentDrill
T2C0.700
; #@! TA.AperFunction,Plated,PTH,ComponentDrill
T3C0.800
; #@! TA.AperFunction,Plated,PTH,ComponentDrill
T4C1.000
; #@! TA.AperFunction,Plated,PTH,ComponentDrill
T5C1.100
%
G90
G05
T1
X162.306Y-131.064
X162.306Y-133.604
X162.306Y-136.144
X162.306Y-138.684
X162.306Y-141.224
X162.306Y-143.764
X162.306Y-146.304
X162.306Y-148.844
X165.1Y-127.0
X167.64Y-101.6
X171.45Y-106.68
X172.72Y-101.6
X179.07Y-137.16
X179.07Y-143.51
X181.61Y-143.51
X184.15Y-143.51
X186.182Y-124.206
X186.436Y-107.442
X186.69Y-143.51
X189.23Y-143.51
X191.77Y-143.51
X194.31Y-143.51
X196.85Y-143.51
X197.612Y-107.442
X197.612Y-124.714
X199.39Y-143.51
X201.93Y-143.51
X204.47Y-118.11
X204.47Y-143.51
X205.74Y-113.03
X210.82Y-111.76
X210.82Y-114.3
X215.9Y-111.76
X215.9Y-114.3
X220.98Y-144.78
X223.52Y-144.78
X226.06Y-144.78
X226.06Y-147.32
X226.06Y-149.86
X228.6Y-109.22
X228.6Y-132.08
X228.6Y-144.78
X228.6Y-147.32
X231.14Y-109.22
X231.14Y-114.3
X231.14Y-132.08
T2
X206.695Y-122.76
X207.005Y-104.26
X214.315Y-122.76
X214.625Y-104.26
X217.195Y-122.76
X217.695Y-104.26
X224.815Y-122.76
X225.315Y-104.26
T3
X207.195Y-128.26
X207.195Y-132.76
X207.505Y-99.76
X207.695Y-95.5
X209.515Y-108.175
X209.515Y-118.335
X212.055Y-108.175
X212.055Y-118.335
X214.595Y-108.175
X214.595Y-118.335
X214.815Y-128.26
X214.815Y-132.76
X215.125Y-99.76
X215.315Y-95.5
X217.135Y-108.175
X217.135Y-118.335
X220.815Y-138.01
X220.815Y-140.51
X225.315Y-111.76
X225.315Y-118.76
X227.815Y-111.76
X227.815Y-118.76
T4
X163.83Y-100.838
X163.83Y-103.378
X163.83Y-105.918
X163.83Y-108.458
X163.83Y-110.998
X163.83Y-113.538
X163.83Y-116.078
X163.83Y-118.618
X163.83Y-121.158
X163.83Y-123.698
X172.466Y-130.556
X172.466Y-133.096
X172.466Y-135.636
X172.466Y-138.176
X172.466Y-140.716
X172.466Y-143.256
X172.466Y-145.796
X172.466Y-148.336
X173.995Y-92.959
X173.995Y-95.499
X175.006Y-130.556
X175.006Y-133.096
X175.006Y-135.636
X175.006Y-138.176
X175.006Y-140.716
X175.006Y-143.256
X175.006Y-145.796
X175.006Y-148.336
X176.53Y-100.838
X176.53Y-103.378
X176.53Y-105.918
X176.53Y-108.458
X176.53Y-110.998
X176.53Y-113.538
X176.53Y-116.078
X176.53Y-118.618
X176.53Y-121.158
X176.53Y-123.698
X176.535Y-92.959
X176.535Y-95.499
X180.34Y-147.32
X180.34Y-149.86
X180.34Y-152.4
X180.34Y-154.94
X182.815Y-91.24
X182.815Y-93.78
X182.815Y-96.32
X182.815Y-98.86
X182.815Y-101.4
X182.815Y-103.94
X182.815Y-106.48
X182.815Y-109.02
X182.815Y-111.56
X182.815Y-114.1
X182.815Y-116.64
X182.815Y-119.18
X182.815Y-121.72
X182.815Y-124.26
X182.815Y-126.8
X182.815Y-129.34
X182.815Y-131.88
X182.815Y-134.42
X182.815Y-136.96
X182.815Y-139.5
X182.88Y-147.32
X182.88Y-149.86
X182.88Y-152.4
X182.88Y-154.94
X185.42Y-147.32
X185.42Y-149.86
X185.42Y-152.4
X185.42Y-154.94
X187.96Y-147.32
X187.96Y-149.86
X187.96Y-152.4
X187.96Y-154.94
X190.5Y-147.32
X190.5Y-149.86
X190.5Y-152.4
X190.5Y-154.94
X193.04Y-147.32
X193.04Y-149.86
X193.04Y-152.4
X193.04Y-154.94
X195.58Y-147.32
X195.58Y-149.86
X195.58Y-152.4
X195.58Y-154.94
X198.12Y-147.32
X198.12Y-149.86
X198.12Y-152.4
X198.12Y-154.94
X200.595Y-91.24
X200.595Y-93.78
X200.595Y-96.32
X200.595Y-98.86
X200.595Y-101.4
X200.595Y-103.94
X200.595Y-106.48
X200.595Y-109.02
X200.595Y-111.56
X200.595Y-114.1
X200.595Y-116.64
X200.595Y-119.18
X200.595Y-121.72
X200.595Y-124.26
X200.595Y-126.8
X200.595Y-129.34
X200.595Y-131.88
X200.595Y-134.42
X200.595Y-136.96
X200.595Y-139.5
X200.66Y-147.32
X200.66Y-149.86
X200.66Y-152.4
X200.66Y-154.94
X203.2Y-147.32
X203.2Y-149.86
X203.2Y-152.4
X203.2Y-154.94
X205.74Y-147.32
X205.74Y-149.86
X205.74Y-152.4
X205.74Y-154.94
X208.28Y-147.32
X208.28Y-149.86
X208.28Y-152.4
X208.28Y-154.94
X210.82Y-147.32
X210.82Y-149.86
X210.82Y-152.4
X210.82Y-154.94
X213.36Y-147.32
X213.36Y-149.86
X213.36Y-152.4
X213.36Y-154.94
X215.9Y-147.32
X215.9Y-149.86
X215.9Y-152.4
X215.9Y-154.94
X218.44Y-147.32
X218.44Y-149.86
X218.44Y-152.4
X218.44Y-154.94
X219.315Y-94.76
X219.315Y-99.76
X219.315Y-127.76
X219.315Y-132.76
X220.98Y-147.32
X220.98Y-149.86
X220.98Y-152.4
X220.98Y-154.94
X223.52Y-147.32
X223.52Y-149.86
X223.52Y-152.4
X223.52Y-154.94
X224.315Y-97.26
X224.315Y-130.26
X227.775Y-137.26
X230.315Y-98.72
X230.315Y-101.26
X230.315Y-125.76
X230.315Y-128.3
X230.315Y-137.26
T5
X208.565Y-137.51
X208.565Y-142.01
X215.065Y-137.51
X215.065Y-142.01
M30
