M48
; DRILL file {KiCad 9.0.1-9.0.1-0~ubuntu24.04.1} date 2025-04-22T11:44:24+0900
; FORMAT={-:-/ absolute / metric / decimal}
; #@! TF.CreationDate,2025-04-22T11:44:24+09:00
; #@! TF.GenerationSoftware,Kicad,Pcbnew,9.0.1-9.0.1-0~ubuntu24.04.1
; #@! TF.FileFunction,Plated,1,2,PTH
FMAT,2
METRIC
; #@! TA.AperFunction,Plated,PTH,ViaDrill
T1C0.300
; #@! TA.AperFunction,Plated,PTH,ComponentDrill
T2C1.000
%
G90
G05
T1
X92.964Y-74.676
X93.726Y-126.492
X93.98Y-66.04
X93.98Y-77.216
X93.98Y-79.756
X93.98Y-82.55
X93.98Y-86.36
X93.98Y-99.822
X96.012Y-107.442
X97.536Y-135.89
X99.06Y-66.04
X99.06Y-82.55
X100.33Y-110.998
X101.346Y-118.364
X101.346Y-135.636
X101.6Y-64.77
X101.6Y-93.98
X102.87Y-76.2
X102.87Y-82.55
X107.188Y-110.49
X107.696Y-128.016
X107.95Y-44.45
X109.22Y-54.864
X109.22Y-90.17
X109.22Y-142.24
X109.474Y-72.39
X109.982Y-108.458
X110.236Y-125.984
X110.744Y-93.726
X111.76Y-76.2
X113.03Y-44.45
X116.84Y-142.24
X118.11Y-44.45
X123.19Y-142.24
X124.46Y-44.45
X127.0Y-129.54
X128.27Y-113.03
X128.778Y-130.81
X129.54Y-60.96
X129.54Y-142.24
X139.7Y-53.34
X142.24Y-92.71
X142.24Y-124.206
X142.494Y-74.93
X142.494Y-112.776
X181.864Y-58.42
X182.88Y-72.39
X182.88Y-90.17
X182.88Y-110.49
X182.88Y-124.714
X194.31Y-116.078
X195.834Y-119.634
X199.39Y-68.58
X199.39Y-91.44
X199.39Y-113.03
X199.39Y-135.89
X199.39Y-140.97
X199.39Y-146.05
T2
X87.376Y-45.466
X87.376Y-48.006
X87.376Y-50.546
X87.376Y-53.086
X87.376Y-55.626
X87.376Y-58.166
X87.376Y-60.706
X87.376Y-63.246
X87.376Y-65.786
X87.376Y-68.326
X87.376Y-70.866
X87.376Y-73.406
X87.376Y-75.946
X87.376Y-78.486
X87.376Y-81.026
X87.376Y-83.566
X87.376Y-86.106
X87.376Y-88.646
X87.376Y-91.186
X87.376Y-93.726
X87.376Y-96.266
X87.376Y-98.806
X87.376Y-101.346
X87.376Y-103.886
X87.376Y-106.426
X87.376Y-108.966
X87.376Y-111.506
X87.376Y-114.046
X87.376Y-116.586
X87.376Y-119.126
X87.376Y-121.666
X87.376Y-124.206
X87.376Y-126.746
X87.376Y-129.286
X87.376Y-131.826
X87.376Y-134.366
X87.376Y-136.906
X87.376Y-139.446
X87.376Y-141.986
X87.376Y-144.526
X89.916Y-45.466
X89.916Y-48.006
X89.916Y-50.546
X89.916Y-53.086
X89.916Y-55.626
X89.916Y-58.166
X89.916Y-60.706
X89.916Y-63.246
X89.916Y-65.786
X89.916Y-68.326
X89.916Y-70.866
X89.916Y-73.406
X89.916Y-75.946
X89.916Y-78.486
X89.916Y-81.026
X89.916Y-83.566
X89.916Y-86.106
X89.916Y-88.646
X89.916Y-91.186
X89.916Y-93.726
X89.916Y-96.266
X89.916Y-98.806
X89.916Y-101.346
X89.916Y-103.886
X89.916Y-106.426
X89.916Y-108.966
X89.916Y-111.506
X89.916Y-114.046
X89.916Y-116.586
X89.916Y-119.126
X89.916Y-121.666
X89.916Y-124.206
X89.916Y-126.746
X89.916Y-129.286
X89.916Y-131.826
X89.916Y-134.366
X89.916Y-136.906
X89.916Y-139.446
X89.916Y-141.986
X89.916Y-144.526
X99.822Y-52.07
X99.822Y-54.61
X99.822Y-69.85
X99.822Y-72.39
X99.822Y-87.63
X99.822Y-90.17
X99.822Y-105.41
X99.822Y-107.95
X99.822Y-123.19
X99.822Y-125.73
X102.362Y-52.07
X102.362Y-54.61
X102.362Y-69.85
X102.362Y-72.39
X102.362Y-87.63
X102.362Y-90.17
X102.362Y-105.41
X102.362Y-107.95
X102.362Y-123.19
X102.362Y-125.73
X106.68Y-52.045
X106.68Y-64.745
X106.68Y-69.825
X106.68Y-82.525
X106.68Y-87.605
X106.68Y-100.305
X106.68Y-105.385
X106.68Y-118.085
X106.68Y-123.165
X106.68Y-135.865
X109.22Y-52.045
X109.22Y-64.745
X109.22Y-69.825
X109.22Y-82.525
X109.22Y-87.605
X109.22Y-100.305
X109.22Y-105.385
X109.22Y-118.085
X109.22Y-123.165
X109.22Y-135.865
X111.76Y-52.045
X111.76Y-64.745
X111.76Y-69.825
X111.76Y-82.525
X111.76Y-87.605
X111.76Y-100.305
X111.76Y-105.385
X111.76Y-118.085
X111.76Y-123.165
X111.76Y-135.865
X114.3Y-52.045
X114.3Y-64.745
X114.3Y-69.825
X114.3Y-82.525
X114.3Y-87.605
X114.3Y-100.305
X114.3Y-105.385
X114.3Y-118.085
X114.3Y-123.165
X114.3Y-135.865
X116.84Y-52.045
X116.84Y-64.745
X116.84Y-69.825
X116.84Y-82.525
X116.84Y-87.605
X116.84Y-100.305
X116.84Y-105.385
X116.84Y-118.085
X116.84Y-123.165
X116.84Y-135.865
X119.38Y-52.045
X119.38Y-64.745
X119.38Y-69.825
X119.38Y-82.525
X119.38Y-87.605
X119.38Y-100.305
X119.38Y-105.385
X119.38Y-118.085
X119.38Y-123.165
X119.38Y-135.865
X121.92Y-52.045
X121.92Y-64.745
X121.92Y-69.825
X121.92Y-82.525
X121.92Y-87.605
X121.92Y-100.305
X121.92Y-105.385
X121.92Y-118.085
X121.92Y-123.165
X121.92Y-135.865
X124.46Y-52.045
X124.46Y-64.745
X124.46Y-69.825
X124.46Y-82.525
X124.46Y-87.605
X124.46Y-100.305
X124.46Y-105.385
X124.46Y-118.085
X124.46Y-123.165
X124.46Y-135.865
X127.0Y-52.045
X127.0Y-64.745
X127.0Y-69.825
X127.0Y-82.525
X127.0Y-87.605
X127.0Y-100.305
X127.0Y-105.385
X127.0Y-118.085
X127.0Y-123.165
X127.0Y-135.865
X129.54Y-52.045
X129.54Y-64.745
X129.54Y-69.825
X129.54Y-82.525
X129.54Y-87.605
X129.54Y-100.305
X129.54Y-105.385
X129.54Y-118.085
X129.54Y-123.165
X129.54Y-135.865
X137.16Y-63.5
X137.16Y-66.04
X137.16Y-68.58
X137.16Y-71.12
X137.16Y-73.66
X137.16Y-76.2
X137.16Y-78.74
X137.16Y-81.28
X137.16Y-83.82
X137.16Y-86.36
X137.16Y-88.9
X137.16Y-91.44
X137.16Y-93.98
X137.16Y-96.52
X137.16Y-99.06
X137.16Y-101.6
X137.16Y-104.14
X137.16Y-106.68
X137.16Y-109.22
X137.16Y-111.76
X137.16Y-114.3
X137.16Y-116.84
X137.16Y-119.38
X137.16Y-121.92
X137.16Y-132.08
X137.16Y-134.62
X137.16Y-137.16
X137.16Y-139.7
X139.7Y-63.5
X139.7Y-66.04
X139.7Y-68.58
X139.7Y-71.12
X139.7Y-73.66
X139.7Y-76.2
X139.7Y-78.74
X139.7Y-81.28
X139.7Y-83.82
X139.7Y-86.36
X139.7Y-88.9
X139.7Y-91.44
X139.7Y-93.98
X139.7Y-96.52
X139.7Y-99.06
X139.7Y-101.6
X139.7Y-104.14
X139.7Y-106.68
X139.7Y-109.22
X139.7Y-111.76
X139.7Y-114.3
X139.7Y-116.84
X139.7Y-119.38
X139.7Y-121.92
X139.7Y-132.08
X139.7Y-134.62
X139.7Y-137.16
X139.7Y-139.7
X147.32Y-53.34
X147.32Y-55.88
X147.32Y-58.42
X147.32Y-60.96
X147.32Y-63.5
X147.32Y-66.04
X147.32Y-68.58
X147.32Y-71.12
X147.32Y-73.66
X147.32Y-76.2
X147.32Y-78.74
X147.32Y-81.28
X147.32Y-83.82
X147.32Y-86.36
X147.32Y-88.9
X147.32Y-91.44
X147.32Y-93.98
X147.32Y-96.52
X147.32Y-99.06
X147.32Y-101.6
X147.32Y-104.14
X147.32Y-106.68
X147.32Y-109.22
X147.32Y-111.76
X147.32Y-114.3
X147.32Y-116.84
X147.32Y-119.38
X147.32Y-121.92
X147.32Y-124.46
X147.32Y-127.0
X149.86Y-53.34
X149.86Y-55.88
X149.86Y-58.42
X149.86Y-60.96
X149.86Y-63.5
X149.86Y-66.04
X149.86Y-68.58
X149.86Y-71.12
X149.86Y-73.66
X149.86Y-76.2
X149.86Y-78.74
X149.86Y-81.28
X149.86Y-83.82
X149.86Y-86.36
X149.86Y-88.9
X149.86Y-91.44
X149.86Y-93.98
X149.86Y-96.52
X149.86Y-99.06
X149.86Y-101.6
X149.86Y-104.14
X149.86Y-106.68
X149.86Y-109.22
X149.86Y-111.76
X149.86Y-114.3
X149.86Y-116.84
X149.86Y-119.38
X149.86Y-121.92
X149.86Y-124.46
X149.86Y-127.0
X152.4Y-53.34
X152.4Y-55.88
X152.4Y-58.42
X152.4Y-60.96
X152.4Y-63.5
X152.4Y-66.04
X152.4Y-68.58
X152.4Y-71.12
X152.4Y-73.66
X152.4Y-76.2
X152.4Y-78.74
X152.4Y-81.28
X152.4Y-83.82
X152.4Y-86.36
X152.4Y-88.9
X152.4Y-91.44
X152.4Y-93.98
X152.4Y-96.52
X152.4Y-99.06
X152.4Y-101.6
X152.4Y-104.14
X152.4Y-106.68
X152.4Y-109.22
X152.4Y-111.76
X152.4Y-114.3
X152.4Y-116.84
X152.4Y-119.38
X152.4Y-121.92
X152.4Y-124.46
X152.4Y-127.0
X154.94Y-53.34
X154.94Y-55.88
X154.94Y-58.42
X154.94Y-60.96
X154.94Y-63.5
X154.94Y-66.04
X154.94Y-68.58
X154.94Y-71.12
X154.94Y-73.66
X154.94Y-76.2
X154.94Y-78.74
X154.94Y-81.28
X154.94Y-83.82
X154.94Y-86.36
X154.94Y-88.9
X154.94Y-91.44
X154.94Y-93.98
X154.94Y-96.52
X154.94Y-99.06
X154.94Y-101.6
X154.94Y-104.14
X154.94Y-106.68
X154.94Y-109.22
X154.94Y-111.76
X154.94Y-114.3
X154.94Y-116.84
X154.94Y-119.38
X154.94Y-121.92
X154.94Y-124.46
X154.94Y-127.0
X157.48Y-53.34
X157.48Y-55.88
X157.48Y-58.42
X157.48Y-60.96
X157.48Y-63.5
X157.48Y-66.04
X157.48Y-68.58
X157.48Y-71.12
X157.48Y-73.66
X157.48Y-76.2
X157.48Y-78.74
X157.48Y-81.28
X157.48Y-83.82
X157.48Y-86.36
X157.48Y-88.9
X157.48Y-91.44
X157.48Y-93.98
X157.48Y-96.52
X157.48Y-99.06
X157.48Y-101.6
X157.48Y-104.14
X157.48Y-106.68
X157.48Y-109.22
X157.48Y-111.76
X157.48Y-114.3
X157.48Y-116.84
X157.48Y-119.38
X157.48Y-121.92
X157.48Y-124.46
X157.48Y-127.0
X157.48Y-129.54
X157.48Y-132.08
X157.48Y-134.62
X157.48Y-137.16
X157.48Y-139.7
X157.48Y-142.24
X157.48Y-144.78
X157.48Y-147.32
X160.02Y-53.34
X160.02Y-55.88
X160.02Y-58.42
X160.02Y-60.96
X160.02Y-63.5
X160.02Y-66.04
X160.02Y-68.58
X160.02Y-71.12
X160.02Y-73.66
X160.02Y-76.2
X160.02Y-78.74
X160.02Y-81.28
X160.02Y-83.82
X160.02Y-86.36
X160.02Y-88.9
X160.02Y-91.44
X160.02Y-93.98
X160.02Y-96.52
X160.02Y-99.06
X160.02Y-101.6
X160.02Y-104.14
X160.02Y-106.68
X160.02Y-109.22
X160.02Y-111.76
X160.02Y-114.3
X160.02Y-116.84
X160.02Y-119.38
X160.02Y-121.92
X160.02Y-124.46
X160.02Y-127.0
X160.02Y-129.54
X160.02Y-132.08
X160.02Y-134.62
X160.02Y-137.16
X160.02Y-139.7
X160.02Y-142.24
X160.02Y-144.78
X160.02Y-147.32
X162.56Y-53.34
X162.56Y-55.88
X162.56Y-58.42
X162.56Y-60.96
X162.56Y-63.5
X162.56Y-66.04
X162.56Y-68.58
X162.56Y-71.12
X162.56Y-73.66
X162.56Y-76.2
X162.56Y-78.74
X162.56Y-81.28
X162.56Y-83.82
X162.56Y-86.36
X162.56Y-88.9
X162.56Y-91.44
X162.56Y-93.98
X162.56Y-96.52
X162.56Y-99.06
X162.56Y-101.6
X162.56Y-104.14
X162.56Y-106.68
X162.56Y-109.22
X162.56Y-111.76
X162.56Y-114.3
X162.56Y-116.84
X162.56Y-119.38
X162.56Y-121.92
X162.56Y-124.46
X162.56Y-127.0
X162.56Y-129.54
X162.56Y-132.08
X162.56Y-134.62
X162.56Y-137.16
X162.56Y-139.7
X162.56Y-142.24
X162.56Y-144.78
X162.56Y-147.32
X165.1Y-53.34
X165.1Y-55.88
X165.1Y-58.42
X165.1Y-60.96
X165.1Y-63.5
X165.1Y-66.04
X165.1Y-68.58
X165.1Y-71.12
X165.1Y-73.66
X165.1Y-76.2
X165.1Y-78.74
X165.1Y-81.28
X165.1Y-83.82
X165.1Y-86.36
X165.1Y-88.9
X165.1Y-91.44
X165.1Y-93.98
X165.1Y-96.52
X165.1Y-99.06
X165.1Y-101.6
X165.1Y-104.14
X165.1Y-106.68
X165.1Y-109.22
X165.1Y-111.76
X165.1Y-114.3
X165.1Y-116.84
X165.1Y-119.38
X165.1Y-121.92
X165.1Y-124.46
X165.1Y-127.0
X165.1Y-129.54
X165.1Y-132.08
X165.1Y-134.62
X165.1Y-137.16
X165.1Y-139.7
X165.1Y-142.24
X165.1Y-144.78
X165.1Y-147.32
X167.64Y-53.34
X167.64Y-55.88
X167.64Y-58.42
X167.64Y-60.96
X167.64Y-63.5
X167.64Y-66.04
X167.64Y-68.58
X167.64Y-71.12
X167.64Y-73.66
X167.64Y-76.2
X167.64Y-78.74
X167.64Y-81.28
X167.64Y-83.82
X167.64Y-86.36
X167.64Y-88.9
X167.64Y-91.44
X167.64Y-93.98
X167.64Y-96.52
X167.64Y-99.06
X167.64Y-101.6
X167.64Y-104.14
X167.64Y-106.68
X167.64Y-109.22
X167.64Y-111.76
X167.64Y-114.3
X167.64Y-116.84
X167.64Y-119.38
X167.64Y-121.92
X167.64Y-124.46
X167.64Y-127.0
X167.64Y-129.54
X167.64Y-132.08
X167.64Y-134.62
X167.64Y-137.16
X167.64Y-139.7
X167.64Y-142.24
X167.64Y-144.78
X167.64Y-147.32
X170.18Y-53.34
X170.18Y-55.88
X170.18Y-58.42
X170.18Y-60.96
X170.18Y-63.5
X170.18Y-66.04
X170.18Y-68.58
X170.18Y-71.12
X170.18Y-73.66
X170.18Y-76.2
X170.18Y-78.74
X170.18Y-81.28
X170.18Y-83.82
X170.18Y-86.36
X170.18Y-88.9
X170.18Y-91.44
X170.18Y-93.98
X170.18Y-96.52
X170.18Y-99.06
X170.18Y-101.6
X170.18Y-104.14
X170.18Y-106.68
X170.18Y-109.22
X170.18Y-111.76
X170.18Y-114.3
X170.18Y-116.84
X170.18Y-119.38
X170.18Y-121.92
X170.18Y-124.46
X170.18Y-127.0
X170.18Y-129.54
X170.18Y-132.08
X170.18Y-134.62
X170.18Y-137.16
X170.18Y-139.7
X170.18Y-142.24
X170.18Y-144.78
X170.18Y-147.32
X172.72Y-53.34
X172.72Y-55.88
X172.72Y-58.42
X172.72Y-60.96
X172.72Y-63.5
X172.72Y-66.04
X172.72Y-68.58
X172.72Y-71.12
X172.72Y-73.66
X172.72Y-76.2
X172.72Y-78.74
X172.72Y-81.28
X172.72Y-83.82
X172.72Y-86.36
X172.72Y-88.9
X172.72Y-91.44
X172.72Y-93.98
X172.72Y-96.52
X172.72Y-99.06
X172.72Y-101.6
X172.72Y-104.14
X172.72Y-106.68
X172.72Y-109.22
X172.72Y-111.76
X172.72Y-114.3
X172.72Y-116.84
X172.72Y-119.38
X172.72Y-121.92
X172.72Y-124.46
X172.72Y-127.0
X172.72Y-129.54
X172.72Y-132.08
X172.72Y-134.62
X172.72Y-137.16
X172.72Y-139.7
X172.72Y-142.24
X172.72Y-144.78
X172.72Y-147.32
X175.26Y-53.34
X175.26Y-55.88
X175.26Y-58.42
X175.26Y-60.96
X175.26Y-63.5
X175.26Y-66.04
X175.26Y-68.58
X175.26Y-71.12
X175.26Y-73.66
X175.26Y-76.2
X175.26Y-78.74
X175.26Y-81.28
X175.26Y-83.82
X175.26Y-86.36
X175.26Y-88.9
X175.26Y-91.44
X175.26Y-93.98
X175.26Y-96.52
X175.26Y-99.06
X175.26Y-101.6
X175.26Y-104.14
X175.26Y-106.68
X175.26Y-109.22
X175.26Y-111.76
X175.26Y-114.3
X175.26Y-116.84
X175.26Y-119.38
X175.26Y-121.92
X175.26Y-124.46
X175.26Y-127.0
X175.26Y-129.54
X175.26Y-132.08
X175.26Y-134.62
X175.26Y-137.16
X175.26Y-139.7
X175.26Y-142.24
X175.26Y-144.78
X175.26Y-147.32
X177.8Y-53.34
X177.8Y-55.88
X177.8Y-58.42
X177.8Y-60.96
X177.8Y-63.5
X177.8Y-66.04
X177.8Y-68.58
X177.8Y-71.12
X177.8Y-73.66
X177.8Y-76.2
X177.8Y-78.74
X177.8Y-81.28
X177.8Y-83.82
X177.8Y-86.36
X177.8Y-88.9
X177.8Y-91.44
X177.8Y-93.98
X177.8Y-96.52
X177.8Y-99.06
X177.8Y-101.6
X177.8Y-104.14
X177.8Y-106.68
X177.8Y-109.22
X177.8Y-111.76
X177.8Y-114.3
X177.8Y-116.84
X177.8Y-119.38
X177.8Y-121.92
X177.8Y-124.46
X177.8Y-127.0
X177.8Y-129.54
X177.8Y-132.08
X177.8Y-134.62
X177.8Y-137.16
X177.8Y-139.7
X177.8Y-142.24
X177.8Y-144.78
X177.8Y-147.32
X180.34Y-129.54
X180.34Y-132.08
X180.34Y-134.62
X180.34Y-137.16
X180.34Y-139.7
X180.34Y-142.24
X180.34Y-144.78
X180.34Y-147.32
X182.88Y-129.54
X182.88Y-132.08
X182.88Y-134.62
X182.88Y-137.16
X182.88Y-139.7
X182.88Y-142.24
X182.88Y-144.78
X182.88Y-147.32
X185.42Y-63.5
X185.42Y-66.04
X185.42Y-68.58
X185.42Y-71.12
X185.42Y-73.66
X185.42Y-76.2
X185.42Y-78.74
X185.42Y-81.28
X185.42Y-83.82
X185.42Y-86.36
X185.42Y-88.9
X185.42Y-91.44
X185.42Y-93.98
X185.42Y-96.52
X185.42Y-99.06
X185.42Y-101.6
X185.42Y-104.14
X185.42Y-106.68
X185.42Y-109.22
X185.42Y-111.76
X185.42Y-114.3
X185.42Y-116.84
X185.42Y-119.38
X185.42Y-121.92
X185.42Y-129.54
X185.42Y-132.08
X185.42Y-134.62
X185.42Y-137.16
X187.96Y-63.5
X187.96Y-66.04
X187.96Y-68.58
X187.96Y-71.12
X187.96Y-73.66
X187.96Y-76.2
X187.96Y-78.74
X187.96Y-81.28
X187.96Y-83.82
X187.96Y-86.36
X187.96Y-88.9
X187.96Y-91.44
X187.96Y-93.98
X187.96Y-96.52
X187.96Y-99.06
X187.96Y-101.6
X187.96Y-104.14
X187.96Y-106.68
X187.96Y-109.22
X187.96Y-111.76
X187.96Y-114.3
X187.96Y-116.84
X187.96Y-119.38
X187.96Y-121.92
X188.214Y-129.54
X188.214Y-132.08
X188.214Y-134.62
X188.214Y-137.16
X198.12Y-50.8
X198.12Y-53.34
X198.12Y-55.88
X198.12Y-58.42
X198.12Y-60.96
X198.12Y-63.5
X198.12Y-73.66
X198.12Y-76.2
X198.12Y-78.74
X198.12Y-81.28
X198.12Y-83.82
X198.12Y-86.36
X198.12Y-96.52
X198.12Y-99.06
X198.12Y-101.6
X198.12Y-104.14
X198.12Y-106.68
X198.12Y-109.22
X198.12Y-119.38
X198.12Y-121.92
X198.12Y-124.46
X198.12Y-127.0
X198.12Y-129.54
X198.12Y-132.08
X200.66Y-50.8
X200.66Y-53.34
X200.66Y-55.88
X200.66Y-58.42
X200.66Y-60.96
X200.66Y-63.5
X200.66Y-73.66
X200.66Y-76.2
X200.66Y-78.74
X200.66Y-81.28
X200.66Y-83.82
X200.66Y-86.36
X200.66Y-96.52
X200.66Y-99.06
X200.66Y-101.6
X200.66Y-104.14
X200.66Y-106.68
X200.66Y-109.22
X200.66Y-119.38
X200.66Y-121.92
X200.66Y-124.46
X200.66Y-127.0
X200.66Y-129.54
X200.66Y-132.08
T2
G00X146.886Y-134.97
M15
G01X148.886Y-134.97
M16
G05
G00X146.886Y-140.97
M15
G01X148.886Y-140.97
M16
G05
G00X152.587Y-138.97
M15
G01X152.587Y-136.97
M16
G05
M30
