%TF.GenerationSoftware,KiCad,Pcbnew,9.0.1-9.0.1-0~ubuntu24.04.1*%
%TF.CreationDate,2025-04-22T11:44:27+09:00*%
%TF.ProjectId,PSCE-TEST_Cyclone4_6k,50534345-2d54-4455-9354-5f4379636c6f,rev?*%
%TF.SameCoordinates,Original*%
%TF.FileFunction,Legend,Top*%
%TF.FilePolarity,Positive*%
%FSLAX46Y46*%
G04 Gerber Fmt 4.6, Leading zero omitted, Abs format (unit mm)*
G04 Created by KiCad (PCBNEW 9.0.1-9.0.1-0~ubuntu24.04.1) date 2025-04-22 11:44:27*
%MOMM*%
%LPD*%
G01*
G04 APERTURE LIST*
%ADD10C,0.100000*%
%ADD11C,0.150000*%
%ADD12C,0.300000*%
%ADD13C,0.200000*%
%ADD14C,0.120000*%
%ADD15C,0.250000*%
G04 APERTURE END LIST*
D10*
X84582000Y-141224000D02*
X91948000Y-141224000D01*
X91948000Y-143256000D01*
X84582000Y-143256000D01*
X84582000Y-141224000D01*
G36*
X84582000Y-141224000D02*
G01*
X91948000Y-141224000D01*
X91948000Y-143256000D01*
X84582000Y-143256000D01*
X84582000Y-141224000D01*
G37*
X101600000Y-120904000D02*
X103632000Y-120904000D01*
X103632000Y-127762000D01*
X101600000Y-127762000D01*
X101600000Y-120904000D01*
G36*
X101600000Y-120904000D02*
G01*
X103632000Y-120904000D01*
X103632000Y-127762000D01*
X101600000Y-127762000D01*
X101600000Y-120904000D01*
G37*
X101600000Y-103251000D02*
X103632000Y-103251000D01*
X103632000Y-110109000D01*
X101600000Y-110109000D01*
X101600000Y-103251000D01*
G36*
X101600000Y-103251000D02*
G01*
X103632000Y-103251000D01*
X103632000Y-110109000D01*
X101600000Y-110109000D01*
X101600000Y-103251000D01*
G37*
D11*
X194564000Y-134366000D02*
X196596000Y-134366000D01*
D10*
X135128000Y-138878000D02*
X141986000Y-138878000D01*
X141986000Y-140492000D01*
X135128000Y-140492000D01*
X135128000Y-138878000D01*
G36*
X135128000Y-138878000D02*
G01*
X141986000Y-138878000D01*
X141986000Y-140492000D01*
X135128000Y-140492000D01*
X135128000Y-138878000D01*
G37*
X85725000Y-108966000D02*
X92075000Y-108966000D01*
X85725000Y-96266000D02*
X92075000Y-96266000D01*
X85725000Y-121666000D02*
X92075000Y-121666000D01*
X91246000Y-64710000D02*
X95250000Y-64710000D01*
X95250000Y-84836000D01*
X91246000Y-84836000D01*
X91246000Y-64710000D01*
X101346000Y-49657000D02*
X103378000Y-49657000D01*
X103378000Y-56515000D01*
X101346000Y-56515000D01*
X101346000Y-49657000D01*
G36*
X101346000Y-49657000D02*
G01*
X103378000Y-49657000D01*
X103378000Y-56515000D01*
X101346000Y-56515000D01*
X101346000Y-49657000D01*
G37*
D11*
X194564000Y-71628000D02*
X194564000Y-134366000D01*
D10*
X141986000Y-130750000D02*
X150114000Y-130750000D01*
X150114000Y-135382000D01*
X141986000Y-135382000D01*
X141986000Y-130750000D01*
G36*
X141986000Y-130750000D02*
G01*
X150114000Y-130750000D01*
X150114000Y-135382000D01*
X141986000Y-135382000D01*
X141986000Y-130750000D01*
G37*
X101600000Y-85217000D02*
X103632000Y-85217000D01*
X103632000Y-92075000D01*
X101600000Y-92075000D01*
X101600000Y-85217000D01*
G36*
X101600000Y-85217000D02*
G01*
X103632000Y-85217000D01*
X103632000Y-92075000D01*
X101600000Y-92075000D01*
X101600000Y-85217000D01*
G37*
X91246000Y-125924000D02*
X95250000Y-125924000D01*
X95250000Y-140970000D01*
X91246000Y-140970000D01*
X91246000Y-125924000D01*
X85661500Y-70866000D02*
X92138500Y-70866000D01*
X134239000Y-130750000D02*
X135225000Y-130750000D01*
X135225000Y-135382000D01*
X134239000Y-135382000D01*
X134239000Y-130750000D01*
G36*
X134239000Y-130750000D02*
G01*
X135225000Y-130750000D01*
X135225000Y-135382000D01*
X134239000Y-135382000D01*
X134239000Y-130750000D01*
G37*
X85725000Y-134366000D02*
X92075000Y-134366000D01*
D11*
X194564000Y-71628000D02*
X196596000Y-71628000D01*
D10*
X91246000Y-85030000D02*
X95250000Y-85030000D01*
X95250000Y-105156000D01*
X91246000Y-105156000D01*
X91246000Y-85030000D01*
X189992000Y-128240000D02*
X191008000Y-128240000D01*
X191008000Y-132872000D01*
X189992000Y-132872000D01*
X189992000Y-128240000D01*
G36*
X189992000Y-128240000D02*
G01*
X191008000Y-128240000D01*
X191008000Y-132872000D01*
X189992000Y-132872000D01*
X189992000Y-128240000D01*
G37*
X101600000Y-67691000D02*
X103632000Y-67691000D01*
X103632000Y-74549000D01*
X101600000Y-74549000D01*
X101600000Y-67691000D01*
G36*
X101600000Y-67691000D02*
G01*
X103632000Y-67691000D01*
X103632000Y-74549000D01*
X101600000Y-74549000D01*
X101600000Y-67691000D01*
G37*
X85471000Y-58166000D02*
X91948000Y-58166000D01*
X91246000Y-44136000D02*
X95250000Y-44136000D01*
X95250000Y-64516000D01*
X91246000Y-64516000D01*
X91246000Y-44136000D01*
X134620000Y-136084000D02*
X141986000Y-136084000D01*
X141986000Y-138176000D01*
X134620000Y-138176000D01*
X134620000Y-136084000D01*
X85471000Y-83820000D02*
X91948000Y-83820000D01*
X186944000Y-136480000D02*
X190246000Y-136480000D01*
X190246000Y-137840000D01*
X186944000Y-137840000D01*
X186944000Y-136480000D01*
G36*
X186944000Y-136480000D02*
G01*
X190246000Y-136480000D01*
X190246000Y-137840000D01*
X186944000Y-137840000D01*
X186944000Y-136480000D01*
G37*
X91246000Y-105350000D02*
X95250000Y-105350000D01*
X95250000Y-125730000D01*
X91246000Y-125730000D01*
X91246000Y-105350000D01*
D12*
X136444510Y-45459638D02*
X136444510Y-43459638D01*
X136444510Y-43459638D02*
X137015939Y-43459638D01*
X137015939Y-43459638D02*
X137158796Y-43554876D01*
X137158796Y-43554876D02*
X137230225Y-43650114D01*
X137230225Y-43650114D02*
X137301653Y-43840590D01*
X137301653Y-43840590D02*
X137301653Y-44126304D01*
X137301653Y-44126304D02*
X137230225Y-44316780D01*
X137230225Y-44316780D02*
X137158796Y-44412019D01*
X137158796Y-44412019D02*
X137015939Y-44507257D01*
X137015939Y-44507257D02*
X136444510Y-44507257D01*
X137873082Y-45364400D02*
X138087368Y-45459638D01*
X138087368Y-45459638D02*
X138444510Y-45459638D01*
X138444510Y-45459638D02*
X138587368Y-45364400D01*
X138587368Y-45364400D02*
X138658796Y-45269161D01*
X138658796Y-45269161D02*
X138730225Y-45078685D01*
X138730225Y-45078685D02*
X138730225Y-44888209D01*
X138730225Y-44888209D02*
X138658796Y-44697733D01*
X138658796Y-44697733D02*
X138587368Y-44602495D01*
X138587368Y-44602495D02*
X138444510Y-44507257D01*
X138444510Y-44507257D02*
X138158796Y-44412019D01*
X138158796Y-44412019D02*
X138015939Y-44316780D01*
X138015939Y-44316780D02*
X137944510Y-44221542D01*
X137944510Y-44221542D02*
X137873082Y-44031066D01*
X137873082Y-44031066D02*
X137873082Y-43840590D01*
X137873082Y-43840590D02*
X137944510Y-43650114D01*
X137944510Y-43650114D02*
X138015939Y-43554876D01*
X138015939Y-43554876D02*
X138158796Y-43459638D01*
X138158796Y-43459638D02*
X138515939Y-43459638D01*
X138515939Y-43459638D02*
X138730225Y-43554876D01*
X140230224Y-45269161D02*
X140158796Y-45364400D01*
X140158796Y-45364400D02*
X139944510Y-45459638D01*
X139944510Y-45459638D02*
X139801653Y-45459638D01*
X139801653Y-45459638D02*
X139587367Y-45364400D01*
X139587367Y-45364400D02*
X139444510Y-45173923D01*
X139444510Y-45173923D02*
X139373081Y-44983447D01*
X139373081Y-44983447D02*
X139301653Y-44602495D01*
X139301653Y-44602495D02*
X139301653Y-44316780D01*
X139301653Y-44316780D02*
X139373081Y-43935828D01*
X139373081Y-43935828D02*
X139444510Y-43745352D01*
X139444510Y-43745352D02*
X139587367Y-43554876D01*
X139587367Y-43554876D02*
X139801653Y-43459638D01*
X139801653Y-43459638D02*
X139944510Y-43459638D01*
X139944510Y-43459638D02*
X140158796Y-43554876D01*
X140158796Y-43554876D02*
X140230224Y-43650114D01*
X140873081Y-44412019D02*
X141373081Y-44412019D01*
X141587367Y-45459638D02*
X140873081Y-45459638D01*
X140873081Y-45459638D02*
X140873081Y-43459638D01*
X140873081Y-43459638D02*
X141587367Y-43459638D01*
X142230224Y-44697733D02*
X143373082Y-44697733D01*
X143873082Y-43459638D02*
X144730225Y-43459638D01*
X144301653Y-45459638D02*
X144301653Y-43459638D01*
X146087367Y-45459638D02*
X145587367Y-44507257D01*
X145230224Y-45459638D02*
X145230224Y-43459638D01*
X145230224Y-43459638D02*
X145801653Y-43459638D01*
X145801653Y-43459638D02*
X145944510Y-43554876D01*
X145944510Y-43554876D02*
X146015939Y-43650114D01*
X146015939Y-43650114D02*
X146087367Y-43840590D01*
X146087367Y-43840590D02*
X146087367Y-44126304D01*
X146087367Y-44126304D02*
X146015939Y-44316780D01*
X146015939Y-44316780D02*
X145944510Y-44412019D01*
X145944510Y-44412019D02*
X145801653Y-44507257D01*
X145801653Y-44507257D02*
X145230224Y-44507257D01*
X146658796Y-44888209D02*
X147373082Y-44888209D01*
X146515939Y-45459638D02*
X147015939Y-43459638D01*
X147015939Y-43459638D02*
X147515939Y-45459638D01*
X148015938Y-45459638D02*
X148015938Y-43459638D01*
X148015938Y-43459638D02*
X148873081Y-45459638D01*
X148873081Y-45459638D02*
X148873081Y-43459638D01*
X149515939Y-45364400D02*
X149730225Y-45459638D01*
X149730225Y-45459638D02*
X150087367Y-45459638D01*
X150087367Y-45459638D02*
X150230225Y-45364400D01*
X150230225Y-45364400D02*
X150301653Y-45269161D01*
X150301653Y-45269161D02*
X150373082Y-45078685D01*
X150373082Y-45078685D02*
X150373082Y-44888209D01*
X150373082Y-44888209D02*
X150301653Y-44697733D01*
X150301653Y-44697733D02*
X150230225Y-44602495D01*
X150230225Y-44602495D02*
X150087367Y-44507257D01*
X150087367Y-44507257D02*
X149801653Y-44412019D01*
X149801653Y-44412019D02*
X149658796Y-44316780D01*
X149658796Y-44316780D02*
X149587367Y-44221542D01*
X149587367Y-44221542D02*
X149515939Y-44031066D01*
X149515939Y-44031066D02*
X149515939Y-43840590D01*
X149515939Y-43840590D02*
X149587367Y-43650114D01*
X149587367Y-43650114D02*
X149658796Y-43554876D01*
X149658796Y-43554876D02*
X149801653Y-43459638D01*
X149801653Y-43459638D02*
X150158796Y-43459638D01*
X150158796Y-43459638D02*
X150373082Y-43554876D01*
X153373081Y-45459638D02*
X153301653Y-45459638D01*
X153301653Y-45459638D02*
X153158795Y-45364400D01*
X153158795Y-45364400D02*
X152944510Y-45078685D01*
X152944510Y-45078685D02*
X152587367Y-44507257D01*
X152587367Y-44507257D02*
X152444510Y-44221542D01*
X152444510Y-44221542D02*
X152373081Y-43935828D01*
X152373081Y-43935828D02*
X152373081Y-43745352D01*
X152373081Y-43745352D02*
X152444510Y-43554876D01*
X152444510Y-43554876D02*
X152587367Y-43459638D01*
X152587367Y-43459638D02*
X152658795Y-43459638D01*
X152658795Y-43459638D02*
X152801653Y-43554876D01*
X152801653Y-43554876D02*
X152873081Y-43745352D01*
X152873081Y-43745352D02*
X152873081Y-43840590D01*
X152873081Y-43840590D02*
X152801653Y-44031066D01*
X152801653Y-44031066D02*
X152730224Y-44126304D01*
X152730224Y-44126304D02*
X152301653Y-44507257D01*
X152301653Y-44507257D02*
X152230224Y-44602495D01*
X152230224Y-44602495D02*
X152158795Y-44792971D01*
X152158795Y-44792971D02*
X152158795Y-45078685D01*
X152158795Y-45078685D02*
X152230224Y-45269161D01*
X152230224Y-45269161D02*
X152301653Y-45364400D01*
X152301653Y-45364400D02*
X152444510Y-45459638D01*
X152444510Y-45459638D02*
X152658795Y-45459638D01*
X152658795Y-45459638D02*
X152801653Y-45364400D01*
X152801653Y-45364400D02*
X152873081Y-45269161D01*
X152873081Y-45269161D02*
X153087367Y-44888209D01*
X153087367Y-44888209D02*
X153158795Y-44602495D01*
X153158795Y-44602495D02*
X153158795Y-44412019D01*
X154944510Y-43459638D02*
X155801653Y-43459638D01*
X155373081Y-45459638D02*
X155373081Y-43459638D01*
X156301652Y-44412019D02*
X156801652Y-44412019D01*
X157015938Y-45459638D02*
X156301652Y-45459638D01*
X156301652Y-45459638D02*
X156301652Y-43459638D01*
X156301652Y-43459638D02*
X157015938Y-43459638D01*
X157587367Y-45364400D02*
X157801653Y-45459638D01*
X157801653Y-45459638D02*
X158158795Y-45459638D01*
X158158795Y-45459638D02*
X158301653Y-45364400D01*
X158301653Y-45364400D02*
X158373081Y-45269161D01*
X158373081Y-45269161D02*
X158444510Y-45078685D01*
X158444510Y-45078685D02*
X158444510Y-44888209D01*
X158444510Y-44888209D02*
X158373081Y-44697733D01*
X158373081Y-44697733D02*
X158301653Y-44602495D01*
X158301653Y-44602495D02*
X158158795Y-44507257D01*
X158158795Y-44507257D02*
X157873081Y-44412019D01*
X157873081Y-44412019D02*
X157730224Y-44316780D01*
X157730224Y-44316780D02*
X157658795Y-44221542D01*
X157658795Y-44221542D02*
X157587367Y-44031066D01*
X157587367Y-44031066D02*
X157587367Y-43840590D01*
X157587367Y-43840590D02*
X157658795Y-43650114D01*
X157658795Y-43650114D02*
X157730224Y-43554876D01*
X157730224Y-43554876D02*
X157873081Y-43459638D01*
X157873081Y-43459638D02*
X158230224Y-43459638D01*
X158230224Y-43459638D02*
X158444510Y-43554876D01*
X158873081Y-43459638D02*
X159730224Y-43459638D01*
X159301652Y-45459638D02*
X159301652Y-43459638D01*
D13*
X96238720Y-50966104D02*
X95667292Y-50966104D01*
X95667292Y-50966104D02*
X95610149Y-51489914D01*
X95610149Y-51489914D02*
X95667292Y-51437533D01*
X95667292Y-51437533D02*
X95781578Y-51385152D01*
X95781578Y-51385152D02*
X96067292Y-51385152D01*
X96067292Y-51385152D02*
X96181578Y-51437533D01*
X96181578Y-51437533D02*
X96238720Y-51489914D01*
X96238720Y-51489914D02*
X96295863Y-51594676D01*
X96295863Y-51594676D02*
X96295863Y-51856581D01*
X96295863Y-51856581D02*
X96238720Y-51961343D01*
X96238720Y-51961343D02*
X96181578Y-52013724D01*
X96181578Y-52013724D02*
X96067292Y-52066104D01*
X96067292Y-52066104D02*
X95781578Y-52066104D01*
X95781578Y-52066104D02*
X95667292Y-52013724D01*
X95667292Y-52013724D02*
X95610149Y-51961343D01*
X96638720Y-50966104D02*
X97038720Y-52066104D01*
X97038720Y-52066104D02*
X97438720Y-50966104D01*
X98067291Y-50966104D02*
X98181577Y-50966104D01*
X98181577Y-50966104D02*
X98295863Y-51018485D01*
X98295863Y-51018485D02*
X98353006Y-51070866D01*
X98353006Y-51070866D02*
X98410148Y-51175628D01*
X98410148Y-51175628D02*
X98467291Y-51385152D01*
X98467291Y-51385152D02*
X98467291Y-51647057D01*
X98467291Y-51647057D02*
X98410148Y-51856581D01*
X98410148Y-51856581D02*
X98353006Y-51961343D01*
X98353006Y-51961343D02*
X98295863Y-52013724D01*
X98295863Y-52013724D02*
X98181577Y-52066104D01*
X98181577Y-52066104D02*
X98067291Y-52066104D01*
X98067291Y-52066104D02*
X97953006Y-52013724D01*
X97953006Y-52013724D02*
X97895863Y-51961343D01*
X97895863Y-51961343D02*
X97838720Y-51856581D01*
X97838720Y-51856581D02*
X97781577Y-51647057D01*
X97781577Y-51647057D02*
X97781577Y-51385152D01*
X97781577Y-51385152D02*
X97838720Y-51175628D01*
X97838720Y-51175628D02*
X97895863Y-51070866D01*
X97895863Y-51070866D02*
X97953006Y-51018485D01*
X97953006Y-51018485D02*
X98067291Y-50966104D01*
X95553006Y-54507980D02*
X96295863Y-54507980D01*
X96295863Y-54507980D02*
X95895863Y-54927028D01*
X95895863Y-54927028D02*
X96067292Y-54927028D01*
X96067292Y-54927028D02*
X96181578Y-54979409D01*
X96181578Y-54979409D02*
X96238720Y-55031790D01*
X96238720Y-55031790D02*
X96295863Y-55136552D01*
X96295863Y-55136552D02*
X96295863Y-55398457D01*
X96295863Y-55398457D02*
X96238720Y-55503219D01*
X96238720Y-55503219D02*
X96181578Y-55555600D01*
X96181578Y-55555600D02*
X96067292Y-55607980D01*
X96067292Y-55607980D02*
X95724435Y-55607980D01*
X95724435Y-55607980D02*
X95610149Y-55555600D01*
X95610149Y-55555600D02*
X95553006Y-55503219D01*
X96638720Y-54507980D02*
X97038720Y-55607980D01*
X97038720Y-55607980D02*
X97438720Y-54507980D01*
X97724434Y-54507980D02*
X98467291Y-54507980D01*
X98467291Y-54507980D02*
X98067291Y-54927028D01*
X98067291Y-54927028D02*
X98238720Y-54927028D01*
X98238720Y-54927028D02*
X98353006Y-54979409D01*
X98353006Y-54979409D02*
X98410148Y-55031790D01*
X98410148Y-55031790D02*
X98467291Y-55136552D01*
X98467291Y-55136552D02*
X98467291Y-55398457D01*
X98467291Y-55398457D02*
X98410148Y-55503219D01*
X98410148Y-55503219D02*
X98353006Y-55555600D01*
X98353006Y-55555600D02*
X98238720Y-55607980D01*
X98238720Y-55607980D02*
X97895863Y-55607980D01*
X97895863Y-55607980D02*
X97781577Y-55555600D01*
X97781577Y-55555600D02*
X97724434Y-55503219D01*
X131989292Y-133954742D02*
X131989292Y-132754742D01*
X132560721Y-133154742D02*
X132560721Y-133954742D01*
X132560721Y-133269028D02*
X132617864Y-133211885D01*
X132617864Y-133211885D02*
X132732149Y-133154742D01*
X132732149Y-133154742D02*
X132903578Y-133154742D01*
X132903578Y-133154742D02*
X133017864Y-133211885D01*
X133017864Y-133211885D02*
X133075007Y-133326171D01*
X133075007Y-133326171D02*
X133075007Y-133954742D01*
X133475006Y-133154742D02*
X133932149Y-133154742D01*
X133646435Y-132754742D02*
X133646435Y-133783314D01*
X133646435Y-133783314D02*
X133703578Y-133897600D01*
X133703578Y-133897600D02*
X133817863Y-133954742D01*
X133817863Y-133954742D02*
X133932149Y-133954742D01*
X96238720Y-86526104D02*
X95667292Y-86526104D01*
X95667292Y-86526104D02*
X95610149Y-87049914D01*
X95610149Y-87049914D02*
X95667292Y-86997533D01*
X95667292Y-86997533D02*
X95781578Y-86945152D01*
X95781578Y-86945152D02*
X96067292Y-86945152D01*
X96067292Y-86945152D02*
X96181578Y-86997533D01*
X96181578Y-86997533D02*
X96238720Y-87049914D01*
X96238720Y-87049914D02*
X96295863Y-87154676D01*
X96295863Y-87154676D02*
X96295863Y-87416581D01*
X96295863Y-87416581D02*
X96238720Y-87521343D01*
X96238720Y-87521343D02*
X96181578Y-87573724D01*
X96181578Y-87573724D02*
X96067292Y-87626104D01*
X96067292Y-87626104D02*
X95781578Y-87626104D01*
X95781578Y-87626104D02*
X95667292Y-87573724D01*
X95667292Y-87573724D02*
X95610149Y-87521343D01*
X96638720Y-86526104D02*
X97038720Y-87626104D01*
X97038720Y-87626104D02*
X97438720Y-86526104D01*
X98067291Y-86526104D02*
X98181577Y-86526104D01*
X98181577Y-86526104D02*
X98295863Y-86578485D01*
X98295863Y-86578485D02*
X98353006Y-86630866D01*
X98353006Y-86630866D02*
X98410148Y-86735628D01*
X98410148Y-86735628D02*
X98467291Y-86945152D01*
X98467291Y-86945152D02*
X98467291Y-87207057D01*
X98467291Y-87207057D02*
X98410148Y-87416581D01*
X98410148Y-87416581D02*
X98353006Y-87521343D01*
X98353006Y-87521343D02*
X98295863Y-87573724D01*
X98295863Y-87573724D02*
X98181577Y-87626104D01*
X98181577Y-87626104D02*
X98067291Y-87626104D01*
X98067291Y-87626104D02*
X97953006Y-87573724D01*
X97953006Y-87573724D02*
X97895863Y-87521343D01*
X97895863Y-87521343D02*
X97838720Y-87416581D01*
X97838720Y-87416581D02*
X97781577Y-87207057D01*
X97781577Y-87207057D02*
X97781577Y-86945152D01*
X97781577Y-86945152D02*
X97838720Y-86735628D01*
X97838720Y-86735628D02*
X97895863Y-86630866D01*
X97895863Y-86630866D02*
X97953006Y-86578485D01*
X97953006Y-86578485D02*
X98067291Y-86526104D01*
X95553006Y-90067980D02*
X96295863Y-90067980D01*
X96295863Y-90067980D02*
X95895863Y-90487028D01*
X95895863Y-90487028D02*
X96067292Y-90487028D01*
X96067292Y-90487028D02*
X96181578Y-90539409D01*
X96181578Y-90539409D02*
X96238720Y-90591790D01*
X96238720Y-90591790D02*
X96295863Y-90696552D01*
X96295863Y-90696552D02*
X96295863Y-90958457D01*
X96295863Y-90958457D02*
X96238720Y-91063219D01*
X96238720Y-91063219D02*
X96181578Y-91115600D01*
X96181578Y-91115600D02*
X96067292Y-91167980D01*
X96067292Y-91167980D02*
X95724435Y-91167980D01*
X95724435Y-91167980D02*
X95610149Y-91115600D01*
X95610149Y-91115600D02*
X95553006Y-91063219D01*
X96638720Y-90067980D02*
X97038720Y-91167980D01*
X97038720Y-91167980D02*
X97438720Y-90067980D01*
X97724434Y-90067980D02*
X98467291Y-90067980D01*
X98467291Y-90067980D02*
X98067291Y-90487028D01*
X98067291Y-90487028D02*
X98238720Y-90487028D01*
X98238720Y-90487028D02*
X98353006Y-90539409D01*
X98353006Y-90539409D02*
X98410148Y-90591790D01*
X98410148Y-90591790D02*
X98467291Y-90696552D01*
X98467291Y-90696552D02*
X98467291Y-90958457D01*
X98467291Y-90958457D02*
X98410148Y-91063219D01*
X98410148Y-91063219D02*
X98353006Y-91115600D01*
X98353006Y-91115600D02*
X98238720Y-91167980D01*
X98238720Y-91167980D02*
X97895863Y-91167980D01*
X97895863Y-91167980D02*
X97781577Y-91115600D01*
X97781577Y-91115600D02*
X97724434Y-91063219D01*
X194116028Y-109493279D02*
X192616028Y-109493279D01*
X192616028Y-109493279D02*
X192616028Y-108921850D01*
X192616028Y-108921850D02*
X192687457Y-108778993D01*
X192687457Y-108778993D02*
X192758885Y-108707564D01*
X192758885Y-108707564D02*
X192901742Y-108636136D01*
X192901742Y-108636136D02*
X193116028Y-108636136D01*
X193116028Y-108636136D02*
X193258885Y-108707564D01*
X193258885Y-108707564D02*
X193330314Y-108778993D01*
X193330314Y-108778993D02*
X193401742Y-108921850D01*
X193401742Y-108921850D02*
X193401742Y-109493279D01*
X194044600Y-108064707D02*
X194116028Y-107850422D01*
X194116028Y-107850422D02*
X194116028Y-107493279D01*
X194116028Y-107493279D02*
X194044600Y-107350422D01*
X194044600Y-107350422D02*
X193973171Y-107278993D01*
X193973171Y-107278993D02*
X193830314Y-107207564D01*
X193830314Y-107207564D02*
X193687457Y-107207564D01*
X193687457Y-107207564D02*
X193544600Y-107278993D01*
X193544600Y-107278993D02*
X193473171Y-107350422D01*
X193473171Y-107350422D02*
X193401742Y-107493279D01*
X193401742Y-107493279D02*
X193330314Y-107778993D01*
X193330314Y-107778993D02*
X193258885Y-107921850D01*
X193258885Y-107921850D02*
X193187457Y-107993279D01*
X193187457Y-107993279D02*
X193044600Y-108064707D01*
X193044600Y-108064707D02*
X192901742Y-108064707D01*
X192901742Y-108064707D02*
X192758885Y-107993279D01*
X192758885Y-107993279D02*
X192687457Y-107921850D01*
X192687457Y-107921850D02*
X192616028Y-107778993D01*
X192616028Y-107778993D02*
X192616028Y-107421850D01*
X192616028Y-107421850D02*
X192687457Y-107207564D01*
X193973171Y-105707565D02*
X194044600Y-105778993D01*
X194044600Y-105778993D02*
X194116028Y-105993279D01*
X194116028Y-105993279D02*
X194116028Y-106136136D01*
X194116028Y-106136136D02*
X194044600Y-106350422D01*
X194044600Y-106350422D02*
X193901742Y-106493279D01*
X193901742Y-106493279D02*
X193758885Y-106564708D01*
X193758885Y-106564708D02*
X193473171Y-106636136D01*
X193473171Y-106636136D02*
X193258885Y-106636136D01*
X193258885Y-106636136D02*
X192973171Y-106564708D01*
X192973171Y-106564708D02*
X192830314Y-106493279D01*
X192830314Y-106493279D02*
X192687457Y-106350422D01*
X192687457Y-106350422D02*
X192616028Y-106136136D01*
X192616028Y-106136136D02*
X192616028Y-105993279D01*
X192616028Y-105993279D02*
X192687457Y-105778993D01*
X192687457Y-105778993D02*
X192758885Y-105707565D01*
X193330314Y-105064708D02*
X193330314Y-104564708D01*
X194116028Y-104350422D02*
X194116028Y-105064708D01*
X194116028Y-105064708D02*
X192616028Y-105064708D01*
X192616028Y-105064708D02*
X192616028Y-104350422D01*
X193544600Y-103707565D02*
X193544600Y-102564708D01*
X194116028Y-101850422D02*
X192616028Y-101850422D01*
X192616028Y-101850422D02*
X193687457Y-101350422D01*
X193687457Y-101350422D02*
X192616028Y-100850422D01*
X192616028Y-100850422D02*
X194116028Y-100850422D01*
X194116028Y-100136136D02*
X192616028Y-100136136D01*
X194116028Y-98278993D02*
X192616028Y-98278993D01*
X192616028Y-98278993D02*
X192616028Y-97707564D01*
X192616028Y-97707564D02*
X192687457Y-97564707D01*
X192687457Y-97564707D02*
X192758885Y-97493278D01*
X192758885Y-97493278D02*
X192901742Y-97421850D01*
X192901742Y-97421850D02*
X193116028Y-97421850D01*
X193116028Y-97421850D02*
X193258885Y-97493278D01*
X193258885Y-97493278D02*
X193330314Y-97564707D01*
X193330314Y-97564707D02*
X193401742Y-97707564D01*
X193401742Y-97707564D02*
X193401742Y-98278993D01*
X194116028Y-96564707D02*
X194044600Y-96707564D01*
X194044600Y-96707564D02*
X193973171Y-96778993D01*
X193973171Y-96778993D02*
X193830314Y-96850421D01*
X193830314Y-96850421D02*
X193401742Y-96850421D01*
X193401742Y-96850421D02*
X193258885Y-96778993D01*
X193258885Y-96778993D02*
X193187457Y-96707564D01*
X193187457Y-96707564D02*
X193116028Y-96564707D01*
X193116028Y-96564707D02*
X193116028Y-96350421D01*
X193116028Y-96350421D02*
X193187457Y-96207564D01*
X193187457Y-96207564D02*
X193258885Y-96136136D01*
X193258885Y-96136136D02*
X193401742Y-96064707D01*
X193401742Y-96064707D02*
X193830314Y-96064707D01*
X193830314Y-96064707D02*
X193973171Y-96136136D01*
X193973171Y-96136136D02*
X194044600Y-96207564D01*
X194044600Y-96207564D02*
X194116028Y-96350421D01*
X194116028Y-96350421D02*
X194116028Y-96564707D01*
X194116028Y-95421850D02*
X193116028Y-95421850D01*
X193401742Y-95421850D02*
X193258885Y-95350421D01*
X193258885Y-95350421D02*
X193187457Y-95278993D01*
X193187457Y-95278993D02*
X193116028Y-95136135D01*
X193116028Y-95136135D02*
X193116028Y-94993278D01*
X193116028Y-94707564D02*
X193116028Y-94136136D01*
X192616028Y-94493279D02*
X193901742Y-94493279D01*
X193901742Y-94493279D02*
X194044600Y-94421850D01*
X194044600Y-94421850D02*
X194116028Y-94278993D01*
X194116028Y-94278993D02*
X194116028Y-94136136D01*
X100067863Y-83269028D02*
X100467863Y-84769028D01*
X100467863Y-84769028D02*
X100867863Y-83269028D01*
X101953577Y-84626171D02*
X101896434Y-84697600D01*
X101896434Y-84697600D02*
X101725006Y-84769028D01*
X101725006Y-84769028D02*
X101610720Y-84769028D01*
X101610720Y-84769028D02*
X101439291Y-84697600D01*
X101439291Y-84697600D02*
X101325006Y-84554742D01*
X101325006Y-84554742D02*
X101267863Y-84411885D01*
X101267863Y-84411885D02*
X101210720Y-84126171D01*
X101210720Y-84126171D02*
X101210720Y-83911885D01*
X101210720Y-83911885D02*
X101267863Y-83626171D01*
X101267863Y-83626171D02*
X101325006Y-83483314D01*
X101325006Y-83483314D02*
X101439291Y-83340457D01*
X101439291Y-83340457D02*
X101610720Y-83269028D01*
X101610720Y-83269028D02*
X101725006Y-83269028D01*
X101725006Y-83269028D02*
X101896434Y-83340457D01*
X101896434Y-83340457D02*
X101953577Y-83411885D01*
X103153577Y-84626171D02*
X103096434Y-84697600D01*
X103096434Y-84697600D02*
X102925006Y-84769028D01*
X102925006Y-84769028D02*
X102810720Y-84769028D01*
X102810720Y-84769028D02*
X102639291Y-84697600D01*
X102639291Y-84697600D02*
X102525006Y-84554742D01*
X102525006Y-84554742D02*
X102467863Y-84411885D01*
X102467863Y-84411885D02*
X102410720Y-84126171D01*
X102410720Y-84126171D02*
X102410720Y-83911885D01*
X102410720Y-83911885D02*
X102467863Y-83626171D01*
X102467863Y-83626171D02*
X102525006Y-83483314D01*
X102525006Y-83483314D02*
X102639291Y-83340457D01*
X102639291Y-83340457D02*
X102810720Y-83269028D01*
X102810720Y-83269028D02*
X102925006Y-83269028D01*
X102925006Y-83269028D02*
X103096434Y-83340457D01*
X103096434Y-83340457D02*
X103153577Y-83411885D01*
X104067863Y-83983314D02*
X104239291Y-84054742D01*
X104239291Y-84054742D02*
X104296434Y-84126171D01*
X104296434Y-84126171D02*
X104353577Y-84269028D01*
X104353577Y-84269028D02*
X104353577Y-84483314D01*
X104353577Y-84483314D02*
X104296434Y-84626171D01*
X104296434Y-84626171D02*
X104239291Y-84697600D01*
X104239291Y-84697600D02*
X104125006Y-84769028D01*
X104125006Y-84769028D02*
X103667863Y-84769028D01*
X103667863Y-84769028D02*
X103667863Y-83269028D01*
X103667863Y-83269028D02*
X104067863Y-83269028D01*
X104067863Y-83269028D02*
X104182149Y-83340457D01*
X104182149Y-83340457D02*
X104239291Y-83411885D01*
X104239291Y-83411885D02*
X104296434Y-83554742D01*
X104296434Y-83554742D02*
X104296434Y-83697600D01*
X104296434Y-83697600D02*
X104239291Y-83840457D01*
X104239291Y-83840457D02*
X104182149Y-83911885D01*
X104182149Y-83911885D02*
X104067863Y-83983314D01*
X104067863Y-83983314D02*
X103667863Y-83983314D01*
X86351863Y-146724742D02*
X86751863Y-147924742D01*
X86751863Y-147924742D02*
X87151863Y-146724742D01*
X88237577Y-147810457D02*
X88180434Y-147867600D01*
X88180434Y-147867600D02*
X88009006Y-147924742D01*
X88009006Y-147924742D02*
X87894720Y-147924742D01*
X87894720Y-147924742D02*
X87723291Y-147867600D01*
X87723291Y-147867600D02*
X87609006Y-147753314D01*
X87609006Y-147753314D02*
X87551863Y-147639028D01*
X87551863Y-147639028D02*
X87494720Y-147410457D01*
X87494720Y-147410457D02*
X87494720Y-147239028D01*
X87494720Y-147239028D02*
X87551863Y-147010457D01*
X87551863Y-147010457D02*
X87609006Y-146896171D01*
X87609006Y-146896171D02*
X87723291Y-146781885D01*
X87723291Y-146781885D02*
X87894720Y-146724742D01*
X87894720Y-146724742D02*
X88009006Y-146724742D01*
X88009006Y-146724742D02*
X88180434Y-146781885D01*
X88180434Y-146781885D02*
X88237577Y-146839028D01*
X89437577Y-147810457D02*
X89380434Y-147867600D01*
X89380434Y-147867600D02*
X89209006Y-147924742D01*
X89209006Y-147924742D02*
X89094720Y-147924742D01*
X89094720Y-147924742D02*
X88923291Y-147867600D01*
X88923291Y-147867600D02*
X88809006Y-147753314D01*
X88809006Y-147753314D02*
X88751863Y-147639028D01*
X88751863Y-147639028D02*
X88694720Y-147410457D01*
X88694720Y-147410457D02*
X88694720Y-147239028D01*
X88694720Y-147239028D02*
X88751863Y-147010457D01*
X88751863Y-147010457D02*
X88809006Y-146896171D01*
X88809006Y-146896171D02*
X88923291Y-146781885D01*
X88923291Y-146781885D02*
X89094720Y-146724742D01*
X89094720Y-146724742D02*
X89209006Y-146724742D01*
X89209006Y-146724742D02*
X89380434Y-146781885D01*
X89380434Y-146781885D02*
X89437577Y-146839028D01*
X89666149Y-148039028D02*
X90580434Y-148039028D01*
X90866149Y-147296171D02*
X91266149Y-147296171D01*
X91437577Y-147924742D02*
X90866149Y-147924742D01*
X90866149Y-147924742D02*
X90866149Y-146724742D01*
X90866149Y-146724742D02*
X91437577Y-146724742D01*
X91837577Y-147924742D02*
X92466149Y-147124742D01*
X91837577Y-147124742D02*
X92466149Y-147924742D01*
X92751863Y-147124742D02*
X93209006Y-147124742D01*
X92923292Y-146724742D02*
X92923292Y-147753314D01*
X92923292Y-147753314D02*
X92980435Y-147867600D01*
X92980435Y-147867600D02*
X93094720Y-147924742D01*
X93094720Y-147924742D02*
X93209006Y-147924742D01*
X100067863Y-118956028D02*
X100467863Y-120456028D01*
X100467863Y-120456028D02*
X100867863Y-118956028D01*
X101953577Y-120313171D02*
X101896434Y-120384600D01*
X101896434Y-120384600D02*
X101725006Y-120456028D01*
X101725006Y-120456028D02*
X101610720Y-120456028D01*
X101610720Y-120456028D02*
X101439291Y-120384600D01*
X101439291Y-120384600D02*
X101325006Y-120241742D01*
X101325006Y-120241742D02*
X101267863Y-120098885D01*
X101267863Y-120098885D02*
X101210720Y-119813171D01*
X101210720Y-119813171D02*
X101210720Y-119598885D01*
X101210720Y-119598885D02*
X101267863Y-119313171D01*
X101267863Y-119313171D02*
X101325006Y-119170314D01*
X101325006Y-119170314D02*
X101439291Y-119027457D01*
X101439291Y-119027457D02*
X101610720Y-118956028D01*
X101610720Y-118956028D02*
X101725006Y-118956028D01*
X101725006Y-118956028D02*
X101896434Y-119027457D01*
X101896434Y-119027457D02*
X101953577Y-119098885D01*
X103153577Y-120313171D02*
X103096434Y-120384600D01*
X103096434Y-120384600D02*
X102925006Y-120456028D01*
X102925006Y-120456028D02*
X102810720Y-120456028D01*
X102810720Y-120456028D02*
X102639291Y-120384600D01*
X102639291Y-120384600D02*
X102525006Y-120241742D01*
X102525006Y-120241742D02*
X102467863Y-120098885D01*
X102467863Y-120098885D02*
X102410720Y-119813171D01*
X102410720Y-119813171D02*
X102410720Y-119598885D01*
X102410720Y-119598885D02*
X102467863Y-119313171D01*
X102467863Y-119313171D02*
X102525006Y-119170314D01*
X102525006Y-119170314D02*
X102639291Y-119027457D01*
X102639291Y-119027457D02*
X102810720Y-118956028D01*
X102810720Y-118956028D02*
X102925006Y-118956028D01*
X102925006Y-118956028D02*
X103096434Y-119027457D01*
X103096434Y-119027457D02*
X103153577Y-119098885D01*
X104067863Y-119670314D02*
X104239291Y-119741742D01*
X104239291Y-119741742D02*
X104296434Y-119813171D01*
X104296434Y-119813171D02*
X104353577Y-119956028D01*
X104353577Y-119956028D02*
X104353577Y-120170314D01*
X104353577Y-120170314D02*
X104296434Y-120313171D01*
X104296434Y-120313171D02*
X104239291Y-120384600D01*
X104239291Y-120384600D02*
X104125006Y-120456028D01*
X104125006Y-120456028D02*
X103667863Y-120456028D01*
X103667863Y-120456028D02*
X103667863Y-118956028D01*
X103667863Y-118956028D02*
X104067863Y-118956028D01*
X104067863Y-118956028D02*
X104182149Y-119027457D01*
X104182149Y-119027457D02*
X104239291Y-119098885D01*
X104239291Y-119098885D02*
X104296434Y-119241742D01*
X104296434Y-119241742D02*
X104296434Y-119384600D01*
X104296434Y-119384600D02*
X104239291Y-119527457D01*
X104239291Y-119527457D02*
X104182149Y-119598885D01*
X104182149Y-119598885D02*
X104067863Y-119670314D01*
X104067863Y-119670314D02*
X103667863Y-119670314D01*
D14*
X117198708Y-148080426D02*
X117960613Y-148080426D01*
X118389184Y-148461379D02*
X118514184Y-147461379D01*
X118514184Y-147461379D02*
X118758232Y-148175664D01*
X118758232Y-148175664D02*
X119180851Y-147461379D01*
X119180851Y-147461379D02*
X119055851Y-148461379D01*
X119520137Y-147794712D02*
X119674899Y-148461379D01*
X119996327Y-147794712D02*
X119674899Y-148461379D01*
X119674899Y-148461379D02*
X119549899Y-148699474D01*
X119549899Y-148699474D02*
X119496327Y-148747093D01*
X119496327Y-148747093D02*
X119395137Y-148794712D01*
X120728470Y-148413760D02*
X120627280Y-148461379D01*
X120627280Y-148461379D02*
X120436804Y-148461379D01*
X120436804Y-148461379D02*
X120347518Y-148413760D01*
X120347518Y-148413760D02*
X120305851Y-148366140D01*
X120305851Y-148366140D02*
X120270137Y-148270902D01*
X120270137Y-148270902D02*
X120305851Y-147985188D01*
X120305851Y-147985188D02*
X120365375Y-147889950D01*
X120365375Y-147889950D02*
X120418946Y-147842331D01*
X120418946Y-147842331D02*
X120520137Y-147794712D01*
X120520137Y-147794712D02*
X120710613Y-147794712D01*
X120710613Y-147794712D02*
X120799899Y-147842331D01*
X121151089Y-148461379D02*
X121276089Y-147461379D01*
X121579661Y-148461379D02*
X121645137Y-147937569D01*
X121645137Y-147937569D02*
X121609423Y-147842331D01*
X121609423Y-147842331D02*
X121520137Y-147794712D01*
X121520137Y-147794712D02*
X121377280Y-147794712D01*
X121377280Y-147794712D02*
X121276089Y-147842331D01*
X121276089Y-147842331D02*
X121222518Y-147889950D01*
X122055851Y-148461379D02*
X122139185Y-147794712D01*
X122180851Y-147461379D02*
X122127280Y-147508998D01*
X122127280Y-147508998D02*
X122168947Y-147556617D01*
X122168947Y-147556617D02*
X122222518Y-147508998D01*
X122222518Y-147508998D02*
X122180851Y-147461379D01*
X122180851Y-147461379D02*
X122168947Y-147556617D01*
X122615375Y-147794712D02*
X122490375Y-148794712D01*
X122609422Y-147842331D02*
X122710613Y-147794712D01*
X122710613Y-147794712D02*
X122901089Y-147794712D01*
X122901089Y-147794712D02*
X122990375Y-147842331D01*
X122990375Y-147842331D02*
X123032041Y-147889950D01*
X123032041Y-147889950D02*
X123067756Y-147985188D01*
X123067756Y-147985188D02*
X123032041Y-148270902D01*
X123032041Y-148270902D02*
X122972518Y-148366140D01*
X122972518Y-148366140D02*
X122918946Y-148413760D01*
X122918946Y-148413760D02*
X122817756Y-148461379D01*
X122817756Y-148461379D02*
X122627279Y-148461379D01*
X122627279Y-148461379D02*
X122537994Y-148413760D01*
X124198708Y-148461379D02*
X124323708Y-147461379D01*
X124323708Y-147461379D02*
X124567756Y-148175664D01*
X124567756Y-148175664D02*
X124990375Y-147461379D01*
X124990375Y-147461379D02*
X124865375Y-148461379D01*
X125341565Y-148461379D02*
X125466565Y-147461379D01*
X125466565Y-147461379D02*
X125847518Y-147461379D01*
X125847518Y-147461379D02*
X125936803Y-147508998D01*
X125936803Y-147508998D02*
X125978470Y-147556617D01*
X125978470Y-147556617D02*
X126014184Y-147651855D01*
X126014184Y-147651855D02*
X125996327Y-147794712D01*
X125996327Y-147794712D02*
X125936803Y-147889950D01*
X125936803Y-147889950D02*
X125883232Y-147937569D01*
X125883232Y-147937569D02*
X125782042Y-147985188D01*
X125782042Y-147985188D02*
X125401089Y-147985188D01*
X126371327Y-147461379D02*
X126484423Y-148461379D01*
X126484423Y-148461379D02*
X126764184Y-147747093D01*
X126764184Y-147747093D02*
X126865375Y-148461379D01*
X126865375Y-148461379D02*
X127228470Y-147461379D01*
X128204661Y-148413760D02*
X128341565Y-148461379D01*
X128341565Y-148461379D02*
X128579661Y-148461379D01*
X128579661Y-148461379D02*
X128680851Y-148413760D01*
X128680851Y-148413760D02*
X128734423Y-148366140D01*
X128734423Y-148366140D02*
X128793946Y-148270902D01*
X128793946Y-148270902D02*
X128805851Y-148175664D01*
X128805851Y-148175664D02*
X128770137Y-148080426D01*
X128770137Y-148080426D02*
X128728470Y-148032807D01*
X128728470Y-148032807D02*
X128639185Y-147985188D01*
X128639185Y-147985188D02*
X128454661Y-147937569D01*
X128454661Y-147937569D02*
X128365375Y-147889950D01*
X128365375Y-147889950D02*
X128323708Y-147842331D01*
X128323708Y-147842331D02*
X128287994Y-147747093D01*
X128287994Y-147747093D02*
X128299899Y-147651855D01*
X128299899Y-147651855D02*
X128359423Y-147556617D01*
X128359423Y-147556617D02*
X128412994Y-147508998D01*
X128412994Y-147508998D02*
X128514185Y-147461379D01*
X128514185Y-147461379D02*
X128752280Y-147461379D01*
X128752280Y-147461379D02*
X128889185Y-147508998D01*
X129585613Y-148413760D02*
X129484423Y-148461379D01*
X129484423Y-148461379D02*
X129293946Y-148461379D01*
X129293946Y-148461379D02*
X129204661Y-148413760D01*
X129204661Y-148413760D02*
X129168946Y-148318521D01*
X129168946Y-148318521D02*
X129216566Y-147937569D01*
X129216566Y-147937569D02*
X129276089Y-147842331D01*
X129276089Y-147842331D02*
X129377280Y-147794712D01*
X129377280Y-147794712D02*
X129567756Y-147794712D01*
X129567756Y-147794712D02*
X129657042Y-147842331D01*
X129657042Y-147842331D02*
X129692756Y-147937569D01*
X129692756Y-147937569D02*
X129680851Y-148032807D01*
X129680851Y-148032807D02*
X129192756Y-148128045D01*
X130055851Y-148461379D02*
X130139185Y-147794712D01*
X130115375Y-147985188D02*
X130174899Y-147889950D01*
X130174899Y-147889950D02*
X130228470Y-147842331D01*
X130228470Y-147842331D02*
X130329661Y-147794712D01*
X130329661Y-147794712D02*
X130424899Y-147794712D01*
X130662995Y-147794712D02*
X130817757Y-148461379D01*
X130817757Y-148461379D02*
X131139185Y-147794712D01*
X131436804Y-148461379D02*
X131520138Y-147794712D01*
X131561804Y-147461379D02*
X131508233Y-147508998D01*
X131508233Y-147508998D02*
X131549900Y-147556617D01*
X131549900Y-147556617D02*
X131603471Y-147508998D01*
X131603471Y-147508998D02*
X131561804Y-147461379D01*
X131561804Y-147461379D02*
X131549900Y-147556617D01*
X132347518Y-148413760D02*
X132246328Y-148461379D01*
X132246328Y-148461379D02*
X132055852Y-148461379D01*
X132055852Y-148461379D02*
X131966566Y-148413760D01*
X131966566Y-148413760D02*
X131924899Y-148366140D01*
X131924899Y-148366140D02*
X131889185Y-148270902D01*
X131889185Y-148270902D02*
X131924899Y-147985188D01*
X131924899Y-147985188D02*
X131984423Y-147889950D01*
X131984423Y-147889950D02*
X132037994Y-147842331D01*
X132037994Y-147842331D02*
X132139185Y-147794712D01*
X132139185Y-147794712D02*
X132329661Y-147794712D01*
X132329661Y-147794712D02*
X132418947Y-147842331D01*
X133157042Y-148413760D02*
X133055852Y-148461379D01*
X133055852Y-148461379D02*
X132865375Y-148461379D01*
X132865375Y-148461379D02*
X132776090Y-148413760D01*
X132776090Y-148413760D02*
X132740375Y-148318521D01*
X132740375Y-148318521D02*
X132787995Y-147937569D01*
X132787995Y-147937569D02*
X132847518Y-147842331D01*
X132847518Y-147842331D02*
X132948709Y-147794712D01*
X132948709Y-147794712D02*
X133139185Y-147794712D01*
X133139185Y-147794712D02*
X133228471Y-147842331D01*
X133228471Y-147842331D02*
X133264185Y-147937569D01*
X133264185Y-147937569D02*
X133252280Y-148032807D01*
X133252280Y-148032807D02*
X132764185Y-148128045D01*
D13*
X92547863Y-44811182D02*
X93476435Y-44811182D01*
X93476435Y-44811182D02*
X92976435Y-45413086D01*
X92976435Y-45413086D02*
X93190720Y-45413086D01*
X93190720Y-45413086D02*
X93333578Y-45488324D01*
X93333578Y-45488324D02*
X93405006Y-45563563D01*
X93405006Y-45563563D02*
X93476435Y-45714039D01*
X93476435Y-45714039D02*
X93476435Y-46090229D01*
X93476435Y-46090229D02*
X93405006Y-46240705D01*
X93405006Y-46240705D02*
X93333578Y-46315944D01*
X93333578Y-46315944D02*
X93190720Y-46391182D01*
X93190720Y-46391182D02*
X92762149Y-46391182D01*
X92762149Y-46391182D02*
X92619292Y-46315944D01*
X92619292Y-46315944D02*
X92547863Y-46240705D01*
X94405006Y-44811182D02*
X94547863Y-44811182D01*
X94547863Y-44811182D02*
X94690720Y-44886420D01*
X94690720Y-44886420D02*
X94762149Y-44961658D01*
X94762149Y-44961658D02*
X94833577Y-45112134D01*
X94833577Y-45112134D02*
X94905006Y-45413086D01*
X94905006Y-45413086D02*
X94905006Y-45789277D01*
X94905006Y-45789277D02*
X94833577Y-46090229D01*
X94833577Y-46090229D02*
X94762149Y-46240705D01*
X94762149Y-46240705D02*
X94690720Y-46315944D01*
X94690720Y-46315944D02*
X94547863Y-46391182D01*
X94547863Y-46391182D02*
X94405006Y-46391182D01*
X94405006Y-46391182D02*
X94262149Y-46315944D01*
X94262149Y-46315944D02*
X94190720Y-46240705D01*
X94190720Y-46240705D02*
X94119291Y-46090229D01*
X94119291Y-46090229D02*
X94047863Y-45789277D01*
X94047863Y-45789277D02*
X94047863Y-45413086D01*
X94047863Y-45413086D02*
X94119291Y-45112134D01*
X94119291Y-45112134D02*
X94190720Y-44961658D01*
X94190720Y-44961658D02*
X94262149Y-44886420D01*
X94262149Y-44886420D02*
X94405006Y-44811182D01*
X92619292Y-47505370D02*
X92690720Y-47430132D01*
X92690720Y-47430132D02*
X92833578Y-47354894D01*
X92833578Y-47354894D02*
X93190720Y-47354894D01*
X93190720Y-47354894D02*
X93333578Y-47430132D01*
X93333578Y-47430132D02*
X93405006Y-47505370D01*
X93405006Y-47505370D02*
X93476435Y-47655846D01*
X93476435Y-47655846D02*
X93476435Y-47806322D01*
X93476435Y-47806322D02*
X93405006Y-48032036D01*
X93405006Y-48032036D02*
X92547863Y-48934894D01*
X92547863Y-48934894D02*
X93476435Y-48934894D01*
X94333577Y-48032036D02*
X94190720Y-47956798D01*
X94190720Y-47956798D02*
X94119291Y-47881560D01*
X94119291Y-47881560D02*
X94047863Y-47731084D01*
X94047863Y-47731084D02*
X94047863Y-47655846D01*
X94047863Y-47655846D02*
X94119291Y-47505370D01*
X94119291Y-47505370D02*
X94190720Y-47430132D01*
X94190720Y-47430132D02*
X94333577Y-47354894D01*
X94333577Y-47354894D02*
X94619291Y-47354894D01*
X94619291Y-47354894D02*
X94762149Y-47430132D01*
X94762149Y-47430132D02*
X94833577Y-47505370D01*
X94833577Y-47505370D02*
X94905006Y-47655846D01*
X94905006Y-47655846D02*
X94905006Y-47731084D01*
X94905006Y-47731084D02*
X94833577Y-47881560D01*
X94833577Y-47881560D02*
X94762149Y-47956798D01*
X94762149Y-47956798D02*
X94619291Y-48032036D01*
X94619291Y-48032036D02*
X94333577Y-48032036D01*
X94333577Y-48032036D02*
X94190720Y-48107275D01*
X94190720Y-48107275D02*
X94119291Y-48182513D01*
X94119291Y-48182513D02*
X94047863Y-48332989D01*
X94047863Y-48332989D02*
X94047863Y-48633941D01*
X94047863Y-48633941D02*
X94119291Y-48784417D01*
X94119291Y-48784417D02*
X94190720Y-48859656D01*
X94190720Y-48859656D02*
X94333577Y-48934894D01*
X94333577Y-48934894D02*
X94619291Y-48934894D01*
X94619291Y-48934894D02*
X94762149Y-48859656D01*
X94762149Y-48859656D02*
X94833577Y-48784417D01*
X94833577Y-48784417D02*
X94905006Y-48633941D01*
X94905006Y-48633941D02*
X94905006Y-48332989D01*
X94905006Y-48332989D02*
X94833577Y-48182513D01*
X94833577Y-48182513D02*
X94762149Y-48107275D01*
X94762149Y-48107275D02*
X94619291Y-48032036D01*
X92547863Y-49898606D02*
X93476435Y-49898606D01*
X93476435Y-49898606D02*
X92976435Y-50500510D01*
X92976435Y-50500510D02*
X93190720Y-50500510D01*
X93190720Y-50500510D02*
X93333578Y-50575748D01*
X93333578Y-50575748D02*
X93405006Y-50650987D01*
X93405006Y-50650987D02*
X93476435Y-50801463D01*
X93476435Y-50801463D02*
X93476435Y-51177653D01*
X93476435Y-51177653D02*
X93405006Y-51328129D01*
X93405006Y-51328129D02*
X93333578Y-51403368D01*
X93333578Y-51403368D02*
X93190720Y-51478606D01*
X93190720Y-51478606D02*
X92762149Y-51478606D01*
X92762149Y-51478606D02*
X92619292Y-51403368D01*
X92619292Y-51403368D02*
X92547863Y-51328129D01*
X94047863Y-50049082D02*
X94119291Y-49973844D01*
X94119291Y-49973844D02*
X94262149Y-49898606D01*
X94262149Y-49898606D02*
X94619291Y-49898606D01*
X94619291Y-49898606D02*
X94762149Y-49973844D01*
X94762149Y-49973844D02*
X94833577Y-50049082D01*
X94833577Y-50049082D02*
X94905006Y-50199558D01*
X94905006Y-50199558D02*
X94905006Y-50350034D01*
X94905006Y-50350034D02*
X94833577Y-50575748D01*
X94833577Y-50575748D02*
X93976434Y-51478606D01*
X93976434Y-51478606D02*
X94905006Y-51478606D01*
X92547863Y-52442318D02*
X93476435Y-52442318D01*
X93476435Y-52442318D02*
X92976435Y-53044222D01*
X92976435Y-53044222D02*
X93190720Y-53044222D01*
X93190720Y-53044222D02*
X93333578Y-53119460D01*
X93333578Y-53119460D02*
X93405006Y-53194699D01*
X93405006Y-53194699D02*
X93476435Y-53345175D01*
X93476435Y-53345175D02*
X93476435Y-53721365D01*
X93476435Y-53721365D02*
X93405006Y-53871841D01*
X93405006Y-53871841D02*
X93333578Y-53947080D01*
X93333578Y-53947080D02*
X93190720Y-54022318D01*
X93190720Y-54022318D02*
X92762149Y-54022318D01*
X92762149Y-54022318D02*
X92619292Y-53947080D01*
X92619292Y-53947080D02*
X92547863Y-53871841D01*
X94905006Y-54022318D02*
X94047863Y-54022318D01*
X94476434Y-54022318D02*
X94476434Y-52442318D01*
X94476434Y-52442318D02*
X94333577Y-52668032D01*
X94333577Y-52668032D02*
X94190720Y-52818508D01*
X94190720Y-52818508D02*
X94047863Y-52893746D01*
X92547863Y-54986030D02*
X93476435Y-54986030D01*
X93476435Y-54986030D02*
X92976435Y-55587934D01*
X92976435Y-55587934D02*
X93190720Y-55587934D01*
X93190720Y-55587934D02*
X93333578Y-55663172D01*
X93333578Y-55663172D02*
X93405006Y-55738411D01*
X93405006Y-55738411D02*
X93476435Y-55888887D01*
X93476435Y-55888887D02*
X93476435Y-56265077D01*
X93476435Y-56265077D02*
X93405006Y-56415553D01*
X93405006Y-56415553D02*
X93333578Y-56490792D01*
X93333578Y-56490792D02*
X93190720Y-56566030D01*
X93190720Y-56566030D02*
X92762149Y-56566030D01*
X92762149Y-56566030D02*
X92619292Y-56490792D01*
X92619292Y-56490792D02*
X92547863Y-56415553D01*
X94762149Y-55512696D02*
X94762149Y-56566030D01*
X94405006Y-54910792D02*
X94047863Y-56039363D01*
X94047863Y-56039363D02*
X94976434Y-56039363D01*
X92547863Y-57529742D02*
X93476435Y-57529742D01*
X93476435Y-57529742D02*
X92976435Y-58131646D01*
X92976435Y-58131646D02*
X93190720Y-58131646D01*
X93190720Y-58131646D02*
X93333578Y-58206884D01*
X93333578Y-58206884D02*
X93405006Y-58282123D01*
X93405006Y-58282123D02*
X93476435Y-58432599D01*
X93476435Y-58432599D02*
X93476435Y-58808789D01*
X93476435Y-58808789D02*
X93405006Y-58959265D01*
X93405006Y-58959265D02*
X93333578Y-59034504D01*
X93333578Y-59034504D02*
X93190720Y-59109742D01*
X93190720Y-59109742D02*
X92762149Y-59109742D01*
X92762149Y-59109742D02*
X92619292Y-59034504D01*
X92619292Y-59034504D02*
X92547863Y-58959265D01*
X93976434Y-57529742D02*
X94905006Y-57529742D01*
X94905006Y-57529742D02*
X94405006Y-58131646D01*
X94405006Y-58131646D02*
X94619291Y-58131646D01*
X94619291Y-58131646D02*
X94762149Y-58206884D01*
X94762149Y-58206884D02*
X94833577Y-58282123D01*
X94833577Y-58282123D02*
X94905006Y-58432599D01*
X94905006Y-58432599D02*
X94905006Y-58808789D01*
X94905006Y-58808789D02*
X94833577Y-58959265D01*
X94833577Y-58959265D02*
X94762149Y-59034504D01*
X94762149Y-59034504D02*
X94619291Y-59109742D01*
X94619291Y-59109742D02*
X94190720Y-59109742D01*
X94190720Y-59109742D02*
X94047863Y-59034504D01*
X94047863Y-59034504D02*
X93976434Y-58959265D01*
X92547863Y-60073454D02*
X93476435Y-60073454D01*
X93476435Y-60073454D02*
X92976435Y-60675358D01*
X92976435Y-60675358D02*
X93190720Y-60675358D01*
X93190720Y-60675358D02*
X93333578Y-60750596D01*
X93333578Y-60750596D02*
X93405006Y-60825835D01*
X93405006Y-60825835D02*
X93476435Y-60976311D01*
X93476435Y-60976311D02*
X93476435Y-61352501D01*
X93476435Y-61352501D02*
X93405006Y-61502977D01*
X93405006Y-61502977D02*
X93333578Y-61578216D01*
X93333578Y-61578216D02*
X93190720Y-61653454D01*
X93190720Y-61653454D02*
X92762149Y-61653454D01*
X92762149Y-61653454D02*
X92619292Y-61578216D01*
X92619292Y-61578216D02*
X92547863Y-61502977D01*
X94190720Y-61653454D02*
X94476434Y-61653454D01*
X94476434Y-61653454D02*
X94619291Y-61578216D01*
X94619291Y-61578216D02*
X94690720Y-61502977D01*
X94690720Y-61502977D02*
X94833577Y-61277263D01*
X94833577Y-61277263D02*
X94905006Y-60976311D01*
X94905006Y-60976311D02*
X94905006Y-60374406D01*
X94905006Y-60374406D02*
X94833577Y-60223930D01*
X94833577Y-60223930D02*
X94762149Y-60148692D01*
X94762149Y-60148692D02*
X94619291Y-60073454D01*
X94619291Y-60073454D02*
X94333577Y-60073454D01*
X94333577Y-60073454D02*
X94190720Y-60148692D01*
X94190720Y-60148692D02*
X94119291Y-60223930D01*
X94119291Y-60223930D02*
X94047863Y-60374406D01*
X94047863Y-60374406D02*
X94047863Y-60750596D01*
X94047863Y-60750596D02*
X94119291Y-60901073D01*
X94119291Y-60901073D02*
X94190720Y-60976311D01*
X94190720Y-60976311D02*
X94333577Y-61051549D01*
X94333577Y-61051549D02*
X94619291Y-61051549D01*
X94619291Y-61051549D02*
X94762149Y-60976311D01*
X94762149Y-60976311D02*
X94833577Y-60901073D01*
X94833577Y-60901073D02*
X94905006Y-60750596D01*
X92547863Y-62617166D02*
X93476435Y-62617166D01*
X93476435Y-62617166D02*
X92976435Y-63219070D01*
X92976435Y-63219070D02*
X93190720Y-63219070D01*
X93190720Y-63219070D02*
X93333578Y-63294308D01*
X93333578Y-63294308D02*
X93405006Y-63369547D01*
X93405006Y-63369547D02*
X93476435Y-63520023D01*
X93476435Y-63520023D02*
X93476435Y-63896213D01*
X93476435Y-63896213D02*
X93405006Y-64046689D01*
X93405006Y-64046689D02*
X93333578Y-64121928D01*
X93333578Y-64121928D02*
X93190720Y-64197166D01*
X93190720Y-64197166D02*
X92762149Y-64197166D01*
X92762149Y-64197166D02*
X92619292Y-64121928D01*
X92619292Y-64121928D02*
X92547863Y-64046689D01*
X94333577Y-63294308D02*
X94190720Y-63219070D01*
X94190720Y-63219070D02*
X94119291Y-63143832D01*
X94119291Y-63143832D02*
X94047863Y-62993356D01*
X94047863Y-62993356D02*
X94047863Y-62918118D01*
X94047863Y-62918118D02*
X94119291Y-62767642D01*
X94119291Y-62767642D02*
X94190720Y-62692404D01*
X94190720Y-62692404D02*
X94333577Y-62617166D01*
X94333577Y-62617166D02*
X94619291Y-62617166D01*
X94619291Y-62617166D02*
X94762149Y-62692404D01*
X94762149Y-62692404D02*
X94833577Y-62767642D01*
X94833577Y-62767642D02*
X94905006Y-62918118D01*
X94905006Y-62918118D02*
X94905006Y-62993356D01*
X94905006Y-62993356D02*
X94833577Y-63143832D01*
X94833577Y-63143832D02*
X94762149Y-63219070D01*
X94762149Y-63219070D02*
X94619291Y-63294308D01*
X94619291Y-63294308D02*
X94333577Y-63294308D01*
X94333577Y-63294308D02*
X94190720Y-63369547D01*
X94190720Y-63369547D02*
X94119291Y-63444785D01*
X94119291Y-63444785D02*
X94047863Y-63595261D01*
X94047863Y-63595261D02*
X94047863Y-63896213D01*
X94047863Y-63896213D02*
X94119291Y-64046689D01*
X94119291Y-64046689D02*
X94190720Y-64121928D01*
X94190720Y-64121928D02*
X94333577Y-64197166D01*
X94333577Y-64197166D02*
X94619291Y-64197166D01*
X94619291Y-64197166D02*
X94762149Y-64121928D01*
X94762149Y-64121928D02*
X94833577Y-64046689D01*
X94833577Y-64046689D02*
X94905006Y-63896213D01*
X94905006Y-63896213D02*
X94905006Y-63595261D01*
X94905006Y-63595261D02*
X94833577Y-63444785D01*
X94833577Y-63444785D02*
X94762149Y-63369547D01*
X94762149Y-63369547D02*
X94619291Y-63294308D01*
X93333578Y-65687544D02*
X93333578Y-66740878D01*
X92976435Y-65085640D02*
X92619292Y-66214211D01*
X92619292Y-66214211D02*
X93547863Y-66214211D01*
X93976434Y-65160878D02*
X94905006Y-65160878D01*
X94905006Y-65160878D02*
X94405006Y-65762782D01*
X94405006Y-65762782D02*
X94619291Y-65762782D01*
X94619291Y-65762782D02*
X94762149Y-65838020D01*
X94762149Y-65838020D02*
X94833577Y-65913259D01*
X94833577Y-65913259D02*
X94905006Y-66063735D01*
X94905006Y-66063735D02*
X94905006Y-66439925D01*
X94905006Y-66439925D02*
X94833577Y-66590401D01*
X94833577Y-66590401D02*
X94762149Y-66665640D01*
X94762149Y-66665640D02*
X94619291Y-66740878D01*
X94619291Y-66740878D02*
X94190720Y-66740878D01*
X94190720Y-66740878D02*
X94047863Y-66665640D01*
X94047863Y-66665640D02*
X93976434Y-66590401D01*
X93333578Y-68231256D02*
X93333578Y-69284590D01*
X92976435Y-67629352D02*
X92619292Y-68757923D01*
X92619292Y-68757923D02*
X93547863Y-68757923D01*
X94047863Y-67855066D02*
X94119291Y-67779828D01*
X94119291Y-67779828D02*
X94262149Y-67704590D01*
X94262149Y-67704590D02*
X94619291Y-67704590D01*
X94619291Y-67704590D02*
X94762149Y-67779828D01*
X94762149Y-67779828D02*
X94833577Y-67855066D01*
X94833577Y-67855066D02*
X94905006Y-68005542D01*
X94905006Y-68005542D02*
X94905006Y-68156018D01*
X94905006Y-68156018D02*
X94833577Y-68381732D01*
X94833577Y-68381732D02*
X93976434Y-69284590D01*
X93976434Y-69284590D02*
X94905006Y-69284590D01*
X93333578Y-70774968D02*
X93333578Y-71828302D01*
X92976435Y-70173064D02*
X92619292Y-71301635D01*
X92619292Y-71301635D02*
X93547863Y-71301635D01*
X94762149Y-70248302D02*
X94476434Y-70248302D01*
X94476434Y-70248302D02*
X94333577Y-70323540D01*
X94333577Y-70323540D02*
X94262149Y-70398778D01*
X94262149Y-70398778D02*
X94119291Y-70624492D01*
X94119291Y-70624492D02*
X94047863Y-70925444D01*
X94047863Y-70925444D02*
X94047863Y-71527349D01*
X94047863Y-71527349D02*
X94119291Y-71677825D01*
X94119291Y-71677825D02*
X94190720Y-71753064D01*
X94190720Y-71753064D02*
X94333577Y-71828302D01*
X94333577Y-71828302D02*
X94619291Y-71828302D01*
X94619291Y-71828302D02*
X94762149Y-71753064D01*
X94762149Y-71753064D02*
X94833577Y-71677825D01*
X94833577Y-71677825D02*
X94905006Y-71527349D01*
X94905006Y-71527349D02*
X94905006Y-71151159D01*
X94905006Y-71151159D02*
X94833577Y-71000683D01*
X94833577Y-71000683D02*
X94762149Y-70925444D01*
X94762149Y-70925444D02*
X94619291Y-70850206D01*
X94619291Y-70850206D02*
X94333577Y-70850206D01*
X94333577Y-70850206D02*
X94190720Y-70925444D01*
X94190720Y-70925444D02*
X94119291Y-71000683D01*
X94119291Y-71000683D02*
X94047863Y-71151159D01*
X93333578Y-73318680D02*
X93333578Y-74372014D01*
X92976435Y-72716776D02*
X92619292Y-73845347D01*
X92619292Y-73845347D02*
X93547863Y-73845347D01*
X94762149Y-73318680D02*
X94762149Y-74372014D01*
X94405006Y-72716776D02*
X94047863Y-73845347D01*
X94047863Y-73845347D02*
X94976434Y-73845347D01*
X93405006Y-75335726D02*
X92690720Y-75335726D01*
X92690720Y-75335726D02*
X92619292Y-76088107D01*
X92619292Y-76088107D02*
X92690720Y-76012868D01*
X92690720Y-76012868D02*
X92833578Y-75937630D01*
X92833578Y-75937630D02*
X93190720Y-75937630D01*
X93190720Y-75937630D02*
X93333578Y-76012868D01*
X93333578Y-76012868D02*
X93405006Y-76088107D01*
X93405006Y-76088107D02*
X93476435Y-76238583D01*
X93476435Y-76238583D02*
X93476435Y-76614773D01*
X93476435Y-76614773D02*
X93405006Y-76765249D01*
X93405006Y-76765249D02*
X93333578Y-76840488D01*
X93333578Y-76840488D02*
X93190720Y-76915726D01*
X93190720Y-76915726D02*
X92833578Y-76915726D01*
X92833578Y-76915726D02*
X92690720Y-76840488D01*
X92690720Y-76840488D02*
X92619292Y-76765249D01*
X94405006Y-75335726D02*
X94547863Y-75335726D01*
X94547863Y-75335726D02*
X94690720Y-75410964D01*
X94690720Y-75410964D02*
X94762149Y-75486202D01*
X94762149Y-75486202D02*
X94833577Y-75636678D01*
X94833577Y-75636678D02*
X94905006Y-75937630D01*
X94905006Y-75937630D02*
X94905006Y-76313821D01*
X94905006Y-76313821D02*
X94833577Y-76614773D01*
X94833577Y-76614773D02*
X94762149Y-76765249D01*
X94762149Y-76765249D02*
X94690720Y-76840488D01*
X94690720Y-76840488D02*
X94547863Y-76915726D01*
X94547863Y-76915726D02*
X94405006Y-76915726D01*
X94405006Y-76915726D02*
X94262149Y-76840488D01*
X94262149Y-76840488D02*
X94190720Y-76765249D01*
X94190720Y-76765249D02*
X94119291Y-76614773D01*
X94119291Y-76614773D02*
X94047863Y-76313821D01*
X94047863Y-76313821D02*
X94047863Y-75937630D01*
X94047863Y-75937630D02*
X94119291Y-75636678D01*
X94119291Y-75636678D02*
X94190720Y-75486202D01*
X94190720Y-75486202D02*
X94262149Y-75410964D01*
X94262149Y-75410964D02*
X94405006Y-75335726D01*
X93333578Y-78406104D02*
X93333578Y-79459438D01*
X92976435Y-77804200D02*
X92619292Y-78932771D01*
X92619292Y-78932771D02*
X93547863Y-78932771D01*
X94190720Y-79459438D02*
X94476434Y-79459438D01*
X94476434Y-79459438D02*
X94619291Y-79384200D01*
X94619291Y-79384200D02*
X94690720Y-79308961D01*
X94690720Y-79308961D02*
X94833577Y-79083247D01*
X94833577Y-79083247D02*
X94905006Y-78782295D01*
X94905006Y-78782295D02*
X94905006Y-78180390D01*
X94905006Y-78180390D02*
X94833577Y-78029914D01*
X94833577Y-78029914D02*
X94762149Y-77954676D01*
X94762149Y-77954676D02*
X94619291Y-77879438D01*
X94619291Y-77879438D02*
X94333577Y-77879438D01*
X94333577Y-77879438D02*
X94190720Y-77954676D01*
X94190720Y-77954676D02*
X94119291Y-78029914D01*
X94119291Y-78029914D02*
X94047863Y-78180390D01*
X94047863Y-78180390D02*
X94047863Y-78556580D01*
X94047863Y-78556580D02*
X94119291Y-78707057D01*
X94119291Y-78707057D02*
X94190720Y-78782295D01*
X94190720Y-78782295D02*
X94333577Y-78857533D01*
X94333577Y-78857533D02*
X94619291Y-78857533D01*
X94619291Y-78857533D02*
X94762149Y-78782295D01*
X94762149Y-78782295D02*
X94833577Y-78707057D01*
X94833577Y-78707057D02*
X94905006Y-78556580D01*
X93405006Y-80423150D02*
X92690720Y-80423150D01*
X92690720Y-80423150D02*
X92619292Y-81175531D01*
X92619292Y-81175531D02*
X92690720Y-81100292D01*
X92690720Y-81100292D02*
X92833578Y-81025054D01*
X92833578Y-81025054D02*
X93190720Y-81025054D01*
X93190720Y-81025054D02*
X93333578Y-81100292D01*
X93333578Y-81100292D02*
X93405006Y-81175531D01*
X93405006Y-81175531D02*
X93476435Y-81326007D01*
X93476435Y-81326007D02*
X93476435Y-81702197D01*
X93476435Y-81702197D02*
X93405006Y-81852673D01*
X93405006Y-81852673D02*
X93333578Y-81927912D01*
X93333578Y-81927912D02*
X93190720Y-82003150D01*
X93190720Y-82003150D02*
X92833578Y-82003150D01*
X92833578Y-82003150D02*
X92690720Y-81927912D01*
X92690720Y-81927912D02*
X92619292Y-81852673D01*
X94047863Y-80573626D02*
X94119291Y-80498388D01*
X94119291Y-80498388D02*
X94262149Y-80423150D01*
X94262149Y-80423150D02*
X94619291Y-80423150D01*
X94619291Y-80423150D02*
X94762149Y-80498388D01*
X94762149Y-80498388D02*
X94833577Y-80573626D01*
X94833577Y-80573626D02*
X94905006Y-80724102D01*
X94905006Y-80724102D02*
X94905006Y-80874578D01*
X94905006Y-80874578D02*
X94833577Y-81100292D01*
X94833577Y-81100292D02*
X93976434Y-82003150D01*
X93976434Y-82003150D02*
X94905006Y-82003150D01*
X93405006Y-82966862D02*
X92690720Y-82966862D01*
X92690720Y-82966862D02*
X92619292Y-83719243D01*
X92619292Y-83719243D02*
X92690720Y-83644004D01*
X92690720Y-83644004D02*
X92833578Y-83568766D01*
X92833578Y-83568766D02*
X93190720Y-83568766D01*
X93190720Y-83568766D02*
X93333578Y-83644004D01*
X93333578Y-83644004D02*
X93405006Y-83719243D01*
X93405006Y-83719243D02*
X93476435Y-83869719D01*
X93476435Y-83869719D02*
X93476435Y-84245909D01*
X93476435Y-84245909D02*
X93405006Y-84396385D01*
X93405006Y-84396385D02*
X93333578Y-84471624D01*
X93333578Y-84471624D02*
X93190720Y-84546862D01*
X93190720Y-84546862D02*
X92833578Y-84546862D01*
X92833578Y-84546862D02*
X92690720Y-84471624D01*
X92690720Y-84471624D02*
X92619292Y-84396385D01*
X94905006Y-84546862D02*
X94047863Y-84546862D01*
X94476434Y-84546862D02*
X94476434Y-82966862D01*
X94476434Y-82966862D02*
X94333577Y-83192576D01*
X94333577Y-83192576D02*
X94190720Y-83343052D01*
X94190720Y-83343052D02*
X94047863Y-83418290D01*
X93405006Y-85510574D02*
X92690720Y-85510574D01*
X92690720Y-85510574D02*
X92619292Y-86262955D01*
X92619292Y-86262955D02*
X92690720Y-86187716D01*
X92690720Y-86187716D02*
X92833578Y-86112478D01*
X92833578Y-86112478D02*
X93190720Y-86112478D01*
X93190720Y-86112478D02*
X93333578Y-86187716D01*
X93333578Y-86187716D02*
X93405006Y-86262955D01*
X93405006Y-86262955D02*
X93476435Y-86413431D01*
X93476435Y-86413431D02*
X93476435Y-86789621D01*
X93476435Y-86789621D02*
X93405006Y-86940097D01*
X93405006Y-86940097D02*
X93333578Y-87015336D01*
X93333578Y-87015336D02*
X93190720Y-87090574D01*
X93190720Y-87090574D02*
X92833578Y-87090574D01*
X92833578Y-87090574D02*
X92690720Y-87015336D01*
X92690720Y-87015336D02*
X92619292Y-86940097D01*
X94762149Y-86037240D02*
X94762149Y-87090574D01*
X94405006Y-85435336D02*
X94047863Y-86563907D01*
X94047863Y-86563907D02*
X94976434Y-86563907D01*
X93405006Y-88054286D02*
X92690720Y-88054286D01*
X92690720Y-88054286D02*
X92619292Y-88806667D01*
X92619292Y-88806667D02*
X92690720Y-88731428D01*
X92690720Y-88731428D02*
X92833578Y-88656190D01*
X92833578Y-88656190D02*
X93190720Y-88656190D01*
X93190720Y-88656190D02*
X93333578Y-88731428D01*
X93333578Y-88731428D02*
X93405006Y-88806667D01*
X93405006Y-88806667D02*
X93476435Y-88957143D01*
X93476435Y-88957143D02*
X93476435Y-89333333D01*
X93476435Y-89333333D02*
X93405006Y-89483809D01*
X93405006Y-89483809D02*
X93333578Y-89559048D01*
X93333578Y-89559048D02*
X93190720Y-89634286D01*
X93190720Y-89634286D02*
X92833578Y-89634286D01*
X92833578Y-89634286D02*
X92690720Y-89559048D01*
X92690720Y-89559048D02*
X92619292Y-89483809D01*
X93976434Y-88054286D02*
X94905006Y-88054286D01*
X94905006Y-88054286D02*
X94405006Y-88656190D01*
X94405006Y-88656190D02*
X94619291Y-88656190D01*
X94619291Y-88656190D02*
X94762149Y-88731428D01*
X94762149Y-88731428D02*
X94833577Y-88806667D01*
X94833577Y-88806667D02*
X94905006Y-88957143D01*
X94905006Y-88957143D02*
X94905006Y-89333333D01*
X94905006Y-89333333D02*
X94833577Y-89483809D01*
X94833577Y-89483809D02*
X94762149Y-89559048D01*
X94762149Y-89559048D02*
X94619291Y-89634286D01*
X94619291Y-89634286D02*
X94190720Y-89634286D01*
X94190720Y-89634286D02*
X94047863Y-89559048D01*
X94047863Y-89559048D02*
X93976434Y-89483809D01*
X93405006Y-90597998D02*
X92690720Y-90597998D01*
X92690720Y-90597998D02*
X92619292Y-91350379D01*
X92619292Y-91350379D02*
X92690720Y-91275140D01*
X92690720Y-91275140D02*
X92833578Y-91199902D01*
X92833578Y-91199902D02*
X93190720Y-91199902D01*
X93190720Y-91199902D02*
X93333578Y-91275140D01*
X93333578Y-91275140D02*
X93405006Y-91350379D01*
X93405006Y-91350379D02*
X93476435Y-91500855D01*
X93476435Y-91500855D02*
X93476435Y-91877045D01*
X93476435Y-91877045D02*
X93405006Y-92027521D01*
X93405006Y-92027521D02*
X93333578Y-92102760D01*
X93333578Y-92102760D02*
X93190720Y-92177998D01*
X93190720Y-92177998D02*
X92833578Y-92177998D01*
X92833578Y-92177998D02*
X92690720Y-92102760D01*
X92690720Y-92102760D02*
X92619292Y-92027521D01*
X94333577Y-91275140D02*
X94190720Y-91199902D01*
X94190720Y-91199902D02*
X94119291Y-91124664D01*
X94119291Y-91124664D02*
X94047863Y-90974188D01*
X94047863Y-90974188D02*
X94047863Y-90898950D01*
X94047863Y-90898950D02*
X94119291Y-90748474D01*
X94119291Y-90748474D02*
X94190720Y-90673236D01*
X94190720Y-90673236D02*
X94333577Y-90597998D01*
X94333577Y-90597998D02*
X94619291Y-90597998D01*
X94619291Y-90597998D02*
X94762149Y-90673236D01*
X94762149Y-90673236D02*
X94833577Y-90748474D01*
X94833577Y-90748474D02*
X94905006Y-90898950D01*
X94905006Y-90898950D02*
X94905006Y-90974188D01*
X94905006Y-90974188D02*
X94833577Y-91124664D01*
X94833577Y-91124664D02*
X94762149Y-91199902D01*
X94762149Y-91199902D02*
X94619291Y-91275140D01*
X94619291Y-91275140D02*
X94333577Y-91275140D01*
X94333577Y-91275140D02*
X94190720Y-91350379D01*
X94190720Y-91350379D02*
X94119291Y-91425617D01*
X94119291Y-91425617D02*
X94047863Y-91576093D01*
X94047863Y-91576093D02*
X94047863Y-91877045D01*
X94047863Y-91877045D02*
X94119291Y-92027521D01*
X94119291Y-92027521D02*
X94190720Y-92102760D01*
X94190720Y-92102760D02*
X94333577Y-92177998D01*
X94333577Y-92177998D02*
X94619291Y-92177998D01*
X94619291Y-92177998D02*
X94762149Y-92102760D01*
X94762149Y-92102760D02*
X94833577Y-92027521D01*
X94833577Y-92027521D02*
X94905006Y-91877045D01*
X94905006Y-91877045D02*
X94905006Y-91576093D01*
X94905006Y-91576093D02*
X94833577Y-91425617D01*
X94833577Y-91425617D02*
X94762149Y-91350379D01*
X94762149Y-91350379D02*
X94619291Y-91275140D01*
X93405006Y-93141710D02*
X92690720Y-93141710D01*
X92690720Y-93141710D02*
X92619292Y-93894091D01*
X92619292Y-93894091D02*
X92690720Y-93818852D01*
X92690720Y-93818852D02*
X92833578Y-93743614D01*
X92833578Y-93743614D02*
X93190720Y-93743614D01*
X93190720Y-93743614D02*
X93333578Y-93818852D01*
X93333578Y-93818852D02*
X93405006Y-93894091D01*
X93405006Y-93894091D02*
X93476435Y-94044567D01*
X93476435Y-94044567D02*
X93476435Y-94420757D01*
X93476435Y-94420757D02*
X93405006Y-94571233D01*
X93405006Y-94571233D02*
X93333578Y-94646472D01*
X93333578Y-94646472D02*
X93190720Y-94721710D01*
X93190720Y-94721710D02*
X92833578Y-94721710D01*
X92833578Y-94721710D02*
X92690720Y-94646472D01*
X92690720Y-94646472D02*
X92619292Y-94571233D01*
X94833577Y-93141710D02*
X94119291Y-93141710D01*
X94119291Y-93141710D02*
X94047863Y-93894091D01*
X94047863Y-93894091D02*
X94119291Y-93818852D01*
X94119291Y-93818852D02*
X94262149Y-93743614D01*
X94262149Y-93743614D02*
X94619291Y-93743614D01*
X94619291Y-93743614D02*
X94762149Y-93818852D01*
X94762149Y-93818852D02*
X94833577Y-93894091D01*
X94833577Y-93894091D02*
X94905006Y-94044567D01*
X94905006Y-94044567D02*
X94905006Y-94420757D01*
X94905006Y-94420757D02*
X94833577Y-94571233D01*
X94833577Y-94571233D02*
X94762149Y-94646472D01*
X94762149Y-94646472D02*
X94619291Y-94721710D01*
X94619291Y-94721710D02*
X94262149Y-94721710D01*
X94262149Y-94721710D02*
X94119291Y-94646472D01*
X94119291Y-94646472D02*
X94047863Y-94571233D01*
X93333578Y-95685422D02*
X93047863Y-95685422D01*
X93047863Y-95685422D02*
X92905006Y-95760660D01*
X92905006Y-95760660D02*
X92833578Y-95835898D01*
X92833578Y-95835898D02*
X92690720Y-96061612D01*
X92690720Y-96061612D02*
X92619292Y-96362564D01*
X92619292Y-96362564D02*
X92619292Y-96964469D01*
X92619292Y-96964469D02*
X92690720Y-97114945D01*
X92690720Y-97114945D02*
X92762149Y-97190184D01*
X92762149Y-97190184D02*
X92905006Y-97265422D01*
X92905006Y-97265422D02*
X93190720Y-97265422D01*
X93190720Y-97265422D02*
X93333578Y-97190184D01*
X93333578Y-97190184D02*
X93405006Y-97114945D01*
X93405006Y-97114945D02*
X93476435Y-96964469D01*
X93476435Y-96964469D02*
X93476435Y-96588279D01*
X93476435Y-96588279D02*
X93405006Y-96437803D01*
X93405006Y-96437803D02*
X93333578Y-96362564D01*
X93333578Y-96362564D02*
X93190720Y-96287326D01*
X93190720Y-96287326D02*
X92905006Y-96287326D01*
X92905006Y-96287326D02*
X92762149Y-96362564D01*
X92762149Y-96362564D02*
X92690720Y-96437803D01*
X92690720Y-96437803D02*
X92619292Y-96588279D01*
X94405006Y-95685422D02*
X94547863Y-95685422D01*
X94547863Y-95685422D02*
X94690720Y-95760660D01*
X94690720Y-95760660D02*
X94762149Y-95835898D01*
X94762149Y-95835898D02*
X94833577Y-95986374D01*
X94833577Y-95986374D02*
X94905006Y-96287326D01*
X94905006Y-96287326D02*
X94905006Y-96663517D01*
X94905006Y-96663517D02*
X94833577Y-96964469D01*
X94833577Y-96964469D02*
X94762149Y-97114945D01*
X94762149Y-97114945D02*
X94690720Y-97190184D01*
X94690720Y-97190184D02*
X94547863Y-97265422D01*
X94547863Y-97265422D02*
X94405006Y-97265422D01*
X94405006Y-97265422D02*
X94262149Y-97190184D01*
X94262149Y-97190184D02*
X94190720Y-97114945D01*
X94190720Y-97114945D02*
X94119291Y-96964469D01*
X94119291Y-96964469D02*
X94047863Y-96663517D01*
X94047863Y-96663517D02*
X94047863Y-96287326D01*
X94047863Y-96287326D02*
X94119291Y-95986374D01*
X94119291Y-95986374D02*
X94190720Y-95835898D01*
X94190720Y-95835898D02*
X94262149Y-95760660D01*
X94262149Y-95760660D02*
X94405006Y-95685422D01*
X93405006Y-98229134D02*
X92690720Y-98229134D01*
X92690720Y-98229134D02*
X92619292Y-98981515D01*
X92619292Y-98981515D02*
X92690720Y-98906276D01*
X92690720Y-98906276D02*
X92833578Y-98831038D01*
X92833578Y-98831038D02*
X93190720Y-98831038D01*
X93190720Y-98831038D02*
X93333578Y-98906276D01*
X93333578Y-98906276D02*
X93405006Y-98981515D01*
X93405006Y-98981515D02*
X93476435Y-99131991D01*
X93476435Y-99131991D02*
X93476435Y-99508181D01*
X93476435Y-99508181D02*
X93405006Y-99658657D01*
X93405006Y-99658657D02*
X93333578Y-99733896D01*
X93333578Y-99733896D02*
X93190720Y-99809134D01*
X93190720Y-99809134D02*
X92833578Y-99809134D01*
X92833578Y-99809134D02*
X92690720Y-99733896D01*
X92690720Y-99733896D02*
X92619292Y-99658657D01*
X94190720Y-99809134D02*
X94476434Y-99809134D01*
X94476434Y-99809134D02*
X94619291Y-99733896D01*
X94619291Y-99733896D02*
X94690720Y-99658657D01*
X94690720Y-99658657D02*
X94833577Y-99432943D01*
X94833577Y-99432943D02*
X94905006Y-99131991D01*
X94905006Y-99131991D02*
X94905006Y-98530086D01*
X94905006Y-98530086D02*
X94833577Y-98379610D01*
X94833577Y-98379610D02*
X94762149Y-98304372D01*
X94762149Y-98304372D02*
X94619291Y-98229134D01*
X94619291Y-98229134D02*
X94333577Y-98229134D01*
X94333577Y-98229134D02*
X94190720Y-98304372D01*
X94190720Y-98304372D02*
X94119291Y-98379610D01*
X94119291Y-98379610D02*
X94047863Y-98530086D01*
X94047863Y-98530086D02*
X94047863Y-98906276D01*
X94047863Y-98906276D02*
X94119291Y-99056753D01*
X94119291Y-99056753D02*
X94190720Y-99131991D01*
X94190720Y-99131991D02*
X94333577Y-99207229D01*
X94333577Y-99207229D02*
X94619291Y-99207229D01*
X94619291Y-99207229D02*
X94762149Y-99131991D01*
X94762149Y-99131991D02*
X94833577Y-99056753D01*
X94833577Y-99056753D02*
X94905006Y-98906276D01*
X93333578Y-100772846D02*
X93047863Y-100772846D01*
X93047863Y-100772846D02*
X92905006Y-100848084D01*
X92905006Y-100848084D02*
X92833578Y-100923322D01*
X92833578Y-100923322D02*
X92690720Y-101149036D01*
X92690720Y-101149036D02*
X92619292Y-101449988D01*
X92619292Y-101449988D02*
X92619292Y-102051893D01*
X92619292Y-102051893D02*
X92690720Y-102202369D01*
X92690720Y-102202369D02*
X92762149Y-102277608D01*
X92762149Y-102277608D02*
X92905006Y-102352846D01*
X92905006Y-102352846D02*
X93190720Y-102352846D01*
X93190720Y-102352846D02*
X93333578Y-102277608D01*
X93333578Y-102277608D02*
X93405006Y-102202369D01*
X93405006Y-102202369D02*
X93476435Y-102051893D01*
X93476435Y-102051893D02*
X93476435Y-101675703D01*
X93476435Y-101675703D02*
X93405006Y-101525227D01*
X93405006Y-101525227D02*
X93333578Y-101449988D01*
X93333578Y-101449988D02*
X93190720Y-101374750D01*
X93190720Y-101374750D02*
X92905006Y-101374750D01*
X92905006Y-101374750D02*
X92762149Y-101449988D01*
X92762149Y-101449988D02*
X92690720Y-101525227D01*
X92690720Y-101525227D02*
X92619292Y-101675703D01*
X94833577Y-100772846D02*
X94119291Y-100772846D01*
X94119291Y-100772846D02*
X94047863Y-101525227D01*
X94047863Y-101525227D02*
X94119291Y-101449988D01*
X94119291Y-101449988D02*
X94262149Y-101374750D01*
X94262149Y-101374750D02*
X94619291Y-101374750D01*
X94619291Y-101374750D02*
X94762149Y-101449988D01*
X94762149Y-101449988D02*
X94833577Y-101525227D01*
X94833577Y-101525227D02*
X94905006Y-101675703D01*
X94905006Y-101675703D02*
X94905006Y-102051893D01*
X94905006Y-102051893D02*
X94833577Y-102202369D01*
X94833577Y-102202369D02*
X94762149Y-102277608D01*
X94762149Y-102277608D02*
X94619291Y-102352846D01*
X94619291Y-102352846D02*
X94262149Y-102352846D01*
X94262149Y-102352846D02*
X94119291Y-102277608D01*
X94119291Y-102277608D02*
X94047863Y-102202369D01*
X93333578Y-103316558D02*
X93047863Y-103316558D01*
X93047863Y-103316558D02*
X92905006Y-103391796D01*
X92905006Y-103391796D02*
X92833578Y-103467034D01*
X92833578Y-103467034D02*
X92690720Y-103692748D01*
X92690720Y-103692748D02*
X92619292Y-103993700D01*
X92619292Y-103993700D02*
X92619292Y-104595605D01*
X92619292Y-104595605D02*
X92690720Y-104746081D01*
X92690720Y-104746081D02*
X92762149Y-104821320D01*
X92762149Y-104821320D02*
X92905006Y-104896558D01*
X92905006Y-104896558D02*
X93190720Y-104896558D01*
X93190720Y-104896558D02*
X93333578Y-104821320D01*
X93333578Y-104821320D02*
X93405006Y-104746081D01*
X93405006Y-104746081D02*
X93476435Y-104595605D01*
X93476435Y-104595605D02*
X93476435Y-104219415D01*
X93476435Y-104219415D02*
X93405006Y-104068939D01*
X93405006Y-104068939D02*
X93333578Y-103993700D01*
X93333578Y-103993700D02*
X93190720Y-103918462D01*
X93190720Y-103918462D02*
X92905006Y-103918462D01*
X92905006Y-103918462D02*
X92762149Y-103993700D01*
X92762149Y-103993700D02*
X92690720Y-104068939D01*
X92690720Y-104068939D02*
X92619292Y-104219415D01*
X94762149Y-103843224D02*
X94762149Y-104896558D01*
X94405006Y-103241320D02*
X94047863Y-104369891D01*
X94047863Y-104369891D02*
X94976434Y-104369891D01*
X93333578Y-105860270D02*
X93047863Y-105860270D01*
X93047863Y-105860270D02*
X92905006Y-105935508D01*
X92905006Y-105935508D02*
X92833578Y-106010746D01*
X92833578Y-106010746D02*
X92690720Y-106236460D01*
X92690720Y-106236460D02*
X92619292Y-106537412D01*
X92619292Y-106537412D02*
X92619292Y-107139317D01*
X92619292Y-107139317D02*
X92690720Y-107289793D01*
X92690720Y-107289793D02*
X92762149Y-107365032D01*
X92762149Y-107365032D02*
X92905006Y-107440270D01*
X92905006Y-107440270D02*
X93190720Y-107440270D01*
X93190720Y-107440270D02*
X93333578Y-107365032D01*
X93333578Y-107365032D02*
X93405006Y-107289793D01*
X93405006Y-107289793D02*
X93476435Y-107139317D01*
X93476435Y-107139317D02*
X93476435Y-106763127D01*
X93476435Y-106763127D02*
X93405006Y-106612651D01*
X93405006Y-106612651D02*
X93333578Y-106537412D01*
X93333578Y-106537412D02*
X93190720Y-106462174D01*
X93190720Y-106462174D02*
X92905006Y-106462174D01*
X92905006Y-106462174D02*
X92762149Y-106537412D01*
X92762149Y-106537412D02*
X92690720Y-106612651D01*
X92690720Y-106612651D02*
X92619292Y-106763127D01*
X93976434Y-105860270D02*
X94976434Y-105860270D01*
X94976434Y-105860270D02*
X94333577Y-107440270D01*
X93333578Y-108403982D02*
X93047863Y-108403982D01*
X93047863Y-108403982D02*
X92905006Y-108479220D01*
X92905006Y-108479220D02*
X92833578Y-108554458D01*
X92833578Y-108554458D02*
X92690720Y-108780172D01*
X92690720Y-108780172D02*
X92619292Y-109081124D01*
X92619292Y-109081124D02*
X92619292Y-109683029D01*
X92619292Y-109683029D02*
X92690720Y-109833505D01*
X92690720Y-109833505D02*
X92762149Y-109908744D01*
X92762149Y-109908744D02*
X92905006Y-109983982D01*
X92905006Y-109983982D02*
X93190720Y-109983982D01*
X93190720Y-109983982D02*
X93333578Y-109908744D01*
X93333578Y-109908744D02*
X93405006Y-109833505D01*
X93405006Y-109833505D02*
X93476435Y-109683029D01*
X93476435Y-109683029D02*
X93476435Y-109306839D01*
X93476435Y-109306839D02*
X93405006Y-109156363D01*
X93405006Y-109156363D02*
X93333578Y-109081124D01*
X93333578Y-109081124D02*
X93190720Y-109005886D01*
X93190720Y-109005886D02*
X92905006Y-109005886D01*
X92905006Y-109005886D02*
X92762149Y-109081124D01*
X92762149Y-109081124D02*
X92690720Y-109156363D01*
X92690720Y-109156363D02*
X92619292Y-109306839D01*
X94762149Y-108403982D02*
X94476434Y-108403982D01*
X94476434Y-108403982D02*
X94333577Y-108479220D01*
X94333577Y-108479220D02*
X94262149Y-108554458D01*
X94262149Y-108554458D02*
X94119291Y-108780172D01*
X94119291Y-108780172D02*
X94047863Y-109081124D01*
X94047863Y-109081124D02*
X94047863Y-109683029D01*
X94047863Y-109683029D02*
X94119291Y-109833505D01*
X94119291Y-109833505D02*
X94190720Y-109908744D01*
X94190720Y-109908744D02*
X94333577Y-109983982D01*
X94333577Y-109983982D02*
X94619291Y-109983982D01*
X94619291Y-109983982D02*
X94762149Y-109908744D01*
X94762149Y-109908744D02*
X94833577Y-109833505D01*
X94833577Y-109833505D02*
X94905006Y-109683029D01*
X94905006Y-109683029D02*
X94905006Y-109306839D01*
X94905006Y-109306839D02*
X94833577Y-109156363D01*
X94833577Y-109156363D02*
X94762149Y-109081124D01*
X94762149Y-109081124D02*
X94619291Y-109005886D01*
X94619291Y-109005886D02*
X94333577Y-109005886D01*
X94333577Y-109005886D02*
X94190720Y-109081124D01*
X94190720Y-109081124D02*
X94119291Y-109156363D01*
X94119291Y-109156363D02*
X94047863Y-109306839D01*
X93333578Y-110947694D02*
X93047863Y-110947694D01*
X93047863Y-110947694D02*
X92905006Y-111022932D01*
X92905006Y-111022932D02*
X92833578Y-111098170D01*
X92833578Y-111098170D02*
X92690720Y-111323884D01*
X92690720Y-111323884D02*
X92619292Y-111624836D01*
X92619292Y-111624836D02*
X92619292Y-112226741D01*
X92619292Y-112226741D02*
X92690720Y-112377217D01*
X92690720Y-112377217D02*
X92762149Y-112452456D01*
X92762149Y-112452456D02*
X92905006Y-112527694D01*
X92905006Y-112527694D02*
X93190720Y-112527694D01*
X93190720Y-112527694D02*
X93333578Y-112452456D01*
X93333578Y-112452456D02*
X93405006Y-112377217D01*
X93405006Y-112377217D02*
X93476435Y-112226741D01*
X93476435Y-112226741D02*
X93476435Y-111850551D01*
X93476435Y-111850551D02*
X93405006Y-111700075D01*
X93405006Y-111700075D02*
X93333578Y-111624836D01*
X93333578Y-111624836D02*
X93190720Y-111549598D01*
X93190720Y-111549598D02*
X92905006Y-111549598D01*
X92905006Y-111549598D02*
X92762149Y-111624836D01*
X92762149Y-111624836D02*
X92690720Y-111700075D01*
X92690720Y-111700075D02*
X92619292Y-111850551D01*
X94190720Y-112527694D02*
X94476434Y-112527694D01*
X94476434Y-112527694D02*
X94619291Y-112452456D01*
X94619291Y-112452456D02*
X94690720Y-112377217D01*
X94690720Y-112377217D02*
X94833577Y-112151503D01*
X94833577Y-112151503D02*
X94905006Y-111850551D01*
X94905006Y-111850551D02*
X94905006Y-111248646D01*
X94905006Y-111248646D02*
X94833577Y-111098170D01*
X94833577Y-111098170D02*
X94762149Y-111022932D01*
X94762149Y-111022932D02*
X94619291Y-110947694D01*
X94619291Y-110947694D02*
X94333577Y-110947694D01*
X94333577Y-110947694D02*
X94190720Y-111022932D01*
X94190720Y-111022932D02*
X94119291Y-111098170D01*
X94119291Y-111098170D02*
X94047863Y-111248646D01*
X94047863Y-111248646D02*
X94047863Y-111624836D01*
X94047863Y-111624836D02*
X94119291Y-111775313D01*
X94119291Y-111775313D02*
X94190720Y-111850551D01*
X94190720Y-111850551D02*
X94333577Y-111925789D01*
X94333577Y-111925789D02*
X94619291Y-111925789D01*
X94619291Y-111925789D02*
X94762149Y-111850551D01*
X94762149Y-111850551D02*
X94833577Y-111775313D01*
X94833577Y-111775313D02*
X94905006Y-111624836D01*
X93333578Y-113491406D02*
X93047863Y-113491406D01*
X93047863Y-113491406D02*
X92905006Y-113566644D01*
X92905006Y-113566644D02*
X92833578Y-113641882D01*
X92833578Y-113641882D02*
X92690720Y-113867596D01*
X92690720Y-113867596D02*
X92619292Y-114168548D01*
X92619292Y-114168548D02*
X92619292Y-114770453D01*
X92619292Y-114770453D02*
X92690720Y-114920929D01*
X92690720Y-114920929D02*
X92762149Y-114996168D01*
X92762149Y-114996168D02*
X92905006Y-115071406D01*
X92905006Y-115071406D02*
X93190720Y-115071406D01*
X93190720Y-115071406D02*
X93333578Y-114996168D01*
X93333578Y-114996168D02*
X93405006Y-114920929D01*
X93405006Y-114920929D02*
X93476435Y-114770453D01*
X93476435Y-114770453D02*
X93476435Y-114394263D01*
X93476435Y-114394263D02*
X93405006Y-114243787D01*
X93405006Y-114243787D02*
X93333578Y-114168548D01*
X93333578Y-114168548D02*
X93190720Y-114093310D01*
X93190720Y-114093310D02*
X92905006Y-114093310D01*
X92905006Y-114093310D02*
X92762149Y-114168548D01*
X92762149Y-114168548D02*
X92690720Y-114243787D01*
X92690720Y-114243787D02*
X92619292Y-114394263D01*
X94333577Y-114168548D02*
X94190720Y-114093310D01*
X94190720Y-114093310D02*
X94119291Y-114018072D01*
X94119291Y-114018072D02*
X94047863Y-113867596D01*
X94047863Y-113867596D02*
X94047863Y-113792358D01*
X94047863Y-113792358D02*
X94119291Y-113641882D01*
X94119291Y-113641882D02*
X94190720Y-113566644D01*
X94190720Y-113566644D02*
X94333577Y-113491406D01*
X94333577Y-113491406D02*
X94619291Y-113491406D01*
X94619291Y-113491406D02*
X94762149Y-113566644D01*
X94762149Y-113566644D02*
X94833577Y-113641882D01*
X94833577Y-113641882D02*
X94905006Y-113792358D01*
X94905006Y-113792358D02*
X94905006Y-113867596D01*
X94905006Y-113867596D02*
X94833577Y-114018072D01*
X94833577Y-114018072D02*
X94762149Y-114093310D01*
X94762149Y-114093310D02*
X94619291Y-114168548D01*
X94619291Y-114168548D02*
X94333577Y-114168548D01*
X94333577Y-114168548D02*
X94190720Y-114243787D01*
X94190720Y-114243787D02*
X94119291Y-114319025D01*
X94119291Y-114319025D02*
X94047863Y-114469501D01*
X94047863Y-114469501D02*
X94047863Y-114770453D01*
X94047863Y-114770453D02*
X94119291Y-114920929D01*
X94119291Y-114920929D02*
X94190720Y-114996168D01*
X94190720Y-114996168D02*
X94333577Y-115071406D01*
X94333577Y-115071406D02*
X94619291Y-115071406D01*
X94619291Y-115071406D02*
X94762149Y-114996168D01*
X94762149Y-114996168D02*
X94833577Y-114920929D01*
X94833577Y-114920929D02*
X94905006Y-114770453D01*
X94905006Y-114770453D02*
X94905006Y-114469501D01*
X94905006Y-114469501D02*
X94833577Y-114319025D01*
X94833577Y-114319025D02*
X94762149Y-114243787D01*
X94762149Y-114243787D02*
X94619291Y-114168548D01*
X92547863Y-116035118D02*
X93547863Y-116035118D01*
X93547863Y-116035118D02*
X92905006Y-117615118D01*
X94905006Y-117615118D02*
X94047863Y-117615118D01*
X94476434Y-117615118D02*
X94476434Y-116035118D01*
X94476434Y-116035118D02*
X94333577Y-116260832D01*
X94333577Y-116260832D02*
X94190720Y-116411308D01*
X94190720Y-116411308D02*
X94047863Y-116486546D01*
X92547863Y-118578830D02*
X93547863Y-118578830D01*
X93547863Y-118578830D02*
X92905006Y-120158830D01*
X94405006Y-118578830D02*
X94547863Y-118578830D01*
X94547863Y-118578830D02*
X94690720Y-118654068D01*
X94690720Y-118654068D02*
X94762149Y-118729306D01*
X94762149Y-118729306D02*
X94833577Y-118879782D01*
X94833577Y-118879782D02*
X94905006Y-119180734D01*
X94905006Y-119180734D02*
X94905006Y-119556925D01*
X94905006Y-119556925D02*
X94833577Y-119857877D01*
X94833577Y-119857877D02*
X94762149Y-120008353D01*
X94762149Y-120008353D02*
X94690720Y-120083592D01*
X94690720Y-120083592D02*
X94547863Y-120158830D01*
X94547863Y-120158830D02*
X94405006Y-120158830D01*
X94405006Y-120158830D02*
X94262149Y-120083592D01*
X94262149Y-120083592D02*
X94190720Y-120008353D01*
X94190720Y-120008353D02*
X94119291Y-119857877D01*
X94119291Y-119857877D02*
X94047863Y-119556925D01*
X94047863Y-119556925D02*
X94047863Y-119180734D01*
X94047863Y-119180734D02*
X94119291Y-118879782D01*
X94119291Y-118879782D02*
X94190720Y-118729306D01*
X94190720Y-118729306D02*
X94262149Y-118654068D01*
X94262149Y-118654068D02*
X94405006Y-118578830D01*
X92547863Y-121122542D02*
X93547863Y-121122542D01*
X93547863Y-121122542D02*
X92905006Y-122702542D01*
X93976434Y-121122542D02*
X94905006Y-121122542D01*
X94905006Y-121122542D02*
X94405006Y-121724446D01*
X94405006Y-121724446D02*
X94619291Y-121724446D01*
X94619291Y-121724446D02*
X94762149Y-121799684D01*
X94762149Y-121799684D02*
X94833577Y-121874923D01*
X94833577Y-121874923D02*
X94905006Y-122025399D01*
X94905006Y-122025399D02*
X94905006Y-122401589D01*
X94905006Y-122401589D02*
X94833577Y-122552065D01*
X94833577Y-122552065D02*
X94762149Y-122627304D01*
X94762149Y-122627304D02*
X94619291Y-122702542D01*
X94619291Y-122702542D02*
X94190720Y-122702542D01*
X94190720Y-122702542D02*
X94047863Y-122627304D01*
X94047863Y-122627304D02*
X93976434Y-122552065D01*
X92547863Y-123666254D02*
X93547863Y-123666254D01*
X93547863Y-123666254D02*
X92905006Y-125246254D01*
X94047863Y-123816730D02*
X94119291Y-123741492D01*
X94119291Y-123741492D02*
X94262149Y-123666254D01*
X94262149Y-123666254D02*
X94619291Y-123666254D01*
X94619291Y-123666254D02*
X94762149Y-123741492D01*
X94762149Y-123741492D02*
X94833577Y-123816730D01*
X94833577Y-123816730D02*
X94905006Y-123967206D01*
X94905006Y-123967206D02*
X94905006Y-124117682D01*
X94905006Y-124117682D02*
X94833577Y-124343396D01*
X94833577Y-124343396D02*
X93976434Y-125246254D01*
X93976434Y-125246254D02*
X94905006Y-125246254D01*
X92547863Y-126209966D02*
X93547863Y-126209966D01*
X93547863Y-126209966D02*
X92905006Y-127789966D01*
X94833577Y-126209966D02*
X94119291Y-126209966D01*
X94119291Y-126209966D02*
X94047863Y-126962347D01*
X94047863Y-126962347D02*
X94119291Y-126887108D01*
X94119291Y-126887108D02*
X94262149Y-126811870D01*
X94262149Y-126811870D02*
X94619291Y-126811870D01*
X94619291Y-126811870D02*
X94762149Y-126887108D01*
X94762149Y-126887108D02*
X94833577Y-126962347D01*
X94833577Y-126962347D02*
X94905006Y-127112823D01*
X94905006Y-127112823D02*
X94905006Y-127489013D01*
X94905006Y-127489013D02*
X94833577Y-127639489D01*
X94833577Y-127639489D02*
X94762149Y-127714728D01*
X94762149Y-127714728D02*
X94619291Y-127789966D01*
X94619291Y-127789966D02*
X94262149Y-127789966D01*
X94262149Y-127789966D02*
X94119291Y-127714728D01*
X94119291Y-127714728D02*
X94047863Y-127639489D01*
X92547863Y-128753678D02*
X93547863Y-128753678D01*
X93547863Y-128753678D02*
X92905006Y-130333678D01*
X94762149Y-129280344D02*
X94762149Y-130333678D01*
X94405006Y-128678440D02*
X94047863Y-129807011D01*
X94047863Y-129807011D02*
X94976434Y-129807011D01*
X92547863Y-131297390D02*
X93547863Y-131297390D01*
X93547863Y-131297390D02*
X92905006Y-132877390D01*
X93976434Y-131297390D02*
X94976434Y-131297390D01*
X94976434Y-131297390D02*
X94333577Y-132877390D01*
X92547863Y-133841102D02*
X93547863Y-133841102D01*
X93547863Y-133841102D02*
X92905006Y-135421102D01*
X94762149Y-133841102D02*
X94476434Y-133841102D01*
X94476434Y-133841102D02*
X94333577Y-133916340D01*
X94333577Y-133916340D02*
X94262149Y-133991578D01*
X94262149Y-133991578D02*
X94119291Y-134217292D01*
X94119291Y-134217292D02*
X94047863Y-134518244D01*
X94047863Y-134518244D02*
X94047863Y-135120149D01*
X94047863Y-135120149D02*
X94119291Y-135270625D01*
X94119291Y-135270625D02*
X94190720Y-135345864D01*
X94190720Y-135345864D02*
X94333577Y-135421102D01*
X94333577Y-135421102D02*
X94619291Y-135421102D01*
X94619291Y-135421102D02*
X94762149Y-135345864D01*
X94762149Y-135345864D02*
X94833577Y-135270625D01*
X94833577Y-135270625D02*
X94905006Y-135120149D01*
X94905006Y-135120149D02*
X94905006Y-134743959D01*
X94905006Y-134743959D02*
X94833577Y-134593483D01*
X94833577Y-134593483D02*
X94762149Y-134518244D01*
X94762149Y-134518244D02*
X94619291Y-134443006D01*
X94619291Y-134443006D02*
X94333577Y-134443006D01*
X94333577Y-134443006D02*
X94190720Y-134518244D01*
X94190720Y-134518244D02*
X94119291Y-134593483D01*
X94119291Y-134593483D02*
X94047863Y-134743959D01*
X92905006Y-137061956D02*
X92762149Y-136986718D01*
X92762149Y-136986718D02*
X92690720Y-136911480D01*
X92690720Y-136911480D02*
X92619292Y-136761004D01*
X92619292Y-136761004D02*
X92619292Y-136685766D01*
X92619292Y-136685766D02*
X92690720Y-136535290D01*
X92690720Y-136535290D02*
X92762149Y-136460052D01*
X92762149Y-136460052D02*
X92905006Y-136384814D01*
X92905006Y-136384814D02*
X93190720Y-136384814D01*
X93190720Y-136384814D02*
X93333578Y-136460052D01*
X93333578Y-136460052D02*
X93405006Y-136535290D01*
X93405006Y-136535290D02*
X93476435Y-136685766D01*
X93476435Y-136685766D02*
X93476435Y-136761004D01*
X93476435Y-136761004D02*
X93405006Y-136911480D01*
X93405006Y-136911480D02*
X93333578Y-136986718D01*
X93333578Y-136986718D02*
X93190720Y-137061956D01*
X93190720Y-137061956D02*
X92905006Y-137061956D01*
X92905006Y-137061956D02*
X92762149Y-137137195D01*
X92762149Y-137137195D02*
X92690720Y-137212433D01*
X92690720Y-137212433D02*
X92619292Y-137362909D01*
X92619292Y-137362909D02*
X92619292Y-137663861D01*
X92619292Y-137663861D02*
X92690720Y-137814337D01*
X92690720Y-137814337D02*
X92762149Y-137889576D01*
X92762149Y-137889576D02*
X92905006Y-137964814D01*
X92905006Y-137964814D02*
X93190720Y-137964814D01*
X93190720Y-137964814D02*
X93333578Y-137889576D01*
X93333578Y-137889576D02*
X93405006Y-137814337D01*
X93405006Y-137814337D02*
X93476435Y-137663861D01*
X93476435Y-137663861D02*
X93476435Y-137362909D01*
X93476435Y-137362909D02*
X93405006Y-137212433D01*
X93405006Y-137212433D02*
X93333578Y-137137195D01*
X93333578Y-137137195D02*
X93190720Y-137061956D01*
X93976434Y-136384814D02*
X94905006Y-136384814D01*
X94905006Y-136384814D02*
X94405006Y-136986718D01*
X94405006Y-136986718D02*
X94619291Y-136986718D01*
X94619291Y-136986718D02*
X94762149Y-137061956D01*
X94762149Y-137061956D02*
X94833577Y-137137195D01*
X94833577Y-137137195D02*
X94905006Y-137287671D01*
X94905006Y-137287671D02*
X94905006Y-137663861D01*
X94905006Y-137663861D02*
X94833577Y-137814337D01*
X94833577Y-137814337D02*
X94762149Y-137889576D01*
X94762149Y-137889576D02*
X94619291Y-137964814D01*
X94619291Y-137964814D02*
X94190720Y-137964814D01*
X94190720Y-137964814D02*
X94047863Y-137889576D01*
X94047863Y-137889576D02*
X93976434Y-137814337D01*
X92905006Y-139605668D02*
X92762149Y-139530430D01*
X92762149Y-139530430D02*
X92690720Y-139455192D01*
X92690720Y-139455192D02*
X92619292Y-139304716D01*
X92619292Y-139304716D02*
X92619292Y-139229478D01*
X92619292Y-139229478D02*
X92690720Y-139079002D01*
X92690720Y-139079002D02*
X92762149Y-139003764D01*
X92762149Y-139003764D02*
X92905006Y-138928526D01*
X92905006Y-138928526D02*
X93190720Y-138928526D01*
X93190720Y-138928526D02*
X93333578Y-139003764D01*
X93333578Y-139003764D02*
X93405006Y-139079002D01*
X93405006Y-139079002D02*
X93476435Y-139229478D01*
X93476435Y-139229478D02*
X93476435Y-139304716D01*
X93476435Y-139304716D02*
X93405006Y-139455192D01*
X93405006Y-139455192D02*
X93333578Y-139530430D01*
X93333578Y-139530430D02*
X93190720Y-139605668D01*
X93190720Y-139605668D02*
X92905006Y-139605668D01*
X92905006Y-139605668D02*
X92762149Y-139680907D01*
X92762149Y-139680907D02*
X92690720Y-139756145D01*
X92690720Y-139756145D02*
X92619292Y-139906621D01*
X92619292Y-139906621D02*
X92619292Y-140207573D01*
X92619292Y-140207573D02*
X92690720Y-140358049D01*
X92690720Y-140358049D02*
X92762149Y-140433288D01*
X92762149Y-140433288D02*
X92905006Y-140508526D01*
X92905006Y-140508526D02*
X93190720Y-140508526D01*
X93190720Y-140508526D02*
X93333578Y-140433288D01*
X93333578Y-140433288D02*
X93405006Y-140358049D01*
X93405006Y-140358049D02*
X93476435Y-140207573D01*
X93476435Y-140207573D02*
X93476435Y-139906621D01*
X93476435Y-139906621D02*
X93405006Y-139756145D01*
X93405006Y-139756145D02*
X93333578Y-139680907D01*
X93333578Y-139680907D02*
X93190720Y-139605668D01*
X94405006Y-138928526D02*
X94547863Y-138928526D01*
X94547863Y-138928526D02*
X94690720Y-139003764D01*
X94690720Y-139003764D02*
X94762149Y-139079002D01*
X94762149Y-139079002D02*
X94833577Y-139229478D01*
X94833577Y-139229478D02*
X94905006Y-139530430D01*
X94905006Y-139530430D02*
X94905006Y-139906621D01*
X94905006Y-139906621D02*
X94833577Y-140207573D01*
X94833577Y-140207573D02*
X94762149Y-140358049D01*
X94762149Y-140358049D02*
X94690720Y-140433288D01*
X94690720Y-140433288D02*
X94547863Y-140508526D01*
X94547863Y-140508526D02*
X94405006Y-140508526D01*
X94405006Y-140508526D02*
X94262149Y-140433288D01*
X94262149Y-140433288D02*
X94190720Y-140358049D01*
X94190720Y-140358049D02*
X94119291Y-140207573D01*
X94119291Y-140207573D02*
X94047863Y-139906621D01*
X94047863Y-139906621D02*
X94047863Y-139530430D01*
X94047863Y-139530430D02*
X94119291Y-139229478D01*
X94119291Y-139229478D02*
X94190720Y-139079002D01*
X94190720Y-139079002D02*
X94262149Y-139003764D01*
X94262149Y-139003764D02*
X94405006Y-138928526D01*
X93476435Y-141547476D02*
X93333578Y-141472238D01*
X93333578Y-141472238D02*
X93119292Y-141472238D01*
X93119292Y-141472238D02*
X92905006Y-141547476D01*
X92905006Y-141547476D02*
X92762149Y-141697952D01*
X92762149Y-141697952D02*
X92690720Y-141848428D01*
X92690720Y-141848428D02*
X92619292Y-142149380D01*
X92619292Y-142149380D02*
X92619292Y-142375095D01*
X92619292Y-142375095D02*
X92690720Y-142676047D01*
X92690720Y-142676047D02*
X92762149Y-142826523D01*
X92762149Y-142826523D02*
X92905006Y-142977000D01*
X92905006Y-142977000D02*
X93119292Y-143052238D01*
X93119292Y-143052238D02*
X93262149Y-143052238D01*
X93262149Y-143052238D02*
X93476435Y-142977000D01*
X93476435Y-142977000D02*
X93547863Y-142901761D01*
X93547863Y-142901761D02*
X93547863Y-142375095D01*
X93547863Y-142375095D02*
X93262149Y-142375095D01*
X94190720Y-143052238D02*
X94190720Y-141472238D01*
X94190720Y-141472238D02*
X95047863Y-143052238D01*
X95047863Y-143052238D02*
X95047863Y-141472238D01*
X95762149Y-143052238D02*
X95762149Y-141472238D01*
X95762149Y-141472238D02*
X96119292Y-141472238D01*
X96119292Y-141472238D02*
X96333578Y-141547476D01*
X96333578Y-141547476D02*
X96476435Y-141697952D01*
X96476435Y-141697952D02*
X96547864Y-141848428D01*
X96547864Y-141848428D02*
X96619292Y-142149380D01*
X96619292Y-142149380D02*
X96619292Y-142375095D01*
X96619292Y-142375095D02*
X96547864Y-142676047D01*
X96547864Y-142676047D02*
X96476435Y-142826523D01*
X96476435Y-142826523D02*
X96333578Y-142977000D01*
X96333578Y-142977000D02*
X96119292Y-143052238D01*
X96119292Y-143052238D02*
X95762149Y-143052238D01*
D15*
X132601615Y-129280000D02*
X133744473Y-129280000D01*
X133173044Y-129851428D02*
X133173044Y-128708571D01*
X135173044Y-128351428D02*
X134458758Y-128351428D01*
X134458758Y-128351428D02*
X134387330Y-129065714D01*
X134387330Y-129065714D02*
X134458758Y-128994285D01*
X134458758Y-128994285D02*
X134601616Y-128922857D01*
X134601616Y-128922857D02*
X134958758Y-128922857D01*
X134958758Y-128922857D02*
X135101616Y-128994285D01*
X135101616Y-128994285D02*
X135173044Y-129065714D01*
X135173044Y-129065714D02*
X135244473Y-129208571D01*
X135244473Y-129208571D02*
X135244473Y-129565714D01*
X135244473Y-129565714D02*
X135173044Y-129708571D01*
X135173044Y-129708571D02*
X135101616Y-129780000D01*
X135101616Y-129780000D02*
X134958758Y-129851428D01*
X134958758Y-129851428D02*
X134601616Y-129851428D01*
X134601616Y-129851428D02*
X134458758Y-129780000D01*
X134458758Y-129780000D02*
X134387330Y-129708571D01*
X135673044Y-128351428D02*
X136173044Y-129851428D01*
X136173044Y-129851428D02*
X136673044Y-128351428D01*
D13*
X96238720Y-104433104D02*
X95667292Y-104433104D01*
X95667292Y-104433104D02*
X95610149Y-104956914D01*
X95610149Y-104956914D02*
X95667292Y-104904533D01*
X95667292Y-104904533D02*
X95781578Y-104852152D01*
X95781578Y-104852152D02*
X96067292Y-104852152D01*
X96067292Y-104852152D02*
X96181578Y-104904533D01*
X96181578Y-104904533D02*
X96238720Y-104956914D01*
X96238720Y-104956914D02*
X96295863Y-105061676D01*
X96295863Y-105061676D02*
X96295863Y-105323581D01*
X96295863Y-105323581D02*
X96238720Y-105428343D01*
X96238720Y-105428343D02*
X96181578Y-105480724D01*
X96181578Y-105480724D02*
X96067292Y-105533104D01*
X96067292Y-105533104D02*
X95781578Y-105533104D01*
X95781578Y-105533104D02*
X95667292Y-105480724D01*
X95667292Y-105480724D02*
X95610149Y-105428343D01*
X96638720Y-104433104D02*
X97038720Y-105533104D01*
X97038720Y-105533104D02*
X97438720Y-104433104D01*
X98067291Y-104433104D02*
X98181577Y-104433104D01*
X98181577Y-104433104D02*
X98295863Y-104485485D01*
X98295863Y-104485485D02*
X98353006Y-104537866D01*
X98353006Y-104537866D02*
X98410148Y-104642628D01*
X98410148Y-104642628D02*
X98467291Y-104852152D01*
X98467291Y-104852152D02*
X98467291Y-105114057D01*
X98467291Y-105114057D02*
X98410148Y-105323581D01*
X98410148Y-105323581D02*
X98353006Y-105428343D01*
X98353006Y-105428343D02*
X98295863Y-105480724D01*
X98295863Y-105480724D02*
X98181577Y-105533104D01*
X98181577Y-105533104D02*
X98067291Y-105533104D01*
X98067291Y-105533104D02*
X97953006Y-105480724D01*
X97953006Y-105480724D02*
X97895863Y-105428343D01*
X97895863Y-105428343D02*
X97838720Y-105323581D01*
X97838720Y-105323581D02*
X97781577Y-105114057D01*
X97781577Y-105114057D02*
X97781577Y-104852152D01*
X97781577Y-104852152D02*
X97838720Y-104642628D01*
X97838720Y-104642628D02*
X97895863Y-104537866D01*
X97895863Y-104537866D02*
X97953006Y-104485485D01*
X97953006Y-104485485D02*
X98067291Y-104433104D01*
X95553006Y-107974980D02*
X96295863Y-107974980D01*
X96295863Y-107974980D02*
X95895863Y-108394028D01*
X95895863Y-108394028D02*
X96067292Y-108394028D01*
X96067292Y-108394028D02*
X96181578Y-108446409D01*
X96181578Y-108446409D02*
X96238720Y-108498790D01*
X96238720Y-108498790D02*
X96295863Y-108603552D01*
X96295863Y-108603552D02*
X96295863Y-108865457D01*
X96295863Y-108865457D02*
X96238720Y-108970219D01*
X96238720Y-108970219D02*
X96181578Y-109022600D01*
X96181578Y-109022600D02*
X96067292Y-109074980D01*
X96067292Y-109074980D02*
X95724435Y-109074980D01*
X95724435Y-109074980D02*
X95610149Y-109022600D01*
X95610149Y-109022600D02*
X95553006Y-108970219D01*
X96638720Y-107974980D02*
X97038720Y-109074980D01*
X97038720Y-109074980D02*
X97438720Y-107974980D01*
X97724434Y-107974980D02*
X98467291Y-107974980D01*
X98467291Y-107974980D02*
X98067291Y-108394028D01*
X98067291Y-108394028D02*
X98238720Y-108394028D01*
X98238720Y-108394028D02*
X98353006Y-108446409D01*
X98353006Y-108446409D02*
X98410148Y-108498790D01*
X98410148Y-108498790D02*
X98467291Y-108603552D01*
X98467291Y-108603552D02*
X98467291Y-108865457D01*
X98467291Y-108865457D02*
X98410148Y-108970219D01*
X98410148Y-108970219D02*
X98353006Y-109022600D01*
X98353006Y-109022600D02*
X98238720Y-109074980D01*
X98238720Y-109074980D02*
X97895863Y-109074980D01*
X97895863Y-109074980D02*
X97781577Y-109022600D01*
X97781577Y-109022600D02*
X97724434Y-108970219D01*
X191291863Y-136621885D02*
X191177578Y-136564742D01*
X191177578Y-136564742D02*
X191006149Y-136564742D01*
X191006149Y-136564742D02*
X190834720Y-136621885D01*
X190834720Y-136621885D02*
X190720435Y-136736171D01*
X190720435Y-136736171D02*
X190663292Y-136850457D01*
X190663292Y-136850457D02*
X190606149Y-137079028D01*
X190606149Y-137079028D02*
X190606149Y-137250457D01*
X190606149Y-137250457D02*
X190663292Y-137479028D01*
X190663292Y-137479028D02*
X190720435Y-137593314D01*
X190720435Y-137593314D02*
X190834720Y-137707600D01*
X190834720Y-137707600D02*
X191006149Y-137764742D01*
X191006149Y-137764742D02*
X191120435Y-137764742D01*
X191120435Y-137764742D02*
X191291863Y-137707600D01*
X191291863Y-137707600D02*
X191349006Y-137650457D01*
X191349006Y-137650457D02*
X191349006Y-137250457D01*
X191349006Y-137250457D02*
X191120435Y-137250457D01*
X191863292Y-137764742D02*
X191863292Y-136564742D01*
X191863292Y-136564742D02*
X192549006Y-137764742D01*
X192549006Y-137764742D02*
X192549006Y-136564742D01*
X193120435Y-137764742D02*
X193120435Y-136564742D01*
X193120435Y-136564742D02*
X193406149Y-136564742D01*
X193406149Y-136564742D02*
X193577578Y-136621885D01*
X193577578Y-136621885D02*
X193691863Y-136736171D01*
X193691863Y-136736171D02*
X193749006Y-136850457D01*
X193749006Y-136850457D02*
X193806149Y-137079028D01*
X193806149Y-137079028D02*
X193806149Y-137250457D01*
X193806149Y-137250457D02*
X193749006Y-137479028D01*
X193749006Y-137479028D02*
X193691863Y-137593314D01*
X193691863Y-137593314D02*
X193577578Y-137707600D01*
X193577578Y-137707600D02*
X193406149Y-137764742D01*
X193406149Y-137764742D02*
X193120435Y-137764742D01*
X100067863Y-101303028D02*
X100467863Y-102803028D01*
X100467863Y-102803028D02*
X100867863Y-101303028D01*
X101953577Y-102660171D02*
X101896434Y-102731600D01*
X101896434Y-102731600D02*
X101725006Y-102803028D01*
X101725006Y-102803028D02*
X101610720Y-102803028D01*
X101610720Y-102803028D02*
X101439291Y-102731600D01*
X101439291Y-102731600D02*
X101325006Y-102588742D01*
X101325006Y-102588742D02*
X101267863Y-102445885D01*
X101267863Y-102445885D02*
X101210720Y-102160171D01*
X101210720Y-102160171D02*
X101210720Y-101945885D01*
X101210720Y-101945885D02*
X101267863Y-101660171D01*
X101267863Y-101660171D02*
X101325006Y-101517314D01*
X101325006Y-101517314D02*
X101439291Y-101374457D01*
X101439291Y-101374457D02*
X101610720Y-101303028D01*
X101610720Y-101303028D02*
X101725006Y-101303028D01*
X101725006Y-101303028D02*
X101896434Y-101374457D01*
X101896434Y-101374457D02*
X101953577Y-101445885D01*
X103153577Y-102660171D02*
X103096434Y-102731600D01*
X103096434Y-102731600D02*
X102925006Y-102803028D01*
X102925006Y-102803028D02*
X102810720Y-102803028D01*
X102810720Y-102803028D02*
X102639291Y-102731600D01*
X102639291Y-102731600D02*
X102525006Y-102588742D01*
X102525006Y-102588742D02*
X102467863Y-102445885D01*
X102467863Y-102445885D02*
X102410720Y-102160171D01*
X102410720Y-102160171D02*
X102410720Y-101945885D01*
X102410720Y-101945885D02*
X102467863Y-101660171D01*
X102467863Y-101660171D02*
X102525006Y-101517314D01*
X102525006Y-101517314D02*
X102639291Y-101374457D01*
X102639291Y-101374457D02*
X102810720Y-101303028D01*
X102810720Y-101303028D02*
X102925006Y-101303028D01*
X102925006Y-101303028D02*
X103096434Y-101374457D01*
X103096434Y-101374457D02*
X103153577Y-101445885D01*
X104067863Y-102017314D02*
X104239291Y-102088742D01*
X104239291Y-102088742D02*
X104296434Y-102160171D01*
X104296434Y-102160171D02*
X104353577Y-102303028D01*
X104353577Y-102303028D02*
X104353577Y-102517314D01*
X104353577Y-102517314D02*
X104296434Y-102660171D01*
X104296434Y-102660171D02*
X104239291Y-102731600D01*
X104239291Y-102731600D02*
X104125006Y-102803028D01*
X104125006Y-102803028D02*
X103667863Y-102803028D01*
X103667863Y-102803028D02*
X103667863Y-101303028D01*
X103667863Y-101303028D02*
X104067863Y-101303028D01*
X104067863Y-101303028D02*
X104182149Y-101374457D01*
X104182149Y-101374457D02*
X104239291Y-101445885D01*
X104239291Y-101445885D02*
X104296434Y-101588742D01*
X104296434Y-101588742D02*
X104296434Y-101731600D01*
X104296434Y-101731600D02*
X104239291Y-101874457D01*
X104239291Y-101874457D02*
X104182149Y-101945885D01*
X104182149Y-101945885D02*
X104067863Y-102017314D01*
X104067863Y-102017314D02*
X103667863Y-102017314D01*
X99813863Y-47709028D02*
X100213863Y-49209028D01*
X100213863Y-49209028D02*
X100613863Y-47709028D01*
X101699577Y-49066171D02*
X101642434Y-49137600D01*
X101642434Y-49137600D02*
X101471006Y-49209028D01*
X101471006Y-49209028D02*
X101356720Y-49209028D01*
X101356720Y-49209028D02*
X101185291Y-49137600D01*
X101185291Y-49137600D02*
X101071006Y-48994742D01*
X101071006Y-48994742D02*
X101013863Y-48851885D01*
X101013863Y-48851885D02*
X100956720Y-48566171D01*
X100956720Y-48566171D02*
X100956720Y-48351885D01*
X100956720Y-48351885D02*
X101013863Y-48066171D01*
X101013863Y-48066171D02*
X101071006Y-47923314D01*
X101071006Y-47923314D02*
X101185291Y-47780457D01*
X101185291Y-47780457D02*
X101356720Y-47709028D01*
X101356720Y-47709028D02*
X101471006Y-47709028D01*
X101471006Y-47709028D02*
X101642434Y-47780457D01*
X101642434Y-47780457D02*
X101699577Y-47851885D01*
X102899577Y-49066171D02*
X102842434Y-49137600D01*
X102842434Y-49137600D02*
X102671006Y-49209028D01*
X102671006Y-49209028D02*
X102556720Y-49209028D01*
X102556720Y-49209028D02*
X102385291Y-49137600D01*
X102385291Y-49137600D02*
X102271006Y-48994742D01*
X102271006Y-48994742D02*
X102213863Y-48851885D01*
X102213863Y-48851885D02*
X102156720Y-48566171D01*
X102156720Y-48566171D02*
X102156720Y-48351885D01*
X102156720Y-48351885D02*
X102213863Y-48066171D01*
X102213863Y-48066171D02*
X102271006Y-47923314D01*
X102271006Y-47923314D02*
X102385291Y-47780457D01*
X102385291Y-47780457D02*
X102556720Y-47709028D01*
X102556720Y-47709028D02*
X102671006Y-47709028D01*
X102671006Y-47709028D02*
X102842434Y-47780457D01*
X102842434Y-47780457D02*
X102899577Y-47851885D01*
X103813863Y-48423314D02*
X103985291Y-48494742D01*
X103985291Y-48494742D02*
X104042434Y-48566171D01*
X104042434Y-48566171D02*
X104099577Y-48709028D01*
X104099577Y-48709028D02*
X104099577Y-48923314D01*
X104099577Y-48923314D02*
X104042434Y-49066171D01*
X104042434Y-49066171D02*
X103985291Y-49137600D01*
X103985291Y-49137600D02*
X103871006Y-49209028D01*
X103871006Y-49209028D02*
X103413863Y-49209028D01*
X103413863Y-49209028D02*
X103413863Y-47709028D01*
X103413863Y-47709028D02*
X103813863Y-47709028D01*
X103813863Y-47709028D02*
X103928149Y-47780457D01*
X103928149Y-47780457D02*
X103985291Y-47851885D01*
X103985291Y-47851885D02*
X104042434Y-47994742D01*
X104042434Y-47994742D02*
X104042434Y-48137600D01*
X104042434Y-48137600D02*
X103985291Y-48280457D01*
X103985291Y-48280457D02*
X103928149Y-48351885D01*
X103928149Y-48351885D02*
X103813863Y-48423314D01*
X103813863Y-48423314D02*
X103413863Y-48423314D01*
X132363863Y-139161885D02*
X132249578Y-139104742D01*
X132249578Y-139104742D02*
X132078149Y-139104742D01*
X132078149Y-139104742D02*
X131906720Y-139161885D01*
X131906720Y-139161885D02*
X131792435Y-139276171D01*
X131792435Y-139276171D02*
X131735292Y-139390457D01*
X131735292Y-139390457D02*
X131678149Y-139619028D01*
X131678149Y-139619028D02*
X131678149Y-139790457D01*
X131678149Y-139790457D02*
X131735292Y-140019028D01*
X131735292Y-140019028D02*
X131792435Y-140133314D01*
X131792435Y-140133314D02*
X131906720Y-140247600D01*
X131906720Y-140247600D02*
X132078149Y-140304742D01*
X132078149Y-140304742D02*
X132192435Y-140304742D01*
X132192435Y-140304742D02*
X132363863Y-140247600D01*
X132363863Y-140247600D02*
X132421006Y-140190457D01*
X132421006Y-140190457D02*
X132421006Y-139790457D01*
X132421006Y-139790457D02*
X132192435Y-139790457D01*
X132935292Y-140304742D02*
X132935292Y-139104742D01*
X132935292Y-139104742D02*
X133621006Y-140304742D01*
X133621006Y-140304742D02*
X133621006Y-139104742D01*
X134192435Y-140304742D02*
X134192435Y-139104742D01*
X134192435Y-139104742D02*
X134478149Y-139104742D01*
X134478149Y-139104742D02*
X134649578Y-139161885D01*
X134649578Y-139161885D02*
X134763863Y-139276171D01*
X134763863Y-139276171D02*
X134821006Y-139390457D01*
X134821006Y-139390457D02*
X134878149Y-139619028D01*
X134878149Y-139619028D02*
X134878149Y-139790457D01*
X134878149Y-139790457D02*
X134821006Y-140019028D01*
X134821006Y-140019028D02*
X134763863Y-140133314D01*
X134763863Y-140133314D02*
X134649578Y-140247600D01*
X134649578Y-140247600D02*
X134478149Y-140304742D01*
X134478149Y-140304742D02*
X134192435Y-140304742D01*
X96238720Y-121959104D02*
X95667292Y-121959104D01*
X95667292Y-121959104D02*
X95610149Y-122482914D01*
X95610149Y-122482914D02*
X95667292Y-122430533D01*
X95667292Y-122430533D02*
X95781578Y-122378152D01*
X95781578Y-122378152D02*
X96067292Y-122378152D01*
X96067292Y-122378152D02*
X96181578Y-122430533D01*
X96181578Y-122430533D02*
X96238720Y-122482914D01*
X96238720Y-122482914D02*
X96295863Y-122587676D01*
X96295863Y-122587676D02*
X96295863Y-122849581D01*
X96295863Y-122849581D02*
X96238720Y-122954343D01*
X96238720Y-122954343D02*
X96181578Y-123006724D01*
X96181578Y-123006724D02*
X96067292Y-123059104D01*
X96067292Y-123059104D02*
X95781578Y-123059104D01*
X95781578Y-123059104D02*
X95667292Y-123006724D01*
X95667292Y-123006724D02*
X95610149Y-122954343D01*
X96638720Y-121959104D02*
X97038720Y-123059104D01*
X97038720Y-123059104D02*
X97438720Y-121959104D01*
X98067291Y-121959104D02*
X98181577Y-121959104D01*
X98181577Y-121959104D02*
X98295863Y-122011485D01*
X98295863Y-122011485D02*
X98353006Y-122063866D01*
X98353006Y-122063866D02*
X98410148Y-122168628D01*
X98410148Y-122168628D02*
X98467291Y-122378152D01*
X98467291Y-122378152D02*
X98467291Y-122640057D01*
X98467291Y-122640057D02*
X98410148Y-122849581D01*
X98410148Y-122849581D02*
X98353006Y-122954343D01*
X98353006Y-122954343D02*
X98295863Y-123006724D01*
X98295863Y-123006724D02*
X98181577Y-123059104D01*
X98181577Y-123059104D02*
X98067291Y-123059104D01*
X98067291Y-123059104D02*
X97953006Y-123006724D01*
X97953006Y-123006724D02*
X97895863Y-122954343D01*
X97895863Y-122954343D02*
X97838720Y-122849581D01*
X97838720Y-122849581D02*
X97781577Y-122640057D01*
X97781577Y-122640057D02*
X97781577Y-122378152D01*
X97781577Y-122378152D02*
X97838720Y-122168628D01*
X97838720Y-122168628D02*
X97895863Y-122063866D01*
X97895863Y-122063866D02*
X97953006Y-122011485D01*
X97953006Y-122011485D02*
X98067291Y-121959104D01*
X95553006Y-125500980D02*
X96295863Y-125500980D01*
X96295863Y-125500980D02*
X95895863Y-125920028D01*
X95895863Y-125920028D02*
X96067292Y-125920028D01*
X96067292Y-125920028D02*
X96181578Y-125972409D01*
X96181578Y-125972409D02*
X96238720Y-126024790D01*
X96238720Y-126024790D02*
X96295863Y-126129552D01*
X96295863Y-126129552D02*
X96295863Y-126391457D01*
X96295863Y-126391457D02*
X96238720Y-126496219D01*
X96238720Y-126496219D02*
X96181578Y-126548600D01*
X96181578Y-126548600D02*
X96067292Y-126600980D01*
X96067292Y-126600980D02*
X95724435Y-126600980D01*
X95724435Y-126600980D02*
X95610149Y-126548600D01*
X95610149Y-126548600D02*
X95553006Y-126496219D01*
X96638720Y-125500980D02*
X97038720Y-126600980D01*
X97038720Y-126600980D02*
X97438720Y-125500980D01*
X97724434Y-125500980D02*
X98467291Y-125500980D01*
X98467291Y-125500980D02*
X98067291Y-125920028D01*
X98067291Y-125920028D02*
X98238720Y-125920028D01*
X98238720Y-125920028D02*
X98353006Y-125972409D01*
X98353006Y-125972409D02*
X98410148Y-126024790D01*
X98410148Y-126024790D02*
X98467291Y-126129552D01*
X98467291Y-126129552D02*
X98467291Y-126391457D01*
X98467291Y-126391457D02*
X98410148Y-126496219D01*
X98410148Y-126496219D02*
X98353006Y-126548600D01*
X98353006Y-126548600D02*
X98238720Y-126600980D01*
X98238720Y-126600980D02*
X97895863Y-126600980D01*
X97895863Y-126600980D02*
X97781577Y-126548600D01*
X97781577Y-126548600D02*
X97724434Y-126496219D01*
X131989292Y-137136171D02*
X132389292Y-137136171D01*
X132560720Y-137764742D02*
X131989292Y-137764742D01*
X131989292Y-137764742D02*
X131989292Y-136564742D01*
X131989292Y-136564742D02*
X132560720Y-136564742D01*
X132960720Y-137764742D02*
X133589292Y-136964742D01*
X132960720Y-136964742D02*
X133589292Y-137764742D01*
X133875006Y-136964742D02*
X134332149Y-136964742D01*
X134046435Y-136564742D02*
X134046435Y-137593314D01*
X134046435Y-137593314D02*
X134103578Y-137707600D01*
X134103578Y-137707600D02*
X134217863Y-137764742D01*
X134217863Y-137764742D02*
X134332149Y-137764742D01*
D10*
X136193884Y-47452531D02*
X136193884Y-46452531D01*
X136193884Y-46452531D02*
X136574836Y-46452531D01*
X136574836Y-46452531D02*
X136670074Y-46500150D01*
X136670074Y-46500150D02*
X136717693Y-46547769D01*
X136717693Y-46547769D02*
X136765312Y-46643007D01*
X136765312Y-46643007D02*
X136765312Y-46785864D01*
X136765312Y-46785864D02*
X136717693Y-46881102D01*
X136717693Y-46881102D02*
X136670074Y-46928721D01*
X136670074Y-46928721D02*
X136574836Y-46976340D01*
X136574836Y-46976340D02*
X136193884Y-46976340D01*
X137336741Y-47452531D02*
X137241503Y-47404912D01*
X137241503Y-47404912D02*
X137193884Y-47357292D01*
X137193884Y-47357292D02*
X137146265Y-47262054D01*
X137146265Y-47262054D02*
X137146265Y-46976340D01*
X137146265Y-46976340D02*
X137193884Y-46881102D01*
X137193884Y-46881102D02*
X137241503Y-46833483D01*
X137241503Y-46833483D02*
X137336741Y-46785864D01*
X137336741Y-46785864D02*
X137479598Y-46785864D01*
X137479598Y-46785864D02*
X137574836Y-46833483D01*
X137574836Y-46833483D02*
X137622455Y-46881102D01*
X137622455Y-46881102D02*
X137670074Y-46976340D01*
X137670074Y-46976340D02*
X137670074Y-47262054D01*
X137670074Y-47262054D02*
X137622455Y-47357292D01*
X137622455Y-47357292D02*
X137574836Y-47404912D01*
X137574836Y-47404912D02*
X137479598Y-47452531D01*
X137479598Y-47452531D02*
X137336741Y-47452531D01*
X138241503Y-47452531D02*
X138146265Y-47404912D01*
X138146265Y-47404912D02*
X138098646Y-47357292D01*
X138098646Y-47357292D02*
X138051027Y-47262054D01*
X138051027Y-47262054D02*
X138051027Y-46976340D01*
X138051027Y-46976340D02*
X138098646Y-46881102D01*
X138098646Y-46881102D02*
X138146265Y-46833483D01*
X138146265Y-46833483D02*
X138241503Y-46785864D01*
X138241503Y-46785864D02*
X138384360Y-46785864D01*
X138384360Y-46785864D02*
X138479598Y-46833483D01*
X138479598Y-46833483D02*
X138527217Y-46881102D01*
X138527217Y-46881102D02*
X138574836Y-46976340D01*
X138574836Y-46976340D02*
X138574836Y-47262054D01*
X138574836Y-47262054D02*
X138527217Y-47357292D01*
X138527217Y-47357292D02*
X138479598Y-47404912D01*
X138479598Y-47404912D02*
X138384360Y-47452531D01*
X138384360Y-47452531D02*
X138241503Y-47452531D01*
X139003408Y-47452531D02*
X139003408Y-46785864D01*
X139003408Y-46976340D02*
X139051027Y-46881102D01*
X139051027Y-46881102D02*
X139098646Y-46833483D01*
X139098646Y-46833483D02*
X139193884Y-46785864D01*
X139193884Y-46785864D02*
X139289122Y-46785864D01*
X139622456Y-47452531D02*
X139622456Y-46785864D01*
X139622456Y-46881102D02*
X139670075Y-46833483D01*
X139670075Y-46833483D02*
X139765313Y-46785864D01*
X139765313Y-46785864D02*
X139908170Y-46785864D01*
X139908170Y-46785864D02*
X140003408Y-46833483D01*
X140003408Y-46833483D02*
X140051027Y-46928721D01*
X140051027Y-46928721D02*
X140051027Y-47452531D01*
X140051027Y-46928721D02*
X140098646Y-46833483D01*
X140098646Y-46833483D02*
X140193884Y-46785864D01*
X140193884Y-46785864D02*
X140336741Y-46785864D01*
X140336741Y-46785864D02*
X140431980Y-46833483D01*
X140431980Y-46833483D02*
X140479599Y-46928721D01*
X140479599Y-46928721D02*
X140479599Y-47452531D01*
X141384360Y-47452531D02*
X141384360Y-46928721D01*
X141384360Y-46928721D02*
X141336741Y-46833483D01*
X141336741Y-46833483D02*
X141241503Y-46785864D01*
X141241503Y-46785864D02*
X141051027Y-46785864D01*
X141051027Y-46785864D02*
X140955789Y-46833483D01*
X141384360Y-47404912D02*
X141289122Y-47452531D01*
X141289122Y-47452531D02*
X141051027Y-47452531D01*
X141051027Y-47452531D02*
X140955789Y-47404912D01*
X140955789Y-47404912D02*
X140908170Y-47309673D01*
X140908170Y-47309673D02*
X140908170Y-47214435D01*
X140908170Y-47214435D02*
X140955789Y-47119197D01*
X140955789Y-47119197D02*
X141051027Y-47071578D01*
X141051027Y-47071578D02*
X141289122Y-47071578D01*
X141289122Y-47071578D02*
X141384360Y-47023959D01*
X141860551Y-46785864D02*
X141860551Y-47452531D01*
X141860551Y-46881102D02*
X141908170Y-46833483D01*
X141908170Y-46833483D02*
X142003408Y-46785864D01*
X142003408Y-46785864D02*
X142146265Y-46785864D01*
X142146265Y-46785864D02*
X142241503Y-46833483D01*
X142241503Y-46833483D02*
X142289122Y-46928721D01*
X142289122Y-46928721D02*
X142289122Y-47452531D01*
X142812932Y-46452531D02*
X142717694Y-46643007D01*
X143193884Y-47404912D02*
X143289122Y-47452531D01*
X143289122Y-47452531D02*
X143479598Y-47452531D01*
X143479598Y-47452531D02*
X143574836Y-47404912D01*
X143574836Y-47404912D02*
X143622455Y-47309673D01*
X143622455Y-47309673D02*
X143622455Y-47262054D01*
X143622455Y-47262054D02*
X143574836Y-47166816D01*
X143574836Y-47166816D02*
X143479598Y-47119197D01*
X143479598Y-47119197D02*
X143336741Y-47119197D01*
X143336741Y-47119197D02*
X143241503Y-47071578D01*
X143241503Y-47071578D02*
X143193884Y-46976340D01*
X143193884Y-46976340D02*
X143193884Y-46928721D01*
X143193884Y-46928721D02*
X143241503Y-46833483D01*
X143241503Y-46833483D02*
X143336741Y-46785864D01*
X143336741Y-46785864D02*
X143479598Y-46785864D01*
X143479598Y-46785864D02*
X143574836Y-46833483D01*
X144765313Y-47404912D02*
X144908170Y-47452531D01*
X144908170Y-47452531D02*
X145146265Y-47452531D01*
X145146265Y-47452531D02*
X145241503Y-47404912D01*
X145241503Y-47404912D02*
X145289122Y-47357292D01*
X145289122Y-47357292D02*
X145336741Y-47262054D01*
X145336741Y-47262054D02*
X145336741Y-47166816D01*
X145336741Y-47166816D02*
X145289122Y-47071578D01*
X145289122Y-47071578D02*
X145241503Y-47023959D01*
X145241503Y-47023959D02*
X145146265Y-46976340D01*
X145146265Y-46976340D02*
X144955789Y-46928721D01*
X144955789Y-46928721D02*
X144860551Y-46881102D01*
X144860551Y-46881102D02*
X144812932Y-46833483D01*
X144812932Y-46833483D02*
X144765313Y-46738245D01*
X144765313Y-46738245D02*
X144765313Y-46643007D01*
X144765313Y-46643007D02*
X144812932Y-46547769D01*
X144812932Y-46547769D02*
X144860551Y-46500150D01*
X144860551Y-46500150D02*
X144955789Y-46452531D01*
X144955789Y-46452531D02*
X145193884Y-46452531D01*
X145193884Y-46452531D02*
X145336741Y-46500150D01*
X145622456Y-46785864D02*
X146003408Y-46785864D01*
X145765313Y-46452531D02*
X145765313Y-47309673D01*
X145765313Y-47309673D02*
X145812932Y-47404912D01*
X145812932Y-47404912D02*
X145908170Y-47452531D01*
X145908170Y-47452531D02*
X146003408Y-47452531D01*
X146765313Y-47452531D02*
X146765313Y-46928721D01*
X146765313Y-46928721D02*
X146717694Y-46833483D01*
X146717694Y-46833483D02*
X146622456Y-46785864D01*
X146622456Y-46785864D02*
X146431980Y-46785864D01*
X146431980Y-46785864D02*
X146336742Y-46833483D01*
X146765313Y-47404912D02*
X146670075Y-47452531D01*
X146670075Y-47452531D02*
X146431980Y-47452531D01*
X146431980Y-47452531D02*
X146336742Y-47404912D01*
X146336742Y-47404912D02*
X146289123Y-47309673D01*
X146289123Y-47309673D02*
X146289123Y-47214435D01*
X146289123Y-47214435D02*
X146336742Y-47119197D01*
X146336742Y-47119197D02*
X146431980Y-47071578D01*
X146431980Y-47071578D02*
X146670075Y-47071578D01*
X146670075Y-47071578D02*
X146765313Y-47023959D01*
X147241504Y-46785864D02*
X147241504Y-47452531D01*
X147241504Y-46881102D02*
X147289123Y-46833483D01*
X147289123Y-46833483D02*
X147384361Y-46785864D01*
X147384361Y-46785864D02*
X147527218Y-46785864D01*
X147527218Y-46785864D02*
X147622456Y-46833483D01*
X147622456Y-46833483D02*
X147670075Y-46928721D01*
X147670075Y-46928721D02*
X147670075Y-47452531D01*
X148574837Y-47452531D02*
X148574837Y-46452531D01*
X148574837Y-47404912D02*
X148479599Y-47452531D01*
X148479599Y-47452531D02*
X148289123Y-47452531D01*
X148289123Y-47452531D02*
X148193885Y-47404912D01*
X148193885Y-47404912D02*
X148146266Y-47357292D01*
X148146266Y-47357292D02*
X148098647Y-47262054D01*
X148098647Y-47262054D02*
X148098647Y-46976340D01*
X148098647Y-46976340D02*
X148146266Y-46881102D01*
X148146266Y-46881102D02*
X148193885Y-46833483D01*
X148193885Y-46833483D02*
X148289123Y-46785864D01*
X148289123Y-46785864D02*
X148479599Y-46785864D01*
X148479599Y-46785864D02*
X148574837Y-46833483D01*
X149479599Y-47452531D02*
X149479599Y-46928721D01*
X149479599Y-46928721D02*
X149431980Y-46833483D01*
X149431980Y-46833483D02*
X149336742Y-46785864D01*
X149336742Y-46785864D02*
X149146266Y-46785864D01*
X149146266Y-46785864D02*
X149051028Y-46833483D01*
X149479599Y-47404912D02*
X149384361Y-47452531D01*
X149384361Y-47452531D02*
X149146266Y-47452531D01*
X149146266Y-47452531D02*
X149051028Y-47404912D01*
X149051028Y-47404912D02*
X149003409Y-47309673D01*
X149003409Y-47309673D02*
X149003409Y-47214435D01*
X149003409Y-47214435D02*
X149051028Y-47119197D01*
X149051028Y-47119197D02*
X149146266Y-47071578D01*
X149146266Y-47071578D02*
X149384361Y-47071578D01*
X149384361Y-47071578D02*
X149479599Y-47023959D01*
X149955790Y-47452531D02*
X149955790Y-46785864D01*
X149955790Y-46976340D02*
X150003409Y-46881102D01*
X150003409Y-46881102D02*
X150051028Y-46833483D01*
X150051028Y-46833483D02*
X150146266Y-46785864D01*
X150146266Y-46785864D02*
X150241504Y-46785864D01*
X151003409Y-47452531D02*
X151003409Y-46452531D01*
X151003409Y-47404912D02*
X150908171Y-47452531D01*
X150908171Y-47452531D02*
X150717695Y-47452531D01*
X150717695Y-47452531D02*
X150622457Y-47404912D01*
X150622457Y-47404912D02*
X150574838Y-47357292D01*
X150574838Y-47357292D02*
X150527219Y-47262054D01*
X150527219Y-47262054D02*
X150527219Y-46976340D01*
X150527219Y-46976340D02*
X150574838Y-46881102D01*
X150574838Y-46881102D02*
X150622457Y-46833483D01*
X150622457Y-46833483D02*
X150717695Y-46785864D01*
X150717695Y-46785864D02*
X150908171Y-46785864D01*
X150908171Y-46785864D02*
X151003409Y-46833483D01*
X152812933Y-47357292D02*
X152765314Y-47404912D01*
X152765314Y-47404912D02*
X152622457Y-47452531D01*
X152622457Y-47452531D02*
X152527219Y-47452531D01*
X152527219Y-47452531D02*
X152384362Y-47404912D01*
X152384362Y-47404912D02*
X152289124Y-47309673D01*
X152289124Y-47309673D02*
X152241505Y-47214435D01*
X152241505Y-47214435D02*
X152193886Y-47023959D01*
X152193886Y-47023959D02*
X152193886Y-46881102D01*
X152193886Y-46881102D02*
X152241505Y-46690626D01*
X152241505Y-46690626D02*
X152289124Y-46595388D01*
X152289124Y-46595388D02*
X152384362Y-46500150D01*
X152384362Y-46500150D02*
X152527219Y-46452531D01*
X152527219Y-46452531D02*
X152622457Y-46452531D01*
X152622457Y-46452531D02*
X152765314Y-46500150D01*
X152765314Y-46500150D02*
X152812933Y-46547769D01*
X153384362Y-47452531D02*
X153289124Y-47404912D01*
X153289124Y-47404912D02*
X153241505Y-47357292D01*
X153241505Y-47357292D02*
X153193886Y-47262054D01*
X153193886Y-47262054D02*
X153193886Y-46976340D01*
X153193886Y-46976340D02*
X153241505Y-46881102D01*
X153241505Y-46881102D02*
X153289124Y-46833483D01*
X153289124Y-46833483D02*
X153384362Y-46785864D01*
X153384362Y-46785864D02*
X153527219Y-46785864D01*
X153527219Y-46785864D02*
X153622457Y-46833483D01*
X153622457Y-46833483D02*
X153670076Y-46881102D01*
X153670076Y-46881102D02*
X153717695Y-46976340D01*
X153717695Y-46976340D02*
X153717695Y-47262054D01*
X153717695Y-47262054D02*
X153670076Y-47357292D01*
X153670076Y-47357292D02*
X153622457Y-47404912D01*
X153622457Y-47404912D02*
X153527219Y-47452531D01*
X153527219Y-47452531D02*
X153384362Y-47452531D01*
X154146267Y-47071578D02*
X154908172Y-47071578D01*
X155384362Y-46928721D02*
X155717695Y-46928721D01*
X155860552Y-47452531D02*
X155384362Y-47452531D01*
X155384362Y-47452531D02*
X155384362Y-46452531D01*
X155384362Y-46452531D02*
X155860552Y-46452531D01*
X156289124Y-47452531D02*
X156289124Y-46785864D01*
X156289124Y-46881102D02*
X156336743Y-46833483D01*
X156336743Y-46833483D02*
X156431981Y-46785864D01*
X156431981Y-46785864D02*
X156574838Y-46785864D01*
X156574838Y-46785864D02*
X156670076Y-46833483D01*
X156670076Y-46833483D02*
X156717695Y-46928721D01*
X156717695Y-46928721D02*
X156717695Y-47452531D01*
X156717695Y-46928721D02*
X156765314Y-46833483D01*
X156765314Y-46833483D02*
X156860552Y-46785864D01*
X156860552Y-46785864D02*
X157003409Y-46785864D01*
X157003409Y-46785864D02*
X157098648Y-46833483D01*
X157098648Y-46833483D02*
X157146267Y-46928721D01*
X157146267Y-46928721D02*
X157146267Y-47452531D01*
X158051028Y-46785864D02*
X158051028Y-47452531D01*
X157622457Y-46785864D02*
X157622457Y-47309673D01*
X157622457Y-47309673D02*
X157670076Y-47404912D01*
X157670076Y-47404912D02*
X157765314Y-47452531D01*
X157765314Y-47452531D02*
X157908171Y-47452531D01*
X157908171Y-47452531D02*
X158003409Y-47404912D01*
X158003409Y-47404912D02*
X158051028Y-47357292D01*
X158670076Y-47452531D02*
X158574838Y-47404912D01*
X158574838Y-47404912D02*
X158527219Y-47309673D01*
X158527219Y-47309673D02*
X158527219Y-46452531D01*
X159479600Y-47452531D02*
X159479600Y-46928721D01*
X159479600Y-46928721D02*
X159431981Y-46833483D01*
X159431981Y-46833483D02*
X159336743Y-46785864D01*
X159336743Y-46785864D02*
X159146267Y-46785864D01*
X159146267Y-46785864D02*
X159051029Y-46833483D01*
X159479600Y-47404912D02*
X159384362Y-47452531D01*
X159384362Y-47452531D02*
X159146267Y-47452531D01*
X159146267Y-47452531D02*
X159051029Y-47404912D01*
X159051029Y-47404912D02*
X159003410Y-47309673D01*
X159003410Y-47309673D02*
X159003410Y-47214435D01*
X159003410Y-47214435D02*
X159051029Y-47119197D01*
X159051029Y-47119197D02*
X159146267Y-47071578D01*
X159146267Y-47071578D02*
X159384362Y-47071578D01*
X159384362Y-47071578D02*
X159479600Y-47023959D01*
X159812934Y-46785864D02*
X160193886Y-46785864D01*
X159955791Y-46452531D02*
X159955791Y-47309673D01*
X159955791Y-47309673D02*
X160003410Y-47404912D01*
X160003410Y-47404912D02*
X160098648Y-47452531D01*
X160098648Y-47452531D02*
X160193886Y-47452531D01*
X160670077Y-47452531D02*
X160574839Y-47404912D01*
X160574839Y-47404912D02*
X160527220Y-47357292D01*
X160527220Y-47357292D02*
X160479601Y-47262054D01*
X160479601Y-47262054D02*
X160479601Y-46976340D01*
X160479601Y-46976340D02*
X160527220Y-46881102D01*
X160527220Y-46881102D02*
X160574839Y-46833483D01*
X160574839Y-46833483D02*
X160670077Y-46785864D01*
X160670077Y-46785864D02*
X160812934Y-46785864D01*
X160812934Y-46785864D02*
X160908172Y-46833483D01*
X160908172Y-46833483D02*
X160955791Y-46881102D01*
X160955791Y-46881102D02*
X161003410Y-46976340D01*
X161003410Y-46976340D02*
X161003410Y-47262054D01*
X161003410Y-47262054D02*
X160955791Y-47357292D01*
X160955791Y-47357292D02*
X160908172Y-47404912D01*
X160908172Y-47404912D02*
X160812934Y-47452531D01*
X160812934Y-47452531D02*
X160670077Y-47452531D01*
X161431982Y-47452531D02*
X161431982Y-46785864D01*
X161431982Y-46976340D02*
X161479601Y-46881102D01*
X161479601Y-46881102D02*
X161527220Y-46833483D01*
X161527220Y-46833483D02*
X161622458Y-46785864D01*
X161622458Y-46785864D02*
X161717696Y-46785864D01*
X136527217Y-48538665D02*
X136193884Y-48538665D01*
X136193884Y-49062475D02*
X136193884Y-48062475D01*
X136193884Y-48062475D02*
X136670074Y-48062475D01*
X137051027Y-49062475D02*
X137051027Y-48062475D01*
X137051027Y-48062475D02*
X137431979Y-48062475D01*
X137431979Y-48062475D02*
X137527217Y-48110094D01*
X137527217Y-48110094D02*
X137574836Y-48157713D01*
X137574836Y-48157713D02*
X137622455Y-48252951D01*
X137622455Y-48252951D02*
X137622455Y-48395808D01*
X137622455Y-48395808D02*
X137574836Y-48491046D01*
X137574836Y-48491046D02*
X137527217Y-48538665D01*
X137527217Y-48538665D02*
X137431979Y-48586284D01*
X137431979Y-48586284D02*
X137051027Y-48586284D01*
X138574836Y-48110094D02*
X138479598Y-48062475D01*
X138479598Y-48062475D02*
X138336741Y-48062475D01*
X138336741Y-48062475D02*
X138193884Y-48110094D01*
X138193884Y-48110094D02*
X138098646Y-48205332D01*
X138098646Y-48205332D02*
X138051027Y-48300570D01*
X138051027Y-48300570D02*
X138003408Y-48491046D01*
X138003408Y-48491046D02*
X138003408Y-48633903D01*
X138003408Y-48633903D02*
X138051027Y-48824379D01*
X138051027Y-48824379D02*
X138098646Y-48919617D01*
X138098646Y-48919617D02*
X138193884Y-49014856D01*
X138193884Y-49014856D02*
X138336741Y-49062475D01*
X138336741Y-49062475D02*
X138431979Y-49062475D01*
X138431979Y-49062475D02*
X138574836Y-49014856D01*
X138574836Y-49014856D02*
X138622455Y-48967236D01*
X138622455Y-48967236D02*
X138622455Y-48633903D01*
X138622455Y-48633903D02*
X138431979Y-48633903D01*
X139003408Y-48776760D02*
X139479598Y-48776760D01*
X138908170Y-49062475D02*
X139241503Y-48062475D01*
X139241503Y-48062475D02*
X139574836Y-49062475D01*
X139908170Y-48967236D02*
X139955789Y-49014856D01*
X139955789Y-49014856D02*
X139908170Y-49062475D01*
X139908170Y-49062475D02*
X139860551Y-49014856D01*
X139860551Y-49014856D02*
X139908170Y-48967236D01*
X139908170Y-48967236D02*
X139908170Y-49062475D01*
X139908170Y-48443427D02*
X139955789Y-48491046D01*
X139955789Y-48491046D02*
X139908170Y-48538665D01*
X139908170Y-48538665D02*
X139860551Y-48491046D01*
X139860551Y-48491046D02*
X139908170Y-48443427D01*
X139908170Y-48443427D02*
X139908170Y-48538665D01*
X141717693Y-48967236D02*
X141670074Y-49014856D01*
X141670074Y-49014856D02*
X141527217Y-49062475D01*
X141527217Y-49062475D02*
X141431979Y-49062475D01*
X141431979Y-49062475D02*
X141289122Y-49014856D01*
X141289122Y-49014856D02*
X141193884Y-48919617D01*
X141193884Y-48919617D02*
X141146265Y-48824379D01*
X141146265Y-48824379D02*
X141098646Y-48633903D01*
X141098646Y-48633903D02*
X141098646Y-48491046D01*
X141098646Y-48491046D02*
X141146265Y-48300570D01*
X141146265Y-48300570D02*
X141193884Y-48205332D01*
X141193884Y-48205332D02*
X141289122Y-48110094D01*
X141289122Y-48110094D02*
X141431979Y-48062475D01*
X141431979Y-48062475D02*
X141527217Y-48062475D01*
X141527217Y-48062475D02*
X141670074Y-48110094D01*
X141670074Y-48110094D02*
X141717693Y-48157713D01*
X142051027Y-48395808D02*
X142289122Y-49062475D01*
X142527217Y-48395808D02*
X142289122Y-49062475D01*
X142289122Y-49062475D02*
X142193884Y-49300570D01*
X142193884Y-49300570D02*
X142146265Y-49348189D01*
X142146265Y-49348189D02*
X142051027Y-49395808D01*
X143336741Y-49014856D02*
X143241503Y-49062475D01*
X143241503Y-49062475D02*
X143051027Y-49062475D01*
X143051027Y-49062475D02*
X142955789Y-49014856D01*
X142955789Y-49014856D02*
X142908170Y-48967236D01*
X142908170Y-48967236D02*
X142860551Y-48871998D01*
X142860551Y-48871998D02*
X142860551Y-48586284D01*
X142860551Y-48586284D02*
X142908170Y-48491046D01*
X142908170Y-48491046D02*
X142955789Y-48443427D01*
X142955789Y-48443427D02*
X143051027Y-48395808D01*
X143051027Y-48395808D02*
X143241503Y-48395808D01*
X143241503Y-48395808D02*
X143336741Y-48443427D01*
X143908170Y-49062475D02*
X143812932Y-49014856D01*
X143812932Y-49014856D02*
X143765313Y-48919617D01*
X143765313Y-48919617D02*
X143765313Y-48062475D01*
X144431980Y-49062475D02*
X144336742Y-49014856D01*
X144336742Y-49014856D02*
X144289123Y-48967236D01*
X144289123Y-48967236D02*
X144241504Y-48871998D01*
X144241504Y-48871998D02*
X144241504Y-48586284D01*
X144241504Y-48586284D02*
X144289123Y-48491046D01*
X144289123Y-48491046D02*
X144336742Y-48443427D01*
X144336742Y-48443427D02*
X144431980Y-48395808D01*
X144431980Y-48395808D02*
X144574837Y-48395808D01*
X144574837Y-48395808D02*
X144670075Y-48443427D01*
X144670075Y-48443427D02*
X144717694Y-48491046D01*
X144717694Y-48491046D02*
X144765313Y-48586284D01*
X144765313Y-48586284D02*
X144765313Y-48871998D01*
X144765313Y-48871998D02*
X144717694Y-48967236D01*
X144717694Y-48967236D02*
X144670075Y-49014856D01*
X144670075Y-49014856D02*
X144574837Y-49062475D01*
X144574837Y-49062475D02*
X144431980Y-49062475D01*
X145193885Y-48395808D02*
X145193885Y-49062475D01*
X145193885Y-48491046D02*
X145241504Y-48443427D01*
X145241504Y-48443427D02*
X145336742Y-48395808D01*
X145336742Y-48395808D02*
X145479599Y-48395808D01*
X145479599Y-48395808D02*
X145574837Y-48443427D01*
X145574837Y-48443427D02*
X145622456Y-48538665D01*
X145622456Y-48538665D02*
X145622456Y-49062475D01*
X146479599Y-49014856D02*
X146384361Y-49062475D01*
X146384361Y-49062475D02*
X146193885Y-49062475D01*
X146193885Y-49062475D02*
X146098647Y-49014856D01*
X146098647Y-49014856D02*
X146051028Y-48919617D01*
X146051028Y-48919617D02*
X146051028Y-48538665D01*
X146051028Y-48538665D02*
X146098647Y-48443427D01*
X146098647Y-48443427D02*
X146193885Y-48395808D01*
X146193885Y-48395808D02*
X146384361Y-48395808D01*
X146384361Y-48395808D02*
X146479599Y-48443427D01*
X146479599Y-48443427D02*
X146527218Y-48538665D01*
X146527218Y-48538665D02*
X146527218Y-48633903D01*
X146527218Y-48633903D02*
X146051028Y-48729141D01*
X146955790Y-49062475D02*
X146955790Y-48062475D01*
X147289123Y-48062475D02*
X147622456Y-49062475D01*
X147622456Y-49062475D02*
X147955789Y-48062475D01*
X149051028Y-48538665D02*
X149384361Y-48538665D01*
X149527218Y-49062475D02*
X149051028Y-49062475D01*
X149051028Y-49062475D02*
X149051028Y-48062475D01*
X149051028Y-48062475D02*
X149527218Y-48062475D01*
X149955790Y-49062475D02*
X149955790Y-48062475D01*
X149955790Y-48062475D02*
X150336742Y-48062475D01*
X150336742Y-48062475D02*
X150431980Y-48110094D01*
X150431980Y-48110094D02*
X150479599Y-48157713D01*
X150479599Y-48157713D02*
X150527218Y-48252951D01*
X150527218Y-48252951D02*
X150527218Y-48395808D01*
X150527218Y-48395808D02*
X150479599Y-48491046D01*
X150479599Y-48491046D02*
X150431980Y-48538665D01*
X150431980Y-48538665D02*
X150336742Y-48586284D01*
X150336742Y-48586284D02*
X149955790Y-48586284D01*
X151384361Y-48395808D02*
X151384361Y-49062475D01*
X151146266Y-48014856D02*
X150908171Y-48729141D01*
X150908171Y-48729141D02*
X151527218Y-48729141D01*
X152479599Y-48967236D02*
X152431980Y-49014856D01*
X152431980Y-49014856D02*
X152289123Y-49062475D01*
X152289123Y-49062475D02*
X152193885Y-49062475D01*
X152193885Y-49062475D02*
X152051028Y-49014856D01*
X152051028Y-49014856D02*
X151955790Y-48919617D01*
X151955790Y-48919617D02*
X151908171Y-48824379D01*
X151908171Y-48824379D02*
X151860552Y-48633903D01*
X151860552Y-48633903D02*
X151860552Y-48491046D01*
X151860552Y-48491046D02*
X151908171Y-48300570D01*
X151908171Y-48300570D02*
X151955790Y-48205332D01*
X151955790Y-48205332D02*
X152051028Y-48110094D01*
X152051028Y-48110094D02*
X152193885Y-48062475D01*
X152193885Y-48062475D02*
X152289123Y-48062475D01*
X152289123Y-48062475D02*
X152431980Y-48110094D01*
X152431980Y-48110094D02*
X152479599Y-48157713D01*
X152908171Y-48538665D02*
X153241504Y-48538665D01*
X153384361Y-49062475D02*
X152908171Y-49062475D01*
X152908171Y-49062475D02*
X152908171Y-48062475D01*
X152908171Y-48062475D02*
X153384361Y-48062475D01*
X154241504Y-48062475D02*
X154051028Y-48062475D01*
X154051028Y-48062475D02*
X153955790Y-48110094D01*
X153955790Y-48110094D02*
X153908171Y-48157713D01*
X153908171Y-48157713D02*
X153812933Y-48300570D01*
X153812933Y-48300570D02*
X153765314Y-48491046D01*
X153765314Y-48491046D02*
X153765314Y-48871998D01*
X153765314Y-48871998D02*
X153812933Y-48967236D01*
X153812933Y-48967236D02*
X153860552Y-49014856D01*
X153860552Y-49014856D02*
X153955790Y-49062475D01*
X153955790Y-49062475D02*
X154146266Y-49062475D01*
X154146266Y-49062475D02*
X154241504Y-49014856D01*
X154241504Y-49014856D02*
X154289123Y-48967236D01*
X154289123Y-48967236D02*
X154336742Y-48871998D01*
X154336742Y-48871998D02*
X154336742Y-48633903D01*
X154336742Y-48633903D02*
X154289123Y-48538665D01*
X154289123Y-48538665D02*
X154241504Y-48491046D01*
X154241504Y-48491046D02*
X154146266Y-48443427D01*
X154146266Y-48443427D02*
X153955790Y-48443427D01*
X153955790Y-48443427D02*
X153860552Y-48491046D01*
X153860552Y-48491046D02*
X153812933Y-48538665D01*
X153812933Y-48538665D02*
X153765314Y-48633903D01*
X154765314Y-48681522D02*
X155527219Y-48681522D01*
X156003409Y-48538665D02*
X156336742Y-48538665D01*
X156479599Y-49062475D02*
X156003409Y-49062475D01*
X156003409Y-49062475D02*
X156003409Y-48062475D01*
X156003409Y-48062475D02*
X156479599Y-48062475D01*
X157431980Y-49062475D02*
X156860552Y-49062475D01*
X157146266Y-49062475D02*
X157146266Y-48062475D01*
X157146266Y-48062475D02*
X157051028Y-48205332D01*
X157051028Y-48205332D02*
X156955790Y-48300570D01*
X156955790Y-48300570D02*
X156860552Y-48348189D01*
X158289123Y-48395808D02*
X158289123Y-49062475D01*
X158051028Y-48014856D02*
X157812933Y-48729141D01*
X157812933Y-48729141D02*
X158431980Y-48729141D01*
X159241504Y-48395808D02*
X159241504Y-49062475D01*
X159003409Y-48014856D02*
X158765314Y-48729141D01*
X158765314Y-48729141D02*
X159384361Y-48729141D01*
X136479598Y-51053371D02*
X136431979Y-51005752D01*
X136431979Y-51005752D02*
X136336741Y-50862895D01*
X136336741Y-50862895D02*
X136289122Y-50767657D01*
X136289122Y-50767657D02*
X136241503Y-50624800D01*
X136241503Y-50624800D02*
X136193884Y-50386704D01*
X136193884Y-50386704D02*
X136193884Y-50196228D01*
X136193884Y-50196228D02*
X136241503Y-49958133D01*
X136241503Y-49958133D02*
X136289122Y-49815276D01*
X136289122Y-49815276D02*
X136336741Y-49720038D01*
X136336741Y-49720038D02*
X136431979Y-49577180D01*
X136431979Y-49577180D02*
X136479598Y-49529561D01*
X137289122Y-50624800D02*
X137193884Y-50672419D01*
X137193884Y-50672419D02*
X137003408Y-50672419D01*
X137003408Y-50672419D02*
X136908170Y-50624800D01*
X136908170Y-50624800D02*
X136860551Y-50577180D01*
X136860551Y-50577180D02*
X136812932Y-50481942D01*
X136812932Y-50481942D02*
X136812932Y-50196228D01*
X136812932Y-50196228D02*
X136860551Y-50100990D01*
X136860551Y-50100990D02*
X136908170Y-50053371D01*
X136908170Y-50053371D02*
X137003408Y-50005752D01*
X137003408Y-50005752D02*
X137193884Y-50005752D01*
X137193884Y-50005752D02*
X137289122Y-50053371D01*
X137622456Y-51053371D02*
X137670075Y-51005752D01*
X137670075Y-51005752D02*
X137765313Y-50862895D01*
X137765313Y-50862895D02*
X137812932Y-50767657D01*
X137812932Y-50767657D02*
X137860551Y-50624800D01*
X137860551Y-50624800D02*
X137908170Y-50386704D01*
X137908170Y-50386704D02*
X137908170Y-50196228D01*
X137908170Y-50196228D02*
X137860551Y-49958133D01*
X137860551Y-49958133D02*
X137812932Y-49815276D01*
X137812932Y-49815276D02*
X137765313Y-49720038D01*
X137765313Y-49720038D02*
X137670075Y-49577180D01*
X137670075Y-49577180D02*
X137622456Y-49529561D01*
X138336742Y-49767657D02*
X138384361Y-49720038D01*
X138384361Y-49720038D02*
X138479599Y-49672419D01*
X138479599Y-49672419D02*
X138717694Y-49672419D01*
X138717694Y-49672419D02*
X138812932Y-49720038D01*
X138812932Y-49720038D02*
X138860551Y-49767657D01*
X138860551Y-49767657D02*
X138908170Y-49862895D01*
X138908170Y-49862895D02*
X138908170Y-49958133D01*
X138908170Y-49958133D02*
X138860551Y-50100990D01*
X138860551Y-50100990D02*
X138289123Y-50672419D01*
X138289123Y-50672419D02*
X138908170Y-50672419D01*
X139527218Y-49672419D02*
X139622456Y-49672419D01*
X139622456Y-49672419D02*
X139717694Y-49720038D01*
X139717694Y-49720038D02*
X139765313Y-49767657D01*
X139765313Y-49767657D02*
X139812932Y-49862895D01*
X139812932Y-49862895D02*
X139860551Y-50053371D01*
X139860551Y-50053371D02*
X139860551Y-50291466D01*
X139860551Y-50291466D02*
X139812932Y-50481942D01*
X139812932Y-50481942D02*
X139765313Y-50577180D01*
X139765313Y-50577180D02*
X139717694Y-50624800D01*
X139717694Y-50624800D02*
X139622456Y-50672419D01*
X139622456Y-50672419D02*
X139527218Y-50672419D01*
X139527218Y-50672419D02*
X139431980Y-50624800D01*
X139431980Y-50624800D02*
X139384361Y-50577180D01*
X139384361Y-50577180D02*
X139336742Y-50481942D01*
X139336742Y-50481942D02*
X139289123Y-50291466D01*
X139289123Y-50291466D02*
X139289123Y-50053371D01*
X139289123Y-50053371D02*
X139336742Y-49862895D01*
X139336742Y-49862895D02*
X139384361Y-49767657D01*
X139384361Y-49767657D02*
X139431980Y-49720038D01*
X139431980Y-49720038D02*
X139527218Y-49672419D01*
X140241504Y-49767657D02*
X140289123Y-49720038D01*
X140289123Y-49720038D02*
X140384361Y-49672419D01*
X140384361Y-49672419D02*
X140622456Y-49672419D01*
X140622456Y-49672419D02*
X140717694Y-49720038D01*
X140717694Y-49720038D02*
X140765313Y-49767657D01*
X140765313Y-49767657D02*
X140812932Y-49862895D01*
X140812932Y-49862895D02*
X140812932Y-49958133D01*
X140812932Y-49958133D02*
X140765313Y-50100990D01*
X140765313Y-50100990D02*
X140193885Y-50672419D01*
X140193885Y-50672419D02*
X140812932Y-50672419D01*
X141717694Y-49672419D02*
X141241504Y-49672419D01*
X141241504Y-49672419D02*
X141193885Y-50148609D01*
X141193885Y-50148609D02*
X141241504Y-50100990D01*
X141241504Y-50100990D02*
X141336742Y-50053371D01*
X141336742Y-50053371D02*
X141574837Y-50053371D01*
X141574837Y-50053371D02*
X141670075Y-50100990D01*
X141670075Y-50100990D02*
X141717694Y-50148609D01*
X141717694Y-50148609D02*
X141765313Y-50243847D01*
X141765313Y-50243847D02*
X141765313Y-50481942D01*
X141765313Y-50481942D02*
X141717694Y-50577180D01*
X141717694Y-50577180D02*
X141670075Y-50624800D01*
X141670075Y-50624800D02*
X141574837Y-50672419D01*
X141574837Y-50672419D02*
X141336742Y-50672419D01*
X141336742Y-50672419D02*
X141241504Y-50624800D01*
X141241504Y-50624800D02*
X141193885Y-50577180D01*
X143479599Y-49720038D02*
X143384361Y-49672419D01*
X143384361Y-49672419D02*
X143241504Y-49672419D01*
X143241504Y-49672419D02*
X143098647Y-49720038D01*
X143098647Y-49720038D02*
X143003409Y-49815276D01*
X143003409Y-49815276D02*
X142955790Y-49910514D01*
X142955790Y-49910514D02*
X142908171Y-50100990D01*
X142908171Y-50100990D02*
X142908171Y-50243847D01*
X142908171Y-50243847D02*
X142955790Y-50434323D01*
X142955790Y-50434323D02*
X143003409Y-50529561D01*
X143003409Y-50529561D02*
X143098647Y-50624800D01*
X143098647Y-50624800D02*
X143241504Y-50672419D01*
X143241504Y-50672419D02*
X143336742Y-50672419D01*
X143336742Y-50672419D02*
X143479599Y-50624800D01*
X143479599Y-50624800D02*
X143527218Y-50577180D01*
X143527218Y-50577180D02*
X143527218Y-50243847D01*
X143527218Y-50243847D02*
X143336742Y-50243847D01*
X144098647Y-50672419D02*
X144003409Y-50624800D01*
X144003409Y-50624800D02*
X143955790Y-50577180D01*
X143955790Y-50577180D02*
X143908171Y-50481942D01*
X143908171Y-50481942D02*
X143908171Y-50196228D01*
X143908171Y-50196228D02*
X143955790Y-50100990D01*
X143955790Y-50100990D02*
X144003409Y-50053371D01*
X144003409Y-50053371D02*
X144098647Y-50005752D01*
X144098647Y-50005752D02*
X144241504Y-50005752D01*
X144241504Y-50005752D02*
X144336742Y-50053371D01*
X144336742Y-50053371D02*
X144384361Y-50100990D01*
X144384361Y-50100990D02*
X144431980Y-50196228D01*
X144431980Y-50196228D02*
X144431980Y-50481942D01*
X144431980Y-50481942D02*
X144384361Y-50577180D01*
X144384361Y-50577180D02*
X144336742Y-50624800D01*
X144336742Y-50624800D02*
X144241504Y-50672419D01*
X144241504Y-50672419D02*
X144098647Y-50672419D01*
X145003409Y-50672419D02*
X144908171Y-50624800D01*
X144908171Y-50624800D02*
X144860552Y-50577180D01*
X144860552Y-50577180D02*
X144812933Y-50481942D01*
X144812933Y-50481942D02*
X144812933Y-50196228D01*
X144812933Y-50196228D02*
X144860552Y-50100990D01*
X144860552Y-50100990D02*
X144908171Y-50053371D01*
X144908171Y-50053371D02*
X145003409Y-50005752D01*
X145003409Y-50005752D02*
X145146266Y-50005752D01*
X145146266Y-50005752D02*
X145241504Y-50053371D01*
X145241504Y-50053371D02*
X145289123Y-50100990D01*
X145289123Y-50100990D02*
X145336742Y-50196228D01*
X145336742Y-50196228D02*
X145336742Y-50481942D01*
X145336742Y-50481942D02*
X145289123Y-50577180D01*
X145289123Y-50577180D02*
X145241504Y-50624800D01*
X145241504Y-50624800D02*
X145146266Y-50672419D01*
X145146266Y-50672419D02*
X145003409Y-50672419D01*
X146193885Y-50672419D02*
X146193885Y-49672419D01*
X146193885Y-50624800D02*
X146098647Y-50672419D01*
X146098647Y-50672419D02*
X145908171Y-50672419D01*
X145908171Y-50672419D02*
X145812933Y-50624800D01*
X145812933Y-50624800D02*
X145765314Y-50577180D01*
X145765314Y-50577180D02*
X145717695Y-50481942D01*
X145717695Y-50481942D02*
X145717695Y-50196228D01*
X145717695Y-50196228D02*
X145765314Y-50100990D01*
X145765314Y-50100990D02*
X145812933Y-50053371D01*
X145812933Y-50053371D02*
X145908171Y-50005752D01*
X145908171Y-50005752D02*
X146098647Y-50005752D01*
X146098647Y-50005752D02*
X146193885Y-50053371D01*
X146670076Y-50672419D02*
X146670076Y-49672419D01*
X147241504Y-50672419D02*
X146812933Y-50100990D01*
X147241504Y-49672419D02*
X146670076Y-50243847D01*
X147812933Y-50672419D02*
X147717695Y-50624800D01*
X147717695Y-50624800D02*
X147670076Y-50577180D01*
X147670076Y-50577180D02*
X147622457Y-50481942D01*
X147622457Y-50481942D02*
X147622457Y-50196228D01*
X147622457Y-50196228D02*
X147670076Y-50100990D01*
X147670076Y-50100990D02*
X147717695Y-50053371D01*
X147717695Y-50053371D02*
X147812933Y-50005752D01*
X147812933Y-50005752D02*
X147955790Y-50005752D01*
X147955790Y-50005752D02*
X148051028Y-50053371D01*
X148051028Y-50053371D02*
X148098647Y-50100990D01*
X148098647Y-50100990D02*
X148146266Y-50196228D01*
X148146266Y-50196228D02*
X148146266Y-50481942D01*
X148146266Y-50481942D02*
X148098647Y-50577180D01*
X148098647Y-50577180D02*
X148051028Y-50624800D01*
X148051028Y-50624800D02*
X147955790Y-50672419D01*
X147955790Y-50672419D02*
X147812933Y-50672419D01*
X148717695Y-50672419D02*
X148622457Y-50624800D01*
X148622457Y-50624800D02*
X148574838Y-50577180D01*
X148574838Y-50577180D02*
X148527219Y-50481942D01*
X148527219Y-50481942D02*
X148527219Y-50196228D01*
X148527219Y-50196228D02*
X148574838Y-50100990D01*
X148574838Y-50100990D02*
X148622457Y-50053371D01*
X148622457Y-50053371D02*
X148717695Y-50005752D01*
X148717695Y-50005752D02*
X148860552Y-50005752D01*
X148860552Y-50005752D02*
X148955790Y-50053371D01*
X148955790Y-50053371D02*
X149003409Y-50100990D01*
X149003409Y-50100990D02*
X149051028Y-50196228D01*
X149051028Y-50196228D02*
X149051028Y-50481942D01*
X149051028Y-50481942D02*
X149003409Y-50577180D01*
X149003409Y-50577180D02*
X148955790Y-50624800D01*
X148955790Y-50624800D02*
X148860552Y-50672419D01*
X148860552Y-50672419D02*
X148717695Y-50672419D01*
X149479600Y-50672419D02*
X149479600Y-49672419D01*
X149574838Y-50291466D02*
X149860552Y-50672419D01*
X149860552Y-50005752D02*
X149479600Y-50386704D01*
X150336743Y-49672419D02*
X150241505Y-49862895D01*
X150717695Y-50624800D02*
X150812933Y-50672419D01*
X150812933Y-50672419D02*
X151003409Y-50672419D01*
X151003409Y-50672419D02*
X151098647Y-50624800D01*
X151098647Y-50624800D02*
X151146266Y-50529561D01*
X151146266Y-50529561D02*
X151146266Y-50481942D01*
X151146266Y-50481942D02*
X151098647Y-50386704D01*
X151098647Y-50386704D02*
X151003409Y-50339085D01*
X151003409Y-50339085D02*
X150860552Y-50339085D01*
X150860552Y-50339085D02*
X150765314Y-50291466D01*
X150765314Y-50291466D02*
X150717695Y-50196228D01*
X150717695Y-50196228D02*
X150717695Y-50148609D01*
X150717695Y-50148609D02*
X150765314Y-50053371D01*
X150765314Y-50053371D02*
X150860552Y-50005752D01*
X150860552Y-50005752D02*
X151003409Y-50005752D01*
X151003409Y-50005752D02*
X151098647Y-50053371D01*
X152812933Y-50672419D02*
X152336743Y-50672419D01*
X152336743Y-50672419D02*
X152336743Y-49672419D01*
X153574838Y-50672419D02*
X153574838Y-50148609D01*
X153574838Y-50148609D02*
X153527219Y-50053371D01*
X153527219Y-50053371D02*
X153431981Y-50005752D01*
X153431981Y-50005752D02*
X153241505Y-50005752D01*
X153241505Y-50005752D02*
X153146267Y-50053371D01*
X153574838Y-50624800D02*
X153479600Y-50672419D01*
X153479600Y-50672419D02*
X153241505Y-50672419D01*
X153241505Y-50672419D02*
X153146267Y-50624800D01*
X153146267Y-50624800D02*
X153098648Y-50529561D01*
X153098648Y-50529561D02*
X153098648Y-50434323D01*
X153098648Y-50434323D02*
X153146267Y-50339085D01*
X153146267Y-50339085D02*
X153241505Y-50291466D01*
X153241505Y-50291466D02*
X153479600Y-50291466D01*
X153479600Y-50291466D02*
X153574838Y-50243847D01*
X154051029Y-50672419D02*
X154051029Y-49672419D01*
X154051029Y-50053371D02*
X154146267Y-50005752D01*
X154146267Y-50005752D02*
X154336743Y-50005752D01*
X154336743Y-50005752D02*
X154431981Y-50053371D01*
X154431981Y-50053371D02*
X154479600Y-50100990D01*
X154479600Y-50100990D02*
X154527219Y-50196228D01*
X154527219Y-50196228D02*
X154527219Y-50481942D01*
X154527219Y-50481942D02*
X154479600Y-50577180D01*
X154479600Y-50577180D02*
X154431981Y-50624800D01*
X154431981Y-50624800D02*
X154336743Y-50672419D01*
X154336743Y-50672419D02*
X154146267Y-50672419D01*
X154146267Y-50672419D02*
X154051029Y-50624800D01*
D13*
X191425292Y-132684742D02*
X191425292Y-131484742D01*
X191996721Y-131884742D02*
X191996721Y-132684742D01*
X191996721Y-131999028D02*
X192053864Y-131941885D01*
X192053864Y-131941885D02*
X192168149Y-131884742D01*
X192168149Y-131884742D02*
X192339578Y-131884742D01*
X192339578Y-131884742D02*
X192453864Y-131941885D01*
X192453864Y-131941885D02*
X192511007Y-132056171D01*
X192511007Y-132056171D02*
X192511007Y-132684742D01*
X192911006Y-131884742D02*
X193368149Y-131884742D01*
X193082435Y-131484742D02*
X193082435Y-132513314D01*
X193082435Y-132513314D02*
X193139578Y-132627600D01*
X193139578Y-132627600D02*
X193253863Y-132684742D01*
X193253863Y-132684742D02*
X193368149Y-132684742D01*
D12*
X108671177Y-143789638D02*
X108623558Y-144170590D01*
X109242606Y-143789638D02*
X109194987Y-144170590D01*
X109635463Y-145789638D02*
X109885463Y-143789638D01*
X109885463Y-143789638D02*
X110206891Y-145218209D01*
X110206891Y-145218209D02*
X110885463Y-143789638D01*
X110885463Y-143789638D02*
X110635463Y-145789638D01*
X111373558Y-144456304D02*
X111564034Y-145789638D01*
X112087844Y-144456304D02*
X111564034Y-145789638D01*
X111564034Y-145789638D02*
X111361653Y-146265828D01*
X111361653Y-146265828D02*
X111278320Y-146361066D01*
X111278320Y-146361066D02*
X111123558Y-146456304D01*
X114516415Y-145599161D02*
X114433082Y-145694400D01*
X114433082Y-145694400D02*
X114206891Y-145789638D01*
X114206891Y-145789638D02*
X114064034Y-145789638D01*
X114064034Y-145789638D02*
X113861653Y-145694400D01*
X113861653Y-145694400D02*
X113742605Y-145503923D01*
X113742605Y-145503923D02*
X113694986Y-145313447D01*
X113694986Y-145313447D02*
X113671177Y-144932495D01*
X113671177Y-144932495D02*
X113706891Y-144646780D01*
X113706891Y-144646780D02*
X113825939Y-144265828D01*
X113825939Y-144265828D02*
X113921177Y-144075352D01*
X113921177Y-144075352D02*
X114087844Y-143884876D01*
X114087844Y-143884876D02*
X114314034Y-143789638D01*
X114314034Y-143789638D02*
X114456891Y-143789638D01*
X114456891Y-143789638D02*
X114659272Y-143884876D01*
X114659272Y-143884876D02*
X114718796Y-143980114D01*
X115135463Y-145789638D02*
X115385463Y-143789638D01*
X115778320Y-145789638D02*
X115909272Y-144742019D01*
X115909272Y-144742019D02*
X115861653Y-144551542D01*
X115861653Y-144551542D02*
X115730701Y-144456304D01*
X115730701Y-144456304D02*
X115516415Y-144456304D01*
X115516415Y-144456304D02*
X115361653Y-144551542D01*
X115361653Y-144551542D02*
X115278320Y-144646780D01*
X116492606Y-145789638D02*
X116659272Y-144456304D01*
X116742606Y-143789638D02*
X116659272Y-143884876D01*
X116659272Y-143884876D02*
X116718796Y-143980114D01*
X116718796Y-143980114D02*
X116802129Y-143884876D01*
X116802129Y-143884876D02*
X116742606Y-143789638D01*
X116742606Y-143789638D02*
X116718796Y-143980114D01*
X117373558Y-144456304D02*
X117123558Y-146456304D01*
X117361654Y-144551542D02*
X117516415Y-144456304D01*
X117516415Y-144456304D02*
X117802130Y-144456304D01*
X117802130Y-144456304D02*
X117933082Y-144551542D01*
X117933082Y-144551542D02*
X117992606Y-144646780D01*
X117992606Y-144646780D02*
X118040225Y-144837257D01*
X118040225Y-144837257D02*
X117968796Y-145408685D01*
X117968796Y-145408685D02*
X117873558Y-145599161D01*
X117873558Y-145599161D02*
X117790225Y-145694400D01*
X117790225Y-145694400D02*
X117635463Y-145789638D01*
X117635463Y-145789638D02*
X117349749Y-145789638D01*
X117349749Y-145789638D02*
X117218796Y-145694400D01*
X119921177Y-145789638D02*
X119790225Y-145694400D01*
X119790225Y-145694400D02*
X119730701Y-145599161D01*
X119730701Y-145599161D02*
X119683082Y-145408685D01*
X119683082Y-145408685D02*
X119754511Y-144837257D01*
X119754511Y-144837257D02*
X119849749Y-144646780D01*
X119849749Y-144646780D02*
X119933082Y-144551542D01*
X119933082Y-144551542D02*
X120087844Y-144456304D01*
X120087844Y-144456304D02*
X120302130Y-144456304D01*
X120302130Y-144456304D02*
X120433082Y-144551542D01*
X120433082Y-144551542D02*
X120492606Y-144646780D01*
X120492606Y-144646780D02*
X120540225Y-144837257D01*
X120540225Y-144837257D02*
X120468796Y-145408685D01*
X120468796Y-145408685D02*
X120373558Y-145599161D01*
X120373558Y-145599161D02*
X120290225Y-145694400D01*
X120290225Y-145694400D02*
X120135463Y-145789638D01*
X120135463Y-145789638D02*
X119921177Y-145789638D01*
X121230701Y-144456304D02*
X121064035Y-145789638D01*
X121206892Y-144646780D02*
X121290225Y-144551542D01*
X121290225Y-144551542D02*
X121444987Y-144456304D01*
X121444987Y-144456304D02*
X121659273Y-144456304D01*
X121659273Y-144456304D02*
X121790225Y-144551542D01*
X121790225Y-144551542D02*
X121837844Y-144742019D01*
X121837844Y-144742019D02*
X121706892Y-145789638D01*
X123564035Y-145789638D02*
X123814035Y-143789638D01*
X123814035Y-143789638D02*
X124135463Y-145218209D01*
X124135463Y-145218209D02*
X124814035Y-143789638D01*
X124814035Y-143789638D02*
X124564035Y-145789638D01*
X125302130Y-144456304D02*
X125492606Y-145789638D01*
X126016416Y-144456304D02*
X125492606Y-145789638D01*
X125492606Y-145789638D02*
X125290225Y-146265828D01*
X125290225Y-146265828D02*
X125206892Y-146361066D01*
X125206892Y-146361066D02*
X125052130Y-146456304D01*
X127564035Y-145789638D02*
X127814035Y-143789638D01*
X127814035Y-143789638D02*
X128171177Y-143789638D01*
X128171177Y-143789638D02*
X128373558Y-143884876D01*
X128373558Y-143884876D02*
X128492606Y-144075352D01*
X128492606Y-144075352D02*
X128540225Y-144265828D01*
X128540225Y-144265828D02*
X128564035Y-144646780D01*
X128564035Y-144646780D02*
X128528320Y-144932495D01*
X128528320Y-144932495D02*
X128409273Y-145313447D01*
X128409273Y-145313447D02*
X128314035Y-145503923D01*
X128314035Y-145503923D02*
X128147368Y-145694400D01*
X128147368Y-145694400D02*
X127921177Y-145789638D01*
X127921177Y-145789638D02*
X127564035Y-145789638D01*
X129647368Y-145694400D02*
X129492606Y-145789638D01*
X129492606Y-145789638D02*
X129206892Y-145789638D01*
X129206892Y-145789638D02*
X129075939Y-145694400D01*
X129075939Y-145694400D02*
X129028320Y-145503923D01*
X129028320Y-145503923D02*
X129123558Y-144742019D01*
X129123558Y-144742019D02*
X129218797Y-144551542D01*
X129218797Y-144551542D02*
X129373558Y-144456304D01*
X129373558Y-144456304D02*
X129659273Y-144456304D01*
X129659273Y-144456304D02*
X129790225Y-144551542D01*
X129790225Y-144551542D02*
X129837844Y-144742019D01*
X129837844Y-144742019D02*
X129814035Y-144932495D01*
X129814035Y-144932495D02*
X129075939Y-145122971D01*
X130290225Y-145694400D02*
X130421177Y-145789638D01*
X130421177Y-145789638D02*
X130706891Y-145789638D01*
X130706891Y-145789638D02*
X130861653Y-145694400D01*
X130861653Y-145694400D02*
X130956891Y-145503923D01*
X130956891Y-145503923D02*
X130968796Y-145408685D01*
X130968796Y-145408685D02*
X130921177Y-145218209D01*
X130921177Y-145218209D02*
X130790225Y-145122971D01*
X130790225Y-145122971D02*
X130575939Y-145122971D01*
X130575939Y-145122971D02*
X130444987Y-145027733D01*
X130444987Y-145027733D02*
X130397368Y-144837257D01*
X130397368Y-144837257D02*
X130409272Y-144742019D01*
X130409272Y-144742019D02*
X130504511Y-144551542D01*
X130504511Y-144551542D02*
X130659272Y-144456304D01*
X130659272Y-144456304D02*
X130873558Y-144456304D01*
X130873558Y-144456304D02*
X131004511Y-144551542D01*
X131564035Y-145789638D02*
X131814035Y-143789638D01*
X131802130Y-145027733D02*
X132135463Y-145789638D01*
X132302130Y-144456304D02*
X131635463Y-145218209D01*
X132956892Y-143789638D02*
X132909273Y-144170590D01*
X133528321Y-143789638D02*
X133480702Y-144170590D01*
D13*
X96238720Y-69000104D02*
X95667292Y-69000104D01*
X95667292Y-69000104D02*
X95610149Y-69523914D01*
X95610149Y-69523914D02*
X95667292Y-69471533D01*
X95667292Y-69471533D02*
X95781578Y-69419152D01*
X95781578Y-69419152D02*
X96067292Y-69419152D01*
X96067292Y-69419152D02*
X96181578Y-69471533D01*
X96181578Y-69471533D02*
X96238720Y-69523914D01*
X96238720Y-69523914D02*
X96295863Y-69628676D01*
X96295863Y-69628676D02*
X96295863Y-69890581D01*
X96295863Y-69890581D02*
X96238720Y-69995343D01*
X96238720Y-69995343D02*
X96181578Y-70047724D01*
X96181578Y-70047724D02*
X96067292Y-70100104D01*
X96067292Y-70100104D02*
X95781578Y-70100104D01*
X95781578Y-70100104D02*
X95667292Y-70047724D01*
X95667292Y-70047724D02*
X95610149Y-69995343D01*
X96638720Y-69000104D02*
X97038720Y-70100104D01*
X97038720Y-70100104D02*
X97438720Y-69000104D01*
X98067291Y-69000104D02*
X98181577Y-69000104D01*
X98181577Y-69000104D02*
X98295863Y-69052485D01*
X98295863Y-69052485D02*
X98353006Y-69104866D01*
X98353006Y-69104866D02*
X98410148Y-69209628D01*
X98410148Y-69209628D02*
X98467291Y-69419152D01*
X98467291Y-69419152D02*
X98467291Y-69681057D01*
X98467291Y-69681057D02*
X98410148Y-69890581D01*
X98410148Y-69890581D02*
X98353006Y-69995343D01*
X98353006Y-69995343D02*
X98295863Y-70047724D01*
X98295863Y-70047724D02*
X98181577Y-70100104D01*
X98181577Y-70100104D02*
X98067291Y-70100104D01*
X98067291Y-70100104D02*
X97953006Y-70047724D01*
X97953006Y-70047724D02*
X97895863Y-69995343D01*
X97895863Y-69995343D02*
X97838720Y-69890581D01*
X97838720Y-69890581D02*
X97781577Y-69681057D01*
X97781577Y-69681057D02*
X97781577Y-69419152D01*
X97781577Y-69419152D02*
X97838720Y-69209628D01*
X97838720Y-69209628D02*
X97895863Y-69104866D01*
X97895863Y-69104866D02*
X97953006Y-69052485D01*
X97953006Y-69052485D02*
X98067291Y-69000104D01*
X95553006Y-72541980D02*
X96295863Y-72541980D01*
X96295863Y-72541980D02*
X95895863Y-72961028D01*
X95895863Y-72961028D02*
X96067292Y-72961028D01*
X96067292Y-72961028D02*
X96181578Y-73013409D01*
X96181578Y-73013409D02*
X96238720Y-73065790D01*
X96238720Y-73065790D02*
X96295863Y-73170552D01*
X96295863Y-73170552D02*
X96295863Y-73432457D01*
X96295863Y-73432457D02*
X96238720Y-73537219D01*
X96238720Y-73537219D02*
X96181578Y-73589600D01*
X96181578Y-73589600D02*
X96067292Y-73641980D01*
X96067292Y-73641980D02*
X95724435Y-73641980D01*
X95724435Y-73641980D02*
X95610149Y-73589600D01*
X95610149Y-73589600D02*
X95553006Y-73537219D01*
X96638720Y-72541980D02*
X97038720Y-73641980D01*
X97038720Y-73641980D02*
X97438720Y-72541980D01*
X97724434Y-72541980D02*
X98467291Y-72541980D01*
X98467291Y-72541980D02*
X98067291Y-72961028D01*
X98067291Y-72961028D02*
X98238720Y-72961028D01*
X98238720Y-72961028D02*
X98353006Y-73013409D01*
X98353006Y-73013409D02*
X98410148Y-73065790D01*
X98410148Y-73065790D02*
X98467291Y-73170552D01*
X98467291Y-73170552D02*
X98467291Y-73432457D01*
X98467291Y-73432457D02*
X98410148Y-73537219D01*
X98410148Y-73537219D02*
X98353006Y-73589600D01*
X98353006Y-73589600D02*
X98238720Y-73641980D01*
X98238720Y-73641980D02*
X97895863Y-73641980D01*
X97895863Y-73641980D02*
X97781577Y-73589600D01*
X97781577Y-73589600D02*
X97724434Y-73537219D01*
D15*
X187068758Y-125811428D02*
X187997330Y-125811428D01*
X187997330Y-125811428D02*
X187497330Y-126382857D01*
X187497330Y-126382857D02*
X187711615Y-126382857D01*
X187711615Y-126382857D02*
X187854473Y-126454285D01*
X187854473Y-126454285D02*
X187925901Y-126525714D01*
X187925901Y-126525714D02*
X187997330Y-126668571D01*
X187997330Y-126668571D02*
X187997330Y-127025714D01*
X187997330Y-127025714D02*
X187925901Y-127168571D01*
X187925901Y-127168571D02*
X187854473Y-127240000D01*
X187854473Y-127240000D02*
X187711615Y-127311428D01*
X187711615Y-127311428D02*
X187283044Y-127311428D01*
X187283044Y-127311428D02*
X187140187Y-127240000D01*
X187140187Y-127240000D02*
X187068758Y-127168571D01*
X188425901Y-125811428D02*
X188925901Y-127311428D01*
X188925901Y-127311428D02*
X189425901Y-125811428D01*
X189783043Y-125811428D02*
X190711615Y-125811428D01*
X190711615Y-125811428D02*
X190211615Y-126382857D01*
X190211615Y-126382857D02*
X190425900Y-126382857D01*
X190425900Y-126382857D02*
X190568758Y-126454285D01*
X190568758Y-126454285D02*
X190640186Y-126525714D01*
X190640186Y-126525714D02*
X190711615Y-126668571D01*
X190711615Y-126668571D02*
X190711615Y-127025714D01*
X190711615Y-127025714D02*
X190640186Y-127168571D01*
X190640186Y-127168571D02*
X190568758Y-127240000D01*
X190568758Y-127240000D02*
X190425900Y-127311428D01*
X190425900Y-127311428D02*
X189997329Y-127311428D01*
X189997329Y-127311428D02*
X189854472Y-127240000D01*
X189854472Y-127240000D02*
X189783043Y-127168571D01*
D13*
X100067863Y-65743028D02*
X100467863Y-67243028D01*
X100467863Y-67243028D02*
X100867863Y-65743028D01*
X101953577Y-67100171D02*
X101896434Y-67171600D01*
X101896434Y-67171600D02*
X101725006Y-67243028D01*
X101725006Y-67243028D02*
X101610720Y-67243028D01*
X101610720Y-67243028D02*
X101439291Y-67171600D01*
X101439291Y-67171600D02*
X101325006Y-67028742D01*
X101325006Y-67028742D02*
X101267863Y-66885885D01*
X101267863Y-66885885D02*
X101210720Y-66600171D01*
X101210720Y-66600171D02*
X101210720Y-66385885D01*
X101210720Y-66385885D02*
X101267863Y-66100171D01*
X101267863Y-66100171D02*
X101325006Y-65957314D01*
X101325006Y-65957314D02*
X101439291Y-65814457D01*
X101439291Y-65814457D02*
X101610720Y-65743028D01*
X101610720Y-65743028D02*
X101725006Y-65743028D01*
X101725006Y-65743028D02*
X101896434Y-65814457D01*
X101896434Y-65814457D02*
X101953577Y-65885885D01*
X103153577Y-67100171D02*
X103096434Y-67171600D01*
X103096434Y-67171600D02*
X102925006Y-67243028D01*
X102925006Y-67243028D02*
X102810720Y-67243028D01*
X102810720Y-67243028D02*
X102639291Y-67171600D01*
X102639291Y-67171600D02*
X102525006Y-67028742D01*
X102525006Y-67028742D02*
X102467863Y-66885885D01*
X102467863Y-66885885D02*
X102410720Y-66600171D01*
X102410720Y-66600171D02*
X102410720Y-66385885D01*
X102410720Y-66385885D02*
X102467863Y-66100171D01*
X102467863Y-66100171D02*
X102525006Y-65957314D01*
X102525006Y-65957314D02*
X102639291Y-65814457D01*
X102639291Y-65814457D02*
X102810720Y-65743028D01*
X102810720Y-65743028D02*
X102925006Y-65743028D01*
X102925006Y-65743028D02*
X103096434Y-65814457D01*
X103096434Y-65814457D02*
X103153577Y-65885885D01*
X104067863Y-66457314D02*
X104239291Y-66528742D01*
X104239291Y-66528742D02*
X104296434Y-66600171D01*
X104296434Y-66600171D02*
X104353577Y-66743028D01*
X104353577Y-66743028D02*
X104353577Y-66957314D01*
X104353577Y-66957314D02*
X104296434Y-67100171D01*
X104296434Y-67100171D02*
X104239291Y-67171600D01*
X104239291Y-67171600D02*
X104125006Y-67243028D01*
X104125006Y-67243028D02*
X103667863Y-67243028D01*
X103667863Y-67243028D02*
X103667863Y-65743028D01*
X103667863Y-65743028D02*
X104067863Y-65743028D01*
X104067863Y-65743028D02*
X104182149Y-65814457D01*
X104182149Y-65814457D02*
X104239291Y-65885885D01*
X104239291Y-65885885D02*
X104296434Y-66028742D01*
X104296434Y-66028742D02*
X104296434Y-66171600D01*
X104296434Y-66171600D02*
X104239291Y-66314457D01*
X104239291Y-66314457D02*
X104182149Y-66385885D01*
X104182149Y-66385885D02*
X104067863Y-66457314D01*
X104067863Y-66457314D02*
X103667863Y-66457314D01*
D11*
X153091319Y-144229523D02*
X153805604Y-144229523D01*
X153805604Y-144229523D02*
X153948461Y-144277142D01*
X153948461Y-144277142D02*
X154043700Y-144372380D01*
X154043700Y-144372380D02*
X154091319Y-144515237D01*
X154091319Y-144515237D02*
X154091319Y-144610475D01*
X154091319Y-143229523D02*
X154091319Y-143800951D01*
X154091319Y-143515237D02*
X153091319Y-143515237D01*
X153091319Y-143515237D02*
X153234176Y-143610475D01*
X153234176Y-143610475D02*
X153329414Y-143705713D01*
X153329414Y-143705713D02*
X153377033Y-143800951D01*
X153091319Y-142896189D02*
X153091319Y-142277142D01*
X153091319Y-142277142D02*
X153472271Y-142610475D01*
X153472271Y-142610475D02*
X153472271Y-142467618D01*
X153472271Y-142467618D02*
X153519890Y-142372380D01*
X153519890Y-142372380D02*
X153567509Y-142324761D01*
X153567509Y-142324761D02*
X153662747Y-142277142D01*
X153662747Y-142277142D02*
X153900842Y-142277142D01*
X153900842Y-142277142D02*
X153996080Y-142324761D01*
X153996080Y-142324761D02*
X154043700Y-142372380D01*
X154043700Y-142372380D02*
X154091319Y-142467618D01*
X154091319Y-142467618D02*
X154091319Y-142753332D01*
X154091319Y-142753332D02*
X154043700Y-142848570D01*
X154043700Y-142848570D02*
X153996080Y-142896189D01*
X131280819Y-53085904D02*
X132090342Y-53085904D01*
X132090342Y-53085904D02*
X132185580Y-53038285D01*
X132185580Y-53038285D02*
X132233200Y-52990666D01*
X132233200Y-52990666D02*
X132280819Y-52895428D01*
X132280819Y-52895428D02*
X132280819Y-52704952D01*
X132280819Y-52704952D02*
X132233200Y-52609714D01*
X132233200Y-52609714D02*
X132185580Y-52562095D01*
X132185580Y-52562095D02*
X132090342Y-52514476D01*
X132090342Y-52514476D02*
X131280819Y-52514476D01*
X132280819Y-51514476D02*
X132280819Y-52085904D01*
X132280819Y-51800190D02*
X131280819Y-51800190D01*
X131280819Y-51800190D02*
X131423676Y-51895428D01*
X131423676Y-51895428D02*
X131518914Y-51990666D01*
X131518914Y-51990666D02*
X131566533Y-52085904D01*
X131324819Y-71856904D02*
X132134342Y-71856904D01*
X132134342Y-71856904D02*
X132229580Y-71809285D01*
X132229580Y-71809285D02*
X132277200Y-71761666D01*
X132277200Y-71761666D02*
X132324819Y-71666428D01*
X132324819Y-71666428D02*
X132324819Y-71475952D01*
X132324819Y-71475952D02*
X132277200Y-71380714D01*
X132277200Y-71380714D02*
X132229580Y-71333095D01*
X132229580Y-71333095D02*
X132134342Y-71285476D01*
X132134342Y-71285476D02*
X131324819Y-71285476D01*
X131420057Y-70856904D02*
X131372438Y-70809285D01*
X131372438Y-70809285D02*
X131324819Y-70714047D01*
X131324819Y-70714047D02*
X131324819Y-70475952D01*
X131324819Y-70475952D02*
X131372438Y-70380714D01*
X131372438Y-70380714D02*
X131420057Y-70333095D01*
X131420057Y-70333095D02*
X131515295Y-70285476D01*
X131515295Y-70285476D02*
X131610533Y-70285476D01*
X131610533Y-70285476D02*
X131753390Y-70333095D01*
X131753390Y-70333095D02*
X132324819Y-70904523D01*
X132324819Y-70904523D02*
X132324819Y-70285476D01*
X131324819Y-125196904D02*
X132134342Y-125196904D01*
X132134342Y-125196904D02*
X132229580Y-125149285D01*
X132229580Y-125149285D02*
X132277200Y-125101666D01*
X132277200Y-125101666D02*
X132324819Y-125006428D01*
X132324819Y-125006428D02*
X132324819Y-124815952D01*
X132324819Y-124815952D02*
X132277200Y-124720714D01*
X132277200Y-124720714D02*
X132229580Y-124673095D01*
X132229580Y-124673095D02*
X132134342Y-124625476D01*
X132134342Y-124625476D02*
X131324819Y-124625476D01*
X131324819Y-123673095D02*
X131324819Y-124149285D01*
X131324819Y-124149285D02*
X131801009Y-124196904D01*
X131801009Y-124196904D02*
X131753390Y-124149285D01*
X131753390Y-124149285D02*
X131705771Y-124054047D01*
X131705771Y-124054047D02*
X131705771Y-123815952D01*
X131705771Y-123815952D02*
X131753390Y-123720714D01*
X131753390Y-123720714D02*
X131801009Y-123673095D01*
X131801009Y-123673095D02*
X131896247Y-123625476D01*
X131896247Y-123625476D02*
X132134342Y-123625476D01*
X132134342Y-123625476D02*
X132229580Y-123673095D01*
X132229580Y-123673095D02*
X132277200Y-123720714D01*
X132277200Y-123720714D02*
X132324819Y-123815952D01*
X132324819Y-123815952D02*
X132324819Y-124054047D01*
X132324819Y-124054047D02*
X132277200Y-124149285D01*
X132277200Y-124149285D02*
X132229580Y-124196904D01*
X198628095Y-47924819D02*
X198628095Y-48639104D01*
X198628095Y-48639104D02*
X198580476Y-48781961D01*
X198580476Y-48781961D02*
X198485238Y-48877200D01*
X198485238Y-48877200D02*
X198342381Y-48924819D01*
X198342381Y-48924819D02*
X198247143Y-48924819D01*
X199056667Y-48639104D02*
X199532857Y-48639104D01*
X198961429Y-48924819D02*
X199294762Y-47924819D01*
X199294762Y-47924819D02*
X199628095Y-48924819D01*
X200485238Y-48924819D02*
X199913810Y-48924819D01*
X200199524Y-48924819D02*
X200199524Y-47924819D01*
X200199524Y-47924819D02*
X200104286Y-48067676D01*
X200104286Y-48067676D02*
X200009048Y-48162914D01*
X200009048Y-48162914D02*
X199913810Y-48210533D01*
X186356666Y-60624819D02*
X186356666Y-61339104D01*
X186356666Y-61339104D02*
X186309047Y-61481961D01*
X186309047Y-61481961D02*
X186213809Y-61577200D01*
X186213809Y-61577200D02*
X186070952Y-61624819D01*
X186070952Y-61624819D02*
X185975714Y-61624819D01*
X186975714Y-61053390D02*
X186880476Y-61005771D01*
X186880476Y-61005771D02*
X186832857Y-60958152D01*
X186832857Y-60958152D02*
X186785238Y-60862914D01*
X186785238Y-60862914D02*
X186785238Y-60815295D01*
X186785238Y-60815295D02*
X186832857Y-60720057D01*
X186832857Y-60720057D02*
X186880476Y-60672438D01*
X186880476Y-60672438D02*
X186975714Y-60624819D01*
X186975714Y-60624819D02*
X187166190Y-60624819D01*
X187166190Y-60624819D02*
X187261428Y-60672438D01*
X187261428Y-60672438D02*
X187309047Y-60720057D01*
X187309047Y-60720057D02*
X187356666Y-60815295D01*
X187356666Y-60815295D02*
X187356666Y-60862914D01*
X187356666Y-60862914D02*
X187309047Y-60958152D01*
X187309047Y-60958152D02*
X187261428Y-61005771D01*
X187261428Y-61005771D02*
X187166190Y-61053390D01*
X187166190Y-61053390D02*
X186975714Y-61053390D01*
X186975714Y-61053390D02*
X186880476Y-61101009D01*
X186880476Y-61101009D02*
X186832857Y-61148628D01*
X186832857Y-61148628D02*
X186785238Y-61243866D01*
X186785238Y-61243866D02*
X186785238Y-61434342D01*
X186785238Y-61434342D02*
X186832857Y-61529580D01*
X186832857Y-61529580D02*
X186880476Y-61577200D01*
X186880476Y-61577200D02*
X186975714Y-61624819D01*
X186975714Y-61624819D02*
X187166190Y-61624819D01*
X187166190Y-61624819D02*
X187261428Y-61577200D01*
X187261428Y-61577200D02*
X187309047Y-61529580D01*
X187309047Y-61529580D02*
X187356666Y-61434342D01*
X187356666Y-61434342D02*
X187356666Y-61243866D01*
X187356666Y-61243866D02*
X187309047Y-61148628D01*
X187309047Y-61148628D02*
X187261428Y-61101009D01*
X187261428Y-61101009D02*
X187166190Y-61053390D01*
X131324819Y-107416904D02*
X132134342Y-107416904D01*
X132134342Y-107416904D02*
X132229580Y-107369285D01*
X132229580Y-107369285D02*
X132277200Y-107321666D01*
X132277200Y-107321666D02*
X132324819Y-107226428D01*
X132324819Y-107226428D02*
X132324819Y-107035952D01*
X132324819Y-107035952D02*
X132277200Y-106940714D01*
X132277200Y-106940714D02*
X132229580Y-106893095D01*
X132229580Y-106893095D02*
X132134342Y-106845476D01*
X132134342Y-106845476D02*
X131324819Y-106845476D01*
X131658152Y-105940714D02*
X132324819Y-105940714D01*
X131277200Y-106178809D02*
X131991485Y-106416904D01*
X131991485Y-106416904D02*
X131991485Y-105797857D01*
X198556666Y-93644819D02*
X198556666Y-94359104D01*
X198556666Y-94359104D02*
X198509047Y-94501961D01*
X198509047Y-94501961D02*
X198413809Y-94597200D01*
X198413809Y-94597200D02*
X198270952Y-94644819D01*
X198270952Y-94644819D02*
X198175714Y-94644819D01*
X199604285Y-94549580D02*
X199556666Y-94597200D01*
X199556666Y-94597200D02*
X199413809Y-94644819D01*
X199413809Y-94644819D02*
X199318571Y-94644819D01*
X199318571Y-94644819D02*
X199175714Y-94597200D01*
X199175714Y-94597200D02*
X199080476Y-94501961D01*
X199080476Y-94501961D02*
X199032857Y-94406723D01*
X199032857Y-94406723D02*
X198985238Y-94216247D01*
X198985238Y-94216247D02*
X198985238Y-94073390D01*
X198985238Y-94073390D02*
X199032857Y-93882914D01*
X199032857Y-93882914D02*
X199080476Y-93787676D01*
X199080476Y-93787676D02*
X199175714Y-93692438D01*
X199175714Y-93692438D02*
X199318571Y-93644819D01*
X199318571Y-93644819D02*
X199413809Y-93644819D01*
X199413809Y-93644819D02*
X199556666Y-93692438D01*
X199556666Y-93692438D02*
X199604285Y-93740057D01*
X200556666Y-94644819D02*
X199985238Y-94644819D01*
X200270952Y-94644819D02*
X200270952Y-93644819D01*
X200270952Y-93644819D02*
X200175714Y-93787676D01*
X200175714Y-93787676D02*
X200080476Y-93882914D01*
X200080476Y-93882914D02*
X199985238Y-93930533D01*
X198556666Y-116504819D02*
X198556666Y-117219104D01*
X198556666Y-117219104D02*
X198509047Y-117361961D01*
X198509047Y-117361961D02*
X198413809Y-117457200D01*
X198413809Y-117457200D02*
X198270952Y-117504819D01*
X198270952Y-117504819D02*
X198175714Y-117504819D01*
X199032857Y-117504819D02*
X199032857Y-116504819D01*
X199032857Y-116504819D02*
X199270952Y-116504819D01*
X199270952Y-116504819D02*
X199413809Y-116552438D01*
X199413809Y-116552438D02*
X199509047Y-116647676D01*
X199509047Y-116647676D02*
X199556666Y-116742914D01*
X199556666Y-116742914D02*
X199604285Y-116933390D01*
X199604285Y-116933390D02*
X199604285Y-117076247D01*
X199604285Y-117076247D02*
X199556666Y-117266723D01*
X199556666Y-117266723D02*
X199509047Y-117361961D01*
X199509047Y-117361961D02*
X199413809Y-117457200D01*
X199413809Y-117457200D02*
X199270952Y-117504819D01*
X199270952Y-117504819D02*
X199032857Y-117504819D01*
X200556666Y-117504819D02*
X199985238Y-117504819D01*
X200270952Y-117504819D02*
X200270952Y-116504819D01*
X200270952Y-116504819D02*
X200175714Y-116647676D01*
X200175714Y-116647676D02*
X200080476Y-116742914D01*
X200080476Y-116742914D02*
X199985238Y-116790533D01*
X131324819Y-89636904D02*
X132134342Y-89636904D01*
X132134342Y-89636904D02*
X132229580Y-89589285D01*
X132229580Y-89589285D02*
X132277200Y-89541666D01*
X132277200Y-89541666D02*
X132324819Y-89446428D01*
X132324819Y-89446428D02*
X132324819Y-89255952D01*
X132324819Y-89255952D02*
X132277200Y-89160714D01*
X132277200Y-89160714D02*
X132229580Y-89113095D01*
X132229580Y-89113095D02*
X132134342Y-89065476D01*
X132134342Y-89065476D02*
X131324819Y-89065476D01*
X131324819Y-88684523D02*
X131324819Y-88065476D01*
X131324819Y-88065476D02*
X131705771Y-88398809D01*
X131705771Y-88398809D02*
X131705771Y-88255952D01*
X131705771Y-88255952D02*
X131753390Y-88160714D01*
X131753390Y-88160714D02*
X131801009Y-88113095D01*
X131801009Y-88113095D02*
X131896247Y-88065476D01*
X131896247Y-88065476D02*
X132134342Y-88065476D01*
X132134342Y-88065476D02*
X132229580Y-88113095D01*
X132229580Y-88113095D02*
X132277200Y-88160714D01*
X132277200Y-88160714D02*
X132324819Y-88255952D01*
X132324819Y-88255952D02*
X132324819Y-88541666D01*
X132324819Y-88541666D02*
X132277200Y-88636904D01*
X132277200Y-88636904D02*
X132229580Y-88684523D01*
X198556666Y-70784819D02*
X198556666Y-71499104D01*
X198556666Y-71499104D02*
X198509047Y-71641961D01*
X198509047Y-71641961D02*
X198413809Y-71737200D01*
X198413809Y-71737200D02*
X198270952Y-71784819D01*
X198270952Y-71784819D02*
X198175714Y-71784819D01*
X199366190Y-71261009D02*
X199509047Y-71308628D01*
X199509047Y-71308628D02*
X199556666Y-71356247D01*
X199556666Y-71356247D02*
X199604285Y-71451485D01*
X199604285Y-71451485D02*
X199604285Y-71594342D01*
X199604285Y-71594342D02*
X199556666Y-71689580D01*
X199556666Y-71689580D02*
X199509047Y-71737200D01*
X199509047Y-71737200D02*
X199413809Y-71784819D01*
X199413809Y-71784819D02*
X199032857Y-71784819D01*
X199032857Y-71784819D02*
X199032857Y-70784819D01*
X199032857Y-70784819D02*
X199366190Y-70784819D01*
X199366190Y-70784819D02*
X199461428Y-70832438D01*
X199461428Y-70832438D02*
X199509047Y-70880057D01*
X199509047Y-70880057D02*
X199556666Y-70975295D01*
X199556666Y-70975295D02*
X199556666Y-71070533D01*
X199556666Y-71070533D02*
X199509047Y-71165771D01*
X199509047Y-71165771D02*
X199461428Y-71213390D01*
X199461428Y-71213390D02*
X199366190Y-71261009D01*
X199366190Y-71261009D02*
X199032857Y-71261009D01*
X200556666Y-71784819D02*
X199985238Y-71784819D01*
X200270952Y-71784819D02*
X200270952Y-70784819D01*
X200270952Y-70784819D02*
X200175714Y-70927676D01*
X200175714Y-70927676D02*
X200080476Y-71022914D01*
X200080476Y-71022914D02*
X199985238Y-71070533D01*
X138096666Y-60624819D02*
X138096666Y-61339104D01*
X138096666Y-61339104D02*
X138049047Y-61481961D01*
X138049047Y-61481961D02*
X137953809Y-61577200D01*
X137953809Y-61577200D02*
X137810952Y-61624819D01*
X137810952Y-61624819D02*
X137715714Y-61624819D01*
X138620476Y-61624819D02*
X138810952Y-61624819D01*
X138810952Y-61624819D02*
X138906190Y-61577200D01*
X138906190Y-61577200D02*
X138953809Y-61529580D01*
X138953809Y-61529580D02*
X139049047Y-61386723D01*
X139049047Y-61386723D02*
X139096666Y-61196247D01*
X139096666Y-61196247D02*
X139096666Y-60815295D01*
X139096666Y-60815295D02*
X139049047Y-60720057D01*
X139049047Y-60720057D02*
X139001428Y-60672438D01*
X139001428Y-60672438D02*
X138906190Y-60624819D01*
X138906190Y-60624819D02*
X138715714Y-60624819D01*
X138715714Y-60624819D02*
X138620476Y-60672438D01*
X138620476Y-60672438D02*
X138572857Y-60720057D01*
X138572857Y-60720057D02*
X138525238Y-60815295D01*
X138525238Y-60815295D02*
X138525238Y-61053390D01*
X138525238Y-61053390D02*
X138572857Y-61148628D01*
X138572857Y-61148628D02*
X138620476Y-61196247D01*
X138620476Y-61196247D02*
X138715714Y-61243866D01*
X138715714Y-61243866D02*
X138906190Y-61243866D01*
X138906190Y-61243866D02*
X139001428Y-61196247D01*
X139001428Y-61196247D02*
X139049047Y-61148628D01*
X139049047Y-61148628D02*
X139096666Y-61053390D01*
X88312666Y-42590819D02*
X88312666Y-43305104D01*
X88312666Y-43305104D02*
X88265047Y-43447961D01*
X88265047Y-43447961D02*
X88169809Y-43543200D01*
X88169809Y-43543200D02*
X88026952Y-43590819D01*
X88026952Y-43590819D02*
X87931714Y-43590819D01*
X89217428Y-42590819D02*
X89026952Y-42590819D01*
X89026952Y-42590819D02*
X88931714Y-42638438D01*
X88931714Y-42638438D02*
X88884095Y-42686057D01*
X88884095Y-42686057D02*
X88788857Y-42828914D01*
X88788857Y-42828914D02*
X88741238Y-43019390D01*
X88741238Y-43019390D02*
X88741238Y-43400342D01*
X88741238Y-43400342D02*
X88788857Y-43495580D01*
X88788857Y-43495580D02*
X88836476Y-43543200D01*
X88836476Y-43543200D02*
X88931714Y-43590819D01*
X88931714Y-43590819D02*
X89122190Y-43590819D01*
X89122190Y-43590819D02*
X89217428Y-43543200D01*
X89217428Y-43543200D02*
X89265047Y-43495580D01*
X89265047Y-43495580D02*
X89312666Y-43400342D01*
X89312666Y-43400342D02*
X89312666Y-43162247D01*
X89312666Y-43162247D02*
X89265047Y-43067009D01*
X89265047Y-43067009D02*
X89217428Y-43019390D01*
X89217428Y-43019390D02*
X89122190Y-42971771D01*
X89122190Y-42971771D02*
X88931714Y-42971771D01*
X88931714Y-42971771D02*
X88836476Y-43019390D01*
X88836476Y-43019390D02*
X88788857Y-43067009D01*
X88788857Y-43067009D02*
X88741238Y-43162247D01*
D14*
%TO.C,J13*%
X143086500Y-134920000D02*
X143086500Y-133870000D01*
X143286500Y-134070000D02*
X145886500Y-134070000D01*
X143286500Y-148770000D02*
X143286500Y-134070000D01*
X144136500Y-133870000D02*
X143086500Y-133870000D01*
X149786500Y-134070000D02*
X152486500Y-134070000D01*
X152486500Y-134070000D02*
X152486500Y-135970000D01*
X152486500Y-139970000D02*
X152486500Y-148770000D01*
X152486500Y-148770000D02*
X143286500Y-148770000D01*
%TO.C,J12*%
X135830000Y-130750000D02*
X137160000Y-130750000D01*
X135830000Y-132080000D02*
X135830000Y-130750000D01*
X135830000Y-133350000D02*
X135830000Y-141030000D01*
X135830000Y-133350000D02*
X138430000Y-133350000D01*
X135830000Y-141030000D02*
X141030000Y-141030000D01*
X138430000Y-130750000D02*
X141030000Y-130750000D01*
X138430000Y-133350000D02*
X138430000Y-130750000D01*
X141030000Y-130750000D02*
X141030000Y-141030000D01*
%TO.C,J2*%
X98492000Y-68520000D02*
X99822000Y-68520000D01*
X98492000Y-69850000D02*
X98492000Y-68520000D01*
X98492000Y-71120000D02*
X98492000Y-73720000D01*
X98492000Y-71120000D02*
X101092000Y-71120000D01*
X98492000Y-73720000D02*
X103692000Y-73720000D01*
X101092000Y-68520000D02*
X103692000Y-68520000D01*
X101092000Y-71120000D02*
X101092000Y-68520000D01*
X103692000Y-68520000D02*
X103692000Y-73720000D01*
%TO.C,J4*%
X98492000Y-104080000D02*
X99822000Y-104080000D01*
X98492000Y-105410000D02*
X98492000Y-104080000D01*
X98492000Y-106680000D02*
X98492000Y-109280000D01*
X98492000Y-106680000D02*
X101092000Y-106680000D01*
X98492000Y-109280000D02*
X103692000Y-109280000D01*
X101092000Y-104080000D02*
X103692000Y-104080000D01*
X101092000Y-106680000D02*
X101092000Y-104080000D01*
X103692000Y-104080000D02*
X103692000Y-109280000D01*
%TO.C,U1*%
X105290000Y-50795000D02*
X105290000Y-66045000D01*
X128270000Y-50795000D02*
X105290000Y-50795000D01*
X128270000Y-50795000D02*
X128270000Y-53315000D01*
X128270000Y-53315000D02*
X130790000Y-53315000D01*
X129540000Y-50795000D02*
X130790000Y-50795000D01*
X130790000Y-50795000D02*
X130790000Y-52045000D01*
X130790000Y-53315000D02*
X130790000Y-66045000D01*
X130790000Y-66045000D02*
X105290000Y-66045000D01*
%TO.C,U2*%
X105290000Y-68575000D02*
X105290000Y-83825000D01*
X128270000Y-68575000D02*
X105290000Y-68575000D01*
X128270000Y-68575000D02*
X128270000Y-71095000D01*
X128270000Y-71095000D02*
X130790000Y-71095000D01*
X129540000Y-68575000D02*
X130790000Y-68575000D01*
X130790000Y-68575000D02*
X130790000Y-69825000D01*
X130790000Y-71095000D02*
X130790000Y-83825000D01*
X130790000Y-83825000D02*
X105290000Y-83825000D01*
%TO.C,U5*%
X105290000Y-121915000D02*
X105290000Y-137165000D01*
X128270000Y-121915000D02*
X105290000Y-121915000D01*
X128270000Y-121915000D02*
X128270000Y-124435000D01*
X128270000Y-124435000D02*
X130790000Y-124435000D01*
X129540000Y-121915000D02*
X130790000Y-121915000D01*
X130790000Y-121915000D02*
X130790000Y-123165000D01*
X130790000Y-124435000D02*
X130790000Y-137165000D01*
X130790000Y-137165000D02*
X105290000Y-137165000D01*
%TO.C,JA1*%
X196790000Y-49470000D02*
X198120000Y-49470000D01*
X196790000Y-50800000D02*
X196790000Y-49470000D01*
X196790000Y-52070000D02*
X196790000Y-64830000D01*
X196790000Y-52070000D02*
X199390000Y-52070000D01*
X196790000Y-64830000D02*
X201990000Y-64830000D01*
X199390000Y-49470000D02*
X201990000Y-49470000D01*
X199390000Y-52070000D02*
X199390000Y-49470000D01*
X201990000Y-49470000D02*
X201990000Y-64830000D01*
%TO.C,J8*%
X184090000Y-62170000D02*
X185420000Y-62170000D01*
X184090000Y-63500000D02*
X184090000Y-62170000D01*
X184090000Y-64770000D02*
X184090000Y-123250000D01*
X184090000Y-64770000D02*
X186690000Y-64770000D01*
X184090000Y-123250000D02*
X189290000Y-123250000D01*
X186690000Y-62170000D02*
X189290000Y-62170000D01*
X186690000Y-64770000D02*
X186690000Y-62170000D01*
X189290000Y-62170000D02*
X189290000Y-123250000D01*
%TO.C,U4*%
X105290000Y-104135000D02*
X105290000Y-119385000D01*
X128270000Y-104135000D02*
X105290000Y-104135000D01*
X128270000Y-104135000D02*
X128270000Y-106655000D01*
X128270000Y-106655000D02*
X130790000Y-106655000D01*
X129540000Y-104135000D02*
X130790000Y-104135000D01*
X130790000Y-104135000D02*
X130790000Y-105385000D01*
X130790000Y-106655000D02*
X130790000Y-119385000D01*
X130790000Y-119385000D02*
X105290000Y-119385000D01*
%TO.C,J1*%
X98492000Y-50740000D02*
X99822000Y-50740000D01*
X98492000Y-52070000D02*
X98492000Y-50740000D01*
X98492000Y-53340000D02*
X98492000Y-55940000D01*
X98492000Y-53340000D02*
X101092000Y-53340000D01*
X98492000Y-55940000D02*
X103692000Y-55940000D01*
X101092000Y-50740000D02*
X103692000Y-50740000D01*
X101092000Y-53340000D02*
X101092000Y-50740000D01*
X103692000Y-50740000D02*
X103692000Y-55940000D01*
%TO.C,J10*%
X186884000Y-128210000D02*
X188214000Y-128210000D01*
X186884000Y-129540000D02*
X186884000Y-128210000D01*
X186884000Y-130810000D02*
X186884000Y-138490000D01*
X186884000Y-130810000D02*
X189544000Y-130810000D01*
X186884000Y-138490000D02*
X189544000Y-138490000D01*
X189544000Y-130810000D02*
X189544000Y-138490000D01*
%TO.C,JC1*%
X196790000Y-95190000D02*
X198120000Y-95190000D01*
X196790000Y-96520000D02*
X196790000Y-95190000D01*
X196790000Y-97790000D02*
X196790000Y-110550000D01*
X196790000Y-97790000D02*
X199390000Y-97790000D01*
X196790000Y-110550000D02*
X201990000Y-110550000D01*
X199390000Y-95190000D02*
X201990000Y-95190000D01*
X199390000Y-97790000D02*
X199390000Y-95190000D01*
X201990000Y-95190000D02*
X201990000Y-110550000D01*
%TO.C,J3*%
X98492000Y-86300000D02*
X99822000Y-86300000D01*
X98492000Y-87630000D02*
X98492000Y-86300000D01*
X98492000Y-88900000D02*
X98492000Y-91500000D01*
X98492000Y-88900000D02*
X101092000Y-88900000D01*
X98492000Y-91500000D02*
X103692000Y-91500000D01*
X101092000Y-86300000D02*
X103692000Y-86300000D01*
X101092000Y-88900000D02*
X101092000Y-86300000D01*
X103692000Y-86300000D02*
X103692000Y-91500000D01*
%TO.C,JD1*%
X196790000Y-118050000D02*
X198120000Y-118050000D01*
X196790000Y-119380000D02*
X196790000Y-118050000D01*
X196790000Y-120650000D02*
X196790000Y-133410000D01*
X196790000Y-120650000D02*
X199390000Y-120650000D01*
X196790000Y-133410000D02*
X201990000Y-133410000D01*
X199390000Y-118050000D02*
X201990000Y-118050000D01*
X199390000Y-120650000D02*
X199390000Y-118050000D01*
X201990000Y-118050000D02*
X201990000Y-133410000D01*
%TO.C,U3*%
X105290000Y-86355000D02*
X105290000Y-101605000D01*
X128270000Y-86355000D02*
X105290000Y-86355000D01*
X128270000Y-86355000D02*
X128270000Y-88875000D01*
X128270000Y-88875000D02*
X130790000Y-88875000D01*
X129540000Y-86355000D02*
X130790000Y-86355000D01*
X130790000Y-86355000D02*
X130790000Y-87605000D01*
X130790000Y-88875000D02*
X130790000Y-101605000D01*
X130790000Y-101605000D02*
X105290000Y-101605000D01*
%TO.C,J5*%
X98492000Y-121860000D02*
X99822000Y-121860000D01*
X98492000Y-123190000D02*
X98492000Y-121860000D01*
X98492000Y-124460000D02*
X98492000Y-127060000D01*
X98492000Y-124460000D02*
X101092000Y-124460000D01*
X98492000Y-127060000D02*
X103692000Y-127060000D01*
X101092000Y-121860000D02*
X103692000Y-121860000D01*
X101092000Y-124460000D02*
X101092000Y-121860000D01*
X103692000Y-121860000D02*
X103692000Y-127060000D01*
%TO.C,JB1*%
X196790000Y-72330000D02*
X198120000Y-72330000D01*
X196790000Y-73660000D02*
X196790000Y-72330000D01*
X196790000Y-74930000D02*
X196790000Y-87690000D01*
X196790000Y-74930000D02*
X199390000Y-74930000D01*
X196790000Y-87690000D02*
X201990000Y-87690000D01*
X199390000Y-72330000D02*
X201990000Y-72330000D01*
X199390000Y-74930000D02*
X199390000Y-72330000D01*
X201990000Y-72330000D02*
X201990000Y-87690000D01*
%TO.C,J9*%
X135830000Y-62170000D02*
X137160000Y-62170000D01*
X135830000Y-63500000D02*
X135830000Y-62170000D01*
X135830000Y-64770000D02*
X135830000Y-123250000D01*
X135830000Y-64770000D02*
X138430000Y-64770000D01*
X135830000Y-123250000D02*
X141030000Y-123250000D01*
X138430000Y-62170000D02*
X141030000Y-62170000D01*
X138430000Y-64770000D02*
X138430000Y-62170000D01*
X141030000Y-62170000D02*
X141030000Y-123250000D01*
%TO.C,J6*%
X86046000Y-44136000D02*
X87376000Y-44136000D01*
X86046000Y-45466000D02*
X86046000Y-44136000D01*
X86046000Y-46736000D02*
X86046000Y-145856000D01*
X86046000Y-46736000D02*
X88646000Y-46736000D01*
X86046000Y-145856000D02*
X91246000Y-145856000D01*
X88646000Y-44136000D02*
X91246000Y-44136000D01*
X88646000Y-46736000D02*
X88646000Y-44136000D01*
X91246000Y-44136000D02*
X91246000Y-145856000D01*
%TD*%
M02*
