%TF.GenerationSoftware,KiCad,Pcbnew,9.0.1-9.0.1-0~ubuntu24.04.1*%
%TF.CreationDate,2025-04-22T11:44:27+09:00*%
%TF.ProjectId,PSCE-TEST_Cyclone4_6k,50534345-2d54-4455-9354-5f4379636c6f,rev?*%
%TF.SameCoordinates,Original*%
%TF.FileFunction,Soldermask,Top*%
%TF.FilePolarity,Negative*%
%FSLAX46Y46*%
G04 Gerber Fmt 4.6, Leading zero omitted, Abs format (unit mm)*
G04 Created by KiCad (PCBNEW 9.0.1-9.0.1-0~ubuntu24.04.1) date 2025-04-22 11:44:27*
%MOMM*%
%LPD*%
G01*
G04 APERTURE LIST*
G04 Aperture macros list*
%AMRoundRect*
0 Rectangle with rounded corners*
0 $1 Rounding radius*
0 $2 $3 $4 $5 $6 $7 $8 $9 X,Y pos of 4 corners*
0 Add a 4 corners polygon primitive as box body*
4,1,4,$2,$3,$4,$5,$6,$7,$8,$9,$2,$3,0*
0 Add four circle primitives for the rounded corners*
1,1,$1+$1,$2,$3*
1,1,$1+$1,$4,$5*
1,1,$1+$1,$6,$7*
1,1,$1+$1,$8,$9*
0 Add four rect primitives between the rounded corners*
20,1,$1+$1,$2,$3,$4,$5,0*
20,1,$1+$1,$4,$5,$6,$7,0*
20,1,$1+$1,$6,$7,$8,$9,0*
20,1,$1+$1,$8,$9,$2,$3,0*%
G04 Aperture macros list end*
%ADD10O,1.700000X1.700000*%
%ADD11R,3.500000X3.500000*%
%ADD12RoundRect,0.750000X1.000000X-0.750000X1.000000X0.750000X-1.000000X0.750000X-1.000000X-0.750000X0*%
%ADD13RoundRect,0.875000X0.875000X-0.875000X0.875000X0.875000X-0.875000X0.875000X-0.875000X-0.875000X0*%
%ADD14R,1.700000X1.700000*%
%ADD15C,3.500000*%
G04 APERTURE END LIST*
D10*
%TO.C,*%
X175260000Y-127000000D03*
%TD*%
%TO.C,*%
X162560000Y-129540000D03*
%TD*%
%TO.C,*%
X160020000Y-111760000D03*
%TD*%
%TO.C,*%
X170180000Y-104140000D03*
%TD*%
D11*
%TO.C,J13*%
X147886500Y-134970000D03*
D12*
X147886500Y-140970000D03*
D13*
X152586500Y-137970000D03*
%TD*%
D10*
%TO.C,*%
X165100000Y-76200000D03*
%TD*%
%TO.C,*%
X175260000Y-86360000D03*
%TD*%
%TO.C,*%
X177800000Y-73660000D03*
%TD*%
%TO.C,*%
X162560000Y-139700000D03*
%TD*%
%TO.C,*%
X149860000Y-71120000D03*
%TD*%
D14*
%TO.C,J12*%
X137160000Y-132080000D03*
D10*
X139700000Y-132080000D03*
X137160000Y-134620000D03*
X139700000Y-134620000D03*
X137160000Y-137160000D03*
X139700000Y-137160000D03*
X137160000Y-139700000D03*
X139700000Y-139700000D03*
%TD*%
%TO.C,*%
X149860000Y-58420000D03*
%TD*%
%TO.C,*%
X175260000Y-60960000D03*
%TD*%
%TO.C,*%
X162560000Y-99060000D03*
%TD*%
%TO.C,*%
X182880000Y-137160000D03*
%TD*%
%TO.C,*%
X175260000Y-147320000D03*
%TD*%
D14*
%TO.C,J2*%
X99822000Y-69850000D03*
D10*
X102362000Y-69850000D03*
X99822000Y-72390000D03*
X102362000Y-72390000D03*
%TD*%
%TO.C,*%
X160020000Y-81280000D03*
%TD*%
%TO.C,*%
X182880000Y-129540000D03*
%TD*%
%TO.C,*%
X170180000Y-101600000D03*
%TD*%
%TO.C,*%
X172720000Y-63500000D03*
%TD*%
%TO.C,*%
X152400000Y-104140000D03*
%TD*%
%TO.C,*%
X157480000Y-88900000D03*
%TD*%
%TO.C,*%
X175260000Y-129540000D03*
%TD*%
%TO.C,*%
X162560000Y-81280000D03*
%TD*%
%TO.C,*%
X172720000Y-76200000D03*
%TD*%
%TO.C,*%
X162560000Y-58420000D03*
%TD*%
%TO.C,*%
X152400000Y-55880000D03*
%TD*%
%TO.C,*%
X157480000Y-93980000D03*
%TD*%
%TO.C,*%
X182880000Y-142240000D03*
%TD*%
%TO.C,*%
X167640000Y-137160000D03*
%TD*%
%TO.C,*%
X154940000Y-53340000D03*
%TD*%
%TO.C,*%
X147320000Y-119380000D03*
%TD*%
%TO.C,*%
X175260000Y-137160000D03*
%TD*%
%TO.C,*%
X152400000Y-119380000D03*
%TD*%
%TO.C,*%
X160020000Y-60960000D03*
%TD*%
%TO.C,*%
X167640000Y-93980000D03*
%TD*%
%TO.C,*%
X167640000Y-68580000D03*
%TD*%
%TO.C,*%
X172720000Y-83820000D03*
%TD*%
%TO.C,*%
X160020000Y-121920000D03*
%TD*%
%TO.C,*%
X165100000Y-129540000D03*
%TD*%
%TO.C,*%
X175260000Y-78740000D03*
%TD*%
%TO.C,*%
X152400000Y-73660000D03*
%TD*%
%TO.C,*%
X162560000Y-114300000D03*
%TD*%
D14*
%TO.C,J4*%
X99822000Y-105410000D03*
D10*
X102362000Y-105410000D03*
X99822000Y-107950000D03*
X102362000Y-107950000D03*
%TD*%
%TO.C,*%
X165100000Y-104140000D03*
%TD*%
%TO.C,*%
X165100000Y-55880000D03*
%TD*%
%TO.C,*%
X175260000Y-73660000D03*
%TD*%
%TO.C,*%
X160020000Y-106680000D03*
%TD*%
%TO.C,*%
X177800000Y-111760000D03*
%TD*%
%TO.C,*%
X167640000Y-53340000D03*
%TD*%
%TO.C,*%
X175260000Y-121920000D03*
%TD*%
%TO.C,*%
X162560000Y-116840000D03*
%TD*%
%TO.C,*%
X175260000Y-58420000D03*
%TD*%
%TO.C,*%
X154940000Y-127000000D03*
%TD*%
%TO.C,*%
X172720000Y-93980000D03*
%TD*%
%TO.C,*%
X147320000Y-127000000D03*
%TD*%
%TO.C,*%
X154940000Y-109220000D03*
%TD*%
%TO.C,*%
X170180000Y-132080000D03*
%TD*%
%TO.C,*%
X149860000Y-53340000D03*
%TD*%
%TO.C,*%
X157480000Y-119380000D03*
%TD*%
%TO.C,*%
X177800000Y-144780000D03*
%TD*%
%TO.C,*%
X162560000Y-88900000D03*
%TD*%
%TO.C,*%
X180340000Y-134620000D03*
%TD*%
%TO.C,*%
X175260000Y-55880000D03*
%TD*%
%TO.C,*%
X167640000Y-121920000D03*
%TD*%
D14*
%TO.C,U1*%
X129540000Y-52045000D03*
D10*
X127000000Y-52045000D03*
X124460000Y-52045000D03*
X121920000Y-52045000D03*
X119380000Y-52045000D03*
X116840000Y-52045000D03*
X114300000Y-52045000D03*
X111760000Y-52045000D03*
X109220000Y-52045000D03*
X106680000Y-52045000D03*
X106680000Y-64745000D03*
X109220000Y-64745000D03*
X111760000Y-64745000D03*
X114300000Y-64745000D03*
X116840000Y-64745000D03*
X119380000Y-64745000D03*
X121920000Y-64745000D03*
X124460000Y-64745000D03*
X127000000Y-64745000D03*
X129540000Y-64745000D03*
%TD*%
%TO.C,*%
X165100000Y-68580000D03*
%TD*%
%TO.C,*%
X149860000Y-106680000D03*
%TD*%
%TO.C,*%
X149860000Y-88900000D03*
%TD*%
%TO.C,*%
X165100000Y-73660000D03*
%TD*%
D14*
%TO.C,U2*%
X129540000Y-69825000D03*
D10*
X127000000Y-69825000D03*
X124460000Y-69825000D03*
X121920000Y-69825000D03*
X119380000Y-69825000D03*
X116840000Y-69825000D03*
X114300000Y-69825000D03*
X111760000Y-69825000D03*
X109220000Y-69825000D03*
X106680000Y-69825000D03*
X106680000Y-82525000D03*
X109220000Y-82525000D03*
X111760000Y-82525000D03*
X114300000Y-82525000D03*
X116840000Y-82525000D03*
X119380000Y-82525000D03*
X121920000Y-82525000D03*
X124460000Y-82525000D03*
X127000000Y-82525000D03*
X129540000Y-82525000D03*
%TD*%
%TO.C,*%
X157480000Y-124460000D03*
%TD*%
%TO.C,*%
X165100000Y-119380000D03*
%TD*%
%TO.C,*%
X154940000Y-76200000D03*
%TD*%
%TO.C,*%
X162560000Y-134620000D03*
%TD*%
%TO.C,*%
X154940000Y-93980000D03*
%TD*%
%TO.C,*%
X152400000Y-81280000D03*
%TD*%
D14*
%TO.C,U5*%
X129540000Y-123165000D03*
D10*
X127000000Y-123165000D03*
X124460000Y-123165000D03*
X121920000Y-123165000D03*
X119380000Y-123165000D03*
X116840000Y-123165000D03*
X114300000Y-123165000D03*
X111760000Y-123165000D03*
X109220000Y-123165000D03*
X106680000Y-123165000D03*
X106680000Y-135865000D03*
X109220000Y-135865000D03*
X111760000Y-135865000D03*
X114300000Y-135865000D03*
X116840000Y-135865000D03*
X119380000Y-135865000D03*
X121920000Y-135865000D03*
X124460000Y-135865000D03*
X127000000Y-135865000D03*
X129540000Y-135865000D03*
%TD*%
%TO.C,*%
X175260000Y-66040000D03*
%TD*%
%TO.C,*%
X177800000Y-114300000D03*
%TD*%
%TO.C,*%
X170180000Y-66040000D03*
%TD*%
%TO.C,*%
X167640000Y-124460000D03*
%TD*%
%TO.C,*%
X170180000Y-99060000D03*
%TD*%
%TO.C,*%
X152400000Y-68580000D03*
%TD*%
%TO.C,*%
X149860000Y-66040000D03*
%TD*%
%TO.C,*%
X152400000Y-88900000D03*
%TD*%
%TO.C,*%
X154940000Y-116840000D03*
%TD*%
%TO.C,*%
X160020000Y-71120000D03*
%TD*%
%TO.C,*%
X160020000Y-116840000D03*
%TD*%
%TO.C,*%
X160020000Y-88900000D03*
%TD*%
%TO.C,*%
X152400000Y-60960000D03*
%TD*%
%TO.C,*%
X157480000Y-71120000D03*
%TD*%
%TO.C,*%
X160020000Y-101600000D03*
%TD*%
%TO.C,*%
X157480000Y-101600000D03*
%TD*%
%TO.C,*%
X172720000Y-81280000D03*
%TD*%
%TO.C,*%
X160020000Y-55880000D03*
%TD*%
%TO.C,*%
X167640000Y-78740000D03*
%TD*%
%TO.C,*%
X185420000Y-132080000D03*
%TD*%
%TO.C,*%
X182880000Y-139700000D03*
%TD*%
%TO.C,*%
X149860000Y-60960000D03*
%TD*%
%TO.C,*%
X162560000Y-63500000D03*
%TD*%
%TO.C,*%
X177800000Y-76200000D03*
%TD*%
%TO.C,*%
X165100000Y-114300000D03*
%TD*%
%TO.C,*%
X165100000Y-124460000D03*
%TD*%
%TO.C,*%
X180340000Y-144780000D03*
%TD*%
%TO.C,*%
X180340000Y-142240000D03*
%TD*%
%TO.C,*%
X165100000Y-53340000D03*
%TD*%
%TO.C,*%
X152400000Y-124460000D03*
%TD*%
%TO.C,*%
X170180000Y-137160000D03*
%TD*%
%TO.C,*%
X147320000Y-93980000D03*
%TD*%
%TO.C,*%
X175260000Y-114300000D03*
%TD*%
%TO.C,*%
X167640000Y-55880000D03*
%TD*%
%TO.C,*%
X177800000Y-93980000D03*
%TD*%
%TO.C,*%
X172720000Y-86360000D03*
%TD*%
%TO.C,*%
X157480000Y-111760000D03*
%TD*%
%TO.C,*%
X177800000Y-116840000D03*
%TD*%
%TO.C,*%
X165100000Y-91440000D03*
%TD*%
%TO.C,*%
X177800000Y-121920000D03*
%TD*%
%TO.C,*%
X170180000Y-53340000D03*
%TD*%
%TO.C,*%
X157480000Y-96520000D03*
%TD*%
%TO.C,*%
X162560000Y-101600000D03*
%TD*%
%TO.C,*%
X160020000Y-93980000D03*
%TD*%
%TO.C,*%
X149860000Y-96520000D03*
%TD*%
%TO.C,*%
X167640000Y-58420000D03*
%TD*%
%TO.C,*%
X175260000Y-139700000D03*
%TD*%
%TO.C,*%
X147320000Y-78740000D03*
%TD*%
%TO.C,*%
X165100000Y-139700000D03*
%TD*%
%TO.C,*%
X162560000Y-127000000D03*
%TD*%
%TO.C,*%
X177800000Y-104140000D03*
%TD*%
%TO.C,*%
X162560000Y-83820000D03*
%TD*%
%TO.C,*%
X149860000Y-99060000D03*
%TD*%
%TO.C,*%
X162560000Y-53340000D03*
%TD*%
%TO.C,*%
X185420000Y-129540000D03*
%TD*%
%TO.C,*%
X157480000Y-58420000D03*
%TD*%
%TO.C,*%
X149860000Y-55880000D03*
%TD*%
%TO.C,*%
X170180000Y-68580000D03*
%TD*%
%TO.C,*%
X172720000Y-137160000D03*
%TD*%
%TO.C,*%
X154940000Y-106680000D03*
%TD*%
%TO.C,*%
X172720000Y-53340000D03*
%TD*%
%TO.C,*%
X147320000Y-109220000D03*
%TD*%
%TO.C,*%
X177800000Y-129540000D03*
%TD*%
%TO.C,*%
X170180000Y-76200000D03*
%TD*%
%TO.C,*%
X167640000Y-66040000D03*
%TD*%
%TO.C,*%
X170180000Y-73660000D03*
%TD*%
%TO.C,*%
X170180000Y-86360000D03*
%TD*%
%TO.C,*%
X175260000Y-101600000D03*
%TD*%
%TO.C,*%
X149860000Y-76200000D03*
%TD*%
%TO.C,*%
X147320000Y-63500000D03*
%TD*%
%TO.C,*%
X147320000Y-73660000D03*
%TD*%
%TO.C,*%
X175260000Y-144780000D03*
%TD*%
%TO.C,*%
X165100000Y-86360000D03*
%TD*%
%TO.C,*%
X160020000Y-137160000D03*
%TD*%
%TO.C,*%
X160020000Y-63500000D03*
%TD*%
%TO.C,*%
X165100000Y-142240000D03*
%TD*%
%TO.C,*%
X162560000Y-73660000D03*
%TD*%
%TO.C,*%
X160020000Y-132080000D03*
%TD*%
%TO.C,*%
X157480000Y-144780000D03*
%TD*%
%TO.C,*%
X160020000Y-68580000D03*
%TD*%
%TO.C,*%
X170180000Y-127000000D03*
%TD*%
%TO.C,*%
X160020000Y-139700000D03*
%TD*%
%TO.C,*%
X152400000Y-58420000D03*
%TD*%
%TO.C,*%
X177800000Y-60960000D03*
%TD*%
%TO.C,*%
X157480000Y-68580000D03*
%TD*%
%TO.C,*%
X177800000Y-53340000D03*
%TD*%
%TO.C,*%
X180340000Y-147320000D03*
%TD*%
%TO.C,*%
X152400000Y-109220000D03*
%TD*%
%TO.C,*%
X152400000Y-101600000D03*
%TD*%
%TO.C,*%
X147320000Y-101600000D03*
%TD*%
%TO.C,*%
X157480000Y-66040000D03*
%TD*%
%TO.C,*%
X180340000Y-132080000D03*
%TD*%
%TO.C,*%
X147320000Y-55880000D03*
%TD*%
%TO.C,*%
X175260000Y-91440000D03*
%TD*%
%TO.C,*%
X177800000Y-58420000D03*
%TD*%
%TO.C,*%
X175260000Y-134620000D03*
%TD*%
%TO.C,*%
X167640000Y-134620000D03*
%TD*%
%TO.C,*%
X167640000Y-96520000D03*
%TD*%
%TO.C,*%
X170180000Y-124460000D03*
%TD*%
%TO.C,*%
X170180000Y-114300000D03*
%TD*%
%TO.C,*%
X147320000Y-68580000D03*
%TD*%
%TO.C,*%
X154940000Y-78740000D03*
%TD*%
%TO.C,*%
X172720000Y-109220000D03*
%TD*%
%TO.C,*%
X147320000Y-121920000D03*
%TD*%
%TO.C,*%
X177800000Y-96520000D03*
%TD*%
%TO.C,*%
X175260000Y-81280000D03*
%TD*%
%TO.C,*%
X160020000Y-76200000D03*
%TD*%
%TO.C,*%
X165100000Y-81280000D03*
%TD*%
%TO.C,*%
X165100000Y-121920000D03*
%TD*%
%TO.C,*%
X154940000Y-66040000D03*
%TD*%
%TO.C,*%
X147320000Y-96520000D03*
%TD*%
%TO.C,*%
X175260000Y-76200000D03*
%TD*%
%TO.C,*%
X167640000Y-147320000D03*
%TD*%
%TO.C,*%
X149860000Y-121920000D03*
%TD*%
%TO.C,*%
X157480000Y-78740000D03*
%TD*%
%TO.C,*%
X152400000Y-121920000D03*
%TD*%
%TO.C,*%
X177800000Y-68580000D03*
%TD*%
%TO.C,*%
X175260000Y-116840000D03*
%TD*%
%TO.C,*%
X170180000Y-63500000D03*
%TD*%
%TO.C,*%
X157480000Y-109220000D03*
%TD*%
%TO.C,*%
X160020000Y-73660000D03*
%TD*%
%TO.C,*%
X175260000Y-68580000D03*
%TD*%
%TO.C,*%
X170180000Y-96520000D03*
%TD*%
%TO.C,*%
X149860000Y-116840000D03*
%TD*%
%TO.C,*%
X177800000Y-99060000D03*
%TD*%
%TO.C,*%
X152400000Y-76200000D03*
%TD*%
%TO.C,*%
X175260000Y-142240000D03*
%TD*%
%TO.C,*%
X149860000Y-83820000D03*
%TD*%
D14*
%TO.C,JA1*%
X198120000Y-50800000D03*
D10*
X200660000Y-50800000D03*
X198120000Y-53340000D03*
X200660000Y-53340000D03*
X198120000Y-55880000D03*
X200660000Y-55880000D03*
X198120000Y-58420000D03*
X200660000Y-58420000D03*
X198120000Y-60960000D03*
X200660000Y-60960000D03*
X198120000Y-63500000D03*
X200660000Y-63500000D03*
%TD*%
%TO.C,*%
X177800000Y-139700000D03*
%TD*%
%TO.C,*%
X152400000Y-53340000D03*
%TD*%
%TO.C,*%
X167640000Y-106680000D03*
%TD*%
%TO.C,*%
X149860000Y-101600000D03*
%TD*%
%TO.C,*%
X170180000Y-121920000D03*
%TD*%
%TO.C,*%
X165100000Y-101600000D03*
%TD*%
%TO.C,*%
X177800000Y-91440000D03*
%TD*%
%TO.C,*%
X172720000Y-88900000D03*
%TD*%
%TO.C,*%
X185420000Y-137160000D03*
%TD*%
%TO.C,*%
X154940000Y-58420000D03*
%TD*%
%TO.C,*%
X160020000Y-127000000D03*
%TD*%
%TO.C,*%
X162560000Y-119380000D03*
%TD*%
%TO.C,*%
X165100000Y-66040000D03*
%TD*%
%TO.C,*%
X157480000Y-55880000D03*
%TD*%
%TO.C,*%
X167640000Y-71120000D03*
%TD*%
%TO.C,*%
X165100000Y-147320000D03*
%TD*%
%TO.C,*%
X177800000Y-142240000D03*
%TD*%
%TO.C,*%
X160020000Y-142240000D03*
%TD*%
%TO.C,*%
X147320000Y-91440000D03*
%TD*%
D14*
%TO.C,J8*%
X185420000Y-63500000D03*
D10*
X187960000Y-63500000D03*
X185420000Y-66040000D03*
X187960000Y-66040000D03*
X185420000Y-68580000D03*
X187960000Y-68580000D03*
X185420000Y-71120000D03*
X187960000Y-71120000D03*
X185420000Y-73660000D03*
X187960000Y-73660000D03*
X185420000Y-76200000D03*
X187960000Y-76200000D03*
X185420000Y-78740000D03*
X187960000Y-78740000D03*
X185420000Y-81280000D03*
X187960000Y-81280000D03*
X185420000Y-83820000D03*
X187960000Y-83820000D03*
X185420000Y-86360000D03*
X187960000Y-86360000D03*
X185420000Y-88900000D03*
X187960000Y-88900000D03*
X185420000Y-91440000D03*
X187960000Y-91440000D03*
X185420000Y-93980000D03*
X187960000Y-93980000D03*
X185420000Y-96520000D03*
X187960000Y-96520000D03*
X185420000Y-99060000D03*
X187960000Y-99060000D03*
X185420000Y-101600000D03*
X187960000Y-101600000D03*
X185420000Y-104140000D03*
X187960000Y-104140000D03*
X185420000Y-106680000D03*
X187960000Y-106680000D03*
X185420000Y-109220000D03*
X187960000Y-109220000D03*
X185420000Y-111760000D03*
X187960000Y-111760000D03*
X185420000Y-114300000D03*
X187960000Y-114300000D03*
X185420000Y-116840000D03*
X187960000Y-116840000D03*
X185420000Y-119380000D03*
X187960000Y-119380000D03*
X185420000Y-121920000D03*
X187960000Y-121920000D03*
%TD*%
%TO.C,*%
X154940000Y-86360000D03*
%TD*%
%TO.C,*%
X175260000Y-93980000D03*
%TD*%
%TO.C,*%
X172720000Y-71120000D03*
%TD*%
%TO.C,*%
X152400000Y-106680000D03*
%TD*%
%TO.C,*%
X177800000Y-71120000D03*
%TD*%
%TO.C,*%
X157480000Y-121920000D03*
%TD*%
%TO.C,*%
X152400000Y-99060000D03*
%TD*%
%TO.C,*%
X172720000Y-111760000D03*
%TD*%
%TO.C,*%
X154940000Y-104140000D03*
%TD*%
%TO.C,*%
X160020000Y-99060000D03*
%TD*%
%TO.C,*%
X154940000Y-68580000D03*
%TD*%
%TO.C,*%
X177800000Y-81280000D03*
%TD*%
%TO.C,*%
X165100000Y-127000000D03*
%TD*%
%TO.C,*%
X160020000Y-114300000D03*
%TD*%
%TO.C,*%
X152400000Y-78740000D03*
%TD*%
%TO.C,*%
X172720000Y-116840000D03*
%TD*%
%TO.C,*%
X157480000Y-142240000D03*
%TD*%
%TO.C,*%
X154940000Y-101600000D03*
%TD*%
%TO.C,*%
X154940000Y-124460000D03*
%TD*%
%TO.C,*%
X160020000Y-83820000D03*
%TD*%
%TO.C,*%
X162560000Y-144780000D03*
%TD*%
%TO.C,*%
X170180000Y-71120000D03*
%TD*%
%TO.C,*%
X165100000Y-109220000D03*
%TD*%
%TO.C,*%
X175260000Y-53340000D03*
%TD*%
%TO.C,*%
X170180000Y-81280000D03*
%TD*%
%TO.C,*%
X160020000Y-119380000D03*
%TD*%
%TO.C,*%
X162560000Y-147320000D03*
%TD*%
%TO.C,*%
X147320000Y-83820000D03*
%TD*%
D14*
%TO.C,U4*%
X129540000Y-105385000D03*
D10*
X127000000Y-105385000D03*
X124460000Y-105385000D03*
X121920000Y-105385000D03*
X119380000Y-105385000D03*
X116840000Y-105385000D03*
X114300000Y-105385000D03*
X111760000Y-105385000D03*
X109220000Y-105385000D03*
X106680000Y-105385000D03*
X106680000Y-118085000D03*
X109220000Y-118085000D03*
X111760000Y-118085000D03*
X114300000Y-118085000D03*
X116840000Y-118085000D03*
X119380000Y-118085000D03*
X121920000Y-118085000D03*
X124460000Y-118085000D03*
X127000000Y-118085000D03*
X129540000Y-118085000D03*
%TD*%
%TO.C,*%
X154940000Y-111760000D03*
%TD*%
%TO.C,*%
X149860000Y-63500000D03*
%TD*%
%TO.C,*%
X157480000Y-134620000D03*
%TD*%
%TO.C,*%
X165100000Y-106680000D03*
%TD*%
%TO.C,*%
X160020000Y-86360000D03*
%TD*%
%TO.C,*%
X167640000Y-116840000D03*
%TD*%
%TO.C,*%
X165100000Y-116840000D03*
%TD*%
%TO.C,*%
X162560000Y-60960000D03*
%TD*%
%TO.C,*%
X162560000Y-76200000D03*
%TD*%
D14*
%TO.C,J1*%
X99822000Y-52070000D03*
D10*
X102362000Y-52070000D03*
X99822000Y-54610000D03*
X102362000Y-54610000D03*
%TD*%
%TO.C,*%
X172720000Y-91440000D03*
%TD*%
%TO.C,*%
X149860000Y-81280000D03*
%TD*%
%TO.C,*%
X170180000Y-144780000D03*
%TD*%
%TO.C,*%
X147320000Y-106680000D03*
%TD*%
%TO.C,*%
X160020000Y-91440000D03*
%TD*%
D14*
%TO.C,J10*%
X188214000Y-129540000D03*
D10*
X188214000Y-132080000D03*
X188214000Y-134620000D03*
X188214000Y-137160000D03*
%TD*%
%TO.C,*%
X170180000Y-109220000D03*
%TD*%
%TO.C,*%
X160020000Y-96520000D03*
%TD*%
%TO.C,*%
X149860000Y-91440000D03*
%TD*%
%TO.C,*%
X172720000Y-119380000D03*
%TD*%
%TO.C,*%
X162560000Y-106680000D03*
%TD*%
%TO.C,*%
X172720000Y-134620000D03*
%TD*%
%TO.C,*%
X172720000Y-139700000D03*
%TD*%
%TO.C,*%
X160020000Y-109220000D03*
%TD*%
%TO.C,*%
X172720000Y-101600000D03*
%TD*%
%TO.C,*%
X154940000Y-88900000D03*
%TD*%
%TO.C,*%
X157480000Y-132080000D03*
%TD*%
%TO.C,*%
X162560000Y-66040000D03*
%TD*%
%TO.C,*%
X162560000Y-111760000D03*
%TD*%
%TO.C,*%
X154940000Y-55880000D03*
%TD*%
%TO.C,*%
X157480000Y-99060000D03*
%TD*%
%TO.C,*%
X162560000Y-86360000D03*
%TD*%
%TO.C,*%
X157480000Y-114300000D03*
%TD*%
%TO.C,*%
X154940000Y-63500000D03*
%TD*%
%TO.C,*%
X157480000Y-63500000D03*
%TD*%
%TO.C,*%
X149860000Y-93980000D03*
%TD*%
%TO.C,*%
X170180000Y-58420000D03*
%TD*%
%TO.C,*%
X162560000Y-142240000D03*
%TD*%
%TO.C,*%
X172720000Y-78740000D03*
%TD*%
%TO.C,*%
X177800000Y-55880000D03*
%TD*%
%TO.C,*%
X167640000Y-104140000D03*
%TD*%
%TO.C,*%
X165100000Y-88900000D03*
%TD*%
%TO.C,*%
X175260000Y-63500000D03*
%TD*%
D14*
%TO.C,JC1*%
X198120000Y-96520000D03*
D10*
X200660000Y-96520000D03*
X198120000Y-99060000D03*
X200660000Y-99060000D03*
X198120000Y-101600000D03*
X200660000Y-101600000D03*
X198120000Y-104140000D03*
X200660000Y-104140000D03*
X198120000Y-106680000D03*
X200660000Y-106680000D03*
X198120000Y-109220000D03*
X200660000Y-109220000D03*
%TD*%
%TO.C,*%
X170180000Y-119380000D03*
%TD*%
%TO.C,*%
X157480000Y-127000000D03*
%TD*%
%TO.C,*%
X177800000Y-132080000D03*
%TD*%
%TO.C,*%
X162560000Y-55880000D03*
%TD*%
%TO.C,*%
X152400000Y-91440000D03*
%TD*%
%TO.C,*%
X180340000Y-137160000D03*
%TD*%
%TO.C,*%
X170180000Y-147320000D03*
%TD*%
%TO.C,*%
X154940000Y-91440000D03*
%TD*%
%TO.C,*%
X167640000Y-99060000D03*
%TD*%
%TO.C,*%
X177800000Y-119380000D03*
%TD*%
%TO.C,*%
X147320000Y-58420000D03*
%TD*%
%TO.C,*%
X177800000Y-83820000D03*
%TD*%
%TO.C,*%
X162560000Y-91440000D03*
%TD*%
%TO.C,*%
X154940000Y-81280000D03*
%TD*%
%TO.C,*%
X149860000Y-111760000D03*
%TD*%
%TO.C,*%
X162560000Y-137160000D03*
%TD*%
%TO.C,*%
X157480000Y-139700000D03*
%TD*%
%TO.C,*%
X149860000Y-124460000D03*
%TD*%
%TO.C,*%
X154940000Y-83820000D03*
%TD*%
%TO.C,*%
X160020000Y-144780000D03*
%TD*%
%TO.C,*%
X165100000Y-60960000D03*
%TD*%
%TO.C,*%
X147320000Y-53340000D03*
%TD*%
%TO.C,*%
X182880000Y-144780000D03*
%TD*%
%TO.C,*%
X167640000Y-109220000D03*
%TD*%
%TO.C,*%
X167640000Y-129540000D03*
%TD*%
D14*
%TO.C,J3*%
X99822000Y-87630000D03*
D10*
X102362000Y-87630000D03*
X99822000Y-90170000D03*
X102362000Y-90170000D03*
%TD*%
%TO.C,*%
X175260000Y-111760000D03*
%TD*%
%TO.C,*%
X172720000Y-142240000D03*
%TD*%
%TO.C,*%
X152400000Y-96520000D03*
%TD*%
%TO.C,*%
X160020000Y-66040000D03*
%TD*%
%TO.C,*%
X175260000Y-119380000D03*
%TD*%
%TO.C,*%
X177800000Y-134620000D03*
%TD*%
%TO.C,*%
X180340000Y-139700000D03*
%TD*%
%TO.C,*%
X185420000Y-134620000D03*
%TD*%
%TO.C,*%
X175260000Y-83820000D03*
%TD*%
%TO.C,*%
X177800000Y-63500000D03*
%TD*%
%TO.C,*%
X160020000Y-104140000D03*
%TD*%
%TO.C,*%
X172720000Y-147320000D03*
%TD*%
D14*
%TO.C,JD1*%
X198120000Y-119380000D03*
D10*
X200660000Y-119380000D03*
X198120000Y-121920000D03*
X200660000Y-121920000D03*
X198120000Y-124460000D03*
X200660000Y-124460000D03*
X198120000Y-127000000D03*
X200660000Y-127000000D03*
X198120000Y-129540000D03*
X200660000Y-129540000D03*
X198120000Y-132080000D03*
X200660000Y-132080000D03*
%TD*%
%TO.C,*%
X172720000Y-60960000D03*
%TD*%
%TO.C,*%
X162560000Y-124460000D03*
%TD*%
%TO.C,*%
X149860000Y-104140000D03*
%TD*%
%TO.C,*%
X165100000Y-71120000D03*
%TD*%
%TO.C,*%
X172720000Y-127000000D03*
%TD*%
%TO.C,*%
X172720000Y-96520000D03*
%TD*%
%TO.C,*%
X154940000Y-119380000D03*
%TD*%
%TO.C,*%
X172720000Y-68580000D03*
%TD*%
%TO.C,*%
X149860000Y-78740000D03*
%TD*%
%TO.C,*%
X170180000Y-134620000D03*
%TD*%
%TO.C,*%
X147320000Y-86360000D03*
%TD*%
%TO.C,*%
X167640000Y-142240000D03*
%TD*%
%TO.C,*%
X157480000Y-53340000D03*
%TD*%
%TO.C,*%
X147320000Y-88900000D03*
%TD*%
%TO.C,*%
X167640000Y-88900000D03*
%TD*%
%TO.C,*%
X167640000Y-139700000D03*
%TD*%
%TO.C,*%
X157480000Y-106680000D03*
%TD*%
%TO.C,*%
X162560000Y-78740000D03*
%TD*%
%TO.C,*%
X172720000Y-114300000D03*
%TD*%
%TO.C,*%
X157480000Y-147320000D03*
%TD*%
%TO.C,*%
X157480000Y-116840000D03*
%TD*%
%TO.C,*%
X175260000Y-88900000D03*
%TD*%
%TO.C,*%
X157480000Y-76200000D03*
%TD*%
%TO.C,*%
X149860000Y-114300000D03*
%TD*%
%TO.C,*%
X172720000Y-73660000D03*
%TD*%
D14*
%TO.C,U3*%
X129540000Y-87605000D03*
D10*
X127000000Y-87605000D03*
X124460000Y-87605000D03*
X121920000Y-87605000D03*
X119380000Y-87605000D03*
X116840000Y-87605000D03*
X114300000Y-87605000D03*
X111760000Y-87605000D03*
X109220000Y-87605000D03*
X106680000Y-87605000D03*
X106680000Y-100305000D03*
X109220000Y-100305000D03*
X111760000Y-100305000D03*
X114300000Y-100305000D03*
X116840000Y-100305000D03*
X119380000Y-100305000D03*
X121920000Y-100305000D03*
X124460000Y-100305000D03*
X127000000Y-100305000D03*
X129540000Y-100305000D03*
%TD*%
%TO.C,*%
X172720000Y-132080000D03*
%TD*%
%TO.C,*%
X177800000Y-127000000D03*
%TD*%
%TO.C,*%
X160020000Y-58420000D03*
%TD*%
%TO.C,*%
X149860000Y-109220000D03*
%TD*%
%TO.C,*%
X170180000Y-106680000D03*
%TD*%
%TO.C,*%
X177800000Y-137160000D03*
%TD*%
%TO.C,*%
X170180000Y-88900000D03*
%TD*%
%TO.C,*%
X167640000Y-127000000D03*
%TD*%
%TO.C,*%
X182880000Y-134620000D03*
%TD*%
%TO.C,*%
X175260000Y-132080000D03*
%TD*%
%TO.C,*%
X175260000Y-124460000D03*
%TD*%
%TO.C,*%
X162560000Y-121920000D03*
%TD*%
%TO.C,*%
X149860000Y-127000000D03*
%TD*%
%TO.C,*%
X162560000Y-71120000D03*
%TD*%
%TO.C,*%
X147320000Y-124460000D03*
%TD*%
%TO.C,*%
X157480000Y-91440000D03*
%TD*%
%TO.C,*%
X147320000Y-76200000D03*
%TD*%
%TO.C,*%
X167640000Y-76200000D03*
%TD*%
%TO.C,*%
X152400000Y-93980000D03*
%TD*%
%TO.C,*%
X147320000Y-60960000D03*
%TD*%
%TO.C,*%
X152400000Y-63500000D03*
%TD*%
%TO.C,*%
X170180000Y-55880000D03*
%TD*%
%TO.C,*%
X154940000Y-121920000D03*
%TD*%
%TO.C,*%
X157480000Y-129540000D03*
%TD*%
%TO.C,*%
X165100000Y-83820000D03*
%TD*%
%TO.C,*%
X170180000Y-60960000D03*
%TD*%
%TO.C,*%
X170180000Y-78740000D03*
%TD*%
%TO.C,*%
X152400000Y-127000000D03*
%TD*%
%TO.C,*%
X172720000Y-58420000D03*
%TD*%
%TO.C,*%
X172720000Y-55880000D03*
%TD*%
%TO.C,*%
X165100000Y-137160000D03*
%TD*%
%TO.C,*%
X162560000Y-104140000D03*
%TD*%
%TO.C,*%
X175260000Y-96520000D03*
%TD*%
%TO.C,*%
X177800000Y-124460000D03*
%TD*%
%TO.C,*%
X167640000Y-111760000D03*
%TD*%
%TO.C,*%
X167640000Y-73660000D03*
%TD*%
%TO.C,*%
X165100000Y-99060000D03*
%TD*%
%TO.C,*%
X177800000Y-109220000D03*
%TD*%
%TO.C,*%
X170180000Y-139700000D03*
%TD*%
%TO.C,*%
X165100000Y-63500000D03*
%TD*%
%TO.C,*%
X175260000Y-109220000D03*
%TD*%
%TO.C,*%
X147320000Y-111760000D03*
%TD*%
%TO.C,*%
X177800000Y-78740000D03*
%TD*%
%TO.C,*%
X172720000Y-99060000D03*
%TD*%
%TO.C,*%
X154940000Y-114300000D03*
%TD*%
%TO.C,*%
X147320000Y-99060000D03*
%TD*%
%TO.C,*%
X160020000Y-78740000D03*
%TD*%
%TO.C,*%
X172720000Y-106680000D03*
%TD*%
%TO.C,*%
X157480000Y-137160000D03*
%TD*%
%TO.C,*%
X170180000Y-93980000D03*
%TD*%
%TO.C,*%
X157480000Y-86360000D03*
%TD*%
%TO.C,*%
X172720000Y-144780000D03*
%TD*%
%TO.C,*%
X162560000Y-68580000D03*
%TD*%
%TO.C,*%
X154940000Y-71120000D03*
%TD*%
%TO.C,*%
X177800000Y-147320000D03*
%TD*%
D14*
%TO.C,J5*%
X99822000Y-123190000D03*
D10*
X102362000Y-123190000D03*
X99822000Y-125730000D03*
X102362000Y-125730000D03*
%TD*%
%TO.C,*%
X167640000Y-83820000D03*
%TD*%
%TO.C,*%
X170180000Y-142240000D03*
%TD*%
%TO.C,*%
X160020000Y-134620000D03*
%TD*%
%TO.C,*%
X172720000Y-129540000D03*
%TD*%
%TO.C,*%
X152400000Y-111760000D03*
%TD*%
%TO.C,*%
X167640000Y-86360000D03*
%TD*%
%TO.C,*%
X175260000Y-104140000D03*
%TD*%
%TO.C,*%
X165100000Y-78740000D03*
%TD*%
%TO.C,*%
X165100000Y-144780000D03*
%TD*%
%TO.C,*%
X149860000Y-119380000D03*
%TD*%
%TO.C,*%
X165100000Y-96520000D03*
%TD*%
%TO.C,*%
X177800000Y-86360000D03*
%TD*%
%TO.C,*%
X152400000Y-83820000D03*
%TD*%
%TO.C,*%
X165100000Y-93980000D03*
%TD*%
%TO.C,*%
X170180000Y-116840000D03*
%TD*%
%TO.C,*%
X165100000Y-58420000D03*
%TD*%
%TO.C,*%
X177800000Y-101600000D03*
%TD*%
%TO.C,*%
X154940000Y-60960000D03*
%TD*%
%TO.C,*%
X170180000Y-111760000D03*
%TD*%
%TO.C,*%
X180340000Y-129540000D03*
%TD*%
%TO.C,*%
X157480000Y-60960000D03*
%TD*%
%TO.C,*%
X175260000Y-106680000D03*
%TD*%
%TO.C,*%
X149860000Y-73660000D03*
%TD*%
%TO.C,*%
X167640000Y-114300000D03*
%TD*%
%TO.C,*%
X165100000Y-132080000D03*
%TD*%
%TO.C,*%
X167640000Y-60960000D03*
%TD*%
%TO.C,*%
X157480000Y-104140000D03*
%TD*%
D15*
%TO.C,H3*%
X97500000Y-144500000D03*
%TD*%
D10*
%TO.C,*%
X165100000Y-134620000D03*
%TD*%
%TO.C,*%
X152400000Y-114300000D03*
%TD*%
%TO.C,*%
X152400000Y-116840000D03*
%TD*%
D15*
%TO.C,H4*%
X190500000Y-144500000D03*
%TD*%
D14*
%TO.C,JB1*%
X198120000Y-73660000D03*
D10*
X200660000Y-73660000D03*
X198120000Y-76200000D03*
X200660000Y-76200000D03*
X198120000Y-78740000D03*
X200660000Y-78740000D03*
X198120000Y-81280000D03*
X200660000Y-81280000D03*
X198120000Y-83820000D03*
X200660000Y-83820000D03*
X198120000Y-86360000D03*
X200660000Y-86360000D03*
%TD*%
%TO.C,*%
X167640000Y-101600000D03*
%TD*%
%TO.C,*%
X152400000Y-66040000D03*
%TD*%
%TO.C,*%
X162560000Y-96520000D03*
%TD*%
%TO.C,*%
X170180000Y-83820000D03*
%TD*%
%TO.C,*%
X160020000Y-129540000D03*
%TD*%
%TO.C,*%
X154940000Y-96520000D03*
%TD*%
%TO.C,*%
X147320000Y-71120000D03*
%TD*%
%TO.C,*%
X162560000Y-132080000D03*
%TD*%
D15*
%TO.C,H2*%
X190500000Y-45500000D03*
%TD*%
D10*
%TO.C,*%
X147320000Y-81280000D03*
%TD*%
%TO.C,*%
X182880000Y-132080000D03*
%TD*%
%TO.C,*%
X165100000Y-111760000D03*
%TD*%
%TO.C,*%
X177800000Y-106680000D03*
%TD*%
%TO.C,*%
X160020000Y-147320000D03*
%TD*%
%TO.C,*%
X172720000Y-124460000D03*
%TD*%
%TO.C,*%
X167640000Y-144780000D03*
%TD*%
%TO.C,*%
X157480000Y-81280000D03*
%TD*%
D14*
%TO.C,J9*%
X137160000Y-63500000D03*
D10*
X139700000Y-63500000D03*
X137160000Y-66040000D03*
X139700000Y-66040000D03*
X137160000Y-68580000D03*
X139700000Y-68580000D03*
X137160000Y-71120000D03*
X139700000Y-71120000D03*
X137160000Y-73660000D03*
X139700000Y-73660000D03*
X137160000Y-76200000D03*
X139700000Y-76200000D03*
X137160000Y-78740000D03*
X139700000Y-78740000D03*
X137160000Y-81280000D03*
X139700000Y-81280000D03*
X137160000Y-83820000D03*
X139700000Y-83820000D03*
X137160000Y-86360000D03*
X139700000Y-86360000D03*
X137160000Y-88900000D03*
X139700000Y-88900000D03*
X137160000Y-91440000D03*
X139700000Y-91440000D03*
X137160000Y-93980000D03*
X139700000Y-93980000D03*
X137160000Y-96520000D03*
X139700000Y-96520000D03*
X137160000Y-99060000D03*
X139700000Y-99060000D03*
X137160000Y-101600000D03*
X139700000Y-101600000D03*
X137160000Y-104140000D03*
X139700000Y-104140000D03*
X137160000Y-106680000D03*
X139700000Y-106680000D03*
X137160000Y-109220000D03*
X139700000Y-109220000D03*
X137160000Y-111760000D03*
X139700000Y-111760000D03*
X137160000Y-114300000D03*
X139700000Y-114300000D03*
X137160000Y-116840000D03*
X139700000Y-116840000D03*
X137160000Y-119380000D03*
X139700000Y-119380000D03*
X137160000Y-121920000D03*
X139700000Y-121920000D03*
%TD*%
%TO.C,*%
X175260000Y-71120000D03*
%TD*%
%TO.C,*%
X167640000Y-119380000D03*
%TD*%
%TO.C,*%
X157480000Y-83820000D03*
%TD*%
%TO.C,*%
X152400000Y-71120000D03*
%TD*%
%TO.C,*%
X172720000Y-66040000D03*
%TD*%
%TO.C,*%
X154940000Y-99060000D03*
%TD*%
%TO.C,*%
X147320000Y-114300000D03*
%TD*%
%TO.C,*%
X177800000Y-66040000D03*
%TD*%
%TO.C,*%
X162560000Y-93980000D03*
%TD*%
%TO.C,*%
X160020000Y-53340000D03*
%TD*%
%TO.C,*%
X172720000Y-121920000D03*
%TD*%
%TO.C,*%
X157480000Y-73660000D03*
%TD*%
%TO.C,*%
X175260000Y-99060000D03*
%TD*%
D15*
%TO.C,H1*%
X97500000Y-45500000D03*
%TD*%
D10*
%TO.C,*%
X177800000Y-88900000D03*
%TD*%
%TO.C,*%
X167640000Y-81280000D03*
%TD*%
%TO.C,*%
X149860000Y-68580000D03*
%TD*%
%TO.C,*%
X152400000Y-86360000D03*
%TD*%
%TO.C,*%
X170180000Y-129540000D03*
%TD*%
%TO.C,*%
X170180000Y-91440000D03*
%TD*%
%TO.C,*%
X172720000Y-104140000D03*
%TD*%
%TO.C,*%
X167640000Y-91440000D03*
%TD*%
%TO.C,*%
X182880000Y-147320000D03*
%TD*%
%TO.C,*%
X149860000Y-86360000D03*
%TD*%
%TO.C,*%
X147320000Y-116840000D03*
%TD*%
%TO.C,*%
X147320000Y-104140000D03*
%TD*%
D14*
%TO.C,J6*%
X87376000Y-45466000D03*
D10*
X89916000Y-45466000D03*
X87376000Y-48006000D03*
X89916000Y-48006000D03*
X87376000Y-50546000D03*
X89916000Y-50546000D03*
X87376000Y-53086000D03*
X89916000Y-53086000D03*
X87376000Y-55626000D03*
X89916000Y-55626000D03*
X87376000Y-58166000D03*
X89916000Y-58166000D03*
X87376000Y-60706000D03*
X89916000Y-60706000D03*
X87376000Y-63246000D03*
X89916000Y-63246000D03*
X87376000Y-65786000D03*
X89916000Y-65786000D03*
X87376000Y-68326000D03*
X89916000Y-68326000D03*
X87376000Y-70866000D03*
X89916000Y-70866000D03*
X87376000Y-73406000D03*
X89916000Y-73406000D03*
X87376000Y-75946000D03*
X89916000Y-75946000D03*
X87376000Y-78486000D03*
X89916000Y-78486000D03*
X87376000Y-81026000D03*
X89916000Y-81026000D03*
X87376000Y-83566000D03*
X89916000Y-83566000D03*
X87376000Y-86106000D03*
X89916000Y-86106000D03*
X87376000Y-88646000D03*
X89916000Y-88646000D03*
X87376000Y-91186000D03*
X89916000Y-91186000D03*
X87376000Y-93726000D03*
X89916000Y-93726000D03*
X87376000Y-96266000D03*
X89916000Y-96266000D03*
X87376000Y-98806000D03*
X89916000Y-98806000D03*
X87376000Y-101346000D03*
X89916000Y-101346000D03*
X87376000Y-103886000D03*
X89916000Y-103886000D03*
X87376000Y-106426000D03*
X89916000Y-106426000D03*
X87376000Y-108966000D03*
X89916000Y-108966000D03*
X87376000Y-111506000D03*
X89916000Y-111506000D03*
X87376000Y-114046000D03*
X89916000Y-114046000D03*
X87376000Y-116586000D03*
X89916000Y-116586000D03*
X87376000Y-119126000D03*
X89916000Y-119126000D03*
X87376000Y-121666000D03*
X89916000Y-121666000D03*
X87376000Y-124206000D03*
X89916000Y-124206000D03*
X87376000Y-126746000D03*
X89916000Y-126746000D03*
X87376000Y-129286000D03*
X89916000Y-129286000D03*
X87376000Y-131826000D03*
X89916000Y-131826000D03*
X87376000Y-134366000D03*
X89916000Y-134366000D03*
X87376000Y-136906000D03*
X89916000Y-136906000D03*
X87376000Y-139446000D03*
X89916000Y-139446000D03*
X87376000Y-141986000D03*
X89916000Y-141986000D03*
X87376000Y-144526000D03*
X89916000Y-144526000D03*
%TD*%
%TO.C,*%
X147320000Y-66040000D03*
%TD*%
%TO.C,*%
X162560000Y-109220000D03*
%TD*%
%TO.C,*%
X154940000Y-73660000D03*
%TD*%
%TO.C,*%
X167640000Y-132080000D03*
%TD*%
%TO.C,*%
X167640000Y-63500000D03*
%TD*%
%TO.C,*%
X160020000Y-124460000D03*
%TD*%
M02*
