M48
; DRILL file KiCad 10.0.1 date 2026-07-03T14:58:14
; FORMAT={-:-/ absolute / metric / decimal}
; #@! TF.CreationDate,2026-07-03T14:58:14+09:00
; #@! TF.GenerationSoftware,Kicad,Pcbnew,10.0.1
; #@! TF.FileFunction,Plated,1,2,PTH
FMAT,2
METRIC
; #@! TA.AperFunction,Plated,PTH,ViaDrill
T1C0.300
; #@! TA.AperFunction,Plated,PTH,ComponentDrill
T2C0.700
; #@! TA.AperFunction,Plated,PTH,ComponentDrill
T3C0.800
; #@! TA.AperFunction,Plated,PTH,ComponentDrill
T4C1.000
%
G90
G05
T1
X114.2Y-80.1
X114.2Y-83.3
X114.3Y-59.6
X114.4Y-77.1
X114.6Y-93.9
X116.6Y-80.2
X128.4Y-88.3
X129.0Y-64.9
X131.4Y-76.8
X134.4Y-82.5
X134.5Y-78.4
X137.9Y-65.0
X139.5Y-88.2
X150.0Y-79.0
X152.9Y-93.9
X153.1Y-59.7
X153.1Y-76.0
X153.2Y-79.0
X153.3Y-82.1
T2
X122.18Y-67.5
X123.49Y-85.3
X129.8Y-67.5
X131.11Y-85.3
X136.3Y-85.3
X137.48Y-67.5
X143.92Y-85.3
X145.1Y-67.5
T3
X122.18Y-69.8
X122.18Y-72.3
X128.6Y-75.09
X128.6Y-77.63
X128.6Y-80.17
X128.6Y-82.71
X129.8Y-69.8
X129.8Y-72.3
X132.3Y-63.3
X132.8Y-93.0
X134.8Y-63.3
X135.3Y-93.0
X137.58Y-69.8
X137.59Y-72.3
X138.76Y-75.09
X138.76Y-77.63
X138.76Y-80.17
X138.76Y-82.71
X145.2Y-69.8
X145.21Y-72.3
T4
X117.885Y-70.735
X117.885Y-73.275
X121.1Y-76.86
X121.9Y-88.2
X123.025Y-64.685
X123.6Y-81.86
X124.44Y-88.2
X125.565Y-64.685
X126.1Y-76.86
X141.3Y-76.7
X141.66Y-64.6
X143.06Y-88.2
X143.8Y-81.7
X144.2Y-64.6
X145.6Y-88.2
X146.3Y-76.7
X149.215Y-70.125
X149.215Y-72.665
M30
