%TF.GenerationSoftware,KiCad,Pcbnew,10.0.1*%
%TF.CreationDate,2026-07-03T14:58:22+09:00*%
%TF.ProjectId,FrontEnd,46726f6e-7445-46e6-942e-6b696361645f,rev?*%
%TF.SameCoordinates,Original*%
%TF.FileFunction,Soldermask,Bot*%
%TF.FilePolarity,Negative*%
%FSLAX46Y46*%
G04 Gerber Fmt 4.6, Leading zero omitted, Abs format (unit mm)*
G04 Created by KiCad (PCBNEW 10.0.1) date 2026-07-03 14:58:22*
%MOMM*%
%LPD*%
G01*
G04 APERTURE LIST*
G04 Aperture macros list*
%AMRoundRect*
0 Rectangle with rounded corners*
0 $1 Rounding radius*
0 $2 $3 $4 $5 $6 $7 $8 $9 X,Y pos of 4 corners*
0 Add a 4 corners polygon primitive as box body*
4,1,4,$2,$3,$4,$5,$6,$7,$8,$9,$2,$3,0*
0 Add four circle primitives for the rounded corners*
1,1,$1+$1,$2,$3*
1,1,$1+$1,$4,$5*
1,1,$1+$1,$6,$7*
1,1,$1+$1,$8,$9*
0 Add four rect primitives between the rounded corners*
20,1,$1+$1,$2,$3,$4,$5,0*
20,1,$1+$1,$4,$5,$6,$7,0*
20,1,$1+$1,$6,$7,$8,$9,0*
20,1,$1+$1,$8,$9,$2,$3,0*%
G04 Aperture macros list end*
%ADD10RoundRect,0.250000X-0.950000X-0.550000X0.950000X-0.550000X0.950000X0.550000X-0.950000X0.550000X0*%
%ADD11O,2.400000X1.600000*%
%ADD12R,1.700000X1.700000*%
%ADD13C,1.700000*%
%ADD14C,3.200000*%
%ADD15C,1.400000*%
%ADD16RoundRect,0.250000X0.550000X0.550000X-0.550000X0.550000X-0.550000X-0.550000X0.550000X-0.550000X0*%
%ADD17C,1.600000*%
%ADD18RoundRect,0.250000X-0.550000X-0.550000X0.550000X-0.550000X0.550000X0.550000X-0.550000X0.550000X0*%
%ADD19R,1.560000X1.560000*%
%ADD20C,1.560000*%
G04 APERTURE END LIST*
D10*
%TO.C,U1*%
X128600000Y-75090000D03*
D11*
X128600000Y-77630000D03*
X128600000Y-80170000D03*
X128600000Y-82710000D03*
X138760000Y-82710000D03*
X138760000Y-80170000D03*
X138760000Y-77630000D03*
X138760000Y-75090000D03*
%TD*%
D12*
%TO.C,J3*%
X124440000Y-88200000D03*
D13*
X121900000Y-88200000D03*
%TD*%
D14*
%TO.C,TP4*%
X151500000Y-90000000D03*
%TD*%
D12*
%TO.C,J5*%
X117885000Y-73275000D03*
D13*
X117885000Y-70735000D03*
%TD*%
D14*
%TO.C,TP3*%
X116000000Y-90000000D03*
%TD*%
D15*
%TO.C,R4*%
X143920000Y-85300000D03*
X136300000Y-85300000D03*
%TD*%
D16*
%TO.C,D4*%
X145210000Y-72300000D03*
D17*
X137590000Y-72300000D03*
%TD*%
D18*
%TO.C,D2*%
X122180000Y-72300000D03*
D17*
X129800000Y-72300000D03*
%TD*%
D16*
%TO.C,D3*%
X145200000Y-69800000D03*
D17*
X137580000Y-69800000D03*
%TD*%
D12*
%TO.C,J2*%
X141660000Y-64600000D03*
D13*
X144200000Y-64600000D03*
%TD*%
D18*
%TO.C,D1*%
X122180000Y-69800000D03*
D17*
X129800000Y-69800000D03*
%TD*%
%TO.C,C2*%
X132300000Y-63300000D03*
X134800000Y-63300000D03*
%TD*%
D14*
%TO.C,TP2*%
X151500000Y-64000000D03*
%TD*%
D12*
%TO.C,J6*%
X149215000Y-70125000D03*
D13*
X149215000Y-72665000D03*
%TD*%
D19*
%TO.C,RV2*%
X141300000Y-76700000D03*
D20*
X143800000Y-81700000D03*
X146300000Y-76700000D03*
%TD*%
D15*
%TO.C,R3*%
X123490000Y-85300000D03*
X131110000Y-85300000D03*
%TD*%
%TO.C,R2*%
X145100000Y-67500000D03*
X137480000Y-67500000D03*
%TD*%
D19*
%TO.C,RV1*%
X121100000Y-76860000D03*
D20*
X123600000Y-81860000D03*
X126100000Y-76860000D03*
%TD*%
D15*
%TO.C,R1*%
X122180000Y-67500000D03*
X129800000Y-67500000D03*
%TD*%
D12*
%TO.C,J1*%
X123025000Y-64685000D03*
D13*
X125565000Y-64685000D03*
%TD*%
D12*
%TO.C,J4*%
X145600000Y-88200000D03*
D13*
X143060000Y-88200000D03*
%TD*%
D18*
%TO.C,C1*%
X132800000Y-93000000D03*
D17*
X135300000Y-93000000D03*
%TD*%
D14*
%TO.C,TP1*%
X116000000Y-64000000D03*
%TD*%
M02*
