%TF.GenerationSoftware,KiCad,Pcbnew,10.0.1*%
%TF.CreationDate,2026-07-03T14:58:21+09:00*%
%TF.ProjectId,FrontEnd,46726f6e-7445-46e6-942e-6b696361645f,rev?*%
%TF.SameCoordinates,Original*%
%TF.FileFunction,Legend,Top*%
%TF.FilePolarity,Positive*%
%FSLAX46Y46*%
G04 Gerber Fmt 4.6, Leading zero omitted, Abs format (unit mm)*
G04 Created by KiCad (PCBNEW 10.0.1) date 2026-07-03 14:58:21*
%MOMM*%
%LPD*%
G01*
G04 APERTURE LIST*
%ADD10C,0.150000*%
%ADD11C,0.120000*%
G04 APERTURE END LIST*
D10*
X132938095Y-75754819D02*
X132938095Y-76564342D01*
X132938095Y-76564342D02*
X132985714Y-76659580D01*
X132985714Y-76659580D02*
X133033333Y-76707200D01*
X133033333Y-76707200D02*
X133128571Y-76754819D01*
X133128571Y-76754819D02*
X133319047Y-76754819D01*
X133319047Y-76754819D02*
X133414285Y-76707200D01*
X133414285Y-76707200D02*
X133461904Y-76659580D01*
X133461904Y-76659580D02*
X133509523Y-76564342D01*
X133509523Y-76564342D02*
X133509523Y-75754819D01*
X134509523Y-76754819D02*
X133938095Y-76754819D01*
X134223809Y-76754819D02*
X134223809Y-75754819D01*
X134223809Y-75754819D02*
X134128571Y-75897676D01*
X134128571Y-75897676D02*
X134033333Y-75992914D01*
X134033333Y-75992914D02*
X133938095Y-76040533D01*
X136054819Y-83138094D02*
X135054819Y-83138094D01*
X135054819Y-83138094D02*
X135769104Y-82804761D01*
X135769104Y-82804761D02*
X135054819Y-82471428D01*
X135054819Y-82471428D02*
X136054819Y-82471428D01*
X135959580Y-81423809D02*
X136007200Y-81471428D01*
X136007200Y-81471428D02*
X136054819Y-81614285D01*
X136054819Y-81614285D02*
X136054819Y-81709523D01*
X136054819Y-81709523D02*
X136007200Y-81852380D01*
X136007200Y-81852380D02*
X135911961Y-81947618D01*
X135911961Y-81947618D02*
X135816723Y-81995237D01*
X135816723Y-81995237D02*
X135626247Y-82042856D01*
X135626247Y-82042856D02*
X135483390Y-82042856D01*
X135483390Y-82042856D02*
X135292914Y-81995237D01*
X135292914Y-81995237D02*
X135197676Y-81947618D01*
X135197676Y-81947618D02*
X135102438Y-81852380D01*
X135102438Y-81852380D02*
X135054819Y-81709523D01*
X135054819Y-81709523D02*
X135054819Y-81614285D01*
X135054819Y-81614285D02*
X135102438Y-81471428D01*
X135102438Y-81471428D02*
X135150057Y-81423809D01*
X136054819Y-80995237D02*
X135054819Y-80995237D01*
X135054819Y-80995237D02*
X135054819Y-80614285D01*
X135054819Y-80614285D02*
X135102438Y-80519047D01*
X135102438Y-80519047D02*
X135150057Y-80471428D01*
X135150057Y-80471428D02*
X135245295Y-80423809D01*
X135245295Y-80423809D02*
X135388152Y-80423809D01*
X135388152Y-80423809D02*
X135483390Y-80471428D01*
X135483390Y-80471428D02*
X135531009Y-80519047D01*
X135531009Y-80519047D02*
X135578628Y-80614285D01*
X135578628Y-80614285D02*
X135578628Y-80995237D01*
X135054819Y-79566666D02*
X135054819Y-79757142D01*
X135054819Y-79757142D02*
X135102438Y-79852380D01*
X135102438Y-79852380D02*
X135150057Y-79899999D01*
X135150057Y-79899999D02*
X135292914Y-79995237D01*
X135292914Y-79995237D02*
X135483390Y-80042856D01*
X135483390Y-80042856D02*
X135864342Y-80042856D01*
X135864342Y-80042856D02*
X135959580Y-79995237D01*
X135959580Y-79995237D02*
X136007200Y-79947618D01*
X136007200Y-79947618D02*
X136054819Y-79852380D01*
X136054819Y-79852380D02*
X136054819Y-79661904D01*
X136054819Y-79661904D02*
X136007200Y-79566666D01*
X136007200Y-79566666D02*
X135959580Y-79519047D01*
X135959580Y-79519047D02*
X135864342Y-79471428D01*
X135864342Y-79471428D02*
X135626247Y-79471428D01*
X135626247Y-79471428D02*
X135531009Y-79519047D01*
X135531009Y-79519047D02*
X135483390Y-79566666D01*
X135483390Y-79566666D02*
X135435771Y-79661904D01*
X135435771Y-79661904D02*
X135435771Y-79852380D01*
X135435771Y-79852380D02*
X135483390Y-79947618D01*
X135483390Y-79947618D02*
X135531009Y-79995237D01*
X135531009Y-79995237D02*
X135626247Y-80042856D01*
X135054819Y-78852380D02*
X135054819Y-78757142D01*
X135054819Y-78757142D02*
X135102438Y-78661904D01*
X135102438Y-78661904D02*
X135150057Y-78614285D01*
X135150057Y-78614285D02*
X135245295Y-78566666D01*
X135245295Y-78566666D02*
X135435771Y-78519047D01*
X135435771Y-78519047D02*
X135673866Y-78519047D01*
X135673866Y-78519047D02*
X135864342Y-78566666D01*
X135864342Y-78566666D02*
X135959580Y-78614285D01*
X135959580Y-78614285D02*
X136007200Y-78661904D01*
X136007200Y-78661904D02*
X136054819Y-78757142D01*
X136054819Y-78757142D02*
X136054819Y-78852380D01*
X136054819Y-78852380D02*
X136007200Y-78947618D01*
X136007200Y-78947618D02*
X135959580Y-78995237D01*
X135959580Y-78995237D02*
X135864342Y-79042856D01*
X135864342Y-79042856D02*
X135673866Y-79090475D01*
X135673866Y-79090475D02*
X135435771Y-79090475D01*
X135435771Y-79090475D02*
X135245295Y-79042856D01*
X135245295Y-79042856D02*
X135150057Y-78995237D01*
X135150057Y-78995237D02*
X135102438Y-78947618D01*
X135102438Y-78947618D02*
X135054819Y-78852380D01*
X135054819Y-77899999D02*
X135054819Y-77804761D01*
X135054819Y-77804761D02*
X135102438Y-77709523D01*
X135102438Y-77709523D02*
X135150057Y-77661904D01*
X135150057Y-77661904D02*
X135245295Y-77614285D01*
X135245295Y-77614285D02*
X135435771Y-77566666D01*
X135435771Y-77566666D02*
X135673866Y-77566666D01*
X135673866Y-77566666D02*
X135864342Y-77614285D01*
X135864342Y-77614285D02*
X135959580Y-77661904D01*
X135959580Y-77661904D02*
X136007200Y-77709523D01*
X136007200Y-77709523D02*
X136054819Y-77804761D01*
X136054819Y-77804761D02*
X136054819Y-77899999D01*
X136054819Y-77899999D02*
X136007200Y-77995237D01*
X136007200Y-77995237D02*
X135959580Y-78042856D01*
X135959580Y-78042856D02*
X135864342Y-78090475D01*
X135864342Y-78090475D02*
X135673866Y-78138094D01*
X135673866Y-78138094D02*
X135435771Y-78138094D01*
X135435771Y-78138094D02*
X135245295Y-78090475D01*
X135245295Y-78090475D02*
X135150057Y-78042856D01*
X135150057Y-78042856D02*
X135102438Y-77995237D01*
X135102438Y-77995237D02*
X135054819Y-77899999D01*
X135150057Y-77185713D02*
X135102438Y-77138094D01*
X135102438Y-77138094D02*
X135054819Y-77042856D01*
X135054819Y-77042856D02*
X135054819Y-76804761D01*
X135054819Y-76804761D02*
X135102438Y-76709523D01*
X135102438Y-76709523D02*
X135150057Y-76661904D01*
X135150057Y-76661904D02*
X135245295Y-76614285D01*
X135245295Y-76614285D02*
X135340533Y-76614285D01*
X135340533Y-76614285D02*
X135483390Y-76661904D01*
X135483390Y-76661904D02*
X136054819Y-77233332D01*
X136054819Y-77233332D02*
X136054819Y-76614285D01*
X119166666Y-91854819D02*
X119166666Y-92569104D01*
X119166666Y-92569104D02*
X119119047Y-92711961D01*
X119119047Y-92711961D02*
X119023809Y-92807200D01*
X119023809Y-92807200D02*
X118880952Y-92854819D01*
X118880952Y-92854819D02*
X118785714Y-92854819D01*
X119547619Y-91854819D02*
X120166666Y-91854819D01*
X120166666Y-91854819D02*
X119833333Y-92235771D01*
X119833333Y-92235771D02*
X119976190Y-92235771D01*
X119976190Y-92235771D02*
X120071428Y-92283390D01*
X120071428Y-92283390D02*
X120119047Y-92331009D01*
X120119047Y-92331009D02*
X120166666Y-92426247D01*
X120166666Y-92426247D02*
X120166666Y-92664342D01*
X120166666Y-92664342D02*
X120119047Y-92759580D01*
X120119047Y-92759580D02*
X120071428Y-92807200D01*
X120071428Y-92807200D02*
X119976190Y-92854819D01*
X119976190Y-92854819D02*
X119690476Y-92854819D01*
X119690476Y-92854819D02*
X119595238Y-92807200D01*
X119595238Y-92807200D02*
X119547619Y-92759580D01*
X127659580Y-94561905D02*
X127707200Y-94609524D01*
X127707200Y-94609524D02*
X127754819Y-94752381D01*
X127754819Y-94752381D02*
X127754819Y-94847619D01*
X127754819Y-94847619D02*
X127707200Y-94990476D01*
X127707200Y-94990476D02*
X127611961Y-95085714D01*
X127611961Y-95085714D02*
X127516723Y-95133333D01*
X127516723Y-95133333D02*
X127326247Y-95180952D01*
X127326247Y-95180952D02*
X127183390Y-95180952D01*
X127183390Y-95180952D02*
X126992914Y-95133333D01*
X126992914Y-95133333D02*
X126897676Y-95085714D01*
X126897676Y-95085714D02*
X126802438Y-94990476D01*
X126802438Y-94990476D02*
X126754819Y-94847619D01*
X126754819Y-94847619D02*
X126754819Y-94752381D01*
X126754819Y-94752381D02*
X126802438Y-94609524D01*
X126802438Y-94609524D02*
X126850057Y-94561905D01*
X127754819Y-94133333D02*
X126754819Y-94133333D01*
X127754819Y-93704762D02*
X127231009Y-93704762D01*
X127231009Y-93704762D02*
X127135771Y-93752381D01*
X127135771Y-93752381D02*
X127088152Y-93847619D01*
X127088152Y-93847619D02*
X127088152Y-93990476D01*
X127088152Y-93990476D02*
X127135771Y-94085714D01*
X127135771Y-94085714D02*
X127183390Y-94133333D01*
X126754819Y-93038095D02*
X126754819Y-92942857D01*
X126754819Y-92942857D02*
X126802438Y-92847619D01*
X126802438Y-92847619D02*
X126850057Y-92800000D01*
X126850057Y-92800000D02*
X126945295Y-92752381D01*
X126945295Y-92752381D02*
X127135771Y-92704762D01*
X127135771Y-92704762D02*
X127373866Y-92704762D01*
X127373866Y-92704762D02*
X127564342Y-92752381D01*
X127564342Y-92752381D02*
X127659580Y-92800000D01*
X127659580Y-92800000D02*
X127707200Y-92847619D01*
X127707200Y-92847619D02*
X127754819Y-92942857D01*
X127754819Y-92942857D02*
X127754819Y-93038095D01*
X127754819Y-93038095D02*
X127707200Y-93133333D01*
X127707200Y-93133333D02*
X127659580Y-93180952D01*
X127659580Y-93180952D02*
X127564342Y-93228571D01*
X127564342Y-93228571D02*
X127373866Y-93276190D01*
X127373866Y-93276190D02*
X127135771Y-93276190D01*
X127135771Y-93276190D02*
X126945295Y-93228571D01*
X126945295Y-93228571D02*
X126850057Y-93180952D01*
X126850057Y-93180952D02*
X126802438Y-93133333D01*
X126802438Y-93133333D02*
X126754819Y-93038095D01*
X127850057Y-92514286D02*
X127850057Y-91752381D01*
X126754819Y-91323809D02*
X126754819Y-91133333D01*
X126754819Y-91133333D02*
X126802438Y-91038095D01*
X126802438Y-91038095D02*
X126897676Y-90942857D01*
X126897676Y-90942857D02*
X127088152Y-90895238D01*
X127088152Y-90895238D02*
X127421485Y-90895238D01*
X127421485Y-90895238D02*
X127611961Y-90942857D01*
X127611961Y-90942857D02*
X127707200Y-91038095D01*
X127707200Y-91038095D02*
X127754819Y-91133333D01*
X127754819Y-91133333D02*
X127754819Y-91323809D01*
X127754819Y-91323809D02*
X127707200Y-91419047D01*
X127707200Y-91419047D02*
X127611961Y-91514285D01*
X127611961Y-91514285D02*
X127421485Y-91561904D01*
X127421485Y-91561904D02*
X127088152Y-91561904D01*
X127088152Y-91561904D02*
X126897676Y-91514285D01*
X126897676Y-91514285D02*
X126802438Y-91419047D01*
X126802438Y-91419047D02*
X126754819Y-91323809D01*
X127088152Y-90038095D02*
X127754819Y-90038095D01*
X127088152Y-90466666D02*
X127611961Y-90466666D01*
X127611961Y-90466666D02*
X127707200Y-90419047D01*
X127707200Y-90419047D02*
X127754819Y-90323809D01*
X127754819Y-90323809D02*
X127754819Y-90180952D01*
X127754819Y-90180952D02*
X127707200Y-90085714D01*
X127707200Y-90085714D02*
X127659580Y-90038095D01*
X127088152Y-89704761D02*
X127088152Y-89323809D01*
X126754819Y-89561904D02*
X127611961Y-89561904D01*
X127611961Y-89561904D02*
X127707200Y-89514285D01*
X127707200Y-89514285D02*
X127754819Y-89419047D01*
X127754819Y-89419047D02*
X127754819Y-89323809D01*
X114266666Y-67754819D02*
X114266666Y-68469104D01*
X114266666Y-68469104D02*
X114219047Y-68611961D01*
X114219047Y-68611961D02*
X114123809Y-68707200D01*
X114123809Y-68707200D02*
X113980952Y-68754819D01*
X113980952Y-68754819D02*
X113885714Y-68754819D01*
X115219047Y-67754819D02*
X114742857Y-67754819D01*
X114742857Y-67754819D02*
X114695238Y-68231009D01*
X114695238Y-68231009D02*
X114742857Y-68183390D01*
X114742857Y-68183390D02*
X114838095Y-68135771D01*
X114838095Y-68135771D02*
X115076190Y-68135771D01*
X115076190Y-68135771D02*
X115171428Y-68183390D01*
X115171428Y-68183390D02*
X115219047Y-68231009D01*
X115219047Y-68231009D02*
X115266666Y-68326247D01*
X115266666Y-68326247D02*
X115266666Y-68564342D01*
X115266666Y-68564342D02*
X115219047Y-68659580D01*
X115219047Y-68659580D02*
X115171428Y-68707200D01*
X115171428Y-68707200D02*
X115076190Y-68754819D01*
X115076190Y-68754819D02*
X114838095Y-68754819D01*
X114838095Y-68754819D02*
X114742857Y-68707200D01*
X114742857Y-68707200D02*
X114695238Y-68659580D01*
X114366667Y-75154819D02*
X114700000Y-76154819D01*
X114700000Y-76154819D02*
X115033333Y-75154819D01*
X115938095Y-76059580D02*
X115890476Y-76107200D01*
X115890476Y-76107200D02*
X115747619Y-76154819D01*
X115747619Y-76154819D02*
X115652381Y-76154819D01*
X115652381Y-76154819D02*
X115509524Y-76107200D01*
X115509524Y-76107200D02*
X115414286Y-76011961D01*
X115414286Y-76011961D02*
X115366667Y-75916723D01*
X115366667Y-75916723D02*
X115319048Y-75726247D01*
X115319048Y-75726247D02*
X115319048Y-75583390D01*
X115319048Y-75583390D02*
X115366667Y-75392914D01*
X115366667Y-75392914D02*
X115414286Y-75297676D01*
X115414286Y-75297676D02*
X115509524Y-75202438D01*
X115509524Y-75202438D02*
X115652381Y-75154819D01*
X115652381Y-75154819D02*
X115747619Y-75154819D01*
X115747619Y-75154819D02*
X115890476Y-75202438D01*
X115890476Y-75202438D02*
X115938095Y-75250057D01*
X116938095Y-76059580D02*
X116890476Y-76107200D01*
X116890476Y-76107200D02*
X116747619Y-76154819D01*
X116747619Y-76154819D02*
X116652381Y-76154819D01*
X116652381Y-76154819D02*
X116509524Y-76107200D01*
X116509524Y-76107200D02*
X116414286Y-76011961D01*
X116414286Y-76011961D02*
X116366667Y-75916723D01*
X116366667Y-75916723D02*
X116319048Y-75726247D01*
X116319048Y-75726247D02*
X116319048Y-75583390D01*
X116319048Y-75583390D02*
X116366667Y-75392914D01*
X116366667Y-75392914D02*
X116414286Y-75297676D01*
X116414286Y-75297676D02*
X116509524Y-75202438D01*
X116509524Y-75202438D02*
X116652381Y-75154819D01*
X116652381Y-75154819D02*
X116747619Y-75154819D01*
X116747619Y-75154819D02*
X116890476Y-75202438D01*
X116890476Y-75202438D02*
X116938095Y-75250057D01*
X145633333Y-85854819D02*
X145300000Y-85378628D01*
X145061905Y-85854819D02*
X145061905Y-84854819D01*
X145061905Y-84854819D02*
X145442857Y-84854819D01*
X145442857Y-84854819D02*
X145538095Y-84902438D01*
X145538095Y-84902438D02*
X145585714Y-84950057D01*
X145585714Y-84950057D02*
X145633333Y-85045295D01*
X145633333Y-85045295D02*
X145633333Y-85188152D01*
X145633333Y-85188152D02*
X145585714Y-85283390D01*
X145585714Y-85283390D02*
X145538095Y-85331009D01*
X145538095Y-85331009D02*
X145442857Y-85378628D01*
X145442857Y-85378628D02*
X145061905Y-85378628D01*
X146490476Y-85188152D02*
X146490476Y-85854819D01*
X146252381Y-84807200D02*
X146014286Y-85521485D01*
X146014286Y-85521485D02*
X146633333Y-85521485D01*
X134861905Y-72654819D02*
X134861905Y-71654819D01*
X134861905Y-71654819D02*
X135100000Y-71654819D01*
X135100000Y-71654819D02*
X135242857Y-71702438D01*
X135242857Y-71702438D02*
X135338095Y-71797676D01*
X135338095Y-71797676D02*
X135385714Y-71892914D01*
X135385714Y-71892914D02*
X135433333Y-72083390D01*
X135433333Y-72083390D02*
X135433333Y-72226247D01*
X135433333Y-72226247D02*
X135385714Y-72416723D01*
X135385714Y-72416723D02*
X135338095Y-72511961D01*
X135338095Y-72511961D02*
X135242857Y-72607200D01*
X135242857Y-72607200D02*
X135100000Y-72654819D01*
X135100000Y-72654819D02*
X134861905Y-72654819D01*
X136290476Y-71988152D02*
X136290476Y-72654819D01*
X136052381Y-71607200D02*
X135814286Y-72321485D01*
X135814286Y-72321485D02*
X136433333Y-72321485D01*
X146438095Y-72954819D02*
X146438095Y-71954819D01*
X147009523Y-72954819D02*
X146580952Y-72383390D01*
X147009523Y-71954819D02*
X146438095Y-72526247D01*
X130961905Y-72854819D02*
X130961905Y-71854819D01*
X130961905Y-71854819D02*
X131200000Y-71854819D01*
X131200000Y-71854819D02*
X131342857Y-71902438D01*
X131342857Y-71902438D02*
X131438095Y-71997676D01*
X131438095Y-71997676D02*
X131485714Y-72092914D01*
X131485714Y-72092914D02*
X131533333Y-72283390D01*
X131533333Y-72283390D02*
X131533333Y-72426247D01*
X131533333Y-72426247D02*
X131485714Y-72616723D01*
X131485714Y-72616723D02*
X131438095Y-72711961D01*
X131438095Y-72711961D02*
X131342857Y-72807200D01*
X131342857Y-72807200D02*
X131200000Y-72854819D01*
X131200000Y-72854819D02*
X130961905Y-72854819D01*
X131914286Y-71950057D02*
X131961905Y-71902438D01*
X131961905Y-71902438D02*
X132057143Y-71854819D01*
X132057143Y-71854819D02*
X132295238Y-71854819D01*
X132295238Y-71854819D02*
X132390476Y-71902438D01*
X132390476Y-71902438D02*
X132438095Y-71950057D01*
X132438095Y-71950057D02*
X132485714Y-72045295D01*
X132485714Y-72045295D02*
X132485714Y-72140533D01*
X132485714Y-72140533D02*
X132438095Y-72283390D01*
X132438095Y-72283390D02*
X131866667Y-72854819D01*
X131866667Y-72854819D02*
X132485714Y-72854819D01*
X120338095Y-72854819D02*
X120338095Y-71854819D01*
X120909523Y-72854819D02*
X120480952Y-72283390D01*
X120909523Y-71854819D02*
X120338095Y-72426247D01*
X134961905Y-70254819D02*
X134961905Y-69254819D01*
X134961905Y-69254819D02*
X135200000Y-69254819D01*
X135200000Y-69254819D02*
X135342857Y-69302438D01*
X135342857Y-69302438D02*
X135438095Y-69397676D01*
X135438095Y-69397676D02*
X135485714Y-69492914D01*
X135485714Y-69492914D02*
X135533333Y-69683390D01*
X135533333Y-69683390D02*
X135533333Y-69826247D01*
X135533333Y-69826247D02*
X135485714Y-70016723D01*
X135485714Y-70016723D02*
X135438095Y-70111961D01*
X135438095Y-70111961D02*
X135342857Y-70207200D01*
X135342857Y-70207200D02*
X135200000Y-70254819D01*
X135200000Y-70254819D02*
X134961905Y-70254819D01*
X135866667Y-69254819D02*
X136485714Y-69254819D01*
X136485714Y-69254819D02*
X136152381Y-69635771D01*
X136152381Y-69635771D02*
X136295238Y-69635771D01*
X136295238Y-69635771D02*
X136390476Y-69683390D01*
X136390476Y-69683390D02*
X136438095Y-69731009D01*
X136438095Y-69731009D02*
X136485714Y-69826247D01*
X136485714Y-69826247D02*
X136485714Y-70064342D01*
X136485714Y-70064342D02*
X136438095Y-70159580D01*
X136438095Y-70159580D02*
X136390476Y-70207200D01*
X136390476Y-70207200D02*
X136295238Y-70254819D01*
X136295238Y-70254819D02*
X136009524Y-70254819D01*
X136009524Y-70254819D02*
X135914286Y-70207200D01*
X135914286Y-70207200D02*
X135866667Y-70159580D01*
X146438095Y-70454819D02*
X146438095Y-69454819D01*
X147009523Y-70454819D02*
X146580952Y-69883390D01*
X147009523Y-69454819D02*
X146438095Y-70026247D01*
X146466666Y-62354819D02*
X146466666Y-63069104D01*
X146466666Y-63069104D02*
X146419047Y-63211961D01*
X146419047Y-63211961D02*
X146323809Y-63307200D01*
X146323809Y-63307200D02*
X146180952Y-63354819D01*
X146180952Y-63354819D02*
X146085714Y-63354819D01*
X146895238Y-62450057D02*
X146942857Y-62402438D01*
X146942857Y-62402438D02*
X147038095Y-62354819D01*
X147038095Y-62354819D02*
X147276190Y-62354819D01*
X147276190Y-62354819D02*
X147371428Y-62402438D01*
X147371428Y-62402438D02*
X147419047Y-62450057D01*
X147419047Y-62450057D02*
X147466666Y-62545295D01*
X147466666Y-62545295D02*
X147466666Y-62640533D01*
X147466666Y-62640533D02*
X147419047Y-62783390D01*
X147419047Y-62783390D02*
X146847619Y-63354819D01*
X146847619Y-63354819D02*
X147466666Y-63354819D01*
X135609523Y-59159580D02*
X135561904Y-59207200D01*
X135561904Y-59207200D02*
X135419047Y-59254819D01*
X135419047Y-59254819D02*
X135323809Y-59254819D01*
X135323809Y-59254819D02*
X135180952Y-59207200D01*
X135180952Y-59207200D02*
X135085714Y-59111961D01*
X135085714Y-59111961D02*
X135038095Y-59016723D01*
X135038095Y-59016723D02*
X134990476Y-58826247D01*
X134990476Y-58826247D02*
X134990476Y-58683390D01*
X134990476Y-58683390D02*
X135038095Y-58492914D01*
X135038095Y-58492914D02*
X135085714Y-58397676D01*
X135085714Y-58397676D02*
X135180952Y-58302438D01*
X135180952Y-58302438D02*
X135323809Y-58254819D01*
X135323809Y-58254819D02*
X135419047Y-58254819D01*
X135419047Y-58254819D02*
X135561904Y-58302438D01*
X135561904Y-58302438D02*
X135609523Y-58350057D01*
X136038095Y-59254819D02*
X136038095Y-58254819D01*
X136466666Y-59254819D02*
X136466666Y-58731009D01*
X136466666Y-58731009D02*
X136419047Y-58635771D01*
X136419047Y-58635771D02*
X136323809Y-58588152D01*
X136323809Y-58588152D02*
X136180952Y-58588152D01*
X136180952Y-58588152D02*
X136085714Y-58635771D01*
X136085714Y-58635771D02*
X136038095Y-58683390D01*
X137466666Y-59254819D02*
X136895238Y-59254819D01*
X137180952Y-59254819D02*
X137180952Y-58254819D01*
X137180952Y-58254819D02*
X137085714Y-58397676D01*
X137085714Y-58397676D02*
X136990476Y-58492914D01*
X136990476Y-58492914D02*
X136895238Y-58540533D01*
X137657143Y-59350057D02*
X138419047Y-59350057D01*
X138657143Y-59254819D02*
X138657143Y-58254819D01*
X139133333Y-58588152D02*
X139133333Y-59254819D01*
X139133333Y-58683390D02*
X139180952Y-58635771D01*
X139180952Y-58635771D02*
X139276190Y-58588152D01*
X139276190Y-58588152D02*
X139419047Y-58588152D01*
X139419047Y-58588152D02*
X139514285Y-58635771D01*
X139514285Y-58635771D02*
X139561904Y-58731009D01*
X139561904Y-58731009D02*
X139561904Y-59254819D01*
X130961905Y-70454819D02*
X130961905Y-69454819D01*
X130961905Y-69454819D02*
X131200000Y-69454819D01*
X131200000Y-69454819D02*
X131342857Y-69502438D01*
X131342857Y-69502438D02*
X131438095Y-69597676D01*
X131438095Y-69597676D02*
X131485714Y-69692914D01*
X131485714Y-69692914D02*
X131533333Y-69883390D01*
X131533333Y-69883390D02*
X131533333Y-70026247D01*
X131533333Y-70026247D02*
X131485714Y-70216723D01*
X131485714Y-70216723D02*
X131438095Y-70311961D01*
X131438095Y-70311961D02*
X131342857Y-70407200D01*
X131342857Y-70407200D02*
X131200000Y-70454819D01*
X131200000Y-70454819D02*
X130961905Y-70454819D01*
X132485714Y-70454819D02*
X131914286Y-70454819D01*
X132200000Y-70454819D02*
X132200000Y-69454819D01*
X132200000Y-69454819D02*
X132104762Y-69597676D01*
X132104762Y-69597676D02*
X132009524Y-69692914D01*
X132009524Y-69692914D02*
X131914286Y-69740533D01*
X120338095Y-70454819D02*
X120338095Y-69454819D01*
X120909523Y-70454819D02*
X120480952Y-69883390D01*
X120909523Y-69454819D02*
X120338095Y-70026247D01*
X133533333Y-66259580D02*
X133485714Y-66307200D01*
X133485714Y-66307200D02*
X133342857Y-66354819D01*
X133342857Y-66354819D02*
X133247619Y-66354819D01*
X133247619Y-66354819D02*
X133104762Y-66307200D01*
X133104762Y-66307200D02*
X133009524Y-66211961D01*
X133009524Y-66211961D02*
X132961905Y-66116723D01*
X132961905Y-66116723D02*
X132914286Y-65926247D01*
X132914286Y-65926247D02*
X132914286Y-65783390D01*
X132914286Y-65783390D02*
X132961905Y-65592914D01*
X132961905Y-65592914D02*
X133009524Y-65497676D01*
X133009524Y-65497676D02*
X133104762Y-65402438D01*
X133104762Y-65402438D02*
X133247619Y-65354819D01*
X133247619Y-65354819D02*
X133342857Y-65354819D01*
X133342857Y-65354819D02*
X133485714Y-65402438D01*
X133485714Y-65402438D02*
X133533333Y-65450057D01*
X133914286Y-65450057D02*
X133961905Y-65402438D01*
X133961905Y-65402438D02*
X134057143Y-65354819D01*
X134057143Y-65354819D02*
X134295238Y-65354819D01*
X134295238Y-65354819D02*
X134390476Y-65402438D01*
X134390476Y-65402438D02*
X134438095Y-65450057D01*
X134438095Y-65450057D02*
X134485714Y-65545295D01*
X134485714Y-65545295D02*
X134485714Y-65640533D01*
X134485714Y-65640533D02*
X134438095Y-65783390D01*
X134438095Y-65783390D02*
X133866667Y-66354819D01*
X133866667Y-66354819D02*
X134485714Y-66354819D01*
X150766666Y-74654819D02*
X150766666Y-75369104D01*
X150766666Y-75369104D02*
X150719047Y-75511961D01*
X150719047Y-75511961D02*
X150623809Y-75607200D01*
X150623809Y-75607200D02*
X150480952Y-75654819D01*
X150480952Y-75654819D02*
X150385714Y-75654819D01*
X151671428Y-74654819D02*
X151480952Y-74654819D01*
X151480952Y-74654819D02*
X151385714Y-74702438D01*
X151385714Y-74702438D02*
X151338095Y-74750057D01*
X151338095Y-74750057D02*
X151242857Y-74892914D01*
X151242857Y-74892914D02*
X151195238Y-75083390D01*
X151195238Y-75083390D02*
X151195238Y-75464342D01*
X151195238Y-75464342D02*
X151242857Y-75559580D01*
X151242857Y-75559580D02*
X151290476Y-75607200D01*
X151290476Y-75607200D02*
X151385714Y-75654819D01*
X151385714Y-75654819D02*
X151576190Y-75654819D01*
X151576190Y-75654819D02*
X151671428Y-75607200D01*
X151671428Y-75607200D02*
X151719047Y-75559580D01*
X151719047Y-75559580D02*
X151766666Y-75464342D01*
X151766666Y-75464342D02*
X151766666Y-75226247D01*
X151766666Y-75226247D02*
X151719047Y-75131009D01*
X151719047Y-75131009D02*
X151671428Y-75083390D01*
X151671428Y-75083390D02*
X151576190Y-75035771D01*
X151576190Y-75035771D02*
X151385714Y-75035771D01*
X151385714Y-75035771D02*
X151290476Y-75083390D01*
X151290476Y-75083390D02*
X151242857Y-75131009D01*
X151242857Y-75131009D02*
X151195238Y-75226247D01*
X147166667Y-67154819D02*
X147500000Y-68154819D01*
X147500000Y-68154819D02*
X147833333Y-67154819D01*
X148738095Y-68059580D02*
X148690476Y-68107200D01*
X148690476Y-68107200D02*
X148547619Y-68154819D01*
X148547619Y-68154819D02*
X148452381Y-68154819D01*
X148452381Y-68154819D02*
X148309524Y-68107200D01*
X148309524Y-68107200D02*
X148214286Y-68011961D01*
X148214286Y-68011961D02*
X148166667Y-67916723D01*
X148166667Y-67916723D02*
X148119048Y-67726247D01*
X148119048Y-67726247D02*
X148119048Y-67583390D01*
X148119048Y-67583390D02*
X148166667Y-67392914D01*
X148166667Y-67392914D02*
X148214286Y-67297676D01*
X148214286Y-67297676D02*
X148309524Y-67202438D01*
X148309524Y-67202438D02*
X148452381Y-67154819D01*
X148452381Y-67154819D02*
X148547619Y-67154819D01*
X148547619Y-67154819D02*
X148690476Y-67202438D01*
X148690476Y-67202438D02*
X148738095Y-67250057D01*
X149738095Y-68059580D02*
X149690476Y-68107200D01*
X149690476Y-68107200D02*
X149547619Y-68154819D01*
X149547619Y-68154819D02*
X149452381Y-68154819D01*
X149452381Y-68154819D02*
X149309524Y-68107200D01*
X149309524Y-68107200D02*
X149214286Y-68011961D01*
X149214286Y-68011961D02*
X149166667Y-67916723D01*
X149166667Y-67916723D02*
X149119048Y-67726247D01*
X149119048Y-67726247D02*
X149119048Y-67583390D01*
X149119048Y-67583390D02*
X149166667Y-67392914D01*
X149166667Y-67392914D02*
X149214286Y-67297676D01*
X149214286Y-67297676D02*
X149309524Y-67202438D01*
X149309524Y-67202438D02*
X149452381Y-67154819D01*
X149452381Y-67154819D02*
X149547619Y-67154819D01*
X149547619Y-67154819D02*
X149690476Y-67202438D01*
X149690476Y-67202438D02*
X149738095Y-67250057D01*
X148204761Y-82554819D02*
X147871428Y-82078628D01*
X147633333Y-82554819D02*
X147633333Y-81554819D01*
X147633333Y-81554819D02*
X148014285Y-81554819D01*
X148014285Y-81554819D02*
X148109523Y-81602438D01*
X148109523Y-81602438D02*
X148157142Y-81650057D01*
X148157142Y-81650057D02*
X148204761Y-81745295D01*
X148204761Y-81745295D02*
X148204761Y-81888152D01*
X148204761Y-81888152D02*
X148157142Y-81983390D01*
X148157142Y-81983390D02*
X148109523Y-82031009D01*
X148109523Y-82031009D02*
X148014285Y-82078628D01*
X148014285Y-82078628D02*
X147633333Y-82078628D01*
X148490476Y-81554819D02*
X148823809Y-82554819D01*
X148823809Y-82554819D02*
X149157142Y-81554819D01*
X149442857Y-81650057D02*
X149490476Y-81602438D01*
X149490476Y-81602438D02*
X149585714Y-81554819D01*
X149585714Y-81554819D02*
X149823809Y-81554819D01*
X149823809Y-81554819D02*
X149919047Y-81602438D01*
X149919047Y-81602438D02*
X149966666Y-81650057D01*
X149966666Y-81650057D02*
X150014285Y-81745295D01*
X150014285Y-81745295D02*
X150014285Y-81840533D01*
X150014285Y-81840533D02*
X149966666Y-81983390D01*
X149966666Y-81983390D02*
X149395238Y-82554819D01*
X149395238Y-82554819D02*
X150014285Y-82554819D01*
X121333333Y-85854819D02*
X121000000Y-85378628D01*
X120761905Y-85854819D02*
X120761905Y-84854819D01*
X120761905Y-84854819D02*
X121142857Y-84854819D01*
X121142857Y-84854819D02*
X121238095Y-84902438D01*
X121238095Y-84902438D02*
X121285714Y-84950057D01*
X121285714Y-84950057D02*
X121333333Y-85045295D01*
X121333333Y-85045295D02*
X121333333Y-85188152D01*
X121333333Y-85188152D02*
X121285714Y-85283390D01*
X121285714Y-85283390D02*
X121238095Y-85331009D01*
X121238095Y-85331009D02*
X121142857Y-85378628D01*
X121142857Y-85378628D02*
X120761905Y-85378628D01*
X121666667Y-84854819D02*
X122285714Y-84854819D01*
X122285714Y-84854819D02*
X121952381Y-85235771D01*
X121952381Y-85235771D02*
X122095238Y-85235771D01*
X122095238Y-85235771D02*
X122190476Y-85283390D01*
X122190476Y-85283390D02*
X122238095Y-85331009D01*
X122238095Y-85331009D02*
X122285714Y-85426247D01*
X122285714Y-85426247D02*
X122285714Y-85664342D01*
X122285714Y-85664342D02*
X122238095Y-85759580D01*
X122238095Y-85759580D02*
X122190476Y-85807200D01*
X122190476Y-85807200D02*
X122095238Y-85854819D01*
X122095238Y-85854819D02*
X121809524Y-85854819D01*
X121809524Y-85854819D02*
X121714286Y-85807200D01*
X121714286Y-85807200D02*
X121666667Y-85759580D01*
X135433333Y-67854819D02*
X135100000Y-67378628D01*
X134861905Y-67854819D02*
X134861905Y-66854819D01*
X134861905Y-66854819D02*
X135242857Y-66854819D01*
X135242857Y-66854819D02*
X135338095Y-66902438D01*
X135338095Y-66902438D02*
X135385714Y-66950057D01*
X135385714Y-66950057D02*
X135433333Y-67045295D01*
X135433333Y-67045295D02*
X135433333Y-67188152D01*
X135433333Y-67188152D02*
X135385714Y-67283390D01*
X135385714Y-67283390D02*
X135338095Y-67331009D01*
X135338095Y-67331009D02*
X135242857Y-67378628D01*
X135242857Y-67378628D02*
X134861905Y-67378628D01*
X135814286Y-66950057D02*
X135861905Y-66902438D01*
X135861905Y-66902438D02*
X135957143Y-66854819D01*
X135957143Y-66854819D02*
X136195238Y-66854819D01*
X136195238Y-66854819D02*
X136290476Y-66902438D01*
X136290476Y-66902438D02*
X136338095Y-66950057D01*
X136338095Y-66950057D02*
X136385714Y-67045295D01*
X136385714Y-67045295D02*
X136385714Y-67140533D01*
X136385714Y-67140533D02*
X136338095Y-67283390D01*
X136338095Y-67283390D02*
X135766667Y-67854819D01*
X135766667Y-67854819D02*
X136385714Y-67854819D01*
X118104761Y-82654819D02*
X117771428Y-82178628D01*
X117533333Y-82654819D02*
X117533333Y-81654819D01*
X117533333Y-81654819D02*
X117914285Y-81654819D01*
X117914285Y-81654819D02*
X118009523Y-81702438D01*
X118009523Y-81702438D02*
X118057142Y-81750057D01*
X118057142Y-81750057D02*
X118104761Y-81845295D01*
X118104761Y-81845295D02*
X118104761Y-81988152D01*
X118104761Y-81988152D02*
X118057142Y-82083390D01*
X118057142Y-82083390D02*
X118009523Y-82131009D01*
X118009523Y-82131009D02*
X117914285Y-82178628D01*
X117914285Y-82178628D02*
X117533333Y-82178628D01*
X118390476Y-81654819D02*
X118723809Y-82654819D01*
X118723809Y-82654819D02*
X119057142Y-81654819D01*
X119914285Y-82654819D02*
X119342857Y-82654819D01*
X119628571Y-82654819D02*
X119628571Y-81654819D01*
X119628571Y-81654819D02*
X119533333Y-81797676D01*
X119533333Y-81797676D02*
X119438095Y-81892914D01*
X119438095Y-81892914D02*
X119342857Y-81940533D01*
X131433333Y-68054819D02*
X131100000Y-67578628D01*
X130861905Y-68054819D02*
X130861905Y-67054819D01*
X130861905Y-67054819D02*
X131242857Y-67054819D01*
X131242857Y-67054819D02*
X131338095Y-67102438D01*
X131338095Y-67102438D02*
X131385714Y-67150057D01*
X131385714Y-67150057D02*
X131433333Y-67245295D01*
X131433333Y-67245295D02*
X131433333Y-67388152D01*
X131433333Y-67388152D02*
X131385714Y-67483390D01*
X131385714Y-67483390D02*
X131338095Y-67531009D01*
X131338095Y-67531009D02*
X131242857Y-67578628D01*
X131242857Y-67578628D02*
X130861905Y-67578628D01*
X132385714Y-68054819D02*
X131814286Y-68054819D01*
X132100000Y-68054819D02*
X132100000Y-67054819D01*
X132100000Y-67054819D02*
X132004762Y-67197676D01*
X132004762Y-67197676D02*
X131909524Y-67292914D01*
X131909524Y-67292914D02*
X131814286Y-67340533D01*
X127766666Y-62154819D02*
X127766666Y-62869104D01*
X127766666Y-62869104D02*
X127719047Y-63011961D01*
X127719047Y-63011961D02*
X127623809Y-63107200D01*
X127623809Y-63107200D02*
X127480952Y-63154819D01*
X127480952Y-63154819D02*
X127385714Y-63154819D01*
X128766666Y-63154819D02*
X128195238Y-63154819D01*
X128480952Y-63154819D02*
X128480952Y-62154819D01*
X128480952Y-62154819D02*
X128385714Y-62297676D01*
X128385714Y-62297676D02*
X128290476Y-62392914D01*
X128290476Y-62392914D02*
X128195238Y-62440533D01*
X117009523Y-59159580D02*
X116961904Y-59207200D01*
X116961904Y-59207200D02*
X116819047Y-59254819D01*
X116819047Y-59254819D02*
X116723809Y-59254819D01*
X116723809Y-59254819D02*
X116580952Y-59207200D01*
X116580952Y-59207200D02*
X116485714Y-59111961D01*
X116485714Y-59111961D02*
X116438095Y-59016723D01*
X116438095Y-59016723D02*
X116390476Y-58826247D01*
X116390476Y-58826247D02*
X116390476Y-58683390D01*
X116390476Y-58683390D02*
X116438095Y-58492914D01*
X116438095Y-58492914D02*
X116485714Y-58397676D01*
X116485714Y-58397676D02*
X116580952Y-58302438D01*
X116580952Y-58302438D02*
X116723809Y-58254819D01*
X116723809Y-58254819D02*
X116819047Y-58254819D01*
X116819047Y-58254819D02*
X116961904Y-58302438D01*
X116961904Y-58302438D02*
X117009523Y-58350057D01*
X117438095Y-59254819D02*
X117438095Y-58254819D01*
X117866666Y-59254819D02*
X117866666Y-58731009D01*
X117866666Y-58731009D02*
X117819047Y-58635771D01*
X117819047Y-58635771D02*
X117723809Y-58588152D01*
X117723809Y-58588152D02*
X117580952Y-58588152D01*
X117580952Y-58588152D02*
X117485714Y-58635771D01*
X117485714Y-58635771D02*
X117438095Y-58683390D01*
X118533333Y-58254819D02*
X118628571Y-58254819D01*
X118628571Y-58254819D02*
X118723809Y-58302438D01*
X118723809Y-58302438D02*
X118771428Y-58350057D01*
X118771428Y-58350057D02*
X118819047Y-58445295D01*
X118819047Y-58445295D02*
X118866666Y-58635771D01*
X118866666Y-58635771D02*
X118866666Y-58873866D01*
X118866666Y-58873866D02*
X118819047Y-59064342D01*
X118819047Y-59064342D02*
X118771428Y-59159580D01*
X118771428Y-59159580D02*
X118723809Y-59207200D01*
X118723809Y-59207200D02*
X118628571Y-59254819D01*
X118628571Y-59254819D02*
X118533333Y-59254819D01*
X118533333Y-59254819D02*
X118438095Y-59207200D01*
X118438095Y-59207200D02*
X118390476Y-59159580D01*
X118390476Y-59159580D02*
X118342857Y-59064342D01*
X118342857Y-59064342D02*
X118295238Y-58873866D01*
X118295238Y-58873866D02*
X118295238Y-58635771D01*
X118295238Y-58635771D02*
X118342857Y-58445295D01*
X118342857Y-58445295D02*
X118390476Y-58350057D01*
X118390476Y-58350057D02*
X118438095Y-58302438D01*
X118438095Y-58302438D02*
X118533333Y-58254819D01*
X119057143Y-59350057D02*
X119819047Y-59350057D01*
X120057143Y-59254819D02*
X120057143Y-58254819D01*
X120533333Y-58588152D02*
X120533333Y-59254819D01*
X120533333Y-58683390D02*
X120580952Y-58635771D01*
X120580952Y-58635771D02*
X120676190Y-58588152D01*
X120676190Y-58588152D02*
X120819047Y-58588152D01*
X120819047Y-58588152D02*
X120914285Y-58635771D01*
X120914285Y-58635771D02*
X120961904Y-58731009D01*
X120961904Y-58731009D02*
X120961904Y-59254819D01*
X140066666Y-90354819D02*
X140066666Y-91069104D01*
X140066666Y-91069104D02*
X140019047Y-91211961D01*
X140019047Y-91211961D02*
X139923809Y-91307200D01*
X139923809Y-91307200D02*
X139780952Y-91354819D01*
X139780952Y-91354819D02*
X139685714Y-91354819D01*
X140971428Y-90688152D02*
X140971428Y-91354819D01*
X140733333Y-90307200D02*
X140495238Y-91021485D01*
X140495238Y-91021485D02*
X141114285Y-91021485D01*
X147959580Y-94461905D02*
X148007200Y-94509524D01*
X148007200Y-94509524D02*
X148054819Y-94652381D01*
X148054819Y-94652381D02*
X148054819Y-94747619D01*
X148054819Y-94747619D02*
X148007200Y-94890476D01*
X148007200Y-94890476D02*
X147911961Y-94985714D01*
X147911961Y-94985714D02*
X147816723Y-95033333D01*
X147816723Y-95033333D02*
X147626247Y-95080952D01*
X147626247Y-95080952D02*
X147483390Y-95080952D01*
X147483390Y-95080952D02*
X147292914Y-95033333D01*
X147292914Y-95033333D02*
X147197676Y-94985714D01*
X147197676Y-94985714D02*
X147102438Y-94890476D01*
X147102438Y-94890476D02*
X147054819Y-94747619D01*
X147054819Y-94747619D02*
X147054819Y-94652381D01*
X147054819Y-94652381D02*
X147102438Y-94509524D01*
X147102438Y-94509524D02*
X147150057Y-94461905D01*
X148054819Y-94033333D02*
X147054819Y-94033333D01*
X148054819Y-93604762D02*
X147531009Y-93604762D01*
X147531009Y-93604762D02*
X147435771Y-93652381D01*
X147435771Y-93652381D02*
X147388152Y-93747619D01*
X147388152Y-93747619D02*
X147388152Y-93890476D01*
X147388152Y-93890476D02*
X147435771Y-93985714D01*
X147435771Y-93985714D02*
X147483390Y-94033333D01*
X148054819Y-92604762D02*
X148054819Y-93176190D01*
X148054819Y-92890476D02*
X147054819Y-92890476D01*
X147054819Y-92890476D02*
X147197676Y-92985714D01*
X147197676Y-92985714D02*
X147292914Y-93080952D01*
X147292914Y-93080952D02*
X147340533Y-93176190D01*
X148150057Y-92414286D02*
X148150057Y-91652381D01*
X147054819Y-91223809D02*
X147054819Y-91033333D01*
X147054819Y-91033333D02*
X147102438Y-90938095D01*
X147102438Y-90938095D02*
X147197676Y-90842857D01*
X147197676Y-90842857D02*
X147388152Y-90795238D01*
X147388152Y-90795238D02*
X147721485Y-90795238D01*
X147721485Y-90795238D02*
X147911961Y-90842857D01*
X147911961Y-90842857D02*
X148007200Y-90938095D01*
X148007200Y-90938095D02*
X148054819Y-91033333D01*
X148054819Y-91033333D02*
X148054819Y-91223809D01*
X148054819Y-91223809D02*
X148007200Y-91319047D01*
X148007200Y-91319047D02*
X147911961Y-91414285D01*
X147911961Y-91414285D02*
X147721485Y-91461904D01*
X147721485Y-91461904D02*
X147388152Y-91461904D01*
X147388152Y-91461904D02*
X147197676Y-91414285D01*
X147197676Y-91414285D02*
X147102438Y-91319047D01*
X147102438Y-91319047D02*
X147054819Y-91223809D01*
X147388152Y-89938095D02*
X148054819Y-89938095D01*
X147388152Y-90366666D02*
X147911961Y-90366666D01*
X147911961Y-90366666D02*
X148007200Y-90319047D01*
X148007200Y-90319047D02*
X148054819Y-90223809D01*
X148054819Y-90223809D02*
X148054819Y-90080952D01*
X148054819Y-90080952D02*
X148007200Y-89985714D01*
X148007200Y-89985714D02*
X147959580Y-89938095D01*
X147388152Y-89604761D02*
X147388152Y-89223809D01*
X147054819Y-89461904D02*
X147911961Y-89461904D01*
X147911961Y-89461904D02*
X148007200Y-89414285D01*
X148007200Y-89414285D02*
X148054819Y-89319047D01*
X148054819Y-89319047D02*
X148054819Y-89223809D01*
X133883333Y-87609580D02*
X133835714Y-87657200D01*
X133835714Y-87657200D02*
X133692857Y-87704819D01*
X133692857Y-87704819D02*
X133597619Y-87704819D01*
X133597619Y-87704819D02*
X133454762Y-87657200D01*
X133454762Y-87657200D02*
X133359524Y-87561961D01*
X133359524Y-87561961D02*
X133311905Y-87466723D01*
X133311905Y-87466723D02*
X133264286Y-87276247D01*
X133264286Y-87276247D02*
X133264286Y-87133390D01*
X133264286Y-87133390D02*
X133311905Y-86942914D01*
X133311905Y-86942914D02*
X133359524Y-86847676D01*
X133359524Y-86847676D02*
X133454762Y-86752438D01*
X133454762Y-86752438D02*
X133597619Y-86704819D01*
X133597619Y-86704819D02*
X133692857Y-86704819D01*
X133692857Y-86704819D02*
X133835714Y-86752438D01*
X133835714Y-86752438D02*
X133883333Y-86800057D01*
X134835714Y-87704819D02*
X134264286Y-87704819D01*
X134550000Y-87704819D02*
X134550000Y-86704819D01*
X134550000Y-86704819D02*
X134454762Y-86847676D01*
X134454762Y-86847676D02*
X134359524Y-86942914D01*
X134359524Y-86942914D02*
X134264286Y-86990533D01*
%TO.C,U1*%
D11*
X130445000Y-73760000D02*
X130445000Y-84040000D01*
X130445000Y-84040000D02*
X136915000Y-84040000D01*
X132680000Y-73760000D02*
X130445000Y-73760000D01*
X136915000Y-73760000D02*
X134680000Y-73760000D01*
X136915000Y-84040000D02*
X136915000Y-73760000D01*
X134680000Y-73760000D02*
G75*
G02*
X132680000Y-73760000I-1000000J0D01*
G01*
%TO.C,J3*%
X121470000Y-89277358D02*
X121470000Y-89590000D01*
X121470000Y-98350000D02*
X121470000Y-92350000D01*
X122330000Y-89277358D02*
X122330000Y-89590000D01*
X122330000Y-92350000D02*
X122330000Y-98350000D01*
X122330000Y-98350000D02*
X121470000Y-98350000D01*
X123170000Y-89590000D02*
X123170000Y-92350000D01*
X124010000Y-89360000D02*
X124010000Y-89590000D01*
X124440000Y-86930000D02*
X125710000Y-86930000D01*
X124870000Y-89360000D02*
X124870000Y-89590000D01*
X125710000Y-86930000D02*
X125710000Y-88200000D01*
X124010000Y-92350000D02*
X124870000Y-92350000D01*
X124870000Y-98350000D01*
X124010000Y-98350000D01*
X124010000Y-92350000D01*
G36*
X124010000Y-92350000D02*
G01*
X124870000Y-92350000D01*
X124870000Y-98350000D01*
X124010000Y-98350000D01*
X124010000Y-92350000D01*
G37*
X120520000Y-89590000D02*
X125820000Y-89590000D01*
X125820000Y-92350000D01*
X120520000Y-92350000D01*
X120520000Y-89590000D01*
%TO.C,J5*%
X107735000Y-70305000D02*
X113735000Y-70305000D01*
X107735000Y-71165000D02*
X107735000Y-70305000D01*
X113735000Y-71165000D02*
X107735000Y-71165000D01*
X116495000Y-72005000D02*
X113735000Y-72005000D01*
X116725000Y-72845000D02*
X116495000Y-72845000D01*
X116725000Y-73705000D02*
X116495000Y-73705000D01*
X116807642Y-70305000D02*
X116495000Y-70305000D01*
X116807642Y-71165000D02*
X116495000Y-71165000D01*
X119155000Y-73275000D02*
X119155000Y-74545000D01*
X119155000Y-74545000D02*
X117885000Y-74545000D01*
X107735000Y-72845000D02*
X113735000Y-72845000D01*
X113735000Y-73705000D01*
X107735000Y-73705000D01*
X107735000Y-72845000D01*
G36*
X107735000Y-72845000D02*
G01*
X113735000Y-72845000D01*
X113735000Y-73705000D01*
X107735000Y-73705000D01*
X107735000Y-72845000D01*
G37*
X113735000Y-69355000D02*
X116495000Y-69355000D01*
X116495000Y-74655000D01*
X113735000Y-74655000D01*
X113735000Y-69355000D01*
%TO.C,R4*%
X137240000Y-85300000D02*
X138190000Y-85300000D01*
X142980000Y-85300000D02*
X142030000Y-85300000D01*
X138190000Y-84380000D02*
X142030000Y-84380000D01*
X142030000Y-86220000D01*
X138190000Y-86220000D01*
X138190000Y-84380000D01*
%TO.C,D4*%
X138630000Y-72300000D02*
X139280000Y-72300000D01*
X142680000Y-73420000D02*
X142680000Y-71180000D01*
X142800000Y-73420000D02*
X142800000Y-71180000D01*
X142920000Y-73420000D02*
X142920000Y-71180000D01*
X144170000Y-72300000D02*
X143520000Y-72300000D01*
X139280000Y-71180000D02*
X143520000Y-71180000D01*
X143520000Y-73420000D01*
X139280000Y-73420000D01*
X139280000Y-71180000D01*
%TO.C,D2*%
X123220000Y-72300000D02*
X123870000Y-72300000D01*
X124470000Y-71180000D02*
X124470000Y-73420000D01*
X124590000Y-71180000D02*
X124590000Y-73420000D01*
X124710000Y-71180000D02*
X124710000Y-73420000D01*
X128760000Y-72300000D02*
X128110000Y-72300000D01*
X123870000Y-71180000D02*
X128110000Y-71180000D01*
X128110000Y-73420000D01*
X123870000Y-73420000D01*
X123870000Y-71180000D01*
%TO.C,D3*%
X138620000Y-69800000D02*
X139270000Y-69800000D01*
X142670000Y-70920000D02*
X142670000Y-68680000D01*
X142790000Y-70920000D02*
X142790000Y-68680000D01*
X142910000Y-70920000D02*
X142910000Y-68680000D01*
X144160000Y-69800000D02*
X143510000Y-69800000D01*
X139270000Y-68680000D02*
X143510000Y-68680000D01*
X143510000Y-70920000D01*
X139270000Y-70920000D01*
X139270000Y-68680000D01*
%TO.C,J2*%
X140390000Y-65870000D02*
X140390000Y-64600000D01*
X141230000Y-63440000D02*
X141230000Y-63210000D01*
X141660000Y-65870000D02*
X140390000Y-65870000D01*
X142090000Y-63440000D02*
X142090000Y-63210000D01*
X142930000Y-63210000D02*
X142930000Y-60450000D01*
X143770000Y-54450000D02*
X144630000Y-54450000D01*
X143770000Y-60450000D02*
X143770000Y-54450000D01*
X143770000Y-63522642D02*
X143770000Y-63210000D01*
X144630000Y-54450000D02*
X144630000Y-60450000D01*
X144630000Y-63522642D02*
X144630000Y-63210000D01*
X140280000Y-60450000D02*
X145580000Y-60450000D01*
X145580000Y-63210000D01*
X140280000Y-63210000D01*
X140280000Y-60450000D01*
X141230000Y-54450000D02*
X142090000Y-54450000D01*
X142090000Y-60450000D01*
X141230000Y-60450000D01*
X141230000Y-54450000D01*
G36*
X141230000Y-54450000D02*
G01*
X142090000Y-54450000D01*
X142090000Y-60450000D01*
X141230000Y-60450000D01*
X141230000Y-54450000D01*
G37*
%TO.C,D1*%
X123220000Y-69800000D02*
X123870000Y-69800000D01*
X124470000Y-68680000D02*
X124470000Y-70920000D01*
X124590000Y-68680000D02*
X124590000Y-70920000D01*
X124710000Y-68680000D02*
X124710000Y-70920000D01*
X128760000Y-69800000D02*
X128110000Y-69800000D01*
X123870000Y-68680000D02*
X128110000Y-68680000D01*
X128110000Y-70920000D01*
X123870000Y-70920000D01*
X123870000Y-68680000D01*
%TO.C,C2*%
X131530000Y-61880000D02*
X135570000Y-61880000D01*
X131530000Y-62601000D02*
X131530000Y-61880000D01*
X131530000Y-64720000D02*
X131530000Y-63999000D01*
X135570000Y-61880000D02*
X135570000Y-62601000D01*
X135570000Y-63999000D02*
X135570000Y-64720000D01*
X135570000Y-64720000D02*
X131530000Y-64720000D01*
%TO.C,J6*%
X147945000Y-68855000D02*
X149215000Y-68855000D01*
X147945000Y-70125000D02*
X147945000Y-68855000D01*
X150292358Y-72235000D02*
X150605000Y-72235000D01*
X150292358Y-73095000D02*
X150605000Y-73095000D01*
X150375000Y-69695000D02*
X150605000Y-69695000D01*
X150375000Y-70555000D02*
X150605000Y-70555000D01*
X150605000Y-71395000D02*
X153365000Y-71395000D01*
X153365000Y-72235000D02*
X159365000Y-72235000D01*
X159365000Y-72235000D02*
X159365000Y-73095000D01*
X159365000Y-73095000D02*
X153365000Y-73095000D01*
X150605000Y-68745000D02*
X153365000Y-68745000D01*
X153365000Y-74045000D01*
X150605000Y-74045000D01*
X150605000Y-68745000D01*
X153365000Y-69695000D02*
X159365000Y-69695000D01*
X159365000Y-70555000D01*
X153365000Y-70555000D01*
X153365000Y-69695000D01*
G36*
X153365000Y-69695000D02*
G01*
X159365000Y-69695000D01*
X159365000Y-70555000D01*
X153365000Y-70555000D01*
X153365000Y-69695000D01*
G37*
%TO.C,RV2*%
X140490000Y-75490000D02*
X140490000Y-75740000D01*
X140490000Y-81200000D02*
X140490000Y-77660000D01*
X140590000Y-75290000D02*
X140590000Y-75490000D01*
X140590000Y-75290000D02*
X142010000Y-75290000D01*
X140590000Y-75490000D02*
X140490000Y-75490000D01*
X142010000Y-75490000D02*
X142010000Y-75290000D01*
X142010000Y-75490000D02*
X145590000Y-75490000D01*
X143290000Y-82510000D02*
X141800000Y-82510000D01*
X145590000Y-75290000D02*
X147010000Y-75290000D01*
X145590000Y-75490000D02*
X145590000Y-75290000D01*
X145800000Y-82510000D02*
X144310000Y-82510000D01*
X147010000Y-75290000D02*
X147010000Y-75490000D01*
X147010000Y-75490000D02*
X147110000Y-75490000D01*
X147110000Y-75490000D02*
X147110000Y-76180000D01*
X147110000Y-77220000D02*
X147110000Y-81200000D01*
X141800000Y-82510000D02*
G75*
G02*
X140490000Y-81200000I0J1310000D01*
G01*
X147110000Y-81200000D02*
G75*
G02*
X145800000Y-82510000I-1310000J0D01*
G01*
%TO.C,R3*%
X124430000Y-85300000D02*
X125380000Y-85300000D01*
X130170000Y-85300000D02*
X129220000Y-85300000D01*
X125380000Y-84380000D02*
X129220000Y-84380000D01*
X129220000Y-86220000D01*
X125380000Y-86220000D01*
X125380000Y-84380000D01*
%TO.C,R2*%
X138420000Y-67500000D02*
X139370000Y-67500000D01*
X144160000Y-67500000D02*
X143210000Y-67500000D01*
X139370000Y-66580000D02*
X143210000Y-66580000D01*
X143210000Y-68420000D01*
X139370000Y-68420000D01*
X139370000Y-66580000D01*
%TO.C,RV1*%
X120290000Y-75650000D02*
X120290000Y-75900000D01*
X120290000Y-81360000D02*
X120290000Y-77820000D01*
X120390000Y-75450000D02*
X120390000Y-75650000D01*
X120390000Y-75450000D02*
X121810000Y-75450000D01*
X120390000Y-75650000D02*
X120290000Y-75650000D01*
X121810000Y-75650000D02*
X121810000Y-75450000D01*
X121810000Y-75650000D02*
X125390000Y-75650000D01*
X123090000Y-82670000D02*
X121600000Y-82670000D01*
X125390000Y-75450000D02*
X126810000Y-75450000D01*
X125390000Y-75650000D02*
X125390000Y-75450000D01*
X125600000Y-82670000D02*
X124110000Y-82670000D01*
X126810000Y-75450000D02*
X126810000Y-75650000D01*
X126810000Y-75650000D02*
X126910000Y-75650000D01*
X126910000Y-75650000D02*
X126910000Y-76340000D01*
X126910000Y-77380000D02*
X126910000Y-81360000D01*
X121600000Y-82670000D02*
G75*
G02*
X120290000Y-81360000I0J1310000D01*
G01*
X126910000Y-81360000D02*
G75*
G02*
X125600000Y-82670000I-1310000J0D01*
G01*
%TO.C,R1*%
X123120000Y-67500000D02*
X124070000Y-67500000D01*
X128860000Y-67500000D02*
X127910000Y-67500000D01*
X124070000Y-66580000D02*
X127910000Y-66580000D01*
X127910000Y-68420000D01*
X124070000Y-68420000D01*
X124070000Y-66580000D01*
%TO.C,J1*%
X121755000Y-65955000D02*
X121755000Y-64685000D01*
X122595000Y-63525000D02*
X122595000Y-63295000D01*
X123025000Y-65955000D02*
X121755000Y-65955000D01*
X123455000Y-63525000D02*
X123455000Y-63295000D01*
X124295000Y-63295000D02*
X124295000Y-60535000D01*
X125135000Y-54535000D02*
X125995000Y-54535000D01*
X125135000Y-60535000D02*
X125135000Y-54535000D01*
X125135000Y-63607642D02*
X125135000Y-63295000D01*
X125995000Y-54535000D02*
X125995000Y-60535000D01*
X125995000Y-63607642D02*
X125995000Y-63295000D01*
X121645000Y-60535000D02*
X126945000Y-60535000D01*
X126945000Y-63295000D01*
X121645000Y-63295000D01*
X121645000Y-60535000D01*
X122595000Y-54535000D02*
X123455000Y-54535000D01*
X123455000Y-60535000D01*
X122595000Y-60535000D01*
X122595000Y-54535000D01*
G36*
X122595000Y-54535000D02*
G01*
X123455000Y-54535000D01*
X123455000Y-60535000D01*
X122595000Y-60535000D01*
X122595000Y-54535000D01*
G37*
%TO.C,J4*%
X142630000Y-89277358D02*
X142630000Y-89590000D01*
X142630000Y-98350000D02*
X142630000Y-92350000D01*
X143490000Y-89277358D02*
X143490000Y-89590000D01*
X143490000Y-92350000D02*
X143490000Y-98350000D01*
X143490000Y-98350000D02*
X142630000Y-98350000D01*
X144330000Y-89590000D02*
X144330000Y-92350000D01*
X145170000Y-89360000D02*
X145170000Y-89590000D01*
X145600000Y-86930000D02*
X146870000Y-86930000D01*
X146030000Y-89360000D02*
X146030000Y-89590000D01*
X146870000Y-86930000D02*
X146870000Y-88200000D01*
X145170000Y-92350000D02*
X146030000Y-92350000D01*
X146030000Y-98350000D01*
X145170000Y-98350000D01*
X145170000Y-92350000D01*
G36*
X145170000Y-92350000D02*
G01*
X146030000Y-92350000D01*
X146030000Y-98350000D01*
X145170000Y-98350000D01*
X145170000Y-92350000D01*
G37*
X141680000Y-89590000D02*
X146980000Y-89590000D01*
X146980000Y-92350000D01*
X141680000Y-92350000D01*
X141680000Y-89590000D01*
%TO.C,C1*%
X129105328Y-90405000D02*
X130005328Y-90405000D01*
X129555328Y-89955000D02*
X129555328Y-90855000D01*
X138670000Y-93000000D02*
G75*
G02*
X129430000Y-93000000I-4620000J0D01*
G01*
X129430000Y-93000000D02*
G75*
G02*
X138670000Y-93000000I4620000J0D01*
G01*
%TD*%
M02*
