%TF.GenerationSoftware,KiCad,Pcbnew,10.0.1*%
%TF.CreationDate,2026-07-03T14:58:21+09:00*%
%TF.ProjectId,FrontEnd,46726f6e-7445-46e6-942e-6b696361645f,rev?*%
%TF.SameCoordinates,Original*%
%TF.FileFunction,Copper,L2,Bot*%
%TF.FilePolarity,Positive*%
%FSLAX46Y46*%
G04 Gerber Fmt 4.6, Leading zero omitted, Abs format (unit mm)*
G04 Created by KiCad (PCBNEW 10.0.1) date 2026-07-03 14:58:21*
%MOMM*%
%LPD*%
G01*
G04 APERTURE LIST*
G04 Aperture macros list*
%AMRoundRect*
0 Rectangle with rounded corners*
0 $1 Rounding radius*
0 $2 $3 $4 $5 $6 $7 $8 $9 X,Y pos of 4 corners*
0 Add a 4 corners polygon primitive as box body*
4,1,4,$2,$3,$4,$5,$6,$7,$8,$9,$2,$3,0*
0 Add four circle primitives for the rounded corners*
1,1,$1+$1,$2,$3*
1,1,$1+$1,$4,$5*
1,1,$1+$1,$6,$7*
1,1,$1+$1,$8,$9*
0 Add four rect primitives between the rounded corners*
20,1,$1+$1,$2,$3,$4,$5,0*
20,1,$1+$1,$4,$5,$6,$7,0*
20,1,$1+$1,$6,$7,$8,$9,0*
20,1,$1+$1,$8,$9,$2,$3,0*%
G04 Aperture macros list end*
%TA.AperFunction,ComponentPad*%
%ADD10RoundRect,0.250000X-0.950000X-0.550000X0.950000X-0.550000X0.950000X0.550000X-0.950000X0.550000X0*%
%TD*%
%TA.AperFunction,ComponentPad*%
%ADD11O,2.400000X1.600000*%
%TD*%
%TA.AperFunction,ComponentPad*%
%ADD12R,1.700000X1.700000*%
%TD*%
%TA.AperFunction,ComponentPad*%
%ADD13C,1.700000*%
%TD*%
%TA.AperFunction,ComponentPad*%
%ADD14C,1.400000*%
%TD*%
%TA.AperFunction,ComponentPad*%
%ADD15RoundRect,0.250000X0.550000X0.550000X-0.550000X0.550000X-0.550000X-0.550000X0.550000X-0.550000X0*%
%TD*%
%TA.AperFunction,ComponentPad*%
%ADD16C,1.600000*%
%TD*%
%TA.AperFunction,ComponentPad*%
%ADD17RoundRect,0.250000X-0.550000X-0.550000X0.550000X-0.550000X0.550000X0.550000X-0.550000X0.550000X0*%
%TD*%
%TA.AperFunction,ComponentPad*%
%ADD18R,1.560000X1.560000*%
%TD*%
%TA.AperFunction,ComponentPad*%
%ADD19C,1.560000*%
%TD*%
%TA.AperFunction,ViaPad*%
%ADD20C,0.600000*%
%TD*%
%TA.AperFunction,Conductor*%
%ADD21C,0.300000*%
%TD*%
%TA.AperFunction,Conductor*%
%ADD22C,0.200000*%
%TD*%
G04 APERTURE END LIST*
D10*
%TO.P,U1,1*%
%TO.N,Net-(U1A--)*%
X128600000Y-75090000D03*
D11*
%TO.P,U1,2,-_2*%
X128600000Y-77630000D03*
%TO.P,U1,3,+_3*%
%TO.N,Net-(D1-A)*%
X128600000Y-80170000D03*
%TO.P,U1,4,V-_4*%
%TO.N,GND*%
X128600000Y-82710000D03*
%TO.P,U1,5,+_5*%
%TO.N,Net-(D3-A)*%
X138760000Y-82710000D03*
%TO.P,U1,6,-_6*%
%TO.N,Net-(U1B--)*%
X138760000Y-80170000D03*
%TO.P,U1,7*%
X138760000Y-77630000D03*
%TO.P,U1,8,V+_8*%
%TO.N,VCC*%
X138760000Y-75090000D03*
%TD*%
D12*
%TO.P,J3,1,Pin_1_1*%
%TO.N,/ADC_0*%
X124440000Y-88200000D03*
D13*
%TO.P,J3,2,Pin_2_2*%
%TO.N,GND*%
X121900000Y-88200000D03*
%TD*%
D12*
%TO.P,J5,1,Pin_1_1*%
%TO.N,VCC*%
X117885000Y-73275000D03*
D13*
%TO.P,J5,2,Pin_2_2*%
%TO.N,GND*%
X117885000Y-70735000D03*
%TD*%
D14*
%TO.P,R4,1*%
%TO.N,/ADC_1*%
X143920000Y-85300000D03*
%TO.P,R4,2*%
%TO.N,Net-(U1B--)*%
X136300000Y-85300000D03*
%TD*%
D15*
%TO.P,D4,1,K_1*%
%TO.N,Net-(D3-A)*%
X145210000Y-72300000D03*
D16*
%TO.P,D4,2,A_2*%
%TO.N,GND*%
X137590000Y-72300000D03*
%TD*%
D17*
%TO.P,D2,1,K_1*%
%TO.N,Net-(D1-A)*%
X122180000Y-72300000D03*
D16*
%TO.P,D2,2,A_2*%
%TO.N,GND*%
X129800000Y-72300000D03*
%TD*%
D15*
%TO.P,D3,1,K_1*%
%TO.N,VCC*%
X145200000Y-69800000D03*
D16*
%TO.P,D3,2,A_2*%
%TO.N,Net-(D3-A)*%
X137580000Y-69800000D03*
%TD*%
D12*
%TO.P,J2,1,Pin_1_1*%
%TO.N,Net-(J2-Pin_1)*%
X141660000Y-64600000D03*
D13*
%TO.P,J2,2,Pin_2_2*%
%TO.N,GND*%
X144200000Y-64600000D03*
%TD*%
D17*
%TO.P,D1,1,K_1*%
%TO.N,VCC*%
X122180000Y-69800000D03*
D16*
%TO.P,D1,2,A_2*%
%TO.N,Net-(D1-A)*%
X129800000Y-69800000D03*
%TD*%
%TO.P,C2,1*%
%TO.N,VCC*%
X132300000Y-63300000D03*
%TO.P,C2,2*%
%TO.N,GND*%
X134800000Y-63300000D03*
%TD*%
D12*
%TO.P,J6,1,Pin_1_1*%
%TO.N,VCC*%
X149215000Y-70125000D03*
D13*
%TO.P,J6,2,Pin_2_2*%
%TO.N,GND*%
X149215000Y-72665000D03*
%TD*%
D18*
%TO.P,RV2,1,1_1*%
%TO.N,VCC*%
X141300000Y-76700000D03*
D19*
%TO.P,RV2,2,2_2*%
%TO.N,Net-(D3-A)*%
X143800000Y-81700000D03*
%TO.P,RV2,3,3_3*%
%TO.N,GND*%
X146300000Y-76700000D03*
%TD*%
D14*
%TO.P,R3,1*%
%TO.N,/ADC_0*%
X123490000Y-85300000D03*
%TO.P,R3,2*%
%TO.N,Net-(U1A--)*%
X131110000Y-85300000D03*
%TD*%
%TO.P,R2,1*%
%TO.N,Net-(D3-A)*%
X145100000Y-67500000D03*
%TO.P,R2,2*%
%TO.N,Net-(J2-Pin_1)*%
X137480000Y-67500000D03*
%TD*%
D18*
%TO.P,RV1,1,1_1*%
%TO.N,VCC*%
X121100000Y-76860000D03*
D19*
%TO.P,RV1,2,2_2*%
%TO.N,Net-(D1-A)*%
X123600000Y-81860000D03*
%TO.P,RV1,3,3_3*%
%TO.N,GND*%
X126100000Y-76860000D03*
%TD*%
D14*
%TO.P,R1,1*%
%TO.N,Net-(D1-A)*%
X122180000Y-67500000D03*
%TO.P,R1,2*%
%TO.N,Net-(J1-Pin_1)*%
X129800000Y-67500000D03*
%TD*%
D12*
%TO.P,J1,1,Pin_1_1*%
%TO.N,Net-(J1-Pin_1)*%
X123025000Y-64685000D03*
D13*
%TO.P,J1,2,Pin_2_2*%
%TO.N,GND*%
X125565000Y-64685000D03*
%TD*%
D12*
%TO.P,J4,1,Pin_1_1*%
%TO.N,/ADC_1*%
X145600000Y-88200000D03*
D13*
%TO.P,J4,2,Pin_2_2*%
%TO.N,GND*%
X143060000Y-88200000D03*
%TD*%
D17*
%TO.P,C1,1*%
%TO.N,VCC*%
X132800000Y-93000000D03*
D16*
%TO.P,C1,2*%
%TO.N,GND*%
X135300000Y-93000000D03*
%TD*%
D20*
%TO.N,GND*%
X152900000Y-93900000D03*
X114600000Y-93900000D03*
X153100000Y-59700000D03*
X114300000Y-59600000D03*
X150000000Y-79000000D03*
X116600000Y-80200000D03*
X137900000Y-65000000D03*
X129000000Y-64900000D03*
X131400000Y-76800000D03*
X134400000Y-82500000D03*
X134500000Y-78400000D03*
X128400000Y-88300000D03*
X139500000Y-88200000D03*
X114200000Y-83300000D03*
X114200000Y-80100000D03*
X114400000Y-77100000D03*
X153300000Y-82100000D03*
X153200000Y-79000000D03*
X153100000Y-76000000D03*
%TD*%
%TO.N,VCC*%
D21*
X145200000Y-69800000D02*
X148890000Y-69800000D01*
D22*
X117885000Y-75385000D02*
X119360000Y-76860000D01*
D21*
X131400000Y-73700000D02*
X125240000Y-73700000D01*
X125240000Y-75560000D02*
X125240000Y-73700000D01*
X121100000Y-76860000D02*
X123940000Y-76860000D01*
X132300000Y-74600000D02*
X132790000Y-75090000D01*
D22*
X119360000Y-76860000D02*
X121100000Y-76860000D01*
D21*
X123940000Y-76860000D02*
X125240000Y-75560000D01*
X132800000Y-93000000D02*
X132800000Y-75100000D01*
X125240000Y-73700000D02*
X125240000Y-71240000D01*
X148890000Y-69800000D02*
X149215000Y-70125000D01*
X123800000Y-69800000D02*
X122180000Y-69800000D01*
X144050000Y-69800000D02*
X138760000Y-75090000D01*
X138760000Y-75090000D02*
X132790000Y-75090000D01*
X125240000Y-71240000D02*
X123800000Y-69800000D01*
D22*
X117885000Y-73275000D02*
X117885000Y-75385000D01*
D21*
X138760000Y-75090000D02*
X139690000Y-75090000D01*
X132300000Y-73700000D02*
X132300000Y-74600000D01*
X132800000Y-75100000D02*
X132790000Y-75090000D01*
X132300000Y-63300000D02*
X132300000Y-73700000D01*
X139690000Y-75090000D02*
X141300000Y-76700000D01*
X131400000Y-73700000D02*
X132300000Y-73700000D01*
X145200000Y-69800000D02*
X144050000Y-69800000D01*
%TD*%
%TA.AperFunction,Conductor*%
%TO.N,GND*%
G36*
X154442539Y-58320185D02*
G01*
X154488294Y-58372989D01*
X154499500Y-58424500D01*
X154499500Y-95075500D01*
X154479815Y-95142539D01*
X154427011Y-95188294D01*
X154375500Y-95199500D01*
X113124500Y-95199500D01*
X113057461Y-95179815D01*
X113011706Y-95127011D01*
X113000500Y-95075500D01*
X113000500Y-89878711D01*
X114149500Y-89878711D01*
X114149500Y-90121288D01*
X114181161Y-90361785D01*
X114243947Y-90596104D01*
X114336773Y-90820205D01*
X114336776Y-90820212D01*
X114458064Y-91030289D01*
X114458066Y-91030292D01*
X114458067Y-91030293D01*
X114605733Y-91222736D01*
X114605739Y-91222743D01*
X114777256Y-91394260D01*
X114777262Y-91394265D01*
X114969711Y-91541936D01*
X115179788Y-91663224D01*
X115403900Y-91756054D01*
X115638211Y-91818838D01*
X115818586Y-91842584D01*
X115878711Y-91850500D01*
X115878712Y-91850500D01*
X116121289Y-91850500D01*
X116169388Y-91844167D01*
X116361789Y-91818838D01*
X116596100Y-91756054D01*
X116820212Y-91663224D01*
X117030289Y-91541936D01*
X117222738Y-91394265D01*
X117394265Y-91222738D01*
X117541936Y-91030289D01*
X117663224Y-90820212D01*
X117756054Y-90596100D01*
X117818838Y-90361789D01*
X117850500Y-90121288D01*
X117850500Y-89878712D01*
X117818838Y-89638211D01*
X117756054Y-89403900D01*
X117735643Y-89354624D01*
X117719423Y-89315464D01*
X117663226Y-89179794D01*
X117663224Y-89179788D01*
X117541936Y-88969711D01*
X117394265Y-88777262D01*
X117394260Y-88777256D01*
X117222743Y-88605739D01*
X117222736Y-88605733D01*
X117030293Y-88458067D01*
X117030292Y-88458066D01*
X117030289Y-88458064D01*
X116820212Y-88336776D01*
X116820205Y-88336773D01*
X116596104Y-88243947D01*
X116581166Y-88239944D01*
X116361789Y-88181162D01*
X116361788Y-88181161D01*
X116361785Y-88181161D01*
X116121289Y-88149500D01*
X116121288Y-88149500D01*
X115878712Y-88149500D01*
X115878711Y-88149500D01*
X115638214Y-88181161D01*
X115403895Y-88243947D01*
X115179794Y-88336773D01*
X115179785Y-88336777D01*
X114969706Y-88458067D01*
X114777263Y-88605733D01*
X114777256Y-88605739D01*
X114605739Y-88777256D01*
X114605733Y-88777263D01*
X114458067Y-88969706D01*
X114336777Y-89179785D01*
X114336773Y-89179794D01*
X114243947Y-89403895D01*
X114181161Y-89638214D01*
X114149500Y-89878711D01*
X113000500Y-89878711D01*
X113000500Y-88093753D01*
X120550000Y-88093753D01*
X120550000Y-88306246D01*
X120583242Y-88516127D01*
X120583242Y-88516130D01*
X120648904Y-88718217D01*
X120745375Y-88907550D01*
X120784728Y-88961716D01*
X121417037Y-88329408D01*
X121434075Y-88392993D01*
X121499901Y-88507007D01*
X121592993Y-88600099D01*
X121707007Y-88665925D01*
X121770590Y-88682962D01*
X121138282Y-89315269D01*
X121138282Y-89315270D01*
X121192449Y-89354624D01*
X121381782Y-89451095D01*
X121583870Y-89516757D01*
X121793754Y-89550000D01*
X122006246Y-89550000D01*
X122216127Y-89516757D01*
X122216130Y-89516757D01*
X122418217Y-89451095D01*
X122607554Y-89354622D01*
X122661716Y-89315270D01*
X122661717Y-89315270D01*
X122029408Y-88682962D01*
X122092993Y-88665925D01*
X122207007Y-88600099D01*
X122300099Y-88507007D01*
X122365925Y-88392993D01*
X122382962Y-88329409D01*
X123053181Y-88999628D01*
X123086666Y-89060951D01*
X123089500Y-89087300D01*
X123089500Y-89097865D01*
X123089501Y-89097876D01*
X123095908Y-89157483D01*
X123146202Y-89292328D01*
X123146206Y-89292335D01*
X123232452Y-89407544D01*
X123232455Y-89407547D01*
X123347664Y-89493793D01*
X123347671Y-89493797D01*
X123482517Y-89544091D01*
X123482516Y-89544091D01*
X123489444Y-89544835D01*
X123542127Y-89550500D01*
X125337872Y-89550499D01*
X125397483Y-89544091D01*
X125532331Y-89493796D01*
X125647546Y-89407546D01*
X125733796Y-89292331D01*
X125784091Y-89157483D01*
X125790500Y-89097873D01*
X125790499Y-87302128D01*
X125784091Y-87242517D01*
X125733796Y-87107669D01*
X125733795Y-87107668D01*
X125733793Y-87107664D01*
X125647547Y-86992455D01*
X125647544Y-86992452D01*
X125532335Y-86906206D01*
X125532328Y-86906202D01*
X125397482Y-86855908D01*
X125397483Y-86855908D01*
X125337883Y-86849501D01*
X125337881Y-86849500D01*
X125337873Y-86849500D01*
X125337864Y-86849500D01*
X123542129Y-86849500D01*
X123542123Y-86849501D01*
X123482516Y-86855908D01*
X123347671Y-86906202D01*
X123347664Y-86906206D01*
X123232455Y-86992452D01*
X123232452Y-86992455D01*
X123146206Y-87107664D01*
X123146202Y-87107671D01*
X123095908Y-87242517D01*
X123089501Y-87302116D01*
X123089501Y-87302123D01*
X123089500Y-87302135D01*
X123089500Y-87312690D01*
X123069815Y-87379729D01*
X123053181Y-87400371D01*
X122382962Y-88070590D01*
X122365925Y-88007007D01*
X122300099Y-87892993D01*
X122207007Y-87799901D01*
X122092993Y-87734075D01*
X122029409Y-87717037D01*
X122661716Y-87084728D01*
X122607550Y-87045375D01*
X122418217Y-86948904D01*
X122216129Y-86883242D01*
X122006246Y-86850000D01*
X121793754Y-86850000D01*
X121583872Y-86883242D01*
X121583869Y-86883242D01*
X121381782Y-86948904D01*
X121192439Y-87045380D01*
X121138282Y-87084727D01*
X121138282Y-87084728D01*
X121770591Y-87717037D01*
X121707007Y-87734075D01*
X121592993Y-87799901D01*
X121499901Y-87892993D01*
X121434075Y-88007007D01*
X121417037Y-88070591D01*
X120784728Y-87438282D01*
X120784727Y-87438282D01*
X120745380Y-87492439D01*
X120648904Y-87681782D01*
X120583242Y-87883869D01*
X120583242Y-87883872D01*
X120550000Y-88093753D01*
X113000500Y-88093753D01*
X113000500Y-85205513D01*
X122289500Y-85205513D01*
X122289500Y-85394486D01*
X122319059Y-85581118D01*
X122377454Y-85760836D01*
X122450500Y-85904195D01*
X122463240Y-85929199D01*
X122574310Y-86082073D01*
X122707927Y-86215690D01*
X122860801Y-86326760D01*
X122940347Y-86367290D01*
X123029163Y-86412545D01*
X123029165Y-86412545D01*
X123029168Y-86412547D01*
X123125497Y-86443846D01*
X123208881Y-86470940D01*
X123395514Y-86500500D01*
X123395519Y-86500500D01*
X123584486Y-86500500D01*
X123771118Y-86470940D01*
X123950832Y-86412547D01*
X124119199Y-86326760D01*
X124272073Y-86215690D01*
X124405690Y-86082073D01*
X124516760Y-85929199D01*
X124602547Y-85760832D01*
X124660940Y-85581118D01*
X124690500Y-85394486D01*
X124690500Y-85205513D01*
X124660940Y-85018881D01*
X124602545Y-84839163D01*
X124557290Y-84750347D01*
X124516760Y-84670801D01*
X124405690Y-84517927D01*
X124272073Y-84384310D01*
X124119199Y-84273240D01*
X123950836Y-84187454D01*
X123771118Y-84129059D01*
X123584486Y-84099500D01*
X123584481Y-84099500D01*
X123395519Y-84099500D01*
X123395514Y-84099500D01*
X123208881Y-84129059D01*
X123029163Y-84187454D01*
X122860800Y-84273240D01*
X122773579Y-84336610D01*
X122707927Y-84384310D01*
X122707925Y-84384312D01*
X122707924Y-84384312D01*
X122574312Y-84517924D01*
X122574312Y-84517925D01*
X122574310Y-84517927D01*
X122526610Y-84583579D01*
X122463240Y-84670800D01*
X122377454Y-84839163D01*
X122319059Y-85018881D01*
X122289500Y-85205513D01*
X113000500Y-85205513D01*
X113000500Y-81759216D01*
X122319500Y-81759216D01*
X122319500Y-81960783D01*
X122351030Y-82159852D01*
X122413312Y-82351539D01*
X122468576Y-82460000D01*
X122504818Y-82531129D01*
X122623289Y-82694190D01*
X122765810Y-82836711D01*
X122928871Y-82955182D01*
X123045119Y-83014413D01*
X123108460Y-83046687D01*
X123204303Y-83077828D01*
X123300149Y-83108970D01*
X123392348Y-83123572D01*
X123499217Y-83140500D01*
X123499222Y-83140500D01*
X123700783Y-83140500D01*
X123797289Y-83125214D01*
X123899851Y-83108970D01*
X124091542Y-83046686D01*
X124271129Y-82955182D01*
X124434190Y-82836711D01*
X124576711Y-82694190D01*
X124695182Y-82531129D01*
X124786686Y-82351542D01*
X124848970Y-82159851D01*
X124869750Y-82028650D01*
X124880500Y-81960783D01*
X124880500Y-81759216D01*
X124862156Y-81643408D01*
X124848970Y-81560149D01*
X124809931Y-81440000D01*
X124786687Y-81368460D01*
X124766986Y-81329795D01*
X124695182Y-81188871D01*
X124576711Y-81025810D01*
X124434190Y-80883289D01*
X124271129Y-80764818D01*
X124189624Y-80723289D01*
X124091539Y-80673312D01*
X123899852Y-80611030D01*
X123700783Y-80579500D01*
X123700778Y-80579500D01*
X123499222Y-80579500D01*
X123499217Y-80579500D01*
X123300147Y-80611030D01*
X123108460Y-80673312D01*
X122928870Y-80764818D01*
X122835838Y-80832410D01*
X122765810Y-80883289D01*
X122765808Y-80883291D01*
X122765807Y-80883291D01*
X122623291Y-81025807D01*
X122623291Y-81025808D01*
X122623289Y-81025810D01*
X122572410Y-81095838D01*
X122504818Y-81188870D01*
X122413312Y-81368460D01*
X122351030Y-81560147D01*
X122319500Y-81759216D01*
X113000500Y-81759216D01*
X113000500Y-72377135D01*
X116534500Y-72377135D01*
X116534500Y-74172870D01*
X116534501Y-74172876D01*
X116540908Y-74232483D01*
X116591202Y-74367328D01*
X116591206Y-74367335D01*
X116677452Y-74482544D01*
X116677455Y-74482547D01*
X116792664Y-74568793D01*
X116792671Y-74568797D01*
X116837618Y-74585561D01*
X116927517Y-74619091D01*
X116987127Y-74625500D01*
X117160500Y-74625499D01*
X117227539Y-74645183D01*
X117273294Y-74697987D01*
X117284500Y-74749499D01*
X117284500Y-75298330D01*
X117284499Y-75298348D01*
X117284499Y-75464054D01*
X117284498Y-75464054D01*
X117284499Y-75464057D01*
X117325423Y-75616785D01*
X117325424Y-75616787D01*
X117325423Y-75616787D01*
X117336635Y-75636205D01*
X117336636Y-75636207D01*
X117404475Y-75753709D01*
X117404481Y-75753717D01*
X117523349Y-75872585D01*
X117523355Y-75872590D01*
X118879478Y-77228713D01*
X118879480Y-77228716D01*
X118991284Y-77340520D01*
X119037728Y-77367334D01*
X119079780Y-77391613D01*
X119128209Y-77419574D01*
X119128210Y-77419575D01*
X119128212Y-77419575D01*
X119128215Y-77419577D01*
X119280943Y-77460501D01*
X119280946Y-77460501D01*
X119446653Y-77460501D01*
X119446669Y-77460500D01*
X119695501Y-77460500D01*
X119762540Y-77480185D01*
X119808295Y-77532989D01*
X119819501Y-77584500D01*
X119819501Y-77687876D01*
X119825908Y-77747483D01*
X119876202Y-77882328D01*
X119876206Y-77882335D01*
X119962452Y-77997544D01*
X119962455Y-77997547D01*
X120077664Y-78083793D01*
X120077671Y-78083797D01*
X120212517Y-78134091D01*
X120212516Y-78134091D01*
X120219444Y-78134835D01*
X120272127Y-78140500D01*
X121927872Y-78140499D01*
X121987483Y-78134091D01*
X122122331Y-78083796D01*
X122237546Y-77997546D01*
X122323796Y-77882331D01*
X122374091Y-77747483D01*
X122380500Y-77687873D01*
X122380500Y-77634500D01*
X122400185Y-77567461D01*
X122452989Y-77521706D01*
X122504500Y-77510500D01*
X124004071Y-77510500D01*
X124088615Y-77493682D01*
X124129744Y-77485501D01*
X124248127Y-77436465D01*
X124273402Y-77419577D01*
X124273407Y-77419574D01*
X124300491Y-77401477D01*
X124354669Y-77365277D01*
X124639604Y-77080342D01*
X124700927Y-77046857D01*
X124770618Y-77051841D01*
X124826552Y-77093712D01*
X124849758Y-77148622D01*
X124851518Y-77159737D01*
X124913775Y-77351346D01*
X124913776Y-77351349D01*
X125005248Y-77530869D01*
X125034842Y-77571602D01*
X125034843Y-77571603D01*
X125617037Y-76989408D01*
X125634075Y-77052993D01*
X125699901Y-77167007D01*
X125792993Y-77260099D01*
X125907007Y-77325925D01*
X125970589Y-77342962D01*
X125388395Y-77925155D01*
X125429133Y-77954753D01*
X125608650Y-78046223D01*
X125608653Y-78046224D01*
X125800264Y-78108481D01*
X125999263Y-78140000D01*
X126200737Y-78140000D01*
X126399735Y-78108481D01*
X126591346Y-78046224D01*
X126591349Y-78046223D01*
X126770858Y-77954757D01*
X126775012Y-77952212D01*
X126776076Y-77953948D01*
X126833775Y-77933304D01*
X126901843Y-77949068D01*
X126950582Y-77999131D01*
X126958895Y-78018776D01*
X126994781Y-78129223D01*
X127087715Y-78311613D01*
X127208028Y-78477213D01*
X127352786Y-78621971D01*
X127507749Y-78734556D01*
X127518390Y-78742287D01*
X127609840Y-78788883D01*
X127611080Y-78789515D01*
X127661876Y-78837490D01*
X127678671Y-78905311D01*
X127656134Y-78971446D01*
X127611080Y-79010485D01*
X127518386Y-79057715D01*
X127352786Y-79178028D01*
X127208028Y-79322786D01*
X127087715Y-79488386D01*
X126994781Y-79670776D01*
X126931522Y-79865465D01*
X126899500Y-80067648D01*
X126899500Y-80272351D01*
X126931522Y-80474534D01*
X126994781Y-80669223D01*
X127087715Y-80851613D01*
X127208028Y-81017213D01*
X127352786Y-81161971D01*
X127507749Y-81274556D01*
X127518390Y-81282287D01*
X127590424Y-81318990D01*
X127611629Y-81329795D01*
X127662425Y-81377770D01*
X127679220Y-81445591D01*
X127656682Y-81511726D01*
X127611629Y-81550765D01*
X127518650Y-81598140D01*
X127353105Y-81718417D01*
X127353104Y-81718417D01*
X127208417Y-81863104D01*
X127208417Y-81863105D01*
X127088140Y-82028650D01*
X126995244Y-82210970D01*
X126932009Y-82405586D01*
X126923391Y-82460000D01*
X128284314Y-82460000D01*
X128279920Y-82464394D01*
X128227259Y-82555606D01*
X128200000Y-82657339D01*
X128200000Y-82762661D01*
X128227259Y-82864394D01*
X128279920Y-82955606D01*
X128284314Y-82960000D01*
X126923391Y-82960000D01*
X126932009Y-83014413D01*
X126995244Y-83209029D01*
X127088140Y-83391349D01*
X127208417Y-83556894D01*
X127208417Y-83556895D01*
X127353104Y-83701582D01*
X127518650Y-83821859D01*
X127700968Y-83914755D01*
X127895582Y-83977990D01*
X128097683Y-84010000D01*
X128350000Y-84010000D01*
X128350000Y-83025686D01*
X128354394Y-83030080D01*
X128445606Y-83082741D01*
X128547339Y-83110000D01*
X128652661Y-83110000D01*
X128754394Y-83082741D01*
X128845606Y-83030080D01*
X128850000Y-83025686D01*
X128850000Y-84010000D01*
X129102317Y-84010000D01*
X129304417Y-83977990D01*
X129499031Y-83914755D01*
X129681349Y-83821859D01*
X129846894Y-83701582D01*
X129846895Y-83701582D01*
X129991582Y-83556895D01*
X129991582Y-83556894D01*
X130111859Y-83391349D01*
X130204755Y-83209029D01*
X130267990Y-83014413D01*
X130276609Y-82960000D01*
X128915686Y-82960000D01*
X128920080Y-82955606D01*
X128972741Y-82864394D01*
X129000000Y-82762661D01*
X129000000Y-82657339D01*
X128972741Y-82555606D01*
X128920080Y-82464394D01*
X128915686Y-82460000D01*
X130276609Y-82460000D01*
X130267990Y-82405586D01*
X130204755Y-82210970D01*
X130111859Y-82028650D01*
X129991582Y-81863105D01*
X129991582Y-81863104D01*
X129846895Y-81718417D01*
X129681349Y-81598140D01*
X129588370Y-81550765D01*
X129537574Y-81502790D01*
X129520779Y-81434969D01*
X129543316Y-81368835D01*
X129588370Y-81329795D01*
X129588920Y-81329515D01*
X129681610Y-81282287D01*
X129783228Y-81208458D01*
X129847213Y-81161971D01*
X129847215Y-81161968D01*
X129847219Y-81161966D01*
X129991966Y-81017219D01*
X129991968Y-81017215D01*
X129991971Y-81017213D01*
X130044732Y-80944590D01*
X130112287Y-80851610D01*
X130205220Y-80669219D01*
X130268477Y-80474534D01*
X130300500Y-80272352D01*
X130300500Y-80067648D01*
X130268477Y-79865466D01*
X130205220Y-79670781D01*
X130205218Y-79670778D01*
X130205218Y-79670776D01*
X130171503Y-79604607D01*
X130112287Y-79488390D01*
X130104556Y-79477749D01*
X129991971Y-79322786D01*
X129847213Y-79178028D01*
X129681614Y-79057715D01*
X129675006Y-79054348D01*
X129588917Y-79010483D01*
X129538123Y-78962511D01*
X129521328Y-78894690D01*
X129543865Y-78828555D01*
X129588917Y-78789516D01*
X129681610Y-78742287D01*
X129702770Y-78726913D01*
X129847213Y-78621971D01*
X129847215Y-78621968D01*
X129847219Y-78621966D01*
X129991966Y-78477219D01*
X129991968Y-78477215D01*
X129991971Y-78477213D01*
X130044732Y-78404590D01*
X130112287Y-78311610D01*
X130205220Y-78129219D01*
X130268477Y-77934534D01*
X130300500Y-77732352D01*
X130300500Y-77527648D01*
X130293824Y-77485500D01*
X130268477Y-77325465D01*
X130234592Y-77221180D01*
X130205220Y-77130781D01*
X130205218Y-77130778D01*
X130205218Y-77130776D01*
X130164998Y-77051841D01*
X130112287Y-76948390D01*
X130104556Y-76937749D01*
X129991971Y-76782786D01*
X129847219Y-76638034D01*
X129793853Y-76599262D01*
X129753547Y-76569978D01*
X129710882Y-76514649D01*
X129704903Y-76445036D01*
X129737508Y-76383240D01*
X129787426Y-76351955D01*
X129869334Y-76324814D01*
X130018656Y-76232712D01*
X130142712Y-76108656D01*
X130234814Y-75959334D01*
X130289999Y-75792797D01*
X130300500Y-75690009D01*
X130300499Y-74489992D01*
X130300204Y-74487100D01*
X130312975Y-74418407D01*
X130360856Y-74367524D01*
X130423562Y-74350500D01*
X131335931Y-74350500D01*
X131525500Y-74350500D01*
X131592539Y-74370185D01*
X131638294Y-74422989D01*
X131649500Y-74474500D01*
X131649500Y-74664069D01*
X131649500Y-74664071D01*
X131649499Y-74664071D01*
X131672932Y-74781870D01*
X131674498Y-74789743D01*
X131723533Y-74908125D01*
X131794726Y-75014673D01*
X131794727Y-75014674D01*
X132113181Y-75333127D01*
X132146666Y-75394450D01*
X132149500Y-75420808D01*
X132149500Y-84342375D01*
X132129815Y-84409414D01*
X132077011Y-84455169D01*
X132007853Y-84465113D01*
X131944297Y-84436088D01*
X131937819Y-84430056D01*
X131892075Y-84384312D01*
X131892073Y-84384310D01*
X131739199Y-84273240D01*
X131570836Y-84187454D01*
X131391118Y-84129059D01*
X131204486Y-84099500D01*
X131204481Y-84099500D01*
X131015519Y-84099500D01*
X131015514Y-84099500D01*
X130828881Y-84129059D01*
X130649163Y-84187454D01*
X130480800Y-84273240D01*
X130393579Y-84336610D01*
X130327927Y-84384310D01*
X130327925Y-84384312D01*
X130327924Y-84384312D01*
X130194312Y-84517924D01*
X130194312Y-84517925D01*
X130194310Y-84517927D01*
X130146610Y-84583579D01*
X130083240Y-84670800D01*
X129997454Y-84839163D01*
X129939059Y-85018881D01*
X129909500Y-85205513D01*
X129909500Y-85394486D01*
X129939059Y-85581118D01*
X129997454Y-85760836D01*
X130070500Y-85904195D01*
X130083240Y-85929199D01*
X130194310Y-86082073D01*
X130327927Y-86215690D01*
X130480801Y-86326760D01*
X130560347Y-86367290D01*
X130649163Y-86412545D01*
X130649165Y-86412545D01*
X130649168Y-86412547D01*
X130745497Y-86443846D01*
X130828881Y-86470940D01*
X131015514Y-86500500D01*
X131015519Y-86500500D01*
X131204486Y-86500500D01*
X131391118Y-86470940D01*
X131570832Y-86412547D01*
X131739199Y-86326760D01*
X131892073Y-86215690D01*
X131937819Y-86169944D01*
X131999142Y-86136459D01*
X132068834Y-86141443D01*
X132124767Y-86183315D01*
X132149184Y-86248779D01*
X132149500Y-86257625D01*
X132149500Y-91603130D01*
X132129815Y-91670169D01*
X132077011Y-91715924D01*
X132064505Y-91720836D01*
X131930666Y-91765186D01*
X131930663Y-91765187D01*
X131781342Y-91857289D01*
X131657289Y-91981342D01*
X131565187Y-92130663D01*
X131565186Y-92130666D01*
X131510001Y-92297203D01*
X131510001Y-92297204D01*
X131510000Y-92297204D01*
X131499500Y-92399983D01*
X131499500Y-93600001D01*
X131499501Y-93600018D01*
X131510000Y-93702796D01*
X131510001Y-93702799D01*
X131525681Y-93750116D01*
X131565186Y-93869334D01*
X131657288Y-94018656D01*
X131781344Y-94142712D01*
X131930666Y-94234814D01*
X132097203Y-94289999D01*
X132199991Y-94300500D01*
X133400008Y-94300499D01*
X133502797Y-94289999D01*
X133669334Y-94234814D01*
X133818656Y-94142712D01*
X133942712Y-94018656D01*
X134034814Y-93869334D01*
X134058102Y-93799054D01*
X134062110Y-93791050D01*
X134080060Y-93771772D01*
X134095055Y-93750116D01*
X134103495Y-93746606D01*
X134109725Y-93739917D01*
X134135249Y-93733404D01*
X134159571Y-93723292D01*
X134175834Y-93723048D01*
X134177425Y-93722643D01*
X134178523Y-93723008D01*
X134182719Y-93722946D01*
X134220525Y-93725921D01*
X134900000Y-93046446D01*
X134900000Y-93052661D01*
X134927259Y-93154394D01*
X134979920Y-93245606D01*
X135054394Y-93320080D01*
X135145606Y-93372741D01*
X135247339Y-93400000D01*
X135253553Y-93400000D01*
X134574076Y-94079474D01*
X134618650Y-94111859D01*
X134800968Y-94204755D01*
X134995582Y-94267990D01*
X135197683Y-94300000D01*
X135402317Y-94300000D01*
X135604417Y-94267990D01*
X135799031Y-94204755D01*
X135981349Y-94111859D01*
X136025921Y-94079474D01*
X135346447Y-93400000D01*
X135352661Y-93400000D01*
X135454394Y-93372741D01*
X135545606Y-93320080D01*
X135620080Y-93245606D01*
X135672741Y-93154394D01*
X135700000Y-93052661D01*
X135700000Y-93046448D01*
X136379474Y-93725922D01*
X136379474Y-93725921D01*
X136411859Y-93681349D01*
X136504755Y-93499031D01*
X136567990Y-93304417D01*
X136600000Y-93102317D01*
X136600000Y-92897682D01*
X136567990Y-92695582D01*
X136504755Y-92500968D01*
X136411859Y-92318650D01*
X136379474Y-92274077D01*
X136379474Y-92274076D01*
X135700000Y-92953551D01*
X135700000Y-92947339D01*
X135672741Y-92845606D01*
X135620080Y-92754394D01*
X135545606Y-92679920D01*
X135454394Y-92627259D01*
X135352661Y-92600000D01*
X135346446Y-92600000D01*
X136025922Y-91920524D01*
X136025921Y-91920523D01*
X135981359Y-91888147D01*
X135981350Y-91888141D01*
X135799031Y-91795244D01*
X135604417Y-91732009D01*
X135402317Y-91700000D01*
X135197683Y-91700000D01*
X134995582Y-91732009D01*
X134800968Y-91795244D01*
X134618644Y-91888143D01*
X134574077Y-91920523D01*
X134574077Y-91920524D01*
X135253554Y-92600000D01*
X135247339Y-92600000D01*
X135145606Y-92627259D01*
X135054394Y-92679920D01*
X134979920Y-92754394D01*
X134927259Y-92845606D01*
X134900000Y-92947339D01*
X134900000Y-92953553D01*
X134220524Y-92274077D01*
X134182719Y-92277053D01*
X134114341Y-92262689D01*
X134064584Y-92213638D01*
X134062110Y-92208949D01*
X134058101Y-92200942D01*
X134034814Y-92130666D01*
X133942712Y-91981344D01*
X133818656Y-91857288D01*
X133669334Y-91765186D01*
X133535495Y-91720836D01*
X133478051Y-91681063D01*
X133451228Y-91616547D01*
X133450500Y-91603130D01*
X133450500Y-89878711D01*
X149649500Y-89878711D01*
X149649500Y-90121288D01*
X149681161Y-90361785D01*
X149743947Y-90596104D01*
X149836773Y-90820205D01*
X149836776Y-90820212D01*
X149958064Y-91030289D01*
X149958066Y-91030292D01*
X149958067Y-91030293D01*
X150105733Y-91222736D01*
X150105739Y-91222743D01*
X150277256Y-91394260D01*
X150277262Y-91394265D01*
X150469711Y-91541936D01*
X150679788Y-91663224D01*
X150903900Y-91756054D01*
X151138211Y-91818838D01*
X151318586Y-91842584D01*
X151378711Y-91850500D01*
X151378712Y-91850500D01*
X151621289Y-91850500D01*
X151669388Y-91844167D01*
X151861789Y-91818838D01*
X152096100Y-91756054D01*
X152320212Y-91663224D01*
X152530289Y-91541936D01*
X152722738Y-91394265D01*
X152894265Y-91222738D01*
X153041936Y-91030289D01*
X153163224Y-90820212D01*
X153256054Y-90596100D01*
X153318838Y-90361789D01*
X153350500Y-90121288D01*
X153350500Y-89878712D01*
X153318838Y-89638211D01*
X153256054Y-89403900D01*
X153163224Y-89179788D01*
X153041936Y-88969711D01*
X152894265Y-88777262D01*
X152894260Y-88777256D01*
X152722743Y-88605739D01*
X152722736Y-88605733D01*
X152530293Y-88458067D01*
X152530292Y-88458066D01*
X152530289Y-88458064D01*
X152320212Y-88336776D01*
X152320205Y-88336773D01*
X152096104Y-88243947D01*
X151861785Y-88181161D01*
X151621289Y-88149500D01*
X151621288Y-88149500D01*
X151378712Y-88149500D01*
X151378711Y-88149500D01*
X151138214Y-88181161D01*
X150903895Y-88243947D01*
X150679794Y-88336773D01*
X150679785Y-88336777D01*
X150469706Y-88458067D01*
X150277263Y-88605733D01*
X150277256Y-88605739D01*
X150105739Y-88777256D01*
X150105733Y-88777263D01*
X149958067Y-88969706D01*
X149836777Y-89179785D01*
X149836773Y-89179794D01*
X149743947Y-89403895D01*
X149681161Y-89638214D01*
X149649500Y-89878711D01*
X133450500Y-89878711D01*
X133450500Y-88093753D01*
X141710000Y-88093753D01*
X141710000Y-88306246D01*
X141743242Y-88516127D01*
X141743242Y-88516130D01*
X141808904Y-88718217D01*
X141905375Y-88907550D01*
X141944728Y-88961716D01*
X142577037Y-88329408D01*
X142594075Y-88392993D01*
X142659901Y-88507007D01*
X142752993Y-88600099D01*
X142867007Y-88665925D01*
X142930590Y-88682962D01*
X142298282Y-89315269D01*
X142298282Y-89315270D01*
X142352449Y-89354624D01*
X142541782Y-89451095D01*
X142743870Y-89516757D01*
X142953754Y-89550000D01*
X143166246Y-89550000D01*
X143376127Y-89516757D01*
X143376130Y-89516757D01*
X143578217Y-89451095D01*
X143767554Y-89354622D01*
X143821716Y-89315270D01*
X143821717Y-89315270D01*
X143189408Y-88682962D01*
X143252993Y-88665925D01*
X143367007Y-88600099D01*
X143460099Y-88507007D01*
X143525925Y-88392993D01*
X143542962Y-88329408D01*
X144213181Y-88999628D01*
X144246666Y-89060951D01*
X144249500Y-89087300D01*
X144249500Y-89097865D01*
X144249501Y-89097876D01*
X144255908Y-89157483D01*
X144306202Y-89292328D01*
X144306206Y-89292335D01*
X144392452Y-89407544D01*
X144392455Y-89407547D01*
X144507664Y-89493793D01*
X144507671Y-89493797D01*
X144642517Y-89544091D01*
X144642516Y-89544091D01*
X144649444Y-89544835D01*
X144702127Y-89550500D01*
X146497872Y-89550499D01*
X146557483Y-89544091D01*
X146692331Y-89493796D01*
X146807546Y-89407546D01*
X146893796Y-89292331D01*
X146944091Y-89157483D01*
X146950500Y-89097873D01*
X146950499Y-87302128D01*
X146944091Y-87242517D01*
X146893796Y-87107669D01*
X146893795Y-87107668D01*
X146893793Y-87107664D01*
X146807547Y-86992455D01*
X146807544Y-86992452D01*
X146692335Y-86906206D01*
X146692328Y-86906202D01*
X146557482Y-86855908D01*
X146557483Y-86855908D01*
X146497883Y-86849501D01*
X146497881Y-86849500D01*
X146497873Y-86849500D01*
X146497864Y-86849500D01*
X144702129Y-86849500D01*
X144702123Y-86849501D01*
X144642516Y-86855908D01*
X144507671Y-86906202D01*
X144507664Y-86906206D01*
X144392455Y-86992452D01*
X144392452Y-86992455D01*
X144306206Y-87107664D01*
X144306202Y-87107671D01*
X144255908Y-87242517D01*
X144249501Y-87302116D01*
X144249501Y-87302123D01*
X144249500Y-87302135D01*
X144249500Y-87312690D01*
X144229815Y-87379729D01*
X144213181Y-87400371D01*
X143542962Y-88070590D01*
X143525925Y-88007007D01*
X143460099Y-87892993D01*
X143367007Y-87799901D01*
X143252993Y-87734075D01*
X143189409Y-87717037D01*
X143821716Y-87084728D01*
X143767550Y-87045375D01*
X143578217Y-86948904D01*
X143376129Y-86883242D01*
X143166246Y-86850000D01*
X142953754Y-86850000D01*
X142743872Y-86883242D01*
X142743869Y-86883242D01*
X142541782Y-86948904D01*
X142352439Y-87045380D01*
X142298282Y-87084727D01*
X142298282Y-87084728D01*
X142930591Y-87717037D01*
X142867007Y-87734075D01*
X142752993Y-87799901D01*
X142659901Y-87892993D01*
X142594075Y-88007007D01*
X142577037Y-88070591D01*
X141944728Y-87438282D01*
X141944727Y-87438282D01*
X141905380Y-87492439D01*
X141808904Y-87681782D01*
X141743242Y-87883869D01*
X141743242Y-87883872D01*
X141710000Y-88093753D01*
X133450500Y-88093753D01*
X133450500Y-85205513D01*
X135099500Y-85205513D01*
X135099500Y-85394486D01*
X135129059Y-85581118D01*
X135187454Y-85760836D01*
X135260500Y-85904195D01*
X135273240Y-85929199D01*
X135384310Y-86082073D01*
X135517927Y-86215690D01*
X135670801Y-86326760D01*
X135750347Y-86367290D01*
X135839163Y-86412545D01*
X135839165Y-86412545D01*
X135839168Y-86412547D01*
X135935497Y-86443846D01*
X136018881Y-86470940D01*
X136205514Y-86500500D01*
X136205519Y-86500500D01*
X136394486Y-86500500D01*
X136581118Y-86470940D01*
X136760832Y-86412547D01*
X136929199Y-86326760D01*
X137082073Y-86215690D01*
X137215690Y-86082073D01*
X137326760Y-85929199D01*
X137412547Y-85760832D01*
X137470940Y-85581118D01*
X137500500Y-85394486D01*
X137500500Y-85205513D01*
X142719500Y-85205513D01*
X142719500Y-85394486D01*
X142749059Y-85581118D01*
X142807454Y-85760836D01*
X142880500Y-85904195D01*
X142893240Y-85929199D01*
X143004310Y-86082073D01*
X143137927Y-86215690D01*
X143290801Y-86326760D01*
X143370347Y-86367290D01*
X143459163Y-86412545D01*
X143459165Y-86412545D01*
X143459168Y-86412547D01*
X143555497Y-86443846D01*
X143638881Y-86470940D01*
X143825514Y-86500500D01*
X143825519Y-86500500D01*
X144014486Y-86500500D01*
X144201118Y-86470940D01*
X144380832Y-86412547D01*
X144549199Y-86326760D01*
X144702073Y-86215690D01*
X144835690Y-86082073D01*
X144946760Y-85929199D01*
X145032547Y-85760832D01*
X145090940Y-85581118D01*
X145120500Y-85394486D01*
X145120500Y-85205513D01*
X145090940Y-85018881D01*
X145032545Y-84839163D01*
X144987290Y-84750347D01*
X144946760Y-84670801D01*
X144835690Y-84517927D01*
X144702073Y-84384310D01*
X144549199Y-84273240D01*
X144380836Y-84187454D01*
X144201118Y-84129059D01*
X144014486Y-84099500D01*
X144014481Y-84099500D01*
X143825519Y-84099500D01*
X143825514Y-84099500D01*
X143638881Y-84129059D01*
X143459163Y-84187454D01*
X143290800Y-84273240D01*
X143203579Y-84336610D01*
X143137927Y-84384310D01*
X143137925Y-84384312D01*
X143137924Y-84384312D01*
X143004312Y-84517924D01*
X143004312Y-84517925D01*
X143004310Y-84517927D01*
X142956610Y-84583579D01*
X142893240Y-84670800D01*
X142807454Y-84839163D01*
X142749059Y-85018881D01*
X142719500Y-85205513D01*
X137500500Y-85205513D01*
X137470940Y-85018881D01*
X137412545Y-84839163D01*
X137367290Y-84750347D01*
X137326760Y-84670801D01*
X137215690Y-84517927D01*
X137082073Y-84384310D01*
X136929199Y-84273240D01*
X136760836Y-84187454D01*
X136581118Y-84129059D01*
X136394486Y-84099500D01*
X136394481Y-84099500D01*
X136205519Y-84099500D01*
X136205514Y-84099500D01*
X136018881Y-84129059D01*
X135839163Y-84187454D01*
X135670800Y-84273240D01*
X135583579Y-84336610D01*
X135517927Y-84384310D01*
X135517925Y-84384312D01*
X135517924Y-84384312D01*
X135384312Y-84517924D01*
X135384312Y-84517925D01*
X135384310Y-84517927D01*
X135336610Y-84583579D01*
X135273240Y-84670800D01*
X135187454Y-84839163D01*
X135129059Y-85018881D01*
X135099500Y-85205513D01*
X133450500Y-85205513D01*
X133450500Y-75864500D01*
X133470185Y-75797461D01*
X133522989Y-75751706D01*
X133574500Y-75740500D01*
X137161929Y-75740500D01*
X137228968Y-75760185D01*
X137262245Y-75791613D01*
X137320743Y-75872128D01*
X137368034Y-75937219D01*
X137512786Y-76081971D01*
X137661224Y-76189815D01*
X137678390Y-76202287D01*
X137752043Y-76239815D01*
X137771080Y-76249515D01*
X137821876Y-76297490D01*
X137838671Y-76365311D01*
X137816134Y-76431446D01*
X137771080Y-76470485D01*
X137678386Y-76517715D01*
X137512786Y-76638028D01*
X137368028Y-76782786D01*
X137247715Y-76948386D01*
X137154781Y-77130776D01*
X137091522Y-77325465D01*
X137059500Y-77527648D01*
X137059500Y-77732351D01*
X137091522Y-77934534D01*
X137154781Y-78129223D01*
X137247715Y-78311613D01*
X137368028Y-78477213D01*
X137512786Y-78621971D01*
X137667749Y-78734556D01*
X137678390Y-78742287D01*
X137769840Y-78788883D01*
X137771080Y-78789515D01*
X137821876Y-78837490D01*
X137838671Y-78905311D01*
X137816134Y-78971446D01*
X137771080Y-79010485D01*
X137678386Y-79057715D01*
X137512786Y-79178028D01*
X137368028Y-79322786D01*
X137247715Y-79488386D01*
X137154781Y-79670776D01*
X137091522Y-79865465D01*
X137059500Y-80067648D01*
X137059500Y-80272351D01*
X137091522Y-80474534D01*
X137154781Y-80669223D01*
X137247715Y-80851613D01*
X137368028Y-81017213D01*
X137512786Y-81161971D01*
X137667749Y-81274556D01*
X137678390Y-81282287D01*
X137769840Y-81328883D01*
X137771080Y-81329515D01*
X137821876Y-81377490D01*
X137838671Y-81445311D01*
X137816134Y-81511446D01*
X137771080Y-81550485D01*
X137678386Y-81597715D01*
X137512786Y-81718028D01*
X137368028Y-81862786D01*
X137247715Y-82028386D01*
X137154781Y-82210776D01*
X137091522Y-82405465D01*
X137059500Y-82607648D01*
X137059500Y-82812351D01*
X137091522Y-83014534D01*
X137154781Y-83209223D01*
X137247715Y-83391613D01*
X137368028Y-83557213D01*
X137512786Y-83701971D01*
X137667749Y-83814556D01*
X137678390Y-83822287D01*
X137794607Y-83881503D01*
X137860776Y-83915218D01*
X137860778Y-83915218D01*
X137860781Y-83915220D01*
X137965137Y-83949127D01*
X138055465Y-83978477D01*
X138156557Y-83994488D01*
X138257648Y-84010500D01*
X138257649Y-84010500D01*
X139262351Y-84010500D01*
X139262352Y-84010500D01*
X139464534Y-83978477D01*
X139659219Y-83915220D01*
X139841610Y-83822287D01*
X139934590Y-83754732D01*
X140007213Y-83701971D01*
X140007215Y-83701968D01*
X140007219Y-83701966D01*
X140151966Y-83557219D01*
X140151968Y-83557215D01*
X140151971Y-83557213D01*
X140204732Y-83484590D01*
X140272287Y-83391610D01*
X140365220Y-83209219D01*
X140428477Y-83014534D01*
X140460500Y-82812352D01*
X140460500Y-82607648D01*
X140448380Y-82531129D01*
X140428477Y-82405465D01*
X140365218Y-82210776D01*
X140272419Y-82028650D01*
X140272287Y-82028390D01*
X140251553Y-81999852D01*
X140151971Y-81862786D01*
X140007217Y-81718032D01*
X139975059Y-81694668D01*
X139843679Y-81599216D01*
X142519500Y-81599216D01*
X142519500Y-81800783D01*
X142551030Y-81999852D01*
X142613312Y-82191539D01*
X142623213Y-82210970D01*
X142704818Y-82371129D01*
X142823289Y-82534190D01*
X142965810Y-82676711D01*
X143128871Y-82795182D01*
X143308458Y-82886686D01*
X143308460Y-82886687D01*
X143404303Y-82917828D01*
X143500149Y-82948970D01*
X143592348Y-82963572D01*
X143699217Y-82980500D01*
X143699222Y-82980500D01*
X143900783Y-82980500D01*
X143997289Y-82965214D01*
X144099851Y-82948970D01*
X144291542Y-82886686D01*
X144471129Y-82795182D01*
X144634190Y-82676711D01*
X144776711Y-82534190D01*
X144895182Y-82371129D01*
X144986686Y-82191542D01*
X145048970Y-81999851D01*
X145065214Y-81897289D01*
X145080500Y-81800783D01*
X145080500Y-81599216D01*
X145055523Y-81441523D01*
X145048970Y-81400149D01*
X145017828Y-81304303D01*
X144986687Y-81208460D01*
X144895181Y-81028870D01*
X144892958Y-81025810D01*
X144776711Y-80865810D01*
X144634190Y-80723289D01*
X144471129Y-80604818D01*
X144421440Y-80579500D01*
X144291539Y-80513312D01*
X144099852Y-80451030D01*
X143900783Y-80419500D01*
X143900778Y-80419500D01*
X143699222Y-80419500D01*
X143699217Y-80419500D01*
X143500147Y-80451030D01*
X143308460Y-80513312D01*
X143128870Y-80604818D01*
X143040231Y-80669219D01*
X142965810Y-80723289D01*
X142965808Y-80723291D01*
X142965807Y-80723291D01*
X142823291Y-80865807D01*
X142823291Y-80865808D01*
X142823289Y-80865810D01*
X142772410Y-80935838D01*
X142704818Y-81028870D01*
X142613312Y-81208460D01*
X142551030Y-81400147D01*
X142519500Y-81599216D01*
X139843679Y-81599216D01*
X139841609Y-81597712D01*
X139795546Y-81574242D01*
X139748917Y-81550483D01*
X139698123Y-81502511D01*
X139681328Y-81434690D01*
X139703865Y-81368555D01*
X139748917Y-81329516D01*
X139841610Y-81282287D01*
X139943228Y-81208458D01*
X140007213Y-81161971D01*
X140007215Y-81161968D01*
X140007219Y-81161966D01*
X140151966Y-81017219D01*
X140151968Y-81017215D01*
X140151971Y-81017213D01*
X140204732Y-80944590D01*
X140272287Y-80851610D01*
X140365220Y-80669219D01*
X140428477Y-80474534D01*
X140460500Y-80272352D01*
X140460500Y-80067648D01*
X140428477Y-79865466D01*
X140365220Y-79670781D01*
X140365218Y-79670778D01*
X140365218Y-79670776D01*
X140331503Y-79604607D01*
X140272287Y-79488390D01*
X140264556Y-79477749D01*
X140151971Y-79322786D01*
X140007213Y-79178028D01*
X139841614Y-79057715D01*
X139835006Y-79054348D01*
X139748917Y-79010483D01*
X139698123Y-78962511D01*
X139681328Y-78894690D01*
X139703865Y-78828555D01*
X139748917Y-78789516D01*
X139841610Y-78742287D01*
X139862770Y-78726913D01*
X140007213Y-78621971D01*
X140007215Y-78621968D01*
X140007219Y-78621966D01*
X140151966Y-78477219D01*
X140151968Y-78477215D01*
X140151971Y-78477213D01*
X140204732Y-78404590D01*
X140272287Y-78311610D01*
X140365220Y-78129219D01*
X140385702Y-78066179D01*
X140425136Y-78008507D01*
X140489494Y-77981308D01*
X140503614Y-77980499D01*
X142127872Y-77980499D01*
X142187483Y-77974091D01*
X142322331Y-77923796D01*
X142437546Y-77837546D01*
X142523796Y-77722331D01*
X142541613Y-77674562D01*
X142541614Y-77674560D01*
X142574090Y-77587485D01*
X142574091Y-77587483D01*
X142575798Y-77571602D01*
X142580500Y-77527873D01*
X142580499Y-76599262D01*
X145020000Y-76599262D01*
X145020000Y-76800737D01*
X145051518Y-76999735D01*
X145113775Y-77191346D01*
X145113776Y-77191349D01*
X145205248Y-77370869D01*
X145234842Y-77411602D01*
X145234843Y-77411603D01*
X145817037Y-76829409D01*
X145834075Y-76892993D01*
X145899901Y-77007007D01*
X145992993Y-77100099D01*
X146107007Y-77165925D01*
X146170590Y-77182962D01*
X145588395Y-77765155D01*
X145629133Y-77794753D01*
X145808650Y-77886223D01*
X145808653Y-77886224D01*
X146000264Y-77948481D01*
X146199263Y-77980000D01*
X146400737Y-77980000D01*
X146599735Y-77948481D01*
X146791346Y-77886224D01*
X146791349Y-77886223D01*
X146970866Y-77794753D01*
X147011602Y-77765156D01*
X147011602Y-77765155D01*
X146429409Y-77182962D01*
X146492993Y-77165925D01*
X146607007Y-77100099D01*
X146700099Y-77007007D01*
X146765925Y-76892993D01*
X146782962Y-76829409D01*
X147365155Y-77411602D01*
X147365156Y-77411602D01*
X147394753Y-77370866D01*
X147486223Y-77191349D01*
X147486224Y-77191346D01*
X147548481Y-76999735D01*
X147580000Y-76800737D01*
X147580000Y-76599262D01*
X147548481Y-76400264D01*
X147486224Y-76208653D01*
X147486223Y-76208650D01*
X147394753Y-76029133D01*
X147365155Y-75988396D01*
X147365155Y-75988395D01*
X146782962Y-76570589D01*
X146765925Y-76507007D01*
X146700099Y-76392993D01*
X146607007Y-76299901D01*
X146492993Y-76234075D01*
X146429408Y-76217037D01*
X147011603Y-75634843D01*
X147011602Y-75634842D01*
X146970869Y-75605248D01*
X146791349Y-75513776D01*
X146791346Y-75513775D01*
X146599735Y-75451518D01*
X146400737Y-75420000D01*
X146199263Y-75420000D01*
X146000264Y-75451518D01*
X145808653Y-75513775D01*
X145808650Y-75513776D01*
X145629135Y-75605245D01*
X145629133Y-75605246D01*
X145588396Y-75634842D01*
X145588396Y-75634843D01*
X146170591Y-76217037D01*
X146107007Y-76234075D01*
X145992993Y-76299901D01*
X145899901Y-76392993D01*
X145834075Y-76507007D01*
X145817037Y-76570590D01*
X145234843Y-75988396D01*
X145234842Y-75988396D01*
X145205246Y-76029133D01*
X145205245Y-76029135D01*
X145113776Y-76208650D01*
X145113775Y-76208653D01*
X145051518Y-76400264D01*
X145020000Y-76599262D01*
X142580499Y-76599262D01*
X142580499Y-75872128D01*
X142574091Y-75812517D01*
X142574091Y-75812516D01*
X142541612Y-75725435D01*
X142523797Y-75677671D01*
X142523793Y-75677664D01*
X142437547Y-75562455D01*
X142437544Y-75562452D01*
X142322335Y-75476206D01*
X142322328Y-75476202D01*
X142187482Y-75425908D01*
X142187483Y-75425908D01*
X142127883Y-75419501D01*
X142127881Y-75419500D01*
X142127873Y-75419500D01*
X142127865Y-75419500D01*
X140990808Y-75419500D01*
X140923769Y-75399815D01*
X140903127Y-75383181D01*
X140480126Y-74960180D01*
X140446641Y-74898857D01*
X140445334Y-74891897D01*
X140428477Y-74785466D01*
X140365220Y-74590781D01*
X140343317Y-74547795D01*
X140330422Y-74479129D01*
X140356698Y-74414389D01*
X140366113Y-74403831D01*
X143916609Y-70853335D01*
X143922722Y-70849997D01*
X143926711Y-70844282D01*
X143952993Y-70833468D01*
X143977930Y-70819852D01*
X143984880Y-70820349D01*
X143991326Y-70817697D01*
X144019280Y-70822809D01*
X144047622Y-70824836D01*
X144054852Y-70829314D01*
X144060056Y-70830266D01*
X144081989Y-70846122D01*
X144088999Y-70850464D01*
X144090502Y-70851870D01*
X144181344Y-70942712D01*
X144199738Y-70954057D01*
X144208794Y-70962529D01*
X144220500Y-70982366D01*
X144235902Y-70999488D01*
X144237919Y-71011883D01*
X144244304Y-71022702D01*
X144243427Y-71045719D01*
X144247127Y-71068450D01*
X144242122Y-71079969D01*
X144241644Y-71092521D01*
X144228463Y-71111409D01*
X144219286Y-71132533D01*
X144205206Y-71144736D01*
X144201660Y-71149819D01*
X144197249Y-71151633D01*
X144196557Y-71152233D01*
X144197011Y-71152807D01*
X144191343Y-71157288D01*
X144067289Y-71281342D01*
X143975187Y-71430663D01*
X143975185Y-71430668D01*
X143962454Y-71469089D01*
X143920001Y-71597203D01*
X143920001Y-71597204D01*
X143920000Y-71597204D01*
X143909500Y-71699983D01*
X143909500Y-72900001D01*
X143909501Y-72900018D01*
X143920000Y-73002796D01*
X143920001Y-73002799D01*
X143962458Y-73130925D01*
X143975186Y-73169334D01*
X144067288Y-73318656D01*
X144191344Y-73442712D01*
X144340666Y-73534814D01*
X144507203Y-73589999D01*
X144609991Y-73600500D01*
X145810008Y-73600499D01*
X145912797Y-73589999D01*
X146079334Y-73534814D01*
X146228656Y-73442712D01*
X146352712Y-73318656D01*
X146444814Y-73169334D01*
X146499999Y-73002797D01*
X146510500Y-72900009D01*
X146510499Y-72300000D01*
X146510499Y-71699998D01*
X146510498Y-71699981D01*
X146499999Y-71597203D01*
X146499998Y-71597200D01*
X146487939Y-71560808D01*
X146444814Y-71430666D01*
X146352712Y-71281344D01*
X146228656Y-71157288D01*
X146223050Y-71153830D01*
X146220816Y-71152452D01*
X146174093Y-71100502D01*
X146162873Y-71031539D01*
X146190718Y-70967458D01*
X146213445Y-70947770D01*
X146212989Y-70947193D01*
X146218650Y-70942715D01*
X146218656Y-70942712D01*
X146342712Y-70818656D01*
X146434814Y-70669334D01*
X146479164Y-70535494D01*
X146518936Y-70478051D01*
X146583451Y-70451228D01*
X146596869Y-70450500D01*
X147740501Y-70450500D01*
X147807540Y-70470185D01*
X147853295Y-70522989D01*
X147864501Y-70574500D01*
X147864501Y-71022876D01*
X147870908Y-71082483D01*
X147921202Y-71217328D01*
X147921206Y-71217335D01*
X148007452Y-71332544D01*
X148007455Y-71332547D01*
X148122664Y-71418793D01*
X148122671Y-71418797D01*
X148167618Y-71435561D01*
X148257517Y-71469091D01*
X148317127Y-71475500D01*
X148327685Y-71475499D01*
X148394723Y-71495179D01*
X148415372Y-71511818D01*
X149085591Y-72182037D01*
X149022007Y-72199075D01*
X148907993Y-72264901D01*
X148814901Y-72357993D01*
X148749075Y-72472007D01*
X148732037Y-72535591D01*
X148099728Y-71903282D01*
X148099727Y-71903282D01*
X148060380Y-71957439D01*
X147963904Y-72146782D01*
X147898242Y-72348869D01*
X147898242Y-72348872D01*
X147865000Y-72558753D01*
X147865000Y-72771246D01*
X147898242Y-72981127D01*
X147898242Y-72981130D01*
X147963904Y-73183217D01*
X148060375Y-73372550D01*
X148099728Y-73426716D01*
X148732037Y-72794408D01*
X148749075Y-72857993D01*
X148814901Y-72972007D01*
X148907993Y-73065099D01*
X149022007Y-73130925D01*
X149085590Y-73147962D01*
X148453282Y-73780269D01*
X148453282Y-73780270D01*
X148507449Y-73819624D01*
X148696782Y-73916095D01*
X148898870Y-73981757D01*
X149108754Y-74015000D01*
X149321246Y-74015000D01*
X149531127Y-73981757D01*
X149531130Y-73981757D01*
X149733217Y-73916095D01*
X149922554Y-73819622D01*
X149976716Y-73780270D01*
X149976717Y-73780270D01*
X149344408Y-73147962D01*
X149407993Y-73130925D01*
X149522007Y-73065099D01*
X149615099Y-72972007D01*
X149680925Y-72857993D01*
X149697962Y-72794409D01*
X150330270Y-73426717D01*
X150330270Y-73426716D01*
X150369622Y-73372554D01*
X150466095Y-73183217D01*
X150531757Y-72981130D01*
X150531757Y-72981127D01*
X150565000Y-72771246D01*
X150565000Y-72558753D01*
X150531757Y-72348872D01*
X150531757Y-72348869D01*
X150466095Y-72146782D01*
X150369624Y-71957449D01*
X150330270Y-71903282D01*
X150330269Y-71903282D01*
X149697962Y-72535590D01*
X149680925Y-72472007D01*
X149615099Y-72357993D01*
X149522007Y-72264901D01*
X149407993Y-72199075D01*
X149344409Y-72182037D01*
X150014627Y-71511818D01*
X150075950Y-71478333D01*
X150102307Y-71475499D01*
X150112872Y-71475499D01*
X150172483Y-71469091D01*
X150307331Y-71418796D01*
X150422546Y-71332546D01*
X150508796Y-71217331D01*
X150559091Y-71082483D01*
X150565500Y-71022873D01*
X150565499Y-69227128D01*
X150559091Y-69167517D01*
X150558644Y-69166319D01*
X150508797Y-69032671D01*
X150508793Y-69032664D01*
X150422547Y-68917455D01*
X150422544Y-68917452D01*
X150307335Y-68831206D01*
X150307328Y-68831202D01*
X150172482Y-68780908D01*
X150172483Y-68780908D01*
X150112883Y-68774501D01*
X150112881Y-68774500D01*
X150112873Y-68774500D01*
X150112864Y-68774500D01*
X148317129Y-68774500D01*
X148317123Y-68774501D01*
X148257516Y-68780908D01*
X148122671Y-68831202D01*
X148122664Y-68831206D01*
X148007455Y-68917452D01*
X148007452Y-68917455D01*
X147921206Y-69032664D01*
X147921203Y-69032669D01*
X147907715Y-69068834D01*
X147865843Y-69124767D01*
X147800379Y-69149184D01*
X147791533Y-69149500D01*
X146596870Y-69149500D01*
X146529831Y-69129815D01*
X146484076Y-69077011D01*
X146479164Y-69064505D01*
X146468615Y-69032671D01*
X146434814Y-68930666D01*
X146342712Y-68781344D01*
X146218656Y-68657288D01*
X146069334Y-68565186D01*
X146007220Y-68544603D01*
X145949777Y-68504831D01*
X145922954Y-68440315D01*
X145935269Y-68371539D01*
X145958539Y-68339223D01*
X146015690Y-68282073D01*
X146126760Y-68129199D01*
X146212547Y-67960832D01*
X146270940Y-67781118D01*
X146300500Y-67594486D01*
X146300500Y-67405513D01*
X146270940Y-67218881D01*
X146212545Y-67039163D01*
X146126759Y-66870800D01*
X146015690Y-66717927D01*
X145882073Y-66584310D01*
X145729199Y-66473240D01*
X145560836Y-66387454D01*
X145381118Y-66329059D01*
X145194486Y-66299500D01*
X145194481Y-66299500D01*
X145005519Y-66299500D01*
X145005514Y-66299500D01*
X144818881Y-66329059D01*
X144639163Y-66387454D01*
X144470800Y-66473240D01*
X144383579Y-66536610D01*
X144317927Y-66584310D01*
X144317925Y-66584312D01*
X144317924Y-66584312D01*
X144184312Y-66717924D01*
X144184312Y-66717925D01*
X144184310Y-66717927D01*
X144136610Y-66783579D01*
X144073240Y-66870800D01*
X143987454Y-67039163D01*
X143929059Y-67218881D01*
X143899500Y-67405513D01*
X143899500Y-67594486D01*
X143929059Y-67781118D01*
X143987454Y-67960836D01*
X144073240Y-68129199D01*
X144184310Y-68282073D01*
X144184312Y-68282075D01*
X144304359Y-68402122D01*
X144337844Y-68463445D01*
X144332860Y-68533137D01*
X144290988Y-68589070D01*
X144281775Y-68595342D01*
X144181342Y-68657289D01*
X144057289Y-68781342D01*
X143965187Y-68930663D01*
X143965186Y-68930666D01*
X143931386Y-69032669D01*
X143907872Y-69103629D01*
X143906920Y-69103313D01*
X143906720Y-69108926D01*
X143890538Y-69132232D01*
X143877025Y-69157170D01*
X143869915Y-69161937D01*
X143866873Y-69166319D01*
X143836520Y-69184330D01*
X143807030Y-69196545D01*
X143798711Y-69199992D01*
X143741877Y-69223533D01*
X143741869Y-69223537D01*
X143635326Y-69294726D01*
X143635325Y-69294727D01*
X139176873Y-73753181D01*
X139115550Y-73786666D01*
X139089192Y-73789500D01*
X138257648Y-73789500D01*
X138233329Y-73793351D01*
X138055465Y-73821522D01*
X137860776Y-73884781D01*
X137678386Y-73977715D01*
X137512786Y-74098028D01*
X137368034Y-74242780D01*
X137341580Y-74279192D01*
X137262246Y-74388386D01*
X137206918Y-74431051D01*
X137161929Y-74439500D01*
X133110808Y-74439500D01*
X133081367Y-74430855D01*
X133051381Y-74424332D01*
X133046365Y-74420577D01*
X133043769Y-74419815D01*
X133023127Y-74403181D01*
X132986819Y-74366873D01*
X132953334Y-74305550D01*
X132950500Y-74279192D01*
X132950500Y-67405513D01*
X136279500Y-67405513D01*
X136279500Y-67594486D01*
X136309059Y-67781118D01*
X136367454Y-67960836D01*
X136453240Y-68129199D01*
X136564310Y-68282073D01*
X136697927Y-68415690D01*
X136847285Y-68524206D01*
X136889950Y-68579535D01*
X136895929Y-68649149D01*
X136863323Y-68710944D01*
X136847285Y-68724841D01*
X136732782Y-68808032D01*
X136588028Y-68952786D01*
X136467715Y-69118386D01*
X136374781Y-69300776D01*
X136311522Y-69495465D01*
X136279500Y-69697648D01*
X136279500Y-69902351D01*
X136311522Y-70104534D01*
X136374781Y-70299223D01*
X136467715Y-70481613D01*
X136588028Y-70647213D01*
X136732786Y-70791971D01*
X136898388Y-70912286D01*
X136898390Y-70912287D01*
X136957377Y-70942342D01*
X137008173Y-70990316D01*
X137024969Y-71058136D01*
X137002432Y-71124272D01*
X136957379Y-71163311D01*
X136908648Y-71188141D01*
X136908645Y-71188143D01*
X136864077Y-71220523D01*
X136864077Y-71220524D01*
X137543554Y-71900000D01*
X137537339Y-71900000D01*
X137435606Y-71927259D01*
X137344394Y-71979920D01*
X137269920Y-72054394D01*
X137217259Y-72145606D01*
X137190000Y-72247339D01*
X137190000Y-72253553D01*
X136510524Y-71574077D01*
X136510523Y-71574077D01*
X136478143Y-71618644D01*
X136385244Y-71800968D01*
X136322009Y-71995582D01*
X136290000Y-72197682D01*
X136290000Y-72402317D01*
X136322009Y-72604417D01*
X136385244Y-72799031D01*
X136478141Y-72981350D01*
X136478147Y-72981359D01*
X136510523Y-73025921D01*
X136510524Y-73025922D01*
X137190000Y-72346446D01*
X137190000Y-72352661D01*
X137217259Y-72454394D01*
X137269920Y-72545606D01*
X137344394Y-72620080D01*
X137435606Y-72672741D01*
X137537339Y-72700000D01*
X137543553Y-72700000D01*
X136864076Y-73379474D01*
X136908650Y-73411859D01*
X137090968Y-73504755D01*
X137285582Y-73567990D01*
X137487683Y-73600000D01*
X137692317Y-73600000D01*
X137894417Y-73567990D01*
X138089031Y-73504755D01*
X138271349Y-73411859D01*
X138315921Y-73379474D01*
X137636447Y-72700000D01*
X137642661Y-72700000D01*
X137744394Y-72672741D01*
X137835606Y-72620080D01*
X137910080Y-72545606D01*
X137962741Y-72454394D01*
X137990000Y-72352661D01*
X137990000Y-72346447D01*
X138669474Y-73025921D01*
X138701859Y-72981349D01*
X138794755Y-72799031D01*
X138857990Y-72604417D01*
X138890000Y-72402317D01*
X138890000Y-72197682D01*
X138857990Y-71995582D01*
X138794755Y-71800968D01*
X138701859Y-71618650D01*
X138669474Y-71574077D01*
X138669474Y-71574076D01*
X137990000Y-72253551D01*
X137990000Y-72247339D01*
X137962741Y-72145606D01*
X137910080Y-72054394D01*
X137835606Y-71979920D01*
X137744394Y-71927259D01*
X137642661Y-71900000D01*
X137636446Y-71900000D01*
X138315922Y-71220524D01*
X138315921Y-71220523D01*
X138271359Y-71188147D01*
X138271350Y-71188141D01*
X138212621Y-71158217D01*
X138161825Y-71110242D01*
X138145030Y-71042421D01*
X138167568Y-70976286D01*
X138212619Y-70937248D01*
X138261610Y-70912287D01*
X138282770Y-70896913D01*
X138427213Y-70791971D01*
X138427215Y-70791968D01*
X138427219Y-70791966D01*
X138571966Y-70647219D01*
X138571968Y-70647215D01*
X138571971Y-70647213D01*
X138635199Y-70560185D01*
X138692287Y-70481610D01*
X138785220Y-70299219D01*
X138848477Y-70104534D01*
X138880500Y-69902352D01*
X138880500Y-69697648D01*
X138848477Y-69495465D01*
X138785218Y-69300776D01*
X138733865Y-69199991D01*
X138692287Y-69118390D01*
X138653138Y-69064505D01*
X138571971Y-68952786D01*
X138427213Y-68808028D01*
X138261611Y-68687713D01*
X138222104Y-68667583D01*
X138171309Y-68619609D01*
X138154514Y-68551788D01*
X138177052Y-68485653D01*
X138205511Y-68456784D01*
X138262073Y-68415690D01*
X138395690Y-68282073D01*
X138506760Y-68129199D01*
X138592547Y-67960832D01*
X138650940Y-67781118D01*
X138680500Y-67594486D01*
X138680500Y-67405513D01*
X138650940Y-67218881D01*
X138592545Y-67039163D01*
X138506759Y-66870800D01*
X138395690Y-66717927D01*
X138262073Y-66584310D01*
X138109199Y-66473240D01*
X137940836Y-66387454D01*
X137761118Y-66329059D01*
X137574486Y-66299500D01*
X137574481Y-66299500D01*
X137385519Y-66299500D01*
X137385514Y-66299500D01*
X137198881Y-66329059D01*
X137019163Y-66387454D01*
X136850800Y-66473240D01*
X136763579Y-66536610D01*
X136697927Y-66584310D01*
X136697925Y-66584312D01*
X136697924Y-66584312D01*
X136564312Y-66717924D01*
X136564312Y-66717925D01*
X136564310Y-66717927D01*
X136516610Y-66783579D01*
X136453240Y-66870800D01*
X136367454Y-67039163D01*
X136309059Y-67218881D01*
X136279500Y-67405513D01*
X132950500Y-67405513D01*
X132950500Y-64498070D01*
X132970185Y-64431031D01*
X133001613Y-64397753D01*
X133133585Y-64301871D01*
X133147215Y-64291969D01*
X133147215Y-64291968D01*
X133147219Y-64291966D01*
X133291966Y-64147219D01*
X133291968Y-64147215D01*
X133291971Y-64147213D01*
X133412286Y-63981611D01*
X133412415Y-63981359D01*
X133439795Y-63927621D01*
X133487769Y-63876826D01*
X133555589Y-63860030D01*
X133621725Y-63882567D01*
X133660765Y-63927621D01*
X133688141Y-63981350D01*
X133688147Y-63981359D01*
X133720523Y-64025921D01*
X133720524Y-64025922D01*
X134400000Y-63346446D01*
X134400000Y-63352661D01*
X134427259Y-63454394D01*
X134479920Y-63545606D01*
X134554394Y-63620080D01*
X134645606Y-63672741D01*
X134747339Y-63700000D01*
X134753553Y-63700000D01*
X134074076Y-64379474D01*
X134118650Y-64411859D01*
X134300968Y-64504755D01*
X134495582Y-64567990D01*
X134697683Y-64600000D01*
X134902317Y-64600000D01*
X135104417Y-64567990D01*
X135299031Y-64504755D01*
X135481349Y-64411859D01*
X135525921Y-64379474D01*
X134846447Y-63700000D01*
X134852661Y-63700000D01*
X134954394Y-63672741D01*
X135045606Y-63620080D01*
X135120080Y-63545606D01*
X135172741Y-63454394D01*
X135200000Y-63352661D01*
X135200000Y-63346447D01*
X135879474Y-64025921D01*
X135911859Y-63981349D01*
X136004755Y-63799031D01*
X136036239Y-63702135D01*
X140309500Y-63702135D01*
X140309500Y-65497870D01*
X140309501Y-65497876D01*
X140315908Y-65557483D01*
X140366202Y-65692328D01*
X140366206Y-65692335D01*
X140452452Y-65807544D01*
X140452455Y-65807547D01*
X140567664Y-65893793D01*
X140567671Y-65893797D01*
X140702517Y-65944091D01*
X140702516Y-65944091D01*
X140709444Y-65944835D01*
X140762127Y-65950500D01*
X142557872Y-65950499D01*
X142617483Y-65944091D01*
X142752331Y-65893796D01*
X142867546Y-65807546D01*
X142953796Y-65692331D01*
X143004091Y-65557483D01*
X143010500Y-65497873D01*
X143010499Y-65473979D01*
X143013330Y-65460963D01*
X143023940Y-65441525D01*
X143030179Y-65420275D01*
X143046803Y-65399643D01*
X143046808Y-65399636D01*
X143046811Y-65399634D01*
X143046818Y-65399626D01*
X143717037Y-64729408D01*
X143734075Y-64792993D01*
X143799901Y-64907007D01*
X143892993Y-65000099D01*
X144007007Y-65065925D01*
X144070590Y-65082962D01*
X143438282Y-65715269D01*
X143438282Y-65715270D01*
X143492449Y-65754624D01*
X143681782Y-65851095D01*
X143883870Y-65916757D01*
X144093754Y-65950000D01*
X144306246Y-65950000D01*
X144516127Y-65916757D01*
X144516130Y-65916757D01*
X144718217Y-65851095D01*
X144907554Y-65754622D01*
X144961716Y-65715270D01*
X144961717Y-65715270D01*
X144329408Y-65082962D01*
X144392993Y-65065925D01*
X144507007Y-65000099D01*
X144600099Y-64907007D01*
X144665925Y-64792993D01*
X144682962Y-64729408D01*
X145315270Y-65361717D01*
X145315270Y-65361716D01*
X145354622Y-65307554D01*
X145451095Y-65118217D01*
X145516757Y-64916130D01*
X145516757Y-64916127D01*
X145550000Y-64706246D01*
X145550000Y-64493753D01*
X145516757Y-64283872D01*
X145516757Y-64283869D01*
X145451095Y-64081782D01*
X145374241Y-63930948D01*
X145374240Y-63930946D01*
X145354626Y-63892452D01*
X145344643Y-63878711D01*
X149649500Y-63878711D01*
X149649500Y-64121288D01*
X149681161Y-64361785D01*
X149743947Y-64596104D01*
X149836773Y-64820205D01*
X149836776Y-64820212D01*
X149958064Y-65030289D01*
X149958066Y-65030292D01*
X149958067Y-65030293D01*
X150105733Y-65222736D01*
X150105739Y-65222743D01*
X150277256Y-65394260D01*
X150277263Y-65394266D01*
X150345619Y-65446717D01*
X150469711Y-65541936D01*
X150679788Y-65663224D01*
X150903900Y-65756054D01*
X151138211Y-65818838D01*
X151296084Y-65839622D01*
X151378711Y-65850500D01*
X151378712Y-65850500D01*
X151621289Y-65850500D01*
X151669388Y-65844167D01*
X151861789Y-65818838D01*
X152096100Y-65756054D01*
X152320212Y-65663224D01*
X152530289Y-65541936D01*
X152722738Y-65394265D01*
X152894265Y-65222738D01*
X153041936Y-65030289D01*
X153163224Y-64820212D01*
X153256054Y-64596100D01*
X153318838Y-64361789D01*
X153350500Y-64121288D01*
X153350500Y-63878712D01*
X153318838Y-63638211D01*
X153256054Y-63403900D01*
X153163224Y-63179788D01*
X153041936Y-62969711D01*
X152894265Y-62777262D01*
X152894260Y-62777256D01*
X152722743Y-62605739D01*
X152722736Y-62605733D01*
X152530293Y-62458067D01*
X152530292Y-62458066D01*
X152530289Y-62458064D01*
X152320212Y-62336776D01*
X152250823Y-62308034D01*
X152096104Y-62243947D01*
X151861785Y-62181161D01*
X151621289Y-62149500D01*
X151621288Y-62149500D01*
X151378712Y-62149500D01*
X151378711Y-62149500D01*
X151138214Y-62181161D01*
X150903895Y-62243947D01*
X150679794Y-62336773D01*
X150679785Y-62336777D01*
X150497851Y-62441817D01*
X150478862Y-62452781D01*
X150469706Y-62458067D01*
X150277263Y-62605733D01*
X150277256Y-62605739D01*
X150105739Y-62777256D01*
X150105733Y-62777263D01*
X149958067Y-62969706D01*
X149836777Y-63179785D01*
X149836773Y-63179794D01*
X149743947Y-63403895D01*
X149681161Y-63638214D01*
X149649500Y-63878711D01*
X145344643Y-63878711D01*
X145315270Y-63838282D01*
X145315269Y-63838282D01*
X144682962Y-64470590D01*
X144665925Y-64407007D01*
X144600099Y-64292993D01*
X144507007Y-64199901D01*
X144392993Y-64134075D01*
X144329409Y-64117037D01*
X144961716Y-63484728D01*
X144907550Y-63445375D01*
X144718217Y-63348904D01*
X144516129Y-63283242D01*
X144306246Y-63250000D01*
X144093754Y-63250000D01*
X143883872Y-63283242D01*
X143883869Y-63283242D01*
X143681782Y-63348904D01*
X143492439Y-63445380D01*
X143438282Y-63484727D01*
X143438282Y-63484728D01*
X144070591Y-64117037D01*
X144007007Y-64134075D01*
X143892993Y-64199901D01*
X143799901Y-64292993D01*
X143734075Y-64407007D01*
X143717037Y-64470591D01*
X143046818Y-63800372D01*
X143013333Y-63739049D01*
X143013330Y-63739036D01*
X143010499Y-63726015D01*
X143010499Y-63702128D01*
X143004091Y-63642517D01*
X142962265Y-63530375D01*
X142953798Y-63507673D01*
X142953793Y-63507664D01*
X142867547Y-63392455D01*
X142867544Y-63392452D01*
X142752335Y-63306206D01*
X142752328Y-63306202D01*
X142617482Y-63255908D01*
X142617483Y-63255908D01*
X142557883Y-63249501D01*
X142557881Y-63249500D01*
X142557873Y-63249500D01*
X142557864Y-63249500D01*
X140762129Y-63249500D01*
X140762123Y-63249501D01*
X140702516Y-63255908D01*
X140567671Y-63306202D01*
X140567664Y-63306206D01*
X140452455Y-63392452D01*
X140452452Y-63392455D01*
X140366206Y-63507664D01*
X140366202Y-63507671D01*
X140315908Y-63642517D01*
X140309501Y-63702116D01*
X140309500Y-63702135D01*
X136036239Y-63702135D01*
X136049772Y-63660487D01*
X136049772Y-63660486D01*
X136067989Y-63604421D01*
X136067989Y-63604418D01*
X136100000Y-63402317D01*
X136100000Y-63197682D01*
X136067990Y-62995582D01*
X136004755Y-62800968D01*
X135911859Y-62618650D01*
X135879474Y-62574077D01*
X135879474Y-62574076D01*
X135200000Y-63253551D01*
X135200000Y-63247339D01*
X135172741Y-63145606D01*
X135120080Y-63054394D01*
X135045606Y-62979920D01*
X134954394Y-62927259D01*
X134852661Y-62900000D01*
X134846446Y-62900000D01*
X135525922Y-62220524D01*
X135525921Y-62220523D01*
X135481359Y-62188147D01*
X135481350Y-62188141D01*
X135299031Y-62095244D01*
X135104417Y-62032009D01*
X134902317Y-62000000D01*
X134697683Y-62000000D01*
X134495582Y-62032009D01*
X134300968Y-62095244D01*
X134118644Y-62188143D01*
X134074077Y-62220523D01*
X134074077Y-62220524D01*
X134753554Y-62900000D01*
X134747339Y-62900000D01*
X134645606Y-62927259D01*
X134554394Y-62979920D01*
X134479920Y-63054394D01*
X134427259Y-63145606D01*
X134400000Y-63247339D01*
X134400000Y-63253553D01*
X133720524Y-62574077D01*
X133720523Y-62574077D01*
X133688143Y-62618644D01*
X133660765Y-62672378D01*
X133612790Y-62723174D01*
X133544969Y-62739969D01*
X133478834Y-62717431D01*
X133439795Y-62672378D01*
X133412284Y-62618385D01*
X133291971Y-62452786D01*
X133147213Y-62308028D01*
X132981613Y-62187715D01*
X132981612Y-62187714D01*
X132981610Y-62187713D01*
X132906613Y-62149500D01*
X132799223Y-62094781D01*
X132604534Y-62031522D01*
X132429995Y-62003878D01*
X132402352Y-61999500D01*
X132197648Y-61999500D01*
X132173329Y-62003351D01*
X131995465Y-62031522D01*
X131800776Y-62094781D01*
X131618386Y-62187715D01*
X131452786Y-62308028D01*
X131308028Y-62452786D01*
X131187715Y-62618386D01*
X131094781Y-62800776D01*
X131031522Y-62995465D01*
X131002329Y-63179785D01*
X130999500Y-63197648D01*
X130999500Y-63402352D01*
X130999745Y-63403900D01*
X131031522Y-63604534D01*
X131094781Y-63799223D01*
X131157993Y-63923282D01*
X131187585Y-63981359D01*
X131187715Y-63981613D01*
X131308028Y-64147213D01*
X131452784Y-64291969D01*
X131507121Y-64331446D01*
X131598385Y-64397753D01*
X131641051Y-64453081D01*
X131649500Y-64498070D01*
X131649500Y-72925500D01*
X131629815Y-72992539D01*
X131577011Y-73038294D01*
X131525500Y-73049500D01*
X131079485Y-73049500D01*
X131012446Y-73029815D01*
X130966691Y-72977011D01*
X130956747Y-72907853D01*
X130969000Y-72869206D01*
X131004754Y-72799034D01*
X131067990Y-72604417D01*
X131100000Y-72402317D01*
X131100000Y-72197682D01*
X131067990Y-71995582D01*
X131004755Y-71800968D01*
X130911859Y-71618650D01*
X130879474Y-71574077D01*
X130879474Y-71574076D01*
X130200000Y-72253551D01*
X130200000Y-72247339D01*
X130172741Y-72145606D01*
X130120080Y-72054394D01*
X130045606Y-71979920D01*
X129954394Y-71927259D01*
X129852661Y-71900000D01*
X129846446Y-71900000D01*
X130525922Y-71220524D01*
X130525921Y-71220523D01*
X130481359Y-71188147D01*
X130481350Y-71188141D01*
X130427621Y-71160765D01*
X130376825Y-71112791D01*
X130360030Y-71044970D01*
X130382567Y-70978835D01*
X130427621Y-70939795D01*
X130481610Y-70912287D01*
X130531144Y-70876298D01*
X130647213Y-70791971D01*
X130647215Y-70791968D01*
X130647219Y-70791966D01*
X130791966Y-70647219D01*
X130791968Y-70647215D01*
X130791971Y-70647213D01*
X130855199Y-70560185D01*
X130912287Y-70481610D01*
X131005220Y-70299219D01*
X131068477Y-70104534D01*
X131100500Y-69902352D01*
X131100500Y-69697648D01*
X131068477Y-69495465D01*
X131005218Y-69300776D01*
X130953865Y-69199991D01*
X130912287Y-69118390D01*
X130873138Y-69064505D01*
X130791971Y-68952786D01*
X130647217Y-68808032D01*
X130647212Y-68808028D01*
X130482714Y-68688514D01*
X130440048Y-68633185D01*
X130434069Y-68563571D01*
X130466674Y-68501776D01*
X130482707Y-68487883D01*
X130582073Y-68415690D01*
X130715690Y-68282073D01*
X130826760Y-68129199D01*
X130912547Y-67960832D01*
X130970940Y-67781118D01*
X131000500Y-67594486D01*
X131000500Y-67405513D01*
X130970940Y-67218881D01*
X130912545Y-67039163D01*
X130826759Y-66870800D01*
X130715690Y-66717927D01*
X130582073Y-66584310D01*
X130429199Y-66473240D01*
X130260836Y-66387454D01*
X130081118Y-66329059D01*
X129894486Y-66299500D01*
X129894481Y-66299500D01*
X129705519Y-66299500D01*
X129705514Y-66299500D01*
X129518881Y-66329059D01*
X129339163Y-66387454D01*
X129170800Y-66473240D01*
X129083579Y-66536610D01*
X129017927Y-66584310D01*
X129017925Y-66584312D01*
X129017924Y-66584312D01*
X128884312Y-66717924D01*
X128884312Y-66717925D01*
X128884310Y-66717927D01*
X128836610Y-66783579D01*
X128773240Y-66870800D01*
X128687454Y-67039163D01*
X128629059Y-67218881D01*
X128599500Y-67405513D01*
X128599500Y-67594486D01*
X128629059Y-67781118D01*
X128687454Y-67960836D01*
X128773240Y-68129199D01*
X128884310Y-68282073D01*
X129017927Y-68415690D01*
X129117285Y-68487878D01*
X129159951Y-68543208D01*
X129165930Y-68612821D01*
X129133324Y-68674616D01*
X129117285Y-68688514D01*
X128952787Y-68808028D01*
X128952782Y-68808032D01*
X128808028Y-68952786D01*
X128687715Y-69118386D01*
X128594781Y-69300776D01*
X128531522Y-69495465D01*
X128499500Y-69697648D01*
X128499500Y-69902351D01*
X128531522Y-70104534D01*
X128594781Y-70299223D01*
X128687715Y-70481613D01*
X128808028Y-70647213D01*
X128952786Y-70791971D01*
X129118385Y-70912284D01*
X129118387Y-70912285D01*
X129118390Y-70912287D01*
X129172378Y-70939795D01*
X129223174Y-70987769D01*
X129239969Y-71055590D01*
X129217432Y-71121725D01*
X129172378Y-71160765D01*
X129118644Y-71188143D01*
X129074077Y-71220523D01*
X129074077Y-71220524D01*
X129753554Y-71900000D01*
X129747339Y-71900000D01*
X129645606Y-71927259D01*
X129554394Y-71979920D01*
X129479920Y-72054394D01*
X129427259Y-72145606D01*
X129400000Y-72247339D01*
X129400000Y-72253553D01*
X128720524Y-71574077D01*
X128720523Y-71574077D01*
X128688143Y-71618644D01*
X128595244Y-71800968D01*
X128532009Y-71995582D01*
X128500000Y-72197682D01*
X128500000Y-72402317D01*
X128532009Y-72604417D01*
X128595245Y-72799034D01*
X128631000Y-72869206D01*
X128643896Y-72937875D01*
X128617619Y-73002615D01*
X128560513Y-73042872D01*
X128520515Y-73049500D01*
X126014500Y-73049500D01*
X125947461Y-73029815D01*
X125901706Y-72977011D01*
X125890500Y-72925500D01*
X125890500Y-71175928D01*
X125865502Y-71050261D01*
X125865501Y-71050260D01*
X125865501Y-71050256D01*
X125863622Y-71045719D01*
X125820955Y-70942711D01*
X125820953Y-70942708D01*
X125816466Y-70931874D01*
X125750714Y-70833468D01*
X125745278Y-70825332D01*
X125745272Y-70825325D01*
X124214673Y-69294726D01*
X124214669Y-69294723D01*
X124108127Y-69223535D01*
X124108122Y-69223533D01*
X123989744Y-69174499D01*
X123989738Y-69174497D01*
X123864071Y-69149500D01*
X123864069Y-69149500D01*
X123576870Y-69149500D01*
X123509831Y-69129815D01*
X123464076Y-69077011D01*
X123459164Y-69064505D01*
X123448615Y-69032671D01*
X123414814Y-68930666D01*
X123322712Y-68781344D01*
X123198656Y-68657288D01*
X123049334Y-68565186D01*
X123049332Y-68565185D01*
X123049330Y-68565184D01*
X123048371Y-68564737D01*
X123047822Y-68564254D01*
X123043187Y-68561395D01*
X123043675Y-68560603D01*
X122995930Y-68518567D01*
X122976775Y-68451374D01*
X122996988Y-68384492D01*
X123013081Y-68364681D01*
X123095690Y-68282073D01*
X123206760Y-68129199D01*
X123292547Y-67960832D01*
X123350940Y-67781118D01*
X123380500Y-67594486D01*
X123380500Y-67405513D01*
X123350940Y-67218881D01*
X123292545Y-67039163D01*
X123206759Y-66870800D01*
X123095690Y-66717927D01*
X122962073Y-66584310D01*
X122809199Y-66473240D01*
X122640836Y-66387454D01*
X122461118Y-66329059D01*
X122274486Y-66299500D01*
X122274481Y-66299500D01*
X122085519Y-66299500D01*
X122085514Y-66299500D01*
X121898881Y-66329059D01*
X121719163Y-66387454D01*
X121550800Y-66473240D01*
X121463579Y-66536610D01*
X121397927Y-66584310D01*
X121397925Y-66584312D01*
X121397924Y-66584312D01*
X121264312Y-66717924D01*
X121264312Y-66717925D01*
X121264310Y-66717927D01*
X121216610Y-66783579D01*
X121153240Y-66870800D01*
X121067454Y-67039163D01*
X121009059Y-67218881D01*
X120979500Y-67405513D01*
X120979500Y-67594486D01*
X121009059Y-67781118D01*
X121067454Y-67960836D01*
X121153240Y-68129199D01*
X121264310Y-68282073D01*
X121264312Y-68282075D01*
X121346909Y-68364672D01*
X121380394Y-68425995D01*
X121375410Y-68495687D01*
X121333538Y-68551620D01*
X121311634Y-68564735D01*
X121310666Y-68565186D01*
X121161342Y-68657289D01*
X121037289Y-68781342D01*
X120945187Y-68930663D01*
X120945186Y-68930666D01*
X120890001Y-69097203D01*
X120890001Y-69097204D01*
X120890000Y-69097204D01*
X120879500Y-69199983D01*
X120879500Y-70400001D01*
X120879501Y-70400018D01*
X120890000Y-70502796D01*
X120890001Y-70502799D01*
X120931739Y-70628753D01*
X120945186Y-70669334D01*
X121036696Y-70817697D01*
X121037289Y-70818657D01*
X121161346Y-70942714D01*
X121164182Y-70944463D01*
X121165717Y-70946170D01*
X121167011Y-70947193D01*
X121166836Y-70947414D01*
X121210905Y-70996411D01*
X121222126Y-71065374D01*
X121194282Y-71129456D01*
X121164182Y-71155537D01*
X121161346Y-71157285D01*
X121037289Y-71281342D01*
X120945187Y-71430663D01*
X120945185Y-71430668D01*
X120932454Y-71469089D01*
X120890001Y-71597203D01*
X120890001Y-71597204D01*
X120890000Y-71597204D01*
X120879500Y-71699983D01*
X120879500Y-72900001D01*
X120879501Y-72900018D01*
X120890000Y-73002796D01*
X120890001Y-73002799D01*
X120932458Y-73130925D01*
X120945186Y-73169334D01*
X121037288Y-73318656D01*
X121161344Y-73442712D01*
X121310666Y-73534814D01*
X121477203Y-73589999D01*
X121579991Y-73600500D01*
X122780008Y-73600499D01*
X122882797Y-73589999D01*
X123049334Y-73534814D01*
X123198656Y-73442712D01*
X123322712Y-73318656D01*
X123414814Y-73169334D01*
X123469999Y-73002797D01*
X123480500Y-72900009D01*
X123480499Y-71699992D01*
X123469999Y-71597203D01*
X123414814Y-71430666D01*
X123322712Y-71281344D01*
X123198656Y-71157288D01*
X123195819Y-71155538D01*
X123194283Y-71153830D01*
X123192989Y-71152807D01*
X123193163Y-71152585D01*
X123149096Y-71103594D01*
X123137872Y-71034632D01*
X123165713Y-70970549D01*
X123195817Y-70944462D01*
X123198656Y-70942712D01*
X123322712Y-70818656D01*
X123414814Y-70669334D01*
X123434852Y-70608860D01*
X123474625Y-70551417D01*
X123539140Y-70524594D01*
X123607916Y-70536909D01*
X123640239Y-70560185D01*
X124553181Y-71473127D01*
X124586666Y-71534450D01*
X124589500Y-71560808D01*
X124589500Y-75239192D01*
X124569815Y-75306231D01*
X124553181Y-75326873D01*
X123706873Y-76173181D01*
X123645550Y-76206666D01*
X123619192Y-76209500D01*
X122504499Y-76209500D01*
X122437460Y-76189815D01*
X122391705Y-76137011D01*
X122380499Y-76085500D01*
X122380499Y-76032129D01*
X122380498Y-76032123D01*
X122380497Y-76032116D01*
X122374091Y-75972517D01*
X122336648Y-75872128D01*
X122323797Y-75837671D01*
X122323793Y-75837664D01*
X122237547Y-75722455D01*
X122237544Y-75722452D01*
X122122335Y-75636206D01*
X122122328Y-75636202D01*
X121987482Y-75585908D01*
X121987483Y-75585908D01*
X121927883Y-75579501D01*
X121927881Y-75579500D01*
X121927873Y-75579500D01*
X121927864Y-75579500D01*
X120272129Y-75579500D01*
X120272123Y-75579501D01*
X120212516Y-75585908D01*
X120077671Y-75636202D01*
X120077664Y-75636206D01*
X119962455Y-75722452D01*
X119962452Y-75722455D01*
X119876206Y-75837664D01*
X119876202Y-75837671D01*
X119825908Y-75972517D01*
X119819501Y-76032116D01*
X119819501Y-76032123D01*
X119819500Y-76032135D01*
X119819500Y-76135500D01*
X119816949Y-76144185D01*
X119818238Y-76153147D01*
X119807259Y-76177187D01*
X119799815Y-76202539D01*
X119792974Y-76208466D01*
X119789213Y-76216703D01*
X119766978Y-76230992D01*
X119747011Y-76248294D01*
X119736496Y-76250581D01*
X119730435Y-76254477D01*
X119695500Y-76259500D01*
X119660097Y-76259500D01*
X119593058Y-76239815D01*
X119572416Y-76223181D01*
X118521819Y-75172584D01*
X118488334Y-75111261D01*
X118485500Y-75084903D01*
X118485500Y-74749499D01*
X118505185Y-74682460D01*
X118557989Y-74636705D01*
X118609500Y-74625499D01*
X118782871Y-74625499D01*
X118782872Y-74625499D01*
X118842483Y-74619091D01*
X118977331Y-74568796D01*
X119092546Y-74482546D01*
X119178796Y-74367331D01*
X119229091Y-74232483D01*
X119235500Y-74172873D01*
X119235499Y-72377128D01*
X119229091Y-72317517D01*
X119222557Y-72299999D01*
X119178797Y-72182671D01*
X119178793Y-72182664D01*
X119092547Y-72067455D01*
X119092544Y-72067452D01*
X118977335Y-71981206D01*
X118977328Y-71981202D01*
X118842482Y-71930908D01*
X118842483Y-71930908D01*
X118782883Y-71924501D01*
X118782881Y-71924500D01*
X118782873Y-71924500D01*
X118782865Y-71924500D01*
X118772309Y-71924500D01*
X118705270Y-71904815D01*
X118684628Y-71888181D01*
X118014408Y-71217962D01*
X118077993Y-71200925D01*
X118192007Y-71135099D01*
X118285099Y-71042007D01*
X118350925Y-70927993D01*
X118367962Y-70864408D01*
X119000270Y-71496717D01*
X119000270Y-71496716D01*
X119039622Y-71442554D01*
X119136095Y-71253217D01*
X119201757Y-71051130D01*
X119201757Y-71051127D01*
X119235000Y-70841246D01*
X119235000Y-70628753D01*
X119201757Y-70418872D01*
X119201757Y-70418869D01*
X119136095Y-70216782D01*
X119039624Y-70027449D01*
X119000270Y-69973282D01*
X119000269Y-69973282D01*
X118367962Y-70605590D01*
X118350925Y-70542007D01*
X118285099Y-70427993D01*
X118192007Y-70334901D01*
X118077993Y-70269075D01*
X118014409Y-70252037D01*
X118646716Y-69619728D01*
X118592550Y-69580375D01*
X118403217Y-69483904D01*
X118201129Y-69418242D01*
X117991246Y-69385000D01*
X117778754Y-69385000D01*
X117568872Y-69418242D01*
X117568869Y-69418242D01*
X117366782Y-69483904D01*
X117177439Y-69580380D01*
X117123282Y-69619727D01*
X117123282Y-69619728D01*
X117755591Y-70252037D01*
X117692007Y-70269075D01*
X117577993Y-70334901D01*
X117484901Y-70427993D01*
X117419075Y-70542007D01*
X117402037Y-70605591D01*
X116769728Y-69973282D01*
X116769727Y-69973282D01*
X116730380Y-70027439D01*
X116633904Y-70216782D01*
X116568242Y-70418869D01*
X116568242Y-70418872D01*
X116535000Y-70628753D01*
X116535000Y-70841246D01*
X116568242Y-71051127D01*
X116568242Y-71051130D01*
X116633904Y-71253217D01*
X116730375Y-71442550D01*
X116769728Y-71496716D01*
X117402037Y-70864408D01*
X117419075Y-70927993D01*
X117484901Y-71042007D01*
X117577993Y-71135099D01*
X117692007Y-71200925D01*
X117755590Y-71217962D01*
X117085370Y-71888181D01*
X117024047Y-71921666D01*
X116997698Y-71924500D01*
X116987134Y-71924500D01*
X116987123Y-71924501D01*
X116927516Y-71930908D01*
X116792671Y-71981202D01*
X116792664Y-71981206D01*
X116677455Y-72067452D01*
X116677452Y-72067455D01*
X116591206Y-72182664D01*
X116591202Y-72182671D01*
X116540908Y-72317517D01*
X116537130Y-72352661D01*
X116534501Y-72377123D01*
X116534500Y-72377135D01*
X113000500Y-72377135D01*
X113000500Y-63878711D01*
X114149500Y-63878711D01*
X114149500Y-64121288D01*
X114181161Y-64361785D01*
X114243947Y-64596104D01*
X114336773Y-64820205D01*
X114336776Y-64820212D01*
X114458064Y-65030289D01*
X114458066Y-65030292D01*
X114458067Y-65030293D01*
X114605733Y-65222736D01*
X114605739Y-65222743D01*
X114777256Y-65394260D01*
X114777263Y-65394266D01*
X114845619Y-65446717D01*
X114969711Y-65541936D01*
X115179788Y-65663224D01*
X115403900Y-65756054D01*
X115638211Y-65818838D01*
X115796084Y-65839622D01*
X115878711Y-65850500D01*
X115878712Y-65850500D01*
X116121289Y-65850500D01*
X116169388Y-65844167D01*
X116361789Y-65818838D01*
X116596100Y-65756054D01*
X116820212Y-65663224D01*
X117030289Y-65541936D01*
X117222738Y-65394265D01*
X117394265Y-65222738D01*
X117541936Y-65030289D01*
X117663224Y-64820212D01*
X117756054Y-64596100D01*
X117818838Y-64361789D01*
X117850500Y-64121288D01*
X117850500Y-63878712D01*
X117838444Y-63787135D01*
X121674500Y-63787135D01*
X121674500Y-65582870D01*
X121674501Y-65582876D01*
X121680908Y-65642483D01*
X121731202Y-65777328D01*
X121731206Y-65777335D01*
X121817452Y-65892544D01*
X121817455Y-65892547D01*
X121932664Y-65978793D01*
X121932671Y-65978797D01*
X122067517Y-66029091D01*
X122067516Y-66029091D01*
X122074444Y-66029835D01*
X122127127Y-66035500D01*
X123922872Y-66035499D01*
X123982483Y-66029091D01*
X124117331Y-65978796D01*
X124232546Y-65892546D01*
X124318796Y-65777331D01*
X124369091Y-65642483D01*
X124375500Y-65582873D01*
X124375499Y-65558979D01*
X124378330Y-65545963D01*
X124388940Y-65526525D01*
X124395179Y-65505275D01*
X124411803Y-65484643D01*
X124411808Y-65484636D01*
X124411811Y-65484634D01*
X124411818Y-65484626D01*
X125082037Y-64814408D01*
X125099075Y-64877993D01*
X125164901Y-64992007D01*
X125257993Y-65085099D01*
X125372007Y-65150925D01*
X125435590Y-65167962D01*
X124803282Y-65800269D01*
X124803282Y-65800270D01*
X124857449Y-65839624D01*
X125046782Y-65936095D01*
X125248870Y-66001757D01*
X125458754Y-66035000D01*
X125671246Y-66035000D01*
X125881127Y-66001757D01*
X125881130Y-66001757D01*
X126083217Y-65936095D01*
X126272554Y-65839622D01*
X126326716Y-65800270D01*
X126326717Y-65800270D01*
X125694408Y-65167962D01*
X125757993Y-65150925D01*
X125872007Y-65085099D01*
X125965099Y-64992007D01*
X126030925Y-64877993D01*
X126047962Y-64814409D01*
X126680270Y-65446717D01*
X126680270Y-65446716D01*
X126719622Y-65392554D01*
X126816095Y-65203217D01*
X126881757Y-65001130D01*
X126881757Y-65001127D01*
X126915000Y-64791246D01*
X126915000Y-64578753D01*
X126881757Y-64368872D01*
X126881757Y-64368869D01*
X126816095Y-64166782D01*
X126719624Y-63977449D01*
X126680270Y-63923282D01*
X126680269Y-63923282D01*
X126047962Y-64555590D01*
X126030925Y-64492007D01*
X125965099Y-64377993D01*
X125872007Y-64284901D01*
X125757993Y-64219075D01*
X125694409Y-64202037D01*
X126326716Y-63569728D01*
X126272550Y-63530375D01*
X126083217Y-63433904D01*
X125881129Y-63368242D01*
X125671246Y-63335000D01*
X125458754Y-63335000D01*
X125248872Y-63368242D01*
X125248869Y-63368242D01*
X125046782Y-63433904D01*
X124857439Y-63530380D01*
X124803282Y-63569727D01*
X124803282Y-63569728D01*
X125435591Y-64202037D01*
X125372007Y-64219075D01*
X125257993Y-64284901D01*
X125164901Y-64377993D01*
X125099075Y-64492007D01*
X125082037Y-64555591D01*
X124411818Y-63885372D01*
X124378333Y-63824049D01*
X124378330Y-63824036D01*
X124375499Y-63811015D01*
X124375499Y-63787128D01*
X124369091Y-63727517D01*
X124329020Y-63620080D01*
X124318798Y-63592673D01*
X124318793Y-63592664D01*
X124232547Y-63477455D01*
X124232544Y-63477452D01*
X124117335Y-63391206D01*
X124117328Y-63391202D01*
X123982482Y-63340908D01*
X123982483Y-63340908D01*
X123922883Y-63334501D01*
X123922881Y-63334500D01*
X123922873Y-63334500D01*
X123922864Y-63334500D01*
X122127129Y-63334500D01*
X122127123Y-63334501D01*
X122067516Y-63340908D01*
X121932671Y-63391202D01*
X121932664Y-63391206D01*
X121817455Y-63477452D01*
X121817452Y-63477455D01*
X121731206Y-63592664D01*
X121731202Y-63592671D01*
X121680908Y-63727517D01*
X121674501Y-63787116D01*
X121674500Y-63787135D01*
X117838444Y-63787135D01*
X117818838Y-63638211D01*
X117756054Y-63403900D01*
X117663224Y-63179788D01*
X117541936Y-62969711D01*
X117394265Y-62777262D01*
X117394260Y-62777256D01*
X117222743Y-62605739D01*
X117222736Y-62605733D01*
X117030293Y-62458067D01*
X117030292Y-62458066D01*
X117030289Y-62458064D01*
X116820212Y-62336776D01*
X116750823Y-62308034D01*
X116596104Y-62243947D01*
X116361785Y-62181161D01*
X116121289Y-62149500D01*
X116121288Y-62149500D01*
X115878712Y-62149500D01*
X115878711Y-62149500D01*
X115638214Y-62181161D01*
X115403895Y-62243947D01*
X115179794Y-62336773D01*
X115179785Y-62336777D01*
X114997851Y-62441817D01*
X114978862Y-62452781D01*
X114969706Y-62458067D01*
X114777263Y-62605733D01*
X114777256Y-62605739D01*
X114605739Y-62777256D01*
X114605733Y-62777263D01*
X114458067Y-62969706D01*
X114336777Y-63179785D01*
X114336773Y-63179794D01*
X114243947Y-63403895D01*
X114181161Y-63638214D01*
X114149500Y-63878711D01*
X113000500Y-63878711D01*
X113000500Y-58424500D01*
X113020185Y-58357461D01*
X113072989Y-58311706D01*
X113124500Y-58300500D01*
X154375500Y-58300500D01*
X154442539Y-58320185D01*
G37*
%TD.AperFunction*%
%TD*%
M02*
