%TF.GenerationSoftware,KiCad,Pcbnew,10.0.1*%
%TF.CreationDate,2026-07-09T23:00:28+09:00*%
%TF.ProjectId,PSCE-MI_Raspberry_PICO,50534345-2d4d-4495-9f52-617370626572,rev?*%
%TF.SameCoordinates,Original*%
%TF.FileFunction,AssemblyDrawing,Top*%
%FSLAX46Y46*%
G04 Gerber Fmt 4.6, Leading zero omitted, Abs format (unit mm)*
G04 Created by KiCad (PCBNEW 10.0.1) date 2026-07-09 23:00:28*
%MOMM*%
%LPD*%
G01*
G04 APERTURE LIST*
%ADD10C,0.150000*%
%ADD11C,0.114000*%
%ADD12C,0.100000*%
G04 APERTURE END LIST*
D10*
X167238095Y-93454819D02*
X167238095Y-92454819D01*
X167238095Y-92931009D02*
X167809523Y-92931009D01*
X167809523Y-93454819D02*
X167809523Y-92454819D01*
X168190476Y-92454819D02*
X168809523Y-92454819D01*
X168809523Y-92454819D02*
X168476190Y-92835771D01*
X168476190Y-92835771D02*
X168619047Y-92835771D01*
X168619047Y-92835771D02*
X168714285Y-92883390D01*
X168714285Y-92883390D02*
X168761904Y-92931009D01*
X168761904Y-92931009D02*
X168809523Y-93026247D01*
X168809523Y-93026247D02*
X168809523Y-93264342D01*
X168809523Y-93264342D02*
X168761904Y-93359580D01*
X168761904Y-93359580D02*
X168714285Y-93407200D01*
X168714285Y-93407200D02*
X168619047Y-93454819D01*
X168619047Y-93454819D02*
X168333333Y-93454819D01*
X168333333Y-93454819D02*
X168238095Y-93407200D01*
X168238095Y-93407200D02*
X168190476Y-93359580D01*
X167238095Y-150454819D02*
X167238095Y-149454819D01*
X167238095Y-149931009D02*
X167809523Y-149931009D01*
X167809523Y-150454819D02*
X167809523Y-149454819D01*
X168714285Y-149788152D02*
X168714285Y-150454819D01*
X168476190Y-149407200D02*
X168238095Y-150121485D01*
X168238095Y-150121485D02*
X168857142Y-150121485D01*
X112724819Y-122543333D02*
X113439104Y-122543333D01*
X113439104Y-122543333D02*
X113581961Y-122590952D01*
X113581961Y-122590952D02*
X113677200Y-122686190D01*
X113677200Y-122686190D02*
X113724819Y-122829047D01*
X113724819Y-122829047D02*
X113724819Y-122924285D01*
X112820057Y-122114761D02*
X112772438Y-122067142D01*
X112772438Y-122067142D02*
X112724819Y-121971904D01*
X112724819Y-121971904D02*
X112724819Y-121733809D01*
X112724819Y-121733809D02*
X112772438Y-121638571D01*
X112772438Y-121638571D02*
X112820057Y-121590952D01*
X112820057Y-121590952D02*
X112915295Y-121543333D01*
X112915295Y-121543333D02*
X113010533Y-121543333D01*
X113010533Y-121543333D02*
X113153390Y-121590952D01*
X113153390Y-121590952D02*
X113724819Y-122162380D01*
X113724819Y-122162380D02*
X113724819Y-121543333D01*
X112724819Y-145403333D02*
X113439104Y-145403333D01*
X113439104Y-145403333D02*
X113581961Y-145450952D01*
X113581961Y-145450952D02*
X113677200Y-145546190D01*
X113677200Y-145546190D02*
X113724819Y-145689047D01*
X113724819Y-145689047D02*
X113724819Y-145784285D01*
X112724819Y-145022380D02*
X112724819Y-144403333D01*
X112724819Y-144403333D02*
X113105771Y-144736666D01*
X113105771Y-144736666D02*
X113105771Y-144593809D01*
X113105771Y-144593809D02*
X113153390Y-144498571D01*
X113153390Y-144498571D02*
X113201009Y-144450952D01*
X113201009Y-144450952D02*
X113296247Y-144403333D01*
X113296247Y-144403333D02*
X113534342Y-144403333D01*
X113534342Y-144403333D02*
X113629580Y-144450952D01*
X113629580Y-144450952D02*
X113677200Y-144498571D01*
X113677200Y-144498571D02*
X113724819Y-144593809D01*
X113724819Y-144593809D02*
X113724819Y-144879523D01*
X113724819Y-144879523D02*
X113677200Y-144974761D01*
X113677200Y-144974761D02*
X113629580Y-145022380D01*
X158996666Y-116924819D02*
X158996666Y-117639104D01*
X158996666Y-117639104D02*
X158949047Y-117781961D01*
X158949047Y-117781961D02*
X158853809Y-117877200D01*
X158853809Y-117877200D02*
X158710952Y-117924819D01*
X158710952Y-117924819D02*
X158615714Y-117924819D01*
X159520476Y-117924819D02*
X159710952Y-117924819D01*
X159710952Y-117924819D02*
X159806190Y-117877200D01*
X159806190Y-117877200D02*
X159853809Y-117829580D01*
X159853809Y-117829580D02*
X159949047Y-117686723D01*
X159949047Y-117686723D02*
X159996666Y-117496247D01*
X159996666Y-117496247D02*
X159996666Y-117115295D01*
X159996666Y-117115295D02*
X159949047Y-117020057D01*
X159949047Y-117020057D02*
X159901428Y-116972438D01*
X159901428Y-116972438D02*
X159806190Y-116924819D01*
X159806190Y-116924819D02*
X159615714Y-116924819D01*
X159615714Y-116924819D02*
X159520476Y-116972438D01*
X159520476Y-116972438D02*
X159472857Y-117020057D01*
X159472857Y-117020057D02*
X159425238Y-117115295D01*
X159425238Y-117115295D02*
X159425238Y-117353390D01*
X159425238Y-117353390D02*
X159472857Y-117448628D01*
X159472857Y-117448628D02*
X159520476Y-117496247D01*
X159520476Y-117496247D02*
X159615714Y-117543866D01*
X159615714Y-117543866D02*
X159806190Y-117543866D01*
X159806190Y-117543866D02*
X159901428Y-117496247D01*
X159901428Y-117496247D02*
X159949047Y-117448628D01*
X159949047Y-117448628D02*
X159996666Y-117353390D01*
X112724819Y-99683333D02*
X113439104Y-99683333D01*
X113439104Y-99683333D02*
X113581961Y-99730952D01*
X113581961Y-99730952D02*
X113677200Y-99826190D01*
X113677200Y-99826190D02*
X113724819Y-99969047D01*
X113724819Y-99969047D02*
X113724819Y-100064285D01*
X113724819Y-98683333D02*
X113724819Y-99254761D01*
X113724819Y-98969047D02*
X112724819Y-98969047D01*
X112724819Y-98969047D02*
X112867676Y-99064285D01*
X112867676Y-99064285D02*
X112962914Y-99159523D01*
X112962914Y-99159523D02*
X113010533Y-99254761D01*
D11*
X163073281Y-105726666D02*
X163109472Y-105762857D01*
X163109472Y-105762857D02*
X163145662Y-105871428D01*
X163145662Y-105871428D02*
X163145662Y-105943809D01*
X163145662Y-105943809D02*
X163109472Y-106052381D01*
X163109472Y-106052381D02*
X163037091Y-106124762D01*
X163037091Y-106124762D02*
X162964710Y-106160952D01*
X162964710Y-106160952D02*
X162819948Y-106197143D01*
X162819948Y-106197143D02*
X162711376Y-106197143D01*
X162711376Y-106197143D02*
X162566614Y-106160952D01*
X162566614Y-106160952D02*
X162494233Y-106124762D01*
X162494233Y-106124762D02*
X162421852Y-106052381D01*
X162421852Y-106052381D02*
X162385662Y-105943809D01*
X162385662Y-105943809D02*
X162385662Y-105871428D01*
X162385662Y-105871428D02*
X162421852Y-105762857D01*
X162421852Y-105762857D02*
X162458043Y-105726666D01*
X162385662Y-105473333D02*
X162385662Y-105002857D01*
X162385662Y-105002857D02*
X162675186Y-105256190D01*
X162675186Y-105256190D02*
X162675186Y-105147619D01*
X162675186Y-105147619D02*
X162711376Y-105075238D01*
X162711376Y-105075238D02*
X162747567Y-105039047D01*
X162747567Y-105039047D02*
X162819948Y-105002857D01*
X162819948Y-105002857D02*
X163000900Y-105002857D01*
X163000900Y-105002857D02*
X163073281Y-105039047D01*
X163073281Y-105039047D02*
X163109472Y-105075238D01*
X163109472Y-105075238D02*
X163145662Y-105147619D01*
X163145662Y-105147619D02*
X163145662Y-105364762D01*
X163145662Y-105364762D02*
X163109472Y-105437143D01*
X163109472Y-105437143D02*
X163073281Y-105473333D01*
D10*
X115561666Y-109854819D02*
X115561666Y-110569104D01*
X115561666Y-110569104D02*
X115514047Y-110711961D01*
X115514047Y-110711961D02*
X115418809Y-110807200D01*
X115418809Y-110807200D02*
X115275952Y-110854819D01*
X115275952Y-110854819D02*
X115180714Y-110854819D01*
X116466428Y-110188152D02*
X116466428Y-110854819D01*
X116228333Y-109807200D02*
X115990238Y-110521485D01*
X115990238Y-110521485D02*
X116609285Y-110521485D01*
X132729048Y-144024819D02*
X132729048Y-143024819D01*
X132729048Y-143024819D02*
X133110000Y-143024819D01*
X133110000Y-143024819D02*
X133205238Y-143072438D01*
X133205238Y-143072438D02*
X133252857Y-143120057D01*
X133252857Y-143120057D02*
X133300476Y-143215295D01*
X133300476Y-143215295D02*
X133300476Y-143358152D01*
X133300476Y-143358152D02*
X133252857Y-143453390D01*
X133252857Y-143453390D02*
X133205238Y-143501009D01*
X133205238Y-143501009D02*
X133110000Y-143548628D01*
X133110000Y-143548628D02*
X132729048Y-143548628D01*
X133729048Y-144024819D02*
X133729048Y-143358152D01*
X133729048Y-143024819D02*
X133681429Y-143072438D01*
X133681429Y-143072438D02*
X133729048Y-143120057D01*
X133729048Y-143120057D02*
X133776667Y-143072438D01*
X133776667Y-143072438D02*
X133729048Y-143024819D01*
X133729048Y-143024819D02*
X133729048Y-143120057D01*
X134633809Y-143977200D02*
X134538571Y-144024819D01*
X134538571Y-144024819D02*
X134348095Y-144024819D01*
X134348095Y-144024819D02*
X134252857Y-143977200D01*
X134252857Y-143977200D02*
X134205238Y-143929580D01*
X134205238Y-143929580D02*
X134157619Y-143834342D01*
X134157619Y-143834342D02*
X134157619Y-143548628D01*
X134157619Y-143548628D02*
X134205238Y-143453390D01*
X134205238Y-143453390D02*
X134252857Y-143405771D01*
X134252857Y-143405771D02*
X134348095Y-143358152D01*
X134348095Y-143358152D02*
X134538571Y-143358152D01*
X134538571Y-143358152D02*
X134633809Y-143405771D01*
X135205238Y-144024819D02*
X135110000Y-143977200D01*
X135110000Y-143977200D02*
X135062381Y-143929580D01*
X135062381Y-143929580D02*
X135014762Y-143834342D01*
X135014762Y-143834342D02*
X135014762Y-143548628D01*
X135014762Y-143548628D02*
X135062381Y-143453390D01*
X135062381Y-143453390D02*
X135110000Y-143405771D01*
X135110000Y-143405771D02*
X135205238Y-143358152D01*
X135205238Y-143358152D02*
X135348095Y-143358152D01*
X135348095Y-143358152D02*
X135443333Y-143405771D01*
X135443333Y-143405771D02*
X135490952Y-143453390D01*
X135490952Y-143453390D02*
X135538571Y-143548628D01*
X135538571Y-143548628D02*
X135538571Y-143834342D01*
X135538571Y-143834342D02*
X135490952Y-143929580D01*
X135490952Y-143929580D02*
X135443333Y-143977200D01*
X135443333Y-143977200D02*
X135348095Y-144024819D01*
X135348095Y-144024819D02*
X135205238Y-144024819D01*
X133564819Y-116391904D02*
X134374342Y-116391904D01*
X134374342Y-116391904D02*
X134469580Y-116344285D01*
X134469580Y-116344285D02*
X134517200Y-116296666D01*
X134517200Y-116296666D02*
X134564819Y-116201428D01*
X134564819Y-116201428D02*
X134564819Y-116010952D01*
X134564819Y-116010952D02*
X134517200Y-115915714D01*
X134517200Y-115915714D02*
X134469580Y-115868095D01*
X134469580Y-115868095D02*
X134374342Y-115820476D01*
X134374342Y-115820476D02*
X133564819Y-115820476D01*
X134564819Y-114820476D02*
X134564819Y-115391904D01*
X134564819Y-115106190D02*
X133564819Y-115106190D01*
X133564819Y-115106190D02*
X133707676Y-115201428D01*
X133707676Y-115201428D02*
X133802914Y-115296666D01*
X133802914Y-115296666D02*
X133850533Y-115391904D01*
X153554667Y-105527200D02*
X153697524Y-105574819D01*
X153697524Y-105574819D02*
X153935619Y-105574819D01*
X153935619Y-105574819D02*
X154030857Y-105527200D01*
X154030857Y-105527200D02*
X154078476Y-105479580D01*
X154078476Y-105479580D02*
X154126095Y-105384342D01*
X154126095Y-105384342D02*
X154126095Y-105289104D01*
X154126095Y-105289104D02*
X154078476Y-105193866D01*
X154078476Y-105193866D02*
X154030857Y-105146247D01*
X154030857Y-105146247D02*
X153935619Y-105098628D01*
X153935619Y-105098628D02*
X153745143Y-105051009D01*
X153745143Y-105051009D02*
X153649905Y-105003390D01*
X153649905Y-105003390D02*
X153602286Y-104955771D01*
X153602286Y-104955771D02*
X153554667Y-104860533D01*
X153554667Y-104860533D02*
X153554667Y-104765295D01*
X153554667Y-104765295D02*
X153602286Y-104670057D01*
X153602286Y-104670057D02*
X153649905Y-104622438D01*
X153649905Y-104622438D02*
X153745143Y-104574819D01*
X153745143Y-104574819D02*
X153983238Y-104574819D01*
X153983238Y-104574819D02*
X154126095Y-104622438D01*
X154459429Y-104574819D02*
X154697524Y-105574819D01*
X154697524Y-105574819D02*
X154888000Y-104860533D01*
X154888000Y-104860533D02*
X155078476Y-105574819D01*
X155078476Y-105574819D02*
X155316572Y-104574819D01*
X156221333Y-105574819D02*
X155649905Y-105574819D01*
X155935619Y-105574819D02*
X155935619Y-104574819D01*
X155935619Y-104574819D02*
X155840381Y-104717676D01*
X155840381Y-104717676D02*
X155745143Y-104812914D01*
X155745143Y-104812914D02*
X155649905Y-104860533D01*
X112776095Y-85798819D02*
X112776095Y-84798819D01*
X112776095Y-85275009D02*
X113347523Y-85275009D01*
X113347523Y-85798819D02*
X113347523Y-84798819D01*
X114347523Y-85798819D02*
X113776095Y-85798819D01*
X114061809Y-85798819D02*
X114061809Y-84798819D01*
X114061809Y-84798819D02*
X113966571Y-84941676D01*
X113966571Y-84941676D02*
X113871333Y-85036914D01*
X113871333Y-85036914D02*
X113776095Y-85084533D01*
X112522095Y-158454819D02*
X112522095Y-157454819D01*
X112522095Y-157931009D02*
X113093523Y-157931009D01*
X113093523Y-158454819D02*
X113093523Y-157454819D01*
X113522095Y-157550057D02*
X113569714Y-157502438D01*
X113569714Y-157502438D02*
X113664952Y-157454819D01*
X113664952Y-157454819D02*
X113903047Y-157454819D01*
X113903047Y-157454819D02*
X113998285Y-157502438D01*
X113998285Y-157502438D02*
X114045904Y-157550057D01*
X114045904Y-157550057D02*
X114093523Y-157645295D01*
X114093523Y-157645295D02*
X114093523Y-157740533D01*
X114093523Y-157740533D02*
X114045904Y-157883390D01*
X114045904Y-157883390D02*
X113474476Y-158454819D01*
X113474476Y-158454819D02*
X114093523Y-158454819D01*
%TO.C,J2*%
D12*
X110730000Y-115860000D02*
X112000000Y-114590000D01*
X110730000Y-129830000D02*
X110730000Y-115860000D01*
X112000000Y-114590000D02*
X115810000Y-114590000D01*
X115810000Y-114590000D02*
X115810000Y-129830000D01*
X115810000Y-129830000D02*
X110730000Y-129830000D01*
%TO.C,J3*%
X110730000Y-138720000D02*
X112000000Y-137450000D01*
X110730000Y-152690000D02*
X110730000Y-138720000D01*
X112000000Y-137450000D02*
X115810000Y-137450000D01*
X115810000Y-137450000D02*
X115810000Y-152690000D01*
X115810000Y-152690000D02*
X110730000Y-152690000D01*
%TO.C,J9*%
X154250000Y-114930000D02*
X164410000Y-114930000D01*
X154250000Y-118740000D02*
X154250000Y-114930000D01*
X155520000Y-120010000D02*
X154250000Y-118740000D01*
X164410000Y-114930000D02*
X164410000Y-120010000D01*
X164410000Y-120010000D02*
X155520000Y-120010000D01*
%TO.C,J1*%
X110730000Y-93000000D02*
X112000000Y-91730000D01*
X110730000Y-106970000D02*
X110730000Y-93000000D01*
X112000000Y-91730000D02*
X115810000Y-91730000D01*
X115810000Y-91730000D02*
X115810000Y-106970000D01*
X115810000Y-106970000D02*
X110730000Y-106970000D01*
%TO.C,C3*%
X161500000Y-103700000D02*
X161500000Y-107500000D01*
X161500000Y-107500000D02*
X164100000Y-107500000D01*
X164100000Y-103700000D02*
X161500000Y-103700000D01*
X164100000Y-107500000D02*
X164100000Y-103700000D01*
%TO.C,J4*%
X113355000Y-109130000D02*
X118435000Y-109130000D01*
X113355000Y-111035000D02*
X113355000Y-109130000D01*
X113990000Y-111670000D02*
X113355000Y-111035000D01*
X118435000Y-109130000D02*
X118435000Y-111670000D01*
X118435000Y-111670000D02*
X113990000Y-111670000D01*
%TO.C,U1*%
X123610000Y-91130000D02*
X124610000Y-90130000D01*
X123610000Y-140630000D02*
X123610000Y-91130000D01*
X124610000Y-90130000D02*
X144110000Y-90130000D01*
X129485000Y-101555000D02*
X129485000Y-102705000D01*
X131735000Y-101555000D02*
X131735000Y-102705000D01*
X144110000Y-141130000D02*
X124110000Y-141130000D01*
X144610000Y-90630000D02*
X144610000Y-140630000D01*
X127610000Y-94530000D02*
X129210000Y-94530000D01*
X129210000Y-95330000D01*
X127610000Y-95330000D01*
X127610000Y-94530000D01*
X127910000Y-94530000D02*
X128910000Y-94530000D01*
X128910000Y-95330000D01*
X127910000Y-95330000D01*
X127910000Y-94530000D01*
X129010000Y-100005000D02*
X132210000Y-100005000D01*
X132210000Y-104255000D01*
X129010000Y-104255000D01*
X129010000Y-100005000D01*
X124110000Y-141130000D02*
G75*
G02*
X123610000Y-140630000I1J500001D01*
G01*
X129485000Y-101555000D02*
G75*
G02*
X131735000Y-101555000I1125000J0D01*
G01*
X131735000Y-102705000D02*
G75*
G02*
X129485000Y-102705000I-1125000J0D01*
G01*
X144110000Y-90130000D02*
G75*
G02*
X144610000Y-90630000I0J-500000D01*
G01*
X144610000Y-140630000D02*
G75*
G02*
X144110000Y-141130000I-500000J0D01*
G01*
X138110000Y-89430000D02*
X137900000Y-89430000D01*
X137900000Y-94430000D01*
X130320000Y-94430000D01*
X130320000Y-89430000D01*
X130110000Y-89430000D01*
X130110000Y-88830000D01*
X138110000Y-88830000D01*
X138110000Y-89430000D01*
%TO.C,SW1*%
X151888000Y-102120000D02*
X154888000Y-102120000D01*
X151888000Y-108120000D02*
X151888000Y-102120000D01*
X154888000Y-102120000D02*
X157888000Y-102120000D01*
X157888000Y-102120000D02*
X157888000Y-108120000D01*
X157888000Y-108120000D02*
X151888000Y-108120000D01*
X156903564Y-105120000D02*
G75*
G02*
X152872436Y-105120000I-2015564J0D01*
G01*
X152872436Y-105120000D02*
G75*
G02*
X156903564Y-105120000I2015564J0D01*
G01*
%TD*%
M02*
