%TF.GenerationSoftware,KiCad,Pcbnew,10.0.1*%
%TF.CreationDate,2026-07-09T23:00:25+09:00*%
%TF.ProjectId,PSCE-MI_Raspberry_PICO,50534345-2d4d-4495-9f52-617370626572,rev?*%
%TF.SameCoordinates,Original*%
%TF.FileFunction,Copper,L2,Bot*%
%TF.FilePolarity,Positive*%
%FSLAX46Y46*%
G04 Gerber Fmt 4.6, Leading zero omitted, Abs format (unit mm)*
G04 Created by KiCad (PCBNEW 10.0.1) date 2026-07-09 23:00:25*
%MOMM*%
%LPD*%
G01*
G04 APERTURE LIST*
G04 Aperture macros list*
%AMRoundRect*
0 Rectangle with rounded corners*
0 $1 Rounding radius*
0 $2 $3 $4 $5 $6 $7 $8 $9 X,Y pos of 4 corners*
0 Add a 4 corners polygon primitive as box body*
4,1,4,$2,$3,$4,$5,$6,$7,$8,$9,$2,$3,0*
0 Add four circle primitives for the rounded corners*
1,1,$1+$1,$2,$3*
1,1,$1+$1,$4,$5*
1,1,$1+$1,$6,$7*
1,1,$1+$1,$8,$9*
0 Add four rect primitives between the rounded corners*
20,1,$1+$1,$2,$3,$4,$5,0*
20,1,$1+$1,$4,$5,$6,$7,0*
20,1,$1+$1,$6,$7,$8,$9,0*
20,1,$1+$1,$8,$9,$2,$3,0*%
%AMFreePoly0*
4,1,37,0.603843,0.796157,0.639018,0.796157,0.711114,0.766294,0.766294,0.711114,0.796157,0.639018,0.796157,0.603843,0.800000,0.600000,0.800000,-0.600000,0.796157,-0.603843,0.796157,-0.639018,0.766294,-0.711114,0.711114,-0.766294,0.639018,-0.796157,0.603843,-0.796157,0.600000,-0.800000,0.000000,-0.800000,0.000000,-0.796148,-0.078414,-0.796148,-0.232228,-0.765552,-0.377117,-0.705537,
-0.507515,-0.618408,-0.618408,-0.507515,-0.705537,-0.377117,-0.765552,-0.232228,-0.796148,-0.078414,-0.796148,0.078414,-0.765552,0.232228,-0.705537,0.377117,-0.618408,0.507515,-0.507515,0.618408,-0.377117,0.705537,-0.232228,0.765552,-0.078414,0.796148,0.000000,0.796148,0.000000,0.800000,0.600000,0.800000,0.603843,0.796157,0.603843,0.796157,$1*%
%AMFreePoly1*
4,1,37,0.000000,0.796148,0.078414,0.796148,0.232228,0.765552,0.377117,0.705537,0.507515,0.618408,0.618408,0.507515,0.705537,0.377117,0.765552,0.232228,0.796148,0.078414,0.796148,-0.078414,0.765552,-0.232228,0.705537,-0.377117,0.618408,-0.507515,0.507515,-0.618408,0.377117,-0.705537,0.232228,-0.765552,0.078414,-0.796148,0.000000,-0.796148,0.000000,-0.800000,-0.600000,-0.800000,
-0.603843,-0.796157,-0.639018,-0.796157,-0.711114,-0.766294,-0.766294,-0.711114,-0.796157,-0.639018,-0.796157,-0.603843,-0.800000,-0.600000,-0.800000,0.600000,-0.796157,0.603843,-0.796157,0.639018,-0.766294,0.711114,-0.711114,0.766294,-0.639018,0.796157,-0.603843,0.796157,-0.600000,0.800000,0.000000,0.800000,0.000000,0.796148,0.000000,0.796148,$1*%
G04 Aperture macros list end*
%TA.AperFunction,ComponentPad*%
%ADD10C,5.600000*%
%TD*%
%TA.AperFunction,ComponentPad*%
%ADD11R,1.700000X1.700000*%
%TD*%
%TA.AperFunction,ComponentPad*%
%ADD12O,1.700000X1.700000*%
%TD*%
%TA.AperFunction,ComponentPad*%
%ADD13C,1.700000*%
%TD*%
%TA.AperFunction,ComponentPad*%
%ADD14C,1.600000*%
%TD*%
%TA.AperFunction,ComponentPad*%
%ADD15RoundRect,0.200000X-0.600000X-0.600000X0.600000X-0.600000X0.600000X0.600000X-0.600000X0.600000X0*%
%TD*%
%TA.AperFunction,ComponentPad*%
%ADD16FreePoly0,0.000000*%
%TD*%
%TA.AperFunction,ComponentPad*%
%ADD17FreePoly1,0.000000*%
%TD*%
%TA.AperFunction,ComponentPad*%
%ADD18C,2.000000*%
%TD*%
%TA.AperFunction,ViaPad*%
%ADD19C,0.600000*%
%TD*%
%TA.AperFunction,Conductor*%
%ADD20C,0.200000*%
%TD*%
%TA.AperFunction,Conductor*%
%ADD21C,0.300000*%
%TD*%
G04 APERTURE END LIST*
D10*
%TO.P,H3,1*%
%TO.N,N/C*%
X168000000Y-93000000D03*
%TD*%
%TO.P,H4,1*%
%TO.N,N/C*%
X168000000Y-150000000D03*
%TD*%
D11*
%TO.P,J2,1,Pin_1_1*%
%TO.N,/FPGA_8*%
X112000000Y-115860000D03*
D12*
%TO.P,J2,2,Pin_2_2*%
%TO.N,/FPGA_9*%
X114540000Y-115860000D03*
%TO.P,J2,3,Pin_3_3*%
%TO.N,/FPGA_10*%
X112000000Y-118400000D03*
%TO.P,J2,4,Pin_4_4*%
%TO.N,/FPGA_11*%
X114540000Y-118400000D03*
%TO.P,J2,5,Pin_5_5*%
%TO.N,/FPGA_12*%
X112000000Y-120940000D03*
%TO.P,J2,6,Pin_6_6*%
%TO.N,/FPGA_13*%
X114540000Y-120940000D03*
%TO.P,J2,7,Pin_7_7*%
%TO.N,/FPGA_14*%
X112000000Y-123480000D03*
%TO.P,J2,8,Pin_8_8*%
%TO.N,/FPGA_15*%
X114540000Y-123480000D03*
%TO.P,J2,9,Pin_9_9*%
%TO.N,GND*%
X112000000Y-126020000D03*
%TO.P,J2,10,Pin_10_10*%
X114540000Y-126020000D03*
%TO.P,J2,11,Pin_11_11*%
%TO.N,Net-(J1-Pin_11)*%
X112000000Y-128560000D03*
%TO.P,J2,12,Pin_12_12*%
X114540000Y-128560000D03*
%TD*%
D11*
%TO.P,J3,1,Pin_1_1*%
%TO.N,/FPGA_16*%
X112000000Y-138720000D03*
D12*
%TO.P,J3,2,Pin_2_2*%
%TO.N,/FPGA_17*%
X114540000Y-138720000D03*
%TO.P,J3,3,Pin_3_3*%
%TO.N,/FPGA_18*%
X112000000Y-141260000D03*
%TO.P,J3,4,Pin_4_4*%
%TO.N,/FPGA_19*%
X114540000Y-141260000D03*
%TO.P,J3,5,Pin_5_5*%
%TO.N,/FPGA_20*%
X112000000Y-143800000D03*
%TO.P,J3,6,Pin_6_6*%
%TO.N,/FPGA_21*%
X114540000Y-143800000D03*
%TO.P,J3,7,Pin_7_7*%
%TO.N,/FPGA_22*%
X112000000Y-146340000D03*
%TO.P,J3,8,Pin_8_8*%
%TO.N,/FPGA_23*%
X114540000Y-146340000D03*
%TO.P,J3,9,Pin_9_9*%
%TO.N,GND*%
X112000000Y-148880000D03*
%TO.P,J3,10,Pin_10_10*%
X114540000Y-148880000D03*
%TO.P,J3,11,Pin_11_11*%
%TO.N,Net-(J1-Pin_11)*%
X112000000Y-151420000D03*
%TO.P,J3,12,Pin_12_12*%
X114540000Y-151420000D03*
%TD*%
D11*
%TO.P,J9,1,Pin_1_1*%
%TO.N,GND*%
X155520000Y-118740000D03*
D13*
%TO.P,J9,2,Pin_2_2*%
X155520000Y-116200000D03*
%TO.P,J9,3,Pin_3_3*%
%TO.N,+3V3*%
X158060000Y-118740000D03*
%TO.P,J9,4,Pin_4_4*%
X158060000Y-116200000D03*
%TO.P,J9,5,Pin_5_5*%
%TO.N,/SCK*%
X160600000Y-118740000D03*
%TO.P,J9,6,Pin_6_6*%
X160600000Y-116200000D03*
%TO.P,J9,7,Pin_7_7*%
%TO.N,/SDA*%
X163140000Y-118740000D03*
%TO.P,J9,8,Pin_8_8*%
X163140000Y-116200000D03*
%TD*%
D11*
%TO.P,J1,1,Pin_1_1*%
%TO.N,/FPGA_0*%
X112000000Y-93000000D03*
D12*
%TO.P,J1,2,Pin_2_2*%
%TO.N,/FPGA_1*%
X114540000Y-93000000D03*
%TO.P,J1,3,Pin_3_3*%
%TO.N,/FPGA_2*%
X112000000Y-95540000D03*
%TO.P,J1,4,Pin_4_4*%
%TO.N,/FPGA_3*%
X114540000Y-95540000D03*
%TO.P,J1,5,Pin_5_5*%
%TO.N,/FPGA_4*%
X112000000Y-98080000D03*
%TO.P,J1,6,Pin_6_6*%
%TO.N,/FPGA_5*%
X114540000Y-98080000D03*
%TO.P,J1,7,Pin_7_7*%
%TO.N,/FPGA_6*%
X112000000Y-100620000D03*
%TO.P,J1,8,Pin_8_8*%
%TO.N,/FPGA_7*%
X114540000Y-100620000D03*
%TO.P,J1,9,Pin_9_9*%
%TO.N,GND*%
X112000000Y-103160000D03*
%TO.P,J1,10,Pin_10_10*%
X114540000Y-103160000D03*
%TO.P,J1,11,Pin_11_11*%
%TO.N,Net-(J1-Pin_11)*%
X112000000Y-105700000D03*
%TO.P,J1,12,Pin_12_12*%
X114540000Y-105700000D03*
%TD*%
D14*
%TO.P,C3,1*%
%TO.N,Net-(U1-RUN)*%
X162800000Y-104350000D03*
%TO.P,C3,2*%
%TO.N,GND*%
X162800000Y-106850000D03*
%TD*%
D11*
%TO.P,J4,1,Pin_1_1*%
%TO.N,Net-(J1-Pin_11)*%
X114625000Y-110400000D03*
D13*
%TO.P,J4,2,Pin_2_2*%
%TO.N,+5V*%
X117165000Y-110400000D03*
%TD*%
D15*
%TO.P,U1,1,GPIO0_1*%
%TO.N,/FPGA_0*%
X125220000Y-91500000D03*
D14*
%TO.P,U1,2,GPIO1_2*%
%TO.N,/FPGA_1*%
X125220000Y-94040000D03*
D16*
%TO.P,U1,3,GND_3*%
%TO.N,GND*%
X125220000Y-96580000D03*
D14*
%TO.P,U1,4,GPIO2_4*%
%TO.N,/FPGA_2*%
X125220000Y-99120000D03*
%TO.P,U1,5,GPIO3_5*%
%TO.N,/FPGA_3*%
X125220000Y-101660000D03*
%TO.P,U1,6,GPIO4_6*%
%TO.N,/FPGA_4*%
X125220000Y-104200000D03*
%TO.P,U1,7,GPIO5_7*%
%TO.N,/FPGA_5*%
X125220000Y-106740000D03*
D16*
%TO.P,U1,8,GND_8*%
%TO.N,GND*%
X125220000Y-109280000D03*
D14*
%TO.P,U1,9,GPIO6_9*%
%TO.N,/SDA*%
X125220000Y-111820000D03*
%TO.P,U1,10,GPIO7_10*%
%TO.N,/SCK*%
X125220000Y-114360000D03*
%TO.P,U1,11,GPIO8_11*%
%TO.N,/FPGA_8*%
X125220000Y-116900000D03*
%TO.P,U1,12,GPIO9_12*%
%TO.N,/FPGA_9*%
X125220000Y-119440000D03*
D16*
%TO.P,U1,13,GND_13*%
%TO.N,GND*%
X125220000Y-121980000D03*
D14*
%TO.P,U1,14,GPIO10_14*%
%TO.N,/FPGA_10*%
X125220000Y-124520000D03*
%TO.P,U1,15,GPIO11_15*%
%TO.N,/FPGA_11*%
X125220000Y-127060000D03*
%TO.P,U1,16,GPIO12_16*%
%TO.N,/FPGA_12*%
X125220000Y-129600000D03*
%TO.P,U1,17,GPIO13_17*%
%TO.N,/FPGA_13*%
X125220000Y-132140000D03*
D16*
%TO.P,U1,18,GND_18*%
%TO.N,GND*%
X125220000Y-134680000D03*
D14*
%TO.P,U1,19,GPIO14_19*%
%TO.N,/FPGA_14*%
X125220000Y-137220000D03*
%TO.P,U1,20,GPIO15_20*%
%TO.N,/FPGA_15*%
X125220000Y-139760000D03*
%TO.P,U1,21,GPIO16_21*%
%TO.N,/FPGA_16*%
X143000000Y-139760000D03*
%TO.P,U1,22,GPIO17_22*%
%TO.N,/FPGA_17*%
X143000000Y-137220000D03*
D17*
%TO.P,U1,23,GND_23*%
%TO.N,GND*%
X143000000Y-134680000D03*
D14*
%TO.P,U1,24,GPIO18_24*%
%TO.N,/FPGA_18*%
X143000000Y-132140000D03*
%TO.P,U1,25,GPIO19_25*%
%TO.N,/FPGA_19*%
X143000000Y-129600000D03*
%TO.P,U1,26,GPIO20_26*%
%TO.N,/FPGA_20*%
X143000000Y-127060000D03*
%TO.P,U1,27,GPIO21_27*%
%TO.N,/FPGA_21*%
X143000000Y-124520000D03*
D17*
%TO.P,U1,28,GND_28*%
%TO.N,GND*%
X143000000Y-121980000D03*
D14*
%TO.P,U1,29,GPIO22_29*%
%TO.N,/FPGA_22*%
X143000000Y-119440000D03*
%TO.P,U1,30,RUN_30*%
%TO.N,Net-(U1-RUN)*%
X143000000Y-116900000D03*
%TO.P,U1,31,GPIO26_ADC0_31*%
%TO.N,/FPGA_23*%
X143000000Y-114360000D03*
%TO.P,U1,32,GPIO27_ADC1_32*%
%TO.N,/FPGA_6*%
X143000000Y-111820000D03*
D17*
%TO.P,U1,33,AGND_33*%
%TO.N,GND*%
X143000000Y-109280000D03*
D14*
%TO.P,U1,34,GPIO28_ADC2_34*%
%TO.N,/FPGA_7*%
X143000000Y-106740000D03*
%TO.P,U1,35,ADC_VREF_35*%
%TO.N,unconnected-(U1-ADC_VREF-Pad35)*%
X143000000Y-104200000D03*
%TO.P,U1,36,3V3_36*%
%TO.N,+3V3*%
X143000000Y-101660000D03*
%TO.P,U1,37,3V3_EN_37*%
%TO.N,unconnected-(U1-3V3_EN-Pad37)*%
X143000000Y-99120000D03*
D17*
%TO.P,U1,38,GND_38*%
%TO.N,GND*%
X143000000Y-96580000D03*
D14*
%TO.P,U1,39,VSYS_39*%
%TO.N,unconnected-(U1-VSYS-Pad39)*%
X143000000Y-94040000D03*
%TO.P,U1,40,VBUS_40*%
%TO.N,+5V*%
X143000000Y-91500000D03*
%TD*%
D18*
%TO.P,SW1,1,1_1*%
%TO.N,Net-(U1-RUN)*%
X151638000Y-102870000D03*
%TO.P,SW1,2,2_2*%
X158138000Y-102870000D03*
%TO.P,SW1,3,K_3*%
%TO.N,GND*%
X151638000Y-107370000D03*
%TO.P,SW1,4,A_4*%
X158138000Y-107370000D03*
%TD*%
D10*
%TO.P,H1,1*%
%TO.N,N/C*%
X113538000Y-85344000D03*
%TD*%
%TO.P,H2,1*%
%TO.N,N/C*%
X113284000Y-158000000D03*
%TD*%
D19*
%TO.N,GND*%
X137160000Y-97790000D03*
X137100000Y-127000000D03*
X114554000Y-133096000D03*
X130100000Y-117500000D03*
X121500000Y-130000000D03*
X148082000Y-115570000D03*
X111200000Y-110400000D03*
X130300000Y-121400000D03*
X132800000Y-120800000D03*
X157600000Y-126600000D03*
X156210000Y-96520000D03*
X120100000Y-103700000D03*
X137100000Y-121000000D03*
X148082000Y-121920000D03*
X162800000Y-121400000D03*
%TD*%
%TO.N,Net-(J1-Pin_11)*%
D20*
X112000000Y-151420000D02*
X114540000Y-151420000D01*
X112000000Y-128560000D02*
X114540000Y-128560000D01*
X112000000Y-105700000D02*
X114540000Y-105700000D01*
%TO.N,/SCK*%
D21*
X166020000Y-120600000D02*
X166020000Y-115400000D01*
X162500000Y-114300000D02*
X160600000Y-116200000D01*
X160600000Y-116200000D02*
X160600000Y-118740000D01*
X128800000Y-117940000D02*
X128800000Y-122000000D01*
X164920000Y-114300000D02*
X162500000Y-114300000D01*
X135100000Y-128300000D02*
X158320000Y-128300000D01*
X158320000Y-128300000D02*
X166020000Y-120600000D01*
X166020000Y-115400000D02*
X164920000Y-114300000D01*
X125220000Y-114360000D02*
X128800000Y-117940000D01*
X128800000Y-122000000D02*
X135100000Y-128300000D01*
%TO.N,/SDA*%
X126520000Y-111820000D02*
X125220000Y-111820000D01*
X163140000Y-118740000D02*
X156080000Y-125800000D01*
X136200000Y-125800000D02*
X131500000Y-121100000D01*
X131500000Y-121100000D02*
X131500000Y-116800000D01*
X131500000Y-116800000D02*
X126520000Y-111820000D01*
X163140000Y-116200000D02*
X163140000Y-118740000D01*
X156080000Y-125800000D02*
X136200000Y-125800000D01*
%TO.N,Net-(U1-RUN)*%
X140700000Y-116900000D02*
X143000000Y-116900000D01*
X151638000Y-102870000D02*
X141730000Y-102870000D01*
X138900000Y-115100000D02*
X140700000Y-116900000D01*
X138900000Y-105700000D02*
X138900000Y-115100000D01*
X141730000Y-102870000D02*
X138900000Y-105700000D01*
%TO.N,+5V*%
X133000000Y-95400000D02*
X133000000Y-106900000D01*
X129465000Y-110435000D02*
X133000000Y-106900000D01*
X117200000Y-110435000D02*
X129465000Y-110435000D01*
X117165000Y-110400000D02*
X117200000Y-110435000D01*
X143000000Y-91500000D02*
X136900000Y-91500000D01*
X136900000Y-91500000D02*
X133000000Y-95400000D01*
%TO.N,Net-(J1-Pin_11)*%
X117300000Y-125800000D02*
X114540000Y-128560000D01*
X117500000Y-125000000D02*
X117300000Y-125200000D01*
X114500000Y-111000000D02*
X114500000Y-111600000D01*
X114500000Y-111600000D02*
X117500000Y-114600000D01*
X114540000Y-128560000D02*
X117000000Y-131020000D01*
X117300000Y-125200000D02*
X117300000Y-125800000D01*
X117500000Y-114600000D02*
X117500000Y-125000000D01*
X117000000Y-131020000D02*
X117000000Y-148960000D01*
X114540000Y-105700000D02*
X114540000Y-110960000D01*
X114540000Y-110960000D02*
X114500000Y-111000000D01*
X117000000Y-148960000D02*
X114540000Y-151420000D01*
%TD*%
%TA.AperFunction,Conductor*%
%TO.N,GND*%
G36*
X111828403Y-82308185D02*
G01*
X111874158Y-82360989D01*
X111884102Y-82430147D01*
X111855077Y-82493703D01*
X111830255Y-82515602D01*
X111569532Y-82689811D01*
X111569518Y-82689821D01*
X111318841Y-82895546D01*
X111089546Y-83124841D01*
X110883821Y-83375518D01*
X110883811Y-83375532D01*
X110703657Y-83645151D01*
X110703646Y-83645169D01*
X110550788Y-83931145D01*
X110550786Y-83931150D01*
X110426686Y-84230752D01*
X110332548Y-84541086D01*
X110332545Y-84541097D01*
X110269287Y-84859125D01*
X110269284Y-84859142D01*
X110237500Y-85181860D01*
X110237500Y-85506139D01*
X110269284Y-85828857D01*
X110269287Y-85828874D01*
X110332545Y-86146902D01*
X110332548Y-86146913D01*
X110426686Y-86457247D01*
X110550786Y-86756849D01*
X110550788Y-86756854D01*
X110703646Y-87042830D01*
X110703657Y-87042848D01*
X110883811Y-87312467D01*
X110883821Y-87312481D01*
X111089546Y-87563158D01*
X111318841Y-87792453D01*
X111318846Y-87792457D01*
X111318847Y-87792458D01*
X111569524Y-87998183D01*
X111839158Y-88178347D01*
X111839167Y-88178352D01*
X111839169Y-88178353D01*
X112125145Y-88331211D01*
X112125147Y-88331211D01*
X112125153Y-88331215D01*
X112424754Y-88455314D01*
X112735077Y-88549449D01*
X112735083Y-88549450D01*
X112735086Y-88549451D01*
X112735097Y-88549454D01*
X112934528Y-88589122D01*
X113053132Y-88612714D01*
X113375857Y-88644500D01*
X113375860Y-88644500D01*
X113700140Y-88644500D01*
X113700143Y-88644500D01*
X114022868Y-88612714D01*
X114180295Y-88581399D01*
X114340902Y-88549454D01*
X114340913Y-88549451D01*
X114340913Y-88549450D01*
X114340923Y-88549449D01*
X114651246Y-88455314D01*
X114950847Y-88331215D01*
X115236842Y-88178347D01*
X115506476Y-87998183D01*
X115757153Y-87792458D01*
X115986458Y-87563153D01*
X116192183Y-87312476D01*
X116372347Y-87042842D01*
X116525215Y-86756847D01*
X116649314Y-86457246D01*
X116743449Y-86146923D01*
X116743451Y-86146913D01*
X116743454Y-86146902D01*
X116775399Y-85986295D01*
X116806714Y-85828868D01*
X116838500Y-85506143D01*
X116838500Y-85181857D01*
X116806714Y-84859132D01*
X116783122Y-84740528D01*
X116743454Y-84541097D01*
X116743451Y-84541086D01*
X116743450Y-84541083D01*
X116743449Y-84541077D01*
X116649314Y-84230754D01*
X116525215Y-83931153D01*
X116372347Y-83645158D01*
X116192183Y-83375524D01*
X115986458Y-83124847D01*
X115986457Y-83124846D01*
X115986453Y-83124841D01*
X115757158Y-82895546D01*
X115506481Y-82689821D01*
X115506480Y-82689820D01*
X115506476Y-82689817D01*
X115245744Y-82515601D01*
X115200940Y-82461990D01*
X115192233Y-82392665D01*
X115222387Y-82329638D01*
X115281830Y-82292918D01*
X115314636Y-82288500D01*
X118999548Y-82288500D01*
X119066587Y-82308185D01*
X119109736Y-82355627D01*
X122974511Y-89843629D01*
X122977608Y-89855186D01*
X123004654Y-89902032D01*
X123029466Y-89950104D01*
X123037518Y-89958953D01*
X123043500Y-89969314D01*
X123081745Y-90007559D01*
X123083705Y-90009713D01*
X123083706Y-90009715D01*
X123118151Y-90047571D01*
X123118157Y-90047576D01*
X123118158Y-90047577D01*
X123128227Y-90054041D01*
X123136686Y-90062500D01*
X123183522Y-90089540D01*
X123185989Y-90091124D01*
X123229052Y-90118770D01*
X123229057Y-90118773D01*
X123240451Y-90122409D01*
X123250814Y-90128392D01*
X123303068Y-90142393D01*
X123354601Y-90158840D01*
X123366552Y-90159403D01*
X123378108Y-90162500D01*
X123432197Y-90162500D01*
X123463827Y-90163991D01*
X123486237Y-90165049D01*
X123486237Y-90165048D01*
X123486238Y-90165049D01*
X123486238Y-90165048D01*
X123492531Y-90164520D01*
X123511290Y-90162500D01*
X124067480Y-90162500D01*
X124134519Y-90182185D01*
X124180274Y-90234989D01*
X124190218Y-90304147D01*
X124161193Y-90367703D01*
X124155161Y-90374181D01*
X124064531Y-90464810D01*
X124064530Y-90464811D01*
X123976522Y-90610393D01*
X123925913Y-90772807D01*
X123919500Y-90843386D01*
X123919500Y-92156613D01*
X123925913Y-92227192D01*
X123925913Y-92227194D01*
X123925914Y-92227196D01*
X123976522Y-92389606D01*
X124052405Y-92515132D01*
X124064530Y-92535188D01*
X124184811Y-92655469D01*
X124184813Y-92655470D01*
X124184815Y-92655472D01*
X124330394Y-92743478D01*
X124417566Y-92770641D01*
X124475712Y-92809378D01*
X124503686Y-92873403D01*
X124492605Y-92942388D01*
X124453560Y-92989344D01*
X124372782Y-93048032D01*
X124228028Y-93192786D01*
X124107715Y-93358386D01*
X124014781Y-93540776D01*
X123951522Y-93735465D01*
X123919500Y-93937648D01*
X123919500Y-94142351D01*
X123951522Y-94344534D01*
X124014781Y-94539223D01*
X124107715Y-94721613D01*
X124228028Y-94887213D01*
X124372786Y-95031971D01*
X124538388Y-95152286D01*
X124538390Y-95152287D01*
X124624294Y-95196057D01*
X124675090Y-95244031D01*
X124691886Y-95311852D01*
X124669349Y-95377987D01*
X124626455Y-95415899D01*
X124560494Y-95451157D01*
X124560489Y-95451160D01*
X124491086Y-95497532D01*
X124491085Y-95497533D01*
X125090590Y-96097037D01*
X125027007Y-96114075D01*
X124912993Y-96179901D01*
X124819901Y-96272993D01*
X124754075Y-96387007D01*
X124737037Y-96450589D01*
X124137533Y-95851085D01*
X124137532Y-95851086D01*
X124091161Y-95920488D01*
X124044490Y-96007801D01*
X123984185Y-96153387D01*
X123955444Y-96248135D01*
X123924701Y-96402697D01*
X123924701Y-96402700D01*
X123915000Y-96501210D01*
X123915000Y-96658789D01*
X123924701Y-96757299D01*
X123924701Y-96757302D01*
X123955444Y-96911864D01*
X123984185Y-97006612D01*
X124044490Y-97152198D01*
X124091158Y-97239506D01*
X124137533Y-97308912D01*
X124137534Y-97308913D01*
X124737037Y-96709409D01*
X124754075Y-96772993D01*
X124819901Y-96887007D01*
X124912993Y-96980099D01*
X125027007Y-97045925D01*
X125090590Y-97062962D01*
X124491085Y-97662465D01*
X124560493Y-97708841D01*
X124626454Y-97744099D01*
X124676298Y-97793062D01*
X124691758Y-97861200D01*
X124667926Y-97926879D01*
X124624295Y-97963942D01*
X124538386Y-98007715D01*
X124372786Y-98128028D01*
X124228028Y-98272786D01*
X124107715Y-98438386D01*
X124014781Y-98620776D01*
X123951522Y-98815465D01*
X123919500Y-99017648D01*
X123919500Y-99222351D01*
X123951522Y-99424534D01*
X124014781Y-99619223D01*
X124107715Y-99801613D01*
X124228028Y-99967213D01*
X124372786Y-100111971D01*
X124527749Y-100224556D01*
X124538390Y-100232287D01*
X124629840Y-100278883D01*
X124631080Y-100279515D01*
X124681876Y-100327490D01*
X124698671Y-100395311D01*
X124676134Y-100461446D01*
X124631080Y-100500485D01*
X124538386Y-100547715D01*
X124372786Y-100668028D01*
X124228028Y-100812786D01*
X124107715Y-100978386D01*
X124014781Y-101160776D01*
X123951522Y-101355465D01*
X123919500Y-101557648D01*
X123919500Y-101762351D01*
X123951522Y-101964534D01*
X124014781Y-102159223D01*
X124107715Y-102341613D01*
X124228028Y-102507213D01*
X124372786Y-102651971D01*
X124510332Y-102751902D01*
X124538390Y-102772287D01*
X124629840Y-102818883D01*
X124631080Y-102819515D01*
X124681876Y-102867490D01*
X124698671Y-102935311D01*
X124676134Y-103001446D01*
X124631080Y-103040485D01*
X124538386Y-103087715D01*
X124372786Y-103208028D01*
X124228028Y-103352786D01*
X124107715Y-103518386D01*
X124014781Y-103700776D01*
X123951522Y-103895465D01*
X123919500Y-104097648D01*
X123919500Y-104302351D01*
X123951522Y-104504534D01*
X124014781Y-104699223D01*
X124107715Y-104881613D01*
X124228028Y-105047213D01*
X124372786Y-105191971D01*
X124501281Y-105285326D01*
X124538390Y-105312287D01*
X124629840Y-105358883D01*
X124631080Y-105359515D01*
X124681876Y-105407490D01*
X124698671Y-105475311D01*
X124676134Y-105541446D01*
X124631080Y-105580485D01*
X124538386Y-105627715D01*
X124372786Y-105748028D01*
X124228028Y-105892786D01*
X124107715Y-106058386D01*
X124014781Y-106240776D01*
X123951522Y-106435465D01*
X123919500Y-106637648D01*
X123919500Y-106842351D01*
X123951522Y-107044534D01*
X124014781Y-107239223D01*
X124107715Y-107421613D01*
X124228028Y-107587213D01*
X124372786Y-107731971D01*
X124538388Y-107852286D01*
X124538390Y-107852287D01*
X124624294Y-107896057D01*
X124675090Y-107944031D01*
X124691886Y-108011852D01*
X124669349Y-108077987D01*
X124626455Y-108115899D01*
X124560494Y-108151157D01*
X124560489Y-108151160D01*
X124491086Y-108197532D01*
X124491085Y-108197533D01*
X125090590Y-108797037D01*
X125027007Y-108814075D01*
X124912993Y-108879901D01*
X124819901Y-108972993D01*
X124754075Y-109087007D01*
X124737037Y-109150590D01*
X124137533Y-108551085D01*
X124137532Y-108551086D01*
X124091161Y-108620488D01*
X124044490Y-108707801D01*
X123984185Y-108853387D01*
X123955444Y-108948135D01*
X123924701Y-109102697D01*
X123924701Y-109102700D01*
X123915000Y-109201210D01*
X123915000Y-109358789D01*
X123924701Y-109457299D01*
X123924701Y-109457302D01*
X123955444Y-109611864D01*
X123959280Y-109624508D01*
X123959901Y-109694375D01*
X123922651Y-109753487D01*
X123859357Y-109783076D01*
X123840618Y-109784500D01*
X118443075Y-109784500D01*
X118376036Y-109764815D01*
X118332590Y-109716794D01*
X118321167Y-109694375D01*
X118320051Y-109692184D01*
X118311271Y-109680099D01*
X118195109Y-109520213D01*
X118044786Y-109369890D01*
X117872820Y-109244951D01*
X117683414Y-109148444D01*
X117683413Y-109148443D01*
X117683412Y-109148443D01*
X117481243Y-109082754D01*
X117481241Y-109082753D01*
X117481240Y-109082753D01*
X117319957Y-109057208D01*
X117271287Y-109049500D01*
X117058713Y-109049500D01*
X117010042Y-109057208D01*
X116848760Y-109082753D01*
X116646585Y-109148444D01*
X116457179Y-109244951D01*
X116285215Y-109369889D01*
X116171673Y-109483431D01*
X116110350Y-109516915D01*
X116040658Y-109511931D01*
X115984725Y-109470059D01*
X115967810Y-109439082D01*
X115918797Y-109307671D01*
X115918793Y-109307664D01*
X115832547Y-109192455D01*
X115832544Y-109192452D01*
X115717335Y-109106206D01*
X115717328Y-109106202D01*
X115582482Y-109055908D01*
X115582483Y-109055908D01*
X115522883Y-109049501D01*
X115522881Y-109049500D01*
X115522873Y-109049500D01*
X115522865Y-109049500D01*
X115314500Y-109049500D01*
X115247461Y-109029815D01*
X115201706Y-108977011D01*
X115190500Y-108925500D01*
X115190500Y-106959617D01*
X115210185Y-106892578D01*
X115244592Y-106858902D01*
X115243874Y-106857914D01*
X115247811Y-106855053D01*
X115247816Y-106855051D01*
X115419792Y-106730104D01*
X115570104Y-106579792D01*
X115570106Y-106579788D01*
X115570109Y-106579786D01*
X115695048Y-106407820D01*
X115695047Y-106407820D01*
X115695051Y-106407816D01*
X115791557Y-106218412D01*
X115857246Y-106016243D01*
X115890500Y-105806287D01*
X115890500Y-105593713D01*
X115857246Y-105383757D01*
X115791557Y-105181588D01*
X115695051Y-104992184D01*
X115695049Y-104992181D01*
X115695048Y-104992179D01*
X115570109Y-104820213D01*
X115419786Y-104669890D01*
X115247817Y-104544949D01*
X115238504Y-104540204D01*
X115187707Y-104492230D01*
X115170912Y-104424409D01*
X115193449Y-104358274D01*
X115238507Y-104319232D01*
X115247558Y-104314620D01*
X115419459Y-104189727D01*
X115419464Y-104189723D01*
X115569723Y-104039464D01*
X115569727Y-104039459D01*
X115694620Y-103867557D01*
X115791095Y-103678217D01*
X115856757Y-103476129D01*
X115856757Y-103476126D01*
X115867231Y-103410000D01*
X114973012Y-103410000D01*
X115005925Y-103352993D01*
X115040000Y-103225826D01*
X115040000Y-103094174D01*
X115005925Y-102967007D01*
X114973012Y-102910000D01*
X115867231Y-102910000D01*
X115856757Y-102843873D01*
X115856757Y-102843870D01*
X115791095Y-102641782D01*
X115694620Y-102452442D01*
X115569727Y-102280540D01*
X115569723Y-102280535D01*
X115419464Y-102130276D01*
X115419459Y-102130272D01*
X115247555Y-102005377D01*
X115238500Y-102000763D01*
X115187706Y-101952788D01*
X115170912Y-101884966D01*
X115193451Y-101818832D01*
X115238508Y-101779793D01*
X115247816Y-101775051D01*
X115327007Y-101717515D01*
X115419786Y-101650109D01*
X115419788Y-101650106D01*
X115419792Y-101650104D01*
X115570104Y-101499792D01*
X115570106Y-101499788D01*
X115570109Y-101499786D01*
X115695048Y-101327820D01*
X115695047Y-101327820D01*
X115695051Y-101327816D01*
X115791557Y-101138412D01*
X115857246Y-100936243D01*
X115890500Y-100726287D01*
X115890500Y-100513713D01*
X115857246Y-100303757D01*
X115791557Y-100101588D01*
X115695051Y-99912184D01*
X115695049Y-99912181D01*
X115695048Y-99912179D01*
X115570109Y-99740213D01*
X115419786Y-99589890D01*
X115247820Y-99464951D01*
X115247115Y-99464591D01*
X115239054Y-99460485D01*
X115188259Y-99412512D01*
X115171463Y-99344692D01*
X115193999Y-99278556D01*
X115239054Y-99239515D01*
X115247816Y-99235051D01*
X115269789Y-99219086D01*
X115419786Y-99110109D01*
X115419788Y-99110106D01*
X115419792Y-99110104D01*
X115570104Y-98959792D01*
X115571089Y-98958435D01*
X115584564Y-98939891D01*
X115695048Y-98787820D01*
X115695047Y-98787820D01*
X115695051Y-98787816D01*
X115791557Y-98598412D01*
X115857246Y-98396243D01*
X115890500Y-98186287D01*
X115890500Y-97973713D01*
X115857246Y-97763757D01*
X115791557Y-97561588D01*
X115695051Y-97372184D01*
X115695049Y-97372181D01*
X115695048Y-97372179D01*
X115570109Y-97200213D01*
X115419786Y-97049890D01*
X115247820Y-96924951D01*
X115247115Y-96924591D01*
X115239054Y-96920485D01*
X115188259Y-96872512D01*
X115171463Y-96804692D01*
X115193999Y-96738556D01*
X115239054Y-96699515D01*
X115247816Y-96695051D01*
X115315569Y-96645826D01*
X115419786Y-96570109D01*
X115419788Y-96570106D01*
X115419792Y-96570104D01*
X115570104Y-96419792D01*
X115695051Y-96247816D01*
X115791557Y-96058412D01*
X115857246Y-95856243D01*
X115890500Y-95646287D01*
X115890500Y-95433713D01*
X115857246Y-95223757D01*
X115791557Y-95021588D01*
X115695051Y-94832184D01*
X115695049Y-94832181D01*
X115695048Y-94832179D01*
X115570109Y-94660213D01*
X115419786Y-94509890D01*
X115247820Y-94384951D01*
X115247115Y-94384591D01*
X115239054Y-94380485D01*
X115188259Y-94332512D01*
X115171463Y-94264692D01*
X115193999Y-94198556D01*
X115239054Y-94159515D01*
X115247816Y-94155051D01*
X115334138Y-94092335D01*
X115419786Y-94030109D01*
X115419788Y-94030106D01*
X115419792Y-94030104D01*
X115570104Y-93879792D01*
X115570106Y-93879788D01*
X115570109Y-93879786D01*
X115695048Y-93707820D01*
X115695047Y-93707820D01*
X115695051Y-93707816D01*
X115791557Y-93518412D01*
X115857246Y-93316243D01*
X115890500Y-93106287D01*
X115890500Y-92893713D01*
X115857246Y-92683757D01*
X115791557Y-92481588D01*
X115695051Y-92292184D01*
X115695049Y-92292181D01*
X115695048Y-92292179D01*
X115570109Y-92120213D01*
X115419786Y-91969890D01*
X115247820Y-91844951D01*
X115058414Y-91748444D01*
X115058413Y-91748443D01*
X115058412Y-91748443D01*
X114856243Y-91682754D01*
X114856241Y-91682753D01*
X114856240Y-91682753D01*
X114694957Y-91657208D01*
X114646287Y-91649500D01*
X114433713Y-91649500D01*
X114385042Y-91657208D01*
X114223760Y-91682753D01*
X114021585Y-91748444D01*
X113832179Y-91844951D01*
X113660215Y-91969889D01*
X113546673Y-92083431D01*
X113485350Y-92116915D01*
X113415658Y-92111931D01*
X113359725Y-92070059D01*
X113342810Y-92039082D01*
X113293797Y-91907671D01*
X113293793Y-91907664D01*
X113207547Y-91792455D01*
X113207544Y-91792452D01*
X113092335Y-91706206D01*
X113092328Y-91706202D01*
X112957482Y-91655908D01*
X112957483Y-91655908D01*
X112897883Y-91649501D01*
X112897881Y-91649500D01*
X112897873Y-91649500D01*
X112897864Y-91649500D01*
X111102129Y-91649500D01*
X111102123Y-91649501D01*
X111042516Y-91655908D01*
X110907671Y-91706202D01*
X110907664Y-91706206D01*
X110792455Y-91792452D01*
X110792452Y-91792455D01*
X110706206Y-91907664D01*
X110706202Y-91907671D01*
X110655908Y-92042517D01*
X110649501Y-92102116D01*
X110649500Y-92102135D01*
X110649500Y-93897870D01*
X110649501Y-93897876D01*
X110655908Y-93957483D01*
X110706202Y-94092328D01*
X110706206Y-94092335D01*
X110792452Y-94207544D01*
X110792455Y-94207547D01*
X110907664Y-94293793D01*
X110907671Y-94293797D01*
X111039082Y-94342810D01*
X111095016Y-94384681D01*
X111119433Y-94450145D01*
X111104582Y-94518418D01*
X111083431Y-94546673D01*
X110969889Y-94660215D01*
X110844951Y-94832179D01*
X110748444Y-95021585D01*
X110682753Y-95223760D01*
X110663027Y-95348306D01*
X110649500Y-95433713D01*
X110649500Y-95646287D01*
X110653168Y-95669446D01*
X110673520Y-95797946D01*
X110682754Y-95856243D01*
X110731998Y-96007801D01*
X110748444Y-96058414D01*
X110844951Y-96247820D01*
X110969890Y-96419786D01*
X111120213Y-96570109D01*
X111292182Y-96695050D01*
X111300946Y-96699516D01*
X111351742Y-96747491D01*
X111368536Y-96815312D01*
X111345998Y-96881447D01*
X111300946Y-96920484D01*
X111292182Y-96924949D01*
X111120213Y-97049890D01*
X110969890Y-97200213D01*
X110844951Y-97372179D01*
X110748444Y-97561585D01*
X110682753Y-97763760D01*
X110658834Y-97914780D01*
X110649500Y-97973713D01*
X110649500Y-98186287D01*
X110682754Y-98396243D01*
X110696448Y-98438390D01*
X110748444Y-98598414D01*
X110844951Y-98787820D01*
X110969890Y-98959786D01*
X111120213Y-99110109D01*
X111292182Y-99235050D01*
X111300946Y-99239516D01*
X111351742Y-99287491D01*
X111368536Y-99355312D01*
X111345998Y-99421447D01*
X111300946Y-99460484D01*
X111292182Y-99464949D01*
X111120213Y-99589890D01*
X110969890Y-99740213D01*
X110844951Y-99912179D01*
X110748444Y-100101585D01*
X110682753Y-100303760D01*
X110658834Y-100454780D01*
X110649500Y-100513713D01*
X110649500Y-100726287D01*
X110682754Y-100936243D01*
X110696448Y-100978390D01*
X110748444Y-101138414D01*
X110844951Y-101327820D01*
X110969890Y-101499786D01*
X111120213Y-101650109D01*
X111292179Y-101775048D01*
X111292181Y-101775049D01*
X111292184Y-101775051D01*
X111301493Y-101779794D01*
X111352290Y-101827766D01*
X111369087Y-101895587D01*
X111346552Y-101961722D01*
X111301502Y-102000762D01*
X111292443Y-102005378D01*
X111120540Y-102130272D01*
X111120535Y-102130276D01*
X110970276Y-102280535D01*
X110970272Y-102280540D01*
X110845379Y-102452442D01*
X110748904Y-102641782D01*
X110683242Y-102843870D01*
X110683242Y-102843873D01*
X110672769Y-102910000D01*
X111566988Y-102910000D01*
X111534075Y-102967007D01*
X111500000Y-103094174D01*
X111500000Y-103225826D01*
X111534075Y-103352993D01*
X111566988Y-103410000D01*
X110672769Y-103410000D01*
X110683242Y-103476126D01*
X110683242Y-103476129D01*
X110748904Y-103678217D01*
X110845379Y-103867557D01*
X110970272Y-104039459D01*
X110970276Y-104039464D01*
X111120535Y-104189723D01*
X111120540Y-104189727D01*
X111292444Y-104314622D01*
X111301495Y-104319234D01*
X111352292Y-104367208D01*
X111369087Y-104435029D01*
X111346550Y-104501164D01*
X111301499Y-104540202D01*
X111292182Y-104544949D01*
X111120213Y-104669890D01*
X110969890Y-104820213D01*
X110844951Y-104992179D01*
X110748444Y-105181585D01*
X110682753Y-105383760D01*
X110658834Y-105534780D01*
X110649500Y-105593713D01*
X110649500Y-105806287D01*
X110682754Y-106016243D01*
X110732274Y-106168650D01*
X110748444Y-106218414D01*
X110844951Y-106407820D01*
X110969890Y-106579786D01*
X111120213Y-106730109D01*
X111292179Y-106855048D01*
X111292181Y-106855049D01*
X111292184Y-106855051D01*
X111481588Y-106951557D01*
X111683757Y-107017246D01*
X111893713Y-107050500D01*
X111893714Y-107050500D01*
X112106286Y-107050500D01*
X112106287Y-107050500D01*
X112316243Y-107017246D01*
X112518412Y-106951557D01*
X112707816Y-106855051D01*
X112756060Y-106820000D01*
X112879786Y-106730109D01*
X112879788Y-106730106D01*
X112879792Y-106730104D01*
X113030104Y-106579792D01*
X113030106Y-106579788D01*
X113030109Y-106579786D01*
X113155048Y-106407820D01*
X113155047Y-106407820D01*
X113155051Y-106407816D01*
X113159514Y-106399055D01*
X113207488Y-106348259D01*
X113275308Y-106331463D01*
X113341444Y-106353999D01*
X113380486Y-106399056D01*
X113384951Y-106407820D01*
X113509890Y-106579786D01*
X113509896Y-106579792D01*
X113660208Y-106730104D01*
X113832184Y-106855051D01*
X113832188Y-106855053D01*
X113836126Y-106857914D01*
X113835146Y-106859262D01*
X113877160Y-106905690D01*
X113889500Y-106959617D01*
X113889500Y-108925500D01*
X113869815Y-108992539D01*
X113817011Y-109038294D01*
X113765503Y-109049500D01*
X113727131Y-109049500D01*
X113727123Y-109049501D01*
X113667516Y-109055908D01*
X113532671Y-109106202D01*
X113532664Y-109106206D01*
X113417455Y-109192452D01*
X113417452Y-109192455D01*
X113331206Y-109307664D01*
X113331202Y-109307671D01*
X113280908Y-109442517D01*
X113274501Y-109502116D01*
X113274500Y-109502135D01*
X113274500Y-111297870D01*
X113274501Y-111297876D01*
X113280908Y-111357483D01*
X113331202Y-111492328D01*
X113331206Y-111492335D01*
X113417452Y-111607544D01*
X113417455Y-111607547D01*
X113532664Y-111693793D01*
X113532671Y-111693797D01*
X113577618Y-111710561D01*
X113667517Y-111744091D01*
X113727127Y-111750500D01*
X113775389Y-111750499D01*
X113842426Y-111770182D01*
X113888182Y-111822985D01*
X113889950Y-111827046D01*
X113923534Y-111908125D01*
X113994726Y-112014673D01*
X113994727Y-112014674D01*
X116813181Y-114833127D01*
X116846666Y-114894450D01*
X116849500Y-114920808D01*
X116849500Y-124679191D01*
X116829815Y-124746230D01*
X116813181Y-124766872D01*
X116794727Y-124785325D01*
X116794724Y-124785328D01*
X116768528Y-124824533D01*
X116768529Y-124824534D01*
X116723534Y-124891874D01*
X116674499Y-125010255D01*
X116674497Y-125010261D01*
X116649500Y-125135928D01*
X116649500Y-125479191D01*
X116629815Y-125546230D01*
X116613181Y-125566872D01*
X115946371Y-126233681D01*
X115885048Y-126267166D01*
X115858690Y-126270000D01*
X114973012Y-126270000D01*
X115005925Y-126212993D01*
X115040000Y-126085826D01*
X115040000Y-125954174D01*
X115005925Y-125827007D01*
X114973012Y-125770000D01*
X115867231Y-125770000D01*
X115856757Y-125703873D01*
X115856757Y-125703870D01*
X115791095Y-125501782D01*
X115694620Y-125312442D01*
X115569727Y-125140540D01*
X115569723Y-125140535D01*
X115419464Y-124990276D01*
X115419459Y-124990272D01*
X115247555Y-124865377D01*
X115238500Y-124860763D01*
X115187706Y-124812788D01*
X115170912Y-124744966D01*
X115193451Y-124678832D01*
X115238508Y-124639793D01*
X115247816Y-124635051D01*
X115327007Y-124577515D01*
X115419786Y-124510109D01*
X115419788Y-124510106D01*
X115419792Y-124510104D01*
X115570104Y-124359792D01*
X115570106Y-124359788D01*
X115570109Y-124359786D01*
X115695048Y-124187820D01*
X115695047Y-124187820D01*
X115695051Y-124187816D01*
X115791557Y-123998412D01*
X115857246Y-123796243D01*
X115890500Y-123586287D01*
X115890500Y-123373713D01*
X115857246Y-123163757D01*
X115791557Y-122961588D01*
X115695051Y-122772184D01*
X115695049Y-122772181D01*
X115695048Y-122772179D01*
X115570109Y-122600213D01*
X115419786Y-122449890D01*
X115247820Y-122324951D01*
X115247115Y-122324591D01*
X115239054Y-122320485D01*
X115188259Y-122272512D01*
X115171463Y-122204692D01*
X115193999Y-122138556D01*
X115239054Y-122099515D01*
X115247816Y-122095051D01*
X115315569Y-122045826D01*
X115419786Y-121970109D01*
X115419788Y-121970106D01*
X115419792Y-121970104D01*
X115570104Y-121819792D01*
X115570106Y-121819788D01*
X115570109Y-121819786D01*
X115695048Y-121647820D01*
X115695047Y-121647820D01*
X115695051Y-121647816D01*
X115791557Y-121458412D01*
X115857246Y-121256243D01*
X115890500Y-121046287D01*
X115890500Y-120833713D01*
X115857246Y-120623757D01*
X115791557Y-120421588D01*
X115695051Y-120232184D01*
X115695049Y-120232181D01*
X115695048Y-120232179D01*
X115570109Y-120060213D01*
X115419786Y-119909890D01*
X115247820Y-119784951D01*
X115247115Y-119784591D01*
X115239054Y-119780485D01*
X115188259Y-119732512D01*
X115171463Y-119664692D01*
X115193999Y-119598556D01*
X115239054Y-119559515D01*
X115247816Y-119555051D01*
X115269789Y-119539086D01*
X115419786Y-119430109D01*
X115419788Y-119430106D01*
X115419792Y-119430104D01*
X115570104Y-119279792D01*
X115570106Y-119279788D01*
X115570109Y-119279786D01*
X115695048Y-119107820D01*
X115695047Y-119107820D01*
X115695051Y-119107816D01*
X115791557Y-118918412D01*
X115857246Y-118716243D01*
X115890500Y-118506287D01*
X115890500Y-118293713D01*
X115857246Y-118083757D01*
X115791557Y-117881588D01*
X115695051Y-117692184D01*
X115695049Y-117692181D01*
X115695048Y-117692179D01*
X115570109Y-117520213D01*
X115419786Y-117369890D01*
X115247820Y-117244951D01*
X115247115Y-117244591D01*
X115239054Y-117240485D01*
X115188259Y-117192512D01*
X115171463Y-117124692D01*
X115193999Y-117058556D01*
X115239054Y-117019515D01*
X115247816Y-117015051D01*
X115269789Y-116999086D01*
X115419786Y-116890109D01*
X115419788Y-116890106D01*
X115419792Y-116890104D01*
X115570104Y-116739792D01*
X115570106Y-116739788D01*
X115570109Y-116739786D01*
X115695048Y-116567820D01*
X115695047Y-116567820D01*
X115695051Y-116567816D01*
X115791557Y-116378412D01*
X115857246Y-116176243D01*
X115890500Y-115966287D01*
X115890500Y-115753713D01*
X115857246Y-115543757D01*
X115791557Y-115341588D01*
X115695051Y-115152184D01*
X115695049Y-115152181D01*
X115695048Y-115152179D01*
X115570109Y-114980213D01*
X115419786Y-114829890D01*
X115247820Y-114704951D01*
X115058414Y-114608444D01*
X115058413Y-114608443D01*
X115058412Y-114608443D01*
X114856243Y-114542754D01*
X114856241Y-114542753D01*
X114856240Y-114542753D01*
X114694957Y-114517208D01*
X114646287Y-114509500D01*
X114433713Y-114509500D01*
X114385042Y-114517208D01*
X114223760Y-114542753D01*
X114021585Y-114608444D01*
X113832179Y-114704951D01*
X113660215Y-114829889D01*
X113546673Y-114943431D01*
X113485350Y-114976915D01*
X113415658Y-114971931D01*
X113359725Y-114930059D01*
X113342810Y-114899082D01*
X113293797Y-114767671D01*
X113293793Y-114767664D01*
X113207547Y-114652455D01*
X113207544Y-114652452D01*
X113092335Y-114566206D01*
X113092328Y-114566202D01*
X112957482Y-114515908D01*
X112957483Y-114515908D01*
X112897883Y-114509501D01*
X112897881Y-114509500D01*
X112897873Y-114509500D01*
X112897864Y-114509500D01*
X111102129Y-114509500D01*
X111102123Y-114509501D01*
X111042516Y-114515908D01*
X110907671Y-114566202D01*
X110907664Y-114566206D01*
X110792455Y-114652452D01*
X110792452Y-114652455D01*
X110706206Y-114767664D01*
X110706202Y-114767671D01*
X110655908Y-114902517D01*
X110649501Y-114962116D01*
X110649500Y-114962135D01*
X110649500Y-116757870D01*
X110649501Y-116757876D01*
X110655908Y-116817483D01*
X110706202Y-116952328D01*
X110706206Y-116952335D01*
X110792452Y-117067544D01*
X110792455Y-117067547D01*
X110907664Y-117153793D01*
X110907671Y-117153797D01*
X111039082Y-117202810D01*
X111095016Y-117244681D01*
X111119433Y-117310145D01*
X111104582Y-117378418D01*
X111083431Y-117406673D01*
X110969889Y-117520215D01*
X110844951Y-117692179D01*
X110748444Y-117881585D01*
X110682753Y-118083760D01*
X110658886Y-118234450D01*
X110649500Y-118293713D01*
X110649500Y-118506287D01*
X110682754Y-118716243D01*
X110730763Y-118864000D01*
X110748444Y-118918414D01*
X110844951Y-119107820D01*
X110969890Y-119279786D01*
X111120213Y-119430109D01*
X111292182Y-119555050D01*
X111300946Y-119559516D01*
X111351742Y-119607491D01*
X111368536Y-119675312D01*
X111345998Y-119741447D01*
X111300946Y-119780484D01*
X111292182Y-119784949D01*
X111120213Y-119909890D01*
X110969890Y-120060213D01*
X110844951Y-120232179D01*
X110748444Y-120421585D01*
X110682753Y-120623760D01*
X110649500Y-120833713D01*
X110649500Y-121046286D01*
X110677884Y-121225500D01*
X110682754Y-121256243D01*
X110732104Y-121408127D01*
X110748444Y-121458414D01*
X110844951Y-121647820D01*
X110969890Y-121819786D01*
X111120213Y-121970109D01*
X111292182Y-122095050D01*
X111300946Y-122099516D01*
X111351742Y-122147491D01*
X111368536Y-122215312D01*
X111345998Y-122281447D01*
X111300946Y-122320484D01*
X111292182Y-122324949D01*
X111120213Y-122449890D01*
X110969890Y-122600213D01*
X110844951Y-122772179D01*
X110748444Y-122961585D01*
X110682753Y-123163760D01*
X110658834Y-123314780D01*
X110649500Y-123373713D01*
X110649500Y-123586287D01*
X110682754Y-123796243D01*
X110696448Y-123838390D01*
X110748444Y-123998414D01*
X110844951Y-124187820D01*
X110969890Y-124359786D01*
X111120213Y-124510109D01*
X111292179Y-124635048D01*
X111292181Y-124635049D01*
X111292184Y-124635051D01*
X111301493Y-124639794D01*
X111352290Y-124687766D01*
X111369087Y-124755587D01*
X111346552Y-124821722D01*
X111301502Y-124860762D01*
X111292443Y-124865378D01*
X111120540Y-124990272D01*
X111120535Y-124990276D01*
X110970276Y-125140535D01*
X110970272Y-125140540D01*
X110845379Y-125312442D01*
X110748904Y-125501782D01*
X110683242Y-125703870D01*
X110683242Y-125703873D01*
X110672769Y-125770000D01*
X111566988Y-125770000D01*
X111534075Y-125827007D01*
X111500000Y-125954174D01*
X111500000Y-126085826D01*
X111534075Y-126212993D01*
X111566988Y-126270000D01*
X110672769Y-126270000D01*
X110683242Y-126336126D01*
X110683242Y-126336129D01*
X110748904Y-126538217D01*
X110845379Y-126727557D01*
X110970272Y-126899459D01*
X110970276Y-126899464D01*
X111120535Y-127049723D01*
X111120540Y-127049727D01*
X111292444Y-127174622D01*
X111301495Y-127179234D01*
X111352292Y-127227208D01*
X111369087Y-127295029D01*
X111346550Y-127361164D01*
X111301499Y-127400202D01*
X111292182Y-127404949D01*
X111120213Y-127529890D01*
X110969890Y-127680213D01*
X110844951Y-127852179D01*
X110748444Y-128041585D01*
X110682753Y-128243760D01*
X110649500Y-128453713D01*
X110649500Y-128666286D01*
X110681468Y-128868127D01*
X110682754Y-128876243D01*
X110736929Y-129042977D01*
X110748444Y-129078414D01*
X110844951Y-129267820D01*
X110969890Y-129439786D01*
X111120213Y-129590109D01*
X111292179Y-129715048D01*
X111292181Y-129715049D01*
X111292184Y-129715051D01*
X111481588Y-129811557D01*
X111683757Y-129877246D01*
X111893713Y-129910500D01*
X111893714Y-129910500D01*
X112106286Y-129910500D01*
X112106287Y-129910500D01*
X112316243Y-129877246D01*
X112518412Y-129811557D01*
X112707816Y-129715051D01*
X112729789Y-129699086D01*
X112879786Y-129590109D01*
X112879788Y-129590106D01*
X112879792Y-129590104D01*
X113030104Y-129439792D01*
X113030106Y-129439788D01*
X113030109Y-129439786D01*
X113155048Y-129267820D01*
X113155047Y-129267820D01*
X113155051Y-129267816D01*
X113159514Y-129259055D01*
X113207488Y-129208259D01*
X113275308Y-129191463D01*
X113341444Y-129213999D01*
X113380486Y-129259056D01*
X113384951Y-129267820D01*
X113509890Y-129439786D01*
X113660213Y-129590109D01*
X113832179Y-129715048D01*
X113832181Y-129715049D01*
X113832184Y-129715051D01*
X114021588Y-129811557D01*
X114223757Y-129877246D01*
X114433713Y-129910500D01*
X114433714Y-129910500D01*
X114646286Y-129910500D01*
X114646287Y-129910500D01*
X114756111Y-129893105D01*
X114861055Y-129876484D01*
X114861315Y-129878128D01*
X114923852Y-129881250D01*
X114970711Y-129910657D01*
X116313181Y-131253127D01*
X116346666Y-131314450D01*
X116349500Y-131340808D01*
X116349500Y-148639191D01*
X116329815Y-148706230D01*
X116313181Y-148726872D01*
X115946372Y-149093681D01*
X115885049Y-149127166D01*
X115858691Y-149130000D01*
X114973012Y-149130000D01*
X115005925Y-149072993D01*
X115040000Y-148945826D01*
X115040000Y-148814174D01*
X115005925Y-148687007D01*
X114973012Y-148630000D01*
X115867231Y-148630000D01*
X115856757Y-148563873D01*
X115856757Y-148563870D01*
X115791095Y-148361782D01*
X115694620Y-148172442D01*
X115569727Y-148000540D01*
X115569723Y-148000535D01*
X115419464Y-147850276D01*
X115419459Y-147850272D01*
X115247555Y-147725377D01*
X115238500Y-147720763D01*
X115187706Y-147672788D01*
X115170912Y-147604966D01*
X115193451Y-147538832D01*
X115238508Y-147499793D01*
X115247816Y-147495051D01*
X115327007Y-147437515D01*
X115419786Y-147370109D01*
X115419788Y-147370106D01*
X115419792Y-147370104D01*
X115570104Y-147219792D01*
X115570106Y-147219788D01*
X115570109Y-147219786D01*
X115695048Y-147047820D01*
X115695047Y-147047820D01*
X115695051Y-147047816D01*
X115791557Y-146858412D01*
X115857246Y-146656243D01*
X115890500Y-146446287D01*
X115890500Y-146233713D01*
X115857246Y-146023757D01*
X115791557Y-145821588D01*
X115695051Y-145632184D01*
X115695049Y-145632181D01*
X115695048Y-145632179D01*
X115570109Y-145460213D01*
X115419786Y-145309890D01*
X115247820Y-145184951D01*
X115247115Y-145184591D01*
X115239054Y-145180485D01*
X115188259Y-145132512D01*
X115171463Y-145064692D01*
X115193999Y-144998556D01*
X115239054Y-144959515D01*
X115247816Y-144955051D01*
X115269789Y-144939086D01*
X115419786Y-144830109D01*
X115419788Y-144830106D01*
X115419792Y-144830104D01*
X115570104Y-144679792D01*
X115570106Y-144679788D01*
X115570109Y-144679786D01*
X115695048Y-144507820D01*
X115695047Y-144507820D01*
X115695051Y-144507816D01*
X115791557Y-144318412D01*
X115857246Y-144116243D01*
X115890500Y-143906287D01*
X115890500Y-143693713D01*
X115857246Y-143483757D01*
X115791557Y-143281588D01*
X115695051Y-143092184D01*
X115695049Y-143092181D01*
X115695048Y-143092179D01*
X115570109Y-142920213D01*
X115419786Y-142769890D01*
X115247820Y-142644951D01*
X115247115Y-142644591D01*
X115239054Y-142640485D01*
X115188259Y-142592512D01*
X115171463Y-142524692D01*
X115193999Y-142458556D01*
X115239054Y-142419515D01*
X115247816Y-142415051D01*
X115269789Y-142399086D01*
X115419786Y-142290109D01*
X115419788Y-142290106D01*
X115419792Y-142290104D01*
X115570104Y-142139792D01*
X115570106Y-142139788D01*
X115570109Y-142139786D01*
X115695048Y-141967820D01*
X115695047Y-141967820D01*
X115695051Y-141967816D01*
X115791557Y-141778412D01*
X115857246Y-141576243D01*
X115890500Y-141366287D01*
X115890500Y-141153713D01*
X115857246Y-140943757D01*
X115791557Y-140741588D01*
X115695051Y-140552184D01*
X115695049Y-140552181D01*
X115695048Y-140552179D01*
X115570109Y-140380213D01*
X115419786Y-140229890D01*
X115247820Y-140104951D01*
X115247115Y-140104591D01*
X115239054Y-140100485D01*
X115188259Y-140052512D01*
X115171463Y-139984692D01*
X115193999Y-139918556D01*
X115239054Y-139879515D01*
X115247816Y-139875051D01*
X115334138Y-139812335D01*
X115419786Y-139750109D01*
X115419788Y-139750106D01*
X115419792Y-139750104D01*
X115570104Y-139599792D01*
X115570106Y-139599788D01*
X115570109Y-139599786D01*
X115695048Y-139427820D01*
X115695047Y-139427820D01*
X115695051Y-139427816D01*
X115791557Y-139238412D01*
X115857246Y-139036243D01*
X115890500Y-138826287D01*
X115890500Y-138613713D01*
X115857246Y-138403757D01*
X115791557Y-138201588D01*
X115695051Y-138012184D01*
X115695049Y-138012181D01*
X115695048Y-138012179D01*
X115570109Y-137840213D01*
X115419786Y-137689890D01*
X115247820Y-137564951D01*
X115058414Y-137468444D01*
X115058413Y-137468443D01*
X115058412Y-137468443D01*
X114856243Y-137402754D01*
X114856241Y-137402753D01*
X114856240Y-137402753D01*
X114694957Y-137377208D01*
X114646287Y-137369500D01*
X114433713Y-137369500D01*
X114385042Y-137377208D01*
X114223760Y-137402753D01*
X114021585Y-137468444D01*
X113832179Y-137564951D01*
X113660215Y-137689889D01*
X113546673Y-137803431D01*
X113485350Y-137836915D01*
X113415658Y-137831931D01*
X113359725Y-137790059D01*
X113342810Y-137759082D01*
X113293797Y-137627671D01*
X113293793Y-137627664D01*
X113207547Y-137512455D01*
X113207544Y-137512452D01*
X113092335Y-137426206D01*
X113092328Y-137426202D01*
X112957482Y-137375908D01*
X112957483Y-137375908D01*
X112897883Y-137369501D01*
X112897881Y-137369500D01*
X112897873Y-137369500D01*
X112897864Y-137369500D01*
X111102129Y-137369500D01*
X111102123Y-137369501D01*
X111042516Y-137375908D01*
X110907671Y-137426202D01*
X110907664Y-137426206D01*
X110792455Y-137512452D01*
X110792452Y-137512455D01*
X110706206Y-137627664D01*
X110706202Y-137627671D01*
X110655908Y-137762517D01*
X110649501Y-137822116D01*
X110649500Y-137822135D01*
X110649500Y-139617870D01*
X110649501Y-139617876D01*
X110655908Y-139677483D01*
X110706202Y-139812328D01*
X110706206Y-139812335D01*
X110792452Y-139927544D01*
X110792455Y-139927547D01*
X110907664Y-140013793D01*
X110907671Y-140013797D01*
X111039082Y-140062810D01*
X111095016Y-140104681D01*
X111119433Y-140170145D01*
X111104582Y-140238418D01*
X111083431Y-140266673D01*
X110969889Y-140380215D01*
X110844951Y-140552179D01*
X110748444Y-140741585D01*
X110682753Y-140943760D01*
X110649500Y-141153713D01*
X110649500Y-141366286D01*
X110682753Y-141576239D01*
X110748444Y-141778414D01*
X110844951Y-141967820D01*
X110969890Y-142139786D01*
X111120213Y-142290109D01*
X111292182Y-142415050D01*
X111300946Y-142419516D01*
X111351742Y-142467491D01*
X111368536Y-142535312D01*
X111345998Y-142601447D01*
X111300946Y-142640484D01*
X111292182Y-142644949D01*
X111120213Y-142769890D01*
X110969890Y-142920213D01*
X110844951Y-143092179D01*
X110748444Y-143281585D01*
X110682753Y-143483760D01*
X110649500Y-143693713D01*
X110649500Y-143906286D01*
X110682753Y-144116239D01*
X110748444Y-144318414D01*
X110844951Y-144507820D01*
X110969890Y-144679786D01*
X111120213Y-144830109D01*
X111292182Y-144955050D01*
X111300946Y-144959516D01*
X111351742Y-145007491D01*
X111368536Y-145075312D01*
X111345998Y-145141447D01*
X111300946Y-145180484D01*
X111292182Y-145184949D01*
X111120213Y-145309890D01*
X110969890Y-145460213D01*
X110844951Y-145632179D01*
X110748444Y-145821585D01*
X110682753Y-146023760D01*
X110649500Y-146233713D01*
X110649500Y-146446287D01*
X110682754Y-146656243D01*
X110727693Y-146794551D01*
X110748444Y-146858414D01*
X110844951Y-147047820D01*
X110969890Y-147219786D01*
X111120213Y-147370109D01*
X111292179Y-147495048D01*
X111292181Y-147495049D01*
X111292184Y-147495051D01*
X111301493Y-147499794D01*
X111352290Y-147547766D01*
X111369087Y-147615587D01*
X111346552Y-147681722D01*
X111301502Y-147720762D01*
X111292443Y-147725378D01*
X111120540Y-147850272D01*
X111120535Y-147850276D01*
X110970276Y-148000535D01*
X110970272Y-148000540D01*
X110845379Y-148172442D01*
X110748904Y-148361782D01*
X110683242Y-148563870D01*
X110683242Y-148563873D01*
X110672769Y-148630000D01*
X111566988Y-148630000D01*
X111534075Y-148687007D01*
X111500000Y-148814174D01*
X111500000Y-148945826D01*
X111534075Y-149072993D01*
X111566988Y-149130000D01*
X110672769Y-149130000D01*
X110683242Y-149196126D01*
X110683242Y-149196129D01*
X110748904Y-149398217D01*
X110845379Y-149587557D01*
X110970272Y-149759459D01*
X110970276Y-149759464D01*
X111120535Y-149909723D01*
X111120540Y-149909727D01*
X111292444Y-150034622D01*
X111301495Y-150039234D01*
X111352292Y-150087208D01*
X111369087Y-150155029D01*
X111346550Y-150221164D01*
X111301499Y-150260202D01*
X111292182Y-150264949D01*
X111120213Y-150389890D01*
X110969890Y-150540213D01*
X110844951Y-150712179D01*
X110748444Y-150901585D01*
X110682753Y-151103760D01*
X110649500Y-151313713D01*
X110649500Y-151526286D01*
X110682753Y-151736239D01*
X110748444Y-151938414D01*
X110844951Y-152127820D01*
X110969890Y-152299786D01*
X111120213Y-152450109D01*
X111292179Y-152575048D01*
X111292181Y-152575049D01*
X111292184Y-152575051D01*
X111481588Y-152671557D01*
X111683757Y-152737246D01*
X111893713Y-152770500D01*
X111893714Y-152770500D01*
X112106286Y-152770500D01*
X112106287Y-152770500D01*
X112316243Y-152737246D01*
X112518412Y-152671557D01*
X112707816Y-152575051D01*
X112729789Y-152559086D01*
X112879786Y-152450109D01*
X112879788Y-152450106D01*
X112879792Y-152450104D01*
X113030104Y-152299792D01*
X113030106Y-152299788D01*
X113030109Y-152299786D01*
X113155048Y-152127820D01*
X113155047Y-152127820D01*
X113155051Y-152127816D01*
X113159514Y-152119055D01*
X113207488Y-152068259D01*
X113275308Y-152051463D01*
X113341444Y-152073999D01*
X113380486Y-152119056D01*
X113384951Y-152127820D01*
X113509890Y-152299786D01*
X113660213Y-152450109D01*
X113832179Y-152575048D01*
X113832181Y-152575049D01*
X113832184Y-152575051D01*
X114021588Y-152671557D01*
X114223757Y-152737246D01*
X114433713Y-152770500D01*
X114433714Y-152770500D01*
X114646286Y-152770500D01*
X114646287Y-152770500D01*
X114856243Y-152737246D01*
X115058412Y-152671557D01*
X115247816Y-152575051D01*
X115269789Y-152559086D01*
X115419786Y-152450109D01*
X115419788Y-152450106D01*
X115419792Y-152450104D01*
X115570104Y-152299792D01*
X115570106Y-152299788D01*
X115570109Y-152299786D01*
X115695048Y-152127820D01*
X115695047Y-152127820D01*
X115695051Y-152127816D01*
X115791557Y-151938412D01*
X115857246Y-151736243D01*
X115890500Y-151526287D01*
X115890500Y-151313713D01*
X115858749Y-151113246D01*
X115856484Y-151098945D01*
X115858123Y-151098685D01*
X115861257Y-151036126D01*
X115890655Y-150989289D01*
X117505276Y-149374670D01*
X117576465Y-149268127D01*
X117625501Y-149149744D01*
X117650500Y-149024069D01*
X117650500Y-130955931D01*
X117650500Y-130955928D01*
X117625502Y-130830261D01*
X117625501Y-130830260D01*
X117625501Y-130830256D01*
X117590826Y-130746544D01*
X117576464Y-130711870D01*
X117505277Y-130605331D01*
X117505271Y-130605324D01*
X115890657Y-128990711D01*
X115857172Y-128929388D01*
X115857689Y-128881245D01*
X115856484Y-128881055D01*
X115890500Y-128666286D01*
X115890500Y-128453713D01*
X115856484Y-128238945D01*
X115858123Y-128238685D01*
X115861257Y-128176126D01*
X115890655Y-128129289D01*
X117805276Y-126214670D01*
X117876465Y-126108127D01*
X117925501Y-125989744D01*
X117950500Y-125864069D01*
X117950500Y-125520808D01*
X117970185Y-125453769D01*
X117986821Y-125433125D01*
X118005273Y-125414673D01*
X118005277Y-125414669D01*
X118076465Y-125308127D01*
X118125501Y-125189743D01*
X118128534Y-125174499D01*
X118134071Y-125146666D01*
X118150499Y-125064073D01*
X118150500Y-125064071D01*
X118150500Y-114535928D01*
X118125502Y-114410261D01*
X118125501Y-114410260D01*
X118125501Y-114410256D01*
X118076465Y-114291873D01*
X118039086Y-114235931D01*
X118039085Y-114235929D01*
X118039084Y-114235927D01*
X118005280Y-114185336D01*
X118005277Y-114185331D01*
X115702090Y-111882144D01*
X115668605Y-111820821D01*
X115673589Y-111751129D01*
X115715460Y-111695196D01*
X115717329Y-111693796D01*
X115717331Y-111693796D01*
X115832546Y-111607546D01*
X115918796Y-111492331D01*
X115967810Y-111360916D01*
X116009681Y-111304984D01*
X116075145Y-111280566D01*
X116143418Y-111295417D01*
X116171673Y-111316569D01*
X116285213Y-111430109D01*
X116457179Y-111555048D01*
X116457181Y-111555049D01*
X116457184Y-111555051D01*
X116646588Y-111651557D01*
X116848757Y-111717246D01*
X117058713Y-111750500D01*
X117058714Y-111750500D01*
X117271286Y-111750500D01*
X117271287Y-111750500D01*
X117481243Y-111717246D01*
X117683412Y-111651557D01*
X117872816Y-111555051D01*
X117894789Y-111539086D01*
X118044786Y-111430109D01*
X118044788Y-111430106D01*
X118044792Y-111430104D01*
X118195104Y-111279792D01*
X118195106Y-111279788D01*
X118195109Y-111279786D01*
X118299128Y-111136615D01*
X118354457Y-111093949D01*
X118399446Y-111085500D01*
X123932312Y-111085500D01*
X123999351Y-111105185D01*
X124045106Y-111157989D01*
X124055050Y-111227147D01*
X124042797Y-111265795D01*
X124014781Y-111320776D01*
X123951522Y-111515465D01*
X123919500Y-111717648D01*
X123919500Y-111922351D01*
X123951522Y-112124534D01*
X124014781Y-112319223D01*
X124107715Y-112501613D01*
X124228028Y-112667213D01*
X124372786Y-112811971D01*
X124527749Y-112924556D01*
X124538390Y-112932287D01*
X124629840Y-112978883D01*
X124631080Y-112979515D01*
X124681876Y-113027490D01*
X124698671Y-113095311D01*
X124676134Y-113161446D01*
X124631080Y-113200485D01*
X124538386Y-113247715D01*
X124372786Y-113368028D01*
X124228028Y-113512786D01*
X124107715Y-113678386D01*
X124014781Y-113860776D01*
X123951522Y-114055465D01*
X123919500Y-114257648D01*
X123919500Y-114462351D01*
X123951522Y-114664534D01*
X124014781Y-114859223D01*
X124057688Y-114943431D01*
X124107101Y-115040409D01*
X124107715Y-115041613D01*
X124228028Y-115207213D01*
X124372786Y-115351971D01*
X124527749Y-115464556D01*
X124538390Y-115472287D01*
X124595722Y-115501499D01*
X124631080Y-115519515D01*
X124681876Y-115567490D01*
X124698671Y-115635311D01*
X124676134Y-115701446D01*
X124631080Y-115740485D01*
X124538386Y-115787715D01*
X124372786Y-115908028D01*
X124228028Y-116052786D01*
X124107715Y-116218386D01*
X124014781Y-116400776D01*
X123951522Y-116595465D01*
X123919500Y-116797648D01*
X123919500Y-117002351D01*
X123951522Y-117204534D01*
X124014781Y-117399223D01*
X124060242Y-117488443D01*
X124107140Y-117580486D01*
X124107715Y-117581613D01*
X124228028Y-117747213D01*
X124372786Y-117891971D01*
X124527749Y-118004556D01*
X124538390Y-118012287D01*
X124629840Y-118058883D01*
X124631080Y-118059515D01*
X124681876Y-118107490D01*
X124698671Y-118175311D01*
X124676134Y-118241446D01*
X124631080Y-118280485D01*
X124538386Y-118327715D01*
X124372786Y-118448028D01*
X124228028Y-118592786D01*
X124107715Y-118758386D01*
X124014781Y-118940776D01*
X123951522Y-119135465D01*
X123919500Y-119337648D01*
X123919500Y-119542351D01*
X123951522Y-119744534D01*
X124014781Y-119939223D01*
X124076206Y-120059774D01*
X124091606Y-120089999D01*
X124107715Y-120121613D01*
X124228028Y-120287213D01*
X124372786Y-120431971D01*
X124538388Y-120552286D01*
X124538390Y-120552287D01*
X124624294Y-120596057D01*
X124675090Y-120644031D01*
X124691886Y-120711852D01*
X124669349Y-120777987D01*
X124626455Y-120815899D01*
X124560494Y-120851157D01*
X124560489Y-120851160D01*
X124491086Y-120897532D01*
X124491085Y-120897533D01*
X125090590Y-121497037D01*
X125027007Y-121514075D01*
X124912993Y-121579901D01*
X124819901Y-121672993D01*
X124754075Y-121787007D01*
X124737037Y-121850589D01*
X124137533Y-121251085D01*
X124137532Y-121251086D01*
X124091161Y-121320488D01*
X124044490Y-121407801D01*
X123984185Y-121553387D01*
X123955444Y-121648135D01*
X123924701Y-121802697D01*
X123924701Y-121802700D01*
X123915000Y-121901210D01*
X123915000Y-122058789D01*
X123924701Y-122157299D01*
X123924701Y-122157302D01*
X123955444Y-122311864D01*
X123984185Y-122406612D01*
X124044490Y-122552198D01*
X124091158Y-122639506D01*
X124137533Y-122708912D01*
X124137534Y-122708913D01*
X124737037Y-122109409D01*
X124754075Y-122172993D01*
X124819901Y-122287007D01*
X124912993Y-122380099D01*
X125027007Y-122445925D01*
X125090590Y-122462962D01*
X124491085Y-123062465D01*
X124560493Y-123108841D01*
X124626454Y-123144099D01*
X124676298Y-123193062D01*
X124691758Y-123261200D01*
X124667926Y-123326879D01*
X124624295Y-123363942D01*
X124538386Y-123407715D01*
X124372786Y-123528028D01*
X124228028Y-123672786D01*
X124107715Y-123838386D01*
X124014781Y-124020776D01*
X123951522Y-124215465D01*
X123919500Y-124417648D01*
X123919500Y-124622352D01*
X123939121Y-124746230D01*
X123951523Y-124824534D01*
X123951522Y-124824534D01*
X124014781Y-125019223D01*
X124074246Y-125135928D01*
X124101666Y-125189743D01*
X124107715Y-125201613D01*
X124228028Y-125367213D01*
X124372786Y-125511971D01*
X124521342Y-125619901D01*
X124538390Y-125632287D01*
X124629840Y-125678883D01*
X124631080Y-125679515D01*
X124681876Y-125727490D01*
X124698671Y-125795311D01*
X124676134Y-125861446D01*
X124631080Y-125900485D01*
X124538386Y-125947715D01*
X124372786Y-126068028D01*
X124228028Y-126212786D01*
X124107715Y-126378386D01*
X124014781Y-126560776D01*
X123951522Y-126755465D01*
X123919500Y-126957648D01*
X123919500Y-127162351D01*
X123951522Y-127364534D01*
X124014781Y-127559223D01*
X124107715Y-127741613D01*
X124228028Y-127907213D01*
X124372786Y-128051971D01*
X124479205Y-128129287D01*
X124538390Y-128172287D01*
X124629840Y-128218883D01*
X124631080Y-128219515D01*
X124681876Y-128267490D01*
X124698671Y-128335311D01*
X124676134Y-128401446D01*
X124631080Y-128440485D01*
X124538386Y-128487715D01*
X124372786Y-128608028D01*
X124228028Y-128752786D01*
X124107715Y-128918386D01*
X124014781Y-129100776D01*
X123951522Y-129295465D01*
X123919500Y-129497648D01*
X123919500Y-129702351D01*
X123951522Y-129904534D01*
X124014781Y-130099223D01*
X124107715Y-130281613D01*
X124228028Y-130447213D01*
X124372786Y-130591971D01*
X124527749Y-130704556D01*
X124538390Y-130712287D01*
X124629840Y-130758883D01*
X124631080Y-130759515D01*
X124681876Y-130807490D01*
X124698671Y-130875311D01*
X124676134Y-130941446D01*
X124631080Y-130980485D01*
X124538386Y-131027715D01*
X124372786Y-131148028D01*
X124228028Y-131292786D01*
X124107715Y-131458386D01*
X124014781Y-131640776D01*
X123951522Y-131835465D01*
X123919500Y-132037648D01*
X123919500Y-132242351D01*
X123951522Y-132444534D01*
X124014781Y-132639223D01*
X124107715Y-132821613D01*
X124228028Y-132987213D01*
X124372786Y-133131971D01*
X124538388Y-133252286D01*
X124538390Y-133252287D01*
X124624294Y-133296057D01*
X124675090Y-133344031D01*
X124691886Y-133411852D01*
X124669349Y-133477987D01*
X124626455Y-133515899D01*
X124560494Y-133551157D01*
X124560489Y-133551160D01*
X124491086Y-133597532D01*
X124491085Y-133597533D01*
X125090590Y-134197037D01*
X125027007Y-134214075D01*
X124912993Y-134279901D01*
X124819901Y-134372993D01*
X124754075Y-134487007D01*
X124737037Y-134550589D01*
X124137533Y-133951085D01*
X124137532Y-133951086D01*
X124091161Y-134020488D01*
X124044490Y-134107801D01*
X123984185Y-134253387D01*
X123955444Y-134348135D01*
X123924701Y-134502697D01*
X123924701Y-134502700D01*
X123915000Y-134601210D01*
X123915000Y-134758789D01*
X123924701Y-134857299D01*
X123924701Y-134857302D01*
X123955444Y-135011864D01*
X123984185Y-135106612D01*
X124044490Y-135252198D01*
X124091158Y-135339506D01*
X124137533Y-135408912D01*
X124137534Y-135408913D01*
X124737037Y-134809409D01*
X124754075Y-134872993D01*
X124819901Y-134987007D01*
X124912993Y-135080099D01*
X125027007Y-135145925D01*
X125090590Y-135162962D01*
X124491085Y-135762465D01*
X124560493Y-135808841D01*
X124626454Y-135844099D01*
X124676298Y-135893062D01*
X124691758Y-135961200D01*
X124667926Y-136026879D01*
X124624295Y-136063942D01*
X124538386Y-136107715D01*
X124372786Y-136228028D01*
X124228028Y-136372786D01*
X124107715Y-136538386D01*
X124014781Y-136720776D01*
X123951522Y-136915465D01*
X123919500Y-137117648D01*
X123919500Y-137322351D01*
X123951522Y-137524534D01*
X124014781Y-137719223D01*
X124107715Y-137901613D01*
X124228028Y-138067213D01*
X124372786Y-138211971D01*
X124527749Y-138324556D01*
X124538390Y-138332287D01*
X124629840Y-138378883D01*
X124631080Y-138379515D01*
X124681876Y-138427490D01*
X124698671Y-138495311D01*
X124676134Y-138561446D01*
X124631080Y-138600485D01*
X124538386Y-138647715D01*
X124372786Y-138768028D01*
X124228028Y-138912786D01*
X124107715Y-139078386D01*
X124014781Y-139260776D01*
X123951522Y-139455465D01*
X123919500Y-139657648D01*
X123919500Y-139862351D01*
X123951522Y-140064534D01*
X124014781Y-140259223D01*
X124107715Y-140441613D01*
X124228028Y-140607213D01*
X124372786Y-140751971D01*
X124527749Y-140864556D01*
X124538390Y-140872287D01*
X124654607Y-140931503D01*
X124720776Y-140965218D01*
X124720778Y-140965218D01*
X124720781Y-140965220D01*
X124825137Y-140999127D01*
X124915465Y-141028477D01*
X125016557Y-141044488D01*
X125117648Y-141060500D01*
X125117649Y-141060500D01*
X125322351Y-141060500D01*
X125322352Y-141060500D01*
X125524534Y-141028477D01*
X125719219Y-140965220D01*
X125901610Y-140872287D01*
X126003378Y-140798349D01*
X126067213Y-140751971D01*
X126067215Y-140751968D01*
X126067219Y-140751966D01*
X126211966Y-140607219D01*
X126211968Y-140607215D01*
X126211971Y-140607213D01*
X126264732Y-140534590D01*
X126332287Y-140441610D01*
X126425220Y-140259219D01*
X126488477Y-140064534D01*
X126520500Y-139862352D01*
X126520500Y-139657648D01*
X126488477Y-139455466D01*
X126425220Y-139260781D01*
X126425218Y-139260778D01*
X126425218Y-139260776D01*
X126391503Y-139194607D01*
X126332287Y-139078390D01*
X126301663Y-139036239D01*
X126211971Y-138912786D01*
X126067213Y-138768028D01*
X125901614Y-138647715D01*
X125834881Y-138613713D01*
X125808917Y-138600483D01*
X125758123Y-138552511D01*
X125741328Y-138484690D01*
X125763865Y-138418555D01*
X125808917Y-138379516D01*
X125901610Y-138332287D01*
X125922770Y-138316913D01*
X126067213Y-138211971D01*
X126067215Y-138211968D01*
X126067219Y-138211966D01*
X126211966Y-138067219D01*
X126211968Y-138067215D01*
X126211971Y-138067213D01*
X126264732Y-137994590D01*
X126332287Y-137901610D01*
X126425220Y-137719219D01*
X126488477Y-137524534D01*
X126520500Y-137322352D01*
X126520500Y-137117648D01*
X126497098Y-136969895D01*
X127010000Y-136969895D01*
X131662057Y-140582663D01*
X131702931Y-140639327D01*
X131710000Y-140680597D01*
X131710000Y-141630000D01*
X136510000Y-141630000D01*
X136510000Y-140680597D01*
X136529685Y-140613558D01*
X136557941Y-140582664D01*
X141210000Y-136969895D01*
X141210000Y-132630000D01*
X127010000Y-132630000D01*
X127010000Y-136969895D01*
X126497098Y-136969895D01*
X126488477Y-136915466D01*
X126425220Y-136720781D01*
X126425218Y-136720778D01*
X126425218Y-136720776D01*
X126391503Y-136654607D01*
X126332287Y-136538390D01*
X126324556Y-136527749D01*
X126211971Y-136372786D01*
X126067217Y-136228032D01*
X125990415Y-136172232D01*
X125947750Y-136116902D01*
X125941771Y-136047288D01*
X125974377Y-135985494D01*
X126032640Y-135951765D01*
X126053022Y-135946563D01*
X126053035Y-135946559D01*
X126109582Y-135923135D01*
X125349409Y-135162962D01*
X125412993Y-135145925D01*
X125527007Y-135080099D01*
X125620099Y-134987007D01*
X125685925Y-134872993D01*
X125702962Y-134809409D01*
X126463135Y-135569582D01*
X126463137Y-135569582D01*
X126486552Y-135513053D01*
X126504544Y-135462053D01*
X126524999Y-135319780D01*
X126525000Y-135319779D01*
X126525000Y-134040214D01*
X126522106Y-133986237D01*
X126522106Y-133986235D01*
X126486558Y-133846960D01*
X126463136Y-133790415D01*
X126463135Y-133790415D01*
X125702962Y-134550589D01*
X125685925Y-134487007D01*
X125620099Y-134372993D01*
X125527007Y-134279901D01*
X125412993Y-134214075D01*
X125349410Y-134197037D01*
X126109583Y-133436863D01*
X126109583Y-133436862D01*
X126053052Y-133413447D01*
X126053013Y-133413432D01*
X126024375Y-133403329D01*
X125967704Y-133362463D01*
X125942122Y-133297444D01*
X125955754Y-133228917D01*
X125992745Y-133186074D01*
X126067215Y-133131969D01*
X126067215Y-133131968D01*
X126067219Y-133131966D01*
X126211966Y-132987219D01*
X126211968Y-132987215D01*
X126211971Y-132987213D01*
X126264732Y-132914590D01*
X126332287Y-132821610D01*
X126425220Y-132639219D01*
X126488477Y-132444534D01*
X126520500Y-132242352D01*
X126520500Y-132037648D01*
X126488477Y-131835466D01*
X126425220Y-131640781D01*
X126425218Y-131640778D01*
X126425218Y-131640776D01*
X126391503Y-131574607D01*
X126332287Y-131458390D01*
X126324556Y-131447749D01*
X126211971Y-131292786D01*
X126067213Y-131148028D01*
X125901614Y-131027715D01*
X125895006Y-131024348D01*
X125808917Y-130980483D01*
X125758123Y-130932511D01*
X125741328Y-130864690D01*
X125763865Y-130798555D01*
X125808917Y-130759516D01*
X125901610Y-130712287D01*
X126048824Y-130605331D01*
X126067213Y-130591971D01*
X126067215Y-130591968D01*
X126067219Y-130591966D01*
X126211966Y-130447219D01*
X126211968Y-130447215D01*
X126211971Y-130447213D01*
X126264732Y-130374590D01*
X126332287Y-130281610D01*
X126425220Y-130099219D01*
X126488477Y-129904534D01*
X126520500Y-129702352D01*
X126520500Y-129497648D01*
X126488477Y-129295466D01*
X126425220Y-129100781D01*
X126425218Y-129100778D01*
X126425218Y-129100776D01*
X126369136Y-128990711D01*
X126332287Y-128918390D01*
X126295769Y-128868127D01*
X126211971Y-128752786D01*
X126067213Y-128608028D01*
X125901614Y-128487715D01*
X125834881Y-128453713D01*
X125808917Y-128440483D01*
X125758123Y-128392511D01*
X125741328Y-128324690D01*
X125763865Y-128258555D01*
X125808917Y-128219516D01*
X125901610Y-128172287D01*
X125960795Y-128129287D01*
X126067213Y-128051971D01*
X126067215Y-128051968D01*
X126067219Y-128051966D01*
X126211966Y-127907219D01*
X126211968Y-127907215D01*
X126211971Y-127907213D01*
X126264732Y-127834590D01*
X126332287Y-127741610D01*
X126425220Y-127559219D01*
X126488477Y-127364534D01*
X126520500Y-127162352D01*
X126520500Y-126957648D01*
X126488477Y-126755466D01*
X126488476Y-126755464D01*
X126425218Y-126560776D01*
X126369029Y-126450500D01*
X126332287Y-126378390D01*
X126301581Y-126336126D01*
X126211971Y-126212786D01*
X126067213Y-126068028D01*
X125901614Y-125947715D01*
X125895006Y-125944348D01*
X125808917Y-125900483D01*
X125758123Y-125852511D01*
X125741328Y-125784690D01*
X125763865Y-125718555D01*
X125808917Y-125679516D01*
X125901610Y-125632287D01*
X125991647Y-125566872D01*
X126067213Y-125511971D01*
X126067215Y-125511968D01*
X126067219Y-125511966D01*
X126211966Y-125367219D01*
X126211968Y-125367215D01*
X126211971Y-125367213D01*
X126264732Y-125294590D01*
X126332287Y-125201610D01*
X126425220Y-125019219D01*
X126488477Y-124824534D01*
X126520500Y-124622352D01*
X126520500Y-124417648D01*
X126488477Y-124215466D01*
X126425220Y-124020781D01*
X126425218Y-124020778D01*
X126425218Y-124020776D01*
X126384901Y-123941650D01*
X126332287Y-123838390D01*
X126301663Y-123796239D01*
X126211971Y-123672786D01*
X126067217Y-123528032D01*
X125990415Y-123472232D01*
X125947750Y-123416902D01*
X125941771Y-123347288D01*
X125974377Y-123285494D01*
X126032640Y-123251765D01*
X126053022Y-123246563D01*
X126053035Y-123246559D01*
X126109582Y-123223135D01*
X125349409Y-122462962D01*
X125412993Y-122445925D01*
X125527007Y-122380099D01*
X125620099Y-122287007D01*
X125685925Y-122172993D01*
X125702962Y-122109409D01*
X126463135Y-122869582D01*
X126463137Y-122869582D01*
X126486552Y-122813053D01*
X126504544Y-122762053D01*
X126524999Y-122619780D01*
X126525000Y-122619779D01*
X126525000Y-121340214D01*
X126522106Y-121286237D01*
X126522106Y-121286235D01*
X126486558Y-121146960D01*
X126463136Y-121090415D01*
X126463135Y-121090415D01*
X125702962Y-121850589D01*
X125685925Y-121787007D01*
X125620099Y-121672993D01*
X125527007Y-121579901D01*
X125412993Y-121514075D01*
X125349410Y-121497037D01*
X126109583Y-120736863D01*
X126109583Y-120736862D01*
X126053052Y-120713447D01*
X126053013Y-120713432D01*
X126024375Y-120703329D01*
X125967704Y-120662463D01*
X125942122Y-120597444D01*
X125955754Y-120528917D01*
X125992745Y-120486074D01*
X126067215Y-120431969D01*
X126067215Y-120431968D01*
X126067219Y-120431966D01*
X126211966Y-120287219D01*
X126211968Y-120287215D01*
X126211971Y-120287213D01*
X126264732Y-120214590D01*
X126332287Y-120121610D01*
X126425220Y-119939219D01*
X126488477Y-119744534D01*
X126520500Y-119542352D01*
X126520500Y-119337648D01*
X126488477Y-119135466D01*
X126425220Y-118940781D01*
X126425218Y-118940778D01*
X126425218Y-118940776D01*
X126377072Y-118846286D01*
X126332287Y-118758390D01*
X126301663Y-118716239D01*
X126211971Y-118592786D01*
X126067213Y-118448028D01*
X125901614Y-118327715D01*
X125834881Y-118293713D01*
X125808917Y-118280483D01*
X125758123Y-118232511D01*
X125741328Y-118164690D01*
X125763865Y-118098555D01*
X125808917Y-118059516D01*
X125901610Y-118012287D01*
X126003378Y-117938349D01*
X126067213Y-117891971D01*
X126067215Y-117891968D01*
X126067219Y-117891966D01*
X126211966Y-117747219D01*
X126211968Y-117747215D01*
X126211971Y-117747213D01*
X126284115Y-117647913D01*
X126332287Y-117581610D01*
X126425220Y-117399219D01*
X126488477Y-117204534D01*
X126520500Y-117002352D01*
X126520500Y-116879808D01*
X126540185Y-116812769D01*
X126592989Y-116767014D01*
X126662147Y-116757070D01*
X126725703Y-116786095D01*
X126732181Y-116792127D01*
X128113181Y-118173127D01*
X128146666Y-118234450D01*
X128149500Y-118260808D01*
X128149500Y-122064069D01*
X128149500Y-122064071D01*
X128149499Y-122064071D01*
X128169130Y-122162754D01*
X128169130Y-122162755D01*
X128174497Y-122189737D01*
X128174498Y-122189742D01*
X128185090Y-122215312D01*
X128223535Y-122308127D01*
X128289340Y-122406612D01*
X128294726Y-122414673D01*
X134685327Y-128805274D01*
X134779392Y-128868126D01*
X134779393Y-128868126D01*
X134779394Y-128868127D01*
X134791873Y-128876465D01*
X134910256Y-128925501D01*
X134910260Y-128925501D01*
X134910261Y-128925502D01*
X135035928Y-128950500D01*
X135035931Y-128950500D01*
X141672938Y-128950500D01*
X141739977Y-128970185D01*
X141785732Y-129022989D01*
X141795676Y-129092147D01*
X141790869Y-129112819D01*
X141731522Y-129295465D01*
X141699500Y-129497648D01*
X141699500Y-129702351D01*
X141731522Y-129904534D01*
X141794781Y-130099223D01*
X141887715Y-130281613D01*
X142008028Y-130447213D01*
X142152786Y-130591971D01*
X142307749Y-130704556D01*
X142318390Y-130712287D01*
X142409840Y-130758883D01*
X142411080Y-130759515D01*
X142461876Y-130807490D01*
X142478671Y-130875311D01*
X142456134Y-130941446D01*
X142411080Y-130980485D01*
X142318386Y-131027715D01*
X142152786Y-131148028D01*
X142008028Y-131292786D01*
X141887715Y-131458386D01*
X141794781Y-131640776D01*
X141731522Y-131835465D01*
X141699500Y-132037648D01*
X141699500Y-132242351D01*
X141731522Y-132444534D01*
X141794781Y-132639223D01*
X141887715Y-132821613D01*
X142008028Y-132987213D01*
X142152782Y-133131967D01*
X142152787Y-133131971D01*
X142229583Y-133187767D01*
X142272249Y-133243097D01*
X142278228Y-133312710D01*
X142245622Y-133374505D01*
X142187365Y-133408233D01*
X142166967Y-133413439D01*
X142166956Y-133413442D01*
X142110415Y-133436862D01*
X142870590Y-134197037D01*
X142807007Y-134214075D01*
X142692993Y-134279901D01*
X142599901Y-134372993D01*
X142534075Y-134487007D01*
X142517037Y-134550589D01*
X141756862Y-133790415D01*
X141733449Y-133846940D01*
X141715455Y-133897946D01*
X141695000Y-134040219D01*
X141695000Y-135319785D01*
X141697893Y-135373762D01*
X141697893Y-135373764D01*
X141733438Y-135513030D01*
X141733440Y-135513037D01*
X141756863Y-135569583D01*
X142517037Y-134809409D01*
X142534075Y-134872993D01*
X142599901Y-134987007D01*
X142692993Y-135080099D01*
X142807007Y-135145925D01*
X142870590Y-135162962D01*
X142110415Y-135923135D01*
X142110415Y-135923136D01*
X142166954Y-135946556D01*
X142166961Y-135946558D01*
X142195621Y-135956669D01*
X142252294Y-135997534D01*
X142277876Y-136062552D01*
X142264246Y-136131080D01*
X142227256Y-136173924D01*
X142152782Y-136228032D01*
X142008028Y-136372786D01*
X141887715Y-136538386D01*
X141794781Y-136720776D01*
X141731522Y-136915465D01*
X141699500Y-137117648D01*
X141699500Y-137322351D01*
X141731522Y-137524534D01*
X141794781Y-137719223D01*
X141887715Y-137901613D01*
X142008028Y-138067213D01*
X142152786Y-138211971D01*
X142307749Y-138324556D01*
X142318390Y-138332287D01*
X142409840Y-138378883D01*
X142411080Y-138379515D01*
X142461876Y-138427490D01*
X142478671Y-138495311D01*
X142456134Y-138561446D01*
X142411080Y-138600485D01*
X142318386Y-138647715D01*
X142152786Y-138768028D01*
X142008028Y-138912786D01*
X141887715Y-139078386D01*
X141794781Y-139260776D01*
X141731522Y-139455465D01*
X141699500Y-139657648D01*
X141699500Y-139862351D01*
X141731522Y-140064534D01*
X141794781Y-140259223D01*
X141887715Y-140441613D01*
X142008028Y-140607213D01*
X142152786Y-140751971D01*
X142307749Y-140864556D01*
X142318390Y-140872287D01*
X142434607Y-140931503D01*
X142500776Y-140965218D01*
X142500778Y-140965218D01*
X142500781Y-140965220D01*
X142605137Y-140999127D01*
X142695465Y-141028477D01*
X142796557Y-141044488D01*
X142897648Y-141060500D01*
X142897649Y-141060500D01*
X143102351Y-141060500D01*
X143102352Y-141060500D01*
X143304534Y-141028477D01*
X143499219Y-140965220D01*
X143681610Y-140872287D01*
X143783378Y-140798349D01*
X143847213Y-140751971D01*
X143847215Y-140751968D01*
X143847219Y-140751966D01*
X143991966Y-140607219D01*
X143991968Y-140607215D01*
X143991971Y-140607213D01*
X144044732Y-140534590D01*
X144112287Y-140441610D01*
X144205220Y-140259219D01*
X144268477Y-140064534D01*
X144300500Y-139862352D01*
X144300500Y-139657648D01*
X144268477Y-139455466D01*
X144205220Y-139260781D01*
X144205218Y-139260778D01*
X144205218Y-139260776D01*
X144171503Y-139194607D01*
X144112287Y-139078390D01*
X144081663Y-139036239D01*
X143991971Y-138912786D01*
X143847213Y-138768028D01*
X143681614Y-138647715D01*
X143614881Y-138613713D01*
X143588917Y-138600483D01*
X143538123Y-138552511D01*
X143521328Y-138484690D01*
X143543865Y-138418555D01*
X143588917Y-138379516D01*
X143681610Y-138332287D01*
X143702770Y-138316913D01*
X143847213Y-138211971D01*
X143847215Y-138211968D01*
X143847219Y-138211966D01*
X143991966Y-138067219D01*
X143991968Y-138067215D01*
X143991971Y-138067213D01*
X144044732Y-137994590D01*
X144112287Y-137901610D01*
X144205220Y-137719219D01*
X144268477Y-137524534D01*
X144300500Y-137322352D01*
X144300500Y-137117648D01*
X144268477Y-136915466D01*
X144205220Y-136720781D01*
X144205218Y-136720778D01*
X144205218Y-136720776D01*
X144171503Y-136654607D01*
X144112287Y-136538390D01*
X144104556Y-136527749D01*
X143991971Y-136372786D01*
X143847213Y-136228028D01*
X143681614Y-136107715D01*
X143673410Y-136103535D01*
X143595703Y-136063941D01*
X143544908Y-136015968D01*
X143528113Y-135948147D01*
X143550650Y-135882012D01*
X143593546Y-135844099D01*
X143659493Y-135808849D01*
X143659511Y-135808838D01*
X143728912Y-135762465D01*
X143129409Y-135162962D01*
X143192993Y-135145925D01*
X143307007Y-135080099D01*
X143400099Y-134987007D01*
X143465925Y-134872993D01*
X143482962Y-134809409D01*
X144082465Y-135408912D01*
X144128838Y-135339511D01*
X144128844Y-135339501D01*
X144175509Y-135252198D01*
X144235814Y-135106612D01*
X144264555Y-135011864D01*
X144295298Y-134857302D01*
X144295298Y-134857299D01*
X144305000Y-134758789D01*
X144305000Y-134601210D01*
X144295298Y-134502700D01*
X144295298Y-134502697D01*
X144264555Y-134348135D01*
X144235814Y-134253387D01*
X144175509Y-134107801D01*
X144128841Y-134020493D01*
X144082465Y-133951086D01*
X144082465Y-133951085D01*
X143482962Y-134550589D01*
X143465925Y-134487007D01*
X143400099Y-134372993D01*
X143307007Y-134279901D01*
X143192993Y-134214075D01*
X143129410Y-134197037D01*
X143728913Y-133597534D01*
X143728912Y-133597533D01*
X143659506Y-133551158D01*
X143593545Y-133515900D01*
X143543701Y-133466937D01*
X143528241Y-133398799D01*
X143552073Y-133333119D01*
X143595702Y-133296059D01*
X143681610Y-133252287D01*
X143772745Y-133186074D01*
X143847213Y-133131971D01*
X143847215Y-133131968D01*
X143847219Y-133131966D01*
X143991966Y-132987219D01*
X143991968Y-132987215D01*
X143991971Y-132987213D01*
X144044732Y-132914590D01*
X144112287Y-132821610D01*
X144205220Y-132639219D01*
X144268477Y-132444534D01*
X144300500Y-132242352D01*
X144300500Y-132037648D01*
X144268477Y-131835466D01*
X144205220Y-131640781D01*
X144205218Y-131640778D01*
X144205218Y-131640776D01*
X144171503Y-131574607D01*
X144112287Y-131458390D01*
X144104556Y-131447749D01*
X143991971Y-131292786D01*
X143847213Y-131148028D01*
X143681614Y-131027715D01*
X143675006Y-131024348D01*
X143588917Y-130980483D01*
X143538123Y-130932511D01*
X143521328Y-130864690D01*
X143543865Y-130798555D01*
X143588917Y-130759516D01*
X143681610Y-130712287D01*
X143828824Y-130605331D01*
X143847213Y-130591971D01*
X143847215Y-130591968D01*
X143847219Y-130591966D01*
X143991966Y-130447219D01*
X143991968Y-130447215D01*
X143991971Y-130447213D01*
X144044732Y-130374590D01*
X144112287Y-130281610D01*
X144205220Y-130099219D01*
X144268477Y-129904534D01*
X144300500Y-129702352D01*
X144300500Y-129497648D01*
X144268477Y-129295466D01*
X144209130Y-129112817D01*
X144207136Y-129042977D01*
X144243216Y-128983144D01*
X144305917Y-128952316D01*
X144327062Y-128950500D01*
X158384071Y-128950500D01*
X158490203Y-128929388D01*
X158509744Y-128925501D01*
X158628127Y-128876465D01*
X158640606Y-128868127D01*
X158734669Y-128805277D01*
X166525276Y-121014670D01*
X166596465Y-120908127D01*
X166645501Y-120789744D01*
X166660679Y-120713442D01*
X166670500Y-120664071D01*
X166670500Y-115335928D01*
X166645502Y-115210261D01*
X166645501Y-115210260D01*
X166645501Y-115210256D01*
X166596465Y-115091873D01*
X166590443Y-115082861D01*
X166525277Y-114985331D01*
X166525275Y-114985329D01*
X166525273Y-114985326D01*
X165334673Y-113794726D01*
X165334669Y-113794723D01*
X165228127Y-113723535D01*
X165109744Y-113674499D01*
X165109738Y-113674497D01*
X164984071Y-113649500D01*
X164984069Y-113649500D01*
X162435931Y-113649500D01*
X162435929Y-113649500D01*
X162310261Y-113674497D01*
X162310255Y-113674499D01*
X162225754Y-113709501D01*
X162225753Y-113709501D01*
X162191876Y-113723532D01*
X162085326Y-113794726D01*
X161030710Y-114849342D01*
X160969387Y-114882827D01*
X160921245Y-114882315D01*
X160921055Y-114883516D01*
X160767675Y-114859223D01*
X160706287Y-114849500D01*
X160493713Y-114849500D01*
X160445042Y-114857208D01*
X160283760Y-114882753D01*
X160081585Y-114948444D01*
X159892179Y-115044951D01*
X159720213Y-115169890D01*
X159569890Y-115320213D01*
X159444949Y-115492182D01*
X159440484Y-115500946D01*
X159392509Y-115551742D01*
X159324688Y-115568536D01*
X159258553Y-115545998D01*
X159219516Y-115500946D01*
X159215050Y-115492182D01*
X159090109Y-115320213D01*
X158939786Y-115169890D01*
X158767820Y-115044951D01*
X158578414Y-114948444D01*
X158578413Y-114948443D01*
X158578412Y-114948443D01*
X158376243Y-114882754D01*
X158376241Y-114882753D01*
X158376240Y-114882753D01*
X158214957Y-114857208D01*
X158166287Y-114849500D01*
X157953713Y-114849500D01*
X157905042Y-114857208D01*
X157743760Y-114882753D01*
X157541585Y-114948444D01*
X157352179Y-115044951D01*
X157180213Y-115169890D01*
X157029890Y-115320213D01*
X156904949Y-115492182D01*
X156900202Y-115501499D01*
X156852227Y-115552293D01*
X156784405Y-115569087D01*
X156718271Y-115546548D01*
X156679234Y-115501495D01*
X156674626Y-115492452D01*
X156635270Y-115438282D01*
X156635269Y-115438282D01*
X156002962Y-116070590D01*
X155985925Y-116007007D01*
X155920099Y-115892993D01*
X155827007Y-115799901D01*
X155712993Y-115734075D01*
X155649409Y-115717037D01*
X156281716Y-115084728D01*
X156227550Y-115045375D01*
X156038217Y-114948904D01*
X155836129Y-114883242D01*
X155626246Y-114850000D01*
X155413754Y-114850000D01*
X155203872Y-114883242D01*
X155203869Y-114883242D01*
X155001782Y-114948904D01*
X154812439Y-115045380D01*
X154758282Y-115084727D01*
X154758282Y-115084728D01*
X155390591Y-115717037D01*
X155327007Y-115734075D01*
X155212993Y-115799901D01*
X155119901Y-115892993D01*
X155054075Y-116007007D01*
X155037037Y-116070591D01*
X154404728Y-115438282D01*
X154404727Y-115438282D01*
X154365380Y-115492439D01*
X154268904Y-115681782D01*
X154203242Y-115883869D01*
X154203242Y-115883872D01*
X154170000Y-116093753D01*
X154170000Y-116306246D01*
X154203242Y-116516127D01*
X154203242Y-116516130D01*
X154268904Y-116718217D01*
X154365375Y-116907550D01*
X154404728Y-116961716D01*
X155037037Y-116329408D01*
X155054075Y-116392993D01*
X155119901Y-116507007D01*
X155212993Y-116600099D01*
X155327007Y-116665925D01*
X155390590Y-116682962D01*
X154721195Y-117352356D01*
X154659872Y-117385841D01*
X154645167Y-117384924D01*
X154645444Y-117387497D01*
X154562626Y-117396401D01*
X154562619Y-117396403D01*
X154427913Y-117446645D01*
X154427906Y-117446649D01*
X154312812Y-117532809D01*
X154312809Y-117532812D01*
X154226649Y-117647906D01*
X154226645Y-117647913D01*
X154176403Y-117782620D01*
X154176401Y-117782627D01*
X154170000Y-117842155D01*
X154170000Y-118490000D01*
X155086988Y-118490000D01*
X155054075Y-118547007D01*
X155020000Y-118674174D01*
X155020000Y-118805826D01*
X155054075Y-118932993D01*
X155086988Y-118990000D01*
X154170000Y-118990000D01*
X154170000Y-119637844D01*
X154176401Y-119697372D01*
X154176403Y-119697379D01*
X154226645Y-119832086D01*
X154226649Y-119832093D01*
X154312809Y-119947187D01*
X154312812Y-119947190D01*
X154427906Y-120033350D01*
X154427913Y-120033354D01*
X154562620Y-120083596D01*
X154562627Y-120083598D01*
X154622155Y-120089999D01*
X154622172Y-120090000D01*
X155270000Y-120090000D01*
X155270000Y-119173012D01*
X155327007Y-119205925D01*
X155454174Y-119240000D01*
X155585826Y-119240000D01*
X155712993Y-119205925D01*
X155770000Y-119173012D01*
X155770000Y-120090000D01*
X156417828Y-120090000D01*
X156417844Y-120089999D01*
X156477372Y-120083598D01*
X156477379Y-120083596D01*
X156612086Y-120033354D01*
X156612093Y-120033350D01*
X156727187Y-119947190D01*
X156727190Y-119947187D01*
X156813350Y-119832093D01*
X156813354Y-119832086D01*
X156862422Y-119700529D01*
X156904293Y-119644595D01*
X156969757Y-119620178D01*
X157038030Y-119635030D01*
X157066285Y-119656181D01*
X157180213Y-119770109D01*
X157352179Y-119895048D01*
X157352181Y-119895049D01*
X157352184Y-119895051D01*
X157541588Y-119991557D01*
X157743757Y-120057246D01*
X157953713Y-120090500D01*
X157953714Y-120090500D01*
X158166286Y-120090500D01*
X158166287Y-120090500D01*
X158376243Y-120057246D01*
X158578412Y-119991557D01*
X158767816Y-119895051D01*
X158854471Y-119832093D01*
X158939786Y-119770109D01*
X158939788Y-119770106D01*
X158939792Y-119770104D01*
X159090104Y-119619792D01*
X159090106Y-119619788D01*
X159090109Y-119619786D01*
X159215048Y-119447820D01*
X159215047Y-119447820D01*
X159215051Y-119447816D01*
X159219514Y-119439054D01*
X159267488Y-119388259D01*
X159335308Y-119371463D01*
X159401444Y-119393999D01*
X159440486Y-119439056D01*
X159444951Y-119447820D01*
X159569890Y-119619786D01*
X159720213Y-119770109D01*
X159892179Y-119895048D01*
X159892181Y-119895049D01*
X159892184Y-119895051D01*
X160081588Y-119991557D01*
X160283757Y-120057246D01*
X160493713Y-120090500D01*
X160493714Y-120090500D01*
X160570191Y-120090500D01*
X160637230Y-120110185D01*
X160682985Y-120162989D01*
X160692929Y-120232147D01*
X160663904Y-120295703D01*
X160657872Y-120302181D01*
X155846873Y-125113181D01*
X155785550Y-125146666D01*
X155759192Y-125149500D01*
X144333560Y-125149500D01*
X144266521Y-125129815D01*
X144220766Y-125077011D01*
X144210822Y-125007853D01*
X144215627Y-124987189D01*
X144268477Y-124824534D01*
X144300500Y-124622352D01*
X144300500Y-124417648D01*
X144268477Y-124215466D01*
X144205220Y-124020781D01*
X144205218Y-124020778D01*
X144205218Y-124020776D01*
X144164901Y-123941650D01*
X144112287Y-123838390D01*
X144081663Y-123796239D01*
X143991971Y-123672786D01*
X143847213Y-123528028D01*
X143681614Y-123407715D01*
X143614881Y-123373713D01*
X143595703Y-123363941D01*
X143544908Y-123315968D01*
X143528113Y-123248147D01*
X143550650Y-123182012D01*
X143593546Y-123144099D01*
X143659493Y-123108849D01*
X143659511Y-123108838D01*
X143728912Y-123062465D01*
X143129409Y-122462962D01*
X143192993Y-122445925D01*
X143307007Y-122380099D01*
X143400099Y-122287007D01*
X143465925Y-122172993D01*
X143482962Y-122109409D01*
X144082465Y-122708912D01*
X144128838Y-122639511D01*
X144128844Y-122639501D01*
X144175509Y-122552198D01*
X144235814Y-122406612D01*
X144264555Y-122311864D01*
X144295298Y-122157302D01*
X144295298Y-122157299D01*
X144305000Y-122058789D01*
X144305000Y-121901210D01*
X144295298Y-121802700D01*
X144295298Y-121802697D01*
X144264555Y-121648135D01*
X144235814Y-121553387D01*
X144175509Y-121407801D01*
X144128841Y-121320493D01*
X144082465Y-121251086D01*
X144082465Y-121251085D01*
X143482962Y-121850589D01*
X143465925Y-121787007D01*
X143400099Y-121672993D01*
X143307007Y-121579901D01*
X143192993Y-121514075D01*
X143129410Y-121497037D01*
X143728913Y-120897534D01*
X143728912Y-120897533D01*
X143659506Y-120851158D01*
X143593545Y-120815900D01*
X143543701Y-120766937D01*
X143528241Y-120698799D01*
X143552073Y-120633119D01*
X143595702Y-120596059D01*
X143681610Y-120552287D01*
X143783378Y-120478349D01*
X143847213Y-120431971D01*
X143847215Y-120431968D01*
X143847219Y-120431966D01*
X143991966Y-120287219D01*
X143991968Y-120287215D01*
X143991971Y-120287213D01*
X144044732Y-120214590D01*
X144112287Y-120121610D01*
X144205220Y-119939219D01*
X144268477Y-119744534D01*
X144300500Y-119542352D01*
X144300500Y-119337648D01*
X144268477Y-119135466D01*
X144205220Y-118940781D01*
X144205218Y-118940778D01*
X144205218Y-118940776D01*
X144157072Y-118846286D01*
X144112287Y-118758390D01*
X144081663Y-118716239D01*
X143991971Y-118592786D01*
X143847213Y-118448028D01*
X143681614Y-118327715D01*
X143614881Y-118293713D01*
X143588917Y-118280483D01*
X143538123Y-118232511D01*
X143521328Y-118164690D01*
X143543865Y-118098555D01*
X143588917Y-118059516D01*
X143681610Y-118012287D01*
X143783378Y-117938349D01*
X143847213Y-117891971D01*
X143847215Y-117891968D01*
X143847219Y-117891966D01*
X143991966Y-117747219D01*
X143991968Y-117747215D01*
X143991971Y-117747213D01*
X144064115Y-117647913D01*
X144112287Y-117581610D01*
X144205220Y-117399219D01*
X144268477Y-117204534D01*
X144300500Y-117002352D01*
X144300500Y-116797648D01*
X144268477Y-116595466D01*
X144257348Y-116561216D01*
X144205218Y-116400776D01*
X144157052Y-116306246D01*
X144112287Y-116218390D01*
X143991966Y-116052781D01*
X143847219Y-115908034D01*
X143847213Y-115908028D01*
X143681614Y-115787715D01*
X143614881Y-115753713D01*
X143588917Y-115740483D01*
X143538123Y-115692511D01*
X143521328Y-115624690D01*
X143543865Y-115558555D01*
X143588917Y-115519516D01*
X143681610Y-115472287D01*
X143728414Y-115438282D01*
X143847213Y-115351971D01*
X143847215Y-115351968D01*
X143847219Y-115351966D01*
X143991966Y-115207219D01*
X144112287Y-115041610D01*
X144205220Y-114859219D01*
X144268477Y-114664534D01*
X144300500Y-114462352D01*
X144300500Y-114257648D01*
X144289046Y-114185331D01*
X144268477Y-114055465D01*
X144205218Y-113860776D01*
X144171503Y-113794607D01*
X144112287Y-113678390D01*
X144104556Y-113667749D01*
X143991971Y-113512786D01*
X143847213Y-113368028D01*
X143681614Y-113247715D01*
X143675006Y-113244348D01*
X143588917Y-113200483D01*
X143538123Y-113152511D01*
X143521328Y-113084690D01*
X143543865Y-113018555D01*
X143588917Y-112979516D01*
X143681610Y-112932287D01*
X143702770Y-112916913D01*
X143847213Y-112811971D01*
X143847215Y-112811968D01*
X143847219Y-112811966D01*
X143991966Y-112667219D01*
X143991968Y-112667215D01*
X143991971Y-112667213D01*
X144044732Y-112594590D01*
X144112287Y-112501610D01*
X144205220Y-112319219D01*
X144268477Y-112124534D01*
X144300500Y-111922352D01*
X144300500Y-111717648D01*
X144290032Y-111651555D01*
X144268477Y-111515465D01*
X144205218Y-111320776D01*
X144128138Y-111169500D01*
X144112287Y-111138390D01*
X144090074Y-111107816D01*
X143991971Y-110972786D01*
X143847213Y-110828028D01*
X143681614Y-110707715D01*
X143673410Y-110703535D01*
X143595703Y-110663941D01*
X143544908Y-110615968D01*
X143528113Y-110548147D01*
X143550650Y-110482012D01*
X143593546Y-110444099D01*
X143659493Y-110408849D01*
X143659511Y-110408838D01*
X143728912Y-110362465D01*
X143129409Y-109762962D01*
X143192993Y-109745925D01*
X143307007Y-109680099D01*
X143400099Y-109587007D01*
X143465925Y-109472993D01*
X143482962Y-109409409D01*
X144082465Y-110008912D01*
X144128838Y-109939511D01*
X144128844Y-109939501D01*
X144175509Y-109852198D01*
X144235814Y-109706612D01*
X144264555Y-109611864D01*
X144295298Y-109457302D01*
X144295298Y-109457299D01*
X144305000Y-109358789D01*
X144305000Y-109201210D01*
X144295298Y-109102700D01*
X144295298Y-109102697D01*
X144264555Y-108948135D01*
X144235814Y-108853387D01*
X144175509Y-108707801D01*
X144128843Y-108620496D01*
X144124697Y-108614291D01*
X144124696Y-108614289D01*
X144082465Y-108551086D01*
X144082465Y-108551085D01*
X143482962Y-109150589D01*
X143465925Y-109087007D01*
X143400099Y-108972993D01*
X143307007Y-108879901D01*
X143192993Y-108814075D01*
X143129410Y-108797037D01*
X143728913Y-108197534D01*
X143728912Y-108197533D01*
X143659506Y-108151158D01*
X143593545Y-108115900D01*
X143543701Y-108066937D01*
X143528241Y-107998799D01*
X143552073Y-107933119D01*
X143595702Y-107896059D01*
X143681610Y-107852287D01*
X143772745Y-107786074D01*
X143847213Y-107731971D01*
X143847215Y-107731968D01*
X143847219Y-107731966D01*
X143991966Y-107587219D01*
X143991968Y-107587215D01*
X143991971Y-107587213D01*
X144064014Y-107488052D01*
X144112287Y-107421610D01*
X144198735Y-107251947D01*
X150138000Y-107251947D01*
X150138000Y-107488052D01*
X150174934Y-107721247D01*
X150247897Y-107945802D01*
X150355087Y-108156174D01*
X150415338Y-108239104D01*
X150415340Y-108239105D01*
X151114212Y-107540233D01*
X151125482Y-107582292D01*
X151197890Y-107707708D01*
X151300292Y-107810110D01*
X151425708Y-107882518D01*
X151467765Y-107893787D01*
X150768893Y-108592658D01*
X150851828Y-108652914D01*
X151062197Y-108760102D01*
X151286752Y-108833065D01*
X151286751Y-108833065D01*
X151519948Y-108870000D01*
X151756052Y-108870000D01*
X151989247Y-108833065D01*
X152213802Y-108760102D01*
X152424163Y-108652918D01*
X152424169Y-108652914D01*
X152507104Y-108592658D01*
X152507105Y-108592658D01*
X151808233Y-107893787D01*
X151850292Y-107882518D01*
X151975708Y-107810110D01*
X152078110Y-107707708D01*
X152150518Y-107582292D01*
X152161787Y-107540234D01*
X152860658Y-108239105D01*
X152860658Y-108239104D01*
X152920914Y-108156169D01*
X152920918Y-108156163D01*
X153028102Y-107945802D01*
X153101065Y-107721247D01*
X153138000Y-107488052D01*
X153138000Y-107251947D01*
X156638000Y-107251947D01*
X156638000Y-107488052D01*
X156674934Y-107721247D01*
X156747897Y-107945802D01*
X156855087Y-108156174D01*
X156915338Y-108239104D01*
X156915340Y-108239105D01*
X157614212Y-107540233D01*
X157625482Y-107582292D01*
X157697890Y-107707708D01*
X157800292Y-107810110D01*
X157925708Y-107882518D01*
X157967765Y-107893787D01*
X157268893Y-108592658D01*
X157351828Y-108652914D01*
X157562197Y-108760102D01*
X157786752Y-108833065D01*
X157786751Y-108833065D01*
X158019948Y-108870000D01*
X158256052Y-108870000D01*
X158489247Y-108833065D01*
X158713802Y-108760102D01*
X158924163Y-108652918D01*
X158924169Y-108652914D01*
X159007104Y-108592658D01*
X159007105Y-108592658D01*
X158308233Y-107893787D01*
X158350292Y-107882518D01*
X158475708Y-107810110D01*
X158578110Y-107707708D01*
X158650518Y-107582292D01*
X158661787Y-107540234D01*
X159360658Y-108239105D01*
X159360658Y-108239104D01*
X159420914Y-108156169D01*
X159420918Y-108156163D01*
X159528102Y-107945802D01*
X159561214Y-107843897D01*
X159561214Y-107843896D01*
X159601065Y-107721245D01*
X159638000Y-107488052D01*
X159638000Y-107251947D01*
X159601065Y-107018751D01*
X159528102Y-106794197D01*
X159420914Y-106583828D01*
X159360658Y-106500894D01*
X159360658Y-106500893D01*
X158661787Y-107199765D01*
X158650518Y-107157708D01*
X158578110Y-107032292D01*
X158475708Y-106929890D01*
X158350292Y-106857482D01*
X158308234Y-106846212D01*
X159007105Y-106147340D01*
X159007104Y-106147338D01*
X158924174Y-106087087D01*
X158713802Y-105979897D01*
X158489247Y-105906934D01*
X158489248Y-105906934D01*
X158256052Y-105870000D01*
X158019948Y-105870000D01*
X157786752Y-105906934D01*
X157562197Y-105979897D01*
X157351830Y-106087084D01*
X157268894Y-106147340D01*
X157967766Y-106846212D01*
X157925708Y-106857482D01*
X157800292Y-106929890D01*
X157697890Y-107032292D01*
X157625482Y-107157708D01*
X157614212Y-107199766D01*
X156915340Y-106500894D01*
X156855084Y-106583830D01*
X156747897Y-106794197D01*
X156674935Y-107018751D01*
X156674934Y-107018751D01*
X156638000Y-107251947D01*
X153138000Y-107251947D01*
X153101065Y-107018751D01*
X153028102Y-106794197D01*
X152920914Y-106583828D01*
X152860658Y-106500894D01*
X152860658Y-106500893D01*
X152161787Y-107199765D01*
X152150518Y-107157708D01*
X152078110Y-107032292D01*
X151975708Y-106929890D01*
X151850292Y-106857482D01*
X151808234Y-106846212D01*
X152507105Y-106147340D01*
X152507104Y-106147339D01*
X152424174Y-106087087D01*
X152213802Y-105979897D01*
X151989247Y-105906934D01*
X151989248Y-105906934D01*
X151756052Y-105870000D01*
X151519948Y-105870000D01*
X151286752Y-105906934D01*
X151062197Y-105979897D01*
X150851830Y-106087084D01*
X150768894Y-106147340D01*
X151467766Y-106846212D01*
X151425708Y-106857482D01*
X151300292Y-106929890D01*
X151197890Y-107032292D01*
X151125482Y-107157708D01*
X151114212Y-107199766D01*
X150415340Y-106500894D01*
X150355084Y-106583830D01*
X150247897Y-106794197D01*
X150174935Y-107018751D01*
X150174934Y-107018751D01*
X150138000Y-107251947D01*
X144198735Y-107251947D01*
X144205220Y-107239219D01*
X144210574Y-107222741D01*
X144215119Y-107208755D01*
X144268476Y-107044538D01*
X144268476Y-107044537D01*
X144268477Y-107044534D01*
X144300500Y-106842352D01*
X144300500Y-106637648D01*
X144278840Y-106500893D01*
X144268477Y-106435465D01*
X144256206Y-106397701D01*
X144205220Y-106240781D01*
X144112287Y-106058390D01*
X144081663Y-106016239D01*
X143991971Y-105892786D01*
X143847213Y-105748028D01*
X143681614Y-105627715D01*
X143614881Y-105593713D01*
X143588917Y-105580483D01*
X143538123Y-105532511D01*
X143521328Y-105464690D01*
X143543865Y-105398555D01*
X143588917Y-105359516D01*
X143681610Y-105312287D01*
X143718719Y-105285326D01*
X143847213Y-105191971D01*
X143847215Y-105191968D01*
X143847219Y-105191966D01*
X143991966Y-105047219D01*
X143991968Y-105047215D01*
X143991971Y-105047213D01*
X144044732Y-104974590D01*
X144112287Y-104881610D01*
X144205220Y-104699219D01*
X144268477Y-104504534D01*
X144300500Y-104302352D01*
X144300500Y-104097648D01*
X144268477Y-103895466D01*
X144205220Y-103700781D01*
X144205216Y-103700773D01*
X144205215Y-103700770D01*
X144203353Y-103696272D01*
X144204305Y-103695877D01*
X144192330Y-103632132D01*
X144218603Y-103567390D01*
X144275708Y-103527130D01*
X144315712Y-103520500D01*
X150209408Y-103520500D01*
X150276447Y-103540185D01*
X150319893Y-103588205D01*
X150354657Y-103656433D01*
X150493483Y-103847510D01*
X150660490Y-104014517D01*
X150851567Y-104153343D01*
X150922967Y-104189723D01*
X151062003Y-104260566D01*
X151062005Y-104260566D01*
X151062008Y-104260568D01*
X151182412Y-104299689D01*
X151286631Y-104333553D01*
X151519903Y-104370500D01*
X151519908Y-104370500D01*
X151756097Y-104370500D01*
X151989368Y-104333553D01*
X152047631Y-104314622D01*
X152213992Y-104260568D01*
X152424433Y-104153343D01*
X152615510Y-104014517D01*
X152782517Y-103847510D01*
X152921343Y-103656433D01*
X153028568Y-103445992D01*
X153101553Y-103221368D01*
X153113683Y-103144781D01*
X153138500Y-102988097D01*
X153138500Y-102751902D01*
X156637500Y-102751902D01*
X156637500Y-102988097D01*
X156674446Y-103221368D01*
X156747433Y-103445996D01*
X156805572Y-103560099D01*
X156854657Y-103656433D01*
X156993483Y-103847510D01*
X157160490Y-104014517D01*
X157351567Y-104153343D01*
X157422967Y-104189723D01*
X157562003Y-104260566D01*
X157562005Y-104260566D01*
X157562008Y-104260568D01*
X157682412Y-104299689D01*
X157786631Y-104333553D01*
X158019903Y-104370500D01*
X158019908Y-104370500D01*
X158256097Y-104370500D01*
X158489368Y-104333553D01*
X158547631Y-104314622D01*
X158713992Y-104260568D01*
X158739349Y-104247648D01*
X161499500Y-104247648D01*
X161499500Y-104452351D01*
X161531522Y-104654534D01*
X161594781Y-104849223D01*
X161658691Y-104974653D01*
X161667624Y-104992184D01*
X161687715Y-105031613D01*
X161808028Y-105197213D01*
X161952786Y-105341971D01*
X162118385Y-105462284D01*
X162118387Y-105462285D01*
X162118390Y-105462287D01*
X162172378Y-105489795D01*
X162223174Y-105537769D01*
X162239969Y-105605590D01*
X162217432Y-105671725D01*
X162172378Y-105710765D01*
X162118644Y-105738143D01*
X162074077Y-105770523D01*
X162074077Y-105770524D01*
X162753554Y-106450000D01*
X162747339Y-106450000D01*
X162645606Y-106477259D01*
X162554394Y-106529920D01*
X162479920Y-106604394D01*
X162427259Y-106695606D01*
X162400000Y-106797339D01*
X162400000Y-106803553D01*
X161720524Y-106124077D01*
X161720523Y-106124077D01*
X161688143Y-106168644D01*
X161595244Y-106350968D01*
X161532009Y-106545582D01*
X161500000Y-106747682D01*
X161500000Y-106952317D01*
X161532009Y-107154417D01*
X161595244Y-107349031D01*
X161688141Y-107531350D01*
X161688147Y-107531359D01*
X161720523Y-107575921D01*
X161720524Y-107575922D01*
X162400000Y-106896446D01*
X162400000Y-106902661D01*
X162427259Y-107004394D01*
X162479920Y-107095606D01*
X162554394Y-107170080D01*
X162645606Y-107222741D01*
X162747339Y-107250000D01*
X162753553Y-107250000D01*
X162074076Y-107929474D01*
X162118650Y-107961859D01*
X162300968Y-108054755D01*
X162495582Y-108117990D01*
X162697683Y-108150000D01*
X162902317Y-108150000D01*
X163104417Y-108117990D01*
X163299031Y-108054755D01*
X163481349Y-107961859D01*
X163525921Y-107929474D01*
X162846447Y-107250000D01*
X162852661Y-107250000D01*
X162954394Y-107222741D01*
X163045606Y-107170080D01*
X163120080Y-107095606D01*
X163172741Y-107004394D01*
X163200000Y-106902661D01*
X163200000Y-106896447D01*
X163879474Y-107575921D01*
X163911859Y-107531349D01*
X164004755Y-107349031D01*
X164067990Y-107154417D01*
X164100000Y-106952317D01*
X164100000Y-106747682D01*
X164067990Y-106545582D01*
X164004755Y-106350968D01*
X163911859Y-106168650D01*
X163879474Y-106124077D01*
X163879474Y-106124076D01*
X163200000Y-106803551D01*
X163200000Y-106797339D01*
X163172741Y-106695606D01*
X163120080Y-106604394D01*
X163045606Y-106529920D01*
X162954394Y-106477259D01*
X162852661Y-106450000D01*
X162846446Y-106450000D01*
X163525922Y-105770524D01*
X163525921Y-105770523D01*
X163481359Y-105738147D01*
X163481350Y-105738141D01*
X163427621Y-105710765D01*
X163376825Y-105662791D01*
X163360030Y-105594970D01*
X163382567Y-105528835D01*
X163427621Y-105489795D01*
X163481610Y-105462287D01*
X163560157Y-105405220D01*
X163647213Y-105341971D01*
X163647215Y-105341968D01*
X163647219Y-105341966D01*
X163791966Y-105197219D01*
X163791968Y-105197215D01*
X163791971Y-105197213D01*
X163862962Y-105099500D01*
X163912287Y-105031610D01*
X164005220Y-104849219D01*
X164068477Y-104654534D01*
X164100500Y-104452352D01*
X164100500Y-104247648D01*
X164068477Y-104045466D01*
X164066525Y-104039459D01*
X164019739Y-103895466D01*
X164005220Y-103850781D01*
X164005218Y-103850778D01*
X164005218Y-103850776D01*
X163971503Y-103784607D01*
X163912287Y-103668390D01*
X163854030Y-103588205D01*
X163791971Y-103502786D01*
X163647213Y-103358028D01*
X163481613Y-103237715D01*
X163481612Y-103237714D01*
X163481610Y-103237713D01*
X163423350Y-103208028D01*
X163299223Y-103144781D01*
X163104534Y-103081522D01*
X162929995Y-103053878D01*
X162902352Y-103049500D01*
X162697648Y-103049500D01*
X162673329Y-103053351D01*
X162495465Y-103081522D01*
X162300776Y-103144781D01*
X162118386Y-103237715D01*
X161952786Y-103358028D01*
X161808028Y-103502786D01*
X161687715Y-103668386D01*
X161594781Y-103850776D01*
X161531522Y-104045465D01*
X161499500Y-104247648D01*
X158739349Y-104247648D01*
X158924433Y-104153343D01*
X159115510Y-104014517D01*
X159282517Y-103847510D01*
X159421343Y-103656433D01*
X159528568Y-103445992D01*
X159601553Y-103221368D01*
X159613683Y-103144781D01*
X159638500Y-102988097D01*
X159638500Y-102751902D01*
X159601553Y-102518631D01*
X159528566Y-102294003D01*
X159459892Y-102159223D01*
X159421343Y-102083567D01*
X159282517Y-101892490D01*
X159115510Y-101725483D01*
X158924433Y-101586657D01*
X158867500Y-101557648D01*
X158713996Y-101479433D01*
X158489368Y-101406446D01*
X158256097Y-101369500D01*
X158256092Y-101369500D01*
X158019908Y-101369500D01*
X158019903Y-101369500D01*
X157786631Y-101406446D01*
X157562003Y-101479433D01*
X157351566Y-101586657D01*
X157264240Y-101650104D01*
X157160490Y-101725483D01*
X157160488Y-101725485D01*
X157160487Y-101725485D01*
X156993485Y-101892487D01*
X156993485Y-101892488D01*
X156993483Y-101892490D01*
X156991233Y-101895587D01*
X156854657Y-102083566D01*
X156747433Y-102294003D01*
X156674446Y-102518631D01*
X156637500Y-102751902D01*
X153138500Y-102751902D01*
X153101553Y-102518631D01*
X153028566Y-102294003D01*
X152959892Y-102159223D01*
X152921343Y-102083567D01*
X152782517Y-101892490D01*
X152615510Y-101725483D01*
X152424433Y-101586657D01*
X152367500Y-101557648D01*
X152213996Y-101479433D01*
X151989368Y-101406446D01*
X151756097Y-101369500D01*
X151756092Y-101369500D01*
X151519908Y-101369500D01*
X151519903Y-101369500D01*
X151286631Y-101406446D01*
X151062003Y-101479433D01*
X150851566Y-101586657D01*
X150764240Y-101650104D01*
X150660490Y-101725483D01*
X150660488Y-101725485D01*
X150660487Y-101725485D01*
X150493485Y-101892487D01*
X150493485Y-101892488D01*
X150493483Y-101892490D01*
X150491233Y-101895587D01*
X150354657Y-102083566D01*
X150319893Y-102151795D01*
X150271918Y-102202591D01*
X150209408Y-102219500D01*
X144356305Y-102219500D01*
X144289266Y-102199815D01*
X144243511Y-102147011D01*
X144233567Y-102077853D01*
X144238374Y-102057181D01*
X144268477Y-101964534D01*
X144279888Y-101892487D01*
X144300500Y-101762352D01*
X144300500Y-101557648D01*
X144268477Y-101355466D01*
X144205220Y-101160781D01*
X144205218Y-101160778D01*
X144205218Y-101160776D01*
X144164901Y-101081650D01*
X144112287Y-100978390D01*
X144081663Y-100936239D01*
X143991971Y-100812786D01*
X143847213Y-100668028D01*
X143681614Y-100547715D01*
X143614881Y-100513713D01*
X143588917Y-100500483D01*
X143538123Y-100452511D01*
X143521328Y-100384690D01*
X143543865Y-100318555D01*
X143588917Y-100279516D01*
X143681610Y-100232287D01*
X143783378Y-100158349D01*
X143847213Y-100111971D01*
X143847215Y-100111968D01*
X143847219Y-100111966D01*
X143991966Y-99967219D01*
X143991968Y-99967215D01*
X143991971Y-99967213D01*
X144044732Y-99894590D01*
X144112287Y-99801610D01*
X144205220Y-99619219D01*
X144268477Y-99424534D01*
X144300500Y-99222352D01*
X144300500Y-99017648D01*
X144268477Y-98815466D01*
X144205220Y-98620781D01*
X144205218Y-98620778D01*
X144205218Y-98620776D01*
X144164901Y-98541650D01*
X144112287Y-98438390D01*
X144081663Y-98396239D01*
X143991971Y-98272786D01*
X143847213Y-98128028D01*
X143681614Y-98007715D01*
X143614881Y-97973713D01*
X143595703Y-97963941D01*
X143544908Y-97915968D01*
X143528113Y-97848147D01*
X143550650Y-97782012D01*
X143593546Y-97744099D01*
X143659493Y-97708849D01*
X143659511Y-97708838D01*
X143728912Y-97662465D01*
X143129409Y-97062962D01*
X143192993Y-97045925D01*
X143307007Y-96980099D01*
X143400099Y-96887007D01*
X143465925Y-96772993D01*
X143482962Y-96709409D01*
X144082465Y-97308912D01*
X144128838Y-97239511D01*
X144128844Y-97239501D01*
X144175509Y-97152198D01*
X144235814Y-97006612D01*
X144264555Y-96911864D01*
X144295298Y-96757302D01*
X144295298Y-96757299D01*
X144305000Y-96658789D01*
X144305000Y-96501210D01*
X144295298Y-96402700D01*
X144295298Y-96402697D01*
X144264555Y-96248135D01*
X144235814Y-96153387D01*
X144175509Y-96007801D01*
X144128841Y-95920493D01*
X144082465Y-95851086D01*
X144082465Y-95851085D01*
X143482962Y-96450589D01*
X143465925Y-96387007D01*
X143400099Y-96272993D01*
X143307007Y-96179901D01*
X143192993Y-96114075D01*
X143129410Y-96097037D01*
X143728913Y-95497534D01*
X143728912Y-95497533D01*
X143659506Y-95451158D01*
X143593545Y-95415900D01*
X143543701Y-95366937D01*
X143528241Y-95298799D01*
X143552073Y-95233119D01*
X143595702Y-95196059D01*
X143681610Y-95152287D01*
X143764762Y-95091874D01*
X143847213Y-95031971D01*
X143847215Y-95031968D01*
X143847219Y-95031966D01*
X143991966Y-94887219D01*
X143991968Y-94887215D01*
X143991971Y-94887213D01*
X144044732Y-94814590D01*
X144112287Y-94721610D01*
X144205220Y-94539219D01*
X144268477Y-94344534D01*
X144300500Y-94142352D01*
X144300500Y-93937648D01*
X144268477Y-93735466D01*
X144205220Y-93540781D01*
X144205218Y-93540778D01*
X144205218Y-93540776D01*
X144171503Y-93474607D01*
X144112287Y-93358390D01*
X144081663Y-93316239D01*
X143991971Y-93192786D01*
X143847213Y-93048028D01*
X143681614Y-92927715D01*
X143614881Y-92893713D01*
X143588917Y-92880483D01*
X143538123Y-92832511D01*
X143521328Y-92764690D01*
X143543865Y-92698555D01*
X143588917Y-92659516D01*
X143681610Y-92612287D01*
X143815320Y-92515142D01*
X143847213Y-92491971D01*
X143847215Y-92491968D01*
X143847219Y-92491966D01*
X143991966Y-92347219D01*
X143991968Y-92347215D01*
X143991971Y-92347213D01*
X144079170Y-92227192D01*
X144112287Y-92181610D01*
X144205220Y-91999219D01*
X144268477Y-91804534D01*
X144300500Y-91602352D01*
X144300500Y-91397648D01*
X144268477Y-91195466D01*
X144205220Y-91000781D01*
X144205218Y-91000778D01*
X144205218Y-91000776D01*
X144140876Y-90874499D01*
X144112287Y-90818390D01*
X144085011Y-90780847D01*
X143991971Y-90652786D01*
X143847213Y-90508028D01*
X143680379Y-90386818D01*
X143637713Y-90331489D01*
X143631734Y-90261875D01*
X143664339Y-90200080D01*
X143725178Y-90165723D01*
X143753264Y-90162500D01*
X165908340Y-90162500D01*
X165975379Y-90182185D01*
X166021134Y-90234989D01*
X166031078Y-90304147D01*
X166002053Y-90367703D01*
X165987005Y-90382353D01*
X165780841Y-90551546D01*
X165551546Y-90780841D01*
X165345821Y-91031518D01*
X165345811Y-91031532D01*
X165165657Y-91301151D01*
X165165646Y-91301169D01*
X165012788Y-91587145D01*
X165012786Y-91587150D01*
X164888686Y-91886752D01*
X164794548Y-92197086D01*
X164794545Y-92197097D01*
X164731287Y-92515125D01*
X164731284Y-92515142D01*
X164714677Y-92683760D01*
X164703180Y-92800500D01*
X164699500Y-92837860D01*
X164699500Y-93162139D01*
X164731284Y-93484857D01*
X164731287Y-93484874D01*
X164794545Y-93802902D01*
X164794548Y-93802913D01*
X164888686Y-94113247D01*
X165012786Y-94412849D01*
X165012788Y-94412854D01*
X165165646Y-94698830D01*
X165165657Y-94698848D01*
X165345811Y-94968467D01*
X165345821Y-94968481D01*
X165551546Y-95219158D01*
X165780841Y-95448453D01*
X165780846Y-95448457D01*
X165780847Y-95448458D01*
X166031524Y-95654183D01*
X166301158Y-95834347D01*
X166301167Y-95834352D01*
X166301169Y-95834353D01*
X166587145Y-95987211D01*
X166587147Y-95987211D01*
X166587153Y-95987215D01*
X166886754Y-96111314D01*
X167197077Y-96205449D01*
X167197083Y-96205450D01*
X167197086Y-96205451D01*
X167197097Y-96205454D01*
X167396528Y-96245122D01*
X167515132Y-96268714D01*
X167837857Y-96300500D01*
X167837860Y-96300500D01*
X168162140Y-96300500D01*
X168162143Y-96300500D01*
X168484868Y-96268714D01*
X168642295Y-96237399D01*
X168802902Y-96205454D01*
X168802913Y-96205451D01*
X168802913Y-96205450D01*
X168802923Y-96205449D01*
X169113246Y-96111314D01*
X169412847Y-95987215D01*
X169698842Y-95834347D01*
X169968476Y-95654183D01*
X170219153Y-95448458D01*
X170285821Y-95381789D01*
X170347142Y-95348306D01*
X170416834Y-95353290D01*
X170472768Y-95395161D01*
X170497185Y-95460625D01*
X170497501Y-95469515D01*
X170479593Y-147512662D01*
X170459885Y-147579694D01*
X170407066Y-147625431D01*
X170337904Y-147635351D01*
X170274358Y-147606304D01*
X170267912Y-147600300D01*
X170219158Y-147551546D01*
X169968481Y-147345821D01*
X169968480Y-147345820D01*
X169968476Y-147345817D01*
X169698842Y-147165653D01*
X169698837Y-147165650D01*
X169698830Y-147165646D01*
X169412854Y-147012788D01*
X169412849Y-147012786D01*
X169394001Y-147004979D01*
X169313087Y-146971463D01*
X169113247Y-146888686D01*
X168802913Y-146794548D01*
X168802902Y-146794545D01*
X168484874Y-146731287D01*
X168484857Y-146731284D01*
X168240812Y-146707248D01*
X168162143Y-146699500D01*
X167837857Y-146699500D01*
X167765099Y-146706666D01*
X167515142Y-146731284D01*
X167515125Y-146731287D01*
X167197097Y-146794545D01*
X167197086Y-146794548D01*
X166886752Y-146888686D01*
X166587150Y-147012786D01*
X166587145Y-147012788D01*
X166301169Y-147165646D01*
X166301151Y-147165657D01*
X166031532Y-147345811D01*
X166031518Y-147345821D01*
X165780841Y-147551546D01*
X165551546Y-147780841D01*
X165345821Y-148031518D01*
X165345811Y-148031532D01*
X165165657Y-148301151D01*
X165165646Y-148301169D01*
X165012788Y-148587145D01*
X165012786Y-148587150D01*
X164888686Y-148886752D01*
X164794548Y-149197086D01*
X164794545Y-149197097D01*
X164731287Y-149515125D01*
X164731284Y-149515142D01*
X164699500Y-149837860D01*
X164699500Y-150162139D01*
X164731284Y-150484857D01*
X164731287Y-150484874D01*
X164794545Y-150802902D01*
X164794548Y-150802913D01*
X164888686Y-151113247D01*
X165012786Y-151412849D01*
X165012788Y-151412854D01*
X165165646Y-151698830D01*
X165165657Y-151698848D01*
X165345811Y-151968467D01*
X165345821Y-151968481D01*
X165551546Y-152219158D01*
X165780841Y-152448453D01*
X165780846Y-152448457D01*
X165780847Y-152448458D01*
X166031524Y-152654183D01*
X166301158Y-152834347D01*
X166301167Y-152834352D01*
X166301169Y-152834353D01*
X166360642Y-152866142D01*
X166410486Y-152915104D01*
X166425947Y-152983242D01*
X166402115Y-153048921D01*
X166346558Y-153091290D01*
X166302189Y-153099500D01*
X123466496Y-153099500D01*
X123454393Y-153096882D01*
X123400759Y-153099500D01*
X123356107Y-153099500D01*
X123348052Y-153100560D01*
X123348036Y-153100445D01*
X123332928Y-153102810D01*
X123322768Y-153103306D01*
X123197285Y-153143581D01*
X123086504Y-153214959D01*
X122997975Y-153312575D01*
X119080154Y-160934005D01*
X119031998Y-160984628D01*
X118970423Y-161001313D01*
X115116662Y-161018431D01*
X115049536Y-160999044D01*
X115003547Y-160946444D01*
X114993296Y-160877330D01*
X115022038Y-160813646D01*
X115047221Y-160791330D01*
X115252458Y-160654195D01*
X115252457Y-160654195D01*
X115252476Y-160654183D01*
X115503153Y-160448458D01*
X115732458Y-160219153D01*
X115938183Y-159968476D01*
X116118347Y-159698842D01*
X116271215Y-159412847D01*
X116395314Y-159113246D01*
X116489449Y-158802923D01*
X116489451Y-158802913D01*
X116489454Y-158802902D01*
X116521399Y-158642295D01*
X116552714Y-158484868D01*
X116584500Y-158162143D01*
X116584500Y-157837857D01*
X116552714Y-157515132D01*
X116529122Y-157396528D01*
X116489454Y-157197097D01*
X116489451Y-157197086D01*
X116489450Y-157197083D01*
X116489449Y-157197077D01*
X116395314Y-156886754D01*
X116271215Y-156587153D01*
X116118347Y-156301158D01*
X115938183Y-156031524D01*
X115732458Y-155780847D01*
X115732457Y-155780846D01*
X115732453Y-155780841D01*
X115503158Y-155551546D01*
X115252481Y-155345821D01*
X115252480Y-155345820D01*
X115252476Y-155345817D01*
X114982842Y-155165653D01*
X114982837Y-155165650D01*
X114982830Y-155165646D01*
X114696854Y-155012788D01*
X114696849Y-155012786D01*
X114397247Y-154888686D01*
X114086913Y-154794548D01*
X114086902Y-154794545D01*
X113768874Y-154731287D01*
X113768857Y-154731284D01*
X113524812Y-154707248D01*
X113446143Y-154699500D01*
X113121857Y-154699500D01*
X113049099Y-154706666D01*
X112799142Y-154731284D01*
X112799125Y-154731287D01*
X112481097Y-154794545D01*
X112481086Y-154794548D01*
X112170752Y-154888686D01*
X111871150Y-155012786D01*
X111871145Y-155012788D01*
X111585169Y-155165646D01*
X111585151Y-155165657D01*
X111315532Y-155345811D01*
X111315518Y-155345821D01*
X111064841Y-155551546D01*
X110835546Y-155780841D01*
X110629821Y-156031518D01*
X110629811Y-156031532D01*
X110449657Y-156301151D01*
X110449646Y-156301169D01*
X110296788Y-156587145D01*
X110296786Y-156587150D01*
X110213061Y-156789280D01*
X110169220Y-156843683D01*
X110102926Y-156865748D01*
X110035226Y-156848469D01*
X109987616Y-156797331D01*
X109974500Y-156741827D01*
X109974500Y-82412500D01*
X109994185Y-82345461D01*
X110046989Y-82299706D01*
X110098500Y-82288500D01*
X111761364Y-82288500D01*
X111828403Y-82308185D01*
G37*
%TD.AperFunction*%
%TA.AperFunction,Conductor*%
G36*
X114074075Y-148687007D02*
G01*
X114040000Y-148814174D01*
X114040000Y-148945826D01*
X114074075Y-149072993D01*
X114106988Y-149130000D01*
X112433012Y-149130000D01*
X112465925Y-149072993D01*
X112500000Y-148945826D01*
X112500000Y-148814174D01*
X112465925Y-148687007D01*
X112433012Y-148630000D01*
X114106988Y-148630000D01*
X114074075Y-148687007D01*
G37*
%TD.AperFunction*%
%TA.AperFunction,Conductor*%
G36*
X126412383Y-112632347D02*
G01*
X126413646Y-112633592D01*
X130813181Y-117033127D01*
X130846666Y-117094450D01*
X130849500Y-117120808D01*
X130849500Y-121164069D01*
X130861720Y-121225501D01*
X130874499Y-121289744D01*
X130923535Y-121408127D01*
X130994326Y-121514075D01*
X130994726Y-121514673D01*
X135785326Y-126305273D01*
X135785329Y-126305275D01*
X135785331Y-126305277D01*
X135891873Y-126376465D01*
X136010256Y-126425501D01*
X136010260Y-126425501D01*
X136010261Y-126425502D01*
X136135928Y-126450500D01*
X136135931Y-126450500D01*
X141659941Y-126450500D01*
X141726980Y-126470185D01*
X141772735Y-126522989D01*
X141782679Y-126592147D01*
X141777872Y-126612818D01*
X141731523Y-126755461D01*
X141731523Y-126755464D01*
X141699500Y-126957648D01*
X141699500Y-127162351D01*
X141731522Y-127364534D01*
X141756931Y-127442733D01*
X141771374Y-127487182D01*
X141773369Y-127557022D01*
X141737289Y-127616855D01*
X141674589Y-127647684D01*
X141653443Y-127649500D01*
X135420808Y-127649500D01*
X135353769Y-127629815D01*
X135333127Y-127613181D01*
X129486819Y-121766873D01*
X129453334Y-121705550D01*
X129450500Y-121679192D01*
X129450500Y-117875928D01*
X129425502Y-117750261D01*
X129425501Y-117750260D01*
X129425501Y-117750256D01*
X129423737Y-117745998D01*
X129395215Y-117677138D01*
X129376469Y-117631881D01*
X129376468Y-117631880D01*
X129376466Y-117631874D01*
X129345113Y-117584951D01*
X129305278Y-117525332D01*
X129305272Y-117525325D01*
X126527137Y-114747191D01*
X126493652Y-114685868D01*
X126492345Y-114640112D01*
X126504051Y-114566204D01*
X126520500Y-114462352D01*
X126520500Y-114257648D01*
X126509046Y-114185331D01*
X126488477Y-114055465D01*
X126425218Y-113860776D01*
X126391503Y-113794607D01*
X126332287Y-113678390D01*
X126324556Y-113667749D01*
X126211971Y-113512786D01*
X126067213Y-113368028D01*
X125901614Y-113247715D01*
X125895006Y-113244348D01*
X125808917Y-113200483D01*
X125758123Y-113152511D01*
X125741328Y-113084690D01*
X125763865Y-113018555D01*
X125808917Y-112979516D01*
X125901610Y-112932287D01*
X125922770Y-112916913D01*
X126067213Y-112811971D01*
X126067215Y-112811968D01*
X126067219Y-112811966D01*
X126211966Y-112667219D01*
X126225646Y-112648388D01*
X126280974Y-112605723D01*
X126350587Y-112599742D01*
X126412383Y-112632347D01*
G37*
%TD.AperFunction*%
%TA.AperFunction,Conductor*%
G36*
X164666231Y-114970185D02*
G01*
X164686873Y-114986819D01*
X165333181Y-115633127D01*
X165366666Y-115694450D01*
X165369500Y-115720808D01*
X165369500Y-120279192D01*
X165349815Y-120346231D01*
X165333181Y-120366873D01*
X158086873Y-127613181D01*
X158025550Y-127646666D01*
X157999192Y-127649500D01*
X144346557Y-127649500D01*
X144279518Y-127629815D01*
X144233763Y-127577011D01*
X144223819Y-127507853D01*
X144228624Y-127487187D01*
X144268477Y-127364534D01*
X144300500Y-127162352D01*
X144300500Y-126957648D01*
X144268477Y-126755466D01*
X144268476Y-126755462D01*
X144268476Y-126755461D01*
X144222128Y-126612818D01*
X144220133Y-126542977D01*
X144256213Y-126483144D01*
X144318914Y-126452316D01*
X144340059Y-126450500D01*
X156144071Y-126450500D01*
X156228615Y-126433682D01*
X156269744Y-126425501D01*
X156388127Y-126376465D01*
X156494669Y-126305277D01*
X162709289Y-120090655D01*
X162770610Y-120057172D01*
X162818754Y-120057685D01*
X162818945Y-120056484D01*
X162923888Y-120073105D01*
X163033713Y-120090500D01*
X163033714Y-120090500D01*
X163246286Y-120090500D01*
X163246287Y-120090500D01*
X163456243Y-120057246D01*
X163658412Y-119991557D01*
X163847816Y-119895051D01*
X163934471Y-119832093D01*
X164019786Y-119770109D01*
X164019788Y-119770106D01*
X164019792Y-119770104D01*
X164170104Y-119619792D01*
X164170106Y-119619788D01*
X164170109Y-119619786D01*
X164295048Y-119447820D01*
X164295047Y-119447820D01*
X164295051Y-119447816D01*
X164391557Y-119258412D01*
X164457246Y-119056243D01*
X164490500Y-118846287D01*
X164490500Y-118633713D01*
X164457246Y-118423757D01*
X164391557Y-118221588D01*
X164295051Y-118032184D01*
X164295049Y-118032181D01*
X164295048Y-118032179D01*
X164170109Y-117860213D01*
X164019786Y-117709890D01*
X163843875Y-117582085D01*
X163844851Y-117580740D01*
X163842742Y-117578408D01*
X163833297Y-117574095D01*
X163819701Y-117552939D01*
X163802834Y-117534295D01*
X163800133Y-117522491D01*
X163795523Y-117515317D01*
X163790500Y-117480382D01*
X163790500Y-117459617D01*
X163810185Y-117392578D01*
X163844592Y-117358902D01*
X163843874Y-117357914D01*
X163847811Y-117355053D01*
X163847816Y-117355051D01*
X164019792Y-117230104D01*
X164170104Y-117079792D01*
X164170106Y-117079788D01*
X164170109Y-117079786D01*
X164295048Y-116907820D01*
X164295050Y-116907817D01*
X164295051Y-116907816D01*
X164391557Y-116718412D01*
X164457246Y-116516243D01*
X164490500Y-116306287D01*
X164490500Y-116093713D01*
X164457246Y-115883757D01*
X164391557Y-115681588D01*
X164295051Y-115492184D01*
X164295049Y-115492181D01*
X164295048Y-115492179D01*
X164170109Y-115320213D01*
X164019789Y-115169893D01*
X164018493Y-115168786D01*
X164018137Y-115168241D01*
X164016347Y-115166451D01*
X164016723Y-115166074D01*
X163980302Y-115110277D01*
X163979807Y-115040409D01*
X164017164Y-114981365D01*
X164080512Y-114951890D01*
X164099029Y-114950500D01*
X164599192Y-114950500D01*
X164666231Y-114970185D01*
G37*
%TD.AperFunction*%
%TA.AperFunction,Conductor*%
G36*
X114074075Y-125827007D02*
G01*
X114040000Y-125954174D01*
X114040000Y-126085826D01*
X114074075Y-126212993D01*
X114106988Y-126270000D01*
X112433012Y-126270000D01*
X112465925Y-126212993D01*
X112500000Y-126085826D01*
X112500000Y-125954174D01*
X112465925Y-125827007D01*
X112433012Y-125770000D01*
X114106988Y-125770000D01*
X114074075Y-125827007D01*
G37*
%TD.AperFunction*%
%TA.AperFunction,Conductor*%
G36*
X141868968Y-92170185D02*
G01*
X141902245Y-92201613D01*
X141968049Y-92292184D01*
X142008034Y-92347219D01*
X142152786Y-92491971D01*
X142307749Y-92604556D01*
X142318390Y-92612287D01*
X142403139Y-92655469D01*
X142411080Y-92659515D01*
X142461876Y-92707490D01*
X142478671Y-92775311D01*
X142456134Y-92841446D01*
X142411080Y-92880485D01*
X142318386Y-92927715D01*
X142152786Y-93048028D01*
X142008028Y-93192786D01*
X141887715Y-93358386D01*
X141794781Y-93540776D01*
X141731522Y-93735465D01*
X141699500Y-93937648D01*
X141699500Y-94142351D01*
X141731522Y-94344534D01*
X141794781Y-94539223D01*
X141887715Y-94721613D01*
X142008028Y-94887213D01*
X142152782Y-95031967D01*
X142152787Y-95031971D01*
X142229583Y-95087767D01*
X142272249Y-95143097D01*
X142278228Y-95212710D01*
X142245622Y-95274505D01*
X142187365Y-95308233D01*
X142166967Y-95313439D01*
X142166956Y-95313442D01*
X142110415Y-95336862D01*
X142870590Y-96097037D01*
X142807007Y-96114075D01*
X142692993Y-96179901D01*
X142599901Y-96272993D01*
X142534075Y-96387007D01*
X142517037Y-96450589D01*
X141756862Y-95690415D01*
X141733449Y-95746940D01*
X141715455Y-95797946D01*
X141695000Y-95940219D01*
X141695000Y-97219785D01*
X141697893Y-97273762D01*
X141697893Y-97273764D01*
X141733438Y-97413030D01*
X141733440Y-97413037D01*
X141756863Y-97469583D01*
X142517037Y-96709409D01*
X142534075Y-96772993D01*
X142599901Y-96887007D01*
X142692993Y-96980099D01*
X142807007Y-97045925D01*
X142870590Y-97062962D01*
X142110415Y-97823135D01*
X142110415Y-97823136D01*
X142166954Y-97846556D01*
X142166961Y-97846558D01*
X142195621Y-97856669D01*
X142252294Y-97897534D01*
X142277876Y-97962552D01*
X142264246Y-98031080D01*
X142227256Y-98073924D01*
X142152782Y-98128032D01*
X142008028Y-98272786D01*
X141887715Y-98438386D01*
X141794781Y-98620776D01*
X141731522Y-98815465D01*
X141699500Y-99017648D01*
X141699500Y-99222351D01*
X141731522Y-99424534D01*
X141794781Y-99619223D01*
X141887715Y-99801613D01*
X142008028Y-99967213D01*
X142152786Y-100111971D01*
X142307749Y-100224556D01*
X142318390Y-100232287D01*
X142409840Y-100278883D01*
X142411080Y-100279515D01*
X142461876Y-100327490D01*
X142478671Y-100395311D01*
X142456134Y-100461446D01*
X142411080Y-100500485D01*
X142318386Y-100547715D01*
X142152786Y-100668028D01*
X142008028Y-100812786D01*
X141887715Y-100978386D01*
X141794781Y-101160776D01*
X141731522Y-101355465D01*
X141699500Y-101557648D01*
X141699500Y-101762352D01*
X141708446Y-101818832D01*
X141731523Y-101964535D01*
X141731523Y-101964538D01*
X141762234Y-102059054D01*
X141764229Y-102128895D01*
X141728149Y-102188728D01*
X141668495Y-102218989D01*
X141540261Y-102244497D01*
X141540255Y-102244499D01*
X141421870Y-102293535D01*
X141315331Y-102364722D01*
X141315324Y-102364728D01*
X138394726Y-105285326D01*
X138394723Y-105285331D01*
X138328960Y-105383755D01*
X138328959Y-105383756D01*
X138328958Y-105383755D01*
X138323535Y-105391872D01*
X138323534Y-105391874D01*
X138274499Y-105510255D01*
X138274497Y-105510261D01*
X138249500Y-105635928D01*
X138249500Y-115164070D01*
X138250659Y-115169896D01*
X138266693Y-115250500D01*
X138274499Y-115289744D01*
X138295973Y-115341588D01*
X138323535Y-115408127D01*
X138394723Y-115514669D01*
X138394726Y-115514673D01*
X140285326Y-117405273D01*
X140285334Y-117405279D01*
X140354594Y-117451557D01*
X140354595Y-117451557D01*
X140391873Y-117476465D01*
X140510256Y-117525501D01*
X140510260Y-117525501D01*
X140510261Y-117525502D01*
X140635928Y-117550500D01*
X140635931Y-117550500D01*
X141801929Y-117550500D01*
X141868968Y-117570185D01*
X141902245Y-117601613D01*
X142007147Y-117745998D01*
X142008034Y-117747219D01*
X142152786Y-117891971D01*
X142307749Y-118004556D01*
X142318390Y-118012287D01*
X142409840Y-118058883D01*
X142411080Y-118059515D01*
X142461876Y-118107490D01*
X142478671Y-118175311D01*
X142456134Y-118241446D01*
X142411080Y-118280485D01*
X142318386Y-118327715D01*
X142152786Y-118448028D01*
X142008028Y-118592786D01*
X141887715Y-118758386D01*
X141794781Y-118940776D01*
X141731522Y-119135465D01*
X141699500Y-119337648D01*
X141699500Y-119542351D01*
X141731522Y-119744534D01*
X141794781Y-119939223D01*
X141856206Y-120059774D01*
X141871606Y-120089999D01*
X141887715Y-120121613D01*
X142008028Y-120287213D01*
X142152782Y-120431967D01*
X142152787Y-120431971D01*
X142229583Y-120487767D01*
X142272249Y-120543097D01*
X142278228Y-120612710D01*
X142245622Y-120674505D01*
X142187365Y-120708233D01*
X142166967Y-120713439D01*
X142166956Y-120713442D01*
X142110415Y-120736862D01*
X142870590Y-121497037D01*
X142807007Y-121514075D01*
X142692993Y-121579901D01*
X142599901Y-121672993D01*
X142534075Y-121787007D01*
X142517037Y-121850589D01*
X141756862Y-121090415D01*
X141733449Y-121146940D01*
X141715455Y-121197946D01*
X141695000Y-121340219D01*
X141695000Y-122619785D01*
X141697893Y-122673762D01*
X141697893Y-122673764D01*
X141733438Y-122813030D01*
X141733440Y-122813037D01*
X141756863Y-122869583D01*
X142517037Y-122109409D01*
X142534075Y-122172993D01*
X142599901Y-122287007D01*
X142692993Y-122380099D01*
X142807007Y-122445925D01*
X142870590Y-122462962D01*
X142110415Y-123223135D01*
X142110415Y-123223136D01*
X142166954Y-123246556D01*
X142166961Y-123246558D01*
X142195621Y-123256669D01*
X142252294Y-123297534D01*
X142277876Y-123362552D01*
X142264246Y-123431080D01*
X142227256Y-123473924D01*
X142152782Y-123528032D01*
X142008028Y-123672786D01*
X141887715Y-123838386D01*
X141794781Y-124020776D01*
X141731522Y-124215465D01*
X141699500Y-124417648D01*
X141699500Y-124622352D01*
X141719121Y-124746230D01*
X141731523Y-124824534D01*
X141731522Y-124824534D01*
X141753403Y-124891873D01*
X141784371Y-124987183D01*
X141786366Y-125057022D01*
X141750286Y-125116855D01*
X141687585Y-125147684D01*
X141666440Y-125149500D01*
X136520808Y-125149500D01*
X136453769Y-125129815D01*
X136433127Y-125113181D01*
X132186819Y-120866873D01*
X132153334Y-120805550D01*
X132150500Y-120779192D01*
X132150500Y-116735928D01*
X132125502Y-116610260D01*
X132125500Y-116610254D01*
X132121293Y-116600099D01*
X132105189Y-116561221D01*
X132090510Y-116525780D01*
X132076468Y-116491878D01*
X132076462Y-116491868D01*
X132005278Y-116385332D01*
X132005272Y-116385325D01*
X126934674Y-111314727D01*
X126934670Y-111314724D01*
X126934669Y-111314723D01*
X126931493Y-111312601D01*
X126930206Y-111311061D01*
X126929965Y-111310863D01*
X126930002Y-111310817D01*
X126886690Y-111258991D01*
X126877981Y-111189666D01*
X126908136Y-111126638D01*
X126967578Y-111089919D01*
X127000385Y-111085500D01*
X129529071Y-111085500D01*
X129613615Y-111068682D01*
X129654744Y-111060501D01*
X129773127Y-111011465D01*
X129828451Y-110974499D01*
X129879669Y-110940277D01*
X133505277Y-107314669D01*
X133576465Y-107208127D01*
X133625501Y-107089744D01*
X133639922Y-107017246D01*
X133650500Y-106964069D01*
X133650500Y-95720808D01*
X133670185Y-95653769D01*
X133686819Y-95633127D01*
X137133127Y-92186819D01*
X137194450Y-92153334D01*
X137220808Y-92150500D01*
X141801929Y-92150500D01*
X141868968Y-92170185D01*
G37*
%TD.AperFunction*%
%TA.AperFunction,Conductor*%
G36*
X156635270Y-116961717D02*
G01*
X156635270Y-116961716D01*
X156674622Y-116907555D01*
X156679232Y-116898507D01*
X156727205Y-116847709D01*
X156795025Y-116830912D01*
X156861161Y-116853447D01*
X156900204Y-116898504D01*
X156904949Y-116907817D01*
X157029890Y-117079786D01*
X157180213Y-117230109D01*
X157352182Y-117355050D01*
X157360946Y-117359516D01*
X157411742Y-117407491D01*
X157428536Y-117475312D01*
X157405998Y-117541447D01*
X157360946Y-117580484D01*
X157352182Y-117584949D01*
X157180215Y-117709889D01*
X157066285Y-117823819D01*
X157004962Y-117857303D01*
X156935270Y-117852319D01*
X156879337Y-117810447D01*
X156862422Y-117779470D01*
X156813354Y-117647913D01*
X156813350Y-117647906D01*
X156727190Y-117532812D01*
X156727187Y-117532809D01*
X156612093Y-117446649D01*
X156612086Y-117446645D01*
X156477380Y-117396403D01*
X156477373Y-117396401D01*
X156394555Y-117387497D01*
X156394884Y-117384431D01*
X156377875Y-117385330D01*
X156318803Y-117352356D01*
X155649408Y-116682962D01*
X155712993Y-116665925D01*
X155827007Y-116600099D01*
X155920099Y-116507007D01*
X155985925Y-116392993D01*
X156002962Y-116329408D01*
X156635270Y-116961717D01*
G37*
%TD.AperFunction*%
%TA.AperFunction,Conductor*%
G36*
X141618834Y-104003625D02*
G01*
X141674767Y-104045497D01*
X141699184Y-104110961D01*
X141699500Y-104119807D01*
X141699500Y-104302351D01*
X141731522Y-104504534D01*
X141794781Y-104699223D01*
X141887715Y-104881613D01*
X142008028Y-105047213D01*
X142152786Y-105191971D01*
X142281281Y-105285326D01*
X142318390Y-105312287D01*
X142409840Y-105358883D01*
X142411080Y-105359515D01*
X142461876Y-105407490D01*
X142478671Y-105475311D01*
X142456134Y-105541446D01*
X142411080Y-105580485D01*
X142318386Y-105627715D01*
X142152786Y-105748028D01*
X142008028Y-105892786D01*
X141887715Y-106058386D01*
X141794781Y-106240776D01*
X141731522Y-106435465D01*
X141699500Y-106637648D01*
X141699500Y-106842351D01*
X141731522Y-107044534D01*
X141794781Y-107239223D01*
X141887715Y-107421613D01*
X142008028Y-107587213D01*
X142152782Y-107731967D01*
X142152787Y-107731971D01*
X142229583Y-107787767D01*
X142272249Y-107843097D01*
X142278228Y-107912710D01*
X142245622Y-107974505D01*
X142187365Y-108008233D01*
X142166967Y-108013439D01*
X142166956Y-108013442D01*
X142110415Y-108036862D01*
X142870590Y-108797037D01*
X142807007Y-108814075D01*
X142692993Y-108879901D01*
X142599901Y-108972993D01*
X142534075Y-109087007D01*
X142517037Y-109150589D01*
X141756862Y-108390415D01*
X141733449Y-108446940D01*
X141715455Y-108497946D01*
X141695000Y-108640219D01*
X141695000Y-109919785D01*
X141697893Y-109973762D01*
X141697893Y-109973764D01*
X141733438Y-110113030D01*
X141733440Y-110113037D01*
X141756863Y-110169583D01*
X142517037Y-109409409D01*
X142534075Y-109472993D01*
X142599901Y-109587007D01*
X142692993Y-109680099D01*
X142807007Y-109745925D01*
X142870590Y-109762962D01*
X142110415Y-110523135D01*
X142110415Y-110523136D01*
X142166954Y-110546556D01*
X142166961Y-110546558D01*
X142195621Y-110556669D01*
X142252294Y-110597534D01*
X142277876Y-110662552D01*
X142264246Y-110731080D01*
X142227256Y-110773924D01*
X142152782Y-110828032D01*
X142008028Y-110972786D01*
X141887715Y-111138386D01*
X141794781Y-111320776D01*
X141731522Y-111515465D01*
X141699500Y-111717648D01*
X141699500Y-111922351D01*
X141731522Y-112124534D01*
X141794781Y-112319223D01*
X141887715Y-112501613D01*
X142008028Y-112667213D01*
X142152786Y-112811971D01*
X142307749Y-112924556D01*
X142318390Y-112932287D01*
X142409840Y-112978883D01*
X142411080Y-112979515D01*
X142461876Y-113027490D01*
X142478671Y-113095311D01*
X142456134Y-113161446D01*
X142411080Y-113200485D01*
X142318386Y-113247715D01*
X142152786Y-113368028D01*
X142008028Y-113512786D01*
X141887715Y-113678386D01*
X141794781Y-113860776D01*
X141731522Y-114055465D01*
X141699500Y-114257648D01*
X141699500Y-114462351D01*
X141731522Y-114664534D01*
X141794781Y-114859223D01*
X141837688Y-114943431D01*
X141887101Y-115040409D01*
X141887715Y-115041613D01*
X142008028Y-115207213D01*
X142152786Y-115351971D01*
X142307749Y-115464556D01*
X142318390Y-115472287D01*
X142375722Y-115501499D01*
X142411080Y-115519515D01*
X142461876Y-115567490D01*
X142478671Y-115635311D01*
X142456134Y-115701446D01*
X142411080Y-115740485D01*
X142318386Y-115787715D01*
X142152786Y-115908028D01*
X142008034Y-116052780D01*
X142008030Y-116052786D01*
X141902246Y-116198386D01*
X141846918Y-116241051D01*
X141801929Y-116249500D01*
X141020808Y-116249500D01*
X140953769Y-116229815D01*
X140933127Y-116213181D01*
X139586819Y-114866873D01*
X139553334Y-114805550D01*
X139550500Y-114779192D01*
X139550500Y-106020807D01*
X139570185Y-105953768D01*
X139586814Y-105933131D01*
X141487819Y-104032125D01*
X141549142Y-103998641D01*
X141618834Y-104003625D01*
G37*
%TD.AperFunction*%
%TA.AperFunction,Conductor*%
G36*
X142313775Y-90182185D02*
G01*
X142359530Y-90234989D01*
X142369474Y-90304147D01*
X142340449Y-90367703D01*
X142319621Y-90386818D01*
X142152786Y-90508028D01*
X142008034Y-90652780D01*
X142008030Y-90652786D01*
X141902246Y-90798386D01*
X141846918Y-90841051D01*
X141801929Y-90849500D01*
X136835929Y-90849500D01*
X136710261Y-90874497D01*
X136710255Y-90874499D01*
X136591874Y-90923534D01*
X136485326Y-90994726D01*
X132494724Y-94985328D01*
X132457860Y-95040499D01*
X132457861Y-95040500D01*
X132423534Y-95091874D01*
X132374499Y-95210255D01*
X132374497Y-95210261D01*
X132349500Y-95335928D01*
X132349500Y-106579192D01*
X132329815Y-106646231D01*
X132313181Y-106666873D01*
X129231873Y-109748181D01*
X129170550Y-109781666D01*
X129144192Y-109784500D01*
X126649000Y-109784500D01*
X126581961Y-109764815D01*
X126536206Y-109712011D01*
X126525000Y-109660500D01*
X126525000Y-108640214D01*
X126522106Y-108586237D01*
X126522106Y-108586235D01*
X126486558Y-108446960D01*
X126463136Y-108390415D01*
X126463135Y-108390415D01*
X125702962Y-109150590D01*
X125685925Y-109087007D01*
X125620099Y-108972993D01*
X125527007Y-108879901D01*
X125412993Y-108814075D01*
X125349410Y-108797037D01*
X126109583Y-108036863D01*
X126109583Y-108036862D01*
X126053052Y-108013447D01*
X126053013Y-108013432D01*
X126024375Y-108003329D01*
X125967704Y-107962463D01*
X125942122Y-107897444D01*
X125955754Y-107828917D01*
X125992745Y-107786074D01*
X126067215Y-107731969D01*
X126067215Y-107731968D01*
X126067219Y-107731966D01*
X126211966Y-107587219D01*
X126211968Y-107587215D01*
X126211971Y-107587213D01*
X126284014Y-107488052D01*
X126332287Y-107421610D01*
X126425220Y-107239219D01*
X126488477Y-107044534D01*
X126520500Y-106842352D01*
X126520500Y-106637648D01*
X126498840Y-106500893D01*
X126488477Y-106435465D01*
X126425218Y-106240776D01*
X126365756Y-106124077D01*
X126332287Y-106058390D01*
X126301663Y-106016239D01*
X126211971Y-105892786D01*
X126067213Y-105748028D01*
X125901614Y-105627715D01*
X125834881Y-105593713D01*
X125808917Y-105580483D01*
X125758123Y-105532511D01*
X125741328Y-105464690D01*
X125763865Y-105398555D01*
X125808917Y-105359516D01*
X125901610Y-105312287D01*
X125938719Y-105285326D01*
X126067213Y-105191971D01*
X126067215Y-105191968D01*
X126067219Y-105191966D01*
X126211966Y-105047219D01*
X126211968Y-105047215D01*
X126211971Y-105047213D01*
X126264732Y-104974590D01*
X126332287Y-104881610D01*
X126425220Y-104699219D01*
X126488477Y-104504534D01*
X126520500Y-104302352D01*
X126520500Y-104097648D01*
X126488477Y-103895466D01*
X126473956Y-103850776D01*
X126425218Y-103700776D01*
X126387079Y-103625925D01*
X126332287Y-103518390D01*
X126320950Y-103502786D01*
X126211971Y-103352786D01*
X126067213Y-103208028D01*
X125901614Y-103087715D01*
X125889459Y-103081522D01*
X125808917Y-103040483D01*
X125758123Y-102992511D01*
X125741328Y-102924690D01*
X125763865Y-102858555D01*
X125808917Y-102819516D01*
X125901610Y-102772287D01*
X125929668Y-102751902D01*
X126067213Y-102651971D01*
X126067215Y-102651968D01*
X126067219Y-102651966D01*
X126211966Y-102507219D01*
X126211968Y-102507215D01*
X126211971Y-102507213D01*
X126264732Y-102434590D01*
X126332287Y-102341610D01*
X126425220Y-102159219D01*
X126488477Y-101964534D01*
X126520500Y-101762352D01*
X126520500Y-101557648D01*
X126488477Y-101355466D01*
X126425220Y-101160781D01*
X126425218Y-101160778D01*
X126425218Y-101160776D01*
X126384901Y-101081650D01*
X126332287Y-100978390D01*
X126301663Y-100936239D01*
X126211971Y-100812786D01*
X126067213Y-100668028D01*
X125901614Y-100547715D01*
X125834881Y-100513713D01*
X125808917Y-100500483D01*
X125758123Y-100452511D01*
X125741328Y-100384690D01*
X125763865Y-100318555D01*
X125808917Y-100279516D01*
X125901610Y-100232287D01*
X126003378Y-100158349D01*
X126067213Y-100111971D01*
X126067215Y-100111968D01*
X126067219Y-100111966D01*
X126211966Y-99967219D01*
X126211968Y-99967215D01*
X126211971Y-99967213D01*
X126264732Y-99894590D01*
X126332287Y-99801610D01*
X126425220Y-99619219D01*
X126488477Y-99424534D01*
X126520500Y-99222352D01*
X126520500Y-99017648D01*
X126488477Y-98815466D01*
X126425220Y-98620781D01*
X126425218Y-98620778D01*
X126425218Y-98620776D01*
X126384901Y-98541650D01*
X126332287Y-98438390D01*
X126301663Y-98396239D01*
X126211971Y-98272786D01*
X126067217Y-98128032D01*
X125990415Y-98072232D01*
X125947750Y-98016902D01*
X125941771Y-97947288D01*
X125974377Y-97885494D01*
X126032640Y-97851765D01*
X126053022Y-97846563D01*
X126053035Y-97846559D01*
X126109582Y-97823135D01*
X125349409Y-97062962D01*
X125412993Y-97045925D01*
X125527007Y-96980099D01*
X125620099Y-96887007D01*
X125685925Y-96772993D01*
X125702962Y-96709409D01*
X126463135Y-97469582D01*
X126463137Y-97469582D01*
X126486552Y-97413053D01*
X126504544Y-97362053D01*
X126524999Y-97219780D01*
X126525000Y-97219779D01*
X126525000Y-95940214D01*
X126522106Y-95886237D01*
X126522106Y-95886235D01*
X126486558Y-95746960D01*
X126463136Y-95690415D01*
X126463135Y-95690415D01*
X125702962Y-96450589D01*
X125685925Y-96387007D01*
X125620099Y-96272993D01*
X125527007Y-96179901D01*
X125412993Y-96114075D01*
X125349410Y-96097037D01*
X126109583Y-95336863D01*
X126109583Y-95336862D01*
X126053052Y-95313447D01*
X126053013Y-95313432D01*
X126024375Y-95303329D01*
X125967704Y-95262463D01*
X125942122Y-95197444D01*
X125955754Y-95128917D01*
X125992745Y-95086074D01*
X126067215Y-95031969D01*
X126067215Y-95031968D01*
X126067219Y-95031966D01*
X126211966Y-94887219D01*
X126211968Y-94887215D01*
X126211971Y-94887213D01*
X126264732Y-94814590D01*
X126332287Y-94721610D01*
X126425220Y-94539219D01*
X126488477Y-94344534D01*
X126520500Y-94142352D01*
X126520500Y-93937648D01*
X126488477Y-93735466D01*
X126425220Y-93540781D01*
X126425218Y-93540778D01*
X126425218Y-93540776D01*
X126391503Y-93474607D01*
X126332287Y-93358390D01*
X126301663Y-93316239D01*
X126211971Y-93192786D01*
X126067217Y-93048032D01*
X126067212Y-93048028D01*
X125986440Y-92989344D01*
X125943774Y-92934015D01*
X125937795Y-92864401D01*
X125970400Y-92802606D01*
X126022433Y-92770641D01*
X126109606Y-92743478D01*
X126255185Y-92655472D01*
X126375472Y-92535185D01*
X126463478Y-92389606D01*
X126514086Y-92227196D01*
X126520500Y-92156616D01*
X126520500Y-90843384D01*
X126514086Y-90772804D01*
X126463478Y-90610394D01*
X126375472Y-90464815D01*
X126375470Y-90464813D01*
X126375469Y-90464811D01*
X126284839Y-90374181D01*
X126251354Y-90312858D01*
X126256338Y-90243166D01*
X126298210Y-90187233D01*
X126363674Y-90162816D01*
X126372520Y-90162500D01*
X142246736Y-90162500D01*
X142313775Y-90182185D01*
G37*
%TD.AperFunction*%
%TA.AperFunction,Conductor*%
G36*
X114074075Y-102967007D02*
G01*
X114040000Y-103094174D01*
X114040000Y-103225826D01*
X114074075Y-103352993D01*
X114106988Y-103410000D01*
X112433012Y-103410000D01*
X112465925Y-103352993D01*
X112500000Y-103225826D01*
X112500000Y-103094174D01*
X112465925Y-102967007D01*
X112433012Y-102910000D01*
X114106988Y-102910000D01*
X114074075Y-102967007D01*
G37*
%TD.AperFunction*%
%TD*%
M02*
