%TF.GenerationSoftware,KiCad,Pcbnew,10.0.1*%
%TF.CreationDate,2026-07-09T23:00:25+09:00*%
%TF.ProjectId,PSCE-MI_Raspberry_PICO,50534345-2d4d-4495-9f52-617370626572,rev?*%
%TF.SameCoordinates,Original*%
%TF.FileFunction,Copper,L1,Top*%
%TF.FilePolarity,Positive*%
%FSLAX46Y46*%
G04 Gerber Fmt 4.6, Leading zero omitted, Abs format (unit mm)*
G04 Created by KiCad (PCBNEW 10.0.1) date 2026-07-09 23:00:25*
%MOMM*%
%LPD*%
G01*
G04 APERTURE LIST*
G04 Aperture macros list*
%AMRoundRect*
0 Rectangle with rounded corners*
0 $1 Rounding radius*
0 $2 $3 $4 $5 $6 $7 $8 $9 X,Y pos of 4 corners*
0 Add a 4 corners polygon primitive as box body*
4,1,4,$2,$3,$4,$5,$6,$7,$8,$9,$2,$3,0*
0 Add four circle primitives for the rounded corners*
1,1,$1+$1,$2,$3*
1,1,$1+$1,$4,$5*
1,1,$1+$1,$6,$7*
1,1,$1+$1,$8,$9*
0 Add four rect primitives between the rounded corners*
20,1,$1+$1,$2,$3,$4,$5,0*
20,1,$1+$1,$4,$5,$6,$7,0*
20,1,$1+$1,$6,$7,$8,$9,0*
20,1,$1+$1,$8,$9,$2,$3,0*%
%AMFreePoly0*
4,1,37,0.603843,0.796157,0.639018,0.796157,0.711114,0.766294,0.766294,0.711114,0.796157,0.639018,0.796157,0.603843,0.800000,0.600000,0.800000,-0.600000,0.796157,-0.603843,0.796157,-0.639018,0.766294,-0.711114,0.711114,-0.766294,0.639018,-0.796157,0.603843,-0.796157,0.600000,-0.800000,0.000000,-0.800000,0.000000,-0.796148,-0.078414,-0.796148,-0.232228,-0.765552,-0.377117,-0.705537,
-0.507515,-0.618408,-0.618408,-0.507515,-0.705537,-0.377117,-0.765552,-0.232228,-0.796148,-0.078414,-0.796148,0.078414,-0.765552,0.232228,-0.705537,0.377117,-0.618408,0.507515,-0.507515,0.618408,-0.377117,0.705537,-0.232228,0.765552,-0.078414,0.796148,0.000000,0.796148,0.000000,0.800000,0.600000,0.800000,0.603843,0.796157,0.603843,0.796157,$1*%
%AMFreePoly1*
4,1,37,0.000000,0.796148,0.078414,0.796148,0.232228,0.765552,0.377117,0.705537,0.507515,0.618408,0.618408,0.507515,0.705537,0.377117,0.765552,0.232228,0.796148,0.078414,0.796148,-0.078414,0.765552,-0.232228,0.705537,-0.377117,0.618408,-0.507515,0.507515,-0.618408,0.377117,-0.705537,0.232228,-0.765552,0.078414,-0.796148,0.000000,-0.796148,0.000000,-0.800000,-0.600000,-0.800000,
-0.603843,-0.796157,-0.639018,-0.796157,-0.711114,-0.766294,-0.766294,-0.711114,-0.796157,-0.639018,-0.796157,-0.603843,-0.800000,-0.600000,-0.800000,0.600000,-0.796157,0.603843,-0.796157,0.639018,-0.766294,0.711114,-0.711114,0.766294,-0.639018,0.796157,-0.603843,0.796157,-0.600000,0.800000,0.000000,0.800000,0.000000,0.796148,0.000000,0.796148,$1*%
G04 Aperture macros list end*
%TA.AperFunction,ComponentPad*%
%ADD10C,5.600000*%
%TD*%
%TA.AperFunction,ComponentPad*%
%ADD11R,1.700000X1.700000*%
%TD*%
%TA.AperFunction,ComponentPad*%
%ADD12O,1.700000X1.700000*%
%TD*%
%TA.AperFunction,ComponentPad*%
%ADD13C,1.700000*%
%TD*%
%TA.AperFunction,ComponentPad*%
%ADD14C,1.600000*%
%TD*%
%TA.AperFunction,ComponentPad*%
%ADD15RoundRect,0.200000X-0.600000X-0.600000X0.600000X-0.600000X0.600000X0.600000X-0.600000X0.600000X0*%
%TD*%
%TA.AperFunction,ComponentPad*%
%ADD16FreePoly0,0.000000*%
%TD*%
%TA.AperFunction,ComponentPad*%
%ADD17FreePoly1,0.000000*%
%TD*%
%TA.AperFunction,ComponentPad*%
%ADD18C,2.000000*%
%TD*%
%TA.AperFunction,ViaPad*%
%ADD19C,0.600000*%
%TD*%
%TA.AperFunction,Conductor*%
%ADD20C,0.300000*%
%TD*%
G04 APERTURE END LIST*
D10*
%TO.P,H3,1*%
%TO.N,N/C*%
X168000000Y-93000000D03*
%TD*%
%TO.P,H4,1*%
%TO.N,N/C*%
X168000000Y-150000000D03*
%TD*%
D11*
%TO.P,J2,1,Pin_1_1*%
%TO.N,/FPGA_8*%
X112000000Y-115860000D03*
D12*
%TO.P,J2,2,Pin_2_2*%
%TO.N,/FPGA_9*%
X114540000Y-115860000D03*
%TO.P,J2,3,Pin_3_3*%
%TO.N,/FPGA_10*%
X112000000Y-118400000D03*
%TO.P,J2,4,Pin_4_4*%
%TO.N,/FPGA_11*%
X114540000Y-118400000D03*
%TO.P,J2,5,Pin_5_5*%
%TO.N,/FPGA_12*%
X112000000Y-120940000D03*
%TO.P,J2,6,Pin_6_6*%
%TO.N,/FPGA_13*%
X114540000Y-120940000D03*
%TO.P,J2,7,Pin_7_7*%
%TO.N,/FPGA_14*%
X112000000Y-123480000D03*
%TO.P,J2,8,Pin_8_8*%
%TO.N,/FPGA_15*%
X114540000Y-123480000D03*
%TO.P,J2,9,Pin_9_9*%
%TO.N,GND*%
X112000000Y-126020000D03*
%TO.P,J2,10,Pin_10_10*%
X114540000Y-126020000D03*
%TO.P,J2,11,Pin_11_11*%
%TO.N,Net-(J1-Pin_11)*%
X112000000Y-128560000D03*
%TO.P,J2,12,Pin_12_12*%
X114540000Y-128560000D03*
%TD*%
D11*
%TO.P,J3,1,Pin_1_1*%
%TO.N,/FPGA_16*%
X112000000Y-138720000D03*
D12*
%TO.P,J3,2,Pin_2_2*%
%TO.N,/FPGA_17*%
X114540000Y-138720000D03*
%TO.P,J3,3,Pin_3_3*%
%TO.N,/FPGA_18*%
X112000000Y-141260000D03*
%TO.P,J3,4,Pin_4_4*%
%TO.N,/FPGA_19*%
X114540000Y-141260000D03*
%TO.P,J3,5,Pin_5_5*%
%TO.N,/FPGA_20*%
X112000000Y-143800000D03*
%TO.P,J3,6,Pin_6_6*%
%TO.N,/FPGA_21*%
X114540000Y-143800000D03*
%TO.P,J3,7,Pin_7_7*%
%TO.N,/FPGA_22*%
X112000000Y-146340000D03*
%TO.P,J3,8,Pin_8_8*%
%TO.N,/FPGA_23*%
X114540000Y-146340000D03*
%TO.P,J3,9,Pin_9_9*%
%TO.N,GND*%
X112000000Y-148880000D03*
%TO.P,J3,10,Pin_10_10*%
X114540000Y-148880000D03*
%TO.P,J3,11,Pin_11_11*%
%TO.N,Net-(J1-Pin_11)*%
X112000000Y-151420000D03*
%TO.P,J3,12,Pin_12_12*%
X114540000Y-151420000D03*
%TD*%
D11*
%TO.P,J9,1,Pin_1_1*%
%TO.N,GND*%
X155520000Y-118740000D03*
D13*
%TO.P,J9,2,Pin_2_2*%
X155520000Y-116200000D03*
%TO.P,J9,3,Pin_3_3*%
%TO.N,+3V3*%
X158060000Y-118740000D03*
%TO.P,J9,4,Pin_4_4*%
X158060000Y-116200000D03*
%TO.P,J9,5,Pin_5_5*%
%TO.N,/SCK*%
X160600000Y-118740000D03*
%TO.P,J9,6,Pin_6_6*%
X160600000Y-116200000D03*
%TO.P,J9,7,Pin_7_7*%
%TO.N,/SDA*%
X163140000Y-118740000D03*
%TO.P,J9,8,Pin_8_8*%
X163140000Y-116200000D03*
%TD*%
D11*
%TO.P,J1,1,Pin_1_1*%
%TO.N,/FPGA_0*%
X112000000Y-93000000D03*
D12*
%TO.P,J1,2,Pin_2_2*%
%TO.N,/FPGA_1*%
X114540000Y-93000000D03*
%TO.P,J1,3,Pin_3_3*%
%TO.N,/FPGA_2*%
X112000000Y-95540000D03*
%TO.P,J1,4,Pin_4_4*%
%TO.N,/FPGA_3*%
X114540000Y-95540000D03*
%TO.P,J1,5,Pin_5_5*%
%TO.N,/FPGA_4*%
X112000000Y-98080000D03*
%TO.P,J1,6,Pin_6_6*%
%TO.N,/FPGA_5*%
X114540000Y-98080000D03*
%TO.P,J1,7,Pin_7_7*%
%TO.N,/FPGA_6*%
X112000000Y-100620000D03*
%TO.P,J1,8,Pin_8_8*%
%TO.N,/FPGA_7*%
X114540000Y-100620000D03*
%TO.P,J1,9,Pin_9_9*%
%TO.N,GND*%
X112000000Y-103160000D03*
%TO.P,J1,10,Pin_10_10*%
X114540000Y-103160000D03*
%TO.P,J1,11,Pin_11_11*%
%TO.N,Net-(J1-Pin_11)*%
X112000000Y-105700000D03*
%TO.P,J1,12,Pin_12_12*%
X114540000Y-105700000D03*
%TD*%
D14*
%TO.P,C3,1*%
%TO.N,Net-(U1-RUN)*%
X162800000Y-104350000D03*
%TO.P,C3,2*%
%TO.N,GND*%
X162800000Y-106850000D03*
%TD*%
D11*
%TO.P,J4,1,Pin_1_1*%
%TO.N,Net-(J1-Pin_11)*%
X114625000Y-110400000D03*
D13*
%TO.P,J4,2,Pin_2_2*%
%TO.N,+5V*%
X117165000Y-110400000D03*
%TD*%
D15*
%TO.P,U1,1,GPIO0_1*%
%TO.N,/FPGA_0*%
X125220000Y-91500000D03*
D14*
%TO.P,U1,2,GPIO1_2*%
%TO.N,/FPGA_1*%
X125220000Y-94040000D03*
D16*
%TO.P,U1,3,GND_3*%
%TO.N,GND*%
X125220000Y-96580000D03*
D14*
%TO.P,U1,4,GPIO2_4*%
%TO.N,/FPGA_2*%
X125220000Y-99120000D03*
%TO.P,U1,5,GPIO3_5*%
%TO.N,/FPGA_3*%
X125220000Y-101660000D03*
%TO.P,U1,6,GPIO4_6*%
%TO.N,/FPGA_4*%
X125220000Y-104200000D03*
%TO.P,U1,7,GPIO5_7*%
%TO.N,/FPGA_5*%
X125220000Y-106740000D03*
D16*
%TO.P,U1,8,GND_8*%
%TO.N,GND*%
X125220000Y-109280000D03*
D14*
%TO.P,U1,9,GPIO6_9*%
%TO.N,/SDA*%
X125220000Y-111820000D03*
%TO.P,U1,10,GPIO7_10*%
%TO.N,/SCK*%
X125220000Y-114360000D03*
%TO.P,U1,11,GPIO8_11*%
%TO.N,/FPGA_8*%
X125220000Y-116900000D03*
%TO.P,U1,12,GPIO9_12*%
%TO.N,/FPGA_9*%
X125220000Y-119440000D03*
D16*
%TO.P,U1,13,GND_13*%
%TO.N,GND*%
X125220000Y-121980000D03*
D14*
%TO.P,U1,14,GPIO10_14*%
%TO.N,/FPGA_10*%
X125220000Y-124520000D03*
%TO.P,U1,15,GPIO11_15*%
%TO.N,/FPGA_11*%
X125220000Y-127060000D03*
%TO.P,U1,16,GPIO12_16*%
%TO.N,/FPGA_12*%
X125220000Y-129600000D03*
%TO.P,U1,17,GPIO13_17*%
%TO.N,/FPGA_13*%
X125220000Y-132140000D03*
D16*
%TO.P,U1,18,GND_18*%
%TO.N,GND*%
X125220000Y-134680000D03*
D14*
%TO.P,U1,19,GPIO14_19*%
%TO.N,/FPGA_14*%
X125220000Y-137220000D03*
%TO.P,U1,20,GPIO15_20*%
%TO.N,/FPGA_15*%
X125220000Y-139760000D03*
%TO.P,U1,21,GPIO16_21*%
%TO.N,/FPGA_16*%
X143000000Y-139760000D03*
%TO.P,U1,22,GPIO17_22*%
%TO.N,/FPGA_17*%
X143000000Y-137220000D03*
D17*
%TO.P,U1,23,GND_23*%
%TO.N,GND*%
X143000000Y-134680000D03*
D14*
%TO.P,U1,24,GPIO18_24*%
%TO.N,/FPGA_18*%
X143000000Y-132140000D03*
%TO.P,U1,25,GPIO19_25*%
%TO.N,/FPGA_19*%
X143000000Y-129600000D03*
%TO.P,U1,26,GPIO20_26*%
%TO.N,/FPGA_20*%
X143000000Y-127060000D03*
%TO.P,U1,27,GPIO21_27*%
%TO.N,/FPGA_21*%
X143000000Y-124520000D03*
D17*
%TO.P,U1,28,GND_28*%
%TO.N,GND*%
X143000000Y-121980000D03*
D14*
%TO.P,U1,29,GPIO22_29*%
%TO.N,/FPGA_22*%
X143000000Y-119440000D03*
%TO.P,U1,30,RUN_30*%
%TO.N,Net-(U1-RUN)*%
X143000000Y-116900000D03*
%TO.P,U1,31,GPIO26_ADC0_31*%
%TO.N,/FPGA_23*%
X143000000Y-114360000D03*
%TO.P,U1,32,GPIO27_ADC1_32*%
%TO.N,/FPGA_6*%
X143000000Y-111820000D03*
D17*
%TO.P,U1,33,AGND_33*%
%TO.N,GND*%
X143000000Y-109280000D03*
D14*
%TO.P,U1,34,GPIO28_ADC2_34*%
%TO.N,/FPGA_7*%
X143000000Y-106740000D03*
%TO.P,U1,35,ADC_VREF_35*%
%TO.N,unconnected-(U1-ADC_VREF-Pad35)*%
X143000000Y-104200000D03*
%TO.P,U1,36,3V3_36*%
%TO.N,+3V3*%
X143000000Y-101660000D03*
%TO.P,U1,37,3V3_EN_37*%
%TO.N,unconnected-(U1-3V3_EN-Pad37)*%
X143000000Y-99120000D03*
D17*
%TO.P,U1,38,GND_38*%
%TO.N,GND*%
X143000000Y-96580000D03*
D14*
%TO.P,U1,39,VSYS_39*%
%TO.N,unconnected-(U1-VSYS-Pad39)*%
X143000000Y-94040000D03*
%TO.P,U1,40,VBUS_40*%
%TO.N,+5V*%
X143000000Y-91500000D03*
%TD*%
D18*
%TO.P,SW1,1,1_1*%
%TO.N,Net-(U1-RUN)*%
X151638000Y-102870000D03*
%TO.P,SW1,2,2_2*%
X158138000Y-102870000D03*
%TO.P,SW1,3,K_3*%
%TO.N,GND*%
X151638000Y-107370000D03*
%TO.P,SW1,4,A_4*%
X158138000Y-107370000D03*
%TD*%
D10*
%TO.P,H1,1*%
%TO.N,N/C*%
X113538000Y-85344000D03*
%TD*%
%TO.P,H2,1*%
%TO.N,N/C*%
X113284000Y-158000000D03*
%TD*%
D19*
%TO.N,GND*%
X137160000Y-97790000D03*
X137100000Y-127000000D03*
X114554000Y-133096000D03*
X130100000Y-117500000D03*
X121500000Y-130000000D03*
X148082000Y-115570000D03*
X111200000Y-110400000D03*
X130300000Y-121400000D03*
X132800000Y-120800000D03*
X157600000Y-126600000D03*
X156210000Y-96520000D03*
X120100000Y-103700000D03*
X137100000Y-121000000D03*
X148082000Y-121920000D03*
X162800000Y-121400000D03*
%TD*%
%TO.N,/FPGA_8*%
D20*
X117856000Y-113030000D02*
X121726000Y-116900000D01*
X112000000Y-113806000D02*
X112776000Y-113030000D01*
X121726000Y-116900000D02*
X125220000Y-116900000D01*
X112000000Y-115860000D02*
X112000000Y-113806000D01*
X112776000Y-113030000D02*
X117856000Y-113030000D01*
%TO.N,/FPGA_9*%
X122742000Y-119440000D02*
X125220000Y-119440000D01*
X114540000Y-115860000D02*
X119162000Y-115860000D01*
X119162000Y-115860000D02*
X122742000Y-119440000D01*
%TO.N,/FPGA_10*%
X124012000Y-124520000D02*
X125220000Y-124520000D01*
X113306000Y-117094000D02*
X118618000Y-117094000D01*
X122428000Y-122936000D02*
X124012000Y-124520000D01*
X118618000Y-117094000D02*
X122428000Y-120904000D01*
X112000000Y-118400000D02*
X113306000Y-117094000D01*
X122428000Y-120904000D02*
X122428000Y-122936000D01*
%TO.N,/FPGA_11*%
X121666000Y-122174000D02*
X121666000Y-125222000D01*
X117892000Y-118400000D02*
X121666000Y-122174000D01*
X123504000Y-127060000D02*
X125220000Y-127060000D01*
X121666000Y-125222000D02*
X123504000Y-127060000D01*
X114540000Y-118400000D02*
X117892000Y-118400000D01*
%TO.N,/FPGA_12*%
X122996000Y-129600000D02*
X120396000Y-127000000D01*
X120396000Y-127000000D02*
X120396000Y-122428000D01*
X113306000Y-119634000D02*
X112000000Y-120940000D01*
X120396000Y-122428000D02*
X117602000Y-119634000D01*
X125220000Y-129600000D02*
X122996000Y-129600000D01*
X117602000Y-119634000D02*
X113306000Y-119634000D01*
%TO.N,/FPGA_13*%
X114540000Y-120940000D02*
X117384000Y-120940000D01*
X121980000Y-132140000D02*
X125220000Y-132140000D01*
X119380000Y-129540000D02*
X121980000Y-132140000D01*
X117384000Y-120940000D02*
X119380000Y-122936000D01*
X119380000Y-122936000D02*
X119380000Y-129540000D01*
%TO.N,/FPGA_14*%
X118618000Y-124460000D02*
X118618000Y-133604000D01*
X113201000Y-122279000D02*
X116437000Y-122279000D01*
X122234000Y-137220000D02*
X125220000Y-137220000D01*
X112000000Y-123480000D02*
X113201000Y-122279000D01*
X116437000Y-122279000D02*
X118618000Y-124460000D01*
X118618000Y-133604000D02*
X122234000Y-137220000D01*
%TO.N,/FPGA_15*%
X117856000Y-135636000D02*
X121980000Y-139760000D01*
X116368000Y-123480000D02*
X117856000Y-124968000D01*
X114540000Y-123480000D02*
X116368000Y-123480000D01*
X121980000Y-139760000D02*
X125220000Y-139760000D01*
X117856000Y-124968000D02*
X117856000Y-135636000D01*
%TO.N,GND*%
X151638000Y-107370000D02*
X158138000Y-107370000D01*
%TO.N,/FPGA_16*%
X139927000Y-142833000D02*
X143000000Y-139760000D01*
X115570000Y-137414000D02*
X120989000Y-142833000D01*
X120989000Y-142833000D02*
X139927000Y-142833000D01*
X113306000Y-137414000D02*
X115570000Y-137414000D01*
X112000000Y-138720000D02*
X113306000Y-137414000D01*
%TO.N,/FPGA_17*%
X144448000Y-143334000D02*
X146050000Y-141732000D01*
X146050000Y-140270000D02*
X143000000Y-137220000D01*
X119154000Y-143334000D02*
X144448000Y-143334000D01*
X114540000Y-138720000D02*
X119154000Y-143334000D01*
X146050000Y-141732000D02*
X146050000Y-140270000D01*
%TO.N,/FPGA_18*%
X144709000Y-143835000D02*
X118846471Y-143835000D01*
X146812000Y-135952000D02*
X146812000Y-141732000D01*
X113306000Y-139954000D02*
X112000000Y-141260000D01*
X146812000Y-141732000D02*
X144709000Y-143835000D01*
X118846471Y-143835000D02*
X114965471Y-139954000D01*
X143000000Y-132140000D02*
X146812000Y-135952000D01*
X114965471Y-139954000D02*
X113306000Y-139954000D01*
%TO.N,/FPGA_19*%
X147313000Y-141939520D02*
X147313000Y-133913000D01*
X117616000Y-144336000D02*
X144916520Y-144336000D01*
X114540000Y-141260000D02*
X117616000Y-144336000D01*
X147313000Y-133913000D02*
X143000000Y-129600000D01*
X144916520Y-144336000D02*
X147313000Y-141939520D01*
%TO.N,/FPGA_20*%
X145231000Y-144837000D02*
X117408480Y-144837000D01*
X147814000Y-131874000D02*
X147814000Y-142254000D01*
X143000000Y-127060000D02*
X147814000Y-131874000D01*
X115065480Y-142494000D02*
X113306000Y-142494000D01*
X147814000Y-142254000D02*
X145231000Y-144837000D01*
X117408480Y-144837000D02*
X115065480Y-142494000D01*
X113306000Y-142494000D02*
X112000000Y-143800000D01*
%TO.N,/FPGA_21*%
X116078000Y-145338000D02*
X145438520Y-145338000D01*
X145438520Y-145338000D02*
X148315000Y-142461520D01*
X148315000Y-142461520D02*
X148315000Y-129835000D01*
X114540000Y-143800000D02*
X116078000Y-145338000D01*
X148315000Y-129835000D02*
X143000000Y-124520000D01*
%TO.N,/FPGA_22*%
X115032480Y-145001000D02*
X113339000Y-145001000D01*
X115867000Y-145839000D02*
X115538479Y-145510479D01*
X143000000Y-119440000D02*
X148844000Y-125284000D01*
X115538479Y-145507000D02*
X115032480Y-145001000D01*
X145646042Y-145839000D02*
X115867000Y-145839000D01*
X148844000Y-125284000D02*
X148844000Y-142641042D01*
X115538479Y-145510479D02*
X115538479Y-145507000D01*
X113339000Y-145001000D02*
X112000000Y-146340000D01*
X148844000Y-142641042D02*
X145646042Y-145839000D01*
%TO.N,/FPGA_23*%
X114540000Y-146340000D02*
X145853562Y-146340000D01*
X149352000Y-120712000D02*
X143000000Y-114360000D01*
X145853562Y-146340000D02*
X149352000Y-142841562D01*
X149352000Y-142841562D02*
X149352000Y-120712000D01*
%TO.N,+3V3*%
X146460000Y-101660000D02*
X147900000Y-103100000D01*
X147900000Y-103100000D02*
X147900000Y-109700000D01*
X147900000Y-109700000D02*
X150200000Y-112000000D01*
X156300000Y-112000000D02*
X158060000Y-113760000D01*
X158060000Y-116200000D02*
X158060000Y-118740000D01*
X143000000Y-101660000D02*
X146460000Y-101660000D01*
X150200000Y-112000000D02*
X156300000Y-112000000D01*
X158060000Y-113760000D02*
X158060000Y-116200000D01*
%TO.N,/FPGA_0*%
X112000000Y-93000000D02*
X113500000Y-91500000D01*
X113500000Y-91500000D02*
X125220000Y-91500000D01*
%TO.N,/FPGA_1*%
X121540000Y-94040000D02*
X120500000Y-93000000D01*
X114540000Y-93000000D02*
X120500000Y-93000000D01*
X125220000Y-94040000D02*
X121540000Y-94040000D01*
%TO.N,/FPGA_2*%
X113340000Y-94200000D02*
X112000000Y-95540000D01*
X118000000Y-94200000D02*
X113340000Y-94200000D01*
X125220000Y-99120000D02*
X122920000Y-99120000D01*
X122920000Y-99120000D02*
X118000000Y-94200000D01*
%TO.N,/FPGA_3*%
X117384000Y-95540000D02*
X123504000Y-101660000D01*
X123504000Y-101660000D02*
X125220000Y-101660000D01*
X114540000Y-95540000D02*
X117384000Y-95540000D01*
%TO.N,/FPGA_4*%
X116880000Y-96880000D02*
X122500000Y-102500000D01*
X112000000Y-98080000D02*
X113200000Y-96880000D01*
X123520000Y-102500000D02*
X125220000Y-104200000D01*
X122500000Y-102500000D02*
X123520000Y-102500000D01*
X113200000Y-96880000D02*
X116880000Y-96880000D01*
%TO.N,/FPGA_5*%
X116560000Y-98080000D02*
X125220000Y-106740000D01*
X114540000Y-98080000D02*
X116560000Y-98080000D01*
%TO.N,/FPGA_6*%
X113200000Y-103446346D02*
X113340000Y-103586346D01*
X113200000Y-101820000D02*
X113200000Y-103446346D01*
X113340000Y-103586346D02*
X113340000Y-103657057D01*
X115037057Y-104360000D02*
X115087057Y-104310000D01*
X133415000Y-110600000D02*
X134635000Y-111820000D01*
X116410000Y-104310000D02*
X122700000Y-110600000D01*
X114042943Y-104360000D02*
X115037057Y-104360000D01*
X134635000Y-111820000D02*
X143000000Y-111820000D01*
X115087057Y-104310000D02*
X116410000Y-104310000D01*
X112000000Y-100620000D02*
X113200000Y-101820000D01*
X122700000Y-110600000D02*
X133415000Y-110600000D01*
X113340000Y-103657057D02*
X114042943Y-104360000D01*
%TO.N,/FPGA_7*%
X132840000Y-108000000D02*
X134100000Y-106740000D01*
X121760000Y-107860000D02*
X121900000Y-108000000D01*
X121760000Y-107840000D02*
X121760000Y-107860000D01*
X114540000Y-100620000D02*
X121760000Y-107840000D01*
X134100000Y-106740000D02*
X143000000Y-106740000D01*
X121900000Y-108000000D02*
X132840000Y-108000000D01*
%TO.N,Net-(U1-RUN)*%
X159618000Y-104350000D02*
X162800000Y-104350000D01*
X158138000Y-102870000D02*
X159618000Y-104350000D01*
X151638000Y-102870000D02*
X158138000Y-102870000D01*
%TD*%
%TA.AperFunction,Conductor*%
%TO.N,GND*%
G36*
X111828403Y-82308185D02*
G01*
X111874158Y-82360989D01*
X111884102Y-82430147D01*
X111855077Y-82493703D01*
X111830255Y-82515602D01*
X111569532Y-82689811D01*
X111569518Y-82689821D01*
X111318841Y-82895546D01*
X111089546Y-83124841D01*
X110883821Y-83375518D01*
X110883811Y-83375532D01*
X110703657Y-83645151D01*
X110703646Y-83645169D01*
X110550788Y-83931145D01*
X110550786Y-83931150D01*
X110426686Y-84230752D01*
X110332548Y-84541086D01*
X110332545Y-84541097D01*
X110269287Y-84859125D01*
X110269284Y-84859142D01*
X110237500Y-85181860D01*
X110237500Y-85506139D01*
X110269284Y-85828857D01*
X110269287Y-85828874D01*
X110332545Y-86146902D01*
X110332548Y-86146913D01*
X110426686Y-86457247D01*
X110550786Y-86756849D01*
X110550788Y-86756854D01*
X110703646Y-87042830D01*
X110703657Y-87042848D01*
X110883811Y-87312467D01*
X110883821Y-87312481D01*
X111089546Y-87563158D01*
X111318841Y-87792453D01*
X111318846Y-87792457D01*
X111318847Y-87792458D01*
X111569524Y-87998183D01*
X111839158Y-88178347D01*
X111839167Y-88178352D01*
X111839169Y-88178353D01*
X112125145Y-88331211D01*
X112125147Y-88331211D01*
X112125153Y-88331215D01*
X112424754Y-88455314D01*
X112735077Y-88549449D01*
X112735083Y-88549450D01*
X112735086Y-88549451D01*
X112735097Y-88549454D01*
X112934528Y-88589122D01*
X113053132Y-88612714D01*
X113375857Y-88644500D01*
X113375860Y-88644500D01*
X113700140Y-88644500D01*
X113700143Y-88644500D01*
X114022868Y-88612714D01*
X114180295Y-88581399D01*
X114340902Y-88549454D01*
X114340913Y-88549451D01*
X114340913Y-88549450D01*
X114340923Y-88549449D01*
X114651246Y-88455314D01*
X114950847Y-88331215D01*
X115236842Y-88178347D01*
X115506476Y-87998183D01*
X115757153Y-87792458D01*
X115986458Y-87563153D01*
X116192183Y-87312476D01*
X116372347Y-87042842D01*
X116525215Y-86756847D01*
X116649314Y-86457246D01*
X116743449Y-86146923D01*
X116743451Y-86146913D01*
X116743454Y-86146902D01*
X116775399Y-85986295D01*
X116806714Y-85828868D01*
X116838500Y-85506143D01*
X116838500Y-85181857D01*
X116806714Y-84859132D01*
X116783122Y-84740528D01*
X116743454Y-84541097D01*
X116743451Y-84541086D01*
X116743450Y-84541083D01*
X116743449Y-84541077D01*
X116649314Y-84230754D01*
X116525215Y-83931153D01*
X116372347Y-83645158D01*
X116192183Y-83375524D01*
X115986458Y-83124847D01*
X115986457Y-83124846D01*
X115986453Y-83124841D01*
X115757158Y-82895546D01*
X115506481Y-82689821D01*
X115506480Y-82689820D01*
X115506476Y-82689817D01*
X115245744Y-82515601D01*
X115200940Y-82461990D01*
X115192233Y-82392665D01*
X115222387Y-82329638D01*
X115281830Y-82292918D01*
X115314636Y-82288500D01*
X118999548Y-82288500D01*
X119066587Y-82308185D01*
X119109736Y-82355627D01*
X122974511Y-89843629D01*
X122977608Y-89855186D01*
X123004654Y-89902032D01*
X123029466Y-89950104D01*
X123037518Y-89958953D01*
X123043500Y-89969314D01*
X123081745Y-90007559D01*
X123083705Y-90009713D01*
X123083706Y-90009715D01*
X123118151Y-90047571D01*
X123118157Y-90047576D01*
X123118158Y-90047577D01*
X123128227Y-90054041D01*
X123136686Y-90062500D01*
X123183522Y-90089540D01*
X123185989Y-90091124D01*
X123229052Y-90118770D01*
X123229057Y-90118773D01*
X123240451Y-90122409D01*
X123250814Y-90128392D01*
X123303068Y-90142393D01*
X123354601Y-90158840D01*
X123366552Y-90159403D01*
X123378108Y-90162500D01*
X123432197Y-90162500D01*
X123463827Y-90163991D01*
X123486237Y-90165049D01*
X123486237Y-90165048D01*
X123486238Y-90165049D01*
X123486238Y-90165048D01*
X123492531Y-90164520D01*
X123511290Y-90162500D01*
X124067480Y-90162500D01*
X124134519Y-90182185D01*
X124180274Y-90234989D01*
X124190218Y-90304147D01*
X124161193Y-90367703D01*
X124155161Y-90374181D01*
X124064531Y-90464810D01*
X124064530Y-90464811D01*
X124038401Y-90508034D01*
X123976522Y-90610394D01*
X123929158Y-90762390D01*
X123890422Y-90820538D01*
X123826397Y-90848512D01*
X123810774Y-90849500D01*
X113435929Y-90849500D01*
X113310261Y-90874497D01*
X113310255Y-90874499D01*
X113191870Y-90923535D01*
X113085331Y-90994722D01*
X113085324Y-90994728D01*
X112466871Y-91613181D01*
X112405548Y-91646666D01*
X112379190Y-91649500D01*
X111102129Y-91649500D01*
X111102123Y-91649501D01*
X111042516Y-91655908D01*
X110907671Y-91706202D01*
X110907664Y-91706206D01*
X110792455Y-91792452D01*
X110792452Y-91792455D01*
X110706206Y-91907664D01*
X110706202Y-91907671D01*
X110655908Y-92042517D01*
X110649501Y-92102116D01*
X110649500Y-92102135D01*
X110649500Y-93897870D01*
X110649501Y-93897876D01*
X110655908Y-93957483D01*
X110706202Y-94092328D01*
X110706206Y-94092335D01*
X110792452Y-94207544D01*
X110792455Y-94207547D01*
X110907664Y-94293793D01*
X110907671Y-94293797D01*
X111039082Y-94342810D01*
X111095016Y-94384681D01*
X111119433Y-94450145D01*
X111104582Y-94518418D01*
X111083431Y-94546673D01*
X110969889Y-94660215D01*
X110844951Y-94832179D01*
X110748444Y-95021585D01*
X110682753Y-95223760D01*
X110663027Y-95348306D01*
X110649500Y-95433713D01*
X110649500Y-95646287D01*
X110656489Y-95690415D01*
X110673520Y-95797946D01*
X110682754Y-95856243D01*
X110731998Y-96007801D01*
X110748444Y-96058414D01*
X110844951Y-96247820D01*
X110969890Y-96419786D01*
X111120213Y-96570109D01*
X111292182Y-96695050D01*
X111300946Y-96699516D01*
X111351742Y-96747491D01*
X111368536Y-96815312D01*
X111345998Y-96881447D01*
X111300946Y-96920484D01*
X111292182Y-96924949D01*
X111120213Y-97049890D01*
X110969890Y-97200213D01*
X110844951Y-97372179D01*
X110748444Y-97561585D01*
X110682753Y-97763760D01*
X110658834Y-97914780D01*
X110649500Y-97973713D01*
X110649500Y-98186287D01*
X110682754Y-98396243D01*
X110703811Y-98461051D01*
X110748444Y-98598414D01*
X110844951Y-98787820D01*
X110969890Y-98959786D01*
X111120213Y-99110109D01*
X111292182Y-99235050D01*
X111300946Y-99239516D01*
X111351742Y-99287491D01*
X111368536Y-99355312D01*
X111345998Y-99421447D01*
X111300946Y-99460484D01*
X111292182Y-99464949D01*
X111120213Y-99589890D01*
X110969890Y-99740213D01*
X110844951Y-99912179D01*
X110748444Y-100101585D01*
X110682753Y-100303760D01*
X110658834Y-100454780D01*
X110649500Y-100513713D01*
X110649500Y-100726287D01*
X110682754Y-100936243D01*
X110730612Y-101083535D01*
X110748444Y-101138414D01*
X110844951Y-101327820D01*
X110969890Y-101499786D01*
X111120213Y-101650109D01*
X111292179Y-101775048D01*
X111292181Y-101775049D01*
X111292184Y-101775051D01*
X111301493Y-101779794D01*
X111352290Y-101827766D01*
X111369087Y-101895587D01*
X111346552Y-101961722D01*
X111301502Y-102000762D01*
X111292443Y-102005378D01*
X111120540Y-102130272D01*
X111120535Y-102130276D01*
X110970276Y-102280535D01*
X110970272Y-102280540D01*
X110845379Y-102452442D01*
X110748904Y-102641782D01*
X110683242Y-102843870D01*
X110683242Y-102843873D01*
X110672769Y-102910000D01*
X111566988Y-102910000D01*
X111534075Y-102967007D01*
X111500000Y-103094174D01*
X111500000Y-103225826D01*
X111534075Y-103352993D01*
X111566988Y-103410000D01*
X110672769Y-103410000D01*
X110683242Y-103476126D01*
X110683242Y-103476129D01*
X110748904Y-103678217D01*
X110845379Y-103867557D01*
X110970272Y-104039459D01*
X110970276Y-104039464D01*
X111120535Y-104189723D01*
X111120540Y-104189727D01*
X111292444Y-104314622D01*
X111301495Y-104319234D01*
X111352292Y-104367208D01*
X111369087Y-104435029D01*
X111346550Y-104501164D01*
X111301499Y-104540202D01*
X111292182Y-104544949D01*
X111120213Y-104669890D01*
X110969890Y-104820213D01*
X110844951Y-104992179D01*
X110748444Y-105181585D01*
X110682753Y-105383760D01*
X110658834Y-105534780D01*
X110649500Y-105593713D01*
X110649500Y-105806287D01*
X110682754Y-106016243D01*
X110732274Y-106168650D01*
X110748444Y-106218414D01*
X110844951Y-106407820D01*
X110969890Y-106579786D01*
X111120213Y-106730109D01*
X111292179Y-106855048D01*
X111292181Y-106855049D01*
X111292184Y-106855051D01*
X111481588Y-106951557D01*
X111683757Y-107017246D01*
X111893713Y-107050500D01*
X111893714Y-107050500D01*
X112106286Y-107050500D01*
X112106287Y-107050500D01*
X112316243Y-107017246D01*
X112518412Y-106951557D01*
X112707816Y-106855051D01*
X112756060Y-106820000D01*
X112879786Y-106730109D01*
X112879788Y-106730106D01*
X112879792Y-106730104D01*
X113030104Y-106579792D01*
X113030106Y-106579788D01*
X113030109Y-106579786D01*
X113155048Y-106407820D01*
X113155047Y-106407820D01*
X113155051Y-106407816D01*
X113159514Y-106399054D01*
X113207488Y-106348259D01*
X113275308Y-106331463D01*
X113341444Y-106353999D01*
X113380486Y-106399056D01*
X113384951Y-106407820D01*
X113509890Y-106579786D01*
X113660213Y-106730109D01*
X113832179Y-106855048D01*
X113832181Y-106855049D01*
X113832184Y-106855051D01*
X114021588Y-106951557D01*
X114223757Y-107017246D01*
X114433713Y-107050500D01*
X114433714Y-107050500D01*
X114646286Y-107050500D01*
X114646287Y-107050500D01*
X114856243Y-107017246D01*
X115058412Y-106951557D01*
X115247816Y-106855051D01*
X115296060Y-106820000D01*
X115419786Y-106730109D01*
X115419788Y-106730106D01*
X115419792Y-106730104D01*
X115570104Y-106579792D01*
X115570106Y-106579788D01*
X115570109Y-106579786D01*
X115695048Y-106407820D01*
X115695047Y-106407820D01*
X115695051Y-106407816D01*
X115791557Y-106218412D01*
X115857246Y-106016243D01*
X115890500Y-105806287D01*
X115890500Y-105593713D01*
X115857246Y-105383757D01*
X115791557Y-105181588D01*
X115770772Y-105140795D01*
X115770263Y-105138089D01*
X115768463Y-105136011D01*
X115763854Y-105103961D01*
X115757876Y-105072126D01*
X115758910Y-105069576D01*
X115758519Y-105066853D01*
X115771972Y-105037394D01*
X115784152Y-105007385D01*
X115786401Y-105005799D01*
X115787544Y-105003297D01*
X115814787Y-104985788D01*
X115841259Y-104967128D01*
X115844715Y-104966555D01*
X115846322Y-104965523D01*
X115881257Y-104960500D01*
X116089192Y-104960500D01*
X116156231Y-104980185D01*
X116176873Y-104996819D01*
X122285324Y-111105271D01*
X122285327Y-111105274D01*
X122381447Y-111169499D01*
X122381448Y-111169499D01*
X122381449Y-111169500D01*
X122391873Y-111176465D01*
X122510256Y-111225501D01*
X122510260Y-111225501D01*
X122510261Y-111225502D01*
X122635928Y-111250500D01*
X122635931Y-111250500D01*
X123866944Y-111250500D01*
X123933983Y-111270185D01*
X123979738Y-111322989D01*
X123989682Y-111392147D01*
X123984875Y-111412818D01*
X123951523Y-111515461D01*
X123951523Y-111515464D01*
X123919500Y-111717648D01*
X123919500Y-111922351D01*
X123951522Y-112124534D01*
X124014781Y-112319223D01*
X124107715Y-112501613D01*
X124228028Y-112667213D01*
X124372786Y-112811971D01*
X124527749Y-112924556D01*
X124538390Y-112932287D01*
X124629840Y-112978883D01*
X124631080Y-112979515D01*
X124681876Y-113027490D01*
X124698671Y-113095311D01*
X124676134Y-113161446D01*
X124631080Y-113200485D01*
X124538386Y-113247715D01*
X124372786Y-113368028D01*
X124228028Y-113512786D01*
X124107715Y-113678386D01*
X124014781Y-113860776D01*
X123951522Y-114055465D01*
X123919500Y-114257648D01*
X123919500Y-114462351D01*
X123951522Y-114664534D01*
X124014781Y-114859223D01*
X124107715Y-115041613D01*
X124228028Y-115207213D01*
X124372786Y-115351971D01*
X124527749Y-115464556D01*
X124538390Y-115472287D01*
X124595722Y-115501499D01*
X124631080Y-115519515D01*
X124681876Y-115567490D01*
X124698671Y-115635311D01*
X124676134Y-115701446D01*
X124631080Y-115740485D01*
X124538386Y-115787715D01*
X124372786Y-115908028D01*
X124228034Y-116052780D01*
X124228030Y-116052786D01*
X124122246Y-116198386D01*
X124066918Y-116241051D01*
X124021929Y-116249500D01*
X122046808Y-116249500D01*
X121979769Y-116229815D01*
X121959127Y-116213181D01*
X118270674Y-112524727D01*
X118270673Y-112524726D01*
X118266017Y-112521615D01*
X118164127Y-112453535D01*
X118164122Y-112453533D01*
X118045744Y-112404499D01*
X118045738Y-112404497D01*
X117920071Y-112379500D01*
X117920069Y-112379500D01*
X112711931Y-112379500D01*
X112711929Y-112379500D01*
X112586260Y-112404497D01*
X112586254Y-112404499D01*
X112561703Y-112414669D01*
X112467874Y-112453533D01*
X112361326Y-112524726D01*
X111494726Y-113391326D01*
X111423534Y-113497874D01*
X111374499Y-113616255D01*
X111374497Y-113616261D01*
X111349500Y-113741928D01*
X111349500Y-114385500D01*
X111329815Y-114452539D01*
X111277011Y-114498294D01*
X111225501Y-114509500D01*
X111102130Y-114509500D01*
X111102123Y-114509501D01*
X111042516Y-114515908D01*
X110907671Y-114566202D01*
X110907664Y-114566206D01*
X110792455Y-114652452D01*
X110792452Y-114652455D01*
X110706206Y-114767664D01*
X110706202Y-114767671D01*
X110655908Y-114902517D01*
X110649501Y-114962116D01*
X110649500Y-114962135D01*
X110649500Y-116757870D01*
X110649501Y-116757876D01*
X110655908Y-116817483D01*
X110706202Y-116952328D01*
X110706206Y-116952335D01*
X110792452Y-117067544D01*
X110792455Y-117067547D01*
X110907664Y-117153793D01*
X110907671Y-117153797D01*
X111039082Y-117202810D01*
X111095016Y-117244681D01*
X111119433Y-117310145D01*
X111104582Y-117378418D01*
X111083431Y-117406673D01*
X110969889Y-117520215D01*
X110844951Y-117692179D01*
X110748444Y-117881585D01*
X110682753Y-118083760D01*
X110658834Y-118234780D01*
X110649500Y-118293713D01*
X110649500Y-118506287D01*
X110682754Y-118716243D01*
X110730763Y-118864000D01*
X110748444Y-118918414D01*
X110844951Y-119107820D01*
X110969890Y-119279786D01*
X111120213Y-119430109D01*
X111292182Y-119555050D01*
X111300946Y-119559516D01*
X111351742Y-119607491D01*
X111368536Y-119675312D01*
X111345998Y-119741447D01*
X111300946Y-119780484D01*
X111292182Y-119784949D01*
X111120213Y-119909890D01*
X110969890Y-120060213D01*
X110844951Y-120232179D01*
X110748444Y-120421585D01*
X110682753Y-120623760D01*
X110649500Y-120833713D01*
X110649500Y-121046286D01*
X110673520Y-121197946D01*
X110682754Y-121256243D01*
X110731998Y-121407801D01*
X110748444Y-121458414D01*
X110844951Y-121647820D01*
X110969890Y-121819786D01*
X111120213Y-121970109D01*
X111292182Y-122095050D01*
X111300946Y-122099516D01*
X111351742Y-122147491D01*
X111368536Y-122215312D01*
X111345998Y-122281447D01*
X111300946Y-122320484D01*
X111292182Y-122324949D01*
X111120213Y-122449890D01*
X110969890Y-122600213D01*
X110844951Y-122772179D01*
X110748444Y-122961585D01*
X110682753Y-123163760D01*
X110649500Y-123373713D01*
X110649500Y-123586286D01*
X110676345Y-123755783D01*
X110682754Y-123796243D01*
X110696448Y-123838390D01*
X110748444Y-123998414D01*
X110844951Y-124187820D01*
X110969890Y-124359786D01*
X111120213Y-124510109D01*
X111292179Y-124635048D01*
X111292181Y-124635049D01*
X111292184Y-124635051D01*
X111301493Y-124639794D01*
X111352290Y-124687766D01*
X111369087Y-124755587D01*
X111346552Y-124821722D01*
X111301502Y-124860762D01*
X111292443Y-124865378D01*
X111120540Y-124990272D01*
X111120535Y-124990276D01*
X110970276Y-125140535D01*
X110970272Y-125140540D01*
X110845379Y-125312442D01*
X110748904Y-125501782D01*
X110683242Y-125703870D01*
X110683242Y-125703873D01*
X110672769Y-125770000D01*
X111566988Y-125770000D01*
X111534075Y-125827007D01*
X111500000Y-125954174D01*
X111500000Y-126085826D01*
X111534075Y-126212993D01*
X111566988Y-126270000D01*
X110672769Y-126270000D01*
X110683242Y-126336126D01*
X110683242Y-126336129D01*
X110748904Y-126538217D01*
X110845379Y-126727557D01*
X110970272Y-126899459D01*
X110970276Y-126899464D01*
X111120535Y-127049723D01*
X111120540Y-127049727D01*
X111292444Y-127174622D01*
X111301495Y-127179234D01*
X111352292Y-127227208D01*
X111369087Y-127295029D01*
X111346550Y-127361164D01*
X111301499Y-127400202D01*
X111292182Y-127404949D01*
X111120213Y-127529890D01*
X110969890Y-127680213D01*
X110844951Y-127852179D01*
X110748444Y-128041585D01*
X110682753Y-128243760D01*
X110658834Y-128394780D01*
X110649500Y-128453713D01*
X110649500Y-128666287D01*
X110682754Y-128876243D01*
X110703811Y-128941051D01*
X110748444Y-129078414D01*
X110844951Y-129267820D01*
X110969890Y-129439786D01*
X111120213Y-129590109D01*
X111292179Y-129715048D01*
X111292181Y-129715049D01*
X111292184Y-129715051D01*
X111481588Y-129811557D01*
X111683757Y-129877246D01*
X111893713Y-129910500D01*
X111893714Y-129910500D01*
X112106286Y-129910500D01*
X112106287Y-129910500D01*
X112316243Y-129877246D01*
X112518412Y-129811557D01*
X112707816Y-129715051D01*
X112729789Y-129699086D01*
X112879786Y-129590109D01*
X112879788Y-129590106D01*
X112879792Y-129590104D01*
X113030104Y-129439792D01*
X113030106Y-129439788D01*
X113030109Y-129439786D01*
X113155048Y-129267820D01*
X113155047Y-129267820D01*
X113155051Y-129267816D01*
X113159514Y-129259054D01*
X113207488Y-129208259D01*
X113275308Y-129191463D01*
X113341444Y-129213999D01*
X113380486Y-129259056D01*
X113384951Y-129267820D01*
X113509890Y-129439786D01*
X113660213Y-129590109D01*
X113832179Y-129715048D01*
X113832181Y-129715049D01*
X113832184Y-129715051D01*
X114021588Y-129811557D01*
X114223757Y-129877246D01*
X114433713Y-129910500D01*
X114433714Y-129910500D01*
X114646286Y-129910500D01*
X114646287Y-129910500D01*
X114856243Y-129877246D01*
X115058412Y-129811557D01*
X115247816Y-129715051D01*
X115269789Y-129699086D01*
X115419786Y-129590109D01*
X115419788Y-129590106D01*
X115419792Y-129590104D01*
X115570104Y-129439792D01*
X115570106Y-129439788D01*
X115570109Y-129439786D01*
X115695048Y-129267820D01*
X115695047Y-129267820D01*
X115695051Y-129267816D01*
X115791557Y-129078412D01*
X115857246Y-128876243D01*
X115890500Y-128666287D01*
X115890500Y-128453713D01*
X115857246Y-128243757D01*
X115791557Y-128041588D01*
X115695051Y-127852184D01*
X115695049Y-127852181D01*
X115695048Y-127852179D01*
X115570109Y-127680213D01*
X115419786Y-127529890D01*
X115247817Y-127404949D01*
X115238504Y-127400204D01*
X115187707Y-127352230D01*
X115170912Y-127284409D01*
X115193449Y-127218274D01*
X115238507Y-127179232D01*
X115247558Y-127174620D01*
X115419459Y-127049727D01*
X115419464Y-127049723D01*
X115569723Y-126899464D01*
X115569727Y-126899459D01*
X115694620Y-126727557D01*
X115791095Y-126538217D01*
X115856757Y-126336129D01*
X115856757Y-126336126D01*
X115867231Y-126270000D01*
X114973012Y-126270000D01*
X115005925Y-126212993D01*
X115040000Y-126085826D01*
X115040000Y-125954174D01*
X115005925Y-125827007D01*
X114973012Y-125770000D01*
X115867231Y-125770000D01*
X115856757Y-125703873D01*
X115856757Y-125703870D01*
X115791095Y-125501782D01*
X115694620Y-125312442D01*
X115569727Y-125140540D01*
X115569723Y-125140535D01*
X115419464Y-124990276D01*
X115419459Y-124990272D01*
X115247555Y-124865377D01*
X115238500Y-124860763D01*
X115187706Y-124812788D01*
X115170912Y-124744966D01*
X115193451Y-124678832D01*
X115238508Y-124639793D01*
X115247816Y-124635051D01*
X115327007Y-124577515D01*
X115419786Y-124510109D01*
X115419788Y-124510106D01*
X115419792Y-124510104D01*
X115570104Y-124359792D01*
X115570106Y-124359788D01*
X115570109Y-124359786D01*
X115697915Y-124183875D01*
X115699259Y-124184851D01*
X115701591Y-124182742D01*
X115705905Y-124173297D01*
X115727060Y-124159701D01*
X115745705Y-124142834D01*
X115757508Y-124140133D01*
X115764683Y-124135523D01*
X115799618Y-124130500D01*
X116047192Y-124130500D01*
X116114231Y-124150185D01*
X116134873Y-124166819D01*
X117169181Y-125201127D01*
X117202666Y-125262450D01*
X117205500Y-125288808D01*
X117205500Y-135700069D01*
X117205500Y-135700071D01*
X117205499Y-135700071D01*
X117230497Y-135825738D01*
X117230499Y-135825744D01*
X117279535Y-135944127D01*
X117348464Y-136047288D01*
X117350726Y-136050673D01*
X121565326Y-140265273D01*
X121565329Y-140265275D01*
X121565331Y-140265277D01*
X121668287Y-140334069D01*
X121671873Y-140336465D01*
X121790256Y-140385501D01*
X121790260Y-140385501D01*
X121790261Y-140385502D01*
X121915928Y-140410500D01*
X121915931Y-140410500D01*
X124021929Y-140410500D01*
X124088968Y-140430185D01*
X124122245Y-140461613D01*
X124188049Y-140552184D01*
X124228034Y-140607219D01*
X124372786Y-140751971D01*
X124527749Y-140864556D01*
X124538390Y-140872287D01*
X124654607Y-140931503D01*
X124720776Y-140965218D01*
X124720778Y-140965218D01*
X124720781Y-140965220D01*
X124825137Y-140999127D01*
X124915465Y-141028477D01*
X125016557Y-141044488D01*
X125117648Y-141060500D01*
X125117649Y-141060500D01*
X125322351Y-141060500D01*
X125322352Y-141060500D01*
X125524534Y-141028477D01*
X125719219Y-140965220D01*
X125901610Y-140872287D01*
X125994590Y-140804732D01*
X126067213Y-140751971D01*
X126067215Y-140751968D01*
X126067219Y-140751966D01*
X126211966Y-140607219D01*
X126211968Y-140607215D01*
X126211971Y-140607213D01*
X126264732Y-140534590D01*
X126332287Y-140441610D01*
X126425220Y-140259219D01*
X126488477Y-140064534D01*
X126520500Y-139862352D01*
X126520500Y-139657648D01*
X126488477Y-139455466D01*
X126425220Y-139260781D01*
X126425218Y-139260778D01*
X126425218Y-139260776D01*
X126343833Y-139101051D01*
X126332287Y-139078390D01*
X126301666Y-139036243D01*
X126211971Y-138912786D01*
X126067213Y-138768028D01*
X125901614Y-138647715D01*
X125895006Y-138644348D01*
X125808917Y-138600483D01*
X125758123Y-138552511D01*
X125741328Y-138484690D01*
X125763865Y-138418555D01*
X125808917Y-138379516D01*
X125901610Y-138332287D01*
X125922770Y-138316913D01*
X126067213Y-138211971D01*
X126067215Y-138211968D01*
X126067219Y-138211966D01*
X126211966Y-138067219D01*
X126211968Y-138067215D01*
X126211971Y-138067213D01*
X126264732Y-137994590D01*
X126332287Y-137901610D01*
X126425220Y-137719219D01*
X126488477Y-137524534D01*
X126520500Y-137322352D01*
X126520500Y-137117648D01*
X126497098Y-136969895D01*
X127010000Y-136969895D01*
X131662057Y-140582663D01*
X131702931Y-140639327D01*
X131710000Y-140680597D01*
X131710000Y-141630000D01*
X136510000Y-141630000D01*
X136510000Y-140680597D01*
X136529685Y-140613558D01*
X136557941Y-140582664D01*
X141210000Y-136969895D01*
X141210000Y-132630000D01*
X127010000Y-132630000D01*
X127010000Y-136969895D01*
X126497098Y-136969895D01*
X126488477Y-136915466D01*
X126486287Y-136908727D01*
X126425218Y-136720776D01*
X126343833Y-136561051D01*
X126332287Y-136538390D01*
X126317753Y-136518385D01*
X126211971Y-136372786D01*
X126067217Y-136228032D01*
X125990415Y-136172232D01*
X125947750Y-136116902D01*
X125941771Y-136047288D01*
X125974377Y-135985494D01*
X126032640Y-135951765D01*
X126053022Y-135946563D01*
X126053035Y-135946559D01*
X126109582Y-135923135D01*
X125349409Y-135162962D01*
X125412993Y-135145925D01*
X125527007Y-135080099D01*
X125620099Y-134987007D01*
X125685925Y-134872993D01*
X125702962Y-134809409D01*
X126463135Y-135569582D01*
X126463137Y-135569582D01*
X126486552Y-135513053D01*
X126504544Y-135462053D01*
X126524999Y-135319780D01*
X126525000Y-135319779D01*
X126525000Y-134040214D01*
X126522106Y-133986237D01*
X126522106Y-133986235D01*
X126486558Y-133846960D01*
X126463136Y-133790415D01*
X126463135Y-133790415D01*
X125702962Y-134550589D01*
X125685925Y-134487007D01*
X125620099Y-134372993D01*
X125527007Y-134279901D01*
X125412993Y-134214075D01*
X125349410Y-134197037D01*
X126109583Y-133436863D01*
X126109583Y-133436862D01*
X126053052Y-133413447D01*
X126053013Y-133413432D01*
X126024375Y-133403329D01*
X125967704Y-133362463D01*
X125942122Y-133297444D01*
X125955754Y-133228917D01*
X125992745Y-133186074D01*
X126067215Y-133131969D01*
X126067215Y-133131968D01*
X126067219Y-133131966D01*
X126211966Y-132987219D01*
X126211968Y-132987215D01*
X126211971Y-132987213D01*
X126264732Y-132914590D01*
X126332287Y-132821610D01*
X126425220Y-132639219D01*
X126488477Y-132444534D01*
X126520500Y-132242352D01*
X126520500Y-132037648D01*
X126488477Y-131835466D01*
X126425220Y-131640781D01*
X126425218Y-131640778D01*
X126425218Y-131640776D01*
X126343833Y-131481051D01*
X126332287Y-131458390D01*
X126317753Y-131438385D01*
X126211971Y-131292786D01*
X126067213Y-131148028D01*
X125901614Y-131027715D01*
X125895006Y-131024348D01*
X125808917Y-130980483D01*
X125758123Y-130932511D01*
X125741328Y-130864690D01*
X125763865Y-130798555D01*
X125808917Y-130759516D01*
X125901610Y-130712287D01*
X125922770Y-130696913D01*
X126067213Y-130591971D01*
X126067215Y-130591968D01*
X126067219Y-130591966D01*
X126211966Y-130447219D01*
X126211968Y-130447215D01*
X126211971Y-130447213D01*
X126283728Y-130348446D01*
X126332287Y-130281610D01*
X126425220Y-130099219D01*
X126488477Y-129904534D01*
X126520500Y-129702352D01*
X126520500Y-129497648D01*
X126488477Y-129295466D01*
X126425220Y-129100781D01*
X126425218Y-129100778D01*
X126425218Y-129100776D01*
X126343833Y-128941051D01*
X126332287Y-128918390D01*
X126301663Y-128876239D01*
X126211971Y-128752786D01*
X126067213Y-128608028D01*
X125901614Y-128487715D01*
X125834881Y-128453713D01*
X125808917Y-128440483D01*
X125758123Y-128392511D01*
X125741328Y-128324690D01*
X125763865Y-128258555D01*
X125808917Y-128219516D01*
X125901610Y-128172287D01*
X126003378Y-128098349D01*
X126067213Y-128051971D01*
X126067215Y-128051968D01*
X126067219Y-128051966D01*
X126211966Y-127907219D01*
X126211968Y-127907215D01*
X126211971Y-127907213D01*
X126299477Y-127786769D01*
X126332287Y-127741610D01*
X126425220Y-127559219D01*
X126488477Y-127364534D01*
X126520500Y-127162352D01*
X126520500Y-126957648D01*
X126488477Y-126755466D01*
X126425220Y-126560781D01*
X126425218Y-126560778D01*
X126425218Y-126560776D01*
X126387079Y-126485925D01*
X126332287Y-126378390D01*
X126301581Y-126336126D01*
X126211971Y-126212786D01*
X126067213Y-126068028D01*
X125901614Y-125947715D01*
X125895006Y-125944348D01*
X125808917Y-125900483D01*
X125758123Y-125852511D01*
X125741328Y-125784690D01*
X125763865Y-125718555D01*
X125808917Y-125679516D01*
X125901610Y-125632287D01*
X125975711Y-125578450D01*
X126067213Y-125511971D01*
X126067215Y-125511968D01*
X126067219Y-125511966D01*
X126211966Y-125367219D01*
X126211968Y-125367215D01*
X126211971Y-125367213D01*
X126268934Y-125288808D01*
X126332287Y-125201610D01*
X126425220Y-125019219D01*
X126488477Y-124824534D01*
X126520500Y-124622352D01*
X126520500Y-124417648D01*
X126488477Y-124215466D01*
X126478212Y-124183875D01*
X126425218Y-124020776D01*
X126374986Y-123922192D01*
X126332287Y-123838390D01*
X126301663Y-123796239D01*
X126211971Y-123672786D01*
X126067217Y-123528032D01*
X125990415Y-123472232D01*
X125947750Y-123416902D01*
X125941771Y-123347288D01*
X125974377Y-123285494D01*
X126032640Y-123251765D01*
X126053022Y-123246563D01*
X126053035Y-123246559D01*
X126109582Y-123223135D01*
X125349409Y-122462962D01*
X125412993Y-122445925D01*
X125527007Y-122380099D01*
X125620099Y-122287007D01*
X125685925Y-122172993D01*
X125702962Y-122109409D01*
X126463135Y-122869582D01*
X126463137Y-122869582D01*
X126486552Y-122813053D01*
X126504544Y-122762053D01*
X126524999Y-122619780D01*
X126525000Y-122619779D01*
X126525000Y-121340224D01*
X126524999Y-121340204D01*
X126522106Y-121286237D01*
X126522106Y-121286235D01*
X126486558Y-121146960D01*
X126463136Y-121090415D01*
X126463135Y-121090415D01*
X125702962Y-121850589D01*
X125685925Y-121787007D01*
X125620099Y-121672993D01*
X125527007Y-121579901D01*
X125412993Y-121514075D01*
X125349410Y-121497037D01*
X126109583Y-120736863D01*
X126109583Y-120736862D01*
X126053052Y-120713447D01*
X126053013Y-120713432D01*
X126024375Y-120703329D01*
X125967704Y-120662463D01*
X125942122Y-120597444D01*
X125955754Y-120528917D01*
X125992745Y-120486074D01*
X126067215Y-120431969D01*
X126067215Y-120431968D01*
X126067219Y-120431966D01*
X126211966Y-120287219D01*
X126211968Y-120287215D01*
X126211971Y-120287213D01*
X126264732Y-120214590D01*
X126332287Y-120121610D01*
X126425220Y-119939219D01*
X126488477Y-119744534D01*
X126520500Y-119542352D01*
X126520500Y-119337648D01*
X126488477Y-119135466D01*
X126425220Y-118940781D01*
X126425218Y-118940778D01*
X126425218Y-118940776D01*
X126377072Y-118846286D01*
X126332287Y-118758390D01*
X126301663Y-118716239D01*
X126211971Y-118592786D01*
X126067213Y-118448028D01*
X125901614Y-118327715D01*
X125834881Y-118293713D01*
X125808917Y-118280483D01*
X125758123Y-118232511D01*
X125741328Y-118164690D01*
X125763865Y-118098555D01*
X125808917Y-118059516D01*
X125901610Y-118012287D01*
X125922770Y-117996913D01*
X126067213Y-117891971D01*
X126067215Y-117891968D01*
X126067219Y-117891966D01*
X126211966Y-117747219D01*
X126211968Y-117747215D01*
X126211971Y-117747213D01*
X126284115Y-117647913D01*
X126332287Y-117581610D01*
X126425220Y-117399219D01*
X126488477Y-117204534D01*
X126520500Y-117002352D01*
X126520500Y-116797648D01*
X126488477Y-116595466D01*
X126425220Y-116400781D01*
X126425218Y-116400778D01*
X126425218Y-116400776D01*
X126377052Y-116306246D01*
X126332287Y-116218390D01*
X126317753Y-116198385D01*
X126211971Y-116052786D01*
X126067213Y-115908028D01*
X125901614Y-115787715D01*
X125895006Y-115784348D01*
X125808917Y-115740483D01*
X125758123Y-115692511D01*
X125741328Y-115624690D01*
X125763865Y-115558555D01*
X125808917Y-115519516D01*
X125901610Y-115472287D01*
X125948414Y-115438282D01*
X126067213Y-115351971D01*
X126067215Y-115351968D01*
X126067219Y-115351966D01*
X126211966Y-115207219D01*
X126211968Y-115207215D01*
X126211971Y-115207213D01*
X126300960Y-115084728D01*
X126332287Y-115041610D01*
X126425220Y-114859219D01*
X126488477Y-114664534D01*
X126520500Y-114462352D01*
X126520500Y-114257648D01*
X126488477Y-114055466D01*
X126425220Y-113860781D01*
X126425218Y-113860778D01*
X126425218Y-113860776D01*
X126391503Y-113794607D01*
X126332287Y-113678390D01*
X126287148Y-113616261D01*
X126211971Y-113512786D01*
X126067213Y-113368028D01*
X125901614Y-113247715D01*
X125895006Y-113244348D01*
X125808917Y-113200483D01*
X125758123Y-113152511D01*
X125741328Y-113084690D01*
X125763865Y-113018555D01*
X125808917Y-112979516D01*
X125901610Y-112932287D01*
X125922770Y-112916913D01*
X126067213Y-112811971D01*
X126067215Y-112811968D01*
X126067219Y-112811966D01*
X126211966Y-112667219D01*
X126211968Y-112667215D01*
X126211971Y-112667213D01*
X126277905Y-112576461D01*
X126332287Y-112501610D01*
X126425220Y-112319219D01*
X126488477Y-112124534D01*
X126520500Y-111922352D01*
X126520500Y-111717648D01*
X126488477Y-111515466D01*
X126488476Y-111515462D01*
X126488476Y-111515461D01*
X126455125Y-111412818D01*
X126453130Y-111342977D01*
X126489210Y-111283144D01*
X126551911Y-111252316D01*
X126573056Y-111250500D01*
X133094192Y-111250500D01*
X133161231Y-111270185D01*
X133181873Y-111286819D01*
X134220325Y-112325272D01*
X134220332Y-112325278D01*
X134326863Y-112396459D01*
X134326865Y-112396460D01*
X134326874Y-112396466D01*
X134370819Y-112414668D01*
X134370820Y-112414669D01*
X134370821Y-112414669D01*
X134445256Y-112445501D01*
X134445260Y-112445501D01*
X134445261Y-112445502D01*
X134570928Y-112470500D01*
X134570931Y-112470500D01*
X141801929Y-112470500D01*
X141868968Y-112490185D01*
X141902245Y-112521613D01*
X141977725Y-112625502D01*
X142008034Y-112667219D01*
X142152786Y-112811971D01*
X142307749Y-112924556D01*
X142318390Y-112932287D01*
X142409840Y-112978883D01*
X142411080Y-112979515D01*
X142461876Y-113027490D01*
X142478671Y-113095311D01*
X142456134Y-113161446D01*
X142411080Y-113200485D01*
X142318386Y-113247715D01*
X142152786Y-113368028D01*
X142008028Y-113512786D01*
X141887715Y-113678386D01*
X141794781Y-113860776D01*
X141731522Y-114055465D01*
X141699500Y-114257648D01*
X141699500Y-114462351D01*
X141731522Y-114664534D01*
X141794781Y-114859223D01*
X141887715Y-115041613D01*
X142008028Y-115207213D01*
X142152786Y-115351971D01*
X142307749Y-115464556D01*
X142318390Y-115472287D01*
X142375722Y-115501499D01*
X142411080Y-115519515D01*
X142461876Y-115567490D01*
X142478671Y-115635311D01*
X142456134Y-115701446D01*
X142411080Y-115740485D01*
X142318386Y-115787715D01*
X142152786Y-115908028D01*
X142008028Y-116052786D01*
X141887715Y-116218386D01*
X141794781Y-116400776D01*
X141731522Y-116595465D01*
X141699500Y-116797648D01*
X141699500Y-117002351D01*
X141731522Y-117204534D01*
X141794781Y-117399223D01*
X141840242Y-117488443D01*
X141887140Y-117580486D01*
X141887715Y-117581613D01*
X142008028Y-117747213D01*
X142152786Y-117891971D01*
X142307749Y-118004556D01*
X142318390Y-118012287D01*
X142409840Y-118058883D01*
X142411080Y-118059515D01*
X142461876Y-118107490D01*
X142478671Y-118175311D01*
X142456134Y-118241446D01*
X142411080Y-118280485D01*
X142318386Y-118327715D01*
X142152786Y-118448028D01*
X142008028Y-118592786D01*
X141887715Y-118758386D01*
X141794781Y-118940776D01*
X141731522Y-119135465D01*
X141699500Y-119337648D01*
X141699500Y-119542351D01*
X141731522Y-119744534D01*
X141794781Y-119939223D01*
X141842742Y-120033350D01*
X141871606Y-120089999D01*
X141887715Y-120121613D01*
X142008028Y-120287213D01*
X142152782Y-120431967D01*
X142152787Y-120431971D01*
X142229583Y-120487767D01*
X142272249Y-120543097D01*
X142278228Y-120612710D01*
X142245622Y-120674505D01*
X142187365Y-120708233D01*
X142166967Y-120713439D01*
X142166956Y-120713442D01*
X142110415Y-120736862D01*
X142870590Y-121497037D01*
X142807007Y-121514075D01*
X142692993Y-121579901D01*
X142599901Y-121672993D01*
X142534075Y-121787007D01*
X142517037Y-121850589D01*
X141756862Y-121090415D01*
X141733449Y-121146940D01*
X141715455Y-121197946D01*
X141695000Y-121340219D01*
X141695000Y-122619785D01*
X141697893Y-122673762D01*
X141697893Y-122673764D01*
X141733438Y-122813030D01*
X141733440Y-122813037D01*
X141756863Y-122869583D01*
X142517037Y-122109409D01*
X142534075Y-122172993D01*
X142599901Y-122287007D01*
X142692993Y-122380099D01*
X142807007Y-122445925D01*
X142870590Y-122462962D01*
X142110415Y-123223135D01*
X142110415Y-123223136D01*
X142166954Y-123246556D01*
X142166961Y-123246558D01*
X142195621Y-123256669D01*
X142252294Y-123297534D01*
X142277876Y-123362552D01*
X142264246Y-123431080D01*
X142227256Y-123473924D01*
X142152782Y-123528032D01*
X142008028Y-123672786D01*
X141887715Y-123838386D01*
X141794781Y-124020776D01*
X141731522Y-124215465D01*
X141699500Y-124417648D01*
X141699500Y-124622351D01*
X141731522Y-124824534D01*
X141794781Y-125019223D01*
X141887715Y-125201613D01*
X142008028Y-125367213D01*
X142152786Y-125511971D01*
X142280568Y-125604808D01*
X142318390Y-125632287D01*
X142409840Y-125678883D01*
X142411080Y-125679515D01*
X142461876Y-125727490D01*
X142478671Y-125795311D01*
X142456134Y-125861446D01*
X142411080Y-125900485D01*
X142318386Y-125947715D01*
X142152786Y-126068028D01*
X142008028Y-126212786D01*
X141887715Y-126378386D01*
X141794781Y-126560776D01*
X141731522Y-126755465D01*
X141699500Y-126957648D01*
X141699500Y-127162351D01*
X141731522Y-127364534D01*
X141794781Y-127559223D01*
X141834139Y-127636466D01*
X141887409Y-127741014D01*
X141887715Y-127741613D01*
X142008028Y-127907213D01*
X142152786Y-128051971D01*
X142307749Y-128164556D01*
X142318390Y-128172287D01*
X142409840Y-128218883D01*
X142411080Y-128219515D01*
X142461876Y-128267490D01*
X142478671Y-128335311D01*
X142456134Y-128401446D01*
X142411080Y-128440485D01*
X142318386Y-128487715D01*
X142152786Y-128608028D01*
X142008028Y-128752786D01*
X141887715Y-128918386D01*
X141794781Y-129100776D01*
X141731522Y-129295465D01*
X141699500Y-129497648D01*
X141699500Y-129702351D01*
X141731522Y-129904534D01*
X141794781Y-130099223D01*
X141887715Y-130281613D01*
X142008028Y-130447213D01*
X142152786Y-130591971D01*
X142307749Y-130704556D01*
X142318390Y-130712287D01*
X142409840Y-130758883D01*
X142411080Y-130759515D01*
X142461876Y-130807490D01*
X142478671Y-130875311D01*
X142456134Y-130941446D01*
X142411080Y-130980485D01*
X142318386Y-131027715D01*
X142152786Y-131148028D01*
X142008028Y-131292786D01*
X141887715Y-131458386D01*
X141794781Y-131640776D01*
X141731522Y-131835465D01*
X141699500Y-132037648D01*
X141699500Y-132242351D01*
X141731522Y-132444534D01*
X141794781Y-132639223D01*
X141887715Y-132821613D01*
X142008028Y-132987213D01*
X142152782Y-133131967D01*
X142152787Y-133131971D01*
X142229583Y-133187767D01*
X142272249Y-133243097D01*
X142278228Y-133312710D01*
X142245622Y-133374505D01*
X142187365Y-133408233D01*
X142166967Y-133413439D01*
X142166956Y-133413442D01*
X142110415Y-133436862D01*
X142870590Y-134197037D01*
X142807007Y-134214075D01*
X142692993Y-134279901D01*
X142599901Y-134372993D01*
X142534075Y-134487007D01*
X142517037Y-134550589D01*
X141756862Y-133790415D01*
X141733449Y-133846940D01*
X141715455Y-133897946D01*
X141695000Y-134040219D01*
X141695000Y-135319785D01*
X141697893Y-135373762D01*
X141697893Y-135373764D01*
X141733438Y-135513030D01*
X141733440Y-135513037D01*
X141756863Y-135569583D01*
X142517037Y-134809409D01*
X142534075Y-134872993D01*
X142599901Y-134987007D01*
X142692993Y-135080099D01*
X142807007Y-135145925D01*
X142870590Y-135162962D01*
X142110415Y-135923135D01*
X142110415Y-135923136D01*
X142166954Y-135946556D01*
X142166961Y-135946558D01*
X142195621Y-135956669D01*
X142252294Y-135997534D01*
X142277876Y-136062552D01*
X142264246Y-136131080D01*
X142227256Y-136173924D01*
X142152782Y-136228032D01*
X142008028Y-136372786D01*
X141887715Y-136538386D01*
X141794781Y-136720776D01*
X141731522Y-136915465D01*
X141699500Y-137117648D01*
X141699500Y-137322351D01*
X141731522Y-137524534D01*
X141794781Y-137719223D01*
X141887715Y-137901613D01*
X142008028Y-138067213D01*
X142152786Y-138211971D01*
X142307749Y-138324556D01*
X142318390Y-138332287D01*
X142409840Y-138378883D01*
X142411080Y-138379515D01*
X142461876Y-138427490D01*
X142478671Y-138495311D01*
X142456134Y-138561446D01*
X142411080Y-138600485D01*
X142318386Y-138647715D01*
X142152786Y-138768028D01*
X142008028Y-138912786D01*
X141887715Y-139078386D01*
X141794781Y-139260776D01*
X141731522Y-139455465D01*
X141699500Y-139657648D01*
X141699500Y-139862351D01*
X141727654Y-140040111D01*
X141718699Y-140109405D01*
X141692862Y-140147190D01*
X139693873Y-142146181D01*
X139632550Y-142179666D01*
X139606192Y-142182500D01*
X121309808Y-142182500D01*
X121242769Y-142162815D01*
X121222127Y-142146181D01*
X115984674Y-136908727D01*
X115984673Y-136908726D01*
X115984669Y-136908723D01*
X115878127Y-136837535D01*
X115759744Y-136788499D01*
X115759738Y-136788497D01*
X115634071Y-136763500D01*
X115634069Y-136763500D01*
X113241931Y-136763500D01*
X113241929Y-136763500D01*
X113116261Y-136788497D01*
X113116255Y-136788499D01*
X112997874Y-136837534D01*
X112891326Y-136908726D01*
X112466871Y-137333181D01*
X112405548Y-137366666D01*
X112379190Y-137369500D01*
X111102129Y-137369500D01*
X111102123Y-137369501D01*
X111042516Y-137375908D01*
X110907671Y-137426202D01*
X110907664Y-137426206D01*
X110792455Y-137512452D01*
X110792452Y-137512455D01*
X110706206Y-137627664D01*
X110706202Y-137627671D01*
X110655908Y-137762517D01*
X110649501Y-137822116D01*
X110649500Y-137822135D01*
X110649500Y-139617870D01*
X110649501Y-139617876D01*
X110655908Y-139677483D01*
X110706202Y-139812328D01*
X110706206Y-139812335D01*
X110792452Y-139927544D01*
X110792455Y-139927547D01*
X110907664Y-140013793D01*
X110907671Y-140013797D01*
X111039082Y-140062810D01*
X111095016Y-140104681D01*
X111119433Y-140170145D01*
X111104582Y-140238418D01*
X111083431Y-140266673D01*
X110969889Y-140380215D01*
X110844951Y-140552179D01*
X110748444Y-140741585D01*
X110682753Y-140943760D01*
X110649500Y-141153713D01*
X110649500Y-141366286D01*
X110682753Y-141576239D01*
X110748444Y-141778414D01*
X110844951Y-141967820D01*
X110969890Y-142139786D01*
X111120213Y-142290109D01*
X111292182Y-142415050D01*
X111300946Y-142419516D01*
X111351742Y-142467491D01*
X111368536Y-142535312D01*
X111345998Y-142601447D01*
X111300946Y-142640484D01*
X111292182Y-142644949D01*
X111120213Y-142769890D01*
X110969890Y-142920213D01*
X110844951Y-143092179D01*
X110748444Y-143281585D01*
X110682753Y-143483760D01*
X110649500Y-143693713D01*
X110649500Y-143906286D01*
X110682753Y-144116239D01*
X110748444Y-144318414D01*
X110844951Y-144507820D01*
X110969890Y-144679786D01*
X111120213Y-144830109D01*
X111292182Y-144955050D01*
X111300946Y-144959516D01*
X111351742Y-145007491D01*
X111368536Y-145075312D01*
X111345998Y-145141447D01*
X111300946Y-145180484D01*
X111292182Y-145184949D01*
X111120213Y-145309890D01*
X110969890Y-145460213D01*
X110844951Y-145632179D01*
X110748444Y-145821585D01*
X110682753Y-146023760D01*
X110649500Y-146233713D01*
X110649500Y-146446287D01*
X110682754Y-146656243D01*
X110744175Y-146845277D01*
X110748444Y-146858414D01*
X110844951Y-147047820D01*
X110969890Y-147219786D01*
X111120213Y-147370109D01*
X111292179Y-147495048D01*
X111292181Y-147495049D01*
X111292184Y-147495051D01*
X111301493Y-147499794D01*
X111352290Y-147547766D01*
X111369087Y-147615587D01*
X111346552Y-147681722D01*
X111301502Y-147720762D01*
X111292443Y-147725378D01*
X111120540Y-147850272D01*
X111120535Y-147850276D01*
X110970276Y-148000535D01*
X110970272Y-148000540D01*
X110845379Y-148172442D01*
X110748904Y-148361782D01*
X110683242Y-148563870D01*
X110683242Y-148563873D01*
X110672769Y-148630000D01*
X111566988Y-148630000D01*
X111534075Y-148687007D01*
X111500000Y-148814174D01*
X111500000Y-148945826D01*
X111534075Y-149072993D01*
X111566988Y-149130000D01*
X110672769Y-149130000D01*
X110683242Y-149196126D01*
X110683242Y-149196129D01*
X110748904Y-149398217D01*
X110845379Y-149587557D01*
X110970272Y-149759459D01*
X110970276Y-149759464D01*
X111120535Y-149909723D01*
X111120540Y-149909727D01*
X111292444Y-150034622D01*
X111301495Y-150039234D01*
X111352292Y-150087208D01*
X111369087Y-150155029D01*
X111346550Y-150221164D01*
X111301499Y-150260202D01*
X111292182Y-150264949D01*
X111120213Y-150389890D01*
X110969890Y-150540213D01*
X110844951Y-150712179D01*
X110748444Y-150901585D01*
X110682753Y-151103760D01*
X110649500Y-151313713D01*
X110649500Y-151526286D01*
X110682753Y-151736239D01*
X110748444Y-151938414D01*
X110844951Y-152127820D01*
X110969890Y-152299786D01*
X111120213Y-152450109D01*
X111292179Y-152575048D01*
X111292181Y-152575049D01*
X111292184Y-152575051D01*
X111481588Y-152671557D01*
X111683757Y-152737246D01*
X111893713Y-152770500D01*
X111893714Y-152770500D01*
X112106286Y-152770500D01*
X112106287Y-152770500D01*
X112316243Y-152737246D01*
X112518412Y-152671557D01*
X112707816Y-152575051D01*
X112729789Y-152559086D01*
X112879786Y-152450109D01*
X112879788Y-152450106D01*
X112879792Y-152450104D01*
X113030104Y-152299792D01*
X113030106Y-152299788D01*
X113030109Y-152299786D01*
X113155048Y-152127820D01*
X113155047Y-152127820D01*
X113155051Y-152127816D01*
X113159514Y-152119054D01*
X113207488Y-152068259D01*
X113275308Y-152051463D01*
X113341444Y-152073999D01*
X113380486Y-152119056D01*
X113384951Y-152127820D01*
X113509890Y-152299786D01*
X113660213Y-152450109D01*
X113832179Y-152575048D01*
X113832181Y-152575049D01*
X113832184Y-152575051D01*
X114021588Y-152671557D01*
X114223757Y-152737246D01*
X114433713Y-152770500D01*
X114433714Y-152770500D01*
X114646286Y-152770500D01*
X114646287Y-152770500D01*
X114856243Y-152737246D01*
X115058412Y-152671557D01*
X115247816Y-152575051D01*
X115269789Y-152559086D01*
X115419786Y-152450109D01*
X115419788Y-152450106D01*
X115419792Y-152450104D01*
X115570104Y-152299792D01*
X115570106Y-152299788D01*
X115570109Y-152299786D01*
X115695048Y-152127820D01*
X115695047Y-152127820D01*
X115695051Y-152127816D01*
X115791557Y-151938412D01*
X115857246Y-151736243D01*
X115890500Y-151526287D01*
X115890500Y-151313713D01*
X115857246Y-151103757D01*
X115791557Y-150901588D01*
X115695051Y-150712184D01*
X115695049Y-150712181D01*
X115695048Y-150712179D01*
X115570109Y-150540213D01*
X115419786Y-150389890D01*
X115247817Y-150264949D01*
X115238504Y-150260204D01*
X115187707Y-150212230D01*
X115170912Y-150144409D01*
X115193449Y-150078274D01*
X115238507Y-150039232D01*
X115247558Y-150034620D01*
X115419459Y-149909727D01*
X115419464Y-149909723D01*
X115569723Y-149759464D01*
X115569727Y-149759459D01*
X115694620Y-149587557D01*
X115791095Y-149398217D01*
X115856757Y-149196129D01*
X115856757Y-149196126D01*
X115867231Y-149130000D01*
X114973012Y-149130000D01*
X115005925Y-149072993D01*
X115040000Y-148945826D01*
X115040000Y-148814174D01*
X115005925Y-148687007D01*
X114973012Y-148630000D01*
X115867231Y-148630000D01*
X115856757Y-148563873D01*
X115856757Y-148563870D01*
X115791095Y-148361782D01*
X115694620Y-148172442D01*
X115569727Y-148000540D01*
X115569723Y-148000535D01*
X115419464Y-147850276D01*
X115419459Y-147850272D01*
X115247555Y-147725377D01*
X115238500Y-147720763D01*
X115187706Y-147672788D01*
X115170912Y-147604966D01*
X115193451Y-147538832D01*
X115238508Y-147499793D01*
X115247816Y-147495051D01*
X115327007Y-147437515D01*
X115419786Y-147370109D01*
X115419788Y-147370106D01*
X115419792Y-147370104D01*
X115570104Y-147219792D01*
X115570106Y-147219788D01*
X115570109Y-147219786D01*
X115697915Y-147043875D01*
X115699259Y-147044851D01*
X115745705Y-147002834D01*
X115799618Y-146990500D01*
X145917633Y-146990500D01*
X146013334Y-146971463D01*
X146043306Y-146965501D01*
X146161689Y-146916465D01*
X146268231Y-146845277D01*
X149857276Y-143256232D01*
X149928465Y-143149689D01*
X149977501Y-143031306D01*
X149990333Y-142966796D01*
X150002500Y-142905631D01*
X150002500Y-120647931D01*
X150002500Y-120647928D01*
X149983475Y-120552287D01*
X149977501Y-120522256D01*
X149954235Y-120466086D01*
X149928466Y-120403874D01*
X149857277Y-120297331D01*
X149857272Y-120297325D01*
X148586266Y-119026319D01*
X145736508Y-116176562D01*
X144307137Y-114747191D01*
X144273652Y-114685868D01*
X144272345Y-114640112D01*
X144284051Y-114566204D01*
X144300500Y-114462352D01*
X144300500Y-114257648D01*
X144268477Y-114055466D01*
X144205220Y-113860781D01*
X144205218Y-113860778D01*
X144205218Y-113860776D01*
X144171503Y-113794607D01*
X144112287Y-113678390D01*
X144067148Y-113616261D01*
X143991971Y-113512786D01*
X143847213Y-113368028D01*
X143681614Y-113247715D01*
X143675006Y-113244348D01*
X143588917Y-113200483D01*
X143538123Y-113152511D01*
X143521328Y-113084690D01*
X143543865Y-113018555D01*
X143588917Y-112979516D01*
X143681610Y-112932287D01*
X143702770Y-112916913D01*
X143847213Y-112811971D01*
X143847215Y-112811968D01*
X143847219Y-112811966D01*
X143991966Y-112667219D01*
X143991968Y-112667215D01*
X143991971Y-112667213D01*
X144057905Y-112576461D01*
X144112287Y-112501610D01*
X144205220Y-112319219D01*
X144268477Y-112124534D01*
X144300500Y-111922352D01*
X144300500Y-111717648D01*
X144290032Y-111651555D01*
X144268477Y-111515465D01*
X144205218Y-111320776D01*
X144156672Y-111225500D01*
X144112287Y-111138390D01*
X144090074Y-111107816D01*
X143991971Y-110972786D01*
X143847213Y-110828028D01*
X143681614Y-110707715D01*
X143673410Y-110703535D01*
X143595703Y-110663941D01*
X143544908Y-110615968D01*
X143528113Y-110548147D01*
X143550650Y-110482012D01*
X143593546Y-110444099D01*
X143659493Y-110408849D01*
X143659511Y-110408838D01*
X143728912Y-110362465D01*
X143129409Y-109762962D01*
X143192993Y-109745925D01*
X143307007Y-109680099D01*
X143400099Y-109587007D01*
X143465925Y-109472993D01*
X143482962Y-109409409D01*
X144082465Y-110008912D01*
X144128838Y-109939511D01*
X144128844Y-109939501D01*
X144175509Y-109852198D01*
X144235814Y-109706612D01*
X144264555Y-109611864D01*
X144295298Y-109457302D01*
X144295298Y-109457299D01*
X144305000Y-109358789D01*
X144305000Y-109201210D01*
X144295298Y-109102700D01*
X144295298Y-109102697D01*
X144264555Y-108948135D01*
X144235814Y-108853387D01*
X144175509Y-108707801D01*
X144128841Y-108620493D01*
X144082465Y-108551086D01*
X144082465Y-108551085D01*
X143482962Y-109150589D01*
X143465925Y-109087007D01*
X143400099Y-108972993D01*
X143307007Y-108879901D01*
X143192993Y-108814075D01*
X143129410Y-108797037D01*
X143728913Y-108197534D01*
X143728912Y-108197533D01*
X143659506Y-108151158D01*
X143593545Y-108115900D01*
X143543701Y-108066937D01*
X143528241Y-107998799D01*
X143552073Y-107933119D01*
X143595702Y-107896059D01*
X143681610Y-107852287D01*
X143770415Y-107787767D01*
X143847213Y-107731971D01*
X143847215Y-107731968D01*
X143847219Y-107731966D01*
X143991966Y-107587219D01*
X143991968Y-107587215D01*
X143991971Y-107587213D01*
X144064014Y-107488052D01*
X144112287Y-107421610D01*
X144205220Y-107239219D01*
X144268477Y-107044534D01*
X144300500Y-106842352D01*
X144300500Y-106637648D01*
X144278840Y-106500893D01*
X144268477Y-106435465D01*
X144205218Y-106240776D01*
X144145756Y-106124077D01*
X144112287Y-106058390D01*
X144081663Y-106016239D01*
X143991971Y-105892786D01*
X143847213Y-105748028D01*
X143681614Y-105627715D01*
X143614881Y-105593713D01*
X143588917Y-105580483D01*
X143538123Y-105532511D01*
X143521328Y-105464690D01*
X143543865Y-105398555D01*
X143588917Y-105359516D01*
X143681610Y-105312287D01*
X143783378Y-105238349D01*
X143847213Y-105191971D01*
X143847215Y-105191968D01*
X143847219Y-105191966D01*
X143991966Y-105047219D01*
X143991968Y-105047215D01*
X143991971Y-105047213D01*
X144051321Y-104965523D01*
X144112287Y-104881610D01*
X144205220Y-104699219D01*
X144268477Y-104504534D01*
X144300500Y-104302352D01*
X144300500Y-104097648D01*
X144287333Y-104014514D01*
X144268477Y-103895465D01*
X144225978Y-103764668D01*
X144205220Y-103700781D01*
X144205218Y-103700778D01*
X144205218Y-103700776D01*
X144156558Y-103605277D01*
X144112287Y-103518390D01*
X144100950Y-103502786D01*
X143991971Y-103352786D01*
X143847213Y-103208028D01*
X143681614Y-103087715D01*
X143669459Y-103081522D01*
X143588917Y-103040483D01*
X143538123Y-102992511D01*
X143521328Y-102924690D01*
X143543865Y-102858555D01*
X143588917Y-102819516D01*
X143681610Y-102772287D01*
X143709668Y-102751902D01*
X143847213Y-102651971D01*
X143847215Y-102651968D01*
X143847219Y-102651966D01*
X143991966Y-102507219D01*
X144097753Y-102361613D01*
X144153082Y-102318949D01*
X144198071Y-102310500D01*
X146139192Y-102310500D01*
X146206231Y-102330185D01*
X146226873Y-102346819D01*
X147213181Y-103333127D01*
X147246666Y-103394450D01*
X147249500Y-103420808D01*
X147249500Y-109764069D01*
X147272876Y-109881585D01*
X147272877Y-109881587D01*
X147272879Y-109881596D01*
X147274499Y-109889746D01*
X147323533Y-110008125D01*
X147333829Y-110023534D01*
X147381398Y-110094727D01*
X147394726Y-110114673D01*
X147394727Y-110114674D01*
X149694724Y-112414669D01*
X149750555Y-112470500D01*
X149785332Y-112505277D01*
X149891866Y-112576461D01*
X149891872Y-112576464D01*
X149891873Y-112576465D01*
X150010256Y-112625501D01*
X150010260Y-112625501D01*
X150010261Y-112625502D01*
X150135928Y-112650500D01*
X150135931Y-112650500D01*
X155979192Y-112650500D01*
X156046231Y-112670185D01*
X156066873Y-112686819D01*
X157373181Y-113993127D01*
X157406666Y-114054450D01*
X157409500Y-114080808D01*
X157409500Y-114940382D01*
X157389815Y-115007421D01*
X157355408Y-115041099D01*
X157356125Y-115042085D01*
X157180213Y-115169890D01*
X157029890Y-115320213D01*
X156904949Y-115492182D01*
X156900202Y-115501499D01*
X156852227Y-115552293D01*
X156784405Y-115569087D01*
X156718271Y-115546548D01*
X156679234Y-115501495D01*
X156674626Y-115492452D01*
X156635270Y-115438282D01*
X156635269Y-115438282D01*
X156002962Y-116070590D01*
X155985925Y-116007007D01*
X155920099Y-115892993D01*
X155827007Y-115799901D01*
X155712993Y-115734075D01*
X155649409Y-115717037D01*
X156281716Y-115084728D01*
X156227550Y-115045375D01*
X156038217Y-114948904D01*
X155836129Y-114883242D01*
X155626246Y-114850000D01*
X155413754Y-114850000D01*
X155203872Y-114883242D01*
X155203869Y-114883242D01*
X155001782Y-114948904D01*
X154812439Y-115045380D01*
X154758282Y-115084727D01*
X154758282Y-115084728D01*
X155390591Y-115717037D01*
X155327007Y-115734075D01*
X155212993Y-115799901D01*
X155119901Y-115892993D01*
X155054075Y-116007007D01*
X155037037Y-116070591D01*
X154404728Y-115438282D01*
X154404727Y-115438282D01*
X154365380Y-115492439D01*
X154268904Y-115681782D01*
X154203242Y-115883869D01*
X154203242Y-115883872D01*
X154170000Y-116093753D01*
X154170000Y-116306246D01*
X154203242Y-116516127D01*
X154203242Y-116516130D01*
X154268904Y-116718217D01*
X154365375Y-116907550D01*
X154404728Y-116961716D01*
X155037037Y-116329408D01*
X155054075Y-116392993D01*
X155119901Y-116507007D01*
X155212993Y-116600099D01*
X155327007Y-116665925D01*
X155390590Y-116682962D01*
X154721195Y-117352356D01*
X154659872Y-117385841D01*
X154645167Y-117384924D01*
X154645444Y-117387497D01*
X154562626Y-117396401D01*
X154562619Y-117396403D01*
X154427913Y-117446645D01*
X154427906Y-117446649D01*
X154312812Y-117532809D01*
X154312809Y-117532812D01*
X154226649Y-117647906D01*
X154226645Y-117647913D01*
X154176403Y-117782620D01*
X154176401Y-117782627D01*
X154170000Y-117842155D01*
X154170000Y-118490000D01*
X155086988Y-118490000D01*
X155054075Y-118547007D01*
X155020000Y-118674174D01*
X155020000Y-118805826D01*
X155054075Y-118932993D01*
X155086988Y-118990000D01*
X154170000Y-118990000D01*
X154170000Y-119637844D01*
X154176401Y-119697372D01*
X154176403Y-119697379D01*
X154226645Y-119832086D01*
X154226649Y-119832093D01*
X154312809Y-119947187D01*
X154312812Y-119947190D01*
X154427906Y-120033350D01*
X154427913Y-120033354D01*
X154562620Y-120083596D01*
X154562627Y-120083598D01*
X154622155Y-120089999D01*
X154622172Y-120090000D01*
X155270000Y-120090000D01*
X155270000Y-119173012D01*
X155327007Y-119205925D01*
X155454174Y-119240000D01*
X155585826Y-119240000D01*
X155712993Y-119205925D01*
X155770000Y-119173012D01*
X155770000Y-120090000D01*
X156417828Y-120090000D01*
X156417844Y-120089999D01*
X156477372Y-120083598D01*
X156477379Y-120083596D01*
X156612086Y-120033354D01*
X156612093Y-120033350D01*
X156727187Y-119947190D01*
X156727190Y-119947187D01*
X156813350Y-119832093D01*
X156813354Y-119832086D01*
X156862422Y-119700529D01*
X156904293Y-119644595D01*
X156969757Y-119620178D01*
X157038030Y-119635030D01*
X157066285Y-119656181D01*
X157180213Y-119770109D01*
X157352179Y-119895048D01*
X157352181Y-119895049D01*
X157352184Y-119895051D01*
X157541588Y-119991557D01*
X157743757Y-120057246D01*
X157953713Y-120090500D01*
X157953714Y-120090500D01*
X158166286Y-120090500D01*
X158166287Y-120090500D01*
X158376243Y-120057246D01*
X158578412Y-119991557D01*
X158767816Y-119895051D01*
X158854471Y-119832093D01*
X158939786Y-119770109D01*
X158939788Y-119770106D01*
X158939792Y-119770104D01*
X159090104Y-119619792D01*
X159090106Y-119619788D01*
X159090109Y-119619786D01*
X159215048Y-119447820D01*
X159215047Y-119447820D01*
X159215051Y-119447816D01*
X159219514Y-119439054D01*
X159267488Y-119388259D01*
X159335308Y-119371463D01*
X159401444Y-119393999D01*
X159440486Y-119439056D01*
X159444951Y-119447820D01*
X159569890Y-119619786D01*
X159720213Y-119770109D01*
X159892179Y-119895048D01*
X159892181Y-119895049D01*
X159892184Y-119895051D01*
X160081588Y-119991557D01*
X160283757Y-120057246D01*
X160493713Y-120090500D01*
X160493714Y-120090500D01*
X160706286Y-120090500D01*
X160706287Y-120090500D01*
X160916243Y-120057246D01*
X161118412Y-119991557D01*
X161307816Y-119895051D01*
X161394471Y-119832093D01*
X161479786Y-119770109D01*
X161479788Y-119770106D01*
X161479792Y-119770104D01*
X161630104Y-119619792D01*
X161630106Y-119619788D01*
X161630109Y-119619786D01*
X161755048Y-119447820D01*
X161755047Y-119447820D01*
X161755051Y-119447816D01*
X161759514Y-119439054D01*
X161807488Y-119388259D01*
X161875308Y-119371463D01*
X161941444Y-119393999D01*
X161980486Y-119439056D01*
X161984951Y-119447820D01*
X162109890Y-119619786D01*
X162260213Y-119770109D01*
X162432179Y-119895048D01*
X162432181Y-119895049D01*
X162432184Y-119895051D01*
X162621588Y-119991557D01*
X162823757Y-120057246D01*
X163033713Y-120090500D01*
X163033714Y-120090500D01*
X163246286Y-120090500D01*
X163246287Y-120090500D01*
X163456243Y-120057246D01*
X163658412Y-119991557D01*
X163847816Y-119895051D01*
X163934471Y-119832093D01*
X164019786Y-119770109D01*
X164019788Y-119770106D01*
X164019792Y-119770104D01*
X164170104Y-119619792D01*
X164170106Y-119619788D01*
X164170109Y-119619786D01*
X164295048Y-119447820D01*
X164295047Y-119447820D01*
X164295051Y-119447816D01*
X164391557Y-119258412D01*
X164457246Y-119056243D01*
X164490500Y-118846287D01*
X164490500Y-118633713D01*
X164457246Y-118423757D01*
X164391557Y-118221588D01*
X164295051Y-118032184D01*
X164295049Y-118032181D01*
X164295048Y-118032179D01*
X164170109Y-117860213D01*
X164019786Y-117709890D01*
X163847820Y-117584951D01*
X163842195Y-117582085D01*
X163839054Y-117580485D01*
X163788259Y-117532512D01*
X163771463Y-117464692D01*
X163793999Y-117398556D01*
X163839054Y-117359515D01*
X163847816Y-117355051D01*
X163909624Y-117310145D01*
X164019786Y-117230109D01*
X164019788Y-117230106D01*
X164019792Y-117230104D01*
X164170104Y-117079792D01*
X164170106Y-117079788D01*
X164170109Y-117079786D01*
X164295048Y-116907820D01*
X164295050Y-116907817D01*
X164295051Y-116907816D01*
X164391557Y-116718412D01*
X164457246Y-116516243D01*
X164490500Y-116306287D01*
X164490500Y-116093713D01*
X164457246Y-115883757D01*
X164391557Y-115681588D01*
X164295051Y-115492184D01*
X164295049Y-115492181D01*
X164295048Y-115492179D01*
X164170109Y-115320213D01*
X164019786Y-115169890D01*
X163847820Y-115044951D01*
X163658414Y-114948444D01*
X163658413Y-114948443D01*
X163658412Y-114948443D01*
X163456243Y-114882754D01*
X163456241Y-114882753D01*
X163456240Y-114882753D01*
X163294957Y-114857208D01*
X163246287Y-114849500D01*
X163033713Y-114849500D01*
X162985042Y-114857208D01*
X162823760Y-114882753D01*
X162621585Y-114948444D01*
X162432179Y-115044951D01*
X162260213Y-115169890D01*
X162109890Y-115320213D01*
X161984949Y-115492182D01*
X161980484Y-115500946D01*
X161932509Y-115551742D01*
X161864688Y-115568536D01*
X161798553Y-115545998D01*
X161759516Y-115500946D01*
X161755050Y-115492182D01*
X161630109Y-115320213D01*
X161479786Y-115169890D01*
X161307820Y-115044951D01*
X161118414Y-114948444D01*
X161118413Y-114948443D01*
X161118412Y-114948443D01*
X160916243Y-114882754D01*
X160916241Y-114882753D01*
X160916240Y-114882753D01*
X160754957Y-114857208D01*
X160706287Y-114849500D01*
X160493713Y-114849500D01*
X160445042Y-114857208D01*
X160283760Y-114882753D01*
X160081585Y-114948444D01*
X159892179Y-115044951D01*
X159720213Y-115169890D01*
X159569890Y-115320213D01*
X159444949Y-115492182D01*
X159440484Y-115500946D01*
X159392509Y-115551742D01*
X159324688Y-115568536D01*
X159258553Y-115545998D01*
X159219516Y-115500946D01*
X159215050Y-115492182D01*
X159090109Y-115320213D01*
X158939786Y-115169890D01*
X158763875Y-115042085D01*
X158764851Y-115040740D01*
X158722834Y-114994295D01*
X158710500Y-114940382D01*
X158710500Y-113695928D01*
X158685502Y-113570261D01*
X158685501Y-113570260D01*
X158685501Y-113570256D01*
X158636465Y-113451873D01*
X158565277Y-113345331D01*
X158565275Y-113345329D01*
X158565273Y-113345326D01*
X156714673Y-111494726D01*
X156711089Y-111492331D01*
X156608127Y-111423535D01*
X156489744Y-111374499D01*
X156489738Y-111374497D01*
X156364071Y-111349500D01*
X156364069Y-111349500D01*
X150520807Y-111349500D01*
X150453768Y-111329815D01*
X150433126Y-111313181D01*
X148586819Y-109466873D01*
X148553334Y-109405550D01*
X148550500Y-109379192D01*
X148550500Y-107251947D01*
X150138000Y-107251947D01*
X150138000Y-107488052D01*
X150174934Y-107721247D01*
X150247897Y-107945802D01*
X150355087Y-108156174D01*
X150415338Y-108239104D01*
X150415340Y-108239105D01*
X151114212Y-107540233D01*
X151125482Y-107582292D01*
X151197890Y-107707708D01*
X151300292Y-107810110D01*
X151425708Y-107882518D01*
X151467765Y-107893787D01*
X150768893Y-108592658D01*
X150851828Y-108652914D01*
X151062197Y-108760102D01*
X151286752Y-108833065D01*
X151286751Y-108833065D01*
X151519948Y-108870000D01*
X151756052Y-108870000D01*
X151989247Y-108833065D01*
X152213802Y-108760102D01*
X152424163Y-108652918D01*
X152424169Y-108652914D01*
X152507104Y-108592658D01*
X152507105Y-108592658D01*
X151808233Y-107893787D01*
X151850292Y-107882518D01*
X151975708Y-107810110D01*
X152078110Y-107707708D01*
X152150518Y-107582292D01*
X152161787Y-107540234D01*
X152860658Y-108239105D01*
X152860658Y-108239104D01*
X152920914Y-108156169D01*
X152920918Y-108156163D01*
X153028102Y-107945802D01*
X153101065Y-107721247D01*
X153138000Y-107488052D01*
X153138000Y-107251947D01*
X156638000Y-107251947D01*
X156638000Y-107488052D01*
X156674934Y-107721247D01*
X156747897Y-107945802D01*
X156855087Y-108156174D01*
X156915338Y-108239104D01*
X156915340Y-108239105D01*
X157614212Y-107540233D01*
X157625482Y-107582292D01*
X157697890Y-107707708D01*
X157800292Y-107810110D01*
X157925708Y-107882518D01*
X157967765Y-107893787D01*
X157268893Y-108592658D01*
X157351828Y-108652914D01*
X157562197Y-108760102D01*
X157786752Y-108833065D01*
X157786751Y-108833065D01*
X158019948Y-108870000D01*
X158256052Y-108870000D01*
X158489247Y-108833065D01*
X158713802Y-108760102D01*
X158924163Y-108652918D01*
X158924169Y-108652914D01*
X159007104Y-108592658D01*
X159007105Y-108592658D01*
X158308233Y-107893787D01*
X158350292Y-107882518D01*
X158475708Y-107810110D01*
X158578110Y-107707708D01*
X158650518Y-107582292D01*
X158661787Y-107540234D01*
X159360658Y-108239105D01*
X159360658Y-108239104D01*
X159420914Y-108156169D01*
X159420918Y-108156163D01*
X159528102Y-107945802D01*
X159561214Y-107843897D01*
X159561214Y-107843896D01*
X159601065Y-107721245D01*
X159638000Y-107488052D01*
X159638000Y-107251947D01*
X159601065Y-107018751D01*
X159528102Y-106794197D01*
X159420914Y-106583828D01*
X159360658Y-106500894D01*
X159360658Y-106500893D01*
X158661787Y-107199765D01*
X158650518Y-107157708D01*
X158578110Y-107032292D01*
X158475708Y-106929890D01*
X158350292Y-106857482D01*
X158308234Y-106846212D01*
X159007105Y-106147340D01*
X159007104Y-106147338D01*
X158924174Y-106087087D01*
X158713802Y-105979897D01*
X158489247Y-105906934D01*
X158489248Y-105906934D01*
X158256052Y-105870000D01*
X158019948Y-105870000D01*
X157786752Y-105906934D01*
X157562197Y-105979897D01*
X157351830Y-106087084D01*
X157268894Y-106147340D01*
X157967766Y-106846212D01*
X157925708Y-106857482D01*
X157800292Y-106929890D01*
X157697890Y-107032292D01*
X157625482Y-107157708D01*
X157614212Y-107199766D01*
X156915340Y-106500894D01*
X156855084Y-106583830D01*
X156747897Y-106794197D01*
X156674935Y-107018751D01*
X156674934Y-107018751D01*
X156638000Y-107251947D01*
X153138000Y-107251947D01*
X153101065Y-107018751D01*
X153028102Y-106794197D01*
X152920914Y-106583828D01*
X152860658Y-106500894D01*
X152860658Y-106500893D01*
X152161787Y-107199765D01*
X152150518Y-107157708D01*
X152078110Y-107032292D01*
X151975708Y-106929890D01*
X151850292Y-106857482D01*
X151808234Y-106846212D01*
X152507105Y-106147340D01*
X152507104Y-106147339D01*
X152424174Y-106087087D01*
X152213802Y-105979897D01*
X151989247Y-105906934D01*
X151989248Y-105906934D01*
X151756052Y-105870000D01*
X151519948Y-105870000D01*
X151286752Y-105906934D01*
X151062197Y-105979897D01*
X150851830Y-106087084D01*
X150768894Y-106147340D01*
X151467766Y-106846212D01*
X151425708Y-106857482D01*
X151300292Y-106929890D01*
X151197890Y-107032292D01*
X151125482Y-107157708D01*
X151114212Y-107199766D01*
X150415340Y-106500894D01*
X150355084Y-106583830D01*
X150247897Y-106794197D01*
X150174935Y-107018751D01*
X150174934Y-107018751D01*
X150138000Y-107251947D01*
X148550500Y-107251947D01*
X148550500Y-103035928D01*
X148525502Y-102910261D01*
X148525501Y-102910260D01*
X148525501Y-102910256D01*
X148482288Y-102805931D01*
X148476466Y-102791874D01*
X148449758Y-102751902D01*
X150137500Y-102751902D01*
X150137500Y-102988097D01*
X150174446Y-103221368D01*
X150247433Y-103445996D01*
X150339112Y-103625925D01*
X150354657Y-103656433D01*
X150493483Y-103847510D01*
X150660490Y-104014517D01*
X150851567Y-104153343D01*
X150922967Y-104189723D01*
X151062003Y-104260566D01*
X151062005Y-104260566D01*
X151062008Y-104260568D01*
X151141535Y-104286408D01*
X151286631Y-104333553D01*
X151519903Y-104370500D01*
X151519908Y-104370500D01*
X151756097Y-104370500D01*
X151989368Y-104333553D01*
X152049838Y-104313905D01*
X152213992Y-104260568D01*
X152424433Y-104153343D01*
X152615510Y-104014517D01*
X152782517Y-103847510D01*
X152921343Y-103656433D01*
X152956107Y-103588205D01*
X153004082Y-103537409D01*
X153066592Y-103520500D01*
X156709408Y-103520500D01*
X156776447Y-103540185D01*
X156819893Y-103588205D01*
X156854657Y-103656433D01*
X156993483Y-103847510D01*
X157160490Y-104014517D01*
X157351567Y-104153343D01*
X157422967Y-104189723D01*
X157562003Y-104260566D01*
X157562005Y-104260566D01*
X157562008Y-104260568D01*
X157641535Y-104286408D01*
X157786631Y-104333553D01*
X158019903Y-104370500D01*
X158019908Y-104370500D01*
X158256097Y-104370500D01*
X158447785Y-104340139D01*
X158489368Y-104333553D01*
X158562197Y-104309888D01*
X158632034Y-104307893D01*
X158688193Y-104340139D01*
X159203325Y-104855272D01*
X159203326Y-104855273D01*
X159203329Y-104855275D01*
X159203331Y-104855277D01*
X159304479Y-104922861D01*
X159306294Y-104924074D01*
X159309869Y-104926463D01*
X159309873Y-104926465D01*
X159428256Y-104975501D01*
X159428260Y-104975501D01*
X159428261Y-104975502D01*
X159553928Y-105000500D01*
X159553931Y-105000500D01*
X161601929Y-105000500D01*
X161668968Y-105020185D01*
X161702245Y-105051613D01*
X161740279Y-105103961D01*
X161808034Y-105197219D01*
X161952786Y-105341971D01*
X162118385Y-105462284D01*
X162118387Y-105462285D01*
X162118390Y-105462287D01*
X162172378Y-105489795D01*
X162223174Y-105537769D01*
X162239969Y-105605590D01*
X162217432Y-105671725D01*
X162172378Y-105710765D01*
X162118644Y-105738143D01*
X162074077Y-105770523D01*
X162074077Y-105770524D01*
X162753554Y-106450000D01*
X162747339Y-106450000D01*
X162645606Y-106477259D01*
X162554394Y-106529920D01*
X162479920Y-106604394D01*
X162427259Y-106695606D01*
X162400000Y-106797339D01*
X162400000Y-106803553D01*
X161720524Y-106124077D01*
X161720523Y-106124077D01*
X161688143Y-106168644D01*
X161595244Y-106350968D01*
X161532009Y-106545582D01*
X161500000Y-106747682D01*
X161500000Y-106952317D01*
X161532009Y-107154417D01*
X161595244Y-107349031D01*
X161688141Y-107531350D01*
X161688147Y-107531359D01*
X161720523Y-107575921D01*
X161720524Y-107575922D01*
X162400000Y-106896446D01*
X162400000Y-106902661D01*
X162427259Y-107004394D01*
X162479920Y-107095606D01*
X162554394Y-107170080D01*
X162645606Y-107222741D01*
X162747339Y-107250000D01*
X162753553Y-107250000D01*
X162074076Y-107929474D01*
X162118650Y-107961859D01*
X162300968Y-108054755D01*
X162495582Y-108117990D01*
X162697683Y-108150000D01*
X162902317Y-108150000D01*
X163104417Y-108117990D01*
X163299031Y-108054755D01*
X163481349Y-107961859D01*
X163525921Y-107929474D01*
X162846447Y-107250000D01*
X162852661Y-107250000D01*
X162954394Y-107222741D01*
X163045606Y-107170080D01*
X163120080Y-107095606D01*
X163172741Y-107004394D01*
X163200000Y-106902661D01*
X163200000Y-106896447D01*
X163879474Y-107575921D01*
X163911859Y-107531349D01*
X164004755Y-107349031D01*
X164067990Y-107154417D01*
X164100000Y-106952317D01*
X164100000Y-106747682D01*
X164067990Y-106545582D01*
X164004755Y-106350968D01*
X163911859Y-106168650D01*
X163879474Y-106124077D01*
X163879474Y-106124076D01*
X163200000Y-106803551D01*
X163200000Y-106797339D01*
X163172741Y-106695606D01*
X163120080Y-106604394D01*
X163045606Y-106529920D01*
X162954394Y-106477259D01*
X162852661Y-106450000D01*
X162846446Y-106450000D01*
X163525922Y-105770524D01*
X163525921Y-105770523D01*
X163481359Y-105738147D01*
X163481350Y-105738141D01*
X163427621Y-105710765D01*
X163376825Y-105662791D01*
X163360030Y-105594970D01*
X163382567Y-105528835D01*
X163427621Y-105489795D01*
X163481610Y-105462287D01*
X163560157Y-105405220D01*
X163647213Y-105341971D01*
X163647215Y-105341968D01*
X163647219Y-105341966D01*
X163791966Y-105197219D01*
X163791968Y-105197215D01*
X163791971Y-105197213D01*
X163859721Y-105103961D01*
X163912287Y-105031610D01*
X164005220Y-104849219D01*
X164068477Y-104654534D01*
X164100500Y-104452352D01*
X164100500Y-104247648D01*
X164068477Y-104045466D01*
X164066525Y-104039459D01*
X164039127Y-103955137D01*
X164005220Y-103850781D01*
X164005218Y-103850778D01*
X164005218Y-103850776D01*
X163961343Y-103764668D01*
X163912287Y-103668390D01*
X163881435Y-103625925D01*
X163791971Y-103502786D01*
X163647213Y-103358028D01*
X163481613Y-103237715D01*
X163481612Y-103237714D01*
X163481610Y-103237713D01*
X163423350Y-103208028D01*
X163299223Y-103144781D01*
X163104534Y-103081522D01*
X162929995Y-103053878D01*
X162902352Y-103049500D01*
X162697648Y-103049500D01*
X162673329Y-103053351D01*
X162495465Y-103081522D01*
X162300776Y-103144781D01*
X162118386Y-103237715D01*
X161952786Y-103358028D01*
X161808034Y-103502780D01*
X161766390Y-103560099D01*
X161702246Y-103648386D01*
X161646918Y-103691051D01*
X161601929Y-103699500D01*
X159938808Y-103699500D01*
X159871769Y-103679815D01*
X159851127Y-103663181D01*
X159608139Y-103420193D01*
X159574654Y-103358870D01*
X159577888Y-103294197D01*
X159601553Y-103221368D01*
X159614143Y-103141879D01*
X159638500Y-102988097D01*
X159638500Y-102751902D01*
X159601553Y-102518631D01*
X159544035Y-102341610D01*
X159528568Y-102294008D01*
X159528566Y-102294005D01*
X159528566Y-102294003D01*
X159459892Y-102159223D01*
X159421343Y-102083567D01*
X159282517Y-101892490D01*
X159115510Y-101725483D01*
X158924433Y-101586657D01*
X158867500Y-101557648D01*
X158713996Y-101479433D01*
X158489368Y-101406446D01*
X158256097Y-101369500D01*
X158256092Y-101369500D01*
X158019908Y-101369500D01*
X158019903Y-101369500D01*
X157786631Y-101406446D01*
X157562003Y-101479433D01*
X157351566Y-101586657D01*
X157264240Y-101650104D01*
X157160490Y-101725483D01*
X157160488Y-101725485D01*
X157160487Y-101725485D01*
X156993485Y-101892487D01*
X156993485Y-101892488D01*
X156993483Y-101892490D01*
X156991233Y-101895587D01*
X156854657Y-102083566D01*
X156819893Y-102151795D01*
X156771918Y-102202591D01*
X156709408Y-102219500D01*
X153066592Y-102219500D01*
X152999553Y-102199815D01*
X152956107Y-102151795D01*
X152921342Y-102083566D01*
X152782517Y-101892490D01*
X152615510Y-101725483D01*
X152424433Y-101586657D01*
X152367500Y-101557648D01*
X152213996Y-101479433D01*
X151989368Y-101406446D01*
X151756097Y-101369500D01*
X151756092Y-101369500D01*
X151519908Y-101369500D01*
X151519903Y-101369500D01*
X151286631Y-101406446D01*
X151062003Y-101479433D01*
X150851566Y-101586657D01*
X150764240Y-101650104D01*
X150660490Y-101725483D01*
X150660488Y-101725485D01*
X150660487Y-101725485D01*
X150493485Y-101892487D01*
X150493485Y-101892488D01*
X150493483Y-101892490D01*
X150491233Y-101895587D01*
X150354657Y-102083566D01*
X150247433Y-102294003D01*
X150174446Y-102518631D01*
X150137500Y-102751902D01*
X148449758Y-102751902D01*
X148405277Y-102685331D01*
X148405275Y-102685329D01*
X148405273Y-102685326D01*
X146874673Y-101154726D01*
X146850257Y-101138412D01*
X146768127Y-101083535D01*
X146649744Y-101034499D01*
X146649738Y-101034497D01*
X146524071Y-101009500D01*
X146524069Y-101009500D01*
X144198071Y-101009500D01*
X144131032Y-100989815D01*
X144097754Y-100958386D01*
X143991966Y-100812781D01*
X143847219Y-100668034D01*
X143847213Y-100668028D01*
X143681614Y-100547715D01*
X143614881Y-100513713D01*
X143588917Y-100500483D01*
X143538123Y-100452511D01*
X143521328Y-100384690D01*
X143543865Y-100318555D01*
X143588917Y-100279516D01*
X143681610Y-100232287D01*
X143783378Y-100158349D01*
X143847213Y-100111971D01*
X143847215Y-100111968D01*
X143847219Y-100111966D01*
X143991966Y-99967219D01*
X143991968Y-99967215D01*
X143991971Y-99967213D01*
X144076565Y-99850777D01*
X144112287Y-99801610D01*
X144205220Y-99619219D01*
X144268477Y-99424534D01*
X144300500Y-99222352D01*
X144300500Y-99017648D01*
X144268477Y-98815466D01*
X144258212Y-98783875D01*
X144205218Y-98620776D01*
X144123833Y-98461051D01*
X144112287Y-98438390D01*
X144081663Y-98396239D01*
X143991971Y-98272786D01*
X143847213Y-98128028D01*
X143681614Y-98007715D01*
X143614881Y-97973713D01*
X143595703Y-97963941D01*
X143544908Y-97915968D01*
X143528113Y-97848147D01*
X143550650Y-97782012D01*
X143593546Y-97744099D01*
X143659493Y-97708849D01*
X143659511Y-97708838D01*
X143728912Y-97662465D01*
X143129409Y-97062962D01*
X143192993Y-97045925D01*
X143307007Y-96980099D01*
X143400099Y-96887007D01*
X143465925Y-96772993D01*
X143482962Y-96709409D01*
X144082465Y-97308912D01*
X144128838Y-97239511D01*
X144128844Y-97239501D01*
X144175509Y-97152198D01*
X144235814Y-97006612D01*
X144264555Y-96911864D01*
X144295298Y-96757302D01*
X144295298Y-96757299D01*
X144305000Y-96658789D01*
X144305000Y-96501210D01*
X144295298Y-96402700D01*
X144295298Y-96402697D01*
X144264555Y-96248135D01*
X144235814Y-96153387D01*
X144175509Y-96007801D01*
X144128841Y-95920493D01*
X144082465Y-95851086D01*
X144082465Y-95851085D01*
X143482962Y-96450589D01*
X143465925Y-96387007D01*
X143400099Y-96272993D01*
X143307007Y-96179901D01*
X143192993Y-96114075D01*
X143129410Y-96097037D01*
X143728913Y-95497534D01*
X143728912Y-95497533D01*
X143659506Y-95451158D01*
X143593545Y-95415900D01*
X143543701Y-95366937D01*
X143528241Y-95298799D01*
X143552073Y-95233119D01*
X143595702Y-95196059D01*
X143681610Y-95152287D01*
X143772745Y-95086074D01*
X143847213Y-95031971D01*
X143847215Y-95031968D01*
X143847219Y-95031966D01*
X143991966Y-94887219D01*
X143991968Y-94887215D01*
X143991971Y-94887213D01*
X144044732Y-94814590D01*
X144112287Y-94721610D01*
X144205220Y-94539219D01*
X144268477Y-94344534D01*
X144300500Y-94142352D01*
X144300500Y-93937648D01*
X144268477Y-93735466D01*
X144205220Y-93540781D01*
X144205218Y-93540778D01*
X144205218Y-93540776D01*
X144123833Y-93381051D01*
X144112287Y-93358390D01*
X144097753Y-93338385D01*
X143991971Y-93192786D01*
X143847213Y-93048028D01*
X143681614Y-92927715D01*
X143675006Y-92924348D01*
X143588917Y-92880483D01*
X143538123Y-92832511D01*
X143521328Y-92764690D01*
X143543865Y-92698555D01*
X143588917Y-92659516D01*
X143681610Y-92612287D01*
X143815320Y-92515142D01*
X143847213Y-92491971D01*
X143847215Y-92491968D01*
X143847219Y-92491966D01*
X143991966Y-92347219D01*
X143991968Y-92347215D01*
X143991971Y-92347213D01*
X144079170Y-92227192D01*
X144112287Y-92181610D01*
X144205220Y-91999219D01*
X144268477Y-91804534D01*
X144300500Y-91602352D01*
X144300500Y-91397648D01*
X144268477Y-91195466D01*
X144205220Y-91000781D01*
X144205218Y-91000778D01*
X144205218Y-91000776D01*
X144140876Y-90874499D01*
X144112287Y-90818390D01*
X144085011Y-90780847D01*
X143991971Y-90652786D01*
X143847213Y-90508028D01*
X143680379Y-90386818D01*
X143637713Y-90331489D01*
X143631734Y-90261875D01*
X143664339Y-90200080D01*
X143725178Y-90165723D01*
X143753264Y-90162500D01*
X165908340Y-90162500D01*
X165975379Y-90182185D01*
X166021134Y-90234989D01*
X166031078Y-90304147D01*
X166002053Y-90367703D01*
X165987005Y-90382353D01*
X165780841Y-90551546D01*
X165551546Y-90780841D01*
X165345821Y-91031518D01*
X165345811Y-91031532D01*
X165165657Y-91301151D01*
X165165646Y-91301169D01*
X165012788Y-91587145D01*
X165012786Y-91587150D01*
X164888686Y-91886752D01*
X164794548Y-92197086D01*
X164794545Y-92197097D01*
X164731287Y-92515125D01*
X164731284Y-92515142D01*
X164717065Y-92659515D01*
X164703180Y-92800500D01*
X164699500Y-92837860D01*
X164699500Y-93162139D01*
X164731284Y-93484857D01*
X164731287Y-93484874D01*
X164794545Y-93802902D01*
X164794548Y-93802913D01*
X164888686Y-94113247D01*
X165012786Y-94412849D01*
X165012788Y-94412854D01*
X165165646Y-94698830D01*
X165165657Y-94698848D01*
X165345811Y-94968467D01*
X165345821Y-94968481D01*
X165551546Y-95219158D01*
X165780841Y-95448453D01*
X165780846Y-95448457D01*
X165780847Y-95448458D01*
X166031524Y-95654183D01*
X166301158Y-95834347D01*
X166301167Y-95834352D01*
X166301169Y-95834353D01*
X166587145Y-95987211D01*
X166587147Y-95987211D01*
X166587153Y-95987215D01*
X166886754Y-96111314D01*
X167197077Y-96205449D01*
X167197083Y-96205450D01*
X167197086Y-96205451D01*
X167197097Y-96205454D01*
X167396528Y-96245122D01*
X167515132Y-96268714D01*
X167837857Y-96300500D01*
X167837860Y-96300500D01*
X168162140Y-96300500D01*
X168162143Y-96300500D01*
X168484868Y-96268714D01*
X168642295Y-96237399D01*
X168802902Y-96205454D01*
X168802913Y-96205451D01*
X168802913Y-96205450D01*
X168802923Y-96205449D01*
X169113246Y-96111314D01*
X169412847Y-95987215D01*
X169698842Y-95834347D01*
X169968476Y-95654183D01*
X170219153Y-95448458D01*
X170285821Y-95381789D01*
X170347142Y-95348306D01*
X170416834Y-95353290D01*
X170472768Y-95395161D01*
X170497185Y-95460625D01*
X170497501Y-95469515D01*
X170479593Y-147512662D01*
X170459885Y-147579694D01*
X170407066Y-147625431D01*
X170337904Y-147635351D01*
X170274358Y-147606304D01*
X170267912Y-147600300D01*
X170219158Y-147551546D01*
X169968481Y-147345821D01*
X169968480Y-147345820D01*
X169968476Y-147345817D01*
X169698842Y-147165653D01*
X169698837Y-147165650D01*
X169698830Y-147165646D01*
X169412854Y-147012788D01*
X169412849Y-147012786D01*
X169367493Y-146993999D01*
X169298691Y-146965500D01*
X169113247Y-146888686D01*
X168802913Y-146794548D01*
X168802902Y-146794545D01*
X168484874Y-146731287D01*
X168484857Y-146731284D01*
X168240812Y-146707248D01*
X168162143Y-146699500D01*
X167837857Y-146699500D01*
X167765099Y-146706666D01*
X167515142Y-146731284D01*
X167515125Y-146731287D01*
X167197097Y-146794545D01*
X167197086Y-146794548D01*
X166886752Y-146888686D01*
X166587150Y-147012786D01*
X166587145Y-147012788D01*
X166301169Y-147165646D01*
X166301151Y-147165657D01*
X166031532Y-147345811D01*
X166031518Y-147345821D01*
X165780841Y-147551546D01*
X165551546Y-147780841D01*
X165345821Y-148031518D01*
X165345811Y-148031532D01*
X165165657Y-148301151D01*
X165165646Y-148301169D01*
X165012788Y-148587145D01*
X165012786Y-148587150D01*
X164888686Y-148886752D01*
X164794548Y-149197086D01*
X164794545Y-149197097D01*
X164731287Y-149515125D01*
X164731284Y-149515142D01*
X164699500Y-149837860D01*
X164699500Y-150162139D01*
X164731284Y-150484857D01*
X164731287Y-150484874D01*
X164794545Y-150802902D01*
X164794548Y-150802913D01*
X164888686Y-151113247D01*
X165012786Y-151412849D01*
X165012788Y-151412854D01*
X165165646Y-151698830D01*
X165165657Y-151698848D01*
X165345811Y-151968467D01*
X165345821Y-151968481D01*
X165551546Y-152219158D01*
X165780841Y-152448453D01*
X165780846Y-152448457D01*
X165780847Y-152448458D01*
X166031524Y-152654183D01*
X166301158Y-152834347D01*
X166301167Y-152834352D01*
X166301169Y-152834353D01*
X166360642Y-152866142D01*
X166410486Y-152915104D01*
X166425947Y-152983242D01*
X166402115Y-153048921D01*
X166346558Y-153091290D01*
X166302189Y-153099500D01*
X123466496Y-153099500D01*
X123454393Y-153096882D01*
X123400759Y-153099500D01*
X123356107Y-153099500D01*
X123348052Y-153100560D01*
X123348036Y-153100445D01*
X123332928Y-153102810D01*
X123322768Y-153103306D01*
X123197285Y-153143581D01*
X123086504Y-153214959D01*
X122997975Y-153312575D01*
X119080154Y-160934005D01*
X119031998Y-160984628D01*
X118970423Y-161001313D01*
X115116662Y-161018431D01*
X115049536Y-160999044D01*
X115003547Y-160946444D01*
X114993296Y-160877330D01*
X115022038Y-160813646D01*
X115047221Y-160791330D01*
X115252458Y-160654195D01*
X115252457Y-160654195D01*
X115252476Y-160654183D01*
X115503153Y-160448458D01*
X115732458Y-160219153D01*
X115938183Y-159968476D01*
X116118347Y-159698842D01*
X116271215Y-159412847D01*
X116395314Y-159113246D01*
X116489449Y-158802923D01*
X116489451Y-158802913D01*
X116489454Y-158802902D01*
X116521399Y-158642295D01*
X116552714Y-158484868D01*
X116584500Y-158162143D01*
X116584500Y-157837857D01*
X116552714Y-157515132D01*
X116529122Y-157396528D01*
X116489454Y-157197097D01*
X116489451Y-157197086D01*
X116489450Y-157197083D01*
X116489449Y-157197077D01*
X116395314Y-156886754D01*
X116271215Y-156587153D01*
X116118347Y-156301158D01*
X115938183Y-156031524D01*
X115732458Y-155780847D01*
X115732457Y-155780846D01*
X115732453Y-155780841D01*
X115503158Y-155551546D01*
X115252481Y-155345821D01*
X115252480Y-155345820D01*
X115252476Y-155345817D01*
X114982842Y-155165653D01*
X114982837Y-155165650D01*
X114982830Y-155165646D01*
X114696854Y-155012788D01*
X114696849Y-155012786D01*
X114397247Y-154888686D01*
X114086913Y-154794548D01*
X114086902Y-154794545D01*
X113768874Y-154731287D01*
X113768857Y-154731284D01*
X113524812Y-154707248D01*
X113446143Y-154699500D01*
X113121857Y-154699500D01*
X113049099Y-154706666D01*
X112799142Y-154731284D01*
X112799125Y-154731287D01*
X112481097Y-154794545D01*
X112481086Y-154794548D01*
X112170752Y-154888686D01*
X111871150Y-155012786D01*
X111871145Y-155012788D01*
X111585169Y-155165646D01*
X111585151Y-155165657D01*
X111315532Y-155345811D01*
X111315518Y-155345821D01*
X111064841Y-155551546D01*
X110835546Y-155780841D01*
X110629821Y-156031518D01*
X110629811Y-156031532D01*
X110449657Y-156301151D01*
X110449646Y-156301169D01*
X110296788Y-156587145D01*
X110296786Y-156587150D01*
X110213061Y-156789280D01*
X110169220Y-156843683D01*
X110102926Y-156865748D01*
X110035226Y-156848469D01*
X109987616Y-156797331D01*
X109974500Y-156741827D01*
X109974500Y-109502135D01*
X113274500Y-109502135D01*
X113274500Y-111297870D01*
X113274501Y-111297876D01*
X113280908Y-111357483D01*
X113331202Y-111492328D01*
X113331206Y-111492335D01*
X113417452Y-111607544D01*
X113417455Y-111607547D01*
X113532664Y-111693793D01*
X113532671Y-111693797D01*
X113667517Y-111744091D01*
X113667516Y-111744091D01*
X113674444Y-111744835D01*
X113727127Y-111750500D01*
X115522872Y-111750499D01*
X115582483Y-111744091D01*
X115717331Y-111693796D01*
X115832546Y-111607546D01*
X115918796Y-111492331D01*
X115967810Y-111360916D01*
X116009681Y-111304984D01*
X116075145Y-111280566D01*
X116143418Y-111295417D01*
X116171673Y-111316569D01*
X116285213Y-111430109D01*
X116457179Y-111555048D01*
X116457181Y-111555049D01*
X116457184Y-111555051D01*
X116646588Y-111651557D01*
X116848757Y-111717246D01*
X117058713Y-111750500D01*
X117058714Y-111750500D01*
X117271286Y-111750500D01*
X117271287Y-111750500D01*
X117481243Y-111717246D01*
X117683412Y-111651557D01*
X117872816Y-111555051D01*
X117894789Y-111539086D01*
X118044786Y-111430109D01*
X118044788Y-111430106D01*
X118044792Y-111430104D01*
X118195104Y-111279792D01*
X118195106Y-111279788D01*
X118195109Y-111279786D01*
X118320048Y-111107820D01*
X118320047Y-111107820D01*
X118320051Y-111107816D01*
X118416557Y-110918412D01*
X118482246Y-110716243D01*
X118515500Y-110506287D01*
X118515500Y-110293713D01*
X118482246Y-110083757D01*
X118416557Y-109881588D01*
X118320051Y-109692184D01*
X118320049Y-109692181D01*
X118320048Y-109692179D01*
X118195109Y-109520213D01*
X118044786Y-109369890D01*
X117872820Y-109244951D01*
X117683414Y-109148444D01*
X117683413Y-109148443D01*
X117683412Y-109148443D01*
X117481243Y-109082754D01*
X117481241Y-109082753D01*
X117481240Y-109082753D01*
X117319957Y-109057208D01*
X117271287Y-109049500D01*
X117058713Y-109049500D01*
X117010042Y-109057208D01*
X116848760Y-109082753D01*
X116646585Y-109148444D01*
X116457179Y-109244951D01*
X116285215Y-109369889D01*
X116171673Y-109483431D01*
X116110350Y-109516915D01*
X116040658Y-109511931D01*
X115984725Y-109470059D01*
X115967810Y-109439082D01*
X115918797Y-109307671D01*
X115918793Y-109307664D01*
X115832547Y-109192455D01*
X115832544Y-109192452D01*
X115717335Y-109106206D01*
X115717328Y-109106202D01*
X115582482Y-109055908D01*
X115582483Y-109055908D01*
X115522883Y-109049501D01*
X115522881Y-109049500D01*
X115522873Y-109049500D01*
X115522864Y-109049500D01*
X113727129Y-109049500D01*
X113727123Y-109049501D01*
X113667516Y-109055908D01*
X113532671Y-109106202D01*
X113532664Y-109106206D01*
X113417455Y-109192452D01*
X113417452Y-109192455D01*
X113331206Y-109307664D01*
X113331202Y-109307671D01*
X113280908Y-109442517D01*
X113274501Y-109502116D01*
X113274500Y-109502135D01*
X109974500Y-109502135D01*
X109974500Y-82412500D01*
X109994185Y-82345461D01*
X110046989Y-82299706D01*
X110098500Y-82288500D01*
X111761364Y-82288500D01*
X111828403Y-82308185D01*
G37*
%TD.AperFunction*%
%TA.AperFunction,Conductor*%
G36*
X114074075Y-148687007D02*
G01*
X114040000Y-148814174D01*
X114040000Y-148945826D01*
X114074075Y-149072993D01*
X114106988Y-149130000D01*
X112433012Y-149130000D01*
X112465925Y-149072993D01*
X112500000Y-148945826D01*
X112500000Y-148814174D01*
X112465925Y-148687007D01*
X112433012Y-148630000D01*
X114106988Y-148630000D01*
X114074075Y-148687007D01*
G37*
%TD.AperFunction*%
%TA.AperFunction,Conductor*%
G36*
X144510203Y-134570595D02*
G01*
X144516681Y-134576627D01*
X146125181Y-136185127D01*
X146158666Y-136246450D01*
X146161500Y-136272808D01*
X146161500Y-139162192D01*
X146141815Y-139229231D01*
X146089011Y-139274986D01*
X146019853Y-139284930D01*
X145956297Y-139255905D01*
X145949819Y-139249873D01*
X144307137Y-137607191D01*
X144273652Y-137545868D01*
X144272345Y-137500112D01*
X144284051Y-137426204D01*
X144300500Y-137322352D01*
X144300500Y-137117648D01*
X144268477Y-136915466D01*
X144266287Y-136908727D01*
X144205218Y-136720776D01*
X144123833Y-136561051D01*
X144112287Y-136538390D01*
X144097753Y-136518385D01*
X143991971Y-136372786D01*
X143847213Y-136228028D01*
X143681614Y-136107715D01*
X143673410Y-136103535D01*
X143595703Y-136063941D01*
X143544908Y-136015968D01*
X143528113Y-135948147D01*
X143550650Y-135882012D01*
X143593546Y-135844099D01*
X143659493Y-135808849D01*
X143659511Y-135808838D01*
X143728912Y-135762465D01*
X143129409Y-135162962D01*
X143192993Y-135145925D01*
X143307007Y-135080099D01*
X143400099Y-134987007D01*
X143465925Y-134872993D01*
X143482962Y-134809409D01*
X144082465Y-135408912D01*
X144128838Y-135339511D01*
X144128844Y-135339501D01*
X144175509Y-135252198D01*
X144235814Y-135106612D01*
X144264555Y-135011864D01*
X144295298Y-134857302D01*
X144295298Y-134857299D01*
X144305000Y-134758789D01*
X144305000Y-134664308D01*
X144324685Y-134597269D01*
X144377489Y-134551514D01*
X144446647Y-134541570D01*
X144510203Y-134570595D01*
G37*
%TD.AperFunction*%
%TA.AperFunction,Conductor*%
G36*
X119473703Y-130554095D02*
G01*
X119480181Y-130560127D01*
X121565324Y-132645271D01*
X121565331Y-132645277D01*
X121671871Y-132716464D01*
X121671870Y-132716464D01*
X121706544Y-132730826D01*
X121790256Y-132765501D01*
X121790260Y-132765501D01*
X121790261Y-132765502D01*
X121915928Y-132790500D01*
X121915931Y-132790500D01*
X124021929Y-132790500D01*
X124088968Y-132810185D01*
X124122245Y-132841613D01*
X124228030Y-132987213D01*
X124228034Y-132987219D01*
X124372786Y-133131971D01*
X124538388Y-133252286D01*
X124538390Y-133252287D01*
X124624294Y-133296057D01*
X124675090Y-133344031D01*
X124691886Y-133411852D01*
X124669349Y-133477987D01*
X124626455Y-133515899D01*
X124560494Y-133551157D01*
X124560489Y-133551160D01*
X124491086Y-133597532D01*
X124491085Y-133597533D01*
X125090590Y-134197037D01*
X125027007Y-134214075D01*
X124912993Y-134279901D01*
X124819901Y-134372993D01*
X124754075Y-134487007D01*
X124737037Y-134550589D01*
X124137533Y-133951085D01*
X124137532Y-133951086D01*
X124091161Y-134020488D01*
X124044490Y-134107801D01*
X123984185Y-134253387D01*
X123955444Y-134348135D01*
X123924701Y-134502697D01*
X123924701Y-134502700D01*
X123915000Y-134601210D01*
X123915000Y-134758789D01*
X123924701Y-134857299D01*
X123924701Y-134857302D01*
X123955444Y-135011864D01*
X123984185Y-135106612D01*
X124044490Y-135252198D01*
X124091158Y-135339506D01*
X124137533Y-135408912D01*
X124137534Y-135408913D01*
X124737037Y-134809409D01*
X124754075Y-134872993D01*
X124819901Y-134987007D01*
X124912993Y-135080099D01*
X125027007Y-135145925D01*
X125090590Y-135162962D01*
X124491085Y-135762465D01*
X124560493Y-135808841D01*
X124626454Y-135844099D01*
X124676298Y-135893062D01*
X124691758Y-135961200D01*
X124667926Y-136026879D01*
X124624295Y-136063942D01*
X124538386Y-136107715D01*
X124372786Y-136228028D01*
X124228034Y-136372780D01*
X124228030Y-136372786D01*
X124122246Y-136518386D01*
X124066918Y-136561051D01*
X124021929Y-136569500D01*
X122554808Y-136569500D01*
X122487769Y-136549815D01*
X122467127Y-136533181D01*
X119304819Y-133370873D01*
X119271334Y-133309550D01*
X119268500Y-133283192D01*
X119268500Y-130647808D01*
X119288185Y-130580769D01*
X119340989Y-130535014D01*
X119410147Y-130525070D01*
X119473703Y-130554095D01*
G37*
%TD.AperFunction*%
%TA.AperFunction,Conductor*%
G36*
X120235703Y-127760095D02*
G01*
X120242181Y-127766127D01*
X122581324Y-130105271D01*
X122581327Y-130105274D01*
X122637980Y-130143128D01*
X122687866Y-130176461D01*
X122687872Y-130176464D01*
X122687873Y-130176465D01*
X122806256Y-130225501D01*
X122806260Y-130225501D01*
X122806261Y-130225502D01*
X122931928Y-130250500D01*
X122931931Y-130250500D01*
X124021929Y-130250500D01*
X124088968Y-130270185D01*
X124122245Y-130301613D01*
X124156272Y-130348446D01*
X124228034Y-130447219D01*
X124372786Y-130591971D01*
X124527749Y-130704556D01*
X124538390Y-130712287D01*
X124629840Y-130758883D01*
X124631080Y-130759515D01*
X124681876Y-130807490D01*
X124698671Y-130875311D01*
X124676134Y-130941446D01*
X124631080Y-130980485D01*
X124538386Y-131027715D01*
X124372786Y-131148028D01*
X124228034Y-131292780D01*
X124228030Y-131292786D01*
X124122246Y-131438386D01*
X124066918Y-131481051D01*
X124021929Y-131489500D01*
X122300808Y-131489500D01*
X122233769Y-131469815D01*
X122213127Y-131453181D01*
X120066819Y-129306873D01*
X120033334Y-129245550D01*
X120030500Y-129219192D01*
X120030500Y-127853808D01*
X120050185Y-127786769D01*
X120102989Y-127741014D01*
X120172147Y-127731070D01*
X120235703Y-127760095D01*
G37*
%TD.AperFunction*%
%TA.AperFunction,Conductor*%
G36*
X144510203Y-121870595D02*
G01*
X144516681Y-121876627D01*
X148157181Y-125517127D01*
X148190666Y-125578450D01*
X148193500Y-125604808D01*
X148193500Y-128494192D01*
X148173815Y-128561231D01*
X148121011Y-128606986D01*
X148051853Y-128616930D01*
X147988297Y-128587905D01*
X147981819Y-128581873D01*
X144307137Y-124907191D01*
X144273652Y-124845868D01*
X144272345Y-124800112D01*
X144279397Y-124755587D01*
X144300500Y-124622352D01*
X144300500Y-124417648D01*
X144268477Y-124215466D01*
X144258212Y-124183875D01*
X144205218Y-124020776D01*
X144154986Y-123922192D01*
X144112287Y-123838390D01*
X144081663Y-123796239D01*
X143991971Y-123672786D01*
X143847213Y-123528028D01*
X143681614Y-123407715D01*
X143614881Y-123373713D01*
X143595703Y-123363941D01*
X143544908Y-123315968D01*
X143528113Y-123248147D01*
X143550650Y-123182012D01*
X143593546Y-123144099D01*
X143659493Y-123108849D01*
X143659511Y-123108838D01*
X143728912Y-123062465D01*
X143129409Y-122462962D01*
X143192993Y-122445925D01*
X143307007Y-122380099D01*
X143400099Y-122287007D01*
X143465925Y-122172993D01*
X143482962Y-122109409D01*
X144082465Y-122708912D01*
X144128838Y-122639511D01*
X144128844Y-122639501D01*
X144175509Y-122552198D01*
X144235814Y-122406612D01*
X144264555Y-122311864D01*
X144295298Y-122157302D01*
X144295298Y-122157299D01*
X144305000Y-122058789D01*
X144305000Y-121964308D01*
X144324685Y-121897269D01*
X144377489Y-121851514D01*
X144446647Y-121841570D01*
X144510203Y-121870595D01*
G37*
%TD.AperFunction*%
%TA.AperFunction,Conductor*%
G36*
X114074075Y-125827007D02*
G01*
X114040000Y-125954174D01*
X114040000Y-126085826D01*
X114074075Y-126212993D01*
X114106988Y-126270000D01*
X112433012Y-126270000D01*
X112465925Y-126212993D01*
X112500000Y-126085826D01*
X112500000Y-125954174D01*
X112465925Y-125827007D01*
X112433012Y-125770000D01*
X114106988Y-125770000D01*
X114074075Y-125827007D01*
G37*
%TD.AperFunction*%
%TA.AperFunction,Conductor*%
G36*
X144505703Y-116786095D02*
G01*
X144512181Y-116792127D01*
X148665181Y-120945127D01*
X148698666Y-121006450D01*
X148701500Y-121032808D01*
X148701500Y-123922192D01*
X148681815Y-123989231D01*
X148629011Y-124034986D01*
X148559853Y-124044930D01*
X148496297Y-124015905D01*
X148489819Y-124009873D01*
X144307137Y-119827191D01*
X144273652Y-119765868D01*
X144272345Y-119720112D01*
X144288173Y-119620178D01*
X144300500Y-119542352D01*
X144300500Y-119337648D01*
X144268477Y-119135466D01*
X144205220Y-118940781D01*
X144205218Y-118940778D01*
X144205218Y-118940776D01*
X144157072Y-118846286D01*
X144112287Y-118758390D01*
X144081663Y-118716239D01*
X143991971Y-118592786D01*
X143847213Y-118448028D01*
X143681614Y-118327715D01*
X143614881Y-118293713D01*
X143588917Y-118280483D01*
X143538123Y-118232511D01*
X143521328Y-118164690D01*
X143543865Y-118098555D01*
X143588917Y-118059516D01*
X143681610Y-118012287D01*
X143702770Y-117996913D01*
X143847213Y-117891971D01*
X143847215Y-117891968D01*
X143847219Y-117891966D01*
X143991966Y-117747219D01*
X143991968Y-117747215D01*
X143991971Y-117747213D01*
X144064115Y-117647913D01*
X144112287Y-117581610D01*
X144205220Y-117399219D01*
X144268477Y-117204534D01*
X144300500Y-117002352D01*
X144300500Y-116879808D01*
X144320185Y-116812769D01*
X144372989Y-116767014D01*
X144442147Y-116757070D01*
X144505703Y-116786095D01*
G37*
%TD.AperFunction*%
%TA.AperFunction,Conductor*%
G36*
X124088968Y-120110185D02*
G01*
X124122245Y-120141613D01*
X124188049Y-120232184D01*
X124228034Y-120287219D01*
X124372786Y-120431971D01*
X124538388Y-120552286D01*
X124538390Y-120552287D01*
X124624294Y-120596057D01*
X124675090Y-120644031D01*
X124691886Y-120711852D01*
X124669349Y-120777987D01*
X124626455Y-120815899D01*
X124560494Y-120851157D01*
X124560489Y-120851160D01*
X124491086Y-120897532D01*
X124491085Y-120897533D01*
X125090590Y-121497037D01*
X125027007Y-121514075D01*
X124912993Y-121579901D01*
X124819901Y-121672993D01*
X124754075Y-121787007D01*
X124737037Y-121850590D01*
X124137533Y-121251085D01*
X124137532Y-121251086D01*
X124091161Y-121320488D01*
X124044490Y-121407801D01*
X123984185Y-121553387D01*
X123955444Y-121648135D01*
X123924701Y-121802697D01*
X123924701Y-121802700D01*
X123915000Y-121901210D01*
X123915000Y-122058789D01*
X123924701Y-122157299D01*
X123924701Y-122157302D01*
X123955444Y-122311864D01*
X123984185Y-122406612D01*
X124044490Y-122552198D01*
X124091155Y-122639501D01*
X124091167Y-122639521D01*
X124178704Y-122770530D01*
X124178708Y-122770536D01*
X124241514Y-122847064D01*
X124352935Y-122958485D01*
X124429463Y-123021291D01*
X124429469Y-123021295D01*
X124560478Y-123108832D01*
X124560498Y-123108844D01*
X124626454Y-123144099D01*
X124676298Y-123193062D01*
X124691758Y-123261200D01*
X124667926Y-123326879D01*
X124624295Y-123363942D01*
X124538386Y-123407715D01*
X124372788Y-123528027D01*
X124244061Y-123656754D01*
X124182738Y-123690238D01*
X124113046Y-123685254D01*
X124068699Y-123656753D01*
X123114819Y-122702873D01*
X123081334Y-122641550D01*
X123078500Y-122615192D01*
X123078500Y-120839928D01*
X123053502Y-120714261D01*
X123053501Y-120714260D01*
X123053501Y-120714256D01*
X123004465Y-120595873D01*
X122975342Y-120552287D01*
X122955280Y-120522262D01*
X122933275Y-120489328D01*
X122746128Y-120302181D01*
X122712643Y-120240858D01*
X122717627Y-120171166D01*
X122759499Y-120115233D01*
X122824963Y-120090816D01*
X122833809Y-120090500D01*
X124021929Y-120090500D01*
X124088968Y-120110185D01*
G37*
%TD.AperFunction*%
%TA.AperFunction,Conductor*%
G36*
X156635270Y-116961717D02*
G01*
X156635270Y-116961716D01*
X156674622Y-116907555D01*
X156679232Y-116898507D01*
X156727205Y-116847709D01*
X156795025Y-116830912D01*
X156861161Y-116853447D01*
X156900204Y-116898504D01*
X156904949Y-116907817D01*
X157029890Y-117079786D01*
X157029896Y-117079792D01*
X157180208Y-117230104D01*
X157352184Y-117355051D01*
X157352188Y-117355053D01*
X157356126Y-117357914D01*
X157355146Y-117359262D01*
X157357250Y-117361587D01*
X157366703Y-117365904D01*
X157380293Y-117387050D01*
X157397160Y-117405690D01*
X157399863Y-117417502D01*
X157404477Y-117424682D01*
X157409500Y-117459617D01*
X157409500Y-117480382D01*
X157389815Y-117547421D01*
X157355408Y-117581099D01*
X157356125Y-117582085D01*
X157180215Y-117709889D01*
X157066285Y-117823819D01*
X157004962Y-117857303D01*
X156935270Y-117852319D01*
X156879337Y-117810447D01*
X156862422Y-117779470D01*
X156813354Y-117647913D01*
X156813350Y-117647906D01*
X156727190Y-117532812D01*
X156727187Y-117532809D01*
X156612093Y-117446649D01*
X156612086Y-117446645D01*
X156477380Y-117396403D01*
X156477373Y-117396401D01*
X156394555Y-117387497D01*
X156394884Y-117384431D01*
X156377875Y-117385330D01*
X156318803Y-117352356D01*
X155649408Y-116682962D01*
X155712993Y-116665925D01*
X155827007Y-116600099D01*
X155920099Y-116507007D01*
X155985925Y-116392993D01*
X156002962Y-116329408D01*
X156635270Y-116961717D01*
G37*
%TD.AperFunction*%
%TA.AperFunction,Conductor*%
G36*
X141868968Y-107410185D02*
G01*
X141902245Y-107441613D01*
X141967443Y-107531350D01*
X142008034Y-107587219D01*
X142152782Y-107731967D01*
X142152787Y-107731971D01*
X142229583Y-107787767D01*
X142272249Y-107843097D01*
X142278228Y-107912710D01*
X142245622Y-107974505D01*
X142187365Y-108008233D01*
X142166967Y-108013439D01*
X142166956Y-108013442D01*
X142110415Y-108036862D01*
X142870590Y-108797037D01*
X142807007Y-108814075D01*
X142692993Y-108879901D01*
X142599901Y-108972993D01*
X142534075Y-109087007D01*
X142517037Y-109150589D01*
X141756862Y-108390415D01*
X141733449Y-108446940D01*
X141715455Y-108497946D01*
X141695000Y-108640219D01*
X141695000Y-109919785D01*
X141697893Y-109973762D01*
X141697893Y-109973764D01*
X141733438Y-110113030D01*
X141733440Y-110113037D01*
X141756863Y-110169583D01*
X142517037Y-109409409D01*
X142534075Y-109472993D01*
X142599901Y-109587007D01*
X142692993Y-109680099D01*
X142807007Y-109745925D01*
X142870590Y-109762962D01*
X142110415Y-110523135D01*
X142110415Y-110523136D01*
X142166954Y-110546556D01*
X142166961Y-110546558D01*
X142195621Y-110556669D01*
X142252294Y-110597534D01*
X142277876Y-110662552D01*
X142264246Y-110731080D01*
X142227256Y-110773924D01*
X142152782Y-110828032D01*
X142008034Y-110972780D01*
X142008030Y-110972786D01*
X141902246Y-111118386D01*
X141846918Y-111161051D01*
X141801929Y-111169500D01*
X134955808Y-111169500D01*
X134888769Y-111149815D01*
X134868127Y-111133181D01*
X133829674Y-110094727D01*
X133829673Y-110094726D01*
X133813261Y-110083760D01*
X133723127Y-110023535D01*
X133604744Y-109974499D01*
X133604738Y-109974497D01*
X133479071Y-109949500D01*
X133479069Y-109949500D01*
X126649000Y-109949500D01*
X126581961Y-109929815D01*
X126536206Y-109877011D01*
X126525000Y-109825500D01*
X126525000Y-108774500D01*
X126544685Y-108707461D01*
X126597489Y-108661706D01*
X126649000Y-108650500D01*
X132904071Y-108650500D01*
X132988615Y-108633682D01*
X133029744Y-108625501D01*
X133148127Y-108576465D01*
X133148127Y-108576464D01*
X133148129Y-108576464D01*
X133213642Y-108532690D01*
X133213642Y-108532689D01*
X133254669Y-108505277D01*
X134333127Y-107426819D01*
X134394450Y-107393334D01*
X134420808Y-107390500D01*
X141801929Y-107390500D01*
X141868968Y-107410185D01*
G37*
%TD.AperFunction*%
%TA.AperFunction,Conductor*%
G36*
X116306231Y-98750185D02*
G01*
X116326873Y-98766819D01*
X123912862Y-106352808D01*
X123946347Y-106414131D01*
X123947654Y-106459886D01*
X123928024Y-106583828D01*
X123919500Y-106637648D01*
X123919500Y-106842352D01*
X123929052Y-106902661D01*
X123951523Y-107044535D01*
X123951523Y-107044538D01*
X123997872Y-107187182D01*
X123999867Y-107257023D01*
X123963787Y-107316856D01*
X123901086Y-107347684D01*
X123879941Y-107349500D01*
X122240808Y-107349500D01*
X122173769Y-107329815D01*
X122153127Y-107313181D01*
X115890657Y-101050711D01*
X115857172Y-100989388D01*
X115857689Y-100941245D01*
X115856484Y-100941055D01*
X115890500Y-100726286D01*
X115890500Y-100513713D01*
X115871147Y-100391523D01*
X115857246Y-100303757D01*
X115791557Y-100101588D01*
X115695051Y-99912184D01*
X115695049Y-99912181D01*
X115695048Y-99912179D01*
X115570109Y-99740213D01*
X115419786Y-99589890D01*
X115247820Y-99464951D01*
X115247115Y-99464591D01*
X115239054Y-99460485D01*
X115188259Y-99412512D01*
X115171463Y-99344692D01*
X115193999Y-99278556D01*
X115239054Y-99239515D01*
X115247816Y-99235051D01*
X115269789Y-99219086D01*
X115419786Y-99110109D01*
X115419788Y-99110106D01*
X115419792Y-99110104D01*
X115570104Y-98959792D01*
X115570106Y-98959788D01*
X115570109Y-98959786D01*
X115697915Y-98783875D01*
X115699259Y-98784851D01*
X115745705Y-98742834D01*
X115799618Y-98730500D01*
X116239192Y-98730500D01*
X116306231Y-98750185D01*
G37*
%TD.AperFunction*%
%TA.AperFunction,Conductor*%
G36*
X142313775Y-90182185D02*
G01*
X142359530Y-90234989D01*
X142369474Y-90304147D01*
X142340449Y-90367703D01*
X142319621Y-90386818D01*
X142152786Y-90508028D01*
X142008028Y-90652786D01*
X141887715Y-90818386D01*
X141794781Y-91000776D01*
X141731522Y-91195465D01*
X141699500Y-91397648D01*
X141699500Y-91602351D01*
X141731522Y-91804534D01*
X141794781Y-91999223D01*
X141816841Y-92042517D01*
X141875513Y-92157667D01*
X141887715Y-92181613D01*
X142008028Y-92347213D01*
X142152786Y-92491971D01*
X142307749Y-92604556D01*
X142318390Y-92612287D01*
X142403139Y-92655469D01*
X142411080Y-92659515D01*
X142461876Y-92707490D01*
X142478671Y-92775311D01*
X142456134Y-92841446D01*
X142411080Y-92880485D01*
X142318386Y-92927715D01*
X142152786Y-93048028D01*
X142008028Y-93192786D01*
X141887715Y-93358386D01*
X141794781Y-93540776D01*
X141731522Y-93735465D01*
X141699500Y-93937648D01*
X141699500Y-94142351D01*
X141731522Y-94344534D01*
X141794781Y-94539223D01*
X141887715Y-94721613D01*
X142008028Y-94887213D01*
X142152782Y-95031967D01*
X142152787Y-95031971D01*
X142229583Y-95087767D01*
X142272249Y-95143097D01*
X142278228Y-95212710D01*
X142245622Y-95274505D01*
X142187365Y-95308233D01*
X142166967Y-95313439D01*
X142166956Y-95313442D01*
X142110415Y-95336862D01*
X142870590Y-96097037D01*
X142807007Y-96114075D01*
X142692993Y-96179901D01*
X142599901Y-96272993D01*
X142534075Y-96387007D01*
X142517037Y-96450589D01*
X141756862Y-95690415D01*
X141733449Y-95746940D01*
X141715455Y-95797946D01*
X141695000Y-95940219D01*
X141695000Y-97219785D01*
X141697893Y-97273762D01*
X141697893Y-97273764D01*
X141733438Y-97413030D01*
X141733440Y-97413037D01*
X141756863Y-97469583D01*
X142517037Y-96709409D01*
X142534075Y-96772993D01*
X142599901Y-96887007D01*
X142692993Y-96980099D01*
X142807007Y-97045925D01*
X142870590Y-97062962D01*
X142110415Y-97823135D01*
X142110415Y-97823136D01*
X142166954Y-97846556D01*
X142166961Y-97846558D01*
X142195621Y-97856669D01*
X142252294Y-97897534D01*
X142277876Y-97962552D01*
X142264246Y-98031080D01*
X142227256Y-98073924D01*
X142152782Y-98128032D01*
X142008028Y-98272786D01*
X141887715Y-98438386D01*
X141794781Y-98620776D01*
X141731522Y-98815465D01*
X141699500Y-99017648D01*
X141699500Y-99222351D01*
X141731522Y-99424534D01*
X141794781Y-99619223D01*
X141856427Y-99740208D01*
X141871557Y-99769903D01*
X141887715Y-99801613D01*
X142008028Y-99967213D01*
X142152786Y-100111971D01*
X142307749Y-100224556D01*
X142318390Y-100232287D01*
X142409840Y-100278883D01*
X142411080Y-100279515D01*
X142461876Y-100327490D01*
X142478671Y-100395311D01*
X142456134Y-100461446D01*
X142411080Y-100500485D01*
X142318386Y-100547715D01*
X142152786Y-100668028D01*
X142008028Y-100812786D01*
X141887715Y-100978386D01*
X141794781Y-101160776D01*
X141731522Y-101355465D01*
X141699500Y-101557648D01*
X141699500Y-101762351D01*
X141731522Y-101964534D01*
X141794781Y-102159223D01*
X141887715Y-102341613D01*
X142008028Y-102507213D01*
X142152786Y-102651971D01*
X142290332Y-102751902D01*
X142318390Y-102772287D01*
X142384420Y-102805931D01*
X142411080Y-102819515D01*
X142461876Y-102867490D01*
X142478671Y-102935311D01*
X142456134Y-103001446D01*
X142411080Y-103040485D01*
X142318386Y-103087715D01*
X142152786Y-103208028D01*
X142008028Y-103352786D01*
X141887715Y-103518386D01*
X141794781Y-103700776D01*
X141731522Y-103895465D01*
X141707765Y-104045465D01*
X141699500Y-104097648D01*
X141699500Y-104302352D01*
X141700378Y-104307893D01*
X141731522Y-104504534D01*
X141794781Y-104699223D01*
X141856427Y-104820208D01*
X141862731Y-104832581D01*
X141887715Y-104881613D01*
X142008028Y-105047213D01*
X142152786Y-105191971D01*
X142307749Y-105304556D01*
X142318390Y-105312287D01*
X142409840Y-105358883D01*
X142411080Y-105359515D01*
X142461876Y-105407490D01*
X142478671Y-105475311D01*
X142456134Y-105541446D01*
X142411080Y-105580485D01*
X142318386Y-105627715D01*
X142152786Y-105748028D01*
X142008034Y-105892780D01*
X142008030Y-105892786D01*
X141902246Y-106038386D01*
X141846918Y-106081051D01*
X141801929Y-106089500D01*
X134035929Y-106089500D01*
X133910261Y-106114497D01*
X133910255Y-106114499D01*
X133791874Y-106163534D01*
X133685326Y-106234726D01*
X133685325Y-106234727D01*
X132606873Y-107313181D01*
X132545550Y-107346666D01*
X132519192Y-107349500D01*
X126560059Y-107349500D01*
X126493020Y-107329815D01*
X126447265Y-107277011D01*
X126437321Y-107207853D01*
X126442128Y-107187182D01*
X126488476Y-107044538D01*
X126488476Y-107044537D01*
X126488477Y-107044534D01*
X126520500Y-106842352D01*
X126520500Y-106637648D01*
X126498840Y-106500893D01*
X126488477Y-106435465D01*
X126425218Y-106240776D01*
X126365756Y-106124077D01*
X126332287Y-106058390D01*
X126301663Y-106016239D01*
X126211971Y-105892786D01*
X126067213Y-105748028D01*
X125901614Y-105627715D01*
X125834881Y-105593713D01*
X125808917Y-105580483D01*
X125758123Y-105532511D01*
X125741328Y-105464690D01*
X125763865Y-105398555D01*
X125808917Y-105359516D01*
X125901610Y-105312287D01*
X126003378Y-105238349D01*
X126067213Y-105191971D01*
X126067215Y-105191968D01*
X126067219Y-105191966D01*
X126211966Y-105047219D01*
X126211968Y-105047215D01*
X126211971Y-105047213D01*
X126271321Y-104965523D01*
X126332287Y-104881610D01*
X126425220Y-104699219D01*
X126488477Y-104504534D01*
X126520500Y-104302352D01*
X126520500Y-104097648D01*
X126507333Y-104014514D01*
X126488477Y-103895465D01*
X126445978Y-103764668D01*
X126425220Y-103700781D01*
X126425218Y-103700778D01*
X126425218Y-103700776D01*
X126376558Y-103605277D01*
X126332287Y-103518390D01*
X126320950Y-103502786D01*
X126211971Y-103352786D01*
X126067213Y-103208028D01*
X125901614Y-103087715D01*
X125889459Y-103081522D01*
X125808917Y-103040483D01*
X125758123Y-102992511D01*
X125741328Y-102924690D01*
X125763865Y-102858555D01*
X125808917Y-102819516D01*
X125901610Y-102772287D01*
X125929668Y-102751902D01*
X126067213Y-102651971D01*
X126067215Y-102651968D01*
X126067219Y-102651966D01*
X126211966Y-102507219D01*
X126211968Y-102507215D01*
X126211971Y-102507213D01*
X126264732Y-102434590D01*
X126332287Y-102341610D01*
X126425220Y-102159219D01*
X126488477Y-101964534D01*
X126520500Y-101762352D01*
X126520500Y-101557648D01*
X126488477Y-101355466D01*
X126425220Y-101160781D01*
X126425218Y-101160778D01*
X126425218Y-101160776D01*
X126360876Y-101034499D01*
X126332287Y-100978390D01*
X126301663Y-100936239D01*
X126211971Y-100812786D01*
X126067213Y-100668028D01*
X125901614Y-100547715D01*
X125834881Y-100513713D01*
X125808917Y-100500483D01*
X125758123Y-100452511D01*
X125741328Y-100384690D01*
X125763865Y-100318555D01*
X125808917Y-100279516D01*
X125901610Y-100232287D01*
X126003378Y-100158349D01*
X126067213Y-100111971D01*
X126067215Y-100111968D01*
X126067219Y-100111966D01*
X126211966Y-99967219D01*
X126211968Y-99967215D01*
X126211971Y-99967213D01*
X126296565Y-99850777D01*
X126332287Y-99801610D01*
X126425220Y-99619219D01*
X126488477Y-99424534D01*
X126520500Y-99222352D01*
X126520500Y-99017648D01*
X126488477Y-98815466D01*
X126478212Y-98783875D01*
X126425218Y-98620776D01*
X126343833Y-98461051D01*
X126332287Y-98438390D01*
X126301663Y-98396239D01*
X126211971Y-98272786D01*
X126067217Y-98128032D01*
X125990415Y-98072232D01*
X125947750Y-98016902D01*
X125941771Y-97947288D01*
X125974377Y-97885494D01*
X126032640Y-97851765D01*
X126053022Y-97846563D01*
X126053035Y-97846559D01*
X126109582Y-97823135D01*
X125349409Y-97062962D01*
X125412993Y-97045925D01*
X125527007Y-96980099D01*
X125620099Y-96887007D01*
X125685925Y-96772993D01*
X125702962Y-96709409D01*
X126463135Y-97469582D01*
X126463137Y-97469582D01*
X126486552Y-97413053D01*
X126504544Y-97362053D01*
X126524999Y-97219780D01*
X126525000Y-97219779D01*
X126525000Y-95940224D01*
X126524999Y-95940204D01*
X126522106Y-95886237D01*
X126522106Y-95886235D01*
X126486558Y-95746960D01*
X126463136Y-95690415D01*
X126463135Y-95690415D01*
X125702962Y-96450589D01*
X125685925Y-96387007D01*
X125620099Y-96272993D01*
X125527007Y-96179901D01*
X125412993Y-96114075D01*
X125349410Y-96097037D01*
X126109583Y-95336863D01*
X126109583Y-95336862D01*
X126053052Y-95313447D01*
X126053013Y-95313432D01*
X126024375Y-95303329D01*
X125967704Y-95262463D01*
X125942122Y-95197444D01*
X125955754Y-95128917D01*
X125992745Y-95086074D01*
X126067215Y-95031969D01*
X126067215Y-95031968D01*
X126067219Y-95031966D01*
X126211966Y-94887219D01*
X126211968Y-94887215D01*
X126211971Y-94887213D01*
X126264732Y-94814590D01*
X126332287Y-94721610D01*
X126425220Y-94539219D01*
X126488477Y-94344534D01*
X126520500Y-94142352D01*
X126520500Y-93937648D01*
X126488477Y-93735466D01*
X126425220Y-93540781D01*
X126425218Y-93540778D01*
X126425218Y-93540776D01*
X126343833Y-93381051D01*
X126332287Y-93358390D01*
X126317753Y-93338385D01*
X126211971Y-93192786D01*
X126067217Y-93048032D01*
X126067212Y-93048028D01*
X125986440Y-92989344D01*
X125943774Y-92934015D01*
X125937795Y-92864401D01*
X125970400Y-92802606D01*
X126022433Y-92770641D01*
X126109606Y-92743478D01*
X126255185Y-92655472D01*
X126375472Y-92535185D01*
X126463478Y-92389606D01*
X126514086Y-92227196D01*
X126520500Y-92156616D01*
X126520500Y-90843384D01*
X126514086Y-90772804D01*
X126463478Y-90610394D01*
X126375472Y-90464815D01*
X126375470Y-90464813D01*
X126375469Y-90464811D01*
X126284839Y-90374181D01*
X126251354Y-90312858D01*
X126256338Y-90243166D01*
X126298210Y-90187233D01*
X126363674Y-90162816D01*
X126372520Y-90162500D01*
X142246736Y-90162500D01*
X142313775Y-90182185D01*
G37*
%TD.AperFunction*%
%TA.AperFunction,Conductor*%
G36*
X115925731Y-102929685D02*
G01*
X115946373Y-102946319D01*
X116447873Y-103447819D01*
X116481358Y-103509142D01*
X116476374Y-103578834D01*
X116434502Y-103634767D01*
X116369038Y-103659184D01*
X116360192Y-103659500D01*
X115967848Y-103659500D01*
X115900809Y-103639815D01*
X115855054Y-103587011D01*
X115845110Y-103517853D01*
X115849917Y-103497181D01*
X115856756Y-103476130D01*
X115856758Y-103476124D01*
X115867231Y-103410000D01*
X114973012Y-103410000D01*
X115005925Y-103352993D01*
X115040000Y-103225826D01*
X115040000Y-103094174D01*
X115005925Y-102967007D01*
X114973012Y-102910000D01*
X115858692Y-102910000D01*
X115925731Y-102929685D01*
G37*
%TD.AperFunction*%
%TA.AperFunction,Conductor*%
G36*
X114074075Y-102967007D02*
G01*
X114040000Y-103094174D01*
X114040000Y-103225826D01*
X114074075Y-103352993D01*
X114106988Y-103410000D01*
X114064251Y-103410000D01*
X114034810Y-103401355D01*
X114004824Y-103394832D01*
X113999808Y-103391077D01*
X113997212Y-103390315D01*
X113976570Y-103373681D01*
X113958907Y-103356018D01*
X113932027Y-103315789D01*
X113916468Y-103278226D01*
X113916467Y-103278225D01*
X113916465Y-103278219D01*
X113916459Y-103278210D01*
X113892527Y-103242391D01*
X113892524Y-103242388D01*
X113871395Y-103210766D01*
X113850520Y-103144089D01*
X113850500Y-103141879D01*
X113850500Y-103034000D01*
X113870185Y-102966961D01*
X113922989Y-102921206D01*
X113974500Y-102910000D01*
X114106988Y-102910000D01*
X114074075Y-102967007D01*
G37*
%TD.AperFunction*%
%TA.AperFunction,Conductor*%
G36*
X112492539Y-102929685D02*
G01*
X112538294Y-102982489D01*
X112549500Y-103034000D01*
X112549500Y-103286000D01*
X112529815Y-103353039D01*
X112477011Y-103398794D01*
X112434091Y-103408131D01*
X112465925Y-103352993D01*
X112500000Y-103225826D01*
X112500000Y-103094174D01*
X112465925Y-102967007D01*
X112434545Y-102912656D01*
X112492539Y-102929685D01*
G37*
%TD.AperFunction*%
%TA.AperFunction,Conductor*%
G36*
X120246231Y-93670185D02*
G01*
X120266873Y-93686819D01*
X121125325Y-94545272D01*
X121125332Y-94545278D01*
X121181227Y-94582625D01*
X121181229Y-94582626D01*
X121181232Y-94582628D01*
X121231873Y-94616465D01*
X121350256Y-94665501D01*
X121350260Y-94665501D01*
X121350261Y-94665502D01*
X121475928Y-94690500D01*
X121475931Y-94690500D01*
X124021929Y-94690500D01*
X124088968Y-94710185D01*
X124122245Y-94741613D01*
X124188049Y-94832184D01*
X124228034Y-94887219D01*
X124372786Y-95031971D01*
X124538388Y-95152286D01*
X124538390Y-95152287D01*
X124624294Y-95196057D01*
X124675090Y-95244031D01*
X124691886Y-95311852D01*
X124669349Y-95377987D01*
X124626455Y-95415899D01*
X124560494Y-95451157D01*
X124560489Y-95451160D01*
X124491086Y-95497532D01*
X124491085Y-95497533D01*
X125090590Y-96097037D01*
X125027007Y-96114075D01*
X124912993Y-96179901D01*
X124819901Y-96272993D01*
X124754075Y-96387007D01*
X124737037Y-96450589D01*
X124137533Y-95851085D01*
X124137532Y-95851086D01*
X124091161Y-95920488D01*
X124044490Y-96007801D01*
X123984185Y-96153387D01*
X123955444Y-96248135D01*
X123924701Y-96402697D01*
X123924701Y-96402700D01*
X123915000Y-96501210D01*
X123915000Y-96658789D01*
X123924701Y-96757299D01*
X123924701Y-96757302D01*
X123955444Y-96911864D01*
X123984185Y-97006612D01*
X124044490Y-97152198D01*
X124091158Y-97239506D01*
X124137533Y-97308912D01*
X124137534Y-97308913D01*
X124737037Y-96709409D01*
X124754075Y-96772993D01*
X124819901Y-96887007D01*
X124912993Y-96980099D01*
X125027007Y-97045925D01*
X125090590Y-97062962D01*
X124491085Y-97662465D01*
X124560493Y-97708841D01*
X124626454Y-97744099D01*
X124676298Y-97793062D01*
X124691758Y-97861200D01*
X124667926Y-97926879D01*
X124624295Y-97963942D01*
X124538386Y-98007715D01*
X124372786Y-98128028D01*
X124228034Y-98272780D01*
X124228030Y-98272786D01*
X124122246Y-98418386D01*
X124066918Y-98461051D01*
X124021929Y-98469500D01*
X123240808Y-98469500D01*
X123173769Y-98449815D01*
X123153127Y-98433181D01*
X121305790Y-96585844D01*
X118582128Y-93862181D01*
X118548643Y-93800858D01*
X118553627Y-93731166D01*
X118595499Y-93675233D01*
X118660963Y-93650816D01*
X118669809Y-93650500D01*
X120179192Y-93650500D01*
X120246231Y-93670185D01*
G37*
%TD.AperFunction*%
%TD*%
M02*
