M48
; DRILL file KiCad 10.0.1 date 2026-07-09T23:00:22
; FORMAT={-:-/ absolute / metric / decimal}
; #@! TF.CreationDate,2026-07-09T23:00:22+09:00
; #@! TF.GenerationSoftware,Kicad,Pcbnew,10.0.1
; #@! TF.FileFunction,Plated,1,2,PTH
FMAT,2
METRIC
; #@! TA.AperFunction,Plated,PTH,ViaDrill
T1C0.300
; #@! TA.AperFunction,Plated,PTH,ComponentDrill
T2C0.800
; #@! TA.AperFunction,Plated,PTH,ComponentDrill
T3C1.000
; #@! TA.AperFunction,Plated,PTH,ComponentDrill
T4C1.100
; #@! TA.AperFunction,Plated,PTH,ComponentDrill
T5C3.200
%
G90
G05
T1
X111.2Y-110.4
X114.554Y-133.096
X120.1Y-103.7
X121.5Y-130.0
X130.1Y-117.5
X130.3Y-121.4
X132.8Y-120.8
X137.1Y-121.0
X137.1Y-127.0
X137.16Y-97.79
X148.082Y-115.57
X148.082Y-121.92
X156.21Y-96.52
X157.6Y-126.6
X162.8Y-121.4
T2
X162.8Y-104.35
X162.8Y-106.85
T3
X112.0Y-93.0
X112.0Y-95.54
X112.0Y-98.08
X112.0Y-100.62
X112.0Y-103.16
X112.0Y-105.7
X112.0Y-115.86
X112.0Y-118.4
X112.0Y-120.94
X112.0Y-123.48
X112.0Y-126.02
X112.0Y-128.56
X112.0Y-138.72
X112.0Y-141.26
X112.0Y-143.8
X112.0Y-146.34
X112.0Y-148.88
X112.0Y-151.42
X114.54Y-93.0
X114.54Y-95.54
X114.54Y-98.08
X114.54Y-100.62
X114.54Y-103.16
X114.54Y-105.7
X114.54Y-115.86
X114.54Y-118.4
X114.54Y-120.94
X114.54Y-123.48
X114.54Y-126.02
X114.54Y-128.56
X114.54Y-138.72
X114.54Y-141.26
X114.54Y-143.8
X114.54Y-146.34
X114.54Y-148.88
X114.54Y-151.42
X114.625Y-110.4
X117.165Y-110.4
X125.22Y-91.5
X125.22Y-94.04
X125.22Y-96.58
X125.22Y-99.12
X125.22Y-101.66
X125.22Y-104.2
X125.22Y-106.74
X125.22Y-109.28
X125.22Y-111.82
X125.22Y-114.36
X125.22Y-116.9
X125.22Y-119.44
X125.22Y-121.98
X125.22Y-124.52
X125.22Y-127.06
X125.22Y-129.6
X125.22Y-132.14
X125.22Y-134.68
X125.22Y-137.22
X125.22Y-139.76
X143.0Y-91.5
X143.0Y-94.04
X143.0Y-96.58
X143.0Y-99.12
X143.0Y-101.66
X143.0Y-104.2
X143.0Y-106.74
X143.0Y-109.28
X143.0Y-111.82
X143.0Y-114.36
X143.0Y-116.9
X143.0Y-119.44
X143.0Y-121.98
X143.0Y-124.52
X143.0Y-127.06
X143.0Y-129.6
X143.0Y-132.14
X143.0Y-134.68
X143.0Y-137.22
X143.0Y-139.76
X155.52Y-116.2
X155.52Y-118.74
X158.06Y-116.2
X158.06Y-118.74
X160.6Y-116.2
X160.6Y-118.74
X163.14Y-116.2
X163.14Y-118.74
T4
X151.638Y-102.87
X151.638Y-107.37
X158.138Y-102.87
X158.138Y-107.37
T5
X113.284Y-158.0
X113.538Y-85.344
X168.0Y-93.0
X168.0Y-150.0
M30
