%TF.GenerationSoftware,KiCad,Pcbnew,10.0.1*%
%TF.CreationDate,2026-07-10T20:33:37+09:00*%
%TF.ProjectId,pong_pt1,706f6e67-5f70-4743-912e-6b696361645f,rev?*%
%TF.SameCoordinates,Original*%
%TF.FileFunction,Legend,Top*%
%TF.FilePolarity,Positive*%
%FSLAX46Y46*%
G04 Gerber Fmt 4.6, Leading zero omitted, Abs format (unit mm)*
G04 Created by KiCad (PCBNEW 10.0.1) date 2026-07-10 20:33:37*
%MOMM*%
%LPD*%
G01*
G04 APERTURE LIST*
%ADD10C,0.100000*%
%ADD11C,0.200000*%
%ADD12C,0.150000*%
%ADD13C,0.300000*%
%ADD14C,0.120000*%
G04 APERTURE END LIST*
D10*
X87250000Y-73750000D02*
X94500000Y-73750000D01*
X94500000Y-78750000D01*
X87250000Y-78750000D01*
X87250000Y-73750000D01*
G36*
X88693590Y-77333470D02*
G01*
X88693590Y-77371739D01*
X88682751Y-77387960D01*
X87285355Y-78785355D01*
X87269134Y-78796194D01*
X87230866Y-78796194D01*
X87203806Y-78769134D01*
X87203806Y-78730866D01*
X87214645Y-78714645D01*
X88612040Y-77317249D01*
X88628261Y-77306410D01*
X88666530Y-77306410D01*
X88693590Y-77333470D01*
G37*
G36*
X89693590Y-77333470D02*
G01*
X89693590Y-77371739D01*
X89682751Y-77387960D01*
X88285355Y-78785355D01*
X88269134Y-78796194D01*
X88230866Y-78796194D01*
X88203806Y-78769134D01*
X88203806Y-78730866D01*
X88214645Y-78714645D01*
X89612040Y-77317249D01*
X89628261Y-77306410D01*
X89666530Y-77306410D01*
X89693590Y-77333470D01*
G37*
G36*
X90693590Y-77333470D02*
G01*
X90693590Y-77371739D01*
X90682751Y-77387960D01*
X89285355Y-78785355D01*
X89269134Y-78796194D01*
X89230866Y-78796194D01*
X89203806Y-78769134D01*
X89203806Y-78730866D01*
X89214645Y-78714645D01*
X90612040Y-77317249D01*
X90628261Y-77306410D01*
X90666530Y-77306410D01*
X90693590Y-77333470D01*
G37*
G36*
X90900303Y-78126757D02*
G01*
X90900303Y-78165025D01*
X90889464Y-78181246D01*
X90285355Y-78785355D01*
X90269134Y-78796194D01*
X90230866Y-78796194D01*
X90203806Y-78769134D01*
X90203806Y-78730866D01*
X90214645Y-78714645D01*
X90818754Y-78110536D01*
X90834975Y-78099697D01*
X90873243Y-78099697D01*
X90900303Y-78126757D01*
G37*
G36*
X91566194Y-78460865D02*
G01*
X91566194Y-78499134D01*
X91555356Y-78515355D01*
X91285355Y-78785355D01*
X91269134Y-78796194D01*
X91230866Y-78796194D01*
X91203806Y-78769134D01*
X91203806Y-78730866D01*
X91214645Y-78714645D01*
X91484645Y-78444644D01*
X91500866Y-78433806D01*
X91539135Y-78433806D01*
X91566194Y-78460865D01*
G37*
G36*
X92566194Y-78460865D02*
G01*
X92566194Y-78499134D01*
X92555356Y-78515355D01*
X92285355Y-78785355D01*
X92269134Y-78796194D01*
X92230866Y-78796194D01*
X92203806Y-78769134D01*
X92203806Y-78730866D01*
X92214645Y-78714645D01*
X92484645Y-78444644D01*
X92500866Y-78433806D01*
X92539135Y-78433806D01*
X92566194Y-78460865D01*
G37*
G36*
X93566194Y-78460865D02*
G01*
X93566194Y-78499134D01*
X93555356Y-78515355D01*
X93285355Y-78785355D01*
X93269134Y-78796194D01*
X93230866Y-78796194D01*
X93203806Y-78769134D01*
X93203806Y-78730866D01*
X93214645Y-78714645D01*
X93484645Y-78444644D01*
X93500866Y-78433806D01*
X93539135Y-78433806D01*
X93566194Y-78460865D01*
G37*
G36*
X94546194Y-78480866D02*
G01*
X94546194Y-78519135D01*
X94535355Y-78535356D01*
X94285355Y-78785355D01*
X94269134Y-78796194D01*
X94230866Y-78796194D01*
X94203806Y-78769134D01*
X94203806Y-78730866D01*
X94214645Y-78714645D01*
X94464644Y-78464645D01*
X94480865Y-78453806D01*
X94519134Y-78453806D01*
X94546194Y-78480866D01*
G37*
G36*
X88106948Y-76920112D02*
G01*
X88106948Y-76958381D01*
X88096109Y-76974602D01*
X87285355Y-77785355D01*
X87269134Y-77796194D01*
X87230866Y-77796194D01*
X87203806Y-77769134D01*
X87203806Y-77730866D01*
X87214645Y-77714645D01*
X88025398Y-76903891D01*
X88041619Y-76893052D01*
X88079888Y-76893052D01*
X88106948Y-76920112D01*
G37*
G36*
X88106948Y-75920112D02*
G01*
X88106948Y-75958381D01*
X88096109Y-75974602D01*
X87285355Y-76785355D01*
X87269134Y-76796194D01*
X87230866Y-76796194D01*
X87203806Y-76769134D01*
X87203806Y-76730866D01*
X87214645Y-76714645D01*
X88025398Y-75903891D01*
X88041619Y-75893052D01*
X88079888Y-75893052D01*
X88106948Y-75920112D01*
G37*
G36*
X88106948Y-74920112D02*
G01*
X88106948Y-74958381D01*
X88096109Y-74974602D01*
X87285355Y-75785355D01*
X87269134Y-75796194D01*
X87230866Y-75796194D01*
X87203806Y-75769134D01*
X87203806Y-75730866D01*
X87214645Y-75714645D01*
X88025398Y-74903891D01*
X88041619Y-74893052D01*
X88079888Y-74893052D01*
X88106948Y-74920112D01*
G37*
G36*
X89296194Y-73730866D02*
G01*
X89296194Y-73769134D01*
X89285355Y-73785355D01*
X88176533Y-74894177D01*
X88160312Y-74905016D01*
X88122044Y-74905016D01*
X88094984Y-74877956D01*
X88094984Y-74839688D01*
X88105823Y-74823467D01*
X89214645Y-73714645D01*
X89230866Y-73703806D01*
X89269134Y-73703806D01*
X89296194Y-73730866D01*
G37*
G36*
X90296194Y-73730866D02*
G01*
X90296194Y-73769134D01*
X90285355Y-73785355D01*
X89176533Y-74894177D01*
X89160312Y-74905016D01*
X89122044Y-74905016D01*
X89094984Y-74877956D01*
X89094984Y-74839688D01*
X89105823Y-74823467D01*
X90214645Y-73714645D01*
X90230866Y-73703806D01*
X90269134Y-73703806D01*
X90296194Y-73730866D01*
G37*
G36*
X90856194Y-74170866D02*
G01*
X90856194Y-74209134D01*
X90845355Y-74225355D01*
X90176533Y-74894177D01*
X90160312Y-74905016D01*
X90122044Y-74905016D01*
X90094984Y-74877956D01*
X90094984Y-74839688D01*
X90105823Y-74823467D01*
X90774645Y-74154645D01*
X90790866Y-74143806D01*
X90829134Y-74143806D01*
X90856194Y-74170866D01*
G37*
G36*
X88296194Y-73730865D02*
G01*
X88296194Y-73769134D01*
X88285356Y-73785355D01*
X87285355Y-74785355D01*
X87269134Y-74796194D01*
X87230866Y-74796194D01*
X87203806Y-74769134D01*
X87203806Y-74730866D01*
X87214645Y-74714645D01*
X88214645Y-73714644D01*
X88230866Y-73703806D01*
X88269135Y-73703806D01*
X88296194Y-73730865D01*
G37*
G36*
X93296194Y-73730865D02*
G01*
X93296194Y-73769134D01*
X93285356Y-73785355D01*
X92800355Y-74270355D01*
X92784134Y-74281194D01*
X92745866Y-74281194D01*
X92718806Y-74254134D01*
X92718806Y-74215866D01*
X92729645Y-74199645D01*
X93214645Y-73714644D01*
X93230866Y-73703806D01*
X93269135Y-73703806D01*
X93296194Y-73730865D01*
G37*
G36*
X94296194Y-73730865D02*
G01*
X94296194Y-73769134D01*
X94285356Y-73785355D01*
X93800355Y-74270355D01*
X93784134Y-74281194D01*
X93745866Y-74281194D01*
X93718806Y-74254134D01*
X93718806Y-74215866D01*
X93729645Y-74199645D01*
X94214645Y-73714644D01*
X94230866Y-73703806D01*
X94269135Y-73703806D01*
X94296194Y-73730865D01*
G37*
G36*
X92296194Y-73730865D02*
G01*
X92296194Y-73769134D01*
X92285356Y-73785355D01*
X91945355Y-74125355D01*
X91929134Y-74136194D01*
X91890866Y-74136194D01*
X91863806Y-74109134D01*
X91863806Y-74070866D01*
X91874645Y-74054645D01*
X92214645Y-73714644D01*
X92230866Y-73703806D01*
X92269135Y-73703806D01*
X92296194Y-73730865D01*
G37*
X91360000Y-56430000D02*
X128360000Y-56430000D01*
X128360000Y-77930000D01*
X91360000Y-77930000D01*
X91360000Y-56430000D01*
X92200000Y-143800000D02*
X127200000Y-143800000D01*
X127200000Y-148200000D01*
X92200000Y-148200000D01*
X92200000Y-143800000D01*
G36*
X92200000Y-143800000D02*
G01*
X127200000Y-143800000D01*
X127200000Y-148200000D01*
X92200000Y-148200000D01*
X92200000Y-143800000D01*
G37*
D11*
X96500000Y-80500000D02*
X131500000Y-80500000D01*
X131500000Y-115500000D01*
X96500000Y-115500000D01*
X96500000Y-80500000D01*
D12*
X93060756Y-55689139D02*
X93600286Y-56147441D01*
X93600286Y-56147441D02*
X93473150Y-55451043D01*
X94507551Y-55623632D02*
X94007551Y-54757606D01*
X94483742Y-55582392D02*
X94425073Y-55671251D01*
X94425073Y-55671251D02*
X94260115Y-55766489D01*
X94260115Y-55766489D02*
X94153827Y-55772869D01*
X94153827Y-55772869D02*
X94088778Y-55755439D01*
X94088778Y-55755439D02*
X93999920Y-55696770D01*
X93999920Y-55696770D02*
X93857063Y-55449334D01*
X93857063Y-55449334D02*
X93850683Y-55343046D01*
X93850683Y-55343046D02*
X93868113Y-55277997D01*
X93868113Y-55277997D02*
X93926782Y-55189139D01*
X93926782Y-55189139D02*
X94091739Y-55093900D01*
X94091739Y-55093900D02*
X94198027Y-55087521D01*
X95291098Y-55171251D02*
X94791098Y-54305225D01*
X95267289Y-55130011D02*
X95208619Y-55218870D01*
X95208619Y-55218870D02*
X95043662Y-55314108D01*
X95043662Y-55314108D02*
X94937374Y-55320488D01*
X94937374Y-55320488D02*
X94872325Y-55303058D01*
X94872325Y-55303058D02*
X94783467Y-55244389D01*
X94783467Y-55244389D02*
X94640610Y-54996953D01*
X94640610Y-54996953D02*
X94634230Y-54890665D01*
X94634230Y-54890665D02*
X94651660Y-54825616D01*
X94651660Y-54825616D02*
X94710329Y-54736758D01*
X94710329Y-54736758D02*
X94875286Y-54641519D01*
X94875286Y-54641519D02*
X94981574Y-54635140D01*
X96573913Y-55963345D02*
X96515244Y-56052203D01*
X96515244Y-56052203D02*
X96350286Y-56147441D01*
X96350286Y-56147441D02*
X96243998Y-56153821D01*
X96243998Y-56153821D02*
X96178949Y-56136391D01*
X96178949Y-56136391D02*
X96090091Y-56077722D01*
X96090091Y-56077722D02*
X95947234Y-55830286D01*
X95947234Y-55830286D02*
X95940854Y-55723998D01*
X95940854Y-55723998D02*
X95958284Y-55658949D01*
X95958284Y-55658949D02*
X96016953Y-55570091D01*
X96016953Y-55570091D02*
X96181910Y-55474853D01*
X96181910Y-55474853D02*
X96288198Y-55468473D01*
X97092594Y-55718870D02*
X96986306Y-55725250D01*
X96986306Y-55725250D02*
X96897447Y-55666580D01*
X96897447Y-55666580D02*
X96468876Y-54924273D01*
X97422509Y-55528393D02*
X96922509Y-54662368D01*
X97314511Y-55150860D02*
X97752423Y-55337917D01*
X97419090Y-54760567D02*
X97279652Y-55280958D01*
X98782673Y-55987154D02*
X98724004Y-56076013D01*
X98724004Y-56076013D02*
X98559047Y-56171251D01*
X98559047Y-56171251D02*
X98452759Y-56177631D01*
X98452759Y-56177631D02*
X98363901Y-56118961D01*
X98363901Y-56118961D02*
X98173424Y-55789047D01*
X98173424Y-55789047D02*
X98167045Y-55682759D01*
X98167045Y-55682759D02*
X98225714Y-55593901D01*
X98225714Y-55593901D02*
X98390671Y-55498662D01*
X98390671Y-55498662D02*
X98496959Y-55492283D01*
X98496959Y-55492283D02*
X98585817Y-55550952D01*
X98585817Y-55550952D02*
X98633436Y-55633430D01*
X98633436Y-55633430D02*
X98268662Y-55954004D01*
X98885543Y-55212948D02*
X99218876Y-55790298D01*
X98933162Y-55295427D02*
X98950592Y-55230378D01*
X98950592Y-55230378D02*
X99009261Y-55141520D01*
X99009261Y-55141520D02*
X99132979Y-55070091D01*
X99132979Y-55070091D02*
X99239267Y-55063711D01*
X99239267Y-55063711D02*
X99328125Y-55122380D01*
X99328125Y-55122380D02*
X99590030Y-55576013D01*
X100373577Y-55123632D02*
X100111672Y-54669999D01*
X100111672Y-54669999D02*
X100022814Y-54611330D01*
X100022814Y-54611330D02*
X99916525Y-54617710D01*
X99916525Y-54617710D02*
X99751568Y-54712948D01*
X99751568Y-54712948D02*
X99692899Y-54801806D01*
X100349767Y-55082392D02*
X100291098Y-55171251D01*
X100291098Y-55171251D02*
X100084901Y-55290298D01*
X100084901Y-55290298D02*
X99978613Y-55296678D01*
X99978613Y-55296678D02*
X99889755Y-55238009D01*
X99889755Y-55238009D02*
X99842136Y-55155530D01*
X99842136Y-55155530D02*
X99835756Y-55049242D01*
X99835756Y-55049242D02*
X99894425Y-54960384D01*
X99894425Y-54960384D02*
X100100622Y-54841336D01*
X100100622Y-54841336D02*
X100159291Y-54752478D01*
X100785970Y-54885536D02*
X100285970Y-54019511D01*
X100476446Y-54349425D02*
X100535115Y-54260567D01*
X100535115Y-54260567D02*
X100700072Y-54165329D01*
X100700072Y-54165329D02*
X100806360Y-54158949D01*
X100806360Y-54158949D02*
X100871409Y-54176379D01*
X100871409Y-54176379D02*
X100960268Y-54235048D01*
X100960268Y-54235048D02*
X101103125Y-54482484D01*
X101103125Y-54482484D02*
X101109504Y-54588772D01*
X101109504Y-54588772D02*
X101092075Y-54653821D01*
X101092075Y-54653821D02*
X101033406Y-54742679D01*
X101033406Y-54742679D02*
X100868448Y-54837917D01*
X100868448Y-54837917D02*
X100762160Y-54844297D01*
X101693235Y-54361727D02*
X101586946Y-54368107D01*
X101586946Y-54368107D02*
X101498088Y-54309437D01*
X101498088Y-54309437D02*
X101069517Y-53567130D01*
X102329254Y-53939535D02*
X102270585Y-54028393D01*
X102270585Y-54028393D02*
X102105628Y-54123631D01*
X102105628Y-54123631D02*
X101999340Y-54130011D01*
X101999340Y-54130011D02*
X101910482Y-54071342D01*
X101910482Y-54071342D02*
X101720005Y-53741428D01*
X101720005Y-53741428D02*
X101713626Y-53635139D01*
X101713626Y-53635139D02*
X101772295Y-53546281D01*
X101772295Y-53546281D02*
X101937252Y-53451043D01*
X101937252Y-53451043D02*
X102043540Y-53444663D01*
X102043540Y-53444663D02*
X102132398Y-53503332D01*
X102132398Y-53503332D02*
X102180017Y-53585811D01*
X102180017Y-53585811D02*
X101815243Y-53906385D01*
X101226568Y-56218870D02*
X100893235Y-55641520D01*
X100988473Y-55806477D02*
X100982093Y-55700189D01*
X100982093Y-55700189D02*
X100999523Y-55635140D01*
X100999523Y-55635140D02*
X101058192Y-55546282D01*
X101058192Y-55546282D02*
X101140671Y-55498662D01*
X102068785Y-55677630D02*
X102010116Y-55766489D01*
X102010116Y-55766489D02*
X101845158Y-55861727D01*
X101845158Y-55861727D02*
X101738870Y-55868107D01*
X101738870Y-55868107D02*
X101650012Y-55809437D01*
X101650012Y-55809437D02*
X101459536Y-55479523D01*
X101459536Y-55479523D02*
X101453156Y-55373235D01*
X101453156Y-55373235D02*
X101511825Y-55284377D01*
X101511825Y-55284377D02*
X101676782Y-55189138D01*
X101676782Y-55189138D02*
X101783070Y-55182759D01*
X101783070Y-55182759D02*
X101871929Y-55241428D01*
X101871929Y-55241428D02*
X101919548Y-55323906D01*
X101919548Y-55323906D02*
X101554774Y-55644480D01*
X102439938Y-55463345D02*
X102546227Y-55456965D01*
X102546227Y-55456965D02*
X102711184Y-55361727D01*
X102711184Y-55361727D02*
X102769853Y-55272868D01*
X102769853Y-55272868D02*
X102763473Y-55166580D01*
X102763473Y-55166580D02*
X102739664Y-55125341D01*
X102739664Y-55125341D02*
X102650805Y-55066672D01*
X102650805Y-55066672D02*
X102544517Y-55073052D01*
X102544517Y-55073052D02*
X102420799Y-55144480D01*
X102420799Y-55144480D02*
X102314511Y-55150860D01*
X102314511Y-55150860D02*
X102225653Y-55092191D01*
X102225653Y-55092191D02*
X102201843Y-55050952D01*
X102201843Y-55050952D02*
X102195463Y-54944663D01*
X102195463Y-54944663D02*
X102254133Y-54855805D01*
X102254133Y-54855805D02*
X102377850Y-54784376D01*
X102377850Y-54784376D02*
X102484139Y-54777997D01*
X103512161Y-54844297D02*
X103453491Y-54933155D01*
X103453491Y-54933155D02*
X103288534Y-55028393D01*
X103288534Y-55028393D02*
X103182246Y-55034773D01*
X103182246Y-55034773D02*
X103093388Y-54976104D01*
X103093388Y-54976104D02*
X102902912Y-54646190D01*
X102902912Y-54646190D02*
X102896532Y-54539901D01*
X102896532Y-54539901D02*
X102955201Y-54451043D01*
X102955201Y-54451043D02*
X103120158Y-54355805D01*
X103120158Y-54355805D02*
X103226446Y-54349425D01*
X103226446Y-54349425D02*
X103315305Y-54408094D01*
X103315305Y-54408094D02*
X103362924Y-54490573D01*
X103362924Y-54490573D02*
X102998150Y-54811147D01*
X103491312Y-54141519D02*
X103821226Y-53951043D01*
X103448363Y-53781415D02*
X103876935Y-54523723D01*
X103876935Y-54523723D02*
X103965793Y-54582392D01*
X103965793Y-54582392D02*
X104072081Y-54576012D01*
X104072081Y-54576012D02*
X104154560Y-54528393D01*
X104097722Y-56504584D02*
X103597722Y-55638559D01*
X104073913Y-56463345D02*
X104015244Y-56552203D01*
X104015244Y-56552203D02*
X103850286Y-56647441D01*
X103850286Y-56647441D02*
X103743998Y-56653821D01*
X103743998Y-56653821D02*
X103678949Y-56636391D01*
X103678949Y-56636391D02*
X103590091Y-56577722D01*
X103590091Y-56577722D02*
X103447234Y-56330286D01*
X103447234Y-56330286D02*
X103440854Y-56223998D01*
X103440854Y-56223998D02*
X103458284Y-56158949D01*
X103458284Y-56158949D02*
X103516953Y-56070091D01*
X103516953Y-56070091D02*
X103681910Y-55974853D01*
X103681910Y-55974853D02*
X103788198Y-55968473D01*
X104633833Y-56195060D02*
X104527545Y-56201440D01*
X104527545Y-56201440D02*
X104462496Y-56184010D01*
X104462496Y-56184010D02*
X104373638Y-56125341D01*
X104373638Y-56125341D02*
X104230781Y-55877905D01*
X104230781Y-55877905D02*
X104224401Y-55771617D01*
X104224401Y-55771617D02*
X104241831Y-55706568D01*
X104241831Y-55706568D02*
X104300500Y-55617710D01*
X104300500Y-55617710D02*
X104424218Y-55546281D01*
X104424218Y-55546281D02*
X104530506Y-55539902D01*
X104530506Y-55539902D02*
X104595555Y-55557331D01*
X104595555Y-55557331D02*
X104684413Y-55616001D01*
X104684413Y-55616001D02*
X104827270Y-55863436D01*
X104827270Y-55863436D02*
X104833650Y-55969725D01*
X104833650Y-55969725D02*
X104816220Y-56034773D01*
X104816220Y-56034773D02*
X104757551Y-56123632D01*
X104757551Y-56123632D02*
X104633833Y-56195060D01*
X104877850Y-55284377D02*
X105376141Y-55766489D01*
X105376141Y-55766489D02*
X105303003Y-55258858D01*
X105303003Y-55258858D02*
X105706055Y-55576013D01*
X105706055Y-55576013D02*
X105537679Y-54903424D01*
X105867593Y-54712948D02*
X106200927Y-55290298D01*
X105915213Y-54795427D02*
X105932642Y-54730378D01*
X105932642Y-54730378D02*
X105991311Y-54641520D01*
X105991311Y-54641520D02*
X106115029Y-54570091D01*
X106115029Y-54570091D02*
X106221317Y-54563711D01*
X106221317Y-54563711D02*
X106310176Y-54622380D01*
X106310176Y-54622380D02*
X106572081Y-55076013D01*
X106264389Y-55927234D02*
X106597722Y-56504584D01*
X105893235Y-56141520D02*
X106155140Y-56595152D01*
X106155140Y-56595152D02*
X106243998Y-56653821D01*
X106243998Y-56653821D02*
X106350286Y-56647441D01*
X106350286Y-56647441D02*
X106474004Y-56576013D01*
X106474004Y-56576013D02*
X106532673Y-56487154D01*
X106532673Y-56487154D02*
X106550103Y-56422106D01*
X106676782Y-55689139D02*
X107176782Y-56555164D01*
X106700591Y-55730378D02*
X106759261Y-55641520D01*
X106759261Y-55641520D02*
X106924218Y-55546281D01*
X106924218Y-55546281D02*
X107030506Y-55539902D01*
X107030506Y-55539902D02*
X107095555Y-55557331D01*
X107095555Y-55557331D02*
X107184413Y-55616001D01*
X107184413Y-55616001D02*
X107327270Y-55863436D01*
X107327270Y-55863436D02*
X107333650Y-55969725D01*
X107333650Y-55969725D02*
X107316220Y-56034773D01*
X107316220Y-56034773D02*
X107257551Y-56123632D01*
X107257551Y-56123632D02*
X107092594Y-56218870D01*
X107092594Y-56218870D02*
X106986306Y-56225250D01*
X108764389Y-55427234D02*
X109169151Y-56128302D01*
X109169151Y-56128302D02*
X109175530Y-56234590D01*
X109175530Y-56234590D02*
X109158101Y-56299639D01*
X109158101Y-56299639D02*
X109099432Y-56388497D01*
X109099432Y-56388497D02*
X108975714Y-56459926D01*
X108975714Y-56459926D02*
X108869426Y-56466306D01*
X109073913Y-55963345D02*
X109015244Y-56052203D01*
X109015244Y-56052203D02*
X108850286Y-56147441D01*
X108850286Y-56147441D02*
X108743998Y-56153821D01*
X108743998Y-56153821D02*
X108678949Y-56136391D01*
X108678949Y-56136391D02*
X108590091Y-56077722D01*
X108590091Y-56077722D02*
X108447234Y-55830286D01*
X108447234Y-55830286D02*
X108440854Y-55723998D01*
X108440854Y-55723998D02*
X108458284Y-55658949D01*
X108458284Y-55658949D02*
X108516953Y-55570091D01*
X108516953Y-55570091D02*
X108681910Y-55474853D01*
X108681910Y-55474853D02*
X108788198Y-55468473D01*
X109176782Y-55189139D02*
X109510115Y-55766489D01*
X109224401Y-55271617D02*
X109241831Y-55206568D01*
X109241831Y-55206568D02*
X109300500Y-55117710D01*
X109300500Y-55117710D02*
X109424218Y-55046281D01*
X109424218Y-55046281D02*
X109530506Y-55039902D01*
X109530506Y-55039902D02*
X109619364Y-55098571D01*
X109619364Y-55098571D02*
X109881269Y-55552203D01*
X110664816Y-55099822D02*
X110164816Y-54233797D01*
X110641006Y-55058583D02*
X110582337Y-55147441D01*
X110582337Y-55147441D02*
X110417380Y-55242679D01*
X110417380Y-55242679D02*
X110311092Y-55249059D01*
X110311092Y-55249059D02*
X110246043Y-55231629D01*
X110246043Y-55231629D02*
X110157185Y-55172960D01*
X110157185Y-55172960D02*
X110014328Y-54925524D01*
X110014328Y-54925524D02*
X110007948Y-54819236D01*
X110007948Y-54819236D02*
X110025378Y-54754187D01*
X110025378Y-54754187D02*
X110084047Y-54665329D01*
X110084047Y-54665329D02*
X110249004Y-54570091D01*
X110249004Y-54570091D02*
X110355292Y-54563711D01*
X109310756Y-79189139D02*
X109850286Y-79647441D01*
X109850286Y-79647441D02*
X109723150Y-78951043D01*
X110757551Y-79123632D02*
X110257551Y-78257606D01*
X110733742Y-79082392D02*
X110675073Y-79171251D01*
X110675073Y-79171251D02*
X110510115Y-79266489D01*
X110510115Y-79266489D02*
X110403827Y-79272869D01*
X110403827Y-79272869D02*
X110338778Y-79255439D01*
X110338778Y-79255439D02*
X110249920Y-79196770D01*
X110249920Y-79196770D02*
X110107063Y-78949334D01*
X110107063Y-78949334D02*
X110100683Y-78843046D01*
X110100683Y-78843046D02*
X110118113Y-78777997D01*
X110118113Y-78777997D02*
X110176782Y-78689139D01*
X110176782Y-78689139D02*
X110341739Y-78593900D01*
X110341739Y-78593900D02*
X110448027Y-78587521D01*
X111541098Y-78671251D02*
X111041098Y-77805225D01*
X111517289Y-78630011D02*
X111458619Y-78718870D01*
X111458619Y-78718870D02*
X111293662Y-78814108D01*
X111293662Y-78814108D02*
X111187374Y-78820488D01*
X111187374Y-78820488D02*
X111122325Y-78803058D01*
X111122325Y-78803058D02*
X111033467Y-78744389D01*
X111033467Y-78744389D02*
X110890610Y-78496953D01*
X110890610Y-78496953D02*
X110884230Y-78390665D01*
X110884230Y-78390665D02*
X110901660Y-78325616D01*
X110901660Y-78325616D02*
X110960329Y-78236758D01*
X110960329Y-78236758D02*
X111125286Y-78141519D01*
X111125286Y-78141519D02*
X111231574Y-78135140D01*
X112014389Y-78927234D02*
X112419151Y-79628302D01*
X112419151Y-79628302D02*
X112425530Y-79734590D01*
X112425530Y-79734590D02*
X112408101Y-79799639D01*
X112408101Y-79799639D02*
X112349432Y-79888497D01*
X112349432Y-79888497D02*
X112225714Y-79959926D01*
X112225714Y-79959926D02*
X112119426Y-79966306D01*
X112323913Y-79463345D02*
X112265244Y-79552203D01*
X112265244Y-79552203D02*
X112100286Y-79647441D01*
X112100286Y-79647441D02*
X111993998Y-79653821D01*
X111993998Y-79653821D02*
X111928949Y-79636391D01*
X111928949Y-79636391D02*
X111840091Y-79577722D01*
X111840091Y-79577722D02*
X111697234Y-79330286D01*
X111697234Y-79330286D02*
X111690854Y-79223998D01*
X111690854Y-79223998D02*
X111708284Y-79158949D01*
X111708284Y-79158949D02*
X111766953Y-79070091D01*
X111766953Y-79070091D02*
X111931910Y-78974853D01*
X111931910Y-78974853D02*
X112038198Y-78968473D01*
X112426782Y-78689139D02*
X112760115Y-79266489D01*
X112474401Y-78771617D02*
X112491831Y-78706568D01*
X112491831Y-78706568D02*
X112550500Y-78617710D01*
X112550500Y-78617710D02*
X112674218Y-78546281D01*
X112674218Y-78546281D02*
X112780506Y-78539902D01*
X112780506Y-78539902D02*
X112869364Y-78598571D01*
X112869364Y-78598571D02*
X113131269Y-79052203D01*
X113914816Y-78599822D02*
X113414816Y-77733797D01*
X113891006Y-78558583D02*
X113832337Y-78647441D01*
X113832337Y-78647441D02*
X113667380Y-78742679D01*
X113667380Y-78742679D02*
X113561092Y-78749059D01*
X113561092Y-78749059D02*
X113496043Y-78731629D01*
X113496043Y-78731629D02*
X113407185Y-78672960D01*
X113407185Y-78672960D02*
X113264328Y-78425524D01*
X113264328Y-78425524D02*
X113257948Y-78319236D01*
X113257948Y-78319236D02*
X113275378Y-78254187D01*
X113275378Y-78254187D02*
X113334047Y-78165329D01*
X113334047Y-78165329D02*
X113499004Y-78070091D01*
X113499004Y-78070091D02*
X113605292Y-78063711D01*
X114476568Y-79718870D02*
X114143235Y-79141520D01*
X114238473Y-79306477D02*
X114232093Y-79200189D01*
X114232093Y-79200189D02*
X114249523Y-79135140D01*
X114249523Y-79135140D02*
X114308192Y-79046282D01*
X114308192Y-79046282D02*
X114390671Y-78998662D01*
X115050500Y-78617710D02*
X115455262Y-79318778D01*
X115455262Y-79318778D02*
X115461642Y-79425066D01*
X115461642Y-79425066D02*
X115444212Y-79490115D01*
X115444212Y-79490115D02*
X115385543Y-79578973D01*
X115385543Y-79578973D02*
X115261825Y-79650402D01*
X115261825Y-79650402D02*
X115155537Y-79656782D01*
X115360024Y-79153821D02*
X115301355Y-79242679D01*
X115301355Y-79242679D02*
X115136398Y-79337917D01*
X115136398Y-79337917D02*
X115030109Y-79344297D01*
X115030109Y-79344297D02*
X114965061Y-79326867D01*
X114965061Y-79326867D02*
X114876202Y-79268198D01*
X114876202Y-79268198D02*
X114733345Y-79020762D01*
X114733345Y-79020762D02*
X114726965Y-78914474D01*
X114726965Y-78914474D02*
X114744395Y-78849425D01*
X114744395Y-78849425D02*
X114803064Y-78760567D01*
X114803064Y-78760567D02*
X114968021Y-78665329D01*
X114968021Y-78665329D02*
X115074310Y-78658949D01*
X115796227Y-78956965D02*
X115296227Y-78090939D01*
X115486703Y-78420854D02*
X115545372Y-78331996D01*
X115545372Y-78331996D02*
X115710329Y-78236757D01*
X115710329Y-78236757D02*
X115816617Y-78230378D01*
X115816617Y-78230378D02*
X115881666Y-78247807D01*
X115881666Y-78247807D02*
X115970524Y-78306477D01*
X115970524Y-78306477D02*
X116113382Y-78553912D01*
X116113382Y-78553912D02*
X116119761Y-78660201D01*
X116119761Y-78660201D02*
X116102331Y-78725249D01*
X116102331Y-78725249D02*
X116043662Y-78814108D01*
X116043662Y-78814108D02*
X115878705Y-78909346D01*
X115878705Y-78909346D02*
X115772417Y-78915726D01*
X115310756Y-79939139D02*
X115850286Y-80397441D01*
X115850286Y-80397441D02*
X115723150Y-79701043D01*
X116321349Y-80070488D02*
X116427637Y-80064108D01*
X116427637Y-80064108D02*
X116592594Y-79968870D01*
X116592594Y-79968870D02*
X116651263Y-79880011D01*
X116651263Y-79880011D02*
X116644883Y-79773723D01*
X116644883Y-79773723D02*
X116621074Y-79732484D01*
X116621074Y-79732484D02*
X116532215Y-79673815D01*
X116532215Y-79673815D02*
X116425927Y-79680195D01*
X116425927Y-79680195D02*
X116302209Y-79751623D01*
X116302209Y-79751623D02*
X116195921Y-79758003D01*
X116195921Y-79758003D02*
X116107063Y-79699334D01*
X116107063Y-79699334D02*
X116083253Y-79658095D01*
X116083253Y-79658095D02*
X116076874Y-79551806D01*
X116076874Y-79551806D02*
X116135543Y-79462948D01*
X116135543Y-79462948D02*
X116259261Y-79391519D01*
X116259261Y-79391519D02*
X116365549Y-79385140D01*
X116671654Y-79153424D02*
X117211184Y-79611727D01*
X117084047Y-78915329D02*
X117211184Y-79611727D01*
X117211184Y-79611727D02*
X117247753Y-79865542D01*
X117247753Y-79865542D02*
X117230323Y-79930591D01*
X117230323Y-79930591D02*
X117171654Y-80019450D01*
X117413962Y-78724853D02*
X117747295Y-79302203D01*
X117461581Y-78807331D02*
X117479010Y-78742282D01*
X117479010Y-78742282D02*
X117537680Y-78653424D01*
X117537680Y-78653424D02*
X117661397Y-78581995D01*
X117661397Y-78581995D02*
X117767686Y-78575616D01*
X117767686Y-78575616D02*
X117856544Y-78634285D01*
X117856544Y-78634285D02*
X118118449Y-79087917D01*
X118878186Y-78594297D02*
X118819517Y-78683155D01*
X118819517Y-78683155D02*
X118654560Y-78778393D01*
X118654560Y-78778393D02*
X118548272Y-78784773D01*
X118548272Y-78784773D02*
X118483223Y-78767343D01*
X118483223Y-78767343D02*
X118394364Y-78708674D01*
X118394364Y-78708674D02*
X118251507Y-78461238D01*
X118251507Y-78461238D02*
X118245128Y-78354950D01*
X118245128Y-78354950D02*
X118262557Y-78289901D01*
X118262557Y-78289901D02*
X118321226Y-78201043D01*
X118321226Y-78201043D02*
X118486184Y-78105805D01*
X118486184Y-78105805D02*
X118592472Y-78099425D01*
X118476568Y-80468870D02*
X117976568Y-79602844D01*
X118847722Y-80254584D02*
X118585817Y-79800952D01*
X118585817Y-79800952D02*
X118496959Y-79742283D01*
X118496959Y-79742283D02*
X118390671Y-79748662D01*
X118390671Y-79748662D02*
X118266953Y-79820091D01*
X118266953Y-79820091D02*
X118208284Y-79908949D01*
X118208284Y-79908949D02*
X118190854Y-79973998D01*
X119195066Y-79999059D02*
X119301355Y-79992679D01*
X119301355Y-79992679D02*
X119466312Y-79897441D01*
X119466312Y-79897441D02*
X119524981Y-79808583D01*
X119524981Y-79808583D02*
X119518601Y-79702295D01*
X119518601Y-79702295D02*
X119494792Y-79661055D01*
X119494792Y-79661055D02*
X119405933Y-79602386D01*
X119405933Y-79602386D02*
X119299645Y-79608766D01*
X119299645Y-79608766D02*
X119175927Y-79680195D01*
X119175927Y-79680195D02*
X119069639Y-79686574D01*
X119069639Y-79686574D02*
X118980781Y-79627905D01*
X118980781Y-79627905D02*
X118956971Y-79586666D01*
X118956971Y-79586666D02*
X118950591Y-79480378D01*
X118950591Y-79480378D02*
X119009261Y-79391520D01*
X119009261Y-79391520D02*
X119132978Y-79320091D01*
X119132978Y-79320091D02*
X119239267Y-79313711D01*
X119545372Y-79081996D02*
X120084902Y-79540298D01*
X119957765Y-78843900D02*
X120084902Y-79540298D01*
X120084902Y-79540298D02*
X120121471Y-79794114D01*
X120121471Y-79794114D02*
X120104041Y-79859163D01*
X120104041Y-79859163D02*
X120045372Y-79948021D01*
X120287679Y-78653424D02*
X120621013Y-79230774D01*
X120335298Y-78735903D02*
X120352728Y-78670854D01*
X120352728Y-78670854D02*
X120411397Y-78581996D01*
X120411397Y-78581996D02*
X120535115Y-78510567D01*
X120535115Y-78510567D02*
X120641403Y-78504187D01*
X120641403Y-78504187D02*
X120730262Y-78562856D01*
X120730262Y-78562856D02*
X120992166Y-79016489D01*
X121751904Y-78522868D02*
X121693235Y-78611727D01*
X121693235Y-78611727D02*
X121528278Y-78706965D01*
X121528278Y-78706965D02*
X121421989Y-78713345D01*
X121421989Y-78713345D02*
X121356941Y-78695915D01*
X121356941Y-78695915D02*
X121268082Y-78637246D01*
X121268082Y-78637246D02*
X121125225Y-78389810D01*
X121125225Y-78389810D02*
X121118845Y-78283522D01*
X121118845Y-78283522D02*
X121136275Y-78218473D01*
X121136275Y-78218473D02*
X121194944Y-78129615D01*
X121194944Y-78129615D02*
X121359901Y-78034376D01*
X121359901Y-78034376D02*
X121466190Y-78027997D01*
X118560756Y-55689139D02*
X119100286Y-56147441D01*
X119100286Y-56147441D02*
X118973150Y-55451043D01*
X120007551Y-55623632D02*
X119507551Y-54757606D01*
X119983742Y-55582392D02*
X119925073Y-55671251D01*
X119925073Y-55671251D02*
X119760115Y-55766489D01*
X119760115Y-55766489D02*
X119653827Y-55772869D01*
X119653827Y-55772869D02*
X119588778Y-55755439D01*
X119588778Y-55755439D02*
X119499920Y-55696770D01*
X119499920Y-55696770D02*
X119357063Y-55449334D01*
X119357063Y-55449334D02*
X119350683Y-55343046D01*
X119350683Y-55343046D02*
X119368113Y-55277997D01*
X119368113Y-55277997D02*
X119426782Y-55189139D01*
X119426782Y-55189139D02*
X119591739Y-55093900D01*
X119591739Y-55093900D02*
X119698027Y-55087521D01*
X120791098Y-55171251D02*
X120291098Y-54305225D01*
X120767289Y-55130011D02*
X120708619Y-55218870D01*
X120708619Y-55218870D02*
X120543662Y-55314108D01*
X120543662Y-55314108D02*
X120437374Y-55320488D01*
X120437374Y-55320488D02*
X120372325Y-55303058D01*
X120372325Y-55303058D02*
X120283467Y-55244389D01*
X120283467Y-55244389D02*
X120140610Y-54996953D01*
X120140610Y-54996953D02*
X120134230Y-54890665D01*
X120134230Y-54890665D02*
X120151660Y-54825616D01*
X120151660Y-54825616D02*
X120210329Y-54736758D01*
X120210329Y-54736758D02*
X120375286Y-54641519D01*
X120375286Y-54641519D02*
X120481574Y-54635140D01*
X121143235Y-79891520D02*
X121643235Y-80757545D01*
X121167045Y-79932759D02*
X121225714Y-79843901D01*
X121225714Y-79843901D02*
X121390671Y-79748662D01*
X121390671Y-79748662D02*
X121496959Y-79742283D01*
X121496959Y-79742283D02*
X121562008Y-79759712D01*
X121562008Y-79759712D02*
X121650866Y-79818382D01*
X121650866Y-79818382D02*
X121793723Y-80065817D01*
X121793723Y-80065817D02*
X121800103Y-80172106D01*
X121800103Y-80172106D02*
X121782673Y-80237154D01*
X121782673Y-80237154D02*
X121724004Y-80326013D01*
X121724004Y-80326013D02*
X121559047Y-80421251D01*
X121559047Y-80421251D02*
X121452759Y-80427631D01*
X122101538Y-80218015D02*
X122761367Y-79837063D01*
X122462893Y-79129615D02*
X122792808Y-78939138D01*
X122419944Y-78769511D02*
X122848516Y-79511818D01*
X122848516Y-79511818D02*
X122937374Y-79570488D01*
X122937374Y-79570488D02*
X123043662Y-79564108D01*
X123043662Y-79564108D02*
X123126141Y-79516489D01*
X123414816Y-79349822D02*
X123081483Y-78772472D01*
X122914816Y-78483796D02*
X122897387Y-78548845D01*
X122897387Y-78548845D02*
X122962435Y-78566275D01*
X122962435Y-78566275D02*
X122979865Y-78501226D01*
X122979865Y-78501226D02*
X122914816Y-78483796D01*
X122914816Y-78483796D02*
X122962435Y-78566275D01*
X124174553Y-78856202D02*
X124115884Y-78945060D01*
X124115884Y-78945060D02*
X123950927Y-79040298D01*
X123950927Y-79040298D02*
X123844639Y-79046678D01*
X123844639Y-79046678D02*
X123779590Y-79029248D01*
X123779590Y-79029248D02*
X123690732Y-78970579D01*
X123690732Y-78970579D02*
X123547874Y-78723143D01*
X123547874Y-78723143D02*
X123541495Y-78616855D01*
X123541495Y-78616855D02*
X123558925Y-78551806D01*
X123558925Y-78551806D02*
X123617594Y-78462948D01*
X123617594Y-78462948D02*
X123782551Y-78367710D01*
X123782551Y-78367710D02*
X123888839Y-78361330D01*
X124569517Y-78683155D02*
X124069517Y-77817130D01*
X124461519Y-78305622D02*
X124899431Y-78492679D01*
X124566098Y-77915329D02*
X124426659Y-78435720D01*
X125514389Y-79177234D02*
X125919151Y-79878302D01*
X125919151Y-79878302D02*
X125925530Y-79984590D01*
X125925530Y-79984590D02*
X125908101Y-80049639D01*
X125908101Y-80049639D02*
X125849432Y-80138497D01*
X125849432Y-80138497D02*
X125725714Y-80209926D01*
X125725714Y-80209926D02*
X125619426Y-80216306D01*
X125823913Y-79713345D02*
X125765244Y-79802203D01*
X125765244Y-79802203D02*
X125600286Y-79897441D01*
X125600286Y-79897441D02*
X125493998Y-79903821D01*
X125493998Y-79903821D02*
X125428949Y-79886391D01*
X125428949Y-79886391D02*
X125340091Y-79827722D01*
X125340091Y-79827722D02*
X125197234Y-79580286D01*
X125197234Y-79580286D02*
X125190854Y-79473998D01*
X125190854Y-79473998D02*
X125208284Y-79408949D01*
X125208284Y-79408949D02*
X125266953Y-79320091D01*
X125266953Y-79320091D02*
X125431910Y-79224853D01*
X125431910Y-79224853D02*
X125538198Y-79218473D01*
X125926782Y-78939139D02*
X126260115Y-79516489D01*
X125974401Y-79021617D02*
X125991831Y-78956568D01*
X125991831Y-78956568D02*
X126050500Y-78867710D01*
X126050500Y-78867710D02*
X126174218Y-78796281D01*
X126174218Y-78796281D02*
X126280506Y-78789902D01*
X126280506Y-78789902D02*
X126369364Y-78848571D01*
X126369364Y-78848571D02*
X126631269Y-79302203D01*
X127414816Y-78849822D02*
X126914816Y-77983797D01*
X127391006Y-78808583D02*
X127332337Y-78897441D01*
X127332337Y-78897441D02*
X127167380Y-78992679D01*
X127167380Y-78992679D02*
X127061092Y-78999059D01*
X127061092Y-78999059D02*
X126996043Y-78981629D01*
X126996043Y-78981629D02*
X126907185Y-78922960D01*
X126907185Y-78922960D02*
X126764328Y-78675524D01*
X126764328Y-78675524D02*
X126757948Y-78569236D01*
X126757948Y-78569236D02*
X126775378Y-78504187D01*
X126775378Y-78504187D02*
X126834047Y-78415329D01*
X126834047Y-78415329D02*
X126999004Y-78320091D01*
X126999004Y-78320091D02*
X127105292Y-78313711D01*
X110630180Y-86193922D02*
X109630180Y-86527255D01*
X109630180Y-86527255D02*
X110630180Y-86860588D01*
X109630180Y-87193922D02*
X110630180Y-87193922D01*
X110630180Y-87193922D02*
X110630180Y-87432017D01*
X110630180Y-87432017D02*
X110582561Y-87574874D01*
X110582561Y-87574874D02*
X110487323Y-87670112D01*
X110487323Y-87670112D02*
X110392085Y-87717731D01*
X110392085Y-87717731D02*
X110201609Y-87765350D01*
X110201609Y-87765350D02*
X110058752Y-87765350D01*
X110058752Y-87765350D02*
X109868276Y-87717731D01*
X109868276Y-87717731D02*
X109773038Y-87670112D01*
X109773038Y-87670112D02*
X109677800Y-87574874D01*
X109677800Y-87574874D02*
X109630180Y-87432017D01*
X109630180Y-87432017D02*
X109630180Y-87193922D01*
X109630180Y-88193922D02*
X110630180Y-88193922D01*
X110630180Y-88193922D02*
X110630180Y-88432017D01*
X110630180Y-88432017D02*
X110582561Y-88574874D01*
X110582561Y-88574874D02*
X110487323Y-88670112D01*
X110487323Y-88670112D02*
X110392085Y-88717731D01*
X110392085Y-88717731D02*
X110201609Y-88765350D01*
X110201609Y-88765350D02*
X110058752Y-88765350D01*
X110058752Y-88765350D02*
X109868276Y-88717731D01*
X109868276Y-88717731D02*
X109773038Y-88670112D01*
X109773038Y-88670112D02*
X109677800Y-88574874D01*
X109677800Y-88574874D02*
X109630180Y-88432017D01*
X109630180Y-88432017D02*
X109630180Y-88193922D01*
X113082561Y-86860588D02*
X113130180Y-86765350D01*
X113130180Y-86765350D02*
X113130180Y-86622493D01*
X113130180Y-86622493D02*
X113082561Y-86479636D01*
X113082561Y-86479636D02*
X112987323Y-86384398D01*
X112987323Y-86384398D02*
X112892085Y-86336779D01*
X112892085Y-86336779D02*
X112701609Y-86289160D01*
X112701609Y-86289160D02*
X112558752Y-86289160D01*
X112558752Y-86289160D02*
X112368276Y-86336779D01*
X112368276Y-86336779D02*
X112273038Y-86384398D01*
X112273038Y-86384398D02*
X112177800Y-86479636D01*
X112177800Y-86479636D02*
X112130180Y-86622493D01*
X112130180Y-86622493D02*
X112130180Y-86717731D01*
X112130180Y-86717731D02*
X112177800Y-86860588D01*
X112177800Y-86860588D02*
X112225419Y-86908207D01*
X112225419Y-86908207D02*
X112558752Y-86908207D01*
X112558752Y-86908207D02*
X112558752Y-86717731D01*
X112130180Y-87336779D02*
X113130180Y-87336779D01*
X113130180Y-87336779D02*
X112130180Y-87908207D01*
X112130180Y-87908207D02*
X113130180Y-87908207D01*
X112130180Y-88384398D02*
X113130180Y-88384398D01*
X113130180Y-88384398D02*
X113130180Y-88622493D01*
X113130180Y-88622493D02*
X113082561Y-88765350D01*
X113082561Y-88765350D02*
X112987323Y-88860588D01*
X112987323Y-88860588D02*
X112892085Y-88908207D01*
X112892085Y-88908207D02*
X112701609Y-88955826D01*
X112701609Y-88955826D02*
X112558752Y-88955826D01*
X112558752Y-88955826D02*
X112368276Y-88908207D01*
X112368276Y-88908207D02*
X112273038Y-88860588D01*
X112273038Y-88860588D02*
X112177800Y-88765350D01*
X112177800Y-88765350D02*
X112130180Y-88622493D01*
X112130180Y-88622493D02*
X112130180Y-88384398D01*
X114677800Y-86289160D02*
X114630180Y-86432017D01*
X114630180Y-86432017D02*
X114630180Y-86670112D01*
X114630180Y-86670112D02*
X114677800Y-86765350D01*
X114677800Y-86765350D02*
X114725419Y-86812969D01*
X114725419Y-86812969D02*
X114820657Y-86860588D01*
X114820657Y-86860588D02*
X114915895Y-86860588D01*
X114915895Y-86860588D02*
X115011133Y-86812969D01*
X115011133Y-86812969D02*
X115058752Y-86765350D01*
X115058752Y-86765350D02*
X115106371Y-86670112D01*
X115106371Y-86670112D02*
X115153990Y-86479636D01*
X115153990Y-86479636D02*
X115201609Y-86384398D01*
X115201609Y-86384398D02*
X115249228Y-86336779D01*
X115249228Y-86336779D02*
X115344466Y-86289160D01*
X115344466Y-86289160D02*
X115439704Y-86289160D01*
X115439704Y-86289160D02*
X115534942Y-86336779D01*
X115534942Y-86336779D02*
X115582561Y-86384398D01*
X115582561Y-86384398D02*
X115630180Y-86479636D01*
X115630180Y-86479636D02*
X115630180Y-86717731D01*
X115630180Y-86717731D02*
X115582561Y-86860588D01*
X114725419Y-87860588D02*
X114677800Y-87812969D01*
X114677800Y-87812969D02*
X114630180Y-87670112D01*
X114630180Y-87670112D02*
X114630180Y-87574874D01*
X114630180Y-87574874D02*
X114677800Y-87432017D01*
X114677800Y-87432017D02*
X114773038Y-87336779D01*
X114773038Y-87336779D02*
X114868276Y-87289160D01*
X114868276Y-87289160D02*
X115058752Y-87241541D01*
X115058752Y-87241541D02*
X115201609Y-87241541D01*
X115201609Y-87241541D02*
X115392085Y-87289160D01*
X115392085Y-87289160D02*
X115487323Y-87336779D01*
X115487323Y-87336779D02*
X115582561Y-87432017D01*
X115582561Y-87432017D02*
X115630180Y-87574874D01*
X115630180Y-87574874D02*
X115630180Y-87670112D01*
X115630180Y-87670112D02*
X115582561Y-87812969D01*
X115582561Y-87812969D02*
X115534942Y-87860588D01*
X114630180Y-88765350D02*
X114630180Y-88289160D01*
X114630180Y-88289160D02*
X115630180Y-88289160D01*
X117217800Y-86289160D02*
X117170180Y-86432017D01*
X117170180Y-86432017D02*
X117170180Y-86670112D01*
X117170180Y-86670112D02*
X117217800Y-86765350D01*
X117217800Y-86765350D02*
X117265419Y-86812969D01*
X117265419Y-86812969D02*
X117360657Y-86860588D01*
X117360657Y-86860588D02*
X117455895Y-86860588D01*
X117455895Y-86860588D02*
X117551133Y-86812969D01*
X117551133Y-86812969D02*
X117598752Y-86765350D01*
X117598752Y-86765350D02*
X117646371Y-86670112D01*
X117646371Y-86670112D02*
X117693990Y-86479636D01*
X117693990Y-86479636D02*
X117741609Y-86384398D01*
X117741609Y-86384398D02*
X117789228Y-86336779D01*
X117789228Y-86336779D02*
X117884466Y-86289160D01*
X117884466Y-86289160D02*
X117979704Y-86289160D01*
X117979704Y-86289160D02*
X118074942Y-86336779D01*
X118074942Y-86336779D02*
X118122561Y-86384398D01*
X118122561Y-86384398D02*
X118170180Y-86479636D01*
X118170180Y-86479636D02*
X118170180Y-86717731D01*
X118170180Y-86717731D02*
X118122561Y-86860588D01*
X117170180Y-87289160D02*
X118170180Y-87289160D01*
X118170180Y-87289160D02*
X118170180Y-87527255D01*
X118170180Y-87527255D02*
X118122561Y-87670112D01*
X118122561Y-87670112D02*
X118027323Y-87765350D01*
X118027323Y-87765350D02*
X117932085Y-87812969D01*
X117932085Y-87812969D02*
X117741609Y-87860588D01*
X117741609Y-87860588D02*
X117598752Y-87860588D01*
X117598752Y-87860588D02*
X117408276Y-87812969D01*
X117408276Y-87812969D02*
X117313038Y-87765350D01*
X117313038Y-87765350D02*
X117217800Y-87670112D01*
X117217800Y-87670112D02*
X117170180Y-87527255D01*
X117170180Y-87527255D02*
X117170180Y-87289160D01*
X117455895Y-88241541D02*
X117455895Y-88717731D01*
X117170180Y-88146303D02*
X118170180Y-88479636D01*
X118170180Y-88479636D02*
X117170180Y-88812969D01*
X93112969Y-142302485D02*
X92998684Y-142245342D01*
X92998684Y-142245342D02*
X92827255Y-142245342D01*
X92827255Y-142245342D02*
X92655826Y-142302485D01*
X92655826Y-142302485D02*
X92541541Y-142416771D01*
X92541541Y-142416771D02*
X92484398Y-142531057D01*
X92484398Y-142531057D02*
X92427255Y-142759628D01*
X92427255Y-142759628D02*
X92427255Y-142931057D01*
X92427255Y-142931057D02*
X92484398Y-143159628D01*
X92484398Y-143159628D02*
X92541541Y-143273914D01*
X92541541Y-143273914D02*
X92655826Y-143388200D01*
X92655826Y-143388200D02*
X92827255Y-143445342D01*
X92827255Y-143445342D02*
X92941541Y-143445342D01*
X92941541Y-143445342D02*
X93112969Y-143388200D01*
X93112969Y-143388200D02*
X93170112Y-143331057D01*
X93170112Y-143331057D02*
X93170112Y-142931057D01*
X93170112Y-142931057D02*
X92941541Y-142931057D01*
X94198684Y-143445342D02*
X94198684Y-142816771D01*
X94198684Y-142816771D02*
X94141541Y-142702485D01*
X94141541Y-142702485D02*
X94027255Y-142645342D01*
X94027255Y-142645342D02*
X93798684Y-142645342D01*
X93798684Y-142645342D02*
X93684398Y-142702485D01*
X94198684Y-143388200D02*
X94084398Y-143445342D01*
X94084398Y-143445342D02*
X93798684Y-143445342D01*
X93798684Y-143445342D02*
X93684398Y-143388200D01*
X93684398Y-143388200D02*
X93627255Y-143273914D01*
X93627255Y-143273914D02*
X93627255Y-143159628D01*
X93627255Y-143159628D02*
X93684398Y-143045342D01*
X93684398Y-143045342D02*
X93798684Y-142988200D01*
X93798684Y-142988200D02*
X94084398Y-142988200D01*
X94084398Y-142988200D02*
X94198684Y-142931057D01*
X94770112Y-143445342D02*
X94770112Y-142645342D01*
X94770112Y-142759628D02*
X94827255Y-142702485D01*
X94827255Y-142702485D02*
X94941540Y-142645342D01*
X94941540Y-142645342D02*
X95112969Y-142645342D01*
X95112969Y-142645342D02*
X95227255Y-142702485D01*
X95227255Y-142702485D02*
X95284398Y-142816771D01*
X95284398Y-142816771D02*
X95284398Y-143445342D01*
X95284398Y-142816771D02*
X95341540Y-142702485D01*
X95341540Y-142702485D02*
X95455826Y-142645342D01*
X95455826Y-142645342D02*
X95627255Y-142645342D01*
X95627255Y-142645342D02*
X95741540Y-142702485D01*
X95741540Y-142702485D02*
X95798683Y-142816771D01*
X95798683Y-142816771D02*
X95798683Y-143445342D01*
X96827255Y-143388200D02*
X96712969Y-143445342D01*
X96712969Y-143445342D02*
X96484398Y-143445342D01*
X96484398Y-143445342D02*
X96370112Y-143388200D01*
X96370112Y-143388200D02*
X96312969Y-143273914D01*
X96312969Y-143273914D02*
X96312969Y-142816771D01*
X96312969Y-142816771D02*
X96370112Y-142702485D01*
X96370112Y-142702485D02*
X96484398Y-142645342D01*
X96484398Y-142645342D02*
X96712969Y-142645342D01*
X96712969Y-142645342D02*
X96827255Y-142702485D01*
X96827255Y-142702485D02*
X96884398Y-142816771D01*
X96884398Y-142816771D02*
X96884398Y-142931057D01*
X96884398Y-142931057D02*
X96312969Y-143045342D01*
X98998683Y-143331057D02*
X98941540Y-143388200D01*
X98941540Y-143388200D02*
X98770112Y-143445342D01*
X98770112Y-143445342D02*
X98655826Y-143445342D01*
X98655826Y-143445342D02*
X98484397Y-143388200D01*
X98484397Y-143388200D02*
X98370112Y-143273914D01*
X98370112Y-143273914D02*
X98312969Y-143159628D01*
X98312969Y-143159628D02*
X98255826Y-142931057D01*
X98255826Y-142931057D02*
X98255826Y-142759628D01*
X98255826Y-142759628D02*
X98312969Y-142531057D01*
X98312969Y-142531057D02*
X98370112Y-142416771D01*
X98370112Y-142416771D02*
X98484397Y-142302485D01*
X98484397Y-142302485D02*
X98655826Y-142245342D01*
X98655826Y-142245342D02*
X98770112Y-142245342D01*
X98770112Y-142245342D02*
X98941540Y-142302485D01*
X98941540Y-142302485D02*
X98998683Y-142359628D01*
X99512969Y-143445342D02*
X99512969Y-142245342D01*
X100027255Y-143445342D02*
X100027255Y-142816771D01*
X100027255Y-142816771D02*
X99970112Y-142702485D01*
X99970112Y-142702485D02*
X99855826Y-142645342D01*
X99855826Y-142645342D02*
X99684397Y-142645342D01*
X99684397Y-142645342D02*
X99570112Y-142702485D01*
X99570112Y-142702485D02*
X99512969Y-142759628D01*
X100598683Y-143445342D02*
X100598683Y-142645342D01*
X100598683Y-142245342D02*
X100541540Y-142302485D01*
X100541540Y-142302485D02*
X100598683Y-142359628D01*
X100598683Y-142359628D02*
X100655826Y-142302485D01*
X100655826Y-142302485D02*
X100598683Y-142245342D01*
X100598683Y-142245342D02*
X100598683Y-142359628D01*
X101170112Y-142645342D02*
X101170112Y-143845342D01*
X101170112Y-142702485D02*
X101284398Y-142645342D01*
X101284398Y-142645342D02*
X101512969Y-142645342D01*
X101512969Y-142645342D02*
X101627255Y-142702485D01*
X101627255Y-142702485D02*
X101684398Y-142759628D01*
X101684398Y-142759628D02*
X101741540Y-142873914D01*
X101741540Y-142873914D02*
X101741540Y-143216771D01*
X101741540Y-143216771D02*
X101684398Y-143331057D01*
X101684398Y-143331057D02*
X101627255Y-143388200D01*
X101627255Y-143388200D02*
X101512969Y-143445342D01*
X101512969Y-143445342D02*
X101284398Y-143445342D01*
X101284398Y-143445342D02*
X101170112Y-143388200D01*
X102998683Y-142245342D02*
X103684398Y-142245342D01*
X103341540Y-143445342D02*
X103341540Y-142245342D01*
X104541541Y-143388200D02*
X104427255Y-143445342D01*
X104427255Y-143445342D02*
X104198684Y-143445342D01*
X104198684Y-143445342D02*
X104084398Y-143388200D01*
X104084398Y-143388200D02*
X104027255Y-143273914D01*
X104027255Y-143273914D02*
X104027255Y-142816771D01*
X104027255Y-142816771D02*
X104084398Y-142702485D01*
X104084398Y-142702485D02*
X104198684Y-142645342D01*
X104198684Y-142645342D02*
X104427255Y-142645342D01*
X104427255Y-142645342D02*
X104541541Y-142702485D01*
X104541541Y-142702485D02*
X104598684Y-142816771D01*
X104598684Y-142816771D02*
X104598684Y-142931057D01*
X104598684Y-142931057D02*
X104027255Y-143045342D01*
X105055826Y-143388200D02*
X105170112Y-143445342D01*
X105170112Y-143445342D02*
X105398683Y-143445342D01*
X105398683Y-143445342D02*
X105512969Y-143388200D01*
X105512969Y-143388200D02*
X105570112Y-143273914D01*
X105570112Y-143273914D02*
X105570112Y-143216771D01*
X105570112Y-143216771D02*
X105512969Y-143102485D01*
X105512969Y-143102485D02*
X105398683Y-143045342D01*
X105398683Y-143045342D02*
X105227255Y-143045342D01*
X105227255Y-143045342D02*
X105112969Y-142988200D01*
X105112969Y-142988200D02*
X105055826Y-142873914D01*
X105055826Y-142873914D02*
X105055826Y-142816771D01*
X105055826Y-142816771D02*
X105112969Y-142702485D01*
X105112969Y-142702485D02*
X105227255Y-142645342D01*
X105227255Y-142645342D02*
X105398683Y-142645342D01*
X105398683Y-142645342D02*
X105512969Y-142702485D01*
X105912969Y-142645342D02*
X106370112Y-142645342D01*
X106084398Y-142245342D02*
X106084398Y-143273914D01*
X106084398Y-143273914D02*
X106141541Y-143388200D01*
X106141541Y-143388200D02*
X106255826Y-143445342D01*
X106255826Y-143445342D02*
X106370112Y-143445342D01*
X108027255Y-142245342D02*
X108027255Y-143102485D01*
X108027255Y-143102485D02*
X107970112Y-143273914D01*
X107970112Y-143273914D02*
X107855826Y-143388200D01*
X107855826Y-143388200D02*
X107684398Y-143445342D01*
X107684398Y-143445342D02*
X107570112Y-143445342D01*
X108598684Y-143445342D02*
X108598684Y-142645342D01*
X108598684Y-142245342D02*
X108541541Y-142302485D01*
X108541541Y-142302485D02*
X108598684Y-142359628D01*
X108598684Y-142359628D02*
X108655827Y-142302485D01*
X108655827Y-142302485D02*
X108598684Y-142245342D01*
X108598684Y-142245342D02*
X108598684Y-142359628D01*
X109684399Y-142645342D02*
X109684399Y-143616771D01*
X109684399Y-143616771D02*
X109627256Y-143731057D01*
X109627256Y-143731057D02*
X109570113Y-143788200D01*
X109570113Y-143788200D02*
X109455827Y-143845342D01*
X109455827Y-143845342D02*
X109284399Y-143845342D01*
X109284399Y-143845342D02*
X109170113Y-143788200D01*
X109684399Y-143388200D02*
X109570113Y-143445342D01*
X109570113Y-143445342D02*
X109341541Y-143445342D01*
X109341541Y-143445342D02*
X109227256Y-143388200D01*
X109227256Y-143388200D02*
X109170113Y-143331057D01*
X109170113Y-143331057D02*
X109112970Y-143216771D01*
X109112970Y-143216771D02*
X109112970Y-142873914D01*
X109112970Y-142873914D02*
X109170113Y-142759628D01*
X109170113Y-142759628D02*
X109227256Y-142702485D01*
X109227256Y-142702485D02*
X109341541Y-142645342D01*
X109341541Y-142645342D02*
X109570113Y-142645342D01*
X109570113Y-142645342D02*
X109684399Y-142702485D01*
X111055827Y-142645342D02*
X111341541Y-143445342D01*
X111341541Y-143445342D02*
X111627256Y-142645342D01*
X112084399Y-143331057D02*
X112141542Y-143388200D01*
X112141542Y-143388200D02*
X112084399Y-143445342D01*
X112084399Y-143445342D02*
X112027256Y-143388200D01*
X112027256Y-143388200D02*
X112084399Y-143331057D01*
X112084399Y-143331057D02*
X112084399Y-143445342D01*
X113284399Y-143445342D02*
X112598685Y-143445342D01*
X112941542Y-143445342D02*
X112941542Y-142245342D01*
X112941542Y-142245342D02*
X112827256Y-142416771D01*
X112827256Y-142416771D02*
X112712971Y-142531057D01*
X112712971Y-142531057D02*
X112598685Y-142588200D01*
X113798685Y-143331057D02*
X113855828Y-143388200D01*
X113855828Y-143388200D02*
X113798685Y-143445342D01*
X113798685Y-143445342D02*
X113741542Y-143388200D01*
X113741542Y-143388200D02*
X113798685Y-143331057D01*
X113798685Y-143331057D02*
X113798685Y-143445342D01*
X114598685Y-142245342D02*
X114712971Y-142245342D01*
X114712971Y-142245342D02*
X114827257Y-142302485D01*
X114827257Y-142302485D02*
X114884400Y-142359628D01*
X114884400Y-142359628D02*
X114941542Y-142473914D01*
X114941542Y-142473914D02*
X114998685Y-142702485D01*
X114998685Y-142702485D02*
X114998685Y-142988200D01*
X114998685Y-142988200D02*
X114941542Y-143216771D01*
X114941542Y-143216771D02*
X114884400Y-143331057D01*
X114884400Y-143331057D02*
X114827257Y-143388200D01*
X114827257Y-143388200D02*
X114712971Y-143445342D01*
X114712971Y-143445342D02*
X114598685Y-143445342D01*
X114598685Y-143445342D02*
X114484400Y-143388200D01*
X114484400Y-143388200D02*
X114427257Y-143331057D01*
X114427257Y-143331057D02*
X114370114Y-143216771D01*
X114370114Y-143216771D02*
X114312971Y-142988200D01*
X114312971Y-142988200D02*
X114312971Y-142702485D01*
X114312971Y-142702485D02*
X114370114Y-142473914D01*
X114370114Y-142473914D02*
X114427257Y-142359628D01*
X114427257Y-142359628D02*
X114484400Y-142302485D01*
X114484400Y-142302485D02*
X114598685Y-142245342D01*
X90891371Y-103355826D02*
X92391371Y-103355826D01*
X91819942Y-103355826D02*
X91891371Y-103498684D01*
X91891371Y-103498684D02*
X91891371Y-103784398D01*
X91891371Y-103784398D02*
X91819942Y-103927255D01*
X91819942Y-103927255D02*
X91748514Y-103998684D01*
X91748514Y-103998684D02*
X91605657Y-104070112D01*
X91605657Y-104070112D02*
X91177085Y-104070112D01*
X91177085Y-104070112D02*
X91034228Y-103998684D01*
X91034228Y-103998684D02*
X90962800Y-103927255D01*
X90962800Y-103927255D02*
X90891371Y-103784398D01*
X90891371Y-103784398D02*
X90891371Y-103498684D01*
X90891371Y-103498684D02*
X90962800Y-103355826D01*
X91891371Y-104570112D02*
X90891371Y-104927255D01*
X91891371Y-105284398D02*
X90891371Y-104927255D01*
X90891371Y-104927255D02*
X90534228Y-104784398D01*
X90534228Y-104784398D02*
X90462800Y-104712969D01*
X90462800Y-104712969D02*
X90391371Y-104570112D01*
X91677085Y-106998683D02*
X91677085Y-107498683D01*
X90891371Y-107712969D02*
X90891371Y-106998683D01*
X90891371Y-106998683D02*
X92391371Y-106998683D01*
X92391371Y-106998683D02*
X92391371Y-107712969D01*
X92391371Y-108141541D02*
X92391371Y-108998684D01*
X90891371Y-108570112D02*
X92391371Y-108570112D01*
X90891371Y-110355826D02*
X91605657Y-109855826D01*
X90891371Y-109498683D02*
X92391371Y-109498683D01*
X92391371Y-109498683D02*
X92391371Y-110070112D01*
X92391371Y-110070112D02*
X92319942Y-110212969D01*
X92319942Y-110212969D02*
X92248514Y-110284398D01*
X92248514Y-110284398D02*
X92105657Y-110355826D01*
X92105657Y-110355826D02*
X91891371Y-110355826D01*
X91891371Y-110355826D02*
X91748514Y-110284398D01*
X91748514Y-110284398D02*
X91677085Y-110212969D01*
X91677085Y-110212969D02*
X91605657Y-110070112D01*
X91605657Y-110070112D02*
X91605657Y-109498683D01*
X90891371Y-110998683D02*
X92391371Y-110998683D01*
X92462800Y-112784398D02*
X90534228Y-111498684D01*
X90891371Y-113284398D02*
X92391371Y-113284398D01*
X92391371Y-113284398D02*
X90891371Y-114141541D01*
X90891371Y-114141541D02*
X92391371Y-114141541D01*
X90962800Y-114784399D02*
X90891371Y-114998685D01*
X90891371Y-114998685D02*
X90891371Y-115355827D01*
X90891371Y-115355827D02*
X90962800Y-115498685D01*
X90962800Y-115498685D02*
X91034228Y-115570113D01*
X91034228Y-115570113D02*
X91177085Y-115641542D01*
X91177085Y-115641542D02*
X91319942Y-115641542D01*
X91319942Y-115641542D02*
X91462800Y-115570113D01*
X91462800Y-115570113D02*
X91534228Y-115498685D01*
X91534228Y-115498685D02*
X91605657Y-115355827D01*
X91605657Y-115355827D02*
X91677085Y-115070113D01*
X91677085Y-115070113D02*
X91748514Y-114927256D01*
X91748514Y-114927256D02*
X91819942Y-114855827D01*
X91819942Y-114855827D02*
X91962800Y-114784399D01*
X91962800Y-114784399D02*
X92105657Y-114784399D01*
X92105657Y-114784399D02*
X92248514Y-114855827D01*
X92248514Y-114855827D02*
X92319942Y-114927256D01*
X92319942Y-114927256D02*
X92391371Y-115070113D01*
X92391371Y-115070113D02*
X92391371Y-115427256D01*
X92391371Y-115427256D02*
X92319942Y-115641542D01*
X90891371Y-116284398D02*
X92391371Y-116284398D01*
X92391371Y-116284398D02*
X92391371Y-116855827D01*
X92391371Y-116855827D02*
X92319942Y-116998684D01*
X92319942Y-116998684D02*
X92248514Y-117070113D01*
X92248514Y-117070113D02*
X92105657Y-117141541D01*
X92105657Y-117141541D02*
X91891371Y-117141541D01*
X91891371Y-117141541D02*
X91748514Y-117070113D01*
X91748514Y-117070113D02*
X91677085Y-116998684D01*
X91677085Y-116998684D02*
X91605657Y-116855827D01*
X91605657Y-116855827D02*
X91605657Y-116284398D01*
X90891371Y-118498684D02*
X90891371Y-117784398D01*
X90891371Y-117784398D02*
X92391371Y-117784398D01*
D11*
X87555161Y-97795863D02*
X89555161Y-98045863D01*
X89555161Y-98045863D02*
X88126590Y-98533958D01*
X88126590Y-98533958D02*
X89555161Y-99379197D01*
X89555161Y-99379197D02*
X87555161Y-99129197D01*
X88888495Y-100057768D02*
X87555161Y-100367292D01*
X88888495Y-101010149D02*
X87555161Y-100367292D01*
X87555161Y-100367292D02*
X87078971Y-100117292D01*
X87078971Y-100117292D02*
X86983733Y-100010149D01*
X86983733Y-100010149D02*
X86888495Y-99807768D01*
X87745638Y-102772054D02*
X87650400Y-102664911D01*
X87650400Y-102664911D02*
X87555161Y-102367292D01*
X87555161Y-102367292D02*
X87555161Y-102176816D01*
X87555161Y-102176816D02*
X87650400Y-101903006D01*
X87650400Y-101903006D02*
X87840876Y-101736340D01*
X87840876Y-101736340D02*
X88031352Y-101664911D01*
X88031352Y-101664911D02*
X88412304Y-101617292D01*
X88412304Y-101617292D02*
X88698019Y-101653006D01*
X88698019Y-101653006D02*
X89078971Y-101795863D01*
X89078971Y-101795863D02*
X89269447Y-101914911D01*
X89269447Y-101914911D02*
X89459923Y-102129197D01*
X89459923Y-102129197D02*
X89555161Y-102426816D01*
X89555161Y-102426816D02*
X89555161Y-102617292D01*
X89555161Y-102617292D02*
X89459923Y-102891102D01*
X89459923Y-102891102D02*
X89364685Y-102974435D01*
X87555161Y-103605387D02*
X89555161Y-103855387D01*
X87555161Y-104462530D02*
X88602780Y-104593482D01*
X88602780Y-104593482D02*
X88793257Y-104522054D01*
X88793257Y-104522054D02*
X88888495Y-104343482D01*
X88888495Y-104343482D02*
X88888495Y-104057768D01*
X88888495Y-104057768D02*
X88793257Y-103855387D01*
X88793257Y-103855387D02*
X88698019Y-103748244D01*
X87555161Y-105414911D02*
X88888495Y-105581578D01*
X89555161Y-105664911D02*
X89459923Y-105557768D01*
X89459923Y-105557768D02*
X89364685Y-105641102D01*
X89364685Y-105641102D02*
X89459923Y-105748245D01*
X89459923Y-105748245D02*
X89555161Y-105664911D01*
X89555161Y-105664911D02*
X89364685Y-105641102D01*
X88888495Y-106533959D02*
X86888495Y-106283959D01*
X88793257Y-106522054D02*
X88888495Y-106724435D01*
X88888495Y-106724435D02*
X88888495Y-107105387D01*
X88888495Y-107105387D02*
X88793257Y-107283959D01*
X88793257Y-107283959D02*
X88698019Y-107367292D01*
X88698019Y-107367292D02*
X88507542Y-107438721D01*
X88507542Y-107438721D02*
X87936114Y-107367292D01*
X87936114Y-107367292D02*
X87745638Y-107248245D01*
X87745638Y-107248245D02*
X87650400Y-107141102D01*
X87650400Y-107141102D02*
X87555161Y-106938721D01*
X87555161Y-106938721D02*
X87555161Y-106557768D01*
X87555161Y-106557768D02*
X87650400Y-106379197D01*
X88317066Y-108272054D02*
X88317066Y-109795864D01*
X87555161Y-110938721D02*
X87650400Y-110760149D01*
X87650400Y-110760149D02*
X87745638Y-110676816D01*
X87745638Y-110676816D02*
X87936114Y-110605387D01*
X87936114Y-110605387D02*
X88507542Y-110676816D01*
X88507542Y-110676816D02*
X88698019Y-110795863D01*
X88698019Y-110795863D02*
X88793257Y-110903006D01*
X88793257Y-110903006D02*
X88888495Y-111105387D01*
X88888495Y-111105387D02*
X88888495Y-111391101D01*
X88888495Y-111391101D02*
X88793257Y-111569673D01*
X88793257Y-111569673D02*
X88698019Y-111653006D01*
X88698019Y-111653006D02*
X88507542Y-111724435D01*
X88507542Y-111724435D02*
X87936114Y-111653006D01*
X87936114Y-111653006D02*
X87745638Y-111533959D01*
X87745638Y-111533959D02*
X87650400Y-111426816D01*
X87650400Y-111426816D02*
X87555161Y-111224435D01*
X87555161Y-111224435D02*
X87555161Y-110938721D01*
X88888495Y-112629197D02*
X87555161Y-112462530D01*
X88698019Y-112605387D02*
X88793257Y-112712530D01*
X88793257Y-112712530D02*
X88888495Y-112914911D01*
X88888495Y-112914911D02*
X88888495Y-113200625D01*
X88888495Y-113200625D02*
X88793257Y-113379197D01*
X88793257Y-113379197D02*
X88602780Y-113450625D01*
X88602780Y-113450625D02*
X87555161Y-113319673D01*
X88317066Y-114367292D02*
X88317066Y-115891102D01*
X87555161Y-116748244D02*
X89555161Y-116998244D01*
X89555161Y-116998244D02*
X88126590Y-117486339D01*
X88126590Y-117486339D02*
X89555161Y-118331578D01*
X89555161Y-118331578D02*
X87555161Y-118081578D01*
X88888495Y-119010149D02*
X87555161Y-119319673D01*
X88888495Y-119962530D02*
X87555161Y-119319673D01*
X87555161Y-119319673D02*
X87078971Y-119069673D01*
X87078971Y-119069673D02*
X86983733Y-118962530D01*
X86983733Y-118962530D02*
X86888495Y-118760149D01*
X87555161Y-120557768D02*
X89555161Y-120807768D01*
X89555161Y-120807768D02*
X89555161Y-121283959D01*
X89555161Y-121283959D02*
X89459923Y-121557768D01*
X89459923Y-121557768D02*
X89269447Y-121724435D01*
X89269447Y-121724435D02*
X89078971Y-121795863D01*
X89078971Y-121795863D02*
X88698019Y-121843483D01*
X88698019Y-121843483D02*
X88412304Y-121807768D01*
X88412304Y-121807768D02*
X88031352Y-121664911D01*
X88031352Y-121664911D02*
X87840876Y-121545863D01*
X87840876Y-121545863D02*
X87650400Y-121331578D01*
X87650400Y-121331578D02*
X87555161Y-121033959D01*
X87555161Y-121033959D02*
X87555161Y-120557768D01*
X87650400Y-123331578D02*
X87555161Y-123129197D01*
X87555161Y-123129197D02*
X87555161Y-122748244D01*
X87555161Y-122748244D02*
X87650400Y-122569673D01*
X87650400Y-122569673D02*
X87840876Y-122498244D01*
X87840876Y-122498244D02*
X88602780Y-122593483D01*
X88602780Y-122593483D02*
X88793257Y-122712530D01*
X88793257Y-122712530D02*
X88888495Y-122914911D01*
X88888495Y-122914911D02*
X88888495Y-123295863D01*
X88888495Y-123295863D02*
X88793257Y-123474435D01*
X88793257Y-123474435D02*
X88602780Y-123545863D01*
X88602780Y-123545863D02*
X88412304Y-123522054D01*
X88412304Y-123522054D02*
X88221828Y-122545863D01*
X87650400Y-124188721D02*
X87555161Y-124367292D01*
X87555161Y-124367292D02*
X87555161Y-124748245D01*
X87555161Y-124748245D02*
X87650400Y-124950626D01*
X87650400Y-124950626D02*
X87840876Y-125069673D01*
X87840876Y-125069673D02*
X87936114Y-125081578D01*
X87936114Y-125081578D02*
X88126590Y-125010149D01*
X88126590Y-125010149D02*
X88221828Y-124831578D01*
X88221828Y-124831578D02*
X88221828Y-124545864D01*
X88221828Y-124545864D02*
X88317066Y-124367292D01*
X88317066Y-124367292D02*
X88507542Y-124295864D01*
X88507542Y-124295864D02*
X88602780Y-124307769D01*
X88602780Y-124307769D02*
X88793257Y-124426816D01*
X88793257Y-124426816D02*
X88888495Y-124629197D01*
X88888495Y-124629197D02*
X88888495Y-124914911D01*
X88888495Y-124914911D02*
X88793257Y-125093483D01*
X87555161Y-125891102D02*
X89555161Y-126141102D01*
X88317066Y-126176817D02*
X87555161Y-126653007D01*
X88888495Y-126819674D02*
X88126590Y-125962531D01*
D13*
X105011903Y-99409638D02*
X105392856Y-99409638D01*
X105392856Y-99409638D02*
X105583332Y-99504876D01*
X105583332Y-99504876D02*
X105773808Y-99695352D01*
X105773808Y-99695352D02*
X105869046Y-100076304D01*
X105869046Y-100076304D02*
X105869046Y-100742971D01*
X105869046Y-100742971D02*
X105773808Y-101123923D01*
X105773808Y-101123923D02*
X105583332Y-101314400D01*
X105583332Y-101314400D02*
X105392856Y-101409638D01*
X105392856Y-101409638D02*
X105011903Y-101409638D01*
X105011903Y-101409638D02*
X104821427Y-101314400D01*
X104821427Y-101314400D02*
X104630951Y-101123923D01*
X104630951Y-101123923D02*
X104535713Y-100742971D01*
X104535713Y-100742971D02*
X104535713Y-100076304D01*
X104535713Y-100076304D02*
X104630951Y-99695352D01*
X104630951Y-99695352D02*
X104821427Y-99504876D01*
X104821427Y-99504876D02*
X105011903Y-99409638D01*
X107678570Y-101409638D02*
X106726189Y-101409638D01*
X106726189Y-101409638D02*
X106726189Y-99409638D01*
X108345237Y-100362019D02*
X109011904Y-100362019D01*
X109297618Y-101409638D02*
X108345237Y-101409638D01*
X108345237Y-101409638D02*
X108345237Y-99409638D01*
X108345237Y-99409638D02*
X109297618Y-99409638D01*
X110154761Y-101409638D02*
X110154761Y-99409638D01*
X110154761Y-99409638D02*
X110630951Y-99409638D01*
X110630951Y-99409638D02*
X110916666Y-99504876D01*
X110916666Y-99504876D02*
X111107142Y-99695352D01*
X111107142Y-99695352D02*
X111202380Y-99885828D01*
X111202380Y-99885828D02*
X111297618Y-100266780D01*
X111297618Y-100266780D02*
X111297618Y-100552495D01*
X111297618Y-100552495D02*
X111202380Y-100933447D01*
X111202380Y-100933447D02*
X111107142Y-101123923D01*
X111107142Y-101123923D02*
X110916666Y-101314400D01*
X110916666Y-101314400D02*
X110630951Y-101409638D01*
X110630951Y-101409638D02*
X110154761Y-101409638D01*
X114726190Y-101409638D02*
X113583333Y-101409638D01*
X114154761Y-101409638D02*
X114154761Y-99409638D01*
X114154761Y-99409638D02*
X113964285Y-99695352D01*
X113964285Y-99695352D02*
X113773809Y-99885828D01*
X113773809Y-99885828D02*
X113583333Y-99981066D01*
X115488095Y-99600114D02*
X115583333Y-99504876D01*
X115583333Y-99504876D02*
X115773809Y-99409638D01*
X115773809Y-99409638D02*
X116250000Y-99409638D01*
X116250000Y-99409638D02*
X116440476Y-99504876D01*
X116440476Y-99504876D02*
X116535714Y-99600114D01*
X116535714Y-99600114D02*
X116630952Y-99790590D01*
X116630952Y-99790590D02*
X116630952Y-99981066D01*
X116630952Y-99981066D02*
X116535714Y-100266780D01*
X116535714Y-100266780D02*
X115392857Y-101409638D01*
X115392857Y-101409638D02*
X116630952Y-101409638D01*
X117773809Y-100266780D02*
X117583333Y-100171542D01*
X117583333Y-100171542D02*
X117488095Y-100076304D01*
X117488095Y-100076304D02*
X117392857Y-99885828D01*
X117392857Y-99885828D02*
X117392857Y-99790590D01*
X117392857Y-99790590D02*
X117488095Y-99600114D01*
X117488095Y-99600114D02*
X117583333Y-99504876D01*
X117583333Y-99504876D02*
X117773809Y-99409638D01*
X117773809Y-99409638D02*
X118154762Y-99409638D01*
X118154762Y-99409638D02*
X118345238Y-99504876D01*
X118345238Y-99504876D02*
X118440476Y-99600114D01*
X118440476Y-99600114D02*
X118535714Y-99790590D01*
X118535714Y-99790590D02*
X118535714Y-99885828D01*
X118535714Y-99885828D02*
X118440476Y-100076304D01*
X118440476Y-100076304D02*
X118345238Y-100171542D01*
X118345238Y-100171542D02*
X118154762Y-100266780D01*
X118154762Y-100266780D02*
X117773809Y-100266780D01*
X117773809Y-100266780D02*
X117583333Y-100362019D01*
X117583333Y-100362019D02*
X117488095Y-100457257D01*
X117488095Y-100457257D02*
X117392857Y-100647733D01*
X117392857Y-100647733D02*
X117392857Y-101028685D01*
X117392857Y-101028685D02*
X117488095Y-101219161D01*
X117488095Y-101219161D02*
X117583333Y-101314400D01*
X117583333Y-101314400D02*
X117773809Y-101409638D01*
X117773809Y-101409638D02*
X118154762Y-101409638D01*
X118154762Y-101409638D02*
X118345238Y-101314400D01*
X118345238Y-101314400D02*
X118440476Y-101219161D01*
X118440476Y-101219161D02*
X118535714Y-101028685D01*
X118535714Y-101028685D02*
X118535714Y-100647733D01*
X118535714Y-100647733D02*
X118440476Y-100457257D01*
X118440476Y-100457257D02*
X118345238Y-100362019D01*
X118345238Y-100362019D02*
X118154762Y-100266780D01*
X119202381Y-101409638D02*
X120250000Y-100076304D01*
X119202381Y-100076304D02*
X120250000Y-101409638D01*
X121869048Y-99409638D02*
X121488095Y-99409638D01*
X121488095Y-99409638D02*
X121297619Y-99504876D01*
X121297619Y-99504876D02*
X121202381Y-99600114D01*
X121202381Y-99600114D02*
X121011905Y-99885828D01*
X121011905Y-99885828D02*
X120916667Y-100266780D01*
X120916667Y-100266780D02*
X120916667Y-101028685D01*
X120916667Y-101028685D02*
X121011905Y-101219161D01*
X121011905Y-101219161D02*
X121107143Y-101314400D01*
X121107143Y-101314400D02*
X121297619Y-101409638D01*
X121297619Y-101409638D02*
X121678572Y-101409638D01*
X121678572Y-101409638D02*
X121869048Y-101314400D01*
X121869048Y-101314400D02*
X121964286Y-101219161D01*
X121964286Y-101219161D02*
X122059524Y-101028685D01*
X122059524Y-101028685D02*
X122059524Y-100552495D01*
X122059524Y-100552495D02*
X121964286Y-100362019D01*
X121964286Y-100362019D02*
X121869048Y-100266780D01*
X121869048Y-100266780D02*
X121678572Y-100171542D01*
X121678572Y-100171542D02*
X121297619Y-100171542D01*
X121297619Y-100171542D02*
X121107143Y-100266780D01*
X121107143Y-100266780D02*
X121011905Y-100362019D01*
X121011905Y-100362019D02*
X120916667Y-100552495D01*
X123773810Y-100076304D02*
X123773810Y-101409638D01*
X123297619Y-99314400D02*
X122821429Y-100742971D01*
X122821429Y-100742971D02*
X124059524Y-100742971D01*
X104714286Y-106171542D02*
X104619047Y-106076304D01*
X104619047Y-106076304D02*
X104428571Y-105790590D01*
X104428571Y-105790590D02*
X104333333Y-105600114D01*
X104333333Y-105600114D02*
X104238095Y-105314400D01*
X104238095Y-105314400D02*
X104142857Y-104838209D01*
X104142857Y-104838209D02*
X104142857Y-104457257D01*
X104142857Y-104457257D02*
X104238095Y-103981066D01*
X104238095Y-103981066D02*
X104333333Y-103695352D01*
X104333333Y-103695352D02*
X104428571Y-103504876D01*
X104428571Y-103504876D02*
X104619047Y-103219161D01*
X104619047Y-103219161D02*
X104714286Y-103123923D01*
X105380952Y-105314400D02*
X105666666Y-105409638D01*
X105666666Y-105409638D02*
X106142857Y-105409638D01*
X106142857Y-105409638D02*
X106333333Y-105314400D01*
X106333333Y-105314400D02*
X106428571Y-105219161D01*
X106428571Y-105219161D02*
X106523809Y-105028685D01*
X106523809Y-105028685D02*
X106523809Y-104838209D01*
X106523809Y-104838209D02*
X106428571Y-104647733D01*
X106428571Y-104647733D02*
X106333333Y-104552495D01*
X106333333Y-104552495D02*
X106142857Y-104457257D01*
X106142857Y-104457257D02*
X105761904Y-104362019D01*
X105761904Y-104362019D02*
X105571428Y-104266780D01*
X105571428Y-104266780D02*
X105476190Y-104171542D01*
X105476190Y-104171542D02*
X105380952Y-103981066D01*
X105380952Y-103981066D02*
X105380952Y-103790590D01*
X105380952Y-103790590D02*
X105476190Y-103600114D01*
X105476190Y-103600114D02*
X105571428Y-103504876D01*
X105571428Y-103504876D02*
X105761904Y-103409638D01*
X105761904Y-103409638D02*
X106238095Y-103409638D01*
X106238095Y-103409638D02*
X106523809Y-103504876D01*
X107380952Y-105409638D02*
X107380952Y-103409638D01*
X107380952Y-104362019D02*
X108523809Y-104362019D01*
X108523809Y-105409638D02*
X108523809Y-103409638D01*
X110523809Y-105409638D02*
X109380952Y-105409638D01*
X109952380Y-105409638D02*
X109952380Y-103409638D01*
X109952380Y-103409638D02*
X109761904Y-103695352D01*
X109761904Y-103695352D02*
X109571428Y-103885828D01*
X109571428Y-103885828D02*
X109380952Y-103981066D01*
X112428571Y-105409638D02*
X111285714Y-105409638D01*
X111857142Y-105409638D02*
X111857142Y-103409638D01*
X111857142Y-103409638D02*
X111666666Y-103695352D01*
X111666666Y-103695352D02*
X111476190Y-103885828D01*
X111476190Y-103885828D02*
X111285714Y-103981066D01*
X113666666Y-103409638D02*
X113857143Y-103409638D01*
X113857143Y-103409638D02*
X114047619Y-103504876D01*
X114047619Y-103504876D02*
X114142857Y-103600114D01*
X114142857Y-103600114D02*
X114238095Y-103790590D01*
X114238095Y-103790590D02*
X114333333Y-104171542D01*
X114333333Y-104171542D02*
X114333333Y-104647733D01*
X114333333Y-104647733D02*
X114238095Y-105028685D01*
X114238095Y-105028685D02*
X114142857Y-105219161D01*
X114142857Y-105219161D02*
X114047619Y-105314400D01*
X114047619Y-105314400D02*
X113857143Y-105409638D01*
X113857143Y-105409638D02*
X113666666Y-105409638D01*
X113666666Y-105409638D02*
X113476190Y-105314400D01*
X113476190Y-105314400D02*
X113380952Y-105219161D01*
X113380952Y-105219161D02*
X113285714Y-105028685D01*
X113285714Y-105028685D02*
X113190476Y-104647733D01*
X113190476Y-104647733D02*
X113190476Y-104171542D01*
X113190476Y-104171542D02*
X113285714Y-103790590D01*
X113285714Y-103790590D02*
X113380952Y-103600114D01*
X113380952Y-103600114D02*
X113476190Y-103504876D01*
X113476190Y-103504876D02*
X113666666Y-103409638D01*
X116047619Y-103409638D02*
X115666666Y-103409638D01*
X115666666Y-103409638D02*
X115476190Y-103504876D01*
X115476190Y-103504876D02*
X115380952Y-103600114D01*
X115380952Y-103600114D02*
X115190476Y-103885828D01*
X115190476Y-103885828D02*
X115095238Y-104266780D01*
X115095238Y-104266780D02*
X115095238Y-105028685D01*
X115095238Y-105028685D02*
X115190476Y-105219161D01*
X115190476Y-105219161D02*
X115285714Y-105314400D01*
X115285714Y-105314400D02*
X115476190Y-105409638D01*
X115476190Y-105409638D02*
X115857143Y-105409638D01*
X115857143Y-105409638D02*
X116047619Y-105314400D01*
X116047619Y-105314400D02*
X116142857Y-105219161D01*
X116142857Y-105219161D02*
X116238095Y-105028685D01*
X116238095Y-105028685D02*
X116238095Y-104552495D01*
X116238095Y-104552495D02*
X116142857Y-104362019D01*
X116142857Y-104362019D02*
X116047619Y-104266780D01*
X116047619Y-104266780D02*
X115857143Y-104171542D01*
X115857143Y-104171542D02*
X115476190Y-104171542D01*
X115476190Y-104171542D02*
X115285714Y-104266780D01*
X115285714Y-104266780D02*
X115190476Y-104362019D01*
X115190476Y-104362019D02*
X115095238Y-104552495D01*
X118523809Y-103314400D02*
X116809524Y-105885828D01*
X120238095Y-105409638D02*
X119095238Y-105409638D01*
X119666666Y-105409638D02*
X119666666Y-103409638D01*
X119666666Y-103409638D02*
X119476190Y-103695352D01*
X119476190Y-103695352D02*
X119285714Y-103885828D01*
X119285714Y-103885828D02*
X119095238Y-103981066D01*
X121095238Y-105219161D02*
X121190476Y-105314400D01*
X121190476Y-105314400D02*
X121095238Y-105409638D01*
X121095238Y-105409638D02*
X121000000Y-105314400D01*
X121000000Y-105314400D02*
X121095238Y-105219161D01*
X121095238Y-105219161D02*
X121095238Y-105409638D01*
X121857143Y-103409638D02*
X123095238Y-103409638D01*
X123095238Y-103409638D02*
X122428571Y-104171542D01*
X122428571Y-104171542D02*
X122714286Y-104171542D01*
X122714286Y-104171542D02*
X122904762Y-104266780D01*
X122904762Y-104266780D02*
X123000000Y-104362019D01*
X123000000Y-104362019D02*
X123095238Y-104552495D01*
X123095238Y-104552495D02*
X123095238Y-105028685D01*
X123095238Y-105028685D02*
X123000000Y-105219161D01*
X123000000Y-105219161D02*
X122904762Y-105314400D01*
X122904762Y-105314400D02*
X122714286Y-105409638D01*
X122714286Y-105409638D02*
X122142857Y-105409638D01*
X122142857Y-105409638D02*
X121952381Y-105314400D01*
X121952381Y-105314400D02*
X121857143Y-105219161D01*
X123857143Y-103409638D02*
X123857143Y-103790590D01*
X124619048Y-103409638D02*
X124619048Y-103790590D01*
X125285715Y-106171542D02*
X125380953Y-106076304D01*
X125380953Y-106076304D02*
X125571429Y-105790590D01*
X125571429Y-105790590D02*
X125666667Y-105600114D01*
X125666667Y-105600114D02*
X125761905Y-105314400D01*
X125761905Y-105314400D02*
X125857143Y-104838209D01*
X125857143Y-104838209D02*
X125857143Y-104457257D01*
X125857143Y-104457257D02*
X125761905Y-103981066D01*
X125761905Y-103981066D02*
X125666667Y-103695352D01*
X125666667Y-103695352D02*
X125571429Y-103504876D01*
X125571429Y-103504876D02*
X125380953Y-103219161D01*
X125380953Y-103219161D02*
X125285715Y-103123923D01*
X90739638Y-75528822D02*
X90739638Y-76671679D01*
X90739638Y-76100251D02*
X88739638Y-76100251D01*
X88739638Y-76100251D02*
X89025352Y-76290727D01*
X89025352Y-76290727D02*
X89215828Y-76481203D01*
X89215828Y-76481203D02*
X89311066Y-76671679D01*
X93560361Y-95773558D02*
X95560361Y-95773558D01*
X95560361Y-95773558D02*
X94131790Y-96440225D01*
X94131790Y-96440225D02*
X95560361Y-97106891D01*
X95560361Y-97106891D02*
X93560361Y-97106891D01*
X94893695Y-97868796D02*
X93560361Y-98344986D01*
X94893695Y-98821177D02*
X93560361Y-98344986D01*
X93560361Y-98344986D02*
X93084171Y-98154510D01*
X93084171Y-98154510D02*
X92988933Y-98059272D01*
X92988933Y-98059272D02*
X92893695Y-97868796D01*
X93750838Y-102249749D02*
X93655600Y-102154511D01*
X93655600Y-102154511D02*
X93560361Y-101868797D01*
X93560361Y-101868797D02*
X93560361Y-101678321D01*
X93560361Y-101678321D02*
X93655600Y-101392606D01*
X93655600Y-101392606D02*
X93846076Y-101202130D01*
X93846076Y-101202130D02*
X94036552Y-101106892D01*
X94036552Y-101106892D02*
X94417504Y-101011654D01*
X94417504Y-101011654D02*
X94703219Y-101011654D01*
X94703219Y-101011654D02*
X95084171Y-101106892D01*
X95084171Y-101106892D02*
X95274647Y-101202130D01*
X95274647Y-101202130D02*
X95465123Y-101392606D01*
X95465123Y-101392606D02*
X95560361Y-101678321D01*
X95560361Y-101678321D02*
X95560361Y-101868797D01*
X95560361Y-101868797D02*
X95465123Y-102154511D01*
X95465123Y-102154511D02*
X95369885Y-102249749D01*
X93560361Y-103106892D02*
X95560361Y-103106892D01*
X93560361Y-103964035D02*
X94607980Y-103964035D01*
X94607980Y-103964035D02*
X94798457Y-103868797D01*
X94798457Y-103868797D02*
X94893695Y-103678321D01*
X94893695Y-103678321D02*
X94893695Y-103392606D01*
X94893695Y-103392606D02*
X94798457Y-103202130D01*
X94798457Y-103202130D02*
X94703219Y-103106892D01*
X93560361Y-104916416D02*
X94893695Y-104916416D01*
X95560361Y-104916416D02*
X95465123Y-104821178D01*
X95465123Y-104821178D02*
X95369885Y-104916416D01*
X95369885Y-104916416D02*
X95465123Y-105011654D01*
X95465123Y-105011654D02*
X95560361Y-104916416D01*
X95560361Y-104916416D02*
X95369885Y-104916416D01*
X94893695Y-105868797D02*
X92893695Y-105868797D01*
X94798457Y-105868797D02*
X94893695Y-106059273D01*
X94893695Y-106059273D02*
X94893695Y-106440226D01*
X94893695Y-106440226D02*
X94798457Y-106630702D01*
X94798457Y-106630702D02*
X94703219Y-106725940D01*
X94703219Y-106725940D02*
X94512742Y-106821178D01*
X94512742Y-106821178D02*
X93941314Y-106821178D01*
X93941314Y-106821178D02*
X93750838Y-106725940D01*
X93750838Y-106725940D02*
X93655600Y-106630702D01*
X93655600Y-106630702D02*
X93560361Y-106440226D01*
X93560361Y-106440226D02*
X93560361Y-106059273D01*
X93560361Y-106059273D02*
X93655600Y-105868797D01*
X93560361Y-109202131D02*
X95560361Y-109202131D01*
X95560361Y-109202131D02*
X94131790Y-109868798D01*
X94131790Y-109868798D02*
X95560361Y-110535464D01*
X95560361Y-110535464D02*
X93560361Y-110535464D01*
X93560361Y-111487845D02*
X95560361Y-111487845D01*
X95560361Y-111487845D02*
X95560361Y-112249750D01*
X95560361Y-112249750D02*
X95465123Y-112440226D01*
X95465123Y-112440226D02*
X95369885Y-112535464D01*
X95369885Y-112535464D02*
X95179409Y-112630702D01*
X95179409Y-112630702D02*
X94893695Y-112630702D01*
X94893695Y-112630702D02*
X94703219Y-112535464D01*
X94703219Y-112535464D02*
X94607980Y-112440226D01*
X94607980Y-112440226D02*
X94512742Y-112249750D01*
X94512742Y-112249750D02*
X94512742Y-111487845D01*
X95560361Y-113297369D02*
X93560361Y-113773559D01*
X93560361Y-113773559D02*
X94988933Y-114154512D01*
X94988933Y-114154512D02*
X93560361Y-114535464D01*
X93560361Y-114535464D02*
X95560361Y-115011655D01*
X93655600Y-117202131D02*
X93560361Y-117487845D01*
X93560361Y-117487845D02*
X93560361Y-117964036D01*
X93560361Y-117964036D02*
X93655600Y-118154512D01*
X93655600Y-118154512D02*
X93750838Y-118249750D01*
X93750838Y-118249750D02*
X93941314Y-118344988D01*
X93941314Y-118344988D02*
X94131790Y-118344988D01*
X94131790Y-118344988D02*
X94322266Y-118249750D01*
X94322266Y-118249750D02*
X94417504Y-118154512D01*
X94417504Y-118154512D02*
X94512742Y-117964036D01*
X94512742Y-117964036D02*
X94607980Y-117583083D01*
X94607980Y-117583083D02*
X94703219Y-117392607D01*
X94703219Y-117392607D02*
X94798457Y-117297369D01*
X94798457Y-117297369D02*
X94988933Y-117202131D01*
X94988933Y-117202131D02*
X95179409Y-117202131D01*
X95179409Y-117202131D02*
X95369885Y-117297369D01*
X95369885Y-117297369D02*
X95465123Y-117392607D01*
X95465123Y-117392607D02*
X95560361Y-117583083D01*
X95560361Y-117583083D02*
X95560361Y-118059274D01*
X95560361Y-118059274D02*
X95465123Y-118344988D01*
X93655600Y-119964036D02*
X93560361Y-119773560D01*
X93560361Y-119773560D02*
X93560361Y-119392607D01*
X93560361Y-119392607D02*
X93655600Y-119202131D01*
X93655600Y-119202131D02*
X93846076Y-119106893D01*
X93846076Y-119106893D02*
X94607980Y-119106893D01*
X94607980Y-119106893D02*
X94798457Y-119202131D01*
X94798457Y-119202131D02*
X94893695Y-119392607D01*
X94893695Y-119392607D02*
X94893695Y-119773560D01*
X94893695Y-119773560D02*
X94798457Y-119964036D01*
X94798457Y-119964036D02*
X94607980Y-120059274D01*
X94607980Y-120059274D02*
X94417504Y-120059274D01*
X94417504Y-120059274D02*
X94227028Y-119106893D01*
X93560361Y-120916417D02*
X94893695Y-120916417D01*
X94512742Y-120916417D02*
X94703219Y-121011655D01*
X94703219Y-121011655D02*
X94798457Y-121106893D01*
X94798457Y-121106893D02*
X94893695Y-121297369D01*
X94893695Y-121297369D02*
X94893695Y-121487846D01*
X94893695Y-121964036D02*
X93560361Y-122440226D01*
X93560361Y-122440226D02*
X94893695Y-122916417D01*
X93560361Y-123678322D02*
X94893695Y-123678322D01*
X95560361Y-123678322D02*
X95465123Y-123583084D01*
X95465123Y-123583084D02*
X95369885Y-123678322D01*
X95369885Y-123678322D02*
X95465123Y-123773560D01*
X95465123Y-123773560D02*
X95560361Y-123678322D01*
X95560361Y-123678322D02*
X95369885Y-123678322D01*
X93655600Y-125487846D02*
X93560361Y-125297370D01*
X93560361Y-125297370D02*
X93560361Y-124916417D01*
X93560361Y-124916417D02*
X93655600Y-124725941D01*
X93655600Y-124725941D02*
X93750838Y-124630703D01*
X93750838Y-124630703D02*
X93941314Y-124535465D01*
X93941314Y-124535465D02*
X94512742Y-124535465D01*
X94512742Y-124535465D02*
X94703219Y-124630703D01*
X94703219Y-124630703D02*
X94798457Y-124725941D01*
X94798457Y-124725941D02*
X94893695Y-124916417D01*
X94893695Y-124916417D02*
X94893695Y-125297370D01*
X94893695Y-125297370D02*
X94798457Y-125487846D01*
X93655600Y-127106894D02*
X93560361Y-126916418D01*
X93560361Y-126916418D02*
X93560361Y-126535465D01*
X93560361Y-126535465D02*
X93655600Y-126344989D01*
X93655600Y-126344989D02*
X93846076Y-126249751D01*
X93846076Y-126249751D02*
X94607980Y-126249751D01*
X94607980Y-126249751D02*
X94798457Y-126344989D01*
X94798457Y-126344989D02*
X94893695Y-126535465D01*
X94893695Y-126535465D02*
X94893695Y-126916418D01*
X94893695Y-126916418D02*
X94798457Y-127106894D01*
X94798457Y-127106894D02*
X94607980Y-127202132D01*
X94607980Y-127202132D02*
X94417504Y-127202132D01*
X94417504Y-127202132D02*
X94227028Y-126249751D01*
D12*
X124507200Y-128433332D02*
X124554819Y-128290475D01*
X124554819Y-128290475D02*
X124554819Y-128052380D01*
X124554819Y-128052380D02*
X124507200Y-127957142D01*
X124507200Y-127957142D02*
X124459580Y-127909523D01*
X124459580Y-127909523D02*
X124364342Y-127861904D01*
X124364342Y-127861904D02*
X124269104Y-127861904D01*
X124269104Y-127861904D02*
X124173866Y-127909523D01*
X124173866Y-127909523D02*
X124126247Y-127957142D01*
X124126247Y-127957142D02*
X124078628Y-128052380D01*
X124078628Y-128052380D02*
X124031009Y-128242856D01*
X124031009Y-128242856D02*
X123983390Y-128338094D01*
X123983390Y-128338094D02*
X123935771Y-128385713D01*
X123935771Y-128385713D02*
X123840533Y-128433332D01*
X123840533Y-128433332D02*
X123745295Y-128433332D01*
X123745295Y-128433332D02*
X123650057Y-128385713D01*
X123650057Y-128385713D02*
X123602438Y-128338094D01*
X123602438Y-128338094D02*
X123554819Y-128242856D01*
X123554819Y-128242856D02*
X123554819Y-128004761D01*
X123554819Y-128004761D02*
X123602438Y-127861904D01*
X123554819Y-127528570D02*
X124554819Y-127290475D01*
X124554819Y-127290475D02*
X123840533Y-127099999D01*
X123840533Y-127099999D02*
X124554819Y-126909523D01*
X124554819Y-126909523D02*
X123554819Y-126671428D01*
X123650057Y-126338094D02*
X123602438Y-126290475D01*
X123602438Y-126290475D02*
X123554819Y-126195237D01*
X123554819Y-126195237D02*
X123554819Y-125957142D01*
X123554819Y-125957142D02*
X123602438Y-125861904D01*
X123602438Y-125861904D02*
X123650057Y-125814285D01*
X123650057Y-125814285D02*
X123745295Y-125766666D01*
X123745295Y-125766666D02*
X123840533Y-125766666D01*
X123840533Y-125766666D02*
X123983390Y-125814285D01*
X123983390Y-125814285D02*
X124554819Y-126385713D01*
X124554819Y-126385713D02*
X124554819Y-125766666D01*
X122209524Y-133154819D02*
X122209524Y-132154819D01*
X122209524Y-132154819D02*
X122447619Y-132154819D01*
X122447619Y-132154819D02*
X122590476Y-132202438D01*
X122590476Y-132202438D02*
X122685714Y-132297676D01*
X122685714Y-132297676D02*
X122733333Y-132392914D01*
X122733333Y-132392914D02*
X122780952Y-132583390D01*
X122780952Y-132583390D02*
X122780952Y-132726247D01*
X122780952Y-132726247D02*
X122733333Y-132916723D01*
X122733333Y-132916723D02*
X122685714Y-133011961D01*
X122685714Y-133011961D02*
X122590476Y-133107200D01*
X122590476Y-133107200D02*
X122447619Y-133154819D01*
X122447619Y-133154819D02*
X122209524Y-133154819D01*
X123352381Y-133154819D02*
X123257143Y-133107200D01*
X123257143Y-133107200D02*
X123209524Y-133059580D01*
X123209524Y-133059580D02*
X123161905Y-132964342D01*
X123161905Y-132964342D02*
X123161905Y-132678628D01*
X123161905Y-132678628D02*
X123209524Y-132583390D01*
X123209524Y-132583390D02*
X123257143Y-132535771D01*
X123257143Y-132535771D02*
X123352381Y-132488152D01*
X123352381Y-132488152D02*
X123495238Y-132488152D01*
X123495238Y-132488152D02*
X123590476Y-132535771D01*
X123590476Y-132535771D02*
X123638095Y-132583390D01*
X123638095Y-132583390D02*
X123685714Y-132678628D01*
X123685714Y-132678628D02*
X123685714Y-132964342D01*
X123685714Y-132964342D02*
X123638095Y-133059580D01*
X123638095Y-133059580D02*
X123590476Y-133107200D01*
X123590476Y-133107200D02*
X123495238Y-133154819D01*
X123495238Y-133154819D02*
X123352381Y-133154819D01*
X124019048Y-132488152D02*
X124209524Y-133154819D01*
X124209524Y-133154819D02*
X124400000Y-132678628D01*
X124400000Y-132678628D02*
X124590476Y-133154819D01*
X124590476Y-133154819D02*
X124780952Y-132488152D01*
X125161905Y-132488152D02*
X125161905Y-133154819D01*
X125161905Y-132583390D02*
X125209524Y-132535771D01*
X125209524Y-132535771D02*
X125304762Y-132488152D01*
X125304762Y-132488152D02*
X125447619Y-132488152D01*
X125447619Y-132488152D02*
X125542857Y-132535771D01*
X125542857Y-132535771D02*
X125590476Y-132631009D01*
X125590476Y-132631009D02*
X125590476Y-133154819D01*
X111242857Y-139888152D02*
X111242857Y-140888152D01*
X111242857Y-139935771D02*
X111338095Y-139888152D01*
X111338095Y-139888152D02*
X111528571Y-139888152D01*
X111528571Y-139888152D02*
X111623809Y-139935771D01*
X111623809Y-139935771D02*
X111671428Y-139983390D01*
X111671428Y-139983390D02*
X111719047Y-140078628D01*
X111719047Y-140078628D02*
X111719047Y-140364342D01*
X111719047Y-140364342D02*
X111671428Y-140459580D01*
X111671428Y-140459580D02*
X111623809Y-140507200D01*
X111623809Y-140507200D02*
X111528571Y-140554819D01*
X111528571Y-140554819D02*
X111338095Y-140554819D01*
X111338095Y-140554819D02*
X111242857Y-140507200D01*
X112052381Y-139888152D02*
X112242857Y-140554819D01*
X112242857Y-140554819D02*
X112433333Y-140078628D01*
X112433333Y-140078628D02*
X112623809Y-140554819D01*
X112623809Y-140554819D02*
X112814285Y-139888152D01*
X113195238Y-140554819D02*
X113195238Y-139888152D01*
X113195238Y-140078628D02*
X113242857Y-139983390D01*
X113242857Y-139983390D02*
X113290476Y-139935771D01*
X113290476Y-139935771D02*
X113385714Y-139888152D01*
X113385714Y-139888152D02*
X113480952Y-139888152D01*
X113576191Y-140650057D02*
X114338095Y-140650057D01*
X114528572Y-140507200D02*
X114623810Y-140554819D01*
X114623810Y-140554819D02*
X114814286Y-140554819D01*
X114814286Y-140554819D02*
X114909524Y-140507200D01*
X114909524Y-140507200D02*
X114957143Y-140411961D01*
X114957143Y-140411961D02*
X114957143Y-140364342D01*
X114957143Y-140364342D02*
X114909524Y-140269104D01*
X114909524Y-140269104D02*
X114814286Y-140221485D01*
X114814286Y-140221485D02*
X114671429Y-140221485D01*
X114671429Y-140221485D02*
X114576191Y-140173866D01*
X114576191Y-140173866D02*
X114528572Y-140078628D01*
X114528572Y-140078628D02*
X114528572Y-140031009D01*
X114528572Y-140031009D02*
X114576191Y-139935771D01*
X114576191Y-139935771D02*
X114671429Y-139888152D01*
X114671429Y-139888152D02*
X114814286Y-139888152D01*
X114814286Y-139888152D02*
X114909524Y-139935771D01*
X115290477Y-139888152D02*
X115480953Y-140554819D01*
X115480953Y-140554819D02*
X115671429Y-140078628D01*
X115671429Y-140078628D02*
X115861905Y-140554819D01*
X115861905Y-140554819D02*
X116052381Y-139888152D01*
X103907200Y-128533332D02*
X103954819Y-128390475D01*
X103954819Y-128390475D02*
X103954819Y-128152380D01*
X103954819Y-128152380D02*
X103907200Y-128057142D01*
X103907200Y-128057142D02*
X103859580Y-128009523D01*
X103859580Y-128009523D02*
X103764342Y-127961904D01*
X103764342Y-127961904D02*
X103669104Y-127961904D01*
X103669104Y-127961904D02*
X103573866Y-128009523D01*
X103573866Y-128009523D02*
X103526247Y-128057142D01*
X103526247Y-128057142D02*
X103478628Y-128152380D01*
X103478628Y-128152380D02*
X103431009Y-128342856D01*
X103431009Y-128342856D02*
X103383390Y-128438094D01*
X103383390Y-128438094D02*
X103335771Y-128485713D01*
X103335771Y-128485713D02*
X103240533Y-128533332D01*
X103240533Y-128533332D02*
X103145295Y-128533332D01*
X103145295Y-128533332D02*
X103050057Y-128485713D01*
X103050057Y-128485713D02*
X103002438Y-128438094D01*
X103002438Y-128438094D02*
X102954819Y-128342856D01*
X102954819Y-128342856D02*
X102954819Y-128104761D01*
X102954819Y-128104761D02*
X103002438Y-127961904D01*
X102954819Y-127628570D02*
X103954819Y-127390475D01*
X103954819Y-127390475D02*
X103240533Y-127199999D01*
X103240533Y-127199999D02*
X103954819Y-127009523D01*
X103954819Y-127009523D02*
X102954819Y-126771428D01*
X103954819Y-125866666D02*
X103954819Y-126438094D01*
X103954819Y-126152380D02*
X102954819Y-126152380D01*
X102954819Y-126152380D02*
X103097676Y-126247618D01*
X103097676Y-126247618D02*
X103192914Y-126342856D01*
X103192914Y-126342856D02*
X103240533Y-126438094D01*
X102561905Y-132254819D02*
X102561905Y-133064342D01*
X102561905Y-133064342D02*
X102609524Y-133159580D01*
X102609524Y-133159580D02*
X102657143Y-133207200D01*
X102657143Y-133207200D02*
X102752381Y-133254819D01*
X102752381Y-133254819D02*
X102942857Y-133254819D01*
X102942857Y-133254819D02*
X103038095Y-133207200D01*
X103038095Y-133207200D02*
X103085714Y-133159580D01*
X103085714Y-133159580D02*
X103133333Y-133064342D01*
X103133333Y-133064342D02*
X103133333Y-132254819D01*
X103609524Y-132588152D02*
X103609524Y-133588152D01*
X103609524Y-132635771D02*
X103704762Y-132588152D01*
X103704762Y-132588152D02*
X103895238Y-132588152D01*
X103895238Y-132588152D02*
X103990476Y-132635771D01*
X103990476Y-132635771D02*
X104038095Y-132683390D01*
X104038095Y-132683390D02*
X104085714Y-132778628D01*
X104085714Y-132778628D02*
X104085714Y-133064342D01*
X104085714Y-133064342D02*
X104038095Y-133159580D01*
X104038095Y-133159580D02*
X103990476Y-133207200D01*
X103990476Y-133207200D02*
X103895238Y-133254819D01*
X103895238Y-133254819D02*
X103704762Y-133254819D01*
X103704762Y-133254819D02*
X103609524Y-133207200D01*
X99159819Y-67283333D02*
X99874104Y-67283333D01*
X99874104Y-67283333D02*
X100016961Y-67330952D01*
X100016961Y-67330952D02*
X100112200Y-67426190D01*
X100112200Y-67426190D02*
X100159819Y-67569047D01*
X100159819Y-67569047D02*
X100159819Y-67664285D01*
X99159819Y-66378571D02*
X99159819Y-66569047D01*
X99159819Y-66569047D02*
X99207438Y-66664285D01*
X99207438Y-66664285D02*
X99255057Y-66711904D01*
X99255057Y-66711904D02*
X99397914Y-66807142D01*
X99397914Y-66807142D02*
X99588390Y-66854761D01*
X99588390Y-66854761D02*
X99969342Y-66854761D01*
X99969342Y-66854761D02*
X100064580Y-66807142D01*
X100064580Y-66807142D02*
X100112200Y-66759523D01*
X100112200Y-66759523D02*
X100159819Y-66664285D01*
X100159819Y-66664285D02*
X100159819Y-66473809D01*
X100159819Y-66473809D02*
X100112200Y-66378571D01*
X100112200Y-66378571D02*
X100064580Y-66330952D01*
X100064580Y-66330952D02*
X99969342Y-66283333D01*
X99969342Y-66283333D02*
X99731247Y-66283333D01*
X99731247Y-66283333D02*
X99636009Y-66330952D01*
X99636009Y-66330952D02*
X99588390Y-66378571D01*
X99588390Y-66378571D02*
X99540771Y-66473809D01*
X99540771Y-66473809D02*
X99540771Y-66664285D01*
X99540771Y-66664285D02*
X99588390Y-66759523D01*
X99588390Y-66759523D02*
X99636009Y-66807142D01*
X99636009Y-66807142D02*
X99731247Y-66854761D01*
X120759819Y-72378570D02*
X119759819Y-72378570D01*
X119759819Y-72378570D02*
X120474104Y-72045237D01*
X120474104Y-72045237D02*
X119759819Y-71711904D01*
X119759819Y-71711904D02*
X120759819Y-71711904D01*
X120093152Y-71330951D02*
X120759819Y-71092856D01*
X120093152Y-70854761D02*
X120759819Y-71092856D01*
X120759819Y-71092856D02*
X120997914Y-71188094D01*
X120997914Y-71188094D02*
X121045533Y-71235713D01*
X121045533Y-71235713D02*
X121093152Y-71330951D01*
X120664580Y-69902380D02*
X120712200Y-69949999D01*
X120712200Y-69949999D02*
X120759819Y-70092856D01*
X120759819Y-70092856D02*
X120759819Y-70188094D01*
X120759819Y-70188094D02*
X120712200Y-70330951D01*
X120712200Y-70330951D02*
X120616961Y-70426189D01*
X120616961Y-70426189D02*
X120521723Y-70473808D01*
X120521723Y-70473808D02*
X120331247Y-70521427D01*
X120331247Y-70521427D02*
X120188390Y-70521427D01*
X120188390Y-70521427D02*
X119997914Y-70473808D01*
X119997914Y-70473808D02*
X119902676Y-70426189D01*
X119902676Y-70426189D02*
X119807438Y-70330951D01*
X119807438Y-70330951D02*
X119759819Y-70188094D01*
X119759819Y-70188094D02*
X119759819Y-70092856D01*
X119759819Y-70092856D02*
X119807438Y-69949999D01*
X119807438Y-69949999D02*
X119855057Y-69902380D01*
X120759819Y-69473808D02*
X119759819Y-69473808D01*
X120759819Y-69045237D02*
X120236009Y-69045237D01*
X120236009Y-69045237D02*
X120140771Y-69092856D01*
X120140771Y-69092856D02*
X120093152Y-69188094D01*
X120093152Y-69188094D02*
X120093152Y-69330951D01*
X120093152Y-69330951D02*
X120140771Y-69426189D01*
X120140771Y-69426189D02*
X120188390Y-69473808D01*
X120759819Y-68569046D02*
X120093152Y-68569046D01*
X119759819Y-68569046D02*
X119807438Y-68616665D01*
X119807438Y-68616665D02*
X119855057Y-68569046D01*
X119855057Y-68569046D02*
X119807438Y-68521427D01*
X119807438Y-68521427D02*
X119759819Y-68569046D01*
X119759819Y-68569046D02*
X119855057Y-68569046D01*
X120093152Y-68092856D02*
X121093152Y-68092856D01*
X120140771Y-68092856D02*
X120093152Y-67997618D01*
X120093152Y-67997618D02*
X120093152Y-67807142D01*
X120093152Y-67807142D02*
X120140771Y-67711904D01*
X120140771Y-67711904D02*
X120188390Y-67664285D01*
X120188390Y-67664285D02*
X120283628Y-67616666D01*
X120283628Y-67616666D02*
X120569342Y-67616666D01*
X120569342Y-67616666D02*
X120664580Y-67664285D01*
X120664580Y-67664285D02*
X120712200Y-67711904D01*
X120712200Y-67711904D02*
X120759819Y-67807142D01*
X120759819Y-67807142D02*
X120759819Y-67997618D01*
X120759819Y-67997618D02*
X120712200Y-68092856D01*
X120855057Y-67426190D02*
X120855057Y-66664285D01*
X120712200Y-66473808D02*
X120759819Y-66330951D01*
X120759819Y-66330951D02*
X120759819Y-66092856D01*
X120759819Y-66092856D02*
X120712200Y-65997618D01*
X120712200Y-65997618D02*
X120664580Y-65949999D01*
X120664580Y-65949999D02*
X120569342Y-65902380D01*
X120569342Y-65902380D02*
X120474104Y-65902380D01*
X120474104Y-65902380D02*
X120378866Y-65949999D01*
X120378866Y-65949999D02*
X120331247Y-65997618D01*
X120331247Y-65997618D02*
X120283628Y-66092856D01*
X120283628Y-66092856D02*
X120236009Y-66283332D01*
X120236009Y-66283332D02*
X120188390Y-66378570D01*
X120188390Y-66378570D02*
X120140771Y-66426189D01*
X120140771Y-66426189D02*
X120045533Y-66473808D01*
X120045533Y-66473808D02*
X119950295Y-66473808D01*
X119950295Y-66473808D02*
X119855057Y-66426189D01*
X119855057Y-66426189D02*
X119807438Y-66378570D01*
X119807438Y-66378570D02*
X119759819Y-66283332D01*
X119759819Y-66283332D02*
X119759819Y-66045237D01*
X119759819Y-66045237D02*
X119807438Y-65902380D01*
X119759819Y-65283332D02*
X119759819Y-65092856D01*
X119759819Y-65092856D02*
X119807438Y-64997618D01*
X119807438Y-64997618D02*
X119902676Y-64902380D01*
X119902676Y-64902380D02*
X120093152Y-64854761D01*
X120093152Y-64854761D02*
X120426485Y-64854761D01*
X120426485Y-64854761D02*
X120616961Y-64902380D01*
X120616961Y-64902380D02*
X120712200Y-64997618D01*
X120712200Y-64997618D02*
X120759819Y-65092856D01*
X120759819Y-65092856D02*
X120759819Y-65283332D01*
X120759819Y-65283332D02*
X120712200Y-65378570D01*
X120712200Y-65378570D02*
X120616961Y-65473808D01*
X120616961Y-65473808D02*
X120426485Y-65521427D01*
X120426485Y-65521427D02*
X120093152Y-65521427D01*
X120093152Y-65521427D02*
X119902676Y-65473808D01*
X119902676Y-65473808D02*
X119807438Y-65378570D01*
X119807438Y-65378570D02*
X119759819Y-65283332D01*
X120759819Y-64426189D02*
X119759819Y-64426189D01*
X120664580Y-63378571D02*
X120712200Y-63426190D01*
X120712200Y-63426190D02*
X120759819Y-63569047D01*
X120759819Y-63569047D02*
X120759819Y-63664285D01*
X120759819Y-63664285D02*
X120712200Y-63807142D01*
X120712200Y-63807142D02*
X120616961Y-63902380D01*
X120616961Y-63902380D02*
X120521723Y-63949999D01*
X120521723Y-63949999D02*
X120331247Y-63997618D01*
X120331247Y-63997618D02*
X120188390Y-63997618D01*
X120188390Y-63997618D02*
X119997914Y-63949999D01*
X119997914Y-63949999D02*
X119902676Y-63902380D01*
X119902676Y-63902380D02*
X119807438Y-63807142D01*
X119807438Y-63807142D02*
X119759819Y-63664285D01*
X119759819Y-63664285D02*
X119759819Y-63569047D01*
X119759819Y-63569047D02*
X119807438Y-63426190D01*
X119807438Y-63426190D02*
X119855057Y-63378571D01*
X119855057Y-62997618D02*
X119807438Y-62949999D01*
X119807438Y-62949999D02*
X119759819Y-62854761D01*
X119759819Y-62854761D02*
X119759819Y-62616666D01*
X119759819Y-62616666D02*
X119807438Y-62521428D01*
X119807438Y-62521428D02*
X119855057Y-62473809D01*
X119855057Y-62473809D02*
X119950295Y-62426190D01*
X119950295Y-62426190D02*
X120045533Y-62426190D01*
X120045533Y-62426190D02*
X120188390Y-62473809D01*
X120188390Y-62473809D02*
X120759819Y-63045237D01*
X120759819Y-63045237D02*
X120759819Y-62426190D01*
X120188390Y-61854761D02*
X120140771Y-61949999D01*
X120140771Y-61949999D02*
X120093152Y-61997618D01*
X120093152Y-61997618D02*
X119997914Y-62045237D01*
X119997914Y-62045237D02*
X119950295Y-62045237D01*
X119950295Y-62045237D02*
X119855057Y-61997618D01*
X119855057Y-61997618D02*
X119807438Y-61949999D01*
X119807438Y-61949999D02*
X119759819Y-61854761D01*
X119759819Y-61854761D02*
X119759819Y-61664285D01*
X119759819Y-61664285D02*
X119807438Y-61569047D01*
X119807438Y-61569047D02*
X119855057Y-61521428D01*
X119855057Y-61521428D02*
X119950295Y-61473809D01*
X119950295Y-61473809D02*
X119997914Y-61473809D01*
X119997914Y-61473809D02*
X120093152Y-61521428D01*
X120093152Y-61521428D02*
X120140771Y-61569047D01*
X120140771Y-61569047D02*
X120188390Y-61664285D01*
X120188390Y-61664285D02*
X120188390Y-61854761D01*
X120188390Y-61854761D02*
X120236009Y-61949999D01*
X120236009Y-61949999D02*
X120283628Y-61997618D01*
X120283628Y-61997618D02*
X120378866Y-62045237D01*
X120378866Y-62045237D02*
X120569342Y-62045237D01*
X120569342Y-62045237D02*
X120664580Y-61997618D01*
X120664580Y-61997618D02*
X120712200Y-61949999D01*
X120712200Y-61949999D02*
X120759819Y-61854761D01*
X120759819Y-61854761D02*
X120759819Y-61664285D01*
X120759819Y-61664285D02*
X120712200Y-61569047D01*
X120712200Y-61569047D02*
X120664580Y-61521428D01*
X120664580Y-61521428D02*
X120569342Y-61473809D01*
X120569342Y-61473809D02*
X120378866Y-61473809D01*
X120378866Y-61473809D02*
X120283628Y-61521428D01*
X120283628Y-61521428D02*
X120236009Y-61569047D01*
X120236009Y-61569047D02*
X120188390Y-61664285D01*
X119334819Y-84809523D02*
X120049104Y-84809523D01*
X120049104Y-84809523D02*
X120191961Y-84857142D01*
X120191961Y-84857142D02*
X120287200Y-84952380D01*
X120287200Y-84952380D02*
X120334819Y-85095237D01*
X120334819Y-85095237D02*
X120334819Y-85190475D01*
X120334819Y-83809523D02*
X120334819Y-84380951D01*
X120334819Y-84095237D02*
X119334819Y-84095237D01*
X119334819Y-84095237D02*
X119477676Y-84190475D01*
X119477676Y-84190475D02*
X119572914Y-84285713D01*
X119572914Y-84285713D02*
X119620533Y-84380951D01*
X119334819Y-83190475D02*
X119334819Y-83095237D01*
X119334819Y-83095237D02*
X119382438Y-82999999D01*
X119382438Y-82999999D02*
X119430057Y-82952380D01*
X119430057Y-82952380D02*
X119525295Y-82904761D01*
X119525295Y-82904761D02*
X119715771Y-82857142D01*
X119715771Y-82857142D02*
X119953866Y-82857142D01*
X119953866Y-82857142D02*
X120144342Y-82904761D01*
X120144342Y-82904761D02*
X120239580Y-82952380D01*
X120239580Y-82952380D02*
X120287200Y-82999999D01*
X120287200Y-82999999D02*
X120334819Y-83095237D01*
X120334819Y-83095237D02*
X120334819Y-83190475D01*
X120334819Y-83190475D02*
X120287200Y-83285713D01*
X120287200Y-83285713D02*
X120239580Y-83333332D01*
X120239580Y-83333332D02*
X120144342Y-83380951D01*
X120144342Y-83380951D02*
X119953866Y-83428570D01*
X119953866Y-83428570D02*
X119715771Y-83428570D01*
X119715771Y-83428570D02*
X119525295Y-83380951D01*
X119525295Y-83380951D02*
X119430057Y-83333332D01*
X119430057Y-83333332D02*
X119382438Y-83285713D01*
X119382438Y-83285713D02*
X119334819Y-83190475D01*
%TO.C,SW2*%
D14*
X120850000Y-124850000D02*
X120850000Y-129350000D01*
X123350000Y-130600000D02*
X124850000Y-130600000D01*
X124850000Y-123600000D02*
X123350000Y-123600000D01*
X127350000Y-129350000D02*
X127350000Y-124850000D01*
%TO.C,J11*%
X109220000Y-138980000D02*
X109220000Y-137600000D01*
X110600000Y-138980000D02*
X109220000Y-138980000D01*
X111870000Y-136220000D02*
X117060000Y-136220000D01*
X111870000Y-138980000D02*
X111870000Y-136220000D01*
X111870000Y-138980000D02*
X117060000Y-138980000D01*
X117060000Y-138980000D02*
X117060000Y-136220000D01*
%TO.C,SW1*%
X100150000Y-124850000D02*
X100150000Y-129350000D01*
X102650000Y-130600000D02*
X104150000Y-130600000D01*
X104150000Y-123600000D02*
X102650000Y-123600000D01*
X106650000Y-129350000D02*
X106650000Y-124850000D01*
%TO.C,J5*%
X92080000Y-59630000D02*
X92080000Y-58250000D01*
X93460000Y-59630000D02*
X92080000Y-59630000D01*
X94730000Y-56870000D02*
X127860000Y-56870000D01*
X94730000Y-59630000D02*
X94730000Y-56870000D01*
X94730000Y-59630000D02*
X127860000Y-59630000D01*
X127860000Y-59630000D02*
X127860000Y-56870000D01*
%TO.C,J4*%
X92040000Y-77380000D02*
X92040000Y-76000000D01*
X93420000Y-77380000D02*
X92040000Y-77380000D01*
X94690000Y-74620000D02*
X127820000Y-74620000D01*
X94690000Y-77380000D02*
X94690000Y-74620000D01*
X94690000Y-77380000D02*
X127820000Y-77380000D01*
X127820000Y-77380000D02*
X127820000Y-74620000D01*
%TO.C,J6*%
X100545000Y-63090000D02*
X101190000Y-63090000D01*
X100545000Y-70810000D02*
X100545000Y-63090000D01*
X101190000Y-70810000D02*
X100545000Y-70810000D01*
X118820000Y-63090000D02*
X119465000Y-63090000D01*
X119465000Y-63090000D02*
X119465000Y-70810000D01*
X119465000Y-70810000D02*
X118820000Y-70810000D01*
X101185000Y-71760000D02*
X100715000Y-72100000D01*
X100715000Y-71420000D01*
X101185000Y-71760000D01*
G36*
X101185000Y-71760000D02*
G01*
X100715000Y-72100000D01*
X100715000Y-71420000D01*
X101185000Y-71760000D01*
G37*
%TO.C,J10*%
X108500000Y-82620000D02*
X108500000Y-85380000D01*
X116230000Y-82620000D02*
X108500000Y-82620000D01*
X116230000Y-82620000D02*
X116230000Y-85380000D01*
X116230000Y-85380000D02*
X108500000Y-85380000D01*
X117500000Y-82620000D02*
X118880000Y-82620000D01*
X118880000Y-82620000D02*
X118880000Y-84000000D01*
%TD*%
M02*
