M48
; DRILL file KiCad 10.0.1 date 2026-07-10T20:33:32
; FORMAT={-:-/ absolute / metric / decimal}
; #@! TF.CreationDate,2026-07-10T20:33:32+09:00
; #@! TF.GenerationSoftware,Kicad,Pcbnew,10.0.1
; #@! TF.FileFunction,Plated,1,2,PTH
FMAT,2
METRIC
; #@! TA.AperFunction,Plated,PTH,ViaDrill
T1C0.300
; #@! TA.AperFunction,Plated,PTH,ComponentDrill
T2C0.700
; #@! TA.AperFunction,Plated,PTH,ComponentDrill
T3C1.000
; #@! TA.AperFunction,Plated,PTH,ComponentDrill
T4C1.100
; #@! TA.AperFunction,Plated,PTH,ComponentDrill
T5C3.200
%
G90
G05
T1
X93.4Y-67.9
X96.7Y-64.1
X97.2Y-60.7
X97.4Y-73.2
X98.25Y-119.75
X101.75Y-93.5
X101.75Y-107.25
X105.46Y-121.0
X113.75Y-107.25
X114.25Y-91.0
X114.25Y-97.75
X116.5Y-88.5
X117.0Y-97.75
X117.5Y-81.25
X119.25Y-96.75
X120.0Y-81.25
X120.0Y-88.0
X122.7Y-60.9
X122.75Y-81.5
X122.75Y-88.5
X129.75Y-97.5
T2
X101.59Y-118.0
X101.65Y-120.5
X109.21Y-118.0
X109.27Y-120.5
T3
X92.5Y-84.0
X93.0Y-137.5
X93.42Y-76.0
X93.46Y-58.25
X95.96Y-76.0
X96.0Y-58.25
X98.5Y-76.0
X98.54Y-58.25
X101.04Y-76.0
X101.08Y-58.25
X103.58Y-76.0
X103.62Y-58.25
X106.12Y-76.0
X106.16Y-58.25
X108.66Y-76.0
X108.7Y-58.25
X109.18Y-94.5
X109.18Y-109.75
X109.88Y-84.0
X110.6Y-137.6
X111.16Y-132.8
X111.2Y-76.0
X111.24Y-58.25
X111.72Y-94.5
X111.72Y-109.75
X112.42Y-84.0
X113.14Y-137.6
X113.7Y-132.8
X113.74Y-76.0
X113.78Y-58.25
X114.26Y-94.5
X114.26Y-109.75
X114.96Y-84.0
X115.68Y-137.6
X116.24Y-132.8
X116.28Y-76.0
X116.32Y-58.25
X116.8Y-94.5
X116.8Y-109.75
X117.5Y-84.0
X117.7Y-118.7
X118.82Y-76.0
X118.86Y-58.25
X119.34Y-94.5
X119.34Y-109.75
X120.24Y-118.7
X121.36Y-76.0
X121.4Y-58.25
X121.88Y-94.5
X121.88Y-109.75
X122.78Y-118.7
X123.9Y-76.0
X123.94Y-58.25
X124.42Y-94.5
X124.42Y-109.75
X126.44Y-76.0
X126.48Y-58.25
X126.96Y-94.5
X126.96Y-109.75
X129.5Y-94.5
X129.5Y-109.75
T4
X101.15Y-123.85
X101.15Y-130.35
X105.65Y-123.85
X105.65Y-130.35
X121.85Y-123.85
X121.85Y-130.35
X126.35Y-123.85
X126.35Y-130.35
T5
X88.0Y-54.0
X88.0Y-146.0
X131.0Y-54.0
X131.0Y-146.0
M30
