%TF.GenerationSoftware,KiCad,Pcbnew,10.0.1*%
%TF.CreationDate,2026-07-10T20:33:36+09:00*%
%TF.ProjectId,pong_pt1,706f6e67-5f70-4743-912e-6b696361645f,rev?*%
%TF.SameCoordinates,Original*%
%TF.FileFunction,Copper,L2,Bot*%
%TF.FilePolarity,Positive*%
%FSLAX46Y46*%
G04 Gerber Fmt 4.6, Leading zero omitted, Abs format (unit mm)*
G04 Created by KiCad (PCBNEW 10.0.1) date 2026-07-10 20:33:36*
%MOMM*%
%LPD*%
G01*
G04 APERTURE LIST*
%TA.AperFunction,ComponentPad*%
%ADD10C,2.000000*%
%TD*%
%TA.AperFunction,ComponentPad*%
%ADD11R,1.700000X1.700000*%
%TD*%
%TA.AperFunction,ComponentPad*%
%ADD12C,1.700000*%
%TD*%
%TA.AperFunction,ComponentPad*%
%ADD13C,5.600000*%
%TD*%
%TA.AperFunction,ComponentPad*%
%ADD14C,1.400000*%
%TD*%
%TA.AperFunction,ViaPad*%
%ADD15C,0.600000*%
%TD*%
%TA.AperFunction,Conductor*%
%ADD16C,0.300000*%
%TD*%
G04 APERTURE END LIST*
D10*
%TO.P,SW2,1,1_1*%
%TO.N,/down*%
X121850000Y-130350000D03*
X121850000Y-123850000D03*
%TO.P,SW2,2,2_2*%
%TO.N,/COMM*%
X126350000Y-130350000D03*
X126350000Y-123850000D03*
%TD*%
D11*
%TO.P,J11,1,Pin_1_1*%
%TO.N,/Bat+*%
X110600000Y-137600000D03*
D12*
%TO.P,J11,2,Pin_2_2*%
%TO.N,/Vi*%
X113140000Y-137600000D03*
%TO.P,J11,3,Pin_3_3*%
X115680000Y-137600000D03*
%TD*%
D10*
%TO.P,SW1,1,1_1*%
%TO.N,/up*%
X101150000Y-130350000D03*
X101150000Y-123850000D03*
%TO.P,SW1,2,2_2*%
%TO.N,/COMM*%
X105650000Y-130350000D03*
X105650000Y-123850000D03*
%TD*%
D13*
%TO.P,H6,1,1_1*%
%TO.N,GND*%
X88000000Y-146000000D03*
%TD*%
%TO.P,H1,1,1_1*%
%TO.N,GND*%
X131000000Y-146000000D03*
%TD*%
%TO.P,H2,1,1_1*%
%TO.N,GND*%
X131000000Y-54000000D03*
%TD*%
D11*
%TO.P,J5,1,Pin_1_1*%
%TO.N,+3V3*%
X93460000Y-58250000D03*
D12*
%TO.P,J5,2,Pin_2_2*%
%TO.N,/clk*%
X96000000Y-58250000D03*
%TO.P,J5,3,Pin_3_3*%
%TO.N,/enable*%
X98540000Y-58250000D03*
%TO.P,J5,4,Pin_4_4*%
%TO.N,/reset*%
X101080000Y-58250000D03*
%TO.P,J5,5,Pin_5_5*%
%TO.N,/down*%
X103620000Y-58250000D03*
%TO.P,J5,6,Pin_6_6*%
%TO.N,/up*%
X106160000Y-58250000D03*
%TO.P,J5,7,Pin_7_7*%
%TO.N,GND*%
X108700000Y-58250000D03*
%TO.P,J5,8,Pin_8_8*%
%TO.N,unconnected-(J5-Pin_8-Pad8)*%
X111240000Y-58250000D03*
%TO.P,J5,9,Pin_9_9*%
%TO.N,unconnected-(J5-Pin_9-Pad9)*%
X113780000Y-58250000D03*
%TO.P,J5,10,Pin_10_10*%
%TO.N,unconnected-(J5-Pin_10-Pad10)*%
X116320000Y-58250000D03*
%TO.P,J5,11,Pin_11_11*%
%TO.N,+3V3*%
X118860000Y-58250000D03*
%TO.P,J5,12,Pin_12_12*%
%TO.N,unconnected-(J5-Pin_12-Pad12)*%
X121400000Y-58250000D03*
%TO.P,J5,13,Pin_13_13*%
%TO.N,unconnected-(J5-Pin_13-Pad13)*%
X123940000Y-58250000D03*
%TO.P,J5,14,Pin_14_14*%
%TO.N,unconnected-(J5-Pin_14-Pad14)*%
X126480000Y-58250000D03*
%TD*%
D11*
%TO.P,J4,1,Pin_1_1*%
%TO.N,Net-(J4-Pin_1)*%
X93420000Y-76000000D03*
D12*
%TO.P,J4,2,Pin_2_2*%
%TO.N,Net-(J4-Pin_2)*%
X95960000Y-76000000D03*
%TO.P,J4,3,Pin_3_3*%
%TO.N,Net-(J4-Pin_3)*%
X98500000Y-76000000D03*
%TO.P,J4,4,Pin_4_4*%
%TO.N,Net-(J4-Pin_4)*%
X101040000Y-76000000D03*
%TO.P,J4,5,Pin_5_5*%
%TO.N,Net-(J4-Pin_5)*%
X103580000Y-76000000D03*
%TO.P,J4,6,Pin_6_6*%
%TO.N,Net-(J4-Pin_6)*%
X106120000Y-76000000D03*
%TO.P,J4,7,Pin_7_7*%
%TO.N,Net-(J4-Pin_7)*%
X108660000Y-76000000D03*
%TO.P,J4,8,Pin_8_8*%
%TO.N,+3V3*%
X111200000Y-76000000D03*
%TO.P,J4,9,Pin_9_9*%
%TO.N,GND*%
X113740000Y-76000000D03*
%TO.P,J4,10,Pin_10_10*%
%TO.N,/rgb*%
X116280000Y-76000000D03*
%TO.P,J4,11,Pin_11_11*%
%TO.N,/vsync*%
X118820000Y-76000000D03*
%TO.P,J4,12,Pin_12_12*%
%TO.N,/hsync*%
X121360000Y-76000000D03*
%TO.P,J4,13,Pin_13_13*%
%TO.N,/p_tick*%
X123900000Y-76000000D03*
%TO.P,J4,14,Pin_14_14*%
%TO.N,GND*%
X126440000Y-76000000D03*
%TD*%
D13*
%TO.P,H5,1,1_1*%
%TO.N,GND*%
X88000000Y-54000000D03*
%TD*%
D11*
%TO.P,J10,1,Pin_1_1*%
%TO.N,/SDA*%
X117500000Y-84000000D03*
D12*
%TO.P,J10,2,Pin_2_2*%
%TO.N,/SCL*%
X114960000Y-84000000D03*
%TO.P,J10,3,Pin_3_3*%
%TO.N,GND*%
X112420000Y-84000000D03*
%TO.P,J10,4,Pin_4_4*%
%TO.N,+3V3*%
X109880000Y-84000000D03*
%TD*%
D11*
%TO.P,J1,1,Pin_1_1*%
%TO.N,+5V*%
X129500000Y-109750000D03*
D12*
%TO.P,J1,2,Pin_2_2*%
%TO.N,GND*%
X126960000Y-109750000D03*
%TO.P,J1,3,Pin_3_3*%
%TO.N,+3V3*%
X124420000Y-109750000D03*
%TO.P,J1,4,Pin_4_4*%
%TO.N,/clk*%
X121880000Y-109750000D03*
%TO.P,J1,5,Pin_5_5*%
%TO.N,unconnected-(J1-Pin_5-Pad5)*%
X119340000Y-109750000D03*
%TO.P,J1,6,Pin_6_6*%
%TO.N,/rgb*%
X116800000Y-109750000D03*
%TO.P,J1,7,Pin_7_7*%
%TO.N,/vsync*%
X114260000Y-109750000D03*
%TO.P,J1,8,Pin_8_8*%
%TO.N,/hsync*%
X111720000Y-109750000D03*
%TO.P,J1,9,Pin_9_9*%
%TO.N,/p_tick*%
X109180000Y-109750000D03*
%TD*%
D11*
%TO.P,J2,1,Pin_1_1*%
%TO.N,unconnected-(J2-Pin_1-Pad1)*%
X129500000Y-94500000D03*
D12*
%TO.P,J2,2,Pin_2_2*%
%TO.N,unconnected-(J2-Pin_2-Pad2)*%
X126960000Y-94500000D03*
%TO.P,J2,3,Pin_3_3*%
%TO.N,unconnected-(J2-Pin_3-Pad3)*%
X124420000Y-94500000D03*
%TO.P,J2,4,Pin_4_4*%
%TO.N,unconnected-(J2-Pin_4-Pad4)*%
X121880000Y-94500000D03*
%TO.P,J2,5,Pin_5_5*%
%TO.N,/SDA*%
X119340000Y-94500000D03*
%TO.P,J2,6,Pin_6_6*%
%TO.N,/SCL*%
X116800000Y-94500000D03*
%TO.P,J2,7,Pin_7_7*%
%TO.N,unconnected-(J2-Pin_7-Pad7)*%
X114260000Y-94500000D03*
%TO.P,J2,8,Pin_8_8*%
%TO.N,/reset*%
X111720000Y-94500000D03*
%TO.P,J2,9,Pin_9_9*%
%TO.N,/enable*%
X109180000Y-94500000D03*
%TD*%
D11*
%TO.P,J12,1,Pin_1_1*%
%TO.N,/Bat+*%
X93000000Y-137500000D03*
%TD*%
%TO.P,J13,1,Pin_1_1*%
%TO.N,GND*%
X92500000Y-84000000D03*
%TD*%
%TO.P,J7,1,Pin_1_1*%
%TO.N,/Vi*%
X116240000Y-132800000D03*
D12*
%TO.P,J7,2,Pin_2_2*%
%TO.N,GND*%
X113700000Y-132800000D03*
%TO.P,J7,3,Pin_3_3*%
%TO.N,+5V*%
X111160000Y-132800000D03*
%TD*%
D14*
%TO.P,R2,1*%
%TO.N,/down*%
X101590000Y-118000000D03*
%TO.P,R2,2*%
%TO.N,GND*%
X109210000Y-118000000D03*
%TD*%
%TO.P,R1,1*%
%TO.N,/up*%
X101650000Y-120500000D03*
%TO.P,R1,2*%
%TO.N,GND*%
X109270000Y-120500000D03*
%TD*%
D11*
%TO.P,J14,1,Pin_1_1*%
%TO.N,+3V3*%
X117700000Y-118700000D03*
D12*
%TO.P,J14,2,Pin_2_2*%
%TO.N,/COMM*%
X120240000Y-118700000D03*
%TO.P,J14,3,Pin_3_3*%
%TO.N,GND*%
X122780000Y-118700000D03*
%TD*%
D15*
%TO.N,GND*%
X122700000Y-60900000D03*
X98250000Y-119750000D03*
X116500000Y-88500000D03*
X120000000Y-81250000D03*
X114250000Y-91000000D03*
X97400000Y-73200000D03*
X129750000Y-97500000D03*
X93400000Y-67900000D03*
X101750000Y-107250000D03*
X117000000Y-97750000D03*
X120000000Y-88000000D03*
X105460000Y-121000000D03*
X114250000Y-97750000D03*
X101750000Y-93500000D03*
X119250000Y-96750000D03*
X96700000Y-64100000D03*
X122750000Y-81500000D03*
X97200000Y-60700000D03*
X122750000Y-88500000D03*
X113750000Y-107250000D03*
X117500000Y-81250000D03*
%TD*%
%TO.N,+3V3*%
D16*
X124420000Y-109750000D02*
X124420000Y-106170000D01*
X109880000Y-81120000D02*
X109880000Y-84000000D01*
X109125000Y-100875000D02*
X104500000Y-96250000D01*
X111200000Y-69700000D02*
X111200000Y-76000000D01*
X104500000Y-89380000D02*
X109880000Y-84000000D01*
X93460000Y-58250000D02*
X93460000Y-64460000D01*
X111200000Y-79800000D02*
X109880000Y-81120000D01*
X93460000Y-64460000D02*
X95750000Y-66750000D01*
X108250000Y-66750000D02*
X111200000Y-69700000D01*
X117700000Y-116470000D02*
X117700000Y-118700000D01*
X111200000Y-76000000D02*
X111200000Y-79800000D01*
X124420000Y-109750000D02*
X117700000Y-116470000D01*
X124420000Y-106170000D02*
X119125000Y-100875000D01*
X104500000Y-96250000D02*
X104500000Y-89380000D01*
X119125000Y-100875000D02*
X109125000Y-100875000D01*
X95750000Y-66750000D02*
X108250000Y-66750000D01*
%TO.N,/SDA*%
X119340000Y-94500000D02*
X119340000Y-90590000D01*
X119340000Y-90590000D02*
X117500000Y-88750000D01*
X117500000Y-88750000D02*
X117500000Y-84000000D01*
%TO.N,/SCL*%
X116800000Y-94500000D02*
X116800000Y-91050000D01*
X114960000Y-89210000D02*
X114960000Y-84000000D01*
X116800000Y-91050000D02*
X114960000Y-89210000D01*
%TO.N,+5V*%
X116660000Y-127300000D02*
X111160000Y-132800000D01*
X126500000Y-127300000D02*
X116660000Y-127300000D01*
X129500000Y-124300000D02*
X126500000Y-127300000D01*
X129500000Y-109750000D02*
X129500000Y-124300000D01*
%TD*%
%TA.AperFunction,Conductor*%
%TO.N,GND*%
G36*
X116084340Y-84888068D02*
G01*
X116140274Y-84929939D01*
X116157189Y-84960917D01*
X116206202Y-85092328D01*
X116206206Y-85092335D01*
X116292452Y-85207544D01*
X116292455Y-85207547D01*
X116407664Y-85293793D01*
X116407671Y-85293797D01*
X116417243Y-85297367D01*
X116542517Y-85344091D01*
X116602127Y-85350500D01*
X116725500Y-85350499D01*
X116792539Y-85370183D01*
X116838294Y-85422987D01*
X116849500Y-85474499D01*
X116849500Y-88814069D01*
X116866966Y-88901873D01*
X116874499Y-88939744D01*
X116885097Y-88965331D01*
X116923535Y-89058127D01*
X116994723Y-89164669D01*
X116994726Y-89164673D01*
X116994727Y-89164674D01*
X118653181Y-90823127D01*
X118686666Y-90884450D01*
X118689500Y-90910808D01*
X118689500Y-93240382D01*
X118669815Y-93307421D01*
X118635408Y-93341099D01*
X118636125Y-93342085D01*
X118460213Y-93469890D01*
X118309890Y-93620213D01*
X118184949Y-93792182D01*
X118180484Y-93800946D01*
X118132509Y-93851742D01*
X118064688Y-93868536D01*
X117998553Y-93845998D01*
X117959516Y-93800946D01*
X117955050Y-93792182D01*
X117830109Y-93620213D01*
X117679786Y-93469890D01*
X117503875Y-93342085D01*
X117504851Y-93340740D01*
X117462834Y-93294295D01*
X117450500Y-93240382D01*
X117450500Y-90985928D01*
X117425502Y-90860261D01*
X117425501Y-90860260D01*
X117425501Y-90860256D01*
X117376465Y-90741873D01*
X117305277Y-90635331D01*
X117305275Y-90635329D01*
X117305273Y-90635326D01*
X115646819Y-88976872D01*
X115613334Y-88915549D01*
X115610500Y-88889191D01*
X115610500Y-85259617D01*
X115630185Y-85192578D01*
X115664592Y-85158902D01*
X115663874Y-85157914D01*
X115667811Y-85155053D01*
X115667816Y-85155051D01*
X115839792Y-85030104D01*
X115953329Y-84916566D01*
X116014648Y-84883084D01*
X116084340Y-84888068D01*
G37*
%TD.AperFunction*%
%TA.AperFunction,Conductor*%
G36*
X133642539Y-51620185D02*
G01*
X133688294Y-51672989D01*
X133699500Y-51724500D01*
X133699500Y-148275500D01*
X133679815Y-148342539D01*
X133627011Y-148388294D01*
X133575500Y-148399500D01*
X85724500Y-148399500D01*
X85657461Y-148379815D01*
X85611706Y-148327011D01*
X85600500Y-148275500D01*
X85600500Y-136602135D01*
X91649500Y-136602135D01*
X91649500Y-138397870D01*
X91649501Y-138397876D01*
X91655908Y-138457483D01*
X91706202Y-138592328D01*
X91706206Y-138592335D01*
X91792452Y-138707544D01*
X91792455Y-138707547D01*
X91907664Y-138793793D01*
X91907671Y-138793797D01*
X92042517Y-138844091D01*
X92042516Y-138844091D01*
X92049444Y-138844835D01*
X92102127Y-138850500D01*
X93897872Y-138850499D01*
X93957483Y-138844091D01*
X94092331Y-138793796D01*
X94207546Y-138707546D01*
X94293796Y-138592331D01*
X94344091Y-138457483D01*
X94350500Y-138397873D01*
X94350499Y-136702135D01*
X109249500Y-136702135D01*
X109249500Y-138497870D01*
X109249501Y-138497876D01*
X109255908Y-138557483D01*
X109306202Y-138692328D01*
X109306206Y-138692335D01*
X109392452Y-138807544D01*
X109392455Y-138807547D01*
X109507664Y-138893793D01*
X109507671Y-138893797D01*
X109642517Y-138944091D01*
X109642516Y-138944091D01*
X109649444Y-138944835D01*
X109702127Y-138950500D01*
X111497872Y-138950499D01*
X111557483Y-138944091D01*
X111692331Y-138893796D01*
X111807546Y-138807546D01*
X111893796Y-138692331D01*
X111942810Y-138560916D01*
X111984681Y-138504984D01*
X112050145Y-138480566D01*
X112118418Y-138495417D01*
X112146673Y-138516569D01*
X112260213Y-138630109D01*
X112432179Y-138755048D01*
X112432181Y-138755049D01*
X112432184Y-138755051D01*
X112621588Y-138851557D01*
X112823757Y-138917246D01*
X113033713Y-138950500D01*
X113033714Y-138950500D01*
X113246286Y-138950500D01*
X113246287Y-138950500D01*
X113456243Y-138917246D01*
X113658412Y-138851557D01*
X113847816Y-138755051D01*
X113913200Y-138707547D01*
X114019786Y-138630109D01*
X114019788Y-138630106D01*
X114019792Y-138630104D01*
X114170104Y-138479792D01*
X114170106Y-138479788D01*
X114170109Y-138479786D01*
X114295048Y-138307820D01*
X114295047Y-138307820D01*
X114295051Y-138307816D01*
X114299514Y-138299054D01*
X114347488Y-138248259D01*
X114415308Y-138231463D01*
X114481444Y-138253999D01*
X114520486Y-138299056D01*
X114524951Y-138307820D01*
X114649890Y-138479786D01*
X114800213Y-138630109D01*
X114972179Y-138755048D01*
X114972181Y-138755049D01*
X114972184Y-138755051D01*
X115161588Y-138851557D01*
X115363757Y-138917246D01*
X115573713Y-138950500D01*
X115573714Y-138950500D01*
X115786286Y-138950500D01*
X115786287Y-138950500D01*
X115996243Y-138917246D01*
X116198412Y-138851557D01*
X116387816Y-138755051D01*
X116453200Y-138707547D01*
X116559786Y-138630109D01*
X116559788Y-138630106D01*
X116559792Y-138630104D01*
X116710104Y-138479792D01*
X116710106Y-138479788D01*
X116710109Y-138479786D01*
X116835048Y-138307820D01*
X116835047Y-138307820D01*
X116835051Y-138307816D01*
X116931557Y-138118412D01*
X116997246Y-137916243D01*
X117030500Y-137706287D01*
X117030500Y-137493713D01*
X116997246Y-137283757D01*
X116931557Y-137081588D01*
X116835051Y-136892184D01*
X116835049Y-136892181D01*
X116835048Y-136892179D01*
X116710109Y-136720213D01*
X116559786Y-136569890D01*
X116387820Y-136444951D01*
X116198414Y-136348444D01*
X116198413Y-136348443D01*
X116198412Y-136348443D01*
X115996243Y-136282754D01*
X115996241Y-136282753D01*
X115996240Y-136282753D01*
X115834957Y-136257208D01*
X115786287Y-136249500D01*
X115573713Y-136249500D01*
X115525042Y-136257208D01*
X115363760Y-136282753D01*
X115161585Y-136348444D01*
X114972179Y-136444951D01*
X114800213Y-136569890D01*
X114649890Y-136720213D01*
X114524949Y-136892182D01*
X114520484Y-136900946D01*
X114472509Y-136951742D01*
X114404688Y-136968536D01*
X114338553Y-136945998D01*
X114299516Y-136900946D01*
X114295050Y-136892182D01*
X114170109Y-136720213D01*
X114019786Y-136569890D01*
X113847820Y-136444951D01*
X113658414Y-136348444D01*
X113658413Y-136348443D01*
X113658412Y-136348443D01*
X113456243Y-136282754D01*
X113456241Y-136282753D01*
X113456240Y-136282753D01*
X113294957Y-136257208D01*
X113246287Y-136249500D01*
X113033713Y-136249500D01*
X112985042Y-136257208D01*
X112823760Y-136282753D01*
X112621585Y-136348444D01*
X112432179Y-136444951D01*
X112260215Y-136569889D01*
X112146673Y-136683431D01*
X112085350Y-136716915D01*
X112015658Y-136711931D01*
X111959725Y-136670059D01*
X111942810Y-136639082D01*
X111893797Y-136507671D01*
X111893793Y-136507664D01*
X111807547Y-136392455D01*
X111807544Y-136392452D01*
X111692335Y-136306206D01*
X111692328Y-136306202D01*
X111557482Y-136255908D01*
X111557483Y-136255908D01*
X111497883Y-136249501D01*
X111497881Y-136249500D01*
X111497873Y-136249500D01*
X111497864Y-136249500D01*
X109702129Y-136249500D01*
X109702123Y-136249501D01*
X109642516Y-136255908D01*
X109507671Y-136306202D01*
X109507664Y-136306206D01*
X109392455Y-136392452D01*
X109392452Y-136392455D01*
X109306206Y-136507664D01*
X109306202Y-136507671D01*
X109255908Y-136642517D01*
X109249501Y-136702116D01*
X109249500Y-136702135D01*
X94350499Y-136702135D01*
X94350499Y-136602128D01*
X94344091Y-136542517D01*
X94331094Y-136507671D01*
X94293797Y-136407671D01*
X94293793Y-136407664D01*
X94207547Y-136292455D01*
X94207544Y-136292452D01*
X94092335Y-136206206D01*
X94092328Y-136206202D01*
X93957482Y-136155908D01*
X93957483Y-136155908D01*
X93897883Y-136149501D01*
X93897881Y-136149500D01*
X93897873Y-136149500D01*
X93897864Y-136149500D01*
X92102129Y-136149500D01*
X92102123Y-136149501D01*
X92042516Y-136155908D01*
X91907671Y-136206202D01*
X91907664Y-136206206D01*
X91792455Y-136292452D01*
X91792452Y-136292455D01*
X91706206Y-136407664D01*
X91706202Y-136407671D01*
X91655908Y-136542517D01*
X91652965Y-136569896D01*
X91649501Y-136602123D01*
X91649500Y-136602135D01*
X85600500Y-136602135D01*
X85600500Y-130231902D01*
X99649500Y-130231902D01*
X99649500Y-130468097D01*
X99686446Y-130701368D01*
X99759433Y-130925996D01*
X99866657Y-131136433D01*
X100005483Y-131327510D01*
X100172490Y-131494517D01*
X100363567Y-131633343D01*
X100462991Y-131684002D01*
X100574003Y-131740566D01*
X100574005Y-131740566D01*
X100574008Y-131740568D01*
X100664252Y-131769890D01*
X100798631Y-131813553D01*
X101031903Y-131850500D01*
X101031908Y-131850500D01*
X101268097Y-131850500D01*
X101501368Y-131813553D01*
X101725992Y-131740568D01*
X101936433Y-131633343D01*
X102127510Y-131494517D01*
X102294517Y-131327510D01*
X102433343Y-131136433D01*
X102540568Y-130925992D01*
X102613553Y-130701368D01*
X102650500Y-130468097D01*
X102650500Y-130231902D01*
X104149500Y-130231902D01*
X104149500Y-130468097D01*
X104186446Y-130701368D01*
X104259433Y-130925996D01*
X104366657Y-131136433D01*
X104505483Y-131327510D01*
X104672490Y-131494517D01*
X104863567Y-131633343D01*
X104962991Y-131684002D01*
X105074003Y-131740566D01*
X105074005Y-131740566D01*
X105074008Y-131740568D01*
X105164252Y-131769890D01*
X105298631Y-131813553D01*
X105531903Y-131850500D01*
X105531908Y-131850500D01*
X105768097Y-131850500D01*
X106001368Y-131813553D01*
X106225992Y-131740568D01*
X106436433Y-131633343D01*
X106627510Y-131494517D01*
X106794517Y-131327510D01*
X106933343Y-131136433D01*
X107040568Y-130925992D01*
X107113553Y-130701368D01*
X107150500Y-130468097D01*
X107150500Y-130231902D01*
X107113553Y-129998631D01*
X107040566Y-129774003D01*
X106933342Y-129563566D01*
X106794517Y-129372490D01*
X106627510Y-129205483D01*
X106436433Y-129066657D01*
X106225996Y-128959433D01*
X106001368Y-128886446D01*
X105768097Y-128849500D01*
X105768092Y-128849500D01*
X105531908Y-128849500D01*
X105531903Y-128849500D01*
X105298631Y-128886446D01*
X105074003Y-128959433D01*
X104863566Y-129066657D01*
X104754550Y-129145862D01*
X104672490Y-129205483D01*
X104672488Y-129205485D01*
X104672487Y-129205485D01*
X104505485Y-129372487D01*
X104505485Y-129372488D01*
X104505483Y-129372490D01*
X104445862Y-129454550D01*
X104366657Y-129563566D01*
X104259433Y-129774003D01*
X104186446Y-129998631D01*
X104149500Y-130231902D01*
X102650500Y-130231902D01*
X102613553Y-129998631D01*
X102540566Y-129774003D01*
X102433342Y-129563566D01*
X102294517Y-129372490D01*
X102127510Y-129205483D01*
X101936433Y-129066657D01*
X101725996Y-128959433D01*
X101501368Y-128886446D01*
X101268097Y-128849500D01*
X101268092Y-128849500D01*
X101031908Y-128849500D01*
X101031903Y-128849500D01*
X100798631Y-128886446D01*
X100574003Y-128959433D01*
X100363566Y-129066657D01*
X100254550Y-129145862D01*
X100172490Y-129205483D01*
X100172488Y-129205485D01*
X100172487Y-129205485D01*
X100005485Y-129372487D01*
X100005485Y-129372488D01*
X100005483Y-129372490D01*
X99945862Y-129454550D01*
X99866657Y-129563566D01*
X99759433Y-129774003D01*
X99686446Y-129998631D01*
X99649500Y-130231902D01*
X85600500Y-130231902D01*
X85600500Y-123731902D01*
X99649500Y-123731902D01*
X99649500Y-123968097D01*
X99686446Y-124201368D01*
X99759433Y-124425996D01*
X99852232Y-124608123D01*
X99866657Y-124636433D01*
X100005483Y-124827510D01*
X100172490Y-124994517D01*
X100363567Y-125133343D01*
X100462991Y-125184002D01*
X100574003Y-125240566D01*
X100574005Y-125240566D01*
X100574008Y-125240568D01*
X100694412Y-125279689D01*
X100798631Y-125313553D01*
X101031903Y-125350500D01*
X101031908Y-125350500D01*
X101268097Y-125350500D01*
X101501368Y-125313553D01*
X101725992Y-125240568D01*
X101936433Y-125133343D01*
X102127510Y-124994517D01*
X102294517Y-124827510D01*
X102433343Y-124636433D01*
X102540568Y-124425992D01*
X102613553Y-124201368D01*
X102634855Y-124066873D01*
X102650500Y-123968097D01*
X102650500Y-123731902D01*
X104149500Y-123731902D01*
X104149500Y-123968097D01*
X104186446Y-124201368D01*
X104259433Y-124425996D01*
X104352232Y-124608123D01*
X104366657Y-124636433D01*
X104505483Y-124827510D01*
X104672490Y-124994517D01*
X104863567Y-125133343D01*
X104962991Y-125184002D01*
X105074003Y-125240566D01*
X105074005Y-125240566D01*
X105074008Y-125240568D01*
X105194412Y-125279689D01*
X105298631Y-125313553D01*
X105531903Y-125350500D01*
X105531908Y-125350500D01*
X105768097Y-125350500D01*
X106001368Y-125313553D01*
X106225992Y-125240568D01*
X106436433Y-125133343D01*
X106627510Y-124994517D01*
X106794517Y-124827510D01*
X106933343Y-124636433D01*
X107040568Y-124425992D01*
X107113553Y-124201368D01*
X107134855Y-124066873D01*
X107150500Y-123968097D01*
X107150500Y-123731902D01*
X120349500Y-123731902D01*
X120349500Y-123968097D01*
X120386446Y-124201368D01*
X120459433Y-124425996D01*
X120552232Y-124608123D01*
X120566657Y-124636433D01*
X120705483Y-124827510D01*
X120872490Y-124994517D01*
X121063567Y-125133343D01*
X121162991Y-125184002D01*
X121274003Y-125240566D01*
X121274005Y-125240566D01*
X121274008Y-125240568D01*
X121394412Y-125279689D01*
X121498631Y-125313553D01*
X121731903Y-125350500D01*
X121731908Y-125350500D01*
X121968097Y-125350500D01*
X122201368Y-125313553D01*
X122425992Y-125240568D01*
X122636433Y-125133343D01*
X122827510Y-124994517D01*
X122994517Y-124827510D01*
X123133343Y-124636433D01*
X123240568Y-124425992D01*
X123313553Y-124201368D01*
X123334855Y-124066873D01*
X123350500Y-123968097D01*
X123350500Y-123731902D01*
X124849500Y-123731902D01*
X124849500Y-123968097D01*
X124886446Y-124201368D01*
X124959433Y-124425996D01*
X125052232Y-124608123D01*
X125066657Y-124636433D01*
X125205483Y-124827510D01*
X125372490Y-124994517D01*
X125563567Y-125133343D01*
X125662991Y-125184002D01*
X125774003Y-125240566D01*
X125774005Y-125240566D01*
X125774008Y-125240568D01*
X125894412Y-125279689D01*
X125998631Y-125313553D01*
X126231903Y-125350500D01*
X126231908Y-125350500D01*
X126468097Y-125350500D01*
X126701368Y-125313553D01*
X126925992Y-125240568D01*
X127136433Y-125133343D01*
X127327510Y-124994517D01*
X127494517Y-124827510D01*
X127633343Y-124636433D01*
X127740568Y-124425992D01*
X127813553Y-124201368D01*
X127834855Y-124066873D01*
X127850500Y-123968097D01*
X127850500Y-123731902D01*
X127813553Y-123498631D01*
X127740566Y-123274003D01*
X127633342Y-123063566D01*
X127494517Y-122872490D01*
X127327510Y-122705483D01*
X127136433Y-122566657D01*
X126925996Y-122459433D01*
X126701368Y-122386446D01*
X126468097Y-122349500D01*
X126468092Y-122349500D01*
X126231908Y-122349500D01*
X126231903Y-122349500D01*
X125998631Y-122386446D01*
X125774003Y-122459433D01*
X125563566Y-122566657D01*
X125454550Y-122645862D01*
X125372490Y-122705483D01*
X125372488Y-122705485D01*
X125372487Y-122705485D01*
X125205485Y-122872487D01*
X125205485Y-122872488D01*
X125205483Y-122872490D01*
X125145862Y-122954550D01*
X125066657Y-123063566D01*
X124959433Y-123274003D01*
X124886446Y-123498631D01*
X124849500Y-123731902D01*
X123350500Y-123731902D01*
X123313553Y-123498631D01*
X123240566Y-123274003D01*
X123133342Y-123063566D01*
X122994517Y-122872490D01*
X122827510Y-122705483D01*
X122636433Y-122566657D01*
X122425996Y-122459433D01*
X122201368Y-122386446D01*
X121968097Y-122349500D01*
X121968092Y-122349500D01*
X121731908Y-122349500D01*
X121731903Y-122349500D01*
X121498631Y-122386446D01*
X121274003Y-122459433D01*
X121063566Y-122566657D01*
X120954550Y-122645862D01*
X120872490Y-122705483D01*
X120872488Y-122705485D01*
X120872487Y-122705485D01*
X120705485Y-122872487D01*
X120705485Y-122872488D01*
X120705483Y-122872490D01*
X120645862Y-122954550D01*
X120566657Y-123063566D01*
X120459433Y-123274003D01*
X120386446Y-123498631D01*
X120349500Y-123731902D01*
X107150500Y-123731902D01*
X107113553Y-123498631D01*
X107040566Y-123274003D01*
X106933342Y-123063566D01*
X106794517Y-122872490D01*
X106627510Y-122705483D01*
X106436433Y-122566657D01*
X106225996Y-122459433D01*
X106001368Y-122386446D01*
X105768097Y-122349500D01*
X105768092Y-122349500D01*
X105531908Y-122349500D01*
X105531903Y-122349500D01*
X105298631Y-122386446D01*
X105074003Y-122459433D01*
X104863566Y-122566657D01*
X104754550Y-122645862D01*
X104672490Y-122705483D01*
X104672488Y-122705485D01*
X104672487Y-122705485D01*
X104505485Y-122872487D01*
X104505485Y-122872488D01*
X104505483Y-122872490D01*
X104445862Y-122954550D01*
X104366657Y-123063566D01*
X104259433Y-123274003D01*
X104186446Y-123498631D01*
X104149500Y-123731902D01*
X102650500Y-123731902D01*
X102613553Y-123498631D01*
X102540566Y-123274003D01*
X102433342Y-123063566D01*
X102294517Y-122872490D01*
X102127510Y-122705483D01*
X101936433Y-122566657D01*
X101725996Y-122459433D01*
X101501368Y-122386446D01*
X101268097Y-122349500D01*
X101268092Y-122349500D01*
X101031908Y-122349500D01*
X101031903Y-122349500D01*
X100798631Y-122386446D01*
X100574003Y-122459433D01*
X100363566Y-122566657D01*
X100254550Y-122645862D01*
X100172490Y-122705483D01*
X100172488Y-122705485D01*
X100172487Y-122705485D01*
X100005485Y-122872487D01*
X100005485Y-122872488D01*
X100005483Y-122872490D01*
X99945862Y-122954550D01*
X99866657Y-123063566D01*
X99759433Y-123274003D01*
X99686446Y-123498631D01*
X99649500Y-123731902D01*
X85600500Y-123731902D01*
X85600500Y-117905513D01*
X100389500Y-117905513D01*
X100389500Y-118094486D01*
X100419059Y-118281118D01*
X100477454Y-118460836D01*
X100500980Y-118507007D01*
X100563240Y-118629199D01*
X100674310Y-118782073D01*
X100807927Y-118915690D01*
X100960801Y-119026760D01*
X101129168Y-119112547D01*
X101219251Y-119141817D01*
X101276925Y-119181253D01*
X101304124Y-119245612D01*
X101292209Y-119314458D01*
X101244965Y-119365934D01*
X101219253Y-119377677D01*
X101189166Y-119387453D01*
X101020800Y-119473240D01*
X100933579Y-119536610D01*
X100867927Y-119584310D01*
X100867925Y-119584312D01*
X100867924Y-119584312D01*
X100734312Y-119717924D01*
X100734312Y-119717925D01*
X100734310Y-119717927D01*
X100686610Y-119783579D01*
X100623240Y-119870800D01*
X100537454Y-120039163D01*
X100479059Y-120218881D01*
X100449500Y-120405513D01*
X100449500Y-120594486D01*
X100479059Y-120781118D01*
X100537454Y-120960836D01*
X100623104Y-121128933D01*
X100623240Y-121129199D01*
X100734310Y-121282073D01*
X100867927Y-121415690D01*
X101020801Y-121526760D01*
X101100347Y-121567290D01*
X101189163Y-121612545D01*
X101189165Y-121612545D01*
X101189168Y-121612547D01*
X101285497Y-121643846D01*
X101368881Y-121670940D01*
X101555514Y-121700500D01*
X101555519Y-121700500D01*
X101744486Y-121700500D01*
X101931118Y-121670940D01*
X101932623Y-121670451D01*
X102110832Y-121612547D01*
X102279199Y-121526760D01*
X102305182Y-121507882D01*
X108615669Y-121507882D01*
X108615670Y-121507883D01*
X108641059Y-121526329D01*
X108809362Y-121612085D01*
X108988997Y-121670451D01*
X109175553Y-121700000D01*
X109364447Y-121700000D01*
X109551002Y-121670451D01*
X109730637Y-121612085D01*
X109898937Y-121526331D01*
X109924328Y-121507883D01*
X109924328Y-121507882D01*
X109270001Y-120853554D01*
X109270000Y-120853554D01*
X108615669Y-121507882D01*
X102305182Y-121507882D01*
X102432073Y-121415690D01*
X102565690Y-121282073D01*
X102676760Y-121129199D01*
X102762547Y-120960832D01*
X102820940Y-120781118D01*
X102831427Y-120714905D01*
X102850500Y-120594486D01*
X102850500Y-120405552D01*
X108070000Y-120405552D01*
X108070000Y-120594447D01*
X108099548Y-120781002D01*
X108157914Y-120960637D01*
X108243666Y-121128933D01*
X108262116Y-121154328D01*
X108916446Y-120500000D01*
X108916446Y-120499999D01*
X108870369Y-120453922D01*
X108920000Y-120453922D01*
X108920000Y-120546078D01*
X108943852Y-120635095D01*
X108989930Y-120714905D01*
X109055095Y-120780070D01*
X109134905Y-120826148D01*
X109223922Y-120850000D01*
X109316078Y-120850000D01*
X109405095Y-120826148D01*
X109484905Y-120780070D01*
X109550070Y-120714905D01*
X109596148Y-120635095D01*
X109620000Y-120546078D01*
X109620000Y-120499999D01*
X109623554Y-120499999D01*
X109623554Y-120500000D01*
X110277882Y-121154328D01*
X110277883Y-121154328D01*
X110296331Y-121128937D01*
X110382085Y-120960637D01*
X110440451Y-120781002D01*
X110470000Y-120594447D01*
X110470000Y-120405552D01*
X110440451Y-120218997D01*
X110382085Y-120039362D01*
X110296329Y-119871059D01*
X110277883Y-119845670D01*
X110277882Y-119845669D01*
X109623554Y-120499999D01*
X109620000Y-120499999D01*
X109620000Y-120453922D01*
X109596148Y-120364905D01*
X109550070Y-120285095D01*
X109484905Y-120219930D01*
X109405095Y-120173852D01*
X109316078Y-120150000D01*
X109223922Y-120150000D01*
X109134905Y-120173852D01*
X109055095Y-120219930D01*
X108989930Y-120285095D01*
X108943852Y-120364905D01*
X108920000Y-120453922D01*
X108870369Y-120453922D01*
X108262116Y-119845669D01*
X108262116Y-119845670D01*
X108243669Y-119871060D01*
X108157914Y-120039362D01*
X108099548Y-120218997D01*
X108070000Y-120405552D01*
X102850500Y-120405552D01*
X102850500Y-120405513D01*
X102820940Y-120218881D01*
X102766229Y-120050500D01*
X102762547Y-120039168D01*
X102762545Y-120039165D01*
X102762545Y-120039163D01*
X102695481Y-119907544D01*
X102676760Y-119870801D01*
X102565690Y-119717927D01*
X102432073Y-119584310D01*
X102279199Y-119473240D01*
X102256582Y-119461716D01*
X102110836Y-119387454D01*
X102062360Y-119371703D01*
X102020747Y-119358182D01*
X101963073Y-119318745D01*
X101935875Y-119254386D01*
X101947790Y-119185540D01*
X101995034Y-119134064D01*
X102020747Y-119122322D01*
X102050832Y-119112547D01*
X102219199Y-119026760D01*
X102245182Y-119007882D01*
X108555669Y-119007882D01*
X108555670Y-119007883D01*
X108581059Y-119026329D01*
X108749364Y-119112086D01*
X108840865Y-119141816D01*
X108898541Y-119181253D01*
X108925740Y-119245611D01*
X108913826Y-119314458D01*
X108866582Y-119365934D01*
X108840867Y-119377678D01*
X108809361Y-119387915D01*
X108641060Y-119473669D01*
X108615670Y-119492116D01*
X108615669Y-119492116D01*
X109270000Y-120146446D01*
X109270001Y-120146446D01*
X109924328Y-119492116D01*
X109898933Y-119473666D01*
X109730637Y-119387914D01*
X109639133Y-119358183D01*
X109581458Y-119318746D01*
X109554259Y-119254387D01*
X109566174Y-119185541D01*
X109613418Y-119134065D01*
X109639136Y-119122320D01*
X109670637Y-119112085D01*
X109838937Y-119026331D01*
X109864328Y-119007883D01*
X109864328Y-119007882D01*
X109210001Y-118353554D01*
X109210000Y-118353554D01*
X108555669Y-119007882D01*
X102245182Y-119007882D01*
X102372073Y-118915690D01*
X102505690Y-118782073D01*
X102616760Y-118629199D01*
X102702547Y-118460832D01*
X102760940Y-118281118D01*
X102776704Y-118181588D01*
X102790500Y-118094486D01*
X102790500Y-117905552D01*
X108010000Y-117905552D01*
X108010000Y-118094447D01*
X108039548Y-118281002D01*
X108097914Y-118460637D01*
X108183666Y-118628933D01*
X108202116Y-118654328D01*
X108856446Y-118000000D01*
X108856446Y-117999999D01*
X108810369Y-117953922D01*
X108860000Y-117953922D01*
X108860000Y-118046078D01*
X108883852Y-118135095D01*
X108929930Y-118214905D01*
X108995095Y-118280070D01*
X109074905Y-118326148D01*
X109163922Y-118350000D01*
X109256078Y-118350000D01*
X109345095Y-118326148D01*
X109424905Y-118280070D01*
X109490070Y-118214905D01*
X109536148Y-118135095D01*
X109560000Y-118046078D01*
X109560000Y-117999999D01*
X109563554Y-117999999D01*
X109563554Y-118000000D01*
X110217882Y-118654328D01*
X110217883Y-118654328D01*
X110236331Y-118628937D01*
X110322085Y-118460637D01*
X110380451Y-118281002D01*
X110410000Y-118094447D01*
X110410000Y-117905552D01*
X110380451Y-117718997D01*
X110322085Y-117539362D01*
X110236329Y-117371059D01*
X110217883Y-117345670D01*
X110217882Y-117345669D01*
X109563554Y-117999999D01*
X109560000Y-117999999D01*
X109560000Y-117953922D01*
X109536148Y-117864905D01*
X109490070Y-117785095D01*
X109424905Y-117719930D01*
X109345095Y-117673852D01*
X109256078Y-117650000D01*
X109163922Y-117650000D01*
X109074905Y-117673852D01*
X108995095Y-117719930D01*
X108929930Y-117785095D01*
X108883852Y-117864905D01*
X108860000Y-117953922D01*
X108810369Y-117953922D01*
X108202116Y-117345669D01*
X108202116Y-117345670D01*
X108183669Y-117371060D01*
X108097914Y-117539362D01*
X108039548Y-117718997D01*
X108010000Y-117905552D01*
X102790500Y-117905552D01*
X102790500Y-117905513D01*
X102760940Y-117718881D01*
X102704565Y-117545380D01*
X102702547Y-117539168D01*
X102702545Y-117539165D01*
X102702545Y-117539163D01*
X102656320Y-117448443D01*
X102616760Y-117370801D01*
X102505690Y-117217927D01*
X102372073Y-117084310D01*
X102245179Y-116992116D01*
X108555669Y-116992116D01*
X109210000Y-117646446D01*
X109210001Y-117646446D01*
X109864328Y-116992116D01*
X109838933Y-116973666D01*
X109670637Y-116887914D01*
X109491002Y-116829548D01*
X109304447Y-116800000D01*
X109115553Y-116800000D01*
X108928997Y-116829548D01*
X108749362Y-116887914D01*
X108581060Y-116973669D01*
X108555670Y-116992116D01*
X108555669Y-116992116D01*
X102245179Y-116992116D01*
X102219199Y-116973240D01*
X102050836Y-116887454D01*
X101871118Y-116829059D01*
X101684486Y-116799500D01*
X101684481Y-116799500D01*
X101495519Y-116799500D01*
X101495514Y-116799500D01*
X101308881Y-116829059D01*
X101129163Y-116887454D01*
X100960800Y-116973240D01*
X100873579Y-117036610D01*
X100807927Y-117084310D01*
X100807925Y-117084312D01*
X100807924Y-117084312D01*
X100674312Y-117217924D01*
X100674312Y-117217925D01*
X100674310Y-117217927D01*
X100668808Y-117225500D01*
X100563240Y-117370800D01*
X100477454Y-117539163D01*
X100419059Y-117718881D01*
X100389500Y-117905513D01*
X85600500Y-117905513D01*
X85600500Y-83102155D01*
X91150000Y-83102155D01*
X91150000Y-83750000D01*
X92066988Y-83750000D01*
X92034075Y-83807007D01*
X92000000Y-83934174D01*
X92000000Y-84065826D01*
X92034075Y-84192993D01*
X92066988Y-84250000D01*
X91150000Y-84250000D01*
X91150000Y-84897844D01*
X91156401Y-84957372D01*
X91156403Y-84957379D01*
X91206645Y-85092086D01*
X91206649Y-85092093D01*
X91292809Y-85207187D01*
X91292812Y-85207190D01*
X91407906Y-85293350D01*
X91407913Y-85293354D01*
X91542620Y-85343596D01*
X91542627Y-85343598D01*
X91602155Y-85349999D01*
X91602172Y-85350000D01*
X92250000Y-85350000D01*
X92250000Y-84433012D01*
X92307007Y-84465925D01*
X92434174Y-84500000D01*
X92565826Y-84500000D01*
X92692993Y-84465925D01*
X92750000Y-84433012D01*
X92750000Y-85350000D01*
X93397828Y-85350000D01*
X93397844Y-85349999D01*
X93457372Y-85343598D01*
X93457379Y-85343596D01*
X93592086Y-85293354D01*
X93592093Y-85293350D01*
X93707187Y-85207190D01*
X93707190Y-85207187D01*
X93793350Y-85092093D01*
X93793354Y-85092086D01*
X93843596Y-84957379D01*
X93843598Y-84957372D01*
X93849999Y-84897844D01*
X93850000Y-84897827D01*
X93850000Y-84250000D01*
X92933012Y-84250000D01*
X92965925Y-84192993D01*
X93000000Y-84065826D01*
X93000000Y-83934174D01*
X92965925Y-83807007D01*
X92933012Y-83750000D01*
X93850000Y-83750000D01*
X93850000Y-83102172D01*
X93849999Y-83102155D01*
X93843598Y-83042627D01*
X93843596Y-83042620D01*
X93793354Y-82907913D01*
X93793350Y-82907906D01*
X93707190Y-82792812D01*
X93707187Y-82792809D01*
X93592093Y-82706649D01*
X93592086Y-82706645D01*
X93457379Y-82656403D01*
X93457372Y-82656401D01*
X93397844Y-82650000D01*
X92750000Y-82650000D01*
X92750000Y-83566988D01*
X92692993Y-83534075D01*
X92565826Y-83500000D01*
X92434174Y-83500000D01*
X92307007Y-83534075D01*
X92250000Y-83566988D01*
X92250000Y-82650000D01*
X91602155Y-82650000D01*
X91542627Y-82656401D01*
X91542620Y-82656403D01*
X91407913Y-82706645D01*
X91407906Y-82706649D01*
X91292812Y-82792809D01*
X91292809Y-82792812D01*
X91206649Y-82907906D01*
X91206645Y-82907913D01*
X91156403Y-83042620D01*
X91156401Y-83042627D01*
X91150000Y-83102155D01*
X85600500Y-83102155D01*
X85600500Y-75102135D01*
X92069500Y-75102135D01*
X92069500Y-76897870D01*
X92069501Y-76897876D01*
X92075908Y-76957483D01*
X92126202Y-77092328D01*
X92126206Y-77092335D01*
X92212452Y-77207544D01*
X92212455Y-77207547D01*
X92327664Y-77293793D01*
X92327671Y-77293797D01*
X92462517Y-77344091D01*
X92462516Y-77344091D01*
X92469444Y-77344835D01*
X92522127Y-77350500D01*
X94317872Y-77350499D01*
X94377483Y-77344091D01*
X94512331Y-77293796D01*
X94627546Y-77207546D01*
X94713796Y-77092331D01*
X94762810Y-76960916D01*
X94804681Y-76904984D01*
X94870145Y-76880566D01*
X94938418Y-76895417D01*
X94966673Y-76916569D01*
X95080213Y-77030109D01*
X95252179Y-77155048D01*
X95252181Y-77155049D01*
X95252184Y-77155051D01*
X95441588Y-77251557D01*
X95643757Y-77317246D01*
X95853713Y-77350500D01*
X95853714Y-77350500D01*
X96066286Y-77350500D01*
X96066287Y-77350500D01*
X96276243Y-77317246D01*
X96478412Y-77251557D01*
X96667816Y-77155051D01*
X96754138Y-77092335D01*
X96839786Y-77030109D01*
X96839788Y-77030106D01*
X96839792Y-77030104D01*
X96990104Y-76879792D01*
X96990106Y-76879788D01*
X96990109Y-76879786D01*
X97115048Y-76707820D01*
X97115047Y-76707820D01*
X97115051Y-76707816D01*
X97119514Y-76699054D01*
X97167488Y-76648259D01*
X97235308Y-76631463D01*
X97301444Y-76653999D01*
X97340486Y-76699056D01*
X97344951Y-76707820D01*
X97469890Y-76879786D01*
X97620213Y-77030109D01*
X97792179Y-77155048D01*
X97792181Y-77155049D01*
X97792184Y-77155051D01*
X97981588Y-77251557D01*
X98183757Y-77317246D01*
X98393713Y-77350500D01*
X98393714Y-77350500D01*
X98606286Y-77350500D01*
X98606287Y-77350500D01*
X98816243Y-77317246D01*
X99018412Y-77251557D01*
X99207816Y-77155051D01*
X99294138Y-77092335D01*
X99379786Y-77030109D01*
X99379788Y-77030106D01*
X99379792Y-77030104D01*
X99530104Y-76879792D01*
X99530106Y-76879788D01*
X99530109Y-76879786D01*
X99655048Y-76707820D01*
X99655047Y-76707820D01*
X99655051Y-76707816D01*
X99659514Y-76699054D01*
X99707488Y-76648259D01*
X99775308Y-76631463D01*
X99841444Y-76653999D01*
X99880486Y-76699056D01*
X99884951Y-76707820D01*
X100009890Y-76879786D01*
X100160213Y-77030109D01*
X100332179Y-77155048D01*
X100332181Y-77155049D01*
X100332184Y-77155051D01*
X100521588Y-77251557D01*
X100723757Y-77317246D01*
X100933713Y-77350500D01*
X100933714Y-77350500D01*
X101146286Y-77350500D01*
X101146287Y-77350500D01*
X101356243Y-77317246D01*
X101558412Y-77251557D01*
X101747816Y-77155051D01*
X101834138Y-77092335D01*
X101919786Y-77030109D01*
X101919788Y-77030106D01*
X101919792Y-77030104D01*
X102070104Y-76879792D01*
X102070106Y-76879788D01*
X102070109Y-76879786D01*
X102195048Y-76707820D01*
X102195047Y-76707820D01*
X102195051Y-76707816D01*
X102199514Y-76699054D01*
X102247488Y-76648259D01*
X102315308Y-76631463D01*
X102381444Y-76653999D01*
X102420486Y-76699056D01*
X102424951Y-76707820D01*
X102549890Y-76879786D01*
X102700213Y-77030109D01*
X102872179Y-77155048D01*
X102872181Y-77155049D01*
X102872184Y-77155051D01*
X103061588Y-77251557D01*
X103263757Y-77317246D01*
X103473713Y-77350500D01*
X103473714Y-77350500D01*
X103686286Y-77350500D01*
X103686287Y-77350500D01*
X103896243Y-77317246D01*
X104098412Y-77251557D01*
X104287816Y-77155051D01*
X104374138Y-77092335D01*
X104459786Y-77030109D01*
X104459788Y-77030106D01*
X104459792Y-77030104D01*
X104610104Y-76879792D01*
X104610106Y-76879788D01*
X104610109Y-76879786D01*
X104735048Y-76707820D01*
X104735047Y-76707820D01*
X104735051Y-76707816D01*
X104739514Y-76699054D01*
X104787488Y-76648259D01*
X104855308Y-76631463D01*
X104921444Y-76653999D01*
X104960486Y-76699056D01*
X104964951Y-76707820D01*
X105089890Y-76879786D01*
X105240213Y-77030109D01*
X105412179Y-77155048D01*
X105412181Y-77155049D01*
X105412184Y-77155051D01*
X105601588Y-77251557D01*
X105803757Y-77317246D01*
X106013713Y-77350500D01*
X106013714Y-77350500D01*
X106226286Y-77350500D01*
X106226287Y-77350500D01*
X106436243Y-77317246D01*
X106638412Y-77251557D01*
X106827816Y-77155051D01*
X106914138Y-77092335D01*
X106999786Y-77030109D01*
X106999788Y-77030106D01*
X106999792Y-77030104D01*
X107150104Y-76879792D01*
X107150106Y-76879788D01*
X107150109Y-76879786D01*
X107275048Y-76707820D01*
X107275047Y-76707820D01*
X107275051Y-76707816D01*
X107279514Y-76699054D01*
X107327488Y-76648259D01*
X107395308Y-76631463D01*
X107461444Y-76653999D01*
X107500486Y-76699056D01*
X107504951Y-76707820D01*
X107629890Y-76879786D01*
X107780213Y-77030109D01*
X107952179Y-77155048D01*
X107952181Y-77155049D01*
X107952184Y-77155051D01*
X108141588Y-77251557D01*
X108343757Y-77317246D01*
X108553713Y-77350500D01*
X108553714Y-77350500D01*
X108766286Y-77350500D01*
X108766287Y-77350500D01*
X108976243Y-77317246D01*
X109178412Y-77251557D01*
X109367816Y-77155051D01*
X109454138Y-77092335D01*
X109539786Y-77030109D01*
X109539788Y-77030106D01*
X109539792Y-77030104D01*
X109690104Y-76879792D01*
X109690106Y-76879788D01*
X109690109Y-76879786D01*
X109815048Y-76707820D01*
X109815047Y-76707820D01*
X109815051Y-76707816D01*
X109819514Y-76699054D01*
X109867488Y-76648259D01*
X109935308Y-76631463D01*
X110001444Y-76653999D01*
X110040486Y-76699056D01*
X110044951Y-76707820D01*
X110169890Y-76879786D01*
X110169896Y-76879792D01*
X110320208Y-77030104D01*
X110492184Y-77155051D01*
X110492188Y-77155053D01*
X110496126Y-77157914D01*
X110495146Y-77159262D01*
X110537160Y-77205690D01*
X110549500Y-77259617D01*
X110549500Y-79479191D01*
X110529815Y-79546230D01*
X110513181Y-79566872D01*
X109374727Y-80705325D01*
X109374726Y-80705326D01*
X109303534Y-80811874D01*
X109254499Y-80930255D01*
X109254497Y-80930261D01*
X109229500Y-81055928D01*
X109229500Y-82740382D01*
X109209815Y-82807421D01*
X109175408Y-82841099D01*
X109176125Y-82842085D01*
X109000213Y-82969890D01*
X108849890Y-83120213D01*
X108724951Y-83292179D01*
X108628444Y-83481585D01*
X108562753Y-83683760D01*
X108529500Y-83893713D01*
X108529500Y-84106286D01*
X108563516Y-84321055D01*
X108561877Y-84321314D01*
X108558738Y-84383883D01*
X108529342Y-84430710D01*
X103994724Y-88965328D01*
X103958023Y-89020255D01*
X103958024Y-89020256D01*
X103923534Y-89071874D01*
X103874499Y-89190255D01*
X103874497Y-89190261D01*
X103849500Y-89315928D01*
X103849500Y-89315931D01*
X103849500Y-96314069D01*
X103849500Y-96314071D01*
X103849499Y-96314071D01*
X103874497Y-96439738D01*
X103874499Y-96439744D01*
X103923534Y-96558125D01*
X103994726Y-96664673D01*
X108710326Y-101380273D01*
X108710329Y-101380275D01*
X108710331Y-101380277D01*
X108816873Y-101451465D01*
X108935256Y-101500501D01*
X108935260Y-101500501D01*
X108935261Y-101500502D01*
X109060928Y-101525500D01*
X109060931Y-101525500D01*
X118804192Y-101525500D01*
X118871231Y-101545185D01*
X118891873Y-101561819D01*
X123733181Y-106403127D01*
X123766666Y-106464450D01*
X123769500Y-106490808D01*
X123769500Y-108490382D01*
X123749815Y-108557421D01*
X123715408Y-108591099D01*
X123716125Y-108592085D01*
X123540213Y-108719890D01*
X123389890Y-108870213D01*
X123264949Y-109042182D01*
X123260484Y-109050946D01*
X123212509Y-109101742D01*
X123144688Y-109118536D01*
X123078553Y-109095998D01*
X123039516Y-109050946D01*
X123035050Y-109042182D01*
X122910109Y-108870213D01*
X122759786Y-108719890D01*
X122587820Y-108594951D01*
X122398414Y-108498444D01*
X122398413Y-108498443D01*
X122398412Y-108498443D01*
X122196243Y-108432754D01*
X122196241Y-108432753D01*
X122196240Y-108432753D01*
X122034957Y-108407208D01*
X121986287Y-108399500D01*
X121773713Y-108399500D01*
X121725042Y-108407208D01*
X121563760Y-108432753D01*
X121361585Y-108498444D01*
X121172179Y-108594951D01*
X121000213Y-108719890D01*
X120849890Y-108870213D01*
X120724949Y-109042182D01*
X120720484Y-109050946D01*
X120672509Y-109101742D01*
X120604688Y-109118536D01*
X120538553Y-109095998D01*
X120499516Y-109050946D01*
X120495050Y-109042182D01*
X120370109Y-108870213D01*
X120219786Y-108719890D01*
X120047820Y-108594951D01*
X119858414Y-108498444D01*
X119858413Y-108498443D01*
X119858412Y-108498443D01*
X119656243Y-108432754D01*
X119656241Y-108432753D01*
X119656240Y-108432753D01*
X119494957Y-108407208D01*
X119446287Y-108399500D01*
X119233713Y-108399500D01*
X119185042Y-108407208D01*
X119023760Y-108432753D01*
X118821585Y-108498444D01*
X118632179Y-108594951D01*
X118460213Y-108719890D01*
X118309890Y-108870213D01*
X118184949Y-109042182D01*
X118180484Y-109050946D01*
X118132509Y-109101742D01*
X118064688Y-109118536D01*
X117998553Y-109095998D01*
X117959516Y-109050946D01*
X117955050Y-109042182D01*
X117830109Y-108870213D01*
X117679786Y-108719890D01*
X117507820Y-108594951D01*
X117318414Y-108498444D01*
X117318413Y-108498443D01*
X117318412Y-108498443D01*
X117116243Y-108432754D01*
X117116241Y-108432753D01*
X117116240Y-108432753D01*
X116954957Y-108407208D01*
X116906287Y-108399500D01*
X116693713Y-108399500D01*
X116645042Y-108407208D01*
X116483760Y-108432753D01*
X116281585Y-108498444D01*
X116092179Y-108594951D01*
X115920213Y-108719890D01*
X115769890Y-108870213D01*
X115644949Y-109042182D01*
X115640484Y-109050946D01*
X115592509Y-109101742D01*
X115524688Y-109118536D01*
X115458553Y-109095998D01*
X115419516Y-109050946D01*
X115415050Y-109042182D01*
X115290109Y-108870213D01*
X115139786Y-108719890D01*
X114967820Y-108594951D01*
X114778414Y-108498444D01*
X114778413Y-108498443D01*
X114778412Y-108498443D01*
X114576243Y-108432754D01*
X114576241Y-108432753D01*
X114576240Y-108432753D01*
X114414957Y-108407208D01*
X114366287Y-108399500D01*
X114153713Y-108399500D01*
X114105042Y-108407208D01*
X113943760Y-108432753D01*
X113741585Y-108498444D01*
X113552179Y-108594951D01*
X113380213Y-108719890D01*
X113229890Y-108870213D01*
X113104949Y-109042182D01*
X113100484Y-109050946D01*
X113052509Y-109101742D01*
X112984688Y-109118536D01*
X112918553Y-109095998D01*
X112879516Y-109050946D01*
X112875050Y-109042182D01*
X112750109Y-108870213D01*
X112599786Y-108719890D01*
X112427820Y-108594951D01*
X112238414Y-108498444D01*
X112238413Y-108498443D01*
X112238412Y-108498443D01*
X112036243Y-108432754D01*
X112036241Y-108432753D01*
X112036240Y-108432753D01*
X111874957Y-108407208D01*
X111826287Y-108399500D01*
X111613713Y-108399500D01*
X111565042Y-108407208D01*
X111403760Y-108432753D01*
X111201585Y-108498444D01*
X111012179Y-108594951D01*
X110840213Y-108719890D01*
X110689890Y-108870213D01*
X110564949Y-109042182D01*
X110560484Y-109050946D01*
X110512509Y-109101742D01*
X110444688Y-109118536D01*
X110378553Y-109095998D01*
X110339516Y-109050946D01*
X110335050Y-109042182D01*
X110210109Y-108870213D01*
X110059786Y-108719890D01*
X109887820Y-108594951D01*
X109698414Y-108498444D01*
X109698413Y-108498443D01*
X109698412Y-108498443D01*
X109496243Y-108432754D01*
X109496241Y-108432753D01*
X109496240Y-108432753D01*
X109334957Y-108407208D01*
X109286287Y-108399500D01*
X109073713Y-108399500D01*
X109025042Y-108407208D01*
X108863760Y-108432753D01*
X108661585Y-108498444D01*
X108472179Y-108594951D01*
X108300213Y-108719890D01*
X108149890Y-108870213D01*
X108024951Y-109042179D01*
X107928444Y-109231585D01*
X107862753Y-109433760D01*
X107829500Y-109643713D01*
X107829500Y-109856286D01*
X107862753Y-110066239D01*
X107928444Y-110268414D01*
X108024951Y-110457820D01*
X108149890Y-110629786D01*
X108300213Y-110780109D01*
X108472179Y-110905048D01*
X108472181Y-110905049D01*
X108472184Y-110905051D01*
X108661588Y-111001557D01*
X108863757Y-111067246D01*
X109073713Y-111100500D01*
X109073714Y-111100500D01*
X109286286Y-111100500D01*
X109286287Y-111100500D01*
X109496243Y-111067246D01*
X109698412Y-111001557D01*
X109887816Y-110905051D01*
X109974138Y-110842335D01*
X110059786Y-110780109D01*
X110059788Y-110780106D01*
X110059792Y-110780104D01*
X110210104Y-110629792D01*
X110210106Y-110629788D01*
X110210109Y-110629786D01*
X110335048Y-110457820D01*
X110335047Y-110457820D01*
X110335051Y-110457816D01*
X110339514Y-110449054D01*
X110387488Y-110398259D01*
X110455308Y-110381463D01*
X110521444Y-110403999D01*
X110560486Y-110449056D01*
X110564951Y-110457820D01*
X110689890Y-110629786D01*
X110840213Y-110780109D01*
X111012179Y-110905048D01*
X111012181Y-110905049D01*
X111012184Y-110905051D01*
X111201588Y-111001557D01*
X111403757Y-111067246D01*
X111613713Y-111100500D01*
X111613714Y-111100500D01*
X111826286Y-111100500D01*
X111826287Y-111100500D01*
X112036243Y-111067246D01*
X112238412Y-111001557D01*
X112427816Y-110905051D01*
X112514138Y-110842335D01*
X112599786Y-110780109D01*
X112599788Y-110780106D01*
X112599792Y-110780104D01*
X112750104Y-110629792D01*
X112750106Y-110629788D01*
X112750109Y-110629786D01*
X112875048Y-110457820D01*
X112875047Y-110457820D01*
X112875051Y-110457816D01*
X112879514Y-110449054D01*
X112927488Y-110398259D01*
X112995308Y-110381463D01*
X113061444Y-110403999D01*
X113100486Y-110449056D01*
X113104951Y-110457820D01*
X113229890Y-110629786D01*
X113380213Y-110780109D01*
X113552179Y-110905048D01*
X113552181Y-110905049D01*
X113552184Y-110905051D01*
X113741588Y-111001557D01*
X113943757Y-111067246D01*
X114153713Y-111100500D01*
X114153714Y-111100500D01*
X114366286Y-111100500D01*
X114366287Y-111100500D01*
X114576243Y-111067246D01*
X114778412Y-111001557D01*
X114967816Y-110905051D01*
X115054138Y-110842335D01*
X115139786Y-110780109D01*
X115139788Y-110780106D01*
X115139792Y-110780104D01*
X115290104Y-110629792D01*
X115290106Y-110629788D01*
X115290109Y-110629786D01*
X115415048Y-110457820D01*
X115415047Y-110457820D01*
X115415051Y-110457816D01*
X115419514Y-110449054D01*
X115467488Y-110398259D01*
X115535308Y-110381463D01*
X115601444Y-110403999D01*
X115640486Y-110449056D01*
X115644951Y-110457820D01*
X115769890Y-110629786D01*
X115920213Y-110780109D01*
X116092179Y-110905048D01*
X116092181Y-110905049D01*
X116092184Y-110905051D01*
X116281588Y-111001557D01*
X116483757Y-111067246D01*
X116693713Y-111100500D01*
X116693714Y-111100500D01*
X116906286Y-111100500D01*
X116906287Y-111100500D01*
X117116243Y-111067246D01*
X117318412Y-111001557D01*
X117507816Y-110905051D01*
X117594138Y-110842335D01*
X117679786Y-110780109D01*
X117679788Y-110780106D01*
X117679792Y-110780104D01*
X117830104Y-110629792D01*
X117830106Y-110629788D01*
X117830109Y-110629786D01*
X117955048Y-110457820D01*
X117955047Y-110457820D01*
X117955051Y-110457816D01*
X117959514Y-110449054D01*
X118007488Y-110398259D01*
X118075308Y-110381463D01*
X118141444Y-110403999D01*
X118180486Y-110449056D01*
X118184951Y-110457820D01*
X118309890Y-110629786D01*
X118460213Y-110780109D01*
X118632179Y-110905048D01*
X118632181Y-110905049D01*
X118632184Y-110905051D01*
X118821588Y-111001557D01*
X119023757Y-111067246D01*
X119233713Y-111100500D01*
X119233714Y-111100500D01*
X119446286Y-111100500D01*
X119446287Y-111100500D01*
X119656243Y-111067246D01*
X119858412Y-111001557D01*
X120047816Y-110905051D01*
X120134138Y-110842335D01*
X120219786Y-110780109D01*
X120219788Y-110780106D01*
X120219792Y-110780104D01*
X120370104Y-110629792D01*
X120370106Y-110629788D01*
X120370109Y-110629786D01*
X120495048Y-110457820D01*
X120495047Y-110457820D01*
X120495051Y-110457816D01*
X120499514Y-110449054D01*
X120547488Y-110398259D01*
X120615308Y-110381463D01*
X120681444Y-110403999D01*
X120720486Y-110449056D01*
X120724951Y-110457820D01*
X120849890Y-110629786D01*
X121000213Y-110780109D01*
X121172179Y-110905048D01*
X121172181Y-110905049D01*
X121172184Y-110905051D01*
X121361588Y-111001557D01*
X121563757Y-111067246D01*
X121773713Y-111100500D01*
X121773714Y-111100500D01*
X121850192Y-111100500D01*
X121917231Y-111120185D01*
X121962986Y-111172989D01*
X121972930Y-111242147D01*
X121943905Y-111305703D01*
X121937873Y-111312181D01*
X117194727Y-116055325D01*
X117194726Y-116055326D01*
X117123534Y-116161874D01*
X117074499Y-116280255D01*
X117074497Y-116280261D01*
X117049500Y-116405928D01*
X117049500Y-117225500D01*
X117029815Y-117292539D01*
X116977011Y-117338294D01*
X116925501Y-117349500D01*
X116802130Y-117349500D01*
X116802123Y-117349501D01*
X116742516Y-117355908D01*
X116607671Y-117406202D01*
X116607664Y-117406206D01*
X116492455Y-117492452D01*
X116492452Y-117492455D01*
X116406206Y-117607664D01*
X116406202Y-117607671D01*
X116355908Y-117742517D01*
X116349501Y-117802116D01*
X116349500Y-117802135D01*
X116349500Y-119597870D01*
X116349501Y-119597876D01*
X116355908Y-119657483D01*
X116406202Y-119792328D01*
X116406206Y-119792335D01*
X116492452Y-119907544D01*
X116492455Y-119907547D01*
X116607664Y-119993793D01*
X116607671Y-119993797D01*
X116742517Y-120044091D01*
X116742516Y-120044091D01*
X116749444Y-120044835D01*
X116802127Y-120050500D01*
X118597872Y-120050499D01*
X118657483Y-120044091D01*
X118792331Y-119993796D01*
X118907546Y-119907546D01*
X118993796Y-119792331D01*
X119042810Y-119660916D01*
X119084681Y-119604984D01*
X119150145Y-119580566D01*
X119218418Y-119595417D01*
X119246673Y-119616569D01*
X119360213Y-119730109D01*
X119532179Y-119855048D01*
X119532181Y-119855049D01*
X119532184Y-119855051D01*
X119721588Y-119951557D01*
X119923757Y-120017246D01*
X120133713Y-120050500D01*
X120133714Y-120050500D01*
X120346286Y-120050500D01*
X120346287Y-120050500D01*
X120556243Y-120017246D01*
X120758412Y-119951557D01*
X120947816Y-119855051D01*
X121034138Y-119792335D01*
X121119786Y-119730109D01*
X121119788Y-119730106D01*
X121119792Y-119730104D01*
X121270104Y-119579792D01*
X121270106Y-119579788D01*
X121270109Y-119579786D01*
X121347206Y-119473669D01*
X121395051Y-119407816D01*
X121399793Y-119398508D01*
X121447763Y-119347711D01*
X121515583Y-119330911D01*
X121581719Y-119353445D01*
X121620763Y-119398500D01*
X121625373Y-119407547D01*
X121664728Y-119461716D01*
X122297037Y-118829408D01*
X122314075Y-118892993D01*
X122379901Y-119007007D01*
X122472993Y-119100099D01*
X122587007Y-119165925D01*
X122650590Y-119182962D01*
X122018282Y-119815269D01*
X122018282Y-119815270D01*
X122072449Y-119854624D01*
X122261782Y-119951095D01*
X122463870Y-120016757D01*
X122673754Y-120050000D01*
X122886246Y-120050000D01*
X123096127Y-120016757D01*
X123096130Y-120016757D01*
X123298217Y-119951095D01*
X123487554Y-119854622D01*
X123541716Y-119815270D01*
X123541717Y-119815270D01*
X122909408Y-119182962D01*
X122972993Y-119165925D01*
X123087007Y-119100099D01*
X123180099Y-119007007D01*
X123245925Y-118892993D01*
X123262962Y-118829409D01*
X123895270Y-119461717D01*
X123895270Y-119461716D01*
X123934622Y-119407554D01*
X124031095Y-119218217D01*
X124096757Y-119016130D01*
X124096757Y-119016127D01*
X124130000Y-118806246D01*
X124130000Y-118593753D01*
X124096757Y-118383872D01*
X124096757Y-118383869D01*
X124031095Y-118181782D01*
X123934624Y-117992449D01*
X123895270Y-117938282D01*
X123895269Y-117938282D01*
X123262962Y-118570590D01*
X123245925Y-118507007D01*
X123180099Y-118392993D01*
X123087007Y-118299901D01*
X122972993Y-118234075D01*
X122909409Y-118217037D01*
X123541716Y-117584728D01*
X123487550Y-117545375D01*
X123298217Y-117448904D01*
X123096129Y-117383242D01*
X122886246Y-117350000D01*
X122673754Y-117350000D01*
X122463872Y-117383242D01*
X122463869Y-117383242D01*
X122261782Y-117448904D01*
X122072439Y-117545380D01*
X122018282Y-117584727D01*
X122018282Y-117584728D01*
X122650591Y-118217037D01*
X122587007Y-118234075D01*
X122472993Y-118299901D01*
X122379901Y-118392993D01*
X122314075Y-118507007D01*
X122297037Y-118570591D01*
X121664728Y-117938282D01*
X121664727Y-117938282D01*
X121625380Y-117992440D01*
X121625376Y-117992446D01*
X121620760Y-118001505D01*
X121572781Y-118052297D01*
X121504959Y-118069087D01*
X121438826Y-118046543D01*
X121399794Y-118001493D01*
X121395051Y-117992184D01*
X121395049Y-117992181D01*
X121395048Y-117992179D01*
X121270109Y-117820213D01*
X121119786Y-117669890D01*
X120947820Y-117544951D01*
X120758414Y-117448444D01*
X120758413Y-117448443D01*
X120758412Y-117448443D01*
X120556243Y-117382754D01*
X120556241Y-117382753D01*
X120556240Y-117382753D01*
X120394957Y-117357208D01*
X120346287Y-117349500D01*
X120133713Y-117349500D01*
X120085042Y-117357208D01*
X119923760Y-117382753D01*
X119721585Y-117448444D01*
X119532179Y-117544951D01*
X119360215Y-117669889D01*
X119246673Y-117783431D01*
X119185350Y-117816915D01*
X119115658Y-117811931D01*
X119059725Y-117770059D01*
X119042810Y-117739082D01*
X118993797Y-117607671D01*
X118993793Y-117607664D01*
X118907547Y-117492455D01*
X118907544Y-117492452D01*
X118792335Y-117406206D01*
X118792328Y-117406202D01*
X118657482Y-117355908D01*
X118657483Y-117355908D01*
X118597883Y-117349501D01*
X118597881Y-117349500D01*
X118597873Y-117349500D01*
X118597865Y-117349500D01*
X118474500Y-117349500D01*
X118407461Y-117329815D01*
X118361706Y-117277011D01*
X118350500Y-117225500D01*
X118350500Y-116790806D01*
X118370185Y-116723767D01*
X118386814Y-116703130D01*
X123989289Y-111100654D01*
X124050610Y-111067171D01*
X124098753Y-111067693D01*
X124098945Y-111066484D01*
X124203888Y-111083105D01*
X124313713Y-111100500D01*
X124313714Y-111100500D01*
X124526286Y-111100500D01*
X124526287Y-111100500D01*
X124736243Y-111067246D01*
X124938412Y-111001557D01*
X125127816Y-110905051D01*
X125214138Y-110842335D01*
X125299786Y-110780109D01*
X125299788Y-110780106D01*
X125299792Y-110780104D01*
X125450104Y-110629792D01*
X125450106Y-110629788D01*
X125450109Y-110629786D01*
X125517515Y-110537007D01*
X125575051Y-110457816D01*
X125579793Y-110448508D01*
X125627763Y-110397711D01*
X125695583Y-110380911D01*
X125761719Y-110403445D01*
X125800763Y-110448500D01*
X125805373Y-110457547D01*
X125844728Y-110511716D01*
X126477037Y-109879408D01*
X126494075Y-109942993D01*
X126559901Y-110057007D01*
X126652993Y-110150099D01*
X126767007Y-110215925D01*
X126830590Y-110232962D01*
X126198282Y-110865269D01*
X126198282Y-110865270D01*
X126252449Y-110904624D01*
X126441782Y-111001095D01*
X126643870Y-111066757D01*
X126853754Y-111100000D01*
X127066246Y-111100000D01*
X127276127Y-111066757D01*
X127276130Y-111066757D01*
X127478217Y-111001095D01*
X127667554Y-110904622D01*
X127721716Y-110865270D01*
X127721717Y-110865270D01*
X127089408Y-110232962D01*
X127152993Y-110215925D01*
X127267007Y-110150099D01*
X127360099Y-110057007D01*
X127425925Y-109942993D01*
X127442962Y-109879408D01*
X128113181Y-110549628D01*
X128146666Y-110610951D01*
X128149500Y-110637300D01*
X128149500Y-110647865D01*
X128149501Y-110647876D01*
X128155908Y-110707483D01*
X128206202Y-110842328D01*
X128206206Y-110842335D01*
X128292452Y-110957544D01*
X128292455Y-110957547D01*
X128407664Y-111043793D01*
X128407671Y-111043797D01*
X128417243Y-111047367D01*
X128542517Y-111094091D01*
X128602127Y-111100500D01*
X128725500Y-111100499D01*
X128792539Y-111120183D01*
X128838294Y-111172987D01*
X128849500Y-111224499D01*
X128849500Y-123979192D01*
X128829815Y-124046231D01*
X128813181Y-124066873D01*
X126266873Y-126613181D01*
X126205550Y-126646666D01*
X126179192Y-126649500D01*
X116595929Y-126649500D01*
X116470261Y-126674497D01*
X116470251Y-126674500D01*
X116421220Y-126694810D01*
X116351881Y-126723530D01*
X116351863Y-126723540D01*
X116245332Y-126794721D01*
X116245325Y-126794727D01*
X111590710Y-131449342D01*
X111529387Y-131482827D01*
X111481245Y-131482315D01*
X111481055Y-131483516D01*
X111376111Y-131466894D01*
X111266287Y-131449500D01*
X111053713Y-131449500D01*
X111005042Y-131457208D01*
X110843760Y-131482753D01*
X110641585Y-131548444D01*
X110452179Y-131644951D01*
X110280213Y-131769890D01*
X110129890Y-131920213D01*
X110004951Y-132092179D01*
X109908444Y-132281585D01*
X109842753Y-132483760D01*
X109809500Y-132693713D01*
X109809500Y-132906286D01*
X109842753Y-133116239D01*
X109908444Y-133318414D01*
X110004951Y-133507820D01*
X110129890Y-133679786D01*
X110280213Y-133830109D01*
X110452179Y-133955048D01*
X110452181Y-133955049D01*
X110452184Y-133955051D01*
X110641588Y-134051557D01*
X110843757Y-134117246D01*
X111053713Y-134150500D01*
X111053714Y-134150500D01*
X111266286Y-134150500D01*
X111266287Y-134150500D01*
X111476243Y-134117246D01*
X111678412Y-134051557D01*
X111867816Y-133955051D01*
X111954138Y-133892335D01*
X112039786Y-133830109D01*
X112039788Y-133830106D01*
X112039792Y-133830104D01*
X112190104Y-133679792D01*
X112190106Y-133679788D01*
X112190109Y-133679786D01*
X112257515Y-133587007D01*
X112315051Y-133507816D01*
X112319793Y-133498508D01*
X112367763Y-133447711D01*
X112435583Y-133430911D01*
X112501719Y-133453445D01*
X112540763Y-133498500D01*
X112545373Y-133507547D01*
X112584728Y-133561716D01*
X113217037Y-132929408D01*
X113234075Y-132992993D01*
X113299901Y-133107007D01*
X113392993Y-133200099D01*
X113507007Y-133265925D01*
X113570590Y-133282962D01*
X112938282Y-133915269D01*
X112938282Y-133915270D01*
X112992449Y-133954624D01*
X113181782Y-134051095D01*
X113383870Y-134116757D01*
X113593754Y-134150000D01*
X113806246Y-134150000D01*
X114016127Y-134116757D01*
X114016130Y-134116757D01*
X114218217Y-134051095D01*
X114407554Y-133954622D01*
X114461716Y-133915270D01*
X114461717Y-133915270D01*
X113829408Y-133282962D01*
X113892993Y-133265925D01*
X114007007Y-133200099D01*
X114100099Y-133107007D01*
X114165925Y-132992993D01*
X114182962Y-132929408D01*
X114853181Y-133599628D01*
X114886666Y-133660951D01*
X114889500Y-133687300D01*
X114889500Y-133697865D01*
X114889501Y-133697876D01*
X114895908Y-133757483D01*
X114946202Y-133892328D01*
X114946206Y-133892335D01*
X115032452Y-134007544D01*
X115032455Y-134007547D01*
X115147664Y-134093793D01*
X115147671Y-134093797D01*
X115282517Y-134144091D01*
X115282516Y-134144091D01*
X115289444Y-134144835D01*
X115342127Y-134150500D01*
X117137872Y-134150499D01*
X117197483Y-134144091D01*
X117332331Y-134093796D01*
X117447546Y-134007546D01*
X117533796Y-133892331D01*
X117584091Y-133757483D01*
X117590500Y-133697873D01*
X117590499Y-131902128D01*
X117584091Y-131842517D01*
X117533796Y-131707669D01*
X117533795Y-131707668D01*
X117533793Y-131707664D01*
X117447547Y-131592455D01*
X117447544Y-131592452D01*
X117332335Y-131506206D01*
X117332328Y-131506202D01*
X117197482Y-131455908D01*
X117197483Y-131455908D01*
X117137883Y-131449501D01*
X117137881Y-131449500D01*
X117137873Y-131449500D01*
X117137864Y-131449500D01*
X115342129Y-131449500D01*
X115342123Y-131449501D01*
X115282516Y-131455908D01*
X115147671Y-131506202D01*
X115147664Y-131506206D01*
X115032455Y-131592452D01*
X115032452Y-131592455D01*
X114946206Y-131707664D01*
X114946202Y-131707671D01*
X114895908Y-131842517D01*
X114889501Y-131902116D01*
X114889501Y-131902123D01*
X114889500Y-131902135D01*
X114889500Y-131912690D01*
X114869815Y-131979729D01*
X114853181Y-132000371D01*
X114182962Y-132670590D01*
X114165925Y-132607007D01*
X114100099Y-132492993D01*
X114007007Y-132399901D01*
X113892993Y-132334075D01*
X113829408Y-132317037D01*
X114461716Y-131684728D01*
X114407550Y-131645375D01*
X114218217Y-131548904D01*
X114016129Y-131483242D01*
X113806246Y-131450000D01*
X113729306Y-131450000D01*
X113662267Y-131430315D01*
X113616512Y-131377511D01*
X113606568Y-131308353D01*
X113635593Y-131244797D01*
X113641607Y-131238337D01*
X114648043Y-130231902D01*
X120349500Y-130231902D01*
X120349500Y-130468097D01*
X120386446Y-130701368D01*
X120459433Y-130925996D01*
X120566657Y-131136433D01*
X120705483Y-131327510D01*
X120872490Y-131494517D01*
X121063567Y-131633343D01*
X121162991Y-131684002D01*
X121274003Y-131740566D01*
X121274005Y-131740566D01*
X121274008Y-131740568D01*
X121364252Y-131769890D01*
X121498631Y-131813553D01*
X121731903Y-131850500D01*
X121731908Y-131850500D01*
X121968097Y-131850500D01*
X122201368Y-131813553D01*
X122425992Y-131740568D01*
X122636433Y-131633343D01*
X122827510Y-131494517D01*
X122994517Y-131327510D01*
X123133343Y-131136433D01*
X123240568Y-130925992D01*
X123313553Y-130701368D01*
X123350500Y-130468097D01*
X123350500Y-130231902D01*
X124849500Y-130231902D01*
X124849500Y-130468097D01*
X124886446Y-130701368D01*
X124959433Y-130925996D01*
X125066657Y-131136433D01*
X125205483Y-131327510D01*
X125372490Y-131494517D01*
X125563567Y-131633343D01*
X125662991Y-131684002D01*
X125774003Y-131740566D01*
X125774005Y-131740566D01*
X125774008Y-131740568D01*
X125864252Y-131769890D01*
X125998631Y-131813553D01*
X126231903Y-131850500D01*
X126231908Y-131850500D01*
X126468097Y-131850500D01*
X126701368Y-131813553D01*
X126925992Y-131740568D01*
X127136433Y-131633343D01*
X127327510Y-131494517D01*
X127494517Y-131327510D01*
X127633343Y-131136433D01*
X127740568Y-130925992D01*
X127813553Y-130701368D01*
X127850500Y-130468097D01*
X127850500Y-130231902D01*
X127813553Y-129998631D01*
X127740566Y-129774003D01*
X127633342Y-129563566D01*
X127494517Y-129372490D01*
X127327510Y-129205483D01*
X127136433Y-129066657D01*
X126925996Y-128959433D01*
X126701368Y-128886446D01*
X126468097Y-128849500D01*
X126468092Y-128849500D01*
X126231908Y-128849500D01*
X126231903Y-128849500D01*
X125998631Y-128886446D01*
X125774003Y-128959433D01*
X125563566Y-129066657D01*
X125454550Y-129145862D01*
X125372490Y-129205483D01*
X125372488Y-129205485D01*
X125372487Y-129205485D01*
X125205485Y-129372487D01*
X125205485Y-129372488D01*
X125205483Y-129372490D01*
X125145862Y-129454550D01*
X125066657Y-129563566D01*
X124959433Y-129774003D01*
X124886446Y-129998631D01*
X124849500Y-130231902D01*
X123350500Y-130231902D01*
X123313553Y-129998631D01*
X123240566Y-129774003D01*
X123133342Y-129563566D01*
X122994517Y-129372490D01*
X122827510Y-129205483D01*
X122636433Y-129066657D01*
X122425996Y-128959433D01*
X122201368Y-128886446D01*
X121968097Y-128849500D01*
X121968092Y-128849500D01*
X121731908Y-128849500D01*
X121731903Y-128849500D01*
X121498631Y-128886446D01*
X121274003Y-128959433D01*
X121063566Y-129066657D01*
X120954550Y-129145862D01*
X120872490Y-129205483D01*
X120872488Y-129205485D01*
X120872487Y-129205485D01*
X120705485Y-129372487D01*
X120705485Y-129372488D01*
X120705483Y-129372490D01*
X120645862Y-129454550D01*
X120566657Y-129563566D01*
X120459433Y-129774003D01*
X120386446Y-129998631D01*
X120349500Y-130231902D01*
X114648043Y-130231902D01*
X116893127Y-127986819D01*
X116954450Y-127953334D01*
X116980808Y-127950500D01*
X126564071Y-127950500D01*
X126648615Y-127933682D01*
X126689744Y-127925501D01*
X126808127Y-127876465D01*
X126914669Y-127805277D01*
X130005277Y-124714669D01*
X130076465Y-124608127D01*
X130125501Y-124489743D01*
X130150500Y-124364069D01*
X130150500Y-124235931D01*
X130150500Y-111224499D01*
X130170185Y-111157460D01*
X130222989Y-111111705D01*
X130274500Y-111100499D01*
X130397871Y-111100499D01*
X130397872Y-111100499D01*
X130457483Y-111094091D01*
X130592331Y-111043796D01*
X130707546Y-110957546D01*
X130793796Y-110842331D01*
X130844091Y-110707483D01*
X130850500Y-110647873D01*
X130850499Y-108852128D01*
X130844091Y-108792517D01*
X130793796Y-108657669D01*
X130793795Y-108657668D01*
X130793793Y-108657664D01*
X130707547Y-108542455D01*
X130707544Y-108542452D01*
X130592335Y-108456206D01*
X130592328Y-108456202D01*
X130457482Y-108405908D01*
X130457483Y-108405908D01*
X130397883Y-108399501D01*
X130397881Y-108399500D01*
X130397873Y-108399500D01*
X130397864Y-108399500D01*
X128602129Y-108399500D01*
X128602123Y-108399501D01*
X128542516Y-108405908D01*
X128407671Y-108456202D01*
X128407664Y-108456206D01*
X128292455Y-108542452D01*
X128292452Y-108542455D01*
X128206206Y-108657664D01*
X128206202Y-108657671D01*
X128155908Y-108792517D01*
X128149501Y-108852116D01*
X128149501Y-108852123D01*
X128149500Y-108852135D01*
X128149500Y-108862690D01*
X128129815Y-108929729D01*
X128113181Y-108950371D01*
X127442962Y-109620590D01*
X127425925Y-109557007D01*
X127360099Y-109442993D01*
X127267007Y-109349901D01*
X127152993Y-109284075D01*
X127089409Y-109267037D01*
X127721716Y-108634728D01*
X127667550Y-108595375D01*
X127478217Y-108498904D01*
X127276129Y-108433242D01*
X127066246Y-108400000D01*
X126853754Y-108400000D01*
X126643872Y-108433242D01*
X126643869Y-108433242D01*
X126441782Y-108498904D01*
X126252439Y-108595380D01*
X126198282Y-108634727D01*
X126198282Y-108634728D01*
X126830591Y-109267037D01*
X126767007Y-109284075D01*
X126652993Y-109349901D01*
X126559901Y-109442993D01*
X126494075Y-109557007D01*
X126477037Y-109620591D01*
X125844728Y-108988282D01*
X125844727Y-108988282D01*
X125805380Y-109042440D01*
X125805376Y-109042446D01*
X125800760Y-109051505D01*
X125752781Y-109102297D01*
X125684959Y-109119087D01*
X125618826Y-109096543D01*
X125579794Y-109051493D01*
X125575051Y-109042184D01*
X125575049Y-109042181D01*
X125575048Y-109042179D01*
X125450109Y-108870213D01*
X125299786Y-108719890D01*
X125123875Y-108592085D01*
X125124851Y-108590740D01*
X125082834Y-108544295D01*
X125070500Y-108490382D01*
X125070500Y-106105928D01*
X125045502Y-105980261D01*
X125045501Y-105980260D01*
X125045501Y-105980256D01*
X124996465Y-105861873D01*
X124925277Y-105755331D01*
X124925275Y-105755329D01*
X124925273Y-105755326D01*
X119539673Y-100369726D01*
X119539669Y-100369723D01*
X119433127Y-100298535D01*
X119314744Y-100249499D01*
X119314738Y-100249497D01*
X119189071Y-100224500D01*
X119189069Y-100224500D01*
X109445808Y-100224500D01*
X109378769Y-100204815D01*
X109358127Y-100188181D01*
X105186819Y-96016873D01*
X105153334Y-95955550D01*
X105150500Y-95929192D01*
X105150500Y-89700807D01*
X105170185Y-89633768D01*
X105186814Y-89613131D01*
X109449289Y-85350655D01*
X109510610Y-85317172D01*
X109558754Y-85317685D01*
X109558945Y-85316484D01*
X109663888Y-85333105D01*
X109773713Y-85350500D01*
X109773714Y-85350500D01*
X109986286Y-85350500D01*
X109986287Y-85350500D01*
X110196243Y-85317246D01*
X110398412Y-85251557D01*
X110587816Y-85155051D01*
X110674138Y-85092335D01*
X110759786Y-85030109D01*
X110759788Y-85030106D01*
X110759792Y-85030104D01*
X110910104Y-84879792D01*
X110910106Y-84879788D01*
X110910109Y-84879786D01*
X110995890Y-84761717D01*
X111035051Y-84707816D01*
X111039793Y-84698508D01*
X111087763Y-84647711D01*
X111155583Y-84630911D01*
X111221719Y-84653445D01*
X111260763Y-84698500D01*
X111265373Y-84707547D01*
X111304728Y-84761716D01*
X111937037Y-84129408D01*
X111954075Y-84192993D01*
X112019901Y-84307007D01*
X112112993Y-84400099D01*
X112227007Y-84465925D01*
X112290590Y-84482962D01*
X111658282Y-85115269D01*
X111658282Y-85115270D01*
X111712449Y-85154624D01*
X111901782Y-85251095D01*
X112103870Y-85316757D01*
X112313754Y-85350000D01*
X112526246Y-85350000D01*
X112736127Y-85316757D01*
X112736130Y-85316757D01*
X112938217Y-85251095D01*
X113127554Y-85154622D01*
X113181716Y-85115270D01*
X113181717Y-85115270D01*
X112549408Y-84482962D01*
X112612993Y-84465925D01*
X112727007Y-84400099D01*
X112820099Y-84307007D01*
X112885925Y-84192993D01*
X112902962Y-84129409D01*
X113535270Y-84761717D01*
X113535270Y-84761716D01*
X113574622Y-84707555D01*
X113579232Y-84698507D01*
X113627205Y-84647709D01*
X113695025Y-84630912D01*
X113761161Y-84653447D01*
X113800204Y-84698504D01*
X113804949Y-84707817D01*
X113929890Y-84879786D01*
X113929896Y-84879792D01*
X114080208Y-85030104D01*
X114252184Y-85155051D01*
X114252188Y-85155053D01*
X114256126Y-85157914D01*
X114255146Y-85159262D01*
X114297160Y-85205690D01*
X114309500Y-85259617D01*
X114309500Y-89274071D01*
X114329676Y-89375498D01*
X114329676Y-89375499D01*
X114334497Y-89399737D01*
X114334498Y-89399741D01*
X114334499Y-89399744D01*
X114383535Y-89518127D01*
X114454723Y-89624669D01*
X114454726Y-89624673D01*
X114454727Y-89624674D01*
X116113181Y-91283127D01*
X116146666Y-91344450D01*
X116149500Y-91370808D01*
X116149500Y-93240382D01*
X116129815Y-93307421D01*
X116095408Y-93341099D01*
X116096125Y-93342085D01*
X115920213Y-93469890D01*
X115769890Y-93620213D01*
X115644949Y-93792182D01*
X115640484Y-93800946D01*
X115592509Y-93851742D01*
X115524688Y-93868536D01*
X115458553Y-93845998D01*
X115419516Y-93800946D01*
X115415050Y-93792182D01*
X115290109Y-93620213D01*
X115139786Y-93469890D01*
X114967820Y-93344951D01*
X114778414Y-93248444D01*
X114778413Y-93248443D01*
X114778412Y-93248443D01*
X114576243Y-93182754D01*
X114576241Y-93182753D01*
X114576240Y-93182753D01*
X114414957Y-93157208D01*
X114366287Y-93149500D01*
X114153713Y-93149500D01*
X114105042Y-93157208D01*
X113943760Y-93182753D01*
X113741585Y-93248444D01*
X113552179Y-93344951D01*
X113380213Y-93469890D01*
X113229890Y-93620213D01*
X113104949Y-93792182D01*
X113100484Y-93800946D01*
X113052509Y-93851742D01*
X112984688Y-93868536D01*
X112918553Y-93845998D01*
X112879516Y-93800946D01*
X112875050Y-93792182D01*
X112750109Y-93620213D01*
X112599786Y-93469890D01*
X112427820Y-93344951D01*
X112238414Y-93248444D01*
X112238413Y-93248443D01*
X112238412Y-93248443D01*
X112036243Y-93182754D01*
X112036241Y-93182753D01*
X112036240Y-93182753D01*
X111874957Y-93157208D01*
X111826287Y-93149500D01*
X111613713Y-93149500D01*
X111565042Y-93157208D01*
X111403760Y-93182753D01*
X111201585Y-93248444D01*
X111012179Y-93344951D01*
X110840213Y-93469890D01*
X110689890Y-93620213D01*
X110564949Y-93792182D01*
X110560484Y-93800946D01*
X110512509Y-93851742D01*
X110444688Y-93868536D01*
X110378553Y-93845998D01*
X110339516Y-93800946D01*
X110335050Y-93792182D01*
X110210109Y-93620213D01*
X110059786Y-93469890D01*
X109887820Y-93344951D01*
X109698414Y-93248444D01*
X109698413Y-93248443D01*
X109698412Y-93248443D01*
X109496243Y-93182754D01*
X109496241Y-93182753D01*
X109496240Y-93182753D01*
X109334957Y-93157208D01*
X109286287Y-93149500D01*
X109073713Y-93149500D01*
X109025042Y-93157208D01*
X108863760Y-93182753D01*
X108661585Y-93248444D01*
X108472179Y-93344951D01*
X108300213Y-93469890D01*
X108149890Y-93620213D01*
X108024951Y-93792179D01*
X107928444Y-93981585D01*
X107862753Y-94183760D01*
X107829500Y-94393713D01*
X107829500Y-94606286D01*
X107862753Y-94816239D01*
X107928444Y-95018414D01*
X108024951Y-95207820D01*
X108149890Y-95379786D01*
X108300213Y-95530109D01*
X108472179Y-95655048D01*
X108472181Y-95655049D01*
X108472184Y-95655051D01*
X108661588Y-95751557D01*
X108863757Y-95817246D01*
X109073713Y-95850500D01*
X109073714Y-95850500D01*
X109286286Y-95850500D01*
X109286287Y-95850500D01*
X109496243Y-95817246D01*
X109698412Y-95751557D01*
X109887816Y-95655051D01*
X109974138Y-95592335D01*
X110059786Y-95530109D01*
X110059788Y-95530106D01*
X110059792Y-95530104D01*
X110210104Y-95379792D01*
X110210106Y-95379788D01*
X110210109Y-95379786D01*
X110335048Y-95207820D01*
X110335047Y-95207820D01*
X110335051Y-95207816D01*
X110339514Y-95199054D01*
X110387488Y-95148259D01*
X110455308Y-95131463D01*
X110521444Y-95153999D01*
X110560486Y-95199056D01*
X110564951Y-95207820D01*
X110689890Y-95379786D01*
X110840213Y-95530109D01*
X111012179Y-95655048D01*
X111012181Y-95655049D01*
X111012184Y-95655051D01*
X111201588Y-95751557D01*
X111403757Y-95817246D01*
X111613713Y-95850500D01*
X111613714Y-95850500D01*
X111826286Y-95850500D01*
X111826287Y-95850500D01*
X112036243Y-95817246D01*
X112238412Y-95751557D01*
X112427816Y-95655051D01*
X112514138Y-95592335D01*
X112599786Y-95530109D01*
X112599788Y-95530106D01*
X112599792Y-95530104D01*
X112750104Y-95379792D01*
X112750106Y-95379788D01*
X112750109Y-95379786D01*
X112875048Y-95207820D01*
X112875047Y-95207820D01*
X112875051Y-95207816D01*
X112879514Y-95199054D01*
X112927488Y-95148259D01*
X112995308Y-95131463D01*
X113061444Y-95153999D01*
X113100486Y-95199056D01*
X113104951Y-95207820D01*
X113229890Y-95379786D01*
X113380213Y-95530109D01*
X113552179Y-95655048D01*
X113552181Y-95655049D01*
X113552184Y-95655051D01*
X113741588Y-95751557D01*
X113943757Y-95817246D01*
X114153713Y-95850500D01*
X114153714Y-95850500D01*
X114366286Y-95850500D01*
X114366287Y-95850500D01*
X114576243Y-95817246D01*
X114778412Y-95751557D01*
X114967816Y-95655051D01*
X115054138Y-95592335D01*
X115139786Y-95530109D01*
X115139788Y-95530106D01*
X115139792Y-95530104D01*
X115290104Y-95379792D01*
X115290106Y-95379788D01*
X115290109Y-95379786D01*
X115415048Y-95207820D01*
X115415047Y-95207820D01*
X115415051Y-95207816D01*
X115419514Y-95199054D01*
X115467488Y-95148259D01*
X115535308Y-95131463D01*
X115601444Y-95153999D01*
X115640486Y-95199056D01*
X115644951Y-95207820D01*
X115769890Y-95379786D01*
X115920213Y-95530109D01*
X116092179Y-95655048D01*
X116092181Y-95655049D01*
X116092184Y-95655051D01*
X116281588Y-95751557D01*
X116483757Y-95817246D01*
X116693713Y-95850500D01*
X116693714Y-95850500D01*
X116906286Y-95850500D01*
X116906287Y-95850500D01*
X117116243Y-95817246D01*
X117318412Y-95751557D01*
X117507816Y-95655051D01*
X117594138Y-95592335D01*
X117679786Y-95530109D01*
X117679788Y-95530106D01*
X117679792Y-95530104D01*
X117830104Y-95379792D01*
X117830106Y-95379788D01*
X117830109Y-95379786D01*
X117955048Y-95207820D01*
X117955047Y-95207820D01*
X117955051Y-95207816D01*
X117959514Y-95199054D01*
X118007488Y-95148259D01*
X118075308Y-95131463D01*
X118141444Y-95153999D01*
X118180486Y-95199056D01*
X118184951Y-95207820D01*
X118309890Y-95379786D01*
X118460213Y-95530109D01*
X118632179Y-95655048D01*
X118632181Y-95655049D01*
X118632184Y-95655051D01*
X118821588Y-95751557D01*
X119023757Y-95817246D01*
X119233713Y-95850500D01*
X119233714Y-95850500D01*
X119446286Y-95850500D01*
X119446287Y-95850500D01*
X119656243Y-95817246D01*
X119858412Y-95751557D01*
X120047816Y-95655051D01*
X120134138Y-95592335D01*
X120219786Y-95530109D01*
X120219788Y-95530106D01*
X120219792Y-95530104D01*
X120370104Y-95379792D01*
X120370106Y-95379788D01*
X120370109Y-95379786D01*
X120495048Y-95207820D01*
X120495047Y-95207820D01*
X120495051Y-95207816D01*
X120499514Y-95199054D01*
X120547488Y-95148259D01*
X120615308Y-95131463D01*
X120681444Y-95153999D01*
X120720486Y-95199056D01*
X120724951Y-95207820D01*
X120849890Y-95379786D01*
X121000213Y-95530109D01*
X121172179Y-95655048D01*
X121172181Y-95655049D01*
X121172184Y-95655051D01*
X121361588Y-95751557D01*
X121563757Y-95817246D01*
X121773713Y-95850500D01*
X121773714Y-95850500D01*
X121986286Y-95850500D01*
X121986287Y-95850500D01*
X122196243Y-95817246D01*
X122398412Y-95751557D01*
X122587816Y-95655051D01*
X122674138Y-95592335D01*
X122759786Y-95530109D01*
X122759788Y-95530106D01*
X122759792Y-95530104D01*
X122910104Y-95379792D01*
X122910106Y-95379788D01*
X122910109Y-95379786D01*
X123035048Y-95207820D01*
X123035047Y-95207820D01*
X123035051Y-95207816D01*
X123039514Y-95199054D01*
X123087488Y-95148259D01*
X123155308Y-95131463D01*
X123221444Y-95153999D01*
X123260486Y-95199056D01*
X123264951Y-95207820D01*
X123389890Y-95379786D01*
X123540213Y-95530109D01*
X123712179Y-95655048D01*
X123712181Y-95655049D01*
X123712184Y-95655051D01*
X123901588Y-95751557D01*
X124103757Y-95817246D01*
X124313713Y-95850500D01*
X124313714Y-95850500D01*
X124526286Y-95850500D01*
X124526287Y-95850500D01*
X124736243Y-95817246D01*
X124938412Y-95751557D01*
X125127816Y-95655051D01*
X125214138Y-95592335D01*
X125299786Y-95530109D01*
X125299788Y-95530106D01*
X125299792Y-95530104D01*
X125450104Y-95379792D01*
X125450106Y-95379788D01*
X125450109Y-95379786D01*
X125575048Y-95207820D01*
X125575047Y-95207820D01*
X125575051Y-95207816D01*
X125579514Y-95199054D01*
X125627488Y-95148259D01*
X125695308Y-95131463D01*
X125761444Y-95153999D01*
X125800486Y-95199056D01*
X125804951Y-95207820D01*
X125929890Y-95379786D01*
X126080213Y-95530109D01*
X126252179Y-95655048D01*
X126252181Y-95655049D01*
X126252184Y-95655051D01*
X126441588Y-95751557D01*
X126643757Y-95817246D01*
X126853713Y-95850500D01*
X126853714Y-95850500D01*
X127066286Y-95850500D01*
X127066287Y-95850500D01*
X127276243Y-95817246D01*
X127478412Y-95751557D01*
X127667816Y-95655051D01*
X127839792Y-95530104D01*
X127953329Y-95416566D01*
X128014648Y-95383084D01*
X128084340Y-95388068D01*
X128140274Y-95429939D01*
X128157189Y-95460917D01*
X128206202Y-95592328D01*
X128206206Y-95592335D01*
X128292452Y-95707544D01*
X128292455Y-95707547D01*
X128407664Y-95793793D01*
X128407671Y-95793797D01*
X128542517Y-95844091D01*
X128542516Y-95844091D01*
X128549444Y-95844835D01*
X128602127Y-95850500D01*
X130397872Y-95850499D01*
X130457483Y-95844091D01*
X130592331Y-95793796D01*
X130707546Y-95707546D01*
X130793796Y-95592331D01*
X130844091Y-95457483D01*
X130850500Y-95397873D01*
X130850499Y-93602128D01*
X130844091Y-93542517D01*
X130842810Y-93539083D01*
X130793797Y-93407671D01*
X130793793Y-93407664D01*
X130707547Y-93292455D01*
X130707544Y-93292452D01*
X130592335Y-93206206D01*
X130592328Y-93206202D01*
X130457482Y-93155908D01*
X130457483Y-93155908D01*
X130397883Y-93149501D01*
X130397881Y-93149500D01*
X130397873Y-93149500D01*
X130397864Y-93149500D01*
X128602129Y-93149500D01*
X128602123Y-93149501D01*
X128542516Y-93155908D01*
X128407671Y-93206202D01*
X128407664Y-93206206D01*
X128292455Y-93292452D01*
X128292452Y-93292455D01*
X128206206Y-93407664D01*
X128206203Y-93407669D01*
X128157189Y-93539083D01*
X128115317Y-93595016D01*
X128049853Y-93619433D01*
X127981580Y-93604581D01*
X127953326Y-93583430D01*
X127839786Y-93469890D01*
X127667820Y-93344951D01*
X127478414Y-93248444D01*
X127478413Y-93248443D01*
X127478412Y-93248443D01*
X127276243Y-93182754D01*
X127276241Y-93182753D01*
X127276240Y-93182753D01*
X127114957Y-93157208D01*
X127066287Y-93149500D01*
X126853713Y-93149500D01*
X126805042Y-93157208D01*
X126643760Y-93182753D01*
X126441585Y-93248444D01*
X126252179Y-93344951D01*
X126080213Y-93469890D01*
X125929890Y-93620213D01*
X125804949Y-93792182D01*
X125800484Y-93800946D01*
X125752509Y-93851742D01*
X125684688Y-93868536D01*
X125618553Y-93845998D01*
X125579516Y-93800946D01*
X125575050Y-93792182D01*
X125450109Y-93620213D01*
X125299786Y-93469890D01*
X125127820Y-93344951D01*
X124938414Y-93248444D01*
X124938413Y-93248443D01*
X124938412Y-93248443D01*
X124736243Y-93182754D01*
X124736241Y-93182753D01*
X124736240Y-93182753D01*
X124574957Y-93157208D01*
X124526287Y-93149500D01*
X124313713Y-93149500D01*
X124265042Y-93157208D01*
X124103760Y-93182753D01*
X123901585Y-93248444D01*
X123712179Y-93344951D01*
X123540213Y-93469890D01*
X123389890Y-93620213D01*
X123264949Y-93792182D01*
X123260484Y-93800946D01*
X123212509Y-93851742D01*
X123144688Y-93868536D01*
X123078553Y-93845998D01*
X123039516Y-93800946D01*
X123035050Y-93792182D01*
X122910109Y-93620213D01*
X122759786Y-93469890D01*
X122587820Y-93344951D01*
X122398414Y-93248444D01*
X122398413Y-93248443D01*
X122398412Y-93248443D01*
X122196243Y-93182754D01*
X122196241Y-93182753D01*
X122196240Y-93182753D01*
X122034957Y-93157208D01*
X121986287Y-93149500D01*
X121773713Y-93149500D01*
X121725042Y-93157208D01*
X121563760Y-93182753D01*
X121361585Y-93248444D01*
X121172179Y-93344951D01*
X121000213Y-93469890D01*
X120849890Y-93620213D01*
X120724949Y-93792182D01*
X120720484Y-93800946D01*
X120672509Y-93851742D01*
X120604688Y-93868536D01*
X120538553Y-93845998D01*
X120499516Y-93800946D01*
X120495050Y-93792182D01*
X120370109Y-93620213D01*
X120219786Y-93469890D01*
X120043875Y-93342085D01*
X120044851Y-93340740D01*
X120002834Y-93294295D01*
X119990500Y-93240382D01*
X119990500Y-90525928D01*
X119965502Y-90400261D01*
X119965501Y-90400260D01*
X119965501Y-90400256D01*
X119916465Y-90281873D01*
X119845277Y-90175331D01*
X119845275Y-90175329D01*
X119845273Y-90175326D01*
X118186819Y-88516872D01*
X118153334Y-88455549D01*
X118150500Y-88429191D01*
X118150500Y-85474499D01*
X118170185Y-85407460D01*
X118222989Y-85361705D01*
X118274500Y-85350499D01*
X118397871Y-85350499D01*
X118397872Y-85350499D01*
X118457483Y-85344091D01*
X118592331Y-85293796D01*
X118707546Y-85207546D01*
X118793796Y-85092331D01*
X118844091Y-84957483D01*
X118850500Y-84897873D01*
X118850499Y-83102128D01*
X118844091Y-83042517D01*
X118842810Y-83039083D01*
X118793797Y-82907671D01*
X118793793Y-82907664D01*
X118707547Y-82792455D01*
X118707544Y-82792452D01*
X118592335Y-82706206D01*
X118592328Y-82706202D01*
X118457482Y-82655908D01*
X118457483Y-82655908D01*
X118397883Y-82649501D01*
X118397881Y-82649500D01*
X118397873Y-82649500D01*
X118397864Y-82649500D01*
X116602129Y-82649500D01*
X116602123Y-82649501D01*
X116542516Y-82655908D01*
X116407671Y-82706202D01*
X116407664Y-82706206D01*
X116292455Y-82792452D01*
X116292452Y-82792455D01*
X116206206Y-82907664D01*
X116206203Y-82907669D01*
X116157189Y-83039083D01*
X116115317Y-83095016D01*
X116049853Y-83119433D01*
X115981580Y-83104581D01*
X115953326Y-83083430D01*
X115839786Y-82969890D01*
X115667820Y-82844951D01*
X115478414Y-82748444D01*
X115478413Y-82748443D01*
X115478412Y-82748443D01*
X115276243Y-82682754D01*
X115276241Y-82682753D01*
X115276240Y-82682753D01*
X115114957Y-82657208D01*
X115066287Y-82649500D01*
X114853713Y-82649500D01*
X114805042Y-82657208D01*
X114643760Y-82682753D01*
X114441585Y-82748444D01*
X114252179Y-82844951D01*
X114080213Y-82969890D01*
X113929890Y-83120213D01*
X113804949Y-83292182D01*
X113800202Y-83301499D01*
X113752227Y-83352293D01*
X113684405Y-83369087D01*
X113618271Y-83346548D01*
X113579234Y-83301495D01*
X113574626Y-83292452D01*
X113535270Y-83238282D01*
X113535269Y-83238282D01*
X112902962Y-83870590D01*
X112885925Y-83807007D01*
X112820099Y-83692993D01*
X112727007Y-83599901D01*
X112612993Y-83534075D01*
X112549409Y-83517037D01*
X113181716Y-82884728D01*
X113127550Y-82845375D01*
X112938217Y-82748904D01*
X112736129Y-82683242D01*
X112526246Y-82650000D01*
X112313754Y-82650000D01*
X112103872Y-82683242D01*
X112103869Y-82683242D01*
X111901782Y-82748904D01*
X111712439Y-82845380D01*
X111658282Y-82884727D01*
X111658282Y-82884728D01*
X112290591Y-83517037D01*
X112227007Y-83534075D01*
X112112993Y-83599901D01*
X112019901Y-83692993D01*
X111954075Y-83807007D01*
X111937037Y-83870591D01*
X111304728Y-83238282D01*
X111304727Y-83238282D01*
X111265380Y-83292440D01*
X111265376Y-83292446D01*
X111260760Y-83301505D01*
X111212781Y-83352297D01*
X111144959Y-83369087D01*
X111078826Y-83346543D01*
X111039794Y-83301493D01*
X111035051Y-83292184D01*
X111035049Y-83292181D01*
X111035048Y-83292179D01*
X110910109Y-83120213D01*
X110759786Y-82969890D01*
X110583875Y-82842085D01*
X110584851Y-82840740D01*
X110542834Y-82794295D01*
X110530500Y-82740382D01*
X110530500Y-81440808D01*
X110550185Y-81373769D01*
X110566819Y-81353127D01*
X111705273Y-80214673D01*
X111705277Y-80214669D01*
X111776465Y-80108127D01*
X111825501Y-79989744D01*
X111850500Y-79864069D01*
X111850500Y-77259617D01*
X111870185Y-77192578D01*
X111904592Y-77158902D01*
X111903874Y-77157914D01*
X111907811Y-77155053D01*
X111907816Y-77155051D01*
X112079792Y-77030104D01*
X112230104Y-76879792D01*
X112230106Y-76879788D01*
X112230109Y-76879786D01*
X112315890Y-76761717D01*
X112355051Y-76707816D01*
X112359793Y-76698508D01*
X112407763Y-76647711D01*
X112475583Y-76630911D01*
X112541719Y-76653445D01*
X112580763Y-76698500D01*
X112585373Y-76707547D01*
X112624728Y-76761716D01*
X113257037Y-76129408D01*
X113274075Y-76192993D01*
X113339901Y-76307007D01*
X113432993Y-76400099D01*
X113547007Y-76465925D01*
X113610590Y-76482962D01*
X112978282Y-77115269D01*
X112978282Y-77115270D01*
X113032449Y-77154624D01*
X113221782Y-77251095D01*
X113423870Y-77316757D01*
X113633754Y-77350000D01*
X113846246Y-77350000D01*
X114056127Y-77316757D01*
X114056130Y-77316757D01*
X114258217Y-77251095D01*
X114447554Y-77154622D01*
X114501716Y-77115270D01*
X114501717Y-77115270D01*
X113869408Y-76482962D01*
X113932993Y-76465925D01*
X114047007Y-76400099D01*
X114140099Y-76307007D01*
X114205925Y-76192993D01*
X114222962Y-76129409D01*
X114855270Y-76761717D01*
X114855270Y-76761716D01*
X114894622Y-76707555D01*
X114899232Y-76698507D01*
X114947205Y-76647709D01*
X115015025Y-76630912D01*
X115081161Y-76653447D01*
X115120204Y-76698504D01*
X115124949Y-76707817D01*
X115249890Y-76879786D01*
X115400213Y-77030109D01*
X115572179Y-77155048D01*
X115572181Y-77155049D01*
X115572184Y-77155051D01*
X115761588Y-77251557D01*
X115963757Y-77317246D01*
X116173713Y-77350500D01*
X116173714Y-77350500D01*
X116386286Y-77350500D01*
X116386287Y-77350500D01*
X116596243Y-77317246D01*
X116798412Y-77251557D01*
X116987816Y-77155051D01*
X117074138Y-77092335D01*
X117159786Y-77030109D01*
X117159788Y-77030106D01*
X117159792Y-77030104D01*
X117310104Y-76879792D01*
X117310106Y-76879788D01*
X117310109Y-76879786D01*
X117435048Y-76707820D01*
X117435047Y-76707820D01*
X117435051Y-76707816D01*
X117439514Y-76699054D01*
X117487488Y-76648259D01*
X117555308Y-76631463D01*
X117621444Y-76653999D01*
X117660486Y-76699056D01*
X117664951Y-76707820D01*
X117789890Y-76879786D01*
X117940213Y-77030109D01*
X118112179Y-77155048D01*
X118112181Y-77155049D01*
X118112184Y-77155051D01*
X118301588Y-77251557D01*
X118503757Y-77317246D01*
X118713713Y-77350500D01*
X118713714Y-77350500D01*
X118926286Y-77350500D01*
X118926287Y-77350500D01*
X119136243Y-77317246D01*
X119338412Y-77251557D01*
X119527816Y-77155051D01*
X119614138Y-77092335D01*
X119699786Y-77030109D01*
X119699788Y-77030106D01*
X119699792Y-77030104D01*
X119850104Y-76879792D01*
X119850106Y-76879788D01*
X119850109Y-76879786D01*
X119975048Y-76707820D01*
X119975047Y-76707820D01*
X119975051Y-76707816D01*
X119979514Y-76699054D01*
X120027488Y-76648259D01*
X120095308Y-76631463D01*
X120161444Y-76653999D01*
X120200486Y-76699056D01*
X120204951Y-76707820D01*
X120329890Y-76879786D01*
X120480213Y-77030109D01*
X120652179Y-77155048D01*
X120652181Y-77155049D01*
X120652184Y-77155051D01*
X120841588Y-77251557D01*
X121043757Y-77317246D01*
X121253713Y-77350500D01*
X121253714Y-77350500D01*
X121466286Y-77350500D01*
X121466287Y-77350500D01*
X121676243Y-77317246D01*
X121878412Y-77251557D01*
X122067816Y-77155051D01*
X122154138Y-77092335D01*
X122239786Y-77030109D01*
X122239788Y-77030106D01*
X122239792Y-77030104D01*
X122390104Y-76879792D01*
X122390106Y-76879788D01*
X122390109Y-76879786D01*
X122515048Y-76707820D01*
X122515047Y-76707820D01*
X122515051Y-76707816D01*
X122519514Y-76699054D01*
X122567488Y-76648259D01*
X122635308Y-76631463D01*
X122701444Y-76653999D01*
X122740486Y-76699056D01*
X122744951Y-76707820D01*
X122869890Y-76879786D01*
X123020213Y-77030109D01*
X123192179Y-77155048D01*
X123192181Y-77155049D01*
X123192184Y-77155051D01*
X123381588Y-77251557D01*
X123583757Y-77317246D01*
X123793713Y-77350500D01*
X123793714Y-77350500D01*
X124006286Y-77350500D01*
X124006287Y-77350500D01*
X124216243Y-77317246D01*
X124418412Y-77251557D01*
X124607816Y-77155051D01*
X124694138Y-77092335D01*
X124779786Y-77030109D01*
X124779788Y-77030106D01*
X124779792Y-77030104D01*
X124930104Y-76879792D01*
X124930106Y-76879788D01*
X124930109Y-76879786D01*
X125015890Y-76761717D01*
X125055051Y-76707816D01*
X125059793Y-76698508D01*
X125107763Y-76647711D01*
X125175583Y-76630911D01*
X125241719Y-76653445D01*
X125280763Y-76698500D01*
X125285373Y-76707547D01*
X125324728Y-76761716D01*
X125957037Y-76129408D01*
X125974075Y-76192993D01*
X126039901Y-76307007D01*
X126132993Y-76400099D01*
X126247007Y-76465925D01*
X126310590Y-76482962D01*
X125678282Y-77115269D01*
X125678282Y-77115270D01*
X125732449Y-77154624D01*
X125921782Y-77251095D01*
X126123870Y-77316757D01*
X126333754Y-77350000D01*
X126546246Y-77350000D01*
X126756127Y-77316757D01*
X126756130Y-77316757D01*
X126958217Y-77251095D01*
X127147554Y-77154622D01*
X127201716Y-77115270D01*
X127201717Y-77115270D01*
X126569408Y-76482962D01*
X126632993Y-76465925D01*
X126747007Y-76400099D01*
X126840099Y-76307007D01*
X126905925Y-76192993D01*
X126922962Y-76129408D01*
X127555270Y-76761717D01*
X127555270Y-76761716D01*
X127594622Y-76707554D01*
X127691095Y-76518217D01*
X127756757Y-76316130D01*
X127756757Y-76316127D01*
X127790000Y-76106246D01*
X127790000Y-75893753D01*
X127756757Y-75683872D01*
X127756757Y-75683869D01*
X127691095Y-75481782D01*
X127594624Y-75292449D01*
X127555270Y-75238282D01*
X127555269Y-75238282D01*
X126922962Y-75870590D01*
X126905925Y-75807007D01*
X126840099Y-75692993D01*
X126747007Y-75599901D01*
X126632993Y-75534075D01*
X126569409Y-75517037D01*
X127201716Y-74884728D01*
X127147550Y-74845375D01*
X126958217Y-74748904D01*
X126756129Y-74683242D01*
X126546246Y-74650000D01*
X126333754Y-74650000D01*
X126123872Y-74683242D01*
X126123869Y-74683242D01*
X125921782Y-74748904D01*
X125732439Y-74845380D01*
X125678282Y-74884727D01*
X125678282Y-74884728D01*
X126310591Y-75517037D01*
X126247007Y-75534075D01*
X126132993Y-75599901D01*
X126039901Y-75692993D01*
X125974075Y-75807007D01*
X125957037Y-75870591D01*
X125324728Y-75238282D01*
X125324727Y-75238282D01*
X125285380Y-75292440D01*
X125285376Y-75292446D01*
X125280760Y-75301505D01*
X125232781Y-75352297D01*
X125164959Y-75369087D01*
X125098826Y-75346543D01*
X125059794Y-75301493D01*
X125055051Y-75292184D01*
X125055049Y-75292181D01*
X125055048Y-75292179D01*
X124930109Y-75120213D01*
X124779786Y-74969890D01*
X124607820Y-74844951D01*
X124418414Y-74748444D01*
X124418413Y-74748443D01*
X124418412Y-74748443D01*
X124216243Y-74682754D01*
X124216241Y-74682753D01*
X124216240Y-74682753D01*
X124054957Y-74657208D01*
X124006287Y-74649500D01*
X123793713Y-74649500D01*
X123745042Y-74657208D01*
X123583760Y-74682753D01*
X123381585Y-74748444D01*
X123192179Y-74844951D01*
X123020213Y-74969890D01*
X122869890Y-75120213D01*
X122744949Y-75292182D01*
X122740484Y-75300946D01*
X122692509Y-75351742D01*
X122624688Y-75368536D01*
X122558553Y-75345998D01*
X122519516Y-75300946D01*
X122515050Y-75292182D01*
X122390109Y-75120213D01*
X122239786Y-74969890D01*
X122067820Y-74844951D01*
X121878414Y-74748444D01*
X121878413Y-74748443D01*
X121878412Y-74748443D01*
X121676243Y-74682754D01*
X121676241Y-74682753D01*
X121676240Y-74682753D01*
X121514957Y-74657208D01*
X121466287Y-74649500D01*
X121253713Y-74649500D01*
X121205042Y-74657208D01*
X121043760Y-74682753D01*
X120841585Y-74748444D01*
X120652179Y-74844951D01*
X120480213Y-74969890D01*
X120329890Y-75120213D01*
X120204949Y-75292182D01*
X120200484Y-75300946D01*
X120152509Y-75351742D01*
X120084688Y-75368536D01*
X120018553Y-75345998D01*
X119979516Y-75300946D01*
X119975050Y-75292182D01*
X119850109Y-75120213D01*
X119699786Y-74969890D01*
X119527820Y-74844951D01*
X119338414Y-74748444D01*
X119338413Y-74748443D01*
X119338412Y-74748443D01*
X119136243Y-74682754D01*
X119136241Y-74682753D01*
X119136240Y-74682753D01*
X118974957Y-74657208D01*
X118926287Y-74649500D01*
X118713713Y-74649500D01*
X118665042Y-74657208D01*
X118503760Y-74682753D01*
X118301585Y-74748444D01*
X118112179Y-74844951D01*
X117940213Y-74969890D01*
X117789890Y-75120213D01*
X117664949Y-75292182D01*
X117660484Y-75300946D01*
X117612509Y-75351742D01*
X117544688Y-75368536D01*
X117478553Y-75345998D01*
X117439516Y-75300946D01*
X117435050Y-75292182D01*
X117310109Y-75120213D01*
X117159786Y-74969890D01*
X116987820Y-74844951D01*
X116798414Y-74748444D01*
X116798413Y-74748443D01*
X116798412Y-74748443D01*
X116596243Y-74682754D01*
X116596241Y-74682753D01*
X116596240Y-74682753D01*
X116434957Y-74657208D01*
X116386287Y-74649500D01*
X116173713Y-74649500D01*
X116125042Y-74657208D01*
X115963760Y-74682753D01*
X115761585Y-74748444D01*
X115572179Y-74844951D01*
X115400213Y-74969890D01*
X115249890Y-75120213D01*
X115124949Y-75292182D01*
X115120202Y-75301499D01*
X115072227Y-75352293D01*
X115004405Y-75369087D01*
X114938271Y-75346548D01*
X114899234Y-75301495D01*
X114894626Y-75292452D01*
X114855270Y-75238282D01*
X114855269Y-75238282D01*
X114222962Y-75870590D01*
X114205925Y-75807007D01*
X114140099Y-75692993D01*
X114047007Y-75599901D01*
X113932993Y-75534075D01*
X113869409Y-75517037D01*
X114501716Y-74884728D01*
X114447550Y-74845375D01*
X114258217Y-74748904D01*
X114056129Y-74683242D01*
X113846246Y-74650000D01*
X113633754Y-74650000D01*
X113423872Y-74683242D01*
X113423869Y-74683242D01*
X113221782Y-74748904D01*
X113032439Y-74845380D01*
X112978282Y-74884727D01*
X112978282Y-74884728D01*
X113610591Y-75517037D01*
X113547007Y-75534075D01*
X113432993Y-75599901D01*
X113339901Y-75692993D01*
X113274075Y-75807007D01*
X113257037Y-75870591D01*
X112624728Y-75238282D01*
X112624727Y-75238282D01*
X112585380Y-75292440D01*
X112585376Y-75292446D01*
X112580760Y-75301505D01*
X112532781Y-75352297D01*
X112464959Y-75369087D01*
X112398826Y-75346543D01*
X112359794Y-75301493D01*
X112355051Y-75292184D01*
X112355049Y-75292181D01*
X112355048Y-75292179D01*
X112230109Y-75120213D01*
X112079786Y-74969890D01*
X111903875Y-74842085D01*
X111904851Y-74840740D01*
X111862834Y-74794295D01*
X111850500Y-74740382D01*
X111850500Y-69635928D01*
X111825502Y-69510261D01*
X111825501Y-69510260D01*
X111825501Y-69510256D01*
X111776465Y-69391873D01*
X111705277Y-69285331D01*
X111705275Y-69285329D01*
X111705273Y-69285326D01*
X108664673Y-66244726D01*
X108664669Y-66244723D01*
X108558127Y-66173535D01*
X108439744Y-66124499D01*
X108439738Y-66124497D01*
X108314071Y-66099500D01*
X108314069Y-66099500D01*
X96070808Y-66099500D01*
X96003769Y-66079815D01*
X95983127Y-66063181D01*
X94146819Y-64226873D01*
X94113334Y-64165550D01*
X94110500Y-64139192D01*
X94110500Y-59724499D01*
X94130185Y-59657460D01*
X94182989Y-59611705D01*
X94234500Y-59600499D01*
X94357871Y-59600499D01*
X94357872Y-59600499D01*
X94417483Y-59594091D01*
X94552331Y-59543796D01*
X94667546Y-59457546D01*
X94753796Y-59342331D01*
X94802810Y-59210916D01*
X94844681Y-59154984D01*
X94910145Y-59130566D01*
X94978418Y-59145417D01*
X95006673Y-59166569D01*
X95120213Y-59280109D01*
X95292179Y-59405048D01*
X95292181Y-59405049D01*
X95292184Y-59405051D01*
X95481588Y-59501557D01*
X95683757Y-59567246D01*
X95893713Y-59600500D01*
X95893714Y-59600500D01*
X96106286Y-59600500D01*
X96106287Y-59600500D01*
X96316243Y-59567246D01*
X96518412Y-59501557D01*
X96707816Y-59405051D01*
X96794138Y-59342335D01*
X96879786Y-59280109D01*
X96879788Y-59280106D01*
X96879792Y-59280104D01*
X97030104Y-59129792D01*
X97030106Y-59129788D01*
X97030109Y-59129786D01*
X97155048Y-58957820D01*
X97155047Y-58957820D01*
X97155051Y-58957816D01*
X97159514Y-58949054D01*
X97207488Y-58898259D01*
X97275308Y-58881463D01*
X97341444Y-58903999D01*
X97380486Y-58949056D01*
X97384951Y-58957820D01*
X97509890Y-59129786D01*
X97660213Y-59280109D01*
X97832179Y-59405048D01*
X97832181Y-59405049D01*
X97832184Y-59405051D01*
X98021588Y-59501557D01*
X98223757Y-59567246D01*
X98433713Y-59600500D01*
X98433714Y-59600500D01*
X98646286Y-59600500D01*
X98646287Y-59600500D01*
X98856243Y-59567246D01*
X99058412Y-59501557D01*
X99247816Y-59405051D01*
X99334138Y-59342335D01*
X99419786Y-59280109D01*
X99419788Y-59280106D01*
X99419792Y-59280104D01*
X99570104Y-59129792D01*
X99570106Y-59129788D01*
X99570109Y-59129786D01*
X99695048Y-58957820D01*
X99695047Y-58957820D01*
X99695051Y-58957816D01*
X99699514Y-58949054D01*
X99747488Y-58898259D01*
X99815308Y-58881463D01*
X99881444Y-58903999D01*
X99920486Y-58949056D01*
X99924951Y-58957820D01*
X100049890Y-59129786D01*
X100200213Y-59280109D01*
X100372179Y-59405048D01*
X100372181Y-59405049D01*
X100372184Y-59405051D01*
X100561588Y-59501557D01*
X100763757Y-59567246D01*
X100973713Y-59600500D01*
X100973714Y-59600500D01*
X101186286Y-59600500D01*
X101186287Y-59600500D01*
X101396243Y-59567246D01*
X101598412Y-59501557D01*
X101787816Y-59405051D01*
X101874138Y-59342335D01*
X101959786Y-59280109D01*
X101959788Y-59280106D01*
X101959792Y-59280104D01*
X102110104Y-59129792D01*
X102110106Y-59129788D01*
X102110109Y-59129786D01*
X102235048Y-58957820D01*
X102235047Y-58957820D01*
X102235051Y-58957816D01*
X102239514Y-58949054D01*
X102287488Y-58898259D01*
X102355308Y-58881463D01*
X102421444Y-58903999D01*
X102460486Y-58949056D01*
X102464951Y-58957820D01*
X102589890Y-59129786D01*
X102740213Y-59280109D01*
X102912179Y-59405048D01*
X102912181Y-59405049D01*
X102912184Y-59405051D01*
X103101588Y-59501557D01*
X103303757Y-59567246D01*
X103513713Y-59600500D01*
X103513714Y-59600500D01*
X103726286Y-59600500D01*
X103726287Y-59600500D01*
X103936243Y-59567246D01*
X104138412Y-59501557D01*
X104327816Y-59405051D01*
X104414138Y-59342335D01*
X104499786Y-59280109D01*
X104499788Y-59280106D01*
X104499792Y-59280104D01*
X104650104Y-59129792D01*
X104650106Y-59129788D01*
X104650109Y-59129786D01*
X104775048Y-58957820D01*
X104775047Y-58957820D01*
X104775051Y-58957816D01*
X104779514Y-58949054D01*
X104827488Y-58898259D01*
X104895308Y-58881463D01*
X104961444Y-58903999D01*
X105000486Y-58949056D01*
X105004951Y-58957820D01*
X105129890Y-59129786D01*
X105280213Y-59280109D01*
X105452179Y-59405048D01*
X105452181Y-59405049D01*
X105452184Y-59405051D01*
X105641588Y-59501557D01*
X105843757Y-59567246D01*
X106053713Y-59600500D01*
X106053714Y-59600500D01*
X106266286Y-59600500D01*
X106266287Y-59600500D01*
X106476243Y-59567246D01*
X106678412Y-59501557D01*
X106867816Y-59405051D01*
X106954138Y-59342335D01*
X107039786Y-59280109D01*
X107039788Y-59280106D01*
X107039792Y-59280104D01*
X107190104Y-59129792D01*
X107190106Y-59129788D01*
X107190109Y-59129786D01*
X107275890Y-59011717D01*
X107315051Y-58957816D01*
X107319793Y-58948508D01*
X107367763Y-58897711D01*
X107435583Y-58880911D01*
X107501719Y-58903445D01*
X107540763Y-58948500D01*
X107545373Y-58957547D01*
X107584728Y-59011716D01*
X108217037Y-58379408D01*
X108234075Y-58442993D01*
X108299901Y-58557007D01*
X108392993Y-58650099D01*
X108507007Y-58715925D01*
X108570590Y-58732962D01*
X107938282Y-59365269D01*
X107938282Y-59365270D01*
X107992449Y-59404624D01*
X108181782Y-59501095D01*
X108383870Y-59566757D01*
X108593754Y-59600000D01*
X108806246Y-59600000D01*
X109016127Y-59566757D01*
X109016130Y-59566757D01*
X109218217Y-59501095D01*
X109407554Y-59404622D01*
X109461716Y-59365270D01*
X109461717Y-59365270D01*
X108829408Y-58732962D01*
X108892993Y-58715925D01*
X109007007Y-58650099D01*
X109100099Y-58557007D01*
X109165925Y-58442993D01*
X109182962Y-58379409D01*
X109815270Y-59011717D01*
X109815270Y-59011716D01*
X109854622Y-58957555D01*
X109859232Y-58948507D01*
X109907205Y-58897709D01*
X109975025Y-58880912D01*
X110041161Y-58903447D01*
X110080204Y-58948504D01*
X110084949Y-58957817D01*
X110209890Y-59129786D01*
X110360213Y-59280109D01*
X110532179Y-59405048D01*
X110532181Y-59405049D01*
X110532184Y-59405051D01*
X110721588Y-59501557D01*
X110923757Y-59567246D01*
X111133713Y-59600500D01*
X111133714Y-59600500D01*
X111346286Y-59600500D01*
X111346287Y-59600500D01*
X111556243Y-59567246D01*
X111758412Y-59501557D01*
X111947816Y-59405051D01*
X112034138Y-59342335D01*
X112119786Y-59280109D01*
X112119788Y-59280106D01*
X112119792Y-59280104D01*
X112270104Y-59129792D01*
X112270106Y-59129788D01*
X112270109Y-59129786D01*
X112395048Y-58957820D01*
X112395047Y-58957820D01*
X112395051Y-58957816D01*
X112399514Y-58949054D01*
X112447488Y-58898259D01*
X112515308Y-58881463D01*
X112581444Y-58903999D01*
X112620486Y-58949056D01*
X112624951Y-58957820D01*
X112749890Y-59129786D01*
X112900213Y-59280109D01*
X113072179Y-59405048D01*
X113072181Y-59405049D01*
X113072184Y-59405051D01*
X113261588Y-59501557D01*
X113463757Y-59567246D01*
X113673713Y-59600500D01*
X113673714Y-59600500D01*
X113886286Y-59600500D01*
X113886287Y-59600500D01*
X114096243Y-59567246D01*
X114298412Y-59501557D01*
X114487816Y-59405051D01*
X114574138Y-59342335D01*
X114659786Y-59280109D01*
X114659788Y-59280106D01*
X114659792Y-59280104D01*
X114810104Y-59129792D01*
X114810106Y-59129788D01*
X114810109Y-59129786D01*
X114935048Y-58957820D01*
X114935047Y-58957820D01*
X114935051Y-58957816D01*
X114939514Y-58949054D01*
X114987488Y-58898259D01*
X115055308Y-58881463D01*
X115121444Y-58903999D01*
X115160486Y-58949056D01*
X115164951Y-58957820D01*
X115289890Y-59129786D01*
X115440213Y-59280109D01*
X115612179Y-59405048D01*
X115612181Y-59405049D01*
X115612184Y-59405051D01*
X115801588Y-59501557D01*
X116003757Y-59567246D01*
X116213713Y-59600500D01*
X116213714Y-59600500D01*
X116426286Y-59600500D01*
X116426287Y-59600500D01*
X116636243Y-59567246D01*
X116838412Y-59501557D01*
X117027816Y-59405051D01*
X117114138Y-59342335D01*
X117199786Y-59280109D01*
X117199788Y-59280106D01*
X117199792Y-59280104D01*
X117350104Y-59129792D01*
X117350106Y-59129788D01*
X117350109Y-59129786D01*
X117475048Y-58957820D01*
X117475047Y-58957820D01*
X117475051Y-58957816D01*
X117479514Y-58949054D01*
X117527488Y-58898259D01*
X117595308Y-58881463D01*
X117661444Y-58903999D01*
X117700486Y-58949056D01*
X117704951Y-58957820D01*
X117829890Y-59129786D01*
X117980213Y-59280109D01*
X118152179Y-59405048D01*
X118152181Y-59405049D01*
X118152184Y-59405051D01*
X118341588Y-59501557D01*
X118543757Y-59567246D01*
X118753713Y-59600500D01*
X118753714Y-59600500D01*
X118966286Y-59600500D01*
X118966287Y-59600500D01*
X119176243Y-59567246D01*
X119378412Y-59501557D01*
X119567816Y-59405051D01*
X119654138Y-59342335D01*
X119739786Y-59280109D01*
X119739788Y-59280106D01*
X119739792Y-59280104D01*
X119890104Y-59129792D01*
X119890106Y-59129788D01*
X119890109Y-59129786D01*
X120015048Y-58957820D01*
X120015047Y-58957820D01*
X120015051Y-58957816D01*
X120019514Y-58949054D01*
X120067488Y-58898259D01*
X120135308Y-58881463D01*
X120201444Y-58903999D01*
X120240486Y-58949056D01*
X120244951Y-58957820D01*
X120369890Y-59129786D01*
X120520213Y-59280109D01*
X120692179Y-59405048D01*
X120692181Y-59405049D01*
X120692184Y-59405051D01*
X120881588Y-59501557D01*
X121083757Y-59567246D01*
X121293713Y-59600500D01*
X121293714Y-59600500D01*
X121506286Y-59600500D01*
X121506287Y-59600500D01*
X121716243Y-59567246D01*
X121918412Y-59501557D01*
X122107816Y-59405051D01*
X122194138Y-59342335D01*
X122279786Y-59280109D01*
X122279788Y-59280106D01*
X122279792Y-59280104D01*
X122430104Y-59129792D01*
X122430106Y-59129788D01*
X122430109Y-59129786D01*
X122555048Y-58957820D01*
X122555047Y-58957820D01*
X122555051Y-58957816D01*
X122559514Y-58949054D01*
X122607488Y-58898259D01*
X122675308Y-58881463D01*
X122741444Y-58903999D01*
X122780486Y-58949056D01*
X122784951Y-58957820D01*
X122909890Y-59129786D01*
X123060213Y-59280109D01*
X123232179Y-59405048D01*
X123232181Y-59405049D01*
X123232184Y-59405051D01*
X123421588Y-59501557D01*
X123623757Y-59567246D01*
X123833713Y-59600500D01*
X123833714Y-59600500D01*
X124046286Y-59600500D01*
X124046287Y-59600500D01*
X124256243Y-59567246D01*
X124458412Y-59501557D01*
X124647816Y-59405051D01*
X124734138Y-59342335D01*
X124819786Y-59280109D01*
X124819788Y-59280106D01*
X124819792Y-59280104D01*
X124970104Y-59129792D01*
X124970106Y-59129788D01*
X124970109Y-59129786D01*
X125095048Y-58957820D01*
X125095047Y-58957820D01*
X125095051Y-58957816D01*
X125099514Y-58949054D01*
X125147488Y-58898259D01*
X125215308Y-58881463D01*
X125281444Y-58903999D01*
X125320486Y-58949056D01*
X125324951Y-58957820D01*
X125449890Y-59129786D01*
X125600213Y-59280109D01*
X125772179Y-59405048D01*
X125772181Y-59405049D01*
X125772184Y-59405051D01*
X125961588Y-59501557D01*
X126163757Y-59567246D01*
X126373713Y-59600500D01*
X126373714Y-59600500D01*
X126586286Y-59600500D01*
X126586287Y-59600500D01*
X126796243Y-59567246D01*
X126998412Y-59501557D01*
X127187816Y-59405051D01*
X127274138Y-59342335D01*
X127359786Y-59280109D01*
X127359788Y-59280106D01*
X127359792Y-59280104D01*
X127510104Y-59129792D01*
X127510106Y-59129788D01*
X127510109Y-59129786D01*
X127635048Y-58957820D01*
X127635047Y-58957820D01*
X127635051Y-58957816D01*
X127731557Y-58768412D01*
X127797246Y-58566243D01*
X127830500Y-58356287D01*
X127830500Y-58143713D01*
X127797246Y-57933757D01*
X127731557Y-57731588D01*
X127635051Y-57542184D01*
X127635049Y-57542181D01*
X127635048Y-57542179D01*
X127510109Y-57370213D01*
X127359786Y-57219890D01*
X127187820Y-57094951D01*
X126998414Y-56998444D01*
X126998413Y-56998443D01*
X126998412Y-56998443D01*
X126796243Y-56932754D01*
X126796241Y-56932753D01*
X126796240Y-56932753D01*
X126634957Y-56907208D01*
X126586287Y-56899500D01*
X126373713Y-56899500D01*
X126325042Y-56907208D01*
X126163760Y-56932753D01*
X125961585Y-56998444D01*
X125772179Y-57094951D01*
X125600213Y-57219890D01*
X125449890Y-57370213D01*
X125324949Y-57542182D01*
X125320484Y-57550946D01*
X125272509Y-57601742D01*
X125204688Y-57618536D01*
X125138553Y-57595998D01*
X125099516Y-57550946D01*
X125095050Y-57542182D01*
X124970109Y-57370213D01*
X124819786Y-57219890D01*
X124647820Y-57094951D01*
X124458414Y-56998444D01*
X124458413Y-56998443D01*
X124458412Y-56998443D01*
X124256243Y-56932754D01*
X124256241Y-56932753D01*
X124256240Y-56932753D01*
X124094957Y-56907208D01*
X124046287Y-56899500D01*
X123833713Y-56899500D01*
X123785042Y-56907208D01*
X123623760Y-56932753D01*
X123421585Y-56998444D01*
X123232179Y-57094951D01*
X123060213Y-57219890D01*
X122909890Y-57370213D01*
X122784949Y-57542182D01*
X122780484Y-57550946D01*
X122732509Y-57601742D01*
X122664688Y-57618536D01*
X122598553Y-57595998D01*
X122559516Y-57550946D01*
X122555050Y-57542182D01*
X122430109Y-57370213D01*
X122279786Y-57219890D01*
X122107820Y-57094951D01*
X121918414Y-56998444D01*
X121918413Y-56998443D01*
X121918412Y-56998443D01*
X121716243Y-56932754D01*
X121716241Y-56932753D01*
X121716240Y-56932753D01*
X121554957Y-56907208D01*
X121506287Y-56899500D01*
X121293713Y-56899500D01*
X121245042Y-56907208D01*
X121083760Y-56932753D01*
X120881585Y-56998444D01*
X120692179Y-57094951D01*
X120520213Y-57219890D01*
X120369890Y-57370213D01*
X120244949Y-57542182D01*
X120240484Y-57550946D01*
X120192509Y-57601742D01*
X120124688Y-57618536D01*
X120058553Y-57595998D01*
X120019516Y-57550946D01*
X120015050Y-57542182D01*
X119890109Y-57370213D01*
X119739786Y-57219890D01*
X119567820Y-57094951D01*
X119378414Y-56998444D01*
X119378413Y-56998443D01*
X119378412Y-56998443D01*
X119176243Y-56932754D01*
X119176241Y-56932753D01*
X119176240Y-56932753D01*
X119014957Y-56907208D01*
X118966287Y-56899500D01*
X118753713Y-56899500D01*
X118705042Y-56907208D01*
X118543760Y-56932753D01*
X118341585Y-56998444D01*
X118152179Y-57094951D01*
X117980213Y-57219890D01*
X117829890Y-57370213D01*
X117704949Y-57542182D01*
X117700484Y-57550946D01*
X117652509Y-57601742D01*
X117584688Y-57618536D01*
X117518553Y-57595998D01*
X117479516Y-57550946D01*
X117475050Y-57542182D01*
X117350109Y-57370213D01*
X117199786Y-57219890D01*
X117027820Y-57094951D01*
X116838414Y-56998444D01*
X116838413Y-56998443D01*
X116838412Y-56998443D01*
X116636243Y-56932754D01*
X116636241Y-56932753D01*
X116636240Y-56932753D01*
X116474957Y-56907208D01*
X116426287Y-56899500D01*
X116213713Y-56899500D01*
X116165042Y-56907208D01*
X116003760Y-56932753D01*
X115801585Y-56998444D01*
X115612179Y-57094951D01*
X115440213Y-57219890D01*
X115289890Y-57370213D01*
X115164949Y-57542182D01*
X115160484Y-57550946D01*
X115112509Y-57601742D01*
X115044688Y-57618536D01*
X114978553Y-57595998D01*
X114939516Y-57550946D01*
X114935050Y-57542182D01*
X114810109Y-57370213D01*
X114659786Y-57219890D01*
X114487820Y-57094951D01*
X114298414Y-56998444D01*
X114298413Y-56998443D01*
X114298412Y-56998443D01*
X114096243Y-56932754D01*
X114096241Y-56932753D01*
X114096240Y-56932753D01*
X113934957Y-56907208D01*
X113886287Y-56899500D01*
X113673713Y-56899500D01*
X113625042Y-56907208D01*
X113463760Y-56932753D01*
X113261585Y-56998444D01*
X113072179Y-57094951D01*
X112900213Y-57219890D01*
X112749890Y-57370213D01*
X112624949Y-57542182D01*
X112620484Y-57550946D01*
X112572509Y-57601742D01*
X112504688Y-57618536D01*
X112438553Y-57595998D01*
X112399516Y-57550946D01*
X112395050Y-57542182D01*
X112270109Y-57370213D01*
X112119786Y-57219890D01*
X111947820Y-57094951D01*
X111758414Y-56998444D01*
X111758413Y-56998443D01*
X111758412Y-56998443D01*
X111556243Y-56932754D01*
X111556241Y-56932753D01*
X111556240Y-56932753D01*
X111394957Y-56907208D01*
X111346287Y-56899500D01*
X111133713Y-56899500D01*
X111085042Y-56907208D01*
X110923760Y-56932753D01*
X110721585Y-56998444D01*
X110532179Y-57094951D01*
X110360213Y-57219890D01*
X110209890Y-57370213D01*
X110084949Y-57542182D01*
X110080202Y-57551499D01*
X110032227Y-57602293D01*
X109964405Y-57619087D01*
X109898271Y-57596548D01*
X109859234Y-57551495D01*
X109854626Y-57542452D01*
X109815270Y-57488282D01*
X109815269Y-57488282D01*
X109182962Y-58120590D01*
X109165925Y-58057007D01*
X109100099Y-57942993D01*
X109007007Y-57849901D01*
X108892993Y-57784075D01*
X108829409Y-57767037D01*
X109461716Y-57134728D01*
X109407550Y-57095375D01*
X109218217Y-56998904D01*
X109016129Y-56933242D01*
X108806246Y-56900000D01*
X108593754Y-56900000D01*
X108383872Y-56933242D01*
X108383869Y-56933242D01*
X108181782Y-56998904D01*
X107992439Y-57095380D01*
X107938282Y-57134727D01*
X107938282Y-57134728D01*
X108570591Y-57767037D01*
X108507007Y-57784075D01*
X108392993Y-57849901D01*
X108299901Y-57942993D01*
X108234075Y-58057007D01*
X108217037Y-58120591D01*
X107584728Y-57488282D01*
X107584727Y-57488282D01*
X107545380Y-57542440D01*
X107545376Y-57542446D01*
X107540760Y-57551505D01*
X107492781Y-57602297D01*
X107424959Y-57619087D01*
X107358826Y-57596543D01*
X107319794Y-57551493D01*
X107315051Y-57542184D01*
X107315049Y-57542181D01*
X107315048Y-57542179D01*
X107190109Y-57370213D01*
X107039786Y-57219890D01*
X106867820Y-57094951D01*
X106678414Y-56998444D01*
X106678413Y-56998443D01*
X106678412Y-56998443D01*
X106476243Y-56932754D01*
X106476241Y-56932753D01*
X106476240Y-56932753D01*
X106314957Y-56907208D01*
X106266287Y-56899500D01*
X106053713Y-56899500D01*
X106005042Y-56907208D01*
X105843760Y-56932753D01*
X105641585Y-56998444D01*
X105452179Y-57094951D01*
X105280213Y-57219890D01*
X105129890Y-57370213D01*
X105004949Y-57542182D01*
X105000484Y-57550946D01*
X104952509Y-57601742D01*
X104884688Y-57618536D01*
X104818553Y-57595998D01*
X104779516Y-57550946D01*
X104775050Y-57542182D01*
X104650109Y-57370213D01*
X104499786Y-57219890D01*
X104327820Y-57094951D01*
X104138414Y-56998444D01*
X104138413Y-56998443D01*
X104138412Y-56998443D01*
X103936243Y-56932754D01*
X103936241Y-56932753D01*
X103936240Y-56932753D01*
X103774957Y-56907208D01*
X103726287Y-56899500D01*
X103513713Y-56899500D01*
X103465042Y-56907208D01*
X103303760Y-56932753D01*
X103101585Y-56998444D01*
X102912179Y-57094951D01*
X102740213Y-57219890D01*
X102589890Y-57370213D01*
X102464949Y-57542182D01*
X102460484Y-57550946D01*
X102412509Y-57601742D01*
X102344688Y-57618536D01*
X102278553Y-57595998D01*
X102239516Y-57550946D01*
X102235050Y-57542182D01*
X102110109Y-57370213D01*
X101959786Y-57219890D01*
X101787820Y-57094951D01*
X101598414Y-56998444D01*
X101598413Y-56998443D01*
X101598412Y-56998443D01*
X101396243Y-56932754D01*
X101396241Y-56932753D01*
X101396240Y-56932753D01*
X101234957Y-56907208D01*
X101186287Y-56899500D01*
X100973713Y-56899500D01*
X100925042Y-56907208D01*
X100763760Y-56932753D01*
X100561585Y-56998444D01*
X100372179Y-57094951D01*
X100200213Y-57219890D01*
X100049890Y-57370213D01*
X99924949Y-57542182D01*
X99920484Y-57550946D01*
X99872509Y-57601742D01*
X99804688Y-57618536D01*
X99738553Y-57595998D01*
X99699516Y-57550946D01*
X99695050Y-57542182D01*
X99570109Y-57370213D01*
X99419786Y-57219890D01*
X99247820Y-57094951D01*
X99058414Y-56998444D01*
X99058413Y-56998443D01*
X99058412Y-56998443D01*
X98856243Y-56932754D01*
X98856241Y-56932753D01*
X98856240Y-56932753D01*
X98694957Y-56907208D01*
X98646287Y-56899500D01*
X98433713Y-56899500D01*
X98385042Y-56907208D01*
X98223760Y-56932753D01*
X98021585Y-56998444D01*
X97832179Y-57094951D01*
X97660213Y-57219890D01*
X97509890Y-57370213D01*
X97384949Y-57542182D01*
X97380484Y-57550946D01*
X97332509Y-57601742D01*
X97264688Y-57618536D01*
X97198553Y-57595998D01*
X97159516Y-57550946D01*
X97155050Y-57542182D01*
X97030109Y-57370213D01*
X96879786Y-57219890D01*
X96707820Y-57094951D01*
X96518414Y-56998444D01*
X96518413Y-56998443D01*
X96518412Y-56998443D01*
X96316243Y-56932754D01*
X96316241Y-56932753D01*
X96316240Y-56932753D01*
X96154957Y-56907208D01*
X96106287Y-56899500D01*
X95893713Y-56899500D01*
X95845042Y-56907208D01*
X95683760Y-56932753D01*
X95481585Y-56998444D01*
X95292179Y-57094951D01*
X95120215Y-57219889D01*
X95006673Y-57333431D01*
X94945350Y-57366915D01*
X94875658Y-57361931D01*
X94819725Y-57320059D01*
X94802810Y-57289082D01*
X94753797Y-57157671D01*
X94753793Y-57157664D01*
X94667547Y-57042455D01*
X94667544Y-57042452D01*
X94552335Y-56956206D01*
X94552328Y-56956202D01*
X94417482Y-56905908D01*
X94417483Y-56905908D01*
X94357883Y-56899501D01*
X94357881Y-56899500D01*
X94357873Y-56899500D01*
X94357864Y-56899500D01*
X92562129Y-56899500D01*
X92562123Y-56899501D01*
X92502516Y-56905908D01*
X92367671Y-56956202D01*
X92367664Y-56956206D01*
X92252455Y-57042452D01*
X92252452Y-57042455D01*
X92166206Y-57157664D01*
X92166202Y-57157671D01*
X92115908Y-57292517D01*
X92109501Y-57352116D01*
X92109500Y-57352135D01*
X92109500Y-59147870D01*
X92109501Y-59147876D01*
X92115908Y-59207483D01*
X92166202Y-59342328D01*
X92166206Y-59342335D01*
X92252452Y-59457544D01*
X92252455Y-59457547D01*
X92367664Y-59543793D01*
X92367671Y-59543797D01*
X92412618Y-59560561D01*
X92502517Y-59594091D01*
X92562127Y-59600500D01*
X92685500Y-59600499D01*
X92752539Y-59620183D01*
X92798294Y-59672987D01*
X92809500Y-59724499D01*
X92809500Y-64524069D01*
X92809500Y-64524071D01*
X92809499Y-64524071D01*
X92834497Y-64649738D01*
X92834499Y-64649744D01*
X92883534Y-64768125D01*
X92954726Y-64874673D01*
X95335326Y-67255273D01*
X95335329Y-67255275D01*
X95335331Y-67255277D01*
X95441873Y-67326465D01*
X95560256Y-67375501D01*
X95560260Y-67375501D01*
X95560261Y-67375502D01*
X95685928Y-67400500D01*
X95685931Y-67400500D01*
X107929192Y-67400500D01*
X107996231Y-67420185D01*
X108016873Y-67436819D01*
X110513181Y-69933127D01*
X110546666Y-69994450D01*
X110549500Y-70020808D01*
X110549500Y-74740382D01*
X110529815Y-74807421D01*
X110495408Y-74841099D01*
X110496125Y-74842085D01*
X110320213Y-74969890D01*
X110169890Y-75120213D01*
X110044949Y-75292182D01*
X110040484Y-75300946D01*
X109992509Y-75351742D01*
X109924688Y-75368536D01*
X109858553Y-75345998D01*
X109819516Y-75300946D01*
X109815050Y-75292182D01*
X109690109Y-75120213D01*
X109539786Y-74969890D01*
X109367820Y-74844951D01*
X109178414Y-74748444D01*
X109178413Y-74748443D01*
X109178412Y-74748443D01*
X108976243Y-74682754D01*
X108976241Y-74682753D01*
X108976240Y-74682753D01*
X108814957Y-74657208D01*
X108766287Y-74649500D01*
X108553713Y-74649500D01*
X108505042Y-74657208D01*
X108343760Y-74682753D01*
X108141585Y-74748444D01*
X107952179Y-74844951D01*
X107780213Y-74969890D01*
X107629890Y-75120213D01*
X107504949Y-75292182D01*
X107500484Y-75300946D01*
X107452509Y-75351742D01*
X107384688Y-75368536D01*
X107318553Y-75345998D01*
X107279516Y-75300946D01*
X107275050Y-75292182D01*
X107150109Y-75120213D01*
X106999786Y-74969890D01*
X106827820Y-74844951D01*
X106638414Y-74748444D01*
X106638413Y-74748443D01*
X106638412Y-74748443D01*
X106436243Y-74682754D01*
X106436241Y-74682753D01*
X106436240Y-74682753D01*
X106274957Y-74657208D01*
X106226287Y-74649500D01*
X106013713Y-74649500D01*
X105965042Y-74657208D01*
X105803760Y-74682753D01*
X105601585Y-74748444D01*
X105412179Y-74844951D01*
X105240213Y-74969890D01*
X105089890Y-75120213D01*
X104964949Y-75292182D01*
X104960484Y-75300946D01*
X104912509Y-75351742D01*
X104844688Y-75368536D01*
X104778553Y-75345998D01*
X104739516Y-75300946D01*
X104735050Y-75292182D01*
X104610109Y-75120213D01*
X104459786Y-74969890D01*
X104287820Y-74844951D01*
X104098414Y-74748444D01*
X104098413Y-74748443D01*
X104098412Y-74748443D01*
X103896243Y-74682754D01*
X103896241Y-74682753D01*
X103896240Y-74682753D01*
X103734957Y-74657208D01*
X103686287Y-74649500D01*
X103473713Y-74649500D01*
X103425042Y-74657208D01*
X103263760Y-74682753D01*
X103061585Y-74748444D01*
X102872179Y-74844951D01*
X102700213Y-74969890D01*
X102549890Y-75120213D01*
X102424949Y-75292182D01*
X102420484Y-75300946D01*
X102372509Y-75351742D01*
X102304688Y-75368536D01*
X102238553Y-75345998D01*
X102199516Y-75300946D01*
X102195050Y-75292182D01*
X102070109Y-75120213D01*
X101919786Y-74969890D01*
X101747820Y-74844951D01*
X101558414Y-74748444D01*
X101558413Y-74748443D01*
X101558412Y-74748443D01*
X101356243Y-74682754D01*
X101356241Y-74682753D01*
X101356240Y-74682753D01*
X101194957Y-74657208D01*
X101146287Y-74649500D01*
X100933713Y-74649500D01*
X100885042Y-74657208D01*
X100723760Y-74682753D01*
X100521585Y-74748444D01*
X100332179Y-74844951D01*
X100160213Y-74969890D01*
X100009890Y-75120213D01*
X99884949Y-75292182D01*
X99880484Y-75300946D01*
X99832509Y-75351742D01*
X99764688Y-75368536D01*
X99698553Y-75345998D01*
X99659516Y-75300946D01*
X99655050Y-75292182D01*
X99530109Y-75120213D01*
X99379786Y-74969890D01*
X99207820Y-74844951D01*
X99018414Y-74748444D01*
X99018413Y-74748443D01*
X99018412Y-74748443D01*
X98816243Y-74682754D01*
X98816241Y-74682753D01*
X98816240Y-74682753D01*
X98654957Y-74657208D01*
X98606287Y-74649500D01*
X98393713Y-74649500D01*
X98345042Y-74657208D01*
X98183760Y-74682753D01*
X97981585Y-74748444D01*
X97792179Y-74844951D01*
X97620213Y-74969890D01*
X97469890Y-75120213D01*
X97344949Y-75292182D01*
X97340484Y-75300946D01*
X97292509Y-75351742D01*
X97224688Y-75368536D01*
X97158553Y-75345998D01*
X97119516Y-75300946D01*
X97115050Y-75292182D01*
X96990109Y-75120213D01*
X96839786Y-74969890D01*
X96667820Y-74844951D01*
X96478414Y-74748444D01*
X96478413Y-74748443D01*
X96478412Y-74748443D01*
X96276243Y-74682754D01*
X96276241Y-74682753D01*
X96276240Y-74682753D01*
X96114957Y-74657208D01*
X96066287Y-74649500D01*
X95853713Y-74649500D01*
X95805042Y-74657208D01*
X95643760Y-74682753D01*
X95441585Y-74748444D01*
X95252179Y-74844951D01*
X95080215Y-74969889D01*
X94966673Y-75083431D01*
X94905350Y-75116915D01*
X94835658Y-75111931D01*
X94779725Y-75070059D01*
X94762810Y-75039082D01*
X94713797Y-74907671D01*
X94713793Y-74907664D01*
X94627547Y-74792455D01*
X94627544Y-74792452D01*
X94512335Y-74706206D01*
X94512328Y-74706202D01*
X94377482Y-74655908D01*
X94377483Y-74655908D01*
X94317883Y-74649501D01*
X94317881Y-74649500D01*
X94317873Y-74649500D01*
X94317864Y-74649500D01*
X92522129Y-74649500D01*
X92522123Y-74649501D01*
X92462516Y-74655908D01*
X92327671Y-74706202D01*
X92327664Y-74706206D01*
X92212455Y-74792452D01*
X92212452Y-74792455D01*
X92126206Y-74907664D01*
X92126202Y-74907671D01*
X92075908Y-75042517D01*
X92069501Y-75102116D01*
X92069500Y-75102135D01*
X85600500Y-75102135D01*
X85600500Y-51724500D01*
X85620185Y-51657461D01*
X85672989Y-51611706D01*
X85724500Y-51600500D01*
X133575500Y-51600500D01*
X133642539Y-51620185D01*
G37*
%TD.AperFunction*%
%TD*%
M02*
