M48
; DRILL file {KiCad 9.0.1-9.0.1-0~ubuntu24.04.1} date 2025-04-22T11:48:04+0900
; FORMAT={-:-/ absolute / metric / decimal}
; #@! TF.CreationDate,2025-04-22T11:48:04+09:00
; #@! TF.GenerationSoftware,Kicad,Pcbnew,9.0.1-9.0.1-0~ubuntu24.04.1
; #@! TF.FileFunction,Plated,1,2,PTH
FMAT,2
METRIC
; #@! TA.AperFunction,Plated,PTH,ViaDrill
T1C0.300
; #@! TA.AperFunction,Plated,PTH,ComponentDrill
T2C1.000
%
G90
G05
T1
X92.202Y-119.126
X92.71Y-53.34
X92.71Y-62.23
X92.71Y-71.12
X92.964Y-78.486
X93.98Y-117.094
X96.52Y-153.454
X99.06Y-53.34
X99.06Y-57.15
X99.822Y-96.012
X101.6Y-135.89
X101.6Y-161.29
X102.108Y-81.534
X102.616Y-120.904
X102.616Y-126.238
X104.14Y-132.08
X106.68Y-41.91
X107.95Y-58.42
X107.95Y-63.5
X107.95Y-69.85
X107.95Y-95.25
X109.22Y-49.53
X109.22Y-86.36
X109.22Y-161.29
X111.76Y-95.25
X114.3Y-53.34
X114.3Y-120.65
X114.3Y-130.81
X114.3Y-135.89
X116.84Y-41.91
X116.84Y-53.34
X116.84Y-161.29
X117.817Y-150.583
X118.11Y-130.81
X118.11Y-157.48
X119.38Y-120.65
X123.19Y-157.48
X123.952Y-148.336
X124.206Y-138.43
X124.206Y-143.51
X124.46Y-161.29
X125.73Y-53.34
X127.0Y-41.91
X127.0Y-53.34
X128.27Y-48.26
X128.27Y-85.09
X130.81Y-62.23
X130.81Y-67.31
X130.81Y-72.39
X130.81Y-76.2
X130.81Y-134.62
X130.81Y-139.7
X130.81Y-146.05
X132.08Y-85.09
X132.08Y-97.79
X132.08Y-102.87
X132.08Y-107.95
X132.08Y-120.65
X133.35Y-48.26
X133.35Y-161.29
X135.89Y-41.91
X137.16Y-57.15
X137.16Y-125.73
X138.43Y-149.86
X138.43Y-153.67
X140.97Y-161.29
X147.32Y-152.4
T2
X86.106Y-107.188
X86.106Y-109.728
X86.106Y-112.268
X86.106Y-114.808
X86.106Y-117.348
X86.106Y-119.888
X86.106Y-122.428
X86.106Y-124.968
X86.106Y-127.508
X86.106Y-130.048
X86.106Y-132.588
X86.106Y-135.128
X86.106Y-137.668
X86.106Y-140.208
X86.106Y-142.748
X86.106Y-145.288
X86.106Y-147.828
X86.106Y-150.368
X86.106Y-152.908
X86.106Y-155.448
X88.646Y-107.188
X88.646Y-109.728
X88.646Y-112.268
X88.646Y-114.808
X88.646Y-117.348
X88.646Y-119.888
X88.646Y-122.428
X88.646Y-124.968
X88.646Y-127.508
X88.646Y-130.048
X88.646Y-132.588
X88.646Y-135.128
X88.646Y-137.668
X88.646Y-140.208
X88.646Y-142.748
X88.646Y-145.288
X88.646Y-147.828
X88.646Y-150.368
X88.646Y-152.908
X88.646Y-155.448
X102.87Y-55.626
X102.87Y-58.166
X102.87Y-60.706
X102.87Y-63.246
X102.87Y-65.786
X102.87Y-68.326
X102.87Y-70.866
X102.87Y-73.406
X102.87Y-75.946
X102.87Y-78.486
X102.87Y-93.726
X102.87Y-96.266
X102.87Y-98.806
X102.87Y-101.346
X102.87Y-103.886
X102.87Y-106.426
X102.87Y-108.966
X102.87Y-111.506
X102.87Y-114.046
X102.87Y-116.586
X103.124Y-48.006
X103.124Y-50.546
X105.664Y-48.006
X105.664Y-50.546
X113.025Y-86.101
X113.025Y-88.641
X115.565Y-86.101
X115.565Y-88.641
X115.57Y-55.626
X115.57Y-58.166
X115.57Y-60.706
X115.57Y-63.246
X115.57Y-65.786
X115.57Y-68.326
X115.57Y-70.866
X115.57Y-73.406
X115.57Y-75.946
X115.57Y-78.486
X115.57Y-93.726
X115.57Y-96.266
X115.57Y-98.806
X115.57Y-101.346
X115.57Y-103.886
X115.57Y-106.426
X115.57Y-108.966
X115.57Y-111.506
X115.57Y-114.046
X115.57Y-116.586
X121.92Y-48.006
X121.92Y-50.546
X121.92Y-55.626
X121.92Y-58.166
X121.92Y-60.706
X121.92Y-63.246
X121.92Y-65.786
X121.92Y-68.326
X121.92Y-70.866
X121.92Y-73.406
X121.92Y-75.946
X121.92Y-78.486
X121.92Y-86.106
X121.92Y-88.646
X121.92Y-93.726
X121.92Y-96.266
X121.92Y-98.806
X121.92Y-101.346
X121.92Y-103.886
X121.92Y-106.426
X121.92Y-108.966
X121.92Y-111.506
X121.92Y-114.046
X121.92Y-116.586
X121.92Y-124.206
X121.92Y-126.746
X121.92Y-131.826
X121.92Y-134.366
X121.92Y-136.906
X121.92Y-139.446
X121.92Y-141.986
X121.92Y-144.526
X121.92Y-147.066
X121.92Y-149.606
X121.92Y-152.146
X121.92Y-154.686
X124.46Y-48.006
X124.46Y-50.546
X124.46Y-86.106
X124.46Y-88.646
X124.46Y-124.206
X124.46Y-126.746
X134.62Y-55.626
X134.62Y-58.166
X134.62Y-60.706
X134.62Y-63.246
X134.62Y-65.786
X134.62Y-68.326
X134.62Y-70.866
X134.62Y-73.406
X134.62Y-75.946
X134.62Y-78.486
X134.62Y-93.726
X134.62Y-96.266
X134.62Y-98.806
X134.62Y-101.346
X134.62Y-103.886
X134.62Y-106.426
X134.62Y-108.966
X134.62Y-111.506
X134.62Y-114.046
X134.62Y-116.586
X134.62Y-131.826
X134.62Y-134.366
X134.62Y-136.906
X134.62Y-139.446
X134.62Y-141.986
X134.62Y-144.526
X134.62Y-147.066
X134.62Y-149.606
X134.62Y-152.146
X134.62Y-154.686
X143.256Y-48.006
X143.256Y-50.546
X143.256Y-53.086
X143.256Y-55.626
X143.256Y-58.166
X143.256Y-60.706
X143.256Y-63.246
X143.256Y-65.786
X143.256Y-68.326
X143.256Y-70.866
X143.256Y-73.406
X143.256Y-75.946
X143.256Y-78.486
X143.256Y-81.026
X143.256Y-83.566
X143.256Y-86.106
X143.256Y-88.646
X143.256Y-91.186
X143.256Y-93.726
X143.256Y-96.266
X143.256Y-98.806
X143.256Y-101.346
X143.256Y-103.886
X143.256Y-106.426
X143.256Y-108.966
X143.256Y-111.506
X143.256Y-114.046
X143.256Y-116.586
X143.256Y-119.126
X143.256Y-121.666
X143.256Y-124.206
X143.256Y-126.746
X143.256Y-129.286
X143.256Y-131.826
X143.256Y-134.366
X143.256Y-136.906
X143.256Y-139.446
X143.256Y-141.986
X143.256Y-144.526
X143.256Y-147.066
X145.796Y-48.006
X145.796Y-50.546
X145.796Y-53.086
X145.796Y-55.626
X145.796Y-58.166
X145.796Y-60.706
X145.796Y-63.246
X145.796Y-65.786
X145.796Y-68.326
X145.796Y-70.866
X145.796Y-73.406
X145.796Y-75.946
X145.796Y-78.486
X145.796Y-81.026
X145.796Y-83.566
X145.796Y-86.106
X145.796Y-88.646
X145.796Y-91.186
X145.796Y-93.726
X145.796Y-96.266
X145.796Y-98.806
X145.796Y-101.346
X145.796Y-103.886
X145.796Y-106.426
X145.796Y-108.966
X145.796Y-111.506
X145.796Y-114.046
X145.796Y-116.586
X145.796Y-119.126
X145.796Y-121.666
X145.796Y-124.206
X145.796Y-126.746
X145.796Y-129.286
X145.796Y-131.826
X145.796Y-134.366
X145.796Y-136.906
X145.796Y-139.446
X145.796Y-141.986
X145.796Y-144.526
X145.796Y-147.066
M30
