%TF.GenerationSoftware,KiCad,Pcbnew,9.0.1-9.0.1-0~ubuntu24.04.1*%
%TF.CreationDate,2025-04-22T11:48:06+09:00*%
%TF.ProjectId,PSCE-TEST_TANG25K,50534345-2d54-4455-9354-5f54414e4732,rev?*%
%TF.SameCoordinates,Original*%
%TF.FileFunction,Soldermask,Top*%
%TF.FilePolarity,Negative*%
%FSLAX46Y46*%
G04 Gerber Fmt 4.6, Leading zero omitted, Abs format (unit mm)*
G04 Created by KiCad (PCBNEW 9.0.1-9.0.1-0~ubuntu24.04.1) date 2025-04-22 11:48:06*
%MOMM*%
%LPD*%
G01*
G04 APERTURE LIST*
G04 Aperture macros list*
%AMRoundRect*
0 Rectangle with rounded corners*
0 $1 Rounding radius*
0 $2 $3 $4 $5 $6 $7 $8 $9 X,Y pos of 4 corners*
0 Add a 4 corners polygon primitive as box body*
4,1,4,$2,$3,$4,$5,$6,$7,$8,$9,$2,$3,0*
0 Add four circle primitives for the rounded corners*
1,1,$1+$1,$2,$3*
1,1,$1+$1,$4,$5*
1,1,$1+$1,$6,$7*
1,1,$1+$1,$8,$9*
0 Add four rect primitives between the rounded corners*
20,1,$1+$1,$2,$3,$4,$5,0*
20,1,$1+$1,$4,$5,$6,$7,0*
20,1,$1+$1,$6,$7,$8,$9,0*
20,1,$1+$1,$8,$9,$2,$3,0*%
G04 Aperture macros list end*
%ADD10R,1.700000X1.700000*%
%ADD11O,1.700000X1.700000*%
%ADD12C,3.500000*%
%ADD13RoundRect,0.375000X-0.375000X0.625000X-0.375000X-0.625000X0.375000X-0.625000X0.375000X0.625000X0*%
%ADD14RoundRect,0.500000X-1.400000X0.500000X-1.400000X-0.500000X1.400000X-0.500000X1.400000X0.500000X0*%
%ADD15RoundRect,0.250000X0.650000X-0.412500X0.650000X0.412500X-0.650000X0.412500X-0.650000X-0.412500X0*%
%ADD16RoundRect,0.250000X-0.650000X0.412500X-0.650000X-0.412500X0.650000X-0.412500X0.650000X0.412500X0*%
G04 APERTURE END LIST*
D10*
%TO.C,J1*%
X103124000Y-48006000D03*
D11*
X105664000Y-48006000D03*
X103124000Y-50546000D03*
X105664000Y-50546000D03*
%TD*%
D10*
%TO.C,J6*%
X143256000Y-48006000D03*
D11*
X145796000Y-48006000D03*
X143256000Y-50546000D03*
X145796000Y-50546000D03*
X143256000Y-53086000D03*
X145796000Y-53086000D03*
X143256000Y-55626000D03*
X145796000Y-55626000D03*
X143256000Y-58166000D03*
X145796000Y-58166000D03*
X143256000Y-60706000D03*
X145796000Y-60706000D03*
X143256000Y-63246000D03*
X145796000Y-63246000D03*
X143256000Y-65786000D03*
X145796000Y-65786000D03*
X143256000Y-68326000D03*
X145796000Y-68326000D03*
X143256000Y-70866000D03*
X145796000Y-70866000D03*
X143256000Y-73406000D03*
X145796000Y-73406000D03*
X143256000Y-75946000D03*
X145796000Y-75946000D03*
X143256000Y-78486000D03*
X145796000Y-78486000D03*
X143256000Y-81026000D03*
X145796000Y-81026000D03*
X143256000Y-83566000D03*
X145796000Y-83566000D03*
X143256000Y-86106000D03*
X145796000Y-86106000D03*
X143256000Y-88646000D03*
X145796000Y-88646000D03*
X143256000Y-91186000D03*
X145796000Y-91186000D03*
X143256000Y-93726000D03*
X145796000Y-93726000D03*
X143256000Y-96266000D03*
X145796000Y-96266000D03*
X143256000Y-98806000D03*
X145796000Y-98806000D03*
X143256000Y-101346000D03*
X145796000Y-101346000D03*
X143256000Y-103886000D03*
X145796000Y-103886000D03*
X143256000Y-106426000D03*
X145796000Y-106426000D03*
X143256000Y-108966000D03*
X145796000Y-108966000D03*
X143256000Y-111506000D03*
X145796000Y-111506000D03*
X143256000Y-114046000D03*
X145796000Y-114046000D03*
X143256000Y-116586000D03*
X145796000Y-116586000D03*
X143256000Y-119126000D03*
X145796000Y-119126000D03*
X143256000Y-121666000D03*
X145796000Y-121666000D03*
X143256000Y-124206000D03*
X145796000Y-124206000D03*
X143256000Y-126746000D03*
X145796000Y-126746000D03*
X143256000Y-129286000D03*
X145796000Y-129286000D03*
X143256000Y-131826000D03*
X145796000Y-131826000D03*
X143256000Y-134366000D03*
X145796000Y-134366000D03*
X143256000Y-136906000D03*
X145796000Y-136906000D03*
X143256000Y-139446000D03*
X145796000Y-139446000D03*
X143256000Y-141986000D03*
X145796000Y-141986000D03*
X143256000Y-144526000D03*
X145796000Y-144526000D03*
X143256000Y-147066000D03*
X145796000Y-147066000D03*
%TD*%
D10*
%TO.C,U2*%
X121920000Y-55626000D03*
D11*
X121920000Y-58166000D03*
X121920000Y-60706000D03*
X121920000Y-63246000D03*
X121920000Y-65786000D03*
X121920000Y-68326000D03*
X121920000Y-70866000D03*
X121920000Y-73406000D03*
X121920000Y-75946000D03*
X121920000Y-78486000D03*
X134620000Y-78486000D03*
X134620000Y-75946000D03*
X134620000Y-73406000D03*
X134620000Y-70866000D03*
X134620000Y-68326000D03*
X134620000Y-65786000D03*
X134620000Y-63246000D03*
X134620000Y-60706000D03*
X134620000Y-58166000D03*
X134620000Y-55626000D03*
%TD*%
D10*
%TO.C,U4*%
X121920000Y-93726000D03*
D11*
X121920000Y-96266000D03*
X121920000Y-98806000D03*
X121920000Y-101346000D03*
X121920000Y-103886000D03*
X121920000Y-106426000D03*
X121920000Y-108966000D03*
X121920000Y-111506000D03*
X121920000Y-114046000D03*
X121920000Y-116586000D03*
X134620000Y-116586000D03*
X134620000Y-114046000D03*
X134620000Y-111506000D03*
X134620000Y-108966000D03*
X134620000Y-106426000D03*
X134620000Y-103886000D03*
X134620000Y-101346000D03*
X134620000Y-98806000D03*
X134620000Y-96266000D03*
X134620000Y-93726000D03*
%TD*%
D10*
%TO.C,U5*%
X121920000Y-131826000D03*
D11*
X121920000Y-134366000D03*
X121920000Y-136906000D03*
X121920000Y-139446000D03*
X121920000Y-141986000D03*
X121920000Y-144526000D03*
X121920000Y-147066000D03*
X121920000Y-149606000D03*
X121920000Y-152146000D03*
X121920000Y-154686000D03*
X134620000Y-154686000D03*
X134620000Y-152146000D03*
X134620000Y-149606000D03*
X134620000Y-147066000D03*
X134620000Y-144526000D03*
X134620000Y-141986000D03*
X134620000Y-139446000D03*
X134620000Y-136906000D03*
X134620000Y-134366000D03*
X134620000Y-131826000D03*
%TD*%
D10*
%TO.C,J7*%
X86106000Y-107188000D03*
D11*
X88646000Y-107188000D03*
X86106000Y-109728000D03*
X88646000Y-109728000D03*
X86106000Y-112268000D03*
X88646000Y-112268000D03*
X86106000Y-114808000D03*
X88646000Y-114808000D03*
X86106000Y-117348000D03*
X88646000Y-117348000D03*
X86106000Y-119888000D03*
X88646000Y-119888000D03*
X86106000Y-122428000D03*
X88646000Y-122428000D03*
X86106000Y-124968000D03*
X88646000Y-124968000D03*
X86106000Y-127508000D03*
X88646000Y-127508000D03*
X86106000Y-130048000D03*
X88646000Y-130048000D03*
X86106000Y-132588000D03*
X88646000Y-132588000D03*
X86106000Y-135128000D03*
X88646000Y-135128000D03*
X86106000Y-137668000D03*
X88646000Y-137668000D03*
X86106000Y-140208000D03*
X88646000Y-140208000D03*
X86106000Y-142748000D03*
X88646000Y-142748000D03*
X86106000Y-145288000D03*
X88646000Y-145288000D03*
X86106000Y-147828000D03*
X88646000Y-147828000D03*
X86106000Y-150368000D03*
X88646000Y-150368000D03*
X86106000Y-152908000D03*
X88646000Y-152908000D03*
X86106000Y-155448000D03*
X88646000Y-155448000D03*
%TD*%
D10*
%TO.C,U3*%
X102870000Y-93726000D03*
D11*
X102870000Y-96266000D03*
X102870000Y-98806000D03*
X102870000Y-101346000D03*
X102870000Y-103886000D03*
X102870000Y-106426000D03*
X102870000Y-108966000D03*
X102870000Y-111506000D03*
X102870000Y-114046000D03*
X102870000Y-116586000D03*
X115570000Y-116586000D03*
X115570000Y-114046000D03*
X115570000Y-111506000D03*
X115570000Y-108966000D03*
X115570000Y-106426000D03*
X115570000Y-103886000D03*
X115570000Y-101346000D03*
X115570000Y-98806000D03*
X115570000Y-96266000D03*
X115570000Y-93726000D03*
%TD*%
D12*
%TO.C,H3*%
X95000000Y-160000000D03*
%TD*%
%TO.C,H2*%
X93000000Y-41000000D03*
%TD*%
D10*
%TO.C,J4*%
X121920000Y-86106000D03*
D11*
X124460000Y-86106000D03*
X121920000Y-88646000D03*
X124460000Y-88646000D03*
%TD*%
D12*
%TO.C,H4*%
X147500000Y-160000000D03*
%TD*%
D13*
%TO.C,U6*%
X110758000Y-150481500D03*
X108458000Y-150481500D03*
D14*
X108458000Y-156781500D03*
D13*
X106158000Y-150481500D03*
%TD*%
D10*
%TO.C,U1*%
X102870000Y-55626000D03*
D11*
X102870000Y-58166000D03*
X102870000Y-60706000D03*
X102870000Y-63246000D03*
X102870000Y-65786000D03*
X102870000Y-68326000D03*
X102870000Y-70866000D03*
X102870000Y-73406000D03*
X102870000Y-75946000D03*
X102870000Y-78486000D03*
X115570000Y-78486000D03*
X115570000Y-75946000D03*
X115570000Y-73406000D03*
X115570000Y-70866000D03*
X115570000Y-68326000D03*
X115570000Y-65786000D03*
X115570000Y-63246000D03*
X115570000Y-60706000D03*
X115570000Y-58166000D03*
X115570000Y-55626000D03*
%TD*%
D10*
%TO.C,J5*%
X121920000Y-124206000D03*
D11*
X124460000Y-124206000D03*
X121920000Y-126746000D03*
X124460000Y-126746000D03*
%TD*%
D10*
%TO.C,J3*%
X113025000Y-86101000D03*
D11*
X115565000Y-86101000D03*
X113025000Y-88641000D03*
X115565000Y-88641000D03*
%TD*%
D10*
%TO.C,J2*%
X121920000Y-48006000D03*
D11*
X124460000Y-48006000D03*
X121920000Y-50546000D03*
X124460000Y-50546000D03*
%TD*%
D12*
%TO.C,H1*%
X147500000Y-41000000D03*
%TD*%
D15*
%TO.C,C2*%
X115316000Y-153708500D03*
X115316000Y-150583500D03*
%TD*%
D16*
%TO.C,C1*%
X99568000Y-150329500D03*
X99568000Y-153454500D03*
%TD*%
M02*
