%TF.GenerationSoftware,KiCad,Pcbnew,9.0.1-9.0.1-0~ubuntu24.04.1*%
%TF.CreationDate,2025-04-22T11:50:30+09:00*%
%TF.ProjectId,PSCE-TEST_Arty,50534345-2d54-4455-9354-5f417274792e,rev?*%
%TF.SameCoordinates,Original*%
%TF.FileFunction,Legend,Top*%
%TF.FilePolarity,Positive*%
%FSLAX46Y46*%
G04 Gerber Fmt 4.6, Leading zero omitted, Abs format (unit mm)*
G04 Created by KiCad (PCBNEW 9.0.1-9.0.1-0~ubuntu24.04.1) date 2025-04-22 11:50:30*
%MOMM*%
%LPD*%
G01*
G04 APERTURE LIST*
%ADD10C,0.100000*%
%ADD11C,0.200000*%
%ADD12C,0.150000*%
%ADD13C,0.120000*%
G04 APERTURE END LIST*
D10*
X170053000Y-120396000D02*
X171323000Y-120396000D01*
X171323000Y-127000000D01*
X170053000Y-127000000D01*
X170053000Y-120396000D01*
G36*
X170053000Y-120396000D02*
G01*
X171323000Y-120396000D01*
X171323000Y-127000000D01*
X170053000Y-127000000D01*
X170053000Y-120396000D01*
G37*
X151257000Y-55118000D02*
X152527000Y-55118000D01*
X152527000Y-61722000D01*
X151257000Y-61722000D01*
X151257000Y-55118000D01*
G36*
X151257000Y-55118000D02*
G01*
X152527000Y-55118000D01*
X152527000Y-61722000D01*
X151257000Y-61722000D01*
X151257000Y-55118000D01*
G37*
X150495000Y-105664000D02*
X151765000Y-105664000D01*
X151765000Y-112268000D01*
X150495000Y-112268000D01*
X150495000Y-105664000D01*
G36*
X150495000Y-105664000D02*
G01*
X151765000Y-105664000D01*
X151765000Y-112268000D01*
X150495000Y-112268000D01*
X150495000Y-105664000D01*
G37*
X111125000Y-105664000D02*
X112395000Y-105664000D01*
X112395000Y-112268000D01*
X111125000Y-112268000D01*
X111125000Y-105664000D01*
G36*
X111125000Y-105664000D02*
G01*
X112395000Y-105664000D01*
X112395000Y-112268000D01*
X111125000Y-112268000D01*
X111125000Y-105664000D01*
G37*
X111125000Y-55372000D02*
X112395000Y-55372000D01*
X112395000Y-61976000D01*
X111125000Y-61976000D01*
X111125000Y-55372000D01*
G36*
X111125000Y-55372000D02*
G01*
X112395000Y-55372000D01*
X112395000Y-61976000D01*
X111125000Y-61976000D01*
X111125000Y-55372000D01*
G37*
D11*
X89843742Y-119978707D02*
X88263742Y-119978707D01*
X88263742Y-119178707D02*
X88263742Y-118950135D01*
X88263742Y-118950135D02*
X88338980Y-118835850D01*
X88338980Y-118835850D02*
X88489456Y-118721564D01*
X88489456Y-118721564D02*
X88790408Y-118664421D01*
X88790408Y-118664421D02*
X89317075Y-118664421D01*
X89317075Y-118664421D02*
X89618027Y-118721564D01*
X89618027Y-118721564D02*
X89768504Y-118835850D01*
X89768504Y-118835850D02*
X89843742Y-118950135D01*
X89843742Y-118950135D02*
X89843742Y-119178707D01*
X89843742Y-119178707D02*
X89768504Y-119292993D01*
X89768504Y-119292993D02*
X89618027Y-119407278D01*
X89618027Y-119407278D02*
X89317075Y-119464421D01*
X89317075Y-119464421D02*
X88790408Y-119464421D01*
X88790408Y-119464421D02*
X88489456Y-119407278D01*
X88489456Y-119407278D02*
X88338980Y-119292993D01*
X88338980Y-119292993D02*
X88263742Y-119178707D01*
X88263742Y-117921564D02*
X88263742Y-117807278D01*
X88263742Y-117807278D02*
X88338980Y-117692992D01*
X88338980Y-117692992D02*
X88414218Y-117635850D01*
X88414218Y-117635850D02*
X88564694Y-117578707D01*
X88564694Y-117578707D02*
X88865646Y-117521564D01*
X88865646Y-117521564D02*
X89241837Y-117521564D01*
X89241837Y-117521564D02*
X89542789Y-117578707D01*
X89542789Y-117578707D02*
X89693265Y-117635850D01*
X89693265Y-117635850D02*
X89768504Y-117692992D01*
X89768504Y-117692992D02*
X89843742Y-117807278D01*
X89843742Y-117807278D02*
X89843742Y-117921564D01*
X89843742Y-117921564D02*
X89768504Y-118035850D01*
X89768504Y-118035850D02*
X89693265Y-118092992D01*
X89693265Y-118092992D02*
X89542789Y-118150135D01*
X89542789Y-118150135D02*
X89241837Y-118207278D01*
X89241837Y-118207278D02*
X88865646Y-118207278D01*
X88865646Y-118207278D02*
X88564694Y-118150135D01*
X88564694Y-118150135D02*
X88414218Y-118092992D01*
X88414218Y-118092992D02*
X88338980Y-118035850D01*
X88338980Y-118035850D02*
X88263742Y-117921564D01*
X92387454Y-119978707D02*
X90807454Y-119978707D01*
X90807454Y-119178707D02*
X90807454Y-118950135D01*
X90807454Y-118950135D02*
X90882692Y-118835850D01*
X90882692Y-118835850D02*
X91033168Y-118721564D01*
X91033168Y-118721564D02*
X91334120Y-118664421D01*
X91334120Y-118664421D02*
X91860787Y-118664421D01*
X91860787Y-118664421D02*
X92161739Y-118721564D01*
X92161739Y-118721564D02*
X92312216Y-118835850D01*
X92312216Y-118835850D02*
X92387454Y-118950135D01*
X92387454Y-118950135D02*
X92387454Y-119178707D01*
X92387454Y-119178707D02*
X92312216Y-119292993D01*
X92312216Y-119292993D02*
X92161739Y-119407278D01*
X92161739Y-119407278D02*
X91860787Y-119464421D01*
X91860787Y-119464421D02*
X91334120Y-119464421D01*
X91334120Y-119464421D02*
X91033168Y-119407278D01*
X91033168Y-119407278D02*
X90882692Y-119292993D01*
X90882692Y-119292993D02*
X90807454Y-119178707D01*
X92387454Y-117521564D02*
X92387454Y-118207278D01*
X92387454Y-117864421D02*
X90807454Y-117864421D01*
X90807454Y-117864421D02*
X91033168Y-117978707D01*
X91033168Y-117978707D02*
X91183644Y-118092992D01*
X91183644Y-118092992D02*
X91258882Y-118207278D01*
X94931166Y-119978707D02*
X93351166Y-119978707D01*
X93351166Y-119178707D02*
X93351166Y-118950135D01*
X93351166Y-118950135D02*
X93426404Y-118835850D01*
X93426404Y-118835850D02*
X93576880Y-118721564D01*
X93576880Y-118721564D02*
X93877832Y-118664421D01*
X93877832Y-118664421D02*
X94404499Y-118664421D01*
X94404499Y-118664421D02*
X94705451Y-118721564D01*
X94705451Y-118721564D02*
X94855928Y-118835850D01*
X94855928Y-118835850D02*
X94931166Y-118950135D01*
X94931166Y-118950135D02*
X94931166Y-119178707D01*
X94931166Y-119178707D02*
X94855928Y-119292993D01*
X94855928Y-119292993D02*
X94705451Y-119407278D01*
X94705451Y-119407278D02*
X94404499Y-119464421D01*
X94404499Y-119464421D02*
X93877832Y-119464421D01*
X93877832Y-119464421D02*
X93576880Y-119407278D01*
X93576880Y-119407278D02*
X93426404Y-119292993D01*
X93426404Y-119292993D02*
X93351166Y-119178707D01*
X93501642Y-118207278D02*
X93426404Y-118150135D01*
X93426404Y-118150135D02*
X93351166Y-118035850D01*
X93351166Y-118035850D02*
X93351166Y-117750135D01*
X93351166Y-117750135D02*
X93426404Y-117635850D01*
X93426404Y-117635850D02*
X93501642Y-117578707D01*
X93501642Y-117578707D02*
X93652118Y-117521564D01*
X93652118Y-117521564D02*
X93802594Y-117521564D01*
X93802594Y-117521564D02*
X94028308Y-117578707D01*
X94028308Y-117578707D02*
X94931166Y-118264421D01*
X94931166Y-118264421D02*
X94931166Y-117521564D01*
X97474878Y-119978707D02*
X95894878Y-119978707D01*
X95894878Y-119178707D02*
X95894878Y-118950135D01*
X95894878Y-118950135D02*
X95970116Y-118835850D01*
X95970116Y-118835850D02*
X96120592Y-118721564D01*
X96120592Y-118721564D02*
X96421544Y-118664421D01*
X96421544Y-118664421D02*
X96948211Y-118664421D01*
X96948211Y-118664421D02*
X97249163Y-118721564D01*
X97249163Y-118721564D02*
X97399640Y-118835850D01*
X97399640Y-118835850D02*
X97474878Y-118950135D01*
X97474878Y-118950135D02*
X97474878Y-119178707D01*
X97474878Y-119178707D02*
X97399640Y-119292993D01*
X97399640Y-119292993D02*
X97249163Y-119407278D01*
X97249163Y-119407278D02*
X96948211Y-119464421D01*
X96948211Y-119464421D02*
X96421544Y-119464421D01*
X96421544Y-119464421D02*
X96120592Y-119407278D01*
X96120592Y-119407278D02*
X95970116Y-119292993D01*
X95970116Y-119292993D02*
X95894878Y-119178707D01*
X95894878Y-118264421D02*
X95894878Y-117521564D01*
X95894878Y-117521564D02*
X96496782Y-117921564D01*
X96496782Y-117921564D02*
X96496782Y-117750135D01*
X96496782Y-117750135D02*
X96572020Y-117635850D01*
X96572020Y-117635850D02*
X96647259Y-117578707D01*
X96647259Y-117578707D02*
X96797735Y-117521564D01*
X96797735Y-117521564D02*
X97173925Y-117521564D01*
X97173925Y-117521564D02*
X97324401Y-117578707D01*
X97324401Y-117578707D02*
X97399640Y-117635850D01*
X97399640Y-117635850D02*
X97474878Y-117750135D01*
X97474878Y-117750135D02*
X97474878Y-118092992D01*
X97474878Y-118092992D02*
X97399640Y-118207278D01*
X97399640Y-118207278D02*
X97324401Y-118264421D01*
X100018590Y-119978707D02*
X98438590Y-119978707D01*
X98438590Y-119178707D02*
X98438590Y-118950135D01*
X98438590Y-118950135D02*
X98513828Y-118835850D01*
X98513828Y-118835850D02*
X98664304Y-118721564D01*
X98664304Y-118721564D02*
X98965256Y-118664421D01*
X98965256Y-118664421D02*
X99491923Y-118664421D01*
X99491923Y-118664421D02*
X99792875Y-118721564D01*
X99792875Y-118721564D02*
X99943352Y-118835850D01*
X99943352Y-118835850D02*
X100018590Y-118950135D01*
X100018590Y-118950135D02*
X100018590Y-119178707D01*
X100018590Y-119178707D02*
X99943352Y-119292993D01*
X99943352Y-119292993D02*
X99792875Y-119407278D01*
X99792875Y-119407278D02*
X99491923Y-119464421D01*
X99491923Y-119464421D02*
X98965256Y-119464421D01*
X98965256Y-119464421D02*
X98664304Y-119407278D01*
X98664304Y-119407278D02*
X98513828Y-119292993D01*
X98513828Y-119292993D02*
X98438590Y-119178707D01*
X98965256Y-117635850D02*
X100018590Y-117635850D01*
X98363352Y-117921564D02*
X99491923Y-118207278D01*
X99491923Y-118207278D02*
X99491923Y-117464421D01*
X102562302Y-119978707D02*
X100982302Y-119978707D01*
X100982302Y-119178707D02*
X100982302Y-118950135D01*
X100982302Y-118950135D02*
X101057540Y-118835850D01*
X101057540Y-118835850D02*
X101208016Y-118721564D01*
X101208016Y-118721564D02*
X101508968Y-118664421D01*
X101508968Y-118664421D02*
X102035635Y-118664421D01*
X102035635Y-118664421D02*
X102336587Y-118721564D01*
X102336587Y-118721564D02*
X102487064Y-118835850D01*
X102487064Y-118835850D02*
X102562302Y-118950135D01*
X102562302Y-118950135D02*
X102562302Y-119178707D01*
X102562302Y-119178707D02*
X102487064Y-119292993D01*
X102487064Y-119292993D02*
X102336587Y-119407278D01*
X102336587Y-119407278D02*
X102035635Y-119464421D01*
X102035635Y-119464421D02*
X101508968Y-119464421D01*
X101508968Y-119464421D02*
X101208016Y-119407278D01*
X101208016Y-119407278D02*
X101057540Y-119292993D01*
X101057540Y-119292993D02*
X100982302Y-119178707D01*
X100982302Y-117578707D02*
X100982302Y-118150135D01*
X100982302Y-118150135D02*
X101734683Y-118207278D01*
X101734683Y-118207278D02*
X101659444Y-118150135D01*
X101659444Y-118150135D02*
X101584206Y-118035850D01*
X101584206Y-118035850D02*
X101584206Y-117750135D01*
X101584206Y-117750135D02*
X101659444Y-117635850D01*
X101659444Y-117635850D02*
X101734683Y-117578707D01*
X101734683Y-117578707D02*
X101885159Y-117521564D01*
X101885159Y-117521564D02*
X102261349Y-117521564D01*
X102261349Y-117521564D02*
X102411825Y-117578707D01*
X102411825Y-117578707D02*
X102487064Y-117635850D01*
X102487064Y-117635850D02*
X102562302Y-117750135D01*
X102562302Y-117750135D02*
X102562302Y-118035850D01*
X102562302Y-118035850D02*
X102487064Y-118150135D01*
X102487064Y-118150135D02*
X102411825Y-118207278D01*
X105106014Y-119978707D02*
X103526014Y-119978707D01*
X103526014Y-119178707D02*
X103526014Y-118950135D01*
X103526014Y-118950135D02*
X103601252Y-118835850D01*
X103601252Y-118835850D02*
X103751728Y-118721564D01*
X103751728Y-118721564D02*
X104052680Y-118664421D01*
X104052680Y-118664421D02*
X104579347Y-118664421D01*
X104579347Y-118664421D02*
X104880299Y-118721564D01*
X104880299Y-118721564D02*
X105030776Y-118835850D01*
X105030776Y-118835850D02*
X105106014Y-118950135D01*
X105106014Y-118950135D02*
X105106014Y-119178707D01*
X105106014Y-119178707D02*
X105030776Y-119292993D01*
X105030776Y-119292993D02*
X104880299Y-119407278D01*
X104880299Y-119407278D02*
X104579347Y-119464421D01*
X104579347Y-119464421D02*
X104052680Y-119464421D01*
X104052680Y-119464421D02*
X103751728Y-119407278D01*
X103751728Y-119407278D02*
X103601252Y-119292993D01*
X103601252Y-119292993D02*
X103526014Y-119178707D01*
X103526014Y-117635850D02*
X103526014Y-117864421D01*
X103526014Y-117864421D02*
X103601252Y-117978707D01*
X103601252Y-117978707D02*
X103676490Y-118035850D01*
X103676490Y-118035850D02*
X103902204Y-118150135D01*
X103902204Y-118150135D02*
X104203156Y-118207278D01*
X104203156Y-118207278D02*
X104805061Y-118207278D01*
X104805061Y-118207278D02*
X104955537Y-118150135D01*
X104955537Y-118150135D02*
X105030776Y-118092992D01*
X105030776Y-118092992D02*
X105106014Y-117978707D01*
X105106014Y-117978707D02*
X105106014Y-117750135D01*
X105106014Y-117750135D02*
X105030776Y-117635850D01*
X105030776Y-117635850D02*
X104955537Y-117578707D01*
X104955537Y-117578707D02*
X104805061Y-117521564D01*
X104805061Y-117521564D02*
X104428871Y-117521564D01*
X104428871Y-117521564D02*
X104278395Y-117578707D01*
X104278395Y-117578707D02*
X104203156Y-117635850D01*
X104203156Y-117635850D02*
X104127918Y-117750135D01*
X104127918Y-117750135D02*
X104127918Y-117978707D01*
X104127918Y-117978707D02*
X104203156Y-118092992D01*
X104203156Y-118092992D02*
X104278395Y-118150135D01*
X104278395Y-118150135D02*
X104428871Y-118207278D01*
X107649726Y-119978707D02*
X106069726Y-119978707D01*
X106069726Y-119178707D02*
X106069726Y-118950135D01*
X106069726Y-118950135D02*
X106144964Y-118835850D01*
X106144964Y-118835850D02*
X106295440Y-118721564D01*
X106295440Y-118721564D02*
X106596392Y-118664421D01*
X106596392Y-118664421D02*
X107123059Y-118664421D01*
X107123059Y-118664421D02*
X107424011Y-118721564D01*
X107424011Y-118721564D02*
X107574488Y-118835850D01*
X107574488Y-118835850D02*
X107649726Y-118950135D01*
X107649726Y-118950135D02*
X107649726Y-119178707D01*
X107649726Y-119178707D02*
X107574488Y-119292993D01*
X107574488Y-119292993D02*
X107424011Y-119407278D01*
X107424011Y-119407278D02*
X107123059Y-119464421D01*
X107123059Y-119464421D02*
X106596392Y-119464421D01*
X106596392Y-119464421D02*
X106295440Y-119407278D01*
X106295440Y-119407278D02*
X106144964Y-119292993D01*
X106144964Y-119292993D02*
X106069726Y-119178707D01*
X106069726Y-118264421D02*
X106069726Y-117464421D01*
X106069726Y-117464421D02*
X107649726Y-117978707D01*
X110193438Y-119978707D02*
X108613438Y-119978707D01*
X108613438Y-119178707D02*
X108613438Y-118950135D01*
X108613438Y-118950135D02*
X108688676Y-118835850D01*
X108688676Y-118835850D02*
X108839152Y-118721564D01*
X108839152Y-118721564D02*
X109140104Y-118664421D01*
X109140104Y-118664421D02*
X109666771Y-118664421D01*
X109666771Y-118664421D02*
X109967723Y-118721564D01*
X109967723Y-118721564D02*
X110118200Y-118835850D01*
X110118200Y-118835850D02*
X110193438Y-118950135D01*
X110193438Y-118950135D02*
X110193438Y-119178707D01*
X110193438Y-119178707D02*
X110118200Y-119292993D01*
X110118200Y-119292993D02*
X109967723Y-119407278D01*
X109967723Y-119407278D02*
X109666771Y-119464421D01*
X109666771Y-119464421D02*
X109140104Y-119464421D01*
X109140104Y-119464421D02*
X108839152Y-119407278D01*
X108839152Y-119407278D02*
X108688676Y-119292993D01*
X108688676Y-119292993D02*
X108613438Y-119178707D01*
X109290580Y-117978707D02*
X109215342Y-118092992D01*
X109215342Y-118092992D02*
X109140104Y-118150135D01*
X109140104Y-118150135D02*
X108989628Y-118207278D01*
X108989628Y-118207278D02*
X108914390Y-118207278D01*
X108914390Y-118207278D02*
X108763914Y-118150135D01*
X108763914Y-118150135D02*
X108688676Y-118092992D01*
X108688676Y-118092992D02*
X108613438Y-117978707D01*
X108613438Y-117978707D02*
X108613438Y-117750135D01*
X108613438Y-117750135D02*
X108688676Y-117635850D01*
X108688676Y-117635850D02*
X108763914Y-117578707D01*
X108763914Y-117578707D02*
X108914390Y-117521564D01*
X108914390Y-117521564D02*
X108989628Y-117521564D01*
X108989628Y-117521564D02*
X109140104Y-117578707D01*
X109140104Y-117578707D02*
X109215342Y-117635850D01*
X109215342Y-117635850D02*
X109290580Y-117750135D01*
X109290580Y-117750135D02*
X109290580Y-117978707D01*
X109290580Y-117978707D02*
X109365819Y-118092992D01*
X109365819Y-118092992D02*
X109441057Y-118150135D01*
X109441057Y-118150135D02*
X109591533Y-118207278D01*
X109591533Y-118207278D02*
X109892485Y-118207278D01*
X109892485Y-118207278D02*
X110042961Y-118150135D01*
X110042961Y-118150135D02*
X110118200Y-118092992D01*
X110118200Y-118092992D02*
X110193438Y-117978707D01*
X110193438Y-117978707D02*
X110193438Y-117750135D01*
X110193438Y-117750135D02*
X110118200Y-117635850D01*
X110118200Y-117635850D02*
X110042961Y-117578707D01*
X110042961Y-117578707D02*
X109892485Y-117521564D01*
X109892485Y-117521564D02*
X109591533Y-117521564D01*
X109591533Y-117521564D02*
X109441057Y-117578707D01*
X109441057Y-117578707D02*
X109365819Y-117635850D01*
X109365819Y-117635850D02*
X109290580Y-117750135D01*
X112737150Y-119978707D02*
X111157150Y-119978707D01*
X111157150Y-119178707D02*
X111157150Y-118950135D01*
X111157150Y-118950135D02*
X111232388Y-118835850D01*
X111232388Y-118835850D02*
X111382864Y-118721564D01*
X111382864Y-118721564D02*
X111683816Y-118664421D01*
X111683816Y-118664421D02*
X112210483Y-118664421D01*
X112210483Y-118664421D02*
X112511435Y-118721564D01*
X112511435Y-118721564D02*
X112661912Y-118835850D01*
X112661912Y-118835850D02*
X112737150Y-118950135D01*
X112737150Y-118950135D02*
X112737150Y-119178707D01*
X112737150Y-119178707D02*
X112661912Y-119292993D01*
X112661912Y-119292993D02*
X112511435Y-119407278D01*
X112511435Y-119407278D02*
X112210483Y-119464421D01*
X112210483Y-119464421D02*
X111683816Y-119464421D01*
X111683816Y-119464421D02*
X111382864Y-119407278D01*
X111382864Y-119407278D02*
X111232388Y-119292993D01*
X111232388Y-119292993D02*
X111157150Y-119178707D01*
X112737150Y-118092992D02*
X112737150Y-117864421D01*
X112737150Y-117864421D02*
X112661912Y-117750135D01*
X112661912Y-117750135D02*
X112586673Y-117692992D01*
X112586673Y-117692992D02*
X112360959Y-117578707D01*
X112360959Y-117578707D02*
X112060007Y-117521564D01*
X112060007Y-117521564D02*
X111458102Y-117521564D01*
X111458102Y-117521564D02*
X111307626Y-117578707D01*
X111307626Y-117578707D02*
X111232388Y-117635850D01*
X111232388Y-117635850D02*
X111157150Y-117750135D01*
X111157150Y-117750135D02*
X111157150Y-117978707D01*
X111157150Y-117978707D02*
X111232388Y-118092992D01*
X111232388Y-118092992D02*
X111307626Y-118150135D01*
X111307626Y-118150135D02*
X111458102Y-118207278D01*
X111458102Y-118207278D02*
X111834292Y-118207278D01*
X111834292Y-118207278D02*
X111984769Y-118150135D01*
X111984769Y-118150135D02*
X112060007Y-118092992D01*
X112060007Y-118092992D02*
X112135245Y-117978707D01*
X112135245Y-117978707D02*
X112135245Y-117750135D01*
X112135245Y-117750135D02*
X112060007Y-117635850D01*
X112060007Y-117635850D02*
X111984769Y-117578707D01*
X111984769Y-117578707D02*
X111834292Y-117521564D01*
X115280862Y-119978707D02*
X113700862Y-119978707D01*
X113700862Y-119178707D02*
X113700862Y-118950135D01*
X113700862Y-118950135D02*
X113776100Y-118835850D01*
X113776100Y-118835850D02*
X113926576Y-118721564D01*
X113926576Y-118721564D02*
X114227528Y-118664421D01*
X114227528Y-118664421D02*
X114754195Y-118664421D01*
X114754195Y-118664421D02*
X115055147Y-118721564D01*
X115055147Y-118721564D02*
X115205624Y-118835850D01*
X115205624Y-118835850D02*
X115280862Y-118950135D01*
X115280862Y-118950135D02*
X115280862Y-119178707D01*
X115280862Y-119178707D02*
X115205624Y-119292993D01*
X115205624Y-119292993D02*
X115055147Y-119407278D01*
X115055147Y-119407278D02*
X114754195Y-119464421D01*
X114754195Y-119464421D02*
X114227528Y-119464421D01*
X114227528Y-119464421D02*
X113926576Y-119407278D01*
X113926576Y-119407278D02*
X113776100Y-119292993D01*
X113776100Y-119292993D02*
X113700862Y-119178707D01*
X115280862Y-117521564D02*
X115280862Y-118207278D01*
X115280862Y-117864421D02*
X113700862Y-117864421D01*
X113700862Y-117864421D02*
X113926576Y-117978707D01*
X113926576Y-117978707D02*
X114077052Y-118092992D01*
X114077052Y-118092992D02*
X114152290Y-118207278D01*
X113700862Y-116778707D02*
X113700862Y-116664421D01*
X113700862Y-116664421D02*
X113776100Y-116550135D01*
X113776100Y-116550135D02*
X113851338Y-116492993D01*
X113851338Y-116492993D02*
X114001814Y-116435850D01*
X114001814Y-116435850D02*
X114302766Y-116378707D01*
X114302766Y-116378707D02*
X114678957Y-116378707D01*
X114678957Y-116378707D02*
X114979909Y-116435850D01*
X114979909Y-116435850D02*
X115130385Y-116492993D01*
X115130385Y-116492993D02*
X115205624Y-116550135D01*
X115205624Y-116550135D02*
X115280862Y-116664421D01*
X115280862Y-116664421D02*
X115280862Y-116778707D01*
X115280862Y-116778707D02*
X115205624Y-116892993D01*
X115205624Y-116892993D02*
X115130385Y-116950135D01*
X115130385Y-116950135D02*
X114979909Y-117007278D01*
X114979909Y-117007278D02*
X114678957Y-117064421D01*
X114678957Y-117064421D02*
X114302766Y-117064421D01*
X114302766Y-117064421D02*
X114001814Y-117007278D01*
X114001814Y-117007278D02*
X113851338Y-116950135D01*
X113851338Y-116950135D02*
X113776100Y-116892993D01*
X113776100Y-116892993D02*
X113700862Y-116778707D01*
X117824574Y-119978707D02*
X116244574Y-119978707D01*
X116244574Y-119178707D02*
X116244574Y-118950135D01*
X116244574Y-118950135D02*
X116319812Y-118835850D01*
X116319812Y-118835850D02*
X116470288Y-118721564D01*
X116470288Y-118721564D02*
X116771240Y-118664421D01*
X116771240Y-118664421D02*
X117297907Y-118664421D01*
X117297907Y-118664421D02*
X117598859Y-118721564D01*
X117598859Y-118721564D02*
X117749336Y-118835850D01*
X117749336Y-118835850D02*
X117824574Y-118950135D01*
X117824574Y-118950135D02*
X117824574Y-119178707D01*
X117824574Y-119178707D02*
X117749336Y-119292993D01*
X117749336Y-119292993D02*
X117598859Y-119407278D01*
X117598859Y-119407278D02*
X117297907Y-119464421D01*
X117297907Y-119464421D02*
X116771240Y-119464421D01*
X116771240Y-119464421D02*
X116470288Y-119407278D01*
X116470288Y-119407278D02*
X116319812Y-119292993D01*
X116319812Y-119292993D02*
X116244574Y-119178707D01*
X117824574Y-117521564D02*
X117824574Y-118207278D01*
X117824574Y-117864421D02*
X116244574Y-117864421D01*
X116244574Y-117864421D02*
X116470288Y-117978707D01*
X116470288Y-117978707D02*
X116620764Y-118092992D01*
X116620764Y-118092992D02*
X116696002Y-118207278D01*
X117824574Y-116378707D02*
X117824574Y-117064421D01*
X117824574Y-116721564D02*
X116244574Y-116721564D01*
X116244574Y-116721564D02*
X116470288Y-116835850D01*
X116470288Y-116835850D02*
X116620764Y-116950135D01*
X116620764Y-116950135D02*
X116696002Y-117064421D01*
X120368286Y-119978707D02*
X118788286Y-119978707D01*
X118788286Y-119178707D02*
X118788286Y-118950135D01*
X118788286Y-118950135D02*
X118863524Y-118835850D01*
X118863524Y-118835850D02*
X119014000Y-118721564D01*
X119014000Y-118721564D02*
X119314952Y-118664421D01*
X119314952Y-118664421D02*
X119841619Y-118664421D01*
X119841619Y-118664421D02*
X120142571Y-118721564D01*
X120142571Y-118721564D02*
X120293048Y-118835850D01*
X120293048Y-118835850D02*
X120368286Y-118950135D01*
X120368286Y-118950135D02*
X120368286Y-119178707D01*
X120368286Y-119178707D02*
X120293048Y-119292993D01*
X120293048Y-119292993D02*
X120142571Y-119407278D01*
X120142571Y-119407278D02*
X119841619Y-119464421D01*
X119841619Y-119464421D02*
X119314952Y-119464421D01*
X119314952Y-119464421D02*
X119014000Y-119407278D01*
X119014000Y-119407278D02*
X118863524Y-119292993D01*
X118863524Y-119292993D02*
X118788286Y-119178707D01*
X120368286Y-117521564D02*
X120368286Y-118207278D01*
X120368286Y-117864421D02*
X118788286Y-117864421D01*
X118788286Y-117864421D02*
X119014000Y-117978707D01*
X119014000Y-117978707D02*
X119164476Y-118092992D01*
X119164476Y-118092992D02*
X119239714Y-118207278D01*
X118938762Y-117064421D02*
X118863524Y-117007278D01*
X118863524Y-117007278D02*
X118788286Y-116892993D01*
X118788286Y-116892993D02*
X118788286Y-116607278D01*
X118788286Y-116607278D02*
X118863524Y-116492993D01*
X118863524Y-116492993D02*
X118938762Y-116435850D01*
X118938762Y-116435850D02*
X119089238Y-116378707D01*
X119089238Y-116378707D02*
X119239714Y-116378707D01*
X119239714Y-116378707D02*
X119465428Y-116435850D01*
X119465428Y-116435850D02*
X120368286Y-117121564D01*
X120368286Y-117121564D02*
X120368286Y-116378707D01*
X122911998Y-119978707D02*
X121331998Y-119978707D01*
X121331998Y-119178707D02*
X121331998Y-118950135D01*
X121331998Y-118950135D02*
X121407236Y-118835850D01*
X121407236Y-118835850D02*
X121557712Y-118721564D01*
X121557712Y-118721564D02*
X121858664Y-118664421D01*
X121858664Y-118664421D02*
X122385331Y-118664421D01*
X122385331Y-118664421D02*
X122686283Y-118721564D01*
X122686283Y-118721564D02*
X122836760Y-118835850D01*
X122836760Y-118835850D02*
X122911998Y-118950135D01*
X122911998Y-118950135D02*
X122911998Y-119178707D01*
X122911998Y-119178707D02*
X122836760Y-119292993D01*
X122836760Y-119292993D02*
X122686283Y-119407278D01*
X122686283Y-119407278D02*
X122385331Y-119464421D01*
X122385331Y-119464421D02*
X121858664Y-119464421D01*
X121858664Y-119464421D02*
X121557712Y-119407278D01*
X121557712Y-119407278D02*
X121407236Y-119292993D01*
X121407236Y-119292993D02*
X121331998Y-119178707D01*
X122911998Y-117521564D02*
X122911998Y-118207278D01*
X122911998Y-117864421D02*
X121331998Y-117864421D01*
X121331998Y-117864421D02*
X121557712Y-117978707D01*
X121557712Y-117978707D02*
X121708188Y-118092992D01*
X121708188Y-118092992D02*
X121783426Y-118207278D01*
X121331998Y-117121564D02*
X121331998Y-116378707D01*
X121331998Y-116378707D02*
X121933902Y-116778707D01*
X121933902Y-116778707D02*
X121933902Y-116607278D01*
X121933902Y-116607278D02*
X122009140Y-116492993D01*
X122009140Y-116492993D02*
X122084379Y-116435850D01*
X122084379Y-116435850D02*
X122234855Y-116378707D01*
X122234855Y-116378707D02*
X122611045Y-116378707D01*
X122611045Y-116378707D02*
X122761521Y-116435850D01*
X122761521Y-116435850D02*
X122836760Y-116492993D01*
X122836760Y-116492993D02*
X122911998Y-116607278D01*
X122911998Y-116607278D02*
X122911998Y-116950135D01*
X122911998Y-116950135D02*
X122836760Y-117064421D01*
X122836760Y-117064421D02*
X122761521Y-117121564D01*
X125455710Y-119978707D02*
X123875710Y-119978707D01*
X123875710Y-119178707D02*
X123875710Y-118950135D01*
X123875710Y-118950135D02*
X123950948Y-118835850D01*
X123950948Y-118835850D02*
X124101424Y-118721564D01*
X124101424Y-118721564D02*
X124402376Y-118664421D01*
X124402376Y-118664421D02*
X124929043Y-118664421D01*
X124929043Y-118664421D02*
X125229995Y-118721564D01*
X125229995Y-118721564D02*
X125380472Y-118835850D01*
X125380472Y-118835850D02*
X125455710Y-118950135D01*
X125455710Y-118950135D02*
X125455710Y-119178707D01*
X125455710Y-119178707D02*
X125380472Y-119292993D01*
X125380472Y-119292993D02*
X125229995Y-119407278D01*
X125229995Y-119407278D02*
X124929043Y-119464421D01*
X124929043Y-119464421D02*
X124402376Y-119464421D01*
X124402376Y-119464421D02*
X124101424Y-119407278D01*
X124101424Y-119407278D02*
X123950948Y-119292993D01*
X123950948Y-119292993D02*
X123875710Y-119178707D01*
X124026186Y-118207278D02*
X123950948Y-118150135D01*
X123950948Y-118150135D02*
X123875710Y-118035850D01*
X123875710Y-118035850D02*
X123875710Y-117750135D01*
X123875710Y-117750135D02*
X123950948Y-117635850D01*
X123950948Y-117635850D02*
X124026186Y-117578707D01*
X124026186Y-117578707D02*
X124176662Y-117521564D01*
X124176662Y-117521564D02*
X124327138Y-117521564D01*
X124327138Y-117521564D02*
X124552852Y-117578707D01*
X124552852Y-117578707D02*
X125455710Y-118264421D01*
X125455710Y-118264421D02*
X125455710Y-117521564D01*
X123875710Y-116492993D02*
X123875710Y-116721564D01*
X123875710Y-116721564D02*
X123950948Y-116835850D01*
X123950948Y-116835850D02*
X124026186Y-116892993D01*
X124026186Y-116892993D02*
X124251900Y-117007278D01*
X124251900Y-117007278D02*
X124552852Y-117064421D01*
X124552852Y-117064421D02*
X125154757Y-117064421D01*
X125154757Y-117064421D02*
X125305233Y-117007278D01*
X125305233Y-117007278D02*
X125380472Y-116950135D01*
X125380472Y-116950135D02*
X125455710Y-116835850D01*
X125455710Y-116835850D02*
X125455710Y-116607278D01*
X125455710Y-116607278D02*
X125380472Y-116492993D01*
X125380472Y-116492993D02*
X125305233Y-116435850D01*
X125305233Y-116435850D02*
X125154757Y-116378707D01*
X125154757Y-116378707D02*
X124778567Y-116378707D01*
X124778567Y-116378707D02*
X124628091Y-116435850D01*
X124628091Y-116435850D02*
X124552852Y-116492993D01*
X124552852Y-116492993D02*
X124477614Y-116607278D01*
X124477614Y-116607278D02*
X124477614Y-116835850D01*
X124477614Y-116835850D02*
X124552852Y-116950135D01*
X124552852Y-116950135D02*
X124628091Y-117007278D01*
X124628091Y-117007278D02*
X124778567Y-117064421D01*
X127999422Y-119978707D02*
X126419422Y-119978707D01*
X126419422Y-119178707D02*
X126419422Y-118950135D01*
X126419422Y-118950135D02*
X126494660Y-118835850D01*
X126494660Y-118835850D02*
X126645136Y-118721564D01*
X126645136Y-118721564D02*
X126946088Y-118664421D01*
X126946088Y-118664421D02*
X127472755Y-118664421D01*
X127472755Y-118664421D02*
X127773707Y-118721564D01*
X127773707Y-118721564D02*
X127924184Y-118835850D01*
X127924184Y-118835850D02*
X127999422Y-118950135D01*
X127999422Y-118950135D02*
X127999422Y-119178707D01*
X127999422Y-119178707D02*
X127924184Y-119292993D01*
X127924184Y-119292993D02*
X127773707Y-119407278D01*
X127773707Y-119407278D02*
X127472755Y-119464421D01*
X127472755Y-119464421D02*
X126946088Y-119464421D01*
X126946088Y-119464421D02*
X126645136Y-119407278D01*
X126645136Y-119407278D02*
X126494660Y-119292993D01*
X126494660Y-119292993D02*
X126419422Y-119178707D01*
X126569898Y-118207278D02*
X126494660Y-118150135D01*
X126494660Y-118150135D02*
X126419422Y-118035850D01*
X126419422Y-118035850D02*
X126419422Y-117750135D01*
X126419422Y-117750135D02*
X126494660Y-117635850D01*
X126494660Y-117635850D02*
X126569898Y-117578707D01*
X126569898Y-117578707D02*
X126720374Y-117521564D01*
X126720374Y-117521564D02*
X126870850Y-117521564D01*
X126870850Y-117521564D02*
X127096564Y-117578707D01*
X127096564Y-117578707D02*
X127999422Y-118264421D01*
X127999422Y-118264421D02*
X127999422Y-117521564D01*
X126419422Y-117121564D02*
X126419422Y-116321564D01*
X126419422Y-116321564D02*
X127999422Y-116835850D01*
X130543134Y-119978707D02*
X128963134Y-119978707D01*
X128963134Y-119178707D02*
X128963134Y-118950135D01*
X128963134Y-118950135D02*
X129038372Y-118835850D01*
X129038372Y-118835850D02*
X129188848Y-118721564D01*
X129188848Y-118721564D02*
X129489800Y-118664421D01*
X129489800Y-118664421D02*
X130016467Y-118664421D01*
X130016467Y-118664421D02*
X130317419Y-118721564D01*
X130317419Y-118721564D02*
X130467896Y-118835850D01*
X130467896Y-118835850D02*
X130543134Y-118950135D01*
X130543134Y-118950135D02*
X130543134Y-119178707D01*
X130543134Y-119178707D02*
X130467896Y-119292993D01*
X130467896Y-119292993D02*
X130317419Y-119407278D01*
X130317419Y-119407278D02*
X130016467Y-119464421D01*
X130016467Y-119464421D02*
X129489800Y-119464421D01*
X129489800Y-119464421D02*
X129188848Y-119407278D01*
X129188848Y-119407278D02*
X129038372Y-119292993D01*
X129038372Y-119292993D02*
X128963134Y-119178707D01*
X129113610Y-118207278D02*
X129038372Y-118150135D01*
X129038372Y-118150135D02*
X128963134Y-118035850D01*
X128963134Y-118035850D02*
X128963134Y-117750135D01*
X128963134Y-117750135D02*
X129038372Y-117635850D01*
X129038372Y-117635850D02*
X129113610Y-117578707D01*
X129113610Y-117578707D02*
X129264086Y-117521564D01*
X129264086Y-117521564D02*
X129414562Y-117521564D01*
X129414562Y-117521564D02*
X129640276Y-117578707D01*
X129640276Y-117578707D02*
X130543134Y-118264421D01*
X130543134Y-118264421D02*
X130543134Y-117521564D01*
X129640276Y-116835850D02*
X129565038Y-116950135D01*
X129565038Y-116950135D02*
X129489800Y-117007278D01*
X129489800Y-117007278D02*
X129339324Y-117064421D01*
X129339324Y-117064421D02*
X129264086Y-117064421D01*
X129264086Y-117064421D02*
X129113610Y-117007278D01*
X129113610Y-117007278D02*
X129038372Y-116950135D01*
X129038372Y-116950135D02*
X128963134Y-116835850D01*
X128963134Y-116835850D02*
X128963134Y-116607278D01*
X128963134Y-116607278D02*
X129038372Y-116492993D01*
X129038372Y-116492993D02*
X129113610Y-116435850D01*
X129113610Y-116435850D02*
X129264086Y-116378707D01*
X129264086Y-116378707D02*
X129339324Y-116378707D01*
X129339324Y-116378707D02*
X129489800Y-116435850D01*
X129489800Y-116435850D02*
X129565038Y-116492993D01*
X129565038Y-116492993D02*
X129640276Y-116607278D01*
X129640276Y-116607278D02*
X129640276Y-116835850D01*
X129640276Y-116835850D02*
X129715515Y-116950135D01*
X129715515Y-116950135D02*
X129790753Y-117007278D01*
X129790753Y-117007278D02*
X129941229Y-117064421D01*
X129941229Y-117064421D02*
X130242181Y-117064421D01*
X130242181Y-117064421D02*
X130392657Y-117007278D01*
X130392657Y-117007278D02*
X130467896Y-116950135D01*
X130467896Y-116950135D02*
X130543134Y-116835850D01*
X130543134Y-116835850D02*
X130543134Y-116607278D01*
X130543134Y-116607278D02*
X130467896Y-116492993D01*
X130467896Y-116492993D02*
X130392657Y-116435850D01*
X130392657Y-116435850D02*
X130242181Y-116378707D01*
X130242181Y-116378707D02*
X129941229Y-116378707D01*
X129941229Y-116378707D02*
X129790753Y-116435850D01*
X129790753Y-116435850D02*
X129715515Y-116492993D01*
X129715515Y-116492993D02*
X129640276Y-116607278D01*
X133086846Y-119978707D02*
X131506846Y-119978707D01*
X131506846Y-119178707D02*
X131506846Y-118950135D01*
X131506846Y-118950135D02*
X131582084Y-118835850D01*
X131582084Y-118835850D02*
X131732560Y-118721564D01*
X131732560Y-118721564D02*
X132033512Y-118664421D01*
X132033512Y-118664421D02*
X132560179Y-118664421D01*
X132560179Y-118664421D02*
X132861131Y-118721564D01*
X132861131Y-118721564D02*
X133011608Y-118835850D01*
X133011608Y-118835850D02*
X133086846Y-118950135D01*
X133086846Y-118950135D02*
X133086846Y-119178707D01*
X133086846Y-119178707D02*
X133011608Y-119292993D01*
X133011608Y-119292993D02*
X132861131Y-119407278D01*
X132861131Y-119407278D02*
X132560179Y-119464421D01*
X132560179Y-119464421D02*
X132033512Y-119464421D01*
X132033512Y-119464421D02*
X131732560Y-119407278D01*
X131732560Y-119407278D02*
X131582084Y-119292993D01*
X131582084Y-119292993D02*
X131506846Y-119178707D01*
X131657322Y-118207278D02*
X131582084Y-118150135D01*
X131582084Y-118150135D02*
X131506846Y-118035850D01*
X131506846Y-118035850D02*
X131506846Y-117750135D01*
X131506846Y-117750135D02*
X131582084Y-117635850D01*
X131582084Y-117635850D02*
X131657322Y-117578707D01*
X131657322Y-117578707D02*
X131807798Y-117521564D01*
X131807798Y-117521564D02*
X131958274Y-117521564D01*
X131958274Y-117521564D02*
X132183988Y-117578707D01*
X132183988Y-117578707D02*
X133086846Y-118264421D01*
X133086846Y-118264421D02*
X133086846Y-117521564D01*
X133086846Y-116950135D02*
X133086846Y-116721564D01*
X133086846Y-116721564D02*
X133011608Y-116607278D01*
X133011608Y-116607278D02*
X132936369Y-116550135D01*
X132936369Y-116550135D02*
X132710655Y-116435850D01*
X132710655Y-116435850D02*
X132409703Y-116378707D01*
X132409703Y-116378707D02*
X131807798Y-116378707D01*
X131807798Y-116378707D02*
X131657322Y-116435850D01*
X131657322Y-116435850D02*
X131582084Y-116492993D01*
X131582084Y-116492993D02*
X131506846Y-116607278D01*
X131506846Y-116607278D02*
X131506846Y-116835850D01*
X131506846Y-116835850D02*
X131582084Y-116950135D01*
X131582084Y-116950135D02*
X131657322Y-117007278D01*
X131657322Y-117007278D02*
X131807798Y-117064421D01*
X131807798Y-117064421D02*
X132183988Y-117064421D01*
X132183988Y-117064421D02*
X132334465Y-117007278D01*
X132334465Y-117007278D02*
X132409703Y-116950135D01*
X132409703Y-116950135D02*
X132484941Y-116835850D01*
X132484941Y-116835850D02*
X132484941Y-116607278D01*
X132484941Y-116607278D02*
X132409703Y-116492993D01*
X132409703Y-116492993D02*
X132334465Y-116435850D01*
X132334465Y-116435850D02*
X132183988Y-116378707D01*
X135630558Y-119978707D02*
X134050558Y-119978707D01*
X134050558Y-119178707D02*
X134050558Y-118950135D01*
X134050558Y-118950135D02*
X134125796Y-118835850D01*
X134125796Y-118835850D02*
X134276272Y-118721564D01*
X134276272Y-118721564D02*
X134577224Y-118664421D01*
X134577224Y-118664421D02*
X135103891Y-118664421D01*
X135103891Y-118664421D02*
X135404843Y-118721564D01*
X135404843Y-118721564D02*
X135555320Y-118835850D01*
X135555320Y-118835850D02*
X135630558Y-118950135D01*
X135630558Y-118950135D02*
X135630558Y-119178707D01*
X135630558Y-119178707D02*
X135555320Y-119292993D01*
X135555320Y-119292993D02*
X135404843Y-119407278D01*
X135404843Y-119407278D02*
X135103891Y-119464421D01*
X135103891Y-119464421D02*
X134577224Y-119464421D01*
X134577224Y-119464421D02*
X134276272Y-119407278D01*
X134276272Y-119407278D02*
X134125796Y-119292993D01*
X134125796Y-119292993D02*
X134050558Y-119178707D01*
X134050558Y-118264421D02*
X134050558Y-117521564D01*
X134050558Y-117521564D02*
X134652462Y-117921564D01*
X134652462Y-117921564D02*
X134652462Y-117750135D01*
X134652462Y-117750135D02*
X134727700Y-117635850D01*
X134727700Y-117635850D02*
X134802939Y-117578707D01*
X134802939Y-117578707D02*
X134953415Y-117521564D01*
X134953415Y-117521564D02*
X135329605Y-117521564D01*
X135329605Y-117521564D02*
X135480081Y-117578707D01*
X135480081Y-117578707D02*
X135555320Y-117635850D01*
X135555320Y-117635850D02*
X135630558Y-117750135D01*
X135630558Y-117750135D02*
X135630558Y-118092992D01*
X135630558Y-118092992D02*
X135555320Y-118207278D01*
X135555320Y-118207278D02*
X135480081Y-118264421D01*
X134050558Y-116778707D02*
X134050558Y-116664421D01*
X134050558Y-116664421D02*
X134125796Y-116550135D01*
X134125796Y-116550135D02*
X134201034Y-116492993D01*
X134201034Y-116492993D02*
X134351510Y-116435850D01*
X134351510Y-116435850D02*
X134652462Y-116378707D01*
X134652462Y-116378707D02*
X135028653Y-116378707D01*
X135028653Y-116378707D02*
X135329605Y-116435850D01*
X135329605Y-116435850D02*
X135480081Y-116492993D01*
X135480081Y-116492993D02*
X135555320Y-116550135D01*
X135555320Y-116550135D02*
X135630558Y-116664421D01*
X135630558Y-116664421D02*
X135630558Y-116778707D01*
X135630558Y-116778707D02*
X135555320Y-116892993D01*
X135555320Y-116892993D02*
X135480081Y-116950135D01*
X135480081Y-116950135D02*
X135329605Y-117007278D01*
X135329605Y-117007278D02*
X135028653Y-117064421D01*
X135028653Y-117064421D02*
X134652462Y-117064421D01*
X134652462Y-117064421D02*
X134351510Y-117007278D01*
X134351510Y-117007278D02*
X134201034Y-116950135D01*
X134201034Y-116950135D02*
X134125796Y-116892993D01*
X134125796Y-116892993D02*
X134050558Y-116778707D01*
X138174270Y-119978707D02*
X136594270Y-119978707D01*
X136594270Y-119178707D02*
X136594270Y-118950135D01*
X136594270Y-118950135D02*
X136669508Y-118835850D01*
X136669508Y-118835850D02*
X136819984Y-118721564D01*
X136819984Y-118721564D02*
X137120936Y-118664421D01*
X137120936Y-118664421D02*
X137647603Y-118664421D01*
X137647603Y-118664421D02*
X137948555Y-118721564D01*
X137948555Y-118721564D02*
X138099032Y-118835850D01*
X138099032Y-118835850D02*
X138174270Y-118950135D01*
X138174270Y-118950135D02*
X138174270Y-119178707D01*
X138174270Y-119178707D02*
X138099032Y-119292993D01*
X138099032Y-119292993D02*
X137948555Y-119407278D01*
X137948555Y-119407278D02*
X137647603Y-119464421D01*
X137647603Y-119464421D02*
X137120936Y-119464421D01*
X137120936Y-119464421D02*
X136819984Y-119407278D01*
X136819984Y-119407278D02*
X136669508Y-119292993D01*
X136669508Y-119292993D02*
X136594270Y-119178707D01*
X136594270Y-118264421D02*
X136594270Y-117521564D01*
X136594270Y-117521564D02*
X137196174Y-117921564D01*
X137196174Y-117921564D02*
X137196174Y-117750135D01*
X137196174Y-117750135D02*
X137271412Y-117635850D01*
X137271412Y-117635850D02*
X137346651Y-117578707D01*
X137346651Y-117578707D02*
X137497127Y-117521564D01*
X137497127Y-117521564D02*
X137873317Y-117521564D01*
X137873317Y-117521564D02*
X138023793Y-117578707D01*
X138023793Y-117578707D02*
X138099032Y-117635850D01*
X138099032Y-117635850D02*
X138174270Y-117750135D01*
X138174270Y-117750135D02*
X138174270Y-118092992D01*
X138174270Y-118092992D02*
X138099032Y-118207278D01*
X138099032Y-118207278D02*
X138023793Y-118264421D01*
X138174270Y-116378707D02*
X138174270Y-117064421D01*
X138174270Y-116721564D02*
X136594270Y-116721564D01*
X136594270Y-116721564D02*
X136819984Y-116835850D01*
X136819984Y-116835850D02*
X136970460Y-116950135D01*
X136970460Y-116950135D02*
X137045698Y-117064421D01*
X140717982Y-119978707D02*
X139137982Y-119978707D01*
X139137982Y-119178707D02*
X139137982Y-118950135D01*
X139137982Y-118950135D02*
X139213220Y-118835850D01*
X139213220Y-118835850D02*
X139363696Y-118721564D01*
X139363696Y-118721564D02*
X139664648Y-118664421D01*
X139664648Y-118664421D02*
X140191315Y-118664421D01*
X140191315Y-118664421D02*
X140492267Y-118721564D01*
X140492267Y-118721564D02*
X140642744Y-118835850D01*
X140642744Y-118835850D02*
X140717982Y-118950135D01*
X140717982Y-118950135D02*
X140717982Y-119178707D01*
X140717982Y-119178707D02*
X140642744Y-119292993D01*
X140642744Y-119292993D02*
X140492267Y-119407278D01*
X140492267Y-119407278D02*
X140191315Y-119464421D01*
X140191315Y-119464421D02*
X139664648Y-119464421D01*
X139664648Y-119464421D02*
X139363696Y-119407278D01*
X139363696Y-119407278D02*
X139213220Y-119292993D01*
X139213220Y-119292993D02*
X139137982Y-119178707D01*
X139137982Y-118264421D02*
X139137982Y-117521564D01*
X139137982Y-117521564D02*
X139739886Y-117921564D01*
X139739886Y-117921564D02*
X139739886Y-117750135D01*
X139739886Y-117750135D02*
X139815124Y-117635850D01*
X139815124Y-117635850D02*
X139890363Y-117578707D01*
X139890363Y-117578707D02*
X140040839Y-117521564D01*
X140040839Y-117521564D02*
X140417029Y-117521564D01*
X140417029Y-117521564D02*
X140567505Y-117578707D01*
X140567505Y-117578707D02*
X140642744Y-117635850D01*
X140642744Y-117635850D02*
X140717982Y-117750135D01*
X140717982Y-117750135D02*
X140717982Y-118092992D01*
X140717982Y-118092992D02*
X140642744Y-118207278D01*
X140642744Y-118207278D02*
X140567505Y-118264421D01*
X139288458Y-117064421D02*
X139213220Y-117007278D01*
X139213220Y-117007278D02*
X139137982Y-116892993D01*
X139137982Y-116892993D02*
X139137982Y-116607278D01*
X139137982Y-116607278D02*
X139213220Y-116492993D01*
X139213220Y-116492993D02*
X139288458Y-116435850D01*
X139288458Y-116435850D02*
X139438934Y-116378707D01*
X139438934Y-116378707D02*
X139589410Y-116378707D01*
X139589410Y-116378707D02*
X139815124Y-116435850D01*
X139815124Y-116435850D02*
X140717982Y-117121564D01*
X140717982Y-117121564D02*
X140717982Y-116378707D01*
X143261694Y-119978707D02*
X141681694Y-119978707D01*
X141681694Y-119178707D02*
X141681694Y-118950135D01*
X141681694Y-118950135D02*
X141756932Y-118835850D01*
X141756932Y-118835850D02*
X141907408Y-118721564D01*
X141907408Y-118721564D02*
X142208360Y-118664421D01*
X142208360Y-118664421D02*
X142735027Y-118664421D01*
X142735027Y-118664421D02*
X143035979Y-118721564D01*
X143035979Y-118721564D02*
X143186456Y-118835850D01*
X143186456Y-118835850D02*
X143261694Y-118950135D01*
X143261694Y-118950135D02*
X143261694Y-119178707D01*
X143261694Y-119178707D02*
X143186456Y-119292993D01*
X143186456Y-119292993D02*
X143035979Y-119407278D01*
X143035979Y-119407278D02*
X142735027Y-119464421D01*
X142735027Y-119464421D02*
X142208360Y-119464421D01*
X142208360Y-119464421D02*
X141907408Y-119407278D01*
X141907408Y-119407278D02*
X141756932Y-119292993D01*
X141756932Y-119292993D02*
X141681694Y-119178707D01*
X141681694Y-118264421D02*
X141681694Y-117521564D01*
X141681694Y-117521564D02*
X142283598Y-117921564D01*
X142283598Y-117921564D02*
X142283598Y-117750135D01*
X142283598Y-117750135D02*
X142358836Y-117635850D01*
X142358836Y-117635850D02*
X142434075Y-117578707D01*
X142434075Y-117578707D02*
X142584551Y-117521564D01*
X142584551Y-117521564D02*
X142960741Y-117521564D01*
X142960741Y-117521564D02*
X143111217Y-117578707D01*
X143111217Y-117578707D02*
X143186456Y-117635850D01*
X143186456Y-117635850D02*
X143261694Y-117750135D01*
X143261694Y-117750135D02*
X143261694Y-118092992D01*
X143261694Y-118092992D02*
X143186456Y-118207278D01*
X143186456Y-118207278D02*
X143111217Y-118264421D01*
X141681694Y-117121564D02*
X141681694Y-116378707D01*
X141681694Y-116378707D02*
X142283598Y-116778707D01*
X142283598Y-116778707D02*
X142283598Y-116607278D01*
X142283598Y-116607278D02*
X142358836Y-116492993D01*
X142358836Y-116492993D02*
X142434075Y-116435850D01*
X142434075Y-116435850D02*
X142584551Y-116378707D01*
X142584551Y-116378707D02*
X142960741Y-116378707D01*
X142960741Y-116378707D02*
X143111217Y-116435850D01*
X143111217Y-116435850D02*
X143186456Y-116492993D01*
X143186456Y-116492993D02*
X143261694Y-116607278D01*
X143261694Y-116607278D02*
X143261694Y-116950135D01*
X143261694Y-116950135D02*
X143186456Y-117064421D01*
X143186456Y-117064421D02*
X143111217Y-117121564D01*
X145805406Y-119978707D02*
X144225406Y-119978707D01*
X144225406Y-119178707D02*
X144225406Y-118950135D01*
X144225406Y-118950135D02*
X144300644Y-118835850D01*
X144300644Y-118835850D02*
X144451120Y-118721564D01*
X144451120Y-118721564D02*
X144752072Y-118664421D01*
X144752072Y-118664421D02*
X145278739Y-118664421D01*
X145278739Y-118664421D02*
X145579691Y-118721564D01*
X145579691Y-118721564D02*
X145730168Y-118835850D01*
X145730168Y-118835850D02*
X145805406Y-118950135D01*
X145805406Y-118950135D02*
X145805406Y-119178707D01*
X145805406Y-119178707D02*
X145730168Y-119292993D01*
X145730168Y-119292993D02*
X145579691Y-119407278D01*
X145579691Y-119407278D02*
X145278739Y-119464421D01*
X145278739Y-119464421D02*
X144752072Y-119464421D01*
X144752072Y-119464421D02*
X144451120Y-119407278D01*
X144451120Y-119407278D02*
X144300644Y-119292993D01*
X144300644Y-119292993D02*
X144225406Y-119178707D01*
X144225406Y-118264421D02*
X144225406Y-117521564D01*
X144225406Y-117521564D02*
X144827310Y-117921564D01*
X144827310Y-117921564D02*
X144827310Y-117750135D01*
X144827310Y-117750135D02*
X144902548Y-117635850D01*
X144902548Y-117635850D02*
X144977787Y-117578707D01*
X144977787Y-117578707D02*
X145128263Y-117521564D01*
X145128263Y-117521564D02*
X145504453Y-117521564D01*
X145504453Y-117521564D02*
X145654929Y-117578707D01*
X145654929Y-117578707D02*
X145730168Y-117635850D01*
X145730168Y-117635850D02*
X145805406Y-117750135D01*
X145805406Y-117750135D02*
X145805406Y-118092992D01*
X145805406Y-118092992D02*
X145730168Y-118207278D01*
X145730168Y-118207278D02*
X145654929Y-118264421D01*
X144752072Y-116492993D02*
X145805406Y-116492993D01*
X144150168Y-116778707D02*
X145278739Y-117064421D01*
X145278739Y-117064421D02*
X145278739Y-116321564D01*
X148349118Y-119978707D02*
X146769118Y-119978707D01*
X146769118Y-119178707D02*
X146769118Y-118950135D01*
X146769118Y-118950135D02*
X146844356Y-118835850D01*
X146844356Y-118835850D02*
X146994832Y-118721564D01*
X146994832Y-118721564D02*
X147295784Y-118664421D01*
X147295784Y-118664421D02*
X147822451Y-118664421D01*
X147822451Y-118664421D02*
X148123403Y-118721564D01*
X148123403Y-118721564D02*
X148273880Y-118835850D01*
X148273880Y-118835850D02*
X148349118Y-118950135D01*
X148349118Y-118950135D02*
X148349118Y-119178707D01*
X148349118Y-119178707D02*
X148273880Y-119292993D01*
X148273880Y-119292993D02*
X148123403Y-119407278D01*
X148123403Y-119407278D02*
X147822451Y-119464421D01*
X147822451Y-119464421D02*
X147295784Y-119464421D01*
X147295784Y-119464421D02*
X146994832Y-119407278D01*
X146994832Y-119407278D02*
X146844356Y-119292993D01*
X146844356Y-119292993D02*
X146769118Y-119178707D01*
X146769118Y-118264421D02*
X146769118Y-117521564D01*
X146769118Y-117521564D02*
X147371022Y-117921564D01*
X147371022Y-117921564D02*
X147371022Y-117750135D01*
X147371022Y-117750135D02*
X147446260Y-117635850D01*
X147446260Y-117635850D02*
X147521499Y-117578707D01*
X147521499Y-117578707D02*
X147671975Y-117521564D01*
X147671975Y-117521564D02*
X148048165Y-117521564D01*
X148048165Y-117521564D02*
X148198641Y-117578707D01*
X148198641Y-117578707D02*
X148273880Y-117635850D01*
X148273880Y-117635850D02*
X148349118Y-117750135D01*
X148349118Y-117750135D02*
X148349118Y-118092992D01*
X148349118Y-118092992D02*
X148273880Y-118207278D01*
X148273880Y-118207278D02*
X148198641Y-118264421D01*
X146769118Y-116435850D02*
X146769118Y-117007278D01*
X146769118Y-117007278D02*
X147521499Y-117064421D01*
X147521499Y-117064421D02*
X147446260Y-117007278D01*
X147446260Y-117007278D02*
X147371022Y-116892993D01*
X147371022Y-116892993D02*
X147371022Y-116607278D01*
X147371022Y-116607278D02*
X147446260Y-116492993D01*
X147446260Y-116492993D02*
X147521499Y-116435850D01*
X147521499Y-116435850D02*
X147671975Y-116378707D01*
X147671975Y-116378707D02*
X148048165Y-116378707D01*
X148048165Y-116378707D02*
X148198641Y-116435850D01*
X148198641Y-116435850D02*
X148273880Y-116492993D01*
X148273880Y-116492993D02*
X148349118Y-116607278D01*
X148349118Y-116607278D02*
X148349118Y-116892993D01*
X148349118Y-116892993D02*
X148273880Y-117007278D01*
X148273880Y-117007278D02*
X148198641Y-117064421D01*
X150892830Y-119978707D02*
X149312830Y-119978707D01*
X149312830Y-119178707D02*
X149312830Y-118950135D01*
X149312830Y-118950135D02*
X149388068Y-118835850D01*
X149388068Y-118835850D02*
X149538544Y-118721564D01*
X149538544Y-118721564D02*
X149839496Y-118664421D01*
X149839496Y-118664421D02*
X150366163Y-118664421D01*
X150366163Y-118664421D02*
X150667115Y-118721564D01*
X150667115Y-118721564D02*
X150817592Y-118835850D01*
X150817592Y-118835850D02*
X150892830Y-118950135D01*
X150892830Y-118950135D02*
X150892830Y-119178707D01*
X150892830Y-119178707D02*
X150817592Y-119292993D01*
X150817592Y-119292993D02*
X150667115Y-119407278D01*
X150667115Y-119407278D02*
X150366163Y-119464421D01*
X150366163Y-119464421D02*
X149839496Y-119464421D01*
X149839496Y-119464421D02*
X149538544Y-119407278D01*
X149538544Y-119407278D02*
X149388068Y-119292993D01*
X149388068Y-119292993D02*
X149312830Y-119178707D01*
X149312830Y-118264421D02*
X149312830Y-117521564D01*
X149312830Y-117521564D02*
X149914734Y-117921564D01*
X149914734Y-117921564D02*
X149914734Y-117750135D01*
X149914734Y-117750135D02*
X149989972Y-117635850D01*
X149989972Y-117635850D02*
X150065211Y-117578707D01*
X150065211Y-117578707D02*
X150215687Y-117521564D01*
X150215687Y-117521564D02*
X150591877Y-117521564D01*
X150591877Y-117521564D02*
X150742353Y-117578707D01*
X150742353Y-117578707D02*
X150817592Y-117635850D01*
X150817592Y-117635850D02*
X150892830Y-117750135D01*
X150892830Y-117750135D02*
X150892830Y-118092992D01*
X150892830Y-118092992D02*
X150817592Y-118207278D01*
X150817592Y-118207278D02*
X150742353Y-118264421D01*
X149312830Y-116492993D02*
X149312830Y-116721564D01*
X149312830Y-116721564D02*
X149388068Y-116835850D01*
X149388068Y-116835850D02*
X149463306Y-116892993D01*
X149463306Y-116892993D02*
X149689020Y-117007278D01*
X149689020Y-117007278D02*
X149989972Y-117064421D01*
X149989972Y-117064421D02*
X150591877Y-117064421D01*
X150591877Y-117064421D02*
X150742353Y-117007278D01*
X150742353Y-117007278D02*
X150817592Y-116950135D01*
X150817592Y-116950135D02*
X150892830Y-116835850D01*
X150892830Y-116835850D02*
X150892830Y-116607278D01*
X150892830Y-116607278D02*
X150817592Y-116492993D01*
X150817592Y-116492993D02*
X150742353Y-116435850D01*
X150742353Y-116435850D02*
X150591877Y-116378707D01*
X150591877Y-116378707D02*
X150215687Y-116378707D01*
X150215687Y-116378707D02*
X150065211Y-116435850D01*
X150065211Y-116435850D02*
X149989972Y-116492993D01*
X149989972Y-116492993D02*
X149914734Y-116607278D01*
X149914734Y-116607278D02*
X149914734Y-116835850D01*
X149914734Y-116835850D02*
X149989972Y-116950135D01*
X149989972Y-116950135D02*
X150065211Y-117007278D01*
X150065211Y-117007278D02*
X150215687Y-117064421D01*
X153436542Y-119978707D02*
X151856542Y-119978707D01*
X151856542Y-119178707D02*
X151856542Y-118950135D01*
X151856542Y-118950135D02*
X151931780Y-118835850D01*
X151931780Y-118835850D02*
X152082256Y-118721564D01*
X152082256Y-118721564D02*
X152383208Y-118664421D01*
X152383208Y-118664421D02*
X152909875Y-118664421D01*
X152909875Y-118664421D02*
X153210827Y-118721564D01*
X153210827Y-118721564D02*
X153361304Y-118835850D01*
X153361304Y-118835850D02*
X153436542Y-118950135D01*
X153436542Y-118950135D02*
X153436542Y-119178707D01*
X153436542Y-119178707D02*
X153361304Y-119292993D01*
X153361304Y-119292993D02*
X153210827Y-119407278D01*
X153210827Y-119407278D02*
X152909875Y-119464421D01*
X152909875Y-119464421D02*
X152383208Y-119464421D01*
X152383208Y-119464421D02*
X152082256Y-119407278D01*
X152082256Y-119407278D02*
X151931780Y-119292993D01*
X151931780Y-119292993D02*
X151856542Y-119178707D01*
X151856542Y-118264421D02*
X151856542Y-117521564D01*
X151856542Y-117521564D02*
X152458446Y-117921564D01*
X152458446Y-117921564D02*
X152458446Y-117750135D01*
X152458446Y-117750135D02*
X152533684Y-117635850D01*
X152533684Y-117635850D02*
X152608923Y-117578707D01*
X152608923Y-117578707D02*
X152759399Y-117521564D01*
X152759399Y-117521564D02*
X153135589Y-117521564D01*
X153135589Y-117521564D02*
X153286065Y-117578707D01*
X153286065Y-117578707D02*
X153361304Y-117635850D01*
X153361304Y-117635850D02*
X153436542Y-117750135D01*
X153436542Y-117750135D02*
X153436542Y-118092992D01*
X153436542Y-118092992D02*
X153361304Y-118207278D01*
X153361304Y-118207278D02*
X153286065Y-118264421D01*
X151856542Y-117121564D02*
X151856542Y-116321564D01*
X151856542Y-116321564D02*
X153436542Y-116835850D01*
X155980254Y-119978707D02*
X154400254Y-119978707D01*
X154400254Y-119178707D02*
X154400254Y-118950135D01*
X154400254Y-118950135D02*
X154475492Y-118835850D01*
X154475492Y-118835850D02*
X154625968Y-118721564D01*
X154625968Y-118721564D02*
X154926920Y-118664421D01*
X154926920Y-118664421D02*
X155453587Y-118664421D01*
X155453587Y-118664421D02*
X155754539Y-118721564D01*
X155754539Y-118721564D02*
X155905016Y-118835850D01*
X155905016Y-118835850D02*
X155980254Y-118950135D01*
X155980254Y-118950135D02*
X155980254Y-119178707D01*
X155980254Y-119178707D02*
X155905016Y-119292993D01*
X155905016Y-119292993D02*
X155754539Y-119407278D01*
X155754539Y-119407278D02*
X155453587Y-119464421D01*
X155453587Y-119464421D02*
X154926920Y-119464421D01*
X154926920Y-119464421D02*
X154625968Y-119407278D01*
X154625968Y-119407278D02*
X154475492Y-119292993D01*
X154475492Y-119292993D02*
X154400254Y-119178707D01*
X154400254Y-118264421D02*
X154400254Y-117521564D01*
X154400254Y-117521564D02*
X155002158Y-117921564D01*
X155002158Y-117921564D02*
X155002158Y-117750135D01*
X155002158Y-117750135D02*
X155077396Y-117635850D01*
X155077396Y-117635850D02*
X155152635Y-117578707D01*
X155152635Y-117578707D02*
X155303111Y-117521564D01*
X155303111Y-117521564D02*
X155679301Y-117521564D01*
X155679301Y-117521564D02*
X155829777Y-117578707D01*
X155829777Y-117578707D02*
X155905016Y-117635850D01*
X155905016Y-117635850D02*
X155980254Y-117750135D01*
X155980254Y-117750135D02*
X155980254Y-118092992D01*
X155980254Y-118092992D02*
X155905016Y-118207278D01*
X155905016Y-118207278D02*
X155829777Y-118264421D01*
X155077396Y-116835850D02*
X155002158Y-116950135D01*
X155002158Y-116950135D02*
X154926920Y-117007278D01*
X154926920Y-117007278D02*
X154776444Y-117064421D01*
X154776444Y-117064421D02*
X154701206Y-117064421D01*
X154701206Y-117064421D02*
X154550730Y-117007278D01*
X154550730Y-117007278D02*
X154475492Y-116950135D01*
X154475492Y-116950135D02*
X154400254Y-116835850D01*
X154400254Y-116835850D02*
X154400254Y-116607278D01*
X154400254Y-116607278D02*
X154475492Y-116492993D01*
X154475492Y-116492993D02*
X154550730Y-116435850D01*
X154550730Y-116435850D02*
X154701206Y-116378707D01*
X154701206Y-116378707D02*
X154776444Y-116378707D01*
X154776444Y-116378707D02*
X154926920Y-116435850D01*
X154926920Y-116435850D02*
X155002158Y-116492993D01*
X155002158Y-116492993D02*
X155077396Y-116607278D01*
X155077396Y-116607278D02*
X155077396Y-116835850D01*
X155077396Y-116835850D02*
X155152635Y-116950135D01*
X155152635Y-116950135D02*
X155227873Y-117007278D01*
X155227873Y-117007278D02*
X155378349Y-117064421D01*
X155378349Y-117064421D02*
X155679301Y-117064421D01*
X155679301Y-117064421D02*
X155829777Y-117007278D01*
X155829777Y-117007278D02*
X155905016Y-116950135D01*
X155905016Y-116950135D02*
X155980254Y-116835850D01*
X155980254Y-116835850D02*
X155980254Y-116607278D01*
X155980254Y-116607278D02*
X155905016Y-116492993D01*
X155905016Y-116492993D02*
X155829777Y-116435850D01*
X155829777Y-116435850D02*
X155679301Y-116378707D01*
X155679301Y-116378707D02*
X155378349Y-116378707D01*
X155378349Y-116378707D02*
X155227873Y-116435850D01*
X155227873Y-116435850D02*
X155152635Y-116492993D01*
X155152635Y-116492993D02*
X155077396Y-116607278D01*
X158523966Y-119978707D02*
X156943966Y-119978707D01*
X156943966Y-119178707D02*
X156943966Y-118950135D01*
X156943966Y-118950135D02*
X157019204Y-118835850D01*
X157019204Y-118835850D02*
X157169680Y-118721564D01*
X157169680Y-118721564D02*
X157470632Y-118664421D01*
X157470632Y-118664421D02*
X157997299Y-118664421D01*
X157997299Y-118664421D02*
X158298251Y-118721564D01*
X158298251Y-118721564D02*
X158448728Y-118835850D01*
X158448728Y-118835850D02*
X158523966Y-118950135D01*
X158523966Y-118950135D02*
X158523966Y-119178707D01*
X158523966Y-119178707D02*
X158448728Y-119292993D01*
X158448728Y-119292993D02*
X158298251Y-119407278D01*
X158298251Y-119407278D02*
X157997299Y-119464421D01*
X157997299Y-119464421D02*
X157470632Y-119464421D01*
X157470632Y-119464421D02*
X157169680Y-119407278D01*
X157169680Y-119407278D02*
X157019204Y-119292993D01*
X157019204Y-119292993D02*
X156943966Y-119178707D01*
X156943966Y-118264421D02*
X156943966Y-117521564D01*
X156943966Y-117521564D02*
X157545870Y-117921564D01*
X157545870Y-117921564D02*
X157545870Y-117750135D01*
X157545870Y-117750135D02*
X157621108Y-117635850D01*
X157621108Y-117635850D02*
X157696347Y-117578707D01*
X157696347Y-117578707D02*
X157846823Y-117521564D01*
X157846823Y-117521564D02*
X158223013Y-117521564D01*
X158223013Y-117521564D02*
X158373489Y-117578707D01*
X158373489Y-117578707D02*
X158448728Y-117635850D01*
X158448728Y-117635850D02*
X158523966Y-117750135D01*
X158523966Y-117750135D02*
X158523966Y-118092992D01*
X158523966Y-118092992D02*
X158448728Y-118207278D01*
X158448728Y-118207278D02*
X158373489Y-118264421D01*
X158523966Y-116950135D02*
X158523966Y-116721564D01*
X158523966Y-116721564D02*
X158448728Y-116607278D01*
X158448728Y-116607278D02*
X158373489Y-116550135D01*
X158373489Y-116550135D02*
X158147775Y-116435850D01*
X158147775Y-116435850D02*
X157846823Y-116378707D01*
X157846823Y-116378707D02*
X157244918Y-116378707D01*
X157244918Y-116378707D02*
X157094442Y-116435850D01*
X157094442Y-116435850D02*
X157019204Y-116492993D01*
X157019204Y-116492993D02*
X156943966Y-116607278D01*
X156943966Y-116607278D02*
X156943966Y-116835850D01*
X156943966Y-116835850D02*
X157019204Y-116950135D01*
X157019204Y-116950135D02*
X157094442Y-117007278D01*
X157094442Y-117007278D02*
X157244918Y-117064421D01*
X157244918Y-117064421D02*
X157621108Y-117064421D01*
X157621108Y-117064421D02*
X157771585Y-117007278D01*
X157771585Y-117007278D02*
X157846823Y-116950135D01*
X157846823Y-116950135D02*
X157922061Y-116835850D01*
X157922061Y-116835850D02*
X157922061Y-116607278D01*
X157922061Y-116607278D02*
X157846823Y-116492993D01*
X157846823Y-116492993D02*
X157771585Y-116435850D01*
X157771585Y-116435850D02*
X157621108Y-116378707D01*
X161067678Y-119978707D02*
X159487678Y-119978707D01*
X159487678Y-119178707D02*
X159487678Y-118950135D01*
X159487678Y-118950135D02*
X159562916Y-118835850D01*
X159562916Y-118835850D02*
X159713392Y-118721564D01*
X159713392Y-118721564D02*
X160014344Y-118664421D01*
X160014344Y-118664421D02*
X160541011Y-118664421D01*
X160541011Y-118664421D02*
X160841963Y-118721564D01*
X160841963Y-118721564D02*
X160992440Y-118835850D01*
X160992440Y-118835850D02*
X161067678Y-118950135D01*
X161067678Y-118950135D02*
X161067678Y-119178707D01*
X161067678Y-119178707D02*
X160992440Y-119292993D01*
X160992440Y-119292993D02*
X160841963Y-119407278D01*
X160841963Y-119407278D02*
X160541011Y-119464421D01*
X160541011Y-119464421D02*
X160014344Y-119464421D01*
X160014344Y-119464421D02*
X159713392Y-119407278D01*
X159713392Y-119407278D02*
X159562916Y-119292993D01*
X159562916Y-119292993D02*
X159487678Y-119178707D01*
X160014344Y-117635850D02*
X161067678Y-117635850D01*
X159412440Y-117921564D02*
X160541011Y-118207278D01*
X160541011Y-118207278D02*
X160541011Y-117464421D01*
X159487678Y-116778707D02*
X159487678Y-116664421D01*
X159487678Y-116664421D02*
X159562916Y-116550135D01*
X159562916Y-116550135D02*
X159638154Y-116492993D01*
X159638154Y-116492993D02*
X159788630Y-116435850D01*
X159788630Y-116435850D02*
X160089582Y-116378707D01*
X160089582Y-116378707D02*
X160465773Y-116378707D01*
X160465773Y-116378707D02*
X160766725Y-116435850D01*
X160766725Y-116435850D02*
X160917201Y-116492993D01*
X160917201Y-116492993D02*
X160992440Y-116550135D01*
X160992440Y-116550135D02*
X161067678Y-116664421D01*
X161067678Y-116664421D02*
X161067678Y-116778707D01*
X161067678Y-116778707D02*
X160992440Y-116892993D01*
X160992440Y-116892993D02*
X160917201Y-116950135D01*
X160917201Y-116950135D02*
X160766725Y-117007278D01*
X160766725Y-117007278D02*
X160465773Y-117064421D01*
X160465773Y-117064421D02*
X160089582Y-117064421D01*
X160089582Y-117064421D02*
X159788630Y-117007278D01*
X159788630Y-117007278D02*
X159638154Y-116950135D01*
X159638154Y-116950135D02*
X159562916Y-116892993D01*
X159562916Y-116892993D02*
X159487678Y-116778707D01*
X163611390Y-119978707D02*
X162031390Y-119978707D01*
X162031390Y-119178707D02*
X162031390Y-118950135D01*
X162031390Y-118950135D02*
X162106628Y-118835850D01*
X162106628Y-118835850D02*
X162257104Y-118721564D01*
X162257104Y-118721564D02*
X162558056Y-118664421D01*
X162558056Y-118664421D02*
X163084723Y-118664421D01*
X163084723Y-118664421D02*
X163385675Y-118721564D01*
X163385675Y-118721564D02*
X163536152Y-118835850D01*
X163536152Y-118835850D02*
X163611390Y-118950135D01*
X163611390Y-118950135D02*
X163611390Y-119178707D01*
X163611390Y-119178707D02*
X163536152Y-119292993D01*
X163536152Y-119292993D02*
X163385675Y-119407278D01*
X163385675Y-119407278D02*
X163084723Y-119464421D01*
X163084723Y-119464421D02*
X162558056Y-119464421D01*
X162558056Y-119464421D02*
X162257104Y-119407278D01*
X162257104Y-119407278D02*
X162106628Y-119292993D01*
X162106628Y-119292993D02*
X162031390Y-119178707D01*
X162558056Y-117635850D02*
X163611390Y-117635850D01*
X161956152Y-117921564D02*
X163084723Y-118207278D01*
X163084723Y-118207278D02*
X163084723Y-117464421D01*
X163611390Y-116378707D02*
X163611390Y-117064421D01*
X163611390Y-116721564D02*
X162031390Y-116721564D01*
X162031390Y-116721564D02*
X162257104Y-116835850D01*
X162257104Y-116835850D02*
X162407580Y-116950135D01*
X162407580Y-116950135D02*
X162482818Y-117064421D01*
X165703673Y-120035850D02*
X165703673Y-119464422D01*
X166155102Y-120150136D02*
X164575102Y-119750136D01*
X164575102Y-119750136D02*
X166155102Y-119350136D01*
X165101768Y-118435851D02*
X166155102Y-118435851D01*
X164499864Y-118721565D02*
X165628435Y-119007279D01*
X165628435Y-119007279D02*
X165628435Y-118264422D01*
X168247385Y-120035850D02*
X168247385Y-119464422D01*
X168698814Y-120150136D02*
X167118814Y-119750136D01*
X167118814Y-119750136D02*
X168698814Y-119350136D01*
X167118814Y-118378708D02*
X167118814Y-118950136D01*
X167118814Y-118950136D02*
X167871195Y-119007279D01*
X167871195Y-119007279D02*
X167795956Y-118950136D01*
X167795956Y-118950136D02*
X167720718Y-118835851D01*
X167720718Y-118835851D02*
X167720718Y-118550136D01*
X167720718Y-118550136D02*
X167795956Y-118435851D01*
X167795956Y-118435851D02*
X167871195Y-118378708D01*
X167871195Y-118378708D02*
X168021671Y-118321565D01*
X168021671Y-118321565D02*
X168397861Y-118321565D01*
X168397861Y-118321565D02*
X168548337Y-118378708D01*
X168548337Y-118378708D02*
X168623576Y-118435851D01*
X168623576Y-118435851D02*
X168698814Y-118550136D01*
X168698814Y-118550136D02*
X168698814Y-118835851D01*
X168698814Y-118835851D02*
X168623576Y-118950136D01*
X168623576Y-118950136D02*
X168548337Y-119007279D01*
X169737764Y-119350136D02*
X169662526Y-119464422D01*
X169662526Y-119464422D02*
X169662526Y-119635850D01*
X169662526Y-119635850D02*
X169737764Y-119807279D01*
X169737764Y-119807279D02*
X169888240Y-119921564D01*
X169888240Y-119921564D02*
X170038716Y-119978707D01*
X170038716Y-119978707D02*
X170339668Y-120035850D01*
X170339668Y-120035850D02*
X170565383Y-120035850D01*
X170565383Y-120035850D02*
X170866335Y-119978707D01*
X170866335Y-119978707D02*
X171016811Y-119921564D01*
X171016811Y-119921564D02*
X171167288Y-119807279D01*
X171167288Y-119807279D02*
X171242526Y-119635850D01*
X171242526Y-119635850D02*
X171242526Y-119521564D01*
X171242526Y-119521564D02*
X171167288Y-119350136D01*
X171167288Y-119350136D02*
X171092049Y-119292993D01*
X171092049Y-119292993D02*
X170565383Y-119292993D01*
X170565383Y-119292993D02*
X170565383Y-119521564D01*
X171242526Y-118778707D02*
X169662526Y-118778707D01*
X169662526Y-118778707D02*
X171242526Y-118092993D01*
X171242526Y-118092993D02*
X169662526Y-118092993D01*
X171242526Y-117521564D02*
X169662526Y-117521564D01*
X169662526Y-117521564D02*
X169662526Y-117235850D01*
X169662526Y-117235850D02*
X169737764Y-117064421D01*
X169737764Y-117064421D02*
X169888240Y-116950136D01*
X169888240Y-116950136D02*
X170038716Y-116892993D01*
X170038716Y-116892993D02*
X170339668Y-116835850D01*
X170339668Y-116835850D02*
X170565383Y-116835850D01*
X170565383Y-116835850D02*
X170866335Y-116892993D01*
X170866335Y-116892993D02*
X171016811Y-116950136D01*
X171016811Y-116950136D02*
X171167288Y-117064421D01*
X171167288Y-117064421D02*
X171242526Y-117235850D01*
X171242526Y-117235850D02*
X171242526Y-117521564D01*
X173184333Y-119978707D02*
X173184333Y-119064422D01*
X173786238Y-119521564D02*
X172582428Y-119521564D01*
X172206238Y-117921565D02*
X172206238Y-118492993D01*
X172206238Y-118492993D02*
X172958619Y-118550136D01*
X172958619Y-118550136D02*
X172883380Y-118492993D01*
X172883380Y-118492993D02*
X172808142Y-118378708D01*
X172808142Y-118378708D02*
X172808142Y-118092993D01*
X172808142Y-118092993D02*
X172883380Y-117978708D01*
X172883380Y-117978708D02*
X172958619Y-117921565D01*
X172958619Y-117921565D02*
X173109095Y-117864422D01*
X173109095Y-117864422D02*
X173485285Y-117864422D01*
X173485285Y-117864422D02*
X173635761Y-117921565D01*
X173635761Y-117921565D02*
X173711000Y-117978708D01*
X173711000Y-117978708D02*
X173786238Y-118092993D01*
X173786238Y-118092993D02*
X173786238Y-118378708D01*
X173786238Y-118378708D02*
X173711000Y-118492993D01*
X173711000Y-118492993D02*
X173635761Y-118550136D01*
X172206238Y-117521565D02*
X173786238Y-117121565D01*
X173786238Y-117121565D02*
X172206238Y-116721565D01*
D12*
X149296667Y-104102819D02*
X149630000Y-105102819D01*
X149630000Y-105102819D02*
X149963333Y-104102819D01*
X150868095Y-105007580D02*
X150820476Y-105055200D01*
X150820476Y-105055200D02*
X150677619Y-105102819D01*
X150677619Y-105102819D02*
X150582381Y-105102819D01*
X150582381Y-105102819D02*
X150439524Y-105055200D01*
X150439524Y-105055200D02*
X150344286Y-104959961D01*
X150344286Y-104959961D02*
X150296667Y-104864723D01*
X150296667Y-104864723D02*
X150249048Y-104674247D01*
X150249048Y-104674247D02*
X150249048Y-104531390D01*
X150249048Y-104531390D02*
X150296667Y-104340914D01*
X150296667Y-104340914D02*
X150344286Y-104245676D01*
X150344286Y-104245676D02*
X150439524Y-104150438D01*
X150439524Y-104150438D02*
X150582381Y-104102819D01*
X150582381Y-104102819D02*
X150677619Y-104102819D01*
X150677619Y-104102819D02*
X150820476Y-104150438D01*
X150820476Y-104150438D02*
X150868095Y-104198057D01*
X151868095Y-105007580D02*
X151820476Y-105055200D01*
X151820476Y-105055200D02*
X151677619Y-105102819D01*
X151677619Y-105102819D02*
X151582381Y-105102819D01*
X151582381Y-105102819D02*
X151439524Y-105055200D01*
X151439524Y-105055200D02*
X151344286Y-104959961D01*
X151344286Y-104959961D02*
X151296667Y-104864723D01*
X151296667Y-104864723D02*
X151249048Y-104674247D01*
X151249048Y-104674247D02*
X151249048Y-104531390D01*
X151249048Y-104531390D02*
X151296667Y-104340914D01*
X151296667Y-104340914D02*
X151344286Y-104245676D01*
X151344286Y-104245676D02*
X151439524Y-104150438D01*
X151439524Y-104150438D02*
X151582381Y-104102819D01*
X151582381Y-104102819D02*
X151677619Y-104102819D01*
X151677619Y-104102819D02*
X151820476Y-104150438D01*
X151820476Y-104150438D02*
X151868095Y-104198057D01*
X152630000Y-104579009D02*
X152772857Y-104626628D01*
X152772857Y-104626628D02*
X152820476Y-104674247D01*
X152820476Y-104674247D02*
X152868095Y-104769485D01*
X152868095Y-104769485D02*
X152868095Y-104912342D01*
X152868095Y-104912342D02*
X152820476Y-105007580D01*
X152820476Y-105007580D02*
X152772857Y-105055200D01*
X152772857Y-105055200D02*
X152677619Y-105102819D01*
X152677619Y-105102819D02*
X152296667Y-105102819D01*
X152296667Y-105102819D02*
X152296667Y-104102819D01*
X152296667Y-104102819D02*
X152630000Y-104102819D01*
X152630000Y-104102819D02*
X152725238Y-104150438D01*
X152725238Y-104150438D02*
X152772857Y-104198057D01*
X152772857Y-104198057D02*
X152820476Y-104293295D01*
X152820476Y-104293295D02*
X152820476Y-104388533D01*
X152820476Y-104388533D02*
X152772857Y-104483771D01*
X152772857Y-104483771D02*
X152725238Y-104531390D01*
X152725238Y-104531390D02*
X152630000Y-104579009D01*
X152630000Y-104579009D02*
X152296667Y-104579009D01*
X109926667Y-104356819D02*
X110260000Y-105356819D01*
X110260000Y-105356819D02*
X110593333Y-104356819D01*
X111498095Y-105261580D02*
X111450476Y-105309200D01*
X111450476Y-105309200D02*
X111307619Y-105356819D01*
X111307619Y-105356819D02*
X111212381Y-105356819D01*
X111212381Y-105356819D02*
X111069524Y-105309200D01*
X111069524Y-105309200D02*
X110974286Y-105213961D01*
X110974286Y-105213961D02*
X110926667Y-105118723D01*
X110926667Y-105118723D02*
X110879048Y-104928247D01*
X110879048Y-104928247D02*
X110879048Y-104785390D01*
X110879048Y-104785390D02*
X110926667Y-104594914D01*
X110926667Y-104594914D02*
X110974286Y-104499676D01*
X110974286Y-104499676D02*
X111069524Y-104404438D01*
X111069524Y-104404438D02*
X111212381Y-104356819D01*
X111212381Y-104356819D02*
X111307619Y-104356819D01*
X111307619Y-104356819D02*
X111450476Y-104404438D01*
X111450476Y-104404438D02*
X111498095Y-104452057D01*
X112498095Y-105261580D02*
X112450476Y-105309200D01*
X112450476Y-105309200D02*
X112307619Y-105356819D01*
X112307619Y-105356819D02*
X112212381Y-105356819D01*
X112212381Y-105356819D02*
X112069524Y-105309200D01*
X112069524Y-105309200D02*
X111974286Y-105213961D01*
X111974286Y-105213961D02*
X111926667Y-105118723D01*
X111926667Y-105118723D02*
X111879048Y-104928247D01*
X111879048Y-104928247D02*
X111879048Y-104785390D01*
X111879048Y-104785390D02*
X111926667Y-104594914D01*
X111926667Y-104594914D02*
X111974286Y-104499676D01*
X111974286Y-104499676D02*
X112069524Y-104404438D01*
X112069524Y-104404438D02*
X112212381Y-104356819D01*
X112212381Y-104356819D02*
X112307619Y-104356819D01*
X112307619Y-104356819D02*
X112450476Y-104404438D01*
X112450476Y-104404438D02*
X112498095Y-104452057D01*
X113260000Y-104833009D02*
X113402857Y-104880628D01*
X113402857Y-104880628D02*
X113450476Y-104928247D01*
X113450476Y-104928247D02*
X113498095Y-105023485D01*
X113498095Y-105023485D02*
X113498095Y-105166342D01*
X113498095Y-105166342D02*
X113450476Y-105261580D01*
X113450476Y-105261580D02*
X113402857Y-105309200D01*
X113402857Y-105309200D02*
X113307619Y-105356819D01*
X113307619Y-105356819D02*
X112926667Y-105356819D01*
X112926667Y-105356819D02*
X112926667Y-104356819D01*
X112926667Y-104356819D02*
X113260000Y-104356819D01*
X113260000Y-104356819D02*
X113355238Y-104404438D01*
X113355238Y-104404438D02*
X113402857Y-104452057D01*
X113402857Y-104452057D02*
X113450476Y-104547295D01*
X113450476Y-104547295D02*
X113450476Y-104642533D01*
X113450476Y-104642533D02*
X113402857Y-104737771D01*
X113402857Y-104737771D02*
X113355238Y-104785390D01*
X113355238Y-104785390D02*
X113260000Y-104833009D01*
X113260000Y-104833009D02*
X112926667Y-104833009D01*
X150058667Y-61938819D02*
X150392000Y-62938819D01*
X150392000Y-62938819D02*
X150725333Y-61938819D01*
X151630095Y-62843580D02*
X151582476Y-62891200D01*
X151582476Y-62891200D02*
X151439619Y-62938819D01*
X151439619Y-62938819D02*
X151344381Y-62938819D01*
X151344381Y-62938819D02*
X151201524Y-62891200D01*
X151201524Y-62891200D02*
X151106286Y-62795961D01*
X151106286Y-62795961D02*
X151058667Y-62700723D01*
X151058667Y-62700723D02*
X151011048Y-62510247D01*
X151011048Y-62510247D02*
X151011048Y-62367390D01*
X151011048Y-62367390D02*
X151058667Y-62176914D01*
X151058667Y-62176914D02*
X151106286Y-62081676D01*
X151106286Y-62081676D02*
X151201524Y-61986438D01*
X151201524Y-61986438D02*
X151344381Y-61938819D01*
X151344381Y-61938819D02*
X151439619Y-61938819D01*
X151439619Y-61938819D02*
X151582476Y-61986438D01*
X151582476Y-61986438D02*
X151630095Y-62034057D01*
X152630095Y-62843580D02*
X152582476Y-62891200D01*
X152582476Y-62891200D02*
X152439619Y-62938819D01*
X152439619Y-62938819D02*
X152344381Y-62938819D01*
X152344381Y-62938819D02*
X152201524Y-62891200D01*
X152201524Y-62891200D02*
X152106286Y-62795961D01*
X152106286Y-62795961D02*
X152058667Y-62700723D01*
X152058667Y-62700723D02*
X152011048Y-62510247D01*
X152011048Y-62510247D02*
X152011048Y-62367390D01*
X152011048Y-62367390D02*
X152058667Y-62176914D01*
X152058667Y-62176914D02*
X152106286Y-62081676D01*
X152106286Y-62081676D02*
X152201524Y-61986438D01*
X152201524Y-61986438D02*
X152344381Y-61938819D01*
X152344381Y-61938819D02*
X152439619Y-61938819D01*
X152439619Y-61938819D02*
X152582476Y-61986438D01*
X152582476Y-61986438D02*
X152630095Y-62034057D01*
X153392000Y-62415009D02*
X153534857Y-62462628D01*
X153534857Y-62462628D02*
X153582476Y-62510247D01*
X153582476Y-62510247D02*
X153630095Y-62605485D01*
X153630095Y-62605485D02*
X153630095Y-62748342D01*
X153630095Y-62748342D02*
X153582476Y-62843580D01*
X153582476Y-62843580D02*
X153534857Y-62891200D01*
X153534857Y-62891200D02*
X153439619Y-62938819D01*
X153439619Y-62938819D02*
X153058667Y-62938819D01*
X153058667Y-62938819D02*
X153058667Y-61938819D01*
X153058667Y-61938819D02*
X153392000Y-61938819D01*
X153392000Y-61938819D02*
X153487238Y-61986438D01*
X153487238Y-61986438D02*
X153534857Y-62034057D01*
X153534857Y-62034057D02*
X153582476Y-62129295D01*
X153582476Y-62129295D02*
X153582476Y-62224533D01*
X153582476Y-62224533D02*
X153534857Y-62319771D01*
X153534857Y-62319771D02*
X153487238Y-62367390D01*
X153487238Y-62367390D02*
X153392000Y-62415009D01*
X153392000Y-62415009D02*
X153058667Y-62415009D01*
X155733905Y-107572875D02*
X156352952Y-107572875D01*
X156352952Y-107572875D02*
X156019619Y-107953827D01*
X156019619Y-107953827D02*
X156162476Y-107953827D01*
X156162476Y-107953827D02*
X156257714Y-108001446D01*
X156257714Y-108001446D02*
X156305333Y-108049065D01*
X156305333Y-108049065D02*
X156352952Y-108144303D01*
X156352952Y-108144303D02*
X156352952Y-108382398D01*
X156352952Y-108382398D02*
X156305333Y-108477636D01*
X156305333Y-108477636D02*
X156257714Y-108525256D01*
X156257714Y-108525256D02*
X156162476Y-108572875D01*
X156162476Y-108572875D02*
X155876762Y-108572875D01*
X155876762Y-108572875D02*
X155781524Y-108525256D01*
X155781524Y-108525256D02*
X155733905Y-108477636D01*
X156638667Y-107572875D02*
X156972000Y-108572875D01*
X156972000Y-108572875D02*
X157305333Y-107572875D01*
X157543429Y-107572875D02*
X158162476Y-107572875D01*
X158162476Y-107572875D02*
X157829143Y-107953827D01*
X157829143Y-107953827D02*
X157972000Y-107953827D01*
X157972000Y-107953827D02*
X158067238Y-108001446D01*
X158067238Y-108001446D02*
X158114857Y-108049065D01*
X158114857Y-108049065D02*
X158162476Y-108144303D01*
X158162476Y-108144303D02*
X158162476Y-108382398D01*
X158162476Y-108382398D02*
X158114857Y-108477636D01*
X158114857Y-108477636D02*
X158067238Y-108525256D01*
X158067238Y-108525256D02*
X157972000Y-108572875D01*
X157972000Y-108572875D02*
X157686286Y-108572875D01*
X157686286Y-108572875D02*
X157591048Y-108525256D01*
X157591048Y-108525256D02*
X157543429Y-108477636D01*
X156781523Y-110792763D02*
X156305333Y-110792763D01*
X156305333Y-110792763D02*
X156257714Y-111268953D01*
X156257714Y-111268953D02*
X156305333Y-111221334D01*
X156305333Y-111221334D02*
X156400571Y-111173715D01*
X156400571Y-111173715D02*
X156638666Y-111173715D01*
X156638666Y-111173715D02*
X156733904Y-111221334D01*
X156733904Y-111221334D02*
X156781523Y-111268953D01*
X156781523Y-111268953D02*
X156829142Y-111364191D01*
X156829142Y-111364191D02*
X156829142Y-111602286D01*
X156829142Y-111602286D02*
X156781523Y-111697524D01*
X156781523Y-111697524D02*
X156733904Y-111745144D01*
X156733904Y-111745144D02*
X156638666Y-111792763D01*
X156638666Y-111792763D02*
X156400571Y-111792763D01*
X156400571Y-111792763D02*
X156305333Y-111745144D01*
X156305333Y-111745144D02*
X156257714Y-111697524D01*
X157114857Y-110792763D02*
X157448190Y-111792763D01*
X157448190Y-111792763D02*
X157781523Y-110792763D01*
X106743523Y-107064875D02*
X106267333Y-107064875D01*
X106267333Y-107064875D02*
X106219714Y-107541065D01*
X106219714Y-107541065D02*
X106267333Y-107493446D01*
X106267333Y-107493446D02*
X106362571Y-107445827D01*
X106362571Y-107445827D02*
X106600666Y-107445827D01*
X106600666Y-107445827D02*
X106695904Y-107493446D01*
X106695904Y-107493446D02*
X106743523Y-107541065D01*
X106743523Y-107541065D02*
X106791142Y-107636303D01*
X106791142Y-107636303D02*
X106791142Y-107874398D01*
X106791142Y-107874398D02*
X106743523Y-107969636D01*
X106743523Y-107969636D02*
X106695904Y-108017256D01*
X106695904Y-108017256D02*
X106600666Y-108064875D01*
X106600666Y-108064875D02*
X106362571Y-108064875D01*
X106362571Y-108064875D02*
X106267333Y-108017256D01*
X106267333Y-108017256D02*
X106219714Y-107969636D01*
X107076857Y-107064875D02*
X107410190Y-108064875D01*
X107410190Y-108064875D02*
X107743523Y-107064875D01*
X105695905Y-110284763D02*
X106314952Y-110284763D01*
X106314952Y-110284763D02*
X105981619Y-110665715D01*
X105981619Y-110665715D02*
X106124476Y-110665715D01*
X106124476Y-110665715D02*
X106219714Y-110713334D01*
X106219714Y-110713334D02*
X106267333Y-110760953D01*
X106267333Y-110760953D02*
X106314952Y-110856191D01*
X106314952Y-110856191D02*
X106314952Y-111094286D01*
X106314952Y-111094286D02*
X106267333Y-111189524D01*
X106267333Y-111189524D02*
X106219714Y-111237144D01*
X106219714Y-111237144D02*
X106124476Y-111284763D01*
X106124476Y-111284763D02*
X105838762Y-111284763D01*
X105838762Y-111284763D02*
X105743524Y-111237144D01*
X105743524Y-111237144D02*
X105695905Y-111189524D01*
X106600667Y-110284763D02*
X106934000Y-111284763D01*
X106934000Y-111284763D02*
X107267333Y-110284763D01*
X107505429Y-110284763D02*
X108124476Y-110284763D01*
X108124476Y-110284763D02*
X107791143Y-110665715D01*
X107791143Y-110665715D02*
X107934000Y-110665715D01*
X107934000Y-110665715D02*
X108029238Y-110713334D01*
X108029238Y-110713334D02*
X108076857Y-110760953D01*
X108076857Y-110760953D02*
X108124476Y-110856191D01*
X108124476Y-110856191D02*
X108124476Y-111094286D01*
X108124476Y-111094286D02*
X108076857Y-111189524D01*
X108076857Y-111189524D02*
X108029238Y-111237144D01*
X108029238Y-111237144D02*
X107934000Y-111284763D01*
X107934000Y-111284763D02*
X107648286Y-111284763D01*
X107648286Y-111284763D02*
X107553048Y-111237144D01*
X107553048Y-111237144D02*
X107505429Y-111189524D01*
D10*
X120326188Y-113249419D02*
X120659521Y-114249419D01*
X120659521Y-114249419D02*
X120992854Y-113249419D01*
X121469045Y-114249419D02*
X121373807Y-114201800D01*
X121373807Y-114201800D02*
X121326188Y-114154180D01*
X121326188Y-114154180D02*
X121278569Y-114058942D01*
X121278569Y-114058942D02*
X121278569Y-113773228D01*
X121278569Y-113773228D02*
X121326188Y-113677990D01*
X121326188Y-113677990D02*
X121373807Y-113630371D01*
X121373807Y-113630371D02*
X121469045Y-113582752D01*
X121469045Y-113582752D02*
X121611902Y-113582752D01*
X121611902Y-113582752D02*
X121707140Y-113630371D01*
X121707140Y-113630371D02*
X121754759Y-113677990D01*
X121754759Y-113677990D02*
X121802378Y-113773228D01*
X121802378Y-113773228D02*
X121802378Y-114058942D01*
X121802378Y-114058942D02*
X121754759Y-114154180D01*
X121754759Y-114154180D02*
X121707140Y-114201800D01*
X121707140Y-114201800D02*
X121611902Y-114249419D01*
X121611902Y-114249419D02*
X121469045Y-114249419D01*
X122373807Y-114249419D02*
X122278569Y-114201800D01*
X122278569Y-114201800D02*
X122230950Y-114106561D01*
X122230950Y-114106561D02*
X122230950Y-113249419D01*
X122611903Y-113582752D02*
X122992855Y-113582752D01*
X122754760Y-113249419D02*
X122754760Y-114106561D01*
X122754760Y-114106561D02*
X122802379Y-114201800D01*
X122802379Y-114201800D02*
X122897617Y-114249419D01*
X122897617Y-114249419D02*
X122992855Y-114249419D01*
X123754760Y-114249419D02*
X123754760Y-113725609D01*
X123754760Y-113725609D02*
X123707141Y-113630371D01*
X123707141Y-113630371D02*
X123611903Y-113582752D01*
X123611903Y-113582752D02*
X123421427Y-113582752D01*
X123421427Y-113582752D02*
X123326189Y-113630371D01*
X123754760Y-114201800D02*
X123659522Y-114249419D01*
X123659522Y-114249419D02*
X123421427Y-114249419D01*
X123421427Y-114249419D02*
X123326189Y-114201800D01*
X123326189Y-114201800D02*
X123278570Y-114106561D01*
X123278570Y-114106561D02*
X123278570Y-114011323D01*
X123278570Y-114011323D02*
X123326189Y-113916085D01*
X123326189Y-113916085D02*
X123421427Y-113868466D01*
X123421427Y-113868466D02*
X123659522Y-113868466D01*
X123659522Y-113868466D02*
X123754760Y-113820847D01*
X124659522Y-113582752D02*
X124659522Y-114392276D01*
X124659522Y-114392276D02*
X124611903Y-114487514D01*
X124611903Y-114487514D02*
X124564284Y-114535133D01*
X124564284Y-114535133D02*
X124469046Y-114582752D01*
X124469046Y-114582752D02*
X124326189Y-114582752D01*
X124326189Y-114582752D02*
X124230951Y-114535133D01*
X124659522Y-114201800D02*
X124564284Y-114249419D01*
X124564284Y-114249419D02*
X124373808Y-114249419D01*
X124373808Y-114249419D02*
X124278570Y-114201800D01*
X124278570Y-114201800D02*
X124230951Y-114154180D01*
X124230951Y-114154180D02*
X124183332Y-114058942D01*
X124183332Y-114058942D02*
X124183332Y-113773228D01*
X124183332Y-113773228D02*
X124230951Y-113677990D01*
X124230951Y-113677990D02*
X124278570Y-113630371D01*
X124278570Y-113630371D02*
X124373808Y-113582752D01*
X124373808Y-113582752D02*
X124564284Y-113582752D01*
X124564284Y-113582752D02*
X124659522Y-113630371D01*
X125516665Y-114201800D02*
X125421427Y-114249419D01*
X125421427Y-114249419D02*
X125230951Y-114249419D01*
X125230951Y-114249419D02*
X125135713Y-114201800D01*
X125135713Y-114201800D02*
X125088094Y-114106561D01*
X125088094Y-114106561D02*
X125088094Y-113725609D01*
X125088094Y-113725609D02*
X125135713Y-113630371D01*
X125135713Y-113630371D02*
X125230951Y-113582752D01*
X125230951Y-113582752D02*
X125421427Y-113582752D01*
X125421427Y-113582752D02*
X125516665Y-113630371D01*
X125516665Y-113630371D02*
X125564284Y-113725609D01*
X125564284Y-113725609D02*
X125564284Y-113820847D01*
X125564284Y-113820847D02*
X125088094Y-113916085D01*
X127230951Y-114249419D02*
X126754761Y-114249419D01*
X126754761Y-114249419D02*
X126754761Y-113249419D01*
X127945237Y-114201800D02*
X127849999Y-114249419D01*
X127849999Y-114249419D02*
X127659523Y-114249419D01*
X127659523Y-114249419D02*
X127564285Y-114201800D01*
X127564285Y-114201800D02*
X127516666Y-114106561D01*
X127516666Y-114106561D02*
X127516666Y-113725609D01*
X127516666Y-113725609D02*
X127564285Y-113630371D01*
X127564285Y-113630371D02*
X127659523Y-113582752D01*
X127659523Y-113582752D02*
X127849999Y-113582752D01*
X127849999Y-113582752D02*
X127945237Y-113630371D01*
X127945237Y-113630371D02*
X127992856Y-113725609D01*
X127992856Y-113725609D02*
X127992856Y-113820847D01*
X127992856Y-113820847D02*
X127516666Y-113916085D01*
X128326190Y-113582752D02*
X128564285Y-114249419D01*
X128564285Y-114249419D02*
X128802380Y-113582752D01*
X129564285Y-114201800D02*
X129469047Y-114249419D01*
X129469047Y-114249419D02*
X129278571Y-114249419D01*
X129278571Y-114249419D02*
X129183333Y-114201800D01*
X129183333Y-114201800D02*
X129135714Y-114106561D01*
X129135714Y-114106561D02*
X129135714Y-113725609D01*
X129135714Y-113725609D02*
X129183333Y-113630371D01*
X129183333Y-113630371D02*
X129278571Y-113582752D01*
X129278571Y-113582752D02*
X129469047Y-113582752D01*
X129469047Y-113582752D02*
X129564285Y-113630371D01*
X129564285Y-113630371D02*
X129611904Y-113725609D01*
X129611904Y-113725609D02*
X129611904Y-113820847D01*
X129611904Y-113820847D02*
X129135714Y-113916085D01*
X130183333Y-114249419D02*
X130088095Y-114201800D01*
X130088095Y-114201800D02*
X130040476Y-114106561D01*
X130040476Y-114106561D02*
X130040476Y-113249419D01*
X131278572Y-114201800D02*
X131421429Y-114249419D01*
X131421429Y-114249419D02*
X131659524Y-114249419D01*
X131659524Y-114249419D02*
X131754762Y-114201800D01*
X131754762Y-114201800D02*
X131802381Y-114154180D01*
X131802381Y-114154180D02*
X131850000Y-114058942D01*
X131850000Y-114058942D02*
X131850000Y-113963704D01*
X131850000Y-113963704D02*
X131802381Y-113868466D01*
X131802381Y-113868466D02*
X131754762Y-113820847D01*
X131754762Y-113820847D02*
X131659524Y-113773228D01*
X131659524Y-113773228D02*
X131469048Y-113725609D01*
X131469048Y-113725609D02*
X131373810Y-113677990D01*
X131373810Y-113677990D02*
X131326191Y-113630371D01*
X131326191Y-113630371D02*
X131278572Y-113535133D01*
X131278572Y-113535133D02*
X131278572Y-113439895D01*
X131278572Y-113439895D02*
X131326191Y-113344657D01*
X131326191Y-113344657D02*
X131373810Y-113297038D01*
X131373810Y-113297038D02*
X131469048Y-113249419D01*
X131469048Y-113249419D02*
X131707143Y-113249419D01*
X131707143Y-113249419D02*
X131850000Y-113297038D01*
X132278572Y-114249419D02*
X132278572Y-113249419D01*
X132707143Y-114249419D02*
X132707143Y-113725609D01*
X132707143Y-113725609D02*
X132659524Y-113630371D01*
X132659524Y-113630371D02*
X132564286Y-113582752D01*
X132564286Y-113582752D02*
X132421429Y-113582752D01*
X132421429Y-113582752D02*
X132326191Y-113630371D01*
X132326191Y-113630371D02*
X132278572Y-113677990D01*
X133183334Y-114249419D02*
X133183334Y-113582752D01*
X133183334Y-113249419D02*
X133135715Y-113297038D01*
X133135715Y-113297038D02*
X133183334Y-113344657D01*
X133183334Y-113344657D02*
X133230953Y-113297038D01*
X133230953Y-113297038D02*
X133183334Y-113249419D01*
X133183334Y-113249419D02*
X133183334Y-113344657D01*
X133516667Y-113582752D02*
X133897619Y-113582752D01*
X133659524Y-114249419D02*
X133659524Y-113392276D01*
X133659524Y-113392276D02*
X133707143Y-113297038D01*
X133707143Y-113297038D02*
X133802381Y-113249419D01*
X133802381Y-113249419D02*
X133897619Y-113249419D01*
X134088096Y-113582752D02*
X134469048Y-113582752D01*
X134230953Y-113249419D02*
X134230953Y-114106561D01*
X134230953Y-114106561D02*
X134278572Y-114201800D01*
X134278572Y-114201800D02*
X134373810Y-114249419D01*
X134373810Y-114249419D02*
X134469048Y-114249419D01*
X135183334Y-114201800D02*
X135088096Y-114249419D01*
X135088096Y-114249419D02*
X134897620Y-114249419D01*
X134897620Y-114249419D02*
X134802382Y-114201800D01*
X134802382Y-114201800D02*
X134754763Y-114106561D01*
X134754763Y-114106561D02*
X134754763Y-113725609D01*
X134754763Y-113725609D02*
X134802382Y-113630371D01*
X134802382Y-113630371D02*
X134897620Y-113582752D01*
X134897620Y-113582752D02*
X135088096Y-113582752D01*
X135088096Y-113582752D02*
X135183334Y-113630371D01*
X135183334Y-113630371D02*
X135230953Y-113725609D01*
X135230953Y-113725609D02*
X135230953Y-113820847D01*
X135230953Y-113820847D02*
X134754763Y-113916085D01*
X135659525Y-114249419D02*
X135659525Y-113582752D01*
X135659525Y-113773228D02*
X135707144Y-113677990D01*
X135707144Y-113677990D02*
X135754763Y-113630371D01*
X135754763Y-113630371D02*
X135850001Y-113582752D01*
X135850001Y-113582752D02*
X135945239Y-113582752D01*
X137326192Y-114630371D02*
X137278573Y-114582752D01*
X137278573Y-114582752D02*
X137183335Y-114439895D01*
X137183335Y-114439895D02*
X137135716Y-114344657D01*
X137135716Y-114344657D02*
X137088097Y-114201800D01*
X137088097Y-114201800D02*
X137040478Y-113963704D01*
X137040478Y-113963704D02*
X137040478Y-113773228D01*
X137040478Y-113773228D02*
X137088097Y-113535133D01*
X137088097Y-113535133D02*
X137135716Y-113392276D01*
X137135716Y-113392276D02*
X137183335Y-113297038D01*
X137183335Y-113297038D02*
X137278573Y-113154180D01*
X137278573Y-113154180D02*
X137326192Y-113106561D01*
X137611907Y-113249419D02*
X138230954Y-113249419D01*
X138230954Y-113249419D02*
X137897621Y-113630371D01*
X137897621Y-113630371D02*
X138040478Y-113630371D01*
X138040478Y-113630371D02*
X138135716Y-113677990D01*
X138135716Y-113677990D02*
X138183335Y-113725609D01*
X138183335Y-113725609D02*
X138230954Y-113820847D01*
X138230954Y-113820847D02*
X138230954Y-114058942D01*
X138230954Y-114058942D02*
X138183335Y-114154180D01*
X138183335Y-114154180D02*
X138135716Y-114201800D01*
X138135716Y-114201800D02*
X138040478Y-114249419D01*
X138040478Y-114249419D02*
X137754764Y-114249419D01*
X137754764Y-114249419D02*
X137659526Y-114201800D01*
X137659526Y-114201800D02*
X137611907Y-114154180D01*
X138564288Y-113582752D02*
X138802383Y-114249419D01*
X138802383Y-114249419D02*
X139040478Y-113582752D01*
X139326193Y-113249419D02*
X139945240Y-113249419D01*
X139945240Y-113249419D02*
X139611907Y-113630371D01*
X139611907Y-113630371D02*
X139754764Y-113630371D01*
X139754764Y-113630371D02*
X139850002Y-113677990D01*
X139850002Y-113677990D02*
X139897621Y-113725609D01*
X139897621Y-113725609D02*
X139945240Y-113820847D01*
X139945240Y-113820847D02*
X139945240Y-114058942D01*
X139945240Y-114058942D02*
X139897621Y-114154180D01*
X139897621Y-114154180D02*
X139850002Y-114201800D01*
X139850002Y-114201800D02*
X139754764Y-114249419D01*
X139754764Y-114249419D02*
X139469050Y-114249419D01*
X139469050Y-114249419D02*
X139373812Y-114201800D01*
X139373812Y-114201800D02*
X139326193Y-114154180D01*
X140373812Y-113868466D02*
X141135717Y-113868466D01*
X141469050Y-113582752D02*
X141850002Y-113582752D01*
X141611907Y-113249419D02*
X141611907Y-114106561D01*
X141611907Y-114106561D02*
X141659526Y-114201800D01*
X141659526Y-114201800D02*
X141754764Y-114249419D01*
X141754764Y-114249419D02*
X141850002Y-114249419D01*
X142326193Y-114249419D02*
X142230955Y-114201800D01*
X142230955Y-114201800D02*
X142183336Y-114154180D01*
X142183336Y-114154180D02*
X142135717Y-114058942D01*
X142135717Y-114058942D02*
X142135717Y-113773228D01*
X142135717Y-113773228D02*
X142183336Y-113677990D01*
X142183336Y-113677990D02*
X142230955Y-113630371D01*
X142230955Y-113630371D02*
X142326193Y-113582752D01*
X142326193Y-113582752D02*
X142469050Y-113582752D01*
X142469050Y-113582752D02*
X142564288Y-113630371D01*
X142564288Y-113630371D02*
X142611907Y-113677990D01*
X142611907Y-113677990D02*
X142659526Y-113773228D01*
X142659526Y-113773228D02*
X142659526Y-114058942D01*
X142659526Y-114058942D02*
X142611907Y-114154180D01*
X142611907Y-114154180D02*
X142564288Y-114201800D01*
X142564288Y-114201800D02*
X142469050Y-114249419D01*
X142469050Y-114249419D02*
X142326193Y-114249419D01*
X143088098Y-113868466D02*
X143850003Y-113868466D01*
X144802383Y-113249419D02*
X144326193Y-113249419D01*
X144326193Y-113249419D02*
X144278574Y-113725609D01*
X144278574Y-113725609D02*
X144326193Y-113677990D01*
X144326193Y-113677990D02*
X144421431Y-113630371D01*
X144421431Y-113630371D02*
X144659526Y-113630371D01*
X144659526Y-113630371D02*
X144754764Y-113677990D01*
X144754764Y-113677990D02*
X144802383Y-113725609D01*
X144802383Y-113725609D02*
X144850002Y-113820847D01*
X144850002Y-113820847D02*
X144850002Y-114058942D01*
X144850002Y-114058942D02*
X144802383Y-114154180D01*
X144802383Y-114154180D02*
X144754764Y-114201800D01*
X144754764Y-114201800D02*
X144659526Y-114249419D01*
X144659526Y-114249419D02*
X144421431Y-114249419D01*
X144421431Y-114249419D02*
X144326193Y-114201800D01*
X144326193Y-114201800D02*
X144278574Y-114154180D01*
X145183336Y-113582752D02*
X145421431Y-114249419D01*
X145421431Y-114249419D02*
X145659526Y-113582752D01*
X145945241Y-114630371D02*
X145992860Y-114582752D01*
X145992860Y-114582752D02*
X146088098Y-114439895D01*
X146088098Y-114439895D02*
X146135717Y-114344657D01*
X146135717Y-114344657D02*
X146183336Y-114201800D01*
X146183336Y-114201800D02*
X146230955Y-113963704D01*
X146230955Y-113963704D02*
X146230955Y-113773228D01*
X146230955Y-113773228D02*
X146183336Y-113535133D01*
X146183336Y-113535133D02*
X146135717Y-113392276D01*
X146135717Y-113392276D02*
X146088098Y-113297038D01*
X146088098Y-113297038D02*
X145992860Y-113154180D01*
X145992860Y-113154180D02*
X145945241Y-113106561D01*
D12*
X156114857Y-56010875D02*
X156733904Y-56010875D01*
X156733904Y-56010875D02*
X156400571Y-56391827D01*
X156400571Y-56391827D02*
X156543428Y-56391827D01*
X156543428Y-56391827D02*
X156638666Y-56439446D01*
X156638666Y-56439446D02*
X156686285Y-56487065D01*
X156686285Y-56487065D02*
X156733904Y-56582303D01*
X156733904Y-56582303D02*
X156733904Y-56820398D01*
X156733904Y-56820398D02*
X156686285Y-56915636D01*
X156686285Y-56915636D02*
X156638666Y-56963256D01*
X156638666Y-56963256D02*
X156543428Y-57010875D01*
X156543428Y-57010875D02*
X156257714Y-57010875D01*
X156257714Y-57010875D02*
X156162476Y-56963256D01*
X156162476Y-56963256D02*
X156114857Y-56915636D01*
X157019619Y-56010875D02*
X157352952Y-57010875D01*
X157352952Y-57010875D02*
X157686285Y-56010875D01*
X157924381Y-56010875D02*
X158543428Y-56010875D01*
X158543428Y-56010875D02*
X158210095Y-56391827D01*
X158210095Y-56391827D02*
X158352952Y-56391827D01*
X158352952Y-56391827D02*
X158448190Y-56439446D01*
X158448190Y-56439446D02*
X158495809Y-56487065D01*
X158495809Y-56487065D02*
X158543428Y-56582303D01*
X158543428Y-56582303D02*
X158543428Y-56820398D01*
X158543428Y-56820398D02*
X158495809Y-56915636D01*
X158495809Y-56915636D02*
X158448190Y-56963256D01*
X158448190Y-56963256D02*
X158352952Y-57010875D01*
X158352952Y-57010875D02*
X158067238Y-57010875D01*
X158067238Y-57010875D02*
X157972000Y-56963256D01*
X157972000Y-56963256D02*
X157924381Y-56915636D01*
X156781523Y-59230763D02*
X156305333Y-59230763D01*
X156305333Y-59230763D02*
X156257714Y-59706953D01*
X156257714Y-59706953D02*
X156305333Y-59659334D01*
X156305333Y-59659334D02*
X156400571Y-59611715D01*
X156400571Y-59611715D02*
X156638666Y-59611715D01*
X156638666Y-59611715D02*
X156733904Y-59659334D01*
X156733904Y-59659334D02*
X156781523Y-59706953D01*
X156781523Y-59706953D02*
X156829142Y-59802191D01*
X156829142Y-59802191D02*
X156829142Y-60040286D01*
X156829142Y-60040286D02*
X156781523Y-60135524D01*
X156781523Y-60135524D02*
X156733904Y-60183144D01*
X156733904Y-60183144D02*
X156638666Y-60230763D01*
X156638666Y-60230763D02*
X156400571Y-60230763D01*
X156400571Y-60230763D02*
X156305333Y-60183144D01*
X156305333Y-60183144D02*
X156257714Y-60135524D01*
X157114857Y-59230763D02*
X157448190Y-60230763D01*
X157448190Y-60230763D02*
X157781523Y-59230763D01*
X108910667Y-62446819D02*
X109244000Y-63446819D01*
X109244000Y-63446819D02*
X109577333Y-62446819D01*
X110482095Y-63351580D02*
X110434476Y-63399200D01*
X110434476Y-63399200D02*
X110291619Y-63446819D01*
X110291619Y-63446819D02*
X110196381Y-63446819D01*
X110196381Y-63446819D02*
X110053524Y-63399200D01*
X110053524Y-63399200D02*
X109958286Y-63303961D01*
X109958286Y-63303961D02*
X109910667Y-63208723D01*
X109910667Y-63208723D02*
X109863048Y-63018247D01*
X109863048Y-63018247D02*
X109863048Y-62875390D01*
X109863048Y-62875390D02*
X109910667Y-62684914D01*
X109910667Y-62684914D02*
X109958286Y-62589676D01*
X109958286Y-62589676D02*
X110053524Y-62494438D01*
X110053524Y-62494438D02*
X110196381Y-62446819D01*
X110196381Y-62446819D02*
X110291619Y-62446819D01*
X110291619Y-62446819D02*
X110434476Y-62494438D01*
X110434476Y-62494438D02*
X110482095Y-62542057D01*
X111482095Y-63351580D02*
X111434476Y-63399200D01*
X111434476Y-63399200D02*
X111291619Y-63446819D01*
X111291619Y-63446819D02*
X111196381Y-63446819D01*
X111196381Y-63446819D02*
X111053524Y-63399200D01*
X111053524Y-63399200D02*
X110958286Y-63303961D01*
X110958286Y-63303961D02*
X110910667Y-63208723D01*
X110910667Y-63208723D02*
X110863048Y-63018247D01*
X110863048Y-63018247D02*
X110863048Y-62875390D01*
X110863048Y-62875390D02*
X110910667Y-62684914D01*
X110910667Y-62684914D02*
X110958286Y-62589676D01*
X110958286Y-62589676D02*
X111053524Y-62494438D01*
X111053524Y-62494438D02*
X111196381Y-62446819D01*
X111196381Y-62446819D02*
X111291619Y-62446819D01*
X111291619Y-62446819D02*
X111434476Y-62494438D01*
X111434476Y-62494438D02*
X111482095Y-62542057D01*
X112244000Y-62923009D02*
X112386857Y-62970628D01*
X112386857Y-62970628D02*
X112434476Y-63018247D01*
X112434476Y-63018247D02*
X112482095Y-63113485D01*
X112482095Y-63113485D02*
X112482095Y-63256342D01*
X112482095Y-63256342D02*
X112434476Y-63351580D01*
X112434476Y-63351580D02*
X112386857Y-63399200D01*
X112386857Y-63399200D02*
X112291619Y-63446819D01*
X112291619Y-63446819D02*
X111910667Y-63446819D01*
X111910667Y-63446819D02*
X111910667Y-62446819D01*
X111910667Y-62446819D02*
X112244000Y-62446819D01*
X112244000Y-62446819D02*
X112339238Y-62494438D01*
X112339238Y-62494438D02*
X112386857Y-62542057D01*
X112386857Y-62542057D02*
X112434476Y-62637295D01*
X112434476Y-62637295D02*
X112434476Y-62732533D01*
X112434476Y-62732533D02*
X112386857Y-62827771D01*
X112386857Y-62827771D02*
X112339238Y-62875390D01*
X112339238Y-62875390D02*
X112244000Y-62923009D01*
X112244000Y-62923009D02*
X111910667Y-62923009D01*
D10*
X132398666Y-54178371D02*
X132351047Y-54130752D01*
X132351047Y-54130752D02*
X132255809Y-53987895D01*
X132255809Y-53987895D02*
X132208190Y-53892657D01*
X132208190Y-53892657D02*
X132160571Y-53749800D01*
X132160571Y-53749800D02*
X132112952Y-53511704D01*
X132112952Y-53511704D02*
X132112952Y-53321228D01*
X132112952Y-53321228D02*
X132160571Y-53083133D01*
X132160571Y-53083133D02*
X132208190Y-52940276D01*
X132208190Y-52940276D02*
X132255809Y-52845038D01*
X132255809Y-52845038D02*
X132351047Y-52702180D01*
X132351047Y-52702180D02*
X132398666Y-52654561D01*
X133208190Y-53749800D02*
X133112952Y-53797419D01*
X133112952Y-53797419D02*
X132922476Y-53797419D01*
X132922476Y-53797419D02*
X132827238Y-53749800D01*
X132827238Y-53749800D02*
X132779619Y-53702180D01*
X132779619Y-53702180D02*
X132732000Y-53606942D01*
X132732000Y-53606942D02*
X132732000Y-53321228D01*
X132732000Y-53321228D02*
X132779619Y-53225990D01*
X132779619Y-53225990D02*
X132827238Y-53178371D01*
X132827238Y-53178371D02*
X132922476Y-53130752D01*
X132922476Y-53130752D02*
X133112952Y-53130752D01*
X133112952Y-53130752D02*
X133208190Y-53178371D01*
X133541524Y-54178371D02*
X133589143Y-54130752D01*
X133589143Y-54130752D02*
X133684381Y-53987895D01*
X133684381Y-53987895D02*
X133732000Y-53892657D01*
X133732000Y-53892657D02*
X133779619Y-53749800D01*
X133779619Y-53749800D02*
X133827238Y-53511704D01*
X133827238Y-53511704D02*
X133827238Y-53321228D01*
X133827238Y-53321228D02*
X133779619Y-53083133D01*
X133779619Y-53083133D02*
X133732000Y-52940276D01*
X133732000Y-52940276D02*
X133684381Y-52845038D01*
X133684381Y-52845038D02*
X133589143Y-52702180D01*
X133589143Y-52702180D02*
X133541524Y-52654561D01*
X134255810Y-52892657D02*
X134303429Y-52845038D01*
X134303429Y-52845038D02*
X134398667Y-52797419D01*
X134398667Y-52797419D02*
X134636762Y-52797419D01*
X134636762Y-52797419D02*
X134732000Y-52845038D01*
X134732000Y-52845038D02*
X134779619Y-52892657D01*
X134779619Y-52892657D02*
X134827238Y-52987895D01*
X134827238Y-52987895D02*
X134827238Y-53083133D01*
X134827238Y-53083133D02*
X134779619Y-53225990D01*
X134779619Y-53225990D02*
X134208191Y-53797419D01*
X134208191Y-53797419D02*
X134827238Y-53797419D01*
X135446286Y-52797419D02*
X135541524Y-52797419D01*
X135541524Y-52797419D02*
X135636762Y-52845038D01*
X135636762Y-52845038D02*
X135684381Y-52892657D01*
X135684381Y-52892657D02*
X135732000Y-52987895D01*
X135732000Y-52987895D02*
X135779619Y-53178371D01*
X135779619Y-53178371D02*
X135779619Y-53416466D01*
X135779619Y-53416466D02*
X135732000Y-53606942D01*
X135732000Y-53606942D02*
X135684381Y-53702180D01*
X135684381Y-53702180D02*
X135636762Y-53749800D01*
X135636762Y-53749800D02*
X135541524Y-53797419D01*
X135541524Y-53797419D02*
X135446286Y-53797419D01*
X135446286Y-53797419D02*
X135351048Y-53749800D01*
X135351048Y-53749800D02*
X135303429Y-53702180D01*
X135303429Y-53702180D02*
X135255810Y-53606942D01*
X135255810Y-53606942D02*
X135208191Y-53416466D01*
X135208191Y-53416466D02*
X135208191Y-53178371D01*
X135208191Y-53178371D02*
X135255810Y-52987895D01*
X135255810Y-52987895D02*
X135303429Y-52892657D01*
X135303429Y-52892657D02*
X135351048Y-52845038D01*
X135351048Y-52845038D02*
X135446286Y-52797419D01*
X136160572Y-52892657D02*
X136208191Y-52845038D01*
X136208191Y-52845038D02*
X136303429Y-52797419D01*
X136303429Y-52797419D02*
X136541524Y-52797419D01*
X136541524Y-52797419D02*
X136636762Y-52845038D01*
X136636762Y-52845038D02*
X136684381Y-52892657D01*
X136684381Y-52892657D02*
X136732000Y-52987895D01*
X136732000Y-52987895D02*
X136732000Y-53083133D01*
X136732000Y-53083133D02*
X136684381Y-53225990D01*
X136684381Y-53225990D02*
X136112953Y-53797419D01*
X136112953Y-53797419D02*
X136732000Y-53797419D01*
X137636762Y-52797419D02*
X137160572Y-52797419D01*
X137160572Y-52797419D02*
X137112953Y-53273609D01*
X137112953Y-53273609D02*
X137160572Y-53225990D01*
X137160572Y-53225990D02*
X137255810Y-53178371D01*
X137255810Y-53178371D02*
X137493905Y-53178371D01*
X137493905Y-53178371D02*
X137589143Y-53225990D01*
X137589143Y-53225990D02*
X137636762Y-53273609D01*
X137636762Y-53273609D02*
X137684381Y-53368847D01*
X137684381Y-53368847D02*
X137684381Y-53606942D01*
X137684381Y-53606942D02*
X137636762Y-53702180D01*
X137636762Y-53702180D02*
X137589143Y-53749800D01*
X137589143Y-53749800D02*
X137493905Y-53797419D01*
X137493905Y-53797419D02*
X137255810Y-53797419D01*
X137255810Y-53797419D02*
X137160572Y-53749800D01*
X137160572Y-53749800D02*
X137112953Y-53702180D01*
X138160572Y-53749800D02*
X138160572Y-53797419D01*
X138160572Y-53797419D02*
X138112953Y-53892657D01*
X138112953Y-53892657D02*
X138065334Y-53940276D01*
X139874857Y-52845038D02*
X139779619Y-52797419D01*
X139779619Y-52797419D02*
X139636762Y-52797419D01*
X139636762Y-52797419D02*
X139493905Y-52845038D01*
X139493905Y-52845038D02*
X139398667Y-52940276D01*
X139398667Y-52940276D02*
X139351048Y-53035514D01*
X139351048Y-53035514D02*
X139303429Y-53225990D01*
X139303429Y-53225990D02*
X139303429Y-53368847D01*
X139303429Y-53368847D02*
X139351048Y-53559323D01*
X139351048Y-53559323D02*
X139398667Y-53654561D01*
X139398667Y-53654561D02*
X139493905Y-53749800D01*
X139493905Y-53749800D02*
X139636762Y-53797419D01*
X139636762Y-53797419D02*
X139732000Y-53797419D01*
X139732000Y-53797419D02*
X139874857Y-53749800D01*
X139874857Y-53749800D02*
X139922476Y-53702180D01*
X139922476Y-53702180D02*
X139922476Y-53368847D01*
X139922476Y-53368847D02*
X139732000Y-53368847D01*
X140493905Y-53797419D02*
X140398667Y-53749800D01*
X140398667Y-53749800D02*
X140351048Y-53702180D01*
X140351048Y-53702180D02*
X140303429Y-53606942D01*
X140303429Y-53606942D02*
X140303429Y-53321228D01*
X140303429Y-53321228D02*
X140351048Y-53225990D01*
X140351048Y-53225990D02*
X140398667Y-53178371D01*
X140398667Y-53178371D02*
X140493905Y-53130752D01*
X140493905Y-53130752D02*
X140636762Y-53130752D01*
X140636762Y-53130752D02*
X140732000Y-53178371D01*
X140732000Y-53178371D02*
X140779619Y-53225990D01*
X140779619Y-53225990D02*
X140827238Y-53321228D01*
X140827238Y-53321228D02*
X140827238Y-53606942D01*
X140827238Y-53606942D02*
X140779619Y-53702180D01*
X140779619Y-53702180D02*
X140732000Y-53749800D01*
X140732000Y-53749800D02*
X140636762Y-53797419D01*
X140636762Y-53797419D02*
X140493905Y-53797419D01*
X141398667Y-53797419D02*
X141303429Y-53749800D01*
X141303429Y-53749800D02*
X141255810Y-53702180D01*
X141255810Y-53702180D02*
X141208191Y-53606942D01*
X141208191Y-53606942D02*
X141208191Y-53321228D01*
X141208191Y-53321228D02*
X141255810Y-53225990D01*
X141255810Y-53225990D02*
X141303429Y-53178371D01*
X141303429Y-53178371D02*
X141398667Y-53130752D01*
X141398667Y-53130752D02*
X141541524Y-53130752D01*
X141541524Y-53130752D02*
X141636762Y-53178371D01*
X141636762Y-53178371D02*
X141684381Y-53225990D01*
X141684381Y-53225990D02*
X141732000Y-53321228D01*
X141732000Y-53321228D02*
X141732000Y-53606942D01*
X141732000Y-53606942D02*
X141684381Y-53702180D01*
X141684381Y-53702180D02*
X141636762Y-53749800D01*
X141636762Y-53749800D02*
X141541524Y-53797419D01*
X141541524Y-53797419D02*
X141398667Y-53797419D01*
X142589143Y-53797419D02*
X142589143Y-52797419D01*
X142589143Y-53749800D02*
X142493905Y-53797419D01*
X142493905Y-53797419D02*
X142303429Y-53797419D01*
X142303429Y-53797419D02*
X142208191Y-53749800D01*
X142208191Y-53749800D02*
X142160572Y-53702180D01*
X142160572Y-53702180D02*
X142112953Y-53606942D01*
X142112953Y-53606942D02*
X142112953Y-53321228D01*
X142112953Y-53321228D02*
X142160572Y-53225990D01*
X142160572Y-53225990D02*
X142208191Y-53178371D01*
X142208191Y-53178371D02*
X142303429Y-53130752D01*
X142303429Y-53130752D02*
X142493905Y-53130752D01*
X142493905Y-53130752D02*
X142589143Y-53178371D01*
X143065334Y-53797419D02*
X143065334Y-52797419D01*
X143636762Y-53797419D02*
X143208191Y-53225990D01*
X143636762Y-52797419D02*
X143065334Y-53368847D01*
X144208191Y-53797419D02*
X144112953Y-53749800D01*
X144112953Y-53749800D02*
X144065334Y-53702180D01*
X144065334Y-53702180D02*
X144017715Y-53606942D01*
X144017715Y-53606942D02*
X144017715Y-53321228D01*
X144017715Y-53321228D02*
X144065334Y-53225990D01*
X144065334Y-53225990D02*
X144112953Y-53178371D01*
X144112953Y-53178371D02*
X144208191Y-53130752D01*
X144208191Y-53130752D02*
X144351048Y-53130752D01*
X144351048Y-53130752D02*
X144446286Y-53178371D01*
X144446286Y-53178371D02*
X144493905Y-53225990D01*
X144493905Y-53225990D02*
X144541524Y-53321228D01*
X144541524Y-53321228D02*
X144541524Y-53606942D01*
X144541524Y-53606942D02*
X144493905Y-53702180D01*
X144493905Y-53702180D02*
X144446286Y-53749800D01*
X144446286Y-53749800D02*
X144351048Y-53797419D01*
X144351048Y-53797419D02*
X144208191Y-53797419D01*
X145112953Y-53797419D02*
X145017715Y-53749800D01*
X145017715Y-53749800D02*
X144970096Y-53702180D01*
X144970096Y-53702180D02*
X144922477Y-53606942D01*
X144922477Y-53606942D02*
X144922477Y-53321228D01*
X144922477Y-53321228D02*
X144970096Y-53225990D01*
X144970096Y-53225990D02*
X145017715Y-53178371D01*
X145017715Y-53178371D02*
X145112953Y-53130752D01*
X145112953Y-53130752D02*
X145255810Y-53130752D01*
X145255810Y-53130752D02*
X145351048Y-53178371D01*
X145351048Y-53178371D02*
X145398667Y-53225990D01*
X145398667Y-53225990D02*
X145446286Y-53321228D01*
X145446286Y-53321228D02*
X145446286Y-53606942D01*
X145446286Y-53606942D02*
X145398667Y-53702180D01*
X145398667Y-53702180D02*
X145351048Y-53749800D01*
X145351048Y-53749800D02*
X145255810Y-53797419D01*
X145255810Y-53797419D02*
X145112953Y-53797419D01*
X145874858Y-53797419D02*
X145874858Y-52797419D01*
X145970096Y-53416466D02*
X146255810Y-53797419D01*
X146255810Y-53130752D02*
X145874858Y-53511704D01*
X146732001Y-52797419D02*
X146636763Y-52987895D01*
X147112953Y-53749800D02*
X147208191Y-53797419D01*
X147208191Y-53797419D02*
X147398667Y-53797419D01*
X147398667Y-53797419D02*
X147493905Y-53749800D01*
X147493905Y-53749800D02*
X147541524Y-53654561D01*
X147541524Y-53654561D02*
X147541524Y-53606942D01*
X147541524Y-53606942D02*
X147493905Y-53511704D01*
X147493905Y-53511704D02*
X147398667Y-53464085D01*
X147398667Y-53464085D02*
X147255810Y-53464085D01*
X147255810Y-53464085D02*
X147160572Y-53416466D01*
X147160572Y-53416466D02*
X147112953Y-53321228D01*
X147112953Y-53321228D02*
X147112953Y-53273609D01*
X147112953Y-53273609D02*
X147160572Y-53178371D01*
X147160572Y-53178371D02*
X147255810Y-53130752D01*
X147255810Y-53130752D02*
X147398667Y-53130752D01*
X147398667Y-53130752D02*
X147493905Y-53178371D01*
X149208191Y-53797419D02*
X148732001Y-53797419D01*
X148732001Y-53797419D02*
X148732001Y-52797419D01*
X149970096Y-53797419D02*
X149970096Y-53273609D01*
X149970096Y-53273609D02*
X149922477Y-53178371D01*
X149922477Y-53178371D02*
X149827239Y-53130752D01*
X149827239Y-53130752D02*
X149636763Y-53130752D01*
X149636763Y-53130752D02*
X149541525Y-53178371D01*
X149970096Y-53749800D02*
X149874858Y-53797419D01*
X149874858Y-53797419D02*
X149636763Y-53797419D01*
X149636763Y-53797419D02*
X149541525Y-53749800D01*
X149541525Y-53749800D02*
X149493906Y-53654561D01*
X149493906Y-53654561D02*
X149493906Y-53559323D01*
X149493906Y-53559323D02*
X149541525Y-53464085D01*
X149541525Y-53464085D02*
X149636763Y-53416466D01*
X149636763Y-53416466D02*
X149874858Y-53416466D01*
X149874858Y-53416466D02*
X149970096Y-53368847D01*
X150446287Y-53797419D02*
X150446287Y-52797419D01*
X150446287Y-53178371D02*
X150541525Y-53130752D01*
X150541525Y-53130752D02*
X150732001Y-53130752D01*
X150732001Y-53130752D02*
X150827239Y-53178371D01*
X150827239Y-53178371D02*
X150874858Y-53225990D01*
X150874858Y-53225990D02*
X150922477Y-53321228D01*
X150922477Y-53321228D02*
X150922477Y-53606942D01*
X150922477Y-53606942D02*
X150874858Y-53702180D01*
X150874858Y-53702180D02*
X150827239Y-53749800D01*
X150827239Y-53749800D02*
X150732001Y-53797419D01*
X150732001Y-53797419D02*
X150541525Y-53797419D01*
X150541525Y-53797419D02*
X150446287Y-53749800D01*
X151351049Y-53702180D02*
X151398668Y-53749800D01*
X151398668Y-53749800D02*
X151351049Y-53797419D01*
X151351049Y-53797419D02*
X151303430Y-53749800D01*
X151303430Y-53749800D02*
X151351049Y-53702180D01*
X151351049Y-53702180D02*
X151351049Y-53797419D01*
D12*
X106743523Y-56264875D02*
X106267333Y-56264875D01*
X106267333Y-56264875D02*
X106219714Y-56741065D01*
X106219714Y-56741065D02*
X106267333Y-56693446D01*
X106267333Y-56693446D02*
X106362571Y-56645827D01*
X106362571Y-56645827D02*
X106600666Y-56645827D01*
X106600666Y-56645827D02*
X106695904Y-56693446D01*
X106695904Y-56693446D02*
X106743523Y-56741065D01*
X106743523Y-56741065D02*
X106791142Y-56836303D01*
X106791142Y-56836303D02*
X106791142Y-57074398D01*
X106791142Y-57074398D02*
X106743523Y-57169636D01*
X106743523Y-57169636D02*
X106695904Y-57217256D01*
X106695904Y-57217256D02*
X106600666Y-57264875D01*
X106600666Y-57264875D02*
X106362571Y-57264875D01*
X106362571Y-57264875D02*
X106267333Y-57217256D01*
X106267333Y-57217256D02*
X106219714Y-57169636D01*
X107076857Y-56264875D02*
X107410190Y-57264875D01*
X107410190Y-57264875D02*
X107743523Y-56264875D01*
X105695905Y-59484763D02*
X106314952Y-59484763D01*
X106314952Y-59484763D02*
X105981619Y-59865715D01*
X105981619Y-59865715D02*
X106124476Y-59865715D01*
X106124476Y-59865715D02*
X106219714Y-59913334D01*
X106219714Y-59913334D02*
X106267333Y-59960953D01*
X106267333Y-59960953D02*
X106314952Y-60056191D01*
X106314952Y-60056191D02*
X106314952Y-60294286D01*
X106314952Y-60294286D02*
X106267333Y-60389524D01*
X106267333Y-60389524D02*
X106219714Y-60437144D01*
X106219714Y-60437144D02*
X106124476Y-60484763D01*
X106124476Y-60484763D02*
X105838762Y-60484763D01*
X105838762Y-60484763D02*
X105743524Y-60437144D01*
X105743524Y-60437144D02*
X105695905Y-60389524D01*
X106600667Y-59484763D02*
X106934000Y-60484763D01*
X106934000Y-60484763D02*
X107267333Y-59484763D01*
X107505429Y-59484763D02*
X108124476Y-59484763D01*
X108124476Y-59484763D02*
X107791143Y-59865715D01*
X107791143Y-59865715D02*
X107934000Y-59865715D01*
X107934000Y-59865715D02*
X108029238Y-59913334D01*
X108029238Y-59913334D02*
X108076857Y-59960953D01*
X108076857Y-59960953D02*
X108124476Y-60056191D01*
X108124476Y-60056191D02*
X108124476Y-60294286D01*
X108124476Y-60294286D02*
X108076857Y-60389524D01*
X108076857Y-60389524D02*
X108029238Y-60437144D01*
X108029238Y-60437144D02*
X107934000Y-60484763D01*
X107934000Y-60484763D02*
X107648286Y-60484763D01*
X107648286Y-60484763D02*
X107553048Y-60437144D01*
X107553048Y-60437144D02*
X107505429Y-60389524D01*
D11*
X114546856Y-54277528D02*
X114546856Y-52777528D01*
X114546856Y-52777528D02*
X115046856Y-53848957D01*
X115046856Y-53848957D02*
X115546856Y-52777528D01*
X115546856Y-52777528D02*
X115546856Y-54277528D01*
X116118285Y-53277528D02*
X116475428Y-54277528D01*
X116832571Y-53277528D02*
X116475428Y-54277528D01*
X116475428Y-54277528D02*
X116332571Y-54634671D01*
X116332571Y-54634671D02*
X116261142Y-54706100D01*
X116261142Y-54706100D02*
X116118285Y-54777528D01*
X118261142Y-54134671D02*
X118189714Y-54206100D01*
X118189714Y-54206100D02*
X117975428Y-54277528D01*
X117975428Y-54277528D02*
X117832571Y-54277528D01*
X117832571Y-54277528D02*
X117618285Y-54206100D01*
X117618285Y-54206100D02*
X117475428Y-54063242D01*
X117475428Y-54063242D02*
X117403999Y-53920385D01*
X117403999Y-53920385D02*
X117332571Y-53634671D01*
X117332571Y-53634671D02*
X117332571Y-53420385D01*
X117332571Y-53420385D02*
X117403999Y-53134671D01*
X117403999Y-53134671D02*
X117475428Y-52991814D01*
X117475428Y-52991814D02*
X117618285Y-52848957D01*
X117618285Y-52848957D02*
X117832571Y-52777528D01*
X117832571Y-52777528D02*
X117975428Y-52777528D01*
X117975428Y-52777528D02*
X118189714Y-52848957D01*
X118189714Y-52848957D02*
X118261142Y-52920385D01*
X118903999Y-54277528D02*
X118903999Y-52777528D01*
X119546857Y-54277528D02*
X119546857Y-53491814D01*
X119546857Y-53491814D02*
X119475428Y-53348957D01*
X119475428Y-53348957D02*
X119332571Y-53277528D01*
X119332571Y-53277528D02*
X119118285Y-53277528D01*
X119118285Y-53277528D02*
X118975428Y-53348957D01*
X118975428Y-53348957D02*
X118903999Y-53420385D01*
X120261142Y-54277528D02*
X120261142Y-53277528D01*
X120261142Y-52777528D02*
X120189714Y-52848957D01*
X120189714Y-52848957D02*
X120261142Y-52920385D01*
X120261142Y-52920385D02*
X120332571Y-52848957D01*
X120332571Y-52848957D02*
X120261142Y-52777528D01*
X120261142Y-52777528D02*
X120261142Y-52920385D01*
X120975428Y-53277528D02*
X120975428Y-54777528D01*
X120975428Y-53348957D02*
X121118286Y-53277528D01*
X121118286Y-53277528D02*
X121404000Y-53277528D01*
X121404000Y-53277528D02*
X121546857Y-53348957D01*
X121546857Y-53348957D02*
X121618286Y-53420385D01*
X121618286Y-53420385D02*
X121689714Y-53563242D01*
X121689714Y-53563242D02*
X121689714Y-53991814D01*
X121689714Y-53991814D02*
X121618286Y-54134671D01*
X121618286Y-54134671D02*
X121546857Y-54206100D01*
X121546857Y-54206100D02*
X121404000Y-54277528D01*
X121404000Y-54277528D02*
X121118286Y-54277528D01*
X121118286Y-54277528D02*
X120975428Y-54206100D01*
X123261143Y-52777528D02*
X124118286Y-52777528D01*
X123689714Y-54277528D02*
X123689714Y-52777528D01*
X125189714Y-54206100D02*
X125046857Y-54277528D01*
X125046857Y-54277528D02*
X124761143Y-54277528D01*
X124761143Y-54277528D02*
X124618285Y-54206100D01*
X124618285Y-54206100D02*
X124546857Y-54063242D01*
X124546857Y-54063242D02*
X124546857Y-53491814D01*
X124546857Y-53491814D02*
X124618285Y-53348957D01*
X124618285Y-53348957D02*
X124761143Y-53277528D01*
X124761143Y-53277528D02*
X125046857Y-53277528D01*
X125046857Y-53277528D02*
X125189714Y-53348957D01*
X125189714Y-53348957D02*
X125261143Y-53491814D01*
X125261143Y-53491814D02*
X125261143Y-53634671D01*
X125261143Y-53634671D02*
X124546857Y-53777528D01*
X125832571Y-54206100D02*
X125975428Y-54277528D01*
X125975428Y-54277528D02*
X126261142Y-54277528D01*
X126261142Y-54277528D02*
X126403999Y-54206100D01*
X126403999Y-54206100D02*
X126475428Y-54063242D01*
X126475428Y-54063242D02*
X126475428Y-53991814D01*
X126475428Y-53991814D02*
X126403999Y-53848957D01*
X126403999Y-53848957D02*
X126261142Y-53777528D01*
X126261142Y-53777528D02*
X126046857Y-53777528D01*
X126046857Y-53777528D02*
X125903999Y-53706100D01*
X125903999Y-53706100D02*
X125832571Y-53563242D01*
X125832571Y-53563242D02*
X125832571Y-53491814D01*
X125832571Y-53491814D02*
X125903999Y-53348957D01*
X125903999Y-53348957D02*
X126046857Y-53277528D01*
X126046857Y-53277528D02*
X126261142Y-53277528D01*
X126261142Y-53277528D02*
X126403999Y-53348957D01*
X126904000Y-53277528D02*
X127475428Y-53277528D01*
X127118285Y-52777528D02*
X127118285Y-54063242D01*
X127118285Y-54063242D02*
X127189714Y-54206100D01*
X127189714Y-54206100D02*
X127332571Y-54277528D01*
X127332571Y-54277528D02*
X127475428Y-54277528D01*
D12*
X143764095Y-79718819D02*
X143764095Y-80528342D01*
X143764095Y-80528342D02*
X143811714Y-80623580D01*
X143811714Y-80623580D02*
X143859333Y-80671200D01*
X143859333Y-80671200D02*
X143954571Y-80718819D01*
X143954571Y-80718819D02*
X144145047Y-80718819D01*
X144145047Y-80718819D02*
X144240285Y-80671200D01*
X144240285Y-80671200D02*
X144287904Y-80623580D01*
X144287904Y-80623580D02*
X144335523Y-80528342D01*
X144335523Y-80528342D02*
X144335523Y-79718819D01*
X145240285Y-80052152D02*
X145240285Y-80718819D01*
X145002190Y-79671200D02*
X144764095Y-80385485D01*
X144764095Y-80385485D02*
X145383142Y-80385485D01*
X124714095Y-79464819D02*
X124714095Y-80274342D01*
X124714095Y-80274342D02*
X124761714Y-80369580D01*
X124761714Y-80369580D02*
X124809333Y-80417200D01*
X124809333Y-80417200D02*
X124904571Y-80464819D01*
X124904571Y-80464819D02*
X125095047Y-80464819D01*
X125095047Y-80464819D02*
X125190285Y-80417200D01*
X125190285Y-80417200D02*
X125237904Y-80369580D01*
X125237904Y-80369580D02*
X125285523Y-80274342D01*
X125285523Y-80274342D02*
X125285523Y-79464819D01*
X125714095Y-79560057D02*
X125761714Y-79512438D01*
X125761714Y-79512438D02*
X125856952Y-79464819D01*
X125856952Y-79464819D02*
X126095047Y-79464819D01*
X126095047Y-79464819D02*
X126190285Y-79512438D01*
X126190285Y-79512438D02*
X126237904Y-79560057D01*
X126237904Y-79560057D02*
X126285523Y-79655295D01*
X126285523Y-79655295D02*
X126285523Y-79750533D01*
X126285523Y-79750533D02*
X126237904Y-79893390D01*
X126237904Y-79893390D02*
X125666476Y-80464819D01*
X125666476Y-80464819D02*
X126285523Y-80464819D01*
X143764095Y-110268819D02*
X143764095Y-111078342D01*
X143764095Y-111078342D02*
X143811714Y-111173580D01*
X143811714Y-111173580D02*
X143859333Y-111221200D01*
X143859333Y-111221200D02*
X143954571Y-111268819D01*
X143954571Y-111268819D02*
X144145047Y-111268819D01*
X144145047Y-111268819D02*
X144240285Y-111221200D01*
X144240285Y-111221200D02*
X144287904Y-111173580D01*
X144287904Y-111173580D02*
X144335523Y-111078342D01*
X144335523Y-111078342D02*
X144335523Y-110268819D01*
X144716476Y-110268819D02*
X145335523Y-110268819D01*
X145335523Y-110268819D02*
X145002190Y-110649771D01*
X145002190Y-110649771D02*
X145145047Y-110649771D01*
X145145047Y-110649771D02*
X145240285Y-110697390D01*
X145240285Y-110697390D02*
X145287904Y-110745009D01*
X145287904Y-110745009D02*
X145335523Y-110840247D01*
X145335523Y-110840247D02*
X145335523Y-111078342D01*
X145335523Y-111078342D02*
X145287904Y-111173580D01*
X145287904Y-111173580D02*
X145240285Y-111221200D01*
X145240285Y-111221200D02*
X145145047Y-111268819D01*
X145145047Y-111268819D02*
X144859333Y-111268819D01*
X144859333Y-111268819D02*
X144764095Y-111221200D01*
X144764095Y-111221200D02*
X144716476Y-111173580D01*
X124714095Y-110198819D02*
X124714095Y-111008342D01*
X124714095Y-111008342D02*
X124761714Y-111103580D01*
X124761714Y-111103580D02*
X124809333Y-111151200D01*
X124809333Y-111151200D02*
X124904571Y-111198819D01*
X124904571Y-111198819D02*
X125095047Y-111198819D01*
X125095047Y-111198819D02*
X125190285Y-111151200D01*
X125190285Y-111151200D02*
X125237904Y-111103580D01*
X125237904Y-111103580D02*
X125285523Y-111008342D01*
X125285523Y-111008342D02*
X125285523Y-110198819D01*
X126285523Y-111198819D02*
X125714095Y-111198819D01*
X125999809Y-111198819D02*
X125999809Y-110198819D01*
X125999809Y-110198819D02*
X125904571Y-110341676D01*
X125904571Y-110341676D02*
X125809333Y-110436914D01*
X125809333Y-110436914D02*
X125714095Y-110484533D01*
D13*
%TO.C,U4*%
X133320000Y-81260000D02*
X133320000Y-55760000D01*
X146050000Y-78740000D02*
X146050000Y-81260000D01*
X146050000Y-81260000D02*
X133320000Y-81260000D01*
X148570000Y-55760000D02*
X133320000Y-55760000D01*
X148570000Y-78740000D02*
X146050000Y-78740000D01*
X148570000Y-78740000D02*
X148570000Y-55760000D01*
X148570000Y-80010000D02*
X148570000Y-81260000D01*
X148570000Y-81260000D02*
X147320000Y-81260000D01*
%TO.C,J5*%
X88078000Y-121098000D02*
X174558000Y-121098000D01*
X88078000Y-123698000D02*
X88078000Y-121098000D01*
X88078000Y-126298000D02*
X88078000Y-124968000D01*
X89408000Y-126298000D02*
X88078000Y-126298000D01*
X90678000Y-123698000D02*
X88078000Y-123698000D01*
X90678000Y-126298000D02*
X90678000Y-123698000D01*
X90678000Y-126298000D02*
X174558000Y-126298000D01*
X174558000Y-126298000D02*
X174558000Y-121098000D01*
%TO.C,J3*%
X149805000Y-111825000D02*
X149805000Y-106625000D01*
X152405000Y-109225000D02*
X152405000Y-111825000D01*
X152405000Y-111825000D02*
X149805000Y-111825000D01*
X155005000Y-106625000D02*
X149805000Y-106625000D01*
X155005000Y-109225000D02*
X152405000Y-109225000D01*
X155005000Y-109225000D02*
X155005000Y-106625000D01*
X155005000Y-110495000D02*
X155005000Y-111825000D01*
X155005000Y-111825000D02*
X153675000Y-111825000D01*
%TO.C,J1*%
X107885000Y-106615000D02*
X109215000Y-106615000D01*
X107885000Y-107945000D02*
X107885000Y-106615000D01*
X107885000Y-109215000D02*
X107885000Y-111815000D01*
X107885000Y-109215000D02*
X110485000Y-109215000D01*
X107885000Y-111815000D02*
X113085000Y-111815000D01*
X110485000Y-106615000D02*
X113085000Y-106615000D01*
X110485000Y-109215000D02*
X110485000Y-106615000D01*
X113085000Y-106615000D02*
X113085000Y-111815000D01*
%TO.C,U2*%
X114270000Y-81260000D02*
X114270000Y-55760000D01*
X127000000Y-78740000D02*
X127000000Y-81260000D01*
X127000000Y-81260000D02*
X114270000Y-81260000D01*
X129520000Y-55760000D02*
X114270000Y-55760000D01*
X129520000Y-78740000D02*
X127000000Y-78740000D01*
X129520000Y-78740000D02*
X129520000Y-55760000D01*
X129520000Y-80010000D02*
X129520000Y-81260000D01*
X129520000Y-81260000D02*
X128270000Y-81260000D01*
%TO.C,J2*%
X107885000Y-55815000D02*
X109215000Y-55815000D01*
X107885000Y-57145000D02*
X107885000Y-55815000D01*
X107885000Y-58415000D02*
X107885000Y-61015000D01*
X107885000Y-58415000D02*
X110485000Y-58415000D01*
X107885000Y-61015000D02*
X113085000Y-61015000D01*
X110485000Y-55815000D02*
X113085000Y-55815000D01*
X110485000Y-58415000D02*
X110485000Y-55815000D01*
X113085000Y-55815000D02*
X113085000Y-61015000D01*
%TO.C,U3*%
X133320000Y-111810000D02*
X133320000Y-86310000D01*
X146050000Y-109290000D02*
X146050000Y-111810000D01*
X146050000Y-111810000D02*
X133320000Y-111810000D01*
X148570000Y-86310000D02*
X133320000Y-86310000D01*
X148570000Y-109290000D02*
X146050000Y-109290000D01*
X148570000Y-109290000D02*
X148570000Y-86310000D01*
X148570000Y-110560000D02*
X148570000Y-111810000D01*
X148570000Y-111810000D02*
X147320000Y-111810000D01*
%TO.C,J4*%
X150567000Y-60771000D02*
X150567000Y-55571000D01*
X153167000Y-58171000D02*
X153167000Y-60771000D01*
X153167000Y-60771000D02*
X150567000Y-60771000D01*
X155767000Y-55571000D02*
X150567000Y-55571000D01*
X155767000Y-58171000D02*
X153167000Y-58171000D01*
X155767000Y-58171000D02*
X155767000Y-55571000D01*
X155767000Y-59441000D02*
X155767000Y-60771000D01*
X155767000Y-60771000D02*
X154437000Y-60771000D01*
%TO.C,U1*%
X114270000Y-111740000D02*
X114270000Y-86240000D01*
X127000000Y-109220000D02*
X127000000Y-111740000D01*
X127000000Y-111740000D02*
X114270000Y-111740000D01*
X129520000Y-86240000D02*
X114270000Y-86240000D01*
X129520000Y-109220000D02*
X127000000Y-109220000D01*
X129520000Y-109220000D02*
X129520000Y-86240000D01*
X129520000Y-110490000D02*
X129520000Y-111740000D01*
X129520000Y-111740000D02*
X128270000Y-111740000D01*
%TD*%
M02*
