%TF.GenerationSoftware,KiCad,Pcbnew,9.0.1-9.0.1-0~ubuntu24.04.1*%
%TF.CreationDate,2025-04-22T11:50:30+09:00*%
%TF.ProjectId,PSCE-TEST_Arty,50534345-2d54-4455-9354-5f417274792e,rev?*%
%TF.SameCoordinates,Original*%
%TF.FileFunction,Copper,L1,Top*%
%TF.FilePolarity,Positive*%
%FSLAX46Y46*%
G04 Gerber Fmt 4.6, Leading zero omitted, Abs format (unit mm)*
G04 Created by KiCad (PCBNEW 9.0.1-9.0.1-0~ubuntu24.04.1) date 2025-04-22 11:50:30*
%MOMM*%
%LPD*%
G01*
G04 APERTURE LIST*
%TA.AperFunction,ComponentPad*%
%ADD10R,1.600000X1.600000*%
%TD*%
%TA.AperFunction,ComponentPad*%
%ADD11O,1.600000X1.600000*%
%TD*%
%TA.AperFunction,ComponentPad*%
%ADD12R,1.700000X1.700000*%
%TD*%
%TA.AperFunction,ComponentPad*%
%ADD13O,1.700000X1.700000*%
%TD*%
%TA.AperFunction,ViaPad*%
%ADD14C,0.600000*%
%TD*%
%TA.AperFunction,Conductor*%
%ADD15C,0.250000*%
%TD*%
%TA.AperFunction,Conductor*%
%ADD16C,0.300000*%
%TD*%
%TA.AperFunction,Conductor*%
%ADD17C,0.254000*%
%TD*%
%TA.AperFunction,Conductor*%
%ADD18C,0.200000*%
%TD*%
G04 APERTURE END LIST*
D10*
%TO.P,A1,1,NC*%
%TO.N,unconnected-(A1-NC-Pad1)*%
X109220000Y-67056000D03*
D11*
%TO.P,A1,2,IOREF*%
%TO.N,unconnected-(A1-IOREF-Pad2)*%
X109220000Y-69596000D03*
%TO.P,A1,3,~{RESET}*%
%TO.N,unconnected-(A1-~{RESET}-Pad3)*%
X109220000Y-72136000D03*
%TO.P,A1,4,3V3*%
%TO.N,3V3*%
X109220000Y-74676000D03*
%TO.P,A1,5,+5V*%
%TO.N,+5V*%
X109220000Y-77216000D03*
%TO.P,A1,6,GND*%
%TO.N,GND*%
X109220000Y-79756000D03*
%TO.P,A1,7,GND*%
X109220000Y-82296000D03*
%TO.P,A1,8,VIN*%
%TO.N,unconnected-(A1-VIN-Pad8)*%
X109220000Y-84836000D03*
%TO.P,A1,9,A0*%
%TO.N,unconnected-(A1-A0-Pad9)*%
X109220000Y-89916000D03*
%TO.P,A1,10,A1*%
%TO.N,unconnected-(A1-A1-Pad10)*%
X109220000Y-92456000D03*
%TO.P,A1,11,A2*%
%TO.N,unconnected-(A1-A2-Pad11)*%
X109220000Y-94996000D03*
%TO.P,A1,12,A3*%
%TO.N,unconnected-(A1-A3-Pad12)*%
X109220000Y-97536000D03*
%TO.P,A1,13,SDA/A4*%
%TO.N,unconnected-(A1-SDA{slash}A4-Pad13)*%
X109220000Y-100076000D03*
%TO.P,A1,14,SCL/A5*%
%TO.N,unconnected-(A1-SCL{slash}A5-Pad14)*%
X109220000Y-102616000D03*
%TO.P,A1,15,D0/RX*%
%TO.N,Net-(A1-D0{slash}RX)*%
X157480000Y-102616000D03*
%TO.P,A1,16,D1/TX*%
%TO.N,Net-(A1-D1{slash}TX)*%
X157480000Y-100076000D03*
%TO.P,A1,17,D2*%
%TO.N,Net-(A1-D2)*%
X157480000Y-97536000D03*
%TO.P,A1,18,D3*%
%TO.N,Net-(A1-D3)*%
X157480000Y-94996000D03*
%TO.P,A1,19,D4*%
%TO.N,Net-(A1-D4)*%
X157480000Y-92456000D03*
%TO.P,A1,20,D5*%
%TO.N,Net-(A1-D5)*%
X157480000Y-89916000D03*
%TO.P,A1,21,D6*%
%TO.N,Net-(A1-D6)*%
X157480000Y-87376000D03*
%TO.P,A1,22,D7*%
%TO.N,Net-(A1-D7)*%
X157480000Y-84836000D03*
%TO.P,A1,23,D8*%
%TO.N,Net-(A1-D8)*%
X157480000Y-80776000D03*
%TO.P,A1,24,D9*%
%TO.N,Net-(A1-D9)*%
X157480000Y-78236000D03*
%TO.P,A1,25,D10*%
%TO.N,Net-(A1-D10)*%
X157480000Y-75696000D03*
%TO.P,A1,26,D11*%
%TO.N,Net-(A1-D11)*%
X157480000Y-73156000D03*
%TO.P,A1,27,D12*%
%TO.N,Net-(A1-D12)*%
X157480000Y-70616000D03*
%TO.P,A1,28,D13*%
%TO.N,Net-(A1-D13)*%
X157480000Y-68076000D03*
%TO.P,A1,29,GND*%
%TO.N,GND*%
X157480000Y-65536000D03*
%TO.P,A1,30,AREF*%
%TO.N,unconnected-(A1-AREF-Pad30)*%
X157480000Y-62996000D03*
%TO.P,A1,31,SDA/A4*%
%TO.N,Net-(U4-A7)*%
X157480000Y-60456000D03*
%TO.P,A1,32,SCL/A5*%
%TO.N,Net-(U4-A8)*%
X157480000Y-57916000D03*
%TO.P,A1,33,IO26*%
%TO.N,Net-(A1-IO26)*%
X154940000Y-102616000D03*
%TO.P,A1,34,IO27*%
%TO.N,Net-(A1-IO27)*%
X154940000Y-100076000D03*
%TO.P,A1,35,IO28*%
%TO.N,Net-(A1-IO28)*%
X154940000Y-97536000D03*
%TO.P,A1,36,IO29*%
%TO.N,Net-(A1-IO29)*%
X154940000Y-94996000D03*
%TO.P,A1,37,IO30*%
%TO.N,Net-(A1-IO30)*%
X154940000Y-92456000D03*
%TO.P,A1,38,IO31*%
%TO.N,Net-(A1-IO31)*%
X154940000Y-89916000D03*
%TO.P,A1,39,IO32*%
%TO.N,Net-(A1-IO32)*%
X154940000Y-87376000D03*
%TO.P,A1,40,IO33*%
%TO.N,Net-(A1-IO33)*%
X154940000Y-84836000D03*
%TO.P,A1,41,IO34*%
%TO.N,Net-(A1-IO34)*%
X154940000Y-80776000D03*
%TO.P,A1,42,IO35*%
%TO.N,Net-(A1-IO35)*%
X154940000Y-78236000D03*
%TO.P,A1,43,IO36*%
%TO.N,Net-(A1-IO36)*%
X154940000Y-75696000D03*
%TO.P,A1,44,IO37*%
%TO.N,Net-(U4-A2)*%
X154940000Y-73156000D03*
%TO.P,A1,45,IO38*%
%TO.N,Net-(A1-IO38)*%
X154940000Y-70616000D03*
%TO.P,A1,46,IO37*%
%TO.N,Net-(U4-A4)*%
X154940000Y-68076000D03*
%TO.P,A1,47,IO40*%
%TO.N,Net-(A1-IO40)*%
X154940000Y-65536000D03*
%TO.P,A1,48,IO41*%
%TO.N,Net-(A1-IO41)*%
X154940000Y-62996000D03*
%TO.P,A1,49,A6*%
%TO.N,unconnected-(A1-A6-Pad49)*%
X111760000Y-89916000D03*
%TO.P,A1,50,A7*%
%TO.N,unconnected-(A1-A7-Pad50)*%
X111760000Y-92456000D03*
%TO.P,A1,51,A8*%
%TO.N,unconnected-(A1-A8-Pad51)*%
X111760000Y-94996000D03*
%TO.P,A1,52,A9*%
%TO.N,unconnected-(A1-A9-Pad52)*%
X111760000Y-97536000D03*
%TO.P,A1,53,A10*%
%TO.N,unconnected-(A1-A10-Pad53)*%
X111760000Y-100076000D03*
%TO.P,A1,54,A11*%
%TO.N,unconnected-(A1-A11-Pad54)*%
X111760000Y-102616000D03*
%TO.P,A1,55,V_P*%
%TO.N,unconnected-(A1-V_P-Pad55)*%
X111760000Y-77216000D03*
%TO.P,A1,56,V_N*%
%TO.N,unconnected-(A1-V_N-Pad56)*%
X111760000Y-79756000D03*
%TO.P,A1,57,XGND*%
%TO.N,unconnected-(A1-XGND-Pad57)*%
X111760000Y-82296000D03*
%TO.P,A1,58,XREF*%
%TO.N,unconnected-(A1-XREF-Pad58)*%
X111760000Y-84836000D03*
%TD*%
D12*
%TO.P,U4,1,VCCA*%
%TO.N,3V3*%
X147320000Y-80010000D03*
D13*
%TO.P,U4,2,A1*%
%TO.N,Net-(A1-IO36)*%
X147320000Y-77470000D03*
%TO.P,U4,3,A2*%
%TO.N,Net-(U4-A2)*%
X147320000Y-74930000D03*
%TO.P,U4,4,A3*%
%TO.N,Net-(A1-IO38)*%
X147320000Y-72390000D03*
%TO.P,U4,5,A4*%
%TO.N,Net-(U4-A4)*%
X147320000Y-69850000D03*
%TO.P,U4,6,A5*%
%TO.N,Net-(A1-IO40)*%
X147320000Y-67310000D03*
%TO.P,U4,7,A6*%
%TO.N,Net-(A1-IO41)*%
X147320000Y-64770000D03*
%TO.P,U4,8,A7*%
%TO.N,Net-(U4-A7)*%
X147320000Y-62230000D03*
%TO.P,U4,9,A8*%
%TO.N,Net-(U4-A8)*%
X147320000Y-59690000D03*
%TO.P,U4,10,OE*%
%TO.N,3V3*%
X147320000Y-57150000D03*
%TO.P,U4,11,GND*%
%TO.N,GND*%
X134620000Y-57150000D03*
%TO.P,U4,12,B8*%
%TO.N,/A5*%
X134620000Y-59690000D03*
%TO.P,U4,13,B7*%
%TO.N,/A4*%
X134620000Y-62230000D03*
%TO.P,U4,14,B6*%
%TO.N,/IO41*%
X134620000Y-64770000D03*
%TO.P,U4,15,B5*%
%TO.N,/IO40*%
X134620000Y-67310000D03*
%TO.P,U4,16,B4*%
%TO.N,/IO39*%
X134620000Y-69850000D03*
%TO.P,U4,17,B3*%
%TO.N,/IO38*%
X134620000Y-72390000D03*
%TO.P,U4,18,B2*%
%TO.N,/IO37*%
X134620000Y-74930000D03*
%TO.P,U4,19,B1*%
%TO.N,/IO36*%
X134620000Y-77470000D03*
%TO.P,U4,20,VCCB*%
%TO.N,Net-(J4-Pin_2)*%
X134620000Y-80010000D03*
%TD*%
D12*
%TO.P,J5,1,Pin_1*%
%TO.N,/IO0*%
X89408000Y-124968000D03*
D13*
%TO.P,J5,2,Pin_2*%
X89408000Y-122428000D03*
%TO.P,J5,3,Pin_3*%
%TO.N,/IO1*%
X91948000Y-124968000D03*
%TO.P,J5,4,Pin_4*%
X91948000Y-122428000D03*
%TO.P,J5,5,Pin_5*%
%TO.N,/IO2*%
X94488000Y-124968000D03*
%TO.P,J5,6,Pin_6*%
X94488000Y-122428000D03*
%TO.P,J5,7,Pin_7*%
%TO.N,/IO3*%
X97028000Y-124968000D03*
%TO.P,J5,8,Pin_8*%
X97028000Y-122428000D03*
%TO.P,J5,9,Pin_9*%
%TO.N,/IO4*%
X99568000Y-124968000D03*
%TO.P,J5,10,Pin_10*%
X99568000Y-122428000D03*
%TO.P,J5,11,Pin_11*%
%TO.N,/IO5*%
X102108000Y-124968000D03*
%TO.P,J5,12,Pin_12*%
X102108000Y-122428000D03*
%TO.P,J5,13,Pin_13*%
%TO.N,/IO6*%
X104648000Y-124968000D03*
%TO.P,J5,14,Pin_14*%
X104648000Y-122428000D03*
%TO.P,J5,15,Pin_15*%
%TO.N,/IO7*%
X107188000Y-124968000D03*
%TO.P,J5,16,Pin_16*%
X107188000Y-122428000D03*
%TO.P,J5,17,Pin_17*%
%TO.N,/IO8*%
X109728000Y-124968000D03*
%TO.P,J5,18,Pin_18*%
X109728000Y-122428000D03*
%TO.P,J5,19,Pin_19*%
%TO.N,/IO9*%
X112268000Y-124968000D03*
%TO.P,J5,20,Pin_20*%
X112268000Y-122428000D03*
%TO.P,J5,21,Pin_21*%
%TO.N,/IO10*%
X114808000Y-124968000D03*
%TO.P,J5,22,Pin_22*%
X114808000Y-122428000D03*
%TO.P,J5,23,Pin_23*%
%TO.N,/IO11*%
X117348000Y-124968000D03*
%TO.P,J5,24,Pin_24*%
X117348000Y-122428000D03*
%TO.P,J5,25,Pin_25*%
%TO.N,/IO12*%
X119888000Y-124968000D03*
%TO.P,J5,26,Pin_26*%
X119888000Y-122428000D03*
%TO.P,J5,27,Pin_27*%
%TO.N,/IO13*%
X122428000Y-124968000D03*
%TO.P,J5,28,Pin_28*%
X122428000Y-122428000D03*
%TO.P,J5,29,Pin_29*%
%TO.N,/IO26*%
X124968000Y-124968000D03*
%TO.P,J5,30,Pin_30*%
X124968000Y-122428000D03*
%TO.P,J5,31,Pin_31*%
%TO.N,/IO27*%
X127508000Y-124968000D03*
%TO.P,J5,32,Pin_32*%
X127508000Y-122428000D03*
%TO.P,J5,33,Pin_33*%
%TO.N,/IO28*%
X130048000Y-124968000D03*
%TO.P,J5,34,Pin_34*%
X130048000Y-122428000D03*
%TO.P,J5,35,Pin_35*%
%TO.N,/IO29*%
X132588000Y-124968000D03*
%TO.P,J5,36,Pin_36*%
X132588000Y-122428000D03*
%TO.P,J5,37,Pin_37*%
%TO.N,/IO30*%
X135128000Y-124968000D03*
%TO.P,J5,38,Pin_38*%
X135128000Y-122428000D03*
%TO.P,J5,39,Pin_39*%
%TO.N,/IO31*%
X137668000Y-124968000D03*
%TO.P,J5,40,Pin_40*%
X137668000Y-122428000D03*
%TO.P,J5,41,Pin_41*%
%TO.N,/IO32*%
X140208000Y-124968000D03*
%TO.P,J5,42,Pin_42*%
X140208000Y-122428000D03*
%TO.P,J5,43,Pin_43*%
%TO.N,/IO33*%
X142748000Y-124968000D03*
%TO.P,J5,44,Pin_44*%
X142748000Y-122428000D03*
%TO.P,J5,45,Pin_45*%
%TO.N,/IO34*%
X145288000Y-124968000D03*
%TO.P,J5,46,Pin_46*%
X145288000Y-122428000D03*
%TO.P,J5,47,Pin_47*%
%TO.N,/IO35*%
X147828000Y-124968000D03*
%TO.P,J5,48,Pin_48*%
X147828000Y-122428000D03*
%TO.P,J5,49,Pin_49*%
%TO.N,/IO36*%
X150368000Y-124968000D03*
%TO.P,J5,50,Pin_50*%
X150368000Y-122428000D03*
%TO.P,J5,51,Pin_51*%
%TO.N,/IO37*%
X152908000Y-124968000D03*
%TO.P,J5,52,Pin_52*%
X152908000Y-122428000D03*
%TO.P,J5,53,Pin_53*%
%TO.N,/IO38*%
X155448000Y-124968000D03*
%TO.P,J5,54,Pin_54*%
X155448000Y-122428000D03*
%TO.P,J5,55,Pin_55*%
%TO.N,/IO39*%
X157988000Y-124968000D03*
%TO.P,J5,56,Pin_56*%
X157988000Y-122428000D03*
%TO.P,J5,57,Pin_57*%
%TO.N,/IO40*%
X160528000Y-124968000D03*
%TO.P,J5,58,Pin_58*%
X160528000Y-122428000D03*
%TO.P,J5,59,Pin_59*%
%TO.N,/IO41*%
X163068000Y-124968000D03*
%TO.P,J5,60,Pin_60*%
X163068000Y-122428000D03*
%TO.P,J5,61,Pin_61*%
%TO.N,/A4*%
X165608000Y-124968000D03*
%TO.P,J5,62,Pin_62*%
X165608000Y-122428000D03*
%TO.P,J5,63,Pin_63*%
%TO.N,/A5*%
X168148000Y-124968000D03*
%TO.P,J5,64,Pin_64*%
X168148000Y-122428000D03*
%TO.P,J5,65,Pin_65*%
%TO.N,GND*%
X170688000Y-124968000D03*
%TO.P,J5,66,Pin_66*%
X170688000Y-122428000D03*
%TO.P,J5,67,Pin_67*%
%TO.N,+5V*%
X173228000Y-124968000D03*
%TO.P,J5,68,Pin_68*%
X173228000Y-122428000D03*
%TD*%
D12*
%TO.P,J3,1,Pin_1*%
%TO.N,+5V*%
X153675000Y-110495000D03*
D13*
%TO.P,J3,2,Pin_2*%
%TO.N,Net-(J3-Pin_2)*%
X151135000Y-110495000D03*
%TO.P,J3,3,Pin_3*%
%TO.N,3V3*%
X153675000Y-107955000D03*
%TO.P,J3,4,Pin_4*%
%TO.N,Net-(J3-Pin_2)*%
X151135000Y-107955000D03*
%TD*%
D12*
%TO.P,J1,1,Pin_1*%
%TO.N,+5V*%
X109215000Y-107945000D03*
D13*
%TO.P,J1,2,Pin_2*%
%TO.N,Net-(J1-Pin_2)*%
X111755000Y-107945000D03*
%TO.P,J1,3,Pin_3*%
%TO.N,3V3*%
X109215000Y-110485000D03*
%TO.P,J1,4,Pin_4*%
%TO.N,Net-(J1-Pin_2)*%
X111755000Y-110485000D03*
%TD*%
D12*
%TO.P,U2,1,VCCA*%
%TO.N,3V3*%
X128270000Y-80010000D03*
D13*
%TO.P,U2,2,A1*%
%TO.N,Net-(A1-D8)*%
X128270000Y-77470000D03*
%TO.P,U2,3,A2*%
%TO.N,Net-(A1-D9)*%
X128270000Y-74930000D03*
%TO.P,U2,4,A3*%
%TO.N,Net-(A1-D10)*%
X128270000Y-72390000D03*
%TO.P,U2,5,A4*%
%TO.N,Net-(A1-D11)*%
X128270000Y-69850000D03*
%TO.P,U2,6,A5*%
%TO.N,Net-(A1-D12)*%
X128270000Y-67310000D03*
%TO.P,U2,7,A6*%
%TO.N,Net-(A1-D13)*%
X128270000Y-64770000D03*
%TO.P,U2,8,A7*%
%TO.N,Net-(A1-IO26)*%
X128270000Y-62230000D03*
%TO.P,U2,9,A8*%
%TO.N,Net-(A1-IO27)*%
X128270000Y-59690000D03*
%TO.P,U2,10,OE*%
%TO.N,3V3*%
X128270000Y-57150000D03*
%TO.P,U2,11,GND*%
%TO.N,GND*%
X115570000Y-57150000D03*
%TO.P,U2,12,B8*%
%TO.N,/IO27*%
X115570000Y-59690000D03*
%TO.P,U2,13,B7*%
%TO.N,/IO26*%
X115570000Y-62230000D03*
%TO.P,U2,14,B6*%
%TO.N,/IO13*%
X115570000Y-64770000D03*
%TO.P,U2,15,B5*%
%TO.N,/IO12*%
X115570000Y-67310000D03*
%TO.P,U2,16,B4*%
%TO.N,/IO11*%
X115570000Y-69850000D03*
%TO.P,U2,17,B3*%
%TO.N,/IO10*%
X115570000Y-72390000D03*
%TO.P,U2,18,B2*%
%TO.N,/IO9*%
X115570000Y-74930000D03*
%TO.P,U2,19,B1*%
%TO.N,/IO8*%
X115570000Y-77470000D03*
%TO.P,U2,20,VCCB*%
%TO.N,Net-(J2-Pin_2)*%
X115570000Y-80010000D03*
%TD*%
D12*
%TO.P,J2,1,Pin_1*%
%TO.N,+5V*%
X109215000Y-57145000D03*
D13*
%TO.P,J2,2,Pin_2*%
%TO.N,Net-(J2-Pin_2)*%
X111755000Y-57145000D03*
%TO.P,J2,3,Pin_3*%
%TO.N,3V3*%
X109215000Y-59685000D03*
%TO.P,J2,4,Pin_4*%
%TO.N,Net-(J2-Pin_2)*%
X111755000Y-59685000D03*
%TD*%
D12*
%TO.P,U3,1,VCCA*%
%TO.N,3V3*%
X147320000Y-110560000D03*
D13*
%TO.P,U3,2,A1*%
%TO.N,Net-(A1-IO28)*%
X147320000Y-108020000D03*
%TO.P,U3,3,A2*%
%TO.N,Net-(A1-IO29)*%
X147320000Y-105480000D03*
%TO.P,U3,4,A3*%
%TO.N,Net-(A1-IO30)*%
X147320000Y-102940000D03*
%TO.P,U3,5,A4*%
%TO.N,Net-(A1-IO31)*%
X147320000Y-100400000D03*
%TO.P,U3,6,A5*%
%TO.N,Net-(A1-IO32)*%
X147320000Y-97860000D03*
%TO.P,U3,7,A6*%
%TO.N,Net-(A1-IO33)*%
X147320000Y-95320000D03*
%TO.P,U3,8,A7*%
%TO.N,Net-(A1-IO34)*%
X147320000Y-92780000D03*
%TO.P,U3,9,A8*%
%TO.N,Net-(A1-IO35)*%
X147320000Y-90240000D03*
%TO.P,U3,10,OE*%
%TO.N,3V3*%
X147320000Y-87700000D03*
%TO.P,U3,11,GND*%
%TO.N,GND*%
X134620000Y-87700000D03*
%TO.P,U3,12,B8*%
%TO.N,/IO35*%
X134620000Y-90240000D03*
%TO.P,U3,13,B7*%
%TO.N,/IO34*%
X134620000Y-92780000D03*
%TO.P,U3,14,B6*%
%TO.N,/IO33*%
X134620000Y-95320000D03*
%TO.P,U3,15,B5*%
%TO.N,/IO32*%
X134620000Y-97860000D03*
%TO.P,U3,16,B4*%
%TO.N,/IO31*%
X134620000Y-100400000D03*
%TO.P,U3,17,B3*%
%TO.N,/IO30*%
X134620000Y-102940000D03*
%TO.P,U3,18,B2*%
%TO.N,/IO29*%
X134620000Y-105480000D03*
%TO.P,U3,19,B1*%
%TO.N,/IO28*%
X134620000Y-108020000D03*
%TO.P,U3,20,VCCB*%
%TO.N,Net-(J3-Pin_2)*%
X134620000Y-110560000D03*
%TD*%
D12*
%TO.P,J4,1,Pin_1*%
%TO.N,+5V*%
X154437000Y-59441000D03*
D13*
%TO.P,J4,2,Pin_2*%
%TO.N,Net-(J4-Pin_2)*%
X151897000Y-59441000D03*
%TO.P,J4,3,Pin_3*%
%TO.N,3V3*%
X154437000Y-56901000D03*
%TO.P,J4,4,Pin_4*%
%TO.N,Net-(J4-Pin_2)*%
X151897000Y-56901000D03*
%TD*%
D12*
%TO.P,U1,1,VCCA*%
%TO.N,3V3*%
X128270000Y-110490000D03*
D13*
%TO.P,U1,2,A1*%
%TO.N,Net-(A1-D0{slash}RX)*%
X128270000Y-107950000D03*
%TO.P,U1,3,A2*%
%TO.N,Net-(A1-D1{slash}TX)*%
X128270000Y-105410000D03*
%TO.P,U1,4,A3*%
%TO.N,Net-(A1-D2)*%
X128270000Y-102870000D03*
%TO.P,U1,5,A4*%
%TO.N,Net-(A1-D3)*%
X128270000Y-100330000D03*
%TO.P,U1,6,A5*%
%TO.N,Net-(A1-D4)*%
X128270000Y-97790000D03*
%TO.P,U1,7,A6*%
%TO.N,Net-(A1-D5)*%
X128270000Y-95250000D03*
%TO.P,U1,8,A7*%
%TO.N,Net-(A1-D6)*%
X128270000Y-92710000D03*
%TO.P,U1,9,A8*%
%TO.N,Net-(A1-D7)*%
X128270000Y-90170000D03*
%TO.P,U1,10,OE*%
%TO.N,3V3*%
X128270000Y-87630000D03*
%TO.P,U1,11,GND*%
%TO.N,GND*%
X115570000Y-87630000D03*
%TO.P,U1,12,B8*%
%TO.N,/IO7*%
X115570000Y-90170000D03*
%TO.P,U1,13,B7*%
%TO.N,/IO6*%
X115570000Y-92710000D03*
%TO.P,U1,14,B6*%
%TO.N,/IO5*%
X115570000Y-95250000D03*
%TO.P,U1,15,B5*%
%TO.N,/IO4*%
X115570000Y-97790000D03*
%TO.P,U1,16,B4*%
%TO.N,/IO3*%
X115570000Y-100330000D03*
%TO.P,U1,17,B3*%
%TO.N,/IO2*%
X115570000Y-102870000D03*
%TO.P,U1,18,B2*%
%TO.N,/IO1*%
X115570000Y-105410000D03*
%TO.P,U1,19,B1*%
%TO.N,/IO0*%
X115570000Y-107950000D03*
%TO.P,U1,20,VCCB*%
%TO.N,Net-(J1-Pin_2)*%
X115570000Y-110490000D03*
%TD*%
D14*
%TO.N,GND*%
X131572000Y-80772000D03*
X156210000Y-82804000D03*
X150114000Y-80772000D03*
X109474000Y-105156000D03*
X131064000Y-109728000D03*
X159512000Y-53594000D03*
X107696000Y-87376000D03*
X123698000Y-62738000D03*
X107696000Y-53848000D03*
X113284000Y-69342000D03*
X131826000Y-85344000D03*
X138938000Y-86868000D03*
X142748000Y-63246000D03*
X142494000Y-117094000D03*
X113030000Y-62992000D03*
X140208000Y-60706000D03*
X104394000Y-112776000D03*
X119634000Y-90932000D03*
X130810000Y-56134000D03*
X128524000Y-114046000D03*
X117602000Y-85852000D03*
X158750000Y-112268000D03*
X129540000Y-118618000D03*
X89916000Y-117348000D03*
X175006000Y-118872000D03*
X120904000Y-59944000D03*
X139700000Y-56642000D03*
%TD*%
D15*
%TO.N,Net-(A1-IO30)*%
X152400000Y-94996000D02*
X152400000Y-97860000D01*
X154940000Y-92456000D02*
X152400000Y-94996000D01*
X152400000Y-97860000D02*
X147320000Y-102940000D01*
%TO.N,Net-(A1-IO40)*%
X150368000Y-67310000D02*
X152142000Y-65536000D01*
X147320000Y-67310000D02*
X150368000Y-67310000D01*
X152142000Y-65536000D02*
X154940000Y-65536000D01*
D16*
%TO.N,+5V*%
X113284000Y-89249346D02*
X113284000Y-103876000D01*
X112014000Y-74422000D02*
X109220000Y-77216000D01*
X110609000Y-78605000D02*
X110609000Y-86574346D01*
X113284000Y-103876000D02*
X109215000Y-107945000D01*
D17*
X173228000Y-122428000D02*
X173228000Y-124968000D01*
D16*
X110609000Y-86574346D02*
X113284000Y-89249346D01*
X109215000Y-57145000D02*
X110554000Y-58484000D01*
X109220000Y-77216000D02*
X110609000Y-78605000D01*
X112014000Y-65278000D02*
X112014000Y-74422000D01*
X110554000Y-58484000D02*
X110554000Y-63818000D01*
X110554000Y-63818000D02*
X112014000Y-65278000D01*
D15*
%TO.N,Net-(A1-IO34)*%
X147320000Y-92780000D02*
X150368000Y-89732000D01*
X150368000Y-85348000D02*
X154940000Y-80776000D01*
X150368000Y-89732000D02*
X150368000Y-85348000D01*
%TO.N,Net-(A1-IO28)*%
X154940000Y-97536000D02*
X153416000Y-99060000D01*
X153416000Y-101924000D02*
X147320000Y-108020000D01*
X153416000Y-99060000D02*
X153416000Y-101924000D01*
%TO.N,Net-(A1-IO38)*%
X151130000Y-72390000D02*
X152904000Y-70616000D01*
X152904000Y-70616000D02*
X154940000Y-70616000D01*
X147320000Y-72390000D02*
X151130000Y-72390000D01*
%TO.N,Net-(A1-IO41)*%
X150368000Y-64770000D02*
X152142000Y-62996000D01*
X152142000Y-62996000D02*
X154940000Y-62996000D01*
X147320000Y-64770000D02*
X150368000Y-64770000D01*
%TO.N,Net-(A1-IO29)*%
X154940000Y-94996000D02*
X152908000Y-97028000D01*
X152908000Y-99892000D02*
X147320000Y-105480000D01*
X152908000Y-97028000D02*
X152908000Y-99892000D01*
%TO.N,Net-(A1-IO33)*%
X150876000Y-91764000D02*
X147320000Y-95320000D01*
X150876000Y-88900000D02*
X150876000Y-91764000D01*
X154940000Y-84836000D02*
X150876000Y-88900000D01*
%TO.N,Net-(A1-IO36)*%
X153412000Y-75696000D02*
X154940000Y-75696000D01*
X147320000Y-77470000D02*
X151638000Y-77470000D01*
X151638000Y-77470000D02*
X153412000Y-75696000D01*
D18*
%TO.N,GND*%
X170688000Y-122428000D02*
X170688000Y-124968000D01*
D15*
%TO.N,Net-(A1-IO32)*%
X151384000Y-93796000D02*
X147320000Y-97860000D01*
X154940000Y-87376000D02*
X151384000Y-90932000D01*
X151384000Y-90932000D02*
X151384000Y-93796000D01*
%TO.N,Net-(A1-IO35)*%
X149860000Y-83316000D02*
X149860000Y-87700000D01*
X149860000Y-87700000D02*
X147320000Y-90240000D01*
X154940000Y-78236000D02*
X149860000Y-83316000D01*
D16*
%TO.N,Net-(A1-IO27)*%
X156711000Y-54349000D02*
X159011000Y-56649000D01*
X128270000Y-59690000D02*
X125730000Y-57150000D01*
X159011000Y-97783000D02*
X157869000Y-98925000D01*
X156091000Y-98925000D02*
X154940000Y-100076000D01*
X125730000Y-57150000D02*
X125730000Y-55572520D01*
X126953520Y-54349000D02*
X156711000Y-54349000D01*
X157869000Y-98925000D02*
X156091000Y-98925000D01*
X125730000Y-55572520D02*
X126953520Y-54349000D01*
X159011000Y-56649000D02*
X159011000Y-97783000D01*
%TO.N,Net-(A1-IO26)*%
X156972000Y-53848000D02*
X126746000Y-53848000D01*
X154940000Y-102616000D02*
X156329000Y-101227000D01*
X159512000Y-100584000D02*
X159512000Y-56388000D01*
X156329000Y-101227000D02*
X158869000Y-101227000D01*
X159512000Y-56388000D02*
X156972000Y-53848000D01*
X158869000Y-101227000D02*
X159512000Y-100584000D01*
X125222000Y-55372000D02*
X125222000Y-59182000D01*
X126746000Y-53848000D02*
X125222000Y-55372000D01*
X125222000Y-59182000D02*
X128270000Y-62230000D01*
D15*
%TO.N,Net-(A1-IO31)*%
X154940000Y-89916000D02*
X151892000Y-92964000D01*
X151892000Y-95828000D02*
X147320000Y-100400000D01*
X151892000Y-92964000D02*
X151892000Y-95828000D01*
%TO.N,Net-(U4-A7)*%
X151130000Y-62230000D02*
X151892000Y-61468000D01*
X147320000Y-62230000D02*
X151130000Y-62230000D01*
X156468000Y-61468000D02*
X157480000Y-60456000D01*
X151892000Y-61468000D02*
X156468000Y-61468000D01*
%TO.N,Net-(U4-A2)*%
X147320000Y-74930000D02*
X151384000Y-74930000D01*
X151384000Y-74930000D02*
X153158000Y-73156000D01*
X153158000Y-73156000D02*
X154940000Y-73156000D01*
%TO.N,Net-(J1-Pin_2)*%
X111755000Y-110485000D02*
X111755000Y-107945000D01*
X115570000Y-110490000D02*
X111760000Y-110490000D01*
X111760000Y-110490000D02*
X111755000Y-110485000D01*
%TO.N,Net-(J2-Pin_2)*%
X111755000Y-57145000D02*
X111755000Y-59685000D01*
%TO.N,Net-(J3-Pin_2)*%
X151135000Y-107955000D02*
X151135000Y-110495000D01*
%TO.N,Net-(J4-Pin_2)*%
X133510000Y-58514000D02*
X131064000Y-60960000D01*
X151897000Y-56901000D02*
X150970000Y-55974000D01*
X131064000Y-76454000D02*
X134620000Y-80010000D01*
X143924000Y-55974000D02*
X141384000Y-58514000D01*
X131064000Y-60960000D02*
X131064000Y-76454000D01*
X150970000Y-55974000D02*
X143924000Y-55974000D01*
X141384000Y-58514000D02*
X133510000Y-58514000D01*
D17*
%TO.N,/IO26*%
X124968000Y-71628000D02*
X115570000Y-62230000D01*
X124968000Y-122428000D02*
X124968000Y-71628000D01*
X124968000Y-122428000D02*
X124968000Y-124968000D01*
%TO.N,/IO33*%
X142748000Y-122428000D02*
X142748000Y-124968000D01*
X142748000Y-120514532D02*
X138578000Y-116344532D01*
X138578000Y-116344532D02*
X138578000Y-99278000D01*
X138578000Y-99278000D02*
X134620000Y-95320000D01*
X142748000Y-122428000D02*
X142748000Y-120514532D01*
%TO.N,/IO32*%
X138123000Y-101363000D02*
X134620000Y-97860000D01*
X140208000Y-122428000D02*
X140208000Y-124968000D01*
X140208000Y-122428000D02*
X140208000Y-118618000D01*
X140208000Y-118618000D02*
X138123000Y-116533000D01*
X138123000Y-116533000D02*
X138123000Y-101363000D01*
%TO.N,/IO27*%
X127508000Y-122428000D02*
X127508000Y-124968000D01*
X125423000Y-69543000D02*
X115570000Y-59690000D01*
X125423000Y-114808000D02*
X125423000Y-69543000D01*
X127508000Y-122428000D02*
X127508000Y-116893000D01*
X127508000Y-116893000D02*
X125423000Y-114808000D01*
%TO.N,/IO0*%
X97282000Y-114554000D02*
X115316000Y-114554000D01*
X89408000Y-124968000D02*
X89408000Y-122428000D01*
X115316000Y-114554000D02*
X117348000Y-112522000D01*
X89408000Y-122428000D02*
X97282000Y-114554000D01*
D15*
X117348000Y-109728000D02*
X117348000Y-112522000D01*
X115570000Y-107950000D02*
X117348000Y-109728000D01*
D17*
%TO.N,/IO12*%
X123952000Y-114193999D02*
X123952000Y-114181467D01*
X123952000Y-114300000D02*
X123952000Y-114194000D01*
X123952000Y-114570935D02*
X123952000Y-114570934D01*
X123952000Y-113817065D02*
X123952000Y-113804533D01*
X123952000Y-77588532D02*
X123952000Y-77588533D01*
X123952000Y-113804533D02*
X123952000Y-111628934D01*
X123952000Y-114570934D02*
X123952000Y-114300000D01*
X123952000Y-111628934D02*
X123952000Y-111252000D01*
X123952000Y-79485065D02*
X123952000Y-77965468D01*
X119888000Y-122428000D02*
X119888000Y-118634936D01*
X123952000Y-79862001D02*
X123952000Y-79861999D01*
X123952000Y-114570936D02*
X123952000Y-114570935D01*
X123952000Y-80238935D02*
X123952000Y-79862001D01*
X123952000Y-75692000D02*
X115570000Y-67310000D01*
X123952000Y-110875066D02*
X123952000Y-80238935D01*
X123952000Y-77588532D02*
X123952000Y-75692000D01*
X123952000Y-77965468D02*
X123952000Y-77588532D01*
X123952000Y-114194000D02*
X123952000Y-114193999D01*
X119888000Y-122428000D02*
X119888000Y-124968000D01*
X119888000Y-118634936D02*
X123685467Y-114837467D01*
X123685467Y-114837467D02*
X123952000Y-114570936D01*
X123952000Y-111252000D02*
X123952000Y-110875066D01*
X123952000Y-114181467D02*
X123952000Y-113817065D01*
X123685467Y-114837467D02*
X123685467Y-114837468D01*
X123952000Y-79861999D02*
X123952000Y-79485065D01*
%TO.N,/A5*%
X168148000Y-121158000D02*
X161798000Y-114808000D01*
X145034000Y-112268000D02*
X145034000Y-70104000D01*
X168148000Y-122428000D02*
X168148000Y-124968000D01*
X161798000Y-114808000D02*
X147574000Y-114808000D01*
X145034000Y-70104000D02*
X134620000Y-59690000D01*
X147574000Y-114808000D02*
X145034000Y-112268000D01*
X168148000Y-122428000D02*
X168148000Y-121158000D01*
%TO.N,/A4*%
X165608000Y-122428000D02*
X165608000Y-121412000D01*
X144526000Y-72136000D02*
X134620000Y-62230000D01*
X165608000Y-122428000D02*
X165608000Y-124968000D01*
X144526000Y-112522000D02*
X144526000Y-72136000D01*
X159512000Y-115316000D02*
X147320000Y-115316000D01*
X147320000Y-115316000D02*
X144526000Y-112522000D01*
X165608000Y-121412000D02*
X159512000Y-115316000D01*
%TO.N,/IO38*%
X155448000Y-122428000D02*
X155448000Y-124968000D01*
X151638000Y-117348000D02*
X146304000Y-117348000D01*
X146304000Y-117348000D02*
X142494000Y-113538000D01*
X142494000Y-80264000D02*
X134620000Y-72390000D01*
X142494000Y-113538000D02*
X142494000Y-80264000D01*
X155448000Y-122428000D02*
X155448000Y-121158000D01*
X155448000Y-121158000D02*
X151638000Y-117348000D01*
%TO.N,/IO2*%
X105194066Y-115515000D02*
X105194065Y-115514999D01*
X107844468Y-115515000D02*
X115636277Y-115515000D01*
X118364000Y-105664000D02*
X115570000Y-102870000D01*
X107467534Y-115515000D02*
X107467533Y-115514999D01*
X105194065Y-115514999D02*
X105947935Y-115515000D01*
X118364000Y-112787277D02*
X118364000Y-105664000D01*
X107467532Y-115514999D02*
X107467534Y-115515000D01*
X94488000Y-122428000D02*
X94488000Y-124968000D01*
X101401000Y-115515000D02*
X105194066Y-115515000D01*
X105947935Y-115515000D02*
X107467532Y-115514999D01*
X115636277Y-115515000D02*
X118364000Y-112787277D01*
X107844466Y-115514999D02*
X107844468Y-115515000D01*
X107467533Y-115514999D02*
X107844466Y-115514999D01*
X94488000Y-122428000D02*
X101401000Y-115515000D01*
%TO.N,/IO3*%
X115824746Y-115969999D02*
X118872000Y-112922745D01*
X107656001Y-115970000D02*
X115824746Y-115969999D01*
X105382533Y-115970000D02*
X107279063Y-115970000D01*
X97028000Y-122428000D02*
X103486000Y-115970000D01*
X118872000Y-103632000D02*
X115570000Y-100330000D01*
X105382533Y-115970000D02*
X105382532Y-115970000D01*
X103486000Y-115970000D02*
X105382533Y-115970000D01*
X107655999Y-115970000D02*
X107656000Y-115969999D01*
X107279063Y-115970000D02*
X107279064Y-115969999D01*
X107279064Y-115969999D02*
X107279066Y-115970000D01*
X107656000Y-115969999D02*
X107656001Y-115970000D01*
X107279066Y-115970000D02*
X107655999Y-115970000D01*
X97028000Y-122428000D02*
X97028000Y-124968000D01*
X118872000Y-112922745D02*
X118872000Y-103632000D01*
%TO.N,/IO5*%
X102108000Y-122428000D02*
X102108000Y-124968000D01*
X116201681Y-116879999D02*
X116201680Y-116879999D01*
X110876411Y-116880000D02*
X116201681Y-116879999D01*
X119941000Y-113140680D02*
X119941000Y-99621000D01*
X119941000Y-99621000D02*
X115570000Y-95250000D01*
X102108000Y-122428000D02*
X107656000Y-116880000D01*
X107656000Y-116880000D02*
X110876411Y-116880000D01*
X116201680Y-116879999D02*
X119941000Y-113140680D01*
%TO.N,/IO13*%
X124513000Y-114755000D02*
X124513000Y-73713000D01*
X124513000Y-73713000D02*
X115570000Y-64770000D01*
X122428000Y-122428000D02*
X122428000Y-116840000D01*
X122428000Y-116840000D02*
X124513000Y-114755000D01*
X122428000Y-122428000D02*
X122428000Y-124968000D01*
%TO.N,/IO35*%
X143662404Y-120142000D02*
X139488000Y-115967596D01*
X139488000Y-95108000D02*
X134620000Y-90240000D01*
X147828000Y-122428000D02*
X147828000Y-124968000D01*
X139488000Y-115967596D02*
X139488000Y-95108000D01*
X145542000Y-120142000D02*
X143662404Y-120142000D01*
X147828000Y-122428000D02*
X145542000Y-120142000D01*
D15*
%TO.N,/IO1*%
X101588638Y-115062000D02*
X101213362Y-115062000D01*
X105758641Y-115062000D02*
X105383362Y-115062000D01*
X105760296Y-115062000D02*
X105758641Y-115062000D01*
X115448638Y-115062000D02*
X108032108Y-115062000D01*
X107279890Y-115062000D02*
X107278237Y-115062000D01*
X108032108Y-115062000D02*
X108032107Y-115061999D01*
X103109892Y-115061999D02*
X103109891Y-115062000D01*
X105006427Y-115061999D02*
X105006426Y-115062000D01*
X107278236Y-115061999D02*
X106977609Y-115061999D01*
X103486829Y-115062000D02*
X103485173Y-115062000D01*
X101213362Y-115062000D02*
X99314000Y-115062000D01*
X106135574Y-115062000D02*
X105760296Y-115062000D01*
X103109894Y-115062000D02*
X103109892Y-115061999D01*
X107279893Y-115062000D02*
X107279891Y-115061999D01*
X115570000Y-105410000D02*
X117856000Y-107696000D01*
X105381705Y-115061999D02*
X105006427Y-115061999D01*
X117856000Y-112654638D02*
X115448638Y-115062000D01*
X103485171Y-115062000D02*
X103109894Y-115062000D01*
X107279895Y-115061999D02*
X107279894Y-115061999D01*
X107279894Y-115061999D02*
X107279893Y-115061999D01*
X105383362Y-115062000D02*
X105381706Y-115062000D01*
X106902958Y-115061999D02*
X106902957Y-115062000D01*
X99314000Y-115062000D02*
X91948000Y-122428000D01*
X103485173Y-115062000D02*
X103485172Y-115061999D01*
X107655171Y-115061999D02*
X107655169Y-115061999D01*
X107278237Y-115062000D02*
X107278236Y-115061999D01*
X107655169Y-115061999D02*
X107279895Y-115061999D01*
X107656827Y-115061999D02*
X107655173Y-115061999D01*
X108032106Y-115062000D02*
X107656827Y-115061999D01*
X107279891Y-115061999D02*
X107279890Y-115062000D01*
X105006426Y-115062000D02*
X103862107Y-115062000D01*
X103862107Y-115062000D02*
X103486829Y-115062000D01*
D17*
X91948000Y-124968000D02*
X91948000Y-122428000D01*
D15*
X106902957Y-115062000D02*
X106135574Y-115062000D01*
X103485172Y-115061999D02*
X103485171Y-115062000D01*
X107279893Y-115061999D02*
X107279893Y-115062000D01*
X106977609Y-115061999D02*
X106902958Y-115061999D01*
X117856000Y-107696000D02*
X117856000Y-112654638D01*
X105381706Y-115062000D02*
X105381705Y-115061999D01*
X107655173Y-115061999D02*
X107655171Y-115061999D01*
X103109891Y-115062000D02*
X101588638Y-115062000D01*
X108032108Y-115062000D02*
X108032106Y-115062000D01*
D17*
%TO.N,/IO6*%
X104648000Y-122428000D02*
X109741000Y-117335000D01*
X120396000Y-97536000D02*
X115570000Y-92710000D01*
X104648000Y-122428000D02*
X104648000Y-124968000D01*
X116390149Y-117334998D02*
X120396000Y-113329147D01*
X120396000Y-113329147D02*
X120396000Y-97536000D01*
X109741000Y-117335000D02*
X116390149Y-117334998D01*
%TO.N,/IO41*%
X157734000Y-115824000D02*
X147066000Y-115824000D01*
X144018000Y-74168000D02*
X134620000Y-64770000D01*
X163068000Y-122428000D02*
X163068000Y-124968000D01*
X163068000Y-122428000D02*
X163068000Y-121158000D01*
X147066000Y-115824000D02*
X144018000Y-112776000D01*
X144018000Y-112776000D02*
X144018000Y-74168000D01*
X163068000Y-121158000D02*
X157734000Y-115824000D01*
%TO.N,/IO30*%
X135128000Y-118364000D02*
X137160000Y-116332000D01*
X137160000Y-105480000D02*
X134620000Y-102940000D01*
X135128000Y-122428000D02*
X135128000Y-118364000D01*
X135128000Y-122428000D02*
X135128000Y-124968000D01*
X137160000Y-116332000D02*
X137160000Y-105480000D01*
%TO.N,/IO36*%
X145796000Y-118364000D02*
X141478000Y-114046000D01*
X141478000Y-84328000D02*
X134620000Y-77470000D01*
X141478000Y-114046000D02*
X141478000Y-84328000D01*
X150368000Y-120904000D02*
X147828000Y-118364000D01*
X150368000Y-122428000D02*
X150368000Y-124968000D01*
X147828000Y-118364000D02*
X145796000Y-118364000D01*
X150368000Y-122428000D02*
X150368000Y-120904000D01*
%TO.N,/IO11*%
X123497000Y-114382467D02*
X123497000Y-114005532D01*
X123497000Y-114005532D02*
X123497000Y-113993000D01*
X117348000Y-122428000D02*
X117348000Y-124968000D01*
X123497000Y-79673532D02*
X123497000Y-77777000D01*
X123497000Y-111063533D02*
X123497000Y-80050468D01*
X123497000Y-77777000D02*
X115570000Y-69850000D01*
X123497000Y-113993000D02*
X123497000Y-111440467D01*
X117348000Y-122428000D02*
X117348000Y-120531468D01*
X123497000Y-111440467D02*
X123497000Y-111063533D01*
X117348000Y-120531468D02*
X123497000Y-114382468D01*
X123497000Y-80050468D02*
X123497000Y-79673532D01*
X123497000Y-114382468D02*
X123497000Y-114382467D01*
X123497000Y-79673532D02*
X123497000Y-79673533D01*
%TO.N,/IO10*%
X114808000Y-122428000D02*
X114808000Y-124968000D01*
X123042000Y-111252000D02*
X123042000Y-79862000D01*
X123042000Y-79862000D02*
X115570000Y-72390000D01*
X114808000Y-122428000D02*
X123042000Y-114194000D01*
X123042000Y-114194000D02*
X123042000Y-111252000D01*
%TO.N,/IO29*%
X132588000Y-122428000D02*
X132588000Y-124968000D01*
X132588000Y-119380000D02*
X136652000Y-115316000D01*
X132588000Y-122428000D02*
X132588000Y-119380000D01*
X136652000Y-115316000D02*
X136652000Y-107512000D01*
X136652000Y-107512000D02*
X134620000Y-105480000D01*
%TO.N,/IO31*%
X137668000Y-103448000D02*
X134620000Y-100400000D01*
X137668000Y-122428000D02*
X137668000Y-124968000D01*
X137668000Y-122428000D02*
X137668000Y-103448000D01*
%TO.N,/IO4*%
X119380000Y-101600000D02*
X115570000Y-97790000D01*
X119380000Y-113058213D02*
X119380000Y-101600000D01*
X116013213Y-116425000D02*
X116013213Y-116424998D01*
X99568000Y-122428000D02*
X99568000Y-124968000D01*
X116013213Y-116424999D02*
X119380000Y-113058213D01*
X116013213Y-116424998D02*
X116013213Y-116424999D01*
X105571000Y-116425000D02*
X116013213Y-116425000D01*
X99568000Y-122428000D02*
X105571000Y-116425000D01*
%TO.N,/IO9*%
X122487266Y-114105266D02*
X122487266Y-81847266D01*
X112268000Y-122428000D02*
X115062000Y-119634000D01*
X112268000Y-122428000D02*
X112268000Y-124968000D01*
X112268000Y-122428000D02*
X112584081Y-122428000D01*
X122487266Y-81847266D02*
X115570000Y-74930000D01*
X115062000Y-119634000D02*
X116958532Y-119634000D01*
X116958532Y-119634000D02*
X122487266Y-114105266D01*
%TO.N,/IO40*%
X143510000Y-76200000D02*
X134620000Y-67310000D01*
X160528000Y-122428000D02*
X160528000Y-124968000D01*
X143510000Y-113030000D02*
X143510000Y-76200000D01*
X160528000Y-122428000D02*
X160528000Y-121158000D01*
X160528000Y-121158000D02*
X155702000Y-116332000D01*
X146812000Y-116332000D02*
X143510000Y-113030000D01*
X155702000Y-116332000D02*
X146812000Y-116332000D01*
%TO.N,/IO28*%
X136144000Y-109544000D02*
X134620000Y-108020000D01*
X130048000Y-122428000D02*
X130048000Y-124968000D01*
X130048000Y-120650000D02*
X136144000Y-114554000D01*
X136144000Y-114554000D02*
X136144000Y-109544000D01*
X130048000Y-122428000D02*
X130048000Y-120650000D01*
D16*
%TO.N,/IO8*%
X121920000Y-113996538D02*
X116760538Y-119156000D01*
X115570000Y-77470000D02*
X121920000Y-83820000D01*
D17*
X109728000Y-122428000D02*
X109728000Y-124968000D01*
D16*
X113000000Y-119156000D02*
X109728000Y-122428000D01*
X115259994Y-119156000D02*
X114864006Y-119156000D01*
X116760538Y-119156000D02*
X115259994Y-119156000D01*
X121920000Y-83820000D02*
X121920000Y-113996538D01*
X114864006Y-119156000D02*
X113000000Y-119156000D01*
D17*
%TO.N,/IO39*%
X157988000Y-122428000D02*
X157988000Y-124968000D01*
X146558000Y-116840000D02*
X143002000Y-113284000D01*
X143002000Y-113284000D02*
X143002000Y-78232000D01*
X157988000Y-122428000D02*
X157988000Y-121158000D01*
X143002000Y-78232000D02*
X134620000Y-69850000D01*
X157988000Y-121158000D02*
X153670000Y-116840000D01*
X153670000Y-116840000D02*
X146558000Y-116840000D01*
%TO.N,/IO37*%
X152908000Y-122428000D02*
X152908000Y-121158000D01*
X141986000Y-82296000D02*
X134620000Y-74930000D01*
X141986000Y-113792000D02*
X141986000Y-82296000D01*
X152908000Y-121158000D02*
X149606000Y-117856000D01*
X152908000Y-122428000D02*
X152908000Y-124968000D01*
X149606000Y-117856000D02*
X146050000Y-117856000D01*
X146050000Y-117856000D02*
X141986000Y-113792000D01*
%TO.N,/IO34*%
X145288000Y-122428000D02*
X145288000Y-124968000D01*
X139033000Y-116156064D02*
X139033000Y-97193000D01*
X145288000Y-122411064D02*
X139033000Y-116156064D01*
X145288000Y-122428000D02*
X145288000Y-122411064D01*
X139033000Y-97193000D02*
X134620000Y-92780000D01*
%TO.N,/IO7*%
X120851000Y-113517614D02*
X120851000Y-95451000D01*
X107188000Y-122428000D02*
X107188000Y-124968000D01*
X111826001Y-117789999D02*
X116578617Y-117789998D01*
X116578617Y-117789998D02*
X120851000Y-113517614D01*
X120851000Y-95451000D02*
X115570000Y-90170000D01*
X107188000Y-122428000D02*
X111826001Y-117789999D01*
D15*
%TO.N,Net-(U4-A4)*%
X150876000Y-69850000D02*
X152650000Y-68076000D01*
X152650000Y-68076000D02*
X154940000Y-68076000D01*
X147320000Y-69850000D02*
X150876000Y-69850000D01*
%TO.N,Net-(U4-A8)*%
X156051000Y-57916000D02*
X155702000Y-58265000D01*
X157480000Y-57916000D02*
X156051000Y-57916000D01*
X147320000Y-59690000D02*
X148745000Y-58265000D01*
X148745000Y-58265000D02*
X155702000Y-58265000D01*
%TD*%
%TA.AperFunction,Conductor*%
%TO.N,GND*%
G36*
X170938000Y-124534988D02*
G01*
X170880993Y-124502075D01*
X170753826Y-124468000D01*
X170622174Y-124468000D01*
X170495007Y-124502075D01*
X170438000Y-124534988D01*
X170438000Y-122861012D01*
X170495007Y-122893925D01*
X170622174Y-122928000D01*
X170753826Y-122928000D01*
X170880993Y-122893925D01*
X170938000Y-122861012D01*
X170938000Y-124534988D01*
G37*
%TD.AperFunction*%
%TA.AperFunction,Conductor*%
G36*
X156227227Y-81301389D02*
G01*
X156239808Y-81300850D01*
X156259673Y-81312445D01*
X156281445Y-81319865D01*
X156290719Y-81330568D01*
X156300150Y-81336073D01*
X156320485Y-81364919D01*
X156367715Y-81457614D01*
X156488028Y-81623213D01*
X156632786Y-81767971D01*
X156718267Y-81830075D01*
X156798390Y-81888287D01*
X156914607Y-81947503D01*
X156980776Y-81981218D01*
X156980778Y-81981218D01*
X156980781Y-81981220D01*
X157085137Y-82015127D01*
X157175465Y-82044477D01*
X157276557Y-82060488D01*
X157377648Y-82076500D01*
X157377649Y-82076500D01*
X157582351Y-82076500D01*
X157582352Y-82076500D01*
X157784534Y-82044477D01*
X157979219Y-81981220D01*
X158161610Y-81888287D01*
X158162689Y-81887502D01*
X158163615Y-81886831D01*
X158164506Y-81886513D01*
X158165766Y-81885741D01*
X158165928Y-81886005D01*
X158229421Y-81863351D01*
X158297475Y-81879177D01*
X158346170Y-81929283D01*
X158360500Y-81987149D01*
X158360500Y-83624850D01*
X158340815Y-83691889D01*
X158288011Y-83737644D01*
X158218853Y-83747588D01*
X158165871Y-83726087D01*
X158165766Y-83726259D01*
X158164729Y-83725623D01*
X158163626Y-83725176D01*
X158161616Y-83723716D01*
X157979223Y-83630781D01*
X157784534Y-83567522D01*
X157609995Y-83539878D01*
X157582352Y-83535500D01*
X157377648Y-83535500D01*
X157353329Y-83539351D01*
X157175465Y-83567522D01*
X156980776Y-83630781D01*
X156798386Y-83723715D01*
X156632786Y-83844028D01*
X156488028Y-83988786D01*
X156367715Y-84154386D01*
X156320485Y-84247080D01*
X156272510Y-84297876D01*
X156204689Y-84314671D01*
X156138554Y-84292134D01*
X156099515Y-84247080D01*
X156059075Y-84167713D01*
X156052287Y-84154390D01*
X156027924Y-84120857D01*
X155931971Y-83988786D01*
X155787213Y-83844028D01*
X155621613Y-83723715D01*
X155621612Y-83723714D01*
X155621610Y-83723713D01*
X155559152Y-83691889D01*
X155439223Y-83630781D01*
X155244534Y-83567522D01*
X155069995Y-83539878D01*
X155042352Y-83535500D01*
X154837648Y-83535500D01*
X154813329Y-83539351D01*
X154635465Y-83567522D01*
X154440776Y-83630781D01*
X154258386Y-83723715D01*
X154092786Y-83844028D01*
X153948028Y-83988786D01*
X153827715Y-84154386D01*
X153734781Y-84336776D01*
X153671522Y-84531465D01*
X153639500Y-84733648D01*
X153639500Y-84938351D01*
X153672285Y-85145346D01*
X153670252Y-85145667D01*
X153667165Y-85206834D01*
X153637781Y-85253627D01*
X151205181Y-87686228D01*
X151143858Y-87719713D01*
X151074166Y-87714729D01*
X151018233Y-87672857D01*
X150993816Y-87607393D01*
X150993500Y-87598547D01*
X150993500Y-85658451D01*
X151013185Y-85591412D01*
X151029814Y-85570775D01*
X154522373Y-82078215D01*
X154583694Y-82044732D01*
X154630410Y-82045249D01*
X154630654Y-82043715D01*
X154734101Y-82060099D01*
X154837648Y-82076500D01*
X154837649Y-82076500D01*
X155042351Y-82076500D01*
X155042352Y-82076500D01*
X155244534Y-82044477D01*
X155439219Y-81981220D01*
X155621610Y-81888287D01*
X155747298Y-81796970D01*
X155787213Y-81767971D01*
X155787215Y-81767968D01*
X155787219Y-81767966D01*
X155931966Y-81623219D01*
X155931968Y-81623215D01*
X155931971Y-81623213D01*
X156052284Y-81457614D01*
X156052283Y-81457614D01*
X156052287Y-81457610D01*
X156099516Y-81364917D01*
X156108161Y-81355764D01*
X156112896Y-81344099D01*
X156131693Y-81330847D01*
X156147489Y-81314123D01*
X156159711Y-81311096D01*
X156170002Y-81303842D01*
X156192982Y-81302856D01*
X156215310Y-81297328D01*
X156227227Y-81301389D01*
G37*
%TD.AperFunction*%
%TA.AperFunction,Conductor*%
G36*
X109470000Y-81862988D02*
G01*
X109412993Y-81830075D01*
X109285826Y-81796000D01*
X109154174Y-81796000D01*
X109027007Y-81830075D01*
X108970000Y-81862988D01*
X108970000Y-80189012D01*
X109027007Y-80221925D01*
X109154174Y-80256000D01*
X109285826Y-80256000D01*
X109412993Y-80221925D01*
X109470000Y-80189012D01*
X109470000Y-81862988D01*
G37*
%TD.AperFunction*%
%TA.AperFunction,Conductor*%
G36*
X160732539Y-52590185D02*
G01*
X160778294Y-52642989D01*
X160789500Y-52694500D01*
X160789500Y-109218876D01*
X160789210Y-109283651D01*
X160789500Y-109284753D01*
X160789500Y-109285893D01*
X160806203Y-109348235D01*
X160806204Y-109348235D01*
X160806259Y-109348439D01*
X160822748Y-109411097D01*
X160823313Y-109412086D01*
X160823608Y-109413186D01*
X160855875Y-109469074D01*
X160855874Y-109469074D01*
X160856081Y-109469434D01*
X160888129Y-109525519D01*
X160888929Y-109526326D01*
X160889501Y-109527316D01*
X160935009Y-109572823D01*
X160935402Y-109573217D01*
X160971606Y-109609747D01*
X160980896Y-109619120D01*
X160980899Y-109619122D01*
X160982011Y-109619983D01*
X160982011Y-109619984D01*
X160982013Y-109619985D01*
X160982655Y-109620482D01*
X160982685Y-109620499D01*
X160982686Y-109620500D01*
X161038830Y-109652915D01*
X175967980Y-118361584D01*
X176015969Y-118412367D01*
X176029500Y-118468693D01*
X176029500Y-127645500D01*
X176009815Y-127712539D01*
X175957011Y-127758294D01*
X175905500Y-127769500D01*
X86984500Y-127769500D01*
X86917461Y-127749815D01*
X86871706Y-127697011D01*
X86860500Y-127645500D01*
X86860500Y-122321713D01*
X88057500Y-122321713D01*
X88057500Y-122534286D01*
X88090753Y-122744239D01*
X88156444Y-122946414D01*
X88252951Y-123135820D01*
X88377890Y-123307786D01*
X88491430Y-123421326D01*
X88524915Y-123482649D01*
X88519931Y-123552341D01*
X88478059Y-123608274D01*
X88447083Y-123625189D01*
X88315669Y-123674203D01*
X88315664Y-123674206D01*
X88200455Y-123760452D01*
X88200452Y-123760455D01*
X88114206Y-123875664D01*
X88114202Y-123875671D01*
X88063908Y-124010517D01*
X88057501Y-124070116D01*
X88057500Y-124070135D01*
X88057500Y-125865870D01*
X88057501Y-125865876D01*
X88063908Y-125925483D01*
X88114202Y-126060328D01*
X88114206Y-126060335D01*
X88200452Y-126175544D01*
X88200455Y-126175547D01*
X88315664Y-126261793D01*
X88315671Y-126261797D01*
X88450517Y-126312091D01*
X88450516Y-126312091D01*
X88457444Y-126312835D01*
X88510127Y-126318500D01*
X90305872Y-126318499D01*
X90365483Y-126312091D01*
X90500331Y-126261796D01*
X90615546Y-126175546D01*
X90701796Y-126060331D01*
X90750810Y-125928916D01*
X90792681Y-125872984D01*
X90858145Y-125848566D01*
X90926418Y-125863417D01*
X90954673Y-125884569D01*
X91068213Y-125998109D01*
X91240179Y-126123048D01*
X91240181Y-126123049D01*
X91240184Y-126123051D01*
X91429588Y-126219557D01*
X91631757Y-126285246D01*
X91841713Y-126318500D01*
X91841714Y-126318500D01*
X92054286Y-126318500D01*
X92054287Y-126318500D01*
X92264243Y-126285246D01*
X92466412Y-126219557D01*
X92655816Y-126123051D01*
X92742138Y-126060335D01*
X92827786Y-125998109D01*
X92827788Y-125998106D01*
X92827792Y-125998104D01*
X92978104Y-125847792D01*
X92978106Y-125847788D01*
X92978109Y-125847786D01*
X93103048Y-125675820D01*
X93103047Y-125675820D01*
X93103051Y-125675816D01*
X93107514Y-125667054D01*
X93155488Y-125616259D01*
X93223308Y-125599463D01*
X93289444Y-125621999D01*
X93328486Y-125667056D01*
X93332951Y-125675820D01*
X93457890Y-125847786D01*
X93608213Y-125998109D01*
X93780179Y-126123048D01*
X93780181Y-126123049D01*
X93780184Y-126123051D01*
X93969588Y-126219557D01*
X94171757Y-126285246D01*
X94381713Y-126318500D01*
X94381714Y-126318500D01*
X94594286Y-126318500D01*
X94594287Y-126318500D01*
X94804243Y-126285246D01*
X95006412Y-126219557D01*
X95195816Y-126123051D01*
X95282138Y-126060335D01*
X95367786Y-125998109D01*
X95367788Y-125998106D01*
X95367792Y-125998104D01*
X95518104Y-125847792D01*
X95518106Y-125847788D01*
X95518109Y-125847786D01*
X95643048Y-125675820D01*
X95643047Y-125675820D01*
X95643051Y-125675816D01*
X95647514Y-125667054D01*
X95695488Y-125616259D01*
X95763308Y-125599463D01*
X95829444Y-125621999D01*
X95868486Y-125667056D01*
X95872951Y-125675820D01*
X95997890Y-125847786D01*
X96148213Y-125998109D01*
X96320179Y-126123048D01*
X96320181Y-126123049D01*
X96320184Y-126123051D01*
X96509588Y-126219557D01*
X96711757Y-126285246D01*
X96921713Y-126318500D01*
X96921714Y-126318500D01*
X97134286Y-126318500D01*
X97134287Y-126318500D01*
X97344243Y-126285246D01*
X97546412Y-126219557D01*
X97735816Y-126123051D01*
X97822138Y-126060335D01*
X97907786Y-125998109D01*
X97907788Y-125998106D01*
X97907792Y-125998104D01*
X98058104Y-125847792D01*
X98058106Y-125847788D01*
X98058109Y-125847786D01*
X98183048Y-125675820D01*
X98183047Y-125675820D01*
X98183051Y-125675816D01*
X98187514Y-125667054D01*
X98235488Y-125616259D01*
X98303308Y-125599463D01*
X98369444Y-125621999D01*
X98408486Y-125667056D01*
X98412951Y-125675820D01*
X98537890Y-125847786D01*
X98688213Y-125998109D01*
X98860179Y-126123048D01*
X98860181Y-126123049D01*
X98860184Y-126123051D01*
X99049588Y-126219557D01*
X99251757Y-126285246D01*
X99461713Y-126318500D01*
X99461714Y-126318500D01*
X99674286Y-126318500D01*
X99674287Y-126318500D01*
X99884243Y-126285246D01*
X100086412Y-126219557D01*
X100275816Y-126123051D01*
X100362138Y-126060335D01*
X100447786Y-125998109D01*
X100447788Y-125998106D01*
X100447792Y-125998104D01*
X100598104Y-125847792D01*
X100598106Y-125847788D01*
X100598109Y-125847786D01*
X100723048Y-125675820D01*
X100723047Y-125675820D01*
X100723051Y-125675816D01*
X100727514Y-125667054D01*
X100775488Y-125616259D01*
X100843308Y-125599463D01*
X100909444Y-125621999D01*
X100948486Y-125667056D01*
X100952951Y-125675820D01*
X101077890Y-125847786D01*
X101228213Y-125998109D01*
X101400179Y-126123048D01*
X101400181Y-126123049D01*
X101400184Y-126123051D01*
X101589588Y-126219557D01*
X101791757Y-126285246D01*
X102001713Y-126318500D01*
X102001714Y-126318500D01*
X102214286Y-126318500D01*
X102214287Y-126318500D01*
X102424243Y-126285246D01*
X102626412Y-126219557D01*
X102815816Y-126123051D01*
X102902138Y-126060335D01*
X102987786Y-125998109D01*
X102987788Y-125998106D01*
X102987792Y-125998104D01*
X103138104Y-125847792D01*
X103138106Y-125847788D01*
X103138109Y-125847786D01*
X103263048Y-125675820D01*
X103263047Y-125675820D01*
X103263051Y-125675816D01*
X103267514Y-125667054D01*
X103315488Y-125616259D01*
X103383308Y-125599463D01*
X103449444Y-125621999D01*
X103488486Y-125667056D01*
X103492951Y-125675820D01*
X103617890Y-125847786D01*
X103768213Y-125998109D01*
X103940179Y-126123048D01*
X103940181Y-126123049D01*
X103940184Y-126123051D01*
X104129588Y-126219557D01*
X104331757Y-126285246D01*
X104541713Y-126318500D01*
X104541714Y-126318500D01*
X104754286Y-126318500D01*
X104754287Y-126318500D01*
X104964243Y-126285246D01*
X105166412Y-126219557D01*
X105355816Y-126123051D01*
X105442138Y-126060335D01*
X105527786Y-125998109D01*
X105527788Y-125998106D01*
X105527792Y-125998104D01*
X105678104Y-125847792D01*
X105678106Y-125847788D01*
X105678109Y-125847786D01*
X105803048Y-125675820D01*
X105803047Y-125675820D01*
X105803051Y-125675816D01*
X105807514Y-125667054D01*
X105855488Y-125616259D01*
X105923308Y-125599463D01*
X105989444Y-125621999D01*
X106028486Y-125667056D01*
X106032951Y-125675820D01*
X106157890Y-125847786D01*
X106308213Y-125998109D01*
X106480179Y-126123048D01*
X106480181Y-126123049D01*
X106480184Y-126123051D01*
X106669588Y-126219557D01*
X106871757Y-126285246D01*
X107081713Y-126318500D01*
X107081714Y-126318500D01*
X107294286Y-126318500D01*
X107294287Y-126318500D01*
X107504243Y-126285246D01*
X107706412Y-126219557D01*
X107895816Y-126123051D01*
X107982138Y-126060335D01*
X108067786Y-125998109D01*
X108067788Y-125998106D01*
X108067792Y-125998104D01*
X108218104Y-125847792D01*
X108218106Y-125847788D01*
X108218109Y-125847786D01*
X108343048Y-125675820D01*
X108343047Y-125675820D01*
X108343051Y-125675816D01*
X108347514Y-125667054D01*
X108395488Y-125616259D01*
X108463308Y-125599463D01*
X108529444Y-125621999D01*
X108568486Y-125667056D01*
X108572951Y-125675820D01*
X108697890Y-125847786D01*
X108848213Y-125998109D01*
X109020179Y-126123048D01*
X109020181Y-126123049D01*
X109020184Y-126123051D01*
X109209588Y-126219557D01*
X109411757Y-126285246D01*
X109621713Y-126318500D01*
X109621714Y-126318500D01*
X109834286Y-126318500D01*
X109834287Y-126318500D01*
X110044243Y-126285246D01*
X110246412Y-126219557D01*
X110435816Y-126123051D01*
X110522138Y-126060335D01*
X110607786Y-125998109D01*
X110607788Y-125998106D01*
X110607792Y-125998104D01*
X110758104Y-125847792D01*
X110758106Y-125847788D01*
X110758109Y-125847786D01*
X110883048Y-125675820D01*
X110883047Y-125675820D01*
X110883051Y-125675816D01*
X110887514Y-125667054D01*
X110935488Y-125616259D01*
X111003308Y-125599463D01*
X111069444Y-125621999D01*
X111108486Y-125667056D01*
X111112951Y-125675820D01*
X111237890Y-125847786D01*
X111388213Y-125998109D01*
X111560179Y-126123048D01*
X111560181Y-126123049D01*
X111560184Y-126123051D01*
X111749588Y-126219557D01*
X111951757Y-126285246D01*
X112161713Y-126318500D01*
X112161714Y-126318500D01*
X112374286Y-126318500D01*
X112374287Y-126318500D01*
X112584243Y-126285246D01*
X112786412Y-126219557D01*
X112975816Y-126123051D01*
X113062138Y-126060335D01*
X113147786Y-125998109D01*
X113147788Y-125998106D01*
X113147792Y-125998104D01*
X113298104Y-125847792D01*
X113298106Y-125847788D01*
X113298109Y-125847786D01*
X113423048Y-125675820D01*
X113423047Y-125675820D01*
X113423051Y-125675816D01*
X113427514Y-125667054D01*
X113475488Y-125616259D01*
X113543308Y-125599463D01*
X113609444Y-125621999D01*
X113648486Y-125667056D01*
X113652951Y-125675820D01*
X113777890Y-125847786D01*
X113928213Y-125998109D01*
X114100179Y-126123048D01*
X114100181Y-126123049D01*
X114100184Y-126123051D01*
X114289588Y-126219557D01*
X114491757Y-126285246D01*
X114701713Y-126318500D01*
X114701714Y-126318500D01*
X114914286Y-126318500D01*
X114914287Y-126318500D01*
X115124243Y-126285246D01*
X115326412Y-126219557D01*
X115515816Y-126123051D01*
X115602138Y-126060335D01*
X115687786Y-125998109D01*
X115687788Y-125998106D01*
X115687792Y-125998104D01*
X115838104Y-125847792D01*
X115838106Y-125847788D01*
X115838109Y-125847786D01*
X115963048Y-125675820D01*
X115963047Y-125675820D01*
X115963051Y-125675816D01*
X115967514Y-125667054D01*
X116015488Y-125616259D01*
X116083308Y-125599463D01*
X116149444Y-125621999D01*
X116188486Y-125667056D01*
X116192951Y-125675820D01*
X116317890Y-125847786D01*
X116468213Y-125998109D01*
X116640179Y-126123048D01*
X116640181Y-126123049D01*
X116640184Y-126123051D01*
X116829588Y-126219557D01*
X117031757Y-126285246D01*
X117241713Y-126318500D01*
X117241714Y-126318500D01*
X117454286Y-126318500D01*
X117454287Y-126318500D01*
X117664243Y-126285246D01*
X117866412Y-126219557D01*
X118055816Y-126123051D01*
X118142138Y-126060335D01*
X118227786Y-125998109D01*
X118227788Y-125998106D01*
X118227792Y-125998104D01*
X118378104Y-125847792D01*
X118378106Y-125847788D01*
X118378109Y-125847786D01*
X118503048Y-125675820D01*
X118503047Y-125675820D01*
X118503051Y-125675816D01*
X118507514Y-125667054D01*
X118555488Y-125616259D01*
X118623308Y-125599463D01*
X118689444Y-125621999D01*
X118728486Y-125667056D01*
X118732951Y-125675820D01*
X118857890Y-125847786D01*
X119008213Y-125998109D01*
X119180179Y-126123048D01*
X119180181Y-126123049D01*
X119180184Y-126123051D01*
X119369588Y-126219557D01*
X119571757Y-126285246D01*
X119781713Y-126318500D01*
X119781714Y-126318500D01*
X119994286Y-126318500D01*
X119994287Y-126318500D01*
X120204243Y-126285246D01*
X120406412Y-126219557D01*
X120595816Y-126123051D01*
X120682138Y-126060335D01*
X120767786Y-125998109D01*
X120767788Y-125998106D01*
X120767792Y-125998104D01*
X120918104Y-125847792D01*
X120918106Y-125847788D01*
X120918109Y-125847786D01*
X121043048Y-125675820D01*
X121043047Y-125675820D01*
X121043051Y-125675816D01*
X121047514Y-125667054D01*
X121095488Y-125616259D01*
X121163308Y-125599463D01*
X121229444Y-125621999D01*
X121268486Y-125667056D01*
X121272951Y-125675820D01*
X121397890Y-125847786D01*
X121548213Y-125998109D01*
X121720179Y-126123048D01*
X121720181Y-126123049D01*
X121720184Y-126123051D01*
X121909588Y-126219557D01*
X122111757Y-126285246D01*
X122321713Y-126318500D01*
X122321714Y-126318500D01*
X122534286Y-126318500D01*
X122534287Y-126318500D01*
X122744243Y-126285246D01*
X122946412Y-126219557D01*
X123135816Y-126123051D01*
X123222138Y-126060335D01*
X123307786Y-125998109D01*
X123307788Y-125998106D01*
X123307792Y-125998104D01*
X123458104Y-125847792D01*
X123458106Y-125847788D01*
X123458109Y-125847786D01*
X123583048Y-125675820D01*
X123583047Y-125675820D01*
X123583051Y-125675816D01*
X123587514Y-125667054D01*
X123635488Y-125616259D01*
X123703308Y-125599463D01*
X123769444Y-125621999D01*
X123808486Y-125667056D01*
X123812951Y-125675820D01*
X123937890Y-125847786D01*
X124088213Y-125998109D01*
X124260179Y-126123048D01*
X124260181Y-126123049D01*
X124260184Y-126123051D01*
X124449588Y-126219557D01*
X124651757Y-126285246D01*
X124861713Y-126318500D01*
X124861714Y-126318500D01*
X125074286Y-126318500D01*
X125074287Y-126318500D01*
X125284243Y-126285246D01*
X125486412Y-126219557D01*
X125675816Y-126123051D01*
X125762138Y-126060335D01*
X125847786Y-125998109D01*
X125847788Y-125998106D01*
X125847792Y-125998104D01*
X125998104Y-125847792D01*
X125998106Y-125847788D01*
X125998109Y-125847786D01*
X126123048Y-125675820D01*
X126123047Y-125675820D01*
X126123051Y-125675816D01*
X126127514Y-125667054D01*
X126175488Y-125616259D01*
X126243308Y-125599463D01*
X126309444Y-125621999D01*
X126348486Y-125667056D01*
X126352951Y-125675820D01*
X126477890Y-125847786D01*
X126628213Y-125998109D01*
X126800179Y-126123048D01*
X126800181Y-126123049D01*
X126800184Y-126123051D01*
X126989588Y-126219557D01*
X127191757Y-126285246D01*
X127401713Y-126318500D01*
X127401714Y-126318500D01*
X127614286Y-126318500D01*
X127614287Y-126318500D01*
X127824243Y-126285246D01*
X128026412Y-126219557D01*
X128215816Y-126123051D01*
X128302138Y-126060335D01*
X128387786Y-125998109D01*
X128387788Y-125998106D01*
X128387792Y-125998104D01*
X128538104Y-125847792D01*
X128538106Y-125847788D01*
X128538109Y-125847786D01*
X128663048Y-125675820D01*
X128663047Y-125675820D01*
X128663051Y-125675816D01*
X128667514Y-125667054D01*
X128715488Y-125616259D01*
X128783308Y-125599463D01*
X128849444Y-125621999D01*
X128888486Y-125667056D01*
X128892951Y-125675820D01*
X129017890Y-125847786D01*
X129168213Y-125998109D01*
X129340179Y-126123048D01*
X129340181Y-126123049D01*
X129340184Y-126123051D01*
X129529588Y-126219557D01*
X129731757Y-126285246D01*
X129941713Y-126318500D01*
X129941714Y-126318500D01*
X130154286Y-126318500D01*
X130154287Y-126318500D01*
X130364243Y-126285246D01*
X130566412Y-126219557D01*
X130755816Y-126123051D01*
X130842138Y-126060335D01*
X130927786Y-125998109D01*
X130927788Y-125998106D01*
X130927792Y-125998104D01*
X131078104Y-125847792D01*
X131078106Y-125847788D01*
X131078109Y-125847786D01*
X131203048Y-125675820D01*
X131203047Y-125675820D01*
X131203051Y-125675816D01*
X131207514Y-125667054D01*
X131255488Y-125616259D01*
X131323308Y-125599463D01*
X131389444Y-125621999D01*
X131428486Y-125667056D01*
X131432951Y-125675820D01*
X131557890Y-125847786D01*
X131708213Y-125998109D01*
X131880179Y-126123048D01*
X131880181Y-126123049D01*
X131880184Y-126123051D01*
X132069588Y-126219557D01*
X132271757Y-126285246D01*
X132481713Y-126318500D01*
X132481714Y-126318500D01*
X132694286Y-126318500D01*
X132694287Y-126318500D01*
X132904243Y-126285246D01*
X133106412Y-126219557D01*
X133295816Y-126123051D01*
X133382138Y-126060335D01*
X133467786Y-125998109D01*
X133467788Y-125998106D01*
X133467792Y-125998104D01*
X133618104Y-125847792D01*
X133618106Y-125847788D01*
X133618109Y-125847786D01*
X133743048Y-125675820D01*
X133743047Y-125675820D01*
X133743051Y-125675816D01*
X133747514Y-125667054D01*
X133795488Y-125616259D01*
X133863308Y-125599463D01*
X133929444Y-125621999D01*
X133968486Y-125667056D01*
X133972951Y-125675820D01*
X134097890Y-125847786D01*
X134248213Y-125998109D01*
X134420179Y-126123048D01*
X134420181Y-126123049D01*
X134420184Y-126123051D01*
X134609588Y-126219557D01*
X134811757Y-126285246D01*
X135021713Y-126318500D01*
X135021714Y-126318500D01*
X135234286Y-126318500D01*
X135234287Y-126318500D01*
X135444243Y-126285246D01*
X135646412Y-126219557D01*
X135835816Y-126123051D01*
X135922138Y-126060335D01*
X136007786Y-125998109D01*
X136007788Y-125998106D01*
X136007792Y-125998104D01*
X136158104Y-125847792D01*
X136158106Y-125847788D01*
X136158109Y-125847786D01*
X136283048Y-125675820D01*
X136283047Y-125675820D01*
X136283051Y-125675816D01*
X136287514Y-125667054D01*
X136335488Y-125616259D01*
X136403308Y-125599463D01*
X136469444Y-125621999D01*
X136508486Y-125667056D01*
X136512951Y-125675820D01*
X136637890Y-125847786D01*
X136788213Y-125998109D01*
X136960179Y-126123048D01*
X136960181Y-126123049D01*
X136960184Y-126123051D01*
X137149588Y-126219557D01*
X137351757Y-126285246D01*
X137561713Y-126318500D01*
X137561714Y-126318500D01*
X137774286Y-126318500D01*
X137774287Y-126318500D01*
X137984243Y-126285246D01*
X138186412Y-126219557D01*
X138375816Y-126123051D01*
X138462138Y-126060335D01*
X138547786Y-125998109D01*
X138547788Y-125998106D01*
X138547792Y-125998104D01*
X138698104Y-125847792D01*
X138698106Y-125847788D01*
X138698109Y-125847786D01*
X138823048Y-125675820D01*
X138823047Y-125675820D01*
X138823051Y-125675816D01*
X138827514Y-125667054D01*
X138875488Y-125616259D01*
X138943308Y-125599463D01*
X139009444Y-125621999D01*
X139048486Y-125667056D01*
X139052951Y-125675820D01*
X139177890Y-125847786D01*
X139328213Y-125998109D01*
X139500179Y-126123048D01*
X139500181Y-126123049D01*
X139500184Y-126123051D01*
X139689588Y-126219557D01*
X139891757Y-126285246D01*
X140101713Y-126318500D01*
X140101714Y-126318500D01*
X140314286Y-126318500D01*
X140314287Y-126318500D01*
X140524243Y-126285246D01*
X140726412Y-126219557D01*
X140915816Y-126123051D01*
X141002138Y-126060335D01*
X141087786Y-125998109D01*
X141087788Y-125998106D01*
X141087792Y-125998104D01*
X141238104Y-125847792D01*
X141238106Y-125847788D01*
X141238109Y-125847786D01*
X141363048Y-125675820D01*
X141363047Y-125675820D01*
X141363051Y-125675816D01*
X141367514Y-125667054D01*
X141415488Y-125616259D01*
X141483308Y-125599463D01*
X141549444Y-125621999D01*
X141588486Y-125667056D01*
X141592951Y-125675820D01*
X141717890Y-125847786D01*
X141868213Y-125998109D01*
X142040179Y-126123048D01*
X142040181Y-126123049D01*
X142040184Y-126123051D01*
X142229588Y-126219557D01*
X142431757Y-126285246D01*
X142641713Y-126318500D01*
X142641714Y-126318500D01*
X142854286Y-126318500D01*
X142854287Y-126318500D01*
X143064243Y-126285246D01*
X143266412Y-126219557D01*
X143455816Y-126123051D01*
X143542138Y-126060335D01*
X143627786Y-125998109D01*
X143627788Y-125998106D01*
X143627792Y-125998104D01*
X143778104Y-125847792D01*
X143778106Y-125847788D01*
X143778109Y-125847786D01*
X143903048Y-125675820D01*
X143903047Y-125675820D01*
X143903051Y-125675816D01*
X143907514Y-125667054D01*
X143955488Y-125616259D01*
X144023308Y-125599463D01*
X144089444Y-125621999D01*
X144128486Y-125667056D01*
X144132951Y-125675820D01*
X144257890Y-125847786D01*
X144408213Y-125998109D01*
X144580179Y-126123048D01*
X144580181Y-126123049D01*
X144580184Y-126123051D01*
X144769588Y-126219557D01*
X144971757Y-126285246D01*
X145181713Y-126318500D01*
X145181714Y-126318500D01*
X145394286Y-126318500D01*
X145394287Y-126318500D01*
X145604243Y-126285246D01*
X145806412Y-126219557D01*
X145995816Y-126123051D01*
X146082138Y-126060335D01*
X146167786Y-125998109D01*
X146167788Y-125998106D01*
X146167792Y-125998104D01*
X146318104Y-125847792D01*
X146318106Y-125847788D01*
X146318109Y-125847786D01*
X146443048Y-125675820D01*
X146443047Y-125675820D01*
X146443051Y-125675816D01*
X146447514Y-125667054D01*
X146495488Y-125616259D01*
X146563308Y-125599463D01*
X146629444Y-125621999D01*
X146668486Y-125667056D01*
X146672951Y-125675820D01*
X146797890Y-125847786D01*
X146948213Y-125998109D01*
X147120179Y-126123048D01*
X147120181Y-126123049D01*
X147120184Y-126123051D01*
X147309588Y-126219557D01*
X147511757Y-126285246D01*
X147721713Y-126318500D01*
X147721714Y-126318500D01*
X147934286Y-126318500D01*
X147934287Y-126318500D01*
X148144243Y-126285246D01*
X148346412Y-126219557D01*
X148535816Y-126123051D01*
X148622138Y-126060335D01*
X148707786Y-125998109D01*
X148707788Y-125998106D01*
X148707792Y-125998104D01*
X148858104Y-125847792D01*
X148858106Y-125847788D01*
X148858109Y-125847786D01*
X148983048Y-125675820D01*
X148983047Y-125675820D01*
X148983051Y-125675816D01*
X148987514Y-125667054D01*
X149035488Y-125616259D01*
X149103308Y-125599463D01*
X149169444Y-125621999D01*
X149208486Y-125667056D01*
X149212951Y-125675820D01*
X149337890Y-125847786D01*
X149488213Y-125998109D01*
X149660179Y-126123048D01*
X149660181Y-126123049D01*
X149660184Y-126123051D01*
X149849588Y-126219557D01*
X150051757Y-126285246D01*
X150261713Y-126318500D01*
X150261714Y-126318500D01*
X150474286Y-126318500D01*
X150474287Y-126318500D01*
X150684243Y-126285246D01*
X150886412Y-126219557D01*
X151075816Y-126123051D01*
X151162138Y-126060335D01*
X151247786Y-125998109D01*
X151247788Y-125998106D01*
X151247792Y-125998104D01*
X151398104Y-125847792D01*
X151398106Y-125847788D01*
X151398109Y-125847786D01*
X151523048Y-125675820D01*
X151523047Y-125675820D01*
X151523051Y-125675816D01*
X151527514Y-125667054D01*
X151575488Y-125616259D01*
X151643308Y-125599463D01*
X151709444Y-125621999D01*
X151748486Y-125667056D01*
X151752951Y-125675820D01*
X151877890Y-125847786D01*
X152028213Y-125998109D01*
X152200179Y-126123048D01*
X152200181Y-126123049D01*
X152200184Y-126123051D01*
X152389588Y-126219557D01*
X152591757Y-126285246D01*
X152801713Y-126318500D01*
X152801714Y-126318500D01*
X153014286Y-126318500D01*
X153014287Y-126318500D01*
X153224243Y-126285246D01*
X153426412Y-126219557D01*
X153615816Y-126123051D01*
X153702138Y-126060335D01*
X153787786Y-125998109D01*
X153787788Y-125998106D01*
X153787792Y-125998104D01*
X153938104Y-125847792D01*
X153938106Y-125847788D01*
X153938109Y-125847786D01*
X154063048Y-125675820D01*
X154063047Y-125675820D01*
X154063051Y-125675816D01*
X154067514Y-125667054D01*
X154115488Y-125616259D01*
X154183308Y-125599463D01*
X154249444Y-125621999D01*
X154288486Y-125667056D01*
X154292951Y-125675820D01*
X154417890Y-125847786D01*
X154568213Y-125998109D01*
X154740179Y-126123048D01*
X154740181Y-126123049D01*
X154740184Y-126123051D01*
X154929588Y-126219557D01*
X155131757Y-126285246D01*
X155341713Y-126318500D01*
X155341714Y-126318500D01*
X155554286Y-126318500D01*
X155554287Y-126318500D01*
X155764243Y-126285246D01*
X155966412Y-126219557D01*
X156155816Y-126123051D01*
X156242138Y-126060335D01*
X156327786Y-125998109D01*
X156327788Y-125998106D01*
X156327792Y-125998104D01*
X156478104Y-125847792D01*
X156478106Y-125847788D01*
X156478109Y-125847786D01*
X156603048Y-125675820D01*
X156603047Y-125675820D01*
X156603051Y-125675816D01*
X156607514Y-125667054D01*
X156655488Y-125616259D01*
X156723308Y-125599463D01*
X156789444Y-125621999D01*
X156828486Y-125667056D01*
X156832951Y-125675820D01*
X156957890Y-125847786D01*
X157108213Y-125998109D01*
X157280179Y-126123048D01*
X157280181Y-126123049D01*
X157280184Y-126123051D01*
X157469588Y-126219557D01*
X157671757Y-126285246D01*
X157881713Y-126318500D01*
X157881714Y-126318500D01*
X158094286Y-126318500D01*
X158094287Y-126318500D01*
X158304243Y-126285246D01*
X158506412Y-126219557D01*
X158695816Y-126123051D01*
X158782138Y-126060335D01*
X158867786Y-125998109D01*
X158867788Y-125998106D01*
X158867792Y-125998104D01*
X159018104Y-125847792D01*
X159018106Y-125847788D01*
X159018109Y-125847786D01*
X159143048Y-125675820D01*
X159143047Y-125675820D01*
X159143051Y-125675816D01*
X159147514Y-125667054D01*
X159195488Y-125616259D01*
X159263308Y-125599463D01*
X159329444Y-125621999D01*
X159368486Y-125667056D01*
X159372951Y-125675820D01*
X159497890Y-125847786D01*
X159648213Y-125998109D01*
X159820179Y-126123048D01*
X159820181Y-126123049D01*
X159820184Y-126123051D01*
X160009588Y-126219557D01*
X160211757Y-126285246D01*
X160421713Y-126318500D01*
X160421714Y-126318500D01*
X160634286Y-126318500D01*
X160634287Y-126318500D01*
X160844243Y-126285246D01*
X161046412Y-126219557D01*
X161235816Y-126123051D01*
X161322138Y-126060335D01*
X161407786Y-125998109D01*
X161407788Y-125998106D01*
X161407792Y-125998104D01*
X161558104Y-125847792D01*
X161558106Y-125847788D01*
X161558109Y-125847786D01*
X161683048Y-125675820D01*
X161683047Y-125675820D01*
X161683051Y-125675816D01*
X161687514Y-125667054D01*
X161735488Y-125616259D01*
X161803308Y-125599463D01*
X161869444Y-125621999D01*
X161908486Y-125667056D01*
X161912951Y-125675820D01*
X162037890Y-125847786D01*
X162188213Y-125998109D01*
X162360179Y-126123048D01*
X162360181Y-126123049D01*
X162360184Y-126123051D01*
X162549588Y-126219557D01*
X162751757Y-126285246D01*
X162961713Y-126318500D01*
X162961714Y-126318500D01*
X163174286Y-126318500D01*
X163174287Y-126318500D01*
X163384243Y-126285246D01*
X163586412Y-126219557D01*
X163775816Y-126123051D01*
X163862138Y-126060335D01*
X163947786Y-125998109D01*
X163947788Y-125998106D01*
X163947792Y-125998104D01*
X164098104Y-125847792D01*
X164098106Y-125847788D01*
X164098109Y-125847786D01*
X164223048Y-125675820D01*
X164223047Y-125675820D01*
X164223051Y-125675816D01*
X164227514Y-125667054D01*
X164275488Y-125616259D01*
X164343308Y-125599463D01*
X164409444Y-125621999D01*
X164448486Y-125667056D01*
X164452951Y-125675820D01*
X164577890Y-125847786D01*
X164728213Y-125998109D01*
X164900179Y-126123048D01*
X164900181Y-126123049D01*
X164900184Y-126123051D01*
X165089588Y-126219557D01*
X165291757Y-126285246D01*
X165501713Y-126318500D01*
X165501714Y-126318500D01*
X165714286Y-126318500D01*
X165714287Y-126318500D01*
X165924243Y-126285246D01*
X166126412Y-126219557D01*
X166315816Y-126123051D01*
X166402138Y-126060335D01*
X166487786Y-125998109D01*
X166487788Y-125998106D01*
X166487792Y-125998104D01*
X166638104Y-125847792D01*
X166638106Y-125847788D01*
X166638109Y-125847786D01*
X166763048Y-125675820D01*
X166763047Y-125675820D01*
X166763051Y-125675816D01*
X166767514Y-125667054D01*
X166815488Y-125616259D01*
X166883308Y-125599463D01*
X166949444Y-125621999D01*
X166988486Y-125667056D01*
X166992951Y-125675820D01*
X167117890Y-125847786D01*
X167268213Y-125998109D01*
X167440179Y-126123048D01*
X167440181Y-126123049D01*
X167440184Y-126123051D01*
X167629588Y-126219557D01*
X167831757Y-126285246D01*
X168041713Y-126318500D01*
X168041714Y-126318500D01*
X168254286Y-126318500D01*
X168254287Y-126318500D01*
X168464243Y-126285246D01*
X168666412Y-126219557D01*
X168855816Y-126123051D01*
X168942138Y-126060335D01*
X169027786Y-125998109D01*
X169027788Y-125998106D01*
X169027792Y-125998104D01*
X169178104Y-125847792D01*
X169178106Y-125847788D01*
X169178109Y-125847786D01*
X169303048Y-125675820D01*
X169303051Y-125675816D01*
X169307793Y-125666508D01*
X169355763Y-125615711D01*
X169423583Y-125598911D01*
X169489719Y-125621445D01*
X169528763Y-125666500D01*
X169533377Y-125675555D01*
X169658272Y-125847459D01*
X169658276Y-125847464D01*
X169808535Y-125997723D01*
X169808540Y-125997727D01*
X169980442Y-126122620D01*
X170169782Y-126219095D01*
X170371871Y-126284757D01*
X170438000Y-126295231D01*
X170438000Y-125401012D01*
X170495007Y-125433925D01*
X170622174Y-125468000D01*
X170753826Y-125468000D01*
X170880993Y-125433925D01*
X170938000Y-125401012D01*
X170938000Y-126295230D01*
X171004126Y-126284757D01*
X171004129Y-126284757D01*
X171206217Y-126219095D01*
X171395557Y-126122620D01*
X171567459Y-125997727D01*
X171567464Y-125997723D01*
X171717723Y-125847464D01*
X171717727Y-125847459D01*
X171842620Y-125675558D01*
X171847232Y-125666507D01*
X171895205Y-125615709D01*
X171963025Y-125598912D01*
X172029161Y-125621447D01*
X172068204Y-125666504D01*
X172072949Y-125675817D01*
X172197890Y-125847786D01*
X172348213Y-125998109D01*
X172520179Y-126123048D01*
X172520181Y-126123049D01*
X172520184Y-126123051D01*
X172709588Y-126219557D01*
X172911757Y-126285246D01*
X173121713Y-126318500D01*
X173121714Y-126318500D01*
X173334286Y-126318500D01*
X173334287Y-126318500D01*
X173544243Y-126285246D01*
X173746412Y-126219557D01*
X173935816Y-126123051D01*
X174022138Y-126060335D01*
X174107786Y-125998109D01*
X174107788Y-125998106D01*
X174107792Y-125998104D01*
X174258104Y-125847792D01*
X174258106Y-125847788D01*
X174258109Y-125847786D01*
X174383048Y-125675820D01*
X174383047Y-125675820D01*
X174383051Y-125675816D01*
X174479557Y-125486412D01*
X174545246Y-125284243D01*
X174578500Y-125074287D01*
X174578500Y-124861713D01*
X174545246Y-124651757D01*
X174479557Y-124449588D01*
X174383051Y-124260184D01*
X174383049Y-124260181D01*
X174383048Y-124260179D01*
X174258109Y-124088213D01*
X174107786Y-123937890D01*
X173935820Y-123812951D01*
X173935118Y-123812593D01*
X173927054Y-123808485D01*
X173876259Y-123760512D01*
X173859463Y-123692692D01*
X173881999Y-123626556D01*
X173927059Y-123587512D01*
X173935816Y-123583051D01*
X174107792Y-123458104D01*
X174258104Y-123307792D01*
X174258106Y-123307788D01*
X174258109Y-123307786D01*
X174383048Y-123135820D01*
X174383047Y-123135820D01*
X174383051Y-123135816D01*
X174479557Y-122946412D01*
X174545246Y-122744243D01*
X174578500Y-122534287D01*
X174578500Y-122321713D01*
X174545246Y-122111757D01*
X174479557Y-121909588D01*
X174383051Y-121720184D01*
X174383049Y-121720181D01*
X174383048Y-121720179D01*
X174258109Y-121548213D01*
X174107786Y-121397890D01*
X173935820Y-121272951D01*
X173746414Y-121176444D01*
X173746413Y-121176443D01*
X173746412Y-121176443D01*
X173544243Y-121110754D01*
X173544241Y-121110753D01*
X173544240Y-121110753D01*
X173354642Y-121080724D01*
X173334287Y-121077500D01*
X173121713Y-121077500D01*
X173101358Y-121080724D01*
X172911760Y-121110753D01*
X172709585Y-121176444D01*
X172520179Y-121272951D01*
X172348213Y-121397890D01*
X172197890Y-121548213D01*
X172072949Y-121720182D01*
X172068202Y-121729499D01*
X172020227Y-121780293D01*
X171952405Y-121797087D01*
X171886271Y-121774548D01*
X171847234Y-121729495D01*
X171842622Y-121720444D01*
X171717727Y-121548540D01*
X171717723Y-121548535D01*
X171567464Y-121398276D01*
X171567459Y-121398272D01*
X171395557Y-121273379D01*
X171206215Y-121176903D01*
X171004124Y-121111241D01*
X170938000Y-121100768D01*
X170938000Y-121994988D01*
X170880993Y-121962075D01*
X170753826Y-121928000D01*
X170622174Y-121928000D01*
X170495007Y-121962075D01*
X170438000Y-121994988D01*
X170438000Y-121100768D01*
X170437999Y-121100768D01*
X170371875Y-121111241D01*
X170169784Y-121176903D01*
X169980442Y-121273379D01*
X169808540Y-121398272D01*
X169808535Y-121398276D01*
X169658276Y-121548535D01*
X169658272Y-121548540D01*
X169533378Y-121720443D01*
X169528762Y-121729502D01*
X169480784Y-121780295D01*
X169412963Y-121797087D01*
X169346829Y-121774546D01*
X169307794Y-121729493D01*
X169303051Y-121720184D01*
X169303049Y-121720181D01*
X169303048Y-121720179D01*
X169178109Y-121548213D01*
X169027786Y-121397890D01*
X168855817Y-121272949D01*
X168843202Y-121266521D01*
X168792408Y-121218546D01*
X168775500Y-121156038D01*
X168775500Y-121096194D01*
X168751386Y-120974970D01*
X168751385Y-120974966D01*
X168751385Y-120974965D01*
X168745717Y-120961281D01*
X168704086Y-120860773D01*
X168704079Y-120860760D01*
X168635412Y-120757993D01*
X168598379Y-120720960D01*
X168548008Y-120670589D01*
X165381238Y-117503819D01*
X162198013Y-114320593D01*
X162198009Y-114320590D01*
X162171331Y-114302764D01*
X162171331Y-114302763D01*
X162095235Y-114251918D01*
X162095228Y-114251914D01*
X162039992Y-114229035D01*
X161981035Y-114204614D01*
X161981027Y-114204612D01*
X161859807Y-114180500D01*
X161859803Y-114180500D01*
X147885282Y-114180500D01*
X147818243Y-114160815D01*
X147797601Y-114144181D01*
X145697819Y-112044399D01*
X145664334Y-111983076D01*
X145661500Y-111956718D01*
X145661500Y-70042196D01*
X145661499Y-70042195D01*
X145648774Y-69978218D01*
X145637386Y-69920965D01*
X145590770Y-69808427D01*
X145590345Y-69807159D01*
X145521414Y-69703996D01*
X145521413Y-69703994D01*
X145515770Y-69698351D01*
X145434008Y-69616589D01*
X135963121Y-60145702D01*
X135929636Y-60084379D01*
X135932873Y-60019698D01*
X135937246Y-60006243D01*
X135970500Y-59796287D01*
X135970500Y-59583713D01*
X135937246Y-59373757D01*
X135913870Y-59301816D01*
X135911876Y-59231977D01*
X135947956Y-59172144D01*
X136010657Y-59141316D01*
X136031802Y-59139500D01*
X141445608Y-59139500D01*
X141445608Y-59139499D01*
X141519726Y-59124757D01*
X141566452Y-59115463D01*
X141599792Y-59101652D01*
X141680286Y-59068312D01*
X141740186Y-59028287D01*
X141782733Y-58999858D01*
X141869858Y-58912733D01*
X141869858Y-58912731D01*
X141880066Y-58902524D01*
X141880067Y-58902521D01*
X144146772Y-56635819D01*
X144208095Y-56602334D01*
X144234453Y-56599500D01*
X145908198Y-56599500D01*
X145975237Y-56619185D01*
X146020992Y-56671989D01*
X146030936Y-56741147D01*
X146026129Y-56761818D01*
X146002753Y-56833760D01*
X145969500Y-57043713D01*
X145969500Y-57256286D01*
X146000225Y-57450279D01*
X146002754Y-57466243D01*
X146066818Y-57663412D01*
X146068444Y-57668414D01*
X146164951Y-57857820D01*
X146289890Y-58029786D01*
X146440213Y-58180109D01*
X146612182Y-58305050D01*
X146620946Y-58309516D01*
X146671742Y-58357491D01*
X146688536Y-58425312D01*
X146665998Y-58491447D01*
X146620946Y-58530484D01*
X146612182Y-58534949D01*
X146440213Y-58659890D01*
X146289890Y-58810213D01*
X146164951Y-58982179D01*
X146068444Y-59171585D01*
X146002753Y-59373760D01*
X145975269Y-59547287D01*
X145969500Y-59583713D01*
X145969500Y-59796287D01*
X145970748Y-59804165D01*
X146000225Y-59990279D01*
X146002754Y-60006243D01*
X146066818Y-60203412D01*
X146068444Y-60208414D01*
X146164951Y-60397820D01*
X146289890Y-60569786D01*
X146440213Y-60720109D01*
X146612182Y-60845050D01*
X146620946Y-60849516D01*
X146671742Y-60897491D01*
X146688536Y-60965312D01*
X146665998Y-61031447D01*
X146620946Y-61070484D01*
X146612182Y-61074949D01*
X146440213Y-61199890D01*
X146289890Y-61350213D01*
X146164951Y-61522179D01*
X146068444Y-61711585D01*
X146002753Y-61913760D01*
X145988455Y-62004034D01*
X145969500Y-62123713D01*
X145969500Y-62336287D01*
X146002754Y-62546243D01*
X146048067Y-62685702D01*
X146068444Y-62748414D01*
X146164951Y-62937820D01*
X146289890Y-63109786D01*
X146440213Y-63260109D01*
X146612182Y-63385050D01*
X146620946Y-63389516D01*
X146671742Y-63437491D01*
X146688536Y-63505312D01*
X146665998Y-63571447D01*
X146620946Y-63610484D01*
X146612182Y-63614949D01*
X146440213Y-63739890D01*
X146289890Y-63890213D01*
X146164951Y-64062179D01*
X146068444Y-64251585D01*
X146002753Y-64453760D01*
X145972536Y-64644543D01*
X145969500Y-64663713D01*
X145969500Y-64876287D01*
X146002754Y-65086243D01*
X146057865Y-65255857D01*
X146068444Y-65288414D01*
X146164951Y-65477820D01*
X146289890Y-65649786D01*
X146440213Y-65800109D01*
X146612182Y-65925050D01*
X146620946Y-65929516D01*
X146671742Y-65977491D01*
X146688536Y-66045312D01*
X146665998Y-66111447D01*
X146620946Y-66150484D01*
X146612182Y-66154949D01*
X146440213Y-66279890D01*
X146289890Y-66430213D01*
X146164951Y-66602179D01*
X146068444Y-66791585D01*
X146002753Y-66993760D01*
X145969500Y-67203713D01*
X145969500Y-67416286D01*
X145987261Y-67528428D01*
X146002754Y-67626243D01*
X146057865Y-67795857D01*
X146068444Y-67828414D01*
X146164951Y-68017820D01*
X146289890Y-68189786D01*
X146440213Y-68340109D01*
X146612182Y-68465050D01*
X146620946Y-68469516D01*
X146671742Y-68517491D01*
X146688536Y-68585312D01*
X146665998Y-68651447D01*
X146620946Y-68690484D01*
X146612182Y-68694949D01*
X146440213Y-68819890D01*
X146289890Y-68970213D01*
X146164951Y-69142179D01*
X146068444Y-69331585D01*
X146002753Y-69533760D01*
X145969500Y-69743713D01*
X145969500Y-69956286D01*
X145987261Y-70068428D01*
X146002754Y-70166243D01*
X146057865Y-70335857D01*
X146068444Y-70368414D01*
X146164951Y-70557820D01*
X146289890Y-70729786D01*
X146440213Y-70880109D01*
X146612182Y-71005050D01*
X146620946Y-71009516D01*
X146671742Y-71057491D01*
X146688536Y-71125312D01*
X146665998Y-71191447D01*
X146620946Y-71230484D01*
X146612182Y-71234949D01*
X146440213Y-71359890D01*
X146289890Y-71510213D01*
X146164951Y-71682179D01*
X146068444Y-71871585D01*
X146002753Y-72073760D01*
X145969500Y-72283713D01*
X145969500Y-72496286D01*
X145987261Y-72608428D01*
X146002754Y-72706243D01*
X146057865Y-72875857D01*
X146068444Y-72908414D01*
X146164951Y-73097820D01*
X146289890Y-73269786D01*
X146440213Y-73420109D01*
X146612182Y-73545050D01*
X146620946Y-73549516D01*
X146671742Y-73597491D01*
X146688536Y-73665312D01*
X146665998Y-73731447D01*
X146620946Y-73770484D01*
X146612182Y-73774949D01*
X146440213Y-73899890D01*
X146289890Y-74050213D01*
X146164951Y-74222179D01*
X146068444Y-74411585D01*
X146002753Y-74613760D01*
X145969500Y-74823713D01*
X145969500Y-75036286D01*
X145987261Y-75148428D01*
X146002754Y-75246243D01*
X146057865Y-75415857D01*
X146068444Y-75448414D01*
X146164951Y-75637820D01*
X146289890Y-75809786D01*
X146440213Y-75960109D01*
X146612182Y-76085050D01*
X146620946Y-76089516D01*
X146671742Y-76137491D01*
X146688536Y-76205312D01*
X146665998Y-76271447D01*
X146620946Y-76310484D01*
X146612182Y-76314949D01*
X146440213Y-76439890D01*
X146289890Y-76590213D01*
X146164951Y-76762179D01*
X146068444Y-76951585D01*
X146002753Y-77153760D01*
X145972536Y-77344543D01*
X145969500Y-77363713D01*
X145969500Y-77576287D01*
X146002754Y-77786243D01*
X146057865Y-77955857D01*
X146068444Y-77988414D01*
X146164951Y-78177820D01*
X146289890Y-78349786D01*
X146403430Y-78463326D01*
X146436915Y-78524649D01*
X146431931Y-78594341D01*
X146390059Y-78650274D01*
X146359083Y-78667189D01*
X146227669Y-78716203D01*
X146227664Y-78716206D01*
X146112455Y-78802452D01*
X146112452Y-78802455D01*
X146026206Y-78917664D01*
X146026202Y-78917671D01*
X145975908Y-79052517D01*
X145969501Y-79112116D01*
X145969501Y-79112123D01*
X145969500Y-79112135D01*
X145969500Y-80907870D01*
X145969501Y-80907876D01*
X145975908Y-80967483D01*
X146026202Y-81102328D01*
X146026206Y-81102335D01*
X146112452Y-81217544D01*
X146112455Y-81217547D01*
X146227664Y-81303793D01*
X146227671Y-81303797D01*
X146362517Y-81354091D01*
X146362516Y-81354091D01*
X146369444Y-81354835D01*
X146422127Y-81360500D01*
X148217872Y-81360499D01*
X148277483Y-81354091D01*
X148412331Y-81303796D01*
X148527546Y-81217546D01*
X148613796Y-81102331D01*
X148664091Y-80967483D01*
X148670500Y-80907873D01*
X148670499Y-79112128D01*
X148664091Y-79052517D01*
X148663686Y-79051432D01*
X148613797Y-78917671D01*
X148613793Y-78917664D01*
X148527547Y-78802455D01*
X148527544Y-78802452D01*
X148412335Y-78716206D01*
X148412328Y-78716202D01*
X148280917Y-78667189D01*
X148224983Y-78625318D01*
X148200566Y-78559853D01*
X148215418Y-78491580D01*
X148236563Y-78463332D01*
X148350104Y-78349792D01*
X148358417Y-78338351D01*
X148475049Y-78177819D01*
X148482497Y-78163203D01*
X148530473Y-78112408D01*
X148592981Y-78095500D01*
X151699607Y-78095500D01*
X151760029Y-78083481D01*
X151820452Y-78071463D01*
X151874767Y-78048965D01*
X151934286Y-78024312D01*
X151985509Y-77990084D01*
X151988009Y-77988414D01*
X151998271Y-77981556D01*
X152036733Y-77955858D01*
X152123858Y-77868733D01*
X152123859Y-77868731D01*
X152130925Y-77861665D01*
X152130927Y-77861661D01*
X153634771Y-76357819D01*
X153661698Y-76343115D01*
X153687517Y-76326523D01*
X153693717Y-76325631D01*
X153696094Y-76324334D01*
X153722452Y-76321500D01*
X153723885Y-76321500D01*
X153790924Y-76341185D01*
X153823606Y-76374571D01*
X153824849Y-76373669D01*
X153948028Y-76543213D01*
X154092786Y-76687971D01*
X154247749Y-76800556D01*
X154258390Y-76808287D01*
X154323900Y-76841666D01*
X154351080Y-76855515D01*
X154401876Y-76903490D01*
X154418671Y-76971311D01*
X154396134Y-77037446D01*
X154351080Y-77076485D01*
X154258386Y-77123715D01*
X154092786Y-77244028D01*
X153948028Y-77388786D01*
X153827715Y-77554386D01*
X153734781Y-77736776D01*
X153671522Y-77931465D01*
X153645542Y-78095500D01*
X153639500Y-78133648D01*
X153639500Y-78338352D01*
X153650190Y-78405843D01*
X153672285Y-78545346D01*
X153670252Y-78545667D01*
X153667165Y-78606834D01*
X153637781Y-78653627D01*
X149461270Y-82830139D01*
X149374144Y-82917264D01*
X149374138Y-82917272D01*
X149305690Y-83019708D01*
X149305688Y-83019713D01*
X149283559Y-83073139D01*
X149258538Y-83133544D01*
X149258535Y-83133556D01*
X149234500Y-83254389D01*
X149234500Y-87389546D01*
X149214815Y-87456585D01*
X149198181Y-87477227D01*
X148882181Y-87793227D01*
X148820858Y-87826712D01*
X148751166Y-87821728D01*
X148695233Y-87779856D01*
X148670816Y-87714392D01*
X148670500Y-87705546D01*
X148670500Y-87593713D01*
X148665821Y-87564174D01*
X148637246Y-87383757D01*
X148571557Y-87181588D01*
X148475051Y-86992184D01*
X148475049Y-86992181D01*
X148475048Y-86992179D01*
X148350109Y-86820213D01*
X148199786Y-86669890D01*
X148027820Y-86544951D01*
X147838414Y-86448444D01*
X147838413Y-86448443D01*
X147838412Y-86448443D01*
X147636243Y-86382754D01*
X147636241Y-86382753D01*
X147636240Y-86382753D01*
X147474957Y-86357208D01*
X147426287Y-86349500D01*
X147213713Y-86349500D01*
X147165042Y-86357208D01*
X147003760Y-86382753D01*
X146801585Y-86448444D01*
X146612179Y-86544951D01*
X146440213Y-86669890D01*
X146289890Y-86820213D01*
X146164951Y-86992179D01*
X146068444Y-87181585D01*
X146002753Y-87383760D01*
X145969500Y-87593713D01*
X145969500Y-87806287D01*
X146002754Y-88016243D01*
X146028644Y-88095925D01*
X146068444Y-88218414D01*
X146164951Y-88407820D01*
X146289890Y-88579786D01*
X146440213Y-88730109D01*
X146612182Y-88855050D01*
X146620946Y-88859516D01*
X146671742Y-88907491D01*
X146688536Y-88975312D01*
X146665998Y-89041447D01*
X146620946Y-89080484D01*
X146612182Y-89084949D01*
X146440213Y-89209890D01*
X146289890Y-89360213D01*
X146164951Y-89532179D01*
X146068444Y-89721585D01*
X146002753Y-89923760D01*
X145980587Y-90063713D01*
X145969500Y-90133713D01*
X145969500Y-90346287D01*
X146002754Y-90556243D01*
X146060540Y-90734090D01*
X146068444Y-90758414D01*
X146164951Y-90947820D01*
X146289890Y-91119786D01*
X146440213Y-91270109D01*
X146612182Y-91395050D01*
X146620946Y-91399516D01*
X146671742Y-91447491D01*
X146688536Y-91515312D01*
X146665998Y-91581447D01*
X146620946Y-91620484D01*
X146612182Y-91624949D01*
X146440213Y-91749890D01*
X146289890Y-91900213D01*
X146164951Y-92072179D01*
X146068444Y-92261585D01*
X146002753Y-92463760D01*
X145969500Y-92673713D01*
X145969500Y-92886286D01*
X145986107Y-92991142D01*
X146002754Y-93096243D01*
X146048067Y-93235702D01*
X146068444Y-93298414D01*
X146164951Y-93487820D01*
X146289890Y-93659786D01*
X146440213Y-93810109D01*
X146612182Y-93935050D01*
X146620946Y-93939516D01*
X146671742Y-93987491D01*
X146688536Y-94055312D01*
X146665998Y-94121447D01*
X146620946Y-94160484D01*
X146612182Y-94164949D01*
X146440213Y-94289890D01*
X146289890Y-94440213D01*
X146164951Y-94612179D01*
X146068444Y-94801585D01*
X146002753Y-95003760D01*
X145969500Y-95213713D01*
X145969500Y-95426286D01*
X145997841Y-95605228D01*
X146002754Y-95636243D01*
X146048067Y-95775702D01*
X146068444Y-95838414D01*
X146164951Y-96027820D01*
X146289890Y-96199786D01*
X146440213Y-96350109D01*
X146612182Y-96475050D01*
X146620946Y-96479516D01*
X146671742Y-96527491D01*
X146688536Y-96595312D01*
X146665998Y-96661447D01*
X146620946Y-96700484D01*
X146612182Y-96704949D01*
X146440213Y-96829890D01*
X146289890Y-96980213D01*
X146164951Y-97152179D01*
X146068444Y-97341585D01*
X146002753Y-97543760D01*
X145983623Y-97664543D01*
X145969500Y-97753713D01*
X145969500Y-97966287D01*
X146002754Y-98176243D01*
X146060976Y-98355432D01*
X146068444Y-98378414D01*
X146164951Y-98567820D01*
X146289890Y-98739786D01*
X146440213Y-98890109D01*
X146612182Y-99015050D01*
X146620946Y-99019516D01*
X146671742Y-99067491D01*
X146688536Y-99135312D01*
X146665998Y-99201447D01*
X146620946Y-99240484D01*
X146612182Y-99244949D01*
X146440213Y-99369890D01*
X146289890Y-99520213D01*
X146164951Y-99692179D01*
X146068444Y-99881585D01*
X146002753Y-100083760D01*
X145969500Y-100293713D01*
X145969500Y-100506286D01*
X145991956Y-100648071D01*
X146002754Y-100716243D01*
X146060540Y-100894090D01*
X146068444Y-100918414D01*
X146164951Y-101107820D01*
X146289890Y-101279786D01*
X146440213Y-101430109D01*
X146612182Y-101555050D01*
X146620946Y-101559516D01*
X146671742Y-101607491D01*
X146688536Y-101675312D01*
X146665998Y-101741447D01*
X146620946Y-101780484D01*
X146612182Y-101784949D01*
X146440213Y-101909890D01*
X146289890Y-102060213D01*
X146164951Y-102232179D01*
X146068444Y-102421585D01*
X146002753Y-102623760D01*
X145984040Y-102741909D01*
X145969500Y-102833713D01*
X145969500Y-103046287D01*
X146002754Y-103256243D01*
X146048067Y-103395702D01*
X146068444Y-103458414D01*
X146164951Y-103647820D01*
X146289890Y-103819786D01*
X146440213Y-103970109D01*
X146612182Y-104095050D01*
X146620946Y-104099516D01*
X146671742Y-104147491D01*
X146688536Y-104215312D01*
X146665998Y-104281447D01*
X146620946Y-104320484D01*
X146612182Y-104324949D01*
X146440213Y-104449890D01*
X146289890Y-104600213D01*
X146164951Y-104772179D01*
X146068444Y-104961585D01*
X146002753Y-105163760D01*
X145983623Y-105284543D01*
X145969500Y-105373713D01*
X145969500Y-105586287D01*
X146002754Y-105796243D01*
X146060927Y-105975281D01*
X146068444Y-105998414D01*
X146164951Y-106187820D01*
X146289890Y-106359786D01*
X146440213Y-106510109D01*
X146612182Y-106635050D01*
X146620946Y-106639516D01*
X146671742Y-106687491D01*
X146688536Y-106755312D01*
X146665998Y-106821447D01*
X146620946Y-106860484D01*
X146612182Y-106864949D01*
X146440213Y-106989890D01*
X146289890Y-107140213D01*
X146164951Y-107312179D01*
X146068444Y-107501585D01*
X146002753Y-107703760D01*
X145969500Y-107913713D01*
X145969500Y-108126286D01*
X145994136Y-108281835D01*
X146002754Y-108336243D01*
X146026016Y-108407837D01*
X146068444Y-108538414D01*
X146164951Y-108727820D01*
X146289890Y-108899786D01*
X146403430Y-109013326D01*
X146436915Y-109074649D01*
X146431931Y-109144341D01*
X146390059Y-109200274D01*
X146359083Y-109217189D01*
X146227669Y-109266203D01*
X146227664Y-109266206D01*
X146112455Y-109352452D01*
X146112452Y-109352455D01*
X146026206Y-109467664D01*
X146026202Y-109467671D01*
X145975908Y-109602517D01*
X145970511Y-109652721D01*
X145969501Y-109662123D01*
X145969500Y-109662135D01*
X145969500Y-111457870D01*
X145969501Y-111457876D01*
X145975908Y-111517483D01*
X146026202Y-111652328D01*
X146026206Y-111652335D01*
X146112452Y-111767544D01*
X146112455Y-111767547D01*
X146227664Y-111853793D01*
X146227671Y-111853797D01*
X146362517Y-111904091D01*
X146362516Y-111904091D01*
X146369444Y-111904835D01*
X146422127Y-111910500D01*
X148217872Y-111910499D01*
X148277483Y-111904091D01*
X148412331Y-111853796D01*
X148527546Y-111767546D01*
X148613796Y-111652331D01*
X148664091Y-111517483D01*
X148670500Y-111457873D01*
X148670499Y-109662128D01*
X148664380Y-109605208D01*
X148664091Y-109602516D01*
X148613797Y-109467671D01*
X148613793Y-109467664D01*
X148527547Y-109352455D01*
X148527544Y-109352452D01*
X148412335Y-109266206D01*
X148412328Y-109266202D01*
X148280917Y-109217189D01*
X148224983Y-109175318D01*
X148200566Y-109109853D01*
X148215418Y-109041580D01*
X148236563Y-109013332D01*
X148350104Y-108899792D01*
X148377875Y-108861569D01*
X148475048Y-108727820D01*
X148475047Y-108727820D01*
X148475051Y-108727816D01*
X148571557Y-108538412D01*
X148637246Y-108336243D01*
X148670500Y-108126287D01*
X148670500Y-107913713D01*
X148660205Y-107848713D01*
X149784500Y-107848713D01*
X149784500Y-108061286D01*
X149816169Y-108261239D01*
X149817754Y-108271243D01*
X149881818Y-108468412D01*
X149883444Y-108473414D01*
X149979951Y-108662820D01*
X150104890Y-108834786D01*
X150255213Y-108985109D01*
X150427179Y-109110048D01*
X150427181Y-109110049D01*
X150427184Y-109110051D01*
X150435941Y-109114512D01*
X150486738Y-109162483D01*
X150503536Y-109230303D01*
X150481002Y-109296440D01*
X150435953Y-109335480D01*
X150427181Y-109339950D01*
X150255213Y-109464890D01*
X150104890Y-109615213D01*
X149979951Y-109787179D01*
X149883444Y-109976585D01*
X149817753Y-110178760D01*
X149784500Y-110388713D01*
X149784500Y-110601286D01*
X149816169Y-110801239D01*
X149817754Y-110811243D01*
X149880194Y-111003414D01*
X149883444Y-111013414D01*
X149979951Y-111202820D01*
X150104890Y-111374786D01*
X150255213Y-111525109D01*
X150427179Y-111650048D01*
X150427181Y-111650049D01*
X150427184Y-111650051D01*
X150616588Y-111746557D01*
X150818757Y-111812246D01*
X151028713Y-111845500D01*
X151028714Y-111845500D01*
X151241286Y-111845500D01*
X151241287Y-111845500D01*
X151451243Y-111812246D01*
X151653412Y-111746557D01*
X151842816Y-111650051D01*
X152014792Y-111525104D01*
X152128329Y-111411566D01*
X152189648Y-111378084D01*
X152259340Y-111383068D01*
X152315274Y-111424939D01*
X152332189Y-111455917D01*
X152381202Y-111587328D01*
X152381206Y-111587335D01*
X152467452Y-111702544D01*
X152467455Y-111702547D01*
X152582664Y-111788793D01*
X152582671Y-111788797D01*
X152717517Y-111839091D01*
X152717516Y-111839091D01*
X152724444Y-111839835D01*
X152777127Y-111845500D01*
X154572872Y-111845499D01*
X154632483Y-111839091D01*
X154767331Y-111788796D01*
X154882546Y-111702546D01*
X154968796Y-111587331D01*
X155019091Y-111452483D01*
X155025500Y-111392873D01*
X155025499Y-109597128D01*
X155019091Y-109537517D01*
X155017810Y-109534083D01*
X154968797Y-109402671D01*
X154968793Y-109402664D01*
X154882547Y-109287455D01*
X154882544Y-109287452D01*
X154767335Y-109201206D01*
X154767328Y-109201202D01*
X154635917Y-109152189D01*
X154579983Y-109110318D01*
X154555566Y-109044853D01*
X154570418Y-108976580D01*
X154591563Y-108948332D01*
X154705104Y-108834792D01*
X154706052Y-108833488D01*
X154830048Y-108662820D01*
X154830047Y-108662820D01*
X154830051Y-108662816D01*
X154926557Y-108473412D01*
X154992246Y-108271243D01*
X155025500Y-108061287D01*
X155025500Y-107848713D01*
X154992246Y-107638757D01*
X154926557Y-107436588D01*
X154830051Y-107247184D01*
X154830049Y-107247181D01*
X154830048Y-107247179D01*
X154705109Y-107075213D01*
X154554786Y-106924890D01*
X154382820Y-106799951D01*
X154193414Y-106703444D01*
X154193413Y-106703443D01*
X154193412Y-106703443D01*
X153991243Y-106637754D01*
X153991241Y-106637753D01*
X153991240Y-106637753D01*
X153806895Y-106608556D01*
X153781287Y-106604500D01*
X153568713Y-106604500D01*
X153543105Y-106608556D01*
X153358760Y-106637753D01*
X153156585Y-106703444D01*
X152967179Y-106799951D01*
X152795213Y-106924890D01*
X152644890Y-107075213D01*
X152519949Y-107247182D01*
X152515484Y-107255946D01*
X152467509Y-107306742D01*
X152399688Y-107323536D01*
X152333553Y-107300998D01*
X152294516Y-107255946D01*
X152290050Y-107247182D01*
X152165109Y-107075213D01*
X152014786Y-106924890D01*
X151842820Y-106799951D01*
X151653414Y-106703444D01*
X151653413Y-106703443D01*
X151653412Y-106703443D01*
X151451243Y-106637754D01*
X151451241Y-106637753D01*
X151451240Y-106637753D01*
X151266895Y-106608556D01*
X151241287Y-106604500D01*
X151028713Y-106604500D01*
X151003105Y-106608556D01*
X150818760Y-106637753D01*
X150616585Y-106703444D01*
X150427179Y-106799951D01*
X150255213Y-106924890D01*
X150104890Y-107075213D01*
X149979951Y-107247179D01*
X149883444Y-107436585D01*
X149817753Y-107638760D01*
X149784500Y-107848713D01*
X148660205Y-107848713D01*
X148637246Y-107703757D01*
X148629562Y-107680109D01*
X148628065Y-107671778D01*
X148630948Y-107645122D01*
X148630182Y-107618321D01*
X148634698Y-107610455D01*
X148635579Y-107602313D01*
X148648733Y-107586011D01*
X148662426Y-107562162D01*
X153449197Y-102775392D01*
X153510518Y-102741909D01*
X153580210Y-102746893D01*
X153636143Y-102788765D01*
X153659349Y-102843676D01*
X153671523Y-102920535D01*
X153734781Y-103115223D01*
X153798691Y-103240653D01*
X153823180Y-103288714D01*
X153827715Y-103297613D01*
X153948028Y-103463213D01*
X154092786Y-103607971D01*
X154247749Y-103720556D01*
X154258390Y-103728287D01*
X154374607Y-103787503D01*
X154440776Y-103821218D01*
X154440778Y-103821218D01*
X154440781Y-103821220D01*
X154545137Y-103855127D01*
X154635465Y-103884477D01*
X154682452Y-103891919D01*
X154837648Y-103916500D01*
X154837649Y-103916500D01*
X155042351Y-103916500D01*
X155042352Y-103916500D01*
X155244534Y-103884477D01*
X155439219Y-103821220D01*
X155621610Y-103728287D01*
X155732370Y-103647816D01*
X155787213Y-103607971D01*
X155787215Y-103607968D01*
X155787219Y-103607966D01*
X155931966Y-103463219D01*
X155931968Y-103463215D01*
X155931971Y-103463213D01*
X156052284Y-103297614D01*
X156052285Y-103297613D01*
X156052287Y-103297610D01*
X156099516Y-103204917D01*
X156147489Y-103154123D01*
X156215310Y-103137328D01*
X156281445Y-103159865D01*
X156320483Y-103204917D01*
X156350781Y-103264379D01*
X156367715Y-103297614D01*
X156488028Y-103463213D01*
X156632786Y-103607971D01*
X156787749Y-103720556D01*
X156798390Y-103728287D01*
X156914607Y-103787503D01*
X156980776Y-103821218D01*
X156980778Y-103821218D01*
X156980781Y-103821220D01*
X157085137Y-103855127D01*
X157175465Y-103884477D01*
X157222452Y-103891919D01*
X157377648Y-103916500D01*
X157377649Y-103916500D01*
X157582351Y-103916500D01*
X157582352Y-103916500D01*
X157784534Y-103884477D01*
X157979219Y-103821220D01*
X158161610Y-103728287D01*
X158272370Y-103647816D01*
X158327213Y-103607971D01*
X158327215Y-103607968D01*
X158327219Y-103607966D01*
X158471966Y-103463219D01*
X158471968Y-103463215D01*
X158471971Y-103463213D01*
X158560057Y-103341971D01*
X158592287Y-103297610D01*
X158685220Y-103115219D01*
X158748477Y-102920534D01*
X158780500Y-102718352D01*
X158780500Y-102513648D01*
X158754831Y-102351585D01*
X158748477Y-102311465D01*
X158699972Y-102162184D01*
X158685220Y-102116781D01*
X158685218Y-102116778D01*
X158685218Y-102116776D01*
X158655165Y-102057795D01*
X158642269Y-101989126D01*
X158668545Y-101924386D01*
X158725651Y-101884128D01*
X158765650Y-101877500D01*
X158933071Y-101877500D01*
X159021452Y-101859919D01*
X159058744Y-101852501D01*
X159177127Y-101803465D01*
X159283669Y-101732277D01*
X160017276Y-100998670D01*
X160070902Y-100918412D01*
X160088464Y-100892129D01*
X160088465Y-100892127D01*
X160137501Y-100773744D01*
X160148940Y-100716238D01*
X160162500Y-100648071D01*
X160162500Y-56323928D01*
X160137502Y-56198261D01*
X160137501Y-56198260D01*
X160137501Y-56198256D01*
X160088465Y-56079873D01*
X160088465Y-56079872D01*
X160070289Y-56052671D01*
X160070289Y-56052670D01*
X160017274Y-55973327D01*
X157386673Y-53342726D01*
X157386669Y-53342723D01*
X157280127Y-53271535D01*
X157161744Y-53222499D01*
X157161738Y-53222497D01*
X157036071Y-53197500D01*
X157036069Y-53197500D01*
X126681931Y-53197500D01*
X126681929Y-53197500D01*
X126556261Y-53222497D01*
X126556255Y-53222499D01*
X126437870Y-53271535D01*
X126331331Y-53342722D01*
X126331324Y-53342728D01*
X124716726Y-54957326D01*
X124645534Y-55063874D01*
X124596499Y-55182255D01*
X124596497Y-55182261D01*
X124571500Y-55307928D01*
X124571500Y-55307931D01*
X124571500Y-59246069D01*
X124579904Y-59288318D01*
X124580491Y-59291266D01*
X124580491Y-59291269D01*
X124595904Y-59368757D01*
X124596499Y-59371744D01*
X124645535Y-59490127D01*
X124716723Y-59596669D01*
X124716726Y-59596673D01*
X124716727Y-59596674D01*
X126919342Y-61799288D01*
X126952827Y-61860611D01*
X126952319Y-61908755D01*
X126953516Y-61908945D01*
X126938455Y-62004034D01*
X126919500Y-62123713D01*
X126919500Y-62336287D01*
X126952754Y-62546243D01*
X126998067Y-62685702D01*
X127018444Y-62748414D01*
X127114951Y-62937820D01*
X127239890Y-63109786D01*
X127390213Y-63260109D01*
X127562182Y-63385050D01*
X127570946Y-63389516D01*
X127621742Y-63437491D01*
X127638536Y-63505312D01*
X127615998Y-63571447D01*
X127570946Y-63610484D01*
X127562182Y-63614949D01*
X127390213Y-63739890D01*
X127239890Y-63890213D01*
X127114951Y-64062179D01*
X127018444Y-64251585D01*
X126952753Y-64453760D01*
X126922536Y-64644543D01*
X126919500Y-64663713D01*
X126919500Y-64876287D01*
X126952754Y-65086243D01*
X127007865Y-65255857D01*
X127018444Y-65288414D01*
X127114951Y-65477820D01*
X127239890Y-65649786D01*
X127390213Y-65800109D01*
X127562182Y-65925050D01*
X127570946Y-65929516D01*
X127621742Y-65977491D01*
X127638536Y-66045312D01*
X127615998Y-66111447D01*
X127570946Y-66150484D01*
X127562182Y-66154949D01*
X127390213Y-66279890D01*
X127239890Y-66430213D01*
X127114951Y-66602179D01*
X127018444Y-66791585D01*
X126952753Y-66993760D01*
X126919500Y-67203713D01*
X126919500Y-67416286D01*
X126937261Y-67528428D01*
X126952754Y-67626243D01*
X127007865Y-67795857D01*
X127018444Y-67828414D01*
X127114951Y-68017820D01*
X127239890Y-68189786D01*
X127390213Y-68340109D01*
X127562182Y-68465050D01*
X127570946Y-68469516D01*
X127621742Y-68517491D01*
X127638536Y-68585312D01*
X127615998Y-68651447D01*
X127570946Y-68690484D01*
X127562182Y-68694949D01*
X127390213Y-68819890D01*
X127239890Y-68970213D01*
X127114951Y-69142179D01*
X127018444Y-69331585D01*
X126952753Y-69533760D01*
X126919500Y-69743713D01*
X126919500Y-69956286D01*
X126937261Y-70068428D01*
X126952754Y-70166243D01*
X127007865Y-70335857D01*
X127018444Y-70368414D01*
X127114951Y-70557820D01*
X127239890Y-70729786D01*
X127390213Y-70880109D01*
X127562182Y-71005050D01*
X127570946Y-71009516D01*
X127621742Y-71057491D01*
X127638536Y-71125312D01*
X127615998Y-71191447D01*
X127570946Y-71230484D01*
X127562182Y-71234949D01*
X127390213Y-71359890D01*
X127239890Y-71510213D01*
X127114951Y-71682179D01*
X127018444Y-71871585D01*
X126952753Y-72073760D01*
X126919500Y-72283713D01*
X126919500Y-72496286D01*
X126937261Y-72608428D01*
X126952754Y-72706243D01*
X127007865Y-72875857D01*
X127018444Y-72908414D01*
X127114951Y-73097820D01*
X127239890Y-73269786D01*
X127390213Y-73420109D01*
X127562182Y-73545050D01*
X127570946Y-73549516D01*
X127621742Y-73597491D01*
X127638536Y-73665312D01*
X127615998Y-73731447D01*
X127570946Y-73770484D01*
X127562182Y-73774949D01*
X127390213Y-73899890D01*
X127239890Y-74050213D01*
X127114951Y-74222179D01*
X127018444Y-74411585D01*
X126952753Y-74613760D01*
X126919500Y-74823713D01*
X126919500Y-75036286D01*
X126937261Y-75148428D01*
X126952754Y-75246243D01*
X127007865Y-75415857D01*
X127018444Y-75448414D01*
X127114951Y-75637820D01*
X127239890Y-75809786D01*
X127390213Y-75960109D01*
X127562182Y-76085050D01*
X127570946Y-76089516D01*
X127621742Y-76137491D01*
X127638536Y-76205312D01*
X127615998Y-76271447D01*
X127570946Y-76310484D01*
X127562182Y-76314949D01*
X127390213Y-76439890D01*
X127239890Y-76590213D01*
X127114951Y-76762179D01*
X127018444Y-76951585D01*
X126952753Y-77153760D01*
X126922536Y-77344543D01*
X126919500Y-77363713D01*
X126919500Y-77576287D01*
X126952754Y-77786243D01*
X127007865Y-77955857D01*
X127018444Y-77988414D01*
X127114951Y-78177820D01*
X127239890Y-78349786D01*
X127353430Y-78463326D01*
X127386915Y-78524649D01*
X127381931Y-78594341D01*
X127340059Y-78650274D01*
X127309083Y-78667189D01*
X127177669Y-78716203D01*
X127177664Y-78716206D01*
X127062455Y-78802452D01*
X127062452Y-78802455D01*
X126976206Y-78917664D01*
X126976202Y-78917671D01*
X126925908Y-79052517D01*
X126919501Y-79112116D01*
X126919501Y-79112123D01*
X126919500Y-79112135D01*
X126919500Y-80907870D01*
X126919501Y-80907876D01*
X126925908Y-80967483D01*
X126976202Y-81102328D01*
X126976206Y-81102335D01*
X127062452Y-81217544D01*
X127062455Y-81217547D01*
X127177664Y-81303793D01*
X127177671Y-81303797D01*
X127312517Y-81354091D01*
X127312516Y-81354091D01*
X127319444Y-81354835D01*
X127372127Y-81360500D01*
X129167872Y-81360499D01*
X129227483Y-81354091D01*
X129362331Y-81303796D01*
X129477546Y-81217546D01*
X129563796Y-81102331D01*
X129614091Y-80967483D01*
X129620500Y-80907873D01*
X129620499Y-79112128D01*
X129614091Y-79052517D01*
X129613686Y-79051432D01*
X129563797Y-78917671D01*
X129563793Y-78917664D01*
X129477547Y-78802455D01*
X129477544Y-78802452D01*
X129362335Y-78716206D01*
X129362328Y-78716202D01*
X129230917Y-78667189D01*
X129174983Y-78625318D01*
X129150566Y-78559853D01*
X129165418Y-78491580D01*
X129186563Y-78463332D01*
X129300104Y-78349792D01*
X129315731Y-78328284D01*
X129425048Y-78177820D01*
X129425049Y-78177819D01*
X129425051Y-78177816D01*
X129521557Y-77988412D01*
X129587246Y-77786243D01*
X129620500Y-77576287D01*
X129620500Y-77363713D01*
X129587246Y-77153757D01*
X129521557Y-76951588D01*
X129425051Y-76762184D01*
X129425049Y-76762181D01*
X129425048Y-76762179D01*
X129300109Y-76590213D01*
X129149786Y-76439890D01*
X128977820Y-76314951D01*
X128977115Y-76314591D01*
X128969054Y-76310485D01*
X128918259Y-76262512D01*
X128901463Y-76194692D01*
X128923999Y-76128556D01*
X128969054Y-76089515D01*
X128977816Y-76085051D01*
X129090364Y-76003281D01*
X129149786Y-75960109D01*
X129149788Y-75960106D01*
X129149792Y-75960104D01*
X129300104Y-75809792D01*
X129300106Y-75809788D01*
X129300109Y-75809786D01*
X129425048Y-75637820D01*
X129425049Y-75637819D01*
X129425051Y-75637816D01*
X129521557Y-75448412D01*
X129587246Y-75246243D01*
X129620500Y-75036287D01*
X129620500Y-74823713D01*
X129587246Y-74613757D01*
X129521557Y-74411588D01*
X129425051Y-74222184D01*
X129425049Y-74222181D01*
X129425048Y-74222179D01*
X129300109Y-74050213D01*
X129149786Y-73899890D01*
X128977820Y-73774951D01*
X128977115Y-73774591D01*
X128969054Y-73770485D01*
X128918259Y-73722512D01*
X128901463Y-73654692D01*
X128923999Y-73588556D01*
X128969054Y-73549515D01*
X128977816Y-73545051D01*
X129080042Y-73470780D01*
X129149786Y-73420109D01*
X129149788Y-73420106D01*
X129149792Y-73420104D01*
X129300104Y-73269792D01*
X129300106Y-73269788D01*
X129300109Y-73269786D01*
X129425048Y-73097820D01*
X129425049Y-73097819D01*
X129425051Y-73097816D01*
X129521557Y-72908412D01*
X129587246Y-72706243D01*
X129620500Y-72496287D01*
X129620500Y-72283713D01*
X129587246Y-72073757D01*
X129521557Y-71871588D01*
X129425051Y-71682184D01*
X129425049Y-71682181D01*
X129425048Y-71682179D01*
X129300109Y-71510213D01*
X129149786Y-71359890D01*
X128977820Y-71234951D01*
X128977115Y-71234591D01*
X128969054Y-71230485D01*
X128918259Y-71182512D01*
X128901463Y-71114692D01*
X128923999Y-71048556D01*
X128969054Y-71009515D01*
X128977816Y-71005051D01*
X129080042Y-70930780D01*
X129149786Y-70880109D01*
X129149788Y-70880106D01*
X129149792Y-70880104D01*
X129300104Y-70729792D01*
X129300106Y-70729788D01*
X129300109Y-70729786D01*
X129425048Y-70557820D01*
X129425049Y-70557819D01*
X129425051Y-70557816D01*
X129521557Y-70368412D01*
X129587246Y-70166243D01*
X129620500Y-69956287D01*
X129620500Y-69743713D01*
X129587246Y-69533757D01*
X129521557Y-69331588D01*
X129425051Y-69142184D01*
X129425049Y-69142181D01*
X129425048Y-69142179D01*
X129300109Y-68970213D01*
X129149786Y-68819890D01*
X128977820Y-68694951D01*
X128977115Y-68694591D01*
X128969054Y-68690485D01*
X128918259Y-68642512D01*
X128901463Y-68574692D01*
X128923999Y-68508556D01*
X128969054Y-68469515D01*
X128977816Y-68465051D01*
X129014790Y-68438188D01*
X129149786Y-68340109D01*
X129149788Y-68340106D01*
X129149792Y-68340104D01*
X129300104Y-68189792D01*
X129300106Y-68189788D01*
X129300109Y-68189786D01*
X129425048Y-68017820D01*
X129425049Y-68017819D01*
X129425051Y-68017816D01*
X129521557Y-67828412D01*
X129587246Y-67626243D01*
X129620500Y-67416287D01*
X129620500Y-67203713D01*
X129587246Y-66993757D01*
X129521557Y-66791588D01*
X129425051Y-66602184D01*
X129425049Y-66602181D01*
X129425048Y-66602179D01*
X129300109Y-66430213D01*
X129149786Y-66279890D01*
X128977820Y-66154951D01*
X128977115Y-66154591D01*
X128969054Y-66150485D01*
X128918259Y-66102512D01*
X128901463Y-66034692D01*
X128923999Y-65968556D01*
X128969054Y-65929515D01*
X128977816Y-65925051D01*
X129090741Y-65843007D01*
X129149786Y-65800109D01*
X129149788Y-65800106D01*
X129149792Y-65800104D01*
X129300104Y-65649792D01*
X129300106Y-65649788D01*
X129300109Y-65649786D01*
X129425048Y-65477820D01*
X129425049Y-65477819D01*
X129425051Y-65477816D01*
X129521557Y-65288412D01*
X129587246Y-65086243D01*
X129620500Y-64876287D01*
X129620500Y-64663713D01*
X129587246Y-64453757D01*
X129521557Y-64251588D01*
X129425051Y-64062184D01*
X129425049Y-64062181D01*
X129425048Y-64062179D01*
X129300109Y-63890213D01*
X129149786Y-63739890D01*
X128977820Y-63614951D01*
X128977115Y-63614591D01*
X128969054Y-63610485D01*
X128918259Y-63562512D01*
X128901463Y-63494692D01*
X128923999Y-63428556D01*
X128969054Y-63389515D01*
X128977816Y-63385051D01*
X128999789Y-63369086D01*
X129149786Y-63260109D01*
X129149788Y-63260106D01*
X129149792Y-63260104D01*
X129300104Y-63109792D01*
X129300106Y-63109788D01*
X129300109Y-63109786D01*
X129425048Y-62937820D01*
X129425049Y-62937819D01*
X129425051Y-62937816D01*
X129521557Y-62748412D01*
X129587246Y-62546243D01*
X129620500Y-62336287D01*
X129620500Y-62123713D01*
X129587246Y-61913757D01*
X129521557Y-61711588D01*
X129425051Y-61522184D01*
X129425049Y-61522181D01*
X129425048Y-61522179D01*
X129300109Y-61350213D01*
X129149786Y-61199890D01*
X128977820Y-61074951D01*
X128977115Y-61074591D01*
X128969054Y-61070485D01*
X128918259Y-61022512D01*
X128901463Y-60954692D01*
X128923999Y-60888556D01*
X128969054Y-60849515D01*
X128977816Y-60845051D01*
X129051525Y-60791499D01*
X129149786Y-60720109D01*
X129149788Y-60720106D01*
X129149792Y-60720104D01*
X129300104Y-60569792D01*
X129300106Y-60569788D01*
X129300109Y-60569786D01*
X129425048Y-60397820D01*
X129425047Y-60397820D01*
X129425051Y-60397816D01*
X129521557Y-60208412D01*
X129587246Y-60006243D01*
X129620500Y-59796287D01*
X129620500Y-59583713D01*
X129587246Y-59373757D01*
X129521557Y-59171588D01*
X129425051Y-58982184D01*
X129425049Y-58982181D01*
X129425048Y-58982179D01*
X129300109Y-58810213D01*
X129149786Y-58659890D01*
X128977820Y-58534951D01*
X128977115Y-58534591D01*
X128969054Y-58530485D01*
X128918259Y-58482512D01*
X128901463Y-58414692D01*
X128923999Y-58348556D01*
X128969054Y-58309515D01*
X128977816Y-58305051D01*
X129071020Y-58237335D01*
X129149786Y-58180109D01*
X129149788Y-58180106D01*
X129149792Y-58180104D01*
X129300104Y-58029792D01*
X129300106Y-58029788D01*
X129300109Y-58029786D01*
X129425048Y-57857820D01*
X129425047Y-57857820D01*
X129425051Y-57857816D01*
X129521557Y-57668412D01*
X129587246Y-57466243D01*
X129620500Y-57256287D01*
X129620500Y-57043713D01*
X129614731Y-57007287D01*
X129606681Y-56956461D01*
X129594658Y-56880554D01*
X129587246Y-56833757D01*
X129521557Y-56631588D01*
X129425051Y-56442184D01*
X129425049Y-56442181D01*
X129425048Y-56442179D01*
X129300109Y-56270213D01*
X129149786Y-56119890D01*
X128977820Y-55994951D01*
X128788414Y-55898444D01*
X128788413Y-55898443D01*
X128788412Y-55898443D01*
X128586243Y-55832754D01*
X128586241Y-55832753D01*
X128586240Y-55832753D01*
X128415097Y-55805647D01*
X128376287Y-55799500D01*
X128163713Y-55799500D01*
X128124903Y-55805647D01*
X127953760Y-55832753D01*
X127751585Y-55898444D01*
X127562179Y-55994951D01*
X127390213Y-56119890D01*
X127239890Y-56270213D01*
X127114951Y-56442179D01*
X127018444Y-56631585D01*
X126952753Y-56833760D01*
X126919500Y-57043713D01*
X126919500Y-57120192D01*
X126899815Y-57187231D01*
X126847011Y-57232986D01*
X126777853Y-57242930D01*
X126714297Y-57213905D01*
X126707819Y-57207873D01*
X126416819Y-56916873D01*
X126383334Y-56855550D01*
X126380500Y-56829192D01*
X126380500Y-55893328D01*
X126400185Y-55826289D01*
X126416819Y-55805647D01*
X127186647Y-55035819D01*
X127247970Y-55002334D01*
X127274328Y-54999500D01*
X156390192Y-54999500D01*
X156457231Y-55019185D01*
X156477873Y-55035819D01*
X157379509Y-55937455D01*
X157877129Y-56435074D01*
X157910614Y-56496397D01*
X157905630Y-56566089D01*
X157863758Y-56622022D01*
X157798294Y-56646439D01*
X157770050Y-56645228D01*
X157605618Y-56619185D01*
X157582352Y-56615500D01*
X157377648Y-56615500D01*
X157354382Y-56619185D01*
X157175465Y-56647522D01*
X156980776Y-56710781D01*
X156798386Y-56803715D01*
X156632786Y-56924028D01*
X156488028Y-57068786D01*
X156364849Y-57238331D01*
X156363176Y-57237115D01*
X156361909Y-57238261D01*
X156357598Y-57247703D01*
X156336441Y-57261299D01*
X156317792Y-57278169D01*
X156305991Y-57280868D01*
X156298820Y-57285477D01*
X156263885Y-57290500D01*
X156118741Y-57290500D01*
X156118721Y-57290499D01*
X156112607Y-57290499D01*
X155989394Y-57290499D01*
X155909111Y-57306467D01*
X155839520Y-57300238D01*
X155784343Y-57257374D01*
X155761100Y-57191484D01*
X155762449Y-57165451D01*
X155781731Y-57043712D01*
X155787500Y-57007287D01*
X155787500Y-56794713D01*
X155754246Y-56584757D01*
X155688557Y-56382588D01*
X155592051Y-56193184D01*
X155592049Y-56193181D01*
X155592048Y-56193179D01*
X155467109Y-56021213D01*
X155316786Y-55870890D01*
X155144820Y-55745951D01*
X154955414Y-55649444D01*
X154955413Y-55649443D01*
X154955412Y-55649443D01*
X154753243Y-55583754D01*
X154753241Y-55583753D01*
X154753240Y-55583753D01*
X154591957Y-55558208D01*
X154543287Y-55550500D01*
X154330713Y-55550500D01*
X154282042Y-55558208D01*
X154120760Y-55583753D01*
X153918585Y-55649444D01*
X153729179Y-55745951D01*
X153557213Y-55870890D01*
X153406890Y-56021213D01*
X153281949Y-56193182D01*
X153277484Y-56201946D01*
X153229509Y-56252742D01*
X153161688Y-56269536D01*
X153095553Y-56246998D01*
X153056516Y-56201946D01*
X153052050Y-56193182D01*
X152927109Y-56021213D01*
X152776786Y-55870890D01*
X152604820Y-55745951D01*
X152415414Y-55649444D01*
X152415413Y-55649443D01*
X152415412Y-55649443D01*
X152213243Y-55583754D01*
X152213241Y-55583753D01*
X152213240Y-55583753D01*
X152051957Y-55558208D01*
X152003287Y-55550500D01*
X151790713Y-55550500D01*
X151738224Y-55558813D01*
X151580754Y-55583754D01*
X151565155Y-55588822D01*
X151554744Y-55589118D01*
X151545302Y-55593507D01*
X151520421Y-55590097D01*
X151495314Y-55590814D01*
X151484558Y-55585183D01*
X151476079Y-55584022D01*
X151456335Y-55570410D01*
X151446262Y-55565137D01*
X151442579Y-55561988D01*
X151368733Y-55488142D01*
X151317509Y-55453915D01*
X151266286Y-55419688D01*
X151177171Y-55382776D01*
X151152452Y-55372537D01*
X151092029Y-55360518D01*
X151082902Y-55358702D01*
X151031610Y-55348500D01*
X151031607Y-55348500D01*
X151031606Y-55348500D01*
X143985606Y-55348500D01*
X143862393Y-55348500D01*
X143862388Y-55348500D01*
X143741555Y-55372535D01*
X143741547Y-55372537D01*
X143627716Y-55419687D01*
X143525265Y-55488142D01*
X143525262Y-55488145D01*
X141161229Y-57852181D01*
X141099906Y-57885666D01*
X141073548Y-57888500D01*
X135961206Y-57888500D01*
X135894167Y-57868815D01*
X135848412Y-57816011D01*
X135838468Y-57746853D01*
X135850721Y-57708206D01*
X135871094Y-57668220D01*
X135936757Y-57466129D01*
X135936757Y-57466126D01*
X135947231Y-57400000D01*
X135053012Y-57400000D01*
X135085925Y-57342993D01*
X135120000Y-57215826D01*
X135120000Y-57084174D01*
X135085925Y-56957007D01*
X135053012Y-56900000D01*
X135947231Y-56900000D01*
X135936757Y-56833873D01*
X135936757Y-56833870D01*
X135871095Y-56631782D01*
X135774620Y-56442442D01*
X135649727Y-56270540D01*
X135649723Y-56270535D01*
X135499464Y-56120276D01*
X135499459Y-56120272D01*
X135327557Y-55995379D01*
X135138215Y-55898903D01*
X134936124Y-55833241D01*
X134870000Y-55822768D01*
X134870000Y-56716988D01*
X134812993Y-56684075D01*
X134685826Y-56650000D01*
X134554174Y-56650000D01*
X134427007Y-56684075D01*
X134370000Y-56716988D01*
X134370000Y-55822768D01*
X134369999Y-55822768D01*
X134303875Y-55833241D01*
X134101784Y-55898903D01*
X133912442Y-55995379D01*
X133740540Y-56120272D01*
X133740535Y-56120276D01*
X133590276Y-56270535D01*
X133590272Y-56270540D01*
X133465379Y-56442442D01*
X133368904Y-56631782D01*
X133303242Y-56833870D01*
X133303242Y-56833873D01*
X133292769Y-56900000D01*
X134186988Y-56900000D01*
X134154075Y-56957007D01*
X134120000Y-57084174D01*
X134120000Y-57215826D01*
X134154075Y-57342993D01*
X134186988Y-57400000D01*
X133292769Y-57400000D01*
X133303242Y-57466126D01*
X133303242Y-57466129D01*
X133368904Y-57668217D01*
X133403951Y-57737000D01*
X133416847Y-57805669D01*
X133390571Y-57870410D01*
X133333464Y-57910667D01*
X133329478Y-57911951D01*
X133327551Y-57912535D01*
X133213716Y-57959687D01*
X133131623Y-58014541D01*
X133131621Y-58014542D01*
X133111267Y-58028141D01*
X133111262Y-58028145D01*
X131238460Y-59900949D01*
X130665269Y-60474140D01*
X130665267Y-60474142D01*
X130621703Y-60517705D01*
X130578140Y-60561268D01*
X130554900Y-60596050D01*
X130509686Y-60663716D01*
X130509685Y-60663718D01*
X130476346Y-60744207D01*
X130476347Y-60744208D01*
X130469586Y-60760531D01*
X130462538Y-60777546D01*
X130462535Y-60777556D01*
X130444836Y-60866538D01*
X130444836Y-60866539D01*
X130438500Y-60898391D01*
X130438500Y-76515611D01*
X130462535Y-76636444D01*
X130462540Y-76636461D01*
X130509685Y-76750280D01*
X130509690Y-76750289D01*
X130527402Y-76776797D01*
X130543796Y-76801331D01*
X130578142Y-76852733D01*
X130665267Y-76939858D01*
X130665269Y-76939859D01*
X130675242Y-76949832D01*
X133277571Y-79552162D01*
X133311056Y-79613485D01*
X133307821Y-79678160D01*
X133302754Y-79693753D01*
X133269500Y-79903713D01*
X133269500Y-80116286D01*
X133291628Y-80256000D01*
X133302754Y-80326243D01*
X133355182Y-80487600D01*
X133368444Y-80528414D01*
X133464951Y-80717820D01*
X133589890Y-80889786D01*
X133740213Y-81040109D01*
X133912179Y-81165048D01*
X133912181Y-81165049D01*
X133912184Y-81165051D01*
X134101588Y-81261557D01*
X134303757Y-81327246D01*
X134513713Y-81360500D01*
X134513714Y-81360500D01*
X134726286Y-81360500D01*
X134726287Y-81360500D01*
X134936243Y-81327246D01*
X135138412Y-81261557D01*
X135327816Y-81165051D01*
X135414138Y-81102335D01*
X135499786Y-81040109D01*
X135499788Y-81040106D01*
X135499792Y-81040104D01*
X135650104Y-80889792D01*
X135650106Y-80889788D01*
X135650109Y-80889786D01*
X135759086Y-80739789D01*
X135775051Y-80717816D01*
X135871557Y-80528412D01*
X135937246Y-80326243D01*
X135970500Y-80116287D01*
X135970500Y-80007281D01*
X135990185Y-79940242D01*
X136042989Y-79894487D01*
X136112147Y-79884543D01*
X136175703Y-79913568D01*
X136182181Y-79919600D01*
X140814181Y-84551600D01*
X140847666Y-84612923D01*
X140850500Y-84639281D01*
X140850500Y-114107807D01*
X140874612Y-114229028D01*
X140874614Y-114229035D01*
X140905155Y-114302765D01*
X140921917Y-114343233D01*
X140963549Y-114405540D01*
X140966198Y-114409504D01*
X140966200Y-114409508D01*
X140990585Y-114446003D01*
X140990591Y-114446011D01*
X145308589Y-118764008D01*
X145386181Y-118841600D01*
X145395993Y-118851412D01*
X145498760Y-118920079D01*
X145498773Y-118920086D01*
X145612960Y-118967383D01*
X145612965Y-118967385D01*
X145612969Y-118967385D01*
X145612970Y-118967386D01*
X145734194Y-118991500D01*
X145734197Y-118991500D01*
X147516719Y-118991500D01*
X147583758Y-119011185D01*
X147604400Y-119027819D01*
X149667189Y-121090608D01*
X149700674Y-121151931D01*
X149695690Y-121221623D01*
X149653818Y-121277556D01*
X149652394Y-121278607D01*
X149488209Y-121397894D01*
X149337890Y-121548213D01*
X149212949Y-121720182D01*
X149208484Y-121728946D01*
X149160509Y-121779742D01*
X149092688Y-121796536D01*
X149026553Y-121773998D01*
X148987516Y-121728946D01*
X148983050Y-121720182D01*
X148858109Y-121548213D01*
X148707786Y-121397890D01*
X148535820Y-121272951D01*
X148346414Y-121176444D01*
X148346413Y-121176443D01*
X148346412Y-121176443D01*
X148144243Y-121110754D01*
X148144241Y-121110753D01*
X148144240Y-121110753D01*
X147954642Y-121080724D01*
X147934287Y-121077500D01*
X147721713Y-121077500D01*
X147701358Y-121080724D01*
X147511755Y-121110754D01*
X147498293Y-121115128D01*
X147428451Y-121117122D01*
X147372296Y-121084877D01*
X145942011Y-119654591D01*
X145942007Y-119654588D01*
X145839239Y-119585920D01*
X145839226Y-119585913D01*
X145783992Y-119563035D01*
X145725035Y-119538614D01*
X145725027Y-119538612D01*
X145603807Y-119514500D01*
X145603803Y-119514500D01*
X143973685Y-119514500D01*
X143906646Y-119494815D01*
X143886004Y-119478181D01*
X140151819Y-115743996D01*
X140118334Y-115682673D01*
X140115500Y-115656315D01*
X140115500Y-95046194D01*
X140100771Y-94972150D01*
X140100770Y-94972149D01*
X140099068Y-94963589D01*
X140091386Y-94924966D01*
X140045090Y-94813200D01*
X140044408Y-94811252D01*
X139975414Y-94707996D01*
X139975413Y-94707994D01*
X139950138Y-94682719D01*
X139888008Y-94620589D01*
X135963121Y-90695702D01*
X135929636Y-90634379D01*
X135932873Y-90569698D01*
X135937246Y-90556243D01*
X135970500Y-90346287D01*
X135970500Y-90133713D01*
X135937246Y-89923757D01*
X135871557Y-89721588D01*
X135775051Y-89532184D01*
X135775049Y-89532181D01*
X135775048Y-89532179D01*
X135650109Y-89360213D01*
X135499786Y-89209890D01*
X135327817Y-89084949D01*
X135318504Y-89080204D01*
X135267707Y-89032230D01*
X135250912Y-88964409D01*
X135273449Y-88898274D01*
X135318507Y-88859232D01*
X135327558Y-88854620D01*
X135499459Y-88729727D01*
X135499464Y-88729723D01*
X135649723Y-88579464D01*
X135649727Y-88579459D01*
X135774620Y-88407557D01*
X135871095Y-88218217D01*
X135936757Y-88016129D01*
X135936757Y-88016126D01*
X135947231Y-87950000D01*
X135053012Y-87950000D01*
X135085925Y-87892993D01*
X135120000Y-87765826D01*
X135120000Y-87634174D01*
X135085925Y-87507007D01*
X135053012Y-87450000D01*
X135947231Y-87450000D01*
X135936757Y-87383873D01*
X135936757Y-87383870D01*
X135871095Y-87181782D01*
X135774620Y-86992442D01*
X135649727Y-86820540D01*
X135649723Y-86820535D01*
X135499464Y-86670276D01*
X135499459Y-86670272D01*
X135327557Y-86545379D01*
X135138215Y-86448903D01*
X134936124Y-86383241D01*
X134870000Y-86372768D01*
X134870000Y-87266988D01*
X134812993Y-87234075D01*
X134685826Y-87200000D01*
X134554174Y-87200000D01*
X134427007Y-87234075D01*
X134370000Y-87266988D01*
X134370000Y-86372768D01*
X134369999Y-86372768D01*
X134303875Y-86383241D01*
X134101784Y-86448903D01*
X133912442Y-86545379D01*
X133740540Y-86670272D01*
X133740535Y-86670276D01*
X133590276Y-86820535D01*
X133590272Y-86820540D01*
X133465379Y-86992442D01*
X133368904Y-87181782D01*
X133303242Y-87383870D01*
X133303242Y-87383873D01*
X133292769Y-87450000D01*
X134186988Y-87450000D01*
X134154075Y-87507007D01*
X134120000Y-87634174D01*
X134120000Y-87765826D01*
X134154075Y-87892993D01*
X134186988Y-87950000D01*
X133292769Y-87950000D01*
X133303242Y-88016126D01*
X133303242Y-88016129D01*
X133368904Y-88218217D01*
X133465379Y-88407557D01*
X133590272Y-88579459D01*
X133590276Y-88579464D01*
X133740535Y-88729723D01*
X133740540Y-88729727D01*
X133912444Y-88854622D01*
X133921495Y-88859234D01*
X133972292Y-88907208D01*
X133989087Y-88975029D01*
X133966550Y-89041164D01*
X133921499Y-89080202D01*
X133912182Y-89084949D01*
X133740213Y-89209890D01*
X133589890Y-89360213D01*
X133464951Y-89532179D01*
X133368444Y-89721585D01*
X133302753Y-89923760D01*
X133280587Y-90063713D01*
X133269500Y-90133713D01*
X133269500Y-90346287D01*
X133302754Y-90556243D01*
X133360540Y-90734090D01*
X133368444Y-90758414D01*
X133464951Y-90947820D01*
X133589890Y-91119786D01*
X133740213Y-91270109D01*
X133912182Y-91395050D01*
X133920946Y-91399516D01*
X133971742Y-91447491D01*
X133988536Y-91515312D01*
X133965998Y-91581447D01*
X133920946Y-91620484D01*
X133912182Y-91624949D01*
X133740213Y-91749890D01*
X133589890Y-91900213D01*
X133464951Y-92072179D01*
X133368444Y-92261585D01*
X133302753Y-92463760D01*
X133269500Y-92673713D01*
X133269500Y-92886286D01*
X133286107Y-92991142D01*
X133302754Y-93096243D01*
X133348067Y-93235702D01*
X133368444Y-93298414D01*
X133464951Y-93487820D01*
X133589890Y-93659786D01*
X133740213Y-93810109D01*
X133912182Y-93935050D01*
X133920946Y-93939516D01*
X133971742Y-93987491D01*
X133988536Y-94055312D01*
X133965998Y-94121447D01*
X133920946Y-94160484D01*
X133912182Y-94164949D01*
X133740213Y-94289890D01*
X133589890Y-94440213D01*
X133464951Y-94612179D01*
X133368444Y-94801585D01*
X133302753Y-95003760D01*
X133269500Y-95213713D01*
X133269500Y-95426286D01*
X133297841Y-95605228D01*
X133302754Y-95636243D01*
X133348067Y-95775702D01*
X133368444Y-95838414D01*
X133464951Y-96027820D01*
X133589890Y-96199786D01*
X133740213Y-96350109D01*
X133912182Y-96475050D01*
X133920946Y-96479516D01*
X133971742Y-96527491D01*
X133988536Y-96595312D01*
X133965998Y-96661447D01*
X133920946Y-96700484D01*
X133912182Y-96704949D01*
X133740213Y-96829890D01*
X133589890Y-96980213D01*
X133464951Y-97152179D01*
X133368444Y-97341585D01*
X133302753Y-97543760D01*
X133283623Y-97664543D01*
X133269500Y-97753713D01*
X133269500Y-97966287D01*
X133302754Y-98176243D01*
X133360976Y-98355432D01*
X133368444Y-98378414D01*
X133464951Y-98567820D01*
X133589890Y-98739786D01*
X133740213Y-98890109D01*
X133912182Y-99015050D01*
X133920946Y-99019516D01*
X133971742Y-99067491D01*
X133988536Y-99135312D01*
X133965998Y-99201447D01*
X133920946Y-99240484D01*
X133912182Y-99244949D01*
X133740213Y-99369890D01*
X133589890Y-99520213D01*
X133464951Y-99692179D01*
X133368444Y-99881585D01*
X133302753Y-100083760D01*
X133269500Y-100293713D01*
X133269500Y-100506286D01*
X133291956Y-100648071D01*
X133302754Y-100716243D01*
X133360540Y-100894090D01*
X133368444Y-100918414D01*
X133464951Y-101107820D01*
X133589890Y-101279786D01*
X133740213Y-101430109D01*
X133912182Y-101555050D01*
X133920946Y-101559516D01*
X133971742Y-101607491D01*
X133988536Y-101675312D01*
X133965998Y-101741447D01*
X133920946Y-101780484D01*
X133912182Y-101784949D01*
X133740213Y-101909890D01*
X133589890Y-102060213D01*
X133464951Y-102232179D01*
X133368444Y-102421585D01*
X133302753Y-102623760D01*
X133284040Y-102741909D01*
X133269500Y-102833713D01*
X133269500Y-103046287D01*
X133302754Y-103256243D01*
X133348067Y-103395702D01*
X133368444Y-103458414D01*
X133464951Y-103647820D01*
X133589890Y-103819786D01*
X133740213Y-103970109D01*
X133912182Y-104095050D01*
X133920946Y-104099516D01*
X133971742Y-104147491D01*
X133988536Y-104215312D01*
X133965998Y-104281447D01*
X133920946Y-104320484D01*
X133912182Y-104324949D01*
X133740213Y-104449890D01*
X133589890Y-104600213D01*
X133464951Y-104772179D01*
X133368444Y-104961585D01*
X133302753Y-105163760D01*
X133283623Y-105284543D01*
X133269500Y-105373713D01*
X133269500Y-105586287D01*
X133302754Y-105796243D01*
X133360927Y-105975281D01*
X133368444Y-105998414D01*
X133464951Y-106187820D01*
X133589890Y-106359786D01*
X133740213Y-106510109D01*
X133912182Y-106635050D01*
X133920946Y-106639516D01*
X133971742Y-106687491D01*
X133988536Y-106755312D01*
X133965998Y-106821447D01*
X133920946Y-106860484D01*
X133912182Y-106864949D01*
X133740213Y-106989890D01*
X133589890Y-107140213D01*
X133464951Y-107312179D01*
X133368444Y-107501585D01*
X133302753Y-107703760D01*
X133269500Y-107913713D01*
X133269500Y-108126286D01*
X133294136Y-108281835D01*
X133302754Y-108336243D01*
X133326016Y-108407837D01*
X133368444Y-108538414D01*
X133464951Y-108727820D01*
X133589890Y-108899786D01*
X133740213Y-109050109D01*
X133912182Y-109175050D01*
X133920946Y-109179516D01*
X133971742Y-109227491D01*
X133988536Y-109295312D01*
X133965998Y-109361447D01*
X133920946Y-109400484D01*
X133912182Y-109404949D01*
X133740213Y-109529890D01*
X133589890Y-109680213D01*
X133464951Y-109852179D01*
X133368444Y-110041585D01*
X133302753Y-110243760D01*
X133269500Y-110453713D01*
X133269500Y-110666286D01*
X133302753Y-110876239D01*
X133368444Y-111078414D01*
X133464951Y-111267820D01*
X133589890Y-111439786D01*
X133740213Y-111590109D01*
X133912179Y-111715048D01*
X133912181Y-111715049D01*
X133912184Y-111715051D01*
X134101588Y-111811557D01*
X134303757Y-111877246D01*
X134513713Y-111910500D01*
X134513714Y-111910500D01*
X134726286Y-111910500D01*
X134726287Y-111910500D01*
X134936243Y-111877246D01*
X135138412Y-111811557D01*
X135327816Y-111715051D01*
X135327816Y-111715050D01*
X135332157Y-111712839D01*
X135332638Y-111713784D01*
X135395147Y-111696871D01*
X135461751Y-111717983D01*
X135506368Y-111771751D01*
X135516500Y-111820843D01*
X135516500Y-114242719D01*
X135496815Y-114309758D01*
X135480181Y-114330400D01*
X129647992Y-120162589D01*
X129604289Y-120206292D01*
X129560586Y-120249994D01*
X129560585Y-120249996D01*
X129491789Y-120352956D01*
X129491626Y-120353468D01*
X129444614Y-120466965D01*
X129427180Y-120554615D01*
X129425847Y-120561313D01*
X129425843Y-120561328D01*
X129420500Y-120588192D01*
X129420500Y-121156038D01*
X129400815Y-121223077D01*
X129352798Y-121266521D01*
X129340182Y-121272949D01*
X129168213Y-121397890D01*
X129017890Y-121548213D01*
X128892949Y-121720182D01*
X128888484Y-121728946D01*
X128840509Y-121779742D01*
X128772688Y-121796536D01*
X128706553Y-121773998D01*
X128667516Y-121728946D01*
X128663050Y-121720182D01*
X128538109Y-121548213D01*
X128387786Y-121397890D01*
X128215817Y-121272949D01*
X128203202Y-121266521D01*
X128152408Y-121218546D01*
X128135500Y-121156038D01*
X128135500Y-116831194D01*
X128111386Y-116709970D01*
X128111385Y-116709969D01*
X128111385Y-116709965D01*
X128064801Y-116597500D01*
X128064086Y-116595773D01*
X128064079Y-116595760D01*
X127995412Y-116492993D01*
X127953919Y-116451500D01*
X127908008Y-116405589D01*
X126086819Y-114584400D01*
X126053334Y-114523077D01*
X126050500Y-114496719D01*
X126050500Y-87523713D01*
X126919500Y-87523713D01*
X126919500Y-87736287D01*
X126924179Y-87765826D01*
X126947666Y-87914123D01*
X126952754Y-87946243D01*
X126975498Y-88016243D01*
X127018444Y-88148414D01*
X127114951Y-88337820D01*
X127239890Y-88509786D01*
X127390213Y-88660109D01*
X127562182Y-88785050D01*
X127570946Y-88789516D01*
X127621742Y-88837491D01*
X127638536Y-88905312D01*
X127615998Y-88971447D01*
X127570946Y-89010484D01*
X127562182Y-89014949D01*
X127390213Y-89139890D01*
X127239890Y-89290213D01*
X127114951Y-89462179D01*
X127018444Y-89651585D01*
X126952753Y-89853760D01*
X126919500Y-90063713D01*
X126919500Y-90276287D01*
X126926401Y-90319857D01*
X126947666Y-90454123D01*
X126952754Y-90486243D01*
X127003353Y-90641971D01*
X127018444Y-90688414D01*
X127114951Y-90877820D01*
X127239890Y-91049786D01*
X127390213Y-91200109D01*
X127562182Y-91325050D01*
X127570946Y-91329516D01*
X127621742Y-91377491D01*
X127638536Y-91445312D01*
X127615998Y-91511447D01*
X127570946Y-91550484D01*
X127562182Y-91554949D01*
X127390213Y-91679890D01*
X127239890Y-91830213D01*
X127114951Y-92002179D01*
X127018444Y-92191585D01*
X126952753Y-92393760D01*
X126922536Y-92584543D01*
X126919500Y-92603713D01*
X126919500Y-92816287D01*
X126926401Y-92859857D01*
X126947666Y-92994123D01*
X126952754Y-93026243D01*
X127003353Y-93181971D01*
X127018444Y-93228414D01*
X127114951Y-93417820D01*
X127239890Y-93589786D01*
X127390213Y-93740109D01*
X127562182Y-93865050D01*
X127570946Y-93869516D01*
X127621742Y-93917491D01*
X127638536Y-93985312D01*
X127615998Y-94051447D01*
X127570946Y-94090484D01*
X127562182Y-94094949D01*
X127390213Y-94219890D01*
X127239890Y-94370213D01*
X127114951Y-94542179D01*
X127018444Y-94731585D01*
X126952753Y-94933760D01*
X126922536Y-95124543D01*
X126919500Y-95143713D01*
X126919500Y-95356287D01*
X126921342Y-95367919D01*
X126947666Y-95534123D01*
X126952754Y-95566243D01*
X127007714Y-95735393D01*
X127018444Y-95768414D01*
X127114951Y-95957820D01*
X127239890Y-96129786D01*
X127390213Y-96280109D01*
X127562182Y-96405050D01*
X127570946Y-96409516D01*
X127621742Y-96457491D01*
X127638536Y-96525312D01*
X127615998Y-96591447D01*
X127570946Y-96630484D01*
X127562182Y-96634949D01*
X127390213Y-96759890D01*
X127239890Y-96910213D01*
X127114951Y-97082179D01*
X127018444Y-97271585D01*
X126952753Y-97473760D01*
X126919500Y-97683713D01*
X126919500Y-97896286D01*
X126947666Y-98074123D01*
X126952754Y-98106243D01*
X127007424Y-98274500D01*
X127018444Y-98308414D01*
X127114951Y-98497820D01*
X127239890Y-98669786D01*
X127390213Y-98820109D01*
X127562182Y-98945050D01*
X127570946Y-98949516D01*
X127621742Y-98997491D01*
X127638536Y-99065312D01*
X127615998Y-99131447D01*
X127570946Y-99170484D01*
X127562182Y-99174949D01*
X127390213Y-99299890D01*
X127239890Y-99450213D01*
X127114951Y-99622179D01*
X127018444Y-99811585D01*
X126952753Y-100013760D01*
X126919500Y-100223713D01*
X126919500Y-100436286D01*
X126947666Y-100614123D01*
X126952754Y-100646243D01*
X127003353Y-100801971D01*
X127018444Y-100848414D01*
X127114951Y-101037820D01*
X127239890Y-101209786D01*
X127390213Y-101360109D01*
X127562182Y-101485050D01*
X127570946Y-101489516D01*
X127621742Y-101537491D01*
X127638536Y-101605312D01*
X127615998Y-101671447D01*
X127570946Y-101710484D01*
X127562182Y-101714949D01*
X127390213Y-101839890D01*
X127239890Y-101990213D01*
X127114951Y-102162179D01*
X127018444Y-102351585D01*
X126952753Y-102553760D01*
X126919500Y-102763713D01*
X126919500Y-102976286D01*
X126947666Y-103154123D01*
X126952754Y-103186243D01*
X127003353Y-103341971D01*
X127018444Y-103388414D01*
X127114951Y-103577820D01*
X127239890Y-103749786D01*
X127390213Y-103900109D01*
X127562182Y-104025050D01*
X127570946Y-104029516D01*
X127621742Y-104077491D01*
X127638536Y-104145312D01*
X127615998Y-104211447D01*
X127570946Y-104250484D01*
X127562182Y-104254949D01*
X127390213Y-104379890D01*
X127239890Y-104530213D01*
X127114951Y-104702179D01*
X127018444Y-104891585D01*
X126952753Y-105093760D01*
X126919500Y-105303713D01*
X126919500Y-105516286D01*
X126949167Y-105703600D01*
X126952754Y-105726243D01*
X127005182Y-105887600D01*
X127018444Y-105928414D01*
X127114951Y-106117820D01*
X127239890Y-106289786D01*
X127390213Y-106440109D01*
X127562182Y-106565050D01*
X127570946Y-106569516D01*
X127621742Y-106617491D01*
X127638536Y-106685312D01*
X127615998Y-106751447D01*
X127570946Y-106790484D01*
X127562182Y-106794949D01*
X127390213Y-106919890D01*
X127239890Y-107070213D01*
X127114951Y-107242179D01*
X127018444Y-107431585D01*
X126952753Y-107633760D01*
X126930871Y-107771919D01*
X126919500Y-107843713D01*
X126919500Y-108056287D01*
X126952754Y-108266243D01*
X127016818Y-108463412D01*
X127018444Y-108468414D01*
X127114951Y-108657820D01*
X127239890Y-108829786D01*
X127353430Y-108943326D01*
X127386915Y-109004649D01*
X127381931Y-109074341D01*
X127340059Y-109130274D01*
X127309083Y-109147189D01*
X127177669Y-109196203D01*
X127177664Y-109196206D01*
X127062455Y-109282452D01*
X127062452Y-109282455D01*
X126976206Y-109397664D01*
X126976202Y-109397671D01*
X126925908Y-109532517D01*
X126919727Y-109590016D01*
X126919501Y-109592123D01*
X126919500Y-109592135D01*
X126919500Y-111387870D01*
X126919501Y-111387876D01*
X126925908Y-111447483D01*
X126976202Y-111582328D01*
X126976206Y-111582335D01*
X127062452Y-111697544D01*
X127062455Y-111697547D01*
X127177664Y-111783793D01*
X127177671Y-111783797D01*
X127312517Y-111834091D01*
X127312516Y-111834091D01*
X127319444Y-111834835D01*
X127372127Y-111840500D01*
X129167872Y-111840499D01*
X129227483Y-111834091D01*
X129362331Y-111783796D01*
X129477546Y-111697546D01*
X129563796Y-111582331D01*
X129614091Y-111447483D01*
X129620500Y-111387873D01*
X129620499Y-109592128D01*
X129615299Y-109543757D01*
X129614091Y-109532516D01*
X129563797Y-109397671D01*
X129563793Y-109397664D01*
X129477547Y-109282455D01*
X129477544Y-109282452D01*
X129362335Y-109196206D01*
X129362328Y-109196202D01*
X129230917Y-109147189D01*
X129174983Y-109105318D01*
X129150566Y-109039853D01*
X129165418Y-108971580D01*
X129186563Y-108943332D01*
X129300104Y-108829792D01*
X129301052Y-108828488D01*
X129425048Y-108657820D01*
X129425047Y-108657820D01*
X129425051Y-108657816D01*
X129521557Y-108468412D01*
X129587246Y-108266243D01*
X129620500Y-108056287D01*
X129620500Y-107843713D01*
X129587246Y-107633757D01*
X129521557Y-107431588D01*
X129425051Y-107242184D01*
X129425049Y-107242181D01*
X129425048Y-107242179D01*
X129300109Y-107070213D01*
X129149786Y-106919890D01*
X128977820Y-106794951D01*
X128977115Y-106794591D01*
X128969054Y-106790485D01*
X128918259Y-106742512D01*
X128901463Y-106674692D01*
X128923999Y-106608556D01*
X128969054Y-106569515D01*
X128977816Y-106565051D01*
X129059999Y-106505342D01*
X129149786Y-106440109D01*
X129149788Y-106440106D01*
X129149792Y-106440104D01*
X129300104Y-106289792D01*
X129300106Y-106289788D01*
X129300109Y-106289786D01*
X129425048Y-106117820D01*
X129425047Y-106117820D01*
X129425051Y-106117816D01*
X129521557Y-105928412D01*
X129587246Y-105726243D01*
X129620500Y-105516287D01*
X129620500Y-105303713D01*
X129587246Y-105093757D01*
X129521557Y-104891588D01*
X129425051Y-104702184D01*
X129425049Y-104702181D01*
X129425048Y-104702179D01*
X129300109Y-104530213D01*
X129149786Y-104379890D01*
X128977820Y-104254951D01*
X128977115Y-104254591D01*
X128969054Y-104250485D01*
X128918259Y-104202512D01*
X128901463Y-104134692D01*
X128923999Y-104068556D01*
X128969054Y-104029515D01*
X128977816Y-104025051D01*
X129094785Y-103940069D01*
X129149786Y-103900109D01*
X129149788Y-103900106D01*
X129149792Y-103900104D01*
X129300104Y-103749792D01*
X129300106Y-103749788D01*
X129300109Y-103749786D01*
X129425048Y-103577820D01*
X129425047Y-103577820D01*
X129425051Y-103577816D01*
X129521557Y-103388412D01*
X129587246Y-103186243D01*
X129620500Y-102976287D01*
X129620500Y-102763713D01*
X129587246Y-102553757D01*
X129521557Y-102351588D01*
X129425051Y-102162184D01*
X129425049Y-102162181D01*
X129425048Y-102162179D01*
X129300109Y-101990213D01*
X129149786Y-101839890D01*
X128977820Y-101714951D01*
X128977115Y-101714591D01*
X128969054Y-101710485D01*
X128918259Y-101662512D01*
X128901463Y-101594692D01*
X128923999Y-101528556D01*
X128969054Y-101489515D01*
X128977816Y-101485051D01*
X129080042Y-101410780D01*
X129149786Y-101360109D01*
X129149788Y-101360106D01*
X129149792Y-101360104D01*
X129300104Y-101209792D01*
X129300106Y-101209788D01*
X129300109Y-101209786D01*
X129425048Y-101037820D01*
X129425047Y-101037820D01*
X129425051Y-101037816D01*
X129521557Y-100848412D01*
X129587246Y-100646243D01*
X129620500Y-100436287D01*
X129620500Y-100223713D01*
X129587246Y-100013757D01*
X129521557Y-99811588D01*
X129425051Y-99622184D01*
X129425049Y-99622181D01*
X129425048Y-99622179D01*
X129300109Y-99450213D01*
X129149786Y-99299890D01*
X128977820Y-99174951D01*
X128977115Y-99174591D01*
X128969054Y-99170485D01*
X128918259Y-99122512D01*
X128901463Y-99054692D01*
X128923999Y-98988556D01*
X128969054Y-98949515D01*
X128977816Y-98945051D01*
X129080042Y-98870780D01*
X129149786Y-98820109D01*
X129149788Y-98820106D01*
X129149792Y-98820104D01*
X129300104Y-98669792D01*
X129300106Y-98669788D01*
X129300109Y-98669786D01*
X129425048Y-98497820D01*
X129425047Y-98497820D01*
X129425051Y-98497816D01*
X129521557Y-98308412D01*
X129587246Y-98106243D01*
X129620500Y-97896287D01*
X129620500Y-97683713D01*
X129587246Y-97473757D01*
X129521557Y-97271588D01*
X129425051Y-97082184D01*
X129425049Y-97082181D01*
X129425048Y-97082179D01*
X129300109Y-96910213D01*
X129149786Y-96759890D01*
X128977820Y-96634951D01*
X128977115Y-96634591D01*
X128969054Y-96630485D01*
X128918259Y-96582512D01*
X128901463Y-96514692D01*
X128923999Y-96448556D01*
X128969054Y-96409515D01*
X128977816Y-96405051D01*
X129080042Y-96330780D01*
X129149786Y-96280109D01*
X129149788Y-96280106D01*
X129149792Y-96280104D01*
X129300104Y-96129792D01*
X129300106Y-96129788D01*
X129300109Y-96129786D01*
X129425048Y-95957820D01*
X129425047Y-95957820D01*
X129425051Y-95957816D01*
X129521557Y-95768412D01*
X129587246Y-95566243D01*
X129620500Y-95356287D01*
X129620500Y-95143713D01*
X129587246Y-94933757D01*
X129521557Y-94731588D01*
X129425051Y-94542184D01*
X129425049Y-94542181D01*
X129425048Y-94542179D01*
X129300109Y-94370213D01*
X129149786Y-94219890D01*
X128977820Y-94094951D01*
X128977115Y-94094591D01*
X128969054Y-94090485D01*
X128918259Y-94042512D01*
X128901463Y-93974692D01*
X128923999Y-93908556D01*
X128969054Y-93869515D01*
X128977816Y-93865051D01*
X129017134Y-93836485D01*
X129149786Y-93740109D01*
X129149788Y-93740106D01*
X129149792Y-93740104D01*
X129300104Y-93589792D01*
X129300106Y-93589788D01*
X129300109Y-93589786D01*
X129425048Y-93417820D01*
X129425047Y-93417820D01*
X129425051Y-93417816D01*
X129521557Y-93228412D01*
X129587246Y-93026243D01*
X129620500Y-92816287D01*
X129620500Y-92603713D01*
X129587246Y-92393757D01*
X129521557Y-92191588D01*
X129425051Y-92002184D01*
X129425049Y-92002181D01*
X129425048Y-92002179D01*
X129300109Y-91830213D01*
X129149786Y-91679890D01*
X128977820Y-91554951D01*
X128977115Y-91554591D01*
X128969054Y-91550485D01*
X128918259Y-91502512D01*
X128901463Y-91434692D01*
X128923999Y-91368556D01*
X128969054Y-91329515D01*
X128977816Y-91325051D01*
X129080042Y-91250780D01*
X129149786Y-91200109D01*
X129149788Y-91200106D01*
X129149792Y-91200104D01*
X129300104Y-91049792D01*
X129300106Y-91049788D01*
X129300109Y-91049786D01*
X129425048Y-90877820D01*
X129425047Y-90877820D01*
X129425051Y-90877816D01*
X129521557Y-90688412D01*
X129587246Y-90486243D01*
X129620500Y-90276287D01*
X129620500Y-90063713D01*
X129587246Y-89853757D01*
X129521557Y-89651588D01*
X129425051Y-89462184D01*
X129425049Y-89462181D01*
X129425048Y-89462179D01*
X129300109Y-89290213D01*
X129149786Y-89139890D01*
X128977820Y-89014951D01*
X128977115Y-89014591D01*
X128969054Y-89010485D01*
X128918259Y-88962512D01*
X128901463Y-88894692D01*
X128923999Y-88828556D01*
X128969054Y-88789515D01*
X128977816Y-88785051D01*
X129053445Y-88730104D01*
X129149786Y-88660109D01*
X129149788Y-88660106D01*
X129149792Y-88660104D01*
X129300104Y-88509792D01*
X129300106Y-88509788D01*
X129300109Y-88509786D01*
X129425048Y-88337820D01*
X129425047Y-88337820D01*
X129425051Y-88337816D01*
X129521557Y-88148412D01*
X129587246Y-87946243D01*
X129620500Y-87736287D01*
X129620500Y-87523713D01*
X129587246Y-87313757D01*
X129521557Y-87111588D01*
X129425051Y-86922184D01*
X129425049Y-86922181D01*
X129425048Y-86922179D01*
X129300109Y-86750213D01*
X129149786Y-86599890D01*
X128977820Y-86474951D01*
X128788414Y-86378444D01*
X128788413Y-86378443D01*
X128788412Y-86378443D01*
X128586243Y-86312754D01*
X128586241Y-86312753D01*
X128586240Y-86312753D01*
X128393782Y-86282271D01*
X128376287Y-86279500D01*
X128163713Y-86279500D01*
X128146218Y-86282271D01*
X127953760Y-86312753D01*
X127751585Y-86378444D01*
X127562179Y-86474951D01*
X127390213Y-86599890D01*
X127239890Y-86750213D01*
X127114951Y-86922179D01*
X127018444Y-87111585D01*
X126952753Y-87313760D01*
X126922233Y-87506457D01*
X126919500Y-87523713D01*
X126050500Y-87523713D01*
X126050500Y-69481194D01*
X126026386Y-69359970D01*
X126026385Y-69359969D01*
X126026385Y-69359965D01*
X126026383Y-69359960D01*
X125979086Y-69245773D01*
X125979079Y-69245760D01*
X125910412Y-69142993D01*
X125909598Y-69142179D01*
X125823008Y-69055589D01*
X116913121Y-60145702D01*
X116879636Y-60084379D01*
X116882873Y-60019698D01*
X116887246Y-60006243D01*
X116920500Y-59796287D01*
X116920500Y-59583713D01*
X116887246Y-59373757D01*
X116821557Y-59171588D01*
X116725051Y-58982184D01*
X116725049Y-58982181D01*
X116725048Y-58982179D01*
X116600109Y-58810213D01*
X116449786Y-58659890D01*
X116277817Y-58534949D01*
X116268504Y-58530204D01*
X116217707Y-58482230D01*
X116200912Y-58414409D01*
X116223449Y-58348274D01*
X116268507Y-58309232D01*
X116277558Y-58304620D01*
X116449459Y-58179727D01*
X116449464Y-58179723D01*
X116599723Y-58029464D01*
X116599727Y-58029459D01*
X116724620Y-57857557D01*
X116821095Y-57668217D01*
X116886757Y-57466129D01*
X116886757Y-57466126D01*
X116897231Y-57400000D01*
X116003012Y-57400000D01*
X116035925Y-57342993D01*
X116070000Y-57215826D01*
X116070000Y-57084174D01*
X116035925Y-56957007D01*
X116003012Y-56900000D01*
X116897231Y-56900000D01*
X116886757Y-56833873D01*
X116886757Y-56833870D01*
X116821095Y-56631782D01*
X116724620Y-56442442D01*
X116599727Y-56270540D01*
X116599723Y-56270535D01*
X116449464Y-56120276D01*
X116449459Y-56120272D01*
X116277557Y-55995379D01*
X116088215Y-55898903D01*
X115886124Y-55833241D01*
X115820000Y-55822768D01*
X115820000Y-56716988D01*
X115762993Y-56684075D01*
X115635826Y-56650000D01*
X115504174Y-56650000D01*
X115377007Y-56684075D01*
X115320000Y-56716988D01*
X115320000Y-55822768D01*
X115319999Y-55822768D01*
X115253875Y-55833241D01*
X115051784Y-55898903D01*
X114862442Y-55995379D01*
X114690540Y-56120272D01*
X114690535Y-56120276D01*
X114540276Y-56270535D01*
X114540272Y-56270540D01*
X114415379Y-56442442D01*
X114318904Y-56631782D01*
X114253242Y-56833870D01*
X114253242Y-56833873D01*
X114242769Y-56900000D01*
X115136988Y-56900000D01*
X115104075Y-56957007D01*
X115070000Y-57084174D01*
X115070000Y-57215826D01*
X115104075Y-57342993D01*
X115136988Y-57400000D01*
X114242769Y-57400000D01*
X114253242Y-57466126D01*
X114253242Y-57466129D01*
X114318904Y-57668217D01*
X114415379Y-57857557D01*
X114540272Y-58029459D01*
X114540276Y-58029464D01*
X114690535Y-58179723D01*
X114690540Y-58179727D01*
X114862444Y-58304622D01*
X114871495Y-58309234D01*
X114922292Y-58357208D01*
X114939087Y-58425029D01*
X114916550Y-58491164D01*
X114871499Y-58530202D01*
X114862182Y-58534949D01*
X114690213Y-58659890D01*
X114539890Y-58810213D01*
X114414951Y-58982179D01*
X114318444Y-59171585D01*
X114252753Y-59373760D01*
X114225269Y-59547287D01*
X114219500Y-59583713D01*
X114219500Y-59796287D01*
X114220748Y-59804165D01*
X114250225Y-59990279D01*
X114252754Y-60006243D01*
X114316818Y-60203412D01*
X114318444Y-60208414D01*
X114414951Y-60397820D01*
X114539890Y-60569786D01*
X114690213Y-60720109D01*
X114862182Y-60845050D01*
X114870946Y-60849516D01*
X114921742Y-60897491D01*
X114938536Y-60965312D01*
X114915998Y-61031447D01*
X114870946Y-61070484D01*
X114862182Y-61074949D01*
X114690213Y-61199890D01*
X114539890Y-61350213D01*
X114414951Y-61522179D01*
X114318444Y-61711585D01*
X114252753Y-61913760D01*
X114238455Y-62004034D01*
X114219500Y-62123713D01*
X114219500Y-62336287D01*
X114252754Y-62546243D01*
X114298067Y-62685702D01*
X114318444Y-62748414D01*
X114414951Y-62937820D01*
X114539890Y-63109786D01*
X114690213Y-63260109D01*
X114862182Y-63385050D01*
X114870946Y-63389516D01*
X114921742Y-63437491D01*
X114938536Y-63505312D01*
X114915998Y-63571447D01*
X114870946Y-63610484D01*
X114862182Y-63614949D01*
X114690213Y-63739890D01*
X114539890Y-63890213D01*
X114414951Y-64062179D01*
X114318444Y-64251585D01*
X114252753Y-64453760D01*
X114222536Y-64644543D01*
X114219500Y-64663713D01*
X114219500Y-64876287D01*
X114252754Y-65086243D01*
X114307865Y-65255857D01*
X114318444Y-65288414D01*
X114414951Y-65477820D01*
X114539890Y-65649786D01*
X114690213Y-65800109D01*
X114862182Y-65925050D01*
X114870946Y-65929516D01*
X114921742Y-65977491D01*
X114938536Y-66045312D01*
X114915998Y-66111447D01*
X114870946Y-66150484D01*
X114862182Y-66154949D01*
X114690213Y-66279890D01*
X114539890Y-66430213D01*
X114414951Y-66602179D01*
X114318444Y-66791585D01*
X114252753Y-66993760D01*
X114219500Y-67203713D01*
X114219500Y-67416286D01*
X114237261Y-67528428D01*
X114252754Y-67626243D01*
X114307865Y-67795857D01*
X114318444Y-67828414D01*
X114414951Y-68017820D01*
X114539890Y-68189786D01*
X114690213Y-68340109D01*
X114862182Y-68465050D01*
X114870946Y-68469516D01*
X114921742Y-68517491D01*
X114938536Y-68585312D01*
X114915998Y-68651447D01*
X114870946Y-68690484D01*
X114862182Y-68694949D01*
X114690213Y-68819890D01*
X114539890Y-68970213D01*
X114414951Y-69142179D01*
X114318444Y-69331585D01*
X114252753Y-69533760D01*
X114219500Y-69743713D01*
X114219500Y-69956286D01*
X114237261Y-70068428D01*
X114252754Y-70166243D01*
X114307865Y-70335857D01*
X114318444Y-70368414D01*
X114414951Y-70557820D01*
X114539890Y-70729786D01*
X114690213Y-70880109D01*
X114862182Y-71005050D01*
X114870946Y-71009516D01*
X114921742Y-71057491D01*
X114938536Y-71125312D01*
X114915998Y-71191447D01*
X114870946Y-71230484D01*
X114862182Y-71234949D01*
X114690213Y-71359890D01*
X114539890Y-71510213D01*
X114414951Y-71682179D01*
X114318444Y-71871585D01*
X114252753Y-72073760D01*
X114219500Y-72283713D01*
X114219500Y-72496286D01*
X114237261Y-72608428D01*
X114252754Y-72706243D01*
X114307865Y-72875857D01*
X114318444Y-72908414D01*
X114414951Y-73097820D01*
X114539890Y-73269786D01*
X114690213Y-73420109D01*
X114862182Y-73545050D01*
X114870946Y-73549516D01*
X114921742Y-73597491D01*
X114938536Y-73665312D01*
X114915998Y-73731447D01*
X114870946Y-73770484D01*
X114862182Y-73774949D01*
X114690213Y-73899890D01*
X114539890Y-74050213D01*
X114414951Y-74222179D01*
X114318444Y-74411585D01*
X114252753Y-74613760D01*
X114219500Y-74823713D01*
X114219500Y-75036286D01*
X114237261Y-75148428D01*
X114252754Y-75246243D01*
X114307865Y-75415857D01*
X114318444Y-75448414D01*
X114414951Y-75637820D01*
X114539890Y-75809786D01*
X114690213Y-75960109D01*
X114862182Y-76085050D01*
X114870946Y-76089516D01*
X114921742Y-76137491D01*
X114938536Y-76205312D01*
X114915998Y-76271447D01*
X114870946Y-76310484D01*
X114862182Y-76314949D01*
X114690213Y-76439890D01*
X114539890Y-76590213D01*
X114414951Y-76762179D01*
X114318444Y-76951585D01*
X114252753Y-77153760D01*
X114222536Y-77344543D01*
X114219500Y-77363713D01*
X114219500Y-77576287D01*
X114252754Y-77786243D01*
X114307865Y-77955857D01*
X114318444Y-77988414D01*
X114414951Y-78177820D01*
X114539890Y-78349786D01*
X114690213Y-78500109D01*
X114862182Y-78625050D01*
X114870946Y-78629516D01*
X114921742Y-78677491D01*
X114938536Y-78745312D01*
X114915998Y-78811447D01*
X114870946Y-78850484D01*
X114862182Y-78854949D01*
X114690213Y-78979890D01*
X114539890Y-79130213D01*
X114414951Y-79302179D01*
X114318444Y-79491585D01*
X114252753Y-79693760D01*
X114219500Y-79903713D01*
X114219500Y-80116286D01*
X114241628Y-80256000D01*
X114252754Y-80326243D01*
X114305182Y-80487600D01*
X114318444Y-80528414D01*
X114414951Y-80717820D01*
X114539890Y-80889786D01*
X114690213Y-81040109D01*
X114862179Y-81165048D01*
X114862181Y-81165049D01*
X114862184Y-81165051D01*
X115051588Y-81261557D01*
X115253757Y-81327246D01*
X115463713Y-81360500D01*
X115463714Y-81360500D01*
X115676286Y-81360500D01*
X115676287Y-81360500D01*
X115886243Y-81327246D01*
X116088412Y-81261557D01*
X116277816Y-81165051D01*
X116364138Y-81102335D01*
X116449786Y-81040109D01*
X116449788Y-81040106D01*
X116449792Y-81040104D01*
X116600104Y-80889792D01*
X116600106Y-80889788D01*
X116600109Y-80889786D01*
X116709086Y-80739789D01*
X116725051Y-80717816D01*
X116821557Y-80528412D01*
X116887246Y-80326243D01*
X116920500Y-80116287D01*
X116920500Y-80039807D01*
X116940185Y-79972768D01*
X116992989Y-79927013D01*
X117062147Y-79917069D01*
X117125703Y-79946094D01*
X117132167Y-79952113D01*
X119109338Y-81929283D01*
X121233181Y-84053126D01*
X121266666Y-84114449D01*
X121269500Y-84140807D01*
X121269500Y-94682719D01*
X121249815Y-94749758D01*
X121197011Y-94795513D01*
X121127853Y-94805457D01*
X121064297Y-94776432D01*
X121057819Y-94770400D01*
X116913121Y-90625702D01*
X116879636Y-90564379D01*
X116882873Y-90499698D01*
X116887246Y-90486243D01*
X116920500Y-90276287D01*
X116920500Y-90063713D01*
X116887246Y-89853757D01*
X116821557Y-89651588D01*
X116725051Y-89462184D01*
X116725049Y-89462181D01*
X116725048Y-89462179D01*
X116600109Y-89290213D01*
X116449786Y-89139890D01*
X116277817Y-89014949D01*
X116268504Y-89010204D01*
X116217707Y-88962230D01*
X116200912Y-88894409D01*
X116223449Y-88828274D01*
X116268507Y-88789232D01*
X116277558Y-88784620D01*
X116449459Y-88659727D01*
X116449464Y-88659723D01*
X116599723Y-88509464D01*
X116599727Y-88509459D01*
X116724620Y-88337557D01*
X116821095Y-88148217D01*
X116886757Y-87946129D01*
X116886757Y-87946126D01*
X116897231Y-87880000D01*
X116003012Y-87880000D01*
X116035925Y-87822993D01*
X116070000Y-87695826D01*
X116070000Y-87564174D01*
X116035925Y-87437007D01*
X116003012Y-87380000D01*
X116897231Y-87380000D01*
X116886757Y-87313873D01*
X116886757Y-87313870D01*
X116821095Y-87111782D01*
X116724620Y-86922442D01*
X116599727Y-86750540D01*
X116599723Y-86750535D01*
X116449464Y-86600276D01*
X116449459Y-86600272D01*
X116277557Y-86475379D01*
X116088215Y-86378903D01*
X115886124Y-86313241D01*
X115820000Y-86302768D01*
X115820000Y-87196988D01*
X115762993Y-87164075D01*
X115635826Y-87130000D01*
X115504174Y-87130000D01*
X115377007Y-87164075D01*
X115320000Y-87196988D01*
X115320000Y-86302768D01*
X115319999Y-86302768D01*
X115253875Y-86313241D01*
X115051784Y-86378903D01*
X114862442Y-86475379D01*
X114690540Y-86600272D01*
X114690535Y-86600276D01*
X114540276Y-86750535D01*
X114540272Y-86750540D01*
X114415379Y-86922442D01*
X114318904Y-87111782D01*
X114253242Y-87313870D01*
X114253242Y-87313873D01*
X114242769Y-87380000D01*
X115136988Y-87380000D01*
X115104075Y-87437007D01*
X115070000Y-87564174D01*
X115070000Y-87695826D01*
X115104075Y-87822993D01*
X115136988Y-87880000D01*
X114242769Y-87880000D01*
X114253242Y-87946126D01*
X114253242Y-87946129D01*
X114318904Y-88148217D01*
X114415379Y-88337557D01*
X114540272Y-88509459D01*
X114540276Y-88509464D01*
X114690535Y-88659723D01*
X114690540Y-88659727D01*
X114862444Y-88784622D01*
X114871495Y-88789234D01*
X114922292Y-88837208D01*
X114939087Y-88905029D01*
X114916550Y-88971164D01*
X114871499Y-89010202D01*
X114862182Y-89014949D01*
X114690213Y-89139890D01*
X114539890Y-89290213D01*
X114414951Y-89462179D01*
X114318444Y-89651585D01*
X114252753Y-89853760D01*
X114219500Y-90063713D01*
X114219500Y-90276287D01*
X114226401Y-90319857D01*
X114247666Y-90454123D01*
X114252754Y-90486243D01*
X114303353Y-90641971D01*
X114318444Y-90688414D01*
X114414951Y-90877820D01*
X114539890Y-91049786D01*
X114690213Y-91200109D01*
X114862182Y-91325050D01*
X114870946Y-91329516D01*
X114921742Y-91377491D01*
X114938536Y-91445312D01*
X114915998Y-91511447D01*
X114870946Y-91550484D01*
X114862182Y-91554949D01*
X114690213Y-91679890D01*
X114539890Y-91830213D01*
X114414951Y-92002179D01*
X114318444Y-92191585D01*
X114252753Y-92393760D01*
X114222536Y-92584543D01*
X114219500Y-92603713D01*
X114219500Y-92816287D01*
X114226401Y-92859857D01*
X114247666Y-92994123D01*
X114252754Y-93026243D01*
X114303353Y-93181971D01*
X114318444Y-93228414D01*
X114414951Y-93417820D01*
X114539890Y-93589786D01*
X114690213Y-93740109D01*
X114862182Y-93865050D01*
X114870946Y-93869516D01*
X114921742Y-93917491D01*
X114938536Y-93985312D01*
X114915998Y-94051447D01*
X114870946Y-94090484D01*
X114862182Y-94094949D01*
X114690213Y-94219890D01*
X114539890Y-94370213D01*
X114414951Y-94542179D01*
X114318444Y-94731585D01*
X114252753Y-94933760D01*
X114222536Y-95124543D01*
X114219500Y-95143713D01*
X114219500Y-95356287D01*
X114221342Y-95367919D01*
X114247666Y-95534123D01*
X114252754Y-95566243D01*
X114307714Y-95735393D01*
X114318444Y-95768414D01*
X114414951Y-95957820D01*
X114539890Y-96129786D01*
X114690213Y-96280109D01*
X114862182Y-96405050D01*
X114870946Y-96409516D01*
X114921742Y-96457491D01*
X114938536Y-96525312D01*
X114915998Y-96591447D01*
X114870946Y-96630484D01*
X114862182Y-96634949D01*
X114690213Y-96759890D01*
X114539890Y-96910213D01*
X114414951Y-97082179D01*
X114318444Y-97271585D01*
X114252753Y-97473760D01*
X114219500Y-97683713D01*
X114219500Y-97896286D01*
X114247666Y-98074123D01*
X114252754Y-98106243D01*
X114307424Y-98274500D01*
X114318444Y-98308414D01*
X114414951Y-98497820D01*
X114539890Y-98669786D01*
X114690213Y-98820109D01*
X114862182Y-98945050D01*
X114870946Y-98949516D01*
X114921742Y-98997491D01*
X114938536Y-99065312D01*
X114915998Y-99131447D01*
X114870946Y-99170484D01*
X114862182Y-99174949D01*
X114690213Y-99299890D01*
X114539890Y-99450213D01*
X114414951Y-99622179D01*
X114318444Y-99811585D01*
X114252753Y-100013760D01*
X114219500Y-100223713D01*
X114219500Y-100436286D01*
X114247666Y-100614123D01*
X114252754Y-100646243D01*
X114303353Y-100801971D01*
X114318444Y-100848414D01*
X114414951Y-101037820D01*
X114539890Y-101209786D01*
X114690213Y-101360109D01*
X114862182Y-101485050D01*
X114870946Y-101489516D01*
X114921742Y-101537491D01*
X114938536Y-101605312D01*
X114915998Y-101671447D01*
X114870946Y-101710484D01*
X114862182Y-101714949D01*
X114690213Y-101839890D01*
X114539890Y-101990213D01*
X114414951Y-102162179D01*
X114318444Y-102351585D01*
X114252753Y-102553760D01*
X114219500Y-102763713D01*
X114219500Y-102976286D01*
X114247666Y-103154123D01*
X114252754Y-103186243D01*
X114303353Y-103341971D01*
X114318444Y-103388414D01*
X114414951Y-103577820D01*
X114539890Y-103749786D01*
X114690213Y-103900109D01*
X114862182Y-104025050D01*
X114870946Y-104029516D01*
X114921742Y-104077491D01*
X114938536Y-104145312D01*
X114915998Y-104211447D01*
X114870946Y-104250484D01*
X114862182Y-104254949D01*
X114690213Y-104379890D01*
X114539890Y-104530213D01*
X114414951Y-104702179D01*
X114318444Y-104891585D01*
X114252753Y-105093760D01*
X114219500Y-105303713D01*
X114219500Y-105516286D01*
X114249167Y-105703600D01*
X114252754Y-105726243D01*
X114305182Y-105887600D01*
X114318444Y-105928414D01*
X114414951Y-106117820D01*
X114539890Y-106289786D01*
X114690213Y-106440109D01*
X114862182Y-106565050D01*
X114870946Y-106569516D01*
X114921742Y-106617491D01*
X114938536Y-106685312D01*
X114915998Y-106751447D01*
X114870946Y-106790484D01*
X114862182Y-106794949D01*
X114690213Y-106919890D01*
X114539890Y-107070213D01*
X114414951Y-107242179D01*
X114318444Y-107431585D01*
X114252753Y-107633760D01*
X114230871Y-107771919D01*
X114219500Y-107843713D01*
X114219500Y-108056287D01*
X114252754Y-108266243D01*
X114316818Y-108463412D01*
X114318444Y-108468414D01*
X114414951Y-108657820D01*
X114539890Y-108829786D01*
X114690213Y-108980109D01*
X114862182Y-109105050D01*
X114870946Y-109109516D01*
X114921742Y-109157491D01*
X114938536Y-109225312D01*
X114915998Y-109291447D01*
X114870946Y-109330484D01*
X114862182Y-109334949D01*
X114690213Y-109459890D01*
X114539890Y-109610213D01*
X114414950Y-109782180D01*
X114407503Y-109796797D01*
X114359527Y-109847592D01*
X114297019Y-109864500D01*
X113030528Y-109864500D01*
X112963489Y-109844815D01*
X112920043Y-109796794D01*
X112910050Y-109777182D01*
X112785109Y-109605213D01*
X112634786Y-109454890D01*
X112462815Y-109329948D01*
X112462812Y-109329946D01*
X112454050Y-109325481D01*
X112403256Y-109277505D01*
X112386463Y-109209683D01*
X112409003Y-109143549D01*
X112454060Y-109104512D01*
X112462816Y-109100051D01*
X112531563Y-109050104D01*
X112634786Y-108975109D01*
X112634788Y-108975106D01*
X112634792Y-108975104D01*
X112785104Y-108824792D01*
X112785106Y-108824788D01*
X112785109Y-108824786D01*
X112910048Y-108652820D01*
X112910047Y-108652820D01*
X112910051Y-108652816D01*
X113006557Y-108463412D01*
X113072246Y-108261243D01*
X113105500Y-108051287D01*
X113105500Y-107838713D01*
X113072246Y-107628757D01*
X113006557Y-107426588D01*
X112910051Y-107237184D01*
X112910049Y-107237181D01*
X112910048Y-107237179D01*
X112785109Y-107065213D01*
X112634786Y-106914890D01*
X112462820Y-106789951D01*
X112273414Y-106693444D01*
X112273413Y-106693443D01*
X112273412Y-106693443D01*
X112071243Y-106627754D01*
X112071241Y-106627753D01*
X112071240Y-106627753D01*
X111909957Y-106602208D01*
X111861287Y-106594500D01*
X111784807Y-106594500D01*
X111717768Y-106574815D01*
X111672013Y-106522011D01*
X111662069Y-106452853D01*
X111691094Y-106389297D01*
X111697126Y-106382819D01*
X112669704Y-105410242D01*
X113789277Y-104290669D01*
X113860465Y-104184127D01*
X113909501Y-104065744D01*
X113912357Y-104051386D01*
X113920568Y-104010106D01*
X113934500Y-103940071D01*
X113934500Y-89185274D01*
X113909502Y-89059607D01*
X113909501Y-89059606D01*
X113909501Y-89059602D01*
X113860465Y-88941219D01*
X113825908Y-88889500D01*
X113825908Y-88889499D01*
X113789279Y-88834680D01*
X113789273Y-88834672D01*
X111295819Y-86341218D01*
X111281115Y-86314290D01*
X111264523Y-86288472D01*
X111263631Y-86282271D01*
X111262334Y-86279895D01*
X111259500Y-86253537D01*
X111259500Y-86211475D01*
X111279185Y-86144436D01*
X111331989Y-86098681D01*
X111401147Y-86088737D01*
X111421820Y-86093545D01*
X111455458Y-86104475D01*
X111455461Y-86104475D01*
X111455466Y-86104477D01*
X111657648Y-86136500D01*
X111657649Y-86136500D01*
X111862351Y-86136500D01*
X111862352Y-86136500D01*
X112064534Y-86104477D01*
X112259219Y-86041220D01*
X112441610Y-85948287D01*
X112534590Y-85880732D01*
X112607213Y-85827971D01*
X112607215Y-85827968D01*
X112607219Y-85827966D01*
X112751966Y-85683219D01*
X112751968Y-85683215D01*
X112751971Y-85683213D01*
X112804732Y-85610590D01*
X112872287Y-85517610D01*
X112965220Y-85335219D01*
X113028477Y-85140534D01*
X113060500Y-84938352D01*
X113060500Y-84733648D01*
X113028477Y-84531465D01*
X112965218Y-84336776D01*
X112879075Y-84167713D01*
X112872287Y-84154390D01*
X112847924Y-84120857D01*
X112751971Y-83988786D01*
X112607213Y-83844028D01*
X112441614Y-83723715D01*
X112435006Y-83720348D01*
X112348917Y-83676483D01*
X112298123Y-83628511D01*
X112281328Y-83560690D01*
X112303865Y-83494555D01*
X112348917Y-83455516D01*
X112441610Y-83408287D01*
X112561640Y-83321081D01*
X112607213Y-83287971D01*
X112607215Y-83287968D01*
X112607219Y-83287966D01*
X112751966Y-83143219D01*
X112751968Y-83143215D01*
X112751971Y-83143213D01*
X112840240Y-83021719D01*
X112872287Y-82977610D01*
X112965220Y-82795219D01*
X113028477Y-82600534D01*
X113060500Y-82398352D01*
X113060500Y-82193648D01*
X113041053Y-82070866D01*
X113028477Y-81991465D01*
X112965218Y-81796776D01*
X112931503Y-81730607D01*
X112872287Y-81614390D01*
X112864556Y-81603749D01*
X112751971Y-81448786D01*
X112607213Y-81304028D01*
X112441614Y-81183715D01*
X112435006Y-81180348D01*
X112348917Y-81136483D01*
X112298123Y-81088511D01*
X112281328Y-81020690D01*
X112303865Y-80954555D01*
X112348917Y-80915516D01*
X112441610Y-80868287D01*
X112462770Y-80852913D01*
X112607213Y-80747971D01*
X112607215Y-80747968D01*
X112607219Y-80747966D01*
X112751966Y-80603219D01*
X112751968Y-80603215D01*
X112751971Y-80603213D01*
X112835967Y-80487600D01*
X112872287Y-80437610D01*
X112965220Y-80255219D01*
X113028477Y-80060534D01*
X113060500Y-79858352D01*
X113060500Y-79653648D01*
X113037356Y-79507523D01*
X113028477Y-79451465D01*
X112979972Y-79302184D01*
X112965220Y-79256781D01*
X112965218Y-79256778D01*
X112965218Y-79256776D01*
X112900730Y-79130213D01*
X112872287Y-79074390D01*
X112864556Y-79063749D01*
X112751971Y-78908786D01*
X112607213Y-78764028D01*
X112441614Y-78643715D01*
X112413747Y-78629516D01*
X112348917Y-78596483D01*
X112298123Y-78548511D01*
X112281328Y-78480690D01*
X112303865Y-78414555D01*
X112348917Y-78375516D01*
X112441610Y-78328287D01*
X112462770Y-78312913D01*
X112607213Y-78207971D01*
X112607215Y-78207968D01*
X112607219Y-78207966D01*
X112751966Y-78063219D01*
X112751968Y-78063215D01*
X112751971Y-78063213D01*
X112806316Y-77988412D01*
X112872287Y-77897610D01*
X112965220Y-77715219D01*
X113028477Y-77520534D01*
X113060500Y-77318352D01*
X113060500Y-77113648D01*
X113037356Y-76967523D01*
X113028477Y-76911465D01*
X112979971Y-76762180D01*
X112965220Y-76716781D01*
X112965218Y-76716778D01*
X112965218Y-76716776D01*
X112900730Y-76590213D01*
X112872287Y-76534390D01*
X112858643Y-76515611D01*
X112751971Y-76368786D01*
X112607213Y-76224028D01*
X112441613Y-76103715D01*
X112441612Y-76103714D01*
X112441610Y-76103713D01*
X112384653Y-76074691D01*
X112259223Y-76010781D01*
X112064534Y-75947522D01*
X111889995Y-75919878D01*
X111862352Y-75915500D01*
X111739807Y-75915500D01*
X111672768Y-75895815D01*
X111627013Y-75843011D01*
X111617069Y-75773853D01*
X111646094Y-75710297D01*
X111652126Y-75703819D01*
X111954865Y-75401081D01*
X112519277Y-74836669D01*
X112590465Y-74730127D01*
X112639501Y-74611744D01*
X112651482Y-74551513D01*
X112664500Y-74486071D01*
X112664500Y-65213928D01*
X112639502Y-65088261D01*
X112639501Y-65088260D01*
X112639501Y-65088256D01*
X112590465Y-64969873D01*
X112578824Y-64952451D01*
X112519277Y-64863331D01*
X112519275Y-64863329D01*
X112519273Y-64863326D01*
X111240819Y-63584872D01*
X111207334Y-63523549D01*
X111204500Y-63497191D01*
X111204500Y-61096802D01*
X111224185Y-61029763D01*
X111276989Y-60984008D01*
X111346147Y-60974064D01*
X111366812Y-60978869D01*
X111438757Y-61002246D01*
X111648713Y-61035500D01*
X111648714Y-61035500D01*
X111861286Y-61035500D01*
X111861287Y-61035500D01*
X112071243Y-61002246D01*
X112273412Y-60936557D01*
X112462816Y-60840051D01*
X112529643Y-60791499D01*
X112634786Y-60715109D01*
X112634788Y-60715106D01*
X112634792Y-60715104D01*
X112785104Y-60564792D01*
X112785106Y-60564788D01*
X112785109Y-60564786D01*
X112910048Y-60392820D01*
X112910047Y-60392820D01*
X112910051Y-60392816D01*
X113006557Y-60203412D01*
X113072246Y-60001243D01*
X113105500Y-59791287D01*
X113105500Y-59578713D01*
X113072246Y-59368757D01*
X113006557Y-59166588D01*
X112910051Y-58977184D01*
X112910049Y-58977181D01*
X112910048Y-58977179D01*
X112785109Y-58805213D01*
X112634786Y-58654890D01*
X112462815Y-58529948D01*
X112462812Y-58529946D01*
X112454050Y-58525481D01*
X112403256Y-58477505D01*
X112386463Y-58409683D01*
X112409003Y-58343549D01*
X112454060Y-58304512D01*
X112462816Y-58300051D01*
X112549138Y-58237335D01*
X112634786Y-58175109D01*
X112634788Y-58175106D01*
X112634792Y-58175104D01*
X112785104Y-58024792D01*
X112785106Y-58024788D01*
X112785109Y-58024786D01*
X112910048Y-57852820D01*
X112910047Y-57852820D01*
X112910051Y-57852816D01*
X113006557Y-57663412D01*
X113072246Y-57461243D01*
X113105500Y-57251287D01*
X113105500Y-57038713D01*
X113100523Y-57007287D01*
X113092473Y-56956461D01*
X113080450Y-56880554D01*
X113072246Y-56828757D01*
X113006557Y-56626588D01*
X112910051Y-56437184D01*
X112910049Y-56437181D01*
X112910048Y-56437179D01*
X112785109Y-56265213D01*
X112634786Y-56114890D01*
X112462820Y-55989951D01*
X112273414Y-55893444D01*
X112273413Y-55893443D01*
X112273412Y-55893443D01*
X112071243Y-55827754D01*
X112071241Y-55827753D01*
X112071240Y-55827753D01*
X111909957Y-55802208D01*
X111861287Y-55794500D01*
X111648713Y-55794500D01*
X111600042Y-55802208D01*
X111438760Y-55827753D01*
X111236585Y-55893444D01*
X111047179Y-55989951D01*
X110875215Y-56114889D01*
X110761673Y-56228431D01*
X110700350Y-56261915D01*
X110630658Y-56256931D01*
X110574725Y-56215059D01*
X110557810Y-56184082D01*
X110508797Y-56052670D01*
X110508793Y-56052664D01*
X110422547Y-55937455D01*
X110422544Y-55937452D01*
X110307335Y-55851206D01*
X110307328Y-55851202D01*
X110172482Y-55800908D01*
X110172483Y-55800908D01*
X110112883Y-55794501D01*
X110112881Y-55794500D01*
X110112873Y-55794500D01*
X110112864Y-55794500D01*
X108317129Y-55794500D01*
X108317123Y-55794501D01*
X108257516Y-55800908D01*
X108122671Y-55851202D01*
X108122664Y-55851206D01*
X108007455Y-55937452D01*
X108007452Y-55937455D01*
X107921206Y-56052664D01*
X107921203Y-56052670D01*
X107870908Y-56187517D01*
X107864501Y-56247116D01*
X107864500Y-56247135D01*
X107864500Y-58042870D01*
X107864501Y-58042876D01*
X107870908Y-58102483D01*
X107921202Y-58237328D01*
X107921206Y-58237335D01*
X108007452Y-58352544D01*
X108007455Y-58352547D01*
X108122664Y-58438793D01*
X108122671Y-58438797D01*
X108254082Y-58487810D01*
X108310016Y-58529681D01*
X108334433Y-58595145D01*
X108319582Y-58663418D01*
X108298431Y-58691673D01*
X108184889Y-58805215D01*
X108059951Y-58977179D01*
X107963444Y-59166585D01*
X107963443Y-59166587D01*
X107963443Y-59166588D01*
X107957136Y-59186000D01*
X107897753Y-59368760D01*
X107864500Y-59578713D01*
X107864500Y-59791286D01*
X107891128Y-59959412D01*
X107897754Y-60001243D01*
X107946564Y-60151465D01*
X107963444Y-60203414D01*
X108059951Y-60392820D01*
X108184890Y-60564786D01*
X108335213Y-60715109D01*
X108507179Y-60840048D01*
X108507181Y-60840049D01*
X108507184Y-60840051D01*
X108696588Y-60936557D01*
X108898757Y-61002246D01*
X109108713Y-61035500D01*
X109108714Y-61035500D01*
X109321286Y-61035500D01*
X109321287Y-61035500D01*
X109531243Y-61002246D01*
X109733412Y-60936557D01*
X109733413Y-60936556D01*
X109738046Y-60935051D01*
X109738495Y-60936435D01*
X109801483Y-60929646D01*
X109863970Y-60960903D01*
X109899640Y-61020982D01*
X109903500Y-61051682D01*
X109903500Y-63882070D01*
X109924565Y-63987965D01*
X109924566Y-63987969D01*
X109928499Y-64007743D01*
X109928499Y-64007744D01*
X109976991Y-64124815D01*
X109977535Y-64126127D01*
X110027710Y-64201220D01*
X110048726Y-64232673D01*
X110048727Y-64232674D01*
X111327181Y-65511127D01*
X111360666Y-65572450D01*
X111363500Y-65598808D01*
X111363500Y-74101191D01*
X111343815Y-74168230D01*
X111327181Y-74188872D01*
X110732181Y-74783872D01*
X110670858Y-74817357D01*
X110601166Y-74812373D01*
X110545233Y-74770501D01*
X110520816Y-74705037D01*
X110520500Y-74696191D01*
X110520500Y-74573648D01*
X110488477Y-74371465D01*
X110439971Y-74222180D01*
X110425220Y-74176781D01*
X110425218Y-74176778D01*
X110425218Y-74176776D01*
X110360730Y-74050213D01*
X110332287Y-73994390D01*
X110316688Y-73972919D01*
X110211971Y-73828786D01*
X110067213Y-73684028D01*
X109901614Y-73563715D01*
X109873743Y-73549514D01*
X109808917Y-73516483D01*
X109758123Y-73468511D01*
X109741328Y-73400690D01*
X109763865Y-73334555D01*
X109808917Y-73295516D01*
X109901610Y-73248287D01*
X110021640Y-73161081D01*
X110067213Y-73127971D01*
X110067215Y-73127968D01*
X110067219Y-73127966D01*
X110211966Y-72983219D01*
X110211968Y-72983215D01*
X110211971Y-72983213D01*
X110266316Y-72908412D01*
X110332287Y-72817610D01*
X110425220Y-72635219D01*
X110488477Y-72440534D01*
X110520500Y-72238352D01*
X110520500Y-72033648D01*
X110507015Y-71948511D01*
X110488477Y-71831465D01*
X110439971Y-71682180D01*
X110425220Y-71636781D01*
X110425218Y-71636778D01*
X110425218Y-71636776D01*
X110360730Y-71510213D01*
X110332287Y-71454390D01*
X110263634Y-71359896D01*
X110211971Y-71288786D01*
X110067213Y-71144028D01*
X109901614Y-71023715D01*
X109873743Y-71009514D01*
X109808917Y-70976483D01*
X109758123Y-70928511D01*
X109741328Y-70860690D01*
X109763865Y-70794555D01*
X109808917Y-70755516D01*
X109901610Y-70708287D01*
X109922770Y-70692913D01*
X110067213Y-70587971D01*
X110067215Y-70587968D01*
X110067219Y-70587966D01*
X110211966Y-70443219D01*
X110211968Y-70443215D01*
X110211971Y-70443213D01*
X110275043Y-70356400D01*
X110332287Y-70277610D01*
X110425220Y-70095219D01*
X110488477Y-69900534D01*
X110520500Y-69698352D01*
X110520500Y-69493648D01*
X110497356Y-69347523D01*
X110488477Y-69291465D01*
X110439971Y-69142180D01*
X110425220Y-69096781D01*
X110425218Y-69096778D01*
X110425218Y-69096776D01*
X110360730Y-68970213D01*
X110332287Y-68914390D01*
X110263634Y-68819896D01*
X110211971Y-68748786D01*
X110067219Y-68604034D01*
X110041450Y-68585312D01*
X110030929Y-68577668D01*
X109988264Y-68522339D01*
X109982285Y-68452726D01*
X110014890Y-68390931D01*
X110075728Y-68356573D01*
X110090562Y-68354060D01*
X110127483Y-68350091D01*
X110154246Y-68340109D01*
X110262331Y-68299796D01*
X110377546Y-68213546D01*
X110463796Y-68098331D01*
X110514091Y-67963483D01*
X110520500Y-67903873D01*
X110520499Y-66208128D01*
X110514303Y-66150486D01*
X110514091Y-66148516D01*
X110463797Y-66013671D01*
X110463793Y-66013664D01*
X110377547Y-65898455D01*
X110377544Y-65898452D01*
X110262335Y-65812206D01*
X110262328Y-65812202D01*
X110127482Y-65761908D01*
X110127483Y-65761908D01*
X110067883Y-65755501D01*
X110067881Y-65755500D01*
X110067873Y-65755500D01*
X110067864Y-65755500D01*
X108372129Y-65755500D01*
X108372123Y-65755501D01*
X108312516Y-65761908D01*
X108177671Y-65812202D01*
X108177664Y-65812206D01*
X108062455Y-65898452D01*
X108062452Y-65898455D01*
X107976206Y-66013664D01*
X107976202Y-66013671D01*
X107925908Y-66148517D01*
X107920608Y-66197819D01*
X107919501Y-66208123D01*
X107919500Y-66208135D01*
X107919500Y-67903870D01*
X107919501Y-67903876D01*
X107925908Y-67963483D01*
X107976202Y-68098328D01*
X107976206Y-68098335D01*
X108062452Y-68213544D01*
X108062455Y-68213547D01*
X108177664Y-68299793D01*
X108177671Y-68299797D01*
X108222618Y-68316561D01*
X108312517Y-68350091D01*
X108349441Y-68354060D01*
X108413989Y-68380796D01*
X108453838Y-68438188D01*
X108456333Y-68508013D01*
X108420681Y-68568102D01*
X108409071Y-68577666D01*
X108372784Y-68604030D01*
X108228028Y-68748786D01*
X108107715Y-68914386D01*
X108014781Y-69096776D01*
X107951522Y-69291465D01*
X107919500Y-69493648D01*
X107919500Y-69698351D01*
X107951522Y-69900534D01*
X108014781Y-70095223D01*
X108057822Y-70179694D01*
X108094649Y-70251971D01*
X108107715Y-70277613D01*
X108228028Y-70443213D01*
X108372786Y-70587971D01*
X108527749Y-70700556D01*
X108538390Y-70708287D01*
X108629840Y-70754883D01*
X108631080Y-70755515D01*
X108681876Y-70803490D01*
X108698671Y-70871311D01*
X108676134Y-70937446D01*
X108631080Y-70976485D01*
X108538386Y-71023715D01*
X108372786Y-71144028D01*
X108228028Y-71288786D01*
X108107715Y-71454386D01*
X108014781Y-71636776D01*
X107951522Y-71831465D01*
X107919500Y-72033648D01*
X107919500Y-72238351D01*
X107951522Y-72440534D01*
X108014781Y-72635223D01*
X108057822Y-72719694D01*
X108094649Y-72791971D01*
X108107715Y-72817613D01*
X108228028Y-72983213D01*
X108372786Y-73127971D01*
X108527749Y-73240556D01*
X108538390Y-73248287D01*
X108629840Y-73294883D01*
X108631080Y-73295515D01*
X108681876Y-73343490D01*
X108698671Y-73411311D01*
X108676134Y-73477446D01*
X108631080Y-73516485D01*
X108538386Y-73563715D01*
X108372786Y-73684028D01*
X108228028Y-73828786D01*
X108107715Y-73994386D01*
X108014781Y-74176776D01*
X107951522Y-74371465D01*
X107919500Y-74573648D01*
X107919500Y-74778351D01*
X107951522Y-74980534D01*
X108014781Y-75175223D01*
X108057822Y-75259694D01*
X108094649Y-75331971D01*
X108107715Y-75357613D01*
X108228028Y-75523213D01*
X108372786Y-75667971D01*
X108518523Y-75773853D01*
X108538390Y-75788287D01*
X108629840Y-75834883D01*
X108631080Y-75835515D01*
X108681876Y-75883490D01*
X108698671Y-75951311D01*
X108676134Y-76017446D01*
X108631080Y-76056485D01*
X108538386Y-76103715D01*
X108372786Y-76224028D01*
X108228028Y-76368786D01*
X108107715Y-76534386D01*
X108014781Y-76716776D01*
X107951522Y-76911465D01*
X107919500Y-77113648D01*
X107919500Y-77318351D01*
X107951522Y-77520534D01*
X108014781Y-77715223D01*
X108053420Y-77791055D01*
X108094649Y-77871971D01*
X108107715Y-77897613D01*
X108228028Y-78063213D01*
X108372786Y-78207971D01*
X108527749Y-78320556D01*
X108538390Y-78328287D01*
X108610424Y-78364990D01*
X108631629Y-78375795D01*
X108682425Y-78423770D01*
X108699220Y-78491591D01*
X108676682Y-78557726D01*
X108631629Y-78596765D01*
X108538650Y-78644140D01*
X108373105Y-78764417D01*
X108373104Y-78764417D01*
X108228417Y-78909104D01*
X108228417Y-78909105D01*
X108108140Y-79074650D01*
X108015244Y-79256970D01*
X107952009Y-79451586D01*
X107943391Y-79506000D01*
X108786988Y-79506000D01*
X108754075Y-79563007D01*
X108720000Y-79690174D01*
X108720000Y-79821826D01*
X108754075Y-79948993D01*
X108786988Y-80006000D01*
X107943391Y-80006000D01*
X107952009Y-80060413D01*
X108015244Y-80255029D01*
X108108140Y-80437349D01*
X108228417Y-80602894D01*
X108228417Y-80602895D01*
X108373104Y-80747582D01*
X108538650Y-80867859D01*
X108632179Y-80915515D01*
X108682975Y-80963490D01*
X108699770Y-81031311D01*
X108677232Y-81097446D01*
X108632179Y-81136485D01*
X108538650Y-81184140D01*
X108373105Y-81304417D01*
X108373104Y-81304417D01*
X108228417Y-81449104D01*
X108228417Y-81449105D01*
X108108140Y-81614650D01*
X108015244Y-81796970D01*
X107952009Y-81991586D01*
X107943391Y-82046000D01*
X108786988Y-82046000D01*
X108754075Y-82103007D01*
X108720000Y-82230174D01*
X108720000Y-82361826D01*
X108754075Y-82488993D01*
X108786988Y-82546000D01*
X107943391Y-82546000D01*
X107952009Y-82600413D01*
X108015244Y-82795029D01*
X108108140Y-82977349D01*
X108228417Y-83142894D01*
X108228417Y-83142895D01*
X108373104Y-83287582D01*
X108538652Y-83407861D01*
X108631628Y-83455234D01*
X108682425Y-83503208D01*
X108699220Y-83571029D01*
X108676683Y-83637164D01*
X108631630Y-83676203D01*
X108538388Y-83723713D01*
X108372786Y-83844028D01*
X108228028Y-83988786D01*
X108107715Y-84154386D01*
X108014781Y-84336776D01*
X107951522Y-84531465D01*
X107919500Y-84733648D01*
X107919500Y-84938351D01*
X107951522Y-85140534D01*
X108014781Y-85335223D01*
X108107715Y-85517613D01*
X108228028Y-85683213D01*
X108372786Y-85827971D01*
X108527749Y-85940556D01*
X108538390Y-85948287D01*
X108631080Y-85995515D01*
X108720776Y-86041218D01*
X108720778Y-86041218D01*
X108720781Y-86041220D01*
X108825137Y-86075127D01*
X108915465Y-86104477D01*
X108934697Y-86107523D01*
X109117648Y-86136500D01*
X109117649Y-86136500D01*
X109322351Y-86136500D01*
X109322352Y-86136500D01*
X109524534Y-86104477D01*
X109719219Y-86041220D01*
X109778205Y-86011164D01*
X109846874Y-85998269D01*
X109911614Y-86024545D01*
X109951872Y-86081651D01*
X109958500Y-86121650D01*
X109958500Y-86638416D01*
X109970651Y-86699499D01*
X109970651Y-86699501D01*
X109980803Y-86750540D01*
X109983499Y-86764090D01*
X110032535Y-86882473D01*
X110103723Y-86989015D01*
X110103726Y-86989019D01*
X110103727Y-86989020D01*
X111548203Y-88433495D01*
X111581688Y-88494818D01*
X111576704Y-88564510D01*
X111534832Y-88620443D01*
X111479923Y-88643649D01*
X111455462Y-88647523D01*
X111260776Y-88710781D01*
X111078386Y-88803715D01*
X110912786Y-88924028D01*
X110768028Y-89068786D01*
X110647715Y-89234386D01*
X110600485Y-89327080D01*
X110552510Y-89377876D01*
X110484689Y-89394671D01*
X110418554Y-89372134D01*
X110379515Y-89327080D01*
X110360730Y-89290213D01*
X110332287Y-89234390D01*
X110324556Y-89223749D01*
X110211971Y-89068786D01*
X110067213Y-88924028D01*
X109901613Y-88803715D01*
X109901612Y-88803714D01*
X109901610Y-88803713D01*
X109844653Y-88774691D01*
X109719223Y-88710781D01*
X109524534Y-88647522D01*
X109349995Y-88619878D01*
X109322352Y-88615500D01*
X109117648Y-88615500D01*
X109093329Y-88619351D01*
X108915465Y-88647522D01*
X108720776Y-88710781D01*
X108538386Y-88803715D01*
X108372786Y-88924028D01*
X108228028Y-89068786D01*
X108107715Y-89234386D01*
X108014781Y-89416776D01*
X107951522Y-89611465D01*
X107919500Y-89813648D01*
X107919500Y-90018351D01*
X107951522Y-90220534D01*
X108014781Y-90415223D01*
X108078691Y-90540653D01*
X108103180Y-90588714D01*
X108107715Y-90597613D01*
X108228028Y-90763213D01*
X108372786Y-90907971D01*
X108527749Y-91020556D01*
X108538390Y-91028287D01*
X108629840Y-91074883D01*
X108631080Y-91075515D01*
X108681876Y-91123490D01*
X108698671Y-91191311D01*
X108676134Y-91257446D01*
X108631080Y-91296485D01*
X108538386Y-91343715D01*
X108372786Y-91464028D01*
X108228028Y-91608786D01*
X108107715Y-91774386D01*
X108014781Y-91956776D01*
X107951522Y-92151465D01*
X107919500Y-92353648D01*
X107919500Y-92558351D01*
X107951522Y-92760534D01*
X108014781Y-92955223D01*
X108078691Y-93080653D01*
X108103180Y-93128714D01*
X108107715Y-93137613D01*
X108228028Y-93303213D01*
X108372786Y-93447971D01*
X108495203Y-93536910D01*
X108538390Y-93568287D01*
X108629840Y-93614883D01*
X108631080Y-93615515D01*
X108681876Y-93663490D01*
X108698671Y-93731311D01*
X108676134Y-93797446D01*
X108631080Y-93836485D01*
X108538386Y-93883715D01*
X108372786Y-94004028D01*
X108228028Y-94148786D01*
X108107715Y-94314386D01*
X108014781Y-94496776D01*
X107951522Y-94691465D01*
X107919500Y-94893648D01*
X107919500Y-95098351D01*
X107951522Y-95300534D01*
X108014781Y-95495223D01*
X108070832Y-95605228D01*
X108106179Y-95674600D01*
X108107715Y-95677613D01*
X108228028Y-95843213D01*
X108372786Y-95987971D01*
X108527749Y-96100556D01*
X108538390Y-96108287D01*
X108629840Y-96154883D01*
X108631080Y-96155515D01*
X108681876Y-96203490D01*
X108698671Y-96271311D01*
X108676134Y-96337446D01*
X108631080Y-96376485D01*
X108538386Y-96423715D01*
X108372786Y-96544028D01*
X108228028Y-96688786D01*
X108107715Y-96854386D01*
X108014781Y-97036776D01*
X107951522Y-97231465D01*
X107919500Y-97433648D01*
X107919500Y-97638351D01*
X107951522Y-97840534D01*
X108014781Y-98035223D01*
X108078691Y-98160653D01*
X108103180Y-98208714D01*
X108107715Y-98217613D01*
X108228028Y-98383213D01*
X108372786Y-98527971D01*
X108527749Y-98640556D01*
X108538390Y-98648287D01*
X108629840Y-98694883D01*
X108631080Y-98695515D01*
X108681876Y-98743490D01*
X108698671Y-98811311D01*
X108676134Y-98877446D01*
X108631080Y-98916485D01*
X108538386Y-98963715D01*
X108372786Y-99084028D01*
X108228028Y-99228786D01*
X108107715Y-99394386D01*
X108014781Y-99576776D01*
X107951522Y-99771465D01*
X107919500Y-99973648D01*
X107919500Y-100178351D01*
X107951522Y-100380534D01*
X108014781Y-100575223D01*
X108078691Y-100700653D01*
X108103180Y-100748714D01*
X108107715Y-100757613D01*
X108228028Y-100923213D01*
X108372786Y-101067971D01*
X108527749Y-101180556D01*
X108538390Y-101188287D01*
X108629840Y-101234883D01*
X108631080Y-101235515D01*
X108681876Y-101283490D01*
X108698671Y-101351311D01*
X108676134Y-101417446D01*
X108631080Y-101456485D01*
X108538386Y-101503715D01*
X108372786Y-101624028D01*
X108228028Y-101768786D01*
X108107715Y-101934386D01*
X108014781Y-102116776D01*
X107951522Y-102311465D01*
X107919500Y-102513648D01*
X107919500Y-102718351D01*
X107951522Y-102920534D01*
X108014781Y-103115223D01*
X108078691Y-103240653D01*
X108103180Y-103288714D01*
X108107715Y-103297613D01*
X108228028Y-103463213D01*
X108372786Y-103607971D01*
X108527749Y-103720556D01*
X108538390Y-103728287D01*
X108654607Y-103787503D01*
X108720776Y-103821218D01*
X108720778Y-103821218D01*
X108720781Y-103821220D01*
X108825137Y-103855127D01*
X108915465Y-103884477D01*
X108962452Y-103891919D01*
X109117648Y-103916500D01*
X109117649Y-103916500D01*
X109322351Y-103916500D01*
X109322352Y-103916500D01*
X109524534Y-103884477D01*
X109719219Y-103821220D01*
X109901610Y-103728287D01*
X110012370Y-103647816D01*
X110067213Y-103607971D01*
X110067215Y-103607968D01*
X110067219Y-103607966D01*
X110211966Y-103463219D01*
X110211968Y-103463215D01*
X110211971Y-103463213D01*
X110332284Y-103297614D01*
X110332285Y-103297613D01*
X110332287Y-103297610D01*
X110379516Y-103204917D01*
X110427489Y-103154123D01*
X110495310Y-103137328D01*
X110561445Y-103159865D01*
X110600483Y-103204917D01*
X110630781Y-103264379D01*
X110647715Y-103297614D01*
X110768028Y-103463213D01*
X110912786Y-103607971D01*
X111067749Y-103720556D01*
X111078390Y-103728287D01*
X111194607Y-103787503D01*
X111260776Y-103821218D01*
X111260778Y-103821218D01*
X111260781Y-103821220D01*
X111365137Y-103855127D01*
X111455465Y-103884477D01*
X111502452Y-103891919D01*
X111657648Y-103916500D01*
X111657649Y-103916500D01*
X111862350Y-103916500D01*
X111862352Y-103916500D01*
X112033417Y-103889405D01*
X112102707Y-103898359D01*
X112156159Y-103943355D01*
X112176799Y-104010106D01*
X112158075Y-104077420D01*
X112140493Y-104099559D01*
X109681871Y-106558181D01*
X109620548Y-106591666D01*
X109594190Y-106594500D01*
X108317129Y-106594500D01*
X108317123Y-106594501D01*
X108257516Y-106600908D01*
X108122671Y-106651202D01*
X108122664Y-106651206D01*
X108007455Y-106737452D01*
X108007452Y-106737455D01*
X107921206Y-106852664D01*
X107921202Y-106852671D01*
X107870908Y-106987517D01*
X107864501Y-107047116D01*
X107864500Y-107047135D01*
X107864500Y-108842870D01*
X107864501Y-108842876D01*
X107870908Y-108902483D01*
X107921202Y-109037328D01*
X107921206Y-109037335D01*
X108007452Y-109152544D01*
X108007455Y-109152547D01*
X108122664Y-109238793D01*
X108122671Y-109238797D01*
X108254082Y-109287810D01*
X108310016Y-109329681D01*
X108334433Y-109395145D01*
X108319582Y-109463418D01*
X108298431Y-109491673D01*
X108184889Y-109605215D01*
X108059951Y-109777179D01*
X107963444Y-109966585D01*
X107897753Y-110168760D01*
X107864500Y-110378713D01*
X107864500Y-110591287D01*
X107897754Y-110801243D01*
X107901003Y-110811243D01*
X107963444Y-111003414D01*
X108059951Y-111192820D01*
X108184890Y-111364786D01*
X108335213Y-111515109D01*
X108507179Y-111640048D01*
X108507181Y-111640049D01*
X108507184Y-111640051D01*
X108696588Y-111736557D01*
X108898757Y-111802246D01*
X109108713Y-111835500D01*
X109108714Y-111835500D01*
X109321286Y-111835500D01*
X109321287Y-111835500D01*
X109531243Y-111802246D01*
X109733412Y-111736557D01*
X109922816Y-111640051D01*
X109995374Y-111587335D01*
X110094786Y-111515109D01*
X110094788Y-111515106D01*
X110094792Y-111515104D01*
X110245104Y-111364792D01*
X110245106Y-111364788D01*
X110245109Y-111364786D01*
X110370048Y-111192820D01*
X110370047Y-111192820D01*
X110370051Y-111192816D01*
X110374514Y-111184054D01*
X110422488Y-111133259D01*
X110490308Y-111116463D01*
X110556444Y-111138999D01*
X110595486Y-111184056D01*
X110599951Y-111192820D01*
X110724890Y-111364786D01*
X110875213Y-111515109D01*
X111047179Y-111640048D01*
X111047181Y-111640049D01*
X111047184Y-111640051D01*
X111236588Y-111736557D01*
X111438757Y-111802246D01*
X111648713Y-111835500D01*
X111648714Y-111835500D01*
X111861286Y-111835500D01*
X111861287Y-111835500D01*
X112071243Y-111802246D01*
X112273412Y-111736557D01*
X112462816Y-111640051D01*
X112535374Y-111587335D01*
X112634786Y-111515109D01*
X112634788Y-111515106D01*
X112634792Y-111515104D01*
X112785104Y-111364792D01*
X112910051Y-111192816D01*
X112914947Y-111183206D01*
X112962919Y-111132411D01*
X113025432Y-111115500D01*
X114297019Y-111115500D01*
X114364058Y-111135185D01*
X114407503Y-111183203D01*
X114414950Y-111197819D01*
X114539890Y-111369786D01*
X114690213Y-111520109D01*
X114862179Y-111645048D01*
X114862181Y-111645049D01*
X114862184Y-111645051D01*
X115051588Y-111741557D01*
X115253757Y-111807246D01*
X115463713Y-111840500D01*
X115463714Y-111840500D01*
X115676286Y-111840500D01*
X115676287Y-111840500D01*
X115886243Y-111807246D01*
X116088412Y-111741557D01*
X116277816Y-111645051D01*
X116357256Y-111587335D01*
X116449786Y-111520109D01*
X116449788Y-111520106D01*
X116449792Y-111520104D01*
X116510819Y-111459077D01*
X116572142Y-111425592D01*
X116641834Y-111430576D01*
X116697767Y-111472448D01*
X116722184Y-111537912D01*
X116722500Y-111546758D01*
X116722500Y-112208719D01*
X116702815Y-112275758D01*
X116686181Y-112296400D01*
X115092400Y-113890181D01*
X115031077Y-113923666D01*
X115004719Y-113926500D01*
X97220192Y-113926500D01*
X97098973Y-113950612D01*
X97098965Y-113950614D01*
X97046389Y-113972391D01*
X97046379Y-113972396D01*
X97040009Y-113975035D01*
X96984767Y-113997917D01*
X96916604Y-114043462D01*
X96912222Y-114046390D01*
X96881989Y-114066590D01*
X89863702Y-121084877D01*
X89802379Y-121118362D01*
X89737707Y-121115128D01*
X89724245Y-121110754D01*
X89724240Y-121110753D01*
X89534642Y-121080724D01*
X89514287Y-121077500D01*
X89301713Y-121077500D01*
X89281358Y-121080724D01*
X89091760Y-121110753D01*
X88889585Y-121176444D01*
X88700179Y-121272951D01*
X88528213Y-121397890D01*
X88377890Y-121548213D01*
X88252951Y-121720179D01*
X88156444Y-121909585D01*
X88090753Y-122111760D01*
X88057500Y-122321713D01*
X86860500Y-122321713D01*
X86860500Y-116020114D01*
X86880185Y-115953075D01*
X86932989Y-115907320D01*
X86945282Y-115902479D01*
X105554032Y-109699562D01*
X105603186Y-109686392D01*
X105616357Y-109678787D01*
X105630783Y-109673979D01*
X105673246Y-109645942D01*
X105717314Y-109620500D01*
X105728066Y-109609747D01*
X105740758Y-109601368D01*
X105774519Y-109563294D01*
X105810500Y-109527314D01*
X105818101Y-109514146D01*
X105826435Y-109504748D01*
X105826438Y-109504745D01*
X105826444Y-109504738D01*
X105828193Y-109502766D01*
X105849286Y-109460577D01*
X105852802Y-109454044D01*
X105866482Y-109430350D01*
X105876392Y-109413186D01*
X105880328Y-109398495D01*
X105887129Y-109384894D01*
X105897330Y-109335041D01*
X105910500Y-109285892D01*
X105910500Y-109283242D01*
X105913019Y-109258377D01*
X105913549Y-109255787D01*
X105910723Y-109208703D01*
X105910500Y-109201274D01*
X105910500Y-52694500D01*
X105930185Y-52627461D01*
X105982989Y-52581706D01*
X106034500Y-52570500D01*
X160665500Y-52570500D01*
X160732539Y-52590185D01*
G37*
%TD.AperFunction*%
%TD*%
M02*
