M48
; DRILL file {KiCad 9.0.1-9.0.1-0~ubuntu24.04.1} date 2025-04-22T11:50:28+0900
; FORMAT={-:-/ absolute / metric / decimal}
; #@! TF.CreationDate,2025-04-22T11:50:28+09:00
; #@! TF.GenerationSoftware,Kicad,Pcbnew,9.0.1-9.0.1-0~ubuntu24.04.1
; #@! TF.FileFunction,Plated,1,2,PTH
FMAT,2
METRIC
; #@! TA.AperFunction,Plated,PTH,ViaDrill
T1C0.300
; #@! TA.AperFunction,Plated,PTH,ComponentDrill
T2C1.000
%
G90
G05
T1
X89.916Y-117.348
X104.394Y-112.776
X107.696Y-53.848
X107.696Y-87.376
X109.474Y-105.156
X113.03Y-62.992
X113.284Y-69.342
X117.602Y-85.852
X119.634Y-90.932
X120.904Y-59.944
X123.698Y-62.738
X128.524Y-114.046
X129.54Y-118.618
X130.81Y-56.134
X131.064Y-109.728
X131.572Y-80.772
X131.826Y-85.344
X138.938Y-86.868
X139.7Y-56.642
X140.208Y-60.706
X142.494Y-117.094
X142.748Y-63.246
X150.114Y-80.772
X156.21Y-82.804
X158.75Y-112.268
X159.512Y-53.594
X175.006Y-118.872
T2
X89.408Y-122.428
X89.408Y-124.968
X91.948Y-122.428
X91.948Y-124.968
X94.488Y-122.428
X94.488Y-124.968
X97.028Y-122.428
X97.028Y-124.968
X99.568Y-122.428
X99.568Y-124.968
X102.108Y-122.428
X102.108Y-124.968
X104.648Y-122.428
X104.648Y-124.968
X107.188Y-122.428
X107.188Y-124.968
X109.215Y-57.145
X109.215Y-59.685
X109.215Y-107.945
X109.215Y-110.485
X109.22Y-67.056
X109.22Y-69.596
X109.22Y-72.136
X109.22Y-74.676
X109.22Y-77.216
X109.22Y-79.756
X109.22Y-82.296
X109.22Y-84.836
X109.22Y-89.916
X109.22Y-92.456
X109.22Y-94.996
X109.22Y-97.536
X109.22Y-100.076
X109.22Y-102.616
X109.728Y-122.428
X109.728Y-124.968
X111.755Y-57.145
X111.755Y-59.685
X111.755Y-107.945
X111.755Y-110.485
X111.76Y-77.216
X111.76Y-79.756
X111.76Y-82.296
X111.76Y-84.836
X111.76Y-89.916
X111.76Y-92.456
X111.76Y-94.996
X111.76Y-97.536
X111.76Y-100.076
X111.76Y-102.616
X112.268Y-122.428
X112.268Y-124.968
X114.808Y-122.428
X114.808Y-124.968
X115.57Y-57.15
X115.57Y-59.69
X115.57Y-62.23
X115.57Y-64.77
X115.57Y-67.31
X115.57Y-69.85
X115.57Y-72.39
X115.57Y-74.93
X115.57Y-77.47
X115.57Y-80.01
X115.57Y-87.63
X115.57Y-90.17
X115.57Y-92.71
X115.57Y-95.25
X115.57Y-97.79
X115.57Y-100.33
X115.57Y-102.87
X115.57Y-105.41
X115.57Y-107.95
X115.57Y-110.49
X117.348Y-122.428
X117.348Y-124.968
X119.888Y-122.428
X119.888Y-124.968
X122.428Y-122.428
X122.428Y-124.968
X124.968Y-122.428
X124.968Y-124.968
X127.508Y-122.428
X127.508Y-124.968
X128.27Y-57.15
X128.27Y-59.69
X128.27Y-62.23
X128.27Y-64.77
X128.27Y-67.31
X128.27Y-69.85
X128.27Y-72.39
X128.27Y-74.93
X128.27Y-77.47
X128.27Y-80.01
X128.27Y-87.63
X128.27Y-90.17
X128.27Y-92.71
X128.27Y-95.25
X128.27Y-97.79
X128.27Y-100.33
X128.27Y-102.87
X128.27Y-105.41
X128.27Y-107.95
X128.27Y-110.49
X130.048Y-122.428
X130.048Y-124.968
X132.588Y-122.428
X132.588Y-124.968
X134.62Y-57.15
X134.62Y-59.69
X134.62Y-62.23
X134.62Y-64.77
X134.62Y-67.31
X134.62Y-69.85
X134.62Y-72.39
X134.62Y-74.93
X134.62Y-77.47
X134.62Y-80.01
X134.62Y-87.7
X134.62Y-90.24
X134.62Y-92.78
X134.62Y-95.32
X134.62Y-97.86
X134.62Y-100.4
X134.62Y-102.94
X134.62Y-105.48
X134.62Y-108.02
X134.62Y-110.56
X135.128Y-122.428
X135.128Y-124.968
X137.668Y-122.428
X137.668Y-124.968
X140.208Y-122.428
X140.208Y-124.968
X142.748Y-122.428
X142.748Y-124.968
X145.288Y-122.428
X145.288Y-124.968
X147.32Y-57.15
X147.32Y-59.69
X147.32Y-62.23
X147.32Y-64.77
X147.32Y-67.31
X147.32Y-69.85
X147.32Y-72.39
X147.32Y-74.93
X147.32Y-77.47
X147.32Y-80.01
X147.32Y-87.7
X147.32Y-90.24
X147.32Y-92.78
X147.32Y-95.32
X147.32Y-97.86
X147.32Y-100.4
X147.32Y-102.94
X147.32Y-105.48
X147.32Y-108.02
X147.32Y-110.56
X147.828Y-122.428
X147.828Y-124.968
X150.368Y-122.428
X150.368Y-124.968
X151.135Y-107.955
X151.135Y-110.495
X151.897Y-56.901
X151.897Y-59.441
X152.908Y-122.428
X152.908Y-124.968
X153.675Y-107.955
X153.675Y-110.495
X154.437Y-56.901
X154.437Y-59.441
X154.94Y-62.996
X154.94Y-65.536
X154.94Y-68.076
X154.94Y-70.616
X154.94Y-73.156
X154.94Y-75.696
X154.94Y-78.236
X154.94Y-80.776
X154.94Y-84.836
X154.94Y-87.376
X154.94Y-89.916
X154.94Y-92.456
X154.94Y-94.996
X154.94Y-97.536
X154.94Y-100.076
X154.94Y-102.616
X155.448Y-122.428
X155.448Y-124.968
X157.48Y-57.916
X157.48Y-60.456
X157.48Y-62.996
X157.48Y-65.536
X157.48Y-68.076
X157.48Y-70.616
X157.48Y-73.156
X157.48Y-75.696
X157.48Y-78.236
X157.48Y-80.776
X157.48Y-84.836
X157.48Y-87.376
X157.48Y-89.916
X157.48Y-92.456
X157.48Y-94.996
X157.48Y-97.536
X157.48Y-100.076
X157.48Y-102.616
X157.988Y-122.428
X157.988Y-124.968
X160.528Y-122.428
X160.528Y-124.968
X163.068Y-122.428
X163.068Y-124.968
X165.608Y-122.428
X165.608Y-124.968
X168.148Y-122.428
X168.148Y-124.968
X170.688Y-122.428
X170.688Y-124.968
X173.228Y-122.428
X173.228Y-124.968
M30
