%TF.GenerationSoftware,KiCad,Pcbnew,9.0.1-9.0.1-0~ubuntu24.04.1*%
%TF.CreationDate,2025-04-22T11:50:30+09:00*%
%TF.ProjectId,PSCE-TEST_Arty,50534345-2d54-4455-9354-5f417274792e,rev?*%
%TF.SameCoordinates,Original*%
%TF.FileFunction,Copper,L2,Bot*%
%TF.FilePolarity,Positive*%
%FSLAX46Y46*%
G04 Gerber Fmt 4.6, Leading zero omitted, Abs format (unit mm)*
G04 Created by KiCad (PCBNEW 9.0.1-9.0.1-0~ubuntu24.04.1) date 2025-04-22 11:50:30*
%MOMM*%
%LPD*%
G01*
G04 APERTURE LIST*
%TA.AperFunction,ComponentPad*%
%ADD10R,1.600000X1.600000*%
%TD*%
%TA.AperFunction,ComponentPad*%
%ADD11O,1.600000X1.600000*%
%TD*%
%TA.AperFunction,ComponentPad*%
%ADD12R,1.700000X1.700000*%
%TD*%
%TA.AperFunction,ComponentPad*%
%ADD13O,1.700000X1.700000*%
%TD*%
%TA.AperFunction,ViaPad*%
%ADD14C,0.600000*%
%TD*%
%TA.AperFunction,Conductor*%
%ADD15C,0.300000*%
%TD*%
%TA.AperFunction,Conductor*%
%ADD16C,0.250000*%
%TD*%
G04 APERTURE END LIST*
D10*
%TO.P,A1,1,NC*%
%TO.N,unconnected-(A1-NC-Pad1)*%
X109220000Y-67056000D03*
D11*
%TO.P,A1,2,IOREF*%
%TO.N,unconnected-(A1-IOREF-Pad2)*%
X109220000Y-69596000D03*
%TO.P,A1,3,~{RESET}*%
%TO.N,unconnected-(A1-~{RESET}-Pad3)*%
X109220000Y-72136000D03*
%TO.P,A1,4,3V3*%
%TO.N,3V3*%
X109220000Y-74676000D03*
%TO.P,A1,5,+5V*%
%TO.N,+5V*%
X109220000Y-77216000D03*
%TO.P,A1,6,GND*%
%TO.N,GND*%
X109220000Y-79756000D03*
%TO.P,A1,7,GND*%
X109220000Y-82296000D03*
%TO.P,A1,8,VIN*%
%TO.N,unconnected-(A1-VIN-Pad8)*%
X109220000Y-84836000D03*
%TO.P,A1,9,A0*%
%TO.N,unconnected-(A1-A0-Pad9)*%
X109220000Y-89916000D03*
%TO.P,A1,10,A1*%
%TO.N,unconnected-(A1-A1-Pad10)*%
X109220000Y-92456000D03*
%TO.P,A1,11,A2*%
%TO.N,unconnected-(A1-A2-Pad11)*%
X109220000Y-94996000D03*
%TO.P,A1,12,A3*%
%TO.N,unconnected-(A1-A3-Pad12)*%
X109220000Y-97536000D03*
%TO.P,A1,13,SDA/A4*%
%TO.N,unconnected-(A1-SDA{slash}A4-Pad13)*%
X109220000Y-100076000D03*
%TO.P,A1,14,SCL/A5*%
%TO.N,unconnected-(A1-SCL{slash}A5-Pad14)*%
X109220000Y-102616000D03*
%TO.P,A1,15,D0/RX*%
%TO.N,Net-(A1-D0{slash}RX)*%
X157480000Y-102616000D03*
%TO.P,A1,16,D1/TX*%
%TO.N,Net-(A1-D1{slash}TX)*%
X157480000Y-100076000D03*
%TO.P,A1,17,D2*%
%TO.N,Net-(A1-D2)*%
X157480000Y-97536000D03*
%TO.P,A1,18,D3*%
%TO.N,Net-(A1-D3)*%
X157480000Y-94996000D03*
%TO.P,A1,19,D4*%
%TO.N,Net-(A1-D4)*%
X157480000Y-92456000D03*
%TO.P,A1,20,D5*%
%TO.N,Net-(A1-D5)*%
X157480000Y-89916000D03*
%TO.P,A1,21,D6*%
%TO.N,Net-(A1-D6)*%
X157480000Y-87376000D03*
%TO.P,A1,22,D7*%
%TO.N,Net-(A1-D7)*%
X157480000Y-84836000D03*
%TO.P,A1,23,D8*%
%TO.N,Net-(A1-D8)*%
X157480000Y-80776000D03*
%TO.P,A1,24,D9*%
%TO.N,Net-(A1-D9)*%
X157480000Y-78236000D03*
%TO.P,A1,25,D10*%
%TO.N,Net-(A1-D10)*%
X157480000Y-75696000D03*
%TO.P,A1,26,D11*%
%TO.N,Net-(A1-D11)*%
X157480000Y-73156000D03*
%TO.P,A1,27,D12*%
%TO.N,Net-(A1-D12)*%
X157480000Y-70616000D03*
%TO.P,A1,28,D13*%
%TO.N,Net-(A1-D13)*%
X157480000Y-68076000D03*
%TO.P,A1,29,GND*%
%TO.N,GND*%
X157480000Y-65536000D03*
%TO.P,A1,30,AREF*%
%TO.N,unconnected-(A1-AREF-Pad30)*%
X157480000Y-62996000D03*
%TO.P,A1,31,SDA/A4*%
%TO.N,Net-(U4-A7)*%
X157480000Y-60456000D03*
%TO.P,A1,32,SCL/A5*%
%TO.N,Net-(U4-A8)*%
X157480000Y-57916000D03*
%TO.P,A1,33,IO26*%
%TO.N,Net-(A1-IO26)*%
X154940000Y-102616000D03*
%TO.P,A1,34,IO27*%
%TO.N,Net-(A1-IO27)*%
X154940000Y-100076000D03*
%TO.P,A1,35,IO28*%
%TO.N,Net-(A1-IO28)*%
X154940000Y-97536000D03*
%TO.P,A1,36,IO29*%
%TO.N,Net-(A1-IO29)*%
X154940000Y-94996000D03*
%TO.P,A1,37,IO30*%
%TO.N,Net-(A1-IO30)*%
X154940000Y-92456000D03*
%TO.P,A1,38,IO31*%
%TO.N,Net-(A1-IO31)*%
X154940000Y-89916000D03*
%TO.P,A1,39,IO32*%
%TO.N,Net-(A1-IO32)*%
X154940000Y-87376000D03*
%TO.P,A1,40,IO33*%
%TO.N,Net-(A1-IO33)*%
X154940000Y-84836000D03*
%TO.P,A1,41,IO34*%
%TO.N,Net-(A1-IO34)*%
X154940000Y-80776000D03*
%TO.P,A1,42,IO35*%
%TO.N,Net-(A1-IO35)*%
X154940000Y-78236000D03*
%TO.P,A1,43,IO36*%
%TO.N,Net-(A1-IO36)*%
X154940000Y-75696000D03*
%TO.P,A1,44,IO37*%
%TO.N,Net-(U4-A2)*%
X154940000Y-73156000D03*
%TO.P,A1,45,IO38*%
%TO.N,Net-(A1-IO38)*%
X154940000Y-70616000D03*
%TO.P,A1,46,IO37*%
%TO.N,Net-(U4-A4)*%
X154940000Y-68076000D03*
%TO.P,A1,47,IO40*%
%TO.N,Net-(A1-IO40)*%
X154940000Y-65536000D03*
%TO.P,A1,48,IO41*%
%TO.N,Net-(A1-IO41)*%
X154940000Y-62996000D03*
%TO.P,A1,49,A6*%
%TO.N,unconnected-(A1-A6-Pad49)*%
X111760000Y-89916000D03*
%TO.P,A1,50,A7*%
%TO.N,unconnected-(A1-A7-Pad50)*%
X111760000Y-92456000D03*
%TO.P,A1,51,A8*%
%TO.N,unconnected-(A1-A8-Pad51)*%
X111760000Y-94996000D03*
%TO.P,A1,52,A9*%
%TO.N,unconnected-(A1-A9-Pad52)*%
X111760000Y-97536000D03*
%TO.P,A1,53,A10*%
%TO.N,unconnected-(A1-A10-Pad53)*%
X111760000Y-100076000D03*
%TO.P,A1,54,A11*%
%TO.N,unconnected-(A1-A11-Pad54)*%
X111760000Y-102616000D03*
%TO.P,A1,55,V_P*%
%TO.N,unconnected-(A1-V_P-Pad55)*%
X111760000Y-77216000D03*
%TO.P,A1,56,V_N*%
%TO.N,unconnected-(A1-V_N-Pad56)*%
X111760000Y-79756000D03*
%TO.P,A1,57,XGND*%
%TO.N,unconnected-(A1-XGND-Pad57)*%
X111760000Y-82296000D03*
%TO.P,A1,58,XREF*%
%TO.N,unconnected-(A1-XREF-Pad58)*%
X111760000Y-84836000D03*
%TD*%
D12*
%TO.P,U4,1,VCCA*%
%TO.N,3V3*%
X147320000Y-80010000D03*
D13*
%TO.P,U4,2,A1*%
%TO.N,Net-(A1-IO36)*%
X147320000Y-77470000D03*
%TO.P,U4,3,A2*%
%TO.N,Net-(U4-A2)*%
X147320000Y-74930000D03*
%TO.P,U4,4,A3*%
%TO.N,Net-(A1-IO38)*%
X147320000Y-72390000D03*
%TO.P,U4,5,A4*%
%TO.N,Net-(U4-A4)*%
X147320000Y-69850000D03*
%TO.P,U4,6,A5*%
%TO.N,Net-(A1-IO40)*%
X147320000Y-67310000D03*
%TO.P,U4,7,A6*%
%TO.N,Net-(A1-IO41)*%
X147320000Y-64770000D03*
%TO.P,U4,8,A7*%
%TO.N,Net-(U4-A7)*%
X147320000Y-62230000D03*
%TO.P,U4,9,A8*%
%TO.N,Net-(U4-A8)*%
X147320000Y-59690000D03*
%TO.P,U4,10,OE*%
%TO.N,3V3*%
X147320000Y-57150000D03*
%TO.P,U4,11,GND*%
%TO.N,GND*%
X134620000Y-57150000D03*
%TO.P,U4,12,B8*%
%TO.N,/A5*%
X134620000Y-59690000D03*
%TO.P,U4,13,B7*%
%TO.N,/A4*%
X134620000Y-62230000D03*
%TO.P,U4,14,B6*%
%TO.N,/IO41*%
X134620000Y-64770000D03*
%TO.P,U4,15,B5*%
%TO.N,/IO40*%
X134620000Y-67310000D03*
%TO.P,U4,16,B4*%
%TO.N,/IO39*%
X134620000Y-69850000D03*
%TO.P,U4,17,B3*%
%TO.N,/IO38*%
X134620000Y-72390000D03*
%TO.P,U4,18,B2*%
%TO.N,/IO37*%
X134620000Y-74930000D03*
%TO.P,U4,19,B1*%
%TO.N,/IO36*%
X134620000Y-77470000D03*
%TO.P,U4,20,VCCB*%
%TO.N,Net-(J4-Pin_2)*%
X134620000Y-80010000D03*
%TD*%
D12*
%TO.P,J5,1,Pin_1*%
%TO.N,/IO0*%
X89408000Y-124968000D03*
D13*
%TO.P,J5,2,Pin_2*%
X89408000Y-122428000D03*
%TO.P,J5,3,Pin_3*%
%TO.N,/IO1*%
X91948000Y-124968000D03*
%TO.P,J5,4,Pin_4*%
X91948000Y-122428000D03*
%TO.P,J5,5,Pin_5*%
%TO.N,/IO2*%
X94488000Y-124968000D03*
%TO.P,J5,6,Pin_6*%
X94488000Y-122428000D03*
%TO.P,J5,7,Pin_7*%
%TO.N,/IO3*%
X97028000Y-124968000D03*
%TO.P,J5,8,Pin_8*%
X97028000Y-122428000D03*
%TO.P,J5,9,Pin_9*%
%TO.N,/IO4*%
X99568000Y-124968000D03*
%TO.P,J5,10,Pin_10*%
X99568000Y-122428000D03*
%TO.P,J5,11,Pin_11*%
%TO.N,/IO5*%
X102108000Y-124968000D03*
%TO.P,J5,12,Pin_12*%
X102108000Y-122428000D03*
%TO.P,J5,13,Pin_13*%
%TO.N,/IO6*%
X104648000Y-124968000D03*
%TO.P,J5,14,Pin_14*%
X104648000Y-122428000D03*
%TO.P,J5,15,Pin_15*%
%TO.N,/IO7*%
X107188000Y-124968000D03*
%TO.P,J5,16,Pin_16*%
X107188000Y-122428000D03*
%TO.P,J5,17,Pin_17*%
%TO.N,/IO8*%
X109728000Y-124968000D03*
%TO.P,J5,18,Pin_18*%
X109728000Y-122428000D03*
%TO.P,J5,19,Pin_19*%
%TO.N,/IO9*%
X112268000Y-124968000D03*
%TO.P,J5,20,Pin_20*%
X112268000Y-122428000D03*
%TO.P,J5,21,Pin_21*%
%TO.N,/IO10*%
X114808000Y-124968000D03*
%TO.P,J5,22,Pin_22*%
X114808000Y-122428000D03*
%TO.P,J5,23,Pin_23*%
%TO.N,/IO11*%
X117348000Y-124968000D03*
%TO.P,J5,24,Pin_24*%
X117348000Y-122428000D03*
%TO.P,J5,25,Pin_25*%
%TO.N,/IO12*%
X119888000Y-124968000D03*
%TO.P,J5,26,Pin_26*%
X119888000Y-122428000D03*
%TO.P,J5,27,Pin_27*%
%TO.N,/IO13*%
X122428000Y-124968000D03*
%TO.P,J5,28,Pin_28*%
X122428000Y-122428000D03*
%TO.P,J5,29,Pin_29*%
%TO.N,/IO26*%
X124968000Y-124968000D03*
%TO.P,J5,30,Pin_30*%
X124968000Y-122428000D03*
%TO.P,J5,31,Pin_31*%
%TO.N,/IO27*%
X127508000Y-124968000D03*
%TO.P,J5,32,Pin_32*%
X127508000Y-122428000D03*
%TO.P,J5,33,Pin_33*%
%TO.N,/IO28*%
X130048000Y-124968000D03*
%TO.P,J5,34,Pin_34*%
X130048000Y-122428000D03*
%TO.P,J5,35,Pin_35*%
%TO.N,/IO29*%
X132588000Y-124968000D03*
%TO.P,J5,36,Pin_36*%
X132588000Y-122428000D03*
%TO.P,J5,37,Pin_37*%
%TO.N,/IO30*%
X135128000Y-124968000D03*
%TO.P,J5,38,Pin_38*%
X135128000Y-122428000D03*
%TO.P,J5,39,Pin_39*%
%TO.N,/IO31*%
X137668000Y-124968000D03*
%TO.P,J5,40,Pin_40*%
X137668000Y-122428000D03*
%TO.P,J5,41,Pin_41*%
%TO.N,/IO32*%
X140208000Y-124968000D03*
%TO.P,J5,42,Pin_42*%
X140208000Y-122428000D03*
%TO.P,J5,43,Pin_43*%
%TO.N,/IO33*%
X142748000Y-124968000D03*
%TO.P,J5,44,Pin_44*%
X142748000Y-122428000D03*
%TO.P,J5,45,Pin_45*%
%TO.N,/IO34*%
X145288000Y-124968000D03*
%TO.P,J5,46,Pin_46*%
X145288000Y-122428000D03*
%TO.P,J5,47,Pin_47*%
%TO.N,/IO35*%
X147828000Y-124968000D03*
%TO.P,J5,48,Pin_48*%
X147828000Y-122428000D03*
%TO.P,J5,49,Pin_49*%
%TO.N,/IO36*%
X150368000Y-124968000D03*
%TO.P,J5,50,Pin_50*%
X150368000Y-122428000D03*
%TO.P,J5,51,Pin_51*%
%TO.N,/IO37*%
X152908000Y-124968000D03*
%TO.P,J5,52,Pin_52*%
X152908000Y-122428000D03*
%TO.P,J5,53,Pin_53*%
%TO.N,/IO38*%
X155448000Y-124968000D03*
%TO.P,J5,54,Pin_54*%
X155448000Y-122428000D03*
%TO.P,J5,55,Pin_55*%
%TO.N,/IO39*%
X157988000Y-124968000D03*
%TO.P,J5,56,Pin_56*%
X157988000Y-122428000D03*
%TO.P,J5,57,Pin_57*%
%TO.N,/IO40*%
X160528000Y-124968000D03*
%TO.P,J5,58,Pin_58*%
X160528000Y-122428000D03*
%TO.P,J5,59,Pin_59*%
%TO.N,/IO41*%
X163068000Y-124968000D03*
%TO.P,J5,60,Pin_60*%
X163068000Y-122428000D03*
%TO.P,J5,61,Pin_61*%
%TO.N,/A4*%
X165608000Y-124968000D03*
%TO.P,J5,62,Pin_62*%
X165608000Y-122428000D03*
%TO.P,J5,63,Pin_63*%
%TO.N,/A5*%
X168148000Y-124968000D03*
%TO.P,J5,64,Pin_64*%
X168148000Y-122428000D03*
%TO.P,J5,65,Pin_65*%
%TO.N,GND*%
X170688000Y-124968000D03*
%TO.P,J5,66,Pin_66*%
X170688000Y-122428000D03*
%TO.P,J5,67,Pin_67*%
%TO.N,+5V*%
X173228000Y-124968000D03*
%TO.P,J5,68,Pin_68*%
X173228000Y-122428000D03*
%TD*%
D12*
%TO.P,J3,1,Pin_1*%
%TO.N,+5V*%
X153675000Y-110495000D03*
D13*
%TO.P,J3,2,Pin_2*%
%TO.N,Net-(J3-Pin_2)*%
X151135000Y-110495000D03*
%TO.P,J3,3,Pin_3*%
%TO.N,3V3*%
X153675000Y-107955000D03*
%TO.P,J3,4,Pin_4*%
%TO.N,Net-(J3-Pin_2)*%
X151135000Y-107955000D03*
%TD*%
D12*
%TO.P,J1,1,Pin_1*%
%TO.N,+5V*%
X109215000Y-107945000D03*
D13*
%TO.P,J1,2,Pin_2*%
%TO.N,Net-(J1-Pin_2)*%
X111755000Y-107945000D03*
%TO.P,J1,3,Pin_3*%
%TO.N,3V3*%
X109215000Y-110485000D03*
%TO.P,J1,4,Pin_4*%
%TO.N,Net-(J1-Pin_2)*%
X111755000Y-110485000D03*
%TD*%
D12*
%TO.P,U2,1,VCCA*%
%TO.N,3V3*%
X128270000Y-80010000D03*
D13*
%TO.P,U2,2,A1*%
%TO.N,Net-(A1-D8)*%
X128270000Y-77470000D03*
%TO.P,U2,3,A2*%
%TO.N,Net-(A1-D9)*%
X128270000Y-74930000D03*
%TO.P,U2,4,A3*%
%TO.N,Net-(A1-D10)*%
X128270000Y-72390000D03*
%TO.P,U2,5,A4*%
%TO.N,Net-(A1-D11)*%
X128270000Y-69850000D03*
%TO.P,U2,6,A5*%
%TO.N,Net-(A1-D12)*%
X128270000Y-67310000D03*
%TO.P,U2,7,A6*%
%TO.N,Net-(A1-D13)*%
X128270000Y-64770000D03*
%TO.P,U2,8,A7*%
%TO.N,Net-(A1-IO26)*%
X128270000Y-62230000D03*
%TO.P,U2,9,A8*%
%TO.N,Net-(A1-IO27)*%
X128270000Y-59690000D03*
%TO.P,U2,10,OE*%
%TO.N,3V3*%
X128270000Y-57150000D03*
%TO.P,U2,11,GND*%
%TO.N,GND*%
X115570000Y-57150000D03*
%TO.P,U2,12,B8*%
%TO.N,/IO27*%
X115570000Y-59690000D03*
%TO.P,U2,13,B7*%
%TO.N,/IO26*%
X115570000Y-62230000D03*
%TO.P,U2,14,B6*%
%TO.N,/IO13*%
X115570000Y-64770000D03*
%TO.P,U2,15,B5*%
%TO.N,/IO12*%
X115570000Y-67310000D03*
%TO.P,U2,16,B4*%
%TO.N,/IO11*%
X115570000Y-69850000D03*
%TO.P,U2,17,B3*%
%TO.N,/IO10*%
X115570000Y-72390000D03*
%TO.P,U2,18,B2*%
%TO.N,/IO9*%
X115570000Y-74930000D03*
%TO.P,U2,19,B1*%
%TO.N,/IO8*%
X115570000Y-77470000D03*
%TO.P,U2,20,VCCB*%
%TO.N,Net-(J2-Pin_2)*%
X115570000Y-80010000D03*
%TD*%
D12*
%TO.P,J2,1,Pin_1*%
%TO.N,+5V*%
X109215000Y-57145000D03*
D13*
%TO.P,J2,2,Pin_2*%
%TO.N,Net-(J2-Pin_2)*%
X111755000Y-57145000D03*
%TO.P,J2,3,Pin_3*%
%TO.N,3V3*%
X109215000Y-59685000D03*
%TO.P,J2,4,Pin_4*%
%TO.N,Net-(J2-Pin_2)*%
X111755000Y-59685000D03*
%TD*%
D12*
%TO.P,U3,1,VCCA*%
%TO.N,3V3*%
X147320000Y-110560000D03*
D13*
%TO.P,U3,2,A1*%
%TO.N,Net-(A1-IO28)*%
X147320000Y-108020000D03*
%TO.P,U3,3,A2*%
%TO.N,Net-(A1-IO29)*%
X147320000Y-105480000D03*
%TO.P,U3,4,A3*%
%TO.N,Net-(A1-IO30)*%
X147320000Y-102940000D03*
%TO.P,U3,5,A4*%
%TO.N,Net-(A1-IO31)*%
X147320000Y-100400000D03*
%TO.P,U3,6,A5*%
%TO.N,Net-(A1-IO32)*%
X147320000Y-97860000D03*
%TO.P,U3,7,A6*%
%TO.N,Net-(A1-IO33)*%
X147320000Y-95320000D03*
%TO.P,U3,8,A7*%
%TO.N,Net-(A1-IO34)*%
X147320000Y-92780000D03*
%TO.P,U3,9,A8*%
%TO.N,Net-(A1-IO35)*%
X147320000Y-90240000D03*
%TO.P,U3,10,OE*%
%TO.N,3V3*%
X147320000Y-87700000D03*
%TO.P,U3,11,GND*%
%TO.N,GND*%
X134620000Y-87700000D03*
%TO.P,U3,12,B8*%
%TO.N,/IO35*%
X134620000Y-90240000D03*
%TO.P,U3,13,B7*%
%TO.N,/IO34*%
X134620000Y-92780000D03*
%TO.P,U3,14,B6*%
%TO.N,/IO33*%
X134620000Y-95320000D03*
%TO.P,U3,15,B5*%
%TO.N,/IO32*%
X134620000Y-97860000D03*
%TO.P,U3,16,B4*%
%TO.N,/IO31*%
X134620000Y-100400000D03*
%TO.P,U3,17,B3*%
%TO.N,/IO30*%
X134620000Y-102940000D03*
%TO.P,U3,18,B2*%
%TO.N,/IO29*%
X134620000Y-105480000D03*
%TO.P,U3,19,B1*%
%TO.N,/IO28*%
X134620000Y-108020000D03*
%TO.P,U3,20,VCCB*%
%TO.N,Net-(J3-Pin_2)*%
X134620000Y-110560000D03*
%TD*%
D12*
%TO.P,J4,1,Pin_1*%
%TO.N,+5V*%
X154437000Y-59441000D03*
D13*
%TO.P,J4,2,Pin_2*%
%TO.N,Net-(J4-Pin_2)*%
X151897000Y-59441000D03*
%TO.P,J4,3,Pin_3*%
%TO.N,3V3*%
X154437000Y-56901000D03*
%TO.P,J4,4,Pin_4*%
%TO.N,Net-(J4-Pin_2)*%
X151897000Y-56901000D03*
%TD*%
D12*
%TO.P,U1,1,VCCA*%
%TO.N,3V3*%
X128270000Y-110490000D03*
D13*
%TO.P,U1,2,A1*%
%TO.N,Net-(A1-D0{slash}RX)*%
X128270000Y-107950000D03*
%TO.P,U1,3,A2*%
%TO.N,Net-(A1-D1{slash}TX)*%
X128270000Y-105410000D03*
%TO.P,U1,4,A3*%
%TO.N,Net-(A1-D2)*%
X128270000Y-102870000D03*
%TO.P,U1,5,A4*%
%TO.N,Net-(A1-D3)*%
X128270000Y-100330000D03*
%TO.P,U1,6,A5*%
%TO.N,Net-(A1-D4)*%
X128270000Y-97790000D03*
%TO.P,U1,7,A6*%
%TO.N,Net-(A1-D5)*%
X128270000Y-95250000D03*
%TO.P,U1,8,A7*%
%TO.N,Net-(A1-D6)*%
X128270000Y-92710000D03*
%TO.P,U1,9,A8*%
%TO.N,Net-(A1-D7)*%
X128270000Y-90170000D03*
%TO.P,U1,10,OE*%
%TO.N,3V3*%
X128270000Y-87630000D03*
%TO.P,U1,11,GND*%
%TO.N,GND*%
X115570000Y-87630000D03*
%TO.P,U1,12,B8*%
%TO.N,/IO7*%
X115570000Y-90170000D03*
%TO.P,U1,13,B7*%
%TO.N,/IO6*%
X115570000Y-92710000D03*
%TO.P,U1,14,B6*%
%TO.N,/IO5*%
X115570000Y-95250000D03*
%TO.P,U1,15,B5*%
%TO.N,/IO4*%
X115570000Y-97790000D03*
%TO.P,U1,16,B4*%
%TO.N,/IO3*%
X115570000Y-100330000D03*
%TO.P,U1,17,B3*%
%TO.N,/IO2*%
X115570000Y-102870000D03*
%TO.P,U1,18,B2*%
%TO.N,/IO1*%
X115570000Y-105410000D03*
%TO.P,U1,19,B1*%
%TO.N,/IO0*%
X115570000Y-107950000D03*
%TO.P,U1,20,VCCB*%
%TO.N,Net-(J1-Pin_2)*%
X115570000Y-110490000D03*
%TD*%
D14*
%TO.N,GND*%
X131572000Y-80772000D03*
X156210000Y-82804000D03*
X150114000Y-80772000D03*
X109474000Y-105156000D03*
X131064000Y-109728000D03*
X159512000Y-53594000D03*
X107696000Y-87376000D03*
X123698000Y-62738000D03*
X107696000Y-53848000D03*
X113284000Y-69342000D03*
X131826000Y-85344000D03*
X138938000Y-86868000D03*
X142748000Y-63246000D03*
X142494000Y-117094000D03*
X113030000Y-62992000D03*
X140208000Y-60706000D03*
X104394000Y-112776000D03*
X119634000Y-90932000D03*
X130810000Y-56134000D03*
X128524000Y-114046000D03*
X117602000Y-85852000D03*
X158750000Y-112268000D03*
X129540000Y-118618000D03*
X89916000Y-117348000D03*
X175006000Y-118872000D03*
X120904000Y-59944000D03*
X139700000Y-56642000D03*
%TD*%
D15*
%TO.N,Net-(A1-D5)*%
X129401000Y-94119000D02*
X128270000Y-95250000D01*
X157480000Y-89916000D02*
X156091000Y-91305000D01*
X147679471Y-94119000D02*
X129401000Y-94119000D01*
X156091000Y-91305000D02*
X150493471Y-91305000D01*
X150493471Y-91305000D02*
X147679471Y-94119000D01*
D16*
%TO.N,Net-(A1-D9)*%
X156354000Y-77110000D02*
X157480000Y-78236000D01*
X151290000Y-76106000D02*
X152294000Y-77110000D01*
X152294000Y-77110000D02*
X156354000Y-77110000D01*
X128270000Y-74930000D02*
X129446000Y-76106000D01*
X129446000Y-76106000D02*
X151290000Y-76106000D01*
D15*
%TO.N,Net-(A1-D2)*%
X157480000Y-97536000D02*
X156091000Y-98925000D01*
X156091000Y-98925000D02*
X150493471Y-98925000D01*
X129401000Y-101739000D02*
X128270000Y-102870000D01*
X147679471Y-101739000D02*
X129401000Y-101739000D01*
X150493471Y-98925000D02*
X147679471Y-101739000D01*
%TO.N,+5V*%
X151384000Y-115570000D02*
X110236000Y-115570000D01*
X107188000Y-109972000D02*
X109215000Y-107945000D01*
X155956000Y-55118000D02*
X154940000Y-54102000D01*
X154940000Y-54102000D02*
X112258000Y-54102000D01*
X167640000Y-116840000D02*
X173228000Y-122428000D01*
X154437000Y-59441000D02*
X155956000Y-57922000D01*
X112258000Y-54102000D02*
X109215000Y-57145000D01*
X153675000Y-113279000D02*
X151384000Y-115570000D01*
X153675000Y-113279000D02*
X157236000Y-116840000D01*
X107188000Y-112522000D02*
X107188000Y-109972000D01*
X153675000Y-110495000D02*
X153675000Y-113279000D01*
X157236000Y-116840000D02*
X167640000Y-116840000D01*
X155956000Y-57922000D02*
X155956000Y-55118000D01*
X110236000Y-115570000D02*
X107188000Y-112522000D01*
%TO.N,Net-(A1-D7)*%
X147679471Y-89039000D02*
X129401000Y-89039000D01*
X150493471Y-86225000D02*
X147679471Y-89039000D01*
X129401000Y-89039000D02*
X128270000Y-90170000D01*
X157480000Y-84836000D02*
X156091000Y-86225000D01*
X156091000Y-86225000D02*
X150493471Y-86225000D01*
%TO.N,Net-(A1-D6)*%
X157480000Y-87376000D02*
X156091000Y-88765000D01*
X129401000Y-91579000D02*
X128270000Y-92710000D01*
X147817471Y-91579000D02*
X129401000Y-91579000D01*
X150631471Y-88765000D02*
X147817471Y-91579000D01*
X156091000Y-88765000D02*
X150631471Y-88765000D01*
D16*
%TO.N,Net-(A1-D12)*%
X152294000Y-69490000D02*
X156354000Y-69490000D01*
X128270000Y-67310000D02*
X129446000Y-68486000D01*
X151290000Y-68486000D02*
X152294000Y-69490000D01*
X156354000Y-69490000D02*
X157480000Y-70616000D01*
X129446000Y-68486000D02*
X151290000Y-68486000D01*
%TO.N,Net-(A1-D10)*%
X151290000Y-73566000D02*
X152294000Y-74570000D01*
X129446000Y-73566000D02*
X151290000Y-73566000D01*
X156354000Y-74570000D02*
X157480000Y-75696000D01*
X152294000Y-74570000D02*
X156354000Y-74570000D01*
X128270000Y-72390000D02*
X129446000Y-73566000D01*
D15*
%TO.N,Net-(A1-D1{slash}TX)*%
X157480000Y-100076000D02*
X156210000Y-101346000D01*
X129401000Y-104279000D02*
X128270000Y-105410000D01*
X156210000Y-101346000D02*
X150622000Y-101346000D01*
X150622000Y-101346000D02*
X147689000Y-104279000D01*
X147689000Y-104279000D02*
X129401000Y-104279000D01*
%TO.N,Net-(A1-D3)*%
X129401000Y-99199000D02*
X128270000Y-100330000D01*
X150731471Y-96147000D02*
X147679471Y-99199000D01*
X156329000Y-96147000D02*
X150731471Y-96147000D01*
X147679471Y-99199000D02*
X129401000Y-99199000D01*
X157480000Y-94996000D02*
X156329000Y-96147000D01*
%TO.N,Net-(A1-D0{slash}RX)*%
X148958999Y-106819000D02*
X129401000Y-106819000D01*
X152010999Y-103767000D02*
X148958999Y-106819000D01*
X156329000Y-103767000D02*
X152010999Y-103767000D01*
X157480000Y-102616000D02*
X156329000Y-103767000D01*
X129401000Y-106819000D02*
X128270000Y-107950000D01*
%TO.N,Net-(A1-D4)*%
X147679471Y-96659000D02*
X129401000Y-96659000D01*
X157480000Y-92456000D02*
X156091000Y-93845000D01*
X150493471Y-93845000D02*
X147679471Y-96659000D01*
X156091000Y-93845000D02*
X150493471Y-93845000D01*
X129401000Y-96659000D02*
X128270000Y-97790000D01*
D16*
%TO.N,Net-(A1-D11)*%
X129446000Y-71026000D02*
X151290000Y-71026000D01*
X152294000Y-72030000D02*
X156354000Y-72030000D01*
X151290000Y-71026000D02*
X152294000Y-72030000D01*
X128270000Y-69850000D02*
X129446000Y-71026000D01*
X156354000Y-72030000D02*
X157480000Y-73156000D01*
%TO.N,Net-(A1-D13)*%
X152294000Y-66950000D02*
X156354000Y-66950000D01*
X128270000Y-64770000D02*
X129446000Y-65946000D01*
X129446000Y-65946000D02*
X151290000Y-65946000D01*
X151290000Y-65946000D02*
X152294000Y-66950000D01*
X156354000Y-66950000D02*
X157480000Y-68076000D01*
%TO.N,Net-(A1-D8)*%
X129446000Y-78646000D02*
X151290000Y-78646000D01*
X151290000Y-78646000D02*
X152294000Y-79650000D01*
X152294000Y-79650000D02*
X156354000Y-79650000D01*
X156354000Y-79650000D02*
X157480000Y-80776000D01*
X128270000Y-77470000D02*
X129446000Y-78646000D01*
D15*
%TO.N,3V3*%
X152400000Y-109230000D02*
X153675000Y-107955000D01*
X109215000Y-59685000D02*
X110416000Y-58484000D01*
X109215000Y-59685000D02*
X111252000Y-61722000D01*
X113538000Y-84836000D02*
X113538000Y-103812000D01*
X114808000Y-83566000D02*
X126746000Y-83566000D01*
X154437000Y-56901000D02*
X152400000Y-54864000D01*
X110416000Y-58484000D02*
X118808000Y-58484000D01*
X152400000Y-54864000D02*
X148082000Y-54864000D01*
X151384000Y-113284000D02*
X152400000Y-112268000D01*
X141224000Y-80010000D02*
X137668000Y-83566000D01*
X144589000Y-113291000D02*
X131071000Y-113291000D01*
X128270000Y-82042000D02*
X126746000Y-83566000D01*
X125222000Y-113538000D02*
X112268000Y-113538000D01*
X112268000Y-113538000D02*
X109215000Y-110485000D01*
X147320000Y-110560000D02*
X150044000Y-113284000D01*
X120142000Y-57150000D02*
X128270000Y-57150000D01*
X147320000Y-57150000D02*
X147320000Y-55626000D01*
X145981000Y-58489000D02*
X129609000Y-58489000D01*
X147320000Y-80010000D02*
X141224000Y-80010000D01*
X131071000Y-113291000D02*
X128270000Y-110490000D01*
X113538000Y-103812000D02*
X110416000Y-106934000D01*
X129667000Y-83439000D02*
X129794000Y-83566000D01*
X128270000Y-80010000D02*
X128270000Y-82042000D01*
X113538000Y-82296000D02*
X114808000Y-83566000D01*
X113538000Y-76962000D02*
X113538000Y-82296000D01*
X147320000Y-57150000D02*
X145981000Y-58489000D01*
X129609000Y-58489000D02*
X128270000Y-57150000D01*
X129667000Y-86233000D02*
X129667000Y-83439000D01*
X152400000Y-112268000D02*
X152400000Y-109230000D01*
X111252000Y-61722000D02*
X111252000Y-74676000D01*
X111252000Y-74676000D02*
X113538000Y-76962000D01*
X147320000Y-87700000D02*
X147320000Y-80010000D01*
X128270000Y-82042000D02*
X129667000Y-83439000D01*
X109220000Y-74676000D02*
X111252000Y-74676000D01*
X110416000Y-109284000D02*
X109215000Y-110485000D01*
X128270000Y-110490000D02*
X125222000Y-113538000D01*
X118808000Y-58484000D02*
X120142000Y-57150000D01*
X150044000Y-113284000D02*
X151384000Y-113284000D01*
X147320000Y-110560000D02*
X144589000Y-113291000D01*
X114808000Y-83566000D02*
X113538000Y-84836000D01*
X147320000Y-55626000D02*
X148082000Y-54864000D01*
X137668000Y-83566000D02*
X129794000Y-83566000D01*
X128270000Y-87630000D02*
X129667000Y-86233000D01*
X110416000Y-106934000D02*
X110416000Y-109284000D01*
D16*
%TO.N,Net-(J2-Pin_2)*%
X113124000Y-61054000D02*
X116426000Y-61054000D01*
X116426000Y-61054000D02*
X117856000Y-62484000D01*
X117856000Y-62484000D02*
X117856000Y-77724000D01*
X111755000Y-59685000D02*
X113124000Y-61054000D01*
X117856000Y-77724000D02*
X115570000Y-80010000D01*
%TO.N,Net-(J3-Pin_2)*%
X148426000Y-109384000D02*
X149855000Y-107955000D01*
X144108000Y-109384000D02*
X148426000Y-109384000D01*
X134620000Y-110560000D02*
X142932000Y-110560000D01*
X149855000Y-107955000D02*
X151135000Y-107955000D01*
X142932000Y-110560000D02*
X144108000Y-109384000D01*
%TO.N,Net-(J4-Pin_2)*%
X151897000Y-59441000D02*
X151897000Y-56901000D01*
%TD*%
%TA.AperFunction,Conductor*%
%TO.N,GND*%
G36*
X170938000Y-124534988D02*
G01*
X170880993Y-124502075D01*
X170753826Y-124468000D01*
X170622174Y-124468000D01*
X170495007Y-124502075D01*
X170438000Y-124534988D01*
X170438000Y-122861012D01*
X170495007Y-122893925D01*
X170622174Y-122928000D01*
X170753826Y-122928000D01*
X170880993Y-122893925D01*
X170938000Y-122861012D01*
X170938000Y-124534988D01*
G37*
%TD.AperFunction*%
%TA.AperFunction,Conductor*%
G36*
X108043703Y-111175937D02*
G01*
X108062814Y-111196760D01*
X108115772Y-111269650D01*
X108184896Y-111364792D01*
X108335213Y-111515109D01*
X108507179Y-111640048D01*
X108507181Y-111640049D01*
X108507184Y-111640051D01*
X108696588Y-111736557D01*
X108898757Y-111802246D01*
X109108713Y-111835500D01*
X109108714Y-111835500D01*
X109321286Y-111835500D01*
X109321287Y-111835500D01*
X109472469Y-111811555D01*
X109536055Y-111801484D01*
X109536315Y-111803128D01*
X109598852Y-111806250D01*
X109645711Y-111835657D01*
X111853325Y-114043272D01*
X111853326Y-114043273D01*
X111853329Y-114043275D01*
X111853331Y-114043277D01*
X111959873Y-114114465D01*
X112078256Y-114163501D01*
X112078260Y-114163501D01*
X112078261Y-114163502D01*
X112203928Y-114188500D01*
X112203931Y-114188500D01*
X125286071Y-114188500D01*
X125370615Y-114171682D01*
X125411744Y-114163501D01*
X125530127Y-114114465D01*
X125636669Y-114043277D01*
X127803127Y-111876817D01*
X127864450Y-111843333D01*
X127890808Y-111840499D01*
X128649191Y-111840499D01*
X128716230Y-111860184D01*
X128736872Y-111876818D01*
X129669299Y-112809244D01*
X130565724Y-113705669D01*
X130649327Y-113789272D01*
X130656332Y-113796277D01*
X130762866Y-113867461D01*
X130762872Y-113867464D01*
X130762873Y-113867465D01*
X130881256Y-113916501D01*
X130881260Y-113916501D01*
X130881261Y-113916502D01*
X131006928Y-113941500D01*
X131006931Y-113941500D01*
X144653071Y-113941500D01*
X144737615Y-113924682D01*
X144778744Y-113916501D01*
X144897127Y-113867465D01*
X144907603Y-113860465D01*
X145003669Y-113796277D01*
X146853127Y-111946817D01*
X146914450Y-111913333D01*
X146940808Y-111910499D01*
X147699191Y-111910499D01*
X147766230Y-111930184D01*
X147786872Y-111946818D01*
X149629325Y-113789272D01*
X149629332Y-113789278D01*
X149728390Y-113855466D01*
X149728392Y-113855466D01*
X149735873Y-113860465D01*
X149854256Y-113909501D01*
X149854260Y-113909501D01*
X149854261Y-113909502D01*
X149979928Y-113934500D01*
X149979931Y-113934500D01*
X151448071Y-113934500D01*
X151532615Y-113917682D01*
X151573744Y-113909501D01*
X151692127Y-113860465D01*
X151699607Y-113855466D01*
X151699610Y-113855466D01*
X151773735Y-113805936D01*
X151798669Y-113789277D01*
X151882277Y-113705669D01*
X152812819Y-112775128D01*
X152832255Y-112764515D01*
X152848989Y-112750015D01*
X152862320Y-112748098D01*
X152874142Y-112741643D01*
X152896228Y-112743222D01*
X152918147Y-112740071D01*
X152930398Y-112745666D01*
X152943834Y-112746627D01*
X152961560Y-112759897D01*
X152981703Y-112769096D01*
X152988985Y-112780427D01*
X152999767Y-112788499D01*
X153007504Y-112809244D01*
X153019477Y-112827874D01*
X153022628Y-112849792D01*
X153024184Y-112853963D01*
X153024500Y-112862809D01*
X153024500Y-112958192D01*
X153004815Y-113025231D01*
X152988181Y-113045873D01*
X151150873Y-114883181D01*
X151089550Y-114916666D01*
X151063192Y-114919500D01*
X110556808Y-114919500D01*
X110489769Y-114899815D01*
X110469127Y-114883181D01*
X107874819Y-112288873D01*
X107841334Y-112227550D01*
X107838500Y-112201192D01*
X107838500Y-111269650D01*
X107858185Y-111202611D01*
X107910989Y-111156856D01*
X107980147Y-111146912D01*
X108043703Y-111175937D01*
G37*
%TD.AperFunction*%
%TA.AperFunction,Conductor*%
G36*
X128313334Y-83021126D02*
G01*
X128357681Y-83049627D01*
X128980181Y-83672127D01*
X129013666Y-83733450D01*
X129016500Y-83759808D01*
X129016500Y-85912191D01*
X128996815Y-85979230D01*
X128980181Y-85999872D01*
X128700710Y-86279342D01*
X128639387Y-86312827D01*
X128591245Y-86312315D01*
X128591055Y-86313516D01*
X128486111Y-86296894D01*
X128376287Y-86279500D01*
X128163713Y-86279500D01*
X128115042Y-86287208D01*
X127953760Y-86312753D01*
X127751585Y-86378444D01*
X127562179Y-86474951D01*
X127390213Y-86599890D01*
X127239890Y-86750213D01*
X127114951Y-86922179D01*
X127018444Y-87111585D01*
X126952753Y-87313760D01*
X126922305Y-87506000D01*
X126919500Y-87523713D01*
X126919500Y-87736287D01*
X126952754Y-87946243D01*
X127015546Y-88139497D01*
X127018444Y-88148414D01*
X127114951Y-88337820D01*
X127239890Y-88509786D01*
X127390213Y-88660109D01*
X127562182Y-88785050D01*
X127570946Y-88789516D01*
X127621742Y-88837491D01*
X127638536Y-88905312D01*
X127615998Y-88971447D01*
X127570946Y-89010484D01*
X127562182Y-89014949D01*
X127390213Y-89139890D01*
X127239890Y-89290213D01*
X127114951Y-89462179D01*
X127018444Y-89651585D01*
X126952753Y-89853760D01*
X126919500Y-90063713D01*
X126919500Y-90276286D01*
X126947666Y-90454123D01*
X126952754Y-90486243D01*
X127015546Y-90679497D01*
X127018444Y-90688414D01*
X127114951Y-90877820D01*
X127239890Y-91049786D01*
X127390213Y-91200109D01*
X127562182Y-91325050D01*
X127570946Y-91329516D01*
X127621742Y-91377491D01*
X127638536Y-91445312D01*
X127615998Y-91511447D01*
X127570946Y-91550484D01*
X127562182Y-91554949D01*
X127390213Y-91679890D01*
X127239890Y-91830213D01*
X127114951Y-92002179D01*
X127018444Y-92191585D01*
X126952753Y-92393760D01*
X126919500Y-92603713D01*
X126919500Y-92816286D01*
X126947666Y-92994123D01*
X126952754Y-93026243D01*
X127015546Y-93219497D01*
X127018444Y-93228414D01*
X127114951Y-93417820D01*
X127239890Y-93589786D01*
X127390213Y-93740109D01*
X127562182Y-93865050D01*
X127570946Y-93869516D01*
X127621742Y-93917491D01*
X127638536Y-93985312D01*
X127615998Y-94051447D01*
X127570946Y-94090484D01*
X127562182Y-94094949D01*
X127390213Y-94219890D01*
X127239890Y-94370213D01*
X127114951Y-94542179D01*
X127018444Y-94731585D01*
X126952753Y-94933760D01*
X126919500Y-95143713D01*
X126919500Y-95356286D01*
X126947666Y-95534123D01*
X126952754Y-95566243D01*
X126988940Y-95677613D01*
X127018444Y-95768414D01*
X127114951Y-95957820D01*
X127239890Y-96129786D01*
X127390213Y-96280109D01*
X127562182Y-96405050D01*
X127570946Y-96409516D01*
X127621742Y-96457491D01*
X127638536Y-96525312D01*
X127615998Y-96591447D01*
X127570946Y-96630484D01*
X127562182Y-96634949D01*
X127390213Y-96759890D01*
X127239890Y-96910213D01*
X127114951Y-97082179D01*
X127018444Y-97271585D01*
X126952753Y-97473760D01*
X126919500Y-97683713D01*
X126919500Y-97896286D01*
X126947666Y-98074123D01*
X126952754Y-98106243D01*
X127015546Y-98299497D01*
X127018444Y-98308414D01*
X127114951Y-98497820D01*
X127239890Y-98669786D01*
X127390213Y-98820109D01*
X127562182Y-98945050D01*
X127570946Y-98949516D01*
X127621742Y-98997491D01*
X127638536Y-99065312D01*
X127615998Y-99131447D01*
X127570946Y-99170484D01*
X127562182Y-99174949D01*
X127390213Y-99299890D01*
X127239890Y-99450213D01*
X127114951Y-99622179D01*
X127018444Y-99811585D01*
X126952753Y-100013760D01*
X126919500Y-100223713D01*
X126919500Y-100436286D01*
X126947666Y-100614123D01*
X126952754Y-100646243D01*
X127015946Y-100840728D01*
X127018444Y-100848414D01*
X127114951Y-101037820D01*
X127239890Y-101209786D01*
X127390213Y-101360109D01*
X127562182Y-101485050D01*
X127570946Y-101489516D01*
X127621742Y-101537491D01*
X127638536Y-101605312D01*
X127615998Y-101671447D01*
X127570946Y-101710484D01*
X127562182Y-101714949D01*
X127390213Y-101839890D01*
X127239890Y-101990213D01*
X127114951Y-102162179D01*
X127018444Y-102351585D01*
X126952753Y-102553760D01*
X126919500Y-102763713D01*
X126919500Y-102976286D01*
X126947666Y-103154123D01*
X126952754Y-103186243D01*
X126988940Y-103297613D01*
X127018444Y-103388414D01*
X127114951Y-103577820D01*
X127239890Y-103749786D01*
X127390213Y-103900109D01*
X127562182Y-104025050D01*
X127570946Y-104029516D01*
X127621742Y-104077491D01*
X127638536Y-104145312D01*
X127615998Y-104211447D01*
X127570946Y-104250484D01*
X127562182Y-104254949D01*
X127390213Y-104379890D01*
X127239890Y-104530213D01*
X127114951Y-104702179D01*
X127018444Y-104891585D01*
X126952753Y-105093760D01*
X126919500Y-105303713D01*
X126919500Y-105516287D01*
X126952754Y-105726243D01*
X126975498Y-105796243D01*
X127018444Y-105928414D01*
X127114951Y-106117820D01*
X127239890Y-106289786D01*
X127390213Y-106440109D01*
X127562182Y-106565050D01*
X127570946Y-106569516D01*
X127621742Y-106617491D01*
X127638536Y-106685312D01*
X127615998Y-106751447D01*
X127570946Y-106790484D01*
X127562182Y-106794949D01*
X127390213Y-106919890D01*
X127239890Y-107070213D01*
X127114951Y-107242179D01*
X127018444Y-107431585D01*
X126952753Y-107633760D01*
X126920292Y-107838713D01*
X126919500Y-107843713D01*
X126919500Y-108056287D01*
X126952754Y-108266243D01*
X127016818Y-108463412D01*
X127018444Y-108468414D01*
X127114951Y-108657820D01*
X127239890Y-108829786D01*
X127353430Y-108943326D01*
X127386915Y-109004649D01*
X127381931Y-109074341D01*
X127340059Y-109130274D01*
X127309083Y-109147189D01*
X127177669Y-109196203D01*
X127177664Y-109196206D01*
X127062455Y-109282452D01*
X127062452Y-109282455D01*
X126976206Y-109397664D01*
X126976202Y-109397671D01*
X126925908Y-109532517D01*
X126921575Y-109572823D01*
X126919501Y-109592123D01*
X126919500Y-109592135D01*
X126919500Y-110869191D01*
X126899815Y-110936230D01*
X126883181Y-110956872D01*
X124988873Y-112851181D01*
X124927550Y-112884666D01*
X124901192Y-112887500D01*
X112588808Y-112887500D01*
X112521769Y-112867815D01*
X112501127Y-112851181D01*
X111697127Y-112047181D01*
X111663642Y-111985858D01*
X111668626Y-111916166D01*
X111710498Y-111860233D01*
X111775962Y-111835816D01*
X111784808Y-111835500D01*
X111861286Y-111835500D01*
X111861287Y-111835500D01*
X112071243Y-111802246D01*
X112273412Y-111736557D01*
X112462816Y-111640051D01*
X112535374Y-111587335D01*
X112634786Y-111515109D01*
X112634788Y-111515106D01*
X112634792Y-111515104D01*
X112785104Y-111364792D01*
X112785106Y-111364788D01*
X112785109Y-111364786D01*
X112910048Y-111192820D01*
X112910047Y-111192820D01*
X112910051Y-111192816D01*
X113006557Y-111003412D01*
X113072246Y-110801243D01*
X113105500Y-110591287D01*
X113105500Y-110378713D01*
X113072246Y-110168757D01*
X113006557Y-109966588D01*
X112910051Y-109777184D01*
X112910049Y-109777181D01*
X112910048Y-109777179D01*
X112785109Y-109605213D01*
X112634786Y-109454890D01*
X112462820Y-109329951D01*
X112462115Y-109329591D01*
X112454054Y-109325485D01*
X112403259Y-109277512D01*
X112386463Y-109209692D01*
X112408999Y-109143556D01*
X112454054Y-109104515D01*
X112462816Y-109100051D01*
X112620800Y-108985270D01*
X112634786Y-108975109D01*
X112634788Y-108975106D01*
X112634792Y-108975104D01*
X112785104Y-108824792D01*
X112785106Y-108824788D01*
X112785109Y-108824786D01*
X112910048Y-108652820D01*
X112910047Y-108652820D01*
X112910051Y-108652816D01*
X113006557Y-108463412D01*
X113072246Y-108261243D01*
X113105500Y-108051287D01*
X113105500Y-107838713D01*
X113072246Y-107628757D01*
X113006557Y-107426588D01*
X112910051Y-107237184D01*
X112910049Y-107237181D01*
X112910048Y-107237179D01*
X112785109Y-107065213D01*
X112634786Y-106914890D01*
X112462820Y-106789951D01*
X112273414Y-106693444D01*
X112273413Y-106693443D01*
X112273412Y-106693443D01*
X112071243Y-106627754D01*
X112071241Y-106627753D01*
X112071239Y-106627753D01*
X111941222Y-106607160D01*
X111878087Y-106577231D01*
X111841156Y-106517919D01*
X111842154Y-106448056D01*
X111872937Y-106397008D01*
X114043277Y-104226669D01*
X114114465Y-104120127D01*
X114133105Y-104075127D01*
X114163501Y-104001744D01*
X114173048Y-103953747D01*
X114188500Y-103876071D01*
X114188500Y-103647768D01*
X114208185Y-103580729D01*
X114260989Y-103534974D01*
X114330147Y-103525030D01*
X114393703Y-103554055D01*
X114412819Y-103574883D01*
X114414946Y-103577811D01*
X114414949Y-103577816D01*
X114451773Y-103628500D01*
X114539896Y-103749792D01*
X114690213Y-103900109D01*
X114862182Y-104025050D01*
X114870946Y-104029516D01*
X114921742Y-104077491D01*
X114938536Y-104145312D01*
X114915998Y-104211447D01*
X114870946Y-104250484D01*
X114862182Y-104254949D01*
X114690213Y-104379890D01*
X114539890Y-104530213D01*
X114414951Y-104702179D01*
X114318444Y-104891585D01*
X114252753Y-105093760D01*
X114219500Y-105303713D01*
X114219500Y-105516287D01*
X114252754Y-105726243D01*
X114275498Y-105796243D01*
X114318444Y-105928414D01*
X114414951Y-106117820D01*
X114539890Y-106289786D01*
X114690213Y-106440109D01*
X114862182Y-106565050D01*
X114870946Y-106569516D01*
X114921742Y-106617491D01*
X114938536Y-106685312D01*
X114915998Y-106751447D01*
X114870946Y-106790484D01*
X114862182Y-106794949D01*
X114690213Y-106919890D01*
X114539890Y-107070213D01*
X114414951Y-107242179D01*
X114318444Y-107431585D01*
X114252753Y-107633760D01*
X114220292Y-107838713D01*
X114219500Y-107843713D01*
X114219500Y-108056287D01*
X114252754Y-108266243D01*
X114316818Y-108463412D01*
X114318444Y-108468414D01*
X114414951Y-108657820D01*
X114539890Y-108829786D01*
X114690213Y-108980109D01*
X114862182Y-109105050D01*
X114870946Y-109109516D01*
X114921742Y-109157491D01*
X114938536Y-109225312D01*
X114915998Y-109291447D01*
X114870946Y-109330484D01*
X114862182Y-109334949D01*
X114690213Y-109459890D01*
X114539890Y-109610213D01*
X114414951Y-109782179D01*
X114318444Y-109971585D01*
X114252753Y-110173760D01*
X114220292Y-110378713D01*
X114219500Y-110383713D01*
X114219500Y-110596287D01*
X114252754Y-110806243D01*
X114316818Y-111003412D01*
X114318444Y-111008414D01*
X114414951Y-111197820D01*
X114539890Y-111369786D01*
X114690213Y-111520109D01*
X114862179Y-111645048D01*
X114862181Y-111645049D01*
X114862184Y-111645051D01*
X115051588Y-111741557D01*
X115253757Y-111807246D01*
X115463713Y-111840500D01*
X115463714Y-111840500D01*
X115676286Y-111840500D01*
X115676287Y-111840500D01*
X115886243Y-111807246D01*
X116088412Y-111741557D01*
X116277816Y-111645051D01*
X116357256Y-111587335D01*
X116449786Y-111520109D01*
X116449788Y-111520106D01*
X116449792Y-111520104D01*
X116600104Y-111369792D01*
X116600106Y-111369788D01*
X116600109Y-111369786D01*
X116725048Y-111197820D01*
X116725047Y-111197820D01*
X116725051Y-111197816D01*
X116821557Y-111008412D01*
X116887246Y-110806243D01*
X116920500Y-110596287D01*
X116920500Y-110383713D01*
X116887246Y-110173757D01*
X116821557Y-109971588D01*
X116725051Y-109782184D01*
X116725049Y-109782181D01*
X116725048Y-109782179D01*
X116600109Y-109610213D01*
X116449786Y-109459890D01*
X116277820Y-109334951D01*
X116277115Y-109334591D01*
X116269054Y-109330485D01*
X116218259Y-109282512D01*
X116201463Y-109214692D01*
X116223999Y-109148556D01*
X116269054Y-109109515D01*
X116277816Y-109105051D01*
X116367554Y-109039853D01*
X116449786Y-108980109D01*
X116449788Y-108980106D01*
X116449792Y-108980104D01*
X116600104Y-108829792D01*
X116600106Y-108829788D01*
X116600109Y-108829786D01*
X116725048Y-108657820D01*
X116725047Y-108657820D01*
X116725051Y-108657816D01*
X116821557Y-108468412D01*
X116887246Y-108266243D01*
X116920500Y-108056287D01*
X116920500Y-107843713D01*
X116887246Y-107633757D01*
X116821557Y-107431588D01*
X116725051Y-107242184D01*
X116725049Y-107242181D01*
X116725048Y-107242179D01*
X116600109Y-107070213D01*
X116449786Y-106919890D01*
X116277820Y-106794951D01*
X116277115Y-106794591D01*
X116269054Y-106790485D01*
X116218259Y-106742512D01*
X116201463Y-106674692D01*
X116223999Y-106608556D01*
X116269054Y-106569515D01*
X116277816Y-106565051D01*
X116342688Y-106517919D01*
X116449786Y-106440109D01*
X116449788Y-106440106D01*
X116449792Y-106440104D01*
X116600104Y-106289792D01*
X116600106Y-106289788D01*
X116600109Y-106289786D01*
X116725048Y-106117820D01*
X116725047Y-106117820D01*
X116725051Y-106117816D01*
X116821557Y-105928412D01*
X116887246Y-105726243D01*
X116920500Y-105516287D01*
X116920500Y-105303713D01*
X116887246Y-105093757D01*
X116821557Y-104891588D01*
X116725051Y-104702184D01*
X116725049Y-104702181D01*
X116725048Y-104702179D01*
X116600109Y-104530213D01*
X116449786Y-104379890D01*
X116277820Y-104254951D01*
X116277115Y-104254591D01*
X116269054Y-104250485D01*
X116218259Y-104202512D01*
X116201463Y-104134692D01*
X116223999Y-104068556D01*
X116269054Y-104029515D01*
X116277816Y-104025051D01*
X116309904Y-104001738D01*
X116449786Y-103900109D01*
X116449788Y-103900106D01*
X116449792Y-103900104D01*
X116600104Y-103749792D01*
X116600106Y-103749788D01*
X116600109Y-103749786D01*
X116725048Y-103577820D01*
X116725047Y-103577820D01*
X116725051Y-103577816D01*
X116821557Y-103388412D01*
X116887246Y-103186243D01*
X116920500Y-102976287D01*
X116920500Y-102763713D01*
X116887246Y-102553757D01*
X116821557Y-102351588D01*
X116725051Y-102162184D01*
X116725049Y-102162181D01*
X116725048Y-102162179D01*
X116600109Y-101990213D01*
X116449786Y-101839890D01*
X116277820Y-101714951D01*
X116277115Y-101714591D01*
X116269054Y-101710485D01*
X116218259Y-101662512D01*
X116201463Y-101594692D01*
X116223999Y-101528556D01*
X116269054Y-101489515D01*
X116277816Y-101485051D01*
X116380042Y-101410780D01*
X116449786Y-101360109D01*
X116449788Y-101360106D01*
X116449792Y-101360104D01*
X116600104Y-101209792D01*
X116600106Y-101209788D01*
X116600109Y-101209786D01*
X116725048Y-101037820D01*
X116725047Y-101037820D01*
X116725051Y-101037816D01*
X116821557Y-100848412D01*
X116887246Y-100646243D01*
X116920500Y-100436287D01*
X116920500Y-100223713D01*
X116887246Y-100013757D01*
X116821557Y-99811588D01*
X116725051Y-99622184D01*
X116725049Y-99622181D01*
X116725048Y-99622179D01*
X116600109Y-99450213D01*
X116449786Y-99299890D01*
X116277820Y-99174951D01*
X116277115Y-99174591D01*
X116269054Y-99170485D01*
X116218259Y-99122512D01*
X116201463Y-99054692D01*
X116223999Y-98988556D01*
X116269054Y-98949515D01*
X116277816Y-98945051D01*
X116380042Y-98870780D01*
X116449786Y-98820109D01*
X116449788Y-98820106D01*
X116449792Y-98820104D01*
X116600104Y-98669792D01*
X116600106Y-98669788D01*
X116600109Y-98669786D01*
X116725048Y-98497820D01*
X116725047Y-98497820D01*
X116725051Y-98497816D01*
X116821557Y-98308412D01*
X116887246Y-98106243D01*
X116920500Y-97896287D01*
X116920500Y-97683713D01*
X116887246Y-97473757D01*
X116821557Y-97271588D01*
X116725051Y-97082184D01*
X116725049Y-97082181D01*
X116725048Y-97082179D01*
X116600109Y-96910213D01*
X116449786Y-96759890D01*
X116277820Y-96634951D01*
X116277115Y-96634591D01*
X116269054Y-96630485D01*
X116218259Y-96582512D01*
X116201463Y-96514692D01*
X116223999Y-96448556D01*
X116269054Y-96409515D01*
X116277816Y-96405051D01*
X116380042Y-96330780D01*
X116449786Y-96280109D01*
X116449788Y-96280106D01*
X116449792Y-96280104D01*
X116600104Y-96129792D01*
X116600106Y-96129788D01*
X116600109Y-96129786D01*
X116725048Y-95957820D01*
X116725047Y-95957820D01*
X116725051Y-95957816D01*
X116821557Y-95768412D01*
X116887246Y-95566243D01*
X116920500Y-95356287D01*
X116920500Y-95143713D01*
X116887246Y-94933757D01*
X116821557Y-94731588D01*
X116725051Y-94542184D01*
X116725049Y-94542181D01*
X116725048Y-94542179D01*
X116600109Y-94370213D01*
X116449786Y-94219890D01*
X116277820Y-94094951D01*
X116277115Y-94094591D01*
X116269054Y-94090485D01*
X116218259Y-94042512D01*
X116201463Y-93974692D01*
X116223999Y-93908556D01*
X116269054Y-93869515D01*
X116277816Y-93865051D01*
X116380042Y-93790780D01*
X116449786Y-93740109D01*
X116449788Y-93740106D01*
X116449792Y-93740104D01*
X116600104Y-93589792D01*
X116600106Y-93589788D01*
X116600109Y-93589786D01*
X116725048Y-93417820D01*
X116725047Y-93417820D01*
X116725051Y-93417816D01*
X116821557Y-93228412D01*
X116887246Y-93026243D01*
X116920500Y-92816287D01*
X116920500Y-92603713D01*
X116887246Y-92393757D01*
X116821557Y-92191588D01*
X116725051Y-92002184D01*
X116725049Y-92002181D01*
X116725048Y-92002179D01*
X116600109Y-91830213D01*
X116449786Y-91679890D01*
X116277820Y-91554951D01*
X116277115Y-91554591D01*
X116269054Y-91550485D01*
X116218259Y-91502512D01*
X116201463Y-91434692D01*
X116223999Y-91368556D01*
X116269054Y-91329515D01*
X116277816Y-91325051D01*
X116380042Y-91250780D01*
X116449786Y-91200109D01*
X116449788Y-91200106D01*
X116449792Y-91200104D01*
X116600104Y-91049792D01*
X116600106Y-91049788D01*
X116600109Y-91049786D01*
X116725048Y-90877820D01*
X116725047Y-90877820D01*
X116725051Y-90877816D01*
X116821557Y-90688412D01*
X116887246Y-90486243D01*
X116920500Y-90276287D01*
X116920500Y-90063713D01*
X116887246Y-89853757D01*
X116821557Y-89651588D01*
X116725051Y-89462184D01*
X116725049Y-89462181D01*
X116725048Y-89462179D01*
X116600109Y-89290213D01*
X116449786Y-89139890D01*
X116277817Y-89014949D01*
X116268504Y-89010204D01*
X116217707Y-88962230D01*
X116200912Y-88894409D01*
X116223449Y-88828274D01*
X116268507Y-88789232D01*
X116277558Y-88784620D01*
X116449459Y-88659727D01*
X116449464Y-88659723D01*
X116599723Y-88509464D01*
X116599727Y-88509459D01*
X116724620Y-88337557D01*
X116821095Y-88148217D01*
X116886757Y-87946129D01*
X116886757Y-87946126D01*
X116897231Y-87880000D01*
X116003012Y-87880000D01*
X116035925Y-87822993D01*
X116070000Y-87695826D01*
X116070000Y-87564174D01*
X116035925Y-87437007D01*
X116003012Y-87380000D01*
X116897231Y-87380000D01*
X116886757Y-87313873D01*
X116886757Y-87313870D01*
X116821095Y-87111782D01*
X116724620Y-86922442D01*
X116599727Y-86750540D01*
X116599723Y-86750535D01*
X116449464Y-86600276D01*
X116449459Y-86600272D01*
X116277557Y-86475379D01*
X116088215Y-86378903D01*
X115886124Y-86313241D01*
X115820000Y-86302768D01*
X115820000Y-87196988D01*
X115762993Y-87164075D01*
X115635826Y-87130000D01*
X115504174Y-87130000D01*
X115377007Y-87164075D01*
X115320000Y-87196988D01*
X115320000Y-86302768D01*
X115319999Y-86302768D01*
X115253875Y-86313241D01*
X115051784Y-86378903D01*
X114862442Y-86475379D01*
X114690540Y-86600272D01*
X114690535Y-86600276D01*
X114540276Y-86750535D01*
X114540272Y-86750540D01*
X114412818Y-86925967D01*
X114357488Y-86968633D01*
X114287875Y-86974612D01*
X114226080Y-86942007D01*
X114191723Y-86881168D01*
X114188500Y-86853082D01*
X114188500Y-85156807D01*
X114208185Y-85089768D01*
X114224819Y-85069126D01*
X115041126Y-84252819D01*
X115102449Y-84219334D01*
X115128807Y-84216500D01*
X126810071Y-84216500D01*
X126894615Y-84199682D01*
X126935744Y-84191501D01*
X127054127Y-84142465D01*
X127160669Y-84071277D01*
X128182319Y-83049627D01*
X128243642Y-83016142D01*
X128313334Y-83021126D01*
G37*
%TD.AperFunction*%
%TA.AperFunction,Conductor*%
G36*
X133235188Y-107477425D02*
G01*
X133262910Y-107482223D01*
X133268264Y-107487137D01*
X133275237Y-107489185D01*
X133293656Y-107510442D01*
X133314385Y-107529467D01*
X133316232Y-107536496D01*
X133320992Y-107541989D01*
X133324995Y-107569835D01*
X133332147Y-107597041D01*
X133330377Y-107607264D01*
X133330936Y-107611147D01*
X133326130Y-107631812D01*
X133325498Y-107633760D01*
X133302753Y-107703760D01*
X133281379Y-107838713D01*
X133269500Y-107913713D01*
X133269500Y-108126287D01*
X133302754Y-108336243D01*
X133327327Y-108411872D01*
X133368444Y-108538414D01*
X133464951Y-108727820D01*
X133589890Y-108899786D01*
X133740213Y-109050109D01*
X133912182Y-109175050D01*
X133920946Y-109179516D01*
X133971742Y-109227491D01*
X133988536Y-109295312D01*
X133965998Y-109361447D01*
X133920946Y-109400484D01*
X133912182Y-109404949D01*
X133740213Y-109529890D01*
X133589890Y-109680213D01*
X133464951Y-109852179D01*
X133368444Y-110041585D01*
X133302753Y-110243760D01*
X133281379Y-110378713D01*
X133269500Y-110453713D01*
X133269500Y-110666287D01*
X133302754Y-110876243D01*
X133357865Y-111045857D01*
X133368444Y-111078414D01*
X133464951Y-111267820D01*
X133589890Y-111439786D01*
X133740213Y-111590109D01*
X133912179Y-111715048D01*
X133912181Y-111715049D01*
X133912184Y-111715051D01*
X134101588Y-111811557D01*
X134303757Y-111877246D01*
X134513713Y-111910500D01*
X134513714Y-111910500D01*
X134726286Y-111910500D01*
X134726287Y-111910500D01*
X134936243Y-111877246D01*
X135138412Y-111811557D01*
X135327816Y-111715051D01*
X135351840Y-111697597D01*
X135499786Y-111590109D01*
X135499788Y-111590106D01*
X135499792Y-111590104D01*
X135650104Y-111439792D01*
X135650106Y-111439788D01*
X135650109Y-111439786D01*
X135775049Y-111267819D01*
X135782497Y-111253203D01*
X135830473Y-111202408D01*
X135892981Y-111185500D01*
X142993607Y-111185500D01*
X143054029Y-111173481D01*
X143114452Y-111161463D01*
X143147792Y-111147652D01*
X143228286Y-111114312D01*
X143279509Y-111080084D01*
X143282009Y-111078414D01*
X143292271Y-111071556D01*
X143330733Y-111045858D01*
X143417858Y-110958733D01*
X143417859Y-110958731D01*
X143424925Y-110951665D01*
X143424927Y-110951661D01*
X144330771Y-110045819D01*
X144392094Y-110012334D01*
X144418452Y-110009500D01*
X145845500Y-110009500D01*
X145912539Y-110029185D01*
X145958294Y-110081989D01*
X145969500Y-110133500D01*
X145969500Y-110939191D01*
X145949815Y-111006230D01*
X145933181Y-111026872D01*
X144355873Y-112604181D01*
X144294550Y-112637666D01*
X144268192Y-112640500D01*
X131391807Y-112640500D01*
X131324768Y-112620815D01*
X131304126Y-112604181D01*
X129656818Y-110956873D01*
X129623333Y-110895550D01*
X129620499Y-110869192D01*
X129620499Y-109592129D01*
X129620498Y-109592123D01*
X129620497Y-109592116D01*
X129615299Y-109543757D01*
X129614091Y-109532516D01*
X129563797Y-109397671D01*
X129563793Y-109397664D01*
X129477547Y-109282455D01*
X129477544Y-109282452D01*
X129362335Y-109196206D01*
X129362328Y-109196202D01*
X129230917Y-109147189D01*
X129174983Y-109105318D01*
X129150566Y-109039853D01*
X129165418Y-108971580D01*
X129186563Y-108943332D01*
X129300104Y-108829792D01*
X129300183Y-108829684D01*
X129425048Y-108657820D01*
X129425047Y-108657820D01*
X129425051Y-108657816D01*
X129521557Y-108468412D01*
X129587246Y-108266243D01*
X129620500Y-108056287D01*
X129620500Y-107843713D01*
X129619708Y-107838713D01*
X129586484Y-107628945D01*
X129588128Y-107628684D01*
X129591250Y-107566148D01*
X129620660Y-107519286D01*
X129634131Y-107505816D01*
X129695455Y-107472333D01*
X129721809Y-107469500D01*
X133208198Y-107469500D01*
X133235188Y-107477425D01*
G37*
%TD.AperFunction*%
%TA.AperFunction,Conductor*%
G36*
X145854186Y-80663050D02*
G01*
X145863148Y-80661762D01*
X145887188Y-80672740D01*
X145912540Y-80680185D01*
X145918467Y-80687025D01*
X145926704Y-80690787D01*
X145940993Y-80713021D01*
X145958295Y-80732989D01*
X145960582Y-80743503D01*
X145964478Y-80749565D01*
X145969501Y-80784500D01*
X145969501Y-80907876D01*
X145975908Y-80967483D01*
X146026202Y-81102328D01*
X146026206Y-81102335D01*
X146112452Y-81217544D01*
X146112455Y-81217547D01*
X146227664Y-81303793D01*
X146227671Y-81303797D01*
X146255357Y-81314123D01*
X146362517Y-81354091D01*
X146422127Y-81360500D01*
X146545500Y-81360499D01*
X146612539Y-81380183D01*
X146658294Y-81432987D01*
X146669500Y-81484499D01*
X146669500Y-86440382D01*
X146649815Y-86507421D01*
X146615408Y-86541099D01*
X146616125Y-86542085D01*
X146440213Y-86669890D01*
X146289890Y-86820213D01*
X146164951Y-86992179D01*
X146068444Y-87181585D01*
X146002753Y-87383760D01*
X145969500Y-87593713D01*
X145969500Y-87806286D01*
X146000636Y-88002874D01*
X146002754Y-88016243D01*
X146058735Y-88188535D01*
X146069949Y-88223046D01*
X146068571Y-88223493D01*
X146075347Y-88286516D01*
X146044073Y-88348995D01*
X145983984Y-88384648D01*
X145953317Y-88388500D01*
X135986141Y-88388500D01*
X135919102Y-88368815D01*
X135873347Y-88316011D01*
X135863403Y-88246853D01*
X135869955Y-88222973D01*
X135869589Y-88222854D01*
X135936757Y-88016129D01*
X135936757Y-88016126D01*
X135947231Y-87950000D01*
X135053012Y-87950000D01*
X135085925Y-87892993D01*
X135120000Y-87765826D01*
X135120000Y-87634174D01*
X135085925Y-87507007D01*
X135053012Y-87450000D01*
X135947231Y-87450000D01*
X135936757Y-87383873D01*
X135936757Y-87383870D01*
X135871095Y-87181782D01*
X135774620Y-86992442D01*
X135649727Y-86820540D01*
X135649723Y-86820535D01*
X135499464Y-86670276D01*
X135499459Y-86670272D01*
X135327557Y-86545379D01*
X135138215Y-86448903D01*
X134936124Y-86383241D01*
X134870000Y-86372768D01*
X134870000Y-87266988D01*
X134812993Y-87234075D01*
X134685826Y-87200000D01*
X134554174Y-87200000D01*
X134427007Y-87234075D01*
X134370000Y-87266988D01*
X134370000Y-86372768D01*
X134369999Y-86372768D01*
X134303875Y-86383241D01*
X134101784Y-86448903D01*
X133912442Y-86545379D01*
X133740540Y-86670272D01*
X133740535Y-86670276D01*
X133590276Y-86820535D01*
X133590272Y-86820540D01*
X133465379Y-86992442D01*
X133368904Y-87181782D01*
X133303242Y-87383870D01*
X133303242Y-87383873D01*
X133292769Y-87450000D01*
X134186988Y-87450000D01*
X134154075Y-87507007D01*
X134120000Y-87634174D01*
X134120000Y-87765826D01*
X134154075Y-87892993D01*
X134186988Y-87950000D01*
X133292769Y-87950000D01*
X133303242Y-88016126D01*
X133303242Y-88016129D01*
X133370411Y-88222854D01*
X133369086Y-88223284D01*
X133375892Y-88286501D01*
X133344625Y-88348984D01*
X133284540Y-88384644D01*
X133253859Y-88388500D01*
X129601576Y-88388500D01*
X129534537Y-88368815D01*
X129488782Y-88316011D01*
X129478838Y-88246853D01*
X129491091Y-88208205D01*
X129501114Y-88188534D01*
X129521557Y-88148412D01*
X129587246Y-87946243D01*
X129620500Y-87736287D01*
X129620500Y-87523713D01*
X129587246Y-87313757D01*
X129586847Y-87312531D01*
X129585885Y-87306493D01*
X129589740Y-87276416D01*
X129591254Y-87246137D01*
X129594228Y-87241397D01*
X129594768Y-87237190D01*
X129603076Y-87227299D01*
X129620657Y-87199288D01*
X129871957Y-86947989D01*
X130172276Y-86647670D01*
X130240624Y-86545379D01*
X130243464Y-86541129D01*
X130243465Y-86541127D01*
X130292501Y-86422744D01*
X130300201Y-86384034D01*
X130310426Y-86332632D01*
X130317500Y-86297070D01*
X130317500Y-84340500D01*
X130337185Y-84273461D01*
X130389989Y-84227706D01*
X130441500Y-84216500D01*
X137732071Y-84216500D01*
X137816615Y-84199682D01*
X137857744Y-84191501D01*
X137976127Y-84142465D01*
X138082669Y-84071277D01*
X141457127Y-80696819D01*
X141518450Y-80663334D01*
X141544808Y-80660500D01*
X145845501Y-80660500D01*
X145854186Y-80663050D01*
G37*
%TD.AperFunction*%
%TA.AperFunction,Conductor*%
G36*
X127077421Y-57820185D02*
G01*
X127111099Y-57854591D01*
X127112085Y-57853875D01*
X127239890Y-58029786D01*
X127390213Y-58180109D01*
X127562182Y-58305050D01*
X127570946Y-58309516D01*
X127621742Y-58357491D01*
X127638536Y-58425312D01*
X127615998Y-58491447D01*
X127570946Y-58530484D01*
X127562182Y-58534949D01*
X127390213Y-58659890D01*
X127239890Y-58810213D01*
X127114951Y-58982179D01*
X127018444Y-59171585D01*
X126952753Y-59373760D01*
X126919500Y-59583713D01*
X126919500Y-59796286D01*
X126945336Y-59959412D01*
X126952754Y-60006243D01*
X127016818Y-60203412D01*
X127018444Y-60208414D01*
X127114951Y-60397820D01*
X127239890Y-60569786D01*
X127390213Y-60720109D01*
X127562182Y-60845050D01*
X127570946Y-60849516D01*
X127621742Y-60897491D01*
X127638536Y-60965312D01*
X127615998Y-61031447D01*
X127570946Y-61070484D01*
X127562182Y-61074949D01*
X127390213Y-61199890D01*
X127239890Y-61350213D01*
X127114951Y-61522179D01*
X127018444Y-61711585D01*
X126952753Y-61913760D01*
X126919500Y-62123713D01*
X126919500Y-62336286D01*
X126952753Y-62546239D01*
X127018444Y-62748414D01*
X127114951Y-62937820D01*
X127239890Y-63109786D01*
X127390213Y-63260109D01*
X127562182Y-63385050D01*
X127570946Y-63389516D01*
X127621742Y-63437491D01*
X127638536Y-63505312D01*
X127615998Y-63571447D01*
X127570946Y-63610484D01*
X127562182Y-63614949D01*
X127390213Y-63739890D01*
X127239890Y-63890213D01*
X127114951Y-64062179D01*
X127018444Y-64251585D01*
X126952753Y-64453760D01*
X126919500Y-64663713D01*
X126919500Y-64876287D01*
X126952754Y-65086243D01*
X127018262Y-65287856D01*
X127018444Y-65288414D01*
X127114951Y-65477820D01*
X127239890Y-65649786D01*
X127390213Y-65800109D01*
X127562182Y-65925050D01*
X127570946Y-65929516D01*
X127621742Y-65977491D01*
X127638536Y-66045312D01*
X127615998Y-66111447D01*
X127570946Y-66150484D01*
X127562182Y-66154949D01*
X127390213Y-66279890D01*
X127239890Y-66430213D01*
X127114951Y-66602179D01*
X127018444Y-66791585D01*
X126952753Y-66993760D01*
X126938456Y-67084028D01*
X126919500Y-67203713D01*
X126919500Y-67416287D01*
X126952754Y-67626243D01*
X127018262Y-67827856D01*
X127018444Y-67828414D01*
X127114951Y-68017820D01*
X127239890Y-68189786D01*
X127390213Y-68340109D01*
X127562182Y-68465050D01*
X127570946Y-68469516D01*
X127621742Y-68517491D01*
X127638536Y-68585312D01*
X127615998Y-68651447D01*
X127570946Y-68690484D01*
X127562182Y-68694949D01*
X127390213Y-68819890D01*
X127239890Y-68970213D01*
X127114951Y-69142179D01*
X127018444Y-69331585D01*
X126952753Y-69533760D01*
X126919500Y-69743713D01*
X126919500Y-69956286D01*
X126952461Y-70164398D01*
X126952754Y-70166243D01*
X127018262Y-70367856D01*
X127018444Y-70368414D01*
X127114951Y-70557820D01*
X127239890Y-70729786D01*
X127390213Y-70880109D01*
X127562182Y-71005050D01*
X127570946Y-71009516D01*
X127621742Y-71057491D01*
X127638536Y-71125312D01*
X127615998Y-71191447D01*
X127570946Y-71230484D01*
X127562182Y-71234949D01*
X127390213Y-71359890D01*
X127239890Y-71510213D01*
X127114951Y-71682179D01*
X127018444Y-71871585D01*
X126952753Y-72073760D01*
X126919500Y-72283713D01*
X126919500Y-72496286D01*
X126952461Y-72704398D01*
X126952754Y-72706243D01*
X127018262Y-72907856D01*
X127018444Y-72908414D01*
X127114951Y-73097820D01*
X127239890Y-73269786D01*
X127390213Y-73420109D01*
X127562182Y-73545050D01*
X127570946Y-73549516D01*
X127621742Y-73597491D01*
X127638536Y-73665312D01*
X127615998Y-73731447D01*
X127570946Y-73770484D01*
X127562182Y-73774949D01*
X127390213Y-73899890D01*
X127239890Y-74050213D01*
X127114951Y-74222179D01*
X127018444Y-74411585D01*
X126952753Y-74613760D01*
X126919500Y-74823713D01*
X126919500Y-75036287D01*
X126952754Y-75246243D01*
X127018262Y-75447856D01*
X127018444Y-75448414D01*
X127114951Y-75637820D01*
X127239890Y-75809786D01*
X127390213Y-75960109D01*
X127562182Y-76085050D01*
X127570946Y-76089516D01*
X127621742Y-76137491D01*
X127638536Y-76205312D01*
X127615998Y-76271447D01*
X127570946Y-76310484D01*
X127562182Y-76314949D01*
X127390213Y-76439890D01*
X127239890Y-76590213D01*
X127114951Y-76762179D01*
X127018444Y-76951585D01*
X126952753Y-77153760D01*
X126919500Y-77363713D01*
X126919500Y-77576286D01*
X126952653Y-77785610D01*
X126952754Y-77786243D01*
X127018262Y-77987856D01*
X127018444Y-77988414D01*
X127114951Y-78177820D01*
X127239890Y-78349786D01*
X127353430Y-78463326D01*
X127386915Y-78524649D01*
X127381931Y-78594341D01*
X127340059Y-78650274D01*
X127309083Y-78667189D01*
X127177669Y-78716203D01*
X127177664Y-78716206D01*
X127062455Y-78802452D01*
X127062452Y-78802455D01*
X126976206Y-78917664D01*
X126976202Y-78917671D01*
X126925908Y-79052517D01*
X126919501Y-79112116D01*
X126919500Y-79112135D01*
X126919500Y-80907870D01*
X126919501Y-80907876D01*
X126925908Y-80967483D01*
X126976202Y-81102328D01*
X126976206Y-81102335D01*
X127062452Y-81217544D01*
X127062455Y-81217547D01*
X127177664Y-81303793D01*
X127177671Y-81303797D01*
X127205357Y-81314123D01*
X127312517Y-81354091D01*
X127372127Y-81360500D01*
X127495500Y-81360499D01*
X127504185Y-81363049D01*
X127513147Y-81361761D01*
X127537184Y-81372738D01*
X127562539Y-81380183D01*
X127568467Y-81387025D01*
X127576703Y-81390786D01*
X127590989Y-81413017D01*
X127608294Y-81432987D01*
X127610581Y-81443502D01*
X127614477Y-81449564D01*
X127619500Y-81484499D01*
X127619500Y-81721192D01*
X127599815Y-81788231D01*
X127583181Y-81808873D01*
X126512873Y-82879181D01*
X126451550Y-82912666D01*
X126425192Y-82915500D01*
X115128807Y-82915500D01*
X115061768Y-82895815D01*
X115041126Y-82879181D01*
X114224819Y-82062873D01*
X114191334Y-82001550D01*
X114188500Y-81975192D01*
X114188500Y-80787768D01*
X114208185Y-80720729D01*
X114260989Y-80674974D01*
X114330147Y-80665030D01*
X114393703Y-80694055D01*
X114412819Y-80714883D01*
X114414946Y-80717811D01*
X114414949Y-80717816D01*
X114465772Y-80787768D01*
X114539896Y-80889792D01*
X114690213Y-81040109D01*
X114862179Y-81165048D01*
X114862181Y-81165049D01*
X114862184Y-81165051D01*
X115051588Y-81261557D01*
X115253757Y-81327246D01*
X115463713Y-81360500D01*
X115463714Y-81360500D01*
X115676286Y-81360500D01*
X115676287Y-81360500D01*
X115886243Y-81327246D01*
X116088412Y-81261557D01*
X116277816Y-81165051D01*
X116364138Y-81102335D01*
X116449786Y-81040109D01*
X116449788Y-81040106D01*
X116449792Y-81040104D01*
X116600104Y-80889792D01*
X116600106Y-80889788D01*
X116600109Y-80889786D01*
X116725048Y-80717820D01*
X116725047Y-80717820D01*
X116725051Y-80717816D01*
X116821557Y-80528412D01*
X116887246Y-80326243D01*
X116920500Y-80116287D01*
X116920500Y-79903713D01*
X116887246Y-79693757D01*
X116882179Y-79678162D01*
X116880182Y-79608321D01*
X116912426Y-79552162D01*
X118254729Y-78209860D01*
X118254733Y-78209858D01*
X118341858Y-78122733D01*
X118410311Y-78020286D01*
X118457463Y-77906452D01*
X118481500Y-77785606D01*
X118481500Y-62422394D01*
X118457463Y-62301548D01*
X118410311Y-62187714D01*
X118410310Y-62187713D01*
X118410307Y-62187707D01*
X118341859Y-62085268D01*
X118299399Y-62042808D01*
X118254733Y-61998142D01*
X118254732Y-61998141D01*
X116911859Y-60655269D01*
X116911858Y-60655267D01*
X116824733Y-60568142D01*
X116772635Y-60533331D01*
X116770374Y-60531820D01*
X116764174Y-60526359D01*
X116749755Y-60503517D01*
X116732439Y-60482797D01*
X116731386Y-60474418D01*
X116726878Y-60467276D01*
X116727097Y-60440265D01*
X116723732Y-60413472D01*
X116727405Y-60402233D01*
X116727445Y-60397408D01*
X116730519Y-60392708D01*
X116735648Y-60377016D01*
X116821557Y-60208412D01*
X116887246Y-60006243D01*
X116920500Y-59796287D01*
X116920500Y-59583713D01*
X116887246Y-59373757D01*
X116865990Y-59308340D01*
X116862247Y-59296818D01*
X116860252Y-59226976D01*
X116896333Y-59167144D01*
X116959034Y-59136316D01*
X116980178Y-59134500D01*
X118872071Y-59134500D01*
X118956615Y-59117682D01*
X118997744Y-59109501D01*
X119116127Y-59060465D01*
X119154984Y-59034502D01*
X119154985Y-59034502D01*
X119214451Y-58994768D01*
X119222669Y-58989277D01*
X120375127Y-57836819D01*
X120436450Y-57803334D01*
X120462808Y-57800500D01*
X127010382Y-57800500D01*
X127077421Y-57820185D01*
G37*
%TD.AperFunction*%
%TA.AperFunction,Conductor*%
G36*
X133280873Y-79272275D02*
G01*
X133283543Y-79271614D01*
X133314202Y-79282061D01*
X133345272Y-79291185D01*
X133347072Y-79293263D01*
X133349678Y-79294151D01*
X133369828Y-79319525D01*
X133391027Y-79343989D01*
X133391418Y-79346710D01*
X133393130Y-79348866D01*
X133396363Y-79381101D01*
X133400971Y-79413147D01*
X133399912Y-79416485D01*
X133400103Y-79418386D01*
X133388718Y-79451794D01*
X133368445Y-79491582D01*
X133302753Y-79693760D01*
X133269500Y-79903713D01*
X133269500Y-80116286D01*
X133294919Y-80276779D01*
X133302754Y-80326243D01*
X133349939Y-80471464D01*
X133368444Y-80528414D01*
X133464951Y-80717820D01*
X133589890Y-80889786D01*
X133740213Y-81040109D01*
X133912179Y-81165048D01*
X133912181Y-81165049D01*
X133912184Y-81165051D01*
X134101588Y-81261557D01*
X134303757Y-81327246D01*
X134513713Y-81360500D01*
X134513714Y-81360500D01*
X134726286Y-81360500D01*
X134726287Y-81360500D01*
X134936243Y-81327246D01*
X135138412Y-81261557D01*
X135327816Y-81165051D01*
X135414138Y-81102335D01*
X135499786Y-81040109D01*
X135499788Y-81040106D01*
X135499792Y-81040104D01*
X135650104Y-80889792D01*
X135650106Y-80889788D01*
X135650109Y-80889786D01*
X135775048Y-80717820D01*
X135775047Y-80717820D01*
X135775051Y-80717816D01*
X135871557Y-80528412D01*
X135937246Y-80326243D01*
X135970500Y-80116287D01*
X135970500Y-79903713D01*
X135937246Y-79693757D01*
X135871557Y-79491588D01*
X135863973Y-79476703D01*
X135851282Y-79451794D01*
X135838386Y-79383125D01*
X135864663Y-79318385D01*
X135921770Y-79278128D01*
X135961767Y-79271500D01*
X140749602Y-79271500D01*
X140816641Y-79291185D01*
X140862396Y-79343989D01*
X140872340Y-79413147D01*
X140843315Y-79476703D01*
X140818495Y-79498599D01*
X140809330Y-79504724D01*
X140809328Y-79504725D01*
X140809325Y-79504728D01*
X140809324Y-79504728D01*
X137434873Y-82879181D01*
X137373550Y-82912666D01*
X137347192Y-82915500D01*
X130114808Y-82915500D01*
X130047769Y-82895815D01*
X130027127Y-82879181D01*
X128956819Y-81808873D01*
X128942115Y-81781945D01*
X128925523Y-81756127D01*
X128924631Y-81749926D01*
X128923334Y-81747550D01*
X128920500Y-81721192D01*
X128920500Y-81484499D01*
X128940185Y-81417460D01*
X128992989Y-81371705D01*
X129044500Y-81360499D01*
X129167871Y-81360499D01*
X129167872Y-81360499D01*
X129227483Y-81354091D01*
X129362331Y-81303796D01*
X129477546Y-81217546D01*
X129563796Y-81102331D01*
X129614091Y-80967483D01*
X129620500Y-80907873D01*
X129620499Y-79395499D01*
X129640184Y-79328461D01*
X129692987Y-79282706D01*
X129744499Y-79271500D01*
X133278233Y-79271500D01*
X133280873Y-79272275D01*
G37*
%TD.AperFunction*%
%TA.AperFunction,Conductor*%
G36*
X109470000Y-81862988D02*
G01*
X109412993Y-81830075D01*
X109285826Y-81796000D01*
X109154174Y-81796000D01*
X109027007Y-81830075D01*
X108970000Y-81862988D01*
X108970000Y-80189012D01*
X109027007Y-80221925D01*
X109154174Y-80256000D01*
X109285826Y-80256000D01*
X109412993Y-80221925D01*
X109470000Y-80189012D01*
X109470000Y-81862988D01*
G37*
%TD.AperFunction*%
%TA.AperFunction,Conductor*%
G36*
X112212837Y-61027428D02*
G01*
X112638141Y-61452732D01*
X112638142Y-61452733D01*
X112707588Y-61522179D01*
X112725268Y-61539859D01*
X112827707Y-61608307D01*
X112827713Y-61608310D01*
X112827714Y-61608311D01*
X112941548Y-61655463D01*
X113001971Y-61667481D01*
X113062393Y-61679500D01*
X113062394Y-61679500D01*
X114158198Y-61679500D01*
X114225237Y-61699185D01*
X114270992Y-61751989D01*
X114280936Y-61821147D01*
X114276129Y-61841818D01*
X114252753Y-61913760D01*
X114219500Y-62123713D01*
X114219500Y-62336286D01*
X114252753Y-62546239D01*
X114318444Y-62748414D01*
X114414951Y-62937820D01*
X114539890Y-63109786D01*
X114690213Y-63260109D01*
X114862182Y-63385050D01*
X114870946Y-63389516D01*
X114921742Y-63437491D01*
X114938536Y-63505312D01*
X114915998Y-63571447D01*
X114870946Y-63610484D01*
X114862182Y-63614949D01*
X114690213Y-63739890D01*
X114539890Y-63890213D01*
X114414951Y-64062179D01*
X114318444Y-64251585D01*
X114252753Y-64453760D01*
X114219500Y-64663713D01*
X114219500Y-64876287D01*
X114252754Y-65086243D01*
X114318262Y-65287856D01*
X114318444Y-65288414D01*
X114414951Y-65477820D01*
X114539890Y-65649786D01*
X114690213Y-65800109D01*
X114862182Y-65925050D01*
X114870946Y-65929516D01*
X114921742Y-65977491D01*
X114938536Y-66045312D01*
X114915998Y-66111447D01*
X114870946Y-66150484D01*
X114862182Y-66154949D01*
X114690213Y-66279890D01*
X114539890Y-66430213D01*
X114414951Y-66602179D01*
X114318444Y-66791585D01*
X114252753Y-66993760D01*
X114238456Y-67084028D01*
X114219500Y-67203713D01*
X114219500Y-67416287D01*
X114252754Y-67626243D01*
X114318262Y-67827856D01*
X114318444Y-67828414D01*
X114414951Y-68017820D01*
X114539890Y-68189786D01*
X114690213Y-68340109D01*
X114862182Y-68465050D01*
X114870946Y-68469516D01*
X114921742Y-68517491D01*
X114938536Y-68585312D01*
X114915998Y-68651447D01*
X114870946Y-68690484D01*
X114862182Y-68694949D01*
X114690213Y-68819890D01*
X114539890Y-68970213D01*
X114414951Y-69142179D01*
X114318444Y-69331585D01*
X114252753Y-69533760D01*
X114219500Y-69743713D01*
X114219500Y-69956286D01*
X114252461Y-70164398D01*
X114252754Y-70166243D01*
X114318262Y-70367856D01*
X114318444Y-70368414D01*
X114414951Y-70557820D01*
X114539890Y-70729786D01*
X114690213Y-70880109D01*
X114862182Y-71005050D01*
X114870946Y-71009516D01*
X114921742Y-71057491D01*
X114938536Y-71125312D01*
X114915998Y-71191447D01*
X114870946Y-71230484D01*
X114862182Y-71234949D01*
X114690213Y-71359890D01*
X114539890Y-71510213D01*
X114414951Y-71682179D01*
X114318444Y-71871585D01*
X114252753Y-72073760D01*
X114219500Y-72283713D01*
X114219500Y-72496286D01*
X114252461Y-72704398D01*
X114252754Y-72706243D01*
X114318262Y-72907856D01*
X114318444Y-72908414D01*
X114414951Y-73097820D01*
X114539890Y-73269786D01*
X114690213Y-73420109D01*
X114862182Y-73545050D01*
X114870946Y-73549516D01*
X114921742Y-73597491D01*
X114938536Y-73665312D01*
X114915998Y-73731447D01*
X114870946Y-73770484D01*
X114862182Y-73774949D01*
X114690213Y-73899890D01*
X114539890Y-74050213D01*
X114414951Y-74222179D01*
X114318444Y-74411585D01*
X114252753Y-74613760D01*
X114219500Y-74823713D01*
X114219500Y-75036287D01*
X114252754Y-75246243D01*
X114318262Y-75447856D01*
X114318444Y-75448414D01*
X114414951Y-75637820D01*
X114539890Y-75809786D01*
X114690213Y-75960109D01*
X114862182Y-76085050D01*
X114870946Y-76089516D01*
X114921742Y-76137491D01*
X114938536Y-76205312D01*
X114915998Y-76271447D01*
X114870946Y-76310484D01*
X114862182Y-76314949D01*
X114690213Y-76439890D01*
X114539890Y-76590213D01*
X114414949Y-76762182D01*
X114395000Y-76801334D01*
X114347025Y-76852130D01*
X114279204Y-76868924D01*
X114213069Y-76846386D01*
X114169618Y-76791670D01*
X114165528Y-76778009D01*
X114165270Y-76778088D01*
X114163502Y-76772262D01*
X114163501Y-76772256D01*
X114114465Y-76653873D01*
X114114464Y-76653872D01*
X114114461Y-76653866D01*
X114043277Y-76547332D01*
X114030331Y-76534386D01*
X113952669Y-76456724D01*
X112956760Y-75460815D01*
X111938819Y-74442873D01*
X111905334Y-74381550D01*
X111902500Y-74355192D01*
X111902500Y-61657928D01*
X111877502Y-61532261D01*
X111877501Y-61532260D01*
X111877501Y-61532256D01*
X111828465Y-61413873D01*
X111785978Y-61350286D01*
X111785978Y-61350285D01*
X111757275Y-61307328D01*
X111697128Y-61247181D01*
X111663643Y-61185858D01*
X111668627Y-61116166D01*
X111710499Y-61060233D01*
X111775963Y-61035816D01*
X111784809Y-61035500D01*
X111861286Y-61035500D01*
X111861287Y-61035500D01*
X112071243Y-61002246D01*
X112086837Y-60997178D01*
X112156676Y-60995182D01*
X112212837Y-61027428D01*
G37*
%TD.AperFunction*%
%TA.AperFunction,Conductor*%
G36*
X145935188Y-59147425D02*
G01*
X145962910Y-59152223D01*
X145968264Y-59157137D01*
X145975237Y-59159185D01*
X145993656Y-59180442D01*
X146014385Y-59199467D01*
X146016232Y-59206496D01*
X146020992Y-59211989D01*
X146024995Y-59239835D01*
X146032147Y-59267041D01*
X146030377Y-59277264D01*
X146030936Y-59281147D01*
X146026129Y-59301818D01*
X146002753Y-59373760D01*
X145969500Y-59583713D01*
X145969500Y-59796286D01*
X145995336Y-59959412D01*
X146002754Y-60006243D01*
X146066818Y-60203412D01*
X146068444Y-60208414D01*
X146164951Y-60397820D01*
X146289890Y-60569786D01*
X146440213Y-60720109D01*
X146612182Y-60845050D01*
X146620946Y-60849516D01*
X146671742Y-60897491D01*
X146688536Y-60965312D01*
X146665998Y-61031447D01*
X146620946Y-61070484D01*
X146612182Y-61074949D01*
X146440213Y-61199890D01*
X146289890Y-61350213D01*
X146164951Y-61522179D01*
X146068444Y-61711585D01*
X146002753Y-61913760D01*
X145969500Y-62123713D01*
X145969500Y-62336286D01*
X146002753Y-62546239D01*
X146068444Y-62748414D01*
X146164951Y-62937820D01*
X146289890Y-63109786D01*
X146440213Y-63260109D01*
X146612182Y-63385050D01*
X146620946Y-63389516D01*
X146671742Y-63437491D01*
X146688536Y-63505312D01*
X146665998Y-63571447D01*
X146620946Y-63610484D01*
X146612182Y-63614949D01*
X146440213Y-63739890D01*
X146289890Y-63890213D01*
X146164951Y-64062179D01*
X146068444Y-64251585D01*
X146002753Y-64453760D01*
X145969500Y-64663713D01*
X145969500Y-64876286D01*
X146002753Y-65086239D01*
X146026129Y-65158182D01*
X146028124Y-65228023D01*
X145992044Y-65287856D01*
X145929343Y-65318684D01*
X145908198Y-65320500D01*
X136031802Y-65320500D01*
X135964763Y-65300815D01*
X135919008Y-65248011D01*
X135909064Y-65178853D01*
X135913871Y-65158182D01*
X135937246Y-65086243D01*
X135970500Y-64876287D01*
X135970500Y-64663713D01*
X135937246Y-64453757D01*
X135871557Y-64251588D01*
X135775051Y-64062184D01*
X135775049Y-64062181D01*
X135775048Y-64062179D01*
X135650109Y-63890213D01*
X135499786Y-63739890D01*
X135327820Y-63614951D01*
X135327115Y-63614591D01*
X135319054Y-63610485D01*
X135268259Y-63562512D01*
X135251463Y-63494692D01*
X135273999Y-63428556D01*
X135319054Y-63389515D01*
X135327816Y-63385051D01*
X135349789Y-63369086D01*
X135499786Y-63260109D01*
X135499788Y-63260106D01*
X135499792Y-63260104D01*
X135650104Y-63109792D01*
X135650106Y-63109788D01*
X135650109Y-63109786D01*
X135775048Y-62937820D01*
X135775047Y-62937820D01*
X135775051Y-62937816D01*
X135871557Y-62748412D01*
X135937246Y-62546243D01*
X135970500Y-62336287D01*
X135970500Y-62123713D01*
X135937246Y-61913757D01*
X135871557Y-61711588D01*
X135775051Y-61522184D01*
X135775049Y-61522181D01*
X135775048Y-61522179D01*
X135650109Y-61350213D01*
X135499786Y-61199890D01*
X135327820Y-61074951D01*
X135327115Y-61074591D01*
X135319054Y-61070485D01*
X135268259Y-61022512D01*
X135251463Y-60954692D01*
X135273999Y-60888556D01*
X135319054Y-60849515D01*
X135327816Y-60845051D01*
X135401526Y-60791498D01*
X135499786Y-60720109D01*
X135499788Y-60720106D01*
X135499792Y-60720104D01*
X135650104Y-60569792D01*
X135650106Y-60569788D01*
X135650109Y-60569786D01*
X135775048Y-60397820D01*
X135775047Y-60397820D01*
X135775051Y-60397816D01*
X135871557Y-60208412D01*
X135937246Y-60006243D01*
X135970500Y-59796287D01*
X135970500Y-59583713D01*
X135937246Y-59373757D01*
X135913870Y-59301816D01*
X135911876Y-59231977D01*
X135947956Y-59172144D01*
X136010657Y-59141316D01*
X136031802Y-59139500D01*
X145908198Y-59139500D01*
X145935188Y-59147425D01*
G37*
%TD.AperFunction*%
%TA.AperFunction,Conductor*%
G36*
X147041231Y-54772185D02*
G01*
X147086986Y-54824989D01*
X147096930Y-54894147D01*
X147067905Y-54957703D01*
X147061873Y-54964181D01*
X146814727Y-55211325D01*
X146814724Y-55211328D01*
X146769729Y-55278668D01*
X146769730Y-55278669D01*
X146743534Y-55317874D01*
X146694499Y-55436255D01*
X146694497Y-55436261D01*
X146669500Y-55561928D01*
X146669500Y-55890382D01*
X146649815Y-55957421D01*
X146615408Y-55991099D01*
X146616125Y-55992085D01*
X146440213Y-56119890D01*
X146289890Y-56270213D01*
X146164951Y-56442179D01*
X146068444Y-56631585D01*
X146002753Y-56833760D01*
X145969500Y-57043713D01*
X145969500Y-57256286D01*
X146003516Y-57471055D01*
X146001877Y-57471314D01*
X145998738Y-57533883D01*
X145969342Y-57580710D01*
X145747871Y-57802182D01*
X145686551Y-57835666D01*
X145660192Y-57838500D01*
X135986141Y-57838500D01*
X135919102Y-57818815D01*
X135873347Y-57766011D01*
X135863403Y-57696853D01*
X135869955Y-57672973D01*
X135869589Y-57672854D01*
X135936757Y-57466129D01*
X135936757Y-57466126D01*
X135947231Y-57400000D01*
X135053012Y-57400000D01*
X135085925Y-57342993D01*
X135120000Y-57215826D01*
X135120000Y-57084174D01*
X135085925Y-56957007D01*
X135053012Y-56900000D01*
X135947231Y-56900000D01*
X135936757Y-56833873D01*
X135936757Y-56833870D01*
X135871095Y-56631782D01*
X135774620Y-56442442D01*
X135649727Y-56270540D01*
X135649723Y-56270535D01*
X135499464Y-56120276D01*
X135499459Y-56120272D01*
X135327557Y-55995379D01*
X135138215Y-55898903D01*
X134936124Y-55833241D01*
X134870000Y-55822768D01*
X134870000Y-56716988D01*
X134812993Y-56684075D01*
X134685826Y-56650000D01*
X134554174Y-56650000D01*
X134427007Y-56684075D01*
X134370000Y-56716988D01*
X134370000Y-55822768D01*
X134369999Y-55822768D01*
X134303875Y-55833241D01*
X134101784Y-55898903D01*
X133912442Y-55995379D01*
X133740540Y-56120272D01*
X133740535Y-56120276D01*
X133590276Y-56270535D01*
X133590272Y-56270540D01*
X133465379Y-56442442D01*
X133368904Y-56631782D01*
X133303242Y-56833870D01*
X133303242Y-56833873D01*
X133292769Y-56900000D01*
X134186988Y-56900000D01*
X134154075Y-56957007D01*
X134120000Y-57084174D01*
X134120000Y-57215826D01*
X134154075Y-57342993D01*
X134186988Y-57400000D01*
X133292769Y-57400000D01*
X133303242Y-57466126D01*
X133303242Y-57466129D01*
X133370411Y-57672854D01*
X133369086Y-57673284D01*
X133375892Y-57736501D01*
X133344625Y-57798984D01*
X133284540Y-57834644D01*
X133253859Y-57838500D01*
X129929808Y-57838500D01*
X129862769Y-57818815D01*
X129842127Y-57802181D01*
X129620657Y-57580711D01*
X129587172Y-57519388D01*
X129587689Y-57471245D01*
X129586484Y-57471055D01*
X129620500Y-57256286D01*
X129620500Y-57043712D01*
X129606681Y-56956461D01*
X129597148Y-56896275D01*
X129587246Y-56833757D01*
X129521557Y-56631588D01*
X129425051Y-56442184D01*
X129425049Y-56442181D01*
X129425048Y-56442179D01*
X129300109Y-56270213D01*
X129149786Y-56119890D01*
X128977820Y-55994951D01*
X128788414Y-55898444D01*
X128788413Y-55898443D01*
X128788412Y-55898443D01*
X128586243Y-55832754D01*
X128586241Y-55832753D01*
X128586240Y-55832753D01*
X128424957Y-55807208D01*
X128376287Y-55799500D01*
X128163713Y-55799500D01*
X128115042Y-55807208D01*
X127953760Y-55832753D01*
X127751585Y-55898444D01*
X127562179Y-55994951D01*
X127390213Y-56119890D01*
X127239890Y-56270213D01*
X127112085Y-56446125D01*
X127110740Y-56445148D01*
X127064295Y-56487166D01*
X127010382Y-56499500D01*
X120077929Y-56499500D01*
X119952261Y-56524497D01*
X119952255Y-56524499D01*
X119833874Y-56573534D01*
X119727326Y-56644726D01*
X119727325Y-56644727D01*
X118574873Y-57797181D01*
X118513550Y-57830666D01*
X118487192Y-57833500D01*
X116938063Y-57833500D01*
X116871024Y-57813815D01*
X116825269Y-57761011D01*
X116815325Y-57691853D01*
X116820132Y-57671182D01*
X116886757Y-57466129D01*
X116886757Y-57466126D01*
X116897231Y-57400000D01*
X116003012Y-57400000D01*
X116035925Y-57342993D01*
X116070000Y-57215826D01*
X116070000Y-57084174D01*
X116035925Y-56957007D01*
X116003012Y-56900000D01*
X116897231Y-56900000D01*
X116886757Y-56833873D01*
X116886757Y-56833870D01*
X116821095Y-56631782D01*
X116724620Y-56442442D01*
X116599727Y-56270540D01*
X116599723Y-56270535D01*
X116449464Y-56120276D01*
X116449459Y-56120272D01*
X116277557Y-55995379D01*
X116088215Y-55898903D01*
X115886124Y-55833241D01*
X115820000Y-55822768D01*
X115820000Y-56716988D01*
X115762993Y-56684075D01*
X115635826Y-56650000D01*
X115504174Y-56650000D01*
X115377007Y-56684075D01*
X115320000Y-56716988D01*
X115320000Y-55822768D01*
X115319999Y-55822768D01*
X115253875Y-55833241D01*
X115051784Y-55898903D01*
X114862442Y-55995379D01*
X114690540Y-56120272D01*
X114690535Y-56120276D01*
X114540276Y-56270535D01*
X114540272Y-56270540D01*
X114415379Y-56442442D01*
X114318904Y-56631782D01*
X114253242Y-56833870D01*
X114253242Y-56833873D01*
X114242769Y-56900000D01*
X115136988Y-56900000D01*
X115104075Y-56957007D01*
X115070000Y-57084174D01*
X115070000Y-57215826D01*
X115104075Y-57342993D01*
X115136988Y-57400000D01*
X114242769Y-57400000D01*
X114253242Y-57466126D01*
X114253242Y-57466129D01*
X114319868Y-57671182D01*
X114321863Y-57741023D01*
X114285783Y-57800856D01*
X114223082Y-57831684D01*
X114201937Y-57833500D01*
X113121683Y-57833500D01*
X113054644Y-57813815D01*
X113008889Y-57761011D01*
X112998945Y-57691853D01*
X113005441Y-57668172D01*
X113005051Y-57668046D01*
X113006557Y-57663412D01*
X113072246Y-57461243D01*
X113105500Y-57251287D01*
X113105500Y-57038713D01*
X113100523Y-57007287D01*
X113092473Y-56956461D01*
X113081811Y-56889149D01*
X113072246Y-56828757D01*
X113006557Y-56626588D01*
X112910051Y-56437184D01*
X112910049Y-56437181D01*
X112910048Y-56437179D01*
X112785109Y-56265213D01*
X112634786Y-56114890D01*
X112462820Y-55989951D01*
X112273414Y-55893444D01*
X112273413Y-55893443D01*
X112273412Y-55893443D01*
X112071243Y-55827754D01*
X112071241Y-55827753D01*
X112071240Y-55827753D01*
X111909957Y-55802208D01*
X111861287Y-55794500D01*
X111784807Y-55794500D01*
X111717768Y-55774815D01*
X111672013Y-55722011D01*
X111662069Y-55652853D01*
X111691094Y-55589297D01*
X111697126Y-55582819D01*
X112001277Y-55278669D01*
X112491127Y-54788819D01*
X112552450Y-54755334D01*
X112578808Y-54752500D01*
X146974192Y-54752500D01*
X147041231Y-54772185D01*
G37*
%TD.AperFunction*%
%TA.AperFunction,Conductor*%
G36*
X160732539Y-52590185D02*
G01*
X160778294Y-52642989D01*
X160789500Y-52694500D01*
X160789500Y-109218876D01*
X160789210Y-109283651D01*
X160789500Y-109284753D01*
X160789500Y-109285893D01*
X160806203Y-109348235D01*
X160806204Y-109348235D01*
X160806259Y-109348439D01*
X160822748Y-109411097D01*
X160823313Y-109412086D01*
X160823608Y-109413186D01*
X160855875Y-109469074D01*
X160855874Y-109469074D01*
X160856081Y-109469434D01*
X160888129Y-109525519D01*
X160888929Y-109526326D01*
X160889501Y-109527316D01*
X160935009Y-109572823D01*
X160935402Y-109573217D01*
X160971606Y-109609747D01*
X160980896Y-109619120D01*
X160980899Y-109619122D01*
X160982011Y-109619983D01*
X160982011Y-109619984D01*
X160982013Y-109619985D01*
X160982655Y-109620482D01*
X160982685Y-109620499D01*
X160982686Y-109620500D01*
X161038830Y-109652915D01*
X175967980Y-118361584D01*
X176015969Y-118412367D01*
X176029500Y-118468693D01*
X176029500Y-127645500D01*
X176009815Y-127712539D01*
X175957011Y-127758294D01*
X175905500Y-127769500D01*
X86984500Y-127769500D01*
X86917461Y-127749815D01*
X86871706Y-127697011D01*
X86860500Y-127645500D01*
X86860500Y-122321713D01*
X88057500Y-122321713D01*
X88057500Y-122534286D01*
X88090753Y-122744239D01*
X88156444Y-122946414D01*
X88252951Y-123135820D01*
X88377890Y-123307786D01*
X88491430Y-123421326D01*
X88524915Y-123482649D01*
X88519931Y-123552341D01*
X88478059Y-123608274D01*
X88447083Y-123625189D01*
X88315669Y-123674203D01*
X88315664Y-123674206D01*
X88200455Y-123760452D01*
X88200452Y-123760455D01*
X88114206Y-123875664D01*
X88114202Y-123875671D01*
X88063908Y-124010517D01*
X88057501Y-124070116D01*
X88057500Y-124070135D01*
X88057500Y-125865870D01*
X88057501Y-125865876D01*
X88063908Y-125925483D01*
X88114202Y-126060328D01*
X88114206Y-126060335D01*
X88200452Y-126175544D01*
X88200455Y-126175547D01*
X88315664Y-126261793D01*
X88315671Y-126261797D01*
X88450517Y-126312091D01*
X88450516Y-126312091D01*
X88457444Y-126312835D01*
X88510127Y-126318500D01*
X90305872Y-126318499D01*
X90365483Y-126312091D01*
X90500331Y-126261796D01*
X90615546Y-126175546D01*
X90701796Y-126060331D01*
X90750810Y-125928916D01*
X90792681Y-125872984D01*
X90858145Y-125848566D01*
X90926418Y-125863417D01*
X90954673Y-125884569D01*
X91068213Y-125998109D01*
X91240179Y-126123048D01*
X91240181Y-126123049D01*
X91240184Y-126123051D01*
X91429588Y-126219557D01*
X91631757Y-126285246D01*
X91841713Y-126318500D01*
X91841714Y-126318500D01*
X92054286Y-126318500D01*
X92054287Y-126318500D01*
X92264243Y-126285246D01*
X92466412Y-126219557D01*
X92655816Y-126123051D01*
X92742138Y-126060335D01*
X92827786Y-125998109D01*
X92827788Y-125998106D01*
X92827792Y-125998104D01*
X92978104Y-125847792D01*
X92978106Y-125847788D01*
X92978109Y-125847786D01*
X93103048Y-125675820D01*
X93103047Y-125675820D01*
X93103051Y-125675816D01*
X93107514Y-125667054D01*
X93155488Y-125616259D01*
X93223308Y-125599463D01*
X93289444Y-125621999D01*
X93328486Y-125667056D01*
X93332951Y-125675820D01*
X93457890Y-125847786D01*
X93608213Y-125998109D01*
X93780179Y-126123048D01*
X93780181Y-126123049D01*
X93780184Y-126123051D01*
X93969588Y-126219557D01*
X94171757Y-126285246D01*
X94381713Y-126318500D01*
X94381714Y-126318500D01*
X94594286Y-126318500D01*
X94594287Y-126318500D01*
X94804243Y-126285246D01*
X95006412Y-126219557D01*
X95195816Y-126123051D01*
X95282138Y-126060335D01*
X95367786Y-125998109D01*
X95367788Y-125998106D01*
X95367792Y-125998104D01*
X95518104Y-125847792D01*
X95518106Y-125847788D01*
X95518109Y-125847786D01*
X95643048Y-125675820D01*
X95643047Y-125675820D01*
X95643051Y-125675816D01*
X95647514Y-125667054D01*
X95695488Y-125616259D01*
X95763308Y-125599463D01*
X95829444Y-125621999D01*
X95868486Y-125667056D01*
X95872951Y-125675820D01*
X95997890Y-125847786D01*
X96148213Y-125998109D01*
X96320179Y-126123048D01*
X96320181Y-126123049D01*
X96320184Y-126123051D01*
X96509588Y-126219557D01*
X96711757Y-126285246D01*
X96921713Y-126318500D01*
X96921714Y-126318500D01*
X97134286Y-126318500D01*
X97134287Y-126318500D01*
X97344243Y-126285246D01*
X97546412Y-126219557D01*
X97735816Y-126123051D01*
X97822138Y-126060335D01*
X97907786Y-125998109D01*
X97907788Y-125998106D01*
X97907792Y-125998104D01*
X98058104Y-125847792D01*
X98058106Y-125847788D01*
X98058109Y-125847786D01*
X98183048Y-125675820D01*
X98183047Y-125675820D01*
X98183051Y-125675816D01*
X98187514Y-125667054D01*
X98235488Y-125616259D01*
X98303308Y-125599463D01*
X98369444Y-125621999D01*
X98408486Y-125667056D01*
X98412951Y-125675820D01*
X98537890Y-125847786D01*
X98688213Y-125998109D01*
X98860179Y-126123048D01*
X98860181Y-126123049D01*
X98860184Y-126123051D01*
X99049588Y-126219557D01*
X99251757Y-126285246D01*
X99461713Y-126318500D01*
X99461714Y-126318500D01*
X99674286Y-126318500D01*
X99674287Y-126318500D01*
X99884243Y-126285246D01*
X100086412Y-126219557D01*
X100275816Y-126123051D01*
X100362138Y-126060335D01*
X100447786Y-125998109D01*
X100447788Y-125998106D01*
X100447792Y-125998104D01*
X100598104Y-125847792D01*
X100598106Y-125847788D01*
X100598109Y-125847786D01*
X100723048Y-125675820D01*
X100723047Y-125675820D01*
X100723051Y-125675816D01*
X100727514Y-125667054D01*
X100775488Y-125616259D01*
X100843308Y-125599463D01*
X100909444Y-125621999D01*
X100948486Y-125667056D01*
X100952951Y-125675820D01*
X101077890Y-125847786D01*
X101228213Y-125998109D01*
X101400179Y-126123048D01*
X101400181Y-126123049D01*
X101400184Y-126123051D01*
X101589588Y-126219557D01*
X101791757Y-126285246D01*
X102001713Y-126318500D01*
X102001714Y-126318500D01*
X102214286Y-126318500D01*
X102214287Y-126318500D01*
X102424243Y-126285246D01*
X102626412Y-126219557D01*
X102815816Y-126123051D01*
X102902138Y-126060335D01*
X102987786Y-125998109D01*
X102987788Y-125998106D01*
X102987792Y-125998104D01*
X103138104Y-125847792D01*
X103138106Y-125847788D01*
X103138109Y-125847786D01*
X103263048Y-125675820D01*
X103263047Y-125675820D01*
X103263051Y-125675816D01*
X103267514Y-125667054D01*
X103315488Y-125616259D01*
X103383308Y-125599463D01*
X103449444Y-125621999D01*
X103488486Y-125667056D01*
X103492951Y-125675820D01*
X103617890Y-125847786D01*
X103768213Y-125998109D01*
X103940179Y-126123048D01*
X103940181Y-126123049D01*
X103940184Y-126123051D01*
X104129588Y-126219557D01*
X104331757Y-126285246D01*
X104541713Y-126318500D01*
X104541714Y-126318500D01*
X104754286Y-126318500D01*
X104754287Y-126318500D01*
X104964243Y-126285246D01*
X105166412Y-126219557D01*
X105355816Y-126123051D01*
X105442138Y-126060335D01*
X105527786Y-125998109D01*
X105527788Y-125998106D01*
X105527792Y-125998104D01*
X105678104Y-125847792D01*
X105678106Y-125847788D01*
X105678109Y-125847786D01*
X105803048Y-125675820D01*
X105803047Y-125675820D01*
X105803051Y-125675816D01*
X105807514Y-125667054D01*
X105855488Y-125616259D01*
X105923308Y-125599463D01*
X105989444Y-125621999D01*
X106028486Y-125667056D01*
X106032951Y-125675820D01*
X106157890Y-125847786D01*
X106308213Y-125998109D01*
X106480179Y-126123048D01*
X106480181Y-126123049D01*
X106480184Y-126123051D01*
X106669588Y-126219557D01*
X106871757Y-126285246D01*
X107081713Y-126318500D01*
X107081714Y-126318500D01*
X107294286Y-126318500D01*
X107294287Y-126318500D01*
X107504243Y-126285246D01*
X107706412Y-126219557D01*
X107895816Y-126123051D01*
X107982138Y-126060335D01*
X108067786Y-125998109D01*
X108067788Y-125998106D01*
X108067792Y-125998104D01*
X108218104Y-125847792D01*
X108218106Y-125847788D01*
X108218109Y-125847786D01*
X108343048Y-125675820D01*
X108343047Y-125675820D01*
X108343051Y-125675816D01*
X108347514Y-125667054D01*
X108395488Y-125616259D01*
X108463308Y-125599463D01*
X108529444Y-125621999D01*
X108568486Y-125667056D01*
X108572951Y-125675820D01*
X108697890Y-125847786D01*
X108848213Y-125998109D01*
X109020179Y-126123048D01*
X109020181Y-126123049D01*
X109020184Y-126123051D01*
X109209588Y-126219557D01*
X109411757Y-126285246D01*
X109621713Y-126318500D01*
X109621714Y-126318500D01*
X109834286Y-126318500D01*
X109834287Y-126318500D01*
X110044243Y-126285246D01*
X110246412Y-126219557D01*
X110435816Y-126123051D01*
X110522138Y-126060335D01*
X110607786Y-125998109D01*
X110607788Y-125998106D01*
X110607792Y-125998104D01*
X110758104Y-125847792D01*
X110758106Y-125847788D01*
X110758109Y-125847786D01*
X110883048Y-125675820D01*
X110883047Y-125675820D01*
X110883051Y-125675816D01*
X110887514Y-125667054D01*
X110935488Y-125616259D01*
X111003308Y-125599463D01*
X111069444Y-125621999D01*
X111108486Y-125667056D01*
X111112951Y-125675820D01*
X111237890Y-125847786D01*
X111388213Y-125998109D01*
X111560179Y-126123048D01*
X111560181Y-126123049D01*
X111560184Y-126123051D01*
X111749588Y-126219557D01*
X111951757Y-126285246D01*
X112161713Y-126318500D01*
X112161714Y-126318500D01*
X112374286Y-126318500D01*
X112374287Y-126318500D01*
X112584243Y-126285246D01*
X112786412Y-126219557D01*
X112975816Y-126123051D01*
X113062138Y-126060335D01*
X113147786Y-125998109D01*
X113147788Y-125998106D01*
X113147792Y-125998104D01*
X113298104Y-125847792D01*
X113298106Y-125847788D01*
X113298109Y-125847786D01*
X113423048Y-125675820D01*
X113423047Y-125675820D01*
X113423051Y-125675816D01*
X113427514Y-125667054D01*
X113475488Y-125616259D01*
X113543308Y-125599463D01*
X113609444Y-125621999D01*
X113648486Y-125667056D01*
X113652951Y-125675820D01*
X113777890Y-125847786D01*
X113928213Y-125998109D01*
X114100179Y-126123048D01*
X114100181Y-126123049D01*
X114100184Y-126123051D01*
X114289588Y-126219557D01*
X114491757Y-126285246D01*
X114701713Y-126318500D01*
X114701714Y-126318500D01*
X114914286Y-126318500D01*
X114914287Y-126318500D01*
X115124243Y-126285246D01*
X115326412Y-126219557D01*
X115515816Y-126123051D01*
X115602138Y-126060335D01*
X115687786Y-125998109D01*
X115687788Y-125998106D01*
X115687792Y-125998104D01*
X115838104Y-125847792D01*
X115838106Y-125847788D01*
X115838109Y-125847786D01*
X115963048Y-125675820D01*
X115963047Y-125675820D01*
X115963051Y-125675816D01*
X115967514Y-125667054D01*
X116015488Y-125616259D01*
X116083308Y-125599463D01*
X116149444Y-125621999D01*
X116188486Y-125667056D01*
X116192951Y-125675820D01*
X116317890Y-125847786D01*
X116468213Y-125998109D01*
X116640179Y-126123048D01*
X116640181Y-126123049D01*
X116640184Y-126123051D01*
X116829588Y-126219557D01*
X117031757Y-126285246D01*
X117241713Y-126318500D01*
X117241714Y-126318500D01*
X117454286Y-126318500D01*
X117454287Y-126318500D01*
X117664243Y-126285246D01*
X117866412Y-126219557D01*
X118055816Y-126123051D01*
X118142138Y-126060335D01*
X118227786Y-125998109D01*
X118227788Y-125998106D01*
X118227792Y-125998104D01*
X118378104Y-125847792D01*
X118378106Y-125847788D01*
X118378109Y-125847786D01*
X118503048Y-125675820D01*
X118503047Y-125675820D01*
X118503051Y-125675816D01*
X118507514Y-125667054D01*
X118555488Y-125616259D01*
X118623308Y-125599463D01*
X118689444Y-125621999D01*
X118728486Y-125667056D01*
X118732951Y-125675820D01*
X118857890Y-125847786D01*
X119008213Y-125998109D01*
X119180179Y-126123048D01*
X119180181Y-126123049D01*
X119180184Y-126123051D01*
X119369588Y-126219557D01*
X119571757Y-126285246D01*
X119781713Y-126318500D01*
X119781714Y-126318500D01*
X119994286Y-126318500D01*
X119994287Y-126318500D01*
X120204243Y-126285246D01*
X120406412Y-126219557D01*
X120595816Y-126123051D01*
X120682138Y-126060335D01*
X120767786Y-125998109D01*
X120767788Y-125998106D01*
X120767792Y-125998104D01*
X120918104Y-125847792D01*
X120918106Y-125847788D01*
X120918109Y-125847786D01*
X121043048Y-125675820D01*
X121043047Y-125675820D01*
X121043051Y-125675816D01*
X121047514Y-125667054D01*
X121095488Y-125616259D01*
X121163308Y-125599463D01*
X121229444Y-125621999D01*
X121268486Y-125667056D01*
X121272951Y-125675820D01*
X121397890Y-125847786D01*
X121548213Y-125998109D01*
X121720179Y-126123048D01*
X121720181Y-126123049D01*
X121720184Y-126123051D01*
X121909588Y-126219557D01*
X122111757Y-126285246D01*
X122321713Y-126318500D01*
X122321714Y-126318500D01*
X122534286Y-126318500D01*
X122534287Y-126318500D01*
X122744243Y-126285246D01*
X122946412Y-126219557D01*
X123135816Y-126123051D01*
X123222138Y-126060335D01*
X123307786Y-125998109D01*
X123307788Y-125998106D01*
X123307792Y-125998104D01*
X123458104Y-125847792D01*
X123458106Y-125847788D01*
X123458109Y-125847786D01*
X123583048Y-125675820D01*
X123583047Y-125675820D01*
X123583051Y-125675816D01*
X123587514Y-125667054D01*
X123635488Y-125616259D01*
X123703308Y-125599463D01*
X123769444Y-125621999D01*
X123808486Y-125667056D01*
X123812951Y-125675820D01*
X123937890Y-125847786D01*
X124088213Y-125998109D01*
X124260179Y-126123048D01*
X124260181Y-126123049D01*
X124260184Y-126123051D01*
X124449588Y-126219557D01*
X124651757Y-126285246D01*
X124861713Y-126318500D01*
X124861714Y-126318500D01*
X125074286Y-126318500D01*
X125074287Y-126318500D01*
X125284243Y-126285246D01*
X125486412Y-126219557D01*
X125675816Y-126123051D01*
X125762138Y-126060335D01*
X125847786Y-125998109D01*
X125847788Y-125998106D01*
X125847792Y-125998104D01*
X125998104Y-125847792D01*
X125998106Y-125847788D01*
X125998109Y-125847786D01*
X126123048Y-125675820D01*
X126123047Y-125675820D01*
X126123051Y-125675816D01*
X126127514Y-125667054D01*
X126175488Y-125616259D01*
X126243308Y-125599463D01*
X126309444Y-125621999D01*
X126348486Y-125667056D01*
X126352951Y-125675820D01*
X126477890Y-125847786D01*
X126628213Y-125998109D01*
X126800179Y-126123048D01*
X126800181Y-126123049D01*
X126800184Y-126123051D01*
X126989588Y-126219557D01*
X127191757Y-126285246D01*
X127401713Y-126318500D01*
X127401714Y-126318500D01*
X127614286Y-126318500D01*
X127614287Y-126318500D01*
X127824243Y-126285246D01*
X128026412Y-126219557D01*
X128215816Y-126123051D01*
X128302138Y-126060335D01*
X128387786Y-125998109D01*
X128387788Y-125998106D01*
X128387792Y-125998104D01*
X128538104Y-125847792D01*
X128538106Y-125847788D01*
X128538109Y-125847786D01*
X128663048Y-125675820D01*
X128663047Y-125675820D01*
X128663051Y-125675816D01*
X128667514Y-125667054D01*
X128715488Y-125616259D01*
X128783308Y-125599463D01*
X128849444Y-125621999D01*
X128888486Y-125667056D01*
X128892951Y-125675820D01*
X129017890Y-125847786D01*
X129168213Y-125998109D01*
X129340179Y-126123048D01*
X129340181Y-126123049D01*
X129340184Y-126123051D01*
X129529588Y-126219557D01*
X129731757Y-126285246D01*
X129941713Y-126318500D01*
X129941714Y-126318500D01*
X130154286Y-126318500D01*
X130154287Y-126318500D01*
X130364243Y-126285246D01*
X130566412Y-126219557D01*
X130755816Y-126123051D01*
X130842138Y-126060335D01*
X130927786Y-125998109D01*
X130927788Y-125998106D01*
X130927792Y-125998104D01*
X131078104Y-125847792D01*
X131078106Y-125847788D01*
X131078109Y-125847786D01*
X131203048Y-125675820D01*
X131203047Y-125675820D01*
X131203051Y-125675816D01*
X131207514Y-125667054D01*
X131255488Y-125616259D01*
X131323308Y-125599463D01*
X131389444Y-125621999D01*
X131428486Y-125667056D01*
X131432951Y-125675820D01*
X131557890Y-125847786D01*
X131708213Y-125998109D01*
X131880179Y-126123048D01*
X131880181Y-126123049D01*
X131880184Y-126123051D01*
X132069588Y-126219557D01*
X132271757Y-126285246D01*
X132481713Y-126318500D01*
X132481714Y-126318500D01*
X132694286Y-126318500D01*
X132694287Y-126318500D01*
X132904243Y-126285246D01*
X133106412Y-126219557D01*
X133295816Y-126123051D01*
X133382138Y-126060335D01*
X133467786Y-125998109D01*
X133467788Y-125998106D01*
X133467792Y-125998104D01*
X133618104Y-125847792D01*
X133618106Y-125847788D01*
X133618109Y-125847786D01*
X133743048Y-125675820D01*
X133743047Y-125675820D01*
X133743051Y-125675816D01*
X133747514Y-125667054D01*
X133795488Y-125616259D01*
X133863308Y-125599463D01*
X133929444Y-125621999D01*
X133968486Y-125667056D01*
X133972951Y-125675820D01*
X134097890Y-125847786D01*
X134248213Y-125998109D01*
X134420179Y-126123048D01*
X134420181Y-126123049D01*
X134420184Y-126123051D01*
X134609588Y-126219557D01*
X134811757Y-126285246D01*
X135021713Y-126318500D01*
X135021714Y-126318500D01*
X135234286Y-126318500D01*
X135234287Y-126318500D01*
X135444243Y-126285246D01*
X135646412Y-126219557D01*
X135835816Y-126123051D01*
X135922138Y-126060335D01*
X136007786Y-125998109D01*
X136007788Y-125998106D01*
X136007792Y-125998104D01*
X136158104Y-125847792D01*
X136158106Y-125847788D01*
X136158109Y-125847786D01*
X136283048Y-125675820D01*
X136283047Y-125675820D01*
X136283051Y-125675816D01*
X136287514Y-125667054D01*
X136335488Y-125616259D01*
X136403308Y-125599463D01*
X136469444Y-125621999D01*
X136508486Y-125667056D01*
X136512951Y-125675820D01*
X136637890Y-125847786D01*
X136788213Y-125998109D01*
X136960179Y-126123048D01*
X136960181Y-126123049D01*
X136960184Y-126123051D01*
X137149588Y-126219557D01*
X137351757Y-126285246D01*
X137561713Y-126318500D01*
X137561714Y-126318500D01*
X137774286Y-126318500D01*
X137774287Y-126318500D01*
X137984243Y-126285246D01*
X138186412Y-126219557D01*
X138375816Y-126123051D01*
X138462138Y-126060335D01*
X138547786Y-125998109D01*
X138547788Y-125998106D01*
X138547792Y-125998104D01*
X138698104Y-125847792D01*
X138698106Y-125847788D01*
X138698109Y-125847786D01*
X138823048Y-125675820D01*
X138823047Y-125675820D01*
X138823051Y-125675816D01*
X138827514Y-125667054D01*
X138875488Y-125616259D01*
X138943308Y-125599463D01*
X139009444Y-125621999D01*
X139048486Y-125667056D01*
X139052951Y-125675820D01*
X139177890Y-125847786D01*
X139328213Y-125998109D01*
X139500179Y-126123048D01*
X139500181Y-126123049D01*
X139500184Y-126123051D01*
X139689588Y-126219557D01*
X139891757Y-126285246D01*
X140101713Y-126318500D01*
X140101714Y-126318500D01*
X140314286Y-126318500D01*
X140314287Y-126318500D01*
X140524243Y-126285246D01*
X140726412Y-126219557D01*
X140915816Y-126123051D01*
X141002138Y-126060335D01*
X141087786Y-125998109D01*
X141087788Y-125998106D01*
X141087792Y-125998104D01*
X141238104Y-125847792D01*
X141238106Y-125847788D01*
X141238109Y-125847786D01*
X141363048Y-125675820D01*
X141363047Y-125675820D01*
X141363051Y-125675816D01*
X141367514Y-125667054D01*
X141415488Y-125616259D01*
X141483308Y-125599463D01*
X141549444Y-125621999D01*
X141588486Y-125667056D01*
X141592951Y-125675820D01*
X141717890Y-125847786D01*
X141868213Y-125998109D01*
X142040179Y-126123048D01*
X142040181Y-126123049D01*
X142040184Y-126123051D01*
X142229588Y-126219557D01*
X142431757Y-126285246D01*
X142641713Y-126318500D01*
X142641714Y-126318500D01*
X142854286Y-126318500D01*
X142854287Y-126318500D01*
X143064243Y-126285246D01*
X143266412Y-126219557D01*
X143455816Y-126123051D01*
X143542138Y-126060335D01*
X143627786Y-125998109D01*
X143627788Y-125998106D01*
X143627792Y-125998104D01*
X143778104Y-125847792D01*
X143778106Y-125847788D01*
X143778109Y-125847786D01*
X143903048Y-125675820D01*
X143903047Y-125675820D01*
X143903051Y-125675816D01*
X143907514Y-125667054D01*
X143955488Y-125616259D01*
X144023308Y-125599463D01*
X144089444Y-125621999D01*
X144128486Y-125667056D01*
X144132951Y-125675820D01*
X144257890Y-125847786D01*
X144408213Y-125998109D01*
X144580179Y-126123048D01*
X144580181Y-126123049D01*
X144580184Y-126123051D01*
X144769588Y-126219557D01*
X144971757Y-126285246D01*
X145181713Y-126318500D01*
X145181714Y-126318500D01*
X145394286Y-126318500D01*
X145394287Y-126318500D01*
X145604243Y-126285246D01*
X145806412Y-126219557D01*
X145995816Y-126123051D01*
X146082138Y-126060335D01*
X146167786Y-125998109D01*
X146167788Y-125998106D01*
X146167792Y-125998104D01*
X146318104Y-125847792D01*
X146318106Y-125847788D01*
X146318109Y-125847786D01*
X146443048Y-125675820D01*
X146443047Y-125675820D01*
X146443051Y-125675816D01*
X146447514Y-125667054D01*
X146495488Y-125616259D01*
X146563308Y-125599463D01*
X146629444Y-125621999D01*
X146668486Y-125667056D01*
X146672951Y-125675820D01*
X146797890Y-125847786D01*
X146948213Y-125998109D01*
X147120179Y-126123048D01*
X147120181Y-126123049D01*
X147120184Y-126123051D01*
X147309588Y-126219557D01*
X147511757Y-126285246D01*
X147721713Y-126318500D01*
X147721714Y-126318500D01*
X147934286Y-126318500D01*
X147934287Y-126318500D01*
X148144243Y-126285246D01*
X148346412Y-126219557D01*
X148535816Y-126123051D01*
X148622138Y-126060335D01*
X148707786Y-125998109D01*
X148707788Y-125998106D01*
X148707792Y-125998104D01*
X148858104Y-125847792D01*
X148858106Y-125847788D01*
X148858109Y-125847786D01*
X148983048Y-125675820D01*
X148983047Y-125675820D01*
X148983051Y-125675816D01*
X148987514Y-125667054D01*
X149035488Y-125616259D01*
X149103308Y-125599463D01*
X149169444Y-125621999D01*
X149208486Y-125667056D01*
X149212951Y-125675820D01*
X149337890Y-125847786D01*
X149488213Y-125998109D01*
X149660179Y-126123048D01*
X149660181Y-126123049D01*
X149660184Y-126123051D01*
X149849588Y-126219557D01*
X150051757Y-126285246D01*
X150261713Y-126318500D01*
X150261714Y-126318500D01*
X150474286Y-126318500D01*
X150474287Y-126318500D01*
X150684243Y-126285246D01*
X150886412Y-126219557D01*
X151075816Y-126123051D01*
X151162138Y-126060335D01*
X151247786Y-125998109D01*
X151247788Y-125998106D01*
X151247792Y-125998104D01*
X151398104Y-125847792D01*
X151398106Y-125847788D01*
X151398109Y-125847786D01*
X151523048Y-125675820D01*
X151523047Y-125675820D01*
X151523051Y-125675816D01*
X151527514Y-125667054D01*
X151575488Y-125616259D01*
X151643308Y-125599463D01*
X151709444Y-125621999D01*
X151748486Y-125667056D01*
X151752951Y-125675820D01*
X151877890Y-125847786D01*
X152028213Y-125998109D01*
X152200179Y-126123048D01*
X152200181Y-126123049D01*
X152200184Y-126123051D01*
X152389588Y-126219557D01*
X152591757Y-126285246D01*
X152801713Y-126318500D01*
X152801714Y-126318500D01*
X153014286Y-126318500D01*
X153014287Y-126318500D01*
X153224243Y-126285246D01*
X153426412Y-126219557D01*
X153615816Y-126123051D01*
X153702138Y-126060335D01*
X153787786Y-125998109D01*
X153787788Y-125998106D01*
X153787792Y-125998104D01*
X153938104Y-125847792D01*
X153938106Y-125847788D01*
X153938109Y-125847786D01*
X154063048Y-125675820D01*
X154063047Y-125675820D01*
X154063051Y-125675816D01*
X154067514Y-125667054D01*
X154115488Y-125616259D01*
X154183308Y-125599463D01*
X154249444Y-125621999D01*
X154288486Y-125667056D01*
X154292951Y-125675820D01*
X154417890Y-125847786D01*
X154568213Y-125998109D01*
X154740179Y-126123048D01*
X154740181Y-126123049D01*
X154740184Y-126123051D01*
X154929588Y-126219557D01*
X155131757Y-126285246D01*
X155341713Y-126318500D01*
X155341714Y-126318500D01*
X155554286Y-126318500D01*
X155554287Y-126318500D01*
X155764243Y-126285246D01*
X155966412Y-126219557D01*
X156155816Y-126123051D01*
X156242138Y-126060335D01*
X156327786Y-125998109D01*
X156327788Y-125998106D01*
X156327792Y-125998104D01*
X156478104Y-125847792D01*
X156478106Y-125847788D01*
X156478109Y-125847786D01*
X156603048Y-125675820D01*
X156603047Y-125675820D01*
X156603051Y-125675816D01*
X156607514Y-125667054D01*
X156655488Y-125616259D01*
X156723308Y-125599463D01*
X156789444Y-125621999D01*
X156828486Y-125667056D01*
X156832951Y-125675820D01*
X156957890Y-125847786D01*
X157108213Y-125998109D01*
X157280179Y-126123048D01*
X157280181Y-126123049D01*
X157280184Y-126123051D01*
X157469588Y-126219557D01*
X157671757Y-126285246D01*
X157881713Y-126318500D01*
X157881714Y-126318500D01*
X158094286Y-126318500D01*
X158094287Y-126318500D01*
X158304243Y-126285246D01*
X158506412Y-126219557D01*
X158695816Y-126123051D01*
X158782138Y-126060335D01*
X158867786Y-125998109D01*
X158867788Y-125998106D01*
X158867792Y-125998104D01*
X159018104Y-125847792D01*
X159018106Y-125847788D01*
X159018109Y-125847786D01*
X159143048Y-125675820D01*
X159143047Y-125675820D01*
X159143051Y-125675816D01*
X159147514Y-125667054D01*
X159195488Y-125616259D01*
X159263308Y-125599463D01*
X159329444Y-125621999D01*
X159368486Y-125667056D01*
X159372951Y-125675820D01*
X159497890Y-125847786D01*
X159648213Y-125998109D01*
X159820179Y-126123048D01*
X159820181Y-126123049D01*
X159820184Y-126123051D01*
X160009588Y-126219557D01*
X160211757Y-126285246D01*
X160421713Y-126318500D01*
X160421714Y-126318500D01*
X160634286Y-126318500D01*
X160634287Y-126318500D01*
X160844243Y-126285246D01*
X161046412Y-126219557D01*
X161235816Y-126123051D01*
X161322138Y-126060335D01*
X161407786Y-125998109D01*
X161407788Y-125998106D01*
X161407792Y-125998104D01*
X161558104Y-125847792D01*
X161558106Y-125847788D01*
X161558109Y-125847786D01*
X161683048Y-125675820D01*
X161683047Y-125675820D01*
X161683051Y-125675816D01*
X161687514Y-125667054D01*
X161735488Y-125616259D01*
X161803308Y-125599463D01*
X161869444Y-125621999D01*
X161908486Y-125667056D01*
X161912951Y-125675820D01*
X162037890Y-125847786D01*
X162188213Y-125998109D01*
X162360179Y-126123048D01*
X162360181Y-126123049D01*
X162360184Y-126123051D01*
X162549588Y-126219557D01*
X162751757Y-126285246D01*
X162961713Y-126318500D01*
X162961714Y-126318500D01*
X163174286Y-126318500D01*
X163174287Y-126318500D01*
X163384243Y-126285246D01*
X163586412Y-126219557D01*
X163775816Y-126123051D01*
X163862138Y-126060335D01*
X163947786Y-125998109D01*
X163947788Y-125998106D01*
X163947792Y-125998104D01*
X164098104Y-125847792D01*
X164098106Y-125847788D01*
X164098109Y-125847786D01*
X164223048Y-125675820D01*
X164223047Y-125675820D01*
X164223051Y-125675816D01*
X164227514Y-125667054D01*
X164275488Y-125616259D01*
X164343308Y-125599463D01*
X164409444Y-125621999D01*
X164448486Y-125667056D01*
X164452951Y-125675820D01*
X164577890Y-125847786D01*
X164728213Y-125998109D01*
X164900179Y-126123048D01*
X164900181Y-126123049D01*
X164900184Y-126123051D01*
X165089588Y-126219557D01*
X165291757Y-126285246D01*
X165501713Y-126318500D01*
X165501714Y-126318500D01*
X165714286Y-126318500D01*
X165714287Y-126318500D01*
X165924243Y-126285246D01*
X166126412Y-126219557D01*
X166315816Y-126123051D01*
X166402138Y-126060335D01*
X166487786Y-125998109D01*
X166487788Y-125998106D01*
X166487792Y-125998104D01*
X166638104Y-125847792D01*
X166638106Y-125847788D01*
X166638109Y-125847786D01*
X166763048Y-125675820D01*
X166763047Y-125675820D01*
X166763051Y-125675816D01*
X166767514Y-125667054D01*
X166815488Y-125616259D01*
X166883308Y-125599463D01*
X166949444Y-125621999D01*
X166988486Y-125667056D01*
X166992951Y-125675820D01*
X167117890Y-125847786D01*
X167268213Y-125998109D01*
X167440179Y-126123048D01*
X167440181Y-126123049D01*
X167440184Y-126123051D01*
X167629588Y-126219557D01*
X167831757Y-126285246D01*
X168041713Y-126318500D01*
X168041714Y-126318500D01*
X168254286Y-126318500D01*
X168254287Y-126318500D01*
X168464243Y-126285246D01*
X168666412Y-126219557D01*
X168855816Y-126123051D01*
X168942138Y-126060335D01*
X169027786Y-125998109D01*
X169027788Y-125998106D01*
X169027792Y-125998104D01*
X169178104Y-125847792D01*
X169178106Y-125847788D01*
X169178109Y-125847786D01*
X169303048Y-125675820D01*
X169303051Y-125675816D01*
X169307793Y-125666508D01*
X169355763Y-125615711D01*
X169423583Y-125598911D01*
X169489719Y-125621445D01*
X169528763Y-125666500D01*
X169533377Y-125675555D01*
X169658272Y-125847459D01*
X169658276Y-125847464D01*
X169808535Y-125997723D01*
X169808540Y-125997727D01*
X169980442Y-126122620D01*
X170169782Y-126219095D01*
X170371871Y-126284757D01*
X170438000Y-126295231D01*
X170438000Y-125401012D01*
X170495007Y-125433925D01*
X170622174Y-125468000D01*
X170753826Y-125468000D01*
X170880993Y-125433925D01*
X170938000Y-125401012D01*
X170938000Y-126295230D01*
X171004126Y-126284757D01*
X171004129Y-126284757D01*
X171206217Y-126219095D01*
X171395557Y-126122620D01*
X171567459Y-125997727D01*
X171567464Y-125997723D01*
X171717723Y-125847464D01*
X171717727Y-125847459D01*
X171842620Y-125675558D01*
X171847232Y-125666507D01*
X171895205Y-125615709D01*
X171963025Y-125598912D01*
X172029161Y-125621447D01*
X172068204Y-125666504D01*
X172072949Y-125675817D01*
X172197890Y-125847786D01*
X172348213Y-125998109D01*
X172520179Y-126123048D01*
X172520181Y-126123049D01*
X172520184Y-126123051D01*
X172709588Y-126219557D01*
X172911757Y-126285246D01*
X173121713Y-126318500D01*
X173121714Y-126318500D01*
X173334286Y-126318500D01*
X173334287Y-126318500D01*
X173544243Y-126285246D01*
X173746412Y-126219557D01*
X173935816Y-126123051D01*
X174022138Y-126060335D01*
X174107786Y-125998109D01*
X174107788Y-125998106D01*
X174107792Y-125998104D01*
X174258104Y-125847792D01*
X174258106Y-125847788D01*
X174258109Y-125847786D01*
X174383048Y-125675820D01*
X174383047Y-125675820D01*
X174383051Y-125675816D01*
X174479557Y-125486412D01*
X174545246Y-125284243D01*
X174578500Y-125074287D01*
X174578500Y-124861713D01*
X174545246Y-124651757D01*
X174479557Y-124449588D01*
X174383051Y-124260184D01*
X174383049Y-124260181D01*
X174383048Y-124260179D01*
X174258109Y-124088213D01*
X174107786Y-123937890D01*
X173935820Y-123812951D01*
X173935115Y-123812591D01*
X173927054Y-123808485D01*
X173876259Y-123760512D01*
X173859463Y-123692692D01*
X173881999Y-123626556D01*
X173927054Y-123587515D01*
X173935816Y-123583051D01*
X174025554Y-123517853D01*
X174107786Y-123458109D01*
X174107788Y-123458106D01*
X174107792Y-123458104D01*
X174258104Y-123307792D01*
X174258106Y-123307788D01*
X174258109Y-123307786D01*
X174383048Y-123135820D01*
X174383047Y-123135820D01*
X174383051Y-123135816D01*
X174479557Y-122946412D01*
X174545246Y-122744243D01*
X174578500Y-122534287D01*
X174578500Y-122321713D01*
X174545246Y-122111757D01*
X174479557Y-121909588D01*
X174383051Y-121720184D01*
X174383049Y-121720181D01*
X174383048Y-121720179D01*
X174258109Y-121548213D01*
X174107786Y-121397890D01*
X173935820Y-121272951D01*
X173746414Y-121176444D01*
X173746413Y-121176443D01*
X173746412Y-121176443D01*
X173544243Y-121110754D01*
X173544241Y-121110753D01*
X173544240Y-121110753D01*
X173382957Y-121085208D01*
X173334287Y-121077500D01*
X173121713Y-121077500D01*
X173011888Y-121094894D01*
X172906945Y-121111516D01*
X172906686Y-121109882D01*
X172844094Y-121106730D01*
X172797288Y-121077342D01*
X168054674Y-116334727D01*
X168054673Y-116334726D01*
X168054669Y-116334723D01*
X167948127Y-116263535D01*
X167829744Y-116214499D01*
X167829738Y-116214497D01*
X167704071Y-116189500D01*
X167704069Y-116189500D01*
X157556808Y-116189500D01*
X157489769Y-116169815D01*
X157469127Y-116153181D01*
X154361819Y-113045873D01*
X154328334Y-112984550D01*
X154325500Y-112958192D01*
X154325500Y-111969499D01*
X154345185Y-111902460D01*
X154397989Y-111856705D01*
X154449500Y-111845499D01*
X154572871Y-111845499D01*
X154572872Y-111845499D01*
X154632483Y-111839091D01*
X154767331Y-111788796D01*
X154882546Y-111702546D01*
X154968796Y-111587331D01*
X155019091Y-111452483D01*
X155025500Y-111392873D01*
X155025499Y-109597128D01*
X155019091Y-109537517D01*
X155016246Y-109529890D01*
X154968797Y-109402671D01*
X154968793Y-109402664D01*
X154882547Y-109287455D01*
X154882544Y-109287452D01*
X154767335Y-109201206D01*
X154767328Y-109201202D01*
X154635917Y-109152189D01*
X154579983Y-109110318D01*
X154555566Y-109044853D01*
X154570418Y-108976580D01*
X154591563Y-108948332D01*
X154705104Y-108834792D01*
X154708743Y-108829784D01*
X154830048Y-108662820D01*
X154830047Y-108662820D01*
X154830051Y-108662816D01*
X154926557Y-108473412D01*
X154992246Y-108271243D01*
X155025500Y-108061287D01*
X155025500Y-107848713D01*
X154992246Y-107638757D01*
X154926557Y-107436588D01*
X154830051Y-107247184D01*
X154830049Y-107247181D01*
X154830048Y-107247179D01*
X154705109Y-107075213D01*
X154554786Y-106924890D01*
X154382820Y-106799951D01*
X154193414Y-106703444D01*
X154193413Y-106703443D01*
X154193412Y-106703443D01*
X153991243Y-106637754D01*
X153991241Y-106637753D01*
X153991240Y-106637753D01*
X153798081Y-106607160D01*
X153781287Y-106604500D01*
X153568713Y-106604500D01*
X153551919Y-106607160D01*
X153358760Y-106637753D01*
X153156585Y-106703444D01*
X152967179Y-106799951D01*
X152795213Y-106924890D01*
X152644890Y-107075213D01*
X152519949Y-107247182D01*
X152515484Y-107255946D01*
X152467509Y-107306742D01*
X152399688Y-107323536D01*
X152333553Y-107300998D01*
X152294516Y-107255946D01*
X152290050Y-107247182D01*
X152165109Y-107075213D01*
X152014786Y-106924890D01*
X151842820Y-106799951D01*
X151653414Y-106703444D01*
X151653413Y-106703443D01*
X151653412Y-106703443D01*
X151451243Y-106637754D01*
X151451241Y-106637753D01*
X151451240Y-106637753D01*
X151258081Y-106607160D01*
X151241287Y-106604500D01*
X151028713Y-106604500D01*
X151011919Y-106607160D01*
X150818760Y-106637753D01*
X150616585Y-106703444D01*
X150427179Y-106799951D01*
X150255213Y-106924890D01*
X150104890Y-107075213D01*
X149979950Y-107247180D01*
X149972503Y-107261797D01*
X149966020Y-107268660D01*
X149962919Y-107277578D01*
X149942414Y-107293653D01*
X149924527Y-107312592D01*
X149913901Y-107316007D01*
X149907933Y-107320687D01*
X149886615Y-107324778D01*
X149873621Y-107328956D01*
X149867832Y-107329500D01*
X149793393Y-107329500D01*
X149732971Y-107341518D01*
X149672548Y-107353537D01*
X149672545Y-107353537D01*
X149666573Y-107354726D01*
X149666190Y-107352802D01*
X149605364Y-107353338D01*
X149546255Y-107316083D01*
X149516671Y-107252786D01*
X149526005Y-107183543D01*
X149551568Y-107146377D01*
X152244126Y-104453819D01*
X152305449Y-104420334D01*
X152331807Y-104417500D01*
X156393071Y-104417500D01*
X156477615Y-104400682D01*
X156518744Y-104392501D01*
X156637127Y-104343465D01*
X156637130Y-104343463D01*
X156637135Y-104343460D01*
X156637715Y-104343073D01*
X156637721Y-104343069D01*
X156717002Y-104290095D01*
X156743669Y-104272277D01*
X157092808Y-103923136D01*
X157154131Y-103889652D01*
X157199887Y-103888345D01*
X157377648Y-103916500D01*
X157377649Y-103916500D01*
X157582351Y-103916500D01*
X157582352Y-103916500D01*
X157784534Y-103884477D01*
X157979219Y-103821220D01*
X158161610Y-103728287D01*
X158272436Y-103647768D01*
X158327213Y-103607971D01*
X158327215Y-103607968D01*
X158327219Y-103607966D01*
X158471966Y-103463219D01*
X158471968Y-103463215D01*
X158471971Y-103463213D01*
X158526316Y-103388412D01*
X158592287Y-103297610D01*
X158685220Y-103115219D01*
X158748477Y-102920534D01*
X158780500Y-102718352D01*
X158780500Y-102513648D01*
X158765919Y-102421588D01*
X158748477Y-102311465D01*
X158699972Y-102162184D01*
X158685220Y-102116781D01*
X158685218Y-102116778D01*
X158685218Y-102116776D01*
X158638078Y-102024260D01*
X158592287Y-101934390D01*
X158523634Y-101839896D01*
X158471971Y-101768786D01*
X158327213Y-101624028D01*
X158161614Y-101503715D01*
X158133743Y-101489514D01*
X158068917Y-101456483D01*
X158018123Y-101408511D01*
X158001328Y-101340690D01*
X158023865Y-101274555D01*
X158068917Y-101235516D01*
X158161610Y-101188287D01*
X158272436Y-101107768D01*
X158327213Y-101067971D01*
X158327215Y-101067968D01*
X158327219Y-101067966D01*
X158471966Y-100923219D01*
X158471968Y-100923215D01*
X158471971Y-100923213D01*
X158531903Y-100840722D01*
X158592287Y-100757610D01*
X158685220Y-100575219D01*
X158748477Y-100380534D01*
X158780500Y-100178352D01*
X158780500Y-99973648D01*
X158765919Y-99881588D01*
X158748477Y-99771465D01*
X158699972Y-99622184D01*
X158685220Y-99576781D01*
X158685218Y-99576778D01*
X158685218Y-99576776D01*
X158638078Y-99484260D01*
X158592287Y-99394390D01*
X158523634Y-99299896D01*
X158471971Y-99228786D01*
X158327213Y-99084028D01*
X158161614Y-98963715D01*
X158133743Y-98949514D01*
X158068917Y-98916483D01*
X158018123Y-98868511D01*
X158001328Y-98800690D01*
X158023865Y-98734555D01*
X158068917Y-98695516D01*
X158161610Y-98648287D01*
X158272436Y-98567768D01*
X158327213Y-98527971D01*
X158327215Y-98527968D01*
X158327219Y-98527966D01*
X158471966Y-98383219D01*
X158471968Y-98383215D01*
X158471971Y-98383213D01*
X158550954Y-98274500D01*
X158592287Y-98217610D01*
X158685220Y-98035219D01*
X158748477Y-97840534D01*
X158780500Y-97638352D01*
X158780500Y-97433648D01*
X158765919Y-97341588D01*
X158748477Y-97231465D01*
X158699972Y-97082184D01*
X158685220Y-97036781D01*
X158685218Y-97036778D01*
X158685218Y-97036776D01*
X158635473Y-96939147D01*
X158592287Y-96854390D01*
X158584556Y-96843749D01*
X158471971Y-96688786D01*
X158327213Y-96544028D01*
X158161614Y-96423715D01*
X158133743Y-96409514D01*
X158068917Y-96376483D01*
X158018123Y-96328511D01*
X158001328Y-96260690D01*
X158023865Y-96194555D01*
X158068917Y-96155516D01*
X158161610Y-96108287D01*
X158272436Y-96027768D01*
X158327213Y-95987971D01*
X158327215Y-95987968D01*
X158327219Y-95987966D01*
X158471966Y-95843219D01*
X158471968Y-95843215D01*
X158471971Y-95843213D01*
X158526316Y-95768412D01*
X158592287Y-95677610D01*
X158685220Y-95495219D01*
X158748477Y-95300534D01*
X158780500Y-95098352D01*
X158780500Y-94893648D01*
X158765919Y-94801588D01*
X158748477Y-94691465D01*
X158699972Y-94542184D01*
X158685220Y-94496781D01*
X158685218Y-94496778D01*
X158685218Y-94496776D01*
X158638078Y-94404260D01*
X158592287Y-94314390D01*
X158523634Y-94219896D01*
X158471971Y-94148786D01*
X158327213Y-94004028D01*
X158161614Y-93883715D01*
X158133743Y-93869514D01*
X158068917Y-93836483D01*
X158018123Y-93788511D01*
X158001328Y-93720690D01*
X158023865Y-93654555D01*
X158068917Y-93615516D01*
X158161610Y-93568287D01*
X158272436Y-93487768D01*
X158327213Y-93447971D01*
X158327215Y-93447968D01*
X158327219Y-93447966D01*
X158471966Y-93303219D01*
X158471968Y-93303215D01*
X158471971Y-93303213D01*
X158550954Y-93194500D01*
X158592287Y-93137610D01*
X158685220Y-92955219D01*
X158748477Y-92760534D01*
X158780500Y-92558352D01*
X158780500Y-92353648D01*
X158765919Y-92261588D01*
X158748477Y-92151465D01*
X158699972Y-92002184D01*
X158685220Y-91956781D01*
X158685218Y-91956778D01*
X158685218Y-91956776D01*
X158637746Y-91863608D01*
X158592287Y-91774390D01*
X158523634Y-91679896D01*
X158471971Y-91608786D01*
X158327213Y-91464028D01*
X158161614Y-91343715D01*
X158133743Y-91329514D01*
X158068917Y-91296483D01*
X158018123Y-91248511D01*
X158001328Y-91180690D01*
X158023865Y-91114555D01*
X158068917Y-91075516D01*
X158161610Y-91028287D01*
X158272436Y-90947768D01*
X158327213Y-90907971D01*
X158327215Y-90907968D01*
X158327219Y-90907966D01*
X158471966Y-90763219D01*
X158471968Y-90763215D01*
X158471971Y-90763213D01*
X158550954Y-90654500D01*
X158592287Y-90597610D01*
X158685220Y-90415219D01*
X158748477Y-90220534D01*
X158780500Y-90018352D01*
X158780500Y-89813648D01*
X158771349Y-89755871D01*
X158748477Y-89611465D01*
X158699972Y-89462184D01*
X158685220Y-89416781D01*
X158685218Y-89416778D01*
X158685218Y-89416776D01*
X158638078Y-89324260D01*
X158592287Y-89234390D01*
X158523634Y-89139896D01*
X158471971Y-89068786D01*
X158327213Y-88924028D01*
X158161614Y-88803715D01*
X158133189Y-88789232D01*
X158068917Y-88756483D01*
X158018123Y-88708511D01*
X158001328Y-88640690D01*
X158023865Y-88574555D01*
X158068917Y-88535516D01*
X158161610Y-88488287D01*
X158182770Y-88472913D01*
X158327213Y-88367971D01*
X158327215Y-88367968D01*
X158327219Y-88367966D01*
X158471966Y-88223219D01*
X158471968Y-88223215D01*
X158471971Y-88223213D01*
X158550954Y-88114500D01*
X158592287Y-88057610D01*
X158685220Y-87875219D01*
X158748477Y-87680534D01*
X158780500Y-87478352D01*
X158780500Y-87273648D01*
X158748477Y-87071466D01*
X158748476Y-87071464D01*
X158717007Y-86974612D01*
X158685220Y-86876781D01*
X158685218Y-86876778D01*
X158685218Y-86876776D01*
X158651503Y-86810607D01*
X158592287Y-86694390D01*
X158574767Y-86670276D01*
X158471971Y-86528786D01*
X158327213Y-86384028D01*
X158161614Y-86263715D01*
X158155006Y-86260348D01*
X158068917Y-86216483D01*
X158018123Y-86168511D01*
X158001328Y-86100690D01*
X158023865Y-86034555D01*
X158068917Y-85995516D01*
X158161610Y-85948287D01*
X158211292Y-85912191D01*
X158327213Y-85827971D01*
X158327215Y-85827968D01*
X158327219Y-85827966D01*
X158471966Y-85683219D01*
X158471968Y-85683215D01*
X158471971Y-85683213D01*
X158550954Y-85574500D01*
X158592287Y-85517610D01*
X158685220Y-85335219D01*
X158748477Y-85140534D01*
X158780500Y-84938352D01*
X158780500Y-84733648D01*
X158748477Y-84531466D01*
X158685220Y-84336781D01*
X158685218Y-84336778D01*
X158685218Y-84336776D01*
X158629643Y-84227706D01*
X158592287Y-84154390D01*
X158583623Y-84142465D01*
X158471971Y-83988786D01*
X158327213Y-83844028D01*
X158161613Y-83723715D01*
X158161612Y-83723714D01*
X158161610Y-83723713D01*
X158104653Y-83694691D01*
X157979223Y-83630781D01*
X157784534Y-83567522D01*
X157608503Y-83539642D01*
X157582352Y-83535500D01*
X157377648Y-83535500D01*
X157353329Y-83539351D01*
X157175465Y-83567522D01*
X156980776Y-83630781D01*
X156798386Y-83723715D01*
X156632786Y-83844028D01*
X156488028Y-83988786D01*
X156367715Y-84154386D01*
X156320485Y-84247080D01*
X156272510Y-84297876D01*
X156204689Y-84314671D01*
X156138554Y-84292134D01*
X156099515Y-84247080D01*
X156089643Y-84227706D01*
X156052287Y-84154390D01*
X156043623Y-84142465D01*
X155931971Y-83988786D01*
X155787213Y-83844028D01*
X155621613Y-83723715D01*
X155621612Y-83723714D01*
X155621610Y-83723713D01*
X155564653Y-83694691D01*
X155439223Y-83630781D01*
X155244534Y-83567522D01*
X155068503Y-83539642D01*
X155042352Y-83535500D01*
X154837648Y-83535500D01*
X154813329Y-83539351D01*
X154635465Y-83567522D01*
X154440776Y-83630781D01*
X154258386Y-83723715D01*
X154092786Y-83844028D01*
X153948028Y-83988786D01*
X153827715Y-84154386D01*
X153734781Y-84336776D01*
X153671522Y-84531465D01*
X153639500Y-84733648D01*
X153639500Y-84938351D01*
X153671522Y-85140534D01*
X153734781Y-85335223D01*
X153764835Y-85394205D01*
X153777731Y-85462874D01*
X153751455Y-85527614D01*
X153694349Y-85567872D01*
X153654350Y-85574500D01*
X150429400Y-85574500D01*
X150303732Y-85599497D01*
X150303726Y-85599499D01*
X150185345Y-85648534D01*
X150078797Y-85719726D01*
X148707557Y-87090966D01*
X148646234Y-87124451D01*
X148576542Y-87119467D01*
X148520609Y-87077595D01*
X148509391Y-87059580D01*
X148487770Y-87017147D01*
X148475051Y-86992184D01*
X148438596Y-86942007D01*
X148350109Y-86820213D01*
X148199786Y-86669890D01*
X148023875Y-86542085D01*
X148024851Y-86540740D01*
X147982834Y-86494295D01*
X147970500Y-86440382D01*
X147970500Y-81484499D01*
X147990185Y-81417460D01*
X148042989Y-81371705D01*
X148094500Y-81360499D01*
X148217871Y-81360499D01*
X148217872Y-81360499D01*
X148277483Y-81354091D01*
X148412331Y-81303796D01*
X148527546Y-81217546D01*
X148613796Y-81102331D01*
X148664091Y-80967483D01*
X148670500Y-80907873D01*
X148670499Y-79395499D01*
X148690184Y-79328461D01*
X148742987Y-79282706D01*
X148794499Y-79271500D01*
X150979548Y-79271500D01*
X151046587Y-79291185D01*
X151067229Y-79307819D01*
X151895262Y-80135854D01*
X151895265Y-80135857D01*
X151925560Y-80156099D01*
X151997714Y-80204311D01*
X152111548Y-80251463D01*
X152232388Y-80275499D01*
X152232392Y-80275500D01*
X152232393Y-80275500D01*
X152232394Y-80275500D01*
X153564524Y-80275500D01*
X153631563Y-80295185D01*
X153677318Y-80347989D01*
X153687262Y-80417147D01*
X153682455Y-80437817D01*
X153671524Y-80471457D01*
X153671523Y-80471464D01*
X153639500Y-80673648D01*
X153639500Y-80878351D01*
X153671522Y-81080531D01*
X153734781Y-81275223D01*
X153783942Y-81371705D01*
X153823613Y-81449564D01*
X153827715Y-81457613D01*
X153948028Y-81623213D01*
X154092786Y-81767971D01*
X154178267Y-81830075D01*
X154258390Y-81888287D01*
X154374607Y-81947503D01*
X154440776Y-81981218D01*
X154440778Y-81981218D01*
X154440781Y-81981220D01*
X154545137Y-82015127D01*
X154635465Y-82044477D01*
X154736557Y-82060488D01*
X154837648Y-82076500D01*
X154837649Y-82076500D01*
X155042351Y-82076500D01*
X155042352Y-82076500D01*
X155244534Y-82044477D01*
X155439219Y-81981220D01*
X155621610Y-81888287D01*
X155747298Y-81796970D01*
X155787213Y-81767971D01*
X155787215Y-81767968D01*
X155787219Y-81767966D01*
X155931966Y-81623219D01*
X155931968Y-81623215D01*
X155931971Y-81623213D01*
X156052284Y-81457614D01*
X156052285Y-81457613D01*
X156052287Y-81457610D01*
X156099516Y-81364917D01*
X156147489Y-81314123D01*
X156215310Y-81297328D01*
X156281445Y-81319865D01*
X156320483Y-81364917D01*
X156342278Y-81407691D01*
X156367715Y-81457614D01*
X156488028Y-81623213D01*
X156632786Y-81767971D01*
X156718267Y-81830075D01*
X156798390Y-81888287D01*
X156914607Y-81947503D01*
X156980776Y-81981218D01*
X156980778Y-81981218D01*
X156980781Y-81981220D01*
X157085137Y-82015127D01*
X157175465Y-82044477D01*
X157276557Y-82060488D01*
X157377648Y-82076500D01*
X157377649Y-82076500D01*
X157582351Y-82076500D01*
X157582352Y-82076500D01*
X157784534Y-82044477D01*
X157979219Y-81981220D01*
X158161610Y-81888287D01*
X158287298Y-81796970D01*
X158327213Y-81767971D01*
X158327215Y-81767968D01*
X158327219Y-81767966D01*
X158471966Y-81623219D01*
X158471968Y-81623215D01*
X158471971Y-81623213D01*
X158572751Y-81484499D01*
X158592287Y-81457610D01*
X158685220Y-81275219D01*
X158748477Y-81080534D01*
X158748476Y-81080534D01*
X158748478Y-81080531D01*
X158780500Y-80878351D01*
X158780500Y-80673648D01*
X158748477Y-80471465D01*
X158691200Y-80295185D01*
X158685220Y-80276781D01*
X158685218Y-80276778D01*
X158685218Y-80276776D01*
X158623729Y-80156099D01*
X158592287Y-80094390D01*
X158569486Y-80063007D01*
X158471971Y-79928786D01*
X158327213Y-79784028D01*
X158161614Y-79663715D01*
X158141856Y-79653648D01*
X158068917Y-79616483D01*
X158018123Y-79568511D01*
X158001328Y-79500690D01*
X158023865Y-79434555D01*
X158068917Y-79395516D01*
X158161610Y-79348287D01*
X158217310Y-79307819D01*
X158327213Y-79227971D01*
X158327215Y-79227968D01*
X158327219Y-79227966D01*
X158471966Y-79083219D01*
X158471968Y-79083215D01*
X158471971Y-79083213D01*
X158528929Y-79004815D01*
X158592287Y-78917610D01*
X158685220Y-78735219D01*
X158748477Y-78540534D01*
X158748476Y-78540534D01*
X158748478Y-78540531D01*
X158773076Y-78385220D01*
X158780500Y-78338352D01*
X158780500Y-78133648D01*
X158769344Y-78063213D01*
X158748477Y-77931465D01*
X158701289Y-77786237D01*
X158685220Y-77736781D01*
X158685218Y-77736778D01*
X158685218Y-77736776D01*
X158648295Y-77664311D01*
X158592287Y-77554390D01*
X158584556Y-77543749D01*
X158471971Y-77388786D01*
X158327213Y-77244028D01*
X158161614Y-77123715D01*
X158141856Y-77113648D01*
X158068917Y-77076483D01*
X158018123Y-77028511D01*
X158001328Y-76960690D01*
X158023865Y-76894555D01*
X158068917Y-76855516D01*
X158161610Y-76808287D01*
X158203176Y-76778088D01*
X158327213Y-76687971D01*
X158327215Y-76687968D01*
X158327219Y-76687966D01*
X158471966Y-76543219D01*
X158471968Y-76543215D01*
X158471971Y-76543213D01*
X158534808Y-76456724D01*
X158592287Y-76377610D01*
X158685220Y-76195219D01*
X158748477Y-76000534D01*
X158748476Y-76000534D01*
X158748478Y-76000531D01*
X158780500Y-75798351D01*
X158780500Y-75593648D01*
X158748477Y-75391465D01*
X158685218Y-75196776D01*
X158642251Y-75112450D01*
X158592287Y-75014390D01*
X158584556Y-75003749D01*
X158471971Y-74848786D01*
X158327213Y-74704028D01*
X158161614Y-74583715D01*
X158141856Y-74573648D01*
X158068917Y-74536483D01*
X158018123Y-74488511D01*
X158001328Y-74420690D01*
X158023865Y-74354555D01*
X158068917Y-74315516D01*
X158161610Y-74268287D01*
X158225073Y-74222179D01*
X158327213Y-74147971D01*
X158327215Y-74147968D01*
X158327219Y-74147966D01*
X158471966Y-74003219D01*
X158471968Y-74003215D01*
X158471971Y-74003213D01*
X158528929Y-73924815D01*
X158592287Y-73837610D01*
X158685220Y-73655219D01*
X158748477Y-73460534D01*
X158748476Y-73460534D01*
X158748478Y-73460531D01*
X158780500Y-73258351D01*
X158780500Y-73053648D01*
X158748477Y-72851465D01*
X158701289Y-72706237D01*
X158685220Y-72656781D01*
X158685218Y-72656778D01*
X158685218Y-72656776D01*
X158648295Y-72584311D01*
X158592287Y-72474390D01*
X158584556Y-72463749D01*
X158471971Y-72308786D01*
X158327213Y-72164028D01*
X158161614Y-72043715D01*
X158141856Y-72033648D01*
X158068917Y-71996483D01*
X158018123Y-71948511D01*
X158001328Y-71880690D01*
X158023865Y-71814555D01*
X158068917Y-71775516D01*
X158161610Y-71728287D01*
X158225073Y-71682179D01*
X158327213Y-71607971D01*
X158327215Y-71607968D01*
X158327219Y-71607966D01*
X158471966Y-71463219D01*
X158471968Y-71463215D01*
X158471971Y-71463213D01*
X158528929Y-71384815D01*
X158592287Y-71297610D01*
X158685220Y-71115219D01*
X158748477Y-70920534D01*
X158748476Y-70920534D01*
X158748478Y-70920531D01*
X158780500Y-70718351D01*
X158780500Y-70513648D01*
X158748477Y-70311465D01*
X158701289Y-70166237D01*
X158685220Y-70116781D01*
X158685218Y-70116778D01*
X158685218Y-70116776D01*
X158648295Y-70044311D01*
X158592287Y-69934390D01*
X158584556Y-69923749D01*
X158471971Y-69768786D01*
X158327213Y-69624028D01*
X158161614Y-69503715D01*
X158141856Y-69493648D01*
X158068917Y-69456483D01*
X158018123Y-69408511D01*
X158001328Y-69340690D01*
X158023865Y-69274555D01*
X158068917Y-69235516D01*
X158161610Y-69188287D01*
X158225073Y-69142179D01*
X158327213Y-69067971D01*
X158327215Y-69067968D01*
X158327219Y-69067966D01*
X158471966Y-68923219D01*
X158471968Y-68923215D01*
X158471971Y-68923213D01*
X158528929Y-68844815D01*
X158592287Y-68757610D01*
X158685220Y-68575219D01*
X158748477Y-68380534D01*
X158780500Y-68178352D01*
X158780500Y-67973648D01*
X158769448Y-67903870D01*
X158748477Y-67771465D01*
X158685218Y-67576776D01*
X158648295Y-67504311D01*
X158592287Y-67394390D01*
X158584556Y-67383749D01*
X158471971Y-67228786D01*
X158327213Y-67084028D01*
X158161611Y-66963713D01*
X158068369Y-66916203D01*
X158017574Y-66868229D01*
X158000779Y-66800407D01*
X158023317Y-66734273D01*
X158068371Y-66695234D01*
X158161347Y-66647861D01*
X158326894Y-66527582D01*
X158326895Y-66527582D01*
X158471582Y-66382895D01*
X158471582Y-66382894D01*
X158591859Y-66217349D01*
X158684755Y-66035029D01*
X158747990Y-65840413D01*
X158756609Y-65786000D01*
X157913012Y-65786000D01*
X157945925Y-65728993D01*
X157980000Y-65601826D01*
X157980000Y-65470174D01*
X157945925Y-65343007D01*
X157913012Y-65286000D01*
X158756609Y-65286000D01*
X158747990Y-65231586D01*
X158684755Y-65036970D01*
X158591859Y-64854650D01*
X158471582Y-64689105D01*
X158471582Y-64689104D01*
X158326895Y-64544417D01*
X158161349Y-64424140D01*
X158068370Y-64376765D01*
X158017574Y-64328790D01*
X158000779Y-64260969D01*
X158023316Y-64194835D01*
X158068370Y-64155795D01*
X158068920Y-64155515D01*
X158161610Y-64108287D01*
X158225073Y-64062179D01*
X158327213Y-63987971D01*
X158327215Y-63987968D01*
X158327219Y-63987966D01*
X158471966Y-63843219D01*
X158471968Y-63843215D01*
X158471971Y-63843213D01*
X158547038Y-63739890D01*
X158592287Y-63677610D01*
X158685220Y-63495219D01*
X158748477Y-63300534D01*
X158780500Y-63098352D01*
X158780500Y-62893648D01*
X158748477Y-62691466D01*
X158685220Y-62496781D01*
X158685218Y-62496778D01*
X158685218Y-62496776D01*
X158639515Y-62407080D01*
X158592287Y-62314390D01*
X158582955Y-62301545D01*
X158471971Y-62148786D01*
X158327213Y-62004028D01*
X158161614Y-61883715D01*
X158155006Y-61880348D01*
X158068917Y-61836483D01*
X158018123Y-61788511D01*
X158001328Y-61720690D01*
X158023865Y-61654555D01*
X158068917Y-61615516D01*
X158161610Y-61568287D01*
X158200738Y-61539859D01*
X158327213Y-61447971D01*
X158327215Y-61447968D01*
X158327219Y-61447966D01*
X158471966Y-61303219D01*
X158471968Y-61303215D01*
X158471971Y-61303213D01*
X158557233Y-61185858D01*
X158592287Y-61137610D01*
X158685220Y-60955219D01*
X158748477Y-60760534D01*
X158780500Y-60558352D01*
X158780500Y-60353648D01*
X158748477Y-60151466D01*
X158747617Y-60148820D01*
X158701290Y-60006239D01*
X158685220Y-59956781D01*
X158685218Y-59956778D01*
X158685218Y-59956776D01*
X158651503Y-59890607D01*
X158592287Y-59774390D01*
X158579826Y-59757239D01*
X158471971Y-59608786D01*
X158327213Y-59464028D01*
X158161614Y-59343715D01*
X158155006Y-59340348D01*
X158068917Y-59296483D01*
X158018123Y-59248511D01*
X158001328Y-59180690D01*
X158023865Y-59114555D01*
X158068917Y-59075516D01*
X158161610Y-59028287D01*
X158236157Y-58974126D01*
X158327213Y-58907971D01*
X158327215Y-58907968D01*
X158327219Y-58907966D01*
X158471966Y-58763219D01*
X158471968Y-58763215D01*
X158471971Y-58763213D01*
X158547038Y-58659890D01*
X158592287Y-58597610D01*
X158685220Y-58415219D01*
X158748477Y-58220534D01*
X158780500Y-58018352D01*
X158780500Y-57813648D01*
X158757497Y-57668412D01*
X158748477Y-57611465D01*
X158701253Y-57466126D01*
X158685220Y-57416781D01*
X158685218Y-57416778D01*
X158685218Y-57416776D01*
X158647623Y-57342993D01*
X158592287Y-57234390D01*
X158578800Y-57215826D01*
X158471971Y-57068786D01*
X158327213Y-56924028D01*
X158161613Y-56803715D01*
X158161612Y-56803714D01*
X158161610Y-56803713D01*
X158104653Y-56774691D01*
X157979223Y-56710781D01*
X157784534Y-56647522D01*
X157609995Y-56619878D01*
X157582352Y-56615500D01*
X157377648Y-56615500D01*
X157353329Y-56619351D01*
X157175465Y-56647522D01*
X156980776Y-56710781D01*
X156798384Y-56803715D01*
X156795287Y-56805614D01*
X156727841Y-56823856D01*
X156661239Y-56802739D01*
X156616627Y-56748966D01*
X156606500Y-56699885D01*
X156606500Y-55053928D01*
X156581502Y-54928261D01*
X156581501Y-54928260D01*
X156581501Y-54928256D01*
X156532465Y-54809873D01*
X156494130Y-54752500D01*
X156494130Y-54752499D01*
X156461275Y-54703328D01*
X155354673Y-53596726D01*
X155354669Y-53596723D01*
X155248127Y-53525535D01*
X155129744Y-53476499D01*
X155129738Y-53476497D01*
X155004071Y-53451500D01*
X155004069Y-53451500D01*
X112193931Y-53451500D01*
X112193929Y-53451500D01*
X112068261Y-53476497D01*
X112068255Y-53476499D01*
X111949874Y-53525534D01*
X111843326Y-53596726D01*
X109681871Y-55758181D01*
X109620548Y-55791666D01*
X109594190Y-55794500D01*
X108317129Y-55794500D01*
X108317123Y-55794501D01*
X108257516Y-55800908D01*
X108122671Y-55851202D01*
X108122664Y-55851206D01*
X108007455Y-55937452D01*
X108007452Y-55937455D01*
X107921206Y-56052664D01*
X107921202Y-56052671D01*
X107870908Y-56187517D01*
X107864501Y-56247116D01*
X107864500Y-56247135D01*
X107864500Y-58042870D01*
X107864501Y-58042876D01*
X107870908Y-58102483D01*
X107921202Y-58237328D01*
X107921206Y-58237335D01*
X108007452Y-58352544D01*
X108007455Y-58352547D01*
X108122664Y-58438793D01*
X108122671Y-58438797D01*
X108254082Y-58487810D01*
X108310016Y-58529681D01*
X108334433Y-58595145D01*
X108319582Y-58663418D01*
X108298431Y-58691673D01*
X108184889Y-58805215D01*
X108059951Y-58977179D01*
X107963444Y-59166585D01*
X107963443Y-59166587D01*
X107963443Y-59166588D01*
X107936824Y-59248511D01*
X107897753Y-59368760D01*
X107864500Y-59578713D01*
X107864500Y-59791286D01*
X107891128Y-59959412D01*
X107897754Y-60001243D01*
X107946564Y-60151465D01*
X107963444Y-60203414D01*
X108059951Y-60392820D01*
X108184890Y-60564786D01*
X108335213Y-60715109D01*
X108507179Y-60840048D01*
X108507181Y-60840049D01*
X108507184Y-60840051D01*
X108696588Y-60936557D01*
X108898757Y-61002246D01*
X109108713Y-61035500D01*
X109108714Y-61035500D01*
X109321286Y-61035500D01*
X109321287Y-61035500D01*
X109431111Y-61018105D01*
X109536055Y-61001484D01*
X109536315Y-61003128D01*
X109598852Y-61006250D01*
X109645711Y-61035657D01*
X110565181Y-61955127D01*
X110598666Y-62016450D01*
X110601500Y-62042808D01*
X110601500Y-65825061D01*
X110581815Y-65892100D01*
X110529011Y-65937855D01*
X110459853Y-65947799D01*
X110396297Y-65918774D01*
X110378236Y-65899376D01*
X110377546Y-65898454D01*
X110377544Y-65898453D01*
X110377544Y-65898452D01*
X110262335Y-65812206D01*
X110262328Y-65812202D01*
X110127482Y-65761908D01*
X110127483Y-65761908D01*
X110067883Y-65755501D01*
X110067881Y-65755500D01*
X110067873Y-65755500D01*
X110067864Y-65755500D01*
X108372129Y-65755500D01*
X108372123Y-65755501D01*
X108312516Y-65761908D01*
X108177671Y-65812202D01*
X108177664Y-65812206D01*
X108062455Y-65898452D01*
X108062452Y-65898455D01*
X107976206Y-66013664D01*
X107976202Y-66013671D01*
X107925908Y-66148517D01*
X107919501Y-66208116D01*
X107919500Y-66208135D01*
X107919500Y-67903870D01*
X107919501Y-67903876D01*
X107925908Y-67963483D01*
X107976202Y-68098328D01*
X107976206Y-68098335D01*
X108062452Y-68213544D01*
X108062455Y-68213547D01*
X108177664Y-68299793D01*
X108177671Y-68299797D01*
X108222618Y-68316561D01*
X108312517Y-68350091D01*
X108349441Y-68354060D01*
X108413989Y-68380796D01*
X108453838Y-68438188D01*
X108456333Y-68508013D01*
X108420681Y-68568102D01*
X108409071Y-68577666D01*
X108372784Y-68604030D01*
X108228028Y-68748786D01*
X108107715Y-68914386D01*
X108014781Y-69096776D01*
X107951522Y-69291465D01*
X107919500Y-69493648D01*
X107919500Y-69698351D01*
X107951522Y-69900534D01*
X108014781Y-70095223D01*
X108062772Y-70189408D01*
X108101668Y-70265747D01*
X108107715Y-70277613D01*
X108228028Y-70443213D01*
X108372786Y-70587971D01*
X108527749Y-70700556D01*
X108538390Y-70708287D01*
X108629840Y-70754883D01*
X108631080Y-70755515D01*
X108681876Y-70803490D01*
X108698671Y-70871311D01*
X108676134Y-70937446D01*
X108631080Y-70976485D01*
X108538386Y-71023715D01*
X108372786Y-71144028D01*
X108228028Y-71288786D01*
X108107715Y-71454386D01*
X108014781Y-71636776D01*
X107951522Y-71831465D01*
X107919500Y-72033648D01*
X107919500Y-72238351D01*
X107951522Y-72440534D01*
X108014781Y-72635223D01*
X108062772Y-72729408D01*
X108101668Y-72805747D01*
X108107715Y-72817613D01*
X108228028Y-72983213D01*
X108372786Y-73127971D01*
X108527749Y-73240556D01*
X108538390Y-73248287D01*
X108629840Y-73294883D01*
X108631080Y-73295515D01*
X108681876Y-73343490D01*
X108698671Y-73411311D01*
X108676134Y-73477446D01*
X108631080Y-73516485D01*
X108538386Y-73563715D01*
X108372786Y-73684028D01*
X108228028Y-73828786D01*
X108107715Y-73994386D01*
X108014781Y-74176776D01*
X107951522Y-74371465D01*
X107919500Y-74573648D01*
X107919500Y-74778351D01*
X107951522Y-74980534D01*
X108014781Y-75175223D01*
X108062772Y-75269408D01*
X108094446Y-75331573D01*
X108107715Y-75357613D01*
X108228028Y-75523213D01*
X108372786Y-75667971D01*
X108527749Y-75780556D01*
X108538390Y-75788287D01*
X108619159Y-75829441D01*
X108631080Y-75835515D01*
X108681876Y-75883490D01*
X108698671Y-75951311D01*
X108676134Y-76017446D01*
X108631080Y-76056485D01*
X108538386Y-76103715D01*
X108372786Y-76224028D01*
X108228028Y-76368786D01*
X108107715Y-76534386D01*
X108014781Y-76716776D01*
X107951522Y-76911465D01*
X107919500Y-77113648D01*
X107919500Y-77318351D01*
X107951522Y-77520534D01*
X108014781Y-77715223D01*
X108062772Y-77809408D01*
X108094446Y-77871573D01*
X108107715Y-77897613D01*
X108228028Y-78063213D01*
X108372786Y-78207971D01*
X108527749Y-78320556D01*
X108538390Y-78328287D01*
X108610424Y-78364990D01*
X108631629Y-78375795D01*
X108682425Y-78423770D01*
X108699220Y-78491591D01*
X108676682Y-78557726D01*
X108631629Y-78596765D01*
X108538650Y-78644140D01*
X108373105Y-78764417D01*
X108373104Y-78764417D01*
X108228417Y-78909104D01*
X108228417Y-78909105D01*
X108108140Y-79074650D01*
X108015244Y-79256970D01*
X107952009Y-79451586D01*
X107943391Y-79506000D01*
X108786988Y-79506000D01*
X108754075Y-79563007D01*
X108720000Y-79690174D01*
X108720000Y-79821826D01*
X108754075Y-79948993D01*
X108786988Y-80006000D01*
X107943391Y-80006000D01*
X107952009Y-80060413D01*
X108015244Y-80255029D01*
X108108140Y-80437349D01*
X108228417Y-80602894D01*
X108228417Y-80602895D01*
X108373104Y-80747582D01*
X108538650Y-80867859D01*
X108632179Y-80915515D01*
X108682975Y-80963490D01*
X108699770Y-81031311D01*
X108677232Y-81097446D01*
X108632179Y-81136485D01*
X108538650Y-81184140D01*
X108373105Y-81304417D01*
X108373104Y-81304417D01*
X108228417Y-81449104D01*
X108228417Y-81449105D01*
X108108140Y-81614650D01*
X108015244Y-81796970D01*
X107952009Y-81991586D01*
X107943391Y-82046000D01*
X108786988Y-82046000D01*
X108754075Y-82103007D01*
X108720000Y-82230174D01*
X108720000Y-82361826D01*
X108754075Y-82488993D01*
X108786988Y-82546000D01*
X107943391Y-82546000D01*
X107952009Y-82600413D01*
X108015244Y-82795029D01*
X108108140Y-82977349D01*
X108228417Y-83142894D01*
X108228417Y-83142895D01*
X108373104Y-83287582D01*
X108538652Y-83407861D01*
X108631628Y-83455234D01*
X108682425Y-83503208D01*
X108699220Y-83571029D01*
X108676683Y-83637164D01*
X108631630Y-83676203D01*
X108538388Y-83723713D01*
X108372786Y-83844028D01*
X108228028Y-83988786D01*
X108107715Y-84154386D01*
X108014781Y-84336776D01*
X107951522Y-84531465D01*
X107919500Y-84733648D01*
X107919500Y-84938351D01*
X107951522Y-85140534D01*
X108014781Y-85335223D01*
X108107715Y-85517613D01*
X108228028Y-85683213D01*
X108372786Y-85827971D01*
X108527749Y-85940556D01*
X108538390Y-85948287D01*
X108631080Y-85995515D01*
X108720776Y-86041218D01*
X108720778Y-86041218D01*
X108720781Y-86041220D01*
X108825137Y-86075127D01*
X108915465Y-86104477D01*
X108934697Y-86107523D01*
X109117648Y-86136500D01*
X109117649Y-86136500D01*
X109322351Y-86136500D01*
X109322352Y-86136500D01*
X109524534Y-86104477D01*
X109719219Y-86041220D01*
X109901610Y-85948287D01*
X109994590Y-85880732D01*
X110067213Y-85827971D01*
X110067215Y-85827968D01*
X110067219Y-85827966D01*
X110211966Y-85683219D01*
X110211968Y-85683215D01*
X110211971Y-85683213D01*
X110332284Y-85517614D01*
X110332285Y-85517613D01*
X110332287Y-85517610D01*
X110379516Y-85424917D01*
X110427489Y-85374123D01*
X110495310Y-85357328D01*
X110561445Y-85379865D01*
X110600485Y-85424919D01*
X110647715Y-85517614D01*
X110768028Y-85683213D01*
X110912786Y-85827971D01*
X111067749Y-85940556D01*
X111078390Y-85948287D01*
X111171080Y-85995515D01*
X111260776Y-86041218D01*
X111260778Y-86041218D01*
X111260781Y-86041220D01*
X111365137Y-86075127D01*
X111455465Y-86104477D01*
X111474697Y-86107523D01*
X111657648Y-86136500D01*
X111657649Y-86136500D01*
X111862351Y-86136500D01*
X111862352Y-86136500D01*
X112064534Y-86104477D01*
X112259219Y-86041220D01*
X112441610Y-85948287D01*
X112534590Y-85880732D01*
X112607213Y-85827971D01*
X112607215Y-85827968D01*
X112607219Y-85827966D01*
X112675819Y-85759366D01*
X112737142Y-85725881D01*
X112806834Y-85730865D01*
X112862767Y-85772737D01*
X112887184Y-85838201D01*
X112887500Y-85847047D01*
X112887500Y-88904953D01*
X112867815Y-88971992D01*
X112815011Y-89017747D01*
X112745853Y-89027691D01*
X112682297Y-88998666D01*
X112675819Y-88992634D01*
X112607213Y-88924028D01*
X112441613Y-88803715D01*
X112441612Y-88803714D01*
X112441610Y-88803713D01*
X112384653Y-88774691D01*
X112259223Y-88710781D01*
X112064534Y-88647522D01*
X111889995Y-88619878D01*
X111862352Y-88615500D01*
X111657648Y-88615500D01*
X111633329Y-88619351D01*
X111455465Y-88647522D01*
X111260776Y-88710781D01*
X111078386Y-88803715D01*
X110912786Y-88924028D01*
X110768028Y-89068786D01*
X110647715Y-89234386D01*
X110600485Y-89327080D01*
X110552510Y-89377876D01*
X110484689Y-89394671D01*
X110418554Y-89372134D01*
X110379515Y-89327080D01*
X110378078Y-89324260D01*
X110332287Y-89234390D01*
X110263634Y-89139896D01*
X110211971Y-89068786D01*
X110067213Y-88924028D01*
X109901613Y-88803715D01*
X109901612Y-88803714D01*
X109901610Y-88803713D01*
X109844653Y-88774691D01*
X109719223Y-88710781D01*
X109524534Y-88647522D01*
X109349995Y-88619878D01*
X109322352Y-88615500D01*
X109117648Y-88615500D01*
X109093329Y-88619351D01*
X108915465Y-88647522D01*
X108720776Y-88710781D01*
X108538386Y-88803715D01*
X108372786Y-88924028D01*
X108228028Y-89068786D01*
X108107715Y-89234386D01*
X108014781Y-89416776D01*
X107951522Y-89611465D01*
X107919500Y-89813648D01*
X107919500Y-90018351D01*
X107951522Y-90220534D01*
X108014781Y-90415223D01*
X108078691Y-90540653D01*
X108086635Y-90556243D01*
X108107715Y-90597613D01*
X108228028Y-90763213D01*
X108372786Y-90907971D01*
X108527749Y-91020556D01*
X108538390Y-91028287D01*
X108629840Y-91074883D01*
X108631080Y-91075515D01*
X108681876Y-91123490D01*
X108698671Y-91191311D01*
X108676134Y-91257446D01*
X108631080Y-91296485D01*
X108538386Y-91343715D01*
X108372786Y-91464028D01*
X108228028Y-91608786D01*
X108107715Y-91774386D01*
X108014781Y-91956776D01*
X107951522Y-92151465D01*
X107919500Y-92353648D01*
X107919500Y-92558351D01*
X107951522Y-92760534D01*
X108014781Y-92955223D01*
X108078691Y-93080653D01*
X108086635Y-93096243D01*
X108107715Y-93137613D01*
X108228028Y-93303213D01*
X108372786Y-93447971D01*
X108527749Y-93560556D01*
X108538390Y-93568287D01*
X108629840Y-93614883D01*
X108631080Y-93615515D01*
X108681876Y-93663490D01*
X108698671Y-93731311D01*
X108676134Y-93797446D01*
X108631080Y-93836485D01*
X108538386Y-93883715D01*
X108372786Y-94004028D01*
X108228028Y-94148786D01*
X108107715Y-94314386D01*
X108014781Y-94496776D01*
X107951522Y-94691465D01*
X107919500Y-94893648D01*
X107919500Y-95098351D01*
X107951522Y-95300534D01*
X108014781Y-95495223D01*
X108078691Y-95620653D01*
X108086635Y-95636243D01*
X108107715Y-95677613D01*
X108228028Y-95843213D01*
X108372786Y-95987971D01*
X108527749Y-96100556D01*
X108538390Y-96108287D01*
X108629840Y-96154883D01*
X108631080Y-96155515D01*
X108681876Y-96203490D01*
X108698671Y-96271311D01*
X108676134Y-96337446D01*
X108631080Y-96376485D01*
X108538386Y-96423715D01*
X108372786Y-96544028D01*
X108228028Y-96688786D01*
X108107715Y-96854386D01*
X108014781Y-97036776D01*
X107951522Y-97231465D01*
X107919500Y-97433648D01*
X107919500Y-97638351D01*
X107951522Y-97840534D01*
X108014781Y-98035223D01*
X108078691Y-98160653D01*
X108086635Y-98176243D01*
X108107715Y-98217613D01*
X108228028Y-98383213D01*
X108372786Y-98527971D01*
X108527749Y-98640556D01*
X108538390Y-98648287D01*
X108629840Y-98694883D01*
X108631080Y-98695515D01*
X108681876Y-98743490D01*
X108698671Y-98811311D01*
X108676134Y-98877446D01*
X108631080Y-98916485D01*
X108538386Y-98963715D01*
X108372786Y-99084028D01*
X108228028Y-99228786D01*
X108107715Y-99394386D01*
X108014781Y-99576776D01*
X107951522Y-99771465D01*
X107919500Y-99973648D01*
X107919500Y-100178351D01*
X107951522Y-100380534D01*
X108014781Y-100575223D01*
X108075141Y-100693684D01*
X108086635Y-100716243D01*
X108107715Y-100757613D01*
X108228028Y-100923213D01*
X108372786Y-101067971D01*
X108527749Y-101180556D01*
X108538390Y-101188287D01*
X108629840Y-101234883D01*
X108631080Y-101235515D01*
X108681876Y-101283490D01*
X108698671Y-101351311D01*
X108676134Y-101417446D01*
X108631080Y-101456485D01*
X108538386Y-101503715D01*
X108372786Y-101624028D01*
X108228028Y-101768786D01*
X108107715Y-101934386D01*
X108014781Y-102116776D01*
X107951522Y-102311465D01*
X107919500Y-102513648D01*
X107919500Y-102718351D01*
X107951522Y-102920534D01*
X108014781Y-103115223D01*
X108078691Y-103240653D01*
X108086635Y-103256243D01*
X108107715Y-103297613D01*
X108228028Y-103463213D01*
X108372786Y-103607971D01*
X108527749Y-103720556D01*
X108538390Y-103728287D01*
X108654607Y-103787503D01*
X108720776Y-103821218D01*
X108720778Y-103821218D01*
X108720781Y-103821220D01*
X108825137Y-103855127D01*
X108915465Y-103884477D01*
X109014129Y-103900104D01*
X109117648Y-103916500D01*
X109117649Y-103916500D01*
X109322351Y-103916500D01*
X109322352Y-103916500D01*
X109524534Y-103884477D01*
X109719219Y-103821220D01*
X109901610Y-103728287D01*
X110012436Y-103647768D01*
X110067213Y-103607971D01*
X110067215Y-103607968D01*
X110067219Y-103607966D01*
X110211966Y-103463219D01*
X110211968Y-103463215D01*
X110211971Y-103463213D01*
X110332284Y-103297614D01*
X110332285Y-103297613D01*
X110332287Y-103297610D01*
X110379516Y-103204917D01*
X110427489Y-103154123D01*
X110495310Y-103137328D01*
X110561445Y-103159865D01*
X110600483Y-103204917D01*
X110629428Y-103261723D01*
X110647715Y-103297614D01*
X110768028Y-103463213D01*
X110912786Y-103607971D01*
X111067749Y-103720556D01*
X111078390Y-103728287D01*
X111194607Y-103787503D01*
X111260776Y-103821218D01*
X111260778Y-103821218D01*
X111260781Y-103821220D01*
X111365137Y-103855127D01*
X111455465Y-103884477D01*
X111554129Y-103900104D01*
X111657648Y-103916500D01*
X111657649Y-103916500D01*
X111862351Y-103916500D01*
X111862352Y-103916500D01*
X112064534Y-103884477D01*
X112259219Y-103821220D01*
X112274453Y-103813457D01*
X112343121Y-103800561D01*
X112407862Y-103826836D01*
X112448120Y-103883941D01*
X112451114Y-103953747D01*
X112418430Y-104011623D01*
X109910725Y-106519327D01*
X109910722Y-106519331D01*
X109897319Y-106539391D01*
X109843707Y-106584196D01*
X109794217Y-106594500D01*
X108317129Y-106594500D01*
X108317123Y-106594501D01*
X108257516Y-106600908D01*
X108122671Y-106651202D01*
X108122664Y-106651206D01*
X108007455Y-106737452D01*
X108007452Y-106737455D01*
X107921206Y-106852664D01*
X107921202Y-106852671D01*
X107870908Y-106987517D01*
X107864501Y-107047116D01*
X107864500Y-107047135D01*
X107864500Y-108324191D01*
X107844815Y-108391230D01*
X107828181Y-108411872D01*
X106682724Y-109557329D01*
X106647389Y-109610213D01*
X106624367Y-109644669D01*
X106622149Y-109647989D01*
X106611533Y-109663875D01*
X106562499Y-109782255D01*
X106562497Y-109782261D01*
X106537500Y-109907928D01*
X106537500Y-109907931D01*
X106537500Y-112586069D01*
X106537500Y-112586071D01*
X106537499Y-112586071D01*
X106560666Y-112702531D01*
X106562498Y-112711741D01*
X106562499Y-112711744D01*
X106590948Y-112780427D01*
X106611535Y-112830127D01*
X106649870Y-112887500D01*
X106682726Y-112936673D01*
X109821326Y-116075273D01*
X109821329Y-116075275D01*
X109821331Y-116075277D01*
X109927873Y-116146465D01*
X110046256Y-116195501D01*
X110046260Y-116195501D01*
X110046261Y-116195502D01*
X110171928Y-116220500D01*
X110171931Y-116220500D01*
X151448071Y-116220500D01*
X151532615Y-116203682D01*
X151573744Y-116195501D01*
X151692127Y-116146465D01*
X151798669Y-116075277D01*
X153587319Y-114286627D01*
X153648642Y-114253142D01*
X153718334Y-114258126D01*
X153762681Y-114286627D01*
X156821324Y-117345271D01*
X156821331Y-117345277D01*
X156927871Y-117416464D01*
X156927870Y-117416464D01*
X156962544Y-117430826D01*
X157046256Y-117465501D01*
X157046260Y-117465501D01*
X157046261Y-117465502D01*
X157171928Y-117490500D01*
X157171931Y-117490500D01*
X167319192Y-117490500D01*
X167386231Y-117510185D01*
X167406873Y-117526819D01*
X170901681Y-121021627D01*
X170935166Y-121082950D01*
X170938000Y-121109308D01*
X170938000Y-121994988D01*
X170880993Y-121962075D01*
X170753826Y-121928000D01*
X170622174Y-121928000D01*
X170495007Y-121962075D01*
X170438000Y-121994988D01*
X170438000Y-121100768D01*
X170437999Y-121100768D01*
X170371875Y-121111241D01*
X170169784Y-121176903D01*
X169980442Y-121273379D01*
X169808540Y-121398272D01*
X169808535Y-121398276D01*
X169658276Y-121548535D01*
X169658272Y-121548540D01*
X169533378Y-121720443D01*
X169528762Y-121729502D01*
X169480784Y-121780295D01*
X169412963Y-121797087D01*
X169346829Y-121774546D01*
X169307794Y-121729493D01*
X169303051Y-121720184D01*
X169303049Y-121720181D01*
X169303048Y-121720179D01*
X169178109Y-121548213D01*
X169027786Y-121397890D01*
X168855820Y-121272951D01*
X168666414Y-121176444D01*
X168666413Y-121176443D01*
X168666412Y-121176443D01*
X168464243Y-121110754D01*
X168464241Y-121110753D01*
X168464240Y-121110753D01*
X168302957Y-121085208D01*
X168254287Y-121077500D01*
X168041713Y-121077500D01*
X167993042Y-121085208D01*
X167831760Y-121110753D01*
X167629585Y-121176444D01*
X167440179Y-121272951D01*
X167268213Y-121397890D01*
X167117890Y-121548213D01*
X166992949Y-121720182D01*
X166988484Y-121728946D01*
X166940509Y-121779742D01*
X166872688Y-121796536D01*
X166806553Y-121773998D01*
X166767516Y-121728946D01*
X166763050Y-121720182D01*
X166638109Y-121548213D01*
X166487786Y-121397890D01*
X166315820Y-121272951D01*
X166126414Y-121176444D01*
X166126413Y-121176443D01*
X166126412Y-121176443D01*
X165924243Y-121110754D01*
X165924241Y-121110753D01*
X165924240Y-121110753D01*
X165762957Y-121085208D01*
X165714287Y-121077500D01*
X165501713Y-121077500D01*
X165453042Y-121085208D01*
X165291760Y-121110753D01*
X165089585Y-121176444D01*
X164900179Y-121272951D01*
X164728213Y-121397890D01*
X164577890Y-121548213D01*
X164452949Y-121720182D01*
X164448484Y-121728946D01*
X164400509Y-121779742D01*
X164332688Y-121796536D01*
X164266553Y-121773998D01*
X164227516Y-121728946D01*
X164223050Y-121720182D01*
X164098109Y-121548213D01*
X163947786Y-121397890D01*
X163775820Y-121272951D01*
X163586414Y-121176444D01*
X163586413Y-121176443D01*
X163586412Y-121176443D01*
X163384243Y-121110754D01*
X163384241Y-121110753D01*
X163384240Y-121110753D01*
X163222957Y-121085208D01*
X163174287Y-121077500D01*
X162961713Y-121077500D01*
X162913042Y-121085208D01*
X162751760Y-121110753D01*
X162549585Y-121176444D01*
X162360179Y-121272951D01*
X162188213Y-121397890D01*
X162037890Y-121548213D01*
X161912949Y-121720182D01*
X161908484Y-121728946D01*
X161860509Y-121779742D01*
X161792688Y-121796536D01*
X161726553Y-121773998D01*
X161687516Y-121728946D01*
X161683050Y-121720182D01*
X161558109Y-121548213D01*
X161407786Y-121397890D01*
X161235820Y-121272951D01*
X161046414Y-121176444D01*
X161046413Y-121176443D01*
X161046412Y-121176443D01*
X160844243Y-121110754D01*
X160844241Y-121110753D01*
X160844240Y-121110753D01*
X160682957Y-121085208D01*
X160634287Y-121077500D01*
X160421713Y-121077500D01*
X160373042Y-121085208D01*
X160211760Y-121110753D01*
X160009585Y-121176444D01*
X159820179Y-121272951D01*
X159648213Y-121397890D01*
X159497890Y-121548213D01*
X159372949Y-121720182D01*
X159368484Y-121728946D01*
X159320509Y-121779742D01*
X159252688Y-121796536D01*
X159186553Y-121773998D01*
X159147516Y-121728946D01*
X159143050Y-121720182D01*
X159018109Y-121548213D01*
X158867786Y-121397890D01*
X158695820Y-121272951D01*
X158506414Y-121176444D01*
X158506413Y-121176443D01*
X158506412Y-121176443D01*
X158304243Y-121110754D01*
X158304241Y-121110753D01*
X158304240Y-121110753D01*
X158142957Y-121085208D01*
X158094287Y-121077500D01*
X157881713Y-121077500D01*
X157833042Y-121085208D01*
X157671760Y-121110753D01*
X157469585Y-121176444D01*
X157280179Y-121272951D01*
X157108213Y-121397890D01*
X156957890Y-121548213D01*
X156832949Y-121720182D01*
X156828484Y-121728946D01*
X156780509Y-121779742D01*
X156712688Y-121796536D01*
X156646553Y-121773998D01*
X156607516Y-121728946D01*
X156603050Y-121720182D01*
X156478109Y-121548213D01*
X156327786Y-121397890D01*
X156155820Y-121272951D01*
X155966414Y-121176444D01*
X155966413Y-121176443D01*
X155966412Y-121176443D01*
X155764243Y-121110754D01*
X155764241Y-121110753D01*
X155764240Y-121110753D01*
X155602957Y-121085208D01*
X155554287Y-121077500D01*
X155341713Y-121077500D01*
X155293042Y-121085208D01*
X155131760Y-121110753D01*
X154929585Y-121176444D01*
X154740179Y-121272951D01*
X154568213Y-121397890D01*
X154417890Y-121548213D01*
X154292949Y-121720182D01*
X154288484Y-121728946D01*
X154240509Y-121779742D01*
X154172688Y-121796536D01*
X154106553Y-121773998D01*
X154067516Y-121728946D01*
X154063050Y-121720182D01*
X153938109Y-121548213D01*
X153787786Y-121397890D01*
X153615820Y-121272951D01*
X153426414Y-121176444D01*
X153426413Y-121176443D01*
X153426412Y-121176443D01*
X153224243Y-121110754D01*
X153224241Y-121110753D01*
X153224240Y-121110753D01*
X153062957Y-121085208D01*
X153014287Y-121077500D01*
X152801713Y-121077500D01*
X152753042Y-121085208D01*
X152591760Y-121110753D01*
X152389585Y-121176444D01*
X152200179Y-121272951D01*
X152028213Y-121397890D01*
X151877890Y-121548213D01*
X151752949Y-121720182D01*
X151748484Y-121728946D01*
X151700509Y-121779742D01*
X151632688Y-121796536D01*
X151566553Y-121773998D01*
X151527516Y-121728946D01*
X151523050Y-121720182D01*
X151398109Y-121548213D01*
X151247786Y-121397890D01*
X151075820Y-121272951D01*
X150886414Y-121176444D01*
X150886413Y-121176443D01*
X150886412Y-121176443D01*
X150684243Y-121110754D01*
X150684241Y-121110753D01*
X150684240Y-121110753D01*
X150522957Y-121085208D01*
X150474287Y-121077500D01*
X150261713Y-121077500D01*
X150213042Y-121085208D01*
X150051760Y-121110753D01*
X149849585Y-121176444D01*
X149660179Y-121272951D01*
X149488213Y-121397890D01*
X149337890Y-121548213D01*
X149212949Y-121720182D01*
X149208484Y-121728946D01*
X149160509Y-121779742D01*
X149092688Y-121796536D01*
X149026553Y-121773998D01*
X148987516Y-121728946D01*
X148983050Y-121720182D01*
X148858109Y-121548213D01*
X148707786Y-121397890D01*
X148535820Y-121272951D01*
X148346414Y-121176444D01*
X148346413Y-121176443D01*
X148346412Y-121176443D01*
X148144243Y-121110754D01*
X148144241Y-121110753D01*
X148144240Y-121110753D01*
X147982957Y-121085208D01*
X147934287Y-121077500D01*
X147721713Y-121077500D01*
X147673042Y-121085208D01*
X147511760Y-121110753D01*
X147309585Y-121176444D01*
X147120179Y-121272951D01*
X146948213Y-121397890D01*
X146797890Y-121548213D01*
X146672949Y-121720182D01*
X146668484Y-121728946D01*
X146620509Y-121779742D01*
X146552688Y-121796536D01*
X146486553Y-121773998D01*
X146447516Y-121728946D01*
X146443050Y-121720182D01*
X146318109Y-121548213D01*
X146167786Y-121397890D01*
X145995820Y-121272951D01*
X145806414Y-121176444D01*
X145806413Y-121176443D01*
X145806412Y-121176443D01*
X145604243Y-121110754D01*
X145604241Y-121110753D01*
X145604240Y-121110753D01*
X145442957Y-121085208D01*
X145394287Y-121077500D01*
X145181713Y-121077500D01*
X145133042Y-121085208D01*
X144971760Y-121110753D01*
X144769585Y-121176444D01*
X144580179Y-121272951D01*
X144408213Y-121397890D01*
X144257890Y-121548213D01*
X144132949Y-121720182D01*
X144128484Y-121728946D01*
X144080509Y-121779742D01*
X144012688Y-121796536D01*
X143946553Y-121773998D01*
X143907516Y-121728946D01*
X143903050Y-121720182D01*
X143778109Y-121548213D01*
X143627786Y-121397890D01*
X143455820Y-121272951D01*
X143266414Y-121176444D01*
X143266413Y-121176443D01*
X143266412Y-121176443D01*
X143064243Y-121110754D01*
X143064241Y-121110753D01*
X143064240Y-121110753D01*
X142902957Y-121085208D01*
X142854287Y-121077500D01*
X142641713Y-121077500D01*
X142593042Y-121085208D01*
X142431760Y-121110753D01*
X142229585Y-121176444D01*
X142040179Y-121272951D01*
X141868213Y-121397890D01*
X141717890Y-121548213D01*
X141592949Y-121720182D01*
X141588484Y-121728946D01*
X141540509Y-121779742D01*
X141472688Y-121796536D01*
X141406553Y-121773998D01*
X141367516Y-121728946D01*
X141363050Y-121720182D01*
X141238109Y-121548213D01*
X141087786Y-121397890D01*
X140915820Y-121272951D01*
X140726414Y-121176444D01*
X140726413Y-121176443D01*
X140726412Y-121176443D01*
X140524243Y-121110754D01*
X140524241Y-121110753D01*
X140524240Y-121110753D01*
X140362957Y-121085208D01*
X140314287Y-121077500D01*
X140101713Y-121077500D01*
X140053042Y-121085208D01*
X139891760Y-121110753D01*
X139689585Y-121176444D01*
X139500179Y-121272951D01*
X139328213Y-121397890D01*
X139177890Y-121548213D01*
X139052949Y-121720182D01*
X139048484Y-121728946D01*
X139000509Y-121779742D01*
X138932688Y-121796536D01*
X138866553Y-121773998D01*
X138827516Y-121728946D01*
X138823050Y-121720182D01*
X138698109Y-121548213D01*
X138547786Y-121397890D01*
X138375820Y-121272951D01*
X138186414Y-121176444D01*
X138186413Y-121176443D01*
X138186412Y-121176443D01*
X137984243Y-121110754D01*
X137984241Y-121110753D01*
X137984240Y-121110753D01*
X137822957Y-121085208D01*
X137774287Y-121077500D01*
X137561713Y-121077500D01*
X137513042Y-121085208D01*
X137351760Y-121110753D01*
X137149585Y-121176444D01*
X136960179Y-121272951D01*
X136788213Y-121397890D01*
X136637890Y-121548213D01*
X136512949Y-121720182D01*
X136508484Y-121728946D01*
X136460509Y-121779742D01*
X136392688Y-121796536D01*
X136326553Y-121773998D01*
X136287516Y-121728946D01*
X136283050Y-121720182D01*
X136158109Y-121548213D01*
X136007786Y-121397890D01*
X135835820Y-121272951D01*
X135646414Y-121176444D01*
X135646413Y-121176443D01*
X135646412Y-121176443D01*
X135444243Y-121110754D01*
X135444241Y-121110753D01*
X135444240Y-121110753D01*
X135282957Y-121085208D01*
X135234287Y-121077500D01*
X135021713Y-121077500D01*
X134973042Y-121085208D01*
X134811760Y-121110753D01*
X134609585Y-121176444D01*
X134420179Y-121272951D01*
X134248213Y-121397890D01*
X134097890Y-121548213D01*
X133972949Y-121720182D01*
X133968484Y-121728946D01*
X133920509Y-121779742D01*
X133852688Y-121796536D01*
X133786553Y-121773998D01*
X133747516Y-121728946D01*
X133743050Y-121720182D01*
X133618109Y-121548213D01*
X133467786Y-121397890D01*
X133295820Y-121272951D01*
X133106414Y-121176444D01*
X133106413Y-121176443D01*
X133106412Y-121176443D01*
X132904243Y-121110754D01*
X132904241Y-121110753D01*
X132904240Y-121110753D01*
X132742957Y-121085208D01*
X132694287Y-121077500D01*
X132481713Y-121077500D01*
X132433042Y-121085208D01*
X132271760Y-121110753D01*
X132069585Y-121176444D01*
X131880179Y-121272951D01*
X131708213Y-121397890D01*
X131557890Y-121548213D01*
X131432949Y-121720182D01*
X131428484Y-121728946D01*
X131380509Y-121779742D01*
X131312688Y-121796536D01*
X131246553Y-121773998D01*
X131207516Y-121728946D01*
X131203050Y-121720182D01*
X131078109Y-121548213D01*
X130927786Y-121397890D01*
X130755820Y-121272951D01*
X130566414Y-121176444D01*
X130566413Y-121176443D01*
X130566412Y-121176443D01*
X130364243Y-121110754D01*
X130364241Y-121110753D01*
X130364240Y-121110753D01*
X130202957Y-121085208D01*
X130154287Y-121077500D01*
X129941713Y-121077500D01*
X129893042Y-121085208D01*
X129731760Y-121110753D01*
X129529585Y-121176444D01*
X129340179Y-121272951D01*
X129168213Y-121397890D01*
X129017890Y-121548213D01*
X128892949Y-121720182D01*
X128888484Y-121728946D01*
X128840509Y-121779742D01*
X128772688Y-121796536D01*
X128706553Y-121773998D01*
X128667516Y-121728946D01*
X128663050Y-121720182D01*
X128538109Y-121548213D01*
X128387786Y-121397890D01*
X128215820Y-121272951D01*
X128026414Y-121176444D01*
X128026413Y-121176443D01*
X128026412Y-121176443D01*
X127824243Y-121110754D01*
X127824241Y-121110753D01*
X127824240Y-121110753D01*
X127662957Y-121085208D01*
X127614287Y-121077500D01*
X127401713Y-121077500D01*
X127353042Y-121085208D01*
X127191760Y-121110753D01*
X126989585Y-121176444D01*
X126800179Y-121272951D01*
X126628213Y-121397890D01*
X126477890Y-121548213D01*
X126352949Y-121720182D01*
X126348484Y-121728946D01*
X126300509Y-121779742D01*
X126232688Y-121796536D01*
X126166553Y-121773998D01*
X126127516Y-121728946D01*
X126123050Y-121720182D01*
X125998109Y-121548213D01*
X125847786Y-121397890D01*
X125675820Y-121272951D01*
X125486414Y-121176444D01*
X125486413Y-121176443D01*
X125486412Y-121176443D01*
X125284243Y-121110754D01*
X125284241Y-121110753D01*
X125284240Y-121110753D01*
X125122957Y-121085208D01*
X125074287Y-121077500D01*
X124861713Y-121077500D01*
X124813042Y-121085208D01*
X124651760Y-121110753D01*
X124449585Y-121176444D01*
X124260179Y-121272951D01*
X124088213Y-121397890D01*
X123937890Y-121548213D01*
X123812949Y-121720182D01*
X123808484Y-121728946D01*
X123760509Y-121779742D01*
X123692688Y-121796536D01*
X123626553Y-121773998D01*
X123587516Y-121728946D01*
X123583050Y-121720182D01*
X123458109Y-121548213D01*
X123307786Y-121397890D01*
X123135820Y-121272951D01*
X122946414Y-121176444D01*
X122946413Y-121176443D01*
X122946412Y-121176443D01*
X122744243Y-121110754D01*
X122744241Y-121110753D01*
X122744240Y-121110753D01*
X122582957Y-121085208D01*
X122534287Y-121077500D01*
X122321713Y-121077500D01*
X122273042Y-121085208D01*
X122111760Y-121110753D01*
X121909585Y-121176444D01*
X121720179Y-121272951D01*
X121548213Y-121397890D01*
X121397890Y-121548213D01*
X121272949Y-121720182D01*
X121268484Y-121728946D01*
X121220509Y-121779742D01*
X121152688Y-121796536D01*
X121086553Y-121773998D01*
X121047516Y-121728946D01*
X121043050Y-121720182D01*
X120918109Y-121548213D01*
X120767786Y-121397890D01*
X120595820Y-121272951D01*
X120406414Y-121176444D01*
X120406413Y-121176443D01*
X120406412Y-121176443D01*
X120204243Y-121110754D01*
X120204241Y-121110753D01*
X120204240Y-121110753D01*
X120042957Y-121085208D01*
X119994287Y-121077500D01*
X119781713Y-121077500D01*
X119733042Y-121085208D01*
X119571760Y-121110753D01*
X119369585Y-121176444D01*
X119180179Y-121272951D01*
X119008213Y-121397890D01*
X118857890Y-121548213D01*
X118732949Y-121720182D01*
X118728484Y-121728946D01*
X118680509Y-121779742D01*
X118612688Y-121796536D01*
X118546553Y-121773998D01*
X118507516Y-121728946D01*
X118503050Y-121720182D01*
X118378109Y-121548213D01*
X118227786Y-121397890D01*
X118055820Y-121272951D01*
X117866414Y-121176444D01*
X117866413Y-121176443D01*
X117866412Y-121176443D01*
X117664243Y-121110754D01*
X117664241Y-121110753D01*
X117664240Y-121110753D01*
X117502957Y-121085208D01*
X117454287Y-121077500D01*
X117241713Y-121077500D01*
X117193042Y-121085208D01*
X117031760Y-121110753D01*
X116829585Y-121176444D01*
X116640179Y-121272951D01*
X116468213Y-121397890D01*
X116317890Y-121548213D01*
X116192949Y-121720182D01*
X116188484Y-121728946D01*
X116140509Y-121779742D01*
X116072688Y-121796536D01*
X116006553Y-121773998D01*
X115967516Y-121728946D01*
X115963050Y-121720182D01*
X115838109Y-121548213D01*
X115687786Y-121397890D01*
X115515820Y-121272951D01*
X115326414Y-121176444D01*
X115326413Y-121176443D01*
X115326412Y-121176443D01*
X115124243Y-121110754D01*
X115124241Y-121110753D01*
X115124240Y-121110753D01*
X114962957Y-121085208D01*
X114914287Y-121077500D01*
X114701713Y-121077500D01*
X114653042Y-121085208D01*
X114491760Y-121110753D01*
X114289585Y-121176444D01*
X114100179Y-121272951D01*
X113928213Y-121397890D01*
X113777890Y-121548213D01*
X113652949Y-121720182D01*
X113648484Y-121728946D01*
X113600509Y-121779742D01*
X113532688Y-121796536D01*
X113466553Y-121773998D01*
X113427516Y-121728946D01*
X113423050Y-121720182D01*
X113298109Y-121548213D01*
X113147786Y-121397890D01*
X112975820Y-121272951D01*
X112786414Y-121176444D01*
X112786413Y-121176443D01*
X112786412Y-121176443D01*
X112584243Y-121110754D01*
X112584241Y-121110753D01*
X112584240Y-121110753D01*
X112422957Y-121085208D01*
X112374287Y-121077500D01*
X112161713Y-121077500D01*
X112113042Y-121085208D01*
X111951760Y-121110753D01*
X111749585Y-121176444D01*
X111560179Y-121272951D01*
X111388213Y-121397890D01*
X111237890Y-121548213D01*
X111112949Y-121720182D01*
X111108484Y-121728946D01*
X111060509Y-121779742D01*
X110992688Y-121796536D01*
X110926553Y-121773998D01*
X110887516Y-121728946D01*
X110883050Y-121720182D01*
X110758109Y-121548213D01*
X110607786Y-121397890D01*
X110435820Y-121272951D01*
X110246414Y-121176444D01*
X110246413Y-121176443D01*
X110246412Y-121176443D01*
X110044243Y-121110754D01*
X110044241Y-121110753D01*
X110044240Y-121110753D01*
X109882957Y-121085208D01*
X109834287Y-121077500D01*
X109621713Y-121077500D01*
X109573042Y-121085208D01*
X109411760Y-121110753D01*
X109209585Y-121176444D01*
X109020179Y-121272951D01*
X108848213Y-121397890D01*
X108697890Y-121548213D01*
X108572949Y-121720182D01*
X108568484Y-121728946D01*
X108520509Y-121779742D01*
X108452688Y-121796536D01*
X108386553Y-121773998D01*
X108347516Y-121728946D01*
X108343050Y-121720182D01*
X108218109Y-121548213D01*
X108067786Y-121397890D01*
X107895820Y-121272951D01*
X107706414Y-121176444D01*
X107706413Y-121176443D01*
X107706412Y-121176443D01*
X107504243Y-121110754D01*
X107504241Y-121110753D01*
X107504240Y-121110753D01*
X107342957Y-121085208D01*
X107294287Y-121077500D01*
X107081713Y-121077500D01*
X107033042Y-121085208D01*
X106871760Y-121110753D01*
X106669585Y-121176444D01*
X106480179Y-121272951D01*
X106308213Y-121397890D01*
X106157890Y-121548213D01*
X106032949Y-121720182D01*
X106028484Y-121728946D01*
X105980509Y-121779742D01*
X105912688Y-121796536D01*
X105846553Y-121773998D01*
X105807516Y-121728946D01*
X105803050Y-121720182D01*
X105678109Y-121548213D01*
X105527786Y-121397890D01*
X105355820Y-121272951D01*
X105166414Y-121176444D01*
X105166413Y-121176443D01*
X105166412Y-121176443D01*
X104964243Y-121110754D01*
X104964241Y-121110753D01*
X104964240Y-121110753D01*
X104802957Y-121085208D01*
X104754287Y-121077500D01*
X104541713Y-121077500D01*
X104493042Y-121085208D01*
X104331760Y-121110753D01*
X104129585Y-121176444D01*
X103940179Y-121272951D01*
X103768213Y-121397890D01*
X103617890Y-121548213D01*
X103492949Y-121720182D01*
X103488484Y-121728946D01*
X103440509Y-121779742D01*
X103372688Y-121796536D01*
X103306553Y-121773998D01*
X103267516Y-121728946D01*
X103263050Y-121720182D01*
X103138109Y-121548213D01*
X102987786Y-121397890D01*
X102815820Y-121272951D01*
X102626414Y-121176444D01*
X102626413Y-121176443D01*
X102626412Y-121176443D01*
X102424243Y-121110754D01*
X102424241Y-121110753D01*
X102424240Y-121110753D01*
X102262957Y-121085208D01*
X102214287Y-121077500D01*
X102001713Y-121077500D01*
X101953042Y-121085208D01*
X101791760Y-121110753D01*
X101589585Y-121176444D01*
X101400179Y-121272951D01*
X101228213Y-121397890D01*
X101077890Y-121548213D01*
X100952949Y-121720182D01*
X100948484Y-121728946D01*
X100900509Y-121779742D01*
X100832688Y-121796536D01*
X100766553Y-121773998D01*
X100727516Y-121728946D01*
X100723050Y-121720182D01*
X100598109Y-121548213D01*
X100447786Y-121397890D01*
X100275820Y-121272951D01*
X100086414Y-121176444D01*
X100086413Y-121176443D01*
X100086412Y-121176443D01*
X99884243Y-121110754D01*
X99884241Y-121110753D01*
X99884240Y-121110753D01*
X99722957Y-121085208D01*
X99674287Y-121077500D01*
X99461713Y-121077500D01*
X99413042Y-121085208D01*
X99251760Y-121110753D01*
X99049585Y-121176444D01*
X98860179Y-121272951D01*
X98688213Y-121397890D01*
X98537890Y-121548213D01*
X98412949Y-121720182D01*
X98408484Y-121728946D01*
X98360509Y-121779742D01*
X98292688Y-121796536D01*
X98226553Y-121773998D01*
X98187516Y-121728946D01*
X98183050Y-121720182D01*
X98058109Y-121548213D01*
X97907786Y-121397890D01*
X97735820Y-121272951D01*
X97546414Y-121176444D01*
X97546413Y-121176443D01*
X97546412Y-121176443D01*
X97344243Y-121110754D01*
X97344241Y-121110753D01*
X97344240Y-121110753D01*
X97182957Y-121085208D01*
X97134287Y-121077500D01*
X96921713Y-121077500D01*
X96873042Y-121085208D01*
X96711760Y-121110753D01*
X96509585Y-121176444D01*
X96320179Y-121272951D01*
X96148213Y-121397890D01*
X95997890Y-121548213D01*
X95872949Y-121720182D01*
X95868484Y-121728946D01*
X95820509Y-121779742D01*
X95752688Y-121796536D01*
X95686553Y-121773998D01*
X95647516Y-121728946D01*
X95643050Y-121720182D01*
X95518109Y-121548213D01*
X95367786Y-121397890D01*
X95195820Y-121272951D01*
X95006414Y-121176444D01*
X95006413Y-121176443D01*
X95006412Y-121176443D01*
X94804243Y-121110754D01*
X94804241Y-121110753D01*
X94804240Y-121110753D01*
X94642957Y-121085208D01*
X94594287Y-121077500D01*
X94381713Y-121077500D01*
X94333042Y-121085208D01*
X94171760Y-121110753D01*
X93969585Y-121176444D01*
X93780179Y-121272951D01*
X93608213Y-121397890D01*
X93457890Y-121548213D01*
X93332949Y-121720182D01*
X93328484Y-121728946D01*
X93280509Y-121779742D01*
X93212688Y-121796536D01*
X93146553Y-121773998D01*
X93107516Y-121728946D01*
X93103050Y-121720182D01*
X92978109Y-121548213D01*
X92827786Y-121397890D01*
X92655820Y-121272951D01*
X92466414Y-121176444D01*
X92466413Y-121176443D01*
X92466412Y-121176443D01*
X92264243Y-121110754D01*
X92264241Y-121110753D01*
X92264240Y-121110753D01*
X92102957Y-121085208D01*
X92054287Y-121077500D01*
X91841713Y-121077500D01*
X91793042Y-121085208D01*
X91631760Y-121110753D01*
X91429585Y-121176444D01*
X91240179Y-121272951D01*
X91068213Y-121397890D01*
X90917890Y-121548213D01*
X90792949Y-121720182D01*
X90788484Y-121728946D01*
X90740509Y-121779742D01*
X90672688Y-121796536D01*
X90606553Y-121773998D01*
X90567516Y-121728946D01*
X90563050Y-121720182D01*
X90438109Y-121548213D01*
X90287786Y-121397890D01*
X90115820Y-121272951D01*
X89926414Y-121176444D01*
X89926413Y-121176443D01*
X89926412Y-121176443D01*
X89724243Y-121110754D01*
X89724241Y-121110753D01*
X89724240Y-121110753D01*
X89562957Y-121085208D01*
X89514287Y-121077500D01*
X89301713Y-121077500D01*
X89253042Y-121085208D01*
X89091760Y-121110753D01*
X88889585Y-121176444D01*
X88700179Y-121272951D01*
X88528213Y-121397890D01*
X88377890Y-121548213D01*
X88252951Y-121720179D01*
X88156444Y-121909585D01*
X88090753Y-122111760D01*
X88057500Y-122321713D01*
X86860500Y-122321713D01*
X86860500Y-116020114D01*
X86880185Y-115953075D01*
X86932989Y-115907320D01*
X86945282Y-115902479D01*
X105554032Y-109699562D01*
X105603186Y-109686392D01*
X105616357Y-109678787D01*
X105630783Y-109673979D01*
X105673246Y-109645942D01*
X105717314Y-109620500D01*
X105728066Y-109609747D01*
X105740758Y-109601368D01*
X105774519Y-109563294D01*
X105810500Y-109527314D01*
X105818101Y-109514146D01*
X105826435Y-109504748D01*
X105826438Y-109504745D01*
X105826444Y-109504738D01*
X105828193Y-109502766D01*
X105849286Y-109460577D01*
X105852802Y-109454044D01*
X105876392Y-109413186D01*
X105880328Y-109398495D01*
X105887129Y-109384894D01*
X105897330Y-109335041D01*
X105910500Y-109285892D01*
X105910500Y-109283242D01*
X105913019Y-109258377D01*
X105913549Y-109255787D01*
X105910723Y-109208703D01*
X105910500Y-109201274D01*
X105910500Y-52694500D01*
X105930185Y-52627461D01*
X105982989Y-52581706D01*
X106034500Y-52570500D01*
X160665500Y-52570500D01*
X160732539Y-52590185D01*
G37*
%TD.AperFunction*%
%TD*%
M02*
