M48
; DRILL file {KiCad 9.0.7-9.0.7~ubuntu24.04.1} date 2026-01-08T21:52:16+0900
; FORMAT={-:-/ absolute / metric / decimal}
; #@! TF.CreationDate,2026-01-08T21:52:16+09:00
; #@! TF.GenerationSoftware,Kicad,Pcbnew,9.0.7-9.0.7~ubuntu24.04.1
; #@! TF.FileFunction,Plated,1,2,PTH
FMAT,2
METRIC
; #@! TA.AperFunction,Plated,PTH,ViaDrill
T1C0.300
; #@! TA.AperFunction,Plated,PTH,ComponentDrill
T2C0.700
; #@! TA.AperFunction,Plated,PTH,ComponentDrill
T3C0.800
; #@! TA.AperFunction,Plated,PTH,ComponentDrill
T4C1.000
; #@! TA.AperFunction,Plated,PTH,ComponentDrill
T5C1.100
; #@! TA.AperFunction,Plated,PTH,ComponentDrill
T6C3.200
%
G90
G05
T1
X114.554Y-133.096
X118.11Y-109.728
X131.826Y-121.92
X136.906Y-122.174
X137.16Y-97.79
X148.082Y-115.57
X148.082Y-121.92
X156.21Y-96.52
X163.83Y-139.446
X163.83Y-142.748
X163.83Y-146.304
X163.83Y-149.352
X166.37Y-152.146
X172.212Y-139.446
X172.212Y-142.748
X172.212Y-145.542
X173.99Y-148.59
X182.626Y-124.714
X189.738Y-99.06
X190.246Y-124.46
X199.39Y-104.14
X200.66Y-112.776
X205.486Y-114.808
X207.772Y-107.95
X211.074Y-114.808
X217.424Y-117.856
T2
X119.88Y-156.5
X120.0Y-159.0
X127.5Y-156.5
X127.62Y-159.0
X165.608Y-117.428
X165.608Y-119.928
X165.608Y-122.428
X165.608Y-124.928
X165.608Y-127.428
X165.608Y-129.928
X165.608Y-132.428
X165.608Y-134.928
X173.228Y-117.428
X173.228Y-119.928
X173.228Y-122.428
X173.228Y-124.928
X173.228Y-127.428
X173.228Y-129.928
X173.228Y-132.428
X173.228Y-134.928
X201.88Y-123.0
X202.19Y-104.5
X209.5Y-123.0
X209.81Y-104.5
X212.38Y-123.0
X212.88Y-104.5
X220.0Y-123.0
X220.5Y-104.5
T3
X119.88Y-148.5
X119.88Y-151.04
X127.5Y-148.5
X127.5Y-151.04
X153.964Y-113.792
X156.464Y-113.792
X202.38Y-95.0
X202.38Y-128.5
X202.38Y-133.0
X202.69Y-100.0
X204.724Y-110.998
X204.724Y-118.618
X207.264Y-110.998
X207.264Y-118.618
X209.804Y-110.998
X209.804Y-118.618
X210.0Y-95.0
X210.0Y-128.5
X210.0Y-133.0
X210.31Y-100.0
X212.344Y-110.998
X212.344Y-118.618
X216.0Y-138.25
X216.0Y-140.75
X220.5Y-112.0
X220.5Y-119.0
X223.0Y-112.0
X223.0Y-119.0
T4
X112.0Y-93.0
X112.0Y-95.54
X112.0Y-98.08
X112.0Y-100.62
X112.0Y-103.16
X112.0Y-105.7
X112.0Y-115.86
X112.0Y-118.4
X112.0Y-120.94
X112.0Y-123.48
X112.0Y-126.02
X112.0Y-128.56
X112.0Y-138.72
X112.0Y-141.26
X112.0Y-143.8
X112.0Y-146.34
X112.0Y-148.88
X112.0Y-151.42
X114.54Y-93.0
X114.54Y-95.54
X114.54Y-98.08
X114.54Y-100.62
X114.54Y-103.16
X114.54Y-105.7
X114.54Y-115.86
X114.54Y-118.4
X114.54Y-120.94
X114.54Y-123.48
X114.54Y-126.02
X114.54Y-128.56
X114.54Y-138.72
X114.54Y-141.26
X114.54Y-143.8
X114.54Y-146.34
X114.54Y-148.88
X114.54Y-151.42
X125.22Y-91.5
X125.22Y-94.04
X125.22Y-96.58
X125.22Y-99.12
X125.22Y-101.66
X125.22Y-104.2
X125.22Y-106.74
X125.22Y-109.28
X125.22Y-111.82
X125.22Y-114.36
X125.22Y-116.9
X125.22Y-119.44
X125.22Y-121.98
X125.22Y-124.52
X125.22Y-127.06
X125.22Y-129.6
X125.22Y-132.14
X125.22Y-134.68
X125.22Y-137.22
X125.22Y-139.76
X131.42Y-148.5
X131.42Y-151.04
X133.96Y-148.5
X133.96Y-151.04
X136.5Y-148.5
X136.5Y-151.04
X139.04Y-148.5
X139.04Y-151.04
X143.0Y-91.5
X143.0Y-94.04
X143.0Y-96.58
X143.0Y-99.12
X143.0Y-101.66
X143.0Y-104.2
X143.0Y-106.74
X143.0Y-109.28
X143.0Y-111.82
X143.0Y-114.36
X143.0Y-116.9
X143.0Y-119.44
X143.0Y-121.98
X143.0Y-124.52
X143.0Y-127.06
X143.0Y-129.6
X143.0Y-132.14
X143.0Y-134.68
X143.0Y-137.22
X143.0Y-139.76
X159.258Y-93.472
X161.798Y-93.472
X167.46Y-94.42
X167.46Y-96.96
X167.46Y-99.5
X167.46Y-102.04
X167.46Y-104.58
X167.46Y-107.12
X167.46Y-109.66
X167.46Y-112.2
X170.0Y-94.42
X170.0Y-96.96
X170.0Y-99.5
X170.0Y-102.04
X170.0Y-104.58
X170.0Y-107.12
X170.0Y-109.66
X170.0Y-112.2
X178.0Y-91.48
X178.0Y-94.02
X178.0Y-96.56
X178.0Y-99.1
X178.0Y-101.64
X178.0Y-104.18
X178.0Y-106.72
X178.0Y-109.26
X178.0Y-111.8
X178.0Y-114.34
X178.0Y-116.88
X178.0Y-119.42
X178.0Y-121.96
X178.0Y-124.5
X178.0Y-127.04
X178.0Y-129.58
X178.0Y-132.12
X178.0Y-134.66
X178.0Y-137.2
X178.0Y-139.74
X180.848Y-149.098
X180.848Y-151.638
X183.388Y-149.098
X183.388Y-151.638
X185.928Y-149.098
X185.928Y-151.638
X188.468Y-149.098
X188.468Y-151.638
X191.008Y-149.098
X191.008Y-151.638
X193.548Y-149.098
X193.548Y-151.638
X195.78Y-91.48
X195.78Y-94.02
X195.78Y-96.56
X195.78Y-99.1
X195.78Y-101.64
X195.78Y-104.18
X195.78Y-106.72
X195.78Y-109.26
X195.78Y-111.8
X195.78Y-114.34
X195.78Y-116.88
X195.78Y-119.42
X195.78Y-121.96
X195.78Y-124.5
X195.78Y-127.04
X195.78Y-129.58
X195.78Y-132.12
X195.78Y-134.66
X195.78Y-137.2
X195.78Y-139.74
X196.088Y-149.098
X196.088Y-151.638
X198.628Y-149.098
X198.628Y-151.638
X214.5Y-95.0
X214.5Y-100.0
X214.5Y-128.0
X214.5Y-133.0
X219.5Y-97.5
X219.5Y-130.5
X222.96Y-137.5
X225.5Y-137.5
X225.806Y-100.33
X225.806Y-102.87
X225.806Y-126.238
X225.806Y-128.778
T5
X151.638Y-102.87
X151.638Y-107.37
X158.138Y-102.87
X158.138Y-107.37
X204.25Y-138.25
X204.25Y-142.75
X210.75Y-138.25
X210.75Y-142.75
T6
X113.284Y-158.0
X113.538Y-85.344
X152.0Y-93.5
X152.0Y-158.0
X168.0Y-157.988
X227.33Y-93.218
X227.33Y-158.0
M30
