%TF.GenerationSoftware,KiCad,Pcbnew,9.0.7-9.0.7~ubuntu24.04.1*%
%TF.CreationDate,2026-01-08T21:52:08+09:00*%
%TF.ProjectId,Gender_Raspberry_PICO,47656e64-6572-45f5-9261-737062657272,rev?*%
%TF.SameCoordinates,Original*%
%TF.FileFunction,Other,Comment*%
%FSLAX46Y46*%
G04 Gerber Fmt 4.6, Leading zero omitted, Abs format (unit mm)*
G04 Created by KiCad (PCBNEW 9.0.7-9.0.7~ubuntu24.04.1) date 2026-01-08 21:52:08*
%MOMM*%
%LPD*%
G01*
G04 APERTURE LIST*
%ADD10C,0.150000*%
G04 APERTURE END LIST*
D10*
X130371904Y-77619819D02*
X130371904Y-78429342D01*
X130371904Y-78429342D02*
X130419523Y-78524580D01*
X130419523Y-78524580D02*
X130467142Y-78572200D01*
X130467142Y-78572200D02*
X130562380Y-78619819D01*
X130562380Y-78619819D02*
X130752856Y-78619819D01*
X130752856Y-78619819D02*
X130848094Y-78572200D01*
X130848094Y-78572200D02*
X130895713Y-78524580D01*
X130895713Y-78524580D02*
X130943332Y-78429342D01*
X130943332Y-78429342D02*
X130943332Y-77619819D01*
X131371904Y-78572200D02*
X131514761Y-78619819D01*
X131514761Y-78619819D02*
X131752856Y-78619819D01*
X131752856Y-78619819D02*
X131848094Y-78572200D01*
X131848094Y-78572200D02*
X131895713Y-78524580D01*
X131895713Y-78524580D02*
X131943332Y-78429342D01*
X131943332Y-78429342D02*
X131943332Y-78334104D01*
X131943332Y-78334104D02*
X131895713Y-78238866D01*
X131895713Y-78238866D02*
X131848094Y-78191247D01*
X131848094Y-78191247D02*
X131752856Y-78143628D01*
X131752856Y-78143628D02*
X131562380Y-78096009D01*
X131562380Y-78096009D02*
X131467142Y-78048390D01*
X131467142Y-78048390D02*
X131419523Y-78000771D01*
X131419523Y-78000771D02*
X131371904Y-77905533D01*
X131371904Y-77905533D02*
X131371904Y-77810295D01*
X131371904Y-77810295D02*
X131419523Y-77715057D01*
X131419523Y-77715057D02*
X131467142Y-77667438D01*
X131467142Y-77667438D02*
X131562380Y-77619819D01*
X131562380Y-77619819D02*
X131800475Y-77619819D01*
X131800475Y-77619819D02*
X131943332Y-77667438D01*
X132705237Y-78096009D02*
X132848094Y-78143628D01*
X132848094Y-78143628D02*
X132895713Y-78191247D01*
X132895713Y-78191247D02*
X132943332Y-78286485D01*
X132943332Y-78286485D02*
X132943332Y-78429342D01*
X132943332Y-78429342D02*
X132895713Y-78524580D01*
X132895713Y-78524580D02*
X132848094Y-78572200D01*
X132848094Y-78572200D02*
X132752856Y-78619819D01*
X132752856Y-78619819D02*
X132371904Y-78619819D01*
X132371904Y-78619819D02*
X132371904Y-77619819D01*
X132371904Y-77619819D02*
X132705237Y-77619819D01*
X132705237Y-77619819D02*
X132800475Y-77667438D01*
X132800475Y-77667438D02*
X132848094Y-77715057D01*
X132848094Y-77715057D02*
X132895713Y-77810295D01*
X132895713Y-77810295D02*
X132895713Y-77905533D01*
X132895713Y-77905533D02*
X132848094Y-78000771D01*
X132848094Y-78000771D02*
X132800475Y-78048390D01*
X132800475Y-78048390D02*
X132705237Y-78096009D01*
X132705237Y-78096009D02*
X132371904Y-78096009D01*
X134705237Y-78524580D02*
X134657618Y-78572200D01*
X134657618Y-78572200D02*
X134514761Y-78619819D01*
X134514761Y-78619819D02*
X134419523Y-78619819D01*
X134419523Y-78619819D02*
X134276666Y-78572200D01*
X134276666Y-78572200D02*
X134181428Y-78476961D01*
X134181428Y-78476961D02*
X134133809Y-78381723D01*
X134133809Y-78381723D02*
X134086190Y-78191247D01*
X134086190Y-78191247D02*
X134086190Y-78048390D01*
X134086190Y-78048390D02*
X134133809Y-77857914D01*
X134133809Y-77857914D02*
X134181428Y-77762676D01*
X134181428Y-77762676D02*
X134276666Y-77667438D01*
X134276666Y-77667438D02*
X134419523Y-77619819D01*
X134419523Y-77619819D02*
X134514761Y-77619819D01*
X134514761Y-77619819D02*
X134657618Y-77667438D01*
X134657618Y-77667438D02*
X134705237Y-77715057D01*
X135562380Y-78619819D02*
X135562380Y-78096009D01*
X135562380Y-78096009D02*
X135514761Y-78000771D01*
X135514761Y-78000771D02*
X135419523Y-77953152D01*
X135419523Y-77953152D02*
X135229047Y-77953152D01*
X135229047Y-77953152D02*
X135133809Y-78000771D01*
X135562380Y-78572200D02*
X135467142Y-78619819D01*
X135467142Y-78619819D02*
X135229047Y-78619819D01*
X135229047Y-78619819D02*
X135133809Y-78572200D01*
X135133809Y-78572200D02*
X135086190Y-78476961D01*
X135086190Y-78476961D02*
X135086190Y-78381723D01*
X135086190Y-78381723D02*
X135133809Y-78286485D01*
X135133809Y-78286485D02*
X135229047Y-78238866D01*
X135229047Y-78238866D02*
X135467142Y-78238866D01*
X135467142Y-78238866D02*
X135562380Y-78191247D01*
X136038571Y-78619819D02*
X136038571Y-77619819D01*
X136038571Y-78000771D02*
X136133809Y-77953152D01*
X136133809Y-77953152D02*
X136324285Y-77953152D01*
X136324285Y-77953152D02*
X136419523Y-78000771D01*
X136419523Y-78000771D02*
X136467142Y-78048390D01*
X136467142Y-78048390D02*
X136514761Y-78143628D01*
X136514761Y-78143628D02*
X136514761Y-78429342D01*
X136514761Y-78429342D02*
X136467142Y-78524580D01*
X136467142Y-78524580D02*
X136419523Y-78572200D01*
X136419523Y-78572200D02*
X136324285Y-78619819D01*
X136324285Y-78619819D02*
X136133809Y-78619819D01*
X136133809Y-78619819D02*
X136038571Y-78572200D01*
X137086190Y-78619819D02*
X136990952Y-78572200D01*
X136990952Y-78572200D02*
X136943333Y-78476961D01*
X136943333Y-78476961D02*
X136943333Y-77619819D01*
X137848095Y-78572200D02*
X137752857Y-78619819D01*
X137752857Y-78619819D02*
X137562381Y-78619819D01*
X137562381Y-78619819D02*
X137467143Y-78572200D01*
X137467143Y-78572200D02*
X137419524Y-78476961D01*
X137419524Y-78476961D02*
X137419524Y-78096009D01*
X137419524Y-78096009D02*
X137467143Y-78000771D01*
X137467143Y-78000771D02*
X137562381Y-77953152D01*
X137562381Y-77953152D02*
X137752857Y-77953152D01*
X137752857Y-77953152D02*
X137848095Y-78000771D01*
X137848095Y-78000771D02*
X137895714Y-78096009D01*
X137895714Y-78096009D02*
X137895714Y-78191247D01*
X137895714Y-78191247D02*
X137419524Y-78286485D01*
X127871904Y-135769819D02*
X127871904Y-134769819D01*
X127871904Y-134769819D02*
X128252856Y-134769819D01*
X128252856Y-134769819D02*
X128348094Y-134817438D01*
X128348094Y-134817438D02*
X128395713Y-134865057D01*
X128395713Y-134865057D02*
X128443332Y-134960295D01*
X128443332Y-134960295D02*
X128443332Y-135103152D01*
X128443332Y-135103152D02*
X128395713Y-135198390D01*
X128395713Y-135198390D02*
X128348094Y-135246009D01*
X128348094Y-135246009D02*
X128252856Y-135293628D01*
X128252856Y-135293628D02*
X127871904Y-135293628D01*
X129014761Y-135769819D02*
X128919523Y-135722200D01*
X128919523Y-135722200D02*
X128871904Y-135674580D01*
X128871904Y-135674580D02*
X128824285Y-135579342D01*
X128824285Y-135579342D02*
X128824285Y-135293628D01*
X128824285Y-135293628D02*
X128871904Y-135198390D01*
X128871904Y-135198390D02*
X128919523Y-135150771D01*
X128919523Y-135150771D02*
X129014761Y-135103152D01*
X129014761Y-135103152D02*
X129157618Y-135103152D01*
X129157618Y-135103152D02*
X129252856Y-135150771D01*
X129252856Y-135150771D02*
X129300475Y-135198390D01*
X129300475Y-135198390D02*
X129348094Y-135293628D01*
X129348094Y-135293628D02*
X129348094Y-135579342D01*
X129348094Y-135579342D02*
X129300475Y-135674580D01*
X129300475Y-135674580D02*
X129252856Y-135722200D01*
X129252856Y-135722200D02*
X129157618Y-135769819D01*
X129157618Y-135769819D02*
X129014761Y-135769819D01*
X129729047Y-135722200D02*
X129824285Y-135769819D01*
X129824285Y-135769819D02*
X130014761Y-135769819D01*
X130014761Y-135769819D02*
X130109999Y-135722200D01*
X130109999Y-135722200D02*
X130157618Y-135626961D01*
X130157618Y-135626961D02*
X130157618Y-135579342D01*
X130157618Y-135579342D02*
X130109999Y-135484104D01*
X130109999Y-135484104D02*
X130014761Y-135436485D01*
X130014761Y-135436485D02*
X129871904Y-135436485D01*
X129871904Y-135436485D02*
X129776666Y-135388866D01*
X129776666Y-135388866D02*
X129729047Y-135293628D01*
X129729047Y-135293628D02*
X129729047Y-135246009D01*
X129729047Y-135246009D02*
X129776666Y-135150771D01*
X129776666Y-135150771D02*
X129871904Y-135103152D01*
X129871904Y-135103152D02*
X130014761Y-135103152D01*
X130014761Y-135103152D02*
X130109999Y-135150771D01*
X130538571Y-135722200D02*
X130633809Y-135769819D01*
X130633809Y-135769819D02*
X130824285Y-135769819D01*
X130824285Y-135769819D02*
X130919523Y-135722200D01*
X130919523Y-135722200D02*
X130967142Y-135626961D01*
X130967142Y-135626961D02*
X130967142Y-135579342D01*
X130967142Y-135579342D02*
X130919523Y-135484104D01*
X130919523Y-135484104D02*
X130824285Y-135436485D01*
X130824285Y-135436485D02*
X130681428Y-135436485D01*
X130681428Y-135436485D02*
X130586190Y-135388866D01*
X130586190Y-135388866D02*
X130538571Y-135293628D01*
X130538571Y-135293628D02*
X130538571Y-135246009D01*
X130538571Y-135246009D02*
X130586190Y-135150771D01*
X130586190Y-135150771D02*
X130681428Y-135103152D01*
X130681428Y-135103152D02*
X130824285Y-135103152D01*
X130824285Y-135103152D02*
X130919523Y-135150771D01*
X131395714Y-135769819D02*
X131395714Y-135103152D01*
X131395714Y-134769819D02*
X131348095Y-134817438D01*
X131348095Y-134817438D02*
X131395714Y-134865057D01*
X131395714Y-134865057D02*
X131443333Y-134817438D01*
X131443333Y-134817438D02*
X131395714Y-134769819D01*
X131395714Y-134769819D02*
X131395714Y-134865057D01*
X131871904Y-135769819D02*
X131871904Y-134769819D01*
X131871904Y-135150771D02*
X131967142Y-135103152D01*
X131967142Y-135103152D02*
X132157618Y-135103152D01*
X132157618Y-135103152D02*
X132252856Y-135150771D01*
X132252856Y-135150771D02*
X132300475Y-135198390D01*
X132300475Y-135198390D02*
X132348094Y-135293628D01*
X132348094Y-135293628D02*
X132348094Y-135579342D01*
X132348094Y-135579342D02*
X132300475Y-135674580D01*
X132300475Y-135674580D02*
X132252856Y-135722200D01*
X132252856Y-135722200D02*
X132157618Y-135769819D01*
X132157618Y-135769819D02*
X131967142Y-135769819D01*
X131967142Y-135769819D02*
X131871904Y-135722200D01*
X132919523Y-135769819D02*
X132824285Y-135722200D01*
X132824285Y-135722200D02*
X132776666Y-135626961D01*
X132776666Y-135626961D02*
X132776666Y-134769819D01*
X133681428Y-135722200D02*
X133586190Y-135769819D01*
X133586190Y-135769819D02*
X133395714Y-135769819D01*
X133395714Y-135769819D02*
X133300476Y-135722200D01*
X133300476Y-135722200D02*
X133252857Y-135626961D01*
X133252857Y-135626961D02*
X133252857Y-135246009D01*
X133252857Y-135246009D02*
X133300476Y-135150771D01*
X133300476Y-135150771D02*
X133395714Y-135103152D01*
X133395714Y-135103152D02*
X133586190Y-135103152D01*
X133586190Y-135103152D02*
X133681428Y-135150771D01*
X133681428Y-135150771D02*
X133729047Y-135246009D01*
X133729047Y-135246009D02*
X133729047Y-135341247D01*
X133729047Y-135341247D02*
X133252857Y-135436485D01*
X134871905Y-135484104D02*
X135348095Y-135484104D01*
X134776667Y-135769819D02*
X135110000Y-134769819D01*
X135110000Y-134769819D02*
X135443333Y-135769819D01*
X135776667Y-135103152D02*
X135776667Y-135769819D01*
X135776667Y-135198390D02*
X135824286Y-135150771D01*
X135824286Y-135150771D02*
X135919524Y-135103152D01*
X135919524Y-135103152D02*
X136062381Y-135103152D01*
X136062381Y-135103152D02*
X136157619Y-135150771D01*
X136157619Y-135150771D02*
X136205238Y-135246009D01*
X136205238Y-135246009D02*
X136205238Y-135769819D01*
X136538572Y-135103152D02*
X136919524Y-135103152D01*
X136681429Y-134769819D02*
X136681429Y-135626961D01*
X136681429Y-135626961D02*
X136729048Y-135722200D01*
X136729048Y-135722200D02*
X136824286Y-135769819D01*
X136824286Y-135769819D02*
X136919524Y-135769819D01*
X137633810Y-135722200D02*
X137538572Y-135769819D01*
X137538572Y-135769819D02*
X137348096Y-135769819D01*
X137348096Y-135769819D02*
X137252858Y-135722200D01*
X137252858Y-135722200D02*
X137205239Y-135626961D01*
X137205239Y-135626961D02*
X137205239Y-135246009D01*
X137205239Y-135246009D02*
X137252858Y-135150771D01*
X137252858Y-135150771D02*
X137348096Y-135103152D01*
X137348096Y-135103152D02*
X137538572Y-135103152D01*
X137538572Y-135103152D02*
X137633810Y-135150771D01*
X137633810Y-135150771D02*
X137681429Y-135246009D01*
X137681429Y-135246009D02*
X137681429Y-135341247D01*
X137681429Y-135341247D02*
X137205239Y-135436485D01*
X138110001Y-135103152D02*
X138110001Y-135769819D01*
X138110001Y-135198390D02*
X138157620Y-135150771D01*
X138157620Y-135150771D02*
X138252858Y-135103152D01*
X138252858Y-135103152D02*
X138395715Y-135103152D01*
X138395715Y-135103152D02*
X138490953Y-135150771D01*
X138490953Y-135150771D02*
X138538572Y-135246009D01*
X138538572Y-135246009D02*
X138538572Y-135769819D01*
X139014763Y-135103152D02*
X139014763Y-135769819D01*
X139014763Y-135198390D02*
X139062382Y-135150771D01*
X139062382Y-135150771D02*
X139157620Y-135103152D01*
X139157620Y-135103152D02*
X139300477Y-135103152D01*
X139300477Y-135103152D02*
X139395715Y-135150771D01*
X139395715Y-135150771D02*
X139443334Y-135246009D01*
X139443334Y-135246009D02*
X139443334Y-135769819D01*
X140348096Y-135769819D02*
X140348096Y-135246009D01*
X140348096Y-135246009D02*
X140300477Y-135150771D01*
X140300477Y-135150771D02*
X140205239Y-135103152D01*
X140205239Y-135103152D02*
X140014763Y-135103152D01*
X140014763Y-135103152D02*
X139919525Y-135150771D01*
X140348096Y-135722200D02*
X140252858Y-135769819D01*
X140252858Y-135769819D02*
X140014763Y-135769819D01*
X140014763Y-135769819D02*
X139919525Y-135722200D01*
X139919525Y-135722200D02*
X139871906Y-135626961D01*
X139871906Y-135626961D02*
X139871906Y-135531723D01*
X139871906Y-135531723D02*
X139919525Y-135436485D01*
X139919525Y-135436485D02*
X140014763Y-135388866D01*
X140014763Y-135388866D02*
X140252858Y-135388866D01*
X140252858Y-135388866D02*
X140348096Y-135341247D01*
X130895714Y-137674819D02*
X130895714Y-136674819D01*
X131467142Y-137674819D02*
X131038571Y-137103390D01*
X131467142Y-136674819D02*
X130895714Y-137246247D01*
X132276666Y-137627200D02*
X132181428Y-137674819D01*
X132181428Y-137674819D02*
X131990952Y-137674819D01*
X131990952Y-137674819D02*
X131895714Y-137627200D01*
X131895714Y-137627200D02*
X131848095Y-137531961D01*
X131848095Y-137531961D02*
X131848095Y-137151009D01*
X131848095Y-137151009D02*
X131895714Y-137055771D01*
X131895714Y-137055771D02*
X131990952Y-137008152D01*
X131990952Y-137008152D02*
X132181428Y-137008152D01*
X132181428Y-137008152D02*
X132276666Y-137055771D01*
X132276666Y-137055771D02*
X132324285Y-137151009D01*
X132324285Y-137151009D02*
X132324285Y-137246247D01*
X132324285Y-137246247D02*
X131848095Y-137341485D01*
X133133809Y-137627200D02*
X133038571Y-137674819D01*
X133038571Y-137674819D02*
X132848095Y-137674819D01*
X132848095Y-137674819D02*
X132752857Y-137627200D01*
X132752857Y-137627200D02*
X132705238Y-137531961D01*
X132705238Y-137531961D02*
X132705238Y-137151009D01*
X132705238Y-137151009D02*
X132752857Y-137055771D01*
X132752857Y-137055771D02*
X132848095Y-137008152D01*
X132848095Y-137008152D02*
X133038571Y-137008152D01*
X133038571Y-137008152D02*
X133133809Y-137055771D01*
X133133809Y-137055771D02*
X133181428Y-137151009D01*
X133181428Y-137151009D02*
X133181428Y-137246247D01*
X133181428Y-137246247D02*
X132705238Y-137341485D01*
X133610000Y-137008152D02*
X133610000Y-138008152D01*
X133610000Y-137055771D02*
X133705238Y-137008152D01*
X133705238Y-137008152D02*
X133895714Y-137008152D01*
X133895714Y-137008152D02*
X133990952Y-137055771D01*
X133990952Y-137055771D02*
X134038571Y-137103390D01*
X134038571Y-137103390D02*
X134086190Y-137198628D01*
X134086190Y-137198628D02*
X134086190Y-137484342D01*
X134086190Y-137484342D02*
X134038571Y-137579580D01*
X134038571Y-137579580D02*
X133990952Y-137627200D01*
X133990952Y-137627200D02*
X133895714Y-137674819D01*
X133895714Y-137674819D02*
X133705238Y-137674819D01*
X133705238Y-137674819D02*
X133610000Y-137627200D01*
X135467143Y-136674819D02*
X135657619Y-136674819D01*
X135657619Y-136674819D02*
X135752857Y-136722438D01*
X135752857Y-136722438D02*
X135848095Y-136817676D01*
X135848095Y-136817676D02*
X135895714Y-137008152D01*
X135895714Y-137008152D02*
X135895714Y-137341485D01*
X135895714Y-137341485D02*
X135848095Y-137531961D01*
X135848095Y-137531961D02*
X135752857Y-137627200D01*
X135752857Y-137627200D02*
X135657619Y-137674819D01*
X135657619Y-137674819D02*
X135467143Y-137674819D01*
X135467143Y-137674819D02*
X135371905Y-137627200D01*
X135371905Y-137627200D02*
X135276667Y-137531961D01*
X135276667Y-137531961D02*
X135229048Y-137341485D01*
X135229048Y-137341485D02*
X135229048Y-137008152D01*
X135229048Y-137008152D02*
X135276667Y-136817676D01*
X135276667Y-136817676D02*
X135371905Y-136722438D01*
X135371905Y-136722438D02*
X135467143Y-136674819D01*
X136752857Y-137008152D02*
X136752857Y-137674819D01*
X136324286Y-137008152D02*
X136324286Y-137531961D01*
X136324286Y-137531961D02*
X136371905Y-137627200D01*
X136371905Y-137627200D02*
X136467143Y-137674819D01*
X136467143Y-137674819D02*
X136610000Y-137674819D01*
X136610000Y-137674819D02*
X136705238Y-137627200D01*
X136705238Y-137627200D02*
X136752857Y-137579580D01*
X137086191Y-137008152D02*
X137467143Y-137008152D01*
X137229048Y-136674819D02*
X137229048Y-137531961D01*
X137229048Y-137531961D02*
X137276667Y-137627200D01*
X137276667Y-137627200D02*
X137371905Y-137674819D01*
X137371905Y-137674819D02*
X137467143Y-137674819D01*
X183675714Y-137654819D02*
X183675714Y-136654819D01*
X184247142Y-137654819D02*
X183818571Y-137083390D01*
X184247142Y-136654819D02*
X183675714Y-137226247D01*
X185056666Y-137607200D02*
X184961428Y-137654819D01*
X184961428Y-137654819D02*
X184770952Y-137654819D01*
X184770952Y-137654819D02*
X184675714Y-137607200D01*
X184675714Y-137607200D02*
X184628095Y-137511961D01*
X184628095Y-137511961D02*
X184628095Y-137131009D01*
X184628095Y-137131009D02*
X184675714Y-137035771D01*
X184675714Y-137035771D02*
X184770952Y-136988152D01*
X184770952Y-136988152D02*
X184961428Y-136988152D01*
X184961428Y-136988152D02*
X185056666Y-137035771D01*
X185056666Y-137035771D02*
X185104285Y-137131009D01*
X185104285Y-137131009D02*
X185104285Y-137226247D01*
X185104285Y-137226247D02*
X184628095Y-137321485D01*
X185913809Y-137607200D02*
X185818571Y-137654819D01*
X185818571Y-137654819D02*
X185628095Y-137654819D01*
X185628095Y-137654819D02*
X185532857Y-137607200D01*
X185532857Y-137607200D02*
X185485238Y-137511961D01*
X185485238Y-137511961D02*
X185485238Y-137131009D01*
X185485238Y-137131009D02*
X185532857Y-137035771D01*
X185532857Y-137035771D02*
X185628095Y-136988152D01*
X185628095Y-136988152D02*
X185818571Y-136988152D01*
X185818571Y-136988152D02*
X185913809Y-137035771D01*
X185913809Y-137035771D02*
X185961428Y-137131009D01*
X185961428Y-137131009D02*
X185961428Y-137226247D01*
X185961428Y-137226247D02*
X185485238Y-137321485D01*
X186390000Y-136988152D02*
X186390000Y-137988152D01*
X186390000Y-137035771D02*
X186485238Y-136988152D01*
X186485238Y-136988152D02*
X186675714Y-136988152D01*
X186675714Y-136988152D02*
X186770952Y-137035771D01*
X186770952Y-137035771D02*
X186818571Y-137083390D01*
X186818571Y-137083390D02*
X186866190Y-137178628D01*
X186866190Y-137178628D02*
X186866190Y-137464342D01*
X186866190Y-137464342D02*
X186818571Y-137559580D01*
X186818571Y-137559580D02*
X186770952Y-137607200D01*
X186770952Y-137607200D02*
X186675714Y-137654819D01*
X186675714Y-137654819D02*
X186485238Y-137654819D01*
X186485238Y-137654819D02*
X186390000Y-137607200D01*
X188247143Y-136654819D02*
X188437619Y-136654819D01*
X188437619Y-136654819D02*
X188532857Y-136702438D01*
X188532857Y-136702438D02*
X188628095Y-136797676D01*
X188628095Y-136797676D02*
X188675714Y-136988152D01*
X188675714Y-136988152D02*
X188675714Y-137321485D01*
X188675714Y-137321485D02*
X188628095Y-137511961D01*
X188628095Y-137511961D02*
X188532857Y-137607200D01*
X188532857Y-137607200D02*
X188437619Y-137654819D01*
X188437619Y-137654819D02*
X188247143Y-137654819D01*
X188247143Y-137654819D02*
X188151905Y-137607200D01*
X188151905Y-137607200D02*
X188056667Y-137511961D01*
X188056667Y-137511961D02*
X188009048Y-137321485D01*
X188009048Y-137321485D02*
X188009048Y-136988152D01*
X188009048Y-136988152D02*
X188056667Y-136797676D01*
X188056667Y-136797676D02*
X188151905Y-136702438D01*
X188151905Y-136702438D02*
X188247143Y-136654819D01*
X189532857Y-136988152D02*
X189532857Y-137654819D01*
X189104286Y-136988152D02*
X189104286Y-137511961D01*
X189104286Y-137511961D02*
X189151905Y-137607200D01*
X189151905Y-137607200D02*
X189247143Y-137654819D01*
X189247143Y-137654819D02*
X189390000Y-137654819D01*
X189390000Y-137654819D02*
X189485238Y-137607200D01*
X189485238Y-137607200D02*
X189532857Y-137559580D01*
X189866191Y-136988152D02*
X190247143Y-136988152D01*
X190009048Y-136654819D02*
X190009048Y-137511961D01*
X190009048Y-137511961D02*
X190056667Y-137607200D01*
X190056667Y-137607200D02*
X190151905Y-137654819D01*
X190151905Y-137654819D02*
X190247143Y-137654819D01*
X180651904Y-135749819D02*
X180651904Y-134749819D01*
X180651904Y-134749819D02*
X181032856Y-134749819D01*
X181032856Y-134749819D02*
X181128094Y-134797438D01*
X181128094Y-134797438D02*
X181175713Y-134845057D01*
X181175713Y-134845057D02*
X181223332Y-134940295D01*
X181223332Y-134940295D02*
X181223332Y-135083152D01*
X181223332Y-135083152D02*
X181175713Y-135178390D01*
X181175713Y-135178390D02*
X181128094Y-135226009D01*
X181128094Y-135226009D02*
X181032856Y-135273628D01*
X181032856Y-135273628D02*
X180651904Y-135273628D01*
X181794761Y-135749819D02*
X181699523Y-135702200D01*
X181699523Y-135702200D02*
X181651904Y-135654580D01*
X181651904Y-135654580D02*
X181604285Y-135559342D01*
X181604285Y-135559342D02*
X181604285Y-135273628D01*
X181604285Y-135273628D02*
X181651904Y-135178390D01*
X181651904Y-135178390D02*
X181699523Y-135130771D01*
X181699523Y-135130771D02*
X181794761Y-135083152D01*
X181794761Y-135083152D02*
X181937618Y-135083152D01*
X181937618Y-135083152D02*
X182032856Y-135130771D01*
X182032856Y-135130771D02*
X182080475Y-135178390D01*
X182080475Y-135178390D02*
X182128094Y-135273628D01*
X182128094Y-135273628D02*
X182128094Y-135559342D01*
X182128094Y-135559342D02*
X182080475Y-135654580D01*
X182080475Y-135654580D02*
X182032856Y-135702200D01*
X182032856Y-135702200D02*
X181937618Y-135749819D01*
X181937618Y-135749819D02*
X181794761Y-135749819D01*
X182509047Y-135702200D02*
X182604285Y-135749819D01*
X182604285Y-135749819D02*
X182794761Y-135749819D01*
X182794761Y-135749819D02*
X182889999Y-135702200D01*
X182889999Y-135702200D02*
X182937618Y-135606961D01*
X182937618Y-135606961D02*
X182937618Y-135559342D01*
X182937618Y-135559342D02*
X182889999Y-135464104D01*
X182889999Y-135464104D02*
X182794761Y-135416485D01*
X182794761Y-135416485D02*
X182651904Y-135416485D01*
X182651904Y-135416485D02*
X182556666Y-135368866D01*
X182556666Y-135368866D02*
X182509047Y-135273628D01*
X182509047Y-135273628D02*
X182509047Y-135226009D01*
X182509047Y-135226009D02*
X182556666Y-135130771D01*
X182556666Y-135130771D02*
X182651904Y-135083152D01*
X182651904Y-135083152D02*
X182794761Y-135083152D01*
X182794761Y-135083152D02*
X182889999Y-135130771D01*
X183318571Y-135702200D02*
X183413809Y-135749819D01*
X183413809Y-135749819D02*
X183604285Y-135749819D01*
X183604285Y-135749819D02*
X183699523Y-135702200D01*
X183699523Y-135702200D02*
X183747142Y-135606961D01*
X183747142Y-135606961D02*
X183747142Y-135559342D01*
X183747142Y-135559342D02*
X183699523Y-135464104D01*
X183699523Y-135464104D02*
X183604285Y-135416485D01*
X183604285Y-135416485D02*
X183461428Y-135416485D01*
X183461428Y-135416485D02*
X183366190Y-135368866D01*
X183366190Y-135368866D02*
X183318571Y-135273628D01*
X183318571Y-135273628D02*
X183318571Y-135226009D01*
X183318571Y-135226009D02*
X183366190Y-135130771D01*
X183366190Y-135130771D02*
X183461428Y-135083152D01*
X183461428Y-135083152D02*
X183604285Y-135083152D01*
X183604285Y-135083152D02*
X183699523Y-135130771D01*
X184175714Y-135749819D02*
X184175714Y-135083152D01*
X184175714Y-134749819D02*
X184128095Y-134797438D01*
X184128095Y-134797438D02*
X184175714Y-134845057D01*
X184175714Y-134845057D02*
X184223333Y-134797438D01*
X184223333Y-134797438D02*
X184175714Y-134749819D01*
X184175714Y-134749819D02*
X184175714Y-134845057D01*
X184651904Y-135749819D02*
X184651904Y-134749819D01*
X184651904Y-135130771D02*
X184747142Y-135083152D01*
X184747142Y-135083152D02*
X184937618Y-135083152D01*
X184937618Y-135083152D02*
X185032856Y-135130771D01*
X185032856Y-135130771D02*
X185080475Y-135178390D01*
X185080475Y-135178390D02*
X185128094Y-135273628D01*
X185128094Y-135273628D02*
X185128094Y-135559342D01*
X185128094Y-135559342D02*
X185080475Y-135654580D01*
X185080475Y-135654580D02*
X185032856Y-135702200D01*
X185032856Y-135702200D02*
X184937618Y-135749819D01*
X184937618Y-135749819D02*
X184747142Y-135749819D01*
X184747142Y-135749819D02*
X184651904Y-135702200D01*
X185699523Y-135749819D02*
X185604285Y-135702200D01*
X185604285Y-135702200D02*
X185556666Y-135606961D01*
X185556666Y-135606961D02*
X185556666Y-134749819D01*
X186461428Y-135702200D02*
X186366190Y-135749819D01*
X186366190Y-135749819D02*
X186175714Y-135749819D01*
X186175714Y-135749819D02*
X186080476Y-135702200D01*
X186080476Y-135702200D02*
X186032857Y-135606961D01*
X186032857Y-135606961D02*
X186032857Y-135226009D01*
X186032857Y-135226009D02*
X186080476Y-135130771D01*
X186080476Y-135130771D02*
X186175714Y-135083152D01*
X186175714Y-135083152D02*
X186366190Y-135083152D01*
X186366190Y-135083152D02*
X186461428Y-135130771D01*
X186461428Y-135130771D02*
X186509047Y-135226009D01*
X186509047Y-135226009D02*
X186509047Y-135321247D01*
X186509047Y-135321247D02*
X186032857Y-135416485D01*
X187651905Y-135464104D02*
X188128095Y-135464104D01*
X187556667Y-135749819D02*
X187890000Y-134749819D01*
X187890000Y-134749819D02*
X188223333Y-135749819D01*
X188556667Y-135083152D02*
X188556667Y-135749819D01*
X188556667Y-135178390D02*
X188604286Y-135130771D01*
X188604286Y-135130771D02*
X188699524Y-135083152D01*
X188699524Y-135083152D02*
X188842381Y-135083152D01*
X188842381Y-135083152D02*
X188937619Y-135130771D01*
X188937619Y-135130771D02*
X188985238Y-135226009D01*
X188985238Y-135226009D02*
X188985238Y-135749819D01*
X189318572Y-135083152D02*
X189699524Y-135083152D01*
X189461429Y-134749819D02*
X189461429Y-135606961D01*
X189461429Y-135606961D02*
X189509048Y-135702200D01*
X189509048Y-135702200D02*
X189604286Y-135749819D01*
X189604286Y-135749819D02*
X189699524Y-135749819D01*
X190413810Y-135702200D02*
X190318572Y-135749819D01*
X190318572Y-135749819D02*
X190128096Y-135749819D01*
X190128096Y-135749819D02*
X190032858Y-135702200D01*
X190032858Y-135702200D02*
X189985239Y-135606961D01*
X189985239Y-135606961D02*
X189985239Y-135226009D01*
X189985239Y-135226009D02*
X190032858Y-135130771D01*
X190032858Y-135130771D02*
X190128096Y-135083152D01*
X190128096Y-135083152D02*
X190318572Y-135083152D01*
X190318572Y-135083152D02*
X190413810Y-135130771D01*
X190413810Y-135130771D02*
X190461429Y-135226009D01*
X190461429Y-135226009D02*
X190461429Y-135321247D01*
X190461429Y-135321247D02*
X189985239Y-135416485D01*
X190890001Y-135083152D02*
X190890001Y-135749819D01*
X190890001Y-135178390D02*
X190937620Y-135130771D01*
X190937620Y-135130771D02*
X191032858Y-135083152D01*
X191032858Y-135083152D02*
X191175715Y-135083152D01*
X191175715Y-135083152D02*
X191270953Y-135130771D01*
X191270953Y-135130771D02*
X191318572Y-135226009D01*
X191318572Y-135226009D02*
X191318572Y-135749819D01*
X191794763Y-135083152D02*
X191794763Y-135749819D01*
X191794763Y-135178390D02*
X191842382Y-135130771D01*
X191842382Y-135130771D02*
X191937620Y-135083152D01*
X191937620Y-135083152D02*
X192080477Y-135083152D01*
X192080477Y-135083152D02*
X192175715Y-135130771D01*
X192175715Y-135130771D02*
X192223334Y-135226009D01*
X192223334Y-135226009D02*
X192223334Y-135749819D01*
X193128096Y-135749819D02*
X193128096Y-135226009D01*
X193128096Y-135226009D02*
X193080477Y-135130771D01*
X193080477Y-135130771D02*
X192985239Y-135083152D01*
X192985239Y-135083152D02*
X192794763Y-135083152D01*
X192794763Y-135083152D02*
X192699525Y-135130771D01*
X193128096Y-135702200D02*
X193032858Y-135749819D01*
X193032858Y-135749819D02*
X192794763Y-135749819D01*
X192794763Y-135749819D02*
X192699525Y-135702200D01*
X192699525Y-135702200D02*
X192651906Y-135606961D01*
X192651906Y-135606961D02*
X192651906Y-135511723D01*
X192651906Y-135511723D02*
X192699525Y-135416485D01*
X192699525Y-135416485D02*
X192794763Y-135368866D01*
X192794763Y-135368866D02*
X193032858Y-135368866D01*
X193032858Y-135368866D02*
X193128096Y-135321247D01*
X183151904Y-77599819D02*
X183151904Y-78409342D01*
X183151904Y-78409342D02*
X183199523Y-78504580D01*
X183199523Y-78504580D02*
X183247142Y-78552200D01*
X183247142Y-78552200D02*
X183342380Y-78599819D01*
X183342380Y-78599819D02*
X183532856Y-78599819D01*
X183532856Y-78599819D02*
X183628094Y-78552200D01*
X183628094Y-78552200D02*
X183675713Y-78504580D01*
X183675713Y-78504580D02*
X183723332Y-78409342D01*
X183723332Y-78409342D02*
X183723332Y-77599819D01*
X184151904Y-78552200D02*
X184294761Y-78599819D01*
X184294761Y-78599819D02*
X184532856Y-78599819D01*
X184532856Y-78599819D02*
X184628094Y-78552200D01*
X184628094Y-78552200D02*
X184675713Y-78504580D01*
X184675713Y-78504580D02*
X184723332Y-78409342D01*
X184723332Y-78409342D02*
X184723332Y-78314104D01*
X184723332Y-78314104D02*
X184675713Y-78218866D01*
X184675713Y-78218866D02*
X184628094Y-78171247D01*
X184628094Y-78171247D02*
X184532856Y-78123628D01*
X184532856Y-78123628D02*
X184342380Y-78076009D01*
X184342380Y-78076009D02*
X184247142Y-78028390D01*
X184247142Y-78028390D02*
X184199523Y-77980771D01*
X184199523Y-77980771D02*
X184151904Y-77885533D01*
X184151904Y-77885533D02*
X184151904Y-77790295D01*
X184151904Y-77790295D02*
X184199523Y-77695057D01*
X184199523Y-77695057D02*
X184247142Y-77647438D01*
X184247142Y-77647438D02*
X184342380Y-77599819D01*
X184342380Y-77599819D02*
X184580475Y-77599819D01*
X184580475Y-77599819D02*
X184723332Y-77647438D01*
X185485237Y-78076009D02*
X185628094Y-78123628D01*
X185628094Y-78123628D02*
X185675713Y-78171247D01*
X185675713Y-78171247D02*
X185723332Y-78266485D01*
X185723332Y-78266485D02*
X185723332Y-78409342D01*
X185723332Y-78409342D02*
X185675713Y-78504580D01*
X185675713Y-78504580D02*
X185628094Y-78552200D01*
X185628094Y-78552200D02*
X185532856Y-78599819D01*
X185532856Y-78599819D02*
X185151904Y-78599819D01*
X185151904Y-78599819D02*
X185151904Y-77599819D01*
X185151904Y-77599819D02*
X185485237Y-77599819D01*
X185485237Y-77599819D02*
X185580475Y-77647438D01*
X185580475Y-77647438D02*
X185628094Y-77695057D01*
X185628094Y-77695057D02*
X185675713Y-77790295D01*
X185675713Y-77790295D02*
X185675713Y-77885533D01*
X185675713Y-77885533D02*
X185628094Y-77980771D01*
X185628094Y-77980771D02*
X185580475Y-78028390D01*
X185580475Y-78028390D02*
X185485237Y-78076009D01*
X185485237Y-78076009D02*
X185151904Y-78076009D01*
X187485237Y-78504580D02*
X187437618Y-78552200D01*
X187437618Y-78552200D02*
X187294761Y-78599819D01*
X187294761Y-78599819D02*
X187199523Y-78599819D01*
X187199523Y-78599819D02*
X187056666Y-78552200D01*
X187056666Y-78552200D02*
X186961428Y-78456961D01*
X186961428Y-78456961D02*
X186913809Y-78361723D01*
X186913809Y-78361723D02*
X186866190Y-78171247D01*
X186866190Y-78171247D02*
X186866190Y-78028390D01*
X186866190Y-78028390D02*
X186913809Y-77837914D01*
X186913809Y-77837914D02*
X186961428Y-77742676D01*
X186961428Y-77742676D02*
X187056666Y-77647438D01*
X187056666Y-77647438D02*
X187199523Y-77599819D01*
X187199523Y-77599819D02*
X187294761Y-77599819D01*
X187294761Y-77599819D02*
X187437618Y-77647438D01*
X187437618Y-77647438D02*
X187485237Y-77695057D01*
X188342380Y-78599819D02*
X188342380Y-78076009D01*
X188342380Y-78076009D02*
X188294761Y-77980771D01*
X188294761Y-77980771D02*
X188199523Y-77933152D01*
X188199523Y-77933152D02*
X188009047Y-77933152D01*
X188009047Y-77933152D02*
X187913809Y-77980771D01*
X188342380Y-78552200D02*
X188247142Y-78599819D01*
X188247142Y-78599819D02*
X188009047Y-78599819D01*
X188009047Y-78599819D02*
X187913809Y-78552200D01*
X187913809Y-78552200D02*
X187866190Y-78456961D01*
X187866190Y-78456961D02*
X187866190Y-78361723D01*
X187866190Y-78361723D02*
X187913809Y-78266485D01*
X187913809Y-78266485D02*
X188009047Y-78218866D01*
X188009047Y-78218866D02*
X188247142Y-78218866D01*
X188247142Y-78218866D02*
X188342380Y-78171247D01*
X188818571Y-78599819D02*
X188818571Y-77599819D01*
X188818571Y-77980771D02*
X188913809Y-77933152D01*
X188913809Y-77933152D02*
X189104285Y-77933152D01*
X189104285Y-77933152D02*
X189199523Y-77980771D01*
X189199523Y-77980771D02*
X189247142Y-78028390D01*
X189247142Y-78028390D02*
X189294761Y-78123628D01*
X189294761Y-78123628D02*
X189294761Y-78409342D01*
X189294761Y-78409342D02*
X189247142Y-78504580D01*
X189247142Y-78504580D02*
X189199523Y-78552200D01*
X189199523Y-78552200D02*
X189104285Y-78599819D01*
X189104285Y-78599819D02*
X188913809Y-78599819D01*
X188913809Y-78599819D02*
X188818571Y-78552200D01*
X189866190Y-78599819D02*
X189770952Y-78552200D01*
X189770952Y-78552200D02*
X189723333Y-78456961D01*
X189723333Y-78456961D02*
X189723333Y-77599819D01*
X190628095Y-78552200D02*
X190532857Y-78599819D01*
X190532857Y-78599819D02*
X190342381Y-78599819D01*
X190342381Y-78599819D02*
X190247143Y-78552200D01*
X190247143Y-78552200D02*
X190199524Y-78456961D01*
X190199524Y-78456961D02*
X190199524Y-78076009D01*
X190199524Y-78076009D02*
X190247143Y-77980771D01*
X190247143Y-77980771D02*
X190342381Y-77933152D01*
X190342381Y-77933152D02*
X190532857Y-77933152D01*
X190532857Y-77933152D02*
X190628095Y-77980771D01*
X190628095Y-77980771D02*
X190675714Y-78076009D01*
X190675714Y-78076009D02*
X190675714Y-78171247D01*
X190675714Y-78171247D02*
X190199524Y-78266485D01*
%TO.C,H8*%
X230130000Y-158000000D02*
G75*
G02*
X224530000Y-158000000I-2800000J0D01*
G01*
X224530000Y-158000000D02*
G75*
G02*
X230130000Y-158000000I2800000J0D01*
G01*
%TO.C,H7*%
X230130000Y-93218000D02*
G75*
G02*
X224530000Y-93218000I-2800000J0D01*
G01*
X224530000Y-93218000D02*
G75*
G02*
X230130000Y-93218000I2800000J0D01*
G01*
%TO.C,H6*%
X170800000Y-157988000D02*
G75*
G02*
X165200000Y-157988000I-2800000J0D01*
G01*
X165200000Y-157988000D02*
G75*
G02*
X170800000Y-157988000I2800000J0D01*
G01*
%TO.C,H3*%
X154800000Y-93500000D02*
G75*
G02*
X149200000Y-93500000I-2800000J0D01*
G01*
X149200000Y-93500000D02*
G75*
G02*
X154800000Y-93500000I2800000J0D01*
G01*
%TO.C,H2*%
X116084000Y-158000000D02*
G75*
G02*
X110484000Y-158000000I-2800000J0D01*
G01*
X110484000Y-158000000D02*
G75*
G02*
X116084000Y-158000000I2800000J0D01*
G01*
%TO.C,H4*%
X154800000Y-158000000D02*
G75*
G02*
X149200000Y-158000000I-2800000J0D01*
G01*
X149200000Y-158000000D02*
G75*
G02*
X154800000Y-158000000I2800000J0D01*
G01*
%TO.C,H1*%
X116338000Y-85344000D02*
G75*
G02*
X110738000Y-85344000I-2800000J0D01*
G01*
X110738000Y-85344000D02*
G75*
G02*
X116338000Y-85344000I2800000J0D01*
G01*
%TD*%
M02*
