%TF.GenerationSoftware,KiCad,Pcbnew,9.0.7-9.0.7~ubuntu24.04.1*%
%TF.CreationDate,2026-01-08T21:52:10+09:00*%
%TF.ProjectId,Gender_Raspberry_PICO,47656e64-6572-45f5-9261-737062657272,rev?*%
%TF.SameCoordinates,Original*%
%TF.FileFunction,Other,User*%
%FSLAX46Y46*%
G04 Gerber Fmt 4.6, Leading zero omitted, Abs format (unit mm)*
G04 Created by KiCad (PCBNEW 9.0.7-9.0.7~ubuntu24.04.1) date 2026-01-08 21:52:10*
%MOMM*%
%LPD*%
G01*
G04 APERTURE LIST*
%ADD10C,0.050000*%
G04 APERTURE END LIST*
%TO.C,J10*%
D10*
X165690000Y-92650000D02*
X171780000Y-92650000D01*
X171780000Y-113970000D01*
X165690000Y-113970000D01*
X165690000Y-92650000D01*
%TO.C,SW3*%
X118550000Y-145830000D02*
X128830000Y-145830000D01*
X128830000Y-153710000D01*
X118550000Y-153710000D01*
X118550000Y-145830000D01*
%TO.C,J9*%
X129650000Y-152810000D02*
X140810000Y-152810000D01*
X140810000Y-146720000D01*
X129650000Y-146720000D01*
X129650000Y-152810000D01*
%TO.C,H8*%
X230380000Y-158000000D02*
G75*
G02*
X224280000Y-158000000I-3050000J0D01*
G01*
X224280000Y-158000000D02*
G75*
G02*
X230380000Y-158000000I3050000J0D01*
G01*
%TO.C,H7*%
X230380000Y-93218000D02*
G75*
G02*
X224280000Y-93218000I-3050000J0D01*
G01*
X224280000Y-93218000D02*
G75*
G02*
X230380000Y-93218000I3050000J0D01*
G01*
%TO.C,H6*%
X171050000Y-157988000D02*
G75*
G02*
X164950000Y-157988000I-3050000J0D01*
G01*
X164950000Y-157988000D02*
G75*
G02*
X171050000Y-157988000I3050000J0D01*
G01*
%TO.C,H3*%
X155050000Y-93500000D02*
G75*
G02*
X148950000Y-93500000I-3050000J0D01*
G01*
X148950000Y-93500000D02*
G75*
G02*
X155050000Y-93500000I3050000J0D01*
G01*
%TO.C,H2*%
X116334000Y-158000000D02*
G75*
G02*
X110234000Y-158000000I-3050000J0D01*
G01*
X110234000Y-158000000D02*
G75*
G02*
X116334000Y-158000000I3050000J0D01*
G01*
%TO.C,H4*%
X155050000Y-158000000D02*
G75*
G02*
X148950000Y-158000000I-3050000J0D01*
G01*
X148950000Y-158000000D02*
G75*
G02*
X155050000Y-158000000I3050000J0D01*
G01*
%TO.C,H1*%
X116588000Y-85344000D02*
G75*
G02*
X110488000Y-85344000I-3050000J0D01*
G01*
X110488000Y-85344000D02*
G75*
G02*
X116588000Y-85344000I3050000J0D01*
G01*
%TO.C,R8*%
X164658000Y-123878000D02*
X164658000Y-125978000D01*
X164658000Y-125978000D02*
X174178000Y-125978000D01*
X174178000Y-123878000D02*
X164658000Y-123878000D01*
X174178000Y-125978000D02*
X174178000Y-123878000D01*
%TO.C,C1*%
X219450000Y-117450000D02*
X219450000Y-120550000D01*
X219450000Y-120550000D02*
X224050000Y-120550000D01*
X224050000Y-117450000D02*
X219450000Y-117450000D01*
X224050000Y-120550000D02*
X224050000Y-117450000D01*
%TO.C,RV1*%
X212950000Y-134030000D02*
X212950000Y-126970000D01*
X212950000Y-134030000D02*
X220530000Y-134030000D01*
X220530000Y-126970000D02*
X212950000Y-126970000D01*
X220530000Y-126970000D02*
X220530000Y-134030000D01*
%TO.C,J8*%
X157458000Y-91672000D02*
X157458000Y-95272000D01*
X157458000Y-95272000D02*
X163608000Y-95272000D01*
X163608000Y-91672000D02*
X157458000Y-91672000D01*
X163608000Y-95272000D02*
X163608000Y-91672000D01*
%TO.C,R13*%
X119050000Y-157950000D02*
X128570000Y-157950000D01*
X128570000Y-160050000D01*
X119050000Y-160050000D01*
X119050000Y-157950000D01*
%TO.C,R1*%
X211430000Y-121950000D02*
X211430000Y-124050000D01*
X211430000Y-124050000D02*
X220950000Y-124050000D01*
X220950000Y-121950000D02*
X211430000Y-121950000D01*
X220950000Y-124050000D02*
X220950000Y-121950000D01*
%TO.C,C2*%
X226500000Y-112000000D02*
G75*
G02*
X217000000Y-112000000I-4750000J0D01*
G01*
X217000000Y-112000000D02*
G75*
G02*
X226500000Y-112000000I4750000J0D01*
G01*
%TO.C,R2*%
X211930000Y-103450000D02*
X211930000Y-105550000D01*
X211930000Y-105550000D02*
X221450000Y-105550000D01*
X221450000Y-103450000D02*
X211930000Y-103450000D01*
X221450000Y-105550000D02*
X221450000Y-103450000D01*
%TO.C,J2*%
X110200000Y-114060000D02*
X110200000Y-130360000D01*
X110200000Y-130360000D02*
X116350000Y-130360000D01*
X116350000Y-114060000D02*
X110200000Y-114060000D01*
X116350000Y-130360000D02*
X116350000Y-114060000D01*
%TO.C,J3*%
X110200000Y-136920000D02*
X110200000Y-153220000D01*
X110200000Y-153220000D02*
X116350000Y-153220000D01*
X116350000Y-136920000D02*
X110200000Y-136920000D01*
X116350000Y-153220000D02*
X116350000Y-136920000D01*
%TO.C,R6*%
X164658000Y-118878000D02*
X164658000Y-120978000D01*
X164658000Y-120978000D02*
X174178000Y-120978000D01*
X174178000Y-118878000D02*
X164658000Y-118878000D01*
X174178000Y-120978000D02*
X174178000Y-118878000D01*
%TO.C,R7*%
X164658000Y-121378000D02*
X164658000Y-123478000D01*
X164658000Y-123478000D02*
X174178000Y-123478000D01*
X174178000Y-121378000D02*
X164658000Y-121378000D01*
X174178000Y-123478000D02*
X174178000Y-121378000D01*
%TO.C,RV2*%
X212950000Y-101030000D02*
X212950000Y-93970000D01*
X212950000Y-101030000D02*
X220530000Y-101030000D01*
X220530000Y-93970000D02*
X212950000Y-93970000D01*
X220530000Y-93970000D02*
X220530000Y-101030000D01*
%TO.C,C4*%
X214450000Y-137200000D02*
X214450000Y-141800000D01*
X214450000Y-141800000D02*
X217550000Y-141800000D01*
X217550000Y-137200000D02*
X214450000Y-137200000D01*
X217550000Y-141800000D02*
X217550000Y-137200000D01*
%TO.C,J1*%
X110200000Y-91200000D02*
X110200000Y-107500000D01*
X110200000Y-107500000D02*
X116350000Y-107500000D01*
X116350000Y-91200000D02*
X110200000Y-91200000D01*
X116350000Y-107500000D02*
X116350000Y-91200000D01*
%TO.C,J4*%
X224006000Y-124428000D02*
X224006000Y-130578000D01*
X224006000Y-130578000D02*
X227606000Y-130578000D01*
X227606000Y-124428000D02*
X224006000Y-124428000D01*
X227606000Y-130578000D02*
X227606000Y-124428000D01*
%TO.C,D1*%
X201330000Y-131750000D02*
X201330000Y-134250000D01*
X201330000Y-134250000D02*
X211050000Y-134250000D01*
X211050000Y-131750000D02*
X201330000Y-131750000D01*
X211050000Y-134250000D02*
X211050000Y-131750000D01*
%TO.C,J7*%
X221160000Y-135700000D02*
X221160000Y-139300000D01*
X221160000Y-139300000D02*
X227310000Y-139300000D01*
X227310000Y-135700000D02*
X221160000Y-135700000D01*
X227310000Y-139300000D02*
X227310000Y-135700000D01*
%TO.C,D4*%
X201330000Y-93750000D02*
X201330000Y-96250000D01*
X201330000Y-96250000D02*
X211050000Y-96250000D01*
X211050000Y-93750000D02*
X201330000Y-93750000D01*
X211050000Y-96250000D02*
X211050000Y-93750000D01*
%TO.C,D3*%
X201640000Y-98750000D02*
X201640000Y-101250000D01*
X201640000Y-101250000D02*
X211360000Y-101250000D01*
X211360000Y-98750000D02*
X201640000Y-98750000D01*
X211360000Y-101250000D02*
X211360000Y-98750000D01*
%TO.C,R14*%
X118930000Y-155450000D02*
X128450000Y-155450000D01*
X128450000Y-157550000D01*
X118930000Y-157550000D01*
X118930000Y-155450000D01*
%TO.C,C3*%
X152914000Y-112242000D02*
X152914000Y-115342000D01*
X152914000Y-115342000D02*
X157514000Y-115342000D01*
X157514000Y-112242000D02*
X152914000Y-112242000D01*
X157514000Y-115342000D02*
X157514000Y-112242000D01*
%TO.C,R9*%
X164658000Y-126378000D02*
X164658000Y-128478000D01*
X164658000Y-128478000D02*
X174178000Y-128478000D01*
X174178000Y-126378000D02*
X164658000Y-126378000D01*
X174178000Y-128478000D02*
X174178000Y-126378000D01*
%TO.C,J5*%
X224006000Y-98520000D02*
X224006000Y-104670000D01*
X224006000Y-104670000D02*
X227606000Y-104670000D01*
X227606000Y-98520000D02*
X224006000Y-98520000D01*
X227606000Y-104670000D02*
X227606000Y-98520000D01*
%TO.C,U1*%
X138610000Y-89880000D02*
X145650000Y-89880000D01*
X145650000Y-142180000D01*
X122570000Y-142180000D01*
X122570000Y-89880000D01*
X129610000Y-89880000D01*
X129610000Y-88330000D01*
X138610000Y-88330000D01*
X138610000Y-89880000D01*
%TO.C,U3*%
X203144000Y-120138000D02*
X213924000Y-120138000D01*
X213924000Y-109478000D01*
X203144000Y-109478000D01*
X203144000Y-120138000D01*
%TO.C,SW1*%
X150138000Y-101370000D02*
X150388000Y-101370000D01*
X150138000Y-101620000D02*
X150138000Y-101370000D01*
X150138000Y-108620000D02*
X150138000Y-101620000D01*
X150138000Y-108620000D02*
X150138000Y-108870000D01*
X150138000Y-108870000D02*
X150388000Y-108870000D01*
X150388000Y-101370000D02*
X159388000Y-101370000D01*
X159388000Y-101370000D02*
X159638000Y-101370000D01*
X159388000Y-108870000D02*
X150388000Y-108870000D01*
X159388000Y-108870000D02*
X159638000Y-108870000D01*
X159638000Y-101370000D02*
X159638000Y-101620000D01*
X159638000Y-101620000D02*
X159638000Y-108620000D01*
X159638000Y-108870000D02*
X159638000Y-108620000D01*
%TO.C,SW2*%
X202750000Y-136750000D02*
X203000000Y-136750000D01*
X202750000Y-137000000D02*
X202750000Y-136750000D01*
X202750000Y-144000000D02*
X202750000Y-137000000D01*
X202750000Y-144000000D02*
X202750000Y-144250000D01*
X202750000Y-144250000D02*
X203000000Y-144250000D01*
X203000000Y-136750000D02*
X212000000Y-136750000D01*
X212000000Y-136750000D02*
X212250000Y-136750000D01*
X212000000Y-144250000D02*
X203000000Y-144250000D01*
X212000000Y-144250000D02*
X212250000Y-144250000D01*
X212250000Y-136750000D02*
X212250000Y-137000000D01*
X212250000Y-137000000D02*
X212250000Y-144000000D01*
X212250000Y-144250000D02*
X212250000Y-144000000D01*
%TO.C,R5*%
X164658000Y-116378000D02*
X164658000Y-118478000D01*
X164658000Y-118478000D02*
X174178000Y-118478000D01*
X174178000Y-116378000D02*
X164658000Y-116378000D01*
X174178000Y-118478000D02*
X174178000Y-116378000D01*
%TO.C,R12*%
X164658000Y-133878000D02*
X164658000Y-135978000D01*
X164658000Y-135978000D02*
X174178000Y-135978000D01*
X174178000Y-133878000D02*
X164658000Y-133878000D01*
X174178000Y-135978000D02*
X174178000Y-133878000D01*
%TO.C,R11*%
X164658000Y-131378000D02*
X164658000Y-133478000D01*
X164658000Y-133478000D02*
X174178000Y-133478000D01*
X174178000Y-131378000D02*
X164658000Y-131378000D01*
X174178000Y-133478000D02*
X174178000Y-131378000D01*
%TO.C,R4*%
X201240000Y-103450000D02*
X201240000Y-105550000D01*
X201240000Y-105550000D02*
X210760000Y-105550000D01*
X210760000Y-103450000D02*
X201240000Y-103450000D01*
X210760000Y-105550000D02*
X210760000Y-103450000D01*
%TO.C,R10*%
X164658000Y-128878000D02*
X164658000Y-130978000D01*
X164658000Y-130978000D02*
X174178000Y-130978000D01*
X174178000Y-128878000D02*
X164658000Y-128878000D01*
X174178000Y-130978000D02*
X174178000Y-128878000D01*
%TO.C,U2*%
X191390000Y-89860000D02*
X198430000Y-89860000D01*
X198430000Y-142160000D01*
X175350000Y-142160000D01*
X175350000Y-89860000D01*
X182390000Y-89860000D01*
X182390000Y-88310000D01*
X191390000Y-88310000D01*
X191390000Y-89860000D01*
%TO.C,J6*%
X179048000Y-147288000D02*
X179048000Y-153438000D01*
X179048000Y-153438000D02*
X200398000Y-153438000D01*
X200398000Y-147288000D02*
X179048000Y-147288000D01*
X200398000Y-153438000D02*
X200398000Y-147288000D01*
%TO.C,R3*%
X200930000Y-121950000D02*
X200930000Y-124050000D01*
X200930000Y-124050000D02*
X210450000Y-124050000D01*
X210450000Y-121950000D02*
X200930000Y-121950000D01*
X210450000Y-124050000D02*
X210450000Y-121950000D01*
%TO.C,D2*%
X201330000Y-127250000D02*
X201330000Y-129750000D01*
X201330000Y-129750000D02*
X211050000Y-129750000D01*
X211050000Y-127250000D02*
X201330000Y-127250000D01*
X211050000Y-129750000D02*
X211050000Y-127250000D01*
%TD*%
M02*
