%TF.GenerationSoftware,KiCad,Pcbnew,9.0.2-9.0.2-0~ubuntu24.04.1*%
%TF.CreationDate,2025-05-26T11:18:29+09:00*%
%TF.ProjectId,LevelShifter,4c657665-6c53-4686-9966-7465722e6b69,rev?*%
%TF.SameCoordinates,Original*%
%TF.FileFunction,Legend,Top*%
%TF.FilePolarity,Positive*%
%FSLAX46Y46*%
G04 Gerber Fmt 4.6, Leading zero omitted, Abs format (unit mm)*
G04 Created by KiCad (PCBNEW 9.0.2-9.0.2-0~ubuntu24.04.1) date 2025-05-26 11:18:29*
%MOMM*%
%LPD*%
G01*
G04 APERTURE LIST*
%ADD10C,0.200000*%
%ADD11C,0.100000*%
%ADD12C,0.120000*%
G04 APERTURE END LIST*
D10*
X149509257Y-112383673D02*
X150709257Y-112383673D01*
X150137828Y-112383673D02*
X150137828Y-112955101D01*
X149509257Y-112955101D02*
X150709257Y-112955101D01*
X149509257Y-113431292D02*
X150309257Y-113431292D01*
X150709257Y-113431292D02*
X150652114Y-113383673D01*
X150652114Y-113383673D02*
X150594971Y-113431292D01*
X150594971Y-113431292D02*
X150652114Y-113478911D01*
X150652114Y-113478911D02*
X150709257Y-113431292D01*
X150709257Y-113431292D02*
X150594971Y-113431292D01*
X150309257Y-114336053D02*
X149337828Y-114336053D01*
X149337828Y-114336053D02*
X149223542Y-114288434D01*
X149223542Y-114288434D02*
X149166400Y-114240815D01*
X149166400Y-114240815D02*
X149109257Y-114145577D01*
X149109257Y-114145577D02*
X149109257Y-114002720D01*
X149109257Y-114002720D02*
X149166400Y-113907482D01*
X149566400Y-114336053D02*
X149509257Y-114240815D01*
X149509257Y-114240815D02*
X149509257Y-114050339D01*
X149509257Y-114050339D02*
X149566400Y-113955101D01*
X149566400Y-113955101D02*
X149623542Y-113907482D01*
X149623542Y-113907482D02*
X149737828Y-113859863D01*
X149737828Y-113859863D02*
X150080685Y-113859863D01*
X150080685Y-113859863D02*
X150194971Y-113907482D01*
X150194971Y-113907482D02*
X150252114Y-113955101D01*
X150252114Y-113955101D02*
X150309257Y-114050339D01*
X150309257Y-114050339D02*
X150309257Y-114240815D01*
X150309257Y-114240815D02*
X150252114Y-114336053D01*
X149509257Y-114812244D02*
X150709257Y-114812244D01*
X149509257Y-115240815D02*
X150137828Y-115240815D01*
X150137828Y-115240815D02*
X150252114Y-115193196D01*
X150252114Y-115193196D02*
X150309257Y-115097958D01*
X150309257Y-115097958D02*
X150309257Y-114955101D01*
X150309257Y-114955101D02*
X150252114Y-114859863D01*
X150252114Y-114859863D02*
X150194971Y-114812244D01*
X150709257Y-116336054D02*
X149509257Y-116669387D01*
X149509257Y-116669387D02*
X150709257Y-117002720D01*
X149509257Y-117478911D02*
X149566400Y-117383673D01*
X149566400Y-117383673D02*
X149623542Y-117336054D01*
X149623542Y-117336054D02*
X149737828Y-117288435D01*
X149737828Y-117288435D02*
X150080685Y-117288435D01*
X150080685Y-117288435D02*
X150194971Y-117336054D01*
X150194971Y-117336054D02*
X150252114Y-117383673D01*
X150252114Y-117383673D02*
X150309257Y-117478911D01*
X150309257Y-117478911D02*
X150309257Y-117621768D01*
X150309257Y-117621768D02*
X150252114Y-117717006D01*
X150252114Y-117717006D02*
X150194971Y-117764625D01*
X150194971Y-117764625D02*
X150080685Y-117812244D01*
X150080685Y-117812244D02*
X149737828Y-117812244D01*
X149737828Y-117812244D02*
X149623542Y-117764625D01*
X149623542Y-117764625D02*
X149566400Y-117717006D01*
X149566400Y-117717006D02*
X149509257Y-117621768D01*
X149509257Y-117621768D02*
X149509257Y-117478911D01*
X149509257Y-118383673D02*
X149566400Y-118288435D01*
X149566400Y-118288435D02*
X149680685Y-118240816D01*
X149680685Y-118240816D02*
X150709257Y-118240816D01*
X150309257Y-118621769D02*
X150309257Y-119002721D01*
X150709257Y-118764626D02*
X149680685Y-118764626D01*
X149680685Y-118764626D02*
X149566400Y-118812245D01*
X149566400Y-118812245D02*
X149509257Y-118907483D01*
X149509257Y-118907483D02*
X149509257Y-119002721D01*
X144429257Y-112859863D02*
X144429257Y-112383673D01*
X144429257Y-112383673D02*
X145629257Y-112383673D01*
X144429257Y-113336054D02*
X144486400Y-113240816D01*
X144486400Y-113240816D02*
X144543542Y-113193197D01*
X144543542Y-113193197D02*
X144657828Y-113145578D01*
X144657828Y-113145578D02*
X145000685Y-113145578D01*
X145000685Y-113145578D02*
X145114971Y-113193197D01*
X145114971Y-113193197D02*
X145172114Y-113240816D01*
X145172114Y-113240816D02*
X145229257Y-113336054D01*
X145229257Y-113336054D02*
X145229257Y-113478911D01*
X145229257Y-113478911D02*
X145172114Y-113574149D01*
X145172114Y-113574149D02*
X145114971Y-113621768D01*
X145114971Y-113621768D02*
X145000685Y-113669387D01*
X145000685Y-113669387D02*
X144657828Y-113669387D01*
X144657828Y-113669387D02*
X144543542Y-113621768D01*
X144543542Y-113621768D02*
X144486400Y-113574149D01*
X144486400Y-113574149D02*
X144429257Y-113478911D01*
X144429257Y-113478911D02*
X144429257Y-113336054D01*
X145229257Y-114002721D02*
X144429257Y-114193197D01*
X144429257Y-114193197D02*
X145000685Y-114383673D01*
X145000685Y-114383673D02*
X144429257Y-114574149D01*
X144429257Y-114574149D02*
X145229257Y-114764625D01*
X145629257Y-115764626D02*
X144429257Y-116097959D01*
X144429257Y-116097959D02*
X145629257Y-116431292D01*
X144429257Y-116907483D02*
X144486400Y-116812245D01*
X144486400Y-116812245D02*
X144543542Y-116764626D01*
X144543542Y-116764626D02*
X144657828Y-116717007D01*
X144657828Y-116717007D02*
X145000685Y-116717007D01*
X145000685Y-116717007D02*
X145114971Y-116764626D01*
X145114971Y-116764626D02*
X145172114Y-116812245D01*
X145172114Y-116812245D02*
X145229257Y-116907483D01*
X145229257Y-116907483D02*
X145229257Y-117050340D01*
X145229257Y-117050340D02*
X145172114Y-117145578D01*
X145172114Y-117145578D02*
X145114971Y-117193197D01*
X145114971Y-117193197D02*
X145000685Y-117240816D01*
X145000685Y-117240816D02*
X144657828Y-117240816D01*
X144657828Y-117240816D02*
X144543542Y-117193197D01*
X144543542Y-117193197D02*
X144486400Y-117145578D01*
X144486400Y-117145578D02*
X144429257Y-117050340D01*
X144429257Y-117050340D02*
X144429257Y-116907483D01*
X144429257Y-117812245D02*
X144486400Y-117717007D01*
X144486400Y-117717007D02*
X144600685Y-117669388D01*
X144600685Y-117669388D02*
X145629257Y-117669388D01*
X145229257Y-118050341D02*
X145229257Y-118431293D01*
X145629257Y-118193198D02*
X144600685Y-118193198D01*
X144600685Y-118193198D02*
X144486400Y-118240817D01*
X144486400Y-118240817D02*
X144429257Y-118336055D01*
X144429257Y-118336055D02*
X144429257Y-118431293D01*
D11*
X140860000Y-125675000D02*
X144272000Y-125675000D01*
X144272000Y-128778000D01*
X140860000Y-128778000D01*
X140860000Y-125675000D01*
G36*
X140860000Y-125675000D02*
G01*
X144272000Y-125675000D01*
X144272000Y-128778000D01*
X140860000Y-128778000D01*
X140860000Y-125675000D01*
G37*
X140853000Y-110490000D02*
X144018000Y-110490000D01*
X144018000Y-113538000D01*
X140853000Y-113538000D01*
X140853000Y-110490000D01*
G36*
X140853000Y-110490000D02*
G01*
X144018000Y-110490000D01*
X144018000Y-113538000D01*
X140853000Y-113538000D01*
X140853000Y-110490000D01*
G37*
D12*
%TO.C,J4*%
X151020000Y-125620000D02*
X152400000Y-125620000D01*
X151020000Y-127000000D02*
X151020000Y-125620000D01*
X151020000Y-128270000D02*
X151020000Y-141080000D01*
X151020000Y-128270000D02*
X153780000Y-128270000D01*
X151020000Y-141080000D02*
X153780000Y-141080000D01*
X153780000Y-128270000D02*
X153780000Y-141080000D01*
%TO.C,J3*%
X140860000Y-125620000D02*
X142240000Y-125620000D01*
X140860000Y-127000000D02*
X140860000Y-125620000D01*
X140860000Y-128270000D02*
X140860000Y-141080000D01*
X140860000Y-128270000D02*
X143620000Y-128270000D01*
X140860000Y-141080000D02*
X143620000Y-141080000D01*
X143620000Y-128270000D02*
X143620000Y-141080000D01*
%TO.C,J2*%
X151020000Y-110380000D02*
X152400000Y-110380000D01*
X151020000Y-111760000D02*
X151020000Y-110380000D01*
X151020000Y-113030000D02*
X151020000Y-125840000D01*
X151020000Y-113030000D02*
X153780000Y-113030000D01*
X151020000Y-125840000D02*
X153780000Y-125840000D01*
X153780000Y-113030000D02*
X153780000Y-125840000D01*
%TO.C,J1*%
X140860000Y-110380000D02*
X142240000Y-110380000D01*
X140860000Y-111760000D02*
X140860000Y-110380000D01*
X140860000Y-113030000D02*
X140860000Y-125840000D01*
X140860000Y-113030000D02*
X143620000Y-113030000D01*
X140860000Y-125840000D02*
X143620000Y-125840000D01*
X143620000Y-113030000D02*
X143620000Y-125840000D01*
%TO.C,U1*%
X154970000Y-111780000D02*
X154970000Y-137280000D01*
X142240000Y-114300000D02*
X142240000Y-111780000D01*
X142240000Y-111780000D02*
X154970000Y-111780000D01*
X139720000Y-137280000D02*
X154970000Y-137280000D01*
X139720000Y-114300000D02*
X142240000Y-114300000D01*
X139720000Y-114300000D02*
X139720000Y-137280000D01*
X139720000Y-113030000D02*
X139720000Y-111780000D01*
X139720000Y-111780000D02*
X140970000Y-111780000D01*
%TD*%
M02*
