%TF.GenerationSoftware,KiCad,Pcbnew,9.0.2-9.0.2-0~ubuntu24.04.1*%
%TF.CreationDate,2025-05-26T11:18:29+09:00*%
%TF.ProjectId,LevelShifter,4c657665-6c53-4686-9966-7465722e6b69,rev?*%
%TF.SameCoordinates,Original*%
%TF.FileFunction,Soldermask,Top*%
%TF.FilePolarity,Negative*%
%FSLAX46Y46*%
G04 Gerber Fmt 4.6, Leading zero omitted, Abs format (unit mm)*
G04 Created by KiCad (PCBNEW 9.0.2-9.0.2-0~ubuntu24.04.1) date 2025-05-26 11:18:29*
%MOMM*%
%LPD*%
G01*
G04 APERTURE LIST*
%ADD10C,1.400000*%
G04 APERTURE END LIST*
D10*
%TO.C,J4*%
X152400000Y-127000000D03*
X152400000Y-129540000D03*
X152400000Y-132080000D03*
X152400000Y-134620000D03*
X152400000Y-137160000D03*
X152400000Y-139700000D03*
%TD*%
%TO.C,J3*%
X142240000Y-127000000D03*
X142240000Y-129540000D03*
X142240000Y-132080000D03*
X142240000Y-134620000D03*
X142240000Y-137160000D03*
X142240000Y-139700000D03*
%TD*%
%TO.C,J2*%
X152400000Y-111760000D03*
X152400000Y-114300000D03*
X152400000Y-116840000D03*
X152400000Y-119380000D03*
X152400000Y-121920000D03*
X152400000Y-124460000D03*
%TD*%
%TO.C,J1*%
X142240000Y-111760000D03*
X142240000Y-114300000D03*
X142240000Y-116840000D03*
X142240000Y-119380000D03*
X142240000Y-121920000D03*
X142240000Y-124460000D03*
%TD*%
%TO.C,U1*%
X140970000Y-113030000D03*
X140970000Y-115570000D03*
X140970000Y-118110000D03*
X140970000Y-120650000D03*
X140970000Y-123190000D03*
X140970000Y-125730000D03*
X140970000Y-128270000D03*
X140970000Y-130810000D03*
X140970000Y-133350000D03*
X140970000Y-135890000D03*
X153670000Y-135890000D03*
X153670000Y-133350000D03*
X153670000Y-130810000D03*
X153670000Y-128270000D03*
X153670000Y-125730000D03*
X153670000Y-123190000D03*
X153670000Y-120650000D03*
X153670000Y-118110000D03*
X153670000Y-115570000D03*
X153670000Y-113030000D03*
%TD*%
M02*
