%TF.GenerationSoftware,KiCad,Pcbnew,9.0.2-9.0.2-0~ubuntu24.04.1*%
%TF.CreationDate,2025-05-26T11:18:28+09:00*%
%TF.ProjectId,LevelShifter,4c657665-6c53-4686-9966-7465722e6b69,rev?*%
%TF.SameCoordinates,Original*%
%TF.FileFunction,Copper,L1,Top*%
%TF.FilePolarity,Positive*%
%FSLAX46Y46*%
G04 Gerber Fmt 4.6, Leading zero omitted, Abs format (unit mm)*
G04 Created by KiCad (PCBNEW 9.0.2-9.0.2-0~ubuntu24.04.1) date 2025-05-26 11:18:28*
%MOMM*%
%LPD*%
G01*
G04 APERTURE LIST*
%TA.AperFunction,ComponentPad*%
%ADD10C,1.400000*%
%TD*%
%TA.AperFunction,ViaPad*%
%ADD11C,0.600000*%
%TD*%
%TA.AperFunction,Conductor*%
%ADD12C,0.200000*%
%TD*%
G04 APERTURE END LIST*
D10*
%TO.P,J4,1,Pin_1*%
%TO.N,/HV5*%
X152400000Y-127000000D03*
%TO.P,J4,2,Pin_2*%
%TO.N,/HV6*%
X152400000Y-129540000D03*
%TO.P,J4,3,Pin_3*%
%TO.N,VCCB*%
X152400000Y-132080000D03*
%TO.P,J4,4,Pin_4*%
%TO.N,GND*%
X152400000Y-134620000D03*
%TO.P,J4,5,Pin_5*%
%TO.N,/HV7*%
X152400000Y-137160000D03*
%TO.P,J4,6,Pin_6*%
%TO.N,/HV8*%
X152400000Y-139700000D03*
%TD*%
%TO.P,J3,1,Pin_1*%
%TO.N,/LV5*%
X142240000Y-127000000D03*
%TO.P,J3,2,Pin_2*%
%TO.N,/LV6*%
X142240000Y-129540000D03*
%TO.P,J3,3,Pin_3*%
%TO.N,VCCA*%
X142240000Y-132080000D03*
%TO.P,J3,4,Pin_4*%
%TO.N,GND*%
X142240000Y-134620000D03*
%TO.P,J3,5,Pin_5*%
%TO.N,/LV7*%
X142240000Y-137160000D03*
%TO.P,J3,6,Pin_6*%
%TO.N,/LV8*%
X142240000Y-139700000D03*
%TD*%
%TO.P,J2,1,Pin_1*%
%TO.N,/HV1*%
X152400000Y-111760000D03*
%TO.P,J2,2,Pin_2*%
%TO.N,/HV2*%
X152400000Y-114300000D03*
%TO.P,J2,3,Pin_3*%
%TO.N,VCCB*%
X152400000Y-116840000D03*
%TO.P,J2,4,Pin_4*%
%TO.N,GND*%
X152400000Y-119380000D03*
%TO.P,J2,5,Pin_5*%
%TO.N,/HV3*%
X152400000Y-121920000D03*
%TO.P,J2,6,Pin_6*%
%TO.N,/HV4*%
X152400000Y-124460000D03*
%TD*%
%TO.P,J1,1,Pin_1*%
%TO.N,/LV1*%
X142240000Y-111760000D03*
%TO.P,J1,2,Pin_2*%
%TO.N,/LV2*%
X142240000Y-114300000D03*
%TO.P,J1,3,Pin_3*%
%TO.N,VCCA*%
X142240000Y-116840000D03*
%TO.P,J1,4,Pin_4*%
%TO.N,GND*%
X142240000Y-119380000D03*
%TO.P,J1,5,Pin_5*%
%TO.N,/LV3*%
X142240000Y-121920000D03*
%TO.P,J1,6,Pin_6*%
%TO.N,/LV4*%
X142240000Y-124460000D03*
%TD*%
%TO.P,U1,1,VCCA*%
%TO.N,VCCA*%
X140970000Y-113030000D03*
%TO.P,U1,2,A1*%
%TO.N,/LV1*%
X140970000Y-115570000D03*
%TO.P,U1,3,A2*%
%TO.N,/LV2*%
X140970000Y-118110000D03*
%TO.P,U1,4,A3*%
%TO.N,/LV3*%
X140970000Y-120650000D03*
%TO.P,U1,5,A4*%
%TO.N,/LV4*%
X140970000Y-123190000D03*
%TO.P,U1,6,A5*%
%TO.N,/LV5*%
X140970000Y-125730000D03*
%TO.P,U1,7,A6*%
%TO.N,/LV6*%
X140970000Y-128270000D03*
%TO.P,U1,8,A7*%
%TO.N,/LV7*%
X140970000Y-130810000D03*
%TO.P,U1,9,A8*%
%TO.N,/LV8*%
X140970000Y-133350000D03*
%TO.P,U1,10,OE*%
%TO.N,unconnected-(U1-OE-Pad10)*%
X140970000Y-135890000D03*
%TO.P,U1,11,GND*%
%TO.N,GND*%
X153670000Y-135890000D03*
%TO.P,U1,12,B8*%
%TO.N,/HV8*%
X153670000Y-133350000D03*
%TO.P,U1,13,B7*%
%TO.N,/HV7*%
X153670000Y-130810000D03*
%TO.P,U1,14,B6*%
%TO.N,/HV6*%
X153670000Y-128270000D03*
%TO.P,U1,15,B5*%
%TO.N,/HV5*%
X153670000Y-125730000D03*
%TO.P,U1,16,B4*%
%TO.N,/HV4*%
X153670000Y-123190000D03*
%TO.P,U1,17,B3*%
%TO.N,/HV3*%
X153670000Y-120650000D03*
%TO.P,U1,18,B2*%
%TO.N,/HV2*%
X153670000Y-118110000D03*
%TO.P,U1,19,B1*%
%TO.N,/HV1*%
X153670000Y-115570000D03*
%TO.P,U1,20,VCCB*%
%TO.N,VCCB*%
X153670000Y-113030000D03*
%TD*%
D11*
%TO.N,GND*%
X150114000Y-128270000D03*
X150114000Y-123190000D03*
X150114000Y-118872000D03*
X144018000Y-118872000D03*
X144018000Y-128270000D03*
X144018000Y-123190000D03*
X147066000Y-119634000D03*
X147066000Y-112522000D03*
X147320000Y-138176000D03*
X147066000Y-132842000D03*
X147066000Y-128016000D03*
%TO.N,VCCB*%
X148844000Y-116840000D03*
%TO.N,VCCA*%
X145288000Y-116840000D03*
%TD*%
D12*
%TO.N,GND*%
X154847000Y-119380000D02*
X154847000Y-119126000D01*
X154847000Y-134620000D02*
X154847000Y-119126000D01*
X152400000Y-134620000D02*
X154847000Y-134620000D01*
X154847000Y-139700000D02*
X154847000Y-136398000D01*
X154847000Y-134620000D02*
X154847000Y-136398000D01*
X139793000Y-134620000D02*
X139793000Y-140301000D01*
X154847000Y-136398000D02*
X154847000Y-135890000D01*
X139793000Y-140301000D02*
X140369000Y-140877000D01*
X140369000Y-140877000D02*
X153670000Y-140877000D01*
X153670000Y-140877000D02*
X154847000Y-139700000D01*
X154847000Y-135890000D02*
X153670000Y-135890000D01*
X153815628Y-119380000D02*
X154847000Y-119380000D01*
X154847000Y-119126000D02*
X154847000Y-111921000D01*
X154847000Y-111921000D02*
X153670000Y-110744000D01*
X153670000Y-110744000D02*
X140716000Y-110744000D01*
X140716000Y-110744000D02*
X139793000Y-111667000D01*
X139793000Y-111667000D02*
X139793000Y-119380000D01*
X142240000Y-119380000D02*
X139793000Y-119380000D01*
X139793000Y-119380000D02*
X139793000Y-134620000D01*
X140462000Y-134620000D02*
X139793000Y-134620000D01*
X142240000Y-134620000D02*
X140462000Y-134620000D01*
X153815628Y-119380000D02*
X152400000Y-119380000D01*
%TO.N,VCCB*%
X152400000Y-116840000D02*
X148844000Y-116840000D01*
%TO.N,VCCA*%
X142240000Y-116840000D02*
X145288000Y-116840000D01*
%TO.N,/HV7*%
X153670000Y-130810000D02*
X152254372Y-130810000D01*
X152254372Y-130810000D02*
X150876000Y-132188372D01*
X150876000Y-132188372D02*
X150876000Y-135636000D01*
X150876000Y-135636000D02*
X152400000Y-137160000D01*
%TO.N,/HV6*%
X153670000Y-128270000D02*
X152400000Y-129540000D01*
%TO.N,/HV5*%
X153670000Y-125730000D02*
X152400000Y-127000000D01*
%TO.N,/LV5*%
X140970000Y-125730000D02*
X142240000Y-127000000D01*
%TO.N,/LV7*%
X140970000Y-130810000D02*
X142385628Y-130810000D01*
X142385628Y-130810000D02*
X143764000Y-132188372D01*
X143764000Y-132188372D02*
X143764000Y-135636000D01*
X143764000Y-135636000D02*
X142240000Y-137160000D01*
%TO.N,/LV6*%
X140970000Y-128270000D02*
X142240000Y-129540000D01*
%TO.N,/HV1*%
X150876000Y-113284000D02*
X150876000Y-114808000D01*
X152400000Y-111760000D02*
X150876000Y-113284000D01*
X150876000Y-114808000D02*
X151638000Y-115570000D01*
X151638000Y-115570000D02*
X153670000Y-115570000D01*
%TO.N,/HV4*%
X152400000Y-124460000D02*
X153670000Y-123190000D01*
%TO.N,/HV3*%
X152400000Y-121920000D02*
X153670000Y-120650000D01*
%TO.N,/LV4*%
X140970000Y-123190000D02*
X142240000Y-124460000D01*
%TO.N,/LV3*%
X140970000Y-120650000D02*
X142240000Y-121920000D01*
%TO.N,/LV1*%
X143256000Y-115570000D02*
X143764000Y-115062000D01*
X140970000Y-115570000D02*
X143256000Y-115570000D01*
X143764000Y-115062000D02*
X143764000Y-113284000D01*
X143764000Y-113284000D02*
X142240000Y-111760000D01*
%TD*%
%TA.AperFunction,Conductor*%
%TO.N,GND*%
G36*
X139897703Y-136449878D02*
G01*
X139926985Y-136487297D01*
X139943238Y-136519197D01*
X139951669Y-136530801D01*
X140054310Y-136672073D01*
X140187927Y-136805690D01*
X140340801Y-136916760D01*
X140420347Y-136957290D01*
X140509163Y-137002545D01*
X140509165Y-137002545D01*
X140509168Y-137002547D01*
X140605497Y-137033846D01*
X140688881Y-137060940D01*
X140875514Y-137090500D01*
X140875519Y-137090500D01*
X140915500Y-137090500D01*
X140982539Y-137110185D01*
X141028294Y-137162989D01*
X141039500Y-137214500D01*
X141039500Y-137254486D01*
X141069059Y-137441118D01*
X141127454Y-137620836D01*
X141213240Y-137789199D01*
X141324310Y-137942073D01*
X141457927Y-138075690D01*
X141610801Y-138186760D01*
X141690347Y-138227290D01*
X141779163Y-138272545D01*
X141779165Y-138272545D01*
X141779168Y-138272547D01*
X141868734Y-138301649D01*
X141900803Y-138312069D01*
X141958478Y-138351507D01*
X141985676Y-138415866D01*
X141973761Y-138484712D01*
X141926516Y-138536188D01*
X141900803Y-138547931D01*
X141779163Y-138587454D01*
X141610800Y-138673240D01*
X141523579Y-138736610D01*
X141457927Y-138784310D01*
X141457925Y-138784312D01*
X141457924Y-138784312D01*
X141324312Y-138917924D01*
X141324312Y-138917925D01*
X141324310Y-138917927D01*
X141276610Y-138983579D01*
X141213240Y-139070800D01*
X141127454Y-139239163D01*
X141069059Y-139418881D01*
X141039500Y-139605513D01*
X141039500Y-139794486D01*
X141069059Y-139981118D01*
X141127454Y-140160836D01*
X141213240Y-140329199D01*
X141324310Y-140482073D01*
X141457927Y-140615690D01*
X141572582Y-140698992D01*
X141610802Y-140726761D01*
X141642703Y-140743015D01*
X141693499Y-140790989D01*
X141710295Y-140858810D01*
X141687758Y-140924945D01*
X141633043Y-140968397D01*
X141586409Y-140977500D01*
X139816500Y-140977500D01*
X139749461Y-140957815D01*
X139703706Y-140905011D01*
X139692500Y-140853500D01*
X139692500Y-136543591D01*
X139712185Y-136476552D01*
X139764989Y-136430797D01*
X139834147Y-136420853D01*
X139897703Y-136449878D01*
G37*
%TD.AperFunction*%
%TA.AperFunction,Conductor*%
G36*
X151813448Y-110502185D02*
G01*
X151859203Y-110554989D01*
X151869147Y-110624147D01*
X151840122Y-110687703D01*
X151802703Y-110716985D01*
X151770802Y-110733238D01*
X151663855Y-110810941D01*
X151617927Y-110844310D01*
X151617925Y-110844312D01*
X151617924Y-110844312D01*
X151484312Y-110977924D01*
X151484312Y-110977925D01*
X151484310Y-110977927D01*
X151436610Y-111043579D01*
X151373240Y-111130800D01*
X151287454Y-111299163D01*
X151229059Y-111478881D01*
X151199500Y-111665513D01*
X151199500Y-111854486D01*
X151224725Y-112013751D01*
X151215770Y-112083045D01*
X151189933Y-112120830D01*
X150510516Y-112800247D01*
X150510509Y-112800254D01*
X150507286Y-112803478D01*
X150507284Y-112803480D01*
X150395480Y-112915284D01*
X150369375Y-112960500D01*
X150363524Y-112970633D01*
X150363523Y-112970635D01*
X150316426Y-113052209D01*
X150316423Y-113052215D01*
X150275499Y-113204943D01*
X150275499Y-113204945D01*
X150275499Y-113373046D01*
X150275500Y-113373059D01*
X150275500Y-114721330D01*
X150275499Y-114721348D01*
X150275499Y-114887054D01*
X150275498Y-114887054D01*
X150316423Y-115039785D01*
X150337988Y-115077135D01*
X150337989Y-115077139D01*
X150395475Y-115176709D01*
X150395481Y-115176717D01*
X150514349Y-115295585D01*
X150514355Y-115295590D01*
X151246583Y-116027819D01*
X151280068Y-116089142D01*
X151275084Y-116158834D01*
X151233212Y-116214767D01*
X151167748Y-116239184D01*
X151158902Y-116239500D01*
X149423766Y-116239500D01*
X149356727Y-116219815D01*
X149354875Y-116218602D01*
X149223185Y-116130609D01*
X149223172Y-116130602D01*
X149077501Y-116070264D01*
X149077489Y-116070261D01*
X148922845Y-116039500D01*
X148922842Y-116039500D01*
X148765158Y-116039500D01*
X148765155Y-116039500D01*
X148610510Y-116070261D01*
X148610498Y-116070264D01*
X148464827Y-116130602D01*
X148464814Y-116130609D01*
X148333711Y-116218210D01*
X148333707Y-116218213D01*
X148222213Y-116329707D01*
X148222210Y-116329711D01*
X148134609Y-116460814D01*
X148134602Y-116460827D01*
X148074264Y-116606498D01*
X148074261Y-116606510D01*
X148043500Y-116761153D01*
X148043500Y-116918846D01*
X148074261Y-117073489D01*
X148074264Y-117073501D01*
X148134602Y-117219172D01*
X148134609Y-117219185D01*
X148222210Y-117350288D01*
X148222213Y-117350292D01*
X148333707Y-117461786D01*
X148333711Y-117461789D01*
X148464814Y-117549390D01*
X148464827Y-117549397D01*
X148610498Y-117609735D01*
X148610503Y-117609737D01*
X148765153Y-117640499D01*
X148765156Y-117640500D01*
X148765158Y-117640500D01*
X148922844Y-117640500D01*
X148922845Y-117640499D01*
X149077497Y-117609737D01*
X149223179Y-117549394D01*
X149223185Y-117549390D01*
X149354875Y-117461398D01*
X149421553Y-117440520D01*
X149423766Y-117440500D01*
X151289208Y-117440500D01*
X151356247Y-117460185D01*
X151389524Y-117491612D01*
X151484310Y-117622073D01*
X151617927Y-117755690D01*
X151770801Y-117866760D01*
X151939168Y-117952547D01*
X152061612Y-117992331D01*
X152119287Y-118031769D01*
X152146485Y-118096127D01*
X152134570Y-118164974D01*
X152087326Y-118216449D01*
X152061612Y-118228193D01*
X151939361Y-118267915D01*
X151771060Y-118353669D01*
X151745670Y-118372116D01*
X151745669Y-118372116D01*
X152270590Y-118897037D01*
X152207007Y-118914075D01*
X152092993Y-118979901D01*
X151999901Y-119072993D01*
X151934075Y-119187007D01*
X151917037Y-119250590D01*
X151392116Y-118725669D01*
X151392116Y-118725670D01*
X151373669Y-118751060D01*
X151287914Y-118919362D01*
X151229548Y-119098997D01*
X151200000Y-119285552D01*
X151200000Y-119474447D01*
X151229548Y-119661002D01*
X151287914Y-119840637D01*
X151373666Y-120008933D01*
X151392116Y-120034328D01*
X151917037Y-119509408D01*
X151934075Y-119572993D01*
X151999901Y-119687007D01*
X152092993Y-119780099D01*
X152207007Y-119845925D01*
X152270589Y-119862962D01*
X151745669Y-120387882D01*
X151745670Y-120387883D01*
X151771059Y-120406329D01*
X151939362Y-120492085D01*
X152061611Y-120531806D01*
X152119286Y-120571243D01*
X152146485Y-120635602D01*
X152134571Y-120704448D01*
X152087327Y-120755924D01*
X152061612Y-120767668D01*
X151939163Y-120807454D01*
X151770800Y-120893240D01*
X151683579Y-120956610D01*
X151617927Y-121004310D01*
X151617925Y-121004312D01*
X151617924Y-121004312D01*
X151484312Y-121137924D01*
X151484312Y-121137925D01*
X151484310Y-121137927D01*
X151453122Y-121180853D01*
X151373240Y-121290800D01*
X151287454Y-121459163D01*
X151229059Y-121638881D01*
X151199500Y-121825513D01*
X151199500Y-122014486D01*
X151229059Y-122201118D01*
X151287454Y-122380836D01*
X151366723Y-122536408D01*
X151373240Y-122549199D01*
X151484310Y-122702073D01*
X151617927Y-122835690D01*
X151770801Y-122946760D01*
X151850347Y-122987290D01*
X151939163Y-123032545D01*
X151939165Y-123032545D01*
X151939168Y-123032547D01*
X152028734Y-123061649D01*
X152060803Y-123072069D01*
X152118478Y-123111507D01*
X152145676Y-123175866D01*
X152133761Y-123244712D01*
X152086516Y-123296188D01*
X152060803Y-123307931D01*
X151939163Y-123347454D01*
X151770800Y-123433240D01*
X151683579Y-123496610D01*
X151617927Y-123544310D01*
X151617925Y-123544312D01*
X151617924Y-123544312D01*
X151484312Y-123677924D01*
X151484312Y-123677925D01*
X151484310Y-123677927D01*
X151453122Y-123720853D01*
X151373240Y-123830800D01*
X151287454Y-123999163D01*
X151229059Y-124178881D01*
X151199500Y-124365513D01*
X151199500Y-124554486D01*
X151229059Y-124741118D01*
X151287454Y-124920836D01*
X151366723Y-125076408D01*
X151373240Y-125089199D01*
X151484310Y-125242073D01*
X151617927Y-125375690D01*
X151770801Y-125486760D01*
X151850347Y-125527290D01*
X151939163Y-125572545D01*
X151939165Y-125572545D01*
X151939168Y-125572547D01*
X152028734Y-125601649D01*
X152060803Y-125612069D01*
X152118478Y-125651507D01*
X152145676Y-125715866D01*
X152133761Y-125784712D01*
X152086516Y-125836188D01*
X152060803Y-125847931D01*
X151939163Y-125887454D01*
X151770800Y-125973240D01*
X151683579Y-126036610D01*
X151617927Y-126084310D01*
X151617925Y-126084312D01*
X151617924Y-126084312D01*
X151484312Y-126217924D01*
X151484312Y-126217925D01*
X151484310Y-126217927D01*
X151453122Y-126260853D01*
X151373240Y-126370800D01*
X151287454Y-126539163D01*
X151229059Y-126718881D01*
X151199500Y-126905513D01*
X151199500Y-127094486D01*
X151229059Y-127281118D01*
X151287454Y-127460836D01*
X151366723Y-127616408D01*
X151373240Y-127629199D01*
X151484310Y-127782073D01*
X151617927Y-127915690D01*
X151770801Y-128026760D01*
X151850347Y-128067290D01*
X151939163Y-128112545D01*
X151939165Y-128112545D01*
X151939168Y-128112547D01*
X152028734Y-128141649D01*
X152060803Y-128152069D01*
X152118478Y-128191507D01*
X152145676Y-128255866D01*
X152133761Y-128324712D01*
X152086516Y-128376188D01*
X152060803Y-128387931D01*
X151939163Y-128427454D01*
X151770800Y-128513240D01*
X151683579Y-128576610D01*
X151617927Y-128624310D01*
X151617925Y-128624312D01*
X151617924Y-128624312D01*
X151484312Y-128757924D01*
X151484312Y-128757925D01*
X151484310Y-128757927D01*
X151453122Y-128800853D01*
X151373240Y-128910800D01*
X151287454Y-129079163D01*
X151229059Y-129258881D01*
X151199500Y-129445513D01*
X151199500Y-129634486D01*
X151229059Y-129821118D01*
X151287454Y-130000836D01*
X151366723Y-130156408D01*
X151373240Y-130169199D01*
X151484310Y-130322073D01*
X151484312Y-130322075D01*
X151601005Y-130438768D01*
X151634490Y-130500091D01*
X151629506Y-130569783D01*
X151601005Y-130614130D01*
X150507286Y-131707850D01*
X150395481Y-131819654D01*
X150395479Y-131819657D01*
X150345361Y-131906466D01*
X150345359Y-131906468D01*
X150316425Y-131956581D01*
X150316424Y-131956582D01*
X150301977Y-132010500D01*
X150275499Y-132109315D01*
X150275499Y-132109317D01*
X150275499Y-132277418D01*
X150275500Y-132277431D01*
X150275500Y-135549330D01*
X150275499Y-135549348D01*
X150275499Y-135715054D01*
X150275498Y-135715054D01*
X150316423Y-135867785D01*
X150345358Y-135917900D01*
X150345359Y-135917904D01*
X150345360Y-135917904D01*
X150392187Y-135999013D01*
X150395479Y-136004714D01*
X150395481Y-136004717D01*
X150514349Y-136123585D01*
X150514355Y-136123590D01*
X151189933Y-136799168D01*
X151223418Y-136860491D01*
X151224725Y-136906247D01*
X151199500Y-137065513D01*
X151199500Y-137254486D01*
X151229059Y-137441118D01*
X151287454Y-137620836D01*
X151373240Y-137789199D01*
X151484310Y-137942073D01*
X151617927Y-138075690D01*
X151770801Y-138186760D01*
X151850347Y-138227290D01*
X151939163Y-138272545D01*
X151939165Y-138272545D01*
X151939168Y-138272547D01*
X152028734Y-138301649D01*
X152060803Y-138312069D01*
X152118478Y-138351507D01*
X152145676Y-138415866D01*
X152133761Y-138484712D01*
X152086516Y-138536188D01*
X152060803Y-138547931D01*
X151939163Y-138587454D01*
X151770800Y-138673240D01*
X151683579Y-138736610D01*
X151617927Y-138784310D01*
X151617925Y-138784312D01*
X151617924Y-138784312D01*
X151484312Y-138917924D01*
X151484312Y-138917925D01*
X151484310Y-138917927D01*
X151436610Y-138983579D01*
X151373240Y-139070800D01*
X151287454Y-139239163D01*
X151229059Y-139418881D01*
X151199500Y-139605513D01*
X151199500Y-139794486D01*
X151229059Y-139981118D01*
X151287454Y-140160836D01*
X151373240Y-140329199D01*
X151484310Y-140482073D01*
X151617927Y-140615690D01*
X151732582Y-140698992D01*
X151770802Y-140726761D01*
X151802703Y-140743015D01*
X151853499Y-140790989D01*
X151870295Y-140858810D01*
X151847758Y-140924945D01*
X151793043Y-140968397D01*
X151746409Y-140977500D01*
X142893591Y-140977500D01*
X142826552Y-140957815D01*
X142780797Y-140905011D01*
X142770853Y-140835853D01*
X142799878Y-140772297D01*
X142837297Y-140743015D01*
X142869197Y-140726761D01*
X142869196Y-140726761D01*
X142869199Y-140726760D01*
X143022073Y-140615690D01*
X143155690Y-140482073D01*
X143266760Y-140329199D01*
X143352547Y-140160832D01*
X143410940Y-139981118D01*
X143440500Y-139794486D01*
X143440500Y-139605513D01*
X143410940Y-139418881D01*
X143352545Y-139239163D01*
X143266759Y-139070800D01*
X143155690Y-138917927D01*
X143022073Y-138784310D01*
X142869199Y-138673240D01*
X142700836Y-138587454D01*
X142626472Y-138563291D01*
X142579195Y-138547930D01*
X142521521Y-138508493D01*
X142494323Y-138444134D01*
X142506238Y-138375288D01*
X142553482Y-138323812D01*
X142579194Y-138312069D01*
X142700832Y-138272547D01*
X142869199Y-138186760D01*
X143022073Y-138075690D01*
X143155690Y-137942073D01*
X143266760Y-137789199D01*
X143352547Y-137620832D01*
X143410940Y-137441118D01*
X143440500Y-137254486D01*
X143440500Y-137065513D01*
X143415274Y-136906246D01*
X143424228Y-136836953D01*
X143450063Y-136799170D01*
X144122506Y-136126728D01*
X144122511Y-136126724D01*
X144132714Y-136116520D01*
X144132716Y-136116520D01*
X144244520Y-136004716D01*
X144323577Y-135867784D01*
X144364500Y-135715057D01*
X144364500Y-132109315D01*
X144323577Y-131956588D01*
X144303924Y-131922547D01*
X144244524Y-131819662D01*
X144244521Y-131819658D01*
X144244520Y-131819656D01*
X144132716Y-131707852D01*
X144132715Y-131707851D01*
X144128385Y-131703521D01*
X144128374Y-131703511D01*
X143038994Y-130614131D01*
X143005509Y-130552808D01*
X143010493Y-130483116D01*
X143038994Y-130438769D01*
X143038995Y-130438768D01*
X143155690Y-130322073D01*
X143266760Y-130169199D01*
X143352547Y-130000832D01*
X143410940Y-129821118D01*
X143416939Y-129783240D01*
X143440500Y-129634486D01*
X143440500Y-129445513D01*
X143410940Y-129258881D01*
X143352545Y-129079163D01*
X143307290Y-128990347D01*
X143266760Y-128910801D01*
X143155690Y-128757927D01*
X143022073Y-128624310D01*
X142869199Y-128513240D01*
X142700836Y-128427454D01*
X142626472Y-128403291D01*
X142579195Y-128387930D01*
X142521521Y-128348493D01*
X142494323Y-128284134D01*
X142506238Y-128215288D01*
X142553482Y-128163812D01*
X142579194Y-128152069D01*
X142700832Y-128112547D01*
X142869199Y-128026760D01*
X143022073Y-127915690D01*
X143155690Y-127782073D01*
X143266760Y-127629199D01*
X143352547Y-127460832D01*
X143410940Y-127281118D01*
X143416939Y-127243240D01*
X143440500Y-127094486D01*
X143440500Y-126905513D01*
X143410940Y-126718881D01*
X143352545Y-126539163D01*
X143307290Y-126450347D01*
X143266760Y-126370801D01*
X143155690Y-126217927D01*
X143022073Y-126084310D01*
X142869199Y-125973240D01*
X142700836Y-125887454D01*
X142626472Y-125863291D01*
X142579195Y-125847930D01*
X142521521Y-125808493D01*
X142494323Y-125744134D01*
X142506238Y-125675288D01*
X142553482Y-125623812D01*
X142579194Y-125612069D01*
X142700832Y-125572547D01*
X142869199Y-125486760D01*
X143022073Y-125375690D01*
X143155690Y-125242073D01*
X143266760Y-125089199D01*
X143352547Y-124920832D01*
X143410940Y-124741118D01*
X143416939Y-124703240D01*
X143440500Y-124554486D01*
X143440500Y-124365513D01*
X143410940Y-124178881D01*
X143352545Y-123999163D01*
X143307290Y-123910347D01*
X143266760Y-123830801D01*
X143155690Y-123677927D01*
X143022073Y-123544310D01*
X142869199Y-123433240D01*
X142700836Y-123347454D01*
X142626472Y-123323291D01*
X142579195Y-123307930D01*
X142521521Y-123268493D01*
X142494323Y-123204134D01*
X142506238Y-123135288D01*
X142553482Y-123083812D01*
X142579194Y-123072069D01*
X142700832Y-123032547D01*
X142869199Y-122946760D01*
X143022073Y-122835690D01*
X143155690Y-122702073D01*
X143266760Y-122549199D01*
X143352547Y-122380832D01*
X143410940Y-122201118D01*
X143416939Y-122163240D01*
X143440500Y-122014486D01*
X143440500Y-121825513D01*
X143410940Y-121638881D01*
X143352545Y-121459163D01*
X143307290Y-121370347D01*
X143266760Y-121290801D01*
X143155690Y-121137927D01*
X143022073Y-121004310D01*
X142869199Y-120893240D01*
X142700836Y-120807454D01*
X142578387Y-120767668D01*
X142520712Y-120728230D01*
X142493514Y-120663871D01*
X142505429Y-120595025D01*
X142552673Y-120543549D01*
X142578389Y-120531806D01*
X142700635Y-120492086D01*
X142868937Y-120406331D01*
X142894328Y-120387883D01*
X142894328Y-120387882D01*
X142369408Y-119862962D01*
X142432993Y-119845925D01*
X142547007Y-119780099D01*
X142640099Y-119687007D01*
X142705925Y-119572993D01*
X142722962Y-119509408D01*
X143247882Y-120034328D01*
X143247883Y-120034328D01*
X143266331Y-120008937D01*
X143352085Y-119840637D01*
X143410451Y-119661002D01*
X143440000Y-119474447D01*
X143440000Y-119285552D01*
X143410451Y-119098997D01*
X143352085Y-118919362D01*
X143266329Y-118751059D01*
X143247883Y-118725670D01*
X143247882Y-118725669D01*
X142722962Y-119250590D01*
X142705925Y-119187007D01*
X142640099Y-119072993D01*
X142547007Y-118979901D01*
X142432993Y-118914075D01*
X142369407Y-118897036D01*
X142894328Y-118372116D01*
X142868933Y-118353666D01*
X142700637Y-118267914D01*
X142578388Y-118228193D01*
X142520712Y-118188755D01*
X142493514Y-118124397D01*
X142505429Y-118055550D01*
X142552673Y-118004075D01*
X142578382Y-117992333D01*
X142700832Y-117952547D01*
X142869199Y-117866760D01*
X143022073Y-117755690D01*
X143155690Y-117622073D01*
X143250475Y-117491613D01*
X143305804Y-117448949D01*
X143350792Y-117440500D01*
X144708234Y-117440500D01*
X144775273Y-117460185D01*
X144777125Y-117461398D01*
X144908814Y-117549390D01*
X144908827Y-117549397D01*
X145054498Y-117609735D01*
X145054503Y-117609737D01*
X145209153Y-117640499D01*
X145209156Y-117640500D01*
X145209158Y-117640500D01*
X145366844Y-117640500D01*
X145366845Y-117640499D01*
X145521497Y-117609737D01*
X145667179Y-117549394D01*
X145798289Y-117461789D01*
X145909789Y-117350289D01*
X145997394Y-117219179D01*
X146057737Y-117073497D01*
X146088500Y-116918842D01*
X146088500Y-116761158D01*
X146088500Y-116761155D01*
X146088499Y-116761153D01*
X146084478Y-116740940D01*
X146057737Y-116606503D01*
X146007694Y-116485687D01*
X145997397Y-116460827D01*
X145997390Y-116460814D01*
X145909789Y-116329711D01*
X145909786Y-116329707D01*
X145798292Y-116218213D01*
X145798288Y-116218210D01*
X145667185Y-116130609D01*
X145667172Y-116130602D01*
X145521501Y-116070264D01*
X145521489Y-116070261D01*
X145366845Y-116039500D01*
X145366842Y-116039500D01*
X145209158Y-116039500D01*
X145209155Y-116039500D01*
X145054510Y-116070261D01*
X145054498Y-116070264D01*
X144908827Y-116130602D01*
X144908814Y-116130609D01*
X144777125Y-116218602D01*
X144710447Y-116239480D01*
X144708234Y-116239500D01*
X143735099Y-116239500D01*
X143713855Y-116233262D01*
X143691768Y-116231683D01*
X143680982Y-116223609D01*
X143668060Y-116219815D01*
X143653561Y-116203083D01*
X143635833Y-116189812D01*
X143631124Y-116177189D01*
X143622305Y-116167011D01*
X143619154Y-116145096D01*
X143611415Y-116124349D01*
X143614278Y-116111186D01*
X143612361Y-116097853D01*
X143621559Y-116077710D01*
X143626266Y-116056075D01*
X143639536Y-116038346D01*
X143641386Y-116034297D01*
X143647416Y-116027821D01*
X143647417Y-116027819D01*
X143736520Y-115938716D01*
X143736521Y-115938713D01*
X144122506Y-115552728D01*
X144122511Y-115552724D01*
X144132714Y-115542520D01*
X144132716Y-115542520D01*
X144244520Y-115430716D01*
X144323577Y-115293784D01*
X144364500Y-115141057D01*
X144364500Y-113204943D01*
X144323577Y-113052216D01*
X144276477Y-112970635D01*
X144244524Y-112915290D01*
X144244521Y-112915286D01*
X144244520Y-112915284D01*
X144132716Y-112803480D01*
X144132715Y-112803479D01*
X144128385Y-112799149D01*
X144128374Y-112799139D01*
X143450066Y-112120831D01*
X143416581Y-112059508D01*
X143415274Y-112013752D01*
X143440500Y-111854486D01*
X143440500Y-111665513D01*
X143410940Y-111478881D01*
X143352545Y-111299163D01*
X143266759Y-111130800D01*
X143155690Y-110977927D01*
X143022073Y-110844310D01*
X142945636Y-110788775D01*
X142869197Y-110733238D01*
X142837297Y-110716985D01*
X142786501Y-110669011D01*
X142769705Y-110601190D01*
X142792242Y-110535055D01*
X142846957Y-110491603D01*
X142893591Y-110482500D01*
X151746409Y-110482500D01*
X151813448Y-110502185D01*
G37*
%TD.AperFunction*%
%TA.AperFunction,Conductor*%
G36*
X154677882Y-136544328D02*
G01*
X154677883Y-136544328D01*
X154696333Y-136518935D01*
X154696333Y-136518934D01*
X154713015Y-136486195D01*
X154760989Y-136435399D01*
X154828810Y-136418603D01*
X154894945Y-136441140D01*
X154938397Y-136495855D01*
X154947500Y-136542489D01*
X154947500Y-140853500D01*
X154927815Y-140920539D01*
X154875011Y-140966294D01*
X154823500Y-140977500D01*
X153053591Y-140977500D01*
X152986552Y-140957815D01*
X152940797Y-140905011D01*
X152930853Y-140835853D01*
X152959878Y-140772297D01*
X152997297Y-140743015D01*
X153029197Y-140726761D01*
X153029196Y-140726761D01*
X153029199Y-140726760D01*
X153182073Y-140615690D01*
X153315690Y-140482073D01*
X153426760Y-140329199D01*
X153512547Y-140160832D01*
X153570940Y-139981118D01*
X153600500Y-139794486D01*
X153600500Y-139605513D01*
X153570940Y-139418881D01*
X153512545Y-139239163D01*
X153426759Y-139070800D01*
X153315690Y-138917927D01*
X153182073Y-138784310D01*
X153029199Y-138673240D01*
X152860836Y-138587454D01*
X152786472Y-138563291D01*
X152739195Y-138547930D01*
X152681521Y-138508493D01*
X152654323Y-138444134D01*
X152666238Y-138375288D01*
X152713482Y-138323812D01*
X152739194Y-138312069D01*
X152860832Y-138272547D01*
X153029199Y-138186760D01*
X153182073Y-138075690D01*
X153315690Y-137942073D01*
X153426760Y-137789199D01*
X153512547Y-137620832D01*
X153570940Y-137441118D01*
X153600500Y-137254486D01*
X153600500Y-137214000D01*
X153620185Y-137146961D01*
X153672989Y-137101206D01*
X153724500Y-137090000D01*
X153764447Y-137090000D01*
X153951002Y-137060451D01*
X154130637Y-137002085D01*
X154298937Y-136916331D01*
X154324328Y-136897883D01*
X154324328Y-136897882D01*
X153799408Y-136372962D01*
X153862993Y-136355925D01*
X153977007Y-136290099D01*
X154070099Y-136197007D01*
X154135925Y-136082993D01*
X154152962Y-136019408D01*
X154677882Y-136544328D01*
G37*
%TD.AperFunction*%
%TA.AperFunction,Conductor*%
G36*
X153540591Y-135407037D02*
G01*
X153477007Y-135424075D01*
X153362993Y-135489901D01*
X153269901Y-135582993D01*
X153204075Y-135697007D01*
X153187037Y-135760591D01*
X152529408Y-135102962D01*
X152592993Y-135085925D01*
X152707007Y-135020099D01*
X152800099Y-134927007D01*
X152865925Y-134812993D01*
X152882962Y-134749408D01*
X153540591Y-135407037D01*
G37*
%TD.AperFunction*%
%TA.AperFunction,Conductor*%
G36*
X154894945Y-133902242D02*
G01*
X154938397Y-133956957D01*
X154947500Y-134003591D01*
X154947500Y-135237510D01*
X154927815Y-135304549D01*
X154875011Y-135350304D01*
X154805853Y-135360248D01*
X154742297Y-135331223D01*
X154713016Y-135293805D01*
X154696333Y-135261064D01*
X154696332Y-135261063D01*
X154677883Y-135235670D01*
X154677882Y-135235669D01*
X154152962Y-135760590D01*
X154135925Y-135697007D01*
X154070099Y-135582993D01*
X153977007Y-135489901D01*
X153862993Y-135424075D01*
X153799409Y-135407037D01*
X154324328Y-134882116D01*
X154298933Y-134863666D01*
X154130637Y-134777914D01*
X154008388Y-134738193D01*
X153950712Y-134698755D01*
X153923514Y-134634397D01*
X153935429Y-134565550D01*
X153982673Y-134514075D01*
X154008382Y-134502333D01*
X154130832Y-134462547D01*
X154299199Y-134376760D01*
X154452073Y-134265690D01*
X154585690Y-134132073D01*
X154696760Y-133979199D01*
X154713015Y-133947297D01*
X154760989Y-133896501D01*
X154828810Y-133879705D01*
X154894945Y-133902242D01*
G37*
%TD.AperFunction*%
%TA.AperFunction,Conductor*%
G36*
X139897703Y-133909878D02*
G01*
X139926985Y-133947297D01*
X139943238Y-133979197D01*
X139960962Y-134003591D01*
X140054310Y-134132073D01*
X140187927Y-134265690D01*
X140340801Y-134376760D01*
X140420347Y-134417290D01*
X140509163Y-134462545D01*
X140509165Y-134462545D01*
X140509168Y-134462547D01*
X140598734Y-134491649D01*
X140630803Y-134502069D01*
X140688478Y-134541507D01*
X140715676Y-134605866D01*
X140703761Y-134674712D01*
X140656516Y-134726188D01*
X140630803Y-134737931D01*
X140509163Y-134777454D01*
X140340800Y-134863240D01*
X140253579Y-134926610D01*
X140187927Y-134974310D01*
X140187925Y-134974312D01*
X140187924Y-134974312D01*
X140054312Y-135107924D01*
X140054312Y-135107925D01*
X140054310Y-135107927D01*
X140017286Y-135158885D01*
X139943236Y-135260805D01*
X139926984Y-135292703D01*
X139879010Y-135343499D01*
X139811189Y-135360294D01*
X139745054Y-135337756D01*
X139701603Y-135283041D01*
X139692500Y-135236408D01*
X139692500Y-134003591D01*
X139712185Y-133936552D01*
X139764989Y-133890797D01*
X139834147Y-133880853D01*
X139897703Y-133909878D01*
G37*
%TD.AperFunction*%
%TA.AperFunction,Conductor*%
G36*
X139897703Y-131369878D02*
G01*
X139926985Y-131407297D01*
X139943238Y-131439197D01*
X139960962Y-131463591D01*
X140054310Y-131592073D01*
X140187927Y-131725690D01*
X140340801Y-131836760D01*
X140420347Y-131877290D01*
X140509163Y-131922545D01*
X140509165Y-131922545D01*
X140509168Y-131922547D01*
X140598734Y-131951649D01*
X140630803Y-131962069D01*
X140688478Y-132001507D01*
X140715676Y-132065866D01*
X140703761Y-132134712D01*
X140656516Y-132186188D01*
X140630803Y-132197931D01*
X140509163Y-132237454D01*
X140340800Y-132323240D01*
X140253579Y-132386610D01*
X140187927Y-132434310D01*
X140187925Y-132434312D01*
X140187924Y-132434312D01*
X140054312Y-132567924D01*
X140054312Y-132567925D01*
X140054310Y-132567927D01*
X140017286Y-132618885D01*
X139943236Y-132720805D01*
X139926984Y-132752703D01*
X139879010Y-132803499D01*
X139811189Y-132820294D01*
X139745054Y-132797756D01*
X139701603Y-132743041D01*
X139692500Y-132696408D01*
X139692500Y-131463591D01*
X139712185Y-131396552D01*
X139764989Y-131350797D01*
X139834147Y-131340853D01*
X139897703Y-131369878D01*
G37*
%TD.AperFunction*%
%TA.AperFunction,Conductor*%
G36*
X154894945Y-131362242D02*
G01*
X154938397Y-131416957D01*
X154947500Y-131463591D01*
X154947500Y-132696408D01*
X154927815Y-132763447D01*
X154875011Y-132809202D01*
X154805853Y-132819146D01*
X154742297Y-132790121D01*
X154713016Y-132752703D01*
X154696763Y-132720805D01*
X154679037Y-132696408D01*
X154585690Y-132567927D01*
X154452073Y-132434310D01*
X154299199Y-132323240D01*
X154130836Y-132237454D01*
X154056472Y-132213291D01*
X154009195Y-132197930D01*
X153951521Y-132158493D01*
X153924323Y-132094134D01*
X153936238Y-132025288D01*
X153983482Y-131973812D01*
X154009194Y-131962069D01*
X154130832Y-131922547D01*
X154299199Y-131836760D01*
X154452073Y-131725690D01*
X154585690Y-131592073D01*
X154696760Y-131439199D01*
X154713015Y-131407297D01*
X154760989Y-131356501D01*
X154828810Y-131339705D01*
X154894945Y-131362242D01*
G37*
%TD.AperFunction*%
%TA.AperFunction,Conductor*%
G36*
X139897703Y-128829878D02*
G01*
X139926985Y-128867297D01*
X139943238Y-128899197D01*
X139951669Y-128910801D01*
X140054310Y-129052073D01*
X140187927Y-129185690D01*
X140340801Y-129296760D01*
X140420347Y-129337290D01*
X140509163Y-129382545D01*
X140509165Y-129382545D01*
X140509168Y-129382547D01*
X140598734Y-129411649D01*
X140630803Y-129422069D01*
X140688478Y-129461507D01*
X140715676Y-129525866D01*
X140703761Y-129594712D01*
X140656516Y-129646188D01*
X140630803Y-129657931D01*
X140509163Y-129697454D01*
X140340800Y-129783240D01*
X140253579Y-129846610D01*
X140187927Y-129894310D01*
X140187925Y-129894312D01*
X140187924Y-129894312D01*
X140054312Y-130027924D01*
X140054312Y-130027925D01*
X140054310Y-130027927D01*
X140017286Y-130078885D01*
X139943236Y-130180805D01*
X139926984Y-130212703D01*
X139879010Y-130263499D01*
X139811189Y-130280294D01*
X139745054Y-130257756D01*
X139701603Y-130203041D01*
X139692500Y-130156408D01*
X139692500Y-128923591D01*
X139712185Y-128856552D01*
X139764989Y-128810797D01*
X139834147Y-128800853D01*
X139897703Y-128829878D01*
G37*
%TD.AperFunction*%
%TA.AperFunction,Conductor*%
G36*
X154894945Y-128822242D02*
G01*
X154938397Y-128876957D01*
X154947500Y-128923591D01*
X154947500Y-130156408D01*
X154927815Y-130223447D01*
X154875011Y-130269202D01*
X154805853Y-130279146D01*
X154742297Y-130250121D01*
X154713016Y-130212703D01*
X154696763Y-130180805D01*
X154679037Y-130156408D01*
X154585690Y-130027927D01*
X154452073Y-129894310D01*
X154299199Y-129783240D01*
X154130836Y-129697454D01*
X154056472Y-129673291D01*
X154009195Y-129657930D01*
X153951521Y-129618493D01*
X153924323Y-129554134D01*
X153936238Y-129485288D01*
X153983482Y-129433812D01*
X154009194Y-129422069D01*
X154130832Y-129382547D01*
X154299199Y-129296760D01*
X154452073Y-129185690D01*
X154585690Y-129052073D01*
X154696760Y-128899199D01*
X154713015Y-128867297D01*
X154760989Y-128816501D01*
X154828810Y-128799705D01*
X154894945Y-128822242D01*
G37*
%TD.AperFunction*%
%TA.AperFunction,Conductor*%
G36*
X139897703Y-126289878D02*
G01*
X139926985Y-126327297D01*
X139943238Y-126359197D01*
X139951669Y-126370801D01*
X140054310Y-126512073D01*
X140187927Y-126645690D01*
X140340801Y-126756760D01*
X140420347Y-126797290D01*
X140509163Y-126842545D01*
X140509165Y-126842545D01*
X140509168Y-126842547D01*
X140598734Y-126871649D01*
X140630803Y-126882069D01*
X140688478Y-126921507D01*
X140715676Y-126985866D01*
X140703761Y-127054712D01*
X140656516Y-127106188D01*
X140630803Y-127117931D01*
X140509163Y-127157454D01*
X140340800Y-127243240D01*
X140253579Y-127306610D01*
X140187927Y-127354310D01*
X140187925Y-127354312D01*
X140187924Y-127354312D01*
X140054312Y-127487924D01*
X140054312Y-127487925D01*
X140054310Y-127487927D01*
X140017286Y-127538885D01*
X139943236Y-127640805D01*
X139926984Y-127672703D01*
X139879010Y-127723499D01*
X139811189Y-127740294D01*
X139745054Y-127717756D01*
X139701603Y-127663041D01*
X139692500Y-127616408D01*
X139692500Y-126383591D01*
X139712185Y-126316552D01*
X139764989Y-126270797D01*
X139834147Y-126260853D01*
X139897703Y-126289878D01*
G37*
%TD.AperFunction*%
%TA.AperFunction,Conductor*%
G36*
X154894945Y-126282242D02*
G01*
X154938397Y-126336957D01*
X154947500Y-126383591D01*
X154947500Y-127616408D01*
X154927815Y-127683447D01*
X154875011Y-127729202D01*
X154805853Y-127739146D01*
X154742297Y-127710121D01*
X154713016Y-127672703D01*
X154696763Y-127640805D01*
X154679037Y-127616408D01*
X154585690Y-127487927D01*
X154452073Y-127354310D01*
X154299199Y-127243240D01*
X154130836Y-127157454D01*
X154056472Y-127133291D01*
X154009195Y-127117930D01*
X153951521Y-127078493D01*
X153924323Y-127014134D01*
X153936238Y-126945288D01*
X153983482Y-126893812D01*
X154009194Y-126882069D01*
X154130832Y-126842547D01*
X154299199Y-126756760D01*
X154452073Y-126645690D01*
X154585690Y-126512073D01*
X154696760Y-126359199D01*
X154713015Y-126327297D01*
X154760989Y-126276501D01*
X154828810Y-126259705D01*
X154894945Y-126282242D01*
G37*
%TD.AperFunction*%
%TA.AperFunction,Conductor*%
G36*
X139897703Y-123749878D02*
G01*
X139926985Y-123787297D01*
X139943238Y-123819197D01*
X139951669Y-123830801D01*
X140054310Y-123972073D01*
X140187927Y-124105690D01*
X140340801Y-124216760D01*
X140420347Y-124257290D01*
X140509163Y-124302545D01*
X140509165Y-124302545D01*
X140509168Y-124302547D01*
X140598734Y-124331649D01*
X140630803Y-124342069D01*
X140688478Y-124381507D01*
X140715676Y-124445866D01*
X140703761Y-124514712D01*
X140656516Y-124566188D01*
X140630803Y-124577931D01*
X140509163Y-124617454D01*
X140340800Y-124703240D01*
X140253579Y-124766610D01*
X140187927Y-124814310D01*
X140187925Y-124814312D01*
X140187924Y-124814312D01*
X140054312Y-124947924D01*
X140054312Y-124947925D01*
X140054310Y-124947927D01*
X140017286Y-124998885D01*
X139943236Y-125100805D01*
X139926984Y-125132703D01*
X139879010Y-125183499D01*
X139811189Y-125200294D01*
X139745054Y-125177756D01*
X139701603Y-125123041D01*
X139692500Y-125076408D01*
X139692500Y-123843591D01*
X139712185Y-123776552D01*
X139764989Y-123730797D01*
X139834147Y-123720853D01*
X139897703Y-123749878D01*
G37*
%TD.AperFunction*%
%TA.AperFunction,Conductor*%
G36*
X154894945Y-123742242D02*
G01*
X154938397Y-123796957D01*
X154947500Y-123843591D01*
X154947500Y-125076408D01*
X154927815Y-125143447D01*
X154875011Y-125189202D01*
X154805853Y-125199146D01*
X154742297Y-125170121D01*
X154713016Y-125132703D01*
X154696763Y-125100805D01*
X154679037Y-125076408D01*
X154585690Y-124947927D01*
X154452073Y-124814310D01*
X154299199Y-124703240D01*
X154130836Y-124617454D01*
X154056472Y-124593291D01*
X154009195Y-124577930D01*
X153951521Y-124538493D01*
X153924323Y-124474134D01*
X153936238Y-124405288D01*
X153983482Y-124353812D01*
X154009194Y-124342069D01*
X154130832Y-124302547D01*
X154299199Y-124216760D01*
X154452073Y-124105690D01*
X154585690Y-123972073D01*
X154696760Y-123819199D01*
X154713015Y-123787297D01*
X154760989Y-123736501D01*
X154828810Y-123719705D01*
X154894945Y-123742242D01*
G37*
%TD.AperFunction*%
%TA.AperFunction,Conductor*%
G36*
X139897703Y-121209878D02*
G01*
X139926985Y-121247297D01*
X139943238Y-121279197D01*
X139951669Y-121290801D01*
X140054310Y-121432073D01*
X140187927Y-121565690D01*
X140340801Y-121676760D01*
X140420347Y-121717290D01*
X140509163Y-121762545D01*
X140509165Y-121762545D01*
X140509168Y-121762547D01*
X140598734Y-121791649D01*
X140630803Y-121802069D01*
X140688478Y-121841507D01*
X140715676Y-121905866D01*
X140703761Y-121974712D01*
X140656516Y-122026188D01*
X140630803Y-122037931D01*
X140509163Y-122077454D01*
X140340800Y-122163240D01*
X140253579Y-122226610D01*
X140187927Y-122274310D01*
X140187925Y-122274312D01*
X140187924Y-122274312D01*
X140054312Y-122407924D01*
X140054312Y-122407925D01*
X140054310Y-122407927D01*
X140017286Y-122458885D01*
X139943236Y-122560805D01*
X139926984Y-122592703D01*
X139879010Y-122643499D01*
X139811189Y-122660294D01*
X139745054Y-122637756D01*
X139701603Y-122583041D01*
X139692500Y-122536408D01*
X139692500Y-121303591D01*
X139712185Y-121236552D01*
X139764989Y-121190797D01*
X139834147Y-121180853D01*
X139897703Y-121209878D01*
G37*
%TD.AperFunction*%
%TA.AperFunction,Conductor*%
G36*
X154894945Y-121202242D02*
G01*
X154938397Y-121256957D01*
X154947500Y-121303591D01*
X154947500Y-122536408D01*
X154927815Y-122603447D01*
X154875011Y-122649202D01*
X154805853Y-122659146D01*
X154742297Y-122630121D01*
X154713016Y-122592703D01*
X154696763Y-122560805D01*
X154679037Y-122536408D01*
X154585690Y-122407927D01*
X154452073Y-122274310D01*
X154299199Y-122163240D01*
X154130836Y-122077454D01*
X154056472Y-122053291D01*
X154009195Y-122037930D01*
X153951521Y-121998493D01*
X153924323Y-121934134D01*
X153936238Y-121865288D01*
X153983482Y-121813812D01*
X154009194Y-121802069D01*
X154130832Y-121762547D01*
X154299199Y-121676760D01*
X154452073Y-121565690D01*
X154585690Y-121432073D01*
X154696760Y-121279199D01*
X154713015Y-121247297D01*
X154760989Y-121196501D01*
X154828810Y-121179705D01*
X154894945Y-121202242D01*
G37*
%TD.AperFunction*%
%TA.AperFunction,Conductor*%
G36*
X139897703Y-118669878D02*
G01*
X139926985Y-118707297D01*
X139943238Y-118739197D01*
X139960962Y-118763591D01*
X140054310Y-118892073D01*
X140187927Y-119025690D01*
X140340801Y-119136760D01*
X140419512Y-119176865D01*
X140509163Y-119222545D01*
X140509165Y-119222545D01*
X140509168Y-119222547D01*
X140583063Y-119246557D01*
X140630803Y-119262069D01*
X140688478Y-119301507D01*
X140715676Y-119365866D01*
X140703761Y-119434712D01*
X140656516Y-119486188D01*
X140630803Y-119497931D01*
X140509163Y-119537454D01*
X140340800Y-119623240D01*
X140288826Y-119661002D01*
X140187927Y-119734310D01*
X140187925Y-119734312D01*
X140187924Y-119734312D01*
X140054312Y-119867924D01*
X140054312Y-119867925D01*
X140054310Y-119867927D01*
X140017286Y-119918885D01*
X139943236Y-120020805D01*
X139926984Y-120052703D01*
X139879010Y-120103499D01*
X139811189Y-120120294D01*
X139745054Y-120097756D01*
X139701603Y-120043041D01*
X139692500Y-119996408D01*
X139692500Y-118763591D01*
X139712185Y-118696552D01*
X139764989Y-118650797D01*
X139834147Y-118640853D01*
X139897703Y-118669878D01*
G37*
%TD.AperFunction*%
%TA.AperFunction,Conductor*%
G36*
X154894945Y-118662242D02*
G01*
X154938397Y-118716957D01*
X154947500Y-118763591D01*
X154947500Y-119996408D01*
X154927815Y-120063447D01*
X154875011Y-120109202D01*
X154805853Y-120119146D01*
X154742297Y-120090121D01*
X154713016Y-120052703D01*
X154696763Y-120020805D01*
X154679037Y-119996408D01*
X154585690Y-119867927D01*
X154452073Y-119734310D01*
X154299199Y-119623240D01*
X154253804Y-119600110D01*
X154130836Y-119537454D01*
X154056472Y-119513291D01*
X154009195Y-119497930D01*
X153951521Y-119458493D01*
X153924323Y-119394134D01*
X153936238Y-119325288D01*
X153983482Y-119273812D01*
X154009194Y-119262069D01*
X154130832Y-119222547D01*
X154299199Y-119136760D01*
X154452073Y-119025690D01*
X154585690Y-118892073D01*
X154696760Y-118739199D01*
X154713015Y-118707297D01*
X154760989Y-118656501D01*
X154828810Y-118639705D01*
X154894945Y-118662242D01*
G37*
%TD.AperFunction*%
%TA.AperFunction,Conductor*%
G36*
X139897703Y-116129878D02*
G01*
X139926985Y-116167297D01*
X139943238Y-116199197D01*
X139976608Y-116245127D01*
X140054310Y-116352073D01*
X140187927Y-116485690D01*
X140340801Y-116596760D01*
X140359937Y-116606510D01*
X140509163Y-116682545D01*
X140509165Y-116682545D01*
X140509168Y-116682547D01*
X140598734Y-116711649D01*
X140630803Y-116722069D01*
X140688478Y-116761507D01*
X140715676Y-116825866D01*
X140703761Y-116894712D01*
X140656516Y-116946188D01*
X140630803Y-116957931D01*
X140509163Y-116997454D01*
X140340800Y-117083240D01*
X140253579Y-117146610D01*
X140187927Y-117194310D01*
X140187925Y-117194312D01*
X140187924Y-117194312D01*
X140054312Y-117327924D01*
X140054312Y-117327925D01*
X140054310Y-117327927D01*
X140038064Y-117350288D01*
X139943236Y-117480805D01*
X139926984Y-117512703D01*
X139879010Y-117563499D01*
X139811189Y-117580294D01*
X139745054Y-117557756D01*
X139701603Y-117503041D01*
X139692500Y-117456408D01*
X139692500Y-116223591D01*
X139712185Y-116156552D01*
X139764989Y-116110797D01*
X139834147Y-116100853D01*
X139897703Y-116129878D01*
G37*
%TD.AperFunction*%
%TA.AperFunction,Conductor*%
G36*
X154894945Y-116122242D02*
G01*
X154938397Y-116176957D01*
X154947500Y-116223591D01*
X154947500Y-117456408D01*
X154927815Y-117523447D01*
X154875011Y-117569202D01*
X154805853Y-117579146D01*
X154742297Y-117550121D01*
X154713016Y-117512703D01*
X154696763Y-117480805D01*
X154682663Y-117461398D01*
X154585690Y-117327927D01*
X154452073Y-117194310D01*
X154299199Y-117083240D01*
X154280062Y-117073489D01*
X154130836Y-116997454D01*
X154056472Y-116973291D01*
X154009195Y-116957930D01*
X153951521Y-116918493D01*
X153924323Y-116854134D01*
X153936238Y-116785288D01*
X153983482Y-116733812D01*
X154009194Y-116722069D01*
X154130832Y-116682547D01*
X154299199Y-116596760D01*
X154452073Y-116485690D01*
X154585690Y-116352073D01*
X154696760Y-116199199D01*
X154713015Y-116167297D01*
X154760989Y-116116501D01*
X154828810Y-116099705D01*
X154894945Y-116122242D01*
G37*
%TD.AperFunction*%
%TA.AperFunction,Conductor*%
G36*
X139897703Y-113589878D02*
G01*
X139926985Y-113627297D01*
X139943238Y-113659197D01*
X139960962Y-113683591D01*
X140054310Y-113812073D01*
X140187927Y-113945690D01*
X140340801Y-114056760D01*
X140420347Y-114097290D01*
X140509163Y-114142545D01*
X140509165Y-114142545D01*
X140509168Y-114142547D01*
X140598734Y-114171649D01*
X140630803Y-114182069D01*
X140688478Y-114221507D01*
X140715676Y-114285866D01*
X140703761Y-114354712D01*
X140656516Y-114406188D01*
X140630803Y-114417931D01*
X140509163Y-114457454D01*
X140340800Y-114543240D01*
X140253579Y-114606610D01*
X140187927Y-114654310D01*
X140187925Y-114654312D01*
X140187924Y-114654312D01*
X140054312Y-114787924D01*
X140054312Y-114787925D01*
X140054310Y-114787927D01*
X140017286Y-114838885D01*
X139943236Y-114940805D01*
X139926984Y-114972703D01*
X139879010Y-115023499D01*
X139811189Y-115040294D01*
X139745054Y-115017756D01*
X139701603Y-114963041D01*
X139692500Y-114916408D01*
X139692500Y-113683591D01*
X139712185Y-113616552D01*
X139764989Y-113570797D01*
X139834147Y-113560853D01*
X139897703Y-113589878D01*
G37*
%TD.AperFunction*%
%TA.AperFunction,Conductor*%
G36*
X154894945Y-113582242D02*
G01*
X154938397Y-113636957D01*
X154947500Y-113683591D01*
X154947500Y-114916408D01*
X154927815Y-114983447D01*
X154875011Y-115029202D01*
X154805853Y-115039146D01*
X154742297Y-115010121D01*
X154713016Y-114972703D01*
X154696763Y-114940805D01*
X154679037Y-114916408D01*
X154585690Y-114787927D01*
X154452073Y-114654310D01*
X154299199Y-114543240D01*
X154130836Y-114457454D01*
X154056472Y-114433291D01*
X154009195Y-114417930D01*
X153951521Y-114378493D01*
X153924323Y-114314134D01*
X153936238Y-114245288D01*
X153983482Y-114193812D01*
X154009194Y-114182069D01*
X154130832Y-114142547D01*
X154299199Y-114056760D01*
X154452073Y-113945690D01*
X154585690Y-113812073D01*
X154696760Y-113659199D01*
X154713015Y-113627297D01*
X154760989Y-113576501D01*
X154828810Y-113559705D01*
X154894945Y-113582242D01*
G37*
%TD.AperFunction*%
%TA.AperFunction,Conductor*%
G36*
X141653448Y-110502185D02*
G01*
X141699203Y-110554989D01*
X141709147Y-110624147D01*
X141680122Y-110687703D01*
X141642703Y-110716985D01*
X141610802Y-110733238D01*
X141503855Y-110810941D01*
X141457927Y-110844310D01*
X141457925Y-110844312D01*
X141457924Y-110844312D01*
X141324312Y-110977924D01*
X141324312Y-110977925D01*
X141324310Y-110977927D01*
X141276610Y-111043579D01*
X141213240Y-111130800D01*
X141127454Y-111299163D01*
X141069059Y-111478881D01*
X141039500Y-111665513D01*
X141039500Y-111705500D01*
X141019815Y-111772539D01*
X140967011Y-111818294D01*
X140915500Y-111829500D01*
X140875514Y-111829500D01*
X140688881Y-111859059D01*
X140509163Y-111917454D01*
X140340800Y-112003240D01*
X140263355Y-112059508D01*
X140187927Y-112114310D01*
X140187925Y-112114312D01*
X140187924Y-112114312D01*
X140054312Y-112247924D01*
X140054312Y-112247925D01*
X140054310Y-112247927D01*
X140017286Y-112298885D01*
X139943236Y-112400805D01*
X139926984Y-112432703D01*
X139879010Y-112483499D01*
X139811189Y-112500294D01*
X139745054Y-112477756D01*
X139701603Y-112423041D01*
X139692500Y-112376408D01*
X139692500Y-110606500D01*
X139712185Y-110539461D01*
X139764989Y-110493706D01*
X139816500Y-110482500D01*
X141586409Y-110482500D01*
X141653448Y-110502185D01*
G37*
%TD.AperFunction*%
%TA.AperFunction,Conductor*%
G36*
X154890539Y-110502185D02*
G01*
X154936294Y-110554989D01*
X154947500Y-110606500D01*
X154947500Y-112376408D01*
X154927815Y-112443447D01*
X154875011Y-112489202D01*
X154805853Y-112499146D01*
X154742297Y-112470121D01*
X154713016Y-112432703D01*
X154696763Y-112400805D01*
X154679037Y-112376408D01*
X154585690Y-112247927D01*
X154452073Y-112114310D01*
X154299199Y-112003240D01*
X154130836Y-111917454D01*
X153951118Y-111859059D01*
X153764486Y-111829500D01*
X153764481Y-111829500D01*
X153724500Y-111829500D01*
X153657461Y-111809815D01*
X153611706Y-111757011D01*
X153600500Y-111705500D01*
X153600500Y-111665513D01*
X153570940Y-111478881D01*
X153512545Y-111299163D01*
X153426759Y-111130800D01*
X153315690Y-110977927D01*
X153182073Y-110844310D01*
X153105636Y-110788775D01*
X153029197Y-110733238D01*
X152997297Y-110716985D01*
X152946501Y-110669011D01*
X152929705Y-110601190D01*
X152952242Y-110535055D01*
X153006957Y-110491603D01*
X153053591Y-110482500D01*
X154823500Y-110482500D01*
X154890539Y-110502185D01*
G37*
%TD.AperFunction*%
%TD*%
M02*
