M48
; DRILL file {KiCad 9.0.2-9.0.2-0~ubuntu24.04.1} date 2025-05-26T11:18:25+0900
; FORMAT={-:-/ absolute / metric / decimal}
; #@! TF.CreationDate,2025-05-26T11:18:25+09:00
; #@! TF.GenerationSoftware,Kicad,Pcbnew,9.0.2-9.0.2-0~ubuntu24.04.1
; #@! TF.FileFunction,Plated,1,2,PTH
FMAT,2
METRIC
; #@! TA.AperFunction,Plated,PTH,ViaDrill
T1C0.300
; #@! TA.AperFunction,Plated,PTH,ComponentDrill
T2C1.000
%
G90
G05
T1
X144.018Y-118.872
X144.018Y-123.19
X144.018Y-128.27
X145.288Y-116.84
X147.066Y-112.522
X147.066Y-119.634
X147.066Y-128.016
X147.066Y-132.842
X147.32Y-138.176
X148.844Y-116.84
X150.114Y-118.872
X150.114Y-123.19
X150.114Y-128.27
T2
X140.97Y-113.03
X140.97Y-115.57
X140.97Y-118.11
X140.97Y-120.65
X140.97Y-123.19
X140.97Y-125.73
X140.97Y-128.27
X140.97Y-130.81
X140.97Y-133.35
X140.97Y-135.89
X142.24Y-111.76
X142.24Y-114.3
X142.24Y-116.84
X142.24Y-119.38
X142.24Y-121.92
X142.24Y-124.46
X142.24Y-127.0
X142.24Y-129.54
X142.24Y-132.08
X142.24Y-134.62
X142.24Y-137.16
X142.24Y-139.7
X152.4Y-111.76
X152.4Y-114.3
X152.4Y-116.84
X152.4Y-119.38
X152.4Y-121.92
X152.4Y-124.46
X152.4Y-127.0
X152.4Y-129.54
X152.4Y-132.08
X152.4Y-134.62
X152.4Y-137.16
X152.4Y-139.7
X153.67Y-113.03
X153.67Y-115.57
X153.67Y-118.11
X153.67Y-120.65
X153.67Y-123.19
X153.67Y-125.73
X153.67Y-128.27
X153.67Y-130.81
X153.67Y-133.35
X153.67Y-135.89
M30
