%TF.GenerationSoftware,KiCad,Pcbnew,9.0.5-9.0.5~ubuntu24.04.1*%
%TF.CreationDate,2025-10-25T11:33:56+09:00*%
%TF.ProjectId,SOP28_Test,534f5032-385f-4546-9573-742e6b696361,rev?*%
%TF.SameCoordinates,Original*%
%TF.FileFunction,Other,User*%
%FSLAX46Y46*%
G04 Gerber Fmt 4.6, Leading zero omitted, Abs format (unit mm)*
G04 Created by KiCad (PCBNEW 9.0.5-9.0.5~ubuntu24.04.1) date 2025-10-25 11:33:56*
%MOMM*%
%LPD*%
G01*
G04 APERTURE LIST*
%ADD10C,0.050000*%
G04 APERTURE END LIST*
D10*
%TO.C,H4*%
X143050000Y-118000000D02*
G75*
G02*
X136950000Y-118000000I-3050000J0D01*
G01*
X136950000Y-118000000D02*
G75*
G02*
X143050000Y-118000000I3050000J0D01*
G01*
%TO.C,J2*%
X108930000Y-73220000D02*
X108930000Y-109800000D01*
X108930000Y-109800000D02*
X112470000Y-109800000D01*
X112470000Y-73220000D02*
X108930000Y-73220000D01*
X112470000Y-109800000D02*
X112470000Y-73220000D01*
%TO.C,J7*%
X127230000Y-73220000D02*
X127230000Y-109800000D01*
X127230000Y-109800000D02*
X130770000Y-109800000D01*
X130770000Y-73220000D02*
X127230000Y-73220000D01*
X130770000Y-109800000D02*
X130770000Y-73220000D01*
%TO.C,H1*%
X88050000Y-60000000D02*
G75*
G02*
X81950000Y-60000000I-3050000J0D01*
G01*
X81950000Y-60000000D02*
G75*
G02*
X88050000Y-60000000I3050000J0D01*
G01*
%TO.C,J5*%
X114010000Y-73220000D02*
X114010000Y-109800000D01*
X114010000Y-109800000D02*
X117550000Y-109800000D01*
X117550000Y-73220000D02*
X114010000Y-73220000D01*
X117550000Y-109800000D02*
X117550000Y-73220000D01*
%TO.C,H2*%
X133352000Y-60000000D02*
G75*
G02*
X127252000Y-60000000I-3050000J0D01*
G01*
X127252000Y-60000000D02*
G75*
G02*
X133352000Y-60000000I3050000J0D01*
G01*
%TO.C,J3*%
X150884000Y-44966000D02*
X150884000Y-117086000D01*
X150884000Y-117086000D02*
X156974000Y-117086000D01*
X156974000Y-44966000D02*
X150884000Y-44966000D01*
X156974000Y-117086000D02*
X156974000Y-44966000D01*
%TO.C,H3*%
X88050000Y-118000000D02*
G75*
G02*
X81950000Y-118000000I-3050000J0D01*
G01*
X81950000Y-118000000D02*
G75*
G02*
X88050000Y-118000000I3050000J0D01*
G01*
%TO.C,J4*%
X96230000Y-73220000D02*
X96230000Y-109800000D01*
X96230000Y-109800000D02*
X99770000Y-109800000D01*
X99770000Y-73220000D02*
X96230000Y-73220000D01*
X99770000Y-109800000D02*
X99770000Y-73220000D01*
%TO.C,J1*%
X101310000Y-73220000D02*
X101310000Y-109800000D01*
X101310000Y-109800000D02*
X104850000Y-109800000D01*
X104850000Y-73220000D02*
X101310000Y-73220000D01*
X104850000Y-109800000D02*
X104850000Y-73220000D01*
%TO.C,J6*%
X84230000Y-73220000D02*
X84230000Y-109800000D01*
X84230000Y-109800000D02*
X87770000Y-109800000D01*
X87770000Y-73220000D02*
X84230000Y-73220000D01*
X87770000Y-109800000D02*
X87770000Y-73220000D01*
%TD*%
M02*
