M48
; DRILL file {KiCad 9.0.5-9.0.5~ubuntu24.04.1} date 2025-10-25T11:33:47+0900
; FORMAT={-:-/ absolute / metric / decimal}
; #@! TF.CreationDate,2025-10-25T11:33:47+09:00
; #@! TF.GenerationSoftware,Kicad,Pcbnew,9.0.5-9.0.5~ubuntu24.04.1
; #@! TF.FileFunction,Plated,1,2,PTH
FMAT,2
METRIC
; #@! TA.AperFunction,Plated,PTH,ComponentDrill
T1C1.000
; #@! TA.AperFunction,Plated,PTH,ComponentDrill
T2C3.200
%
G90
G05
T1
X86.0Y-75.0
X86.0Y-77.54
X86.0Y-80.08
X86.0Y-82.62
X86.0Y-85.16
X86.0Y-87.7
X86.0Y-90.24
X86.0Y-92.78
X86.0Y-95.32
X86.0Y-97.86
X86.0Y-100.4
X86.0Y-102.94
X86.0Y-105.48
X86.0Y-108.02
X98.0Y-75.0
X98.0Y-77.54
X98.0Y-80.08
X98.0Y-82.62
X98.0Y-85.16
X98.0Y-87.7
X98.0Y-90.24
X98.0Y-92.78
X98.0Y-95.32
X98.0Y-97.86
X98.0Y-100.4
X98.0Y-102.94
X98.0Y-105.48
X98.0Y-108.02
X103.08Y-75.0
X103.08Y-77.54
X103.08Y-80.08
X103.08Y-82.62
X103.08Y-85.16
X103.08Y-87.7
X103.08Y-90.24
X103.08Y-92.78
X103.08Y-95.32
X103.08Y-97.86
X103.08Y-100.4
X103.08Y-102.94
X103.08Y-105.48
X103.08Y-108.02
X110.7Y-75.0
X110.7Y-77.54
X110.7Y-80.08
X110.7Y-82.62
X110.7Y-85.16
X110.7Y-87.7
X110.7Y-90.24
X110.7Y-92.78
X110.7Y-95.32
X110.7Y-97.86
X110.7Y-100.4
X110.7Y-102.94
X110.7Y-105.48
X110.7Y-108.02
X115.78Y-75.0
X115.78Y-77.54
X115.78Y-80.08
X115.78Y-82.62
X115.78Y-85.16
X115.78Y-87.7
X115.78Y-90.24
X115.78Y-92.78
X115.78Y-95.32
X115.78Y-97.86
X115.78Y-100.4
X115.78Y-102.94
X115.78Y-105.48
X115.78Y-108.02
X129.0Y-75.0
X129.0Y-77.54
X129.0Y-80.08
X129.0Y-82.62
X129.0Y-85.16
X129.0Y-87.7
X129.0Y-90.24
X129.0Y-92.78
X129.0Y-95.32
X129.0Y-97.86
X129.0Y-100.4
X129.0Y-102.94
X129.0Y-105.48
X129.0Y-108.02
X152.654Y-46.736
X152.654Y-49.276
X152.654Y-51.816
X152.654Y-54.356
X152.654Y-56.896
X152.654Y-59.436
X152.654Y-61.976
X152.654Y-64.516
X152.654Y-67.056
X152.654Y-69.596
X152.654Y-72.136
X152.654Y-74.676
X152.654Y-77.216
X152.654Y-79.756
X152.654Y-82.296
X152.654Y-84.836
X152.654Y-87.376
X152.654Y-89.916
X152.654Y-92.456
X152.654Y-94.996
X152.654Y-97.536
X152.654Y-100.076
X152.654Y-102.616
X152.654Y-105.156
X152.654Y-107.696
X152.654Y-110.236
X152.654Y-112.776
X152.654Y-115.316
X155.194Y-46.736
X155.194Y-49.276
X155.194Y-51.816
X155.194Y-54.356
X155.194Y-56.896
X155.194Y-59.436
X155.194Y-61.976
X155.194Y-64.516
X155.194Y-67.056
X155.194Y-69.596
X155.194Y-72.136
X155.194Y-74.676
X155.194Y-77.216
X155.194Y-79.756
X155.194Y-82.296
X155.194Y-84.836
X155.194Y-87.376
X155.194Y-89.916
X155.194Y-92.456
X155.194Y-94.996
X155.194Y-97.536
X155.194Y-100.076
X155.194Y-102.616
X155.194Y-105.156
X155.194Y-107.696
X155.194Y-110.236
X155.194Y-112.776
X155.194Y-115.316
T2
X85.0Y-60.0
X85.0Y-118.0
X130.302Y-60.0
X140.0Y-118.0
M30
