%TF.GenerationSoftware,KiCad,Pcbnew,9.0.5-9.0.5~ubuntu24.04.1*%
%TF.CreationDate,2025-10-25T11:33:53+09:00*%
%TF.ProjectId,SOP28_Test,534f5032-385f-4546-9573-742e6b696361,rev?*%
%TF.SameCoordinates,Original*%
%TF.FileFunction,Legend,Top*%
%TF.FilePolarity,Positive*%
%FSLAX46Y46*%
G04 Gerber Fmt 4.6, Leading zero omitted, Abs format (unit mm)*
G04 Created by KiCad (PCBNEW 9.0.5-9.0.5~ubuntu24.04.1) date 2025-10-25 11:33:53*
%MOMM*%
%LPD*%
G01*
G04 APERTURE LIST*
%ADD10C,0.200000*%
%ADD11C,0.100000*%
%ADD12C,0.300000*%
%ADD13C,0.120000*%
G04 APERTURE END LIST*
D10*
X150204708Y-47448014D02*
X149347565Y-47448014D01*
X149776136Y-47448014D02*
X149776136Y-45868014D01*
X149776136Y-45868014D02*
X149633279Y-46093728D01*
X149633279Y-46093728D02*
X149490422Y-46244204D01*
X149490422Y-46244204D02*
X149347565Y-46319442D01*
X149347565Y-48562202D02*
X149418993Y-48486964D01*
X149418993Y-48486964D02*
X149561851Y-48411726D01*
X149561851Y-48411726D02*
X149918993Y-48411726D01*
X149918993Y-48411726D02*
X150061851Y-48486964D01*
X150061851Y-48486964D02*
X150133279Y-48562202D01*
X150133279Y-48562202D02*
X150204708Y-48712678D01*
X150204708Y-48712678D02*
X150204708Y-48863154D01*
X150204708Y-48863154D02*
X150133279Y-49088868D01*
X150133279Y-49088868D02*
X149276136Y-49991726D01*
X149276136Y-49991726D02*
X150204708Y-49991726D01*
X149276136Y-50955438D02*
X150204708Y-50955438D01*
X150204708Y-50955438D02*
X149704708Y-51557342D01*
X149704708Y-51557342D02*
X149918993Y-51557342D01*
X149918993Y-51557342D02*
X150061851Y-51632580D01*
X150061851Y-51632580D02*
X150133279Y-51707819D01*
X150133279Y-51707819D02*
X150204708Y-51858295D01*
X150204708Y-51858295D02*
X150204708Y-52234485D01*
X150204708Y-52234485D02*
X150133279Y-52384961D01*
X150133279Y-52384961D02*
X150061851Y-52460200D01*
X150061851Y-52460200D02*
X149918993Y-52535438D01*
X149918993Y-52535438D02*
X149490422Y-52535438D01*
X149490422Y-52535438D02*
X149347565Y-52460200D01*
X149347565Y-52460200D02*
X149276136Y-52384961D01*
X150061851Y-54025816D02*
X150061851Y-55079150D01*
X149704708Y-53423912D02*
X149347565Y-54552483D01*
X149347565Y-54552483D02*
X150276136Y-54552483D01*
X150133279Y-56042862D02*
X149418993Y-56042862D01*
X149418993Y-56042862D02*
X149347565Y-56795243D01*
X149347565Y-56795243D02*
X149418993Y-56720004D01*
X149418993Y-56720004D02*
X149561851Y-56644766D01*
X149561851Y-56644766D02*
X149918993Y-56644766D01*
X149918993Y-56644766D02*
X150061851Y-56720004D01*
X150061851Y-56720004D02*
X150133279Y-56795243D01*
X150133279Y-56795243D02*
X150204708Y-56945719D01*
X150204708Y-56945719D02*
X150204708Y-57321909D01*
X150204708Y-57321909D02*
X150133279Y-57472385D01*
X150133279Y-57472385D02*
X150061851Y-57547624D01*
X150061851Y-57547624D02*
X149918993Y-57622862D01*
X149918993Y-57622862D02*
X149561851Y-57622862D01*
X149561851Y-57622862D02*
X149418993Y-57547624D01*
X149418993Y-57547624D02*
X149347565Y-57472385D01*
X150061851Y-58586574D02*
X149776136Y-58586574D01*
X149776136Y-58586574D02*
X149633279Y-58661812D01*
X149633279Y-58661812D02*
X149561851Y-58737050D01*
X149561851Y-58737050D02*
X149418993Y-58962764D01*
X149418993Y-58962764D02*
X149347565Y-59263716D01*
X149347565Y-59263716D02*
X149347565Y-59865621D01*
X149347565Y-59865621D02*
X149418993Y-60016097D01*
X149418993Y-60016097D02*
X149490422Y-60091336D01*
X149490422Y-60091336D02*
X149633279Y-60166574D01*
X149633279Y-60166574D02*
X149918993Y-60166574D01*
X149918993Y-60166574D02*
X150061851Y-60091336D01*
X150061851Y-60091336D02*
X150133279Y-60016097D01*
X150133279Y-60016097D02*
X150204708Y-59865621D01*
X150204708Y-59865621D02*
X150204708Y-59489431D01*
X150204708Y-59489431D02*
X150133279Y-59338955D01*
X150133279Y-59338955D02*
X150061851Y-59263716D01*
X150061851Y-59263716D02*
X149918993Y-59188478D01*
X149918993Y-59188478D02*
X149633279Y-59188478D01*
X149633279Y-59188478D02*
X149490422Y-59263716D01*
X149490422Y-59263716D02*
X149418993Y-59338955D01*
X149418993Y-59338955D02*
X149347565Y-59489431D01*
X149276136Y-61130286D02*
X150276136Y-61130286D01*
X150276136Y-61130286D02*
X149633279Y-62710286D01*
X149633279Y-64351140D02*
X149490422Y-64275902D01*
X149490422Y-64275902D02*
X149418993Y-64200664D01*
X149418993Y-64200664D02*
X149347565Y-64050188D01*
X149347565Y-64050188D02*
X149347565Y-63974950D01*
X149347565Y-63974950D02*
X149418993Y-63824474D01*
X149418993Y-63824474D02*
X149490422Y-63749236D01*
X149490422Y-63749236D02*
X149633279Y-63673998D01*
X149633279Y-63673998D02*
X149918993Y-63673998D01*
X149918993Y-63673998D02*
X150061851Y-63749236D01*
X150061851Y-63749236D02*
X150133279Y-63824474D01*
X150133279Y-63824474D02*
X150204708Y-63974950D01*
X150204708Y-63974950D02*
X150204708Y-64050188D01*
X150204708Y-64050188D02*
X150133279Y-64200664D01*
X150133279Y-64200664D02*
X150061851Y-64275902D01*
X150061851Y-64275902D02*
X149918993Y-64351140D01*
X149918993Y-64351140D02*
X149633279Y-64351140D01*
X149633279Y-64351140D02*
X149490422Y-64426379D01*
X149490422Y-64426379D02*
X149418993Y-64501617D01*
X149418993Y-64501617D02*
X149347565Y-64652093D01*
X149347565Y-64652093D02*
X149347565Y-64953045D01*
X149347565Y-64953045D02*
X149418993Y-65103521D01*
X149418993Y-65103521D02*
X149490422Y-65178760D01*
X149490422Y-65178760D02*
X149633279Y-65253998D01*
X149633279Y-65253998D02*
X149918993Y-65253998D01*
X149918993Y-65253998D02*
X150061851Y-65178760D01*
X150061851Y-65178760D02*
X150133279Y-65103521D01*
X150133279Y-65103521D02*
X150204708Y-64953045D01*
X150204708Y-64953045D02*
X150204708Y-64652093D01*
X150204708Y-64652093D02*
X150133279Y-64501617D01*
X150133279Y-64501617D02*
X150061851Y-64426379D01*
X150061851Y-64426379D02*
X149918993Y-64351140D01*
X149490422Y-67797710D02*
X149776136Y-67797710D01*
X149776136Y-67797710D02*
X149918993Y-67722472D01*
X149918993Y-67722472D02*
X149990422Y-67647233D01*
X149990422Y-67647233D02*
X150133279Y-67421519D01*
X150133279Y-67421519D02*
X150204708Y-67120567D01*
X150204708Y-67120567D02*
X150204708Y-66518662D01*
X150204708Y-66518662D02*
X150133279Y-66368186D01*
X150133279Y-66368186D02*
X150061851Y-66292948D01*
X150061851Y-66292948D02*
X149918993Y-66217710D01*
X149918993Y-66217710D02*
X149633279Y-66217710D01*
X149633279Y-66217710D02*
X149490422Y-66292948D01*
X149490422Y-66292948D02*
X149418993Y-66368186D01*
X149418993Y-66368186D02*
X149347565Y-66518662D01*
X149347565Y-66518662D02*
X149347565Y-66894852D01*
X149347565Y-66894852D02*
X149418993Y-67045329D01*
X149418993Y-67045329D02*
X149490422Y-67120567D01*
X149490422Y-67120567D02*
X149633279Y-67195805D01*
X149633279Y-67195805D02*
X149918993Y-67195805D01*
X149918993Y-67195805D02*
X150061851Y-67120567D01*
X150061851Y-67120567D02*
X150133279Y-67045329D01*
X150133279Y-67045329D02*
X150204708Y-66894852D01*
X148776137Y-70341422D02*
X147918994Y-70341422D01*
X148347565Y-70341422D02*
X148347565Y-68761422D01*
X148347565Y-68761422D02*
X148204708Y-68987136D01*
X148204708Y-68987136D02*
X148061851Y-69137612D01*
X148061851Y-69137612D02*
X147918994Y-69212850D01*
X149704708Y-68761422D02*
X149847565Y-68761422D01*
X149847565Y-68761422D02*
X149990422Y-68836660D01*
X149990422Y-68836660D02*
X150061851Y-68911898D01*
X150061851Y-68911898D02*
X150133279Y-69062374D01*
X150133279Y-69062374D02*
X150204708Y-69363326D01*
X150204708Y-69363326D02*
X150204708Y-69739517D01*
X150204708Y-69739517D02*
X150133279Y-70040469D01*
X150133279Y-70040469D02*
X150061851Y-70190945D01*
X150061851Y-70190945D02*
X149990422Y-70266184D01*
X149990422Y-70266184D02*
X149847565Y-70341422D01*
X149847565Y-70341422D02*
X149704708Y-70341422D01*
X149704708Y-70341422D02*
X149561851Y-70266184D01*
X149561851Y-70266184D02*
X149490422Y-70190945D01*
X149490422Y-70190945D02*
X149418993Y-70040469D01*
X149418993Y-70040469D02*
X149347565Y-69739517D01*
X149347565Y-69739517D02*
X149347565Y-69363326D01*
X149347565Y-69363326D02*
X149418993Y-69062374D01*
X149418993Y-69062374D02*
X149490422Y-68911898D01*
X149490422Y-68911898D02*
X149561851Y-68836660D01*
X149561851Y-68836660D02*
X149704708Y-68761422D01*
X148776137Y-72885134D02*
X147918994Y-72885134D01*
X148347565Y-72885134D02*
X148347565Y-71305134D01*
X148347565Y-71305134D02*
X148204708Y-71530848D01*
X148204708Y-71530848D02*
X148061851Y-71681324D01*
X148061851Y-71681324D02*
X147918994Y-71756562D01*
X150204708Y-72885134D02*
X149347565Y-72885134D01*
X149776136Y-72885134D02*
X149776136Y-71305134D01*
X149776136Y-71305134D02*
X149633279Y-71530848D01*
X149633279Y-71530848D02*
X149490422Y-71681324D01*
X149490422Y-71681324D02*
X149347565Y-71756562D01*
X148776137Y-75428846D02*
X147918994Y-75428846D01*
X148347565Y-75428846D02*
X148347565Y-73848846D01*
X148347565Y-73848846D02*
X148204708Y-74074560D01*
X148204708Y-74074560D02*
X148061851Y-74225036D01*
X148061851Y-74225036D02*
X147918994Y-74300274D01*
X149347565Y-73999322D02*
X149418993Y-73924084D01*
X149418993Y-73924084D02*
X149561851Y-73848846D01*
X149561851Y-73848846D02*
X149918993Y-73848846D01*
X149918993Y-73848846D02*
X150061851Y-73924084D01*
X150061851Y-73924084D02*
X150133279Y-73999322D01*
X150133279Y-73999322D02*
X150204708Y-74149798D01*
X150204708Y-74149798D02*
X150204708Y-74300274D01*
X150204708Y-74300274D02*
X150133279Y-74525988D01*
X150133279Y-74525988D02*
X149276136Y-75428846D01*
X149276136Y-75428846D02*
X150204708Y-75428846D01*
X148776137Y-77972558D02*
X147918994Y-77972558D01*
X148347565Y-77972558D02*
X148347565Y-76392558D01*
X148347565Y-76392558D02*
X148204708Y-76618272D01*
X148204708Y-76618272D02*
X148061851Y-76768748D01*
X148061851Y-76768748D02*
X147918994Y-76843986D01*
X149276136Y-76392558D02*
X150204708Y-76392558D01*
X150204708Y-76392558D02*
X149704708Y-76994462D01*
X149704708Y-76994462D02*
X149918993Y-76994462D01*
X149918993Y-76994462D02*
X150061851Y-77069700D01*
X150061851Y-77069700D02*
X150133279Y-77144939D01*
X150133279Y-77144939D02*
X150204708Y-77295415D01*
X150204708Y-77295415D02*
X150204708Y-77671605D01*
X150204708Y-77671605D02*
X150133279Y-77822081D01*
X150133279Y-77822081D02*
X150061851Y-77897320D01*
X150061851Y-77897320D02*
X149918993Y-77972558D01*
X149918993Y-77972558D02*
X149490422Y-77972558D01*
X149490422Y-77972558D02*
X149347565Y-77897320D01*
X149347565Y-77897320D02*
X149276136Y-77822081D01*
X148776137Y-80516270D02*
X147918994Y-80516270D01*
X148347565Y-80516270D02*
X148347565Y-78936270D01*
X148347565Y-78936270D02*
X148204708Y-79161984D01*
X148204708Y-79161984D02*
X148061851Y-79312460D01*
X148061851Y-79312460D02*
X147918994Y-79387698D01*
X150061851Y-79462936D02*
X150061851Y-80516270D01*
X149704708Y-78861032D02*
X149347565Y-79989603D01*
X149347565Y-79989603D02*
X150276136Y-79989603D01*
X148776137Y-83059982D02*
X147918994Y-83059982D01*
X148347565Y-83059982D02*
X148347565Y-81479982D01*
X148347565Y-81479982D02*
X148204708Y-81705696D01*
X148204708Y-81705696D02*
X148061851Y-81856172D01*
X148061851Y-81856172D02*
X147918994Y-81931410D01*
X150133279Y-81479982D02*
X149418993Y-81479982D01*
X149418993Y-81479982D02*
X149347565Y-82232363D01*
X149347565Y-82232363D02*
X149418993Y-82157124D01*
X149418993Y-82157124D02*
X149561851Y-82081886D01*
X149561851Y-82081886D02*
X149918993Y-82081886D01*
X149918993Y-82081886D02*
X150061851Y-82157124D01*
X150061851Y-82157124D02*
X150133279Y-82232363D01*
X150133279Y-82232363D02*
X150204708Y-82382839D01*
X150204708Y-82382839D02*
X150204708Y-82759029D01*
X150204708Y-82759029D02*
X150133279Y-82909505D01*
X150133279Y-82909505D02*
X150061851Y-82984744D01*
X150061851Y-82984744D02*
X149918993Y-83059982D01*
X149918993Y-83059982D02*
X149561851Y-83059982D01*
X149561851Y-83059982D02*
X149418993Y-82984744D01*
X149418993Y-82984744D02*
X149347565Y-82909505D01*
X148776137Y-85603694D02*
X147918994Y-85603694D01*
X148347565Y-85603694D02*
X148347565Y-84023694D01*
X148347565Y-84023694D02*
X148204708Y-84249408D01*
X148204708Y-84249408D02*
X148061851Y-84399884D01*
X148061851Y-84399884D02*
X147918994Y-84475122D01*
X150061851Y-84023694D02*
X149776136Y-84023694D01*
X149776136Y-84023694D02*
X149633279Y-84098932D01*
X149633279Y-84098932D02*
X149561851Y-84174170D01*
X149561851Y-84174170D02*
X149418993Y-84399884D01*
X149418993Y-84399884D02*
X149347565Y-84700836D01*
X149347565Y-84700836D02*
X149347565Y-85302741D01*
X149347565Y-85302741D02*
X149418993Y-85453217D01*
X149418993Y-85453217D02*
X149490422Y-85528456D01*
X149490422Y-85528456D02*
X149633279Y-85603694D01*
X149633279Y-85603694D02*
X149918993Y-85603694D01*
X149918993Y-85603694D02*
X150061851Y-85528456D01*
X150061851Y-85528456D02*
X150133279Y-85453217D01*
X150133279Y-85453217D02*
X150204708Y-85302741D01*
X150204708Y-85302741D02*
X150204708Y-84926551D01*
X150204708Y-84926551D02*
X150133279Y-84776075D01*
X150133279Y-84776075D02*
X150061851Y-84700836D01*
X150061851Y-84700836D02*
X149918993Y-84625598D01*
X149918993Y-84625598D02*
X149633279Y-84625598D01*
X149633279Y-84625598D02*
X149490422Y-84700836D01*
X149490422Y-84700836D02*
X149418993Y-84776075D01*
X149418993Y-84776075D02*
X149347565Y-84926551D01*
X148776137Y-88147406D02*
X147918994Y-88147406D01*
X148347565Y-88147406D02*
X148347565Y-86567406D01*
X148347565Y-86567406D02*
X148204708Y-86793120D01*
X148204708Y-86793120D02*
X148061851Y-86943596D01*
X148061851Y-86943596D02*
X147918994Y-87018834D01*
X149276136Y-86567406D02*
X150276136Y-86567406D01*
X150276136Y-86567406D02*
X149633279Y-88147406D01*
X148776137Y-90691118D02*
X147918994Y-90691118D01*
X148347565Y-90691118D02*
X148347565Y-89111118D01*
X148347565Y-89111118D02*
X148204708Y-89336832D01*
X148204708Y-89336832D02*
X148061851Y-89487308D01*
X148061851Y-89487308D02*
X147918994Y-89562546D01*
X149633279Y-89788260D02*
X149490422Y-89713022D01*
X149490422Y-89713022D02*
X149418993Y-89637784D01*
X149418993Y-89637784D02*
X149347565Y-89487308D01*
X149347565Y-89487308D02*
X149347565Y-89412070D01*
X149347565Y-89412070D02*
X149418993Y-89261594D01*
X149418993Y-89261594D02*
X149490422Y-89186356D01*
X149490422Y-89186356D02*
X149633279Y-89111118D01*
X149633279Y-89111118D02*
X149918993Y-89111118D01*
X149918993Y-89111118D02*
X150061851Y-89186356D01*
X150061851Y-89186356D02*
X150133279Y-89261594D01*
X150133279Y-89261594D02*
X150204708Y-89412070D01*
X150204708Y-89412070D02*
X150204708Y-89487308D01*
X150204708Y-89487308D02*
X150133279Y-89637784D01*
X150133279Y-89637784D02*
X150061851Y-89713022D01*
X150061851Y-89713022D02*
X149918993Y-89788260D01*
X149918993Y-89788260D02*
X149633279Y-89788260D01*
X149633279Y-89788260D02*
X149490422Y-89863499D01*
X149490422Y-89863499D02*
X149418993Y-89938737D01*
X149418993Y-89938737D02*
X149347565Y-90089213D01*
X149347565Y-90089213D02*
X149347565Y-90390165D01*
X149347565Y-90390165D02*
X149418993Y-90540641D01*
X149418993Y-90540641D02*
X149490422Y-90615880D01*
X149490422Y-90615880D02*
X149633279Y-90691118D01*
X149633279Y-90691118D02*
X149918993Y-90691118D01*
X149918993Y-90691118D02*
X150061851Y-90615880D01*
X150061851Y-90615880D02*
X150133279Y-90540641D01*
X150133279Y-90540641D02*
X150204708Y-90390165D01*
X150204708Y-90390165D02*
X150204708Y-90089213D01*
X150204708Y-90089213D02*
X150133279Y-89938737D01*
X150133279Y-89938737D02*
X150061851Y-89863499D01*
X150061851Y-89863499D02*
X149918993Y-89788260D01*
X148776137Y-93234830D02*
X147918994Y-93234830D01*
X148347565Y-93234830D02*
X148347565Y-91654830D01*
X148347565Y-91654830D02*
X148204708Y-91880544D01*
X148204708Y-91880544D02*
X148061851Y-92031020D01*
X148061851Y-92031020D02*
X147918994Y-92106258D01*
X149490422Y-93234830D02*
X149776136Y-93234830D01*
X149776136Y-93234830D02*
X149918993Y-93159592D01*
X149918993Y-93159592D02*
X149990422Y-93084353D01*
X149990422Y-93084353D02*
X150133279Y-92858639D01*
X150133279Y-92858639D02*
X150204708Y-92557687D01*
X150204708Y-92557687D02*
X150204708Y-91955782D01*
X150204708Y-91955782D02*
X150133279Y-91805306D01*
X150133279Y-91805306D02*
X150061851Y-91730068D01*
X150061851Y-91730068D02*
X149918993Y-91654830D01*
X149918993Y-91654830D02*
X149633279Y-91654830D01*
X149633279Y-91654830D02*
X149490422Y-91730068D01*
X149490422Y-91730068D02*
X149418993Y-91805306D01*
X149418993Y-91805306D02*
X149347565Y-91955782D01*
X149347565Y-91955782D02*
X149347565Y-92331972D01*
X149347565Y-92331972D02*
X149418993Y-92482449D01*
X149418993Y-92482449D02*
X149490422Y-92557687D01*
X149490422Y-92557687D02*
X149633279Y-92632925D01*
X149633279Y-92632925D02*
X149918993Y-92632925D01*
X149918993Y-92632925D02*
X150061851Y-92557687D01*
X150061851Y-92557687D02*
X150133279Y-92482449D01*
X150133279Y-92482449D02*
X150204708Y-92331972D01*
X147918994Y-94349018D02*
X147990422Y-94273780D01*
X147990422Y-94273780D02*
X148133280Y-94198542D01*
X148133280Y-94198542D02*
X148490422Y-94198542D01*
X148490422Y-94198542D02*
X148633280Y-94273780D01*
X148633280Y-94273780D02*
X148704708Y-94349018D01*
X148704708Y-94349018D02*
X148776137Y-94499494D01*
X148776137Y-94499494D02*
X148776137Y-94649970D01*
X148776137Y-94649970D02*
X148704708Y-94875684D01*
X148704708Y-94875684D02*
X147847565Y-95778542D01*
X147847565Y-95778542D02*
X148776137Y-95778542D01*
X149704708Y-94198542D02*
X149847565Y-94198542D01*
X149847565Y-94198542D02*
X149990422Y-94273780D01*
X149990422Y-94273780D02*
X150061851Y-94349018D01*
X150061851Y-94349018D02*
X150133279Y-94499494D01*
X150133279Y-94499494D02*
X150204708Y-94800446D01*
X150204708Y-94800446D02*
X150204708Y-95176637D01*
X150204708Y-95176637D02*
X150133279Y-95477589D01*
X150133279Y-95477589D02*
X150061851Y-95628065D01*
X150061851Y-95628065D02*
X149990422Y-95703304D01*
X149990422Y-95703304D02*
X149847565Y-95778542D01*
X149847565Y-95778542D02*
X149704708Y-95778542D01*
X149704708Y-95778542D02*
X149561851Y-95703304D01*
X149561851Y-95703304D02*
X149490422Y-95628065D01*
X149490422Y-95628065D02*
X149418993Y-95477589D01*
X149418993Y-95477589D02*
X149347565Y-95176637D01*
X149347565Y-95176637D02*
X149347565Y-94800446D01*
X149347565Y-94800446D02*
X149418993Y-94499494D01*
X149418993Y-94499494D02*
X149490422Y-94349018D01*
X149490422Y-94349018D02*
X149561851Y-94273780D01*
X149561851Y-94273780D02*
X149704708Y-94198542D01*
X147918994Y-96892730D02*
X147990422Y-96817492D01*
X147990422Y-96817492D02*
X148133280Y-96742254D01*
X148133280Y-96742254D02*
X148490422Y-96742254D01*
X148490422Y-96742254D02*
X148633280Y-96817492D01*
X148633280Y-96817492D02*
X148704708Y-96892730D01*
X148704708Y-96892730D02*
X148776137Y-97043206D01*
X148776137Y-97043206D02*
X148776137Y-97193682D01*
X148776137Y-97193682D02*
X148704708Y-97419396D01*
X148704708Y-97419396D02*
X147847565Y-98322254D01*
X147847565Y-98322254D02*
X148776137Y-98322254D01*
X150204708Y-98322254D02*
X149347565Y-98322254D01*
X149776136Y-98322254D02*
X149776136Y-96742254D01*
X149776136Y-96742254D02*
X149633279Y-96967968D01*
X149633279Y-96967968D02*
X149490422Y-97118444D01*
X149490422Y-97118444D02*
X149347565Y-97193682D01*
X147918994Y-99436442D02*
X147990422Y-99361204D01*
X147990422Y-99361204D02*
X148133280Y-99285966D01*
X148133280Y-99285966D02*
X148490422Y-99285966D01*
X148490422Y-99285966D02*
X148633280Y-99361204D01*
X148633280Y-99361204D02*
X148704708Y-99436442D01*
X148704708Y-99436442D02*
X148776137Y-99586918D01*
X148776137Y-99586918D02*
X148776137Y-99737394D01*
X148776137Y-99737394D02*
X148704708Y-99963108D01*
X148704708Y-99963108D02*
X147847565Y-100865966D01*
X147847565Y-100865966D02*
X148776137Y-100865966D01*
X149347565Y-99436442D02*
X149418993Y-99361204D01*
X149418993Y-99361204D02*
X149561851Y-99285966D01*
X149561851Y-99285966D02*
X149918993Y-99285966D01*
X149918993Y-99285966D02*
X150061851Y-99361204D01*
X150061851Y-99361204D02*
X150133279Y-99436442D01*
X150133279Y-99436442D02*
X150204708Y-99586918D01*
X150204708Y-99586918D02*
X150204708Y-99737394D01*
X150204708Y-99737394D02*
X150133279Y-99963108D01*
X150133279Y-99963108D02*
X149276136Y-100865966D01*
X149276136Y-100865966D02*
X150204708Y-100865966D01*
X147918994Y-101980154D02*
X147990422Y-101904916D01*
X147990422Y-101904916D02*
X148133280Y-101829678D01*
X148133280Y-101829678D02*
X148490422Y-101829678D01*
X148490422Y-101829678D02*
X148633280Y-101904916D01*
X148633280Y-101904916D02*
X148704708Y-101980154D01*
X148704708Y-101980154D02*
X148776137Y-102130630D01*
X148776137Y-102130630D02*
X148776137Y-102281106D01*
X148776137Y-102281106D02*
X148704708Y-102506820D01*
X148704708Y-102506820D02*
X147847565Y-103409678D01*
X147847565Y-103409678D02*
X148776137Y-103409678D01*
X149276136Y-101829678D02*
X150204708Y-101829678D01*
X150204708Y-101829678D02*
X149704708Y-102431582D01*
X149704708Y-102431582D02*
X149918993Y-102431582D01*
X149918993Y-102431582D02*
X150061851Y-102506820D01*
X150061851Y-102506820D02*
X150133279Y-102582059D01*
X150133279Y-102582059D02*
X150204708Y-102732535D01*
X150204708Y-102732535D02*
X150204708Y-103108725D01*
X150204708Y-103108725D02*
X150133279Y-103259201D01*
X150133279Y-103259201D02*
X150061851Y-103334440D01*
X150061851Y-103334440D02*
X149918993Y-103409678D01*
X149918993Y-103409678D02*
X149490422Y-103409678D01*
X149490422Y-103409678D02*
X149347565Y-103334440D01*
X149347565Y-103334440D02*
X149276136Y-103259201D01*
X147918994Y-104523866D02*
X147990422Y-104448628D01*
X147990422Y-104448628D02*
X148133280Y-104373390D01*
X148133280Y-104373390D02*
X148490422Y-104373390D01*
X148490422Y-104373390D02*
X148633280Y-104448628D01*
X148633280Y-104448628D02*
X148704708Y-104523866D01*
X148704708Y-104523866D02*
X148776137Y-104674342D01*
X148776137Y-104674342D02*
X148776137Y-104824818D01*
X148776137Y-104824818D02*
X148704708Y-105050532D01*
X148704708Y-105050532D02*
X147847565Y-105953390D01*
X147847565Y-105953390D02*
X148776137Y-105953390D01*
X150061851Y-104900056D02*
X150061851Y-105953390D01*
X149704708Y-104298152D02*
X149347565Y-105426723D01*
X149347565Y-105426723D02*
X150276136Y-105426723D01*
X147918994Y-107067578D02*
X147990422Y-106992340D01*
X147990422Y-106992340D02*
X148133280Y-106917102D01*
X148133280Y-106917102D02*
X148490422Y-106917102D01*
X148490422Y-106917102D02*
X148633280Y-106992340D01*
X148633280Y-106992340D02*
X148704708Y-107067578D01*
X148704708Y-107067578D02*
X148776137Y-107218054D01*
X148776137Y-107218054D02*
X148776137Y-107368530D01*
X148776137Y-107368530D02*
X148704708Y-107594244D01*
X148704708Y-107594244D02*
X147847565Y-108497102D01*
X147847565Y-108497102D02*
X148776137Y-108497102D01*
X150133279Y-106917102D02*
X149418993Y-106917102D01*
X149418993Y-106917102D02*
X149347565Y-107669483D01*
X149347565Y-107669483D02*
X149418993Y-107594244D01*
X149418993Y-107594244D02*
X149561851Y-107519006D01*
X149561851Y-107519006D02*
X149918993Y-107519006D01*
X149918993Y-107519006D02*
X150061851Y-107594244D01*
X150061851Y-107594244D02*
X150133279Y-107669483D01*
X150133279Y-107669483D02*
X150204708Y-107819959D01*
X150204708Y-107819959D02*
X150204708Y-108196149D01*
X150204708Y-108196149D02*
X150133279Y-108346625D01*
X150133279Y-108346625D02*
X150061851Y-108421864D01*
X150061851Y-108421864D02*
X149918993Y-108497102D01*
X149918993Y-108497102D02*
X149561851Y-108497102D01*
X149561851Y-108497102D02*
X149418993Y-108421864D01*
X149418993Y-108421864D02*
X149347565Y-108346625D01*
X147918994Y-109611290D02*
X147990422Y-109536052D01*
X147990422Y-109536052D02*
X148133280Y-109460814D01*
X148133280Y-109460814D02*
X148490422Y-109460814D01*
X148490422Y-109460814D02*
X148633280Y-109536052D01*
X148633280Y-109536052D02*
X148704708Y-109611290D01*
X148704708Y-109611290D02*
X148776137Y-109761766D01*
X148776137Y-109761766D02*
X148776137Y-109912242D01*
X148776137Y-109912242D02*
X148704708Y-110137956D01*
X148704708Y-110137956D02*
X147847565Y-111040814D01*
X147847565Y-111040814D02*
X148776137Y-111040814D01*
X150061851Y-109460814D02*
X149776136Y-109460814D01*
X149776136Y-109460814D02*
X149633279Y-109536052D01*
X149633279Y-109536052D02*
X149561851Y-109611290D01*
X149561851Y-109611290D02*
X149418993Y-109837004D01*
X149418993Y-109837004D02*
X149347565Y-110137956D01*
X149347565Y-110137956D02*
X149347565Y-110739861D01*
X149347565Y-110739861D02*
X149418993Y-110890337D01*
X149418993Y-110890337D02*
X149490422Y-110965576D01*
X149490422Y-110965576D02*
X149633279Y-111040814D01*
X149633279Y-111040814D02*
X149918993Y-111040814D01*
X149918993Y-111040814D02*
X150061851Y-110965576D01*
X150061851Y-110965576D02*
X150133279Y-110890337D01*
X150133279Y-110890337D02*
X150204708Y-110739861D01*
X150204708Y-110739861D02*
X150204708Y-110363671D01*
X150204708Y-110363671D02*
X150133279Y-110213195D01*
X150133279Y-110213195D02*
X150061851Y-110137956D01*
X150061851Y-110137956D02*
X149918993Y-110062718D01*
X149918993Y-110062718D02*
X149633279Y-110062718D01*
X149633279Y-110062718D02*
X149490422Y-110137956D01*
X149490422Y-110137956D02*
X149418993Y-110213195D01*
X149418993Y-110213195D02*
X149347565Y-110363671D01*
X147918994Y-112155002D02*
X147990422Y-112079764D01*
X147990422Y-112079764D02*
X148133280Y-112004526D01*
X148133280Y-112004526D02*
X148490422Y-112004526D01*
X148490422Y-112004526D02*
X148633280Y-112079764D01*
X148633280Y-112079764D02*
X148704708Y-112155002D01*
X148704708Y-112155002D02*
X148776137Y-112305478D01*
X148776137Y-112305478D02*
X148776137Y-112455954D01*
X148776137Y-112455954D02*
X148704708Y-112681668D01*
X148704708Y-112681668D02*
X147847565Y-113584526D01*
X147847565Y-113584526D02*
X148776137Y-113584526D01*
X149276136Y-112004526D02*
X150276136Y-112004526D01*
X150276136Y-112004526D02*
X149633279Y-113584526D01*
X147918994Y-114698714D02*
X147990422Y-114623476D01*
X147990422Y-114623476D02*
X148133280Y-114548238D01*
X148133280Y-114548238D02*
X148490422Y-114548238D01*
X148490422Y-114548238D02*
X148633280Y-114623476D01*
X148633280Y-114623476D02*
X148704708Y-114698714D01*
X148704708Y-114698714D02*
X148776137Y-114849190D01*
X148776137Y-114849190D02*
X148776137Y-114999666D01*
X148776137Y-114999666D02*
X148704708Y-115225380D01*
X148704708Y-115225380D02*
X147847565Y-116128238D01*
X147847565Y-116128238D02*
X148776137Y-116128238D01*
X149633279Y-115225380D02*
X149490422Y-115150142D01*
X149490422Y-115150142D02*
X149418993Y-115074904D01*
X149418993Y-115074904D02*
X149347565Y-114924428D01*
X149347565Y-114924428D02*
X149347565Y-114849190D01*
X149347565Y-114849190D02*
X149418993Y-114698714D01*
X149418993Y-114698714D02*
X149490422Y-114623476D01*
X149490422Y-114623476D02*
X149633279Y-114548238D01*
X149633279Y-114548238D02*
X149918993Y-114548238D01*
X149918993Y-114548238D02*
X150061851Y-114623476D01*
X150061851Y-114623476D02*
X150133279Y-114698714D01*
X150133279Y-114698714D02*
X150204708Y-114849190D01*
X150204708Y-114849190D02*
X150204708Y-114924428D01*
X150204708Y-114924428D02*
X150133279Y-115074904D01*
X150133279Y-115074904D02*
X150061851Y-115150142D01*
X150061851Y-115150142D02*
X149918993Y-115225380D01*
X149918993Y-115225380D02*
X149633279Y-115225380D01*
X149633279Y-115225380D02*
X149490422Y-115300619D01*
X149490422Y-115300619D02*
X149418993Y-115375857D01*
X149418993Y-115375857D02*
X149347565Y-115526333D01*
X149347565Y-115526333D02*
X149347565Y-115827285D01*
X149347565Y-115827285D02*
X149418993Y-115977761D01*
X149418993Y-115977761D02*
X149490422Y-116053000D01*
X149490422Y-116053000D02*
X149633279Y-116128238D01*
X149633279Y-116128238D02*
X149918993Y-116128238D01*
X149918993Y-116128238D02*
X150061851Y-116053000D01*
X150061851Y-116053000D02*
X150133279Y-115977761D01*
X150133279Y-115977761D02*
X150204708Y-115827285D01*
X150204708Y-115827285D02*
X150204708Y-115526333D01*
X150204708Y-115526333D02*
X150133279Y-115375857D01*
X150133279Y-115375857D02*
X150061851Y-115300619D01*
X150061851Y-115300619D02*
X149918993Y-115225380D01*
D11*
X102362000Y-68580000D02*
X111506000Y-68580000D01*
X111506000Y-71882000D01*
X102362000Y-71882000D01*
X102362000Y-68580000D01*
X94234000Y-68580000D02*
X119380000Y-68580000D01*
X119380000Y-114300000D01*
X94234000Y-114300000D01*
X94234000Y-68580000D01*
D10*
X123353292Y-74333341D02*
X123424720Y-74257150D01*
X123424720Y-74257150D02*
X123567578Y-74180960D01*
X123567578Y-74180960D02*
X123924720Y-74180960D01*
X123924720Y-74180960D02*
X124067578Y-74257150D01*
X124067578Y-74257150D02*
X124139006Y-74333341D01*
X124139006Y-74333341D02*
X124210435Y-74485722D01*
X124210435Y-74485722D02*
X124210435Y-74638103D01*
X124210435Y-74638103D02*
X124139006Y-74866674D01*
X124139006Y-74866674D02*
X123281863Y-75780960D01*
X123281863Y-75780960D02*
X124210435Y-75780960D01*
X125067577Y-74866674D02*
X124924720Y-74790484D01*
X124924720Y-74790484D02*
X124853291Y-74714293D01*
X124853291Y-74714293D02*
X124781863Y-74561912D01*
X124781863Y-74561912D02*
X124781863Y-74485722D01*
X124781863Y-74485722D02*
X124853291Y-74333341D01*
X124853291Y-74333341D02*
X124924720Y-74257150D01*
X124924720Y-74257150D02*
X125067577Y-74180960D01*
X125067577Y-74180960D02*
X125353291Y-74180960D01*
X125353291Y-74180960D02*
X125496149Y-74257150D01*
X125496149Y-74257150D02*
X125567577Y-74333341D01*
X125567577Y-74333341D02*
X125639006Y-74485722D01*
X125639006Y-74485722D02*
X125639006Y-74561912D01*
X125639006Y-74561912D02*
X125567577Y-74714293D01*
X125567577Y-74714293D02*
X125496149Y-74790484D01*
X125496149Y-74790484D02*
X125353291Y-74866674D01*
X125353291Y-74866674D02*
X125067577Y-74866674D01*
X125067577Y-74866674D02*
X124924720Y-74942865D01*
X124924720Y-74942865D02*
X124853291Y-75019055D01*
X124853291Y-75019055D02*
X124781863Y-75171436D01*
X124781863Y-75171436D02*
X124781863Y-75476198D01*
X124781863Y-75476198D02*
X124853291Y-75628579D01*
X124853291Y-75628579D02*
X124924720Y-75704770D01*
X124924720Y-75704770D02*
X125067577Y-75780960D01*
X125067577Y-75780960D02*
X125353291Y-75780960D01*
X125353291Y-75780960D02*
X125496149Y-75704770D01*
X125496149Y-75704770D02*
X125567577Y-75628579D01*
X125567577Y-75628579D02*
X125639006Y-75476198D01*
X125639006Y-75476198D02*
X125639006Y-75171436D01*
X125639006Y-75171436D02*
X125567577Y-75019055D01*
X125567577Y-75019055D02*
X125496149Y-74942865D01*
X125496149Y-74942865D02*
X125353291Y-74866674D01*
X123353292Y-76909251D02*
X123424720Y-76833060D01*
X123424720Y-76833060D02*
X123567578Y-76756870D01*
X123567578Y-76756870D02*
X123924720Y-76756870D01*
X123924720Y-76756870D02*
X124067578Y-76833060D01*
X124067578Y-76833060D02*
X124139006Y-76909251D01*
X124139006Y-76909251D02*
X124210435Y-77061632D01*
X124210435Y-77061632D02*
X124210435Y-77214013D01*
X124210435Y-77214013D02*
X124139006Y-77442584D01*
X124139006Y-77442584D02*
X123281863Y-78356870D01*
X123281863Y-78356870D02*
X124210435Y-78356870D01*
X124710434Y-76756870D02*
X125710434Y-76756870D01*
X125710434Y-76756870D02*
X125067577Y-78356870D01*
X123353292Y-79485161D02*
X123424720Y-79408970D01*
X123424720Y-79408970D02*
X123567578Y-79332780D01*
X123567578Y-79332780D02*
X123924720Y-79332780D01*
X123924720Y-79332780D02*
X124067578Y-79408970D01*
X124067578Y-79408970D02*
X124139006Y-79485161D01*
X124139006Y-79485161D02*
X124210435Y-79637542D01*
X124210435Y-79637542D02*
X124210435Y-79789923D01*
X124210435Y-79789923D02*
X124139006Y-80018494D01*
X124139006Y-80018494D02*
X123281863Y-80932780D01*
X123281863Y-80932780D02*
X124210435Y-80932780D01*
X125496149Y-79332780D02*
X125210434Y-79332780D01*
X125210434Y-79332780D02*
X125067577Y-79408970D01*
X125067577Y-79408970D02*
X124996149Y-79485161D01*
X124996149Y-79485161D02*
X124853291Y-79713732D01*
X124853291Y-79713732D02*
X124781863Y-80018494D01*
X124781863Y-80018494D02*
X124781863Y-80628018D01*
X124781863Y-80628018D02*
X124853291Y-80780399D01*
X124853291Y-80780399D02*
X124924720Y-80856590D01*
X124924720Y-80856590D02*
X125067577Y-80932780D01*
X125067577Y-80932780D02*
X125353291Y-80932780D01*
X125353291Y-80932780D02*
X125496149Y-80856590D01*
X125496149Y-80856590D02*
X125567577Y-80780399D01*
X125567577Y-80780399D02*
X125639006Y-80628018D01*
X125639006Y-80628018D02*
X125639006Y-80247066D01*
X125639006Y-80247066D02*
X125567577Y-80094685D01*
X125567577Y-80094685D02*
X125496149Y-80018494D01*
X125496149Y-80018494D02*
X125353291Y-79942304D01*
X125353291Y-79942304D02*
X125067577Y-79942304D01*
X125067577Y-79942304D02*
X124924720Y-80018494D01*
X124924720Y-80018494D02*
X124853291Y-80094685D01*
X124853291Y-80094685D02*
X124781863Y-80247066D01*
X123353292Y-82061071D02*
X123424720Y-81984880D01*
X123424720Y-81984880D02*
X123567578Y-81908690D01*
X123567578Y-81908690D02*
X123924720Y-81908690D01*
X123924720Y-81908690D02*
X124067578Y-81984880D01*
X124067578Y-81984880D02*
X124139006Y-82061071D01*
X124139006Y-82061071D02*
X124210435Y-82213452D01*
X124210435Y-82213452D02*
X124210435Y-82365833D01*
X124210435Y-82365833D02*
X124139006Y-82594404D01*
X124139006Y-82594404D02*
X123281863Y-83508690D01*
X123281863Y-83508690D02*
X124210435Y-83508690D01*
X125567577Y-81908690D02*
X124853291Y-81908690D01*
X124853291Y-81908690D02*
X124781863Y-82670595D01*
X124781863Y-82670595D02*
X124853291Y-82594404D01*
X124853291Y-82594404D02*
X124996149Y-82518214D01*
X124996149Y-82518214D02*
X125353291Y-82518214D01*
X125353291Y-82518214D02*
X125496149Y-82594404D01*
X125496149Y-82594404D02*
X125567577Y-82670595D01*
X125567577Y-82670595D02*
X125639006Y-82822976D01*
X125639006Y-82822976D02*
X125639006Y-83203928D01*
X125639006Y-83203928D02*
X125567577Y-83356309D01*
X125567577Y-83356309D02*
X125496149Y-83432500D01*
X125496149Y-83432500D02*
X125353291Y-83508690D01*
X125353291Y-83508690D02*
X124996149Y-83508690D01*
X124996149Y-83508690D02*
X124853291Y-83432500D01*
X124853291Y-83432500D02*
X124781863Y-83356309D01*
X123353292Y-84636981D02*
X123424720Y-84560790D01*
X123424720Y-84560790D02*
X123567578Y-84484600D01*
X123567578Y-84484600D02*
X123924720Y-84484600D01*
X123924720Y-84484600D02*
X124067578Y-84560790D01*
X124067578Y-84560790D02*
X124139006Y-84636981D01*
X124139006Y-84636981D02*
X124210435Y-84789362D01*
X124210435Y-84789362D02*
X124210435Y-84941743D01*
X124210435Y-84941743D02*
X124139006Y-85170314D01*
X124139006Y-85170314D02*
X123281863Y-86084600D01*
X123281863Y-86084600D02*
X124210435Y-86084600D01*
X125496149Y-85017933D02*
X125496149Y-86084600D01*
X125139006Y-84408410D02*
X124781863Y-85551267D01*
X124781863Y-85551267D02*
X125710434Y-85551267D01*
X123353292Y-87212891D02*
X123424720Y-87136700D01*
X123424720Y-87136700D02*
X123567578Y-87060510D01*
X123567578Y-87060510D02*
X123924720Y-87060510D01*
X123924720Y-87060510D02*
X124067578Y-87136700D01*
X124067578Y-87136700D02*
X124139006Y-87212891D01*
X124139006Y-87212891D02*
X124210435Y-87365272D01*
X124210435Y-87365272D02*
X124210435Y-87517653D01*
X124210435Y-87517653D02*
X124139006Y-87746224D01*
X124139006Y-87746224D02*
X123281863Y-88660510D01*
X123281863Y-88660510D02*
X124210435Y-88660510D01*
X124710434Y-87060510D02*
X125639006Y-87060510D01*
X125639006Y-87060510D02*
X125139006Y-87670034D01*
X125139006Y-87670034D02*
X125353291Y-87670034D01*
X125353291Y-87670034D02*
X125496149Y-87746224D01*
X125496149Y-87746224D02*
X125567577Y-87822415D01*
X125567577Y-87822415D02*
X125639006Y-87974796D01*
X125639006Y-87974796D02*
X125639006Y-88355748D01*
X125639006Y-88355748D02*
X125567577Y-88508129D01*
X125567577Y-88508129D02*
X125496149Y-88584320D01*
X125496149Y-88584320D02*
X125353291Y-88660510D01*
X125353291Y-88660510D02*
X124924720Y-88660510D01*
X124924720Y-88660510D02*
X124781863Y-88584320D01*
X124781863Y-88584320D02*
X124710434Y-88508129D01*
X123353292Y-89788801D02*
X123424720Y-89712610D01*
X123424720Y-89712610D02*
X123567578Y-89636420D01*
X123567578Y-89636420D02*
X123924720Y-89636420D01*
X123924720Y-89636420D02*
X124067578Y-89712610D01*
X124067578Y-89712610D02*
X124139006Y-89788801D01*
X124139006Y-89788801D02*
X124210435Y-89941182D01*
X124210435Y-89941182D02*
X124210435Y-90093563D01*
X124210435Y-90093563D02*
X124139006Y-90322134D01*
X124139006Y-90322134D02*
X123281863Y-91236420D01*
X123281863Y-91236420D02*
X124210435Y-91236420D01*
X124781863Y-89788801D02*
X124853291Y-89712610D01*
X124853291Y-89712610D02*
X124996149Y-89636420D01*
X124996149Y-89636420D02*
X125353291Y-89636420D01*
X125353291Y-89636420D02*
X125496149Y-89712610D01*
X125496149Y-89712610D02*
X125567577Y-89788801D01*
X125567577Y-89788801D02*
X125639006Y-89941182D01*
X125639006Y-89941182D02*
X125639006Y-90093563D01*
X125639006Y-90093563D02*
X125567577Y-90322134D01*
X125567577Y-90322134D02*
X124710434Y-91236420D01*
X124710434Y-91236420D02*
X125639006Y-91236420D01*
X123353292Y-92364711D02*
X123424720Y-92288520D01*
X123424720Y-92288520D02*
X123567578Y-92212330D01*
X123567578Y-92212330D02*
X123924720Y-92212330D01*
X123924720Y-92212330D02*
X124067578Y-92288520D01*
X124067578Y-92288520D02*
X124139006Y-92364711D01*
X124139006Y-92364711D02*
X124210435Y-92517092D01*
X124210435Y-92517092D02*
X124210435Y-92669473D01*
X124210435Y-92669473D02*
X124139006Y-92898044D01*
X124139006Y-92898044D02*
X123281863Y-93812330D01*
X123281863Y-93812330D02*
X124210435Y-93812330D01*
X125639006Y-93812330D02*
X124781863Y-93812330D01*
X125210434Y-93812330D02*
X125210434Y-92212330D01*
X125210434Y-92212330D02*
X125067577Y-92440901D01*
X125067577Y-92440901D02*
X124924720Y-92593282D01*
X124924720Y-92593282D02*
X124781863Y-92669473D01*
X123353292Y-94940621D02*
X123424720Y-94864430D01*
X123424720Y-94864430D02*
X123567578Y-94788240D01*
X123567578Y-94788240D02*
X123924720Y-94788240D01*
X123924720Y-94788240D02*
X124067578Y-94864430D01*
X124067578Y-94864430D02*
X124139006Y-94940621D01*
X124139006Y-94940621D02*
X124210435Y-95093002D01*
X124210435Y-95093002D02*
X124210435Y-95245383D01*
X124210435Y-95245383D02*
X124139006Y-95473954D01*
X124139006Y-95473954D02*
X123281863Y-96388240D01*
X123281863Y-96388240D02*
X124210435Y-96388240D01*
X125139006Y-94788240D02*
X125281863Y-94788240D01*
X125281863Y-94788240D02*
X125424720Y-94864430D01*
X125424720Y-94864430D02*
X125496149Y-94940621D01*
X125496149Y-94940621D02*
X125567577Y-95093002D01*
X125567577Y-95093002D02*
X125639006Y-95397764D01*
X125639006Y-95397764D02*
X125639006Y-95778716D01*
X125639006Y-95778716D02*
X125567577Y-96083478D01*
X125567577Y-96083478D02*
X125496149Y-96235859D01*
X125496149Y-96235859D02*
X125424720Y-96312050D01*
X125424720Y-96312050D02*
X125281863Y-96388240D01*
X125281863Y-96388240D02*
X125139006Y-96388240D01*
X125139006Y-96388240D02*
X124996149Y-96312050D01*
X124996149Y-96312050D02*
X124924720Y-96235859D01*
X124924720Y-96235859D02*
X124853291Y-96083478D01*
X124853291Y-96083478D02*
X124781863Y-95778716D01*
X124781863Y-95778716D02*
X124781863Y-95397764D01*
X124781863Y-95397764D02*
X124853291Y-95093002D01*
X124853291Y-95093002D02*
X124924720Y-94940621D01*
X124924720Y-94940621D02*
X124996149Y-94864430D01*
X124996149Y-94864430D02*
X125139006Y-94788240D01*
X124210435Y-98964150D02*
X123353292Y-98964150D01*
X123781863Y-98964150D02*
X123781863Y-97364150D01*
X123781863Y-97364150D02*
X123639006Y-97592721D01*
X123639006Y-97592721D02*
X123496149Y-97745102D01*
X123496149Y-97745102D02*
X123353292Y-97821293D01*
X124924720Y-98964150D02*
X125210434Y-98964150D01*
X125210434Y-98964150D02*
X125353291Y-98887960D01*
X125353291Y-98887960D02*
X125424720Y-98811769D01*
X125424720Y-98811769D02*
X125567577Y-98583198D01*
X125567577Y-98583198D02*
X125639006Y-98278436D01*
X125639006Y-98278436D02*
X125639006Y-97668912D01*
X125639006Y-97668912D02*
X125567577Y-97516531D01*
X125567577Y-97516531D02*
X125496149Y-97440340D01*
X125496149Y-97440340D02*
X125353291Y-97364150D01*
X125353291Y-97364150D02*
X125067577Y-97364150D01*
X125067577Y-97364150D02*
X124924720Y-97440340D01*
X124924720Y-97440340D02*
X124853291Y-97516531D01*
X124853291Y-97516531D02*
X124781863Y-97668912D01*
X124781863Y-97668912D02*
X124781863Y-98049864D01*
X124781863Y-98049864D02*
X124853291Y-98202245D01*
X124853291Y-98202245D02*
X124924720Y-98278436D01*
X124924720Y-98278436D02*
X125067577Y-98354626D01*
X125067577Y-98354626D02*
X125353291Y-98354626D01*
X125353291Y-98354626D02*
X125496149Y-98278436D01*
X125496149Y-98278436D02*
X125567577Y-98202245D01*
X125567577Y-98202245D02*
X125639006Y-98049864D01*
X124210435Y-101540060D02*
X123353292Y-101540060D01*
X123781863Y-101540060D02*
X123781863Y-99940060D01*
X123781863Y-99940060D02*
X123639006Y-100168631D01*
X123639006Y-100168631D02*
X123496149Y-100321012D01*
X123496149Y-100321012D02*
X123353292Y-100397203D01*
X125067577Y-100625774D02*
X124924720Y-100549584D01*
X124924720Y-100549584D02*
X124853291Y-100473393D01*
X124853291Y-100473393D02*
X124781863Y-100321012D01*
X124781863Y-100321012D02*
X124781863Y-100244822D01*
X124781863Y-100244822D02*
X124853291Y-100092441D01*
X124853291Y-100092441D02*
X124924720Y-100016250D01*
X124924720Y-100016250D02*
X125067577Y-99940060D01*
X125067577Y-99940060D02*
X125353291Y-99940060D01*
X125353291Y-99940060D02*
X125496149Y-100016250D01*
X125496149Y-100016250D02*
X125567577Y-100092441D01*
X125567577Y-100092441D02*
X125639006Y-100244822D01*
X125639006Y-100244822D02*
X125639006Y-100321012D01*
X125639006Y-100321012D02*
X125567577Y-100473393D01*
X125567577Y-100473393D02*
X125496149Y-100549584D01*
X125496149Y-100549584D02*
X125353291Y-100625774D01*
X125353291Y-100625774D02*
X125067577Y-100625774D01*
X125067577Y-100625774D02*
X124924720Y-100701965D01*
X124924720Y-100701965D02*
X124853291Y-100778155D01*
X124853291Y-100778155D02*
X124781863Y-100930536D01*
X124781863Y-100930536D02*
X124781863Y-101235298D01*
X124781863Y-101235298D02*
X124853291Y-101387679D01*
X124853291Y-101387679D02*
X124924720Y-101463870D01*
X124924720Y-101463870D02*
X125067577Y-101540060D01*
X125067577Y-101540060D02*
X125353291Y-101540060D01*
X125353291Y-101540060D02*
X125496149Y-101463870D01*
X125496149Y-101463870D02*
X125567577Y-101387679D01*
X125567577Y-101387679D02*
X125639006Y-101235298D01*
X125639006Y-101235298D02*
X125639006Y-100930536D01*
X125639006Y-100930536D02*
X125567577Y-100778155D01*
X125567577Y-100778155D02*
X125496149Y-100701965D01*
X125496149Y-100701965D02*
X125353291Y-100625774D01*
X124210435Y-104115970D02*
X123353292Y-104115970D01*
X123781863Y-104115970D02*
X123781863Y-102515970D01*
X123781863Y-102515970D02*
X123639006Y-102744541D01*
X123639006Y-102744541D02*
X123496149Y-102896922D01*
X123496149Y-102896922D02*
X123353292Y-102973113D01*
X124710434Y-102515970D02*
X125710434Y-102515970D01*
X125710434Y-102515970D02*
X125067577Y-104115970D01*
X124210435Y-106691880D02*
X123353292Y-106691880D01*
X123781863Y-106691880D02*
X123781863Y-105091880D01*
X123781863Y-105091880D02*
X123639006Y-105320451D01*
X123639006Y-105320451D02*
X123496149Y-105472832D01*
X123496149Y-105472832D02*
X123353292Y-105549023D01*
X125496149Y-105091880D02*
X125210434Y-105091880D01*
X125210434Y-105091880D02*
X125067577Y-105168070D01*
X125067577Y-105168070D02*
X124996149Y-105244261D01*
X124996149Y-105244261D02*
X124853291Y-105472832D01*
X124853291Y-105472832D02*
X124781863Y-105777594D01*
X124781863Y-105777594D02*
X124781863Y-106387118D01*
X124781863Y-106387118D02*
X124853291Y-106539499D01*
X124853291Y-106539499D02*
X124924720Y-106615690D01*
X124924720Y-106615690D02*
X125067577Y-106691880D01*
X125067577Y-106691880D02*
X125353291Y-106691880D01*
X125353291Y-106691880D02*
X125496149Y-106615690D01*
X125496149Y-106615690D02*
X125567577Y-106539499D01*
X125567577Y-106539499D02*
X125639006Y-106387118D01*
X125639006Y-106387118D02*
X125639006Y-106006166D01*
X125639006Y-106006166D02*
X125567577Y-105853785D01*
X125567577Y-105853785D02*
X125496149Y-105777594D01*
X125496149Y-105777594D02*
X125353291Y-105701404D01*
X125353291Y-105701404D02*
X125067577Y-105701404D01*
X125067577Y-105701404D02*
X124924720Y-105777594D01*
X124924720Y-105777594D02*
X124853291Y-105853785D01*
X124853291Y-105853785D02*
X124781863Y-106006166D01*
X124210435Y-109267790D02*
X123353292Y-109267790D01*
X123781863Y-109267790D02*
X123781863Y-107667790D01*
X123781863Y-107667790D02*
X123639006Y-107896361D01*
X123639006Y-107896361D02*
X123496149Y-108048742D01*
X123496149Y-108048742D02*
X123353292Y-108124933D01*
X125567577Y-107667790D02*
X124853291Y-107667790D01*
X124853291Y-107667790D02*
X124781863Y-108429695D01*
X124781863Y-108429695D02*
X124853291Y-108353504D01*
X124853291Y-108353504D02*
X124996149Y-108277314D01*
X124996149Y-108277314D02*
X125353291Y-108277314D01*
X125353291Y-108277314D02*
X125496149Y-108353504D01*
X125496149Y-108353504D02*
X125567577Y-108429695D01*
X125567577Y-108429695D02*
X125639006Y-108582076D01*
X125639006Y-108582076D02*
X125639006Y-108963028D01*
X125639006Y-108963028D02*
X125567577Y-109115409D01*
X125567577Y-109115409D02*
X125496149Y-109191600D01*
X125496149Y-109191600D02*
X125353291Y-109267790D01*
X125353291Y-109267790D02*
X124996149Y-109267790D01*
X124996149Y-109267790D02*
X124853291Y-109191600D01*
X124853291Y-109191600D02*
X124781863Y-109115409D01*
D12*
X113320391Y-120172353D02*
X113532891Y-118472353D01*
X113532891Y-118472353D02*
X113881106Y-119686639D01*
X113881106Y-119686639D02*
X114532891Y-118472353D01*
X114532891Y-118472353D02*
X114320391Y-120172353D01*
X115033487Y-119039020D02*
X115248963Y-120172353D01*
X115747773Y-119039020D02*
X115248963Y-120172353D01*
X115248963Y-120172353D02*
X115055511Y-120577115D01*
X115055511Y-120577115D02*
X114973963Y-120658067D01*
X114973963Y-120658067D02*
X114820987Y-120739020D01*
X117054915Y-120010448D02*
X116973368Y-120091401D01*
X116973368Y-120091401D02*
X116748963Y-120172353D01*
X116748963Y-120172353D02*
X116606106Y-120172353D01*
X116606106Y-120172353D02*
X116401939Y-120091401D01*
X116401939Y-120091401D02*
X116279320Y-119929496D01*
X116279320Y-119929496D02*
X116228130Y-119767591D01*
X116228130Y-119767591D02*
X116197177Y-119443781D01*
X116197177Y-119443781D02*
X116227534Y-119200924D01*
X116227534Y-119200924D02*
X116339439Y-118877115D01*
X116339439Y-118877115D02*
X116431106Y-118715210D01*
X116431106Y-118715210D02*
X116594201Y-118553305D01*
X116594201Y-118553305D02*
X116818606Y-118472353D01*
X116818606Y-118472353D02*
X116961463Y-118472353D01*
X116961463Y-118472353D02*
X117165630Y-118553305D01*
X117165630Y-118553305D02*
X117226939Y-118634258D01*
X117677534Y-120172353D02*
X117890034Y-118472353D01*
X118320391Y-120172353D02*
X118431701Y-119281877D01*
X118431701Y-119281877D02*
X118380511Y-119119972D01*
X118380511Y-119119972D02*
X118247772Y-119039020D01*
X118247772Y-119039020D02*
X118033487Y-119039020D01*
X118033487Y-119039020D02*
X117880511Y-119119972D01*
X117880511Y-119119972D02*
X117798963Y-119200924D01*
X119034677Y-120172353D02*
X119176344Y-119039020D01*
X119247177Y-118472353D02*
X119165630Y-118553305D01*
X119165630Y-118553305D02*
X119226939Y-118634258D01*
X119226939Y-118634258D02*
X119308487Y-118553305D01*
X119308487Y-118553305D02*
X119247177Y-118472353D01*
X119247177Y-118472353D02*
X119226939Y-118634258D01*
X119890630Y-119039020D02*
X119678130Y-120739020D01*
X119880511Y-119119972D02*
X120033487Y-119039020D01*
X120033487Y-119039020D02*
X120319201Y-119039020D01*
X120319201Y-119039020D02*
X120451940Y-119119972D01*
X120451940Y-119119972D02*
X120513249Y-119200924D01*
X120513249Y-119200924D02*
X120564440Y-119362829D01*
X120564440Y-119362829D02*
X120503725Y-119848543D01*
X120503725Y-119848543D02*
X120412059Y-120010448D01*
X120412059Y-120010448D02*
X120330511Y-120091401D01*
X120330511Y-120091401D02*
X120177535Y-120172353D01*
X120177535Y-120172353D02*
X119891820Y-120172353D01*
X119891820Y-120172353D02*
X119759082Y-120091401D01*
X121187059Y-119524734D02*
X122329916Y-119524734D01*
X123177535Y-120172353D02*
X123044797Y-120091401D01*
X123044797Y-120091401D02*
X122983487Y-120010448D01*
X122983487Y-120010448D02*
X122932297Y-119848543D01*
X122932297Y-119848543D02*
X122993011Y-119362829D01*
X122993011Y-119362829D02*
X123084678Y-119200924D01*
X123084678Y-119200924D02*
X123166226Y-119119972D01*
X123166226Y-119119972D02*
X123319202Y-119039020D01*
X123319202Y-119039020D02*
X123533487Y-119039020D01*
X123533487Y-119039020D02*
X123666226Y-119119972D01*
X123666226Y-119119972D02*
X123727535Y-119200924D01*
X123727535Y-119200924D02*
X123778726Y-119362829D01*
X123778726Y-119362829D02*
X123718011Y-119848543D01*
X123718011Y-119848543D02*
X123626345Y-120010448D01*
X123626345Y-120010448D02*
X123544797Y-120091401D01*
X123544797Y-120091401D02*
X123391821Y-120172353D01*
X123391821Y-120172353D02*
X123177535Y-120172353D01*
X124462059Y-119039020D02*
X124320392Y-120172353D01*
X124441821Y-119200924D02*
X124523369Y-119119972D01*
X124523369Y-119119972D02*
X124676345Y-119039020D01*
X124676345Y-119039020D02*
X124890630Y-119039020D01*
X124890630Y-119039020D02*
X125023369Y-119119972D01*
X125023369Y-119119972D02*
X125074559Y-119281877D01*
X125074559Y-119281877D02*
X124963249Y-120172353D01*
X125758488Y-119524734D02*
X126901345Y-119524734D01*
X127534678Y-120172353D02*
X127747178Y-118472353D01*
X127747178Y-118472353D02*
X128095393Y-119686639D01*
X128095393Y-119686639D02*
X128747178Y-118472353D01*
X128747178Y-118472353D02*
X128534678Y-120172353D01*
X129247774Y-119039020D02*
X129463250Y-120172353D01*
X129962060Y-119039020D02*
X129463250Y-120172353D01*
X129463250Y-120172353D02*
X129269798Y-120577115D01*
X129269798Y-120577115D02*
X129188250Y-120658067D01*
X129188250Y-120658067D02*
X129035274Y-120739020D01*
X130391821Y-120172353D02*
X130604321Y-118472353D01*
X130604321Y-118472353D02*
X130961464Y-118472353D01*
X130961464Y-118472353D02*
X131165631Y-118553305D01*
X131165631Y-118553305D02*
X131288250Y-118715210D01*
X131288250Y-118715210D02*
X131339440Y-118877115D01*
X131339440Y-118877115D02*
X131370393Y-119200924D01*
X131370393Y-119200924D02*
X131340036Y-119443781D01*
X131340036Y-119443781D02*
X131228131Y-119767591D01*
X131228131Y-119767591D02*
X131136464Y-119929496D01*
X131136464Y-119929496D02*
X130973369Y-120091401D01*
X130973369Y-120091401D02*
X130748964Y-120172353D01*
X130748964Y-120172353D02*
X130391821Y-120172353D01*
X132473369Y-120091401D02*
X132320393Y-120172353D01*
X132320393Y-120172353D02*
X132034678Y-120172353D01*
X132034678Y-120172353D02*
X131901940Y-120091401D01*
X131901940Y-120091401D02*
X131850750Y-119929496D01*
X131850750Y-119929496D02*
X131931702Y-119281877D01*
X131931702Y-119281877D02*
X132023369Y-119119972D01*
X132023369Y-119119972D02*
X132176345Y-119039020D01*
X132176345Y-119039020D02*
X132462059Y-119039020D01*
X132462059Y-119039020D02*
X132594798Y-119119972D01*
X132594798Y-119119972D02*
X132645988Y-119281877D01*
X132645988Y-119281877D02*
X132625750Y-119443781D01*
X132625750Y-119443781D02*
X131891226Y-119605686D01*
X133116226Y-120091401D02*
X133248964Y-120172353D01*
X133248964Y-120172353D02*
X133534678Y-120172353D01*
X133534678Y-120172353D02*
X133687654Y-120091401D01*
X133687654Y-120091401D02*
X133779321Y-119929496D01*
X133779321Y-119929496D02*
X133789440Y-119848543D01*
X133789440Y-119848543D02*
X133738250Y-119686639D01*
X133738250Y-119686639D02*
X133605512Y-119605686D01*
X133605512Y-119605686D02*
X133391226Y-119605686D01*
X133391226Y-119605686D02*
X133258488Y-119524734D01*
X133258488Y-119524734D02*
X133207297Y-119362829D01*
X133207297Y-119362829D02*
X133217416Y-119281877D01*
X133217416Y-119281877D02*
X133309083Y-119119972D01*
X133309083Y-119119972D02*
X133462059Y-119039020D01*
X133462059Y-119039020D02*
X133676345Y-119039020D01*
X133676345Y-119039020D02*
X133809083Y-119119972D01*
X134391821Y-120172353D02*
X134604321Y-118472353D01*
X134615631Y-119524734D02*
X134963250Y-120172353D01*
X135104917Y-119039020D02*
X134452536Y-119686639D01*
D10*
X94976720Y-62669112D02*
X94976720Y-61169112D01*
X94976720Y-61169112D02*
X95476720Y-62240541D01*
X95476720Y-62240541D02*
X95976720Y-61169112D01*
X95976720Y-61169112D02*
X95976720Y-62669112D01*
X96548149Y-61669112D02*
X96905292Y-62669112D01*
X97262435Y-61669112D02*
X96905292Y-62669112D01*
X96905292Y-62669112D02*
X96762435Y-63026255D01*
X96762435Y-63026255D02*
X96691006Y-63097684D01*
X96691006Y-63097684D02*
X96548149Y-63169112D01*
X99833863Y-62526255D02*
X99762435Y-62597684D01*
X99762435Y-62597684D02*
X99548149Y-62669112D01*
X99548149Y-62669112D02*
X99405292Y-62669112D01*
X99405292Y-62669112D02*
X99191006Y-62597684D01*
X99191006Y-62597684D02*
X99048149Y-62454826D01*
X99048149Y-62454826D02*
X98976720Y-62311969D01*
X98976720Y-62311969D02*
X98905292Y-62026255D01*
X98905292Y-62026255D02*
X98905292Y-61811969D01*
X98905292Y-61811969D02*
X98976720Y-61526255D01*
X98976720Y-61526255D02*
X99048149Y-61383398D01*
X99048149Y-61383398D02*
X99191006Y-61240541D01*
X99191006Y-61240541D02*
X99405292Y-61169112D01*
X99405292Y-61169112D02*
X99548149Y-61169112D01*
X99548149Y-61169112D02*
X99762435Y-61240541D01*
X99762435Y-61240541D02*
X99833863Y-61311969D01*
X100476720Y-62669112D02*
X100476720Y-61169112D01*
X101119578Y-62669112D02*
X101119578Y-61883398D01*
X101119578Y-61883398D02*
X101048149Y-61740541D01*
X101048149Y-61740541D02*
X100905292Y-61669112D01*
X100905292Y-61669112D02*
X100691006Y-61669112D01*
X100691006Y-61669112D02*
X100548149Y-61740541D01*
X100548149Y-61740541D02*
X100476720Y-61811969D01*
X101833863Y-62669112D02*
X101833863Y-61669112D01*
X101833863Y-61169112D02*
X101762435Y-61240541D01*
X101762435Y-61240541D02*
X101833863Y-61311969D01*
X101833863Y-61311969D02*
X101905292Y-61240541D01*
X101905292Y-61240541D02*
X101833863Y-61169112D01*
X101833863Y-61169112D02*
X101833863Y-61311969D01*
X102548149Y-61669112D02*
X102548149Y-63169112D01*
X102548149Y-61740541D02*
X102691007Y-61669112D01*
X102691007Y-61669112D02*
X102976721Y-61669112D01*
X102976721Y-61669112D02*
X103119578Y-61740541D01*
X103119578Y-61740541D02*
X103191007Y-61811969D01*
X103191007Y-61811969D02*
X103262435Y-61954826D01*
X103262435Y-61954826D02*
X103262435Y-62383398D01*
X103262435Y-62383398D02*
X103191007Y-62526255D01*
X103191007Y-62526255D02*
X103119578Y-62597684D01*
X103119578Y-62597684D02*
X102976721Y-62669112D01*
X102976721Y-62669112D02*
X102691007Y-62669112D01*
X102691007Y-62669112D02*
X102548149Y-62597684D01*
X105048149Y-62669112D02*
X105048149Y-61169112D01*
X105048149Y-61169112D02*
X105548149Y-62240541D01*
X105548149Y-62240541D02*
X106048149Y-61169112D01*
X106048149Y-61169112D02*
X106048149Y-62669112D01*
X106762435Y-62669112D02*
X106762435Y-61169112D01*
X106762435Y-61169112D02*
X107333864Y-61169112D01*
X107333864Y-61169112D02*
X107476721Y-61240541D01*
X107476721Y-61240541D02*
X107548150Y-61311969D01*
X107548150Y-61311969D02*
X107619578Y-61454826D01*
X107619578Y-61454826D02*
X107619578Y-61669112D01*
X107619578Y-61669112D02*
X107548150Y-61811969D01*
X107548150Y-61811969D02*
X107476721Y-61883398D01*
X107476721Y-61883398D02*
X107333864Y-61954826D01*
X107333864Y-61954826D02*
X106762435Y-61954826D01*
X108119578Y-61169112D02*
X108476721Y-62669112D01*
X108476721Y-62669112D02*
X108762435Y-61597684D01*
X108762435Y-61597684D02*
X109048150Y-62669112D01*
X109048150Y-62669112D02*
X109405293Y-61169112D01*
X111048150Y-62597684D02*
X111262436Y-62669112D01*
X111262436Y-62669112D02*
X111619578Y-62669112D01*
X111619578Y-62669112D02*
X111762436Y-62597684D01*
X111762436Y-62597684D02*
X111833864Y-62526255D01*
X111833864Y-62526255D02*
X111905293Y-62383398D01*
X111905293Y-62383398D02*
X111905293Y-62240541D01*
X111905293Y-62240541D02*
X111833864Y-62097684D01*
X111833864Y-62097684D02*
X111762436Y-62026255D01*
X111762436Y-62026255D02*
X111619578Y-61954826D01*
X111619578Y-61954826D02*
X111333864Y-61883398D01*
X111333864Y-61883398D02*
X111191007Y-61811969D01*
X111191007Y-61811969D02*
X111119578Y-61740541D01*
X111119578Y-61740541D02*
X111048150Y-61597684D01*
X111048150Y-61597684D02*
X111048150Y-61454826D01*
X111048150Y-61454826D02*
X111119578Y-61311969D01*
X111119578Y-61311969D02*
X111191007Y-61240541D01*
X111191007Y-61240541D02*
X111333864Y-61169112D01*
X111333864Y-61169112D02*
X111691007Y-61169112D01*
X111691007Y-61169112D02*
X111905293Y-61240541D01*
X112333864Y-61669112D02*
X112905292Y-61669112D01*
X112548149Y-61169112D02*
X112548149Y-62454826D01*
X112548149Y-62454826D02*
X112619578Y-62597684D01*
X112619578Y-62597684D02*
X112762435Y-62669112D01*
X112762435Y-62669112D02*
X112905292Y-62669112D01*
X114048150Y-62669112D02*
X114048150Y-61169112D01*
X114048150Y-62597684D02*
X113905292Y-62669112D01*
X113905292Y-62669112D02*
X113619578Y-62669112D01*
X113619578Y-62669112D02*
X113476721Y-62597684D01*
X113476721Y-62597684D02*
X113405292Y-62526255D01*
X113405292Y-62526255D02*
X113333864Y-62383398D01*
X113333864Y-62383398D02*
X113333864Y-61954826D01*
X113333864Y-61954826D02*
X113405292Y-61811969D01*
X113405292Y-61811969D02*
X113476721Y-61740541D01*
X113476721Y-61740541D02*
X113619578Y-61669112D01*
X113619578Y-61669112D02*
X113905292Y-61669112D01*
X113905292Y-61669112D02*
X114048150Y-61740541D01*
X114762435Y-62526255D02*
X114833864Y-62597684D01*
X114833864Y-62597684D02*
X114762435Y-62669112D01*
X114762435Y-62669112D02*
X114691007Y-62597684D01*
X114691007Y-62597684D02*
X114762435Y-62526255D01*
X114762435Y-62526255D02*
X114762435Y-62669112D01*
X116619578Y-62669112D02*
X116619578Y-61169112D01*
X116619578Y-61169112D02*
X117191007Y-61169112D01*
X117191007Y-61169112D02*
X117333864Y-61240541D01*
X117333864Y-61240541D02*
X117405293Y-61311969D01*
X117405293Y-61311969D02*
X117476721Y-61454826D01*
X117476721Y-61454826D02*
X117476721Y-61669112D01*
X117476721Y-61669112D02*
X117405293Y-61811969D01*
X117405293Y-61811969D02*
X117333864Y-61883398D01*
X117333864Y-61883398D02*
X117191007Y-61954826D01*
X117191007Y-61954826D02*
X116619578Y-61954826D01*
X118762436Y-62669112D02*
X118762436Y-61883398D01*
X118762436Y-61883398D02*
X118691007Y-61740541D01*
X118691007Y-61740541D02*
X118548150Y-61669112D01*
X118548150Y-61669112D02*
X118262436Y-61669112D01*
X118262436Y-61669112D02*
X118119578Y-61740541D01*
X118762436Y-62597684D02*
X118619578Y-62669112D01*
X118619578Y-62669112D02*
X118262436Y-62669112D01*
X118262436Y-62669112D02*
X118119578Y-62597684D01*
X118119578Y-62597684D02*
X118048150Y-62454826D01*
X118048150Y-62454826D02*
X118048150Y-62311969D01*
X118048150Y-62311969D02*
X118119578Y-62169112D01*
X118119578Y-62169112D02*
X118262436Y-62097684D01*
X118262436Y-62097684D02*
X118619578Y-62097684D01*
X118619578Y-62097684D02*
X118762436Y-62026255D01*
X120119579Y-62597684D02*
X119976721Y-62669112D01*
X119976721Y-62669112D02*
X119691007Y-62669112D01*
X119691007Y-62669112D02*
X119548150Y-62597684D01*
X119548150Y-62597684D02*
X119476721Y-62526255D01*
X119476721Y-62526255D02*
X119405293Y-62383398D01*
X119405293Y-62383398D02*
X119405293Y-61954826D01*
X119405293Y-61954826D02*
X119476721Y-61811969D01*
X119476721Y-61811969D02*
X119548150Y-61740541D01*
X119548150Y-61740541D02*
X119691007Y-61669112D01*
X119691007Y-61669112D02*
X119976721Y-61669112D01*
X119976721Y-61669112D02*
X120119579Y-61740541D01*
X120762435Y-62669112D02*
X120762435Y-61169112D01*
X120905293Y-62097684D02*
X121333864Y-62669112D01*
X121333864Y-61669112D02*
X120762435Y-62240541D01*
X122619579Y-62669112D02*
X122619579Y-61883398D01*
X122619579Y-61883398D02*
X122548150Y-61740541D01*
X122548150Y-61740541D02*
X122405293Y-61669112D01*
X122405293Y-61669112D02*
X122119579Y-61669112D01*
X122119579Y-61669112D02*
X121976721Y-61740541D01*
X122619579Y-62597684D02*
X122476721Y-62669112D01*
X122476721Y-62669112D02*
X122119579Y-62669112D01*
X122119579Y-62669112D02*
X121976721Y-62597684D01*
X121976721Y-62597684D02*
X121905293Y-62454826D01*
X121905293Y-62454826D02*
X121905293Y-62311969D01*
X121905293Y-62311969D02*
X121976721Y-62169112D01*
X121976721Y-62169112D02*
X122119579Y-62097684D01*
X122119579Y-62097684D02*
X122476721Y-62097684D01*
X122476721Y-62097684D02*
X122619579Y-62026255D01*
X123976722Y-61669112D02*
X123976722Y-62883398D01*
X123976722Y-62883398D02*
X123905293Y-63026255D01*
X123905293Y-63026255D02*
X123833864Y-63097684D01*
X123833864Y-63097684D02*
X123691007Y-63169112D01*
X123691007Y-63169112D02*
X123476722Y-63169112D01*
X123476722Y-63169112D02*
X123333864Y-63097684D01*
X123976722Y-62597684D02*
X123833864Y-62669112D01*
X123833864Y-62669112D02*
X123548150Y-62669112D01*
X123548150Y-62669112D02*
X123405293Y-62597684D01*
X123405293Y-62597684D02*
X123333864Y-62526255D01*
X123333864Y-62526255D02*
X123262436Y-62383398D01*
X123262436Y-62383398D02*
X123262436Y-61954826D01*
X123262436Y-61954826D02*
X123333864Y-61811969D01*
X123333864Y-61811969D02*
X123405293Y-61740541D01*
X123405293Y-61740541D02*
X123548150Y-61669112D01*
X123548150Y-61669112D02*
X123833864Y-61669112D01*
X123833864Y-61669112D02*
X123976722Y-61740541D01*
X125262436Y-62597684D02*
X125119579Y-62669112D01*
X125119579Y-62669112D02*
X124833865Y-62669112D01*
X124833865Y-62669112D02*
X124691007Y-62597684D01*
X124691007Y-62597684D02*
X124619579Y-62454826D01*
X124619579Y-62454826D02*
X124619579Y-61883398D01*
X124619579Y-61883398D02*
X124691007Y-61740541D01*
X124691007Y-61740541D02*
X124833865Y-61669112D01*
X124833865Y-61669112D02*
X125119579Y-61669112D01*
X125119579Y-61669112D02*
X125262436Y-61740541D01*
X125262436Y-61740541D02*
X125333865Y-61883398D01*
X125333865Y-61883398D02*
X125333865Y-62026255D01*
X125333865Y-62026255D02*
X124619579Y-62169112D01*
X94905292Y-65012600D02*
X95119578Y-65084028D01*
X95119578Y-65084028D02*
X95476720Y-65084028D01*
X95476720Y-65084028D02*
X95619578Y-65012600D01*
X95619578Y-65012600D02*
X95691006Y-64941171D01*
X95691006Y-64941171D02*
X95762435Y-64798314D01*
X95762435Y-64798314D02*
X95762435Y-64655457D01*
X95762435Y-64655457D02*
X95691006Y-64512600D01*
X95691006Y-64512600D02*
X95619578Y-64441171D01*
X95619578Y-64441171D02*
X95476720Y-64369742D01*
X95476720Y-64369742D02*
X95191006Y-64298314D01*
X95191006Y-64298314D02*
X95048149Y-64226885D01*
X95048149Y-64226885D02*
X94976720Y-64155457D01*
X94976720Y-64155457D02*
X94905292Y-64012600D01*
X94905292Y-64012600D02*
X94905292Y-63869742D01*
X94905292Y-63869742D02*
X94976720Y-63726885D01*
X94976720Y-63726885D02*
X95048149Y-63655457D01*
X95048149Y-63655457D02*
X95191006Y-63584028D01*
X95191006Y-63584028D02*
X95548149Y-63584028D01*
X95548149Y-63584028D02*
X95762435Y-63655457D01*
X96691006Y-63584028D02*
X96976720Y-63584028D01*
X96976720Y-63584028D02*
X97119577Y-63655457D01*
X97119577Y-63655457D02*
X97262434Y-63798314D01*
X97262434Y-63798314D02*
X97333863Y-64084028D01*
X97333863Y-64084028D02*
X97333863Y-64584028D01*
X97333863Y-64584028D02*
X97262434Y-64869742D01*
X97262434Y-64869742D02*
X97119577Y-65012600D01*
X97119577Y-65012600D02*
X96976720Y-65084028D01*
X96976720Y-65084028D02*
X96691006Y-65084028D01*
X96691006Y-65084028D02*
X96548149Y-65012600D01*
X96548149Y-65012600D02*
X96405291Y-64869742D01*
X96405291Y-64869742D02*
X96333863Y-64584028D01*
X96333863Y-64584028D02*
X96333863Y-64084028D01*
X96333863Y-64084028D02*
X96405291Y-63798314D01*
X96405291Y-63798314D02*
X96548149Y-63655457D01*
X96548149Y-63655457D02*
X96691006Y-63584028D01*
X97976720Y-65084028D02*
X97976720Y-63584028D01*
X97976720Y-63584028D02*
X98548149Y-63584028D01*
X98548149Y-63584028D02*
X98691006Y-63655457D01*
X98691006Y-63655457D02*
X98762435Y-63726885D01*
X98762435Y-63726885D02*
X98833863Y-63869742D01*
X98833863Y-63869742D02*
X98833863Y-64084028D01*
X98833863Y-64084028D02*
X98762435Y-64226885D01*
X98762435Y-64226885D02*
X98691006Y-64298314D01*
X98691006Y-64298314D02*
X98548149Y-64369742D01*
X98548149Y-64369742D02*
X97976720Y-64369742D01*
X99405292Y-63726885D02*
X99476720Y-63655457D01*
X99476720Y-63655457D02*
X99619578Y-63584028D01*
X99619578Y-63584028D02*
X99976720Y-63584028D01*
X99976720Y-63584028D02*
X100119578Y-63655457D01*
X100119578Y-63655457D02*
X100191006Y-63726885D01*
X100191006Y-63726885D02*
X100262435Y-63869742D01*
X100262435Y-63869742D02*
X100262435Y-64012600D01*
X100262435Y-64012600D02*
X100191006Y-64226885D01*
X100191006Y-64226885D02*
X99333863Y-65084028D01*
X99333863Y-65084028D02*
X100262435Y-65084028D01*
X101119577Y-64226885D02*
X100976720Y-64155457D01*
X100976720Y-64155457D02*
X100905291Y-64084028D01*
X100905291Y-64084028D02*
X100833863Y-63941171D01*
X100833863Y-63941171D02*
X100833863Y-63869742D01*
X100833863Y-63869742D02*
X100905291Y-63726885D01*
X100905291Y-63726885D02*
X100976720Y-63655457D01*
X100976720Y-63655457D02*
X101119577Y-63584028D01*
X101119577Y-63584028D02*
X101405291Y-63584028D01*
X101405291Y-63584028D02*
X101548149Y-63655457D01*
X101548149Y-63655457D02*
X101619577Y-63726885D01*
X101619577Y-63726885D02*
X101691006Y-63869742D01*
X101691006Y-63869742D02*
X101691006Y-63941171D01*
X101691006Y-63941171D02*
X101619577Y-64084028D01*
X101619577Y-64084028D02*
X101548149Y-64155457D01*
X101548149Y-64155457D02*
X101405291Y-64226885D01*
X101405291Y-64226885D02*
X101119577Y-64226885D01*
X101119577Y-64226885D02*
X100976720Y-64298314D01*
X100976720Y-64298314D02*
X100905291Y-64369742D01*
X100905291Y-64369742D02*
X100833863Y-64512600D01*
X100833863Y-64512600D02*
X100833863Y-64798314D01*
X100833863Y-64798314D02*
X100905291Y-64941171D01*
X100905291Y-64941171D02*
X100976720Y-65012600D01*
X100976720Y-65012600D02*
X101119577Y-65084028D01*
X101119577Y-65084028D02*
X101405291Y-65084028D01*
X101405291Y-65084028D02*
X101548149Y-65012600D01*
X101548149Y-65012600D02*
X101619577Y-64941171D01*
X101619577Y-64941171D02*
X101691006Y-64798314D01*
X101691006Y-64798314D02*
X101691006Y-64512600D01*
X101691006Y-64512600D02*
X101619577Y-64369742D01*
X101619577Y-64369742D02*
X101548149Y-64298314D01*
X101548149Y-64298314D02*
X101405291Y-64226885D01*
X103262434Y-63584028D02*
X104119577Y-63584028D01*
X103691005Y-65084028D02*
X103691005Y-63584028D01*
X105191005Y-65012600D02*
X105048148Y-65084028D01*
X105048148Y-65084028D02*
X104762434Y-65084028D01*
X104762434Y-65084028D02*
X104619576Y-65012600D01*
X104619576Y-65012600D02*
X104548148Y-64869742D01*
X104548148Y-64869742D02*
X104548148Y-64298314D01*
X104548148Y-64298314D02*
X104619576Y-64155457D01*
X104619576Y-64155457D02*
X104762434Y-64084028D01*
X104762434Y-64084028D02*
X105048148Y-64084028D01*
X105048148Y-64084028D02*
X105191005Y-64155457D01*
X105191005Y-64155457D02*
X105262434Y-64298314D01*
X105262434Y-64298314D02*
X105262434Y-64441171D01*
X105262434Y-64441171D02*
X104548148Y-64584028D01*
X105833862Y-65012600D02*
X105976719Y-65084028D01*
X105976719Y-65084028D02*
X106262433Y-65084028D01*
X106262433Y-65084028D02*
X106405290Y-65012600D01*
X106405290Y-65012600D02*
X106476719Y-64869742D01*
X106476719Y-64869742D02*
X106476719Y-64798314D01*
X106476719Y-64798314D02*
X106405290Y-64655457D01*
X106405290Y-64655457D02*
X106262433Y-64584028D01*
X106262433Y-64584028D02*
X106048148Y-64584028D01*
X106048148Y-64584028D02*
X105905290Y-64512600D01*
X105905290Y-64512600D02*
X105833862Y-64369742D01*
X105833862Y-64369742D02*
X105833862Y-64298314D01*
X105833862Y-64298314D02*
X105905290Y-64155457D01*
X105905290Y-64155457D02*
X106048148Y-64084028D01*
X106048148Y-64084028D02*
X106262433Y-64084028D01*
X106262433Y-64084028D02*
X106405290Y-64155457D01*
X106905291Y-64084028D02*
X107476719Y-64084028D01*
X107119576Y-63584028D02*
X107119576Y-64869742D01*
X107119576Y-64869742D02*
X107191005Y-65012600D01*
X107191005Y-65012600D02*
X107333862Y-65084028D01*
X107333862Y-65084028D02*
X107476719Y-65084028D01*
X109048148Y-65012600D02*
X109262434Y-65084028D01*
X109262434Y-65084028D02*
X109619576Y-65084028D01*
X109619576Y-65084028D02*
X109762434Y-65012600D01*
X109762434Y-65012600D02*
X109833862Y-64941171D01*
X109833862Y-64941171D02*
X109905291Y-64798314D01*
X109905291Y-64798314D02*
X109905291Y-64655457D01*
X109905291Y-64655457D02*
X109833862Y-64512600D01*
X109833862Y-64512600D02*
X109762434Y-64441171D01*
X109762434Y-64441171D02*
X109619576Y-64369742D01*
X109619576Y-64369742D02*
X109333862Y-64298314D01*
X109333862Y-64298314D02*
X109191005Y-64226885D01*
X109191005Y-64226885D02*
X109119576Y-64155457D01*
X109119576Y-64155457D02*
X109048148Y-64012600D01*
X109048148Y-64012600D02*
X109048148Y-63869742D01*
X109048148Y-63869742D02*
X109119576Y-63726885D01*
X109119576Y-63726885D02*
X109191005Y-63655457D01*
X109191005Y-63655457D02*
X109333862Y-63584028D01*
X109333862Y-63584028D02*
X109691005Y-63584028D01*
X109691005Y-63584028D02*
X109905291Y-63655457D01*
X110762433Y-65084028D02*
X110619576Y-65012600D01*
X110619576Y-65012600D02*
X110548147Y-64941171D01*
X110548147Y-64941171D02*
X110476719Y-64798314D01*
X110476719Y-64798314D02*
X110476719Y-64369742D01*
X110476719Y-64369742D02*
X110548147Y-64226885D01*
X110548147Y-64226885D02*
X110619576Y-64155457D01*
X110619576Y-64155457D02*
X110762433Y-64084028D01*
X110762433Y-64084028D02*
X110976719Y-64084028D01*
X110976719Y-64084028D02*
X111119576Y-64155457D01*
X111119576Y-64155457D02*
X111191005Y-64226885D01*
X111191005Y-64226885D02*
X111262433Y-64369742D01*
X111262433Y-64369742D02*
X111262433Y-64798314D01*
X111262433Y-64798314D02*
X111191005Y-64941171D01*
X111191005Y-64941171D02*
X111119576Y-65012600D01*
X111119576Y-65012600D02*
X110976719Y-65084028D01*
X110976719Y-65084028D02*
X110762433Y-65084028D01*
X112548148Y-65012600D02*
X112405290Y-65084028D01*
X112405290Y-65084028D02*
X112119576Y-65084028D01*
X112119576Y-65084028D02*
X111976719Y-65012600D01*
X111976719Y-65012600D02*
X111905290Y-64941171D01*
X111905290Y-64941171D02*
X111833862Y-64798314D01*
X111833862Y-64798314D02*
X111833862Y-64369742D01*
X111833862Y-64369742D02*
X111905290Y-64226885D01*
X111905290Y-64226885D02*
X111976719Y-64155457D01*
X111976719Y-64155457D02*
X112119576Y-64084028D01*
X112119576Y-64084028D02*
X112405290Y-64084028D01*
X112405290Y-64084028D02*
X112548148Y-64155457D01*
X113191004Y-65084028D02*
X113191004Y-63584028D01*
X113333862Y-64512600D02*
X113762433Y-65084028D01*
X113762433Y-64084028D02*
X113191004Y-64655457D01*
X114976719Y-65012600D02*
X114833862Y-65084028D01*
X114833862Y-65084028D02*
X114548148Y-65084028D01*
X114548148Y-65084028D02*
X114405290Y-65012600D01*
X114405290Y-65012600D02*
X114333862Y-64869742D01*
X114333862Y-64869742D02*
X114333862Y-64298314D01*
X114333862Y-64298314D02*
X114405290Y-64155457D01*
X114405290Y-64155457D02*
X114548148Y-64084028D01*
X114548148Y-64084028D02*
X114833862Y-64084028D01*
X114833862Y-64084028D02*
X114976719Y-64155457D01*
X114976719Y-64155457D02*
X115048148Y-64298314D01*
X115048148Y-64298314D02*
X115048148Y-64441171D01*
X115048148Y-64441171D02*
X114333862Y-64584028D01*
X115476719Y-64084028D02*
X116048147Y-64084028D01*
X115691004Y-63584028D02*
X115691004Y-64869742D01*
X115691004Y-64869742D02*
X115762433Y-65012600D01*
X115762433Y-65012600D02*
X115905290Y-65084028D01*
X115905290Y-65084028D02*
X116048147Y-65084028D01*
X118119576Y-65655457D02*
X118048147Y-65584028D01*
X118048147Y-65584028D02*
X117905290Y-65369742D01*
X117905290Y-65369742D02*
X117833862Y-65226885D01*
X117833862Y-65226885D02*
X117762433Y-65012600D01*
X117762433Y-65012600D02*
X117691004Y-64655457D01*
X117691004Y-64655457D02*
X117691004Y-64369742D01*
X117691004Y-64369742D02*
X117762433Y-64012600D01*
X117762433Y-64012600D02*
X117833862Y-63798314D01*
X117833862Y-63798314D02*
X117905290Y-63655457D01*
X117905290Y-63655457D02*
X118048147Y-63441171D01*
X118048147Y-63441171D02*
X118119576Y-63369742D01*
X118548147Y-64084028D02*
X118905290Y-65084028D01*
X118905290Y-65084028D02*
X119262433Y-64084028D01*
X119833861Y-64941171D02*
X119905290Y-65012600D01*
X119905290Y-65012600D02*
X119833861Y-65084028D01*
X119833861Y-65084028D02*
X119762433Y-65012600D01*
X119762433Y-65012600D02*
X119833861Y-64941171D01*
X119833861Y-64941171D02*
X119833861Y-65084028D01*
X120476719Y-63726885D02*
X120548147Y-63655457D01*
X120548147Y-63655457D02*
X120691005Y-63584028D01*
X120691005Y-63584028D02*
X121048147Y-63584028D01*
X121048147Y-63584028D02*
X121191005Y-63655457D01*
X121191005Y-63655457D02*
X121262433Y-63726885D01*
X121262433Y-63726885D02*
X121333862Y-63869742D01*
X121333862Y-63869742D02*
X121333862Y-64012600D01*
X121333862Y-64012600D02*
X121262433Y-64226885D01*
X121262433Y-64226885D02*
X120405290Y-65084028D01*
X120405290Y-65084028D02*
X121333862Y-65084028D01*
X121833861Y-65655457D02*
X121905290Y-65584028D01*
X121905290Y-65584028D02*
X122048147Y-65369742D01*
X122048147Y-65369742D02*
X122119576Y-65226885D01*
X122119576Y-65226885D02*
X122191004Y-65012600D01*
X122191004Y-65012600D02*
X122262433Y-64655457D01*
X122262433Y-64655457D02*
X122262433Y-64369742D01*
X122262433Y-64369742D02*
X122191004Y-64012600D01*
X122191004Y-64012600D02*
X122119576Y-63798314D01*
X122119576Y-63798314D02*
X122048147Y-63655457D01*
X122048147Y-63655457D02*
X121905290Y-63441171D01*
X121905290Y-63441171D02*
X121833861Y-63369742D01*
X89920435Y-75526960D02*
X89063292Y-75526960D01*
X89491863Y-75526960D02*
X89491863Y-73926960D01*
X89491863Y-73926960D02*
X89349006Y-74155531D01*
X89349006Y-74155531D02*
X89206149Y-74307912D01*
X89206149Y-74307912D02*
X89063292Y-74384103D01*
X89063292Y-76655251D02*
X89134720Y-76579060D01*
X89134720Y-76579060D02*
X89277578Y-76502870D01*
X89277578Y-76502870D02*
X89634720Y-76502870D01*
X89634720Y-76502870D02*
X89777578Y-76579060D01*
X89777578Y-76579060D02*
X89849006Y-76655251D01*
X89849006Y-76655251D02*
X89920435Y-76807632D01*
X89920435Y-76807632D02*
X89920435Y-76960013D01*
X89920435Y-76960013D02*
X89849006Y-77188584D01*
X89849006Y-77188584D02*
X88991863Y-78102870D01*
X88991863Y-78102870D02*
X89920435Y-78102870D01*
X88991863Y-79078780D02*
X89920435Y-79078780D01*
X89920435Y-79078780D02*
X89420435Y-79688304D01*
X89420435Y-79688304D02*
X89634720Y-79688304D01*
X89634720Y-79688304D02*
X89777578Y-79764494D01*
X89777578Y-79764494D02*
X89849006Y-79840685D01*
X89849006Y-79840685D02*
X89920435Y-79993066D01*
X89920435Y-79993066D02*
X89920435Y-80374018D01*
X89920435Y-80374018D02*
X89849006Y-80526399D01*
X89849006Y-80526399D02*
X89777578Y-80602590D01*
X89777578Y-80602590D02*
X89634720Y-80678780D01*
X89634720Y-80678780D02*
X89206149Y-80678780D01*
X89206149Y-80678780D02*
X89063292Y-80602590D01*
X89063292Y-80602590D02*
X88991863Y-80526399D01*
X89777578Y-82188023D02*
X89777578Y-83254690D01*
X89420435Y-81578500D02*
X89063292Y-82721357D01*
X89063292Y-82721357D02*
X89991863Y-82721357D01*
X89849006Y-84230600D02*
X89134720Y-84230600D01*
X89134720Y-84230600D02*
X89063292Y-84992505D01*
X89063292Y-84992505D02*
X89134720Y-84916314D01*
X89134720Y-84916314D02*
X89277578Y-84840124D01*
X89277578Y-84840124D02*
X89634720Y-84840124D01*
X89634720Y-84840124D02*
X89777578Y-84916314D01*
X89777578Y-84916314D02*
X89849006Y-84992505D01*
X89849006Y-84992505D02*
X89920435Y-85144886D01*
X89920435Y-85144886D02*
X89920435Y-85525838D01*
X89920435Y-85525838D02*
X89849006Y-85678219D01*
X89849006Y-85678219D02*
X89777578Y-85754410D01*
X89777578Y-85754410D02*
X89634720Y-85830600D01*
X89634720Y-85830600D02*
X89277578Y-85830600D01*
X89277578Y-85830600D02*
X89134720Y-85754410D01*
X89134720Y-85754410D02*
X89063292Y-85678219D01*
X89777578Y-86806510D02*
X89491863Y-86806510D01*
X89491863Y-86806510D02*
X89349006Y-86882700D01*
X89349006Y-86882700D02*
X89277578Y-86958891D01*
X89277578Y-86958891D02*
X89134720Y-87187462D01*
X89134720Y-87187462D02*
X89063292Y-87492224D01*
X89063292Y-87492224D02*
X89063292Y-88101748D01*
X89063292Y-88101748D02*
X89134720Y-88254129D01*
X89134720Y-88254129D02*
X89206149Y-88330320D01*
X89206149Y-88330320D02*
X89349006Y-88406510D01*
X89349006Y-88406510D02*
X89634720Y-88406510D01*
X89634720Y-88406510D02*
X89777578Y-88330320D01*
X89777578Y-88330320D02*
X89849006Y-88254129D01*
X89849006Y-88254129D02*
X89920435Y-88101748D01*
X89920435Y-88101748D02*
X89920435Y-87720796D01*
X89920435Y-87720796D02*
X89849006Y-87568415D01*
X89849006Y-87568415D02*
X89777578Y-87492224D01*
X89777578Y-87492224D02*
X89634720Y-87416034D01*
X89634720Y-87416034D02*
X89349006Y-87416034D01*
X89349006Y-87416034D02*
X89206149Y-87492224D01*
X89206149Y-87492224D02*
X89134720Y-87568415D01*
X89134720Y-87568415D02*
X89063292Y-87720796D01*
X88991863Y-89382420D02*
X89991863Y-89382420D01*
X89991863Y-89382420D02*
X89349006Y-90982420D01*
X89349006Y-92644044D02*
X89206149Y-92567854D01*
X89206149Y-92567854D02*
X89134720Y-92491663D01*
X89134720Y-92491663D02*
X89063292Y-92339282D01*
X89063292Y-92339282D02*
X89063292Y-92263092D01*
X89063292Y-92263092D02*
X89134720Y-92110711D01*
X89134720Y-92110711D02*
X89206149Y-92034520D01*
X89206149Y-92034520D02*
X89349006Y-91958330D01*
X89349006Y-91958330D02*
X89634720Y-91958330D01*
X89634720Y-91958330D02*
X89777578Y-92034520D01*
X89777578Y-92034520D02*
X89849006Y-92110711D01*
X89849006Y-92110711D02*
X89920435Y-92263092D01*
X89920435Y-92263092D02*
X89920435Y-92339282D01*
X89920435Y-92339282D02*
X89849006Y-92491663D01*
X89849006Y-92491663D02*
X89777578Y-92567854D01*
X89777578Y-92567854D02*
X89634720Y-92644044D01*
X89634720Y-92644044D02*
X89349006Y-92644044D01*
X89349006Y-92644044D02*
X89206149Y-92720235D01*
X89206149Y-92720235D02*
X89134720Y-92796425D01*
X89134720Y-92796425D02*
X89063292Y-92948806D01*
X89063292Y-92948806D02*
X89063292Y-93253568D01*
X89063292Y-93253568D02*
X89134720Y-93405949D01*
X89134720Y-93405949D02*
X89206149Y-93482140D01*
X89206149Y-93482140D02*
X89349006Y-93558330D01*
X89349006Y-93558330D02*
X89634720Y-93558330D01*
X89634720Y-93558330D02*
X89777578Y-93482140D01*
X89777578Y-93482140D02*
X89849006Y-93405949D01*
X89849006Y-93405949D02*
X89920435Y-93253568D01*
X89920435Y-93253568D02*
X89920435Y-92948806D01*
X89920435Y-92948806D02*
X89849006Y-92796425D01*
X89849006Y-92796425D02*
X89777578Y-92720235D01*
X89777578Y-92720235D02*
X89634720Y-92644044D01*
X89206149Y-96134240D02*
X89491863Y-96134240D01*
X89491863Y-96134240D02*
X89634720Y-96058050D01*
X89634720Y-96058050D02*
X89706149Y-95981859D01*
X89706149Y-95981859D02*
X89849006Y-95753288D01*
X89849006Y-95753288D02*
X89920435Y-95448526D01*
X89920435Y-95448526D02*
X89920435Y-94839002D01*
X89920435Y-94839002D02*
X89849006Y-94686621D01*
X89849006Y-94686621D02*
X89777578Y-94610430D01*
X89777578Y-94610430D02*
X89634720Y-94534240D01*
X89634720Y-94534240D02*
X89349006Y-94534240D01*
X89349006Y-94534240D02*
X89206149Y-94610430D01*
X89206149Y-94610430D02*
X89134720Y-94686621D01*
X89134720Y-94686621D02*
X89063292Y-94839002D01*
X89063292Y-94839002D02*
X89063292Y-95219954D01*
X89063292Y-95219954D02*
X89134720Y-95372335D01*
X89134720Y-95372335D02*
X89206149Y-95448526D01*
X89206149Y-95448526D02*
X89349006Y-95524716D01*
X89349006Y-95524716D02*
X89634720Y-95524716D01*
X89634720Y-95524716D02*
X89777578Y-95448526D01*
X89777578Y-95448526D02*
X89849006Y-95372335D01*
X89849006Y-95372335D02*
X89920435Y-95219954D01*
X89920435Y-98710150D02*
X89063292Y-98710150D01*
X89491863Y-98710150D02*
X89491863Y-97110150D01*
X89491863Y-97110150D02*
X89349006Y-97338721D01*
X89349006Y-97338721D02*
X89206149Y-97491102D01*
X89206149Y-97491102D02*
X89063292Y-97567293D01*
X90849006Y-97110150D02*
X90991863Y-97110150D01*
X90991863Y-97110150D02*
X91134720Y-97186340D01*
X91134720Y-97186340D02*
X91206149Y-97262531D01*
X91206149Y-97262531D02*
X91277577Y-97414912D01*
X91277577Y-97414912D02*
X91349006Y-97719674D01*
X91349006Y-97719674D02*
X91349006Y-98100626D01*
X91349006Y-98100626D02*
X91277577Y-98405388D01*
X91277577Y-98405388D02*
X91206149Y-98557769D01*
X91206149Y-98557769D02*
X91134720Y-98633960D01*
X91134720Y-98633960D02*
X90991863Y-98710150D01*
X90991863Y-98710150D02*
X90849006Y-98710150D01*
X90849006Y-98710150D02*
X90706149Y-98633960D01*
X90706149Y-98633960D02*
X90634720Y-98557769D01*
X90634720Y-98557769D02*
X90563291Y-98405388D01*
X90563291Y-98405388D02*
X90491863Y-98100626D01*
X90491863Y-98100626D02*
X90491863Y-97719674D01*
X90491863Y-97719674D02*
X90563291Y-97414912D01*
X90563291Y-97414912D02*
X90634720Y-97262531D01*
X90634720Y-97262531D02*
X90706149Y-97186340D01*
X90706149Y-97186340D02*
X90849006Y-97110150D01*
X89920435Y-101286060D02*
X89063292Y-101286060D01*
X89491863Y-101286060D02*
X89491863Y-99686060D01*
X89491863Y-99686060D02*
X89349006Y-99914631D01*
X89349006Y-99914631D02*
X89206149Y-100067012D01*
X89206149Y-100067012D02*
X89063292Y-100143203D01*
X91349006Y-101286060D02*
X90491863Y-101286060D01*
X90920434Y-101286060D02*
X90920434Y-99686060D01*
X90920434Y-99686060D02*
X90777577Y-99914631D01*
X90777577Y-99914631D02*
X90634720Y-100067012D01*
X90634720Y-100067012D02*
X90491863Y-100143203D01*
X89920435Y-103861970D02*
X89063292Y-103861970D01*
X89491863Y-103861970D02*
X89491863Y-102261970D01*
X89491863Y-102261970D02*
X89349006Y-102490541D01*
X89349006Y-102490541D02*
X89206149Y-102642922D01*
X89206149Y-102642922D02*
X89063292Y-102719113D01*
X90491863Y-102414351D02*
X90563291Y-102338160D01*
X90563291Y-102338160D02*
X90706149Y-102261970D01*
X90706149Y-102261970D02*
X91063291Y-102261970D01*
X91063291Y-102261970D02*
X91206149Y-102338160D01*
X91206149Y-102338160D02*
X91277577Y-102414351D01*
X91277577Y-102414351D02*
X91349006Y-102566732D01*
X91349006Y-102566732D02*
X91349006Y-102719113D01*
X91349006Y-102719113D02*
X91277577Y-102947684D01*
X91277577Y-102947684D02*
X90420434Y-103861970D01*
X90420434Y-103861970D02*
X91349006Y-103861970D01*
X89920435Y-106437880D02*
X89063292Y-106437880D01*
X89491863Y-106437880D02*
X89491863Y-104837880D01*
X89491863Y-104837880D02*
X89349006Y-105066451D01*
X89349006Y-105066451D02*
X89206149Y-105218832D01*
X89206149Y-105218832D02*
X89063292Y-105295023D01*
X90420434Y-104837880D02*
X91349006Y-104837880D01*
X91349006Y-104837880D02*
X90849006Y-105447404D01*
X90849006Y-105447404D02*
X91063291Y-105447404D01*
X91063291Y-105447404D02*
X91206149Y-105523594D01*
X91206149Y-105523594D02*
X91277577Y-105599785D01*
X91277577Y-105599785D02*
X91349006Y-105752166D01*
X91349006Y-105752166D02*
X91349006Y-106133118D01*
X91349006Y-106133118D02*
X91277577Y-106285499D01*
X91277577Y-106285499D02*
X91206149Y-106361690D01*
X91206149Y-106361690D02*
X91063291Y-106437880D01*
X91063291Y-106437880D02*
X90634720Y-106437880D01*
X90634720Y-106437880D02*
X90491863Y-106361690D01*
X90491863Y-106361690D02*
X90420434Y-106285499D01*
X89920435Y-109013790D02*
X89063292Y-109013790D01*
X89491863Y-109013790D02*
X89491863Y-107413790D01*
X89491863Y-107413790D02*
X89349006Y-107642361D01*
X89349006Y-107642361D02*
X89206149Y-107794742D01*
X89206149Y-107794742D02*
X89063292Y-107870933D01*
X91206149Y-107947123D02*
X91206149Y-109013790D01*
X90849006Y-107337600D02*
X90491863Y-108480457D01*
X90491863Y-108480457D02*
X91420434Y-108480457D01*
D13*
%TO.C,J2*%
X109320000Y-73620000D02*
X110700000Y-73620000D01*
X109320000Y-75000000D02*
X109320000Y-73620000D01*
X109320000Y-76270000D02*
X109320000Y-109400000D01*
X109320000Y-76270000D02*
X112080000Y-76270000D01*
X109320000Y-109400000D02*
X112080000Y-109400000D01*
X112080000Y-76270000D02*
X112080000Y-109400000D01*
%TO.C,J7*%
X127620000Y-73620000D02*
X129000000Y-73620000D01*
X127620000Y-75000000D02*
X127620000Y-73620000D01*
X127620000Y-76270000D02*
X127620000Y-109400000D01*
X127620000Y-76270000D02*
X130380000Y-76270000D01*
X127620000Y-109400000D02*
X130380000Y-109400000D01*
X130380000Y-76270000D02*
X130380000Y-109400000D01*
%TO.C,J5*%
X114400000Y-73620000D02*
X115780000Y-73620000D01*
X114400000Y-75000000D02*
X114400000Y-73620000D01*
X114400000Y-76270000D02*
X114400000Y-109400000D01*
X114400000Y-76270000D02*
X117160000Y-76270000D01*
X114400000Y-109400000D02*
X117160000Y-109400000D01*
X117160000Y-76270000D02*
X117160000Y-109400000D01*
%TO.C,J3*%
X151274000Y-45356000D02*
X152654000Y-45356000D01*
X151274000Y-46736000D02*
X151274000Y-45356000D01*
X151274000Y-48006000D02*
X151274000Y-116696000D01*
X151274000Y-48006000D02*
X153924000Y-48006000D01*
X151274000Y-116696000D02*
X156574000Y-116696000D01*
X153924000Y-45356000D02*
X156574000Y-45356000D01*
X153924000Y-48006000D02*
X153924000Y-45356000D01*
X156574000Y-45356000D02*
X156574000Y-116696000D01*
%TO.C,J4*%
X96620000Y-73620000D02*
X98000000Y-73620000D01*
X96620000Y-75000000D02*
X96620000Y-73620000D01*
X96620000Y-76270000D02*
X96620000Y-109400000D01*
X96620000Y-76270000D02*
X99380000Y-76270000D01*
X96620000Y-109400000D02*
X99380000Y-109400000D01*
X99380000Y-76270000D02*
X99380000Y-109400000D01*
%TO.C,J1*%
X101700000Y-73620000D02*
X103080000Y-73620000D01*
X101700000Y-75000000D02*
X101700000Y-73620000D01*
X101700000Y-76270000D02*
X101700000Y-109400000D01*
X101700000Y-76270000D02*
X104460000Y-76270000D01*
X101700000Y-109400000D02*
X104460000Y-109400000D01*
X104460000Y-76270000D02*
X104460000Y-109400000D01*
%TO.C,J6*%
X84620000Y-73620000D02*
X86000000Y-73620000D01*
X84620000Y-75000000D02*
X84620000Y-73620000D01*
X84620000Y-76270000D02*
X84620000Y-109400000D01*
X84620000Y-76270000D02*
X87380000Y-76270000D01*
X84620000Y-109400000D02*
X87380000Y-109400000D01*
X87380000Y-76270000D02*
X87380000Y-109400000D01*
%TD*%
M02*
