%TF.GenerationSoftware,KiCad,Pcbnew,9.0.5-9.0.5~ubuntu24.04.1*%
%TF.CreationDate,2025-10-25T11:33:51+09:00*%
%TF.ProjectId,SOP28_Test,534f5032-385f-4546-9573-742e6b696361,rev?*%
%TF.SameCoordinates,Original*%
%TF.FileFunction,Copper,L2,Bot*%
%TF.FilePolarity,Positive*%
%FSLAX46Y46*%
G04 Gerber Fmt 4.6, Leading zero omitted, Abs format (unit mm)*
G04 Created by KiCad (PCBNEW 9.0.5-9.0.5~ubuntu24.04.1) date 2025-10-25 11:33:51*
%MOMM*%
%LPD*%
G01*
G04 APERTURE LIST*
%TA.AperFunction,ComponentPad*%
%ADD10C,5.600000*%
%TD*%
%TA.AperFunction,ComponentPad*%
%ADD11R,1.700000X1.700000*%
%TD*%
%TA.AperFunction,ComponentPad*%
%ADD12C,1.700000*%
%TD*%
%TA.AperFunction,Conductor*%
%ADD13C,0.300000*%
%TD*%
G04 APERTURE END LIST*
D10*
%TO.P,H4,1*%
%TO.N,N/C*%
X140000000Y-118000000D03*
%TD*%
D11*
%TO.P,J2,1,Pin_1*%
%TO.N,Net-(J2-Pin_1)*%
X110700000Y-75000000D03*
D12*
%TO.P,J2,2,Pin_2*%
%TO.N,Net-(J2-Pin_2)*%
X110700000Y-77540000D03*
%TO.P,J2,3,Pin_3*%
%TO.N,Net-(J2-Pin_3)*%
X110700000Y-80080000D03*
%TO.P,J2,4,Pin_4*%
%TO.N,Net-(J2-Pin_4)*%
X110700000Y-82620000D03*
%TO.P,J2,5,Pin_5*%
%TO.N,Net-(J2-Pin_5)*%
X110700000Y-85160000D03*
%TO.P,J2,6,Pin_6*%
%TO.N,Net-(J2-Pin_6)*%
X110700000Y-87700000D03*
%TO.P,J2,7,Pin_7*%
%TO.N,Net-(J2-Pin_7)*%
X110700000Y-90240000D03*
%TO.P,J2,8,Pin_8*%
%TO.N,Net-(J2-Pin_8)*%
X110700000Y-92780000D03*
%TO.P,J2,9,Pin_9*%
%TO.N,Net-(J2-Pin_9)*%
X110700000Y-95320000D03*
%TO.P,J2,10,Pin_10*%
%TO.N,Net-(J2-Pin_10)*%
X110700000Y-97860000D03*
%TO.P,J2,11,Pin_11*%
%TO.N,Net-(J2-Pin_11)*%
X110700000Y-100400000D03*
%TO.P,J2,12,Pin_12*%
%TO.N,Net-(J2-Pin_12)*%
X110700000Y-102940000D03*
%TO.P,J2,13,Pin_13*%
%TO.N,Net-(J2-Pin_13)*%
X110700000Y-105480000D03*
%TO.P,J2,14,Pin_14*%
%TO.N,Net-(J2-Pin_14)*%
X110700000Y-108020000D03*
%TD*%
D11*
%TO.P,J7,1,Pin_1*%
%TO.N,Net-(J2-Pin_1)*%
X129000000Y-75000000D03*
D12*
%TO.P,J7,2,Pin_2*%
%TO.N,Net-(J2-Pin_2)*%
X129000000Y-77540000D03*
%TO.P,J7,3,Pin_3*%
%TO.N,Net-(J2-Pin_3)*%
X129000000Y-80080000D03*
%TO.P,J7,4,Pin_4*%
%TO.N,Net-(J2-Pin_4)*%
X129000000Y-82620000D03*
%TO.P,J7,5,Pin_5*%
%TO.N,Net-(J2-Pin_5)*%
X129000000Y-85160000D03*
%TO.P,J7,6,Pin_6*%
%TO.N,Net-(J2-Pin_6)*%
X129000000Y-87700000D03*
%TO.P,J7,7,Pin_7*%
%TO.N,Net-(J2-Pin_7)*%
X129000000Y-90240000D03*
%TO.P,J7,8,Pin_8*%
%TO.N,Net-(J2-Pin_8)*%
X129000000Y-92780000D03*
%TO.P,J7,9,Pin_9*%
%TO.N,Net-(J2-Pin_9)*%
X129000000Y-95320000D03*
%TO.P,J7,10,Pin_10*%
%TO.N,Net-(J2-Pin_10)*%
X129000000Y-97860000D03*
%TO.P,J7,11,Pin_11*%
%TO.N,Net-(J2-Pin_11)*%
X129000000Y-100400000D03*
%TO.P,J7,12,Pin_12*%
%TO.N,Net-(J2-Pin_12)*%
X129000000Y-102940000D03*
%TO.P,J7,13,Pin_13*%
%TO.N,Net-(J2-Pin_13)*%
X129000000Y-105480000D03*
%TO.P,J7,14,Pin_14*%
%TO.N,Net-(J2-Pin_14)*%
X129000000Y-108020000D03*
%TD*%
D10*
%TO.P,H1,1*%
%TO.N,N/C*%
X85000000Y-60000000D03*
%TD*%
D11*
%TO.P,J5,1,Pin_1*%
%TO.N,Net-(J2-Pin_1)*%
X115780000Y-75000000D03*
D12*
%TO.P,J5,2,Pin_2*%
%TO.N,Net-(J2-Pin_2)*%
X115780000Y-77540000D03*
%TO.P,J5,3,Pin_3*%
%TO.N,Net-(J2-Pin_3)*%
X115780000Y-80080000D03*
%TO.P,J5,4,Pin_4*%
%TO.N,Net-(J2-Pin_4)*%
X115780000Y-82620000D03*
%TO.P,J5,5,Pin_5*%
%TO.N,Net-(J2-Pin_5)*%
X115780000Y-85160000D03*
%TO.P,J5,6,Pin_6*%
%TO.N,Net-(J2-Pin_6)*%
X115780000Y-87700000D03*
%TO.P,J5,7,Pin_7*%
%TO.N,Net-(J2-Pin_7)*%
X115780000Y-90240000D03*
%TO.P,J5,8,Pin_8*%
%TO.N,Net-(J2-Pin_8)*%
X115780000Y-92780000D03*
%TO.P,J5,9,Pin_9*%
%TO.N,Net-(J2-Pin_9)*%
X115780000Y-95320000D03*
%TO.P,J5,10,Pin_10*%
%TO.N,Net-(J2-Pin_10)*%
X115780000Y-97860000D03*
%TO.P,J5,11,Pin_11*%
%TO.N,Net-(J2-Pin_11)*%
X115780000Y-100400000D03*
%TO.P,J5,12,Pin_12*%
%TO.N,Net-(J2-Pin_12)*%
X115780000Y-102940000D03*
%TO.P,J5,13,Pin_13*%
%TO.N,Net-(J2-Pin_13)*%
X115780000Y-105480000D03*
%TO.P,J5,14,Pin_14*%
%TO.N,Net-(J2-Pin_14)*%
X115780000Y-108020000D03*
%TD*%
D10*
%TO.P,H2,1*%
%TO.N,N/C*%
X130302000Y-60000000D03*
%TD*%
D11*
%TO.P,J3,1,Pin_1*%
%TO.N,Net-(J1-Pin_1)*%
X152654000Y-46736000D03*
D12*
%TO.P,J3,2,Pin_2*%
X155194000Y-46736000D03*
%TO.P,J3,3,Pin_3*%
%TO.N,Net-(J1-Pin_2)*%
X152654000Y-49276000D03*
%TO.P,J3,4,Pin_4*%
X155194000Y-49276000D03*
%TO.P,J3,5,Pin_5*%
%TO.N,Net-(J1-Pin_3)*%
X152654000Y-51816000D03*
%TO.P,J3,6,Pin_6*%
X155194000Y-51816000D03*
%TO.P,J3,7,Pin_7*%
%TO.N,Net-(J1-Pin_4)*%
X152654000Y-54356000D03*
%TO.P,J3,8,Pin_8*%
X155194000Y-54356000D03*
%TO.P,J3,9,Pin_9*%
%TO.N,Net-(J1-Pin_5)*%
X152654000Y-56896000D03*
%TO.P,J3,10,Pin_10*%
X155194000Y-56896000D03*
%TO.P,J3,11,Pin_11*%
%TO.N,Net-(J1-Pin_6)*%
X152654000Y-59436000D03*
%TO.P,J3,12,Pin_12*%
X155194000Y-59436000D03*
%TO.P,J3,13,Pin_13*%
%TO.N,Net-(J1-Pin_7)*%
X152654000Y-61976000D03*
%TO.P,J3,14,Pin_14*%
X155194000Y-61976000D03*
%TO.P,J3,15,Pin_15*%
%TO.N,Net-(J1-Pin_8)*%
X152654000Y-64516000D03*
%TO.P,J3,16,Pin_16*%
X155194000Y-64516000D03*
%TO.P,J3,17,Pin_17*%
%TO.N,Net-(J1-Pin_9)*%
X152654000Y-67056000D03*
%TO.P,J3,18,Pin_18*%
X155194000Y-67056000D03*
%TO.P,J3,19,Pin_19*%
%TO.N,Net-(J1-Pin_10)*%
X152654000Y-69596000D03*
%TO.P,J3,20,Pin_20*%
X155194000Y-69596000D03*
%TO.P,J3,21,Pin_21*%
%TO.N,Net-(J1-Pin_11)*%
X152654000Y-72136000D03*
%TO.P,J3,22,Pin_22*%
X155194000Y-72136000D03*
%TO.P,J3,23,Pin_23*%
%TO.N,Net-(J1-Pin_12)*%
X152654000Y-74676000D03*
%TO.P,J3,24,Pin_24*%
X155194000Y-74676000D03*
%TO.P,J3,25,Pin_25*%
%TO.N,Net-(J1-Pin_13)*%
X152654000Y-77216000D03*
%TO.P,J3,26,Pin_26*%
X155194000Y-77216000D03*
%TO.P,J3,27,Pin_27*%
%TO.N,Net-(J1-Pin_14)*%
X152654000Y-79756000D03*
%TO.P,J3,28,Pin_28*%
X155194000Y-79756000D03*
%TO.P,J3,29,Pin_29*%
%TO.N,Net-(J2-Pin_14)*%
X152654000Y-82296000D03*
%TO.P,J3,30,Pin_30*%
X155194000Y-82296000D03*
%TO.P,J3,31,Pin_31*%
%TO.N,Net-(J2-Pin_13)*%
X152654000Y-84836000D03*
%TO.P,J3,32,Pin_32*%
X155194000Y-84836000D03*
%TO.P,J3,33,Pin_33*%
%TO.N,Net-(J2-Pin_12)*%
X152654000Y-87376000D03*
%TO.P,J3,34,Pin_34*%
X155194000Y-87376000D03*
%TO.P,J3,35,Pin_35*%
%TO.N,Net-(J2-Pin_11)*%
X152654000Y-89916000D03*
%TO.P,J3,36,Pin_36*%
X155194000Y-89916000D03*
%TO.P,J3,37,Pin_37*%
%TO.N,Net-(J2-Pin_10)*%
X152654000Y-92456000D03*
%TO.P,J3,38,Pin_38*%
X155194000Y-92456000D03*
%TO.P,J3,39,Pin_39*%
%TO.N,Net-(J2-Pin_9)*%
X152654000Y-94996000D03*
%TO.P,J3,40,Pin_40*%
X155194000Y-94996000D03*
%TO.P,J3,41,Pin_41*%
%TO.N,Net-(J2-Pin_8)*%
X152654000Y-97536000D03*
%TO.P,J3,42,Pin_42*%
X155194000Y-97536000D03*
%TO.P,J3,43,Pin_43*%
%TO.N,Net-(J2-Pin_7)*%
X152654000Y-100076000D03*
%TO.P,J3,44,Pin_44*%
X155194000Y-100076000D03*
%TO.P,J3,45,Pin_45*%
%TO.N,Net-(J2-Pin_6)*%
X152654000Y-102616000D03*
%TO.P,J3,46,Pin_46*%
X155194000Y-102616000D03*
%TO.P,J3,47,Pin_47*%
%TO.N,Net-(J2-Pin_5)*%
X152654000Y-105156000D03*
%TO.P,J3,48,Pin_48*%
X155194000Y-105156000D03*
%TO.P,J3,49,Pin_49*%
%TO.N,Net-(J2-Pin_4)*%
X152654000Y-107696000D03*
%TO.P,J3,50,Pin_50*%
X155194000Y-107696000D03*
%TO.P,J3,51,Pin_51*%
%TO.N,Net-(J2-Pin_3)*%
X152654000Y-110236000D03*
%TO.P,J3,52,Pin_52*%
X155194000Y-110236000D03*
%TO.P,J3,53,Pin_53*%
%TO.N,Net-(J2-Pin_2)*%
X152654000Y-112776000D03*
%TO.P,J3,54,Pin_54*%
X155194000Y-112776000D03*
%TO.P,J3,55,Pin_55*%
%TO.N,Net-(J2-Pin_1)*%
X152654000Y-115316000D03*
%TO.P,J3,56,Pin_56*%
X155194000Y-115316000D03*
%TD*%
D10*
%TO.P,H3,1*%
%TO.N,N/C*%
X85000000Y-118000000D03*
%TD*%
D11*
%TO.P,J4,1,Pin_1*%
%TO.N,Net-(J1-Pin_1)*%
X98000000Y-75000000D03*
D12*
%TO.P,J4,2,Pin_2*%
%TO.N,Net-(J1-Pin_2)*%
X98000000Y-77540000D03*
%TO.P,J4,3,Pin_3*%
%TO.N,Net-(J1-Pin_3)*%
X98000000Y-80080000D03*
%TO.P,J4,4,Pin_4*%
%TO.N,Net-(J1-Pin_4)*%
X98000000Y-82620000D03*
%TO.P,J4,5,Pin_5*%
%TO.N,Net-(J1-Pin_5)*%
X98000000Y-85160000D03*
%TO.P,J4,6,Pin_6*%
%TO.N,Net-(J1-Pin_6)*%
X98000000Y-87700000D03*
%TO.P,J4,7,Pin_7*%
%TO.N,Net-(J1-Pin_7)*%
X98000000Y-90240000D03*
%TO.P,J4,8,Pin_8*%
%TO.N,Net-(J1-Pin_8)*%
X98000000Y-92780000D03*
%TO.P,J4,9,Pin_9*%
%TO.N,Net-(J1-Pin_9)*%
X98000000Y-95320000D03*
%TO.P,J4,10,Pin_10*%
%TO.N,Net-(J1-Pin_10)*%
X98000000Y-97860000D03*
%TO.P,J4,11,Pin_11*%
%TO.N,Net-(J1-Pin_11)*%
X98000000Y-100400000D03*
%TO.P,J4,12,Pin_12*%
%TO.N,Net-(J1-Pin_12)*%
X98000000Y-102940000D03*
%TO.P,J4,13,Pin_13*%
%TO.N,Net-(J1-Pin_13)*%
X98000000Y-105480000D03*
%TO.P,J4,14,Pin_14*%
%TO.N,Net-(J1-Pin_14)*%
X98000000Y-108020000D03*
%TD*%
D11*
%TO.P,J1,1,Pin_1*%
%TO.N,Net-(J1-Pin_1)*%
X103080000Y-75000000D03*
D12*
%TO.P,J1,2,Pin_2*%
%TO.N,Net-(J1-Pin_2)*%
X103080000Y-77540000D03*
%TO.P,J1,3,Pin_3*%
%TO.N,Net-(J1-Pin_3)*%
X103080000Y-80080000D03*
%TO.P,J1,4,Pin_4*%
%TO.N,Net-(J1-Pin_4)*%
X103080000Y-82620000D03*
%TO.P,J1,5,Pin_5*%
%TO.N,Net-(J1-Pin_5)*%
X103080000Y-85160000D03*
%TO.P,J1,6,Pin_6*%
%TO.N,Net-(J1-Pin_6)*%
X103080000Y-87700000D03*
%TO.P,J1,7,Pin_7*%
%TO.N,Net-(J1-Pin_7)*%
X103080000Y-90240000D03*
%TO.P,J1,8,Pin_8*%
%TO.N,Net-(J1-Pin_8)*%
X103080000Y-92780000D03*
%TO.P,J1,9,Pin_9*%
%TO.N,Net-(J1-Pin_9)*%
X103080000Y-95320000D03*
%TO.P,J1,10,Pin_10*%
%TO.N,Net-(J1-Pin_10)*%
X103080000Y-97860000D03*
%TO.P,J1,11,Pin_11*%
%TO.N,Net-(J1-Pin_11)*%
X103080000Y-100400000D03*
%TO.P,J1,12,Pin_12*%
%TO.N,Net-(J1-Pin_12)*%
X103080000Y-102940000D03*
%TO.P,J1,13,Pin_13*%
%TO.N,Net-(J1-Pin_13)*%
X103080000Y-105480000D03*
%TO.P,J1,14,Pin_14*%
%TO.N,Net-(J1-Pin_14)*%
X103080000Y-108020000D03*
%TD*%
D11*
%TO.P,J6,1,Pin_1*%
%TO.N,Net-(J1-Pin_1)*%
X86000000Y-75000000D03*
D12*
%TO.P,J6,2,Pin_2*%
%TO.N,Net-(J1-Pin_2)*%
X86000000Y-77540000D03*
%TO.P,J6,3,Pin_3*%
%TO.N,Net-(J1-Pin_3)*%
X86000000Y-80080000D03*
%TO.P,J6,4,Pin_4*%
%TO.N,Net-(J1-Pin_4)*%
X86000000Y-82620000D03*
%TO.P,J6,5,Pin_5*%
%TO.N,Net-(J1-Pin_5)*%
X86000000Y-85160000D03*
%TO.P,J6,6,Pin_6*%
%TO.N,Net-(J1-Pin_6)*%
X86000000Y-87700000D03*
%TO.P,J6,7,Pin_7*%
%TO.N,Net-(J1-Pin_7)*%
X86000000Y-90240000D03*
%TO.P,J6,8,Pin_8*%
%TO.N,Net-(J1-Pin_8)*%
X86000000Y-92780000D03*
%TO.P,J6,9,Pin_9*%
%TO.N,Net-(J1-Pin_9)*%
X86000000Y-95320000D03*
%TO.P,J6,10,Pin_10*%
%TO.N,Net-(J1-Pin_10)*%
X86000000Y-97860000D03*
%TO.P,J6,11,Pin_11*%
%TO.N,Net-(J1-Pin_11)*%
X86000000Y-100400000D03*
%TO.P,J6,12,Pin_12*%
%TO.N,Net-(J1-Pin_12)*%
X86000000Y-102940000D03*
%TO.P,J6,13,Pin_13*%
%TO.N,Net-(J1-Pin_13)*%
X86000000Y-105480000D03*
%TO.P,J6,14,Pin_14*%
%TO.N,Net-(J1-Pin_14)*%
X86000000Y-108020000D03*
%TD*%
D13*
%TO.N,Net-(J1-Pin_14)*%
X86000000Y-108020000D02*
X103080000Y-108020000D01*
%TO.N,Net-(J1-Pin_13)*%
X86000000Y-105480000D02*
X103080000Y-105480000D01*
%TO.N,Net-(J1-Pin_12)*%
X86000000Y-102940000D02*
X103080000Y-102940000D01*
%TO.N,Net-(J1-Pin_11)*%
X86000000Y-100400000D02*
X103080000Y-100400000D01*
%TO.N,Net-(J1-Pin_10)*%
X86000000Y-97860000D02*
X103080000Y-97860000D01*
%TO.N,Net-(J1-Pin_9)*%
X86000000Y-95320000D02*
X103080000Y-95320000D01*
%TO.N,Net-(J1-Pin_8)*%
X86000000Y-92780000D02*
X103080000Y-92780000D01*
%TO.N,Net-(J1-Pin_7)*%
X86000000Y-90240000D02*
X103080000Y-90240000D01*
%TO.N,Net-(J1-Pin_6)*%
X86000000Y-87700000D02*
X103080000Y-87700000D01*
%TO.N,Net-(J1-Pin_5)*%
X86000000Y-85160000D02*
X103080000Y-85160000D01*
%TO.N,Net-(J1-Pin_4)*%
X86000000Y-82620000D02*
X103080000Y-82620000D01*
%TO.N,Net-(J1-Pin_3)*%
X86000000Y-80080000D02*
X103080000Y-80080000D01*
%TO.N,Net-(J1-Pin_2)*%
X86000000Y-77540000D02*
X103080000Y-77540000D01*
%TO.N,Net-(J1-Pin_1)*%
X86000000Y-75000000D02*
X103080000Y-75000000D01*
%TO.N,Net-(J2-Pin_1)*%
X110700000Y-75000000D02*
X129000000Y-75000000D01*
%TO.N,Net-(J2-Pin_2)*%
X110700000Y-77540000D02*
X129000000Y-77540000D01*
%TO.N,Net-(J2-Pin_3)*%
X110700000Y-80080000D02*
X129000000Y-80080000D01*
%TO.N,Net-(J2-Pin_4)*%
X110700000Y-82620000D02*
X129000000Y-82620000D01*
%TO.N,Net-(J2-Pin_5)*%
X110700000Y-85160000D02*
X129000000Y-85160000D01*
%TO.N,Net-(J2-Pin_6)*%
X110700000Y-87700000D02*
X129000000Y-87700000D01*
%TO.N,Net-(J2-Pin_7)*%
X110700000Y-90240000D02*
X129000000Y-90240000D01*
%TO.N,Net-(J2-Pin_8)*%
X110700000Y-92780000D02*
X129000000Y-92780000D01*
%TO.N,Net-(J2-Pin_9)*%
X110700000Y-95320000D02*
X129000000Y-95320000D01*
%TO.N,Net-(J2-Pin_10)*%
X110700000Y-97860000D02*
X129000000Y-97860000D01*
%TO.N,Net-(J2-Pin_11)*%
X110700000Y-100400000D02*
X129000000Y-100400000D01*
%TO.N,Net-(J2-Pin_12)*%
X110700000Y-102940000D02*
X129000000Y-102940000D01*
%TO.N,Net-(J2-Pin_13)*%
X110700000Y-105480000D02*
X129000000Y-105480000D01*
%TO.N,Net-(J2-Pin_14)*%
X115780000Y-108020000D02*
X129000000Y-108020000D01*
X110700000Y-108020000D02*
X115780000Y-108020000D01*
%TD*%
M02*
