%TF.GenerationSoftware,KiCad,Pcbnew,9.0.5-9.0.5~ubuntu24.04.1*%
%TF.CreationDate,2025-10-25T11:33:57+09:00*%
%TF.ProjectId,SOP28_Test,534f5032-385f-4546-9573-742e6b696361,rev?*%
%TF.SameCoordinates,Original*%
%TF.FileFunction,AssemblyDrawing,Top*%
%FSLAX46Y46*%
G04 Gerber Fmt 4.6, Leading zero omitted, Abs format (unit mm)*
G04 Created by KiCad (PCBNEW 9.0.5-9.0.5~ubuntu24.04.1) date 2025-10-25 11:33:57*
%MOMM*%
%LPD*%
G01*
G04 APERTURE LIST*
%ADD10C,0.150000*%
%ADD11C,0.100000*%
G04 APERTURE END LIST*
D10*
X139238095Y-118454819D02*
X139238095Y-117454819D01*
X139238095Y-117931009D02*
X139809523Y-117931009D01*
X139809523Y-118454819D02*
X139809523Y-117454819D01*
X140714285Y-117788152D02*
X140714285Y-118454819D01*
X140476190Y-117407200D02*
X140238095Y-118121485D01*
X140238095Y-118121485D02*
X140857142Y-118121485D01*
X110154819Y-91843333D02*
X110869104Y-91843333D01*
X110869104Y-91843333D02*
X111011961Y-91890952D01*
X111011961Y-91890952D02*
X111107200Y-91986190D01*
X111107200Y-91986190D02*
X111154819Y-92129047D01*
X111154819Y-92129047D02*
X111154819Y-92224285D01*
X110250057Y-91414761D02*
X110202438Y-91367142D01*
X110202438Y-91367142D02*
X110154819Y-91271904D01*
X110154819Y-91271904D02*
X110154819Y-91033809D01*
X110154819Y-91033809D02*
X110202438Y-90938571D01*
X110202438Y-90938571D02*
X110250057Y-90890952D01*
X110250057Y-90890952D02*
X110345295Y-90843333D01*
X110345295Y-90843333D02*
X110440533Y-90843333D01*
X110440533Y-90843333D02*
X110583390Y-90890952D01*
X110583390Y-90890952D02*
X111154819Y-91462380D01*
X111154819Y-91462380D02*
X111154819Y-90843333D01*
X128454819Y-91843333D02*
X129169104Y-91843333D01*
X129169104Y-91843333D02*
X129311961Y-91890952D01*
X129311961Y-91890952D02*
X129407200Y-91986190D01*
X129407200Y-91986190D02*
X129454819Y-92129047D01*
X129454819Y-92129047D02*
X129454819Y-92224285D01*
X128454819Y-91462380D02*
X128454819Y-90795714D01*
X128454819Y-90795714D02*
X129454819Y-91224285D01*
X84238095Y-60454819D02*
X84238095Y-59454819D01*
X84238095Y-59931009D02*
X84809523Y-59931009D01*
X84809523Y-60454819D02*
X84809523Y-59454819D01*
X85809523Y-60454819D02*
X85238095Y-60454819D01*
X85523809Y-60454819D02*
X85523809Y-59454819D01*
X85523809Y-59454819D02*
X85428571Y-59597676D01*
X85428571Y-59597676D02*
X85333333Y-59692914D01*
X85333333Y-59692914D02*
X85238095Y-59740533D01*
X115234819Y-91843333D02*
X115949104Y-91843333D01*
X115949104Y-91843333D02*
X116091961Y-91890952D01*
X116091961Y-91890952D02*
X116187200Y-91986190D01*
X116187200Y-91986190D02*
X116234819Y-92129047D01*
X116234819Y-92129047D02*
X116234819Y-92224285D01*
X115234819Y-90890952D02*
X115234819Y-91367142D01*
X115234819Y-91367142D02*
X115711009Y-91414761D01*
X115711009Y-91414761D02*
X115663390Y-91367142D01*
X115663390Y-91367142D02*
X115615771Y-91271904D01*
X115615771Y-91271904D02*
X115615771Y-91033809D01*
X115615771Y-91033809D02*
X115663390Y-90938571D01*
X115663390Y-90938571D02*
X115711009Y-90890952D01*
X115711009Y-90890952D02*
X115806247Y-90843333D01*
X115806247Y-90843333D02*
X116044342Y-90843333D01*
X116044342Y-90843333D02*
X116139580Y-90890952D01*
X116139580Y-90890952D02*
X116187200Y-90938571D01*
X116187200Y-90938571D02*
X116234819Y-91033809D01*
X116234819Y-91033809D02*
X116234819Y-91271904D01*
X116234819Y-91271904D02*
X116187200Y-91367142D01*
X116187200Y-91367142D02*
X116139580Y-91414761D01*
X129540095Y-60454819D02*
X129540095Y-59454819D01*
X129540095Y-59931009D02*
X130111523Y-59931009D01*
X130111523Y-60454819D02*
X130111523Y-59454819D01*
X130540095Y-59550057D02*
X130587714Y-59502438D01*
X130587714Y-59502438D02*
X130682952Y-59454819D01*
X130682952Y-59454819D02*
X130921047Y-59454819D01*
X130921047Y-59454819D02*
X131016285Y-59502438D01*
X131016285Y-59502438D02*
X131063904Y-59550057D01*
X131063904Y-59550057D02*
X131111523Y-59645295D01*
X131111523Y-59645295D02*
X131111523Y-59740533D01*
X131111523Y-59740533D02*
X131063904Y-59883390D01*
X131063904Y-59883390D02*
X130492476Y-60454819D01*
X130492476Y-60454819D02*
X131111523Y-60454819D01*
X84238095Y-118454819D02*
X84238095Y-117454819D01*
X84238095Y-117931009D02*
X84809523Y-117931009D01*
X84809523Y-118454819D02*
X84809523Y-117454819D01*
X85190476Y-117454819D02*
X85809523Y-117454819D01*
X85809523Y-117454819D02*
X85476190Y-117835771D01*
X85476190Y-117835771D02*
X85619047Y-117835771D01*
X85619047Y-117835771D02*
X85714285Y-117883390D01*
X85714285Y-117883390D02*
X85761904Y-117931009D01*
X85761904Y-117931009D02*
X85809523Y-118026247D01*
X85809523Y-118026247D02*
X85809523Y-118264342D01*
X85809523Y-118264342D02*
X85761904Y-118359580D01*
X85761904Y-118359580D02*
X85714285Y-118407200D01*
X85714285Y-118407200D02*
X85619047Y-118454819D01*
X85619047Y-118454819D02*
X85333333Y-118454819D01*
X85333333Y-118454819D02*
X85238095Y-118407200D01*
X85238095Y-118407200D02*
X85190476Y-118359580D01*
X97454819Y-91843333D02*
X98169104Y-91843333D01*
X98169104Y-91843333D02*
X98311961Y-91890952D01*
X98311961Y-91890952D02*
X98407200Y-91986190D01*
X98407200Y-91986190D02*
X98454819Y-92129047D01*
X98454819Y-92129047D02*
X98454819Y-92224285D01*
X97788152Y-90938571D02*
X98454819Y-90938571D01*
X97407200Y-91176666D02*
X98121485Y-91414761D01*
X98121485Y-91414761D02*
X98121485Y-90795714D01*
X102534819Y-91843333D02*
X103249104Y-91843333D01*
X103249104Y-91843333D02*
X103391961Y-91890952D01*
X103391961Y-91890952D02*
X103487200Y-91986190D01*
X103487200Y-91986190D02*
X103534819Y-92129047D01*
X103534819Y-92129047D02*
X103534819Y-92224285D01*
X103534819Y-90843333D02*
X103534819Y-91414761D01*
X103534819Y-91129047D02*
X102534819Y-91129047D01*
X102534819Y-91129047D02*
X102677676Y-91224285D01*
X102677676Y-91224285D02*
X102772914Y-91319523D01*
X102772914Y-91319523D02*
X102820533Y-91414761D01*
X85454819Y-91843333D02*
X86169104Y-91843333D01*
X86169104Y-91843333D02*
X86311961Y-91890952D01*
X86311961Y-91890952D02*
X86407200Y-91986190D01*
X86407200Y-91986190D02*
X86454819Y-92129047D01*
X86454819Y-92129047D02*
X86454819Y-92224285D01*
X85454819Y-90938571D02*
X85454819Y-91129047D01*
X85454819Y-91129047D02*
X85502438Y-91224285D01*
X85502438Y-91224285D02*
X85550057Y-91271904D01*
X85550057Y-91271904D02*
X85692914Y-91367142D01*
X85692914Y-91367142D02*
X85883390Y-91414761D01*
X85883390Y-91414761D02*
X86264342Y-91414761D01*
X86264342Y-91414761D02*
X86359580Y-91367142D01*
X86359580Y-91367142D02*
X86407200Y-91319523D01*
X86407200Y-91319523D02*
X86454819Y-91224285D01*
X86454819Y-91224285D02*
X86454819Y-91033809D01*
X86454819Y-91033809D02*
X86407200Y-90938571D01*
X86407200Y-90938571D02*
X86359580Y-90890952D01*
X86359580Y-90890952D02*
X86264342Y-90843333D01*
X86264342Y-90843333D02*
X86026247Y-90843333D01*
X86026247Y-90843333D02*
X85931009Y-90890952D01*
X85931009Y-90890952D02*
X85883390Y-90938571D01*
X85883390Y-90938571D02*
X85835771Y-91033809D01*
X85835771Y-91033809D02*
X85835771Y-91224285D01*
X85835771Y-91224285D02*
X85883390Y-91319523D01*
X85883390Y-91319523D02*
X85931009Y-91367142D01*
X85931009Y-91367142D02*
X86026247Y-91414761D01*
D11*
%TO.C,J2*%
X109430000Y-74365000D02*
X110065000Y-73730000D01*
X109430000Y-109290000D02*
X109430000Y-74365000D01*
X110065000Y-73730000D02*
X111970000Y-73730000D01*
X111970000Y-73730000D02*
X111970000Y-109290000D01*
X111970000Y-109290000D02*
X109430000Y-109290000D01*
%TO.C,J7*%
X127730000Y-74365000D02*
X128365000Y-73730000D01*
X127730000Y-109290000D02*
X127730000Y-74365000D01*
X128365000Y-73730000D02*
X130270000Y-73730000D01*
X130270000Y-73730000D02*
X130270000Y-109290000D01*
X130270000Y-109290000D02*
X127730000Y-109290000D01*
%TO.C,J5*%
X114510000Y-74365000D02*
X115145000Y-73730000D01*
X114510000Y-109290000D02*
X114510000Y-74365000D01*
X115145000Y-73730000D02*
X117050000Y-73730000D01*
X117050000Y-73730000D02*
X117050000Y-109290000D01*
X117050000Y-109290000D02*
X114510000Y-109290000D01*
%TO.C,J3*%
X151384000Y-46736000D02*
X152654000Y-45466000D01*
X151384000Y-116586000D02*
X151384000Y-46736000D01*
X152654000Y-45466000D02*
X156464000Y-45466000D01*
X156464000Y-45466000D02*
X156464000Y-116586000D01*
X156464000Y-116586000D02*
X151384000Y-116586000D01*
%TO.C,J4*%
X96730000Y-74365000D02*
X97365000Y-73730000D01*
X96730000Y-109290000D02*
X96730000Y-74365000D01*
X97365000Y-73730000D02*
X99270000Y-73730000D01*
X99270000Y-73730000D02*
X99270000Y-109290000D01*
X99270000Y-109290000D02*
X96730000Y-109290000D01*
%TO.C,J1*%
X101810000Y-74365000D02*
X102445000Y-73730000D01*
X101810000Y-109290000D02*
X101810000Y-74365000D01*
X102445000Y-73730000D02*
X104350000Y-73730000D01*
X104350000Y-73730000D02*
X104350000Y-109290000D01*
X104350000Y-109290000D02*
X101810000Y-109290000D01*
%TO.C,J6*%
X84730000Y-74365000D02*
X85365000Y-73730000D01*
X84730000Y-109290000D02*
X84730000Y-74365000D01*
X85365000Y-73730000D02*
X87270000Y-73730000D01*
X87270000Y-73730000D02*
X87270000Y-109290000D01*
X87270000Y-109290000D02*
X84730000Y-109290000D01*
%TD*%
M02*
