%TF.GenerationSoftware,KiCad,Pcbnew,9.0.1-9.0.1-0~ubuntu24.04.1*%
%TF.CreationDate,2025-04-22T11:37:29+09:00*%
%TF.ProjectId,Scoppy_FrontEnd,53636f70-7079-45f4-9672-6f6e74456e64,rev?*%
%TF.SameCoordinates,Original*%
%TF.FileFunction,Legend,Top*%
%TF.FilePolarity,Positive*%
%FSLAX46Y46*%
G04 Gerber Fmt 4.6, Leading zero omitted, Abs format (unit mm)*
G04 Created by KiCad (PCBNEW 9.0.1-9.0.1-0~ubuntu24.04.1) date 2025-04-22 11:37:29*
%MOMM*%
%LPD*%
G01*
G04 APERTURE LIST*
%ADD10C,0.200000*%
%ADD11C,0.100000*%
%ADD12C,0.150000*%
%ADD13C,0.120000*%
G04 APERTURE END LIST*
D10*
X228065000Y-121000000D02*
X232565000Y-121000000D01*
X232565000Y-127000000D01*
X228065000Y-127000000D01*
X228065000Y-121000000D01*
X225065000Y-135000000D02*
X229065000Y-135000000D01*
X229065000Y-139750000D01*
X225065000Y-139750000D01*
X225065000Y-135000000D01*
D11*
X174690000Y-128306000D02*
X175260000Y-128306000D01*
X175260000Y-150876000D01*
X174690000Y-150876000D01*
X174690000Y-128306000D01*
G36*
X174690000Y-128306000D02*
G01*
X175260000Y-128306000D01*
X175260000Y-150876000D01*
X174690000Y-150876000D01*
X174690000Y-128306000D01*
G37*
X172323500Y-90805000D02*
X174894500Y-90805000D01*
X174894500Y-98171000D01*
X172323500Y-98171000D01*
X172323500Y-90805000D01*
G36*
X172323500Y-90805000D02*
G01*
X174894500Y-90805000D01*
X174894500Y-98171000D01*
X172323500Y-98171000D01*
X172323500Y-90805000D01*
G37*
D10*
X228065000Y-100000000D02*
X232565000Y-100000000D01*
X232565000Y-106000000D01*
X228065000Y-106000000D01*
X228065000Y-100000000D01*
X173863143Y-151654957D02*
X173720286Y-151583528D01*
X173720286Y-151583528D02*
X173506000Y-151583528D01*
X173506000Y-151583528D02*
X173291714Y-151654957D01*
X173291714Y-151654957D02*
X173148857Y-151797814D01*
X173148857Y-151797814D02*
X173077428Y-151940671D01*
X173077428Y-151940671D02*
X173006000Y-152226385D01*
X173006000Y-152226385D02*
X173006000Y-152440671D01*
X173006000Y-152440671D02*
X173077428Y-152726385D01*
X173077428Y-152726385D02*
X173148857Y-152869242D01*
X173148857Y-152869242D02*
X173291714Y-153012100D01*
X173291714Y-153012100D02*
X173506000Y-153083528D01*
X173506000Y-153083528D02*
X173648857Y-153083528D01*
X173648857Y-153083528D02*
X173863143Y-153012100D01*
X173863143Y-153012100D02*
X173934571Y-152940671D01*
X173934571Y-152940671D02*
X173934571Y-152440671D01*
X173934571Y-152440671D02*
X173648857Y-152440671D01*
X174577428Y-153083528D02*
X174577428Y-151583528D01*
X174577428Y-151583528D02*
X175434571Y-153083528D01*
X175434571Y-153083528D02*
X175434571Y-151583528D01*
X176148857Y-153083528D02*
X176148857Y-151583528D01*
X176148857Y-151583528D02*
X176506000Y-151583528D01*
X176506000Y-151583528D02*
X176720286Y-151654957D01*
X176720286Y-151654957D02*
X176863143Y-151797814D01*
X176863143Y-151797814D02*
X176934572Y-151940671D01*
X176934572Y-151940671D02*
X177006000Y-152226385D01*
X177006000Y-152226385D02*
X177006000Y-152440671D01*
X177006000Y-152440671D02*
X176934572Y-152726385D01*
X176934572Y-152726385D02*
X176863143Y-152869242D01*
X176863143Y-152869242D02*
X176720286Y-153012100D01*
X176720286Y-153012100D02*
X176506000Y-153083528D01*
X176506000Y-153083528D02*
X176148857Y-153083528D01*
X204732292Y-91484600D02*
X204946578Y-91556028D01*
X204946578Y-91556028D02*
X205303720Y-91556028D01*
X205303720Y-91556028D02*
X205446578Y-91484600D01*
X205446578Y-91484600D02*
X205518006Y-91413171D01*
X205518006Y-91413171D02*
X205589435Y-91270314D01*
X205589435Y-91270314D02*
X205589435Y-91127457D01*
X205589435Y-91127457D02*
X205518006Y-90984600D01*
X205518006Y-90984600D02*
X205446578Y-90913171D01*
X205446578Y-90913171D02*
X205303720Y-90841742D01*
X205303720Y-90841742D02*
X205018006Y-90770314D01*
X205018006Y-90770314D02*
X204875149Y-90698885D01*
X204875149Y-90698885D02*
X204803720Y-90627457D01*
X204803720Y-90627457D02*
X204732292Y-90484600D01*
X204732292Y-90484600D02*
X204732292Y-90341742D01*
X204732292Y-90341742D02*
X204803720Y-90198885D01*
X204803720Y-90198885D02*
X204875149Y-90127457D01*
X204875149Y-90127457D02*
X205018006Y-90056028D01*
X205018006Y-90056028D02*
X205375149Y-90056028D01*
X205375149Y-90056028D02*
X205589435Y-90127457D01*
X206875149Y-91484600D02*
X206732291Y-91556028D01*
X206732291Y-91556028D02*
X206446577Y-91556028D01*
X206446577Y-91556028D02*
X206303720Y-91484600D01*
X206303720Y-91484600D02*
X206232291Y-91413171D01*
X206232291Y-91413171D02*
X206160863Y-91270314D01*
X206160863Y-91270314D02*
X206160863Y-90841742D01*
X206160863Y-90841742D02*
X206232291Y-90698885D01*
X206232291Y-90698885D02*
X206303720Y-90627457D01*
X206303720Y-90627457D02*
X206446577Y-90556028D01*
X206446577Y-90556028D02*
X206732291Y-90556028D01*
X206732291Y-90556028D02*
X206875149Y-90627457D01*
X207732291Y-91556028D02*
X207589434Y-91484600D01*
X207589434Y-91484600D02*
X207518005Y-91413171D01*
X207518005Y-91413171D02*
X207446577Y-91270314D01*
X207446577Y-91270314D02*
X207446577Y-90841742D01*
X207446577Y-90841742D02*
X207518005Y-90698885D01*
X207518005Y-90698885D02*
X207589434Y-90627457D01*
X207589434Y-90627457D02*
X207732291Y-90556028D01*
X207732291Y-90556028D02*
X207946577Y-90556028D01*
X207946577Y-90556028D02*
X208089434Y-90627457D01*
X208089434Y-90627457D02*
X208160863Y-90698885D01*
X208160863Y-90698885D02*
X208232291Y-90841742D01*
X208232291Y-90841742D02*
X208232291Y-91270314D01*
X208232291Y-91270314D02*
X208160863Y-91413171D01*
X208160863Y-91413171D02*
X208089434Y-91484600D01*
X208089434Y-91484600D02*
X207946577Y-91556028D01*
X207946577Y-91556028D02*
X207732291Y-91556028D01*
X208875148Y-90556028D02*
X208875148Y-92056028D01*
X208875148Y-90627457D02*
X209018006Y-90556028D01*
X209018006Y-90556028D02*
X209303720Y-90556028D01*
X209303720Y-90556028D02*
X209446577Y-90627457D01*
X209446577Y-90627457D02*
X209518006Y-90698885D01*
X209518006Y-90698885D02*
X209589434Y-90841742D01*
X209589434Y-90841742D02*
X209589434Y-91270314D01*
X209589434Y-91270314D02*
X209518006Y-91413171D01*
X209518006Y-91413171D02*
X209446577Y-91484600D01*
X209446577Y-91484600D02*
X209303720Y-91556028D01*
X209303720Y-91556028D02*
X209018006Y-91556028D01*
X209018006Y-91556028D02*
X208875148Y-91484600D01*
X210232291Y-90556028D02*
X210232291Y-92056028D01*
X210232291Y-90627457D02*
X210375149Y-90556028D01*
X210375149Y-90556028D02*
X210660863Y-90556028D01*
X210660863Y-90556028D02*
X210803720Y-90627457D01*
X210803720Y-90627457D02*
X210875149Y-90698885D01*
X210875149Y-90698885D02*
X210946577Y-90841742D01*
X210946577Y-90841742D02*
X210946577Y-91270314D01*
X210946577Y-91270314D02*
X210875149Y-91413171D01*
X210875149Y-91413171D02*
X210803720Y-91484600D01*
X210803720Y-91484600D02*
X210660863Y-91556028D01*
X210660863Y-91556028D02*
X210375149Y-91556028D01*
X210375149Y-91556028D02*
X210232291Y-91484600D01*
X211446577Y-90556028D02*
X211803720Y-91556028D01*
X212160863Y-90556028D02*
X211803720Y-91556028D01*
X211803720Y-91556028D02*
X211660863Y-91913171D01*
X211660863Y-91913171D02*
X211589434Y-91984600D01*
X211589434Y-91984600D02*
X211446577Y-92056028D01*
X214375148Y-90770314D02*
X213875148Y-90770314D01*
X213875148Y-91556028D02*
X213875148Y-90056028D01*
X213875148Y-90056028D02*
X214589434Y-90056028D01*
X215160862Y-91556028D02*
X215160862Y-90556028D01*
X215160862Y-90841742D02*
X215232291Y-90698885D01*
X215232291Y-90698885D02*
X215303720Y-90627457D01*
X215303720Y-90627457D02*
X215446577Y-90556028D01*
X215446577Y-90556028D02*
X215589434Y-90556028D01*
X216303719Y-91556028D02*
X216160862Y-91484600D01*
X216160862Y-91484600D02*
X216089433Y-91413171D01*
X216089433Y-91413171D02*
X216018005Y-91270314D01*
X216018005Y-91270314D02*
X216018005Y-90841742D01*
X216018005Y-90841742D02*
X216089433Y-90698885D01*
X216089433Y-90698885D02*
X216160862Y-90627457D01*
X216160862Y-90627457D02*
X216303719Y-90556028D01*
X216303719Y-90556028D02*
X216518005Y-90556028D01*
X216518005Y-90556028D02*
X216660862Y-90627457D01*
X216660862Y-90627457D02*
X216732291Y-90698885D01*
X216732291Y-90698885D02*
X216803719Y-90841742D01*
X216803719Y-90841742D02*
X216803719Y-91270314D01*
X216803719Y-91270314D02*
X216732291Y-91413171D01*
X216732291Y-91413171D02*
X216660862Y-91484600D01*
X216660862Y-91484600D02*
X216518005Y-91556028D01*
X216518005Y-91556028D02*
X216303719Y-91556028D01*
X217446576Y-90556028D02*
X217446576Y-91556028D01*
X217446576Y-90698885D02*
X217518005Y-90627457D01*
X217518005Y-90627457D02*
X217660862Y-90556028D01*
X217660862Y-90556028D02*
X217875148Y-90556028D01*
X217875148Y-90556028D02*
X218018005Y-90627457D01*
X218018005Y-90627457D02*
X218089434Y-90770314D01*
X218089434Y-90770314D02*
X218089434Y-91556028D01*
X218589434Y-90556028D02*
X219160862Y-90556028D01*
X218803719Y-90056028D02*
X218803719Y-91341742D01*
X218803719Y-91341742D02*
X218875148Y-91484600D01*
X218875148Y-91484600D02*
X219018005Y-91556028D01*
X219018005Y-91556028D02*
X219160862Y-91556028D01*
X219660862Y-90984600D02*
X220803720Y-90984600D01*
X221518005Y-90770314D02*
X222018005Y-90770314D01*
X222232291Y-91556028D02*
X221518005Y-91556028D01*
X221518005Y-91556028D02*
X221518005Y-90056028D01*
X221518005Y-90056028D02*
X222232291Y-90056028D01*
X222875148Y-90556028D02*
X222875148Y-91556028D01*
X222875148Y-90698885D02*
X222946577Y-90627457D01*
X222946577Y-90627457D02*
X223089434Y-90556028D01*
X223089434Y-90556028D02*
X223303720Y-90556028D01*
X223303720Y-90556028D02*
X223446577Y-90627457D01*
X223446577Y-90627457D02*
X223518006Y-90770314D01*
X223518006Y-90770314D02*
X223518006Y-91556028D01*
X224875149Y-91556028D02*
X224875149Y-90056028D01*
X224875149Y-91484600D02*
X224732291Y-91556028D01*
X224732291Y-91556028D02*
X224446577Y-91556028D01*
X224446577Y-91556028D02*
X224303720Y-91484600D01*
X224303720Y-91484600D02*
X224232291Y-91413171D01*
X224232291Y-91413171D02*
X224160863Y-91270314D01*
X224160863Y-91270314D02*
X224160863Y-90841742D01*
X224160863Y-90841742D02*
X224232291Y-90698885D01*
X224232291Y-90698885D02*
X224303720Y-90627457D01*
X224303720Y-90627457D02*
X224446577Y-90556028D01*
X224446577Y-90556028D02*
X224732291Y-90556028D01*
X224732291Y-90556028D02*
X224875149Y-90627457D01*
X169438435Y-95641219D02*
X170057482Y-95641219D01*
X170057482Y-95641219D02*
X169724149Y-96022171D01*
X169724149Y-96022171D02*
X169867006Y-96022171D01*
X169867006Y-96022171D02*
X169962244Y-96069790D01*
X169962244Y-96069790D02*
X170009863Y-96117409D01*
X170009863Y-96117409D02*
X170057482Y-96212647D01*
X170057482Y-96212647D02*
X170057482Y-96450742D01*
X170057482Y-96450742D02*
X170009863Y-96545980D01*
X170009863Y-96545980D02*
X169962244Y-96593600D01*
X169962244Y-96593600D02*
X169867006Y-96641219D01*
X169867006Y-96641219D02*
X169581292Y-96641219D01*
X169581292Y-96641219D02*
X169486054Y-96593600D01*
X169486054Y-96593600D02*
X169438435Y-96545980D01*
X170343197Y-95641219D02*
X170676530Y-96641219D01*
X170676530Y-96641219D02*
X171009863Y-95641219D01*
X171247959Y-95641219D02*
X171867006Y-95641219D01*
X171867006Y-95641219D02*
X171533673Y-96022171D01*
X171533673Y-96022171D02*
X171676530Y-96022171D01*
X171676530Y-96022171D02*
X171771768Y-96069790D01*
X171771768Y-96069790D02*
X171819387Y-96117409D01*
X171819387Y-96117409D02*
X171867006Y-96212647D01*
X171867006Y-96212647D02*
X171867006Y-96450742D01*
X171867006Y-96450742D02*
X171819387Y-96545980D01*
X171819387Y-96545980D02*
X171771768Y-96593600D01*
X171771768Y-96593600D02*
X171676530Y-96641219D01*
X171676530Y-96641219D02*
X171390816Y-96641219D01*
X171390816Y-96641219D02*
X171295578Y-96593600D01*
X171295578Y-96593600D02*
X171247959Y-96545980D01*
X169501863Y-92085219D02*
X169025673Y-92085219D01*
X169025673Y-92085219D02*
X168978054Y-92561409D01*
X168978054Y-92561409D02*
X169025673Y-92513790D01*
X169025673Y-92513790D02*
X169120911Y-92466171D01*
X169120911Y-92466171D02*
X169359006Y-92466171D01*
X169359006Y-92466171D02*
X169454244Y-92513790D01*
X169454244Y-92513790D02*
X169501863Y-92561409D01*
X169501863Y-92561409D02*
X169549482Y-92656647D01*
X169549482Y-92656647D02*
X169549482Y-92894742D01*
X169549482Y-92894742D02*
X169501863Y-92989980D01*
X169501863Y-92989980D02*
X169454244Y-93037600D01*
X169454244Y-93037600D02*
X169359006Y-93085219D01*
X169359006Y-93085219D02*
X169120911Y-93085219D01*
X169120911Y-93085219D02*
X169025673Y-93037600D01*
X169025673Y-93037600D02*
X168978054Y-92989980D01*
X169835197Y-92085219D02*
X170168530Y-93085219D01*
X170168530Y-93085219D02*
X170501863Y-92085219D01*
X171025673Y-92085219D02*
X171120911Y-92085219D01*
X171120911Y-92085219D02*
X171216149Y-92132838D01*
X171216149Y-92132838D02*
X171263768Y-92180457D01*
X171263768Y-92180457D02*
X171311387Y-92275695D01*
X171311387Y-92275695D02*
X171359006Y-92466171D01*
X171359006Y-92466171D02*
X171359006Y-92704266D01*
X171359006Y-92704266D02*
X171311387Y-92894742D01*
X171311387Y-92894742D02*
X171263768Y-92989980D01*
X171263768Y-92989980D02*
X171216149Y-93037600D01*
X171216149Y-93037600D02*
X171120911Y-93085219D01*
X171120911Y-93085219D02*
X171025673Y-93085219D01*
X171025673Y-93085219D02*
X170930435Y-93037600D01*
X170930435Y-93037600D02*
X170882816Y-92989980D01*
X170882816Y-92989980D02*
X170835197Y-92894742D01*
X170835197Y-92894742D02*
X170787578Y-92704266D01*
X170787578Y-92704266D02*
X170787578Y-92466171D01*
X170787578Y-92466171D02*
X170835197Y-92275695D01*
X170835197Y-92275695D02*
X170882816Y-92180457D01*
X170882816Y-92180457D02*
X170930435Y-92132838D01*
X170930435Y-92132838D02*
X171025673Y-92085219D01*
X167219428Y-131367069D02*
X167148000Y-131442308D01*
X167148000Y-131442308D02*
X166933714Y-131517546D01*
X166933714Y-131517546D02*
X166790857Y-131517546D01*
X166790857Y-131517546D02*
X166576571Y-131442308D01*
X166576571Y-131442308D02*
X166433714Y-131291831D01*
X166433714Y-131291831D02*
X166362285Y-131141355D01*
X166362285Y-131141355D02*
X166290857Y-130840403D01*
X166290857Y-130840403D02*
X166290857Y-130614688D01*
X166290857Y-130614688D02*
X166362285Y-130313736D01*
X166362285Y-130313736D02*
X166433714Y-130163260D01*
X166433714Y-130163260D02*
X166576571Y-130012784D01*
X166576571Y-130012784D02*
X166790857Y-129937546D01*
X166790857Y-129937546D02*
X166933714Y-129937546D01*
X166933714Y-129937546D02*
X167148000Y-130012784D01*
X167148000Y-130012784D02*
X167219428Y-130088022D01*
X167862285Y-131517546D02*
X167862285Y-129937546D01*
X168505143Y-131517546D02*
X168505143Y-130689927D01*
X168505143Y-130689927D02*
X168433714Y-130539450D01*
X168433714Y-130539450D02*
X168290857Y-130464212D01*
X168290857Y-130464212D02*
X168076571Y-130464212D01*
X168076571Y-130464212D02*
X167933714Y-130539450D01*
X167933714Y-130539450D02*
X167862285Y-130614688D01*
X169505143Y-129937546D02*
X169648000Y-129937546D01*
X169648000Y-129937546D02*
X169790857Y-130012784D01*
X169790857Y-130012784D02*
X169862286Y-130088022D01*
X169862286Y-130088022D02*
X169933714Y-130238498D01*
X169933714Y-130238498D02*
X170005143Y-130539450D01*
X170005143Y-130539450D02*
X170005143Y-130915641D01*
X170005143Y-130915641D02*
X169933714Y-131216593D01*
X169933714Y-131216593D02*
X169862286Y-131367069D01*
X169862286Y-131367069D02*
X169790857Y-131442308D01*
X169790857Y-131442308D02*
X169648000Y-131517546D01*
X169648000Y-131517546D02*
X169505143Y-131517546D01*
X169505143Y-131517546D02*
X169362286Y-131442308D01*
X169362286Y-131442308D02*
X169290857Y-131367069D01*
X169290857Y-131367069D02*
X169219428Y-131216593D01*
X169219428Y-131216593D02*
X169148000Y-130915641D01*
X169148000Y-130915641D02*
X169148000Y-130539450D01*
X169148000Y-130539450D02*
X169219428Y-130238498D01*
X169219428Y-130238498D02*
X169290857Y-130088022D01*
X169290857Y-130088022D02*
X169362286Y-130012784D01*
X169362286Y-130012784D02*
X169505143Y-129937546D01*
X167219428Y-133910781D02*
X167148000Y-133986020D01*
X167148000Y-133986020D02*
X166933714Y-134061258D01*
X166933714Y-134061258D02*
X166790857Y-134061258D01*
X166790857Y-134061258D02*
X166576571Y-133986020D01*
X166576571Y-133986020D02*
X166433714Y-133835543D01*
X166433714Y-133835543D02*
X166362285Y-133685067D01*
X166362285Y-133685067D02*
X166290857Y-133384115D01*
X166290857Y-133384115D02*
X166290857Y-133158400D01*
X166290857Y-133158400D02*
X166362285Y-132857448D01*
X166362285Y-132857448D02*
X166433714Y-132706972D01*
X166433714Y-132706972D02*
X166576571Y-132556496D01*
X166576571Y-132556496D02*
X166790857Y-132481258D01*
X166790857Y-132481258D02*
X166933714Y-132481258D01*
X166933714Y-132481258D02*
X167148000Y-132556496D01*
X167148000Y-132556496D02*
X167219428Y-132631734D01*
X167862285Y-134061258D02*
X167862285Y-132481258D01*
X168505143Y-134061258D02*
X168505143Y-133233639D01*
X168505143Y-133233639D02*
X168433714Y-133083162D01*
X168433714Y-133083162D02*
X168290857Y-133007924D01*
X168290857Y-133007924D02*
X168076571Y-133007924D01*
X168076571Y-133007924D02*
X167933714Y-133083162D01*
X167933714Y-133083162D02*
X167862285Y-133158400D01*
X170005143Y-134061258D02*
X169148000Y-134061258D01*
X169576571Y-134061258D02*
X169576571Y-132481258D01*
X169576571Y-132481258D02*
X169433714Y-132706972D01*
X169433714Y-132706972D02*
X169290857Y-132857448D01*
X169290857Y-132857448D02*
X169148000Y-132932686D01*
X167219428Y-136454493D02*
X167148000Y-136529732D01*
X167148000Y-136529732D02*
X166933714Y-136604970D01*
X166933714Y-136604970D02*
X166790857Y-136604970D01*
X166790857Y-136604970D02*
X166576571Y-136529732D01*
X166576571Y-136529732D02*
X166433714Y-136379255D01*
X166433714Y-136379255D02*
X166362285Y-136228779D01*
X166362285Y-136228779D02*
X166290857Y-135927827D01*
X166290857Y-135927827D02*
X166290857Y-135702112D01*
X166290857Y-135702112D02*
X166362285Y-135401160D01*
X166362285Y-135401160D02*
X166433714Y-135250684D01*
X166433714Y-135250684D02*
X166576571Y-135100208D01*
X166576571Y-135100208D02*
X166790857Y-135024970D01*
X166790857Y-135024970D02*
X166933714Y-135024970D01*
X166933714Y-135024970D02*
X167148000Y-135100208D01*
X167148000Y-135100208D02*
X167219428Y-135175446D01*
X167862285Y-136604970D02*
X167862285Y-135024970D01*
X168505143Y-136604970D02*
X168505143Y-135777351D01*
X168505143Y-135777351D02*
X168433714Y-135626874D01*
X168433714Y-135626874D02*
X168290857Y-135551636D01*
X168290857Y-135551636D02*
X168076571Y-135551636D01*
X168076571Y-135551636D02*
X167933714Y-135626874D01*
X167933714Y-135626874D02*
X167862285Y-135702112D01*
X169148000Y-135175446D02*
X169219428Y-135100208D01*
X169219428Y-135100208D02*
X169362286Y-135024970D01*
X169362286Y-135024970D02*
X169719428Y-135024970D01*
X169719428Y-135024970D02*
X169862286Y-135100208D01*
X169862286Y-135100208D02*
X169933714Y-135175446D01*
X169933714Y-135175446D02*
X170005143Y-135325922D01*
X170005143Y-135325922D02*
X170005143Y-135476398D01*
X170005143Y-135476398D02*
X169933714Y-135702112D01*
X169933714Y-135702112D02*
X169076571Y-136604970D01*
X169076571Y-136604970D02*
X170005143Y-136604970D01*
X167219428Y-138998205D02*
X167148000Y-139073444D01*
X167148000Y-139073444D02*
X166933714Y-139148682D01*
X166933714Y-139148682D02*
X166790857Y-139148682D01*
X166790857Y-139148682D02*
X166576571Y-139073444D01*
X166576571Y-139073444D02*
X166433714Y-138922967D01*
X166433714Y-138922967D02*
X166362285Y-138772491D01*
X166362285Y-138772491D02*
X166290857Y-138471539D01*
X166290857Y-138471539D02*
X166290857Y-138245824D01*
X166290857Y-138245824D02*
X166362285Y-137944872D01*
X166362285Y-137944872D02*
X166433714Y-137794396D01*
X166433714Y-137794396D02*
X166576571Y-137643920D01*
X166576571Y-137643920D02*
X166790857Y-137568682D01*
X166790857Y-137568682D02*
X166933714Y-137568682D01*
X166933714Y-137568682D02*
X167148000Y-137643920D01*
X167148000Y-137643920D02*
X167219428Y-137719158D01*
X167862285Y-139148682D02*
X167862285Y-137568682D01*
X168505143Y-139148682D02*
X168505143Y-138321063D01*
X168505143Y-138321063D02*
X168433714Y-138170586D01*
X168433714Y-138170586D02*
X168290857Y-138095348D01*
X168290857Y-138095348D02*
X168076571Y-138095348D01*
X168076571Y-138095348D02*
X167933714Y-138170586D01*
X167933714Y-138170586D02*
X167862285Y-138245824D01*
X169076571Y-137568682D02*
X170005143Y-137568682D01*
X170005143Y-137568682D02*
X169505143Y-138170586D01*
X169505143Y-138170586D02*
X169719428Y-138170586D01*
X169719428Y-138170586D02*
X169862286Y-138245824D01*
X169862286Y-138245824D02*
X169933714Y-138321063D01*
X169933714Y-138321063D02*
X170005143Y-138471539D01*
X170005143Y-138471539D02*
X170005143Y-138847729D01*
X170005143Y-138847729D02*
X169933714Y-138998205D01*
X169933714Y-138998205D02*
X169862286Y-139073444D01*
X169862286Y-139073444D02*
X169719428Y-139148682D01*
X169719428Y-139148682D02*
X169290857Y-139148682D01*
X169290857Y-139148682D02*
X169148000Y-139073444D01*
X169148000Y-139073444D02*
X169076571Y-138998205D01*
X167219428Y-141541917D02*
X167148000Y-141617156D01*
X167148000Y-141617156D02*
X166933714Y-141692394D01*
X166933714Y-141692394D02*
X166790857Y-141692394D01*
X166790857Y-141692394D02*
X166576571Y-141617156D01*
X166576571Y-141617156D02*
X166433714Y-141466679D01*
X166433714Y-141466679D02*
X166362285Y-141316203D01*
X166362285Y-141316203D02*
X166290857Y-141015251D01*
X166290857Y-141015251D02*
X166290857Y-140789536D01*
X166290857Y-140789536D02*
X166362285Y-140488584D01*
X166362285Y-140488584D02*
X166433714Y-140338108D01*
X166433714Y-140338108D02*
X166576571Y-140187632D01*
X166576571Y-140187632D02*
X166790857Y-140112394D01*
X166790857Y-140112394D02*
X166933714Y-140112394D01*
X166933714Y-140112394D02*
X167148000Y-140187632D01*
X167148000Y-140187632D02*
X167219428Y-140262870D01*
X167862285Y-141692394D02*
X167862285Y-140112394D01*
X168505143Y-141692394D02*
X168505143Y-140864775D01*
X168505143Y-140864775D02*
X168433714Y-140714298D01*
X168433714Y-140714298D02*
X168290857Y-140639060D01*
X168290857Y-140639060D02*
X168076571Y-140639060D01*
X168076571Y-140639060D02*
X167933714Y-140714298D01*
X167933714Y-140714298D02*
X167862285Y-140789536D01*
X169862286Y-140639060D02*
X169862286Y-141692394D01*
X169505143Y-140037156D02*
X169148000Y-141165727D01*
X169148000Y-141165727D02*
X170076571Y-141165727D01*
X167219428Y-144085629D02*
X167148000Y-144160868D01*
X167148000Y-144160868D02*
X166933714Y-144236106D01*
X166933714Y-144236106D02*
X166790857Y-144236106D01*
X166790857Y-144236106D02*
X166576571Y-144160868D01*
X166576571Y-144160868D02*
X166433714Y-144010391D01*
X166433714Y-144010391D02*
X166362285Y-143859915D01*
X166362285Y-143859915D02*
X166290857Y-143558963D01*
X166290857Y-143558963D02*
X166290857Y-143333248D01*
X166290857Y-143333248D02*
X166362285Y-143032296D01*
X166362285Y-143032296D02*
X166433714Y-142881820D01*
X166433714Y-142881820D02*
X166576571Y-142731344D01*
X166576571Y-142731344D02*
X166790857Y-142656106D01*
X166790857Y-142656106D02*
X166933714Y-142656106D01*
X166933714Y-142656106D02*
X167148000Y-142731344D01*
X167148000Y-142731344D02*
X167219428Y-142806582D01*
X167862285Y-144236106D02*
X167862285Y-142656106D01*
X168505143Y-144236106D02*
X168505143Y-143408487D01*
X168505143Y-143408487D02*
X168433714Y-143258010D01*
X168433714Y-143258010D02*
X168290857Y-143182772D01*
X168290857Y-143182772D02*
X168076571Y-143182772D01*
X168076571Y-143182772D02*
X167933714Y-143258010D01*
X167933714Y-143258010D02*
X167862285Y-143333248D01*
X169933714Y-142656106D02*
X169219428Y-142656106D01*
X169219428Y-142656106D02*
X169148000Y-143408487D01*
X169148000Y-143408487D02*
X169219428Y-143333248D01*
X169219428Y-143333248D02*
X169362286Y-143258010D01*
X169362286Y-143258010D02*
X169719428Y-143258010D01*
X169719428Y-143258010D02*
X169862286Y-143333248D01*
X169862286Y-143333248D02*
X169933714Y-143408487D01*
X169933714Y-143408487D02*
X170005143Y-143558963D01*
X170005143Y-143558963D02*
X170005143Y-143935153D01*
X170005143Y-143935153D02*
X169933714Y-144085629D01*
X169933714Y-144085629D02*
X169862286Y-144160868D01*
X169862286Y-144160868D02*
X169719428Y-144236106D01*
X169719428Y-144236106D02*
X169362286Y-144236106D01*
X169362286Y-144236106D02*
X169219428Y-144160868D01*
X169219428Y-144160868D02*
X169148000Y-144085629D01*
X167219428Y-146629341D02*
X167148000Y-146704580D01*
X167148000Y-146704580D02*
X166933714Y-146779818D01*
X166933714Y-146779818D02*
X166790857Y-146779818D01*
X166790857Y-146779818D02*
X166576571Y-146704580D01*
X166576571Y-146704580D02*
X166433714Y-146554103D01*
X166433714Y-146554103D02*
X166362285Y-146403627D01*
X166362285Y-146403627D02*
X166290857Y-146102675D01*
X166290857Y-146102675D02*
X166290857Y-145876960D01*
X166290857Y-145876960D02*
X166362285Y-145576008D01*
X166362285Y-145576008D02*
X166433714Y-145425532D01*
X166433714Y-145425532D02*
X166576571Y-145275056D01*
X166576571Y-145275056D02*
X166790857Y-145199818D01*
X166790857Y-145199818D02*
X166933714Y-145199818D01*
X166933714Y-145199818D02*
X167148000Y-145275056D01*
X167148000Y-145275056D02*
X167219428Y-145350294D01*
X167862285Y-146779818D02*
X167862285Y-145199818D01*
X168505143Y-146779818D02*
X168505143Y-145952199D01*
X168505143Y-145952199D02*
X168433714Y-145801722D01*
X168433714Y-145801722D02*
X168290857Y-145726484D01*
X168290857Y-145726484D02*
X168076571Y-145726484D01*
X168076571Y-145726484D02*
X167933714Y-145801722D01*
X167933714Y-145801722D02*
X167862285Y-145876960D01*
X169862286Y-145199818D02*
X169576571Y-145199818D01*
X169576571Y-145199818D02*
X169433714Y-145275056D01*
X169433714Y-145275056D02*
X169362286Y-145350294D01*
X169362286Y-145350294D02*
X169219428Y-145576008D01*
X169219428Y-145576008D02*
X169148000Y-145876960D01*
X169148000Y-145876960D02*
X169148000Y-146478865D01*
X169148000Y-146478865D02*
X169219428Y-146629341D01*
X169219428Y-146629341D02*
X169290857Y-146704580D01*
X169290857Y-146704580D02*
X169433714Y-146779818D01*
X169433714Y-146779818D02*
X169719428Y-146779818D01*
X169719428Y-146779818D02*
X169862286Y-146704580D01*
X169862286Y-146704580D02*
X169933714Y-146629341D01*
X169933714Y-146629341D02*
X170005143Y-146478865D01*
X170005143Y-146478865D02*
X170005143Y-146102675D01*
X170005143Y-146102675D02*
X169933714Y-145952199D01*
X169933714Y-145952199D02*
X169862286Y-145876960D01*
X169862286Y-145876960D02*
X169719428Y-145801722D01*
X169719428Y-145801722D02*
X169433714Y-145801722D01*
X169433714Y-145801722D02*
X169290857Y-145876960D01*
X169290857Y-145876960D02*
X169219428Y-145952199D01*
X169219428Y-145952199D02*
X169148000Y-146102675D01*
X167219428Y-149173053D02*
X167148000Y-149248292D01*
X167148000Y-149248292D02*
X166933714Y-149323530D01*
X166933714Y-149323530D02*
X166790857Y-149323530D01*
X166790857Y-149323530D02*
X166576571Y-149248292D01*
X166576571Y-149248292D02*
X166433714Y-149097815D01*
X166433714Y-149097815D02*
X166362285Y-148947339D01*
X166362285Y-148947339D02*
X166290857Y-148646387D01*
X166290857Y-148646387D02*
X166290857Y-148420672D01*
X166290857Y-148420672D02*
X166362285Y-148119720D01*
X166362285Y-148119720D02*
X166433714Y-147969244D01*
X166433714Y-147969244D02*
X166576571Y-147818768D01*
X166576571Y-147818768D02*
X166790857Y-147743530D01*
X166790857Y-147743530D02*
X166933714Y-147743530D01*
X166933714Y-147743530D02*
X167148000Y-147818768D01*
X167148000Y-147818768D02*
X167219428Y-147894006D01*
X167862285Y-149323530D02*
X167862285Y-147743530D01*
X168505143Y-149323530D02*
X168505143Y-148495911D01*
X168505143Y-148495911D02*
X168433714Y-148345434D01*
X168433714Y-148345434D02*
X168290857Y-148270196D01*
X168290857Y-148270196D02*
X168076571Y-148270196D01*
X168076571Y-148270196D02*
X167933714Y-148345434D01*
X167933714Y-148345434D02*
X167862285Y-148420672D01*
X169076571Y-147743530D02*
X170076571Y-147743530D01*
X170076571Y-147743530D02*
X169433714Y-149323530D01*
D12*
X229898333Y-117699580D02*
X229850714Y-117747200D01*
X229850714Y-117747200D02*
X229707857Y-117794819D01*
X229707857Y-117794819D02*
X229612619Y-117794819D01*
X229612619Y-117794819D02*
X229469762Y-117747200D01*
X229469762Y-117747200D02*
X229374524Y-117651961D01*
X229374524Y-117651961D02*
X229326905Y-117556723D01*
X229326905Y-117556723D02*
X229279286Y-117366247D01*
X229279286Y-117366247D02*
X229279286Y-117223390D01*
X229279286Y-117223390D02*
X229326905Y-117032914D01*
X229326905Y-117032914D02*
X229374524Y-116937676D01*
X229374524Y-116937676D02*
X229469762Y-116842438D01*
X229469762Y-116842438D02*
X229612619Y-116794819D01*
X229612619Y-116794819D02*
X229707857Y-116794819D01*
X229707857Y-116794819D02*
X229850714Y-116842438D01*
X229850714Y-116842438D02*
X229898333Y-116890057D01*
X230850714Y-117794819D02*
X230279286Y-117794819D01*
X230565000Y-117794819D02*
X230565000Y-116794819D01*
X230565000Y-116794819D02*
X230469762Y-116937676D01*
X230469762Y-116937676D02*
X230374524Y-117032914D01*
X230374524Y-117032914D02*
X230279286Y-117080533D01*
X229695952Y-119954819D02*
X229124524Y-119954819D01*
X229410238Y-119954819D02*
X229410238Y-118954819D01*
X229410238Y-118954819D02*
X229315000Y-119097676D01*
X229315000Y-119097676D02*
X229219762Y-119192914D01*
X229219762Y-119192914D02*
X229124524Y-119240533D01*
X230315000Y-118954819D02*
X230410238Y-118954819D01*
X230410238Y-118954819D02*
X230505476Y-119002438D01*
X230505476Y-119002438D02*
X230553095Y-119050057D01*
X230553095Y-119050057D02*
X230600714Y-119145295D01*
X230600714Y-119145295D02*
X230648333Y-119335771D01*
X230648333Y-119335771D02*
X230648333Y-119573866D01*
X230648333Y-119573866D02*
X230600714Y-119764342D01*
X230600714Y-119764342D02*
X230553095Y-119859580D01*
X230553095Y-119859580D02*
X230505476Y-119907200D01*
X230505476Y-119907200D02*
X230410238Y-119954819D01*
X230410238Y-119954819D02*
X230315000Y-119954819D01*
X230315000Y-119954819D02*
X230219762Y-119907200D01*
X230219762Y-119907200D02*
X230172143Y-119859580D01*
X230172143Y-119859580D02*
X230124524Y-119764342D01*
X230124524Y-119764342D02*
X230076905Y-119573866D01*
X230076905Y-119573866D02*
X230076905Y-119335771D01*
X230076905Y-119335771D02*
X230124524Y-119145295D01*
X230124524Y-119145295D02*
X230172143Y-119050057D01*
X230172143Y-119050057D02*
X230219762Y-119002438D01*
X230219762Y-119002438D02*
X230315000Y-118954819D01*
X231267381Y-118954819D02*
X231362619Y-118954819D01*
X231362619Y-118954819D02*
X231457857Y-119002438D01*
X231457857Y-119002438D02*
X231505476Y-119050057D01*
X231505476Y-119050057D02*
X231553095Y-119145295D01*
X231553095Y-119145295D02*
X231600714Y-119335771D01*
X231600714Y-119335771D02*
X231600714Y-119573866D01*
X231600714Y-119573866D02*
X231553095Y-119764342D01*
X231553095Y-119764342D02*
X231505476Y-119859580D01*
X231505476Y-119859580D02*
X231457857Y-119907200D01*
X231457857Y-119907200D02*
X231362619Y-119954819D01*
X231362619Y-119954819D02*
X231267381Y-119954819D01*
X231267381Y-119954819D02*
X231172143Y-119907200D01*
X231172143Y-119907200D02*
X231124524Y-119859580D01*
X231124524Y-119859580D02*
X231076905Y-119764342D01*
X231076905Y-119764342D02*
X231029286Y-119573866D01*
X231029286Y-119573866D02*
X231029286Y-119335771D01*
X231029286Y-119335771D02*
X231076905Y-119145295D01*
X231076905Y-119145295D02*
X231124524Y-119050057D01*
X231124524Y-119050057D02*
X231172143Y-119002438D01*
X231172143Y-119002438D02*
X231267381Y-118954819D01*
X232029286Y-119288152D02*
X232029286Y-119954819D01*
X232029286Y-119383390D02*
X232076905Y-119335771D01*
X232076905Y-119335771D02*
X232172143Y-119288152D01*
X232172143Y-119288152D02*
X232315000Y-119288152D01*
X232315000Y-119288152D02*
X232410238Y-119335771D01*
X232410238Y-119335771D02*
X232457857Y-119431009D01*
X232457857Y-119431009D02*
X232457857Y-119954819D01*
X221279285Y-135204819D02*
X220707857Y-135204819D01*
X220993571Y-135204819D02*
X220993571Y-134204819D01*
X220993571Y-134204819D02*
X220898333Y-134347676D01*
X220898333Y-134347676D02*
X220803095Y-134442914D01*
X220803095Y-134442914D02*
X220707857Y-134490533D01*
X221707857Y-135204819D02*
X221707857Y-134204819D01*
X221707857Y-134204819D02*
X222041190Y-134919104D01*
X222041190Y-134919104D02*
X222374523Y-134204819D01*
X222374523Y-134204819D02*
X222374523Y-135204819D01*
X219898333Y-121294819D02*
X219565000Y-120818628D01*
X219326905Y-121294819D02*
X219326905Y-120294819D01*
X219326905Y-120294819D02*
X219707857Y-120294819D01*
X219707857Y-120294819D02*
X219803095Y-120342438D01*
X219803095Y-120342438D02*
X219850714Y-120390057D01*
X219850714Y-120390057D02*
X219898333Y-120485295D01*
X219898333Y-120485295D02*
X219898333Y-120628152D01*
X219898333Y-120628152D02*
X219850714Y-120723390D01*
X219850714Y-120723390D02*
X219803095Y-120771009D01*
X219803095Y-120771009D02*
X219707857Y-120818628D01*
X219707857Y-120818628D02*
X219326905Y-120818628D01*
X220850714Y-121294819D02*
X220279286Y-121294819D01*
X220565000Y-121294819D02*
X220565000Y-120294819D01*
X220565000Y-120294819D02*
X220469762Y-120437676D01*
X220469762Y-120437676D02*
X220374524Y-120532914D01*
X220374524Y-120532914D02*
X220279286Y-120580533D01*
X222553095Y-123954819D02*
X222362619Y-123954819D01*
X222362619Y-123954819D02*
X222267381Y-124002438D01*
X222267381Y-124002438D02*
X222219762Y-124050057D01*
X222219762Y-124050057D02*
X222124524Y-124192914D01*
X222124524Y-124192914D02*
X222076905Y-124383390D01*
X222076905Y-124383390D02*
X222076905Y-124764342D01*
X222076905Y-124764342D02*
X222124524Y-124859580D01*
X222124524Y-124859580D02*
X222172143Y-124907200D01*
X222172143Y-124907200D02*
X222267381Y-124954819D01*
X222267381Y-124954819D02*
X222457857Y-124954819D01*
X222457857Y-124954819D02*
X222553095Y-124907200D01*
X222553095Y-124907200D02*
X222600714Y-124859580D01*
X222600714Y-124859580D02*
X222648333Y-124764342D01*
X222648333Y-124764342D02*
X222648333Y-124526247D01*
X222648333Y-124526247D02*
X222600714Y-124431009D01*
X222600714Y-124431009D02*
X222553095Y-124383390D01*
X222553095Y-124383390D02*
X222457857Y-124335771D01*
X222457857Y-124335771D02*
X222267381Y-124335771D01*
X222267381Y-124335771D02*
X222172143Y-124383390D01*
X222172143Y-124383390D02*
X222124524Y-124431009D01*
X222124524Y-124431009D02*
X222076905Y-124526247D01*
X223219762Y-124383390D02*
X223124524Y-124335771D01*
X223124524Y-124335771D02*
X223076905Y-124288152D01*
X223076905Y-124288152D02*
X223029286Y-124192914D01*
X223029286Y-124192914D02*
X223029286Y-124145295D01*
X223029286Y-124145295D02*
X223076905Y-124050057D01*
X223076905Y-124050057D02*
X223124524Y-124002438D01*
X223124524Y-124002438D02*
X223219762Y-123954819D01*
X223219762Y-123954819D02*
X223410238Y-123954819D01*
X223410238Y-123954819D02*
X223505476Y-124002438D01*
X223505476Y-124002438D02*
X223553095Y-124050057D01*
X223553095Y-124050057D02*
X223600714Y-124145295D01*
X223600714Y-124145295D02*
X223600714Y-124192914D01*
X223600714Y-124192914D02*
X223553095Y-124288152D01*
X223553095Y-124288152D02*
X223505476Y-124335771D01*
X223505476Y-124335771D02*
X223410238Y-124383390D01*
X223410238Y-124383390D02*
X223219762Y-124383390D01*
X223219762Y-124383390D02*
X223124524Y-124431009D01*
X223124524Y-124431009D02*
X223076905Y-124478628D01*
X223076905Y-124478628D02*
X223029286Y-124573866D01*
X223029286Y-124573866D02*
X223029286Y-124764342D01*
X223029286Y-124764342D02*
X223076905Y-124859580D01*
X223076905Y-124859580D02*
X223124524Y-124907200D01*
X223124524Y-124907200D02*
X223219762Y-124954819D01*
X223219762Y-124954819D02*
X223410238Y-124954819D01*
X223410238Y-124954819D02*
X223505476Y-124907200D01*
X223505476Y-124907200D02*
X223553095Y-124859580D01*
X223553095Y-124859580D02*
X223600714Y-124764342D01*
X223600714Y-124764342D02*
X223600714Y-124573866D01*
X223600714Y-124573866D02*
X223553095Y-124478628D01*
X223553095Y-124478628D02*
X223505476Y-124431009D01*
X223505476Y-124431009D02*
X223410238Y-124383390D01*
X224219762Y-123954819D02*
X224315000Y-123954819D01*
X224315000Y-123954819D02*
X224410238Y-124002438D01*
X224410238Y-124002438D02*
X224457857Y-124050057D01*
X224457857Y-124050057D02*
X224505476Y-124145295D01*
X224505476Y-124145295D02*
X224553095Y-124335771D01*
X224553095Y-124335771D02*
X224553095Y-124573866D01*
X224553095Y-124573866D02*
X224505476Y-124764342D01*
X224505476Y-124764342D02*
X224457857Y-124859580D01*
X224457857Y-124859580D02*
X224410238Y-124907200D01*
X224410238Y-124907200D02*
X224315000Y-124954819D01*
X224315000Y-124954819D02*
X224219762Y-124954819D01*
X224219762Y-124954819D02*
X224124524Y-124907200D01*
X224124524Y-124907200D02*
X224076905Y-124859580D01*
X224076905Y-124859580D02*
X224029286Y-124764342D01*
X224029286Y-124764342D02*
X223981667Y-124573866D01*
X223981667Y-124573866D02*
X223981667Y-124335771D01*
X223981667Y-124335771D02*
X224029286Y-124145295D01*
X224029286Y-124145295D02*
X224076905Y-124050057D01*
X224076905Y-124050057D02*
X224124524Y-124002438D01*
X224124524Y-124002438D02*
X224219762Y-123954819D01*
X224981667Y-124954819D02*
X224981667Y-123954819D01*
X225553095Y-124954819D02*
X225124524Y-124383390D01*
X225553095Y-123954819D02*
X224981667Y-124526247D01*
X225148333Y-110109580D02*
X225100714Y-110157200D01*
X225100714Y-110157200D02*
X224957857Y-110204819D01*
X224957857Y-110204819D02*
X224862619Y-110204819D01*
X224862619Y-110204819D02*
X224719762Y-110157200D01*
X224719762Y-110157200D02*
X224624524Y-110061961D01*
X224624524Y-110061961D02*
X224576905Y-109966723D01*
X224576905Y-109966723D02*
X224529286Y-109776247D01*
X224529286Y-109776247D02*
X224529286Y-109633390D01*
X224529286Y-109633390D02*
X224576905Y-109442914D01*
X224576905Y-109442914D02*
X224624524Y-109347676D01*
X224624524Y-109347676D02*
X224719762Y-109252438D01*
X224719762Y-109252438D02*
X224862619Y-109204819D01*
X224862619Y-109204819D02*
X224957857Y-109204819D01*
X224957857Y-109204819D02*
X225100714Y-109252438D01*
X225100714Y-109252438D02*
X225148333Y-109300057D01*
X225529286Y-109300057D02*
X225576905Y-109252438D01*
X225576905Y-109252438D02*
X225672143Y-109204819D01*
X225672143Y-109204819D02*
X225910238Y-109204819D01*
X225910238Y-109204819D02*
X226005476Y-109252438D01*
X226005476Y-109252438D02*
X226053095Y-109300057D01*
X226053095Y-109300057D02*
X226100714Y-109395295D01*
X226100714Y-109395295D02*
X226100714Y-109490533D01*
X226100714Y-109490533D02*
X226053095Y-109633390D01*
X226053095Y-109633390D02*
X225481667Y-110204819D01*
X225481667Y-110204819D02*
X226100714Y-110204819D01*
X225922142Y-114704819D02*
X225350714Y-114704819D01*
X225636428Y-114704819D02*
X225636428Y-113704819D01*
X225636428Y-113704819D02*
X225541190Y-113847676D01*
X225541190Y-113847676D02*
X225445952Y-113942914D01*
X225445952Y-113942914D02*
X225350714Y-113990533D01*
X226541190Y-113704819D02*
X226636428Y-113704819D01*
X226636428Y-113704819D02*
X226731666Y-113752438D01*
X226731666Y-113752438D02*
X226779285Y-113800057D01*
X226779285Y-113800057D02*
X226826904Y-113895295D01*
X226826904Y-113895295D02*
X226874523Y-114085771D01*
X226874523Y-114085771D02*
X226874523Y-114323866D01*
X226874523Y-114323866D02*
X226826904Y-114514342D01*
X226826904Y-114514342D02*
X226779285Y-114609580D01*
X226779285Y-114609580D02*
X226731666Y-114657200D01*
X226731666Y-114657200D02*
X226636428Y-114704819D01*
X226636428Y-114704819D02*
X226541190Y-114704819D01*
X226541190Y-114704819D02*
X226445952Y-114657200D01*
X226445952Y-114657200D02*
X226398333Y-114609580D01*
X226398333Y-114609580D02*
X226350714Y-114514342D01*
X226350714Y-114514342D02*
X226303095Y-114323866D01*
X226303095Y-114323866D02*
X226303095Y-114085771D01*
X226303095Y-114085771D02*
X226350714Y-113895295D01*
X226350714Y-113895295D02*
X226398333Y-113800057D01*
X226398333Y-113800057D02*
X226445952Y-113752438D01*
X226445952Y-113752438D02*
X226541190Y-113704819D01*
X227731666Y-114038152D02*
X227731666Y-114704819D01*
X227303095Y-114038152D02*
X227303095Y-114561961D01*
X227303095Y-114561961D02*
X227350714Y-114657200D01*
X227350714Y-114657200D02*
X227445952Y-114704819D01*
X227445952Y-114704819D02*
X227588809Y-114704819D01*
X227588809Y-114704819D02*
X227684047Y-114657200D01*
X227684047Y-114657200D02*
X227731666Y-114609580D01*
X220148333Y-102794819D02*
X219815000Y-102318628D01*
X219576905Y-102794819D02*
X219576905Y-101794819D01*
X219576905Y-101794819D02*
X219957857Y-101794819D01*
X219957857Y-101794819D02*
X220053095Y-101842438D01*
X220053095Y-101842438D02*
X220100714Y-101890057D01*
X220100714Y-101890057D02*
X220148333Y-101985295D01*
X220148333Y-101985295D02*
X220148333Y-102128152D01*
X220148333Y-102128152D02*
X220100714Y-102223390D01*
X220100714Y-102223390D02*
X220053095Y-102271009D01*
X220053095Y-102271009D02*
X219957857Y-102318628D01*
X219957857Y-102318628D02*
X219576905Y-102318628D01*
X220529286Y-101890057D02*
X220576905Y-101842438D01*
X220576905Y-101842438D02*
X220672143Y-101794819D01*
X220672143Y-101794819D02*
X220910238Y-101794819D01*
X220910238Y-101794819D02*
X221005476Y-101842438D01*
X221005476Y-101842438D02*
X221053095Y-101890057D01*
X221053095Y-101890057D02*
X221100714Y-101985295D01*
X221100714Y-101985295D02*
X221100714Y-102080533D01*
X221100714Y-102080533D02*
X221053095Y-102223390D01*
X221053095Y-102223390D02*
X220481667Y-102794819D01*
X220481667Y-102794819D02*
X221100714Y-102794819D01*
X223553095Y-101954819D02*
X223362619Y-101954819D01*
X223362619Y-101954819D02*
X223267381Y-102002438D01*
X223267381Y-102002438D02*
X223219762Y-102050057D01*
X223219762Y-102050057D02*
X223124524Y-102192914D01*
X223124524Y-102192914D02*
X223076905Y-102383390D01*
X223076905Y-102383390D02*
X223076905Y-102764342D01*
X223076905Y-102764342D02*
X223124524Y-102859580D01*
X223124524Y-102859580D02*
X223172143Y-102907200D01*
X223172143Y-102907200D02*
X223267381Y-102954819D01*
X223267381Y-102954819D02*
X223457857Y-102954819D01*
X223457857Y-102954819D02*
X223553095Y-102907200D01*
X223553095Y-102907200D02*
X223600714Y-102859580D01*
X223600714Y-102859580D02*
X223648333Y-102764342D01*
X223648333Y-102764342D02*
X223648333Y-102526247D01*
X223648333Y-102526247D02*
X223600714Y-102431009D01*
X223600714Y-102431009D02*
X223553095Y-102383390D01*
X223553095Y-102383390D02*
X223457857Y-102335771D01*
X223457857Y-102335771D02*
X223267381Y-102335771D01*
X223267381Y-102335771D02*
X223172143Y-102383390D01*
X223172143Y-102383390D02*
X223124524Y-102431009D01*
X223124524Y-102431009D02*
X223076905Y-102526247D01*
X224219762Y-102383390D02*
X224124524Y-102335771D01*
X224124524Y-102335771D02*
X224076905Y-102288152D01*
X224076905Y-102288152D02*
X224029286Y-102192914D01*
X224029286Y-102192914D02*
X224029286Y-102145295D01*
X224029286Y-102145295D02*
X224076905Y-102050057D01*
X224076905Y-102050057D02*
X224124524Y-102002438D01*
X224124524Y-102002438D02*
X224219762Y-101954819D01*
X224219762Y-101954819D02*
X224410238Y-101954819D01*
X224410238Y-101954819D02*
X224505476Y-102002438D01*
X224505476Y-102002438D02*
X224553095Y-102050057D01*
X224553095Y-102050057D02*
X224600714Y-102145295D01*
X224600714Y-102145295D02*
X224600714Y-102192914D01*
X224600714Y-102192914D02*
X224553095Y-102288152D01*
X224553095Y-102288152D02*
X224505476Y-102335771D01*
X224505476Y-102335771D02*
X224410238Y-102383390D01*
X224410238Y-102383390D02*
X224219762Y-102383390D01*
X224219762Y-102383390D02*
X224124524Y-102431009D01*
X224124524Y-102431009D02*
X224076905Y-102478628D01*
X224076905Y-102478628D02*
X224029286Y-102573866D01*
X224029286Y-102573866D02*
X224029286Y-102764342D01*
X224029286Y-102764342D02*
X224076905Y-102859580D01*
X224076905Y-102859580D02*
X224124524Y-102907200D01*
X224124524Y-102907200D02*
X224219762Y-102954819D01*
X224219762Y-102954819D02*
X224410238Y-102954819D01*
X224410238Y-102954819D02*
X224505476Y-102907200D01*
X224505476Y-102907200D02*
X224553095Y-102859580D01*
X224553095Y-102859580D02*
X224600714Y-102764342D01*
X224600714Y-102764342D02*
X224600714Y-102573866D01*
X224600714Y-102573866D02*
X224553095Y-102478628D01*
X224553095Y-102478628D02*
X224505476Y-102431009D01*
X224505476Y-102431009D02*
X224410238Y-102383390D01*
X225219762Y-101954819D02*
X225315000Y-101954819D01*
X225315000Y-101954819D02*
X225410238Y-102002438D01*
X225410238Y-102002438D02*
X225457857Y-102050057D01*
X225457857Y-102050057D02*
X225505476Y-102145295D01*
X225505476Y-102145295D02*
X225553095Y-102335771D01*
X225553095Y-102335771D02*
X225553095Y-102573866D01*
X225553095Y-102573866D02*
X225505476Y-102764342D01*
X225505476Y-102764342D02*
X225457857Y-102859580D01*
X225457857Y-102859580D02*
X225410238Y-102907200D01*
X225410238Y-102907200D02*
X225315000Y-102954819D01*
X225315000Y-102954819D02*
X225219762Y-102954819D01*
X225219762Y-102954819D02*
X225124524Y-102907200D01*
X225124524Y-102907200D02*
X225076905Y-102859580D01*
X225076905Y-102859580D02*
X225029286Y-102764342D01*
X225029286Y-102764342D02*
X224981667Y-102573866D01*
X224981667Y-102573866D02*
X224981667Y-102335771D01*
X224981667Y-102335771D02*
X225029286Y-102145295D01*
X225029286Y-102145295D02*
X225076905Y-102050057D01*
X225076905Y-102050057D02*
X225124524Y-102002438D01*
X225124524Y-102002438D02*
X225219762Y-101954819D01*
X225981667Y-102954819D02*
X225981667Y-101954819D01*
X226553095Y-102954819D02*
X226124524Y-102383390D01*
X226553095Y-101954819D02*
X225981667Y-102526247D01*
X211076904Y-144664819D02*
X210743571Y-144188628D01*
X210505476Y-144664819D02*
X210505476Y-143664819D01*
X210505476Y-143664819D02*
X210886428Y-143664819D01*
X210886428Y-143664819D02*
X210981666Y-143712438D01*
X210981666Y-143712438D02*
X211029285Y-143760057D01*
X211029285Y-143760057D02*
X211076904Y-143855295D01*
X211076904Y-143855295D02*
X211076904Y-143998152D01*
X211076904Y-143998152D02*
X211029285Y-144093390D01*
X211029285Y-144093390D02*
X210981666Y-144141009D01*
X210981666Y-144141009D02*
X210886428Y-144188628D01*
X210886428Y-144188628D02*
X210505476Y-144188628D01*
X211886428Y-144617200D02*
X211791190Y-144664819D01*
X211791190Y-144664819D02*
X211600714Y-144664819D01*
X211600714Y-144664819D02*
X211505476Y-144617200D01*
X211505476Y-144617200D02*
X211457857Y-144521961D01*
X211457857Y-144521961D02*
X211457857Y-144141009D01*
X211457857Y-144141009D02*
X211505476Y-144045771D01*
X211505476Y-144045771D02*
X211600714Y-143998152D01*
X211600714Y-143998152D02*
X211791190Y-143998152D01*
X211791190Y-143998152D02*
X211886428Y-144045771D01*
X211886428Y-144045771D02*
X211934047Y-144141009D01*
X211934047Y-144141009D02*
X211934047Y-144236247D01*
X211934047Y-144236247D02*
X211457857Y-144331485D01*
X212315000Y-144617200D02*
X212410238Y-144664819D01*
X212410238Y-144664819D02*
X212600714Y-144664819D01*
X212600714Y-144664819D02*
X212695952Y-144617200D01*
X212695952Y-144617200D02*
X212743571Y-144521961D01*
X212743571Y-144521961D02*
X212743571Y-144474342D01*
X212743571Y-144474342D02*
X212695952Y-144379104D01*
X212695952Y-144379104D02*
X212600714Y-144331485D01*
X212600714Y-144331485D02*
X212457857Y-144331485D01*
X212457857Y-144331485D02*
X212362619Y-144283866D01*
X212362619Y-144283866D02*
X212315000Y-144188628D01*
X212315000Y-144188628D02*
X212315000Y-144141009D01*
X212315000Y-144141009D02*
X212362619Y-144045771D01*
X212362619Y-144045771D02*
X212457857Y-143998152D01*
X212457857Y-143998152D02*
X212600714Y-143998152D01*
X212600714Y-143998152D02*
X212695952Y-144045771D01*
X213553095Y-144617200D02*
X213457857Y-144664819D01*
X213457857Y-144664819D02*
X213267381Y-144664819D01*
X213267381Y-144664819D02*
X213172143Y-144617200D01*
X213172143Y-144617200D02*
X213124524Y-144521961D01*
X213124524Y-144521961D02*
X213124524Y-144141009D01*
X213124524Y-144141009D02*
X213172143Y-144045771D01*
X213172143Y-144045771D02*
X213267381Y-143998152D01*
X213267381Y-143998152D02*
X213457857Y-143998152D01*
X213457857Y-143998152D02*
X213553095Y-144045771D01*
X213553095Y-144045771D02*
X213600714Y-144141009D01*
X213600714Y-144141009D02*
X213600714Y-144236247D01*
X213600714Y-144236247D02*
X213124524Y-144331485D01*
X213886429Y-143998152D02*
X214267381Y-143998152D01*
X214029286Y-143664819D02*
X214029286Y-144521961D01*
X214029286Y-144521961D02*
X214076905Y-144617200D01*
X214076905Y-144617200D02*
X214172143Y-144664819D01*
X214172143Y-144664819D02*
X214267381Y-144664819D01*
X221779285Y-93454819D02*
X221207857Y-93454819D01*
X221493571Y-93454819D02*
X221493571Y-92454819D01*
X221493571Y-92454819D02*
X221398333Y-92597676D01*
X221398333Y-92597676D02*
X221303095Y-92692914D01*
X221303095Y-92692914D02*
X221207857Y-92740533D01*
X222207857Y-93454819D02*
X222207857Y-92454819D01*
X222207857Y-92454819D02*
X222541190Y-93169104D01*
X222541190Y-93169104D02*
X222874523Y-92454819D01*
X222874523Y-92454819D02*
X222874523Y-93454819D01*
X223424580Y-140916666D02*
X223472200Y-140964285D01*
X223472200Y-140964285D02*
X223519819Y-141107142D01*
X223519819Y-141107142D02*
X223519819Y-141202380D01*
X223519819Y-141202380D02*
X223472200Y-141345237D01*
X223472200Y-141345237D02*
X223376961Y-141440475D01*
X223376961Y-141440475D02*
X223281723Y-141488094D01*
X223281723Y-141488094D02*
X223091247Y-141535713D01*
X223091247Y-141535713D02*
X222948390Y-141535713D01*
X222948390Y-141535713D02*
X222757914Y-141488094D01*
X222757914Y-141488094D02*
X222662676Y-141440475D01*
X222662676Y-141440475D02*
X222567438Y-141345237D01*
X222567438Y-141345237D02*
X222519819Y-141202380D01*
X222519819Y-141202380D02*
X222519819Y-141107142D01*
X222519819Y-141107142D02*
X222567438Y-140964285D01*
X222567438Y-140964285D02*
X222615057Y-140916666D01*
X222853152Y-140059523D02*
X223519819Y-140059523D01*
X222472200Y-140297618D02*
X223186485Y-140535713D01*
X223186485Y-140535713D02*
X223186485Y-139916666D01*
X218769819Y-140379047D02*
X218769819Y-140950475D01*
X218769819Y-140664761D02*
X217769819Y-140664761D01*
X217769819Y-140664761D02*
X217912676Y-140759999D01*
X217912676Y-140759999D02*
X218007914Y-140855237D01*
X218007914Y-140855237D02*
X218055533Y-140950475D01*
X217769819Y-139759999D02*
X217769819Y-139664761D01*
X217769819Y-139664761D02*
X217817438Y-139569523D01*
X217817438Y-139569523D02*
X217865057Y-139521904D01*
X217865057Y-139521904D02*
X217960295Y-139474285D01*
X217960295Y-139474285D02*
X218150771Y-139426666D01*
X218150771Y-139426666D02*
X218388866Y-139426666D01*
X218388866Y-139426666D02*
X218579342Y-139474285D01*
X218579342Y-139474285D02*
X218674580Y-139521904D01*
X218674580Y-139521904D02*
X218722200Y-139569523D01*
X218722200Y-139569523D02*
X218769819Y-139664761D01*
X218769819Y-139664761D02*
X218769819Y-139759999D01*
X218769819Y-139759999D02*
X218722200Y-139855237D01*
X218722200Y-139855237D02*
X218674580Y-139902856D01*
X218674580Y-139902856D02*
X218579342Y-139950475D01*
X218579342Y-139950475D02*
X218388866Y-139998094D01*
X218388866Y-139998094D02*
X218150771Y-139998094D01*
X218150771Y-139998094D02*
X217960295Y-139950475D01*
X217960295Y-139950475D02*
X217865057Y-139902856D01*
X217865057Y-139902856D02*
X217817438Y-139855237D01*
X217817438Y-139855237D02*
X217769819Y-139759999D01*
X217769819Y-138807618D02*
X217769819Y-138712380D01*
X217769819Y-138712380D02*
X217817438Y-138617142D01*
X217817438Y-138617142D02*
X217865057Y-138569523D01*
X217865057Y-138569523D02*
X217960295Y-138521904D01*
X217960295Y-138521904D02*
X218150771Y-138474285D01*
X218150771Y-138474285D02*
X218388866Y-138474285D01*
X218388866Y-138474285D02*
X218579342Y-138521904D01*
X218579342Y-138521904D02*
X218674580Y-138569523D01*
X218674580Y-138569523D02*
X218722200Y-138617142D01*
X218722200Y-138617142D02*
X218769819Y-138712380D01*
X218769819Y-138712380D02*
X218769819Y-138807618D01*
X218769819Y-138807618D02*
X218722200Y-138902856D01*
X218722200Y-138902856D02*
X218674580Y-138950475D01*
X218674580Y-138950475D02*
X218579342Y-138998094D01*
X218579342Y-138998094D02*
X218388866Y-139045713D01*
X218388866Y-139045713D02*
X218150771Y-139045713D01*
X218150771Y-139045713D02*
X217960295Y-138998094D01*
X217960295Y-138998094D02*
X217865057Y-138950475D01*
X217865057Y-138950475D02*
X217817438Y-138902856D01*
X217817438Y-138902856D02*
X217769819Y-138807618D01*
X218103152Y-138045713D02*
X218769819Y-138045713D01*
X218198390Y-138045713D02*
X218150771Y-137998094D01*
X218150771Y-137998094D02*
X218103152Y-137902856D01*
X218103152Y-137902856D02*
X218103152Y-137759999D01*
X218103152Y-137759999D02*
X218150771Y-137664761D01*
X218150771Y-137664761D02*
X218246009Y-137617142D01*
X218246009Y-137617142D02*
X218769819Y-137617142D01*
D10*
X229386428Y-123290671D02*
X229315000Y-123362100D01*
X229315000Y-123362100D02*
X229100714Y-123433528D01*
X229100714Y-123433528D02*
X228957857Y-123433528D01*
X228957857Y-123433528D02*
X228743571Y-123362100D01*
X228743571Y-123362100D02*
X228600714Y-123219242D01*
X228600714Y-123219242D02*
X228529285Y-123076385D01*
X228529285Y-123076385D02*
X228457857Y-122790671D01*
X228457857Y-122790671D02*
X228457857Y-122576385D01*
X228457857Y-122576385D02*
X228529285Y-122290671D01*
X228529285Y-122290671D02*
X228600714Y-122147814D01*
X228600714Y-122147814D02*
X228743571Y-122004957D01*
X228743571Y-122004957D02*
X228957857Y-121933528D01*
X228957857Y-121933528D02*
X229100714Y-121933528D01*
X229100714Y-121933528D02*
X229315000Y-122004957D01*
X229315000Y-122004957D02*
X229386428Y-122076385D01*
X230029285Y-123433528D02*
X230029285Y-121933528D01*
X230672143Y-123433528D02*
X230672143Y-122647814D01*
X230672143Y-122647814D02*
X230600714Y-122504957D01*
X230600714Y-122504957D02*
X230457857Y-122433528D01*
X230457857Y-122433528D02*
X230243571Y-122433528D01*
X230243571Y-122433528D02*
X230100714Y-122504957D01*
X230100714Y-122504957D02*
X230029285Y-122576385D01*
X232172143Y-123433528D02*
X231315000Y-123433528D01*
X231743571Y-123433528D02*
X231743571Y-121933528D01*
X231743571Y-121933528D02*
X231600714Y-122147814D01*
X231600714Y-122147814D02*
X231457857Y-122290671D01*
X231457857Y-122290671D02*
X231315000Y-122362100D01*
D12*
X214576905Y-135334819D02*
X214576905Y-134334819D01*
X214576905Y-134334819D02*
X214815000Y-134334819D01*
X214815000Y-134334819D02*
X214957857Y-134382438D01*
X214957857Y-134382438D02*
X215053095Y-134477676D01*
X215053095Y-134477676D02*
X215100714Y-134572914D01*
X215100714Y-134572914D02*
X215148333Y-134763390D01*
X215148333Y-134763390D02*
X215148333Y-134906247D01*
X215148333Y-134906247D02*
X215100714Y-135096723D01*
X215100714Y-135096723D02*
X215053095Y-135191961D01*
X215053095Y-135191961D02*
X214957857Y-135287200D01*
X214957857Y-135287200D02*
X214815000Y-135334819D01*
X214815000Y-135334819D02*
X214576905Y-135334819D01*
X216100714Y-135334819D02*
X215529286Y-135334819D01*
X215815000Y-135334819D02*
X215815000Y-134334819D01*
X215815000Y-134334819D02*
X215719762Y-134477676D01*
X215719762Y-134477676D02*
X215624524Y-134572914D01*
X215624524Y-134572914D02*
X215529286Y-134620533D01*
X208862142Y-131094819D02*
X208290714Y-131094819D01*
X208576428Y-131094819D02*
X208576428Y-130094819D01*
X208576428Y-130094819D02*
X208481190Y-130237676D01*
X208481190Y-130237676D02*
X208385952Y-130332914D01*
X208385952Y-130332914D02*
X208290714Y-130380533D01*
X209290714Y-131094819D02*
X209290714Y-130094819D01*
X209290714Y-130094819D02*
X209862142Y-131094819D01*
X209862142Y-131094819D02*
X209862142Y-130094819D01*
X210766904Y-130428152D02*
X210766904Y-131094819D01*
X210528809Y-130047200D02*
X210290714Y-130761485D01*
X210290714Y-130761485D02*
X210909761Y-130761485D01*
X211814523Y-131094819D02*
X211243095Y-131094819D01*
X211528809Y-131094819D02*
X211528809Y-130094819D01*
X211528809Y-130094819D02*
X211433571Y-130237676D01*
X211433571Y-130237676D02*
X211338333Y-130332914D01*
X211338333Y-130332914D02*
X211243095Y-130380533D01*
X212671666Y-130428152D02*
X212671666Y-131094819D01*
X212433571Y-130047200D02*
X212195476Y-130761485D01*
X212195476Y-130761485D02*
X212814523Y-130761485D01*
X213338333Y-130523390D02*
X213243095Y-130475771D01*
X213243095Y-130475771D02*
X213195476Y-130428152D01*
X213195476Y-130428152D02*
X213147857Y-130332914D01*
X213147857Y-130332914D02*
X213147857Y-130285295D01*
X213147857Y-130285295D02*
X213195476Y-130190057D01*
X213195476Y-130190057D02*
X213243095Y-130142438D01*
X213243095Y-130142438D02*
X213338333Y-130094819D01*
X213338333Y-130094819D02*
X213528809Y-130094819D01*
X213528809Y-130094819D02*
X213624047Y-130142438D01*
X213624047Y-130142438D02*
X213671666Y-130190057D01*
X213671666Y-130190057D02*
X213719285Y-130285295D01*
X213719285Y-130285295D02*
X213719285Y-130332914D01*
X213719285Y-130332914D02*
X213671666Y-130428152D01*
X213671666Y-130428152D02*
X213624047Y-130475771D01*
X213624047Y-130475771D02*
X213528809Y-130523390D01*
X213528809Y-130523390D02*
X213338333Y-130523390D01*
X213338333Y-130523390D02*
X213243095Y-130571009D01*
X213243095Y-130571009D02*
X213195476Y-130618628D01*
X213195476Y-130618628D02*
X213147857Y-130713866D01*
X213147857Y-130713866D02*
X213147857Y-130904342D01*
X213147857Y-130904342D02*
X213195476Y-130999580D01*
X213195476Y-130999580D02*
X213243095Y-131047200D01*
X213243095Y-131047200D02*
X213338333Y-131094819D01*
X213338333Y-131094819D02*
X213528809Y-131094819D01*
X213528809Y-131094819D02*
X213624047Y-131047200D01*
X213624047Y-131047200D02*
X213671666Y-130999580D01*
X213671666Y-130999580D02*
X213719285Y-130904342D01*
X213719285Y-130904342D02*
X213719285Y-130713866D01*
X213719285Y-130713866D02*
X213671666Y-130618628D01*
X213671666Y-130618628D02*
X213624047Y-130571009D01*
X213624047Y-130571009D02*
X213528809Y-130523390D01*
X225267381Y-141204819D02*
X225267381Y-140204819D01*
X225267381Y-140204819D02*
X225648333Y-140204819D01*
X225648333Y-140204819D02*
X225743571Y-140252438D01*
X225743571Y-140252438D02*
X225791190Y-140300057D01*
X225791190Y-140300057D02*
X225838809Y-140395295D01*
X225838809Y-140395295D02*
X225838809Y-140538152D01*
X225838809Y-140538152D02*
X225791190Y-140633390D01*
X225791190Y-140633390D02*
X225743571Y-140681009D01*
X225743571Y-140681009D02*
X225648333Y-140728628D01*
X225648333Y-140728628D02*
X225267381Y-140728628D01*
X226172143Y-140204819D02*
X226410238Y-141204819D01*
X226410238Y-141204819D02*
X226600714Y-140490533D01*
X226600714Y-140490533D02*
X226791190Y-141204819D01*
X226791190Y-141204819D02*
X227029286Y-140204819D01*
X227410238Y-141204819D02*
X227410238Y-140204819D01*
X227410238Y-140204819D02*
X227743571Y-140919104D01*
X227743571Y-140919104D02*
X228076904Y-140204819D01*
X228076904Y-140204819D02*
X228076904Y-141204819D01*
X228315000Y-141300057D02*
X229076904Y-141300057D01*
X229505476Y-140204819D02*
X229695952Y-140204819D01*
X229695952Y-140204819D02*
X229791190Y-140252438D01*
X229791190Y-140252438D02*
X229886428Y-140347676D01*
X229886428Y-140347676D02*
X229934047Y-140538152D01*
X229934047Y-140538152D02*
X229934047Y-140871485D01*
X229934047Y-140871485D02*
X229886428Y-141061961D01*
X229886428Y-141061961D02*
X229791190Y-141157200D01*
X229791190Y-141157200D02*
X229695952Y-141204819D01*
X229695952Y-141204819D02*
X229505476Y-141204819D01*
X229505476Y-141204819D02*
X229410238Y-141157200D01*
X229410238Y-141157200D02*
X229315000Y-141061961D01*
X229315000Y-141061961D02*
X229267381Y-140871485D01*
X229267381Y-140871485D02*
X229267381Y-140538152D01*
X229267381Y-140538152D02*
X229315000Y-140347676D01*
X229315000Y-140347676D02*
X229410238Y-140252438D01*
X229410238Y-140252438D02*
X229505476Y-140204819D01*
X230791190Y-140538152D02*
X230791190Y-141204819D01*
X230362619Y-140538152D02*
X230362619Y-141061961D01*
X230362619Y-141061961D02*
X230410238Y-141157200D01*
X230410238Y-141157200D02*
X230505476Y-141204819D01*
X230505476Y-141204819D02*
X230648333Y-141204819D01*
X230648333Y-141204819D02*
X230743571Y-141157200D01*
X230743571Y-141157200D02*
X230791190Y-141109580D01*
X231124524Y-140538152D02*
X231505476Y-140538152D01*
X231267381Y-140204819D02*
X231267381Y-141061961D01*
X231267381Y-141061961D02*
X231315000Y-141157200D01*
X231315000Y-141157200D02*
X231410238Y-141204819D01*
X231410238Y-141204819D02*
X231505476Y-141204819D01*
X204826905Y-95954819D02*
X204826905Y-94954819D01*
X204826905Y-94954819D02*
X205065000Y-94954819D01*
X205065000Y-94954819D02*
X205207857Y-95002438D01*
X205207857Y-95002438D02*
X205303095Y-95097676D01*
X205303095Y-95097676D02*
X205350714Y-95192914D01*
X205350714Y-95192914D02*
X205398333Y-95383390D01*
X205398333Y-95383390D02*
X205398333Y-95526247D01*
X205398333Y-95526247D02*
X205350714Y-95716723D01*
X205350714Y-95716723D02*
X205303095Y-95811961D01*
X205303095Y-95811961D02*
X205207857Y-95907200D01*
X205207857Y-95907200D02*
X205065000Y-95954819D01*
X205065000Y-95954819D02*
X204826905Y-95954819D01*
X206255476Y-95288152D02*
X206255476Y-95954819D01*
X206017381Y-94907200D02*
X205779286Y-95621485D01*
X205779286Y-95621485D02*
X206398333Y-95621485D01*
X204576905Y-100204819D02*
X204576905Y-99204819D01*
X204576905Y-99204819D02*
X204815000Y-99204819D01*
X204815000Y-99204819D02*
X204957857Y-99252438D01*
X204957857Y-99252438D02*
X205053095Y-99347676D01*
X205053095Y-99347676D02*
X205100714Y-99442914D01*
X205100714Y-99442914D02*
X205148333Y-99633390D01*
X205148333Y-99633390D02*
X205148333Y-99776247D01*
X205148333Y-99776247D02*
X205100714Y-99966723D01*
X205100714Y-99966723D02*
X205053095Y-100061961D01*
X205053095Y-100061961D02*
X204957857Y-100157200D01*
X204957857Y-100157200D02*
X204815000Y-100204819D01*
X204815000Y-100204819D02*
X204576905Y-100204819D01*
X205481667Y-99204819D02*
X206100714Y-99204819D01*
X206100714Y-99204819D02*
X205767381Y-99585771D01*
X205767381Y-99585771D02*
X205910238Y-99585771D01*
X205910238Y-99585771D02*
X206005476Y-99633390D01*
X206005476Y-99633390D02*
X206053095Y-99681009D01*
X206053095Y-99681009D02*
X206100714Y-99776247D01*
X206100714Y-99776247D02*
X206100714Y-100014342D01*
X206100714Y-100014342D02*
X206053095Y-100109580D01*
X206053095Y-100109580D02*
X206005476Y-100157200D01*
X206005476Y-100157200D02*
X205910238Y-100204819D01*
X205910238Y-100204819D02*
X205624524Y-100204819D01*
X205624524Y-100204819D02*
X205529286Y-100157200D01*
X205529286Y-100157200D02*
X205481667Y-100109580D01*
X209172142Y-98094819D02*
X208600714Y-98094819D01*
X208886428Y-98094819D02*
X208886428Y-97094819D01*
X208886428Y-97094819D02*
X208791190Y-97237676D01*
X208791190Y-97237676D02*
X208695952Y-97332914D01*
X208695952Y-97332914D02*
X208600714Y-97380533D01*
X209600714Y-98094819D02*
X209600714Y-97094819D01*
X209600714Y-97094819D02*
X210172142Y-98094819D01*
X210172142Y-98094819D02*
X210172142Y-97094819D01*
X211076904Y-97428152D02*
X211076904Y-98094819D01*
X210838809Y-97047200D02*
X210600714Y-97761485D01*
X210600714Y-97761485D02*
X211219761Y-97761485D01*
X212124523Y-98094819D02*
X211553095Y-98094819D01*
X211838809Y-98094819D02*
X211838809Y-97094819D01*
X211838809Y-97094819D02*
X211743571Y-97237676D01*
X211743571Y-97237676D02*
X211648333Y-97332914D01*
X211648333Y-97332914D02*
X211553095Y-97380533D01*
X212981666Y-97428152D02*
X212981666Y-98094819D01*
X212743571Y-97047200D02*
X212505476Y-97761485D01*
X212505476Y-97761485D02*
X213124523Y-97761485D01*
X213648333Y-97523390D02*
X213553095Y-97475771D01*
X213553095Y-97475771D02*
X213505476Y-97428152D01*
X213505476Y-97428152D02*
X213457857Y-97332914D01*
X213457857Y-97332914D02*
X213457857Y-97285295D01*
X213457857Y-97285295D02*
X213505476Y-97190057D01*
X213505476Y-97190057D02*
X213553095Y-97142438D01*
X213553095Y-97142438D02*
X213648333Y-97094819D01*
X213648333Y-97094819D02*
X213838809Y-97094819D01*
X213838809Y-97094819D02*
X213934047Y-97142438D01*
X213934047Y-97142438D02*
X213981666Y-97190057D01*
X213981666Y-97190057D02*
X214029285Y-97285295D01*
X214029285Y-97285295D02*
X214029285Y-97332914D01*
X214029285Y-97332914D02*
X213981666Y-97428152D01*
X213981666Y-97428152D02*
X213934047Y-97475771D01*
X213934047Y-97475771D02*
X213838809Y-97523390D01*
X213838809Y-97523390D02*
X213648333Y-97523390D01*
X213648333Y-97523390D02*
X213553095Y-97571009D01*
X213553095Y-97571009D02*
X213505476Y-97618628D01*
X213505476Y-97618628D02*
X213457857Y-97713866D01*
X213457857Y-97713866D02*
X213457857Y-97904342D01*
X213457857Y-97904342D02*
X213505476Y-97999580D01*
X213505476Y-97999580D02*
X213553095Y-98047200D01*
X213553095Y-98047200D02*
X213648333Y-98094819D01*
X213648333Y-98094819D02*
X213838809Y-98094819D01*
X213838809Y-98094819D02*
X213934047Y-98047200D01*
X213934047Y-98047200D02*
X213981666Y-97999580D01*
X213981666Y-97999580D02*
X214029285Y-97904342D01*
X214029285Y-97904342D02*
X214029285Y-97713866D01*
X214029285Y-97713866D02*
X213981666Y-97618628D01*
X213981666Y-97618628D02*
X213934047Y-97571009D01*
X213934047Y-97571009D02*
X213838809Y-97523390D01*
D10*
X229386428Y-105040671D02*
X229315000Y-105112100D01*
X229315000Y-105112100D02*
X229100714Y-105183528D01*
X229100714Y-105183528D02*
X228957857Y-105183528D01*
X228957857Y-105183528D02*
X228743571Y-105112100D01*
X228743571Y-105112100D02*
X228600714Y-104969242D01*
X228600714Y-104969242D02*
X228529285Y-104826385D01*
X228529285Y-104826385D02*
X228457857Y-104540671D01*
X228457857Y-104540671D02*
X228457857Y-104326385D01*
X228457857Y-104326385D02*
X228529285Y-104040671D01*
X228529285Y-104040671D02*
X228600714Y-103897814D01*
X228600714Y-103897814D02*
X228743571Y-103754957D01*
X228743571Y-103754957D02*
X228957857Y-103683528D01*
X228957857Y-103683528D02*
X229100714Y-103683528D01*
X229100714Y-103683528D02*
X229315000Y-103754957D01*
X229315000Y-103754957D02*
X229386428Y-103826385D01*
X230029285Y-105183528D02*
X230029285Y-103683528D01*
X230672143Y-105183528D02*
X230672143Y-104397814D01*
X230672143Y-104397814D02*
X230600714Y-104254957D01*
X230600714Y-104254957D02*
X230457857Y-104183528D01*
X230457857Y-104183528D02*
X230243571Y-104183528D01*
X230243571Y-104183528D02*
X230100714Y-104254957D01*
X230100714Y-104254957D02*
X230029285Y-104326385D01*
X231315000Y-103826385D02*
X231386428Y-103754957D01*
X231386428Y-103754957D02*
X231529286Y-103683528D01*
X231529286Y-103683528D02*
X231886428Y-103683528D01*
X231886428Y-103683528D02*
X232029286Y-103754957D01*
X232029286Y-103754957D02*
X232100714Y-103826385D01*
X232100714Y-103826385D02*
X232172143Y-103969242D01*
X232172143Y-103969242D02*
X232172143Y-104112100D01*
X232172143Y-104112100D02*
X232100714Y-104326385D01*
X232100714Y-104326385D02*
X231243571Y-105183528D01*
X231243571Y-105183528D02*
X232172143Y-105183528D01*
D12*
X172204381Y-89370819D02*
X172537714Y-90370819D01*
X172537714Y-90370819D02*
X172871047Y-89370819D01*
X173537714Y-89847009D02*
X173680571Y-89894628D01*
X173680571Y-89894628D02*
X173728190Y-89942247D01*
X173728190Y-89942247D02*
X173775809Y-90037485D01*
X173775809Y-90037485D02*
X173775809Y-90180342D01*
X173775809Y-90180342D02*
X173728190Y-90275580D01*
X173728190Y-90275580D02*
X173680571Y-90323200D01*
X173680571Y-90323200D02*
X173585333Y-90370819D01*
X173585333Y-90370819D02*
X173204381Y-90370819D01*
X173204381Y-90370819D02*
X173204381Y-89370819D01*
X173204381Y-89370819D02*
X173537714Y-89370819D01*
X173537714Y-89370819D02*
X173632952Y-89418438D01*
X173632952Y-89418438D02*
X173680571Y-89466057D01*
X173680571Y-89466057D02*
X173728190Y-89561295D01*
X173728190Y-89561295D02*
X173728190Y-89656533D01*
X173728190Y-89656533D02*
X173680571Y-89751771D01*
X173680571Y-89751771D02*
X173632952Y-89799390D01*
X173632952Y-89799390D02*
X173537714Y-89847009D01*
X173537714Y-89847009D02*
X173204381Y-89847009D01*
X173966286Y-90466057D02*
X174728190Y-90466057D01*
X174918667Y-90323200D02*
X175061524Y-90370819D01*
X175061524Y-90370819D02*
X175299619Y-90370819D01*
X175299619Y-90370819D02*
X175394857Y-90323200D01*
X175394857Y-90323200D02*
X175442476Y-90275580D01*
X175442476Y-90275580D02*
X175490095Y-90180342D01*
X175490095Y-90180342D02*
X175490095Y-90085104D01*
X175490095Y-90085104D02*
X175442476Y-89989866D01*
X175442476Y-89989866D02*
X175394857Y-89942247D01*
X175394857Y-89942247D02*
X175299619Y-89894628D01*
X175299619Y-89894628D02*
X175109143Y-89847009D01*
X175109143Y-89847009D02*
X175013905Y-89799390D01*
X175013905Y-89799390D02*
X174966286Y-89751771D01*
X174966286Y-89751771D02*
X174918667Y-89656533D01*
X174918667Y-89656533D02*
X174918667Y-89561295D01*
X174918667Y-89561295D02*
X174966286Y-89466057D01*
X174966286Y-89466057D02*
X175013905Y-89418438D01*
X175013905Y-89418438D02*
X175109143Y-89370819D01*
X175109143Y-89370819D02*
X175347238Y-89370819D01*
X175347238Y-89370819D02*
X175490095Y-89418438D01*
X175918667Y-89847009D02*
X176252000Y-89847009D01*
X176394857Y-90370819D02*
X175918667Y-90370819D01*
X175918667Y-90370819D02*
X175918667Y-89370819D01*
X175918667Y-89370819D02*
X176394857Y-89370819D01*
X177299619Y-90370819D02*
X176823429Y-90370819D01*
X176823429Y-90370819D02*
X176823429Y-89370819D01*
X206639819Y-114016904D02*
X207449342Y-114016904D01*
X207449342Y-114016904D02*
X207544580Y-113969285D01*
X207544580Y-113969285D02*
X207592200Y-113921666D01*
X207592200Y-113921666D02*
X207639819Y-113826428D01*
X207639819Y-113826428D02*
X207639819Y-113635952D01*
X207639819Y-113635952D02*
X207592200Y-113540714D01*
X207592200Y-113540714D02*
X207544580Y-113493095D01*
X207544580Y-113493095D02*
X207449342Y-113445476D01*
X207449342Y-113445476D02*
X206639819Y-113445476D01*
X206639819Y-113064523D02*
X206639819Y-112445476D01*
X206639819Y-112445476D02*
X207020771Y-112778809D01*
X207020771Y-112778809D02*
X207020771Y-112635952D01*
X207020771Y-112635952D02*
X207068390Y-112540714D01*
X207068390Y-112540714D02*
X207116009Y-112493095D01*
X207116009Y-112493095D02*
X207211247Y-112445476D01*
X207211247Y-112445476D02*
X207449342Y-112445476D01*
X207449342Y-112445476D02*
X207544580Y-112493095D01*
X207544580Y-112493095D02*
X207592200Y-112540714D01*
X207592200Y-112540714D02*
X207639819Y-112635952D01*
X207639819Y-112635952D02*
X207639819Y-112921666D01*
X207639819Y-112921666D02*
X207592200Y-113016904D01*
X207592200Y-113016904D02*
X207544580Y-113064523D01*
X219919819Y-118588332D02*
X218919819Y-118588332D01*
X218919819Y-118588332D02*
X219634104Y-118254999D01*
X219634104Y-118254999D02*
X218919819Y-117921666D01*
X218919819Y-117921666D02*
X219919819Y-117921666D01*
X219824580Y-116874047D02*
X219872200Y-116921666D01*
X219872200Y-116921666D02*
X219919819Y-117064523D01*
X219919819Y-117064523D02*
X219919819Y-117159761D01*
X219919819Y-117159761D02*
X219872200Y-117302618D01*
X219872200Y-117302618D02*
X219776961Y-117397856D01*
X219776961Y-117397856D02*
X219681723Y-117445475D01*
X219681723Y-117445475D02*
X219491247Y-117493094D01*
X219491247Y-117493094D02*
X219348390Y-117493094D01*
X219348390Y-117493094D02*
X219157914Y-117445475D01*
X219157914Y-117445475D02*
X219062676Y-117397856D01*
X219062676Y-117397856D02*
X218967438Y-117302618D01*
X218967438Y-117302618D02*
X218919819Y-117159761D01*
X218919819Y-117159761D02*
X218919819Y-117064523D01*
X218919819Y-117064523D02*
X218967438Y-116921666D01*
X218967438Y-116921666D02*
X219015057Y-116874047D01*
X219919819Y-116445475D02*
X218919819Y-116445475D01*
X218919819Y-116445475D02*
X218919819Y-116064523D01*
X218919819Y-116064523D02*
X218967438Y-115969285D01*
X218967438Y-115969285D02*
X219015057Y-115921666D01*
X219015057Y-115921666D02*
X219110295Y-115874047D01*
X219110295Y-115874047D02*
X219253152Y-115874047D01*
X219253152Y-115874047D02*
X219348390Y-115921666D01*
X219348390Y-115921666D02*
X219396009Y-115969285D01*
X219396009Y-115969285D02*
X219443628Y-116064523D01*
X219443628Y-116064523D02*
X219443628Y-116445475D01*
X218919819Y-115016904D02*
X218919819Y-115207380D01*
X218919819Y-115207380D02*
X218967438Y-115302618D01*
X218967438Y-115302618D02*
X219015057Y-115350237D01*
X219015057Y-115350237D02*
X219157914Y-115445475D01*
X219157914Y-115445475D02*
X219348390Y-115493094D01*
X219348390Y-115493094D02*
X219729342Y-115493094D01*
X219729342Y-115493094D02*
X219824580Y-115445475D01*
X219824580Y-115445475D02*
X219872200Y-115397856D01*
X219872200Y-115397856D02*
X219919819Y-115302618D01*
X219919819Y-115302618D02*
X219919819Y-115112142D01*
X219919819Y-115112142D02*
X219872200Y-115016904D01*
X219872200Y-115016904D02*
X219824580Y-114969285D01*
X219824580Y-114969285D02*
X219729342Y-114921666D01*
X219729342Y-114921666D02*
X219491247Y-114921666D01*
X219491247Y-114921666D02*
X219396009Y-114969285D01*
X219396009Y-114969285D02*
X219348390Y-115016904D01*
X219348390Y-115016904D02*
X219300771Y-115112142D01*
X219300771Y-115112142D02*
X219300771Y-115302618D01*
X219300771Y-115302618D02*
X219348390Y-115397856D01*
X219348390Y-115397856D02*
X219396009Y-115445475D01*
X219396009Y-115445475D02*
X219491247Y-115493094D01*
X218919819Y-114302618D02*
X218919819Y-114207380D01*
X218919819Y-114207380D02*
X218967438Y-114112142D01*
X218967438Y-114112142D02*
X219015057Y-114064523D01*
X219015057Y-114064523D02*
X219110295Y-114016904D01*
X219110295Y-114016904D02*
X219300771Y-113969285D01*
X219300771Y-113969285D02*
X219538866Y-113969285D01*
X219538866Y-113969285D02*
X219729342Y-114016904D01*
X219729342Y-114016904D02*
X219824580Y-114064523D01*
X219824580Y-114064523D02*
X219872200Y-114112142D01*
X219872200Y-114112142D02*
X219919819Y-114207380D01*
X219919819Y-114207380D02*
X219919819Y-114302618D01*
X219919819Y-114302618D02*
X219872200Y-114397856D01*
X219872200Y-114397856D02*
X219824580Y-114445475D01*
X219824580Y-114445475D02*
X219729342Y-114493094D01*
X219729342Y-114493094D02*
X219538866Y-114540713D01*
X219538866Y-114540713D02*
X219300771Y-114540713D01*
X219300771Y-114540713D02*
X219110295Y-114493094D01*
X219110295Y-114493094D02*
X219015057Y-114445475D01*
X219015057Y-114445475D02*
X218967438Y-114397856D01*
X218967438Y-114397856D02*
X218919819Y-114302618D01*
X218919819Y-113350237D02*
X218919819Y-113254999D01*
X218919819Y-113254999D02*
X218967438Y-113159761D01*
X218967438Y-113159761D02*
X219015057Y-113112142D01*
X219015057Y-113112142D02*
X219110295Y-113064523D01*
X219110295Y-113064523D02*
X219300771Y-113016904D01*
X219300771Y-113016904D02*
X219538866Y-113016904D01*
X219538866Y-113016904D02*
X219729342Y-113064523D01*
X219729342Y-113064523D02*
X219824580Y-113112142D01*
X219824580Y-113112142D02*
X219872200Y-113159761D01*
X219872200Y-113159761D02*
X219919819Y-113254999D01*
X219919819Y-113254999D02*
X219919819Y-113350237D01*
X219919819Y-113350237D02*
X219872200Y-113445475D01*
X219872200Y-113445475D02*
X219824580Y-113493094D01*
X219824580Y-113493094D02*
X219729342Y-113540713D01*
X219729342Y-113540713D02*
X219538866Y-113588332D01*
X219538866Y-113588332D02*
X219300771Y-113588332D01*
X219300771Y-113588332D02*
X219110295Y-113540713D01*
X219110295Y-113540713D02*
X219015057Y-113493094D01*
X219015057Y-113493094D02*
X218967438Y-113445475D01*
X218967438Y-113445475D02*
X218919819Y-113350237D01*
X219015057Y-112635951D02*
X218967438Y-112588332D01*
X218967438Y-112588332D02*
X218919819Y-112493094D01*
X218919819Y-112493094D02*
X218919819Y-112254999D01*
X218919819Y-112254999D02*
X218967438Y-112159761D01*
X218967438Y-112159761D02*
X219015057Y-112112142D01*
X219015057Y-112112142D02*
X219110295Y-112064523D01*
X219110295Y-112064523D02*
X219205533Y-112064523D01*
X219205533Y-112064523D02*
X219348390Y-112112142D01*
X219348390Y-112112142D02*
X219919819Y-112683570D01*
X219919819Y-112683570D02*
X219919819Y-112064523D01*
X219538866Y-111635951D02*
X219538866Y-110874047D01*
X219919819Y-110493094D02*
X219253152Y-109969285D01*
X219253152Y-110493094D02*
X219919819Y-109969285D01*
X219919819Y-109588332D02*
X218919819Y-109588332D01*
X218919819Y-109588332D02*
X219634104Y-109254999D01*
X219634104Y-109254999D02*
X218919819Y-108921666D01*
X218919819Y-108921666D02*
X219919819Y-108921666D01*
X219824580Y-107874047D02*
X219872200Y-107921666D01*
X219872200Y-107921666D02*
X219919819Y-108064523D01*
X219919819Y-108064523D02*
X219919819Y-108159761D01*
X219919819Y-108159761D02*
X219872200Y-108302618D01*
X219872200Y-108302618D02*
X219776961Y-108397856D01*
X219776961Y-108397856D02*
X219681723Y-108445475D01*
X219681723Y-108445475D02*
X219491247Y-108493094D01*
X219491247Y-108493094D02*
X219348390Y-108493094D01*
X219348390Y-108493094D02*
X219157914Y-108445475D01*
X219157914Y-108445475D02*
X219062676Y-108397856D01*
X219062676Y-108397856D02*
X218967438Y-108302618D01*
X218967438Y-108302618D02*
X218919819Y-108159761D01*
X218919819Y-108159761D02*
X218919819Y-108064523D01*
X218919819Y-108064523D02*
X218967438Y-107921666D01*
X218967438Y-107921666D02*
X219015057Y-107874047D01*
X174498095Y-125482819D02*
X174498095Y-126292342D01*
X174498095Y-126292342D02*
X174545714Y-126387580D01*
X174545714Y-126387580D02*
X174593333Y-126435200D01*
X174593333Y-126435200D02*
X174688571Y-126482819D01*
X174688571Y-126482819D02*
X174879047Y-126482819D01*
X174879047Y-126482819D02*
X174974285Y-126435200D01*
X174974285Y-126435200D02*
X175021904Y-126387580D01*
X175021904Y-126387580D02*
X175069523Y-126292342D01*
X175069523Y-126292342D02*
X175069523Y-125482819D01*
X176069523Y-126482819D02*
X175498095Y-126482819D01*
X175783809Y-126482819D02*
X175783809Y-125482819D01*
X175783809Y-125482819D02*
X175688571Y-125625676D01*
X175688571Y-125625676D02*
X175593333Y-125720914D01*
X175593333Y-125720914D02*
X175498095Y-125768533D01*
X209398333Y-102954819D02*
X209065000Y-102478628D01*
X208826905Y-102954819D02*
X208826905Y-101954819D01*
X208826905Y-101954819D02*
X209207857Y-101954819D01*
X209207857Y-101954819D02*
X209303095Y-102002438D01*
X209303095Y-102002438D02*
X209350714Y-102050057D01*
X209350714Y-102050057D02*
X209398333Y-102145295D01*
X209398333Y-102145295D02*
X209398333Y-102288152D01*
X209398333Y-102288152D02*
X209350714Y-102383390D01*
X209350714Y-102383390D02*
X209303095Y-102431009D01*
X209303095Y-102431009D02*
X209207857Y-102478628D01*
X209207857Y-102478628D02*
X208826905Y-102478628D01*
X210255476Y-102288152D02*
X210255476Y-102954819D01*
X210017381Y-101907200D02*
X209779286Y-102621485D01*
X209779286Y-102621485D02*
X210398333Y-102621485D01*
X212648333Y-102954819D02*
X212076905Y-102954819D01*
X212362619Y-102954819D02*
X212362619Y-101954819D01*
X212362619Y-101954819D02*
X212267381Y-102097676D01*
X212267381Y-102097676D02*
X212172143Y-102192914D01*
X212172143Y-102192914D02*
X212076905Y-102240533D01*
X213267381Y-101954819D02*
X213362619Y-101954819D01*
X213362619Y-101954819D02*
X213457857Y-102002438D01*
X213457857Y-102002438D02*
X213505476Y-102050057D01*
X213505476Y-102050057D02*
X213553095Y-102145295D01*
X213553095Y-102145295D02*
X213600714Y-102335771D01*
X213600714Y-102335771D02*
X213600714Y-102573866D01*
X213600714Y-102573866D02*
X213553095Y-102764342D01*
X213553095Y-102764342D02*
X213505476Y-102859580D01*
X213505476Y-102859580D02*
X213457857Y-102907200D01*
X213457857Y-102907200D02*
X213362619Y-102954819D01*
X213362619Y-102954819D02*
X213267381Y-102954819D01*
X213267381Y-102954819D02*
X213172143Y-102907200D01*
X213172143Y-102907200D02*
X213124524Y-102859580D01*
X213124524Y-102859580D02*
X213076905Y-102764342D01*
X213076905Y-102764342D02*
X213029286Y-102573866D01*
X213029286Y-102573866D02*
X213029286Y-102335771D01*
X213029286Y-102335771D02*
X213076905Y-102145295D01*
X213076905Y-102145295D02*
X213124524Y-102050057D01*
X213124524Y-102050057D02*
X213172143Y-102002438D01*
X213172143Y-102002438D02*
X213267381Y-101954819D01*
X214219762Y-101954819D02*
X214315000Y-101954819D01*
X214315000Y-101954819D02*
X214410238Y-102002438D01*
X214410238Y-102002438D02*
X214457857Y-102050057D01*
X214457857Y-102050057D02*
X214505476Y-102145295D01*
X214505476Y-102145295D02*
X214553095Y-102335771D01*
X214553095Y-102335771D02*
X214553095Y-102573866D01*
X214553095Y-102573866D02*
X214505476Y-102764342D01*
X214505476Y-102764342D02*
X214457857Y-102859580D01*
X214457857Y-102859580D02*
X214410238Y-102907200D01*
X214410238Y-102907200D02*
X214315000Y-102954819D01*
X214315000Y-102954819D02*
X214219762Y-102954819D01*
X214219762Y-102954819D02*
X214124524Y-102907200D01*
X214124524Y-102907200D02*
X214076905Y-102859580D01*
X214076905Y-102859580D02*
X214029286Y-102764342D01*
X214029286Y-102764342D02*
X213981667Y-102573866D01*
X213981667Y-102573866D02*
X213981667Y-102335771D01*
X213981667Y-102335771D02*
X214029286Y-102145295D01*
X214029286Y-102145295D02*
X214076905Y-102050057D01*
X214076905Y-102050057D02*
X214124524Y-102002438D01*
X214124524Y-102002438D02*
X214219762Y-101954819D01*
X190651779Y-121454819D02*
X190651779Y-122264342D01*
X190651779Y-122264342D02*
X190699398Y-122359580D01*
X190699398Y-122359580D02*
X190747017Y-122407200D01*
X190747017Y-122407200D02*
X190842255Y-122454819D01*
X190842255Y-122454819D02*
X191032731Y-122454819D01*
X191032731Y-122454819D02*
X191127969Y-122407200D01*
X191127969Y-122407200D02*
X191175588Y-122359580D01*
X191175588Y-122359580D02*
X191223207Y-122264342D01*
X191223207Y-122264342D02*
X191223207Y-121454819D01*
X191651779Y-121550057D02*
X191699398Y-121502438D01*
X191699398Y-121502438D02*
X191794636Y-121454819D01*
X191794636Y-121454819D02*
X192032731Y-121454819D01*
X192032731Y-121454819D02*
X192127969Y-121502438D01*
X192127969Y-121502438D02*
X192175588Y-121550057D01*
X192175588Y-121550057D02*
X192223207Y-121645295D01*
X192223207Y-121645295D02*
X192223207Y-121740533D01*
X192223207Y-121740533D02*
X192175588Y-121883390D01*
X192175588Y-121883390D02*
X191604160Y-122454819D01*
X191604160Y-122454819D02*
X192223207Y-122454819D01*
X190324048Y-119704819D02*
X190324048Y-118704819D01*
X190324048Y-118704819D02*
X190705000Y-118704819D01*
X190705000Y-118704819D02*
X190800238Y-118752438D01*
X190800238Y-118752438D02*
X190847857Y-118800057D01*
X190847857Y-118800057D02*
X190895476Y-118895295D01*
X190895476Y-118895295D02*
X190895476Y-119038152D01*
X190895476Y-119038152D02*
X190847857Y-119133390D01*
X190847857Y-119133390D02*
X190800238Y-119181009D01*
X190800238Y-119181009D02*
X190705000Y-119228628D01*
X190705000Y-119228628D02*
X190324048Y-119228628D01*
X191324048Y-119704819D02*
X191324048Y-119038152D01*
X191324048Y-118704819D02*
X191276429Y-118752438D01*
X191276429Y-118752438D02*
X191324048Y-118800057D01*
X191324048Y-118800057D02*
X191371667Y-118752438D01*
X191371667Y-118752438D02*
X191324048Y-118704819D01*
X191324048Y-118704819D02*
X191324048Y-118800057D01*
X192228809Y-119657200D02*
X192133571Y-119704819D01*
X192133571Y-119704819D02*
X191943095Y-119704819D01*
X191943095Y-119704819D02*
X191847857Y-119657200D01*
X191847857Y-119657200D02*
X191800238Y-119609580D01*
X191800238Y-119609580D02*
X191752619Y-119514342D01*
X191752619Y-119514342D02*
X191752619Y-119228628D01*
X191752619Y-119228628D02*
X191800238Y-119133390D01*
X191800238Y-119133390D02*
X191847857Y-119085771D01*
X191847857Y-119085771D02*
X191943095Y-119038152D01*
X191943095Y-119038152D02*
X192133571Y-119038152D01*
X192133571Y-119038152D02*
X192228809Y-119085771D01*
X192800238Y-119704819D02*
X192705000Y-119657200D01*
X192705000Y-119657200D02*
X192657381Y-119609580D01*
X192657381Y-119609580D02*
X192609762Y-119514342D01*
X192609762Y-119514342D02*
X192609762Y-119228628D01*
X192609762Y-119228628D02*
X192657381Y-119133390D01*
X192657381Y-119133390D02*
X192705000Y-119085771D01*
X192705000Y-119085771D02*
X192800238Y-119038152D01*
X192800238Y-119038152D02*
X192943095Y-119038152D01*
X192943095Y-119038152D02*
X193038333Y-119085771D01*
X193038333Y-119085771D02*
X193085952Y-119133390D01*
X193085952Y-119133390D02*
X193133571Y-119228628D01*
X193133571Y-119228628D02*
X193133571Y-119514342D01*
X193133571Y-119514342D02*
X193085952Y-119609580D01*
X193085952Y-119609580D02*
X193038333Y-119657200D01*
X193038333Y-119657200D02*
X192943095Y-119704819D01*
X192943095Y-119704819D02*
X192800238Y-119704819D01*
X171882666Y-127500819D02*
X171882666Y-128215104D01*
X171882666Y-128215104D02*
X171835047Y-128357961D01*
X171835047Y-128357961D02*
X171739809Y-128453200D01*
X171739809Y-128453200D02*
X171596952Y-128500819D01*
X171596952Y-128500819D02*
X171501714Y-128500819D01*
X172787428Y-127500819D02*
X172596952Y-127500819D01*
X172596952Y-127500819D02*
X172501714Y-127548438D01*
X172501714Y-127548438D02*
X172454095Y-127596057D01*
X172454095Y-127596057D02*
X172358857Y-127738914D01*
X172358857Y-127738914D02*
X172311238Y-127929390D01*
X172311238Y-127929390D02*
X172311238Y-128310342D01*
X172311238Y-128310342D02*
X172358857Y-128405580D01*
X172358857Y-128405580D02*
X172406476Y-128453200D01*
X172406476Y-128453200D02*
X172501714Y-128500819D01*
X172501714Y-128500819D02*
X172692190Y-128500819D01*
X172692190Y-128500819D02*
X172787428Y-128453200D01*
X172787428Y-128453200D02*
X172835047Y-128405580D01*
X172835047Y-128405580D02*
X172882666Y-128310342D01*
X172882666Y-128310342D02*
X172882666Y-128072247D01*
X172882666Y-128072247D02*
X172835047Y-127977009D01*
X172835047Y-127977009D02*
X172787428Y-127929390D01*
X172787428Y-127929390D02*
X172692190Y-127881771D01*
X172692190Y-127881771D02*
X172501714Y-127881771D01*
X172501714Y-127881771D02*
X172406476Y-127929390D01*
X172406476Y-127929390D02*
X172358857Y-127977009D01*
X172358857Y-127977009D02*
X172311238Y-128072247D01*
D10*
X163146471Y-132049143D02*
X163146471Y-131334857D01*
X163146471Y-131334857D02*
X164646471Y-131334857D01*
X163146471Y-132763429D02*
X163217900Y-132620572D01*
X163217900Y-132620572D02*
X163289328Y-132549143D01*
X163289328Y-132549143D02*
X163432185Y-132477715D01*
X163432185Y-132477715D02*
X163860757Y-132477715D01*
X163860757Y-132477715D02*
X164003614Y-132549143D01*
X164003614Y-132549143D02*
X164075042Y-132620572D01*
X164075042Y-132620572D02*
X164146471Y-132763429D01*
X164146471Y-132763429D02*
X164146471Y-132977715D01*
X164146471Y-132977715D02*
X164075042Y-133120572D01*
X164075042Y-133120572D02*
X164003614Y-133192001D01*
X164003614Y-133192001D02*
X163860757Y-133263429D01*
X163860757Y-133263429D02*
X163432185Y-133263429D01*
X163432185Y-133263429D02*
X163289328Y-133192001D01*
X163289328Y-133192001D02*
X163217900Y-133120572D01*
X163217900Y-133120572D02*
X163146471Y-132977715D01*
X163146471Y-132977715D02*
X163146471Y-132763429D01*
X164146471Y-134549144D02*
X162932185Y-134549144D01*
X162932185Y-134549144D02*
X162789328Y-134477715D01*
X162789328Y-134477715D02*
X162717900Y-134406286D01*
X162717900Y-134406286D02*
X162646471Y-134263429D01*
X162646471Y-134263429D02*
X162646471Y-134049144D01*
X162646471Y-134049144D02*
X162717900Y-133906286D01*
X163217900Y-134549144D02*
X163146471Y-134406286D01*
X163146471Y-134406286D02*
X163146471Y-134120572D01*
X163146471Y-134120572D02*
X163217900Y-133977715D01*
X163217900Y-133977715D02*
X163289328Y-133906286D01*
X163289328Y-133906286D02*
X163432185Y-133834858D01*
X163432185Y-133834858D02*
X163860757Y-133834858D01*
X163860757Y-133834858D02*
X164003614Y-133906286D01*
X164003614Y-133906286D02*
X164075042Y-133977715D01*
X164075042Y-133977715D02*
X164146471Y-134120572D01*
X164146471Y-134120572D02*
X164146471Y-134406286D01*
X164146471Y-134406286D02*
X164075042Y-134549144D01*
X163146471Y-135263429D02*
X164146471Y-135263429D01*
X164646471Y-135263429D02*
X164575042Y-135192001D01*
X164575042Y-135192001D02*
X164503614Y-135263429D01*
X164503614Y-135263429D02*
X164575042Y-135334858D01*
X164575042Y-135334858D02*
X164646471Y-135263429D01*
X164646471Y-135263429D02*
X164503614Y-135263429D01*
X163217900Y-136620573D02*
X163146471Y-136477715D01*
X163146471Y-136477715D02*
X163146471Y-136192001D01*
X163146471Y-136192001D02*
X163217900Y-136049144D01*
X163217900Y-136049144D02*
X163289328Y-135977715D01*
X163289328Y-135977715D02*
X163432185Y-135906287D01*
X163432185Y-135906287D02*
X163860757Y-135906287D01*
X163860757Y-135906287D02*
X164003614Y-135977715D01*
X164003614Y-135977715D02*
X164075042Y-136049144D01*
X164075042Y-136049144D02*
X164146471Y-136192001D01*
X164146471Y-136192001D02*
X164146471Y-136477715D01*
X164146471Y-136477715D02*
X164075042Y-136620573D01*
X163575042Y-138334858D02*
X163575042Y-139049144D01*
X163146471Y-138192001D02*
X164646471Y-138692001D01*
X164646471Y-138692001D02*
X163146471Y-139192001D01*
X164146471Y-139692000D02*
X163146471Y-139692000D01*
X164003614Y-139692000D02*
X164075042Y-139763429D01*
X164075042Y-139763429D02*
X164146471Y-139906286D01*
X164146471Y-139906286D02*
X164146471Y-140120572D01*
X164146471Y-140120572D02*
X164075042Y-140263429D01*
X164075042Y-140263429D02*
X163932185Y-140334858D01*
X163932185Y-140334858D02*
X163146471Y-140334858D01*
X163146471Y-141692001D02*
X163932185Y-141692001D01*
X163932185Y-141692001D02*
X164075042Y-141620572D01*
X164075042Y-141620572D02*
X164146471Y-141477715D01*
X164146471Y-141477715D02*
X164146471Y-141192001D01*
X164146471Y-141192001D02*
X164075042Y-141049143D01*
X163217900Y-141692001D02*
X163146471Y-141549143D01*
X163146471Y-141549143D02*
X163146471Y-141192001D01*
X163146471Y-141192001D02*
X163217900Y-141049143D01*
X163217900Y-141049143D02*
X163360757Y-140977715D01*
X163360757Y-140977715D02*
X163503614Y-140977715D01*
X163503614Y-140977715D02*
X163646471Y-141049143D01*
X163646471Y-141049143D02*
X163717900Y-141192001D01*
X163717900Y-141192001D02*
X163717900Y-141549143D01*
X163717900Y-141549143D02*
X163789328Y-141692001D01*
X163146471Y-142620572D02*
X163217900Y-142477715D01*
X163217900Y-142477715D02*
X163360757Y-142406286D01*
X163360757Y-142406286D02*
X164646471Y-142406286D01*
X164146471Y-143049143D02*
X163146471Y-143406286D01*
X164146471Y-143763429D02*
X163146471Y-143406286D01*
X163146471Y-143406286D02*
X162789328Y-143263429D01*
X162789328Y-143263429D02*
X162717900Y-143192000D01*
X162717900Y-143192000D02*
X162646471Y-143049143D01*
X164146471Y-144192000D02*
X164146471Y-144977715D01*
X164146471Y-144977715D02*
X163146471Y-144192000D01*
X163146471Y-144192000D02*
X163146471Y-144977715D01*
X163217900Y-146120572D02*
X163146471Y-145977715D01*
X163146471Y-145977715D02*
X163146471Y-145692001D01*
X163146471Y-145692001D02*
X163217900Y-145549143D01*
X163217900Y-145549143D02*
X163360757Y-145477715D01*
X163360757Y-145477715D02*
X163932185Y-145477715D01*
X163932185Y-145477715D02*
X164075042Y-145549143D01*
X164075042Y-145549143D02*
X164146471Y-145692001D01*
X164146471Y-145692001D02*
X164146471Y-145977715D01*
X164146471Y-145977715D02*
X164075042Y-146120572D01*
X164075042Y-146120572D02*
X163932185Y-146192001D01*
X163932185Y-146192001D02*
X163789328Y-146192001D01*
X163789328Y-146192001D02*
X163646471Y-145477715D01*
X163146471Y-146834857D02*
X164146471Y-146834857D01*
X163860757Y-146834857D02*
X164003614Y-146906286D01*
X164003614Y-146906286D02*
X164075042Y-146977715D01*
X164075042Y-146977715D02*
X164146471Y-147120572D01*
X164146471Y-147120572D02*
X164146471Y-147263429D01*
D12*
X208898333Y-121454819D02*
X208565000Y-120978628D01*
X208326905Y-121454819D02*
X208326905Y-120454819D01*
X208326905Y-120454819D02*
X208707857Y-120454819D01*
X208707857Y-120454819D02*
X208803095Y-120502438D01*
X208803095Y-120502438D02*
X208850714Y-120550057D01*
X208850714Y-120550057D02*
X208898333Y-120645295D01*
X208898333Y-120645295D02*
X208898333Y-120788152D01*
X208898333Y-120788152D02*
X208850714Y-120883390D01*
X208850714Y-120883390D02*
X208803095Y-120931009D01*
X208803095Y-120931009D02*
X208707857Y-120978628D01*
X208707857Y-120978628D02*
X208326905Y-120978628D01*
X209231667Y-120454819D02*
X209850714Y-120454819D01*
X209850714Y-120454819D02*
X209517381Y-120835771D01*
X209517381Y-120835771D02*
X209660238Y-120835771D01*
X209660238Y-120835771D02*
X209755476Y-120883390D01*
X209755476Y-120883390D02*
X209803095Y-120931009D01*
X209803095Y-120931009D02*
X209850714Y-121026247D01*
X209850714Y-121026247D02*
X209850714Y-121264342D01*
X209850714Y-121264342D02*
X209803095Y-121359580D01*
X209803095Y-121359580D02*
X209755476Y-121407200D01*
X209755476Y-121407200D02*
X209660238Y-121454819D01*
X209660238Y-121454819D02*
X209374524Y-121454819D01*
X209374524Y-121454819D02*
X209279286Y-121407200D01*
X209279286Y-121407200D02*
X209231667Y-121359580D01*
X213398333Y-124954819D02*
X212826905Y-124954819D01*
X213112619Y-124954819D02*
X213112619Y-123954819D01*
X213112619Y-123954819D02*
X213017381Y-124097676D01*
X213017381Y-124097676D02*
X212922143Y-124192914D01*
X212922143Y-124192914D02*
X212826905Y-124240533D01*
X214017381Y-123954819D02*
X214112619Y-123954819D01*
X214112619Y-123954819D02*
X214207857Y-124002438D01*
X214207857Y-124002438D02*
X214255476Y-124050057D01*
X214255476Y-124050057D02*
X214303095Y-124145295D01*
X214303095Y-124145295D02*
X214350714Y-124335771D01*
X214350714Y-124335771D02*
X214350714Y-124573866D01*
X214350714Y-124573866D02*
X214303095Y-124764342D01*
X214303095Y-124764342D02*
X214255476Y-124859580D01*
X214255476Y-124859580D02*
X214207857Y-124907200D01*
X214207857Y-124907200D02*
X214112619Y-124954819D01*
X214112619Y-124954819D02*
X214017381Y-124954819D01*
X214017381Y-124954819D02*
X213922143Y-124907200D01*
X213922143Y-124907200D02*
X213874524Y-124859580D01*
X213874524Y-124859580D02*
X213826905Y-124764342D01*
X213826905Y-124764342D02*
X213779286Y-124573866D01*
X213779286Y-124573866D02*
X213779286Y-124335771D01*
X213779286Y-124335771D02*
X213826905Y-124145295D01*
X213826905Y-124145295D02*
X213874524Y-124050057D01*
X213874524Y-124050057D02*
X213922143Y-124002438D01*
X213922143Y-124002438D02*
X214017381Y-123954819D01*
X214969762Y-123954819D02*
X215065000Y-123954819D01*
X215065000Y-123954819D02*
X215160238Y-124002438D01*
X215160238Y-124002438D02*
X215207857Y-124050057D01*
X215207857Y-124050057D02*
X215255476Y-124145295D01*
X215255476Y-124145295D02*
X215303095Y-124335771D01*
X215303095Y-124335771D02*
X215303095Y-124573866D01*
X215303095Y-124573866D02*
X215255476Y-124764342D01*
X215255476Y-124764342D02*
X215207857Y-124859580D01*
X215207857Y-124859580D02*
X215160238Y-124907200D01*
X215160238Y-124907200D02*
X215065000Y-124954819D01*
X215065000Y-124954819D02*
X214969762Y-124954819D01*
X214969762Y-124954819D02*
X214874524Y-124907200D01*
X214874524Y-124907200D02*
X214826905Y-124859580D01*
X214826905Y-124859580D02*
X214779286Y-124764342D01*
X214779286Y-124764342D02*
X214731667Y-124573866D01*
X214731667Y-124573866D02*
X214731667Y-124335771D01*
X214731667Y-124335771D02*
X214779286Y-124145295D01*
X214779286Y-124145295D02*
X214826905Y-124050057D01*
X214826905Y-124050057D02*
X214874524Y-124002438D01*
X214874524Y-124002438D02*
X214969762Y-123954819D01*
X208826905Y-126704819D02*
X208826905Y-125704819D01*
X208826905Y-125704819D02*
X209065000Y-125704819D01*
X209065000Y-125704819D02*
X209207857Y-125752438D01*
X209207857Y-125752438D02*
X209303095Y-125847676D01*
X209303095Y-125847676D02*
X209350714Y-125942914D01*
X209350714Y-125942914D02*
X209398333Y-126133390D01*
X209398333Y-126133390D02*
X209398333Y-126276247D01*
X209398333Y-126276247D02*
X209350714Y-126466723D01*
X209350714Y-126466723D02*
X209303095Y-126561961D01*
X209303095Y-126561961D02*
X209207857Y-126657200D01*
X209207857Y-126657200D02*
X209065000Y-126704819D01*
X209065000Y-126704819D02*
X208826905Y-126704819D01*
X209779286Y-125800057D02*
X209826905Y-125752438D01*
X209826905Y-125752438D02*
X209922143Y-125704819D01*
X209922143Y-125704819D02*
X210160238Y-125704819D01*
X210160238Y-125704819D02*
X210255476Y-125752438D01*
X210255476Y-125752438D02*
X210303095Y-125800057D01*
X210303095Y-125800057D02*
X210350714Y-125895295D01*
X210350714Y-125895295D02*
X210350714Y-125990533D01*
X210350714Y-125990533D02*
X210303095Y-126133390D01*
X210303095Y-126133390D02*
X209731667Y-126704819D01*
X209731667Y-126704819D02*
X210350714Y-126704819D01*
D13*
%TO.C,C1*%
X224545000Y-117340000D02*
X224545000Y-117965000D01*
X224545000Y-117340000D02*
X228585000Y-117340000D01*
X224545000Y-119555000D02*
X224545000Y-120180000D01*
X224545000Y-120180000D02*
X228585000Y-120180000D01*
X228585000Y-117340000D02*
X228585000Y-117965000D01*
X228585000Y-119555000D02*
X228585000Y-120180000D01*
%TO.C,RV1*%
X217905000Y-127050000D02*
X218105000Y-127050000D01*
X217905000Y-128470000D02*
X217905000Y-127050000D01*
X217905000Y-133470000D02*
X217905000Y-132050000D01*
X217905000Y-133470000D02*
X218105000Y-133470000D01*
X218105000Y-126950000D02*
X218795000Y-126950000D01*
X218105000Y-127050000D02*
X218105000Y-126950000D01*
X218105000Y-128470000D02*
X217905000Y-128470000D01*
X218105000Y-132050000D02*
X217905000Y-132050000D01*
X218105000Y-132050000D02*
X218105000Y-128470000D01*
X218105000Y-133470000D02*
X218105000Y-133570000D01*
X218105000Y-133570000D02*
X218355000Y-133570000D01*
X219835000Y-126950000D02*
X223815000Y-126950000D01*
X223815000Y-133570000D02*
X220275000Y-133570000D01*
X225125000Y-128260000D02*
X225125000Y-129750000D01*
X225125000Y-130770000D02*
X225125000Y-132260000D01*
X223815000Y-126950000D02*
G75*
G02*
X225125000Y-128260000I0J-1310000D01*
G01*
X225125000Y-132260000D02*
G75*
G02*
X223815000Y-133570000I-1310000J0D01*
G01*
%TO.C,R1*%
X218135000Y-122760000D02*
X219085000Y-122760000D01*
X219085000Y-121840000D02*
X219085000Y-123680000D01*
X219085000Y-123680000D02*
X222925000Y-123680000D01*
X222925000Y-121840000D02*
X219085000Y-121840000D01*
X222925000Y-123680000D02*
X222925000Y-121840000D01*
X223875000Y-122760000D02*
X222925000Y-122760000D01*
%TO.C,C2*%
X221620328Y-109165000D02*
X222520328Y-109165000D01*
X222070328Y-108715000D02*
X222070328Y-109615000D01*
X231185000Y-111760000D02*
G75*
G02*
X221945000Y-111760000I-4620000J0D01*
G01*
X221945000Y-111760000D02*
G75*
G02*
X231185000Y-111760000I4620000J0D01*
G01*
%TO.C,R2*%
X218635000Y-104260000D02*
X219585000Y-104260000D01*
X219585000Y-103340000D02*
X219585000Y-105180000D01*
X219585000Y-105180000D02*
X223425000Y-105180000D01*
X223425000Y-103340000D02*
X219585000Y-103340000D01*
X223425000Y-105180000D02*
X223425000Y-103340000D01*
X224375000Y-104260000D02*
X223425000Y-104260000D01*
%TO.C,SW2*%
X208315000Y-139010000D02*
X208315000Y-140510000D01*
X209565000Y-143010000D02*
X214065000Y-143010000D01*
X214065000Y-136510000D02*
X209565000Y-136510000D01*
X215315000Y-140510000D02*
X215315000Y-139010000D01*
%TO.C,RV2*%
X217905000Y-94050000D02*
X218105000Y-94050000D01*
X217905000Y-95470000D02*
X217905000Y-94050000D01*
X217905000Y-100470000D02*
X217905000Y-99050000D01*
X217905000Y-100470000D02*
X218105000Y-100470000D01*
X218105000Y-93950000D02*
X218795000Y-93950000D01*
X218105000Y-94050000D02*
X218105000Y-93950000D01*
X218105000Y-95470000D02*
X217905000Y-95470000D01*
X218105000Y-99050000D02*
X217905000Y-99050000D01*
X218105000Y-99050000D02*
X218105000Y-95470000D01*
X218105000Y-100470000D02*
X218105000Y-100570000D01*
X218105000Y-100570000D02*
X218355000Y-100570000D01*
X219835000Y-93950000D02*
X223815000Y-93950000D01*
X223815000Y-100570000D02*
X220275000Y-100570000D01*
X225125000Y-95260000D02*
X225125000Y-96750000D01*
X225125000Y-97770000D02*
X225125000Y-99260000D01*
X223815000Y-93950000D02*
G75*
G02*
X225125000Y-95260000I0J-1310000D01*
G01*
X225125000Y-99260000D02*
G75*
G02*
X223815000Y-100570000I-1310000J0D01*
G01*
%TO.C,C4*%
X219395000Y-137240000D02*
X219395000Y-141280000D01*
X220020000Y-137240000D02*
X219395000Y-137240000D01*
X220020000Y-141280000D02*
X219395000Y-141280000D01*
X222235000Y-137240000D02*
X221610000Y-137240000D01*
X222235000Y-137240000D02*
X222235000Y-141280000D01*
X222235000Y-141280000D02*
X221610000Y-141280000D01*
%TO.C,J4*%
X228985000Y-124430000D02*
X228985000Y-129630000D01*
X229045000Y-124430000D02*
X228985000Y-124430000D01*
X229045000Y-124430000D02*
X229045000Y-127030000D01*
X229045000Y-127030000D02*
X231645000Y-127030000D01*
X230315000Y-124430000D02*
X231645000Y-124430000D01*
X231645000Y-124430000D02*
X231645000Y-125760000D01*
X231645000Y-127030000D02*
X231645000Y-129630000D01*
X231645000Y-129630000D02*
X228985000Y-129630000D01*
%TO.C,D1*%
X208235000Y-132760000D02*
X208885000Y-132760000D01*
X208885000Y-131640000D02*
X208885000Y-133880000D01*
X208885000Y-133880000D02*
X213125000Y-133880000D01*
X212285000Y-133880000D02*
X212285000Y-131640000D01*
X212405000Y-133880000D02*
X212405000Y-131640000D01*
X212525000Y-133880000D02*
X212525000Y-131640000D01*
X213125000Y-131640000D02*
X208885000Y-131640000D01*
X213125000Y-133880000D02*
X213125000Y-131640000D01*
X213775000Y-132760000D02*
X213125000Y-132760000D01*
%TO.C,J7*%
X226445000Y-135930000D02*
X227775000Y-135930000D01*
X226445000Y-137260000D02*
X226445000Y-135930000D01*
X226445000Y-138530000D02*
X226445000Y-138590000D01*
X226445000Y-138530000D02*
X229045000Y-138530000D01*
X226445000Y-138590000D02*
X231645000Y-138590000D01*
X229045000Y-135930000D02*
X231645000Y-135930000D01*
X229045000Y-138530000D02*
X229045000Y-135930000D01*
X231645000Y-135930000D02*
X231645000Y-138590000D01*
%TO.C,D4*%
X208735000Y-95500000D02*
X209385000Y-95500000D01*
X209385000Y-94380000D02*
X209385000Y-96620000D01*
X209385000Y-96620000D02*
X213625000Y-96620000D01*
X209985000Y-94380000D02*
X209985000Y-96620000D01*
X210105000Y-94380000D02*
X210105000Y-96620000D01*
X210225000Y-94380000D02*
X210225000Y-96620000D01*
X213625000Y-94380000D02*
X209385000Y-94380000D01*
X213625000Y-96620000D02*
X213625000Y-94380000D01*
X214275000Y-95500000D02*
X213625000Y-95500000D01*
%TO.C,D3*%
X208545000Y-99760000D02*
X209195000Y-99760000D01*
X209195000Y-98640000D02*
X209195000Y-100880000D01*
X209195000Y-100880000D02*
X213435000Y-100880000D01*
X212595000Y-100880000D02*
X212595000Y-98640000D01*
X212715000Y-100880000D02*
X212715000Y-98640000D01*
X212835000Y-100880000D02*
X212835000Y-98640000D01*
X213435000Y-98640000D02*
X209195000Y-98640000D01*
X213435000Y-100880000D02*
X213435000Y-98640000D01*
X214085000Y-99760000D02*
X213435000Y-99760000D01*
%TO.C,J5*%
X228985000Y-97390000D02*
X231645000Y-97390000D01*
X228985000Y-99990000D02*
X228985000Y-97390000D01*
X228985000Y-102590000D02*
X228985000Y-101260000D01*
X230315000Y-102590000D02*
X228985000Y-102590000D01*
X231585000Y-99990000D02*
X228985000Y-99990000D01*
X231585000Y-102590000D02*
X231585000Y-99990000D01*
X231585000Y-102590000D02*
X231645000Y-102590000D01*
X231645000Y-102590000D02*
X231645000Y-97390000D01*
%TO.C,J2*%
X172665000Y-91629000D02*
X172665000Y-96829000D01*
X175265000Y-91629000D02*
X172665000Y-91629000D01*
X175265000Y-91629000D02*
X175265000Y-94229000D01*
X175265000Y-94229000D02*
X177865000Y-94229000D01*
X176535000Y-91629000D02*
X177865000Y-91629000D01*
X177865000Y-91629000D02*
X177865000Y-92959000D01*
X177865000Y-94229000D02*
X177865000Y-96829000D01*
X177865000Y-96829000D02*
X172665000Y-96829000D01*
%TO.C,U3*%
X208185000Y-110020000D02*
X208185000Y-112255000D01*
X208185000Y-114255000D02*
X208185000Y-116490000D01*
X208185000Y-116490000D02*
X218465000Y-116490000D01*
X218465000Y-110020000D02*
X208185000Y-110020000D01*
X218465000Y-116490000D02*
X218465000Y-110020000D01*
X208185000Y-112255000D02*
G75*
G02*
X208185000Y-114255000I0J-1000000D01*
G01*
%TO.C,U1*%
X162530000Y-124948000D02*
X162530000Y-99448000D01*
X175260000Y-122428000D02*
X175260000Y-124948000D01*
X175260000Y-124948000D02*
X162530000Y-124948000D01*
X177780000Y-99448000D02*
X162530000Y-99448000D01*
X177780000Y-122428000D02*
X175260000Y-122428000D01*
X177780000Y-122428000D02*
X177780000Y-99448000D01*
X177780000Y-123698000D02*
X177780000Y-124948000D01*
X177780000Y-124948000D02*
X176530000Y-124948000D01*
%TO.C,R4*%
X207945000Y-104260000D02*
X208895000Y-104260000D01*
X208895000Y-103340000D02*
X208895000Y-105180000D01*
X208895000Y-105180000D02*
X212735000Y-105180000D01*
X212735000Y-103340000D02*
X208895000Y-103340000D01*
X212735000Y-105180000D02*
X212735000Y-103340000D01*
X213685000Y-104260000D02*
X212735000Y-104260000D01*
%TO.C,U2*%
X180775000Y-92040000D02*
X180775000Y-90440000D01*
X181095000Y-90370000D02*
X181095000Y-140370000D01*
X181435000Y-89823000D02*
X181435000Y-140917000D01*
X181705000Y-89760000D02*
X184195000Y-89760000D01*
X181705000Y-140980000D02*
X185542939Y-140980000D01*
X184195000Y-89760000D02*
X184195000Y-90673520D01*
X184195000Y-89760000D02*
X185542940Y-89760000D01*
X184195000Y-93066480D02*
X184195000Y-137673520D01*
X184195000Y-140066480D02*
X184195000Y-140980000D01*
X186467061Y-89760000D02*
X187470000Y-89760000D01*
X187470000Y-89760000D02*
X195940000Y-89760000D01*
X187595000Y-88460000D02*
X187595000Y-89280000D01*
X187595000Y-88460000D02*
X195815000Y-88460000D01*
X187595000Y-89280000D02*
X187805000Y-89280000D01*
X187805000Y-89280000D02*
X187805000Y-90676000D01*
X187805000Y-93064000D02*
X187805000Y-94280000D01*
X188105000Y-140980000D02*
X186467061Y-140980000D01*
X195305000Y-140980000D02*
X188105000Y-140980000D01*
X195605000Y-89280000D02*
X195605000Y-90676000D01*
X195605000Y-93064000D02*
X195605000Y-94280000D01*
X195605000Y-94280000D02*
X187805000Y-94280000D01*
X195815000Y-88460000D02*
X195815000Y-89280000D01*
X195815000Y-89280000D02*
X195605000Y-89280000D01*
X195940000Y-89760000D02*
X196942939Y-89760000D01*
X196942939Y-140980000D02*
X195305000Y-140980000D01*
X197867061Y-89760000D02*
X199215000Y-89760000D01*
X197867061Y-140980000D02*
X201705000Y-140980000D01*
X199215000Y-89760000D02*
X199215000Y-90673520D01*
X199215000Y-93066480D02*
X199215000Y-137673520D01*
X199215000Y-140066480D02*
X199215000Y-140980000D01*
X201705000Y-89760000D02*
X199215000Y-89760000D01*
X201975000Y-140917000D02*
X201975000Y-89823000D01*
X202315000Y-90370000D02*
X202315000Y-140370000D01*
X181095000Y-90370000D02*
G75*
G02*
X181705000Y-89760000I610000J0D01*
G01*
X181705000Y-140980000D02*
G75*
G02*
X181095000Y-140370000I-99J609901D01*
G01*
X201705000Y-89760000D02*
G75*
G02*
X202315000Y-90370000I0J-610000D01*
G01*
X202315000Y-140370000D02*
G75*
G02*
X201705000Y-140980000I-610000J0D01*
G01*
%TO.C,J6*%
X171136000Y-129226000D02*
X172466000Y-129226000D01*
X171136000Y-130556000D02*
X171136000Y-129226000D01*
X171136000Y-131826000D02*
X171136000Y-149666000D01*
X171136000Y-131826000D02*
X173736000Y-131826000D01*
X171136000Y-149666000D02*
X176336000Y-149666000D01*
X173736000Y-129226000D02*
X176336000Y-129226000D01*
X173736000Y-131826000D02*
X173736000Y-129226000D01*
X176336000Y-129226000D02*
X176336000Y-149666000D01*
%TO.C,R3*%
X207635000Y-122760000D02*
X208585000Y-122760000D01*
X208585000Y-121840000D02*
X208585000Y-123680000D01*
X208585000Y-123680000D02*
X212425000Y-123680000D01*
X212425000Y-121840000D02*
X208585000Y-121840000D01*
X212425000Y-123680000D02*
X212425000Y-121840000D01*
X213375000Y-122760000D02*
X212425000Y-122760000D01*
%TO.C,D2*%
X208235000Y-128260000D02*
X208885000Y-128260000D01*
X208885000Y-127140000D02*
X208885000Y-129380000D01*
X208885000Y-129380000D02*
X213125000Y-129380000D01*
X209485000Y-127140000D02*
X209485000Y-129380000D01*
X209605000Y-127140000D02*
X209605000Y-129380000D01*
X209725000Y-127140000D02*
X209725000Y-129380000D01*
X213125000Y-127140000D02*
X208885000Y-127140000D01*
X213125000Y-129380000D02*
X213125000Y-127140000D01*
X213775000Y-128260000D02*
X213125000Y-128260000D01*
%TD*%
M02*
