%TF.GenerationSoftware,KiCad,Pcbnew,9.0.1-9.0.1-0~ubuntu24.04.1*%
%TF.CreationDate,2025-04-22T11:41:41+09:00*%
%TF.ProjectId,PSCE-MI_Arduino_DUE,50534345-2d4d-4495-9f41-726475696e6f,rev?*%
%TF.SameCoordinates,Original*%
%TF.FileFunction,Copper,L1,Top*%
%TF.FilePolarity,Positive*%
%FSLAX46Y46*%
G04 Gerber Fmt 4.6, Leading zero omitted, Abs format (unit mm)*
G04 Created by KiCad (PCBNEW 9.0.1-9.0.1-0~ubuntu24.04.1) date 2025-04-22 11:41:41*
%MOMM*%
%LPD*%
G01*
G04 APERTURE LIST*
%TA.AperFunction,ComponentPad*%
%ADD10C,4.000000*%
%TD*%
%TA.AperFunction,ComponentPad*%
%ADD11R,1.700000X1.700000*%
%TD*%
%TA.AperFunction,ComponentPad*%
%ADD12O,1.700000X1.700000*%
%TD*%
%TA.AperFunction,ComponentPad*%
%ADD13C,2.600000*%
%TD*%
%TA.AperFunction,ViaPad*%
%ADD14C,0.600000*%
%TD*%
%TA.AperFunction,Conductor*%
%ADD15C,0.300000*%
%TD*%
%TA.AperFunction,Conductor*%
%ADD16C,0.200000*%
%TD*%
G04 APERTURE END LIST*
D10*
%TO.P,TP2,1,1*%
%TO.N,GND*%
X115000000Y-52500000D03*
%TD*%
%TO.P,TP4,1,1*%
%TO.N,GND*%
X176000000Y-151500000D03*
%TD*%
D11*
%TO.P,Right_Bottom1,1,Pin_1*%
%TO.N,/D14*%
X173350000Y-111760000D03*
D12*
%TO.P,Right_Bottom1,2,Pin_2*%
%TO.N,/D15*%
X173350000Y-114300000D03*
%TO.P,Right_Bottom1,3,Pin_3*%
%TO.N,/D16*%
X173350000Y-116840000D03*
%TO.P,Right_Bottom1,4,Pin_4*%
%TO.N,/D17*%
X173350000Y-119380000D03*
%TO.P,Right_Bottom1,5,Pin_5*%
%TO.N,/D18*%
X173350000Y-121920000D03*
%TO.P,Right_Bottom1,6,Pin_6*%
%TO.N,/D19*%
X173350000Y-124460000D03*
%TO.P,Right_Bottom1,7,Pin_7*%
%TO.N,/I2C_SDA*%
X173350000Y-127000000D03*
%TO.P,Right_Bottom1,8,Pin_8*%
%TO.N,/I2C_SCK*%
X173350000Y-129540000D03*
%TD*%
D11*
%TO.P,JA1,1,Pin_1*%
%TO.N,/DUE52_JA1*%
X101600000Y-50800000D03*
D12*
%TO.P,JA1,2,Pin_2*%
%TO.N,/DUE53_JA7*%
X104140000Y-50800000D03*
%TO.P,JA1,3,Pin_3*%
%TO.N,/DUE50_JA2*%
X101600000Y-53340000D03*
%TO.P,JA1,4,Pin_4*%
%TO.N,/DUE51_JA8*%
X104140000Y-53340000D03*
%TO.P,JA1,5,Pin_5*%
%TO.N,/DUE48_JA3*%
X101600000Y-55880000D03*
%TO.P,JA1,6,Pin_6*%
%TO.N,/DUE49_JA9*%
X104140000Y-55880000D03*
%TO.P,JA1,7,Pin_7*%
%TO.N,/DUE46_JA4*%
X101600000Y-58420000D03*
%TO.P,JA1,8,Pin_8*%
%TO.N,/DUE47_JA10*%
X104140000Y-58420000D03*
%TO.P,JA1,9,Pin_9*%
%TO.N,GND*%
X101600000Y-60960000D03*
%TO.P,JA1,10,Pin_10*%
X104140000Y-60960000D03*
%TO.P,JA1,11,Pin_11*%
%TO.N,unconnected-(JA1-Pin_11-Pad11)*%
X101600000Y-63500000D03*
%TO.P,JA1,12,Pin_12*%
%TO.N,unconnected-(JA1-Pin_12-Pad12)*%
X104140000Y-63500000D03*
%TD*%
D11*
%TO.P,JC1,1,Pin_1*%
%TO.N,/DUE36_JC1*%
X101600000Y-96520000D03*
D12*
%TO.P,JC1,2,Pin_2*%
%TO.N,/DUE37_JC7*%
X104140000Y-96520000D03*
%TO.P,JC1,3,Pin_3*%
%TO.N,/DUE34_JC2*%
X101600000Y-99060000D03*
%TO.P,JC1,4,Pin_4*%
%TO.N,/DUE35_JC8*%
X104140000Y-99060000D03*
%TO.P,JC1,5,Pin_5*%
%TO.N,/DUE32_JC3*%
X101600000Y-101600000D03*
%TO.P,JC1,6,Pin_6*%
%TO.N,/DUE33_JC9*%
X104140000Y-101600000D03*
%TO.P,JC1,7,Pin_7*%
%TO.N,/CLK_DUT_JC4*%
X101600000Y-104140000D03*
%TO.P,JC1,8,Pin_8*%
%TO.N,/DUE31_JC10*%
X104140000Y-104140000D03*
%TO.P,JC1,9,Pin_9*%
%TO.N,GND*%
X101600000Y-106680000D03*
%TO.P,JC1,10,Pin_10*%
X104140000Y-106680000D03*
%TO.P,JC1,11,Pin_11*%
%TO.N,unconnected-(JC1-Pin_11-Pad11)*%
X101600000Y-109220000D03*
%TO.P,JC1,12,Pin_12*%
%TO.N,unconnected-(JC1-Pin_12-Pad12)*%
X104140000Y-109220000D03*
%TD*%
D11*
%TO.P,JB1,1,Pin_1*%
%TO.N,/DUE44_JB1*%
X101600000Y-73660000D03*
D12*
%TO.P,JB1,2,Pin_2*%
%TO.N,/DUE45_JB7*%
X104140000Y-73660000D03*
%TO.P,JB1,3,Pin_3*%
%TO.N,/DUE42_JB2*%
X101600000Y-76200000D03*
%TO.P,JB1,4,Pin_4*%
%TO.N,/DUE43_JB8*%
X104140000Y-76200000D03*
%TO.P,JB1,5,Pin_5*%
%TO.N,/DUE40_JB3*%
X101600000Y-78740000D03*
%TO.P,JB1,6,Pin_6*%
%TO.N,/DUE41_JB9*%
X104140000Y-78740000D03*
%TO.P,JB1,7,Pin_7*%
%TO.N,/DUE38_JB4*%
X101600000Y-81280000D03*
%TO.P,JB1,8,Pin_8*%
%TO.N,/DUE39_JB10*%
X104140000Y-81280000D03*
%TO.P,JB1,9,Pin_9*%
%TO.N,GND*%
X101600000Y-83820000D03*
%TO.P,JB1,10,Pin_10*%
X104140000Y-83820000D03*
%TO.P,JB1,11,Pin_11*%
%TO.N,unconnected-(JB1-Pin_11-Pad11)*%
X101600000Y-86360000D03*
%TO.P,JB1,12,Pin_12*%
%TO.N,unconnected-(JB1-Pin_12-Pad12)*%
X104140000Y-86360000D03*
%TD*%
D11*
%TO.P,Left_Middle1,1,Pin_1*%
%TO.N,/A0*%
X125090000Y-93990000D03*
D12*
%TO.P,Left_Middle1,2,Pin_2*%
%TO.N,/A1*%
X125090000Y-96530000D03*
%TO.P,Left_Middle1,3,Pin_3*%
%TO.N,/A2*%
X125090000Y-99070000D03*
%TO.P,Left_Middle1,4,Pin_4*%
%TO.N,/A3*%
X125090000Y-101610000D03*
%TO.P,Left_Middle1,5,Pin_5*%
%TO.N,/A4*%
X125090000Y-104150000D03*
%TO.P,Left_Middle1,6,Pin_6*%
%TO.N,/A5*%
X125090000Y-106690000D03*
%TO.P,Left_Middle1,7,Pin_7*%
%TO.N,/A6*%
X125090000Y-109230000D03*
%TO.P,Left_Middle1,8,Pin_8*%
%TO.N,/A7*%
X125090000Y-111770000D03*
%TD*%
D11*
%TO.P,J3,1,Pin_1*%
%TO.N,/CLK_DUT_JC4*%
X101600000Y-113538000D03*
D12*
%TO.P,J3,2,Pin_2*%
X104140000Y-113538000D03*
%TO.P,J3,3,Pin_3*%
%TO.N,/DUE30*%
X106680000Y-113538000D03*
%TD*%
D10*
%TO.P,TP1,1,1*%
%TO.N,GND*%
X100000000Y-151000000D03*
%TD*%
D11*
%TO.P,Right_Middle1,1,Pin_1*%
%TO.N,/D7*%
X173350000Y-88900000D03*
D12*
%TO.P,Right_Middle1,2,Pin_2*%
%TO.N,/D6*%
X173350000Y-91440000D03*
%TO.P,Right_Middle1,3,Pin_3*%
%TO.N,/D5*%
X173350000Y-93980000D03*
%TO.P,Right_Middle1,4,Pin_4*%
%TO.N,/D4*%
X173350000Y-96520000D03*
%TO.P,Right_Middle1,5,Pin_5*%
%TO.N,/D3*%
X173350000Y-99060000D03*
%TO.P,Right_Middle1,6,Pin_6*%
%TO.N,/D2*%
X173350000Y-101600000D03*
%TO.P,Right_Middle1,7,Pin_7*%
%TO.N,/D1*%
X173350000Y-104140000D03*
%TO.P,Right_Middle1,8,Pin_8*%
%TO.N,/D0*%
X173350000Y-106680000D03*
%TD*%
D11*
%TO.P,Left_Bottom1,1,Pin_1*%
%TO.N,/A8*%
X125100000Y-116840000D03*
D12*
%TO.P,Left_Bottom1,2,Pin_2*%
%TO.N,/A9*%
X125100000Y-119380000D03*
%TO.P,Left_Bottom1,3,Pin_3*%
%TO.N,/A10*%
X125100000Y-121920000D03*
%TO.P,Left_Bottom1,4,Pin_4*%
%TO.N,/A11*%
X125100000Y-124460000D03*
%TO.P,Left_Bottom1,5,Pin_5*%
%TO.N,/DAC_PWM2*%
X125100000Y-127000000D03*
%TO.P,Left_Bottom1,6,Pin_6*%
%TO.N,/DAC_PWM1*%
X125100000Y-129540000D03*
%TO.P,Left_Bottom1,7,Pin_7*%
%TO.N,/CANRX*%
X125100000Y-132080000D03*
%TO.P,Left_Bottom1,8,Pin_8*%
%TO.N,/CANTX*%
X125100000Y-134620000D03*
%TD*%
D11*
%TO.P,Right_Top1,1,Pin_1*%
%TO.N,/SCL1*%
X173350000Y-61970000D03*
D12*
%TO.P,Right_Top1,2,Pin_2*%
%TO.N,/SDA1*%
X173350000Y-64510000D03*
%TO.P,Right_Top1,3,Pin_3*%
%TO.N,/AREF*%
X173350000Y-67050000D03*
%TO.P,Right_Top1,4,Pin_4*%
%TO.N,GND*%
X173350000Y-69590000D03*
%TO.P,Right_Top1,5,Pin_5*%
%TO.N,/D13*%
X173350000Y-72130000D03*
%TO.P,Right_Top1,6,Pin_6*%
%TO.N,/D12*%
X173350000Y-74670000D03*
%TO.P,Right_Top1,7,Pin_7*%
%TO.N,/D11*%
X173350000Y-77210000D03*
%TO.P,Right_Top1,8,Pin_8*%
%TO.N,/D10*%
X173350000Y-79750000D03*
%TO.P,Right_Top1,9,Pin_9*%
%TO.N,/D9*%
X173350000Y-82290000D03*
%TO.P,Right_Top1,10,Pin_10*%
%TO.N,/D8*%
X173350000Y-84830000D03*
%TD*%
D11*
%TO.P,JD1,1,Pin_1*%
%TO.N,/DUE28_JD1*%
X101600000Y-119380000D03*
D12*
%TO.P,JD1,2,Pin_2*%
%TO.N,/DUE29_JD7*%
X104140000Y-119380000D03*
%TO.P,JD1,3,Pin_3*%
%TO.N,/DUE26_JD2*%
X101600000Y-121920000D03*
%TO.P,JD1,4,Pin_4*%
%TO.N,/DUE27_JD8*%
X104140000Y-121920000D03*
%TO.P,JD1,5,Pin_5*%
%TO.N,/DUE24_JD3*%
X101600000Y-124460000D03*
%TO.P,JD1,6,Pin_6*%
%TO.N,/DUE25_JD9*%
X104140000Y-124460000D03*
%TO.P,JD1,7,Pin_7*%
%TO.N,/DUE22_JD4*%
X101600000Y-127000000D03*
%TO.P,JD1,8,Pin_8*%
%TO.N,/DUE23_JD10*%
X104140000Y-127000000D03*
%TO.P,JD1,9,Pin_9*%
%TO.N,GND*%
X101600000Y-129540000D03*
%TO.P,JD1,10,Pin_10*%
X104140000Y-129540000D03*
%TO.P,JD1,11,Pin_11*%
%TO.N,unconnected-(JD1-Pin_11-Pad11)*%
X101600000Y-132080000D03*
%TO.P,JD1,12,Pin_12*%
%TO.N,unconnected-(JD1-Pin_12-Pad12)*%
X104140000Y-132080000D03*
%TD*%
D13*
%TO.P,TP3,1,1*%
%TO.N,GND*%
X180280000Y-134280000D03*
X180280000Y-141900000D03*
%TD*%
D11*
%TO.P,J2,1,Pin_1*%
%TO.N,GND*%
X103540000Y-137280000D03*
D12*
%TO.P,J2,2,Pin_2*%
%TO.N,/VDD_3V3*%
X106080000Y-137280000D03*
%TO.P,J2,3,Pin_3*%
%TO.N,/I2C_SCK*%
X108620000Y-137280000D03*
%TO.P,J2,4,Pin_4*%
%TO.N,/I2C_SDA*%
X111160000Y-137280000D03*
%TD*%
D11*
%TO.P,J1,1,Pin_1*%
%TO.N,/+5V*%
X173355000Y-137160000D03*
D12*
%TO.P,J1,2,Pin_2*%
X173355000Y-139700000D03*
%TO.P,J1,3,Pin_3*%
%TO.N,/DUE22_JD4*%
X170815000Y-137160000D03*
%TO.P,J1,4,Pin_4*%
%TO.N,/DUE23_JD10*%
X170815000Y-139700000D03*
%TO.P,J1,5,Pin_5*%
%TO.N,/DUE24_JD3*%
X168275000Y-137160000D03*
%TO.P,J1,6,Pin_6*%
%TO.N,/DUE25_JD9*%
X168275000Y-139700000D03*
%TO.P,J1,7,Pin_7*%
%TO.N,/DUE26_JD2*%
X165735000Y-137160000D03*
%TO.P,J1,8,Pin_8*%
%TO.N,/DUE27_JD8*%
X165735000Y-139700000D03*
%TO.P,J1,9,Pin_9*%
%TO.N,/DUE28_JD1*%
X163195000Y-137160000D03*
%TO.P,J1,10,Pin_10*%
%TO.N,/DUE29_JD7*%
X163195000Y-139700000D03*
%TO.P,J1,11,Pin_11*%
%TO.N,/DUE30*%
X160655000Y-137160000D03*
%TO.P,J1,12,Pin_12*%
%TO.N,/DUE31_JC10*%
X160655000Y-139700000D03*
%TO.P,J1,13,Pin_13*%
%TO.N,/DUE32_JC3*%
X158115000Y-137160000D03*
%TO.P,J1,14,Pin_14*%
%TO.N,/DUE33_JC9*%
X158115000Y-139700000D03*
%TO.P,J1,15,Pin_15*%
%TO.N,/DUE34_JC2*%
X155575000Y-137160000D03*
%TO.P,J1,16,Pin_16*%
%TO.N,/DUE35_JC8*%
X155575000Y-139700000D03*
%TO.P,J1,17,Pin_17*%
%TO.N,/DUE36_JC1*%
X153035000Y-137160000D03*
%TO.P,J1,18,Pin_18*%
%TO.N,/DUE37_JC7*%
X153035000Y-139700000D03*
%TO.P,J1,19,Pin_19*%
%TO.N,/DUE38_JB4*%
X150495000Y-137160000D03*
%TO.P,J1,20,Pin_20*%
%TO.N,/DUE39_JB10*%
X150495000Y-139700000D03*
%TO.P,J1,21,Pin_21*%
%TO.N,/DUE40_JB3*%
X147955000Y-137160000D03*
%TO.P,J1,22,Pin_22*%
%TO.N,/DUE41_JB9*%
X147955000Y-139700000D03*
%TO.P,J1,23,Pin_23*%
%TO.N,/DUE42_JB2*%
X145415000Y-137160000D03*
%TO.P,J1,24,Pin_24*%
%TO.N,/DUE43_JB8*%
X145415000Y-139700000D03*
%TO.P,J1,25,Pin_25*%
%TO.N,/DUE44_JB1*%
X142875000Y-137160000D03*
%TO.P,J1,26,Pin_26*%
%TO.N,/DUE45_JB7*%
X142875000Y-139700000D03*
%TO.P,J1,27,Pin_27*%
%TO.N,/DUE46_JA4*%
X140335000Y-137160000D03*
%TO.P,J1,28,Pin_28*%
%TO.N,/DUE47_JA10*%
X140335000Y-139700000D03*
%TO.P,J1,29,Pin_29*%
%TO.N,/DUE48_JA3*%
X137795000Y-137160000D03*
%TO.P,J1,30,Pin_30*%
%TO.N,/DUE49_JA9*%
X137795000Y-139700000D03*
%TO.P,J1,31,Pin_31*%
%TO.N,/DUE50_JA2*%
X135255000Y-137160000D03*
%TO.P,J1,32,Pin_32*%
%TO.N,/DUE51_JA8*%
X135255000Y-139700000D03*
%TO.P,J1,33,Pin_33*%
%TO.N,/DUE52_JA1*%
X132715000Y-137160000D03*
%TO.P,J1,34,Pin_34*%
%TO.N,/DUE53_JA7*%
X132715000Y-139700000D03*
%TO.P,J1,35,Pin_35*%
%TO.N,GND*%
X130175000Y-137160000D03*
%TO.P,J1,36,Pin_36*%
X130175000Y-139700000D03*
%TD*%
D11*
%TO.P,Left_Top1,1,Pin_1*%
%TO.N,unconnected-(Left_Top1-Pin_1-Pad1)*%
X125100000Y-71120000D03*
D12*
%TO.P,Left_Top1,2,Pin_2*%
%TO.N,/IOREF*%
X125100000Y-73660000D03*
%TO.P,Left_Top1,3,Pin_3*%
%TO.N,/RESET*%
X125100000Y-76200000D03*
%TO.P,Left_Top1,4,Pin_4*%
%TO.N,/VDD_3V3*%
X125100000Y-78740000D03*
%TO.P,Left_Top1,5,Pin_5*%
%TO.N,/5V*%
X125100000Y-81280000D03*
%TO.P,Left_Top1,6,Pin_6*%
%TO.N,GND*%
X125100000Y-83820000D03*
%TO.P,Left_Top1,7,Pin_7*%
X125100000Y-86360000D03*
%TO.P,Left_Top1,8,Pin_8*%
%TO.N,/VIN*%
X125100000Y-88900000D03*
%TD*%
D14*
%TO.N,GND*%
X180340000Y-87630000D03*
X180340000Y-97790000D03*
X124460000Y-114300000D03*
X180340000Y-118110000D03*
X110490000Y-132080000D03*
X119380000Y-71120000D03*
X111760000Y-147320000D03*
X180340000Y-109220000D03*
X157480000Y-152400000D03*
X128270000Y-152400000D03*
X99060000Y-143510000D03*
X99060000Y-66040000D03*
X163830000Y-152400000D03*
X116840000Y-58420000D03*
X106680000Y-91440000D03*
X173990000Y-143510000D03*
X111760000Y-48260000D03*
X109220000Y-66040000D03*
X109220000Y-116840000D03*
X116840000Y-151130000D03*
X101600000Y-91440000D03*
X110490000Y-71120000D03*
X179070000Y-147320000D03*
X116840000Y-143510000D03*
X171450000Y-153670000D03*
X124460000Y-91440000D03*
X106680000Y-143510000D03*
X109220000Y-111760000D03*
X127000000Y-137160000D03*
X116840000Y-48260000D03*
%TD*%
D15*
%TO.N,/DUE40_JB3*%
X119434000Y-135938081D02*
X119434000Y-89434000D01*
X147955000Y-137160000D02*
X146755000Y-138360000D01*
X146755000Y-138360000D02*
X146755000Y-142745000D01*
X119434000Y-89434000D02*
X107540000Y-77540000D01*
X146755000Y-142745000D02*
X144859000Y-144641000D01*
X128136919Y-144641000D02*
X119434000Y-135938081D01*
X144859000Y-144641000D02*
X128136919Y-144641000D01*
X107540000Y-77540000D02*
X102800000Y-77540000D01*
X102800000Y-77540000D02*
X101600000Y-78740000D01*
D16*
%TO.N,/+5V*%
X173355000Y-137160000D02*
X173355000Y-139700000D01*
D15*
%TO.N,/DUE27_JD8*%
X161040000Y-147710000D02*
X165735000Y-143015000D01*
X116430000Y-137280000D02*
X126860000Y-147710000D01*
X110920000Y-121920000D02*
X116430000Y-127430000D01*
X126860000Y-147710000D02*
X161040000Y-147710000D01*
X165735000Y-143015000D02*
X165735000Y-139700000D01*
X104140000Y-121920000D02*
X110920000Y-121920000D01*
X116430000Y-127430000D02*
X116430000Y-137280000D01*
%TO.N,/DUE45_JB7*%
X141930000Y-143070000D02*
X142875000Y-142125000D01*
X120950000Y-86450000D02*
X120950000Y-135328520D01*
X108160000Y-73660000D02*
X120950000Y-86450000D01*
X120950000Y-135328520D02*
X128691480Y-143070000D01*
X104140000Y-73660000D02*
X108160000Y-73660000D01*
X128691480Y-143070000D02*
X141930000Y-143070000D01*
X142875000Y-142125000D02*
X142875000Y-139700000D01*
%TO.N,/DUE25_JD9*%
X168275000Y-143225000D02*
X162769000Y-148731000D01*
X168275000Y-139700000D02*
X168275000Y-143225000D01*
X162769000Y-148731000D02*
X126412480Y-148731000D01*
X110900000Y-124460000D02*
X104140000Y-124460000D01*
X115429000Y-128989000D02*
X110900000Y-124460000D01*
X126412480Y-148731000D02*
X115429000Y-137747520D01*
X115429000Y-137747520D02*
X115429000Y-128989000D01*
%TO.N,/DUE42_JB2*%
X102800000Y-75000000D02*
X101600000Y-76200000D01*
X120449000Y-87449000D02*
X108000000Y-75000000D01*
X144215000Y-142285000D02*
X142890000Y-143610000D01*
X144215000Y-138360000D02*
X144215000Y-142285000D01*
X142890000Y-143610000D02*
X128522959Y-143610000D01*
X120449000Y-135536041D02*
X120449000Y-87449000D01*
X128522959Y-143610000D02*
X120449000Y-135536041D01*
X108000000Y-75000000D02*
X102800000Y-75000000D01*
X145415000Y-137160000D02*
X144215000Y-138360000D01*
%TO.N,/DUE26_JD2*%
X110910000Y-123190000D02*
X102870000Y-123190000D01*
X166935000Y-143065000D02*
X161770000Y-148230000D01*
X165735000Y-137160000D02*
X166935000Y-138360000D01*
X115930000Y-137540000D02*
X115930000Y-128210000D01*
X126620000Y-148230000D02*
X115930000Y-137540000D01*
X115930000Y-128210000D02*
X110910000Y-123190000D01*
X166935000Y-138360000D02*
X166935000Y-143065000D01*
X161770000Y-148230000D02*
X126620000Y-148230000D01*
X102870000Y-123190000D02*
X101600000Y-121920000D01*
%TO.N,/DUE39_JB10*%
X117931000Y-92931000D02*
X106280000Y-81280000D01*
X147856000Y-146144000D02*
X127514354Y-146144000D01*
X127514354Y-146144000D02*
X117931000Y-136560641D01*
X106280000Y-81280000D02*
X104140000Y-81280000D01*
X147856000Y-146144000D02*
X148775000Y-145225000D01*
X150495000Y-143505000D02*
X148775000Y-145225000D01*
X117931000Y-136560641D02*
X117931000Y-92931000D01*
X150495000Y-139700000D02*
X150495000Y-143505000D01*
%TO.N,/DUE44_JB1*%
X141675000Y-138360000D02*
X141675000Y-141825000D01*
X141675000Y-141825000D02*
X140930000Y-142570000D01*
X142875000Y-137160000D02*
X141675000Y-138360000D01*
X128900000Y-142570000D02*
X121480000Y-135150000D01*
X102500000Y-71500000D02*
X101600000Y-72400000D01*
X121480000Y-135150000D02*
X121480000Y-85480000D01*
X140930000Y-142570000D02*
X128900000Y-142570000D01*
X107500000Y-71500000D02*
X102500000Y-71500000D01*
X101600000Y-72400000D02*
X101600000Y-73660000D01*
X121480000Y-85480000D02*
X107500000Y-71500000D01*
%TO.N,/DUE41_JB9*%
X147955000Y-143170000D02*
X145983000Y-145142000D01*
X147955000Y-139700000D02*
X147955000Y-143170000D01*
X127929398Y-145142000D02*
X118933000Y-136145601D01*
X118933000Y-90433000D02*
X107240000Y-78740000D01*
X145983000Y-145142000D02*
X127929398Y-145142000D01*
X107240000Y-78740000D02*
X104140000Y-78740000D01*
X118933000Y-136145601D02*
X118933000Y-90433000D01*
%TO.N,/DUE28_JD1*%
X116930000Y-126845557D02*
X110734443Y-120650000D01*
X159830000Y-147170000D02*
X127060000Y-147170000D01*
X163195000Y-137160000D02*
X164395000Y-138360000D01*
X164395000Y-142605000D02*
X159830000Y-147170000D01*
X127060000Y-147170000D02*
X116930000Y-137040000D01*
X102870000Y-120650000D02*
X101600000Y-119380000D01*
X110734443Y-120650000D02*
X102870000Y-120650000D01*
X116930000Y-137040000D02*
X116930000Y-126845557D01*
X164395000Y-138360000D02*
X164395000Y-142605000D01*
%TO.N,/DUE38_JB4*%
X102800000Y-80080000D02*
X101600000Y-81280000D01*
X149295000Y-138360000D02*
X149295000Y-143205000D01*
X118432000Y-136353121D02*
X118432000Y-91432000D01*
X107080000Y-80080000D02*
X102800000Y-80080000D01*
X146857000Y-145643000D02*
X127721876Y-145643000D01*
X147650000Y-144850000D02*
X146857000Y-145643000D01*
X150495000Y-137160000D02*
X149295000Y-138360000D01*
X149295000Y-143205000D02*
X147650000Y-144850000D01*
X127721876Y-145643000D02*
X118432000Y-136353121D01*
X118432000Y-91432000D02*
X107080000Y-80080000D01*
%TO.N,/DUE23_JD10*%
X170815000Y-143685000D02*
X170815000Y-139700000D01*
X110859240Y-127000000D02*
X114409000Y-130549760D01*
X125964480Y-149733000D02*
X164767000Y-149733000D01*
X164767000Y-149733000D02*
X170815000Y-143685000D01*
X114409000Y-130549760D02*
X114409000Y-138177521D01*
X104140000Y-127000000D02*
X110859240Y-127000000D01*
X114409000Y-138177521D02*
X125964480Y-149733000D01*
%TO.N,/DUE29_JD7*%
X163195000Y-139700000D02*
X163195000Y-142305000D01*
X117430000Y-136768161D02*
X117430000Y-126310000D01*
X158855000Y-146645000D02*
X127306832Y-146645000D01*
X110500000Y-119380000D02*
X104140000Y-119380000D01*
X127306832Y-146645000D02*
X117430000Y-136768161D01*
X117430000Y-126310000D02*
X110500000Y-119380000D01*
X163195000Y-142305000D02*
X158855000Y-146645000D01*
%TO.N,/DUE22_JD4*%
X110920000Y-128340000D02*
X113908000Y-131328000D01*
X172015000Y-143935000D02*
X172015000Y-138360000D01*
X113908000Y-138396520D02*
X125745480Y-150234000D01*
X101600000Y-127000000D02*
X102940000Y-128340000D01*
X125745480Y-150234000D02*
X165716000Y-150234000D01*
X172085000Y-138430000D02*
X170815000Y-137160000D01*
X102940000Y-128340000D02*
X110920000Y-128340000D01*
X113908000Y-131328000D02*
X113908000Y-138396520D01*
X172015000Y-138360000D02*
X170815000Y-137160000D01*
X165716000Y-150234000D02*
X172015000Y-143935000D01*
%TO.N,/DUE43_JB8*%
X145410000Y-139445000D02*
X145410000Y-142330000D01*
X145410000Y-142330000D02*
X143600000Y-144140000D01*
X107695000Y-75945000D02*
X104135000Y-75945000D01*
X119935000Y-88185000D02*
X107695000Y-75945000D01*
X143600000Y-144140000D02*
X128344439Y-144140000D01*
X128344439Y-144140000D02*
X119935000Y-135730561D01*
X119935000Y-135730561D02*
X119935000Y-88185000D01*
%TO.N,/DUE24_JD3*%
X163688000Y-149232000D02*
X126172000Y-149232000D01*
X114910000Y-137970000D02*
X114910000Y-129890000D01*
X169475000Y-143445000D02*
X163688000Y-149232000D01*
X110750000Y-125730000D02*
X102870000Y-125730000D01*
X114910000Y-129890000D02*
X110750000Y-125730000D01*
X102870000Y-125730000D02*
X101600000Y-124460000D01*
X126172000Y-149232000D02*
X114910000Y-137970000D01*
X169475000Y-138360000D02*
X169475000Y-143445000D01*
X168275000Y-137160000D02*
X169475000Y-138360000D01*
%TO.N,/CLK_DUT_JC4*%
X99314000Y-105156000D02*
X99314000Y-112776000D01*
X101600000Y-104140000D02*
X100330000Y-104140000D01*
X100076000Y-113538000D02*
X101600000Y-113538000D01*
X99314000Y-112776000D02*
X100076000Y-113538000D01*
X100330000Y-104140000D02*
X99314000Y-105156000D01*
%TO.N,/I2C_SCK*%
X176330000Y-143880000D02*
X166030000Y-154180000D01*
X173350000Y-129540000D02*
X176330000Y-132520000D01*
X166030000Y-154180000D02*
X125520000Y-154180000D01*
X176330000Y-132520000D02*
X176330000Y-143880000D01*
X125520000Y-154180000D02*
X108620000Y-137280000D01*
%TO.N,/VDD_3V3*%
X105500000Y-140750000D02*
X100000000Y-140750000D01*
X106080000Y-137280000D02*
X106080000Y-140170000D01*
X110120000Y-67970000D02*
X120890000Y-78740000D01*
X106080000Y-140170000D02*
X105500000Y-140750000D01*
X100000000Y-140750000D02*
X98370000Y-139120000D01*
X98370000Y-139120000D02*
X98370000Y-71130000D01*
X101530000Y-67970000D02*
X110120000Y-67970000D01*
X98370000Y-71130000D02*
X101530000Y-67970000D01*
X120890000Y-78740000D02*
X125100000Y-78740000D01*
%TO.N,/I2C_SDA*%
X176860000Y-130510000D02*
X176860000Y-144058520D01*
X176860000Y-144058520D02*
X166198520Y-154720000D01*
X108100000Y-135180000D02*
X110530000Y-135180000D01*
X110530000Y-135180000D02*
X111160000Y-135810000D01*
X107419000Y-135861000D02*
X108100000Y-135180000D01*
X107419000Y-137777471D02*
X107419000Y-135861000D01*
X111160000Y-135810000D02*
X111160000Y-137280000D01*
X166198520Y-154720000D02*
X124361529Y-154720000D01*
X124361529Y-154720000D02*
X107419000Y-137777471D01*
X173350000Y-127000000D02*
X176860000Y-130510000D01*
%TD*%
%TA.AperFunction,Conductor*%
%TO.N,GND*%
G36*
X103674075Y-106487007D02*
G01*
X103640000Y-106614174D01*
X103640000Y-106745826D01*
X103674075Y-106872993D01*
X103706988Y-106930000D01*
X102033012Y-106930000D01*
X102065925Y-106872993D01*
X102100000Y-106745826D01*
X102100000Y-106614174D01*
X102065925Y-106487007D01*
X102033012Y-106430000D01*
X103706988Y-106430000D01*
X103674075Y-106487007D01*
G37*
%TD.AperFunction*%
%TA.AperFunction,Conductor*%
G36*
X125350000Y-85926988D02*
G01*
X125292993Y-85894075D01*
X125165826Y-85860000D01*
X125034174Y-85860000D01*
X124907007Y-85894075D01*
X124850000Y-85926988D01*
X124850000Y-84253012D01*
X124907007Y-84285925D01*
X125034174Y-84320000D01*
X125165826Y-84320000D01*
X125292993Y-84285925D01*
X125350000Y-84253012D01*
X125350000Y-85926988D01*
G37*
%TD.AperFunction*%
%TA.AperFunction,Conductor*%
G36*
X130425000Y-139266988D02*
G01*
X130367993Y-139234075D01*
X130240826Y-139200000D01*
X130109174Y-139200000D01*
X129982007Y-139234075D01*
X129925000Y-139266988D01*
X129925000Y-137593012D01*
X129982007Y-137625925D01*
X130109174Y-137660000D01*
X130240826Y-137660000D01*
X130367993Y-137625925D01*
X130425000Y-137593012D01*
X130425000Y-139266988D01*
G37*
%TD.AperFunction*%
%TA.AperFunction,Conductor*%
G36*
X103674075Y-129347007D02*
G01*
X103640000Y-129474174D01*
X103640000Y-129605826D01*
X103674075Y-129732993D01*
X103706988Y-129790000D01*
X102033012Y-129790000D01*
X102065925Y-129732993D01*
X102100000Y-129605826D01*
X102100000Y-129474174D01*
X102065925Y-129347007D01*
X102033012Y-129290000D01*
X103706988Y-129290000D01*
X103674075Y-129347007D01*
G37*
%TD.AperFunction*%
%TA.AperFunction,Conductor*%
G36*
X103674075Y-83627007D02*
G01*
X103640000Y-83754174D01*
X103640000Y-83885826D01*
X103674075Y-84012993D01*
X103706988Y-84070000D01*
X102033012Y-84070000D01*
X102065925Y-84012993D01*
X102100000Y-83885826D01*
X102100000Y-83754174D01*
X102065925Y-83627007D01*
X102033012Y-83570000D01*
X103706988Y-83570000D01*
X103674075Y-83627007D01*
G37*
%TD.AperFunction*%
%TA.AperFunction,Conductor*%
G36*
X103674075Y-60767007D02*
G01*
X103640000Y-60894174D01*
X103640000Y-61025826D01*
X103674075Y-61152993D01*
X103706988Y-61210000D01*
X102033012Y-61210000D01*
X102065925Y-61152993D01*
X102100000Y-61025826D01*
X102100000Y-60894174D01*
X102065925Y-60767007D01*
X102033012Y-60710000D01*
X103706988Y-60710000D01*
X103674075Y-60767007D01*
G37*
%TD.AperFunction*%
%TA.AperFunction,Conductor*%
G36*
X119442539Y-46520185D02*
G01*
X119488294Y-46572989D01*
X119499500Y-46624500D01*
X119499500Y-68065892D01*
X119516554Y-68129539D01*
X119533608Y-68193187D01*
X119543196Y-68209793D01*
X119599500Y-68307314D01*
X119692686Y-68400500D01*
X119806814Y-68466392D01*
X119934108Y-68500500D01*
X119954108Y-68500500D01*
X126875500Y-68500500D01*
X126942539Y-68520185D01*
X126988294Y-68572989D01*
X126999500Y-68624500D01*
X126999500Y-131065891D01*
X127033608Y-131193187D01*
X127037662Y-131200208D01*
X127099500Y-131307314D01*
X127192686Y-131400500D01*
X127306814Y-131466392D01*
X127434108Y-131500500D01*
X127434110Y-131500500D01*
X171065890Y-131500500D01*
X171065892Y-131500500D01*
X171193186Y-131466392D01*
X171307314Y-131400500D01*
X171400500Y-131307314D01*
X171466392Y-131193186D01*
X171500500Y-131065892D01*
X171500500Y-88002135D01*
X171999500Y-88002135D01*
X171999500Y-89797870D01*
X171999501Y-89797876D01*
X172005908Y-89857483D01*
X172056202Y-89992328D01*
X172056206Y-89992335D01*
X172142452Y-90107544D01*
X172142455Y-90107547D01*
X172257664Y-90193793D01*
X172257671Y-90193797D01*
X172389082Y-90242810D01*
X172445016Y-90284681D01*
X172469433Y-90350145D01*
X172454582Y-90418418D01*
X172433431Y-90446673D01*
X172319889Y-90560215D01*
X172194951Y-90732179D01*
X172098444Y-90921585D01*
X172032753Y-91123760D01*
X171999500Y-91333713D01*
X171999500Y-91546286D01*
X172032753Y-91756239D01*
X172098444Y-91958414D01*
X172194951Y-92147820D01*
X172319890Y-92319786D01*
X172470213Y-92470109D01*
X172642182Y-92595050D01*
X172650946Y-92599516D01*
X172701742Y-92647491D01*
X172718536Y-92715312D01*
X172695998Y-92781447D01*
X172650946Y-92820484D01*
X172642182Y-92824949D01*
X172470213Y-92949890D01*
X172319890Y-93100213D01*
X172194951Y-93272179D01*
X172098444Y-93461585D01*
X172032753Y-93663760D01*
X171999500Y-93873713D01*
X171999500Y-94086286D01*
X172032753Y-94296239D01*
X172098444Y-94498414D01*
X172194951Y-94687820D01*
X172319890Y-94859786D01*
X172470213Y-95010109D01*
X172642182Y-95135050D01*
X172650946Y-95139516D01*
X172701742Y-95187491D01*
X172718536Y-95255312D01*
X172695998Y-95321447D01*
X172650946Y-95360484D01*
X172642182Y-95364949D01*
X172470213Y-95489890D01*
X172319890Y-95640213D01*
X172194951Y-95812179D01*
X172098444Y-96001585D01*
X172032753Y-96203760D01*
X171999500Y-96413713D01*
X171999500Y-96626287D01*
X172032754Y-96836243D01*
X172036003Y-96846243D01*
X172098444Y-97038414D01*
X172194951Y-97227820D01*
X172319890Y-97399786D01*
X172470213Y-97550109D01*
X172642182Y-97675050D01*
X172650946Y-97679516D01*
X172701742Y-97727491D01*
X172718536Y-97795312D01*
X172695998Y-97861447D01*
X172650946Y-97900484D01*
X172642182Y-97904949D01*
X172470213Y-98029890D01*
X172319890Y-98180213D01*
X172194951Y-98352179D01*
X172098444Y-98541585D01*
X172032753Y-98743760D01*
X171999500Y-98953713D01*
X171999500Y-99166287D01*
X172032754Y-99376243D01*
X172036003Y-99386243D01*
X172098444Y-99578414D01*
X172194951Y-99767820D01*
X172319890Y-99939786D01*
X172470213Y-100090109D01*
X172642182Y-100215050D01*
X172650946Y-100219516D01*
X172701742Y-100267491D01*
X172718536Y-100335312D01*
X172695998Y-100401447D01*
X172650946Y-100440484D01*
X172642182Y-100444949D01*
X172470213Y-100569890D01*
X172319890Y-100720213D01*
X172194951Y-100892179D01*
X172098444Y-101081585D01*
X172032753Y-101283760D01*
X171999500Y-101493713D01*
X171999500Y-101706287D01*
X172032754Y-101916243D01*
X172036003Y-101926243D01*
X172098444Y-102118414D01*
X172194951Y-102307820D01*
X172319890Y-102479786D01*
X172470213Y-102630109D01*
X172642182Y-102755050D01*
X172650946Y-102759516D01*
X172701742Y-102807491D01*
X172718536Y-102875312D01*
X172695998Y-102941447D01*
X172650946Y-102980484D01*
X172642182Y-102984949D01*
X172470213Y-103109890D01*
X172319890Y-103260213D01*
X172194951Y-103432179D01*
X172098444Y-103621585D01*
X172032753Y-103823760D01*
X171999500Y-104033713D01*
X171999500Y-104246286D01*
X172016141Y-104351357D01*
X172032754Y-104456243D01*
X172056574Y-104529554D01*
X172098444Y-104658414D01*
X172194951Y-104847820D01*
X172319890Y-105019786D01*
X172470213Y-105170109D01*
X172642182Y-105295050D01*
X172650946Y-105299516D01*
X172701742Y-105347491D01*
X172718536Y-105415312D01*
X172695998Y-105481447D01*
X172650946Y-105520484D01*
X172642182Y-105524949D01*
X172470213Y-105649890D01*
X172319890Y-105800213D01*
X172194951Y-105972179D01*
X172098444Y-106161585D01*
X172032753Y-106363760D01*
X172022262Y-106430000D01*
X171999500Y-106573713D01*
X171999500Y-106786287D01*
X172032754Y-106996243D01*
X172036003Y-107006243D01*
X172098444Y-107198414D01*
X172194951Y-107387820D01*
X172319890Y-107559786D01*
X172470213Y-107710109D01*
X172642179Y-107835048D01*
X172642181Y-107835049D01*
X172642184Y-107835051D01*
X172831588Y-107931557D01*
X173033757Y-107997246D01*
X173243713Y-108030500D01*
X173243714Y-108030500D01*
X173456286Y-108030500D01*
X173456287Y-108030500D01*
X173666243Y-107997246D01*
X173868412Y-107931557D01*
X174057816Y-107835051D01*
X174079789Y-107819086D01*
X174229786Y-107710109D01*
X174229788Y-107710106D01*
X174229792Y-107710104D01*
X174380104Y-107559792D01*
X174380106Y-107559788D01*
X174380109Y-107559786D01*
X174505048Y-107387820D01*
X174505047Y-107387820D01*
X174505051Y-107387816D01*
X174601557Y-107198412D01*
X174667246Y-106996243D01*
X174700500Y-106786287D01*
X174700500Y-106573713D01*
X174667246Y-106363757D01*
X174601557Y-106161588D01*
X174505051Y-105972184D01*
X174505049Y-105972181D01*
X174505048Y-105972179D01*
X174380109Y-105800213D01*
X174229786Y-105649890D01*
X174057820Y-105524951D01*
X174049600Y-105520763D01*
X174049054Y-105520485D01*
X173998259Y-105472512D01*
X173981463Y-105404692D01*
X174003999Y-105338556D01*
X174049054Y-105299515D01*
X174057816Y-105295051D01*
X174079789Y-105279086D01*
X174229786Y-105170109D01*
X174229788Y-105170106D01*
X174229792Y-105170104D01*
X174380104Y-105019792D01*
X174380106Y-105019788D01*
X174380109Y-105019786D01*
X174505048Y-104847820D01*
X174505047Y-104847820D01*
X174505051Y-104847816D01*
X174601557Y-104658412D01*
X174667246Y-104456243D01*
X174700500Y-104246287D01*
X174700500Y-104033713D01*
X174667246Y-103823757D01*
X174601557Y-103621588D01*
X174505051Y-103432184D01*
X174505049Y-103432181D01*
X174505048Y-103432179D01*
X174380109Y-103260213D01*
X174229786Y-103109890D01*
X174057820Y-102984951D01*
X174057115Y-102984591D01*
X174049054Y-102980485D01*
X173998259Y-102932512D01*
X173981463Y-102864692D01*
X174003999Y-102798556D01*
X174049054Y-102759515D01*
X174057816Y-102755051D01*
X174079789Y-102739086D01*
X174229786Y-102630109D01*
X174229788Y-102630106D01*
X174229792Y-102630104D01*
X174380104Y-102479792D01*
X174380106Y-102479788D01*
X174380109Y-102479786D01*
X174505048Y-102307820D01*
X174505047Y-102307820D01*
X174505051Y-102307816D01*
X174601557Y-102118412D01*
X174667246Y-101916243D01*
X174700500Y-101706287D01*
X174700500Y-101493713D01*
X174667246Y-101283757D01*
X174601557Y-101081588D01*
X174505051Y-100892184D01*
X174505049Y-100892181D01*
X174505048Y-100892179D01*
X174380109Y-100720213D01*
X174229786Y-100569890D01*
X174057820Y-100444951D01*
X174057115Y-100444591D01*
X174049054Y-100440485D01*
X173998259Y-100392512D01*
X173981463Y-100324692D01*
X174003999Y-100258556D01*
X174049054Y-100219515D01*
X174057816Y-100215051D01*
X174079789Y-100199086D01*
X174229786Y-100090109D01*
X174229788Y-100090106D01*
X174229792Y-100090104D01*
X174380104Y-99939792D01*
X174380106Y-99939788D01*
X174380109Y-99939786D01*
X174505048Y-99767820D01*
X174505047Y-99767820D01*
X174505051Y-99767816D01*
X174601557Y-99578412D01*
X174667246Y-99376243D01*
X174700500Y-99166287D01*
X174700500Y-98953713D01*
X174667246Y-98743757D01*
X174601557Y-98541588D01*
X174505051Y-98352184D01*
X174505049Y-98352181D01*
X174505048Y-98352179D01*
X174380109Y-98180213D01*
X174229786Y-98029890D01*
X174057820Y-97904951D01*
X174057115Y-97904591D01*
X174049054Y-97900485D01*
X173998259Y-97852512D01*
X173981463Y-97784692D01*
X174003999Y-97718556D01*
X174049054Y-97679515D01*
X174057816Y-97675051D01*
X174144138Y-97612335D01*
X174229786Y-97550109D01*
X174229788Y-97550106D01*
X174229792Y-97550104D01*
X174380104Y-97399792D01*
X174380106Y-97399788D01*
X174380109Y-97399786D01*
X174505048Y-97227820D01*
X174505047Y-97227820D01*
X174505051Y-97227816D01*
X174601557Y-97038412D01*
X174667246Y-96836243D01*
X174700500Y-96626287D01*
X174700500Y-96413713D01*
X174667246Y-96203757D01*
X174601557Y-96001588D01*
X174505051Y-95812184D01*
X174505049Y-95812181D01*
X174505048Y-95812179D01*
X174380109Y-95640213D01*
X174229786Y-95489890D01*
X174057820Y-95364951D01*
X174057115Y-95364591D01*
X174049054Y-95360485D01*
X173998259Y-95312512D01*
X173981463Y-95244692D01*
X174003999Y-95178556D01*
X174049054Y-95139515D01*
X174057816Y-95135051D01*
X174130374Y-95082335D01*
X174229786Y-95010109D01*
X174229788Y-95010106D01*
X174229792Y-95010104D01*
X174380104Y-94859792D01*
X174380106Y-94859788D01*
X174380109Y-94859786D01*
X174505048Y-94687820D01*
X174505047Y-94687820D01*
X174505051Y-94687816D01*
X174601557Y-94498412D01*
X174667246Y-94296243D01*
X174700500Y-94086287D01*
X174700500Y-93873713D01*
X174667246Y-93663757D01*
X174601557Y-93461588D01*
X174505051Y-93272184D01*
X174505049Y-93272181D01*
X174505048Y-93272179D01*
X174380109Y-93100213D01*
X174229786Y-92949890D01*
X174057820Y-92824951D01*
X174057115Y-92824591D01*
X174049054Y-92820485D01*
X173998259Y-92772512D01*
X173981463Y-92704692D01*
X174003999Y-92638556D01*
X174049054Y-92599515D01*
X174057816Y-92595051D01*
X174079789Y-92579086D01*
X174229786Y-92470109D01*
X174229788Y-92470106D01*
X174229792Y-92470104D01*
X174380104Y-92319792D01*
X174380106Y-92319788D01*
X174380109Y-92319786D01*
X174505048Y-92147820D01*
X174505047Y-92147820D01*
X174505051Y-92147816D01*
X174601557Y-91958412D01*
X174667246Y-91756243D01*
X174700500Y-91546287D01*
X174700500Y-91333713D01*
X174667246Y-91123757D01*
X174601557Y-90921588D01*
X174505051Y-90732184D01*
X174505049Y-90732181D01*
X174505048Y-90732179D01*
X174380109Y-90560213D01*
X174266569Y-90446673D01*
X174233084Y-90385350D01*
X174238068Y-90315658D01*
X174279940Y-90259725D01*
X174310915Y-90242810D01*
X174442331Y-90193796D01*
X174557546Y-90107546D01*
X174643796Y-89992331D01*
X174694091Y-89857483D01*
X174700500Y-89797873D01*
X174700499Y-88002128D01*
X174694091Y-87942517D01*
X174643796Y-87807669D01*
X174643795Y-87807668D01*
X174643793Y-87807664D01*
X174557547Y-87692455D01*
X174557544Y-87692452D01*
X174442335Y-87606206D01*
X174442328Y-87606202D01*
X174307482Y-87555908D01*
X174307483Y-87555908D01*
X174247883Y-87549501D01*
X174247881Y-87549500D01*
X174247873Y-87549500D01*
X174247864Y-87549500D01*
X172452129Y-87549500D01*
X172452123Y-87549501D01*
X172392516Y-87555908D01*
X172257671Y-87606202D01*
X172257664Y-87606206D01*
X172142455Y-87692452D01*
X172142452Y-87692455D01*
X172056206Y-87807664D01*
X172056202Y-87807671D01*
X172005908Y-87942517D01*
X171999501Y-88002116D01*
X171999501Y-88002123D01*
X171999500Y-88002135D01*
X171500500Y-88002135D01*
X171500500Y-60624500D01*
X171520185Y-60557461D01*
X171572989Y-60511706D01*
X171624500Y-60500500D01*
X172119823Y-60500500D01*
X172186862Y-60520185D01*
X172232617Y-60572989D01*
X172242561Y-60642147D01*
X172213536Y-60705703D01*
X172194137Y-60723763D01*
X172142454Y-60762454D01*
X172142453Y-60762455D01*
X172142452Y-60762456D01*
X172056206Y-60877664D01*
X172056202Y-60877671D01*
X172005908Y-61012517D01*
X171999501Y-61072116D01*
X171999501Y-61072123D01*
X171999500Y-61072135D01*
X171999500Y-62867870D01*
X171999501Y-62867876D01*
X172005908Y-62927483D01*
X172056202Y-63062328D01*
X172056206Y-63062335D01*
X172142452Y-63177544D01*
X172142455Y-63177547D01*
X172257664Y-63263793D01*
X172257671Y-63263797D01*
X172389082Y-63312810D01*
X172445016Y-63354681D01*
X172469433Y-63420145D01*
X172454582Y-63488418D01*
X172433431Y-63516673D01*
X172319889Y-63630215D01*
X172194951Y-63802179D01*
X172098444Y-63991585D01*
X172032753Y-64193760D01*
X171999500Y-64403713D01*
X171999500Y-64616286D01*
X172032753Y-64826239D01*
X172098444Y-65028414D01*
X172194951Y-65217820D01*
X172319890Y-65389786D01*
X172470213Y-65540109D01*
X172642182Y-65665050D01*
X172650946Y-65669516D01*
X172701742Y-65717491D01*
X172718536Y-65785312D01*
X172695998Y-65851447D01*
X172650946Y-65890484D01*
X172642182Y-65894949D01*
X172470213Y-66019890D01*
X172319890Y-66170213D01*
X172194951Y-66342179D01*
X172098444Y-66531585D01*
X172032753Y-66733760D01*
X171999500Y-66943713D01*
X171999500Y-67156286D01*
X172029309Y-67344497D01*
X172032754Y-67366243D01*
X172087134Y-67533608D01*
X172098444Y-67568414D01*
X172194951Y-67757820D01*
X172319890Y-67929786D01*
X172470213Y-68080109D01*
X172642179Y-68205048D01*
X172642181Y-68205049D01*
X172642184Y-68205051D01*
X172651493Y-68209794D01*
X172702290Y-68257766D01*
X172719087Y-68325587D01*
X172696552Y-68391722D01*
X172651502Y-68430762D01*
X172642443Y-68435378D01*
X172470540Y-68560272D01*
X172470535Y-68560276D01*
X172320276Y-68710535D01*
X172320272Y-68710540D01*
X172195379Y-68882442D01*
X172098904Y-69071782D01*
X172033242Y-69273870D01*
X172033242Y-69273873D01*
X172022769Y-69340000D01*
X172916988Y-69340000D01*
X172884075Y-69397007D01*
X172850000Y-69524174D01*
X172850000Y-69655826D01*
X172884075Y-69782993D01*
X172916988Y-69840000D01*
X172022769Y-69840000D01*
X172033242Y-69906126D01*
X172033242Y-69906129D01*
X172098904Y-70108217D01*
X172195379Y-70297557D01*
X172320272Y-70469459D01*
X172320276Y-70469464D01*
X172470535Y-70619723D01*
X172470540Y-70619727D01*
X172642444Y-70744622D01*
X172651495Y-70749234D01*
X172702292Y-70797208D01*
X172719087Y-70865029D01*
X172696550Y-70931164D01*
X172651499Y-70970202D01*
X172642182Y-70974949D01*
X172470213Y-71099890D01*
X172319890Y-71250213D01*
X172194951Y-71422179D01*
X172098444Y-71611585D01*
X172032753Y-71813760D01*
X171999500Y-72023713D01*
X171999500Y-72236286D01*
X172022001Y-72378356D01*
X172032754Y-72446243D01*
X172092424Y-72629889D01*
X172098444Y-72648414D01*
X172194951Y-72837820D01*
X172319890Y-73009786D01*
X172470213Y-73160109D01*
X172642182Y-73285050D01*
X172650946Y-73289516D01*
X172701742Y-73337491D01*
X172718536Y-73405312D01*
X172695998Y-73471447D01*
X172650946Y-73510484D01*
X172642182Y-73514949D01*
X172470213Y-73639890D01*
X172319890Y-73790213D01*
X172194951Y-73962179D01*
X172098444Y-74151585D01*
X172032753Y-74353760D01*
X172003290Y-74539786D01*
X171999500Y-74563713D01*
X171999500Y-74776287D01*
X172032754Y-74986243D01*
X172073012Y-75110145D01*
X172098444Y-75188414D01*
X172194951Y-75377820D01*
X172319890Y-75549786D01*
X172470213Y-75700109D01*
X172642182Y-75825050D01*
X172650946Y-75829516D01*
X172701742Y-75877491D01*
X172718536Y-75945312D01*
X172695998Y-76011447D01*
X172650946Y-76050484D01*
X172642182Y-76054949D01*
X172470213Y-76179890D01*
X172319890Y-76330213D01*
X172194951Y-76502179D01*
X172098444Y-76691585D01*
X172032753Y-76893760D01*
X172027810Y-76924970D01*
X171999500Y-77103713D01*
X171999500Y-77316287D01*
X172032754Y-77526243D01*
X172051829Y-77584951D01*
X172098444Y-77728414D01*
X172194951Y-77917820D01*
X172319890Y-78089786D01*
X172470213Y-78240109D01*
X172642182Y-78365050D01*
X172650946Y-78369516D01*
X172701742Y-78417491D01*
X172718536Y-78485312D01*
X172695998Y-78551447D01*
X172650946Y-78590484D01*
X172642182Y-78594949D01*
X172470213Y-78719890D01*
X172319890Y-78870213D01*
X172194951Y-79042179D01*
X172098444Y-79231585D01*
X172032753Y-79433760D01*
X172003290Y-79619786D01*
X171999500Y-79643713D01*
X171999500Y-79856287D01*
X172032754Y-80066243D01*
X172051829Y-80124951D01*
X172098444Y-80268414D01*
X172194951Y-80457820D01*
X172319890Y-80629786D01*
X172470213Y-80780109D01*
X172642182Y-80905050D01*
X172650946Y-80909516D01*
X172701742Y-80957491D01*
X172718536Y-81025312D01*
X172695998Y-81091447D01*
X172650946Y-81130484D01*
X172642182Y-81134949D01*
X172470213Y-81259890D01*
X172319890Y-81410213D01*
X172194951Y-81582179D01*
X172098444Y-81771585D01*
X172032753Y-81973760D01*
X171999500Y-82183713D01*
X171999500Y-82396286D01*
X172023048Y-82544966D01*
X172032754Y-82606243D01*
X172092550Y-82790276D01*
X172098444Y-82808414D01*
X172194951Y-82997820D01*
X172319890Y-83169786D01*
X172470213Y-83320109D01*
X172642182Y-83445050D01*
X172650946Y-83449516D01*
X172701742Y-83497491D01*
X172718536Y-83565312D01*
X172695998Y-83631447D01*
X172650946Y-83670484D01*
X172642182Y-83674949D01*
X172470213Y-83799890D01*
X172319890Y-83950213D01*
X172194951Y-84122179D01*
X172098444Y-84311585D01*
X172032753Y-84513760D01*
X172032089Y-84517954D01*
X171999500Y-84723713D01*
X171999500Y-84936287D01*
X172032754Y-85146243D01*
X172092550Y-85330276D01*
X172098444Y-85348414D01*
X172194951Y-85537820D01*
X172319890Y-85709786D01*
X172470213Y-85860109D01*
X172642179Y-85985048D01*
X172642181Y-85985049D01*
X172642184Y-85985051D01*
X172831588Y-86081557D01*
X173033757Y-86147246D01*
X173243713Y-86180500D01*
X173243714Y-86180500D01*
X173456286Y-86180500D01*
X173456287Y-86180500D01*
X173666243Y-86147246D01*
X173868412Y-86081557D01*
X174057816Y-85985051D01*
X174183035Y-85894075D01*
X174229786Y-85860109D01*
X174229788Y-85860106D01*
X174229792Y-85860104D01*
X174380104Y-85709792D01*
X174380106Y-85709788D01*
X174380109Y-85709786D01*
X174505048Y-85537820D01*
X174505047Y-85537820D01*
X174505051Y-85537816D01*
X174601557Y-85348412D01*
X174667246Y-85146243D01*
X174700500Y-84936287D01*
X174700500Y-84723713D01*
X174667246Y-84513757D01*
X174601557Y-84311588D01*
X174505051Y-84122184D01*
X174505049Y-84122181D01*
X174505048Y-84122179D01*
X174380109Y-83950213D01*
X174229786Y-83799890D01*
X174057820Y-83674951D01*
X174057115Y-83674591D01*
X174049054Y-83670485D01*
X173998259Y-83622512D01*
X173981463Y-83554692D01*
X174003999Y-83488556D01*
X174049054Y-83449515D01*
X174057816Y-83445051D01*
X174183035Y-83354075D01*
X174229786Y-83320109D01*
X174229788Y-83320106D01*
X174229792Y-83320104D01*
X174380104Y-83169792D01*
X174380106Y-83169788D01*
X174380109Y-83169786D01*
X174505048Y-82997820D01*
X174505047Y-82997820D01*
X174505051Y-82997816D01*
X174601557Y-82808412D01*
X174667246Y-82606243D01*
X174700500Y-82396287D01*
X174700500Y-82183713D01*
X174667246Y-81973757D01*
X174601557Y-81771588D01*
X174505051Y-81582184D01*
X174505049Y-81582181D01*
X174505048Y-81582179D01*
X174380109Y-81410213D01*
X174229786Y-81259890D01*
X174057820Y-81134951D01*
X174057115Y-81134591D01*
X174049054Y-81130485D01*
X173998259Y-81082512D01*
X173981463Y-81014692D01*
X174003999Y-80948556D01*
X174049054Y-80909515D01*
X174057816Y-80905051D01*
X174079789Y-80889086D01*
X174229786Y-80780109D01*
X174229788Y-80780106D01*
X174229792Y-80780104D01*
X174380104Y-80629792D01*
X174380106Y-80629788D01*
X174380109Y-80629786D01*
X174505048Y-80457820D01*
X174505047Y-80457820D01*
X174505051Y-80457816D01*
X174601557Y-80268412D01*
X174667246Y-80066243D01*
X174700500Y-79856287D01*
X174700500Y-79643713D01*
X174667246Y-79433757D01*
X174601557Y-79231588D01*
X174505051Y-79042184D01*
X174505049Y-79042181D01*
X174505048Y-79042179D01*
X174380109Y-78870213D01*
X174229786Y-78719890D01*
X174057820Y-78594951D01*
X174057115Y-78594591D01*
X174049054Y-78590485D01*
X173998259Y-78542512D01*
X173981463Y-78474692D01*
X174003999Y-78408556D01*
X174049054Y-78369515D01*
X174057816Y-78365051D01*
X174079789Y-78349086D01*
X174229786Y-78240109D01*
X174229788Y-78240106D01*
X174229792Y-78240104D01*
X174380104Y-78089792D01*
X174380106Y-78089788D01*
X174380109Y-78089786D01*
X174505048Y-77917820D01*
X174505047Y-77917820D01*
X174505051Y-77917816D01*
X174601557Y-77728412D01*
X174667246Y-77526243D01*
X174700500Y-77316287D01*
X174700500Y-77103713D01*
X174667246Y-76893757D01*
X174601557Y-76691588D01*
X174505051Y-76502184D01*
X174505049Y-76502181D01*
X174505048Y-76502179D01*
X174380109Y-76330213D01*
X174229786Y-76179890D01*
X174057820Y-76054951D01*
X174057115Y-76054591D01*
X174049054Y-76050485D01*
X173998259Y-76002512D01*
X173981463Y-75934692D01*
X174003999Y-75868556D01*
X174049054Y-75829515D01*
X174057816Y-75825051D01*
X174079789Y-75809086D01*
X174229786Y-75700109D01*
X174229788Y-75700106D01*
X174229792Y-75700104D01*
X174380104Y-75549792D01*
X174380106Y-75549788D01*
X174380109Y-75549786D01*
X174505048Y-75377820D01*
X174505047Y-75377820D01*
X174505051Y-75377816D01*
X174601557Y-75188412D01*
X174667246Y-74986243D01*
X174700500Y-74776287D01*
X174700500Y-74563713D01*
X174667246Y-74353757D01*
X174601557Y-74151588D01*
X174505051Y-73962184D01*
X174505049Y-73962181D01*
X174505048Y-73962179D01*
X174380109Y-73790213D01*
X174229786Y-73639890D01*
X174057820Y-73514951D01*
X174057115Y-73514591D01*
X174049054Y-73510485D01*
X173998259Y-73462512D01*
X173981463Y-73394692D01*
X174003999Y-73328556D01*
X174049054Y-73289515D01*
X174057816Y-73285051D01*
X174079789Y-73269086D01*
X174229786Y-73160109D01*
X174229788Y-73160106D01*
X174229792Y-73160104D01*
X174380104Y-73009792D01*
X174380106Y-73009788D01*
X174380109Y-73009786D01*
X174505048Y-72837820D01*
X174505047Y-72837820D01*
X174505051Y-72837816D01*
X174601557Y-72648412D01*
X174667246Y-72446243D01*
X174700500Y-72236287D01*
X174700500Y-72023713D01*
X174667246Y-71813757D01*
X174601557Y-71611588D01*
X174505051Y-71422184D01*
X174505049Y-71422181D01*
X174505048Y-71422179D01*
X174380109Y-71250213D01*
X174229786Y-71099890D01*
X174057817Y-70974949D01*
X174048504Y-70970204D01*
X173997707Y-70922230D01*
X173980912Y-70854409D01*
X174003449Y-70788274D01*
X174048507Y-70749232D01*
X174057558Y-70744620D01*
X174229459Y-70619727D01*
X174229464Y-70619723D01*
X174379723Y-70469464D01*
X174379727Y-70469459D01*
X174504620Y-70297557D01*
X174601095Y-70108217D01*
X174666757Y-69906129D01*
X174666757Y-69906126D01*
X174677231Y-69840000D01*
X173783012Y-69840000D01*
X173815925Y-69782993D01*
X173850000Y-69655826D01*
X173850000Y-69524174D01*
X173815925Y-69397007D01*
X173783012Y-69340000D01*
X174677231Y-69340000D01*
X174666757Y-69273873D01*
X174666757Y-69273870D01*
X174601095Y-69071782D01*
X174504620Y-68882442D01*
X174379727Y-68710540D01*
X174379723Y-68710535D01*
X174229464Y-68560276D01*
X174229459Y-68560272D01*
X174057555Y-68435377D01*
X174048500Y-68430763D01*
X173997706Y-68382788D01*
X173980912Y-68314966D01*
X174003451Y-68248832D01*
X174048508Y-68209793D01*
X174057816Y-68205051D01*
X174137007Y-68147515D01*
X174229786Y-68080109D01*
X174229788Y-68080106D01*
X174229792Y-68080104D01*
X174380104Y-67929792D01*
X174380106Y-67929788D01*
X174380109Y-67929786D01*
X174505048Y-67757820D01*
X174505047Y-67757820D01*
X174505051Y-67757816D01*
X174601557Y-67568412D01*
X174667246Y-67366243D01*
X174700500Y-67156287D01*
X174700500Y-66943713D01*
X174667246Y-66733757D01*
X174601557Y-66531588D01*
X174505051Y-66342184D01*
X174505049Y-66342181D01*
X174505048Y-66342179D01*
X174380109Y-66170213D01*
X174229786Y-66019890D01*
X174057820Y-65894951D01*
X174057115Y-65894591D01*
X174049054Y-65890485D01*
X173998259Y-65842512D01*
X173981463Y-65774692D01*
X174003999Y-65708556D01*
X174049054Y-65669515D01*
X174057816Y-65665051D01*
X174079789Y-65649086D01*
X174229786Y-65540109D01*
X174229788Y-65540106D01*
X174229792Y-65540104D01*
X174380104Y-65389792D01*
X174380106Y-65389788D01*
X174380109Y-65389786D01*
X174505048Y-65217820D01*
X174505047Y-65217820D01*
X174505051Y-65217816D01*
X174601557Y-65028412D01*
X174667246Y-64826243D01*
X174700500Y-64616287D01*
X174700500Y-64403713D01*
X174667246Y-64193757D01*
X174601557Y-63991588D01*
X174505051Y-63802184D01*
X174505049Y-63802181D01*
X174505048Y-63802179D01*
X174380109Y-63630213D01*
X174266569Y-63516673D01*
X174233084Y-63455350D01*
X174238068Y-63385658D01*
X174279940Y-63329725D01*
X174310915Y-63312810D01*
X174442331Y-63263796D01*
X174557546Y-63177546D01*
X174643796Y-63062331D01*
X174694091Y-62927483D01*
X174700500Y-62867873D01*
X174700499Y-61072128D01*
X174694091Y-61012517D01*
X174643796Y-60877669D01*
X174643795Y-60877668D01*
X174643793Y-60877664D01*
X174557547Y-60762456D01*
X174557548Y-60762456D01*
X174557546Y-60762454D01*
X174505864Y-60723765D01*
X174463995Y-60667833D01*
X174459011Y-60598141D01*
X174492496Y-60536818D01*
X174553820Y-60503334D01*
X174580177Y-60500500D01*
X182375500Y-60500500D01*
X182442539Y-60520185D01*
X182488294Y-60572989D01*
X182499500Y-60624500D01*
X182499500Y-156375500D01*
X182479815Y-156442539D01*
X182427011Y-156488294D01*
X182375500Y-156499500D01*
X96624500Y-156499500D01*
X96557461Y-156479815D01*
X96511706Y-156427011D01*
X96500500Y-156375500D01*
X96500500Y-150859598D01*
X97500000Y-150859598D01*
X97500000Y-151140401D01*
X97531437Y-151419412D01*
X97531439Y-151419424D01*
X97593921Y-151693178D01*
X97593922Y-151693180D01*
X97686662Y-151958217D01*
X97808492Y-152211200D01*
X97957884Y-152448956D01*
X98064187Y-152582257D01*
X98777339Y-151869104D01*
X98855864Y-151977184D01*
X99022816Y-152144136D01*
X99130893Y-152222658D01*
X98417741Y-152935810D01*
X98417741Y-152935811D01*
X98551043Y-153042115D01*
X98788799Y-153191507D01*
X99041782Y-153313337D01*
X99306819Y-153406077D01*
X99306821Y-153406078D01*
X99580575Y-153468560D01*
X99580587Y-153468562D01*
X99859598Y-153499999D01*
X99859600Y-153500000D01*
X100140400Y-153500000D01*
X100140401Y-153499999D01*
X100419412Y-153468562D01*
X100419424Y-153468560D01*
X100693178Y-153406078D01*
X100693180Y-153406077D01*
X100958217Y-153313337D01*
X101211200Y-153191507D01*
X101448956Y-153042116D01*
X101582257Y-152935810D01*
X100869105Y-152222659D01*
X100977184Y-152144136D01*
X101144136Y-151977184D01*
X101222659Y-151869106D01*
X101935810Y-152582257D01*
X102042116Y-152448956D01*
X102191507Y-152211200D01*
X102313337Y-151958217D01*
X102406077Y-151693180D01*
X102406078Y-151693178D01*
X102468560Y-151419424D01*
X102468562Y-151419412D01*
X102499999Y-151140401D01*
X102500000Y-151140399D01*
X102500000Y-150859600D01*
X102499999Y-150859598D01*
X102468562Y-150580587D01*
X102468560Y-150580575D01*
X102406078Y-150306821D01*
X102406077Y-150306819D01*
X102313337Y-150041782D01*
X102191507Y-149788799D01*
X102042115Y-149551043D01*
X101935810Y-149417741D01*
X101222658Y-150130893D01*
X101144136Y-150022816D01*
X100977184Y-149855864D01*
X100869105Y-149777340D01*
X101582257Y-149064187D01*
X101448956Y-148957884D01*
X101211200Y-148808492D01*
X100958217Y-148686662D01*
X100693180Y-148593922D01*
X100693178Y-148593921D01*
X100419424Y-148531439D01*
X100419412Y-148531437D01*
X100140401Y-148500000D01*
X99859598Y-148500000D01*
X99580587Y-148531437D01*
X99580575Y-148531439D01*
X99306821Y-148593921D01*
X99306819Y-148593922D01*
X99041782Y-148686662D01*
X98788799Y-148808492D01*
X98551043Y-148957884D01*
X98417741Y-149064187D01*
X99130894Y-149777340D01*
X99022816Y-149855864D01*
X98855864Y-150022816D01*
X98777340Y-150130894D01*
X98064187Y-149417741D01*
X97957884Y-149551043D01*
X97808492Y-149788799D01*
X97686662Y-150041782D01*
X97593922Y-150306819D01*
X97593921Y-150306821D01*
X97531439Y-150580575D01*
X97531437Y-150580587D01*
X97500000Y-150859598D01*
X96500500Y-150859598D01*
X96500500Y-71065928D01*
X97719500Y-71065928D01*
X97719500Y-71065931D01*
X97719500Y-139184069D01*
X97739643Y-139285331D01*
X97742541Y-139299901D01*
X97744499Y-139309744D01*
X97793534Y-139428125D01*
X97864726Y-139534673D01*
X99585325Y-141255272D01*
X99585332Y-141255278D01*
X99681780Y-141319722D01*
X99681781Y-141319722D01*
X99682440Y-141320162D01*
X99691873Y-141326465D01*
X99810256Y-141375501D01*
X99810260Y-141375501D01*
X99810261Y-141375502D01*
X99935928Y-141400500D01*
X99935931Y-141400500D01*
X105564071Y-141400500D01*
X105648615Y-141383682D01*
X105689744Y-141375501D01*
X105808127Y-141326465D01*
X105817560Y-141320162D01*
X105818219Y-141319722D01*
X105885182Y-141274979D01*
X105914669Y-141255277D01*
X106585277Y-140584669D01*
X106656465Y-140478127D01*
X106705501Y-140359744D01*
X106730500Y-140234069D01*
X106730500Y-138539617D01*
X106732063Y-138534292D01*
X106730968Y-138528851D01*
X106741802Y-138501125D01*
X106750185Y-138472578D01*
X106754911Y-138467579D01*
X106756399Y-138463773D01*
X106770318Y-138451287D01*
X106781741Y-138439208D01*
X106786676Y-138435631D01*
X106787816Y-138435051D01*
X106915880Y-138342007D01*
X106948575Y-138330387D01*
X106981559Y-138318619D01*
X106981637Y-138318637D01*
X106981714Y-138318610D01*
X107015519Y-138326515D01*
X107049613Y-138334444D01*
X107049699Y-138334509D01*
X107049748Y-138334521D01*
X107049842Y-138334618D01*
X107076319Y-138354736D01*
X123946853Y-155225271D01*
X123946860Y-155225277D01*
X124053400Y-155296464D01*
X124053399Y-155296464D01*
X124088073Y-155310826D01*
X124171785Y-155345501D01*
X124171789Y-155345501D01*
X124171790Y-155345502D01*
X124297457Y-155370500D01*
X124297460Y-155370500D01*
X166262591Y-155370500D01*
X166347135Y-155353682D01*
X166388264Y-155345501D01*
X166506647Y-155296465D01*
X166613189Y-155225277D01*
X166613195Y-155225271D01*
X168538784Y-153299683D01*
X170478869Y-151359598D01*
X173500000Y-151359598D01*
X173500000Y-151640401D01*
X173531437Y-151919412D01*
X173531439Y-151919424D01*
X173593921Y-152193178D01*
X173593922Y-152193180D01*
X173686662Y-152458217D01*
X173808492Y-152711200D01*
X173957884Y-152948956D01*
X174064187Y-153082257D01*
X174777339Y-152369104D01*
X174855864Y-152477184D01*
X175022816Y-152644136D01*
X175130893Y-152722658D01*
X174417741Y-153435810D01*
X174417741Y-153435811D01*
X174551043Y-153542115D01*
X174788799Y-153691507D01*
X175041782Y-153813337D01*
X175306819Y-153906077D01*
X175306821Y-153906078D01*
X175580575Y-153968560D01*
X175580587Y-153968562D01*
X175859598Y-153999999D01*
X175859600Y-154000000D01*
X176140400Y-154000000D01*
X176140401Y-153999999D01*
X176419412Y-153968562D01*
X176419424Y-153968560D01*
X176693178Y-153906078D01*
X176693180Y-153906077D01*
X176958217Y-153813337D01*
X177211200Y-153691507D01*
X177448956Y-153542116D01*
X177582257Y-153435810D01*
X176869105Y-152722659D01*
X176977184Y-152644136D01*
X177144136Y-152477184D01*
X177222659Y-152369106D01*
X177935810Y-153082257D01*
X178042116Y-152948956D01*
X178191507Y-152711200D01*
X178313337Y-152458217D01*
X178406077Y-152193180D01*
X178406078Y-152193178D01*
X178468560Y-151919424D01*
X178468562Y-151919412D01*
X178499999Y-151640401D01*
X178500000Y-151640399D01*
X178500000Y-151359600D01*
X178499999Y-151359598D01*
X178468562Y-151080587D01*
X178468560Y-151080575D01*
X178406078Y-150806821D01*
X178406077Y-150806819D01*
X178313337Y-150541782D01*
X178191507Y-150288799D01*
X178042115Y-150051043D01*
X177935810Y-149917741D01*
X177222658Y-150630892D01*
X177144136Y-150522816D01*
X176977184Y-150355864D01*
X176869105Y-150277340D01*
X177582257Y-149564187D01*
X177448956Y-149457884D01*
X177211200Y-149308492D01*
X176958217Y-149186662D01*
X176693180Y-149093922D01*
X176693178Y-149093921D01*
X176419424Y-149031439D01*
X176419412Y-149031437D01*
X176140401Y-149000000D01*
X175859598Y-149000000D01*
X175580587Y-149031437D01*
X175580575Y-149031439D01*
X175306821Y-149093921D01*
X175306819Y-149093922D01*
X175041782Y-149186662D01*
X174788799Y-149308492D01*
X174551043Y-149457884D01*
X174417741Y-149564187D01*
X175130894Y-150277340D01*
X175022816Y-150355864D01*
X174855864Y-150522816D01*
X174777340Y-150630894D01*
X174064187Y-149917741D01*
X173957884Y-150051043D01*
X173808492Y-150288799D01*
X173686662Y-150541782D01*
X173593922Y-150806819D01*
X173593921Y-150806821D01*
X173531439Y-151080575D01*
X173531437Y-151080587D01*
X173500000Y-151359598D01*
X170478869Y-151359598D01*
X172313514Y-149524953D01*
X177365272Y-144473194D01*
X177365277Y-144473189D01*
X177436466Y-144366646D01*
X177480033Y-144261465D01*
X177485501Y-144248264D01*
X177493682Y-144207135D01*
X177510500Y-144122591D01*
X177510500Y-141782014D01*
X178480000Y-141782014D01*
X178480000Y-142017985D01*
X178510799Y-142251914D01*
X178571870Y-142479837D01*
X178662160Y-142697819D01*
X178662165Y-142697828D01*
X178780144Y-142902171D01*
X178780145Y-142902172D01*
X178842721Y-142983723D01*
X179678958Y-142147487D01*
X179703978Y-142207890D01*
X179775112Y-142314351D01*
X179865649Y-142404888D01*
X179972110Y-142476022D01*
X180032511Y-142501041D01*
X179196275Y-143337277D01*
X179277827Y-143399854D01*
X179277828Y-143399855D01*
X179482171Y-143517834D01*
X179482180Y-143517839D01*
X179700163Y-143608129D01*
X179700161Y-143608129D01*
X179928085Y-143669200D01*
X180162014Y-143699999D01*
X180162029Y-143700000D01*
X180397971Y-143700000D01*
X180397985Y-143699999D01*
X180631914Y-143669200D01*
X180859837Y-143608129D01*
X181077819Y-143517839D01*
X181077828Y-143517834D01*
X181282181Y-143399850D01*
X181363723Y-143337279D01*
X181363723Y-143337276D01*
X180527487Y-142501041D01*
X180587890Y-142476022D01*
X180694351Y-142404888D01*
X180784888Y-142314351D01*
X180856022Y-142207890D01*
X180881041Y-142147488D01*
X181717276Y-142983723D01*
X181717279Y-142983723D01*
X181779850Y-142902181D01*
X181897834Y-142697828D01*
X181897839Y-142697819D01*
X181988129Y-142479837D01*
X182049200Y-142251914D01*
X182079999Y-142017985D01*
X182080000Y-142017971D01*
X182080000Y-141782028D01*
X182079999Y-141782014D01*
X182049200Y-141548085D01*
X181988129Y-141320162D01*
X181897839Y-141102180D01*
X181897834Y-141102171D01*
X181779855Y-140897828D01*
X181779854Y-140897827D01*
X181717277Y-140816275D01*
X180881041Y-141652511D01*
X180856022Y-141592110D01*
X180784888Y-141485649D01*
X180694351Y-141395112D01*
X180587890Y-141323978D01*
X180527488Y-141298958D01*
X181363723Y-140462721D01*
X181282172Y-140400145D01*
X181282171Y-140400144D01*
X181077828Y-140282165D01*
X181077819Y-140282160D01*
X180859836Y-140191870D01*
X180859838Y-140191870D01*
X180631914Y-140130799D01*
X180397985Y-140100000D01*
X180162014Y-140100000D01*
X179928085Y-140130799D01*
X179700162Y-140191870D01*
X179482180Y-140282160D01*
X179482171Y-140282165D01*
X179277828Y-140400144D01*
X179277818Y-140400150D01*
X179196275Y-140462720D01*
X179196275Y-140462721D01*
X180032512Y-141298958D01*
X179972110Y-141323978D01*
X179865649Y-141395112D01*
X179775112Y-141485649D01*
X179703978Y-141592110D01*
X179678958Y-141652511D01*
X178842721Y-140816275D01*
X178842720Y-140816275D01*
X178780150Y-140897818D01*
X178780144Y-140897828D01*
X178662165Y-141102171D01*
X178662160Y-141102180D01*
X178571870Y-141320162D01*
X178510799Y-141548085D01*
X178480000Y-141782014D01*
X177510500Y-141782014D01*
X177510500Y-134162014D01*
X178480000Y-134162014D01*
X178480000Y-134397985D01*
X178510799Y-134631914D01*
X178571870Y-134859837D01*
X178662160Y-135077819D01*
X178662165Y-135077828D01*
X178780144Y-135282171D01*
X178780145Y-135282172D01*
X178842721Y-135363723D01*
X179678958Y-134527487D01*
X179703978Y-134587890D01*
X179775112Y-134694351D01*
X179865649Y-134784888D01*
X179972110Y-134856022D01*
X180032511Y-134881041D01*
X179196275Y-135717277D01*
X179277827Y-135779854D01*
X179277828Y-135779855D01*
X179482171Y-135897834D01*
X179482180Y-135897839D01*
X179700163Y-135988129D01*
X179700161Y-135988129D01*
X179928085Y-136049200D01*
X180162014Y-136079999D01*
X180162029Y-136080000D01*
X180397971Y-136080000D01*
X180397985Y-136079999D01*
X180631914Y-136049200D01*
X180859837Y-135988129D01*
X181077819Y-135897839D01*
X181077828Y-135897834D01*
X181282181Y-135779850D01*
X181363723Y-135717279D01*
X181363723Y-135717276D01*
X180527487Y-134881041D01*
X180587890Y-134856022D01*
X180694351Y-134784888D01*
X180784888Y-134694351D01*
X180856022Y-134587890D01*
X180881041Y-134527488D01*
X181717276Y-135363723D01*
X181717279Y-135363723D01*
X181779850Y-135282181D01*
X181897834Y-135077828D01*
X181897839Y-135077819D01*
X181988129Y-134859837D01*
X182049200Y-134631914D01*
X182079999Y-134397985D01*
X182080000Y-134397971D01*
X182080000Y-134162028D01*
X182079999Y-134162014D01*
X182049200Y-133928085D01*
X181988129Y-133700162D01*
X181897839Y-133482180D01*
X181897834Y-133482171D01*
X181779855Y-133277828D01*
X181779854Y-133277827D01*
X181717277Y-133196275D01*
X180881041Y-134032511D01*
X180856022Y-133972110D01*
X180784888Y-133865649D01*
X180694351Y-133775112D01*
X180587890Y-133703978D01*
X180527488Y-133678958D01*
X181363723Y-132842721D01*
X181282172Y-132780145D01*
X181282171Y-132780144D01*
X181077828Y-132662165D01*
X181077819Y-132662160D01*
X180859836Y-132571870D01*
X180859838Y-132571870D01*
X180631914Y-132510799D01*
X180397985Y-132480000D01*
X180162014Y-132480000D01*
X179928085Y-132510799D01*
X179700162Y-132571870D01*
X179482180Y-132662160D01*
X179482171Y-132662165D01*
X179277828Y-132780144D01*
X179277818Y-132780150D01*
X179196275Y-132842720D01*
X179196275Y-132842721D01*
X180032512Y-133678958D01*
X179972110Y-133703978D01*
X179865649Y-133775112D01*
X179775112Y-133865649D01*
X179703978Y-133972110D01*
X179678958Y-134032511D01*
X178842721Y-133196275D01*
X178842720Y-133196275D01*
X178780150Y-133277818D01*
X178780144Y-133277828D01*
X178662165Y-133482171D01*
X178662160Y-133482180D01*
X178571870Y-133700162D01*
X178510799Y-133928085D01*
X178480000Y-134162014D01*
X177510500Y-134162014D01*
X177510500Y-130445928D01*
X177485502Y-130320261D01*
X177485501Y-130320260D01*
X177485501Y-130320256D01*
X177452934Y-130241633D01*
X177436466Y-130201874D01*
X177365277Y-130095331D01*
X177365272Y-130095325D01*
X174700657Y-127430711D01*
X174667172Y-127369388D01*
X174667689Y-127321245D01*
X174666484Y-127321055D01*
X174700500Y-127106286D01*
X174700500Y-126893713D01*
X174667246Y-126683760D01*
X174667246Y-126683757D01*
X174601557Y-126481588D01*
X174505051Y-126292184D01*
X174505049Y-126292181D01*
X174505048Y-126292179D01*
X174380109Y-126120213D01*
X174229786Y-125969890D01*
X174057820Y-125844951D01*
X174057115Y-125844591D01*
X174049054Y-125840485D01*
X173998259Y-125792512D01*
X173981463Y-125724692D01*
X174003999Y-125658556D01*
X174049054Y-125619515D01*
X174057816Y-125615051D01*
X174079789Y-125599086D01*
X174229786Y-125490109D01*
X174229788Y-125490106D01*
X174229792Y-125490104D01*
X174380104Y-125339792D01*
X174380106Y-125339788D01*
X174380109Y-125339786D01*
X174505048Y-125167820D01*
X174505047Y-125167820D01*
X174505051Y-125167816D01*
X174601557Y-124978412D01*
X174667246Y-124776243D01*
X174700500Y-124566287D01*
X174700500Y-124353713D01*
X174667246Y-124143757D01*
X174601557Y-123941588D01*
X174505051Y-123752184D01*
X174505049Y-123752181D01*
X174505048Y-123752179D01*
X174380109Y-123580213D01*
X174229786Y-123429890D01*
X174057820Y-123304951D01*
X174057115Y-123304591D01*
X174049054Y-123300485D01*
X173998259Y-123252512D01*
X173981463Y-123184692D01*
X174003999Y-123118556D01*
X174049054Y-123079515D01*
X174057816Y-123075051D01*
X174079789Y-123059086D01*
X174229786Y-122950109D01*
X174229788Y-122950106D01*
X174229792Y-122950104D01*
X174380104Y-122799792D01*
X174380106Y-122799788D01*
X174380109Y-122799786D01*
X174505048Y-122627820D01*
X174505047Y-122627820D01*
X174505051Y-122627816D01*
X174601557Y-122438412D01*
X174667246Y-122236243D01*
X174700500Y-122026287D01*
X174700500Y-121813713D01*
X174667246Y-121603757D01*
X174601557Y-121401588D01*
X174505051Y-121212184D01*
X174505049Y-121212181D01*
X174505048Y-121212179D01*
X174380109Y-121040213D01*
X174229786Y-120889890D01*
X174057820Y-120764951D01*
X174057115Y-120764591D01*
X174049054Y-120760485D01*
X173998259Y-120712512D01*
X173981463Y-120644692D01*
X174003999Y-120578556D01*
X174049054Y-120539515D01*
X174057816Y-120535051D01*
X174144138Y-120472335D01*
X174229786Y-120410109D01*
X174229788Y-120410106D01*
X174229792Y-120410104D01*
X174380104Y-120259792D01*
X174380106Y-120259788D01*
X174380109Y-120259786D01*
X174505048Y-120087820D01*
X174505047Y-120087820D01*
X174505051Y-120087816D01*
X174601557Y-119898412D01*
X174667246Y-119696243D01*
X174700500Y-119486287D01*
X174700500Y-119273713D01*
X174667246Y-119063757D01*
X174601557Y-118861588D01*
X174505051Y-118672184D01*
X174505049Y-118672181D01*
X174505048Y-118672179D01*
X174380109Y-118500213D01*
X174229786Y-118349890D01*
X174057820Y-118224951D01*
X174057115Y-118224591D01*
X174049054Y-118220485D01*
X173998259Y-118172512D01*
X173981463Y-118104692D01*
X174003999Y-118038556D01*
X174049054Y-117999515D01*
X174057816Y-117995051D01*
X174144138Y-117932335D01*
X174229786Y-117870109D01*
X174229788Y-117870106D01*
X174229792Y-117870104D01*
X174380104Y-117719792D01*
X174380106Y-117719788D01*
X174380109Y-117719786D01*
X174505048Y-117547820D01*
X174505047Y-117547820D01*
X174505051Y-117547816D01*
X174601557Y-117358412D01*
X174667246Y-117156243D01*
X174700500Y-116946287D01*
X174700500Y-116733713D01*
X174667246Y-116523757D01*
X174601557Y-116321588D01*
X174505051Y-116132184D01*
X174505049Y-116132181D01*
X174505048Y-116132179D01*
X174380109Y-115960213D01*
X174229786Y-115809890D01*
X174057820Y-115684951D01*
X174057115Y-115684591D01*
X174049054Y-115680485D01*
X173998259Y-115632512D01*
X173981463Y-115564692D01*
X174003999Y-115498556D01*
X174049054Y-115459515D01*
X174057816Y-115455051D01*
X174079789Y-115439086D01*
X174229786Y-115330109D01*
X174229788Y-115330106D01*
X174229792Y-115330104D01*
X174380104Y-115179792D01*
X174380106Y-115179788D01*
X174380109Y-115179786D01*
X174505048Y-115007820D01*
X174505047Y-115007820D01*
X174505051Y-115007816D01*
X174601557Y-114818412D01*
X174667246Y-114616243D01*
X174700500Y-114406287D01*
X174700500Y-114193713D01*
X174667246Y-113983757D01*
X174601557Y-113781588D01*
X174505051Y-113592184D01*
X174505049Y-113592181D01*
X174505048Y-113592179D01*
X174380109Y-113420213D01*
X174266569Y-113306673D01*
X174233084Y-113245350D01*
X174238068Y-113175658D01*
X174279940Y-113119725D01*
X174310915Y-113102810D01*
X174442331Y-113053796D01*
X174557546Y-112967546D01*
X174643796Y-112852331D01*
X174694091Y-112717483D01*
X174700500Y-112657873D01*
X174700499Y-110862128D01*
X174694091Y-110802517D01*
X174643796Y-110667669D01*
X174643795Y-110667668D01*
X174643793Y-110667664D01*
X174557547Y-110552455D01*
X174557544Y-110552452D01*
X174442335Y-110466206D01*
X174442328Y-110466202D01*
X174307482Y-110415908D01*
X174307483Y-110415908D01*
X174247883Y-110409501D01*
X174247881Y-110409500D01*
X174247873Y-110409500D01*
X174247864Y-110409500D01*
X172452129Y-110409500D01*
X172452123Y-110409501D01*
X172392516Y-110415908D01*
X172257671Y-110466202D01*
X172257664Y-110466206D01*
X172142455Y-110552452D01*
X172142452Y-110552455D01*
X172056206Y-110667664D01*
X172056202Y-110667671D01*
X172005908Y-110802517D01*
X171999501Y-110862116D01*
X171999501Y-110862123D01*
X171999500Y-110862135D01*
X171999500Y-112657870D01*
X171999501Y-112657876D01*
X172005908Y-112717483D01*
X172056202Y-112852328D01*
X172056206Y-112852335D01*
X172142452Y-112967544D01*
X172142455Y-112967547D01*
X172257664Y-113053793D01*
X172257671Y-113053797D01*
X172389082Y-113102810D01*
X172445016Y-113144681D01*
X172469433Y-113210145D01*
X172454582Y-113278418D01*
X172433431Y-113306673D01*
X172319889Y-113420215D01*
X172194951Y-113592179D01*
X172098444Y-113781585D01*
X172032753Y-113983760D01*
X172023327Y-114043277D01*
X171999500Y-114193713D01*
X171999500Y-114406287D01*
X172032754Y-114616243D01*
X172089067Y-114789557D01*
X172098444Y-114818414D01*
X172194951Y-115007820D01*
X172319890Y-115179786D01*
X172470213Y-115330109D01*
X172642182Y-115455050D01*
X172650946Y-115459516D01*
X172701742Y-115507491D01*
X172718536Y-115575312D01*
X172695998Y-115641447D01*
X172650946Y-115680484D01*
X172642182Y-115684949D01*
X172470213Y-115809890D01*
X172319890Y-115960213D01*
X172194951Y-116132179D01*
X172098444Y-116321585D01*
X172032753Y-116523760D01*
X171999500Y-116733713D01*
X171999500Y-116946286D01*
X172032753Y-117156239D01*
X172098444Y-117358414D01*
X172194951Y-117547820D01*
X172319890Y-117719786D01*
X172470213Y-117870109D01*
X172642182Y-117995050D01*
X172650946Y-117999516D01*
X172701742Y-118047491D01*
X172718536Y-118115312D01*
X172695998Y-118181447D01*
X172650946Y-118220484D01*
X172642182Y-118224949D01*
X172470213Y-118349890D01*
X172319890Y-118500213D01*
X172194951Y-118672179D01*
X172098444Y-118861585D01*
X172032753Y-119063760D01*
X171999500Y-119273713D01*
X171999500Y-119486286D01*
X172032753Y-119696239D01*
X172098444Y-119898414D01*
X172194951Y-120087820D01*
X172319890Y-120259786D01*
X172470213Y-120410109D01*
X172642182Y-120535050D01*
X172650946Y-120539516D01*
X172701742Y-120587491D01*
X172718536Y-120655312D01*
X172695998Y-120721447D01*
X172650946Y-120760484D01*
X172642182Y-120764949D01*
X172470213Y-120889890D01*
X172319890Y-121040213D01*
X172194951Y-121212179D01*
X172098444Y-121401585D01*
X172032753Y-121603760D01*
X171999500Y-121813713D01*
X171999500Y-122026286D01*
X172032753Y-122236239D01*
X172098444Y-122438414D01*
X172194951Y-122627820D01*
X172319890Y-122799786D01*
X172470213Y-122950109D01*
X172642182Y-123075050D01*
X172650946Y-123079516D01*
X172701742Y-123127491D01*
X172718536Y-123195312D01*
X172695998Y-123261447D01*
X172650946Y-123300484D01*
X172642182Y-123304949D01*
X172470213Y-123429890D01*
X172319890Y-123580213D01*
X172194951Y-123752179D01*
X172098444Y-123941585D01*
X172032753Y-124143760D01*
X171999500Y-124353713D01*
X171999500Y-124566286D01*
X172032753Y-124776239D01*
X172098444Y-124978414D01*
X172194951Y-125167820D01*
X172319890Y-125339786D01*
X172470213Y-125490109D01*
X172642182Y-125615050D01*
X172650946Y-125619516D01*
X172701742Y-125667491D01*
X172718536Y-125735312D01*
X172695998Y-125801447D01*
X172650946Y-125840484D01*
X172642182Y-125844949D01*
X172470213Y-125969890D01*
X172319890Y-126120213D01*
X172194951Y-126292179D01*
X172098444Y-126481585D01*
X172032753Y-126683760D01*
X171999500Y-126893713D01*
X171999500Y-127106287D01*
X172032754Y-127316243D01*
X172034379Y-127321245D01*
X172098444Y-127518414D01*
X172194951Y-127707820D01*
X172319890Y-127879786D01*
X172470213Y-128030109D01*
X172642182Y-128155050D01*
X172650946Y-128159516D01*
X172701742Y-128207491D01*
X172718536Y-128275312D01*
X172695998Y-128341447D01*
X172650946Y-128380484D01*
X172642182Y-128384949D01*
X172470213Y-128509890D01*
X172319890Y-128660213D01*
X172194951Y-128832179D01*
X172098444Y-129021585D01*
X172032753Y-129223760D01*
X172022262Y-129290000D01*
X171999500Y-129433713D01*
X171999500Y-129646287D01*
X172032754Y-129856243D01*
X172034379Y-129861245D01*
X172098444Y-130058414D01*
X172194951Y-130247820D01*
X172319890Y-130419786D01*
X172470213Y-130570109D01*
X172642179Y-130695048D01*
X172642181Y-130695049D01*
X172642184Y-130695051D01*
X172831588Y-130791557D01*
X173033757Y-130857246D01*
X173243713Y-130890500D01*
X173243714Y-130890500D01*
X173456286Y-130890500D01*
X173456287Y-130890500D01*
X173571638Y-130872230D01*
X173671055Y-130856484D01*
X173671315Y-130858128D01*
X173733852Y-130861250D01*
X173780711Y-130890657D01*
X175643181Y-132753127D01*
X175676666Y-132814450D01*
X175679500Y-132840808D01*
X175679500Y-143559192D01*
X175659815Y-143626231D01*
X175643181Y-143646873D01*
X165796873Y-153493181D01*
X165735550Y-153526666D01*
X165709192Y-153529500D01*
X125840807Y-153529500D01*
X125773768Y-153509815D01*
X125753126Y-153493181D01*
X111102127Y-138842181D01*
X111068642Y-138780858D01*
X111073626Y-138711166D01*
X111115498Y-138655233D01*
X111180962Y-138630816D01*
X111189808Y-138630500D01*
X111266286Y-138630500D01*
X111266287Y-138630500D01*
X111476243Y-138597246D01*
X111678412Y-138531557D01*
X111867816Y-138435051D01*
X111954471Y-138372093D01*
X112039786Y-138310109D01*
X112039788Y-138310106D01*
X112039792Y-138310104D01*
X112190104Y-138159792D01*
X112190106Y-138159788D01*
X112190109Y-138159786D01*
X112315048Y-137987820D01*
X112315047Y-137987820D01*
X112315051Y-137987816D01*
X112411557Y-137798412D01*
X112477246Y-137596243D01*
X112510500Y-137386287D01*
X112510500Y-137173713D01*
X112477246Y-136963757D01*
X112411557Y-136761588D01*
X112315051Y-136572184D01*
X112315049Y-136572181D01*
X112315048Y-136572179D01*
X112190109Y-136400213D01*
X112039786Y-136249890D01*
X111863875Y-136122085D01*
X111864851Y-136120740D01*
X111822834Y-136074295D01*
X111810500Y-136020382D01*
X111810500Y-135745928D01*
X111785502Y-135620261D01*
X111785501Y-135620260D01*
X111785501Y-135620256D01*
X111744015Y-135520100D01*
X111744014Y-135520096D01*
X111736469Y-135501881D01*
X111736468Y-135501880D01*
X111736466Y-135501874D01*
X111699354Y-135446331D01*
X111665278Y-135395332D01*
X111665272Y-135395325D01*
X110944673Y-134674726D01*
X110944669Y-134674723D01*
X110838127Y-134603535D01*
X110719744Y-134554499D01*
X110719738Y-134554497D01*
X110594071Y-134529500D01*
X110594069Y-134529500D01*
X108035931Y-134529500D01*
X108035929Y-134529500D01*
X107910261Y-134554497D01*
X107910255Y-134554499D01*
X107791870Y-134603535D01*
X107685331Y-134674722D01*
X107685324Y-134674728D01*
X106913726Y-135446326D01*
X106842534Y-135552874D01*
X106793499Y-135671255D01*
X106793497Y-135671261D01*
X106768500Y-135796928D01*
X106768500Y-135913316D01*
X106748815Y-135980355D01*
X106696011Y-136026110D01*
X106626853Y-136036054D01*
X106603172Y-136029560D01*
X106603046Y-136029949D01*
X106598413Y-136028443D01*
X106598412Y-136028443D01*
X106396243Y-135962754D01*
X106396241Y-135962753D01*
X106396240Y-135962753D01*
X106234957Y-135937208D01*
X106186287Y-135929500D01*
X105973713Y-135929500D01*
X105925042Y-135937208D01*
X105763760Y-135962753D01*
X105561585Y-136028444D01*
X105372179Y-136124951D01*
X105200215Y-136249889D01*
X105086285Y-136363819D01*
X105024962Y-136397303D01*
X104955270Y-136392319D01*
X104899337Y-136350447D01*
X104882422Y-136319470D01*
X104833354Y-136187913D01*
X104833350Y-136187906D01*
X104747190Y-136072812D01*
X104747187Y-136072809D01*
X104632093Y-135986649D01*
X104632086Y-135986645D01*
X104497379Y-135936403D01*
X104497372Y-135936401D01*
X104437844Y-135930000D01*
X103790000Y-135930000D01*
X103790000Y-136846988D01*
X103732993Y-136814075D01*
X103605826Y-136780000D01*
X103474174Y-136780000D01*
X103347007Y-136814075D01*
X103290000Y-136846988D01*
X103290000Y-135930000D01*
X102642155Y-135930000D01*
X102582627Y-135936401D01*
X102582620Y-135936403D01*
X102447913Y-135986645D01*
X102447906Y-135986649D01*
X102332812Y-136072809D01*
X102332809Y-136072812D01*
X102246649Y-136187906D01*
X102246645Y-136187913D01*
X102196403Y-136322620D01*
X102196401Y-136322627D01*
X102190000Y-136382155D01*
X102190000Y-137030000D01*
X103106988Y-137030000D01*
X103074075Y-137087007D01*
X103040000Y-137214174D01*
X103040000Y-137345826D01*
X103074075Y-137472993D01*
X103106988Y-137530000D01*
X102190000Y-137530000D01*
X102190000Y-138177844D01*
X102196401Y-138237372D01*
X102196403Y-138237379D01*
X102246645Y-138372086D01*
X102246649Y-138372093D01*
X102332809Y-138487187D01*
X102332812Y-138487190D01*
X102447906Y-138573350D01*
X102447913Y-138573354D01*
X102582620Y-138623596D01*
X102582627Y-138623598D01*
X102642155Y-138629999D01*
X102642172Y-138630000D01*
X103290000Y-138630000D01*
X103290000Y-137713012D01*
X103347007Y-137745925D01*
X103474174Y-137780000D01*
X103605826Y-137780000D01*
X103732993Y-137745925D01*
X103790000Y-137713012D01*
X103790000Y-138630000D01*
X104437828Y-138630000D01*
X104437844Y-138629999D01*
X104497372Y-138623598D01*
X104497379Y-138623596D01*
X104632086Y-138573354D01*
X104632093Y-138573350D01*
X104747187Y-138487190D01*
X104747190Y-138487187D01*
X104833350Y-138372093D01*
X104833354Y-138372086D01*
X104882422Y-138240529D01*
X104924293Y-138184595D01*
X104989757Y-138160178D01*
X105058030Y-138175030D01*
X105086285Y-138196181D01*
X105200208Y-138310104D01*
X105372184Y-138435051D01*
X105372188Y-138435053D01*
X105376126Y-138437914D01*
X105375146Y-138439262D01*
X105417160Y-138485690D01*
X105429500Y-138539617D01*
X105429500Y-139849192D01*
X105420855Y-139878632D01*
X105414332Y-139908619D01*
X105410577Y-139913634D01*
X105409815Y-139916231D01*
X105393181Y-139936873D01*
X105266873Y-140063181D01*
X105205550Y-140096666D01*
X105179192Y-140099500D01*
X100320808Y-140099500D01*
X100253769Y-140079815D01*
X100233127Y-140063181D01*
X99056819Y-138886873D01*
X99023334Y-138825550D01*
X99020500Y-138799192D01*
X99020500Y-113701808D01*
X99040185Y-113634769D01*
X99092989Y-113589014D01*
X99162147Y-113579070D01*
X99225703Y-113608095D01*
X99232181Y-113614127D01*
X99661325Y-114043272D01*
X99661326Y-114043273D01*
X99661329Y-114043275D01*
X99661331Y-114043277D01*
X99767873Y-114114465D01*
X99886256Y-114163501D01*
X99886260Y-114163501D01*
X99886261Y-114163502D01*
X100011928Y-114188500D01*
X100011931Y-114188500D01*
X100125501Y-114188500D01*
X100192540Y-114208185D01*
X100238295Y-114260989D01*
X100249501Y-114312500D01*
X100249501Y-114435876D01*
X100255908Y-114495483D01*
X100306202Y-114630328D01*
X100306206Y-114630335D01*
X100392452Y-114745544D01*
X100392455Y-114745547D01*
X100507664Y-114831793D01*
X100507671Y-114831797D01*
X100642517Y-114882091D01*
X100642516Y-114882091D01*
X100649444Y-114882835D01*
X100702127Y-114888500D01*
X102497872Y-114888499D01*
X102557483Y-114882091D01*
X102692331Y-114831796D01*
X102807546Y-114745546D01*
X102893796Y-114630331D01*
X102942810Y-114498916D01*
X102984681Y-114442984D01*
X103050145Y-114418566D01*
X103118418Y-114433417D01*
X103146673Y-114454569D01*
X103260213Y-114568109D01*
X103432179Y-114693048D01*
X103432181Y-114693049D01*
X103432184Y-114693051D01*
X103621588Y-114789557D01*
X103823757Y-114855246D01*
X104033713Y-114888500D01*
X104033714Y-114888500D01*
X104246286Y-114888500D01*
X104246287Y-114888500D01*
X104456243Y-114855246D01*
X104658412Y-114789557D01*
X104847816Y-114693051D01*
X104934138Y-114630335D01*
X105019786Y-114568109D01*
X105019788Y-114568106D01*
X105019792Y-114568104D01*
X105170104Y-114417792D01*
X105170106Y-114417788D01*
X105170109Y-114417786D01*
X105295048Y-114245820D01*
X105295047Y-114245820D01*
X105295051Y-114245816D01*
X105299514Y-114237054D01*
X105347488Y-114186259D01*
X105415308Y-114169463D01*
X105481444Y-114191999D01*
X105520486Y-114237056D01*
X105524951Y-114245820D01*
X105649890Y-114417786D01*
X105800213Y-114568109D01*
X105972179Y-114693048D01*
X105972181Y-114693049D01*
X105972184Y-114693051D01*
X106161588Y-114789557D01*
X106363757Y-114855246D01*
X106573713Y-114888500D01*
X106573714Y-114888500D01*
X106786286Y-114888500D01*
X106786287Y-114888500D01*
X106996243Y-114855246D01*
X107198412Y-114789557D01*
X107387816Y-114693051D01*
X107474138Y-114630335D01*
X107559786Y-114568109D01*
X107559788Y-114568106D01*
X107559792Y-114568104D01*
X107710104Y-114417792D01*
X107710106Y-114417788D01*
X107710109Y-114417786D01*
X107835048Y-114245820D01*
X107835047Y-114245820D01*
X107835051Y-114245816D01*
X107931557Y-114056412D01*
X107997246Y-113854243D01*
X108030500Y-113644287D01*
X108030500Y-113431713D01*
X107997246Y-113221757D01*
X107931557Y-113019588D01*
X107835051Y-112830184D01*
X107835049Y-112830181D01*
X107835048Y-112830179D01*
X107710109Y-112658213D01*
X107559786Y-112507890D01*
X107387820Y-112382951D01*
X107198414Y-112286444D01*
X107198413Y-112286443D01*
X107198412Y-112286443D01*
X106996243Y-112220754D01*
X106996241Y-112220753D01*
X106996240Y-112220753D01*
X106834957Y-112195208D01*
X106786287Y-112187500D01*
X106573713Y-112187500D01*
X106525042Y-112195208D01*
X106363760Y-112220753D01*
X106161585Y-112286444D01*
X105972179Y-112382951D01*
X105800213Y-112507890D01*
X105649890Y-112658213D01*
X105524949Y-112830182D01*
X105520484Y-112838946D01*
X105472509Y-112889742D01*
X105404688Y-112906536D01*
X105338553Y-112883998D01*
X105299516Y-112838946D01*
X105295050Y-112830182D01*
X105170109Y-112658213D01*
X105019786Y-112507890D01*
X104847820Y-112382951D01*
X104658414Y-112286444D01*
X104658413Y-112286443D01*
X104658412Y-112286443D01*
X104456243Y-112220754D01*
X104456241Y-112220753D01*
X104456240Y-112220753D01*
X104294957Y-112195208D01*
X104246287Y-112187500D01*
X104033713Y-112187500D01*
X103985042Y-112195208D01*
X103823760Y-112220753D01*
X103621585Y-112286444D01*
X103432179Y-112382951D01*
X103260215Y-112507889D01*
X103146673Y-112621431D01*
X103085350Y-112654915D01*
X103015658Y-112649931D01*
X102959725Y-112608059D01*
X102942810Y-112577082D01*
X102893797Y-112445671D01*
X102893793Y-112445664D01*
X102807547Y-112330455D01*
X102807544Y-112330452D01*
X102692335Y-112244206D01*
X102692328Y-112244202D01*
X102557482Y-112193908D01*
X102557483Y-112193908D01*
X102497883Y-112187501D01*
X102497881Y-112187500D01*
X102497873Y-112187500D01*
X102497864Y-112187500D01*
X100702129Y-112187500D01*
X100702123Y-112187501D01*
X100642516Y-112193908D01*
X100507671Y-112244202D01*
X100507664Y-112244206D01*
X100392455Y-112330452D01*
X100392452Y-112330455D01*
X100306206Y-112445664D01*
X100306202Y-112445671D01*
X100264266Y-112558108D01*
X100264266Y-112558110D01*
X100250063Y-112577082D01*
X100222395Y-112614043D01*
X100156930Y-112638460D01*
X100088657Y-112623608D01*
X100060403Y-112602457D01*
X100000819Y-112542873D01*
X99967334Y-112481550D01*
X99964500Y-112455192D01*
X99964500Y-105476807D01*
X99984185Y-105409768D01*
X100000815Y-105389130D01*
X100383182Y-105006762D01*
X100444503Y-104973279D01*
X100514194Y-104978263D01*
X100565783Y-105016882D01*
X100566724Y-105016079D01*
X100569894Y-105019790D01*
X100720213Y-105170109D01*
X100892179Y-105295048D01*
X100892181Y-105295049D01*
X100892184Y-105295051D01*
X100901493Y-105299794D01*
X100952290Y-105347766D01*
X100969087Y-105415587D01*
X100946552Y-105481722D01*
X100901502Y-105520762D01*
X100892443Y-105525378D01*
X100720540Y-105650272D01*
X100720535Y-105650276D01*
X100570276Y-105800535D01*
X100570272Y-105800540D01*
X100445379Y-105972442D01*
X100348904Y-106161782D01*
X100283242Y-106363870D01*
X100283242Y-106363873D01*
X100272769Y-106430000D01*
X101166988Y-106430000D01*
X101134075Y-106487007D01*
X101100000Y-106614174D01*
X101100000Y-106745826D01*
X101134075Y-106872993D01*
X101166988Y-106930000D01*
X100272769Y-106930000D01*
X100283242Y-106996126D01*
X100283242Y-106996129D01*
X100348904Y-107198217D01*
X100445379Y-107387557D01*
X100570272Y-107559459D01*
X100570276Y-107559464D01*
X100720535Y-107709723D01*
X100720540Y-107709727D01*
X100892444Y-107834622D01*
X100901495Y-107839234D01*
X100952292Y-107887208D01*
X100969087Y-107955029D01*
X100946550Y-108021164D01*
X100901499Y-108060202D01*
X100892182Y-108064949D01*
X100720213Y-108189890D01*
X100569890Y-108340213D01*
X100444951Y-108512179D01*
X100348444Y-108701585D01*
X100282753Y-108903760D01*
X100249500Y-109113713D01*
X100249500Y-109326287D01*
X100282754Y-109536243D01*
X100286003Y-109546243D01*
X100348444Y-109738414D01*
X100444951Y-109927820D01*
X100569890Y-110099786D01*
X100720213Y-110250109D01*
X100892179Y-110375048D01*
X100892181Y-110375049D01*
X100892184Y-110375051D01*
X101081588Y-110471557D01*
X101283757Y-110537246D01*
X101493713Y-110570500D01*
X101493714Y-110570500D01*
X101706286Y-110570500D01*
X101706287Y-110570500D01*
X101916243Y-110537246D01*
X102118412Y-110471557D01*
X102307816Y-110375051D01*
X102329789Y-110359086D01*
X102479786Y-110250109D01*
X102479788Y-110250106D01*
X102479792Y-110250104D01*
X102630104Y-110099792D01*
X102630106Y-110099788D01*
X102630109Y-110099786D01*
X102755048Y-109927820D01*
X102755047Y-109927820D01*
X102755051Y-109927816D01*
X102759514Y-109919054D01*
X102807488Y-109868259D01*
X102875308Y-109851463D01*
X102941444Y-109873999D01*
X102980486Y-109919056D01*
X102984951Y-109927820D01*
X103109890Y-110099786D01*
X103260213Y-110250109D01*
X103432179Y-110375048D01*
X103432181Y-110375049D01*
X103432184Y-110375051D01*
X103621588Y-110471557D01*
X103823757Y-110537246D01*
X104033713Y-110570500D01*
X104033714Y-110570500D01*
X104246286Y-110570500D01*
X104246287Y-110570500D01*
X104456243Y-110537246D01*
X104658412Y-110471557D01*
X104847816Y-110375051D01*
X104869789Y-110359086D01*
X105019786Y-110250109D01*
X105019788Y-110250106D01*
X105019792Y-110250104D01*
X105170104Y-110099792D01*
X105170106Y-110099788D01*
X105170109Y-110099786D01*
X105295048Y-109927820D01*
X105295047Y-109927820D01*
X105295051Y-109927816D01*
X105391557Y-109738412D01*
X105457246Y-109536243D01*
X105490500Y-109326287D01*
X105490500Y-109113713D01*
X105457246Y-108903757D01*
X105391557Y-108701588D01*
X105295051Y-108512184D01*
X105295049Y-108512181D01*
X105295048Y-108512179D01*
X105170109Y-108340213D01*
X105019786Y-108189890D01*
X104847817Y-108064949D01*
X104838504Y-108060204D01*
X104787707Y-108012230D01*
X104770912Y-107944409D01*
X104793449Y-107878274D01*
X104838507Y-107839232D01*
X104847558Y-107834620D01*
X105019459Y-107709727D01*
X105019464Y-107709723D01*
X105169723Y-107559464D01*
X105169727Y-107559459D01*
X105294620Y-107387557D01*
X105391095Y-107198217D01*
X105456757Y-106996129D01*
X105456757Y-106996126D01*
X105467231Y-106930000D01*
X104573012Y-106930000D01*
X104605925Y-106872993D01*
X104640000Y-106745826D01*
X104640000Y-106614174D01*
X104605925Y-106487007D01*
X104573012Y-106430000D01*
X105467231Y-106430000D01*
X105456757Y-106363873D01*
X105456757Y-106363870D01*
X105391095Y-106161782D01*
X105294620Y-105972442D01*
X105169727Y-105800540D01*
X105169723Y-105800535D01*
X105019464Y-105650276D01*
X105019459Y-105650272D01*
X104847555Y-105525377D01*
X104838500Y-105520763D01*
X104787706Y-105472788D01*
X104770912Y-105404966D01*
X104793451Y-105338832D01*
X104838508Y-105299793D01*
X104847816Y-105295051D01*
X104927007Y-105237515D01*
X105019786Y-105170109D01*
X105019788Y-105170106D01*
X105019792Y-105170104D01*
X105170104Y-105019792D01*
X105170106Y-105019788D01*
X105170109Y-105019786D01*
X105295048Y-104847820D01*
X105295047Y-104847820D01*
X105295051Y-104847816D01*
X105391557Y-104658412D01*
X105457246Y-104456243D01*
X105490500Y-104246287D01*
X105490500Y-104033713D01*
X105457246Y-103823757D01*
X105391557Y-103621588D01*
X105295051Y-103432184D01*
X105295049Y-103432181D01*
X105295048Y-103432179D01*
X105170109Y-103260213D01*
X105019786Y-103109890D01*
X104847820Y-102984951D01*
X104847115Y-102984591D01*
X104839054Y-102980485D01*
X104788259Y-102932512D01*
X104771463Y-102864692D01*
X104793999Y-102798556D01*
X104839054Y-102759515D01*
X104847816Y-102755051D01*
X104869789Y-102739086D01*
X105019786Y-102630109D01*
X105019788Y-102630106D01*
X105019792Y-102630104D01*
X105170104Y-102479792D01*
X105170106Y-102479788D01*
X105170109Y-102479786D01*
X105295048Y-102307820D01*
X105295047Y-102307820D01*
X105295051Y-102307816D01*
X105391557Y-102118412D01*
X105457246Y-101916243D01*
X105490500Y-101706287D01*
X105490500Y-101493713D01*
X105457246Y-101283757D01*
X105391557Y-101081588D01*
X105295051Y-100892184D01*
X105295049Y-100892181D01*
X105295048Y-100892179D01*
X105170109Y-100720213D01*
X105019786Y-100569890D01*
X104847820Y-100444951D01*
X104847115Y-100444591D01*
X104839054Y-100440485D01*
X104788259Y-100392512D01*
X104771463Y-100324692D01*
X104793999Y-100258556D01*
X104839054Y-100219515D01*
X104847816Y-100215051D01*
X104869789Y-100199086D01*
X105019786Y-100090109D01*
X105019788Y-100090106D01*
X105019792Y-100090104D01*
X105170104Y-99939792D01*
X105170106Y-99939788D01*
X105170109Y-99939786D01*
X105295048Y-99767820D01*
X105295047Y-99767820D01*
X105295051Y-99767816D01*
X105391557Y-99578412D01*
X105457246Y-99376243D01*
X105490500Y-99166287D01*
X105490500Y-98953713D01*
X105457246Y-98743757D01*
X105391557Y-98541588D01*
X105295051Y-98352184D01*
X105295049Y-98352181D01*
X105295048Y-98352179D01*
X105170109Y-98180213D01*
X105019786Y-98029890D01*
X104847820Y-97904951D01*
X104847115Y-97904591D01*
X104839054Y-97900485D01*
X104788259Y-97852512D01*
X104771463Y-97784692D01*
X104793999Y-97718556D01*
X104839054Y-97679515D01*
X104847816Y-97675051D01*
X104934138Y-97612335D01*
X105019786Y-97550109D01*
X105019788Y-97550106D01*
X105019792Y-97550104D01*
X105170104Y-97399792D01*
X105170106Y-97399788D01*
X105170109Y-97399786D01*
X105295048Y-97227820D01*
X105295047Y-97227820D01*
X105295051Y-97227816D01*
X105391557Y-97038412D01*
X105457246Y-96836243D01*
X105490500Y-96626287D01*
X105490500Y-96413713D01*
X105457246Y-96203757D01*
X105391557Y-96001588D01*
X105295051Y-95812184D01*
X105295049Y-95812181D01*
X105295048Y-95812179D01*
X105170109Y-95640213D01*
X105019786Y-95489890D01*
X104847820Y-95364951D01*
X104658414Y-95268444D01*
X104658413Y-95268443D01*
X104658412Y-95268443D01*
X104456243Y-95202754D01*
X104456241Y-95202753D01*
X104456240Y-95202753D01*
X104294957Y-95177208D01*
X104246287Y-95169500D01*
X104033713Y-95169500D01*
X103985042Y-95177208D01*
X103823760Y-95202753D01*
X103621585Y-95268444D01*
X103432179Y-95364951D01*
X103260215Y-95489889D01*
X103146673Y-95603431D01*
X103085350Y-95636915D01*
X103015658Y-95631931D01*
X102959725Y-95590059D01*
X102942810Y-95559082D01*
X102893797Y-95427671D01*
X102893793Y-95427664D01*
X102807547Y-95312455D01*
X102807544Y-95312452D01*
X102692335Y-95226206D01*
X102692328Y-95226202D01*
X102557482Y-95175908D01*
X102557483Y-95175908D01*
X102497883Y-95169501D01*
X102497881Y-95169500D01*
X102497873Y-95169500D01*
X102497864Y-95169500D01*
X100702129Y-95169500D01*
X100702123Y-95169501D01*
X100642516Y-95175908D01*
X100507671Y-95226202D01*
X100507664Y-95226206D01*
X100392455Y-95312452D01*
X100392452Y-95312455D01*
X100306206Y-95427664D01*
X100306202Y-95427671D01*
X100255908Y-95562517D01*
X100249501Y-95622116D01*
X100249500Y-95622135D01*
X100249500Y-97417870D01*
X100249501Y-97417876D01*
X100255908Y-97477483D01*
X100306202Y-97612328D01*
X100306206Y-97612335D01*
X100392452Y-97727544D01*
X100392455Y-97727547D01*
X100507664Y-97813793D01*
X100507671Y-97813797D01*
X100639082Y-97862810D01*
X100695016Y-97904681D01*
X100719433Y-97970145D01*
X100704582Y-98038418D01*
X100683431Y-98066673D01*
X100569889Y-98180215D01*
X100444951Y-98352179D01*
X100348444Y-98541585D01*
X100282753Y-98743760D01*
X100249500Y-98953713D01*
X100249500Y-99166287D01*
X100282754Y-99376243D01*
X100286003Y-99386243D01*
X100348444Y-99578414D01*
X100444951Y-99767820D01*
X100569890Y-99939786D01*
X100720213Y-100090109D01*
X100892182Y-100215050D01*
X100900946Y-100219516D01*
X100951742Y-100267491D01*
X100968536Y-100335312D01*
X100945998Y-100401447D01*
X100900946Y-100440484D01*
X100892182Y-100444949D01*
X100720213Y-100569890D01*
X100569890Y-100720213D01*
X100444951Y-100892179D01*
X100348444Y-101081585D01*
X100282753Y-101283760D01*
X100249500Y-101493713D01*
X100249500Y-101706287D01*
X100282754Y-101916243D01*
X100286003Y-101926243D01*
X100348444Y-102118414D01*
X100444951Y-102307820D01*
X100569890Y-102479786D01*
X100720213Y-102630109D01*
X100892182Y-102755050D01*
X100900946Y-102759516D01*
X100951742Y-102807491D01*
X100968536Y-102875312D01*
X100945998Y-102941447D01*
X100900946Y-102980484D01*
X100892182Y-102984949D01*
X100720213Y-103109890D01*
X100569890Y-103260213D01*
X100442085Y-103436125D01*
X100440740Y-103435148D01*
X100394295Y-103477166D01*
X100340382Y-103489500D01*
X100265929Y-103489500D01*
X100140261Y-103514497D01*
X100140255Y-103514499D01*
X100021874Y-103563534D01*
X99915326Y-103634726D01*
X99915325Y-103634727D01*
X99232181Y-104317872D01*
X99170858Y-104351357D01*
X99101166Y-104346373D01*
X99045233Y-104304501D01*
X99020816Y-104239037D01*
X99020500Y-104230191D01*
X99020500Y-72762135D01*
X100249500Y-72762135D01*
X100249500Y-74557870D01*
X100249501Y-74557876D01*
X100255908Y-74617483D01*
X100306202Y-74752328D01*
X100306206Y-74752335D01*
X100392452Y-74867544D01*
X100392455Y-74867547D01*
X100507664Y-74953793D01*
X100507671Y-74953797D01*
X100639082Y-75002810D01*
X100695016Y-75044681D01*
X100719433Y-75110145D01*
X100704582Y-75178418D01*
X100683431Y-75206673D01*
X100569889Y-75320215D01*
X100444951Y-75492179D01*
X100348444Y-75681585D01*
X100282753Y-75883760D01*
X100255640Y-76054949D01*
X100249500Y-76093713D01*
X100249500Y-76306287D01*
X100282754Y-76516243D01*
X100339727Y-76691588D01*
X100348444Y-76718414D01*
X100444951Y-76907820D01*
X100569890Y-77079786D01*
X100720213Y-77230109D01*
X100892182Y-77355050D01*
X100900946Y-77359516D01*
X100951742Y-77407491D01*
X100968536Y-77475312D01*
X100945998Y-77541447D01*
X100900946Y-77580484D01*
X100892182Y-77584949D01*
X100720213Y-77709890D01*
X100569890Y-77860213D01*
X100444951Y-78032179D01*
X100348444Y-78221585D01*
X100282753Y-78423760D01*
X100255640Y-78594949D01*
X100249500Y-78633713D01*
X100249500Y-78846287D01*
X100282754Y-79056243D01*
X100344175Y-79245277D01*
X100348444Y-79258414D01*
X100444951Y-79447820D01*
X100569890Y-79619786D01*
X100720213Y-79770109D01*
X100892182Y-79895050D01*
X100900946Y-79899516D01*
X100951742Y-79947491D01*
X100968536Y-80015312D01*
X100945998Y-80081447D01*
X100900946Y-80120484D01*
X100892182Y-80124949D01*
X100720213Y-80249890D01*
X100569890Y-80400213D01*
X100444951Y-80572179D01*
X100348444Y-80761585D01*
X100282753Y-80963760D01*
X100255640Y-81134949D01*
X100249500Y-81173713D01*
X100249500Y-81386287D01*
X100282754Y-81596243D01*
X100339727Y-81771588D01*
X100348444Y-81798414D01*
X100444951Y-81987820D01*
X100569890Y-82159786D01*
X100720213Y-82310109D01*
X100892179Y-82435048D01*
X100892181Y-82435049D01*
X100892184Y-82435051D01*
X100901493Y-82439794D01*
X100952290Y-82487766D01*
X100969087Y-82555587D01*
X100946552Y-82621722D01*
X100901502Y-82660762D01*
X100892443Y-82665378D01*
X100720540Y-82790272D01*
X100720535Y-82790276D01*
X100570276Y-82940535D01*
X100570272Y-82940540D01*
X100445379Y-83112442D01*
X100348904Y-83301782D01*
X100283242Y-83503870D01*
X100283242Y-83503873D01*
X100272769Y-83570000D01*
X101166988Y-83570000D01*
X101134075Y-83627007D01*
X101100000Y-83754174D01*
X101100000Y-83885826D01*
X101134075Y-84012993D01*
X101166988Y-84070000D01*
X100272769Y-84070000D01*
X100283242Y-84136126D01*
X100283242Y-84136129D01*
X100348904Y-84338217D01*
X100445379Y-84527557D01*
X100570272Y-84699459D01*
X100570276Y-84699464D01*
X100720535Y-84849723D01*
X100720540Y-84849727D01*
X100892444Y-84974622D01*
X100901495Y-84979234D01*
X100952292Y-85027208D01*
X100969087Y-85095029D01*
X100946550Y-85161164D01*
X100901499Y-85200202D01*
X100892182Y-85204949D01*
X100720213Y-85329890D01*
X100569890Y-85480213D01*
X100444951Y-85652179D01*
X100348444Y-85841585D01*
X100282753Y-86043760D01*
X100249500Y-86253713D01*
X100249500Y-86466286D01*
X100282753Y-86676239D01*
X100348444Y-86878414D01*
X100444951Y-87067820D01*
X100569890Y-87239786D01*
X100720213Y-87390109D01*
X100892179Y-87515048D01*
X100892181Y-87515049D01*
X100892184Y-87515051D01*
X101081588Y-87611557D01*
X101283757Y-87677246D01*
X101493713Y-87710500D01*
X101493714Y-87710500D01*
X101706286Y-87710500D01*
X101706287Y-87710500D01*
X101916243Y-87677246D01*
X102118412Y-87611557D01*
X102307816Y-87515051D01*
X102329789Y-87499086D01*
X102479786Y-87390109D01*
X102479788Y-87390106D01*
X102479792Y-87390104D01*
X102630104Y-87239792D01*
X102630106Y-87239788D01*
X102630109Y-87239786D01*
X102755048Y-87067820D01*
X102755047Y-87067820D01*
X102755051Y-87067816D01*
X102759514Y-87059054D01*
X102807488Y-87008259D01*
X102875308Y-86991463D01*
X102941444Y-87013999D01*
X102980486Y-87059056D01*
X102984951Y-87067820D01*
X103109890Y-87239786D01*
X103260213Y-87390109D01*
X103432179Y-87515048D01*
X103432181Y-87515049D01*
X103432184Y-87515051D01*
X103621588Y-87611557D01*
X103823757Y-87677246D01*
X104033713Y-87710500D01*
X104033714Y-87710500D01*
X104246286Y-87710500D01*
X104246287Y-87710500D01*
X104456243Y-87677246D01*
X104658412Y-87611557D01*
X104847816Y-87515051D01*
X104869789Y-87499086D01*
X105019786Y-87390109D01*
X105019788Y-87390106D01*
X105019792Y-87390104D01*
X105170104Y-87239792D01*
X105170106Y-87239788D01*
X105170109Y-87239786D01*
X105295048Y-87067820D01*
X105295047Y-87067820D01*
X105295051Y-87067816D01*
X105391557Y-86878412D01*
X105457246Y-86676243D01*
X105490500Y-86466287D01*
X105490500Y-86253713D01*
X105457246Y-86043757D01*
X105391557Y-85841588D01*
X105295051Y-85652184D01*
X105295049Y-85652181D01*
X105295048Y-85652179D01*
X105170109Y-85480213D01*
X105019786Y-85329890D01*
X104847817Y-85204949D01*
X104838504Y-85200204D01*
X104787707Y-85152230D01*
X104770912Y-85084409D01*
X104793449Y-85018274D01*
X104838507Y-84979232D01*
X104847558Y-84974620D01*
X105019459Y-84849727D01*
X105019464Y-84849723D01*
X105169723Y-84699464D01*
X105169727Y-84699459D01*
X105294620Y-84527557D01*
X105391095Y-84338217D01*
X105456757Y-84136129D01*
X105456757Y-84136126D01*
X105467231Y-84070000D01*
X104573012Y-84070000D01*
X104605925Y-84012993D01*
X104640000Y-83885826D01*
X104640000Y-83754174D01*
X104605925Y-83627007D01*
X104573012Y-83570000D01*
X105467231Y-83570000D01*
X105456757Y-83503873D01*
X105456757Y-83503870D01*
X105391095Y-83301782D01*
X105294620Y-83112442D01*
X105169727Y-82940540D01*
X105169723Y-82940535D01*
X105019464Y-82790276D01*
X105019459Y-82790272D01*
X104847555Y-82665377D01*
X104838500Y-82660763D01*
X104787706Y-82612788D01*
X104770912Y-82544966D01*
X104793451Y-82478832D01*
X104838508Y-82439793D01*
X104847816Y-82435051D01*
X104927007Y-82377515D01*
X105019786Y-82310109D01*
X105019788Y-82310106D01*
X105019792Y-82310104D01*
X105170104Y-82159792D01*
X105170106Y-82159788D01*
X105170109Y-82159786D01*
X105297915Y-81983875D01*
X105299259Y-81984851D01*
X105345705Y-81942834D01*
X105399618Y-81930500D01*
X105959192Y-81930500D01*
X106026231Y-81950185D01*
X106046873Y-81966819D01*
X117244181Y-93164126D01*
X117277666Y-93225449D01*
X117280500Y-93251807D01*
X117280500Y-124941191D01*
X117260815Y-125008230D01*
X117208011Y-125053985D01*
X117138853Y-125063929D01*
X117075297Y-125034904D01*
X117068819Y-125028872D01*
X110914673Y-118874726D01*
X110914669Y-118874723D01*
X110808127Y-118803535D01*
X110689744Y-118754499D01*
X110689738Y-118754497D01*
X110564071Y-118729500D01*
X110564069Y-118729500D01*
X105399618Y-118729500D01*
X105332579Y-118709815D01*
X105298900Y-118675408D01*
X105297915Y-118676125D01*
X105170109Y-118500213D01*
X105019786Y-118349890D01*
X104847820Y-118224951D01*
X104658414Y-118128444D01*
X104658413Y-118128443D01*
X104658412Y-118128443D01*
X104456243Y-118062754D01*
X104456241Y-118062753D01*
X104456240Y-118062753D01*
X104294957Y-118037208D01*
X104246287Y-118029500D01*
X104033713Y-118029500D01*
X103985042Y-118037208D01*
X103823760Y-118062753D01*
X103621585Y-118128444D01*
X103432179Y-118224951D01*
X103260215Y-118349889D01*
X103146673Y-118463431D01*
X103085350Y-118496915D01*
X103015658Y-118491931D01*
X102959725Y-118450059D01*
X102942810Y-118419082D01*
X102893797Y-118287671D01*
X102893793Y-118287664D01*
X102807547Y-118172455D01*
X102807544Y-118172452D01*
X102692335Y-118086206D01*
X102692328Y-118086202D01*
X102557482Y-118035908D01*
X102557483Y-118035908D01*
X102497883Y-118029501D01*
X102497881Y-118029500D01*
X102497873Y-118029500D01*
X102497864Y-118029500D01*
X100702129Y-118029500D01*
X100702123Y-118029501D01*
X100642516Y-118035908D01*
X100507671Y-118086202D01*
X100507664Y-118086206D01*
X100392455Y-118172452D01*
X100392452Y-118172455D01*
X100306206Y-118287664D01*
X100306202Y-118287671D01*
X100255908Y-118422517D01*
X100249501Y-118482116D01*
X100249500Y-118482135D01*
X100249500Y-120277870D01*
X100249501Y-120277876D01*
X100255908Y-120337483D01*
X100306202Y-120472328D01*
X100306206Y-120472335D01*
X100392452Y-120587544D01*
X100392455Y-120587547D01*
X100507664Y-120673793D01*
X100507671Y-120673797D01*
X100639082Y-120722810D01*
X100695016Y-120764681D01*
X100719433Y-120830145D01*
X100704582Y-120898418D01*
X100683431Y-120926673D01*
X100569889Y-121040215D01*
X100444951Y-121212179D01*
X100348444Y-121401585D01*
X100282753Y-121603760D01*
X100249500Y-121813713D01*
X100249500Y-122026286D01*
X100282753Y-122236239D01*
X100348444Y-122438414D01*
X100444951Y-122627820D01*
X100569890Y-122799786D01*
X100720213Y-122950109D01*
X100892182Y-123075050D01*
X100900946Y-123079516D01*
X100951742Y-123127491D01*
X100968536Y-123195312D01*
X100945998Y-123261447D01*
X100900946Y-123300484D01*
X100892182Y-123304949D01*
X100720213Y-123429890D01*
X100569890Y-123580213D01*
X100444951Y-123752179D01*
X100348444Y-123941585D01*
X100282753Y-124143760D01*
X100249500Y-124353713D01*
X100249500Y-124566286D01*
X100282753Y-124776239D01*
X100348444Y-124978414D01*
X100444951Y-125167820D01*
X100569890Y-125339786D01*
X100720213Y-125490109D01*
X100892182Y-125615050D01*
X100900946Y-125619516D01*
X100951742Y-125667491D01*
X100968536Y-125735312D01*
X100945998Y-125801447D01*
X100900946Y-125840484D01*
X100892182Y-125844949D01*
X100720213Y-125969890D01*
X100569890Y-126120213D01*
X100444951Y-126292179D01*
X100348444Y-126481585D01*
X100282753Y-126683760D01*
X100249500Y-126893713D01*
X100249500Y-127106287D01*
X100282754Y-127316243D01*
X100284379Y-127321245D01*
X100348444Y-127518414D01*
X100444951Y-127707820D01*
X100569890Y-127879786D01*
X100720213Y-128030109D01*
X100892179Y-128155048D01*
X100892181Y-128155049D01*
X100892184Y-128155051D01*
X100901493Y-128159794D01*
X100952290Y-128207766D01*
X100969087Y-128275587D01*
X100946552Y-128341722D01*
X100901502Y-128380762D01*
X100892443Y-128385378D01*
X100720540Y-128510272D01*
X100720535Y-128510276D01*
X100570276Y-128660535D01*
X100570272Y-128660540D01*
X100445379Y-128832442D01*
X100348904Y-129021782D01*
X100283242Y-129223870D01*
X100283242Y-129223873D01*
X100272769Y-129290000D01*
X101166988Y-129290000D01*
X101134075Y-129347007D01*
X101100000Y-129474174D01*
X101100000Y-129605826D01*
X101134075Y-129732993D01*
X101166988Y-129790000D01*
X100272769Y-129790000D01*
X100283242Y-129856126D01*
X100283242Y-129856129D01*
X100348904Y-130058217D01*
X100445379Y-130247557D01*
X100570272Y-130419459D01*
X100570276Y-130419464D01*
X100720535Y-130569723D01*
X100720540Y-130569727D01*
X100892444Y-130694622D01*
X100901495Y-130699234D01*
X100952292Y-130747208D01*
X100969087Y-130815029D01*
X100946550Y-130881164D01*
X100901499Y-130920202D01*
X100892182Y-130924949D01*
X100720213Y-131049890D01*
X100569890Y-131200213D01*
X100444951Y-131372179D01*
X100348444Y-131561585D01*
X100282753Y-131763760D01*
X100249500Y-131973713D01*
X100249500Y-132186287D01*
X100282754Y-132396243D01*
X100309968Y-132480000D01*
X100348444Y-132598414D01*
X100444951Y-132787820D01*
X100569890Y-132959786D01*
X100720213Y-133110109D01*
X100892179Y-133235048D01*
X100892181Y-133235049D01*
X100892184Y-133235051D01*
X101081588Y-133331557D01*
X101283757Y-133397246D01*
X101493713Y-133430500D01*
X101493714Y-133430500D01*
X101706286Y-133430500D01*
X101706287Y-133430500D01*
X101916243Y-133397246D01*
X102118412Y-133331557D01*
X102307816Y-133235051D01*
X102361187Y-133196275D01*
X102479786Y-133110109D01*
X102479788Y-133110106D01*
X102479792Y-133110104D01*
X102630104Y-132959792D01*
X102630106Y-132959788D01*
X102630109Y-132959786D01*
X102755048Y-132787820D01*
X102755047Y-132787820D01*
X102755051Y-132787816D01*
X102759514Y-132779054D01*
X102807488Y-132728259D01*
X102875308Y-132711463D01*
X102941444Y-132733999D01*
X102980484Y-132779054D01*
X102981043Y-132780150D01*
X102984951Y-132787820D01*
X103109890Y-132959786D01*
X103260213Y-133110109D01*
X103432179Y-133235048D01*
X103432181Y-133235049D01*
X103432184Y-133235051D01*
X103621588Y-133331557D01*
X103823757Y-133397246D01*
X104033713Y-133430500D01*
X104033714Y-133430500D01*
X104246286Y-133430500D01*
X104246287Y-133430500D01*
X104456243Y-133397246D01*
X104658412Y-133331557D01*
X104847816Y-133235051D01*
X104901187Y-133196275D01*
X105019786Y-133110109D01*
X105019788Y-133110106D01*
X105019792Y-133110104D01*
X105170104Y-132959792D01*
X105170106Y-132959788D01*
X105170109Y-132959786D01*
X105295048Y-132787820D01*
X105295047Y-132787820D01*
X105295051Y-132787816D01*
X105391557Y-132598412D01*
X105457246Y-132396243D01*
X105490500Y-132186287D01*
X105490500Y-131973713D01*
X105457246Y-131763757D01*
X105391557Y-131561588D01*
X105295051Y-131372184D01*
X105295049Y-131372181D01*
X105295048Y-131372179D01*
X105170109Y-131200213D01*
X105019786Y-131049890D01*
X104847817Y-130924949D01*
X104838504Y-130920204D01*
X104787707Y-130872230D01*
X104770912Y-130804409D01*
X104793449Y-130738274D01*
X104838507Y-130699232D01*
X104847558Y-130694620D01*
X105019459Y-130569727D01*
X105019464Y-130569723D01*
X105169723Y-130419464D01*
X105169727Y-130419459D01*
X105294620Y-130247557D01*
X105391095Y-130058217D01*
X105456757Y-129856129D01*
X105456757Y-129856126D01*
X105467231Y-129790000D01*
X104573012Y-129790000D01*
X104605925Y-129732993D01*
X104640000Y-129605826D01*
X104640000Y-129474174D01*
X104605925Y-129347007D01*
X104573012Y-129290000D01*
X105467231Y-129290000D01*
X105456757Y-129223873D01*
X105456757Y-129223870D01*
X105433671Y-129152818D01*
X105431676Y-129082977D01*
X105467756Y-129023144D01*
X105530457Y-128992316D01*
X105551602Y-128990500D01*
X110599192Y-128990500D01*
X110666231Y-129010185D01*
X110686873Y-129026819D01*
X113221181Y-131561126D01*
X113254666Y-131622449D01*
X113257500Y-131648807D01*
X113257500Y-138460590D01*
X113275234Y-138549740D01*
X113275234Y-138549742D01*
X113282497Y-138586257D01*
X113282498Y-138586261D01*
X113282499Y-138586264D01*
X113297963Y-138623598D01*
X113331534Y-138704645D01*
X113402726Y-138811193D01*
X125330806Y-150739273D01*
X125330809Y-150739275D01*
X125330811Y-150739277D01*
X125437353Y-150810465D01*
X125555736Y-150859501D01*
X125555740Y-150859501D01*
X125555741Y-150859502D01*
X125681408Y-150884500D01*
X125681411Y-150884500D01*
X165780071Y-150884500D01*
X165864615Y-150867682D01*
X165905744Y-150859501D01*
X166024127Y-150810465D01*
X166130669Y-150739277D01*
X172520276Y-144349669D01*
X172591465Y-144243127D01*
X172640501Y-144124744D01*
X172649110Y-144081465D01*
X172665500Y-143999069D01*
X172665500Y-141066269D01*
X172685185Y-140999230D01*
X172737989Y-140953475D01*
X172807147Y-140943531D01*
X172831868Y-140950312D01*
X172831954Y-140950051D01*
X172836586Y-140951556D01*
X172836588Y-140951557D01*
X173038757Y-141017246D01*
X173248713Y-141050500D01*
X173248714Y-141050500D01*
X173461286Y-141050500D01*
X173461287Y-141050500D01*
X173671243Y-141017246D01*
X173873412Y-140951557D01*
X174062816Y-140855051D01*
X174116187Y-140816275D01*
X174234786Y-140730109D01*
X174234788Y-140730106D01*
X174234792Y-140730104D01*
X174385104Y-140579792D01*
X174385106Y-140579788D01*
X174385109Y-140579786D01*
X174510048Y-140407820D01*
X174510050Y-140407817D01*
X174510051Y-140407816D01*
X174606557Y-140218412D01*
X174672246Y-140016243D01*
X174705500Y-139806287D01*
X174705500Y-139593713D01*
X174672246Y-139383757D01*
X174606557Y-139181588D01*
X174510051Y-138992184D01*
X174510049Y-138992181D01*
X174510048Y-138992179D01*
X174385109Y-138820213D01*
X174271569Y-138706673D01*
X174238084Y-138645350D01*
X174243068Y-138575658D01*
X174284940Y-138519725D01*
X174315915Y-138502810D01*
X174447331Y-138453796D01*
X174562546Y-138367546D01*
X174648796Y-138252331D01*
X174699091Y-138117483D01*
X174705500Y-138057873D01*
X174705499Y-136262128D01*
X174699091Y-136202517D01*
X174697810Y-136199083D01*
X174648797Y-136067671D01*
X174648793Y-136067664D01*
X174562547Y-135952455D01*
X174562544Y-135952452D01*
X174447335Y-135866206D01*
X174447328Y-135866202D01*
X174312482Y-135815908D01*
X174312483Y-135815908D01*
X174252883Y-135809501D01*
X174252881Y-135809500D01*
X174252873Y-135809500D01*
X174252864Y-135809500D01*
X172457129Y-135809500D01*
X172457123Y-135809501D01*
X172397516Y-135815908D01*
X172262671Y-135866202D01*
X172262664Y-135866206D01*
X172147455Y-135952452D01*
X172147452Y-135952455D01*
X172061206Y-136067664D01*
X172061203Y-136067669D01*
X172012189Y-136199083D01*
X171970317Y-136255016D01*
X171904853Y-136279433D01*
X171836580Y-136264581D01*
X171808326Y-136243430D01*
X171694786Y-136129890D01*
X171522820Y-136004951D01*
X171333414Y-135908444D01*
X171333413Y-135908443D01*
X171333412Y-135908443D01*
X171131243Y-135842754D01*
X171131241Y-135842753D01*
X171131240Y-135842753D01*
X170969957Y-135817208D01*
X170921287Y-135809500D01*
X170708713Y-135809500D01*
X170660042Y-135817208D01*
X170498760Y-135842753D01*
X170296585Y-135908444D01*
X170107179Y-136004951D01*
X169935213Y-136129890D01*
X169784890Y-136280213D01*
X169659949Y-136452182D01*
X169655484Y-136460946D01*
X169607509Y-136511742D01*
X169539688Y-136528536D01*
X169473553Y-136505998D01*
X169434516Y-136460946D01*
X169430050Y-136452182D01*
X169305109Y-136280213D01*
X169154786Y-136129890D01*
X168982820Y-136004951D01*
X168793414Y-135908444D01*
X168793413Y-135908443D01*
X168793412Y-135908443D01*
X168591243Y-135842754D01*
X168591241Y-135842753D01*
X168591240Y-135842753D01*
X168429957Y-135817208D01*
X168381287Y-135809500D01*
X168168713Y-135809500D01*
X168120042Y-135817208D01*
X167958760Y-135842753D01*
X167756585Y-135908444D01*
X167567179Y-136004951D01*
X167395213Y-136129890D01*
X167244890Y-136280213D01*
X167119949Y-136452182D01*
X167115484Y-136460946D01*
X167067509Y-136511742D01*
X166999688Y-136528536D01*
X166933553Y-136505998D01*
X166894516Y-136460946D01*
X166890050Y-136452182D01*
X166765109Y-136280213D01*
X166614786Y-136129890D01*
X166442820Y-136004951D01*
X166253414Y-135908444D01*
X166253413Y-135908443D01*
X166253412Y-135908443D01*
X166051243Y-135842754D01*
X166051241Y-135842753D01*
X166051240Y-135842753D01*
X165889957Y-135817208D01*
X165841287Y-135809500D01*
X165628713Y-135809500D01*
X165580042Y-135817208D01*
X165418760Y-135842753D01*
X165216585Y-135908444D01*
X165027179Y-136004951D01*
X164855213Y-136129890D01*
X164704890Y-136280213D01*
X164579949Y-136452182D01*
X164575484Y-136460946D01*
X164527509Y-136511742D01*
X164459688Y-136528536D01*
X164393553Y-136505998D01*
X164354516Y-136460946D01*
X164350050Y-136452182D01*
X164225109Y-136280213D01*
X164074786Y-136129890D01*
X163902820Y-136004951D01*
X163713414Y-135908444D01*
X163713413Y-135908443D01*
X163713412Y-135908443D01*
X163511243Y-135842754D01*
X163511241Y-135842753D01*
X163511240Y-135842753D01*
X163349957Y-135817208D01*
X163301287Y-135809500D01*
X163088713Y-135809500D01*
X163040042Y-135817208D01*
X162878760Y-135842753D01*
X162676585Y-135908444D01*
X162487179Y-136004951D01*
X162315213Y-136129890D01*
X162164890Y-136280213D01*
X162039949Y-136452182D01*
X162035484Y-136460946D01*
X161987509Y-136511742D01*
X161919688Y-136528536D01*
X161853553Y-136505998D01*
X161814516Y-136460946D01*
X161810050Y-136452182D01*
X161685109Y-136280213D01*
X161534786Y-136129890D01*
X161362820Y-136004951D01*
X161173414Y-135908444D01*
X161173413Y-135908443D01*
X161173412Y-135908443D01*
X160971243Y-135842754D01*
X160971241Y-135842753D01*
X160971240Y-135842753D01*
X160809957Y-135817208D01*
X160761287Y-135809500D01*
X160548713Y-135809500D01*
X160500042Y-135817208D01*
X160338760Y-135842753D01*
X160136585Y-135908444D01*
X159947179Y-136004951D01*
X159775213Y-136129890D01*
X159624890Y-136280213D01*
X159499949Y-136452182D01*
X159495484Y-136460946D01*
X159447509Y-136511742D01*
X159379688Y-136528536D01*
X159313553Y-136505998D01*
X159274516Y-136460946D01*
X159270050Y-136452182D01*
X159145109Y-136280213D01*
X158994786Y-136129890D01*
X158822820Y-136004951D01*
X158633414Y-135908444D01*
X158633413Y-135908443D01*
X158633412Y-135908443D01*
X158431243Y-135842754D01*
X158431241Y-135842753D01*
X158431240Y-135842753D01*
X158269957Y-135817208D01*
X158221287Y-135809500D01*
X158008713Y-135809500D01*
X157960042Y-135817208D01*
X157798760Y-135842753D01*
X157596585Y-135908444D01*
X157407179Y-136004951D01*
X157235213Y-136129890D01*
X157084890Y-136280213D01*
X156959949Y-136452182D01*
X156955484Y-136460946D01*
X156907509Y-136511742D01*
X156839688Y-136528536D01*
X156773553Y-136505998D01*
X156734516Y-136460946D01*
X156730050Y-136452182D01*
X156605109Y-136280213D01*
X156454786Y-136129890D01*
X156282820Y-136004951D01*
X156093414Y-135908444D01*
X156093413Y-135908443D01*
X156093412Y-135908443D01*
X155891243Y-135842754D01*
X155891241Y-135842753D01*
X155891240Y-135842753D01*
X155729957Y-135817208D01*
X155681287Y-135809500D01*
X155468713Y-135809500D01*
X155420042Y-135817208D01*
X155258760Y-135842753D01*
X155056585Y-135908444D01*
X154867179Y-136004951D01*
X154695213Y-136129890D01*
X154544890Y-136280213D01*
X154419949Y-136452182D01*
X154415484Y-136460946D01*
X154367509Y-136511742D01*
X154299688Y-136528536D01*
X154233553Y-136505998D01*
X154194516Y-136460946D01*
X154190050Y-136452182D01*
X154065109Y-136280213D01*
X153914786Y-136129890D01*
X153742820Y-136004951D01*
X153553414Y-135908444D01*
X153553413Y-135908443D01*
X153553412Y-135908443D01*
X153351243Y-135842754D01*
X153351241Y-135842753D01*
X153351240Y-135842753D01*
X153189957Y-135817208D01*
X153141287Y-135809500D01*
X152928713Y-135809500D01*
X152880042Y-135817208D01*
X152718760Y-135842753D01*
X152516585Y-135908444D01*
X152327179Y-136004951D01*
X152155213Y-136129890D01*
X152004890Y-136280213D01*
X151879949Y-136452182D01*
X151875484Y-136460946D01*
X151827509Y-136511742D01*
X151759688Y-136528536D01*
X151693553Y-136505998D01*
X151654516Y-136460946D01*
X151650050Y-136452182D01*
X151525109Y-136280213D01*
X151374786Y-136129890D01*
X151202820Y-136004951D01*
X151013414Y-135908444D01*
X151013413Y-135908443D01*
X151013412Y-135908443D01*
X150811243Y-135842754D01*
X150811241Y-135842753D01*
X150811240Y-135842753D01*
X150649957Y-135817208D01*
X150601287Y-135809500D01*
X150388713Y-135809500D01*
X150340042Y-135817208D01*
X150178760Y-135842753D01*
X149976585Y-135908444D01*
X149787179Y-136004951D01*
X149615213Y-136129890D01*
X149464890Y-136280213D01*
X149339949Y-136452182D01*
X149335484Y-136460946D01*
X149287509Y-136511742D01*
X149219688Y-136528536D01*
X149153553Y-136505998D01*
X149114516Y-136460946D01*
X149110050Y-136452182D01*
X148985109Y-136280213D01*
X148834786Y-136129890D01*
X148662820Y-136004951D01*
X148473414Y-135908444D01*
X148473413Y-135908443D01*
X148473412Y-135908443D01*
X148271243Y-135842754D01*
X148271241Y-135842753D01*
X148271240Y-135842753D01*
X148109957Y-135817208D01*
X148061287Y-135809500D01*
X147848713Y-135809500D01*
X147800042Y-135817208D01*
X147638760Y-135842753D01*
X147436585Y-135908444D01*
X147247179Y-136004951D01*
X147075213Y-136129890D01*
X146924890Y-136280213D01*
X146799949Y-136452182D01*
X146795484Y-136460946D01*
X146747509Y-136511742D01*
X146679688Y-136528536D01*
X146613553Y-136505998D01*
X146574516Y-136460946D01*
X146570050Y-136452182D01*
X146445109Y-136280213D01*
X146294786Y-136129890D01*
X146122820Y-136004951D01*
X145933414Y-135908444D01*
X145933413Y-135908443D01*
X145933412Y-135908443D01*
X145731243Y-135842754D01*
X145731241Y-135842753D01*
X145731240Y-135842753D01*
X145569957Y-135817208D01*
X145521287Y-135809500D01*
X145308713Y-135809500D01*
X145260042Y-135817208D01*
X145098760Y-135842753D01*
X144896585Y-135908444D01*
X144707179Y-136004951D01*
X144535213Y-136129890D01*
X144384890Y-136280213D01*
X144259949Y-136452182D01*
X144255484Y-136460946D01*
X144207509Y-136511742D01*
X144139688Y-136528536D01*
X144073553Y-136505998D01*
X144034516Y-136460946D01*
X144030050Y-136452182D01*
X143905109Y-136280213D01*
X143754786Y-136129890D01*
X143582820Y-136004951D01*
X143393414Y-135908444D01*
X143393413Y-135908443D01*
X143393412Y-135908443D01*
X143191243Y-135842754D01*
X143191241Y-135842753D01*
X143191240Y-135842753D01*
X143029957Y-135817208D01*
X142981287Y-135809500D01*
X142768713Y-135809500D01*
X142720042Y-135817208D01*
X142558760Y-135842753D01*
X142356585Y-135908444D01*
X142167179Y-136004951D01*
X141995213Y-136129890D01*
X141844890Y-136280213D01*
X141719949Y-136452182D01*
X141715484Y-136460946D01*
X141667509Y-136511742D01*
X141599688Y-136528536D01*
X141533553Y-136505998D01*
X141494516Y-136460946D01*
X141490050Y-136452182D01*
X141365109Y-136280213D01*
X141214786Y-136129890D01*
X141042820Y-136004951D01*
X140853414Y-135908444D01*
X140853413Y-135908443D01*
X140853412Y-135908443D01*
X140651243Y-135842754D01*
X140651241Y-135842753D01*
X140651240Y-135842753D01*
X140489957Y-135817208D01*
X140441287Y-135809500D01*
X140228713Y-135809500D01*
X140180042Y-135817208D01*
X140018760Y-135842753D01*
X139816585Y-135908444D01*
X139627179Y-136004951D01*
X139455213Y-136129890D01*
X139304890Y-136280213D01*
X139179949Y-136452182D01*
X139175484Y-136460946D01*
X139127509Y-136511742D01*
X139059688Y-136528536D01*
X138993553Y-136505998D01*
X138954516Y-136460946D01*
X138950050Y-136452182D01*
X138825109Y-136280213D01*
X138674786Y-136129890D01*
X138502820Y-136004951D01*
X138313414Y-135908444D01*
X138313413Y-135908443D01*
X138313412Y-135908443D01*
X138111243Y-135842754D01*
X138111241Y-135842753D01*
X138111240Y-135842753D01*
X137949957Y-135817208D01*
X137901287Y-135809500D01*
X137688713Y-135809500D01*
X137640042Y-135817208D01*
X137478760Y-135842753D01*
X137276585Y-135908444D01*
X137087179Y-136004951D01*
X136915213Y-136129890D01*
X136764890Y-136280213D01*
X136639949Y-136452182D01*
X136635484Y-136460946D01*
X136587509Y-136511742D01*
X136519688Y-136528536D01*
X136453553Y-136505998D01*
X136414516Y-136460946D01*
X136410050Y-136452182D01*
X136285109Y-136280213D01*
X136134786Y-136129890D01*
X135962820Y-136004951D01*
X135773414Y-135908444D01*
X135773413Y-135908443D01*
X135773412Y-135908443D01*
X135571243Y-135842754D01*
X135571241Y-135842753D01*
X135571240Y-135842753D01*
X135409957Y-135817208D01*
X135361287Y-135809500D01*
X135148713Y-135809500D01*
X135100042Y-135817208D01*
X134938760Y-135842753D01*
X134736585Y-135908444D01*
X134547179Y-136004951D01*
X134375213Y-136129890D01*
X134224890Y-136280213D01*
X134099949Y-136452182D01*
X134095484Y-136460946D01*
X134047509Y-136511742D01*
X133979688Y-136528536D01*
X133913553Y-136505998D01*
X133874516Y-136460946D01*
X133870050Y-136452182D01*
X133745109Y-136280213D01*
X133594786Y-136129890D01*
X133422820Y-136004951D01*
X133233414Y-135908444D01*
X133233413Y-135908443D01*
X133233412Y-135908443D01*
X133031243Y-135842754D01*
X133031241Y-135842753D01*
X133031240Y-135842753D01*
X132869957Y-135817208D01*
X132821287Y-135809500D01*
X132608713Y-135809500D01*
X132560042Y-135817208D01*
X132398760Y-135842753D01*
X132196585Y-135908444D01*
X132007179Y-136004951D01*
X131835213Y-136129890D01*
X131684890Y-136280213D01*
X131559949Y-136452182D01*
X131555202Y-136461499D01*
X131507227Y-136512293D01*
X131439405Y-136529087D01*
X131373271Y-136506548D01*
X131334234Y-136461495D01*
X131329622Y-136452444D01*
X131204727Y-136280540D01*
X131204723Y-136280535D01*
X131054464Y-136130276D01*
X131054459Y-136130272D01*
X130882557Y-136005379D01*
X130693215Y-135908903D01*
X130491124Y-135843241D01*
X130425000Y-135832768D01*
X130425000Y-136726988D01*
X130367993Y-136694075D01*
X130240826Y-136660000D01*
X130109174Y-136660000D01*
X129982007Y-136694075D01*
X129925000Y-136726988D01*
X129925000Y-135832768D01*
X129924999Y-135832768D01*
X129858875Y-135843241D01*
X129656784Y-135908903D01*
X129467442Y-136005379D01*
X129295540Y-136130272D01*
X129295535Y-136130276D01*
X129145276Y-136280535D01*
X129145272Y-136280540D01*
X129020379Y-136452442D01*
X128923904Y-136641782D01*
X128858242Y-136843870D01*
X128858242Y-136843873D01*
X128847769Y-136910000D01*
X129741988Y-136910000D01*
X129709075Y-136967007D01*
X129675000Y-137094174D01*
X129675000Y-137225826D01*
X129709075Y-137352993D01*
X129741988Y-137410000D01*
X128847769Y-137410000D01*
X128858242Y-137476126D01*
X128858242Y-137476129D01*
X128923904Y-137678217D01*
X129020379Y-137867557D01*
X129145272Y-138039459D01*
X129145276Y-138039464D01*
X129295535Y-138189723D01*
X129295540Y-138189727D01*
X129467444Y-138314622D01*
X129477048Y-138319516D01*
X129527844Y-138367491D01*
X129544638Y-138435312D01*
X129522100Y-138501447D01*
X129477048Y-138540484D01*
X129467444Y-138545377D01*
X129295540Y-138670272D01*
X129295535Y-138670276D01*
X129145276Y-138820535D01*
X129145272Y-138820540D01*
X129020379Y-138992442D01*
X128923904Y-139181782D01*
X128858242Y-139383870D01*
X128858242Y-139383873D01*
X128847769Y-139450000D01*
X129741988Y-139450000D01*
X129709075Y-139507007D01*
X129675000Y-139634174D01*
X129675000Y-139765826D01*
X129709075Y-139892993D01*
X129741988Y-139950000D01*
X128847769Y-139950000D01*
X128858242Y-140016126D01*
X128858242Y-140016129D01*
X128923904Y-140218217D01*
X129020379Y-140407557D01*
X129145272Y-140579459D01*
X129145276Y-140579464D01*
X129295535Y-140729723D01*
X129295540Y-140729727D01*
X129467442Y-140854620D01*
X129656782Y-140951095D01*
X129858871Y-141016757D01*
X129925000Y-141027231D01*
X129925000Y-140133012D01*
X129982007Y-140165925D01*
X130109174Y-140200000D01*
X130240826Y-140200000D01*
X130367993Y-140165925D01*
X130425000Y-140133012D01*
X130425000Y-141027230D01*
X130491126Y-141016757D01*
X130491129Y-141016757D01*
X130693217Y-140951095D01*
X130882557Y-140854620D01*
X131054459Y-140729727D01*
X131054464Y-140729723D01*
X131204723Y-140579464D01*
X131204727Y-140579459D01*
X131329620Y-140407558D01*
X131334232Y-140398507D01*
X131382205Y-140347709D01*
X131450025Y-140330912D01*
X131516161Y-140353447D01*
X131555204Y-140398504D01*
X131559949Y-140407817D01*
X131684890Y-140579786D01*
X131835213Y-140730109D01*
X132007179Y-140855048D01*
X132007181Y-140855049D01*
X132007184Y-140855051D01*
X132196588Y-140951557D01*
X132398757Y-141017246D01*
X132608713Y-141050500D01*
X132608714Y-141050500D01*
X132821286Y-141050500D01*
X132821287Y-141050500D01*
X133031243Y-141017246D01*
X133233412Y-140951557D01*
X133422816Y-140855051D01*
X133476187Y-140816275D01*
X133594786Y-140730109D01*
X133594788Y-140730106D01*
X133594792Y-140730104D01*
X133745104Y-140579792D01*
X133745106Y-140579788D01*
X133745109Y-140579786D01*
X133870048Y-140407820D01*
X133870050Y-140407817D01*
X133870051Y-140407816D01*
X133874514Y-140399054D01*
X133922488Y-140348259D01*
X133990308Y-140331463D01*
X134056444Y-140353999D01*
X134095484Y-140399054D01*
X134096043Y-140400150D01*
X134099951Y-140407820D01*
X134224890Y-140579786D01*
X134375213Y-140730109D01*
X134547179Y-140855048D01*
X134547181Y-140855049D01*
X134547184Y-140855051D01*
X134736588Y-140951557D01*
X134938757Y-141017246D01*
X135148713Y-141050500D01*
X135148714Y-141050500D01*
X135361286Y-141050500D01*
X135361287Y-141050500D01*
X135571243Y-141017246D01*
X135773412Y-140951557D01*
X135962816Y-140855051D01*
X136016187Y-140816275D01*
X136134786Y-140730109D01*
X136134788Y-140730106D01*
X136134792Y-140730104D01*
X136285104Y-140579792D01*
X136285106Y-140579788D01*
X136285109Y-140579786D01*
X136410048Y-140407820D01*
X136410050Y-140407817D01*
X136410051Y-140407816D01*
X136414514Y-140399054D01*
X136462488Y-140348259D01*
X136530308Y-140331463D01*
X136596444Y-140353999D01*
X136635484Y-140399054D01*
X136636043Y-140400150D01*
X136639951Y-140407820D01*
X136764890Y-140579786D01*
X136915213Y-140730109D01*
X137087179Y-140855048D01*
X137087181Y-140855049D01*
X137087184Y-140855051D01*
X137276588Y-140951557D01*
X137478757Y-141017246D01*
X137688713Y-141050500D01*
X137688714Y-141050500D01*
X137901286Y-141050500D01*
X137901287Y-141050500D01*
X138111243Y-141017246D01*
X138313412Y-140951557D01*
X138502816Y-140855051D01*
X138556187Y-140816275D01*
X138674786Y-140730109D01*
X138674788Y-140730106D01*
X138674792Y-140730104D01*
X138825104Y-140579792D01*
X138825106Y-140579788D01*
X138825109Y-140579786D01*
X138950048Y-140407820D01*
X138950050Y-140407817D01*
X138950051Y-140407816D01*
X138954514Y-140399054D01*
X139002488Y-140348259D01*
X139070308Y-140331463D01*
X139136444Y-140353999D01*
X139175484Y-140399054D01*
X139176043Y-140400150D01*
X139179951Y-140407820D01*
X139304890Y-140579786D01*
X139455213Y-140730109D01*
X139627179Y-140855048D01*
X139627181Y-140855049D01*
X139627184Y-140855051D01*
X139816588Y-140951557D01*
X140018757Y-141017246D01*
X140228713Y-141050500D01*
X140228714Y-141050500D01*
X140441286Y-141050500D01*
X140441287Y-141050500D01*
X140651243Y-141017246D01*
X140853412Y-140951557D01*
X140853413Y-140951556D01*
X140858046Y-140950051D01*
X140858397Y-140951131D01*
X140922521Y-140944240D01*
X140984999Y-140975517D01*
X141020649Y-141035608D01*
X141024500Y-141066269D01*
X141024500Y-141504192D01*
X141004815Y-141571231D01*
X140988181Y-141591873D01*
X140696873Y-141883181D01*
X140635550Y-141916666D01*
X140609192Y-141919500D01*
X129220808Y-141919500D01*
X129153769Y-141899815D01*
X129133127Y-141883181D01*
X122166819Y-134916873D01*
X122133334Y-134855550D01*
X122130500Y-134829192D01*
X122130500Y-115942135D01*
X123749500Y-115942135D01*
X123749500Y-117737870D01*
X123749501Y-117737876D01*
X123755908Y-117797483D01*
X123806202Y-117932328D01*
X123806206Y-117932335D01*
X123892452Y-118047544D01*
X123892455Y-118047547D01*
X124007664Y-118133793D01*
X124007671Y-118133797D01*
X124139082Y-118182810D01*
X124195016Y-118224681D01*
X124219433Y-118290145D01*
X124204582Y-118358418D01*
X124183431Y-118386673D01*
X124069889Y-118500215D01*
X123944951Y-118672179D01*
X123848444Y-118861585D01*
X123782753Y-119063760D01*
X123749500Y-119273713D01*
X123749500Y-119486286D01*
X123782753Y-119696239D01*
X123848444Y-119898414D01*
X123944951Y-120087820D01*
X124069890Y-120259786D01*
X124220213Y-120410109D01*
X124392182Y-120535050D01*
X124400946Y-120539516D01*
X124451742Y-120587491D01*
X124468536Y-120655312D01*
X124445998Y-120721447D01*
X124400946Y-120760484D01*
X124392182Y-120764949D01*
X124220213Y-120889890D01*
X124069890Y-121040213D01*
X123944951Y-121212179D01*
X123848444Y-121401585D01*
X123782753Y-121603760D01*
X123749500Y-121813713D01*
X123749500Y-122026286D01*
X123782753Y-122236239D01*
X123848444Y-122438414D01*
X123944951Y-122627820D01*
X124069890Y-122799786D01*
X124220213Y-122950109D01*
X124392182Y-123075050D01*
X124400946Y-123079516D01*
X124451742Y-123127491D01*
X124468536Y-123195312D01*
X124445998Y-123261447D01*
X124400946Y-123300484D01*
X124392182Y-123304949D01*
X124220213Y-123429890D01*
X124069890Y-123580213D01*
X123944951Y-123752179D01*
X123848444Y-123941585D01*
X123782753Y-124143760D01*
X123749500Y-124353713D01*
X123749500Y-124566286D01*
X123782753Y-124776239D01*
X123848444Y-124978414D01*
X123944951Y-125167820D01*
X124069890Y-125339786D01*
X124220213Y-125490109D01*
X124392182Y-125615050D01*
X124400946Y-125619516D01*
X124451742Y-125667491D01*
X124468536Y-125735312D01*
X124445998Y-125801447D01*
X124400946Y-125840484D01*
X124392182Y-125844949D01*
X124220213Y-125969890D01*
X124069890Y-126120213D01*
X123944951Y-126292179D01*
X123848444Y-126481585D01*
X123782753Y-126683760D01*
X123749500Y-126893713D01*
X123749500Y-127106287D01*
X123782754Y-127316243D01*
X123784379Y-127321245D01*
X123848444Y-127518414D01*
X123944951Y-127707820D01*
X124069890Y-127879786D01*
X124220213Y-128030109D01*
X124392182Y-128155050D01*
X124400946Y-128159516D01*
X124451742Y-128207491D01*
X124468536Y-128275312D01*
X124445998Y-128341447D01*
X124400946Y-128380484D01*
X124392182Y-128384949D01*
X124220213Y-128509890D01*
X124069890Y-128660213D01*
X123944951Y-128832179D01*
X123848444Y-129021585D01*
X123782753Y-129223760D01*
X123772262Y-129290000D01*
X123749500Y-129433713D01*
X123749500Y-129646287D01*
X123782754Y-129856243D01*
X123784379Y-129861245D01*
X123848444Y-130058414D01*
X123944951Y-130247820D01*
X124069890Y-130419786D01*
X124220213Y-130570109D01*
X124392182Y-130695050D01*
X124400946Y-130699516D01*
X124451742Y-130747491D01*
X124468536Y-130815312D01*
X124445998Y-130881447D01*
X124400946Y-130920484D01*
X124392182Y-130924949D01*
X124220213Y-131049890D01*
X124069890Y-131200213D01*
X123944951Y-131372179D01*
X123848444Y-131561585D01*
X123782753Y-131763760D01*
X123749500Y-131973713D01*
X123749500Y-132186287D01*
X123782754Y-132396243D01*
X123809968Y-132480000D01*
X123848444Y-132598414D01*
X123944951Y-132787820D01*
X124069890Y-132959786D01*
X124220213Y-133110109D01*
X124392182Y-133235050D01*
X124400946Y-133239516D01*
X124451742Y-133287491D01*
X124468536Y-133355312D01*
X124445998Y-133421447D01*
X124400946Y-133460484D01*
X124392182Y-133464949D01*
X124220213Y-133589890D01*
X124069890Y-133740213D01*
X123944951Y-133912179D01*
X123848444Y-134101585D01*
X123782753Y-134303760D01*
X123749500Y-134513713D01*
X123749500Y-134726286D01*
X123782753Y-134936239D01*
X123848444Y-135138414D01*
X123944951Y-135327820D01*
X124069890Y-135499786D01*
X124220213Y-135650109D01*
X124392179Y-135775048D01*
X124392181Y-135775049D01*
X124392184Y-135775051D01*
X124581588Y-135871557D01*
X124783757Y-135937246D01*
X124993713Y-135970500D01*
X124993714Y-135970500D01*
X125206286Y-135970500D01*
X125206287Y-135970500D01*
X125416243Y-135937246D01*
X125618412Y-135871557D01*
X125807816Y-135775051D01*
X125950679Y-135671256D01*
X125979786Y-135650109D01*
X125979788Y-135650106D01*
X125979792Y-135650104D01*
X126130104Y-135499792D01*
X126130106Y-135499788D01*
X126130109Y-135499786D01*
X126255048Y-135327820D01*
X126255047Y-135327820D01*
X126255051Y-135327816D01*
X126351557Y-135138412D01*
X126417246Y-134936243D01*
X126450500Y-134726287D01*
X126450500Y-134513713D01*
X126417246Y-134303757D01*
X126351557Y-134101588D01*
X126255051Y-133912184D01*
X126255049Y-133912181D01*
X126255048Y-133912179D01*
X126130109Y-133740213D01*
X125979786Y-133589890D01*
X125807820Y-133464951D01*
X125807115Y-133464591D01*
X125799054Y-133460485D01*
X125748259Y-133412512D01*
X125731463Y-133344692D01*
X125753999Y-133278556D01*
X125799054Y-133239515D01*
X125807816Y-133235051D01*
X125861187Y-133196275D01*
X125979786Y-133110109D01*
X125979788Y-133110106D01*
X125979792Y-133110104D01*
X126130104Y-132959792D01*
X126130106Y-132959788D01*
X126130109Y-132959786D01*
X126255048Y-132787820D01*
X126255047Y-132787820D01*
X126255051Y-132787816D01*
X126351557Y-132598412D01*
X126417246Y-132396243D01*
X126450500Y-132186287D01*
X126450500Y-131973713D01*
X126417246Y-131763757D01*
X126351557Y-131561588D01*
X126255051Y-131372184D01*
X126255049Y-131372181D01*
X126255048Y-131372179D01*
X126130109Y-131200213D01*
X125979786Y-131049890D01*
X125807820Y-130924951D01*
X125807115Y-130924591D01*
X125799054Y-130920485D01*
X125748259Y-130872512D01*
X125731463Y-130804692D01*
X125753999Y-130738556D01*
X125799054Y-130699515D01*
X125807816Y-130695051D01*
X125829789Y-130679086D01*
X125979786Y-130570109D01*
X125979788Y-130570106D01*
X125979792Y-130570104D01*
X126130104Y-130419792D01*
X126130106Y-130419788D01*
X126130109Y-130419786D01*
X126255048Y-130247820D01*
X126255047Y-130247820D01*
X126255051Y-130247816D01*
X126351557Y-130058412D01*
X126417246Y-129856243D01*
X126450500Y-129646287D01*
X126450500Y-129433713D01*
X126417246Y-129223757D01*
X126351557Y-129021588D01*
X126255051Y-128832184D01*
X126255049Y-128832181D01*
X126255048Y-128832179D01*
X126130109Y-128660213D01*
X125979786Y-128509890D01*
X125807820Y-128384951D01*
X125807115Y-128384591D01*
X125799054Y-128380485D01*
X125748259Y-128332512D01*
X125731463Y-128264692D01*
X125753999Y-128198556D01*
X125799054Y-128159515D01*
X125807816Y-128155051D01*
X125829789Y-128139086D01*
X125979786Y-128030109D01*
X125979788Y-128030106D01*
X125979792Y-128030104D01*
X126130104Y-127879792D01*
X126130106Y-127879788D01*
X126130109Y-127879786D01*
X126255048Y-127707820D01*
X126255047Y-127707820D01*
X126255051Y-127707816D01*
X126351557Y-127518412D01*
X126417246Y-127316243D01*
X126450500Y-127106287D01*
X126450500Y-126893713D01*
X126417246Y-126683757D01*
X126351557Y-126481588D01*
X126255051Y-126292184D01*
X126255049Y-126292181D01*
X126255048Y-126292179D01*
X126130109Y-126120213D01*
X125979786Y-125969890D01*
X125807820Y-125844951D01*
X125807115Y-125844591D01*
X125799054Y-125840485D01*
X125748259Y-125792512D01*
X125731463Y-125724692D01*
X125753999Y-125658556D01*
X125799054Y-125619515D01*
X125807816Y-125615051D01*
X125829789Y-125599086D01*
X125979786Y-125490109D01*
X125979788Y-125490106D01*
X125979792Y-125490104D01*
X126130104Y-125339792D01*
X126130106Y-125339788D01*
X126130109Y-125339786D01*
X126255048Y-125167820D01*
X126255047Y-125167820D01*
X126255051Y-125167816D01*
X126351557Y-124978412D01*
X126417246Y-124776243D01*
X126450500Y-124566287D01*
X126450500Y-124353713D01*
X126417246Y-124143757D01*
X126351557Y-123941588D01*
X126255051Y-123752184D01*
X126255049Y-123752181D01*
X126255048Y-123752179D01*
X126130109Y-123580213D01*
X125979786Y-123429890D01*
X125807820Y-123304951D01*
X125807115Y-123304591D01*
X125799054Y-123300485D01*
X125748259Y-123252512D01*
X125731463Y-123184692D01*
X125753999Y-123118556D01*
X125799054Y-123079515D01*
X125807816Y-123075051D01*
X125829789Y-123059086D01*
X125979786Y-122950109D01*
X125979788Y-122950106D01*
X125979792Y-122950104D01*
X126130104Y-122799792D01*
X126130106Y-122799788D01*
X126130109Y-122799786D01*
X126255048Y-122627820D01*
X126255047Y-122627820D01*
X126255051Y-122627816D01*
X126351557Y-122438412D01*
X126417246Y-122236243D01*
X126450500Y-122026287D01*
X126450500Y-121813713D01*
X126417246Y-121603757D01*
X126351557Y-121401588D01*
X126255051Y-121212184D01*
X126255049Y-121212181D01*
X126255048Y-121212179D01*
X126130109Y-121040213D01*
X125979786Y-120889890D01*
X125807820Y-120764951D01*
X125807115Y-120764591D01*
X125799054Y-120760485D01*
X125748259Y-120712512D01*
X125731463Y-120644692D01*
X125753999Y-120578556D01*
X125799054Y-120539515D01*
X125807816Y-120535051D01*
X125894138Y-120472335D01*
X125979786Y-120410109D01*
X125979788Y-120410106D01*
X125979792Y-120410104D01*
X126130104Y-120259792D01*
X126130106Y-120259788D01*
X126130109Y-120259786D01*
X126255048Y-120087820D01*
X126255047Y-120087820D01*
X126255051Y-120087816D01*
X126351557Y-119898412D01*
X126417246Y-119696243D01*
X126450500Y-119486287D01*
X126450500Y-119273713D01*
X126417246Y-119063757D01*
X126351557Y-118861588D01*
X126255051Y-118672184D01*
X126255049Y-118672181D01*
X126255048Y-118672179D01*
X126130109Y-118500213D01*
X126016569Y-118386673D01*
X125983084Y-118325350D01*
X125988068Y-118255658D01*
X126029940Y-118199725D01*
X126060915Y-118182810D01*
X126192331Y-118133796D01*
X126307546Y-118047546D01*
X126393796Y-117932331D01*
X126444091Y-117797483D01*
X126450500Y-117737873D01*
X126450499Y-115942128D01*
X126444091Y-115882517D01*
X126393796Y-115747669D01*
X126393795Y-115747668D01*
X126393793Y-115747664D01*
X126307547Y-115632455D01*
X126307544Y-115632452D01*
X126192335Y-115546206D01*
X126192328Y-115546202D01*
X126057482Y-115495908D01*
X126057483Y-115495908D01*
X125997883Y-115489501D01*
X125997881Y-115489500D01*
X125997873Y-115489500D01*
X125997864Y-115489500D01*
X124202129Y-115489500D01*
X124202123Y-115489501D01*
X124142516Y-115495908D01*
X124007671Y-115546202D01*
X124007664Y-115546206D01*
X123892455Y-115632452D01*
X123892452Y-115632455D01*
X123806206Y-115747664D01*
X123806202Y-115747671D01*
X123755908Y-115882517D01*
X123749501Y-115942116D01*
X123749501Y-115942123D01*
X123749500Y-115942135D01*
X122130500Y-115942135D01*
X122130500Y-93092135D01*
X123739500Y-93092135D01*
X123739500Y-94887870D01*
X123739501Y-94887876D01*
X123745908Y-94947483D01*
X123796202Y-95082328D01*
X123796206Y-95082335D01*
X123882452Y-95197544D01*
X123882455Y-95197547D01*
X123997664Y-95283793D01*
X123997671Y-95283797D01*
X124129082Y-95332810D01*
X124185016Y-95374681D01*
X124209433Y-95440145D01*
X124194582Y-95508418D01*
X124173431Y-95536673D01*
X124059889Y-95650215D01*
X123934951Y-95822179D01*
X123838444Y-96011585D01*
X123772753Y-96213760D01*
X123739500Y-96423713D01*
X123739500Y-96636286D01*
X123771169Y-96836239D01*
X123772754Y-96846243D01*
X123835194Y-97038414D01*
X123838444Y-97048414D01*
X123934951Y-97237820D01*
X124059890Y-97409786D01*
X124210213Y-97560109D01*
X124382182Y-97685050D01*
X124390946Y-97689516D01*
X124441742Y-97737491D01*
X124458536Y-97805312D01*
X124435998Y-97871447D01*
X124390946Y-97910484D01*
X124382182Y-97914949D01*
X124210213Y-98039890D01*
X124059890Y-98190213D01*
X123934951Y-98362179D01*
X123838444Y-98551585D01*
X123772753Y-98753760D01*
X123739500Y-98963713D01*
X123739500Y-99176286D01*
X123771169Y-99376239D01*
X123772754Y-99386243D01*
X123835194Y-99578414D01*
X123838444Y-99588414D01*
X123934951Y-99777820D01*
X124059890Y-99949786D01*
X124210213Y-100100109D01*
X124382182Y-100225050D01*
X124390946Y-100229516D01*
X124441742Y-100277491D01*
X124458536Y-100345312D01*
X124435998Y-100411447D01*
X124390946Y-100450484D01*
X124382182Y-100454949D01*
X124210213Y-100579890D01*
X124059890Y-100730213D01*
X123934951Y-100902179D01*
X123838444Y-101091585D01*
X123772753Y-101293760D01*
X123739500Y-101503713D01*
X123739500Y-101716286D01*
X123771169Y-101916239D01*
X123772754Y-101926243D01*
X123835194Y-102118414D01*
X123838444Y-102128414D01*
X123934951Y-102317820D01*
X124059890Y-102489786D01*
X124210213Y-102640109D01*
X124382182Y-102765050D01*
X124390946Y-102769516D01*
X124441742Y-102817491D01*
X124458536Y-102885312D01*
X124435998Y-102951447D01*
X124390946Y-102990484D01*
X124382182Y-102994949D01*
X124210213Y-103119890D01*
X124059890Y-103270213D01*
X123934951Y-103442179D01*
X123838444Y-103631585D01*
X123772753Y-103833760D01*
X123739500Y-104043713D01*
X123739500Y-104256286D01*
X123771169Y-104456239D01*
X123772754Y-104466243D01*
X123835194Y-104658414D01*
X123838444Y-104668414D01*
X123934951Y-104857820D01*
X124059890Y-105029786D01*
X124210213Y-105180109D01*
X124382182Y-105305050D01*
X124390946Y-105309516D01*
X124441742Y-105357491D01*
X124458536Y-105425312D01*
X124435998Y-105491447D01*
X124390946Y-105530484D01*
X124382182Y-105534949D01*
X124210213Y-105659890D01*
X124059890Y-105810213D01*
X123934951Y-105982179D01*
X123838444Y-106171585D01*
X123772753Y-106373760D01*
X123739500Y-106583713D01*
X123739500Y-106796286D01*
X123771169Y-106996239D01*
X123772754Y-107006243D01*
X123835194Y-107198414D01*
X123838444Y-107208414D01*
X123934951Y-107397820D01*
X124059890Y-107569786D01*
X124210213Y-107720109D01*
X124382182Y-107845050D01*
X124390946Y-107849516D01*
X124441742Y-107897491D01*
X124458536Y-107965312D01*
X124435998Y-108031447D01*
X124390946Y-108070484D01*
X124382182Y-108074949D01*
X124210213Y-108199890D01*
X124059890Y-108350213D01*
X123934951Y-108522179D01*
X123838444Y-108711585D01*
X123772753Y-108913760D01*
X123739500Y-109123713D01*
X123739500Y-109336286D01*
X123771169Y-109536239D01*
X123772754Y-109546243D01*
X123835194Y-109738414D01*
X123838444Y-109748414D01*
X123934951Y-109937820D01*
X124059890Y-110109786D01*
X124210213Y-110260109D01*
X124382182Y-110385050D01*
X124390946Y-110389516D01*
X124441742Y-110437491D01*
X124458536Y-110505312D01*
X124435998Y-110571447D01*
X124390946Y-110610484D01*
X124382182Y-110614949D01*
X124210213Y-110739890D01*
X124059890Y-110890213D01*
X123934951Y-111062179D01*
X123838444Y-111251585D01*
X123772753Y-111453760D01*
X123739500Y-111663713D01*
X123739500Y-111876287D01*
X123772754Y-112086243D01*
X123837803Y-112286443D01*
X123838444Y-112288414D01*
X123934951Y-112477820D01*
X124059890Y-112649786D01*
X124210213Y-112800109D01*
X124382179Y-112925048D01*
X124382181Y-112925049D01*
X124382184Y-112925051D01*
X124571588Y-113021557D01*
X124773757Y-113087246D01*
X124983713Y-113120500D01*
X124983714Y-113120500D01*
X125196286Y-113120500D01*
X125196287Y-113120500D01*
X125406243Y-113087246D01*
X125608412Y-113021557D01*
X125797816Y-112925051D01*
X125897902Y-112852335D01*
X125969786Y-112800109D01*
X125969788Y-112800106D01*
X125969792Y-112800104D01*
X126120104Y-112649792D01*
X126120106Y-112649788D01*
X126120109Y-112649786D01*
X126245048Y-112477820D01*
X126245047Y-112477820D01*
X126245051Y-112477816D01*
X126341557Y-112288412D01*
X126407246Y-112086243D01*
X126440500Y-111876287D01*
X126440500Y-111663713D01*
X126407246Y-111453757D01*
X126341557Y-111251588D01*
X126245051Y-111062184D01*
X126245049Y-111062181D01*
X126245048Y-111062179D01*
X126120109Y-110890213D01*
X125969786Y-110739890D01*
X125797820Y-110614951D01*
X125797115Y-110614591D01*
X125789054Y-110610485D01*
X125738259Y-110562512D01*
X125721463Y-110494692D01*
X125743999Y-110428556D01*
X125789054Y-110389515D01*
X125797816Y-110385051D01*
X125819789Y-110369086D01*
X125969786Y-110260109D01*
X125969788Y-110260106D01*
X125969792Y-110260104D01*
X126120104Y-110109792D01*
X126120106Y-110109788D01*
X126120109Y-110109786D01*
X126245048Y-109937820D01*
X126245047Y-109937820D01*
X126245051Y-109937816D01*
X126341557Y-109748412D01*
X126407246Y-109546243D01*
X126440500Y-109336287D01*
X126440500Y-109123713D01*
X126407246Y-108913757D01*
X126341557Y-108711588D01*
X126245051Y-108522184D01*
X126245049Y-108522181D01*
X126245048Y-108522179D01*
X126120109Y-108350213D01*
X125969786Y-108199890D01*
X125797820Y-108074951D01*
X125797115Y-108074591D01*
X125789054Y-108070485D01*
X125738259Y-108022512D01*
X125721463Y-107954692D01*
X125743999Y-107888556D01*
X125789054Y-107849515D01*
X125797816Y-107845051D01*
X125819789Y-107829086D01*
X125969786Y-107720109D01*
X125969788Y-107720106D01*
X125969792Y-107720104D01*
X126120104Y-107569792D01*
X126120106Y-107569788D01*
X126120109Y-107569786D01*
X126245048Y-107397820D01*
X126245047Y-107397820D01*
X126245051Y-107397816D01*
X126341557Y-107208412D01*
X126407246Y-107006243D01*
X126440500Y-106796287D01*
X126440500Y-106583713D01*
X126407246Y-106373757D01*
X126341557Y-106171588D01*
X126245051Y-105982184D01*
X126245049Y-105982181D01*
X126245048Y-105982179D01*
X126120109Y-105810213D01*
X125969786Y-105659890D01*
X125797820Y-105534951D01*
X125797115Y-105534591D01*
X125789054Y-105530485D01*
X125738259Y-105482512D01*
X125721463Y-105414692D01*
X125743999Y-105348556D01*
X125789054Y-105309515D01*
X125797816Y-105305051D01*
X125819789Y-105289086D01*
X125969786Y-105180109D01*
X125969788Y-105180106D01*
X125969792Y-105180104D01*
X126120104Y-105029792D01*
X126120106Y-105029788D01*
X126120109Y-105029786D01*
X126245048Y-104857820D01*
X126245047Y-104857820D01*
X126245051Y-104857816D01*
X126341557Y-104668412D01*
X126407246Y-104466243D01*
X126440500Y-104256287D01*
X126440500Y-104043713D01*
X126407246Y-103833757D01*
X126341557Y-103631588D01*
X126245051Y-103442184D01*
X126245049Y-103442181D01*
X126245048Y-103442179D01*
X126120109Y-103270213D01*
X125969786Y-103119890D01*
X125797820Y-102994951D01*
X125797115Y-102994591D01*
X125789054Y-102990485D01*
X125738259Y-102942512D01*
X125721463Y-102874692D01*
X125743999Y-102808556D01*
X125789054Y-102769515D01*
X125797816Y-102765051D01*
X125819789Y-102749086D01*
X125969786Y-102640109D01*
X125969788Y-102640106D01*
X125969792Y-102640104D01*
X126120104Y-102489792D01*
X126120106Y-102489788D01*
X126120109Y-102489786D01*
X126245048Y-102317820D01*
X126245047Y-102317820D01*
X126245051Y-102317816D01*
X126341557Y-102128412D01*
X126407246Y-101926243D01*
X126440500Y-101716287D01*
X126440500Y-101503713D01*
X126407246Y-101293757D01*
X126341557Y-101091588D01*
X126245051Y-100902184D01*
X126245049Y-100902181D01*
X126245048Y-100902179D01*
X126120109Y-100730213D01*
X125969786Y-100579890D01*
X125797820Y-100454951D01*
X125797115Y-100454591D01*
X125789054Y-100450485D01*
X125738259Y-100402512D01*
X125721463Y-100334692D01*
X125743999Y-100268556D01*
X125789054Y-100229515D01*
X125797816Y-100225051D01*
X125819789Y-100209086D01*
X125969786Y-100100109D01*
X125969788Y-100100106D01*
X125969792Y-100100104D01*
X126120104Y-99949792D01*
X126120106Y-99949788D01*
X126120109Y-99949786D01*
X126245048Y-99777820D01*
X126245047Y-99777820D01*
X126245051Y-99777816D01*
X126341557Y-99588412D01*
X126407246Y-99386243D01*
X126440500Y-99176287D01*
X126440500Y-98963713D01*
X126407246Y-98753757D01*
X126341557Y-98551588D01*
X126245051Y-98362184D01*
X126245049Y-98362181D01*
X126245048Y-98362179D01*
X126120109Y-98190213D01*
X125969786Y-98039890D01*
X125797820Y-97914951D01*
X125797115Y-97914591D01*
X125789054Y-97910485D01*
X125738259Y-97862512D01*
X125721463Y-97794692D01*
X125743999Y-97728556D01*
X125789054Y-97689515D01*
X125797816Y-97685051D01*
X125897902Y-97612335D01*
X125969786Y-97560109D01*
X125969788Y-97560106D01*
X125969792Y-97560104D01*
X126120104Y-97409792D01*
X126120106Y-97409788D01*
X126120109Y-97409786D01*
X126245048Y-97237820D01*
X126245047Y-97237820D01*
X126245051Y-97237816D01*
X126341557Y-97048412D01*
X126407246Y-96846243D01*
X126440500Y-96636287D01*
X126440500Y-96423713D01*
X126407246Y-96213757D01*
X126341557Y-96011588D01*
X126245051Y-95822184D01*
X126245049Y-95822181D01*
X126245048Y-95822179D01*
X126120109Y-95650213D01*
X126006569Y-95536673D01*
X125973084Y-95475350D01*
X125978068Y-95405658D01*
X126019940Y-95349725D01*
X126050915Y-95332810D01*
X126182331Y-95283796D01*
X126297546Y-95197546D01*
X126383796Y-95082331D01*
X126434091Y-94947483D01*
X126440500Y-94887873D01*
X126440499Y-93092128D01*
X126434091Y-93032517D01*
X126403275Y-92949896D01*
X126383797Y-92897671D01*
X126383793Y-92897664D01*
X126297547Y-92782455D01*
X126297544Y-92782452D01*
X126182335Y-92696206D01*
X126182328Y-92696202D01*
X126047482Y-92645908D01*
X126047483Y-92645908D01*
X125987883Y-92639501D01*
X125987881Y-92639500D01*
X125987873Y-92639500D01*
X125987864Y-92639500D01*
X124192129Y-92639500D01*
X124192123Y-92639501D01*
X124132516Y-92645908D01*
X123997671Y-92696202D01*
X123997664Y-92696206D01*
X123882455Y-92782452D01*
X123882452Y-92782455D01*
X123796206Y-92897664D01*
X123796202Y-92897671D01*
X123745908Y-93032517D01*
X123739501Y-93092116D01*
X123739501Y-93092123D01*
X123739500Y-93092135D01*
X122130500Y-93092135D01*
X122130500Y-85415928D01*
X122105502Y-85290261D01*
X122105501Y-85290260D01*
X122105501Y-85290256D01*
X122070166Y-85204949D01*
X122056466Y-85171874D01*
X122043340Y-85152230D01*
X121985278Y-85065332D01*
X121985272Y-85065325D01*
X107914673Y-70994726D01*
X107914669Y-70994723D01*
X107808127Y-70923535D01*
X107808122Y-70923533D01*
X107689744Y-70874499D01*
X107689738Y-70874497D01*
X107564071Y-70849500D01*
X107564069Y-70849500D01*
X102435931Y-70849500D01*
X102435929Y-70849500D01*
X102310261Y-70874497D01*
X102310255Y-70874499D01*
X102191875Y-70923533D01*
X102191866Y-70923538D01*
X102085331Y-70994723D01*
X102085327Y-70994726D01*
X101094727Y-71985325D01*
X101094724Y-71985328D01*
X101063901Y-72031458D01*
X101063902Y-72031459D01*
X101023534Y-72091874D01*
X100974498Y-72210257D01*
X100972729Y-72216090D01*
X100971467Y-72215707D01*
X100942215Y-72271613D01*
X100881495Y-72306180D01*
X100852994Y-72309500D01*
X100702130Y-72309500D01*
X100702123Y-72309501D01*
X100642516Y-72315908D01*
X100507671Y-72366202D01*
X100507664Y-72366206D01*
X100392455Y-72452452D01*
X100392452Y-72452455D01*
X100306206Y-72567664D01*
X100306202Y-72567671D01*
X100255908Y-72702517D01*
X100249501Y-72762116D01*
X100249500Y-72762135D01*
X99020500Y-72762135D01*
X99020500Y-71450808D01*
X99040185Y-71383769D01*
X99056819Y-71363127D01*
X101763127Y-68656819D01*
X101824450Y-68623334D01*
X101850808Y-68620500D01*
X109799192Y-68620500D01*
X109866231Y-68640185D01*
X109886873Y-68656819D01*
X120475325Y-79245272D01*
X120475328Y-79245275D01*
X120475331Y-79245277D01*
X120521441Y-79276086D01*
X120581873Y-79316465D01*
X120700256Y-79365501D01*
X120700260Y-79365501D01*
X120700261Y-79365502D01*
X120825928Y-79390500D01*
X120825931Y-79390500D01*
X123840382Y-79390500D01*
X123907421Y-79410185D01*
X123941099Y-79444591D01*
X123942085Y-79443875D01*
X124069890Y-79619786D01*
X124220213Y-79770109D01*
X124392182Y-79895050D01*
X124400946Y-79899516D01*
X124451742Y-79947491D01*
X124468536Y-80015312D01*
X124445998Y-80081447D01*
X124400946Y-80120484D01*
X124392182Y-80124949D01*
X124220213Y-80249890D01*
X124069890Y-80400213D01*
X123944951Y-80572179D01*
X123848444Y-80761585D01*
X123782753Y-80963760D01*
X123755640Y-81134949D01*
X123749500Y-81173713D01*
X123749500Y-81386287D01*
X123782754Y-81596243D01*
X123839727Y-81771588D01*
X123848444Y-81798414D01*
X123944951Y-81987820D01*
X124069890Y-82159786D01*
X124220213Y-82310109D01*
X124392179Y-82435048D01*
X124392181Y-82435049D01*
X124392184Y-82435051D01*
X124401493Y-82439794D01*
X124452290Y-82487766D01*
X124469087Y-82555587D01*
X124446552Y-82621722D01*
X124401502Y-82660762D01*
X124392443Y-82665378D01*
X124220540Y-82790272D01*
X124220535Y-82790276D01*
X124070276Y-82940535D01*
X124070272Y-82940540D01*
X123945379Y-83112442D01*
X123848904Y-83301782D01*
X123783242Y-83503870D01*
X123783242Y-83503873D01*
X123772769Y-83570000D01*
X124666988Y-83570000D01*
X124634075Y-83627007D01*
X124600000Y-83754174D01*
X124600000Y-83885826D01*
X124634075Y-84012993D01*
X124666988Y-84070000D01*
X123772769Y-84070000D01*
X123783242Y-84136126D01*
X123783242Y-84136129D01*
X123848904Y-84338217D01*
X123945379Y-84527557D01*
X124070272Y-84699459D01*
X124070276Y-84699464D01*
X124220535Y-84849723D01*
X124220540Y-84849727D01*
X124392444Y-84974622D01*
X124402048Y-84979516D01*
X124452844Y-85027491D01*
X124469638Y-85095312D01*
X124447100Y-85161447D01*
X124402048Y-85200484D01*
X124392444Y-85205377D01*
X124220540Y-85330272D01*
X124220535Y-85330276D01*
X124070276Y-85480535D01*
X124070272Y-85480540D01*
X123945379Y-85652442D01*
X123848904Y-85841782D01*
X123783242Y-86043870D01*
X123783242Y-86043873D01*
X123772769Y-86110000D01*
X124666988Y-86110000D01*
X124634075Y-86167007D01*
X124600000Y-86294174D01*
X124600000Y-86425826D01*
X124634075Y-86552993D01*
X124666988Y-86610000D01*
X123772769Y-86610000D01*
X123783242Y-86676126D01*
X123783242Y-86676129D01*
X123848904Y-86878217D01*
X123945379Y-87067557D01*
X124070272Y-87239459D01*
X124070276Y-87239464D01*
X124220535Y-87389723D01*
X124220540Y-87389727D01*
X124392444Y-87514622D01*
X124401495Y-87519234D01*
X124452292Y-87567208D01*
X124469087Y-87635029D01*
X124446550Y-87701164D01*
X124401499Y-87740202D01*
X124392182Y-87744949D01*
X124220213Y-87869890D01*
X124069890Y-88020213D01*
X123944951Y-88192179D01*
X123848444Y-88381585D01*
X123782753Y-88583760D01*
X123749500Y-88793713D01*
X123749500Y-89006286D01*
X123782753Y-89216239D01*
X123848444Y-89418414D01*
X123944951Y-89607820D01*
X124069890Y-89779786D01*
X124220213Y-89930109D01*
X124392179Y-90055048D01*
X124392181Y-90055049D01*
X124392184Y-90055051D01*
X124581588Y-90151557D01*
X124783757Y-90217246D01*
X124993713Y-90250500D01*
X124993714Y-90250500D01*
X125206286Y-90250500D01*
X125206287Y-90250500D01*
X125416243Y-90217246D01*
X125618412Y-90151557D01*
X125807816Y-90055051D01*
X125894138Y-89992335D01*
X125979786Y-89930109D01*
X125979788Y-89930106D01*
X125979792Y-89930104D01*
X126130104Y-89779792D01*
X126130106Y-89779788D01*
X126130109Y-89779786D01*
X126255048Y-89607820D01*
X126255047Y-89607820D01*
X126255051Y-89607816D01*
X126351557Y-89418412D01*
X126417246Y-89216243D01*
X126450500Y-89006287D01*
X126450500Y-88793713D01*
X126417246Y-88583757D01*
X126351557Y-88381588D01*
X126255051Y-88192184D01*
X126255049Y-88192181D01*
X126255048Y-88192179D01*
X126130109Y-88020213D01*
X125979786Y-87869890D01*
X125807817Y-87744949D01*
X125798504Y-87740204D01*
X125747707Y-87692230D01*
X125730912Y-87624409D01*
X125753449Y-87558274D01*
X125798507Y-87519232D01*
X125807558Y-87514620D01*
X125979459Y-87389727D01*
X125979464Y-87389723D01*
X126129723Y-87239464D01*
X126129727Y-87239459D01*
X126254620Y-87067557D01*
X126351095Y-86878217D01*
X126416757Y-86676129D01*
X126416757Y-86676126D01*
X126427231Y-86610000D01*
X125533012Y-86610000D01*
X125565925Y-86552993D01*
X125600000Y-86425826D01*
X125600000Y-86294174D01*
X125565925Y-86167007D01*
X125533012Y-86110000D01*
X126427231Y-86110000D01*
X126416757Y-86043873D01*
X126416757Y-86043870D01*
X126351095Y-85841782D01*
X126254620Y-85652442D01*
X126129727Y-85480540D01*
X126129723Y-85480535D01*
X125979464Y-85330276D01*
X125979459Y-85330272D01*
X125807558Y-85205379D01*
X125797954Y-85200486D01*
X125747157Y-85152512D01*
X125730361Y-85084692D01*
X125752897Y-85018556D01*
X125797954Y-84979514D01*
X125807558Y-84974620D01*
X125979459Y-84849727D01*
X125979464Y-84849723D01*
X126129723Y-84699464D01*
X126129727Y-84699459D01*
X126254620Y-84527557D01*
X126351095Y-84338217D01*
X126416757Y-84136129D01*
X126416757Y-84136126D01*
X126427231Y-84070000D01*
X125533012Y-84070000D01*
X125565925Y-84012993D01*
X125600000Y-83885826D01*
X125600000Y-83754174D01*
X125565925Y-83627007D01*
X125533012Y-83570000D01*
X126427231Y-83570000D01*
X126416757Y-83503873D01*
X126416757Y-83503870D01*
X126351095Y-83301782D01*
X126254620Y-83112442D01*
X126129727Y-82940540D01*
X126129723Y-82940535D01*
X125979464Y-82790276D01*
X125979459Y-82790272D01*
X125807555Y-82665377D01*
X125798500Y-82660763D01*
X125747706Y-82612788D01*
X125730912Y-82544966D01*
X125753451Y-82478832D01*
X125798508Y-82439793D01*
X125807816Y-82435051D01*
X125887007Y-82377515D01*
X125979786Y-82310109D01*
X125979788Y-82310106D01*
X125979792Y-82310104D01*
X126130104Y-82159792D01*
X126130106Y-82159788D01*
X126130109Y-82159786D01*
X126255048Y-81987820D01*
X126255047Y-81987820D01*
X126255051Y-81987816D01*
X126351557Y-81798412D01*
X126417246Y-81596243D01*
X126450500Y-81386287D01*
X126450500Y-81173713D01*
X126417246Y-80963757D01*
X126351557Y-80761588D01*
X126255051Y-80572184D01*
X126255049Y-80572181D01*
X126255048Y-80572179D01*
X126130109Y-80400213D01*
X125979786Y-80249890D01*
X125807820Y-80124951D01*
X125807115Y-80124591D01*
X125799054Y-80120485D01*
X125748259Y-80072512D01*
X125731463Y-80004692D01*
X125753999Y-79938556D01*
X125799054Y-79899515D01*
X125807816Y-79895051D01*
X125829789Y-79879086D01*
X125979786Y-79770109D01*
X125979788Y-79770106D01*
X125979792Y-79770104D01*
X126130104Y-79619792D01*
X126130106Y-79619788D01*
X126130109Y-79619786D01*
X126255048Y-79447820D01*
X126255047Y-79447820D01*
X126255051Y-79447816D01*
X126351557Y-79258412D01*
X126417246Y-79056243D01*
X126450500Y-78846287D01*
X126450500Y-78633713D01*
X126417246Y-78423757D01*
X126351557Y-78221588D01*
X126255051Y-78032184D01*
X126255049Y-78032181D01*
X126255048Y-78032179D01*
X126130109Y-77860213D01*
X125979786Y-77709890D01*
X125807820Y-77584951D01*
X125807115Y-77584591D01*
X125799054Y-77580485D01*
X125748259Y-77532512D01*
X125731463Y-77464692D01*
X125753999Y-77398556D01*
X125799054Y-77359515D01*
X125807816Y-77355051D01*
X125829789Y-77339086D01*
X125979786Y-77230109D01*
X125979788Y-77230106D01*
X125979792Y-77230104D01*
X126130104Y-77079792D01*
X126130106Y-77079788D01*
X126130109Y-77079786D01*
X126242588Y-76924970D01*
X126255051Y-76907816D01*
X126351557Y-76718412D01*
X126417246Y-76516243D01*
X126450500Y-76306287D01*
X126450500Y-76093713D01*
X126417246Y-75883757D01*
X126351557Y-75681588D01*
X126255051Y-75492184D01*
X126255049Y-75492181D01*
X126255048Y-75492179D01*
X126130109Y-75320213D01*
X125979786Y-75169890D01*
X125807820Y-75044951D01*
X125807115Y-75044591D01*
X125799054Y-75040485D01*
X125748259Y-74992512D01*
X125731463Y-74924692D01*
X125753999Y-74858556D01*
X125799054Y-74819515D01*
X125807816Y-74815051D01*
X125829789Y-74799086D01*
X125979786Y-74690109D01*
X125979788Y-74690106D01*
X125979792Y-74690104D01*
X126130104Y-74539792D01*
X126130106Y-74539788D01*
X126130109Y-74539786D01*
X126255048Y-74367820D01*
X126255047Y-74367820D01*
X126255051Y-74367816D01*
X126351557Y-74178412D01*
X126417246Y-73976243D01*
X126450500Y-73766287D01*
X126450500Y-73553713D01*
X126417246Y-73343757D01*
X126351557Y-73141588D01*
X126255051Y-72952184D01*
X126255049Y-72952181D01*
X126255048Y-72952179D01*
X126130109Y-72780213D01*
X126016569Y-72666673D01*
X125983084Y-72605350D01*
X125988068Y-72535658D01*
X126029940Y-72479725D01*
X126060915Y-72462810D01*
X126192331Y-72413796D01*
X126307546Y-72327546D01*
X126393796Y-72212331D01*
X126444091Y-72077483D01*
X126450500Y-72017873D01*
X126450499Y-70222128D01*
X126444091Y-70162517D01*
X126423838Y-70108217D01*
X126393797Y-70027671D01*
X126393793Y-70027664D01*
X126307547Y-69912455D01*
X126307544Y-69912452D01*
X126192335Y-69826206D01*
X126192328Y-69826202D01*
X126057482Y-69775908D01*
X126057483Y-69775908D01*
X125997883Y-69769501D01*
X125997881Y-69769500D01*
X125997873Y-69769500D01*
X125997864Y-69769500D01*
X124202129Y-69769500D01*
X124202123Y-69769501D01*
X124142516Y-69775908D01*
X124007671Y-69826202D01*
X124007664Y-69826206D01*
X123892455Y-69912452D01*
X123892452Y-69912455D01*
X123806206Y-70027664D01*
X123806202Y-70027671D01*
X123755908Y-70162517D01*
X123749501Y-70222116D01*
X123749501Y-70222123D01*
X123749500Y-70222135D01*
X123749500Y-72017870D01*
X123749501Y-72017876D01*
X123755908Y-72077483D01*
X123806202Y-72212328D01*
X123806206Y-72212335D01*
X123892452Y-72327544D01*
X123892455Y-72327547D01*
X124007664Y-72413793D01*
X124007671Y-72413797D01*
X124139082Y-72462810D01*
X124195016Y-72504681D01*
X124219433Y-72570145D01*
X124204582Y-72638418D01*
X124183431Y-72666673D01*
X124069889Y-72780215D01*
X123944951Y-72952179D01*
X123848444Y-73141585D01*
X123782753Y-73343760D01*
X123755640Y-73514949D01*
X123749500Y-73553713D01*
X123749500Y-73766287D01*
X123782754Y-73976243D01*
X123839727Y-74151588D01*
X123848444Y-74178414D01*
X123944951Y-74367820D01*
X124069890Y-74539786D01*
X124220213Y-74690109D01*
X124392182Y-74815050D01*
X124400946Y-74819516D01*
X124451742Y-74867491D01*
X124468536Y-74935312D01*
X124445998Y-75001447D01*
X124400946Y-75040484D01*
X124392182Y-75044949D01*
X124220213Y-75169890D01*
X124069890Y-75320213D01*
X123944951Y-75492179D01*
X123848444Y-75681585D01*
X123782753Y-75883760D01*
X123755640Y-76054949D01*
X123749500Y-76093713D01*
X123749500Y-76306287D01*
X123782754Y-76516243D01*
X123839727Y-76691588D01*
X123848444Y-76718414D01*
X123944951Y-76907820D01*
X124069890Y-77079786D01*
X124220213Y-77230109D01*
X124392182Y-77355050D01*
X124400946Y-77359516D01*
X124451742Y-77407491D01*
X124468536Y-77475312D01*
X124445998Y-77541447D01*
X124400946Y-77580484D01*
X124392182Y-77584949D01*
X124220213Y-77709890D01*
X124069890Y-77860213D01*
X123942085Y-78036125D01*
X123940740Y-78035148D01*
X123894295Y-78077166D01*
X123840382Y-78089500D01*
X121210808Y-78089500D01*
X121143769Y-78069815D01*
X121123127Y-78053181D01*
X110534674Y-67464727D01*
X110534673Y-67464726D01*
X110478228Y-67427011D01*
X110428127Y-67393535D01*
X110362238Y-67366243D01*
X110309744Y-67344499D01*
X110309738Y-67344497D01*
X110184071Y-67319500D01*
X110184069Y-67319500D01*
X101465931Y-67319500D01*
X101465929Y-67319500D01*
X101340261Y-67344497D01*
X101340255Y-67344499D01*
X101221874Y-67393534D01*
X101115326Y-67464726D01*
X97864724Y-70715328D01*
X97799627Y-70812755D01*
X97793534Y-70821873D01*
X97744499Y-70940255D01*
X97744497Y-70940261D01*
X97719500Y-71065928D01*
X96500500Y-71065928D01*
X96500500Y-49902135D01*
X100249500Y-49902135D01*
X100249500Y-51697870D01*
X100249501Y-51697876D01*
X100255908Y-51757483D01*
X100306202Y-51892328D01*
X100306206Y-51892335D01*
X100392452Y-52007544D01*
X100392455Y-52007547D01*
X100507664Y-52093793D01*
X100507671Y-52093797D01*
X100639082Y-52142810D01*
X100695016Y-52184681D01*
X100719433Y-52250145D01*
X100704582Y-52318418D01*
X100683431Y-52346673D01*
X100569889Y-52460215D01*
X100444951Y-52632179D01*
X100348444Y-52821585D01*
X100282753Y-53023760D01*
X100274511Y-53075800D01*
X100249500Y-53233713D01*
X100249500Y-53446287D01*
X100282754Y-53656243D01*
X100323912Y-53782915D01*
X100348444Y-53858414D01*
X100444951Y-54047820D01*
X100569890Y-54219786D01*
X100720213Y-54370109D01*
X100892182Y-54495050D01*
X100900946Y-54499516D01*
X100951742Y-54547491D01*
X100968536Y-54615312D01*
X100945998Y-54681447D01*
X100900946Y-54720484D01*
X100892182Y-54724949D01*
X100720213Y-54849890D01*
X100569890Y-55000213D01*
X100444951Y-55172179D01*
X100348444Y-55361585D01*
X100282753Y-55563760D01*
X100249500Y-55773713D01*
X100249500Y-55986286D01*
X100282753Y-56196239D01*
X100348444Y-56398414D01*
X100444951Y-56587820D01*
X100569890Y-56759786D01*
X100720213Y-56910109D01*
X100892182Y-57035050D01*
X100900946Y-57039516D01*
X100951742Y-57087491D01*
X100968536Y-57155312D01*
X100945998Y-57221447D01*
X100900946Y-57260484D01*
X100892182Y-57264949D01*
X100720213Y-57389890D01*
X100569890Y-57540213D01*
X100444951Y-57712179D01*
X100348444Y-57901585D01*
X100282753Y-58103760D01*
X100249500Y-58313713D01*
X100249500Y-58526286D01*
X100282753Y-58736239D01*
X100348444Y-58938414D01*
X100444951Y-59127820D01*
X100569890Y-59299786D01*
X100720213Y-59450109D01*
X100892179Y-59575048D01*
X100892181Y-59575049D01*
X100892184Y-59575051D01*
X100901493Y-59579794D01*
X100952290Y-59627766D01*
X100969087Y-59695587D01*
X100946552Y-59761722D01*
X100901502Y-59800762D01*
X100892443Y-59805378D01*
X100720540Y-59930272D01*
X100720535Y-59930276D01*
X100570276Y-60080535D01*
X100570272Y-60080540D01*
X100445379Y-60252442D01*
X100348904Y-60441782D01*
X100283242Y-60643870D01*
X100283242Y-60643873D01*
X100272769Y-60710000D01*
X101166988Y-60710000D01*
X101134075Y-60767007D01*
X101100000Y-60894174D01*
X101100000Y-61025826D01*
X101134075Y-61152993D01*
X101166988Y-61210000D01*
X100272769Y-61210000D01*
X100283242Y-61276126D01*
X100283242Y-61276129D01*
X100348904Y-61478217D01*
X100445379Y-61667557D01*
X100570272Y-61839459D01*
X100570276Y-61839464D01*
X100720535Y-61989723D01*
X100720540Y-61989727D01*
X100892444Y-62114622D01*
X100901495Y-62119234D01*
X100952292Y-62167208D01*
X100969087Y-62235029D01*
X100946550Y-62301164D01*
X100901499Y-62340202D01*
X100892182Y-62344949D01*
X100720213Y-62469890D01*
X100569890Y-62620213D01*
X100444951Y-62792179D01*
X100348444Y-62981585D01*
X100282753Y-63183760D01*
X100262314Y-63312810D01*
X100249500Y-63393713D01*
X100249500Y-63606287D01*
X100282754Y-63816243D01*
X100339727Y-63991588D01*
X100348444Y-64018414D01*
X100444951Y-64207820D01*
X100569890Y-64379786D01*
X100720213Y-64530109D01*
X100892179Y-64655048D01*
X100892181Y-64655049D01*
X100892184Y-64655051D01*
X101081588Y-64751557D01*
X101283757Y-64817246D01*
X101493713Y-64850500D01*
X101493714Y-64850500D01*
X101706286Y-64850500D01*
X101706287Y-64850500D01*
X101916243Y-64817246D01*
X102118412Y-64751557D01*
X102307816Y-64655051D01*
X102329789Y-64639086D01*
X102479786Y-64530109D01*
X102479788Y-64530106D01*
X102479792Y-64530104D01*
X102630104Y-64379792D01*
X102630106Y-64379788D01*
X102630109Y-64379786D01*
X102755048Y-64207820D01*
X102755047Y-64207820D01*
X102755051Y-64207816D01*
X102759514Y-64199054D01*
X102807488Y-64148259D01*
X102875308Y-64131463D01*
X102941444Y-64153999D01*
X102980486Y-64199056D01*
X102984951Y-64207820D01*
X103109890Y-64379786D01*
X103260213Y-64530109D01*
X103432179Y-64655048D01*
X103432181Y-64655049D01*
X103432184Y-64655051D01*
X103621588Y-64751557D01*
X103823757Y-64817246D01*
X104033713Y-64850500D01*
X104033714Y-64850500D01*
X104246286Y-64850500D01*
X104246287Y-64850500D01*
X104456243Y-64817246D01*
X104658412Y-64751557D01*
X104847816Y-64655051D01*
X104869789Y-64639086D01*
X105019786Y-64530109D01*
X105019788Y-64530106D01*
X105019792Y-64530104D01*
X105170104Y-64379792D01*
X105170106Y-64379788D01*
X105170109Y-64379786D01*
X105295048Y-64207820D01*
X105295047Y-64207820D01*
X105295051Y-64207816D01*
X105391557Y-64018412D01*
X105457246Y-63816243D01*
X105490500Y-63606287D01*
X105490500Y-63393713D01*
X105457246Y-63183757D01*
X105391557Y-62981588D01*
X105295051Y-62792184D01*
X105295049Y-62792181D01*
X105295048Y-62792179D01*
X105170109Y-62620213D01*
X105019786Y-62469890D01*
X104847817Y-62344949D01*
X104838504Y-62340204D01*
X104787707Y-62292230D01*
X104770912Y-62224409D01*
X104793449Y-62158274D01*
X104838507Y-62119232D01*
X104847558Y-62114620D01*
X105019459Y-61989727D01*
X105019464Y-61989723D01*
X105169723Y-61839464D01*
X105169727Y-61839459D01*
X105294620Y-61667557D01*
X105391095Y-61478217D01*
X105456757Y-61276129D01*
X105456757Y-61276126D01*
X105467231Y-61210000D01*
X104573012Y-61210000D01*
X104605925Y-61152993D01*
X104640000Y-61025826D01*
X104640000Y-60894174D01*
X104605925Y-60767007D01*
X104573012Y-60710000D01*
X105467231Y-60710000D01*
X105456757Y-60643873D01*
X105456757Y-60643870D01*
X105391095Y-60441782D01*
X105294620Y-60252442D01*
X105169727Y-60080540D01*
X105169723Y-60080535D01*
X105019464Y-59930276D01*
X105019459Y-59930272D01*
X104847555Y-59805377D01*
X104838500Y-59800763D01*
X104787706Y-59752788D01*
X104770912Y-59684966D01*
X104793451Y-59618832D01*
X104838508Y-59579793D01*
X104847816Y-59575051D01*
X104967228Y-59488294D01*
X105019786Y-59450109D01*
X105019788Y-59450106D01*
X105019792Y-59450104D01*
X105170104Y-59299792D01*
X105170106Y-59299788D01*
X105170109Y-59299786D01*
X105295048Y-59127820D01*
X105295047Y-59127820D01*
X105295051Y-59127816D01*
X105391557Y-58938412D01*
X105457246Y-58736243D01*
X105490500Y-58526287D01*
X105490500Y-58313713D01*
X105457246Y-58103757D01*
X105391557Y-57901588D01*
X105295051Y-57712184D01*
X105295049Y-57712181D01*
X105295048Y-57712179D01*
X105170109Y-57540213D01*
X105019786Y-57389890D01*
X104847820Y-57264951D01*
X104847115Y-57264591D01*
X104839054Y-57260485D01*
X104788259Y-57212512D01*
X104771463Y-57144692D01*
X104793999Y-57078556D01*
X104839054Y-57039515D01*
X104847816Y-57035051D01*
X104869789Y-57019086D01*
X105019786Y-56910109D01*
X105019788Y-56910106D01*
X105019792Y-56910104D01*
X105170104Y-56759792D01*
X105170106Y-56759788D01*
X105170109Y-56759786D01*
X105295048Y-56587820D01*
X105295047Y-56587820D01*
X105295051Y-56587816D01*
X105391557Y-56398412D01*
X105457246Y-56196243D01*
X105490500Y-55986287D01*
X105490500Y-55773713D01*
X105457246Y-55563757D01*
X105391557Y-55361588D01*
X105295051Y-55172184D01*
X105295049Y-55172181D01*
X105295048Y-55172179D01*
X105170109Y-55000213D01*
X105019786Y-54849890D01*
X104847820Y-54724951D01*
X104847115Y-54724591D01*
X104839054Y-54720485D01*
X104788259Y-54672512D01*
X104771463Y-54604692D01*
X104793999Y-54538556D01*
X104839054Y-54499515D01*
X104847816Y-54495051D01*
X104869789Y-54479086D01*
X105019786Y-54370109D01*
X105019788Y-54370106D01*
X105019792Y-54370104D01*
X105170104Y-54219792D01*
X105170106Y-54219788D01*
X105170109Y-54219786D01*
X105295048Y-54047820D01*
X105295047Y-54047820D01*
X105295051Y-54047816D01*
X105391557Y-53858412D01*
X105457246Y-53656243D01*
X105490500Y-53446287D01*
X105490500Y-53233713D01*
X105457246Y-53023757D01*
X105391557Y-52821588D01*
X105295051Y-52632184D01*
X105295049Y-52632181D01*
X105295048Y-52632179D01*
X105170109Y-52460213D01*
X105069494Y-52359598D01*
X112500000Y-52359598D01*
X112500000Y-52640401D01*
X112531437Y-52919412D01*
X112531439Y-52919424D01*
X112593921Y-53193178D01*
X112593922Y-53193180D01*
X112686662Y-53458217D01*
X112808492Y-53711200D01*
X112957884Y-53948956D01*
X113064187Y-54082257D01*
X113777339Y-53369104D01*
X113855864Y-53477184D01*
X114022816Y-53644136D01*
X114130893Y-53722658D01*
X113417741Y-54435810D01*
X113417741Y-54435811D01*
X113551043Y-54542115D01*
X113788799Y-54691507D01*
X114041782Y-54813337D01*
X114306819Y-54906077D01*
X114306821Y-54906078D01*
X114580575Y-54968560D01*
X114580587Y-54968562D01*
X114859598Y-54999999D01*
X114859600Y-55000000D01*
X115140400Y-55000000D01*
X115140401Y-54999999D01*
X115419412Y-54968562D01*
X115419424Y-54968560D01*
X115693178Y-54906078D01*
X115693180Y-54906077D01*
X115958217Y-54813337D01*
X116211200Y-54691507D01*
X116448956Y-54542116D01*
X116582257Y-54435810D01*
X115869105Y-53722659D01*
X115977184Y-53644136D01*
X116144136Y-53477184D01*
X116222659Y-53369106D01*
X116935810Y-54082257D01*
X117042116Y-53948956D01*
X117191507Y-53711200D01*
X117313337Y-53458217D01*
X117406077Y-53193180D01*
X117406078Y-53193178D01*
X117468560Y-52919424D01*
X117468562Y-52919412D01*
X117499999Y-52640401D01*
X117500000Y-52640399D01*
X117500000Y-52359600D01*
X117499999Y-52359598D01*
X117468562Y-52080587D01*
X117468560Y-52080575D01*
X117406078Y-51806821D01*
X117406077Y-51806819D01*
X117313337Y-51541782D01*
X117191507Y-51288799D01*
X117042115Y-51051043D01*
X116935810Y-50917741D01*
X116222658Y-51630893D01*
X116144136Y-51522816D01*
X115977184Y-51355864D01*
X115869105Y-51277340D01*
X116582257Y-50564187D01*
X116448956Y-50457884D01*
X116211200Y-50308492D01*
X115958217Y-50186662D01*
X115693180Y-50093922D01*
X115693178Y-50093921D01*
X115419424Y-50031439D01*
X115419412Y-50031437D01*
X115140401Y-50000000D01*
X114859598Y-50000000D01*
X114580587Y-50031437D01*
X114580575Y-50031439D01*
X114306821Y-50093921D01*
X114306819Y-50093922D01*
X114041782Y-50186662D01*
X113788799Y-50308492D01*
X113551043Y-50457884D01*
X113417741Y-50564187D01*
X114130894Y-51277340D01*
X114022816Y-51355864D01*
X113855864Y-51522816D01*
X113777340Y-51630894D01*
X113064187Y-50917741D01*
X112957884Y-51051043D01*
X112808492Y-51288799D01*
X112686662Y-51541782D01*
X112593922Y-51806819D01*
X112593921Y-51806821D01*
X112531439Y-52080575D01*
X112531437Y-52080587D01*
X112500000Y-52359598D01*
X105069494Y-52359598D01*
X105019786Y-52309890D01*
X104847820Y-52184951D01*
X104847115Y-52184591D01*
X104839054Y-52180485D01*
X104788259Y-52132512D01*
X104771463Y-52064692D01*
X104793999Y-51998556D01*
X104839054Y-51959515D01*
X104847816Y-51955051D01*
X104934138Y-51892335D01*
X105019786Y-51830109D01*
X105019788Y-51830106D01*
X105019792Y-51830104D01*
X105170104Y-51679792D01*
X105170106Y-51679788D01*
X105170109Y-51679786D01*
X105295048Y-51507820D01*
X105295047Y-51507820D01*
X105295051Y-51507816D01*
X105391557Y-51318412D01*
X105457246Y-51116243D01*
X105490500Y-50906287D01*
X105490500Y-50693713D01*
X105490500Y-50693712D01*
X105480731Y-50632031D01*
X105457246Y-50483760D01*
X105457246Y-50483757D01*
X105391557Y-50281588D01*
X105295051Y-50092184D01*
X105295049Y-50092181D01*
X105295048Y-50092179D01*
X105170109Y-49920213D01*
X105019786Y-49769890D01*
X104847820Y-49644951D01*
X104658414Y-49548444D01*
X104658413Y-49548443D01*
X104658412Y-49548443D01*
X104456243Y-49482754D01*
X104456241Y-49482753D01*
X104456240Y-49482753D01*
X104294957Y-49457208D01*
X104246287Y-49449500D01*
X104033713Y-49449500D01*
X103985042Y-49457208D01*
X103823760Y-49482753D01*
X103621585Y-49548444D01*
X103432179Y-49644951D01*
X103260215Y-49769889D01*
X103146673Y-49883431D01*
X103085350Y-49916915D01*
X103015658Y-49911931D01*
X102959725Y-49870059D01*
X102942810Y-49839082D01*
X102893797Y-49707671D01*
X102893793Y-49707664D01*
X102807547Y-49592455D01*
X102807544Y-49592452D01*
X102692335Y-49506206D01*
X102692328Y-49506202D01*
X102557482Y-49455908D01*
X102557483Y-49455908D01*
X102497883Y-49449501D01*
X102497881Y-49449500D01*
X102497873Y-49449500D01*
X102497864Y-49449500D01*
X100702129Y-49449500D01*
X100702123Y-49449501D01*
X100642516Y-49455908D01*
X100507671Y-49506202D01*
X100507664Y-49506206D01*
X100392455Y-49592452D01*
X100392452Y-49592455D01*
X100306206Y-49707664D01*
X100306202Y-49707671D01*
X100255908Y-49842517D01*
X100249501Y-49902116D01*
X100249500Y-49902135D01*
X96500500Y-49902135D01*
X96500500Y-46624500D01*
X96520185Y-46557461D01*
X96572989Y-46511706D01*
X96624500Y-46500500D01*
X119375500Y-46500500D01*
X119442539Y-46520185D01*
G37*
%TD.AperFunction*%
%TD*%
M02*
