M48
; DRILL file {KiCad 9.0.1-9.0.1-0~ubuntu24.04.1} date 2025-04-22T11:41:37+0900
; FORMAT={-:-/ absolute / metric / decimal}
; #@! TF.CreationDate,2025-04-22T11:41:37+09:00
; #@! TF.GenerationSoftware,Kicad,Pcbnew,9.0.1-9.0.1-0~ubuntu24.04.1
; #@! TF.FileFunction,Plated,1,2,PTH
FMAT,2
METRIC
; #@! TA.AperFunction,Plated,PTH,ViaDrill
T1C0.300
; #@! TA.AperFunction,Plated,PTH,ComponentDrill
T2C1.000
; #@! TA.AperFunction,Plated,PTH,ComponentDrill
T3C1.300
; #@! TA.AperFunction,Plated,PTH,ComponentDrill
T4C3.000
%
G90
G05
T1
X99.06Y-66.04
X99.06Y-143.51
X101.6Y-91.44
X106.68Y-91.44
X106.68Y-143.51
X109.22Y-66.04
X109.22Y-111.76
X109.22Y-116.84
X110.49Y-71.12
X110.49Y-132.08
X111.76Y-48.26
X111.76Y-147.32
X116.84Y-48.26
X116.84Y-58.42
X116.84Y-143.51
X116.84Y-151.13
X119.38Y-71.12
X124.46Y-91.44
X124.46Y-114.3
X127.0Y-137.16
X128.27Y-152.4
X157.48Y-152.4
X163.83Y-152.4
X171.45Y-153.67
X173.99Y-143.51
X179.07Y-147.32
X180.34Y-87.63
X180.34Y-97.79
X180.34Y-109.22
X180.34Y-118.11
T2
X101.6Y-50.8
X101.6Y-53.34
X101.6Y-55.88
X101.6Y-58.42
X101.6Y-60.96
X101.6Y-63.5
X101.6Y-73.66
X101.6Y-76.2
X101.6Y-78.74
X101.6Y-81.28
X101.6Y-83.82
X101.6Y-86.36
X101.6Y-96.52
X101.6Y-99.06
X101.6Y-101.6
X101.6Y-104.14
X101.6Y-106.68
X101.6Y-109.22
X101.6Y-113.538
X101.6Y-119.38
X101.6Y-121.92
X101.6Y-124.46
X101.6Y-127.0
X101.6Y-129.54
X101.6Y-132.08
X103.54Y-137.28
X104.14Y-50.8
X104.14Y-53.34
X104.14Y-55.88
X104.14Y-58.42
X104.14Y-60.96
X104.14Y-63.5
X104.14Y-73.66
X104.14Y-76.2
X104.14Y-78.74
X104.14Y-81.28
X104.14Y-83.82
X104.14Y-86.36
X104.14Y-96.52
X104.14Y-99.06
X104.14Y-101.6
X104.14Y-104.14
X104.14Y-106.68
X104.14Y-109.22
X104.14Y-113.538
X104.14Y-119.38
X104.14Y-121.92
X104.14Y-124.46
X104.14Y-127.0
X104.14Y-129.54
X104.14Y-132.08
X106.08Y-137.28
X106.68Y-113.538
X108.62Y-137.28
X111.16Y-137.28
X125.09Y-93.99
X125.09Y-96.53
X125.09Y-99.07
X125.09Y-101.61
X125.09Y-104.15
X125.09Y-106.69
X125.09Y-109.23
X125.09Y-111.77
X125.1Y-71.12
X125.1Y-73.66
X125.1Y-76.2
X125.1Y-78.74
X125.1Y-81.28
X125.1Y-83.82
X125.1Y-86.36
X125.1Y-88.9
X125.1Y-116.84
X125.1Y-119.38
X125.1Y-121.92
X125.1Y-124.46
X125.1Y-127.0
X125.1Y-129.54
X125.1Y-132.08
X125.1Y-134.62
X130.175Y-137.16
X130.175Y-139.7
X132.715Y-137.16
X132.715Y-139.7
X135.255Y-137.16
X135.255Y-139.7
X137.795Y-137.16
X137.795Y-139.7
X140.335Y-137.16
X140.335Y-139.7
X142.875Y-137.16
X142.875Y-139.7
X145.415Y-137.16
X145.415Y-139.7
X147.955Y-137.16
X147.955Y-139.7
X150.495Y-137.16
X150.495Y-139.7
X153.035Y-137.16
X153.035Y-139.7
X155.575Y-137.16
X155.575Y-139.7
X158.115Y-137.16
X158.115Y-139.7
X160.655Y-137.16
X160.655Y-139.7
X163.195Y-137.16
X163.195Y-139.7
X165.735Y-137.16
X165.735Y-139.7
X168.275Y-137.16
X168.275Y-139.7
X170.815Y-137.16
X170.815Y-139.7
X173.35Y-61.97
X173.35Y-64.51
X173.35Y-67.05
X173.35Y-69.59
X173.35Y-72.13
X173.35Y-74.67
X173.35Y-77.21
X173.35Y-79.75
X173.35Y-82.29
X173.35Y-84.83
X173.35Y-88.9
X173.35Y-91.44
X173.35Y-93.98
X173.35Y-96.52
X173.35Y-99.06
X173.35Y-101.6
X173.35Y-104.14
X173.35Y-106.68
X173.35Y-111.76
X173.35Y-114.3
X173.35Y-116.84
X173.35Y-119.38
X173.35Y-121.92
X173.35Y-124.46
X173.35Y-127.0
X173.35Y-129.54
X173.355Y-137.16
X173.355Y-139.7
T3
X180.28Y-134.28
X180.28Y-141.9
T4
X100.0Y-151.0
X115.0Y-52.5
X176.0Y-151.5
M30
